<svg width="18" height="18" viewBox="0 0 18 18" fill="none" xmlns="http://www.w3.org/2000/svg">
<path d="M9.69 1.69488L14.5725 4.32738C15.1425 4.63488 15.1425 5.51238 14.5725 5.81988L9.69 8.45238C9.255 8.68488 8.745 8.68488 8.31 8.45238L3.4275 5.81988C2.8575 5.51238 2.8575 4.63488 3.4275 4.32738L8.31 1.69488C8.745 1.46238 9.255 1.46238 9.69 1.69488Z" stroke="#566877" stroke-width="1.2" stroke-linecap="round" stroke-linejoin="round"/>
<path d="M2.7075 7.59775L7.245 9.87025C7.8075 10.1553 8.1675 10.7328 8.1675 11.3628V15.6528C8.1675 16.2753 7.515 16.6728 6.96 16.3953L2.4225 14.1228C1.86 13.8378 1.5 13.2603 1.5 12.6303V8.34025C1.5 7.71775 2.1525 7.32025 2.7075 7.59775Z" stroke="#566877" stroke-width="1.2" stroke-linecap="round" stroke-linejoin="round"/>
<path d="M15.294 7.59775L10.7565 9.87025C10.194 10.1553 9.83398 10.7328 9.83398 11.3628V15.6528C9.83398 16.2753 10.4865 16.6728 11.0415 16.3953L15.579 14.1228C16.1415 13.8378 16.5015 13.2603 16.5015 12.6303V8.34025C16.5015 7.71775 15.849 7.32025 15.294 7.59775Z" stroke="#566877" stroke-width="1.2" stroke-linecap="round" stroke-linejoin="round"/>
</svg>
