<svg xmlns="http://www.w3.org/2000/svg" width="16" height="16">
    <path fill="#686F76" fill-opacity=".702" fill-rule="evenodd" d="M15.5 13H13v2.5a.5.5 0 0 1-1 0V13H9.5a.5.5 0 0 1 0-1H12V9.5a.5.5 0 0 1 1 0V12h2.5a.5.5 0 0 1 0 1zM7 8C4.794 8 3 6.206 3 4s1.794-4 4-4 4 1.794 4 4-1.794 4-4 4zm0-7C5.346 1 4 2.346 4 4s1.346 3 3 3 3-1.346 3-3-1.346-3-3-3zm.5 8c.899 0 1.772.183 2.594.542a.5.5 0 1 1-.401.916A5.44 5.44 0 0 0 7.5 10h-1a5.506 5.506 0 0 0-5.477 5H9.5a.5.5 0 1 1 0 1h-9a.5.5 0 0 1-.5-.5C0 11.916 2.916 9 6.5 9h1z"/>
</svg>
