<svg xmlns="http://www.w3.org/2000/svg" width="19" height="23">
    <path fill="#3C4042" fill-opacity=".6" fill-rule="evenodd" d="M10.378 21.999H9.5a.5.5 0 0 1 0 1h-.001.001a.5.5 0 0 1 0-1h-.879C6.268 19.263 0 13.58 0 9.374 0 4.196 4.253-.001 9.5-.001S19 4.196 19 9.374c0 4.206-6.269 9.889-8.622 12.625zM9.5.999C4.813.999 1 4.755 1 9.374c0 3.596 5.581 8.76 8.5 12.118 2.918-3.359 8.5-8.525 8.5-12.118C18 4.755 14.186.999 9.5.999zm0 11a3.5 3.5 0 1 1 0-7.002 3.5 3.5 0 0 1 0 7.002zm0-6a2.5 2.5 0 1 0 0 5 2.5 2.5 0 0 0 0-5z"/>
</svg>
