<svg xmlns="http://www.w3.org/2000/svg" width="25" height="18">
    <path fill="#3C4042" fill-opacity=".6" fill-rule="evenodd" d="M24.214 14.003H19.95c.023.163.05.324.05.492a3.502 3.502 0 0 1-3.5 3.504 3.502 3.502 0 0 1-3.5-3.504c0-.167.026-.327.049-.488H8.951c.022.161.049.321.049.488a3.502 3.502 0 0 1-3.5 3.504 3.503 3.503 0 0 1-3.501-3.504c0-.167.027-.327.05-.488h-.504A1.55 1.55 0 0 1 0 12.451V1.555A1.55 1.55 0 0 1 1.545-.001h13.909c.854 0 1.546.697 1.546 1.556v1.44h5.643c.434 0 .785.352.785.787L25 13.217a.785.785 0 0 1-.786.786zM5.5 16.99c1.381 0 2.5-1.117 2.5-2.495a2.497 2.497 0 0 0-2.5-2.496A2.497 2.497 0 0 0 3 14.495a2.497 2.497 0 0 0 2.5 2.495zm10.5-8V1.999a1 1 0 0 0-1-1H1.999a1 1 0 0 0-.999 1v10a1 1 0 0 0 .999 1h.347A3.494 3.494 0 0 1 5.5 10.991c1.396 0 2.591.825 3.153 2.008h4.693A3.487 3.487 0 0 1 16 11.042V8.99zm.5 3.009a2.497 2.497 0 0 0-2.5 2.496 2.497 2.497 0 0 0 2.5 2.495c1.381 0 2.5-1.117 2.5-2.495a2.497 2.497 0 0 0-2.5-2.496zm5.943-8.01H17v4.015h6.112l-.669-4.015zm.833 5.001H17v2.052a3.485 3.485 0 0 1 2.659 1.967h4.287l-.67-4.019z"/>
</svg>
