<svg xmlns="http://www.w3.org/2000/svg" width="21" height="22">
    <path fill="#3C4042" fill-opacity=".6" fill-rule="evenodd" d="M20.854 9.853a.476.476 0 0 1-.673 0l-1.196-.998v11.581c0 .862-.703 1.562-1.57 1.562H3.567c-.867 0-1.57-.7-1.57-1.562V8.87l-1.179.983a.474.474 0 1 1-.672-.672l1.851-1.544-2-7.077V.558L2 7.634l8.066-6.398c.022-.039.017-.087.05-.12a.455.455 0 0 1 .384-.12.455.455 0 0 1 .384.12c.033.033.028.081.049.121l9.921 7.944a.476.476 0 0 1 0 .672zm-9.846 11.145h3.989v-8.001h-3.989v8.001zM18 8.033l-7.5-5.925L3 8.033v11.966a1 1 0 0 0 1 1h6.01v-9.001h5.984v9.001H16c1.58.062 2-.447 2-1V8.033zM3.992 11.998h4.019v4H3.992v-4zm.992 2.999H6.98v-2.001H4.984v2.001z"/>
</svg>
