<svg xmlns="http://www.w3.org/2000/svg" width="52" height="52">
    <path fill="#00AEEF" fill-opacity=".078" fill-rule="evenodd" d="M26 0c14.359 0 26 11.641 26 26S40.359 52 26 52C11.64 52 0 40.359 0 26S11.64 0 26 0z"/>
    <path fill="#FFF" fill-rule="evenodd" d="M22.391 17.3L20.043 15h-5.869c-.649 0-1.174.515-1.174 1.15V35.7c0 1.27 1.051 2.3 2.348 2.3h22.304C38.949 38 40 36.97 40 35.7V19.6c0-1.27-1.051-2.3-2.348-2.3H22.391z"/>
    <path fill="#2FBDF2" fill-rule="evenodd" d="M31.836 28.33h-.587a.955.955 0 0 1-.854-.523.788.788 0 0 1 .214-.941l.373-.366a.498.498 0 0 0 0-.732l-.747-.732a.523.523 0 0 0-.747 0l-.374.366a.943.943 0 0 1-.96.209.93.93 0 0 1-.534-.837v-.627c0-.313-.213-.522-.533-.522H26.02c-.32 0-.534.209-.534.523v.575a.93.93 0 0 1-.533.836c-.427.105-.801 0-1.067-.209l-.427-.418a.523.523 0 0 0-.747 0l-.747.732a.498.498 0 0 0 0 .732l.373.366c.267.261.32.627.214.94a.953.953 0 0 1-.854.523h-.534c-.32 0-.533.209-.533.523v1.045c0 .313.213.523.533.523h.587c.373 0 .694.209.854.522a.788.788 0 0 1-.214.941l-.373.366a.498.498 0 0 0 0 .732l.747.732a.523.523 0 0 0 .747 0l.374-.366a.941.941 0 0 1 .96-.209c.32.157.533.47.533.836v.732c0 .314.214.523.534.523h1.067c.32 0 .534-.209.534-.523v-.575a.93.93 0 0 1 .533-.836.825.825 0 0 1 .96.209l.374.366a.523.523 0 0 0 .747 0l.747-.732a.498.498 0 0 0 0-.732l-.373-.366a.897.897 0 0 1-.214-.941.953.953 0 0 1 .854-.522h.694c.32 0 .534-.21.534-.523v-1.045c0-.367-.214-.575-.534-.575zM26.5 31.1c-.973 0-1.761-.772-1.761-1.725 0-.953.788-1.725 1.761-1.725.972 0 1.761.772 1.761 1.725 0 .953-.789 1.725-1.761 1.725z"/>
    <path fill="#A4E2F9" fill-rule="evenodd" d="M40 21H13v-4.85c0-.635.525-1.15 1.174-1.15h5.869L22 17h15c1.796 0 3 1.33 3 2.6V21z"/>
</svg>
