<svg xmlns="http://www.w3.org/2000/svg" width="151" height="141">
    <defs>
        <filter id="a" width="111" height="105" x="12" y="25" filterUnits="userSpaceOnUse">
            <feOffset dy="7" in="SourceAlpha"/>
            <feGaussianBlur result="blurOut" stdDeviation="4.472"/>
            <feFlood flood-color="#4B4B4B" result="floodOut"/>
            <feComposite in="floodOut" in2="blurOut" operator="atop"/>
            <feComponentTransfer>
                <feFuncA slope=".2" type="linear"/>
            </feComponentTransfer>
            <feMerge>
                <feMergeNode/>
                <feMergeNode in="SourceGraphic"/>
            </feMerge>
        </filter>
    </defs>
    <path fill="#F3F7FA" fill-rule="evenodd" d="M70.5 0C109.436 0 141 31.564 141 70.5S109.436 141 70.5 141 0 109.436 0 70.5 31.564 0 70.5 0z"/>
    <path fill="#F3F7FA" fill-rule="evenodd" d="M35 37h64a4 4 0 0 1 4 4v58a4 4 0 0 1-4 4H35a4 4 0 0 1-4-4V41a4 4 0 0 1 4-4z" filter="url(#a)"/>
    <path fill="#FFF" fill-rule="evenodd" d="M40 54h55a3 3 0 0 1 3 3v38a3 3 0 0 1-3 3H40a3 3 0 0 1-3-3V57a3 3 0 0 1 3-3z"/>
    <path fill="#CFDBE3" fill-rule="evenodd" d="M67.318 41.921h27.626c1.519 0 2.762 1.256 2.762 2.792 0 1.535-1.243 2.792-2.762 2.792H67.318c-1.521 0-2.764-1.257-2.764-2.792 0-1.536 1.243-2.792 2.764-2.792zM47.979 41.921c-1.521 0-2.764 1.256-2.764 2.792 0 1.535 1.243 2.792 2.764 2.792 1.518 0 2.761-1.257 2.761-2.792 0-1.536-1.243-2.792-2.761-2.792zm8.286 0c-1.518 0-2.763 1.256-2.763 2.792 0 1.535 1.245 2.792 2.763 2.792 1.521 0 2.764-1.257 2.764-2.792 0-1.536-1.243-2.792-2.764-2.792z"/>
    <path fill="#FF7058" fill-rule="evenodd" d="M39.69 41.921c-1.519 0-2.764 1.256-2.764 2.792 0 1.535 1.245 2.792 2.764 2.792 1.52 0 2.763-1.257 2.763-2.792 0-1.536-1.243-2.792-2.763-2.792z"/>
    <path fill="#FFF" fill-rule="evenodd" d="M87.861 58.81c-3.797 0-6.906 3.093-6.906 6.873V97.3h-41.44c-1.519 0-2.763-1.237-2.763-2.749V56.737c0-1.512 1.244-2.749 2.763-2.749h55.253a2.764 2.764 0 0 1 2.763 2.749v2.073h-9.67z"/>
    <path fill="#E3EAEF" fill-rule="evenodd" d="M41.313 59.469h52.062v3.375H41.313v-3.375zM54.313 67.5h18.031v3.313H54.313V67.5zM54.313 74.5h18.031v3.313H54.313V74.5zM54.313 81.5h18.031v3.312H54.313V81.5zM54.313 88.5h18.031v3.312H54.313V88.5zM75.313 67.5h18.03v3.313h-18.03V67.5zM75.313 74.5h18.03v3.313h-18.03V74.5zM75.313 81.5h18.03v3.312h-18.03V81.5zM75.313 88.5h18.03v3.312h-18.03V88.5zM42.312 67.5h8.032v3.313h-8.032V67.5zM42.312 74.5h8.032v3.313h-8.032V74.5zM42.312 81.5h8.032v3.312h-8.032V81.5zM42.312 88.5h8.032v3.312h-8.032V88.5z"/>
    <path fill="#85D7F6" fill-rule="evenodd" d="M146.929 79.281h-31.215v-6.787a1.358 1.358 0 0 0-2.146-1.105L94.569 84.964a1.354 1.354 0 0 0 0 2.208l18.999 13.575a1.357 1.357 0 1 0 2.146-1.104v-6.788h31.215c.75 0 1.357-.607 1.357-1.357v-10.86c0-.75-.607-1.357-1.357-1.357z"/>
    <path fill="#FFD05B" fill-rule="evenodd" d="M150.432 57.815l-19.001-13.574a1.353 1.353 0 0 0-2.145 1.104v6.787H98.072c-.751 0-1.358.607-1.358 1.357v10.86c0 .75.607 1.357 1.358 1.357h31.214v6.788a1.356 1.356 0 0 0 2.145 1.104l19.001-13.575a1.356 1.356 0 0 0 0-2.208z"/>
</svg>
