<svg width="16" height="16" viewBox="0 0 16 16" fill="none" xmlns="http://www.w3.org/2000/svg">
<path d="M14 4.66732V11.334C14 13.334 13 14.6673 10.6667 14.6673H5.33333C3 14.6673 2 13.334 2 11.334V4.66732C2 2.66732 3 1.33398 5.33333 1.33398H10.6667C13 1.33398 14 2.66732 14 4.66732Z" stroke="#425673" stroke-width="1.1" stroke-miterlimit="10" stroke-linecap="round" stroke-linejoin="round"/>
<path d="M10.3307 1.33398V6.57397C10.3307 6.86731 9.98404 7.01397 9.77071 6.82064L8.22408 5.394C8.09741 5.274 7.89738 5.274 7.77071 5.394L6.22408 6.82064C6.01075 7.01397 5.66406 6.86731 5.66406 6.57397V1.33398H10.3307Z" stroke="#425673" stroke-width="1.1" stroke-miterlimit="10" stroke-linecap="round" stroke-linejoin="round"/>
<path d="M8.83594 9.33398H11.6693" stroke="#425673" stroke-width="1.1" stroke-miterlimit="10" stroke-linecap="round" stroke-linejoin="round"/>
<path d="M6 12H11.6667" stroke="#425673" stroke-width="1.1" stroke-miterlimit="10" stroke-linecap="round" stroke-linejoin="round"/>
</svg>
