<svg width="13" height="10" viewBox="0 0 13 10" fill="none" xmlns="http://www.w3.org/2000/svg">
<path d="M1 5.6C0.668629 5.6 0.4 5.33137 0.4 5C0.4 4.66863 0.668629 4.4 1 4.4V5.6ZM12.4243 4.57574C12.6586 4.81005 12.6586 5.18995 12.4243 5.42426L8.60589 9.24264C8.37157 9.47696 7.99167 9.47696 7.75736 9.24264C7.52304 9.00833 7.52304 8.62843 7.75736 8.39411L11.1515 5L7.75736 1.60589C7.52304 1.37157 7.52304 0.991674 7.75736 0.757359C7.99167 0.523045 8.37157 0.523045 8.60589 0.757359L12.4243 4.57574ZM1 4.4L12 4.4V5.6L1 5.6V4.4Z" fill="#08295B"/>
</svg>
