<svg xmlns="http://www.w3.org/2000/svg" width="14" height="17">
    <path fill="#686F76" fill-opacity=".702" fill-rule="evenodd" d="M13.5 14.999H12v1.5a.5.5 0 0 1-1 0v-1.5H9.5a.5.5 0 0 1 0-1.001H11v-1.5a.5.5 0 0 1 1 0v1.5h1.5a.5.5 0 0 1 0 1.001zM8.158 9.015c-.747.611-1.66.984-2.658.984s-1.912-.373-2.658-.984A1.992 1.992 0 0 0 1 10.999v2.999a2 2 0 0 0 2 2.001h5v.999H3a3 3 0 0 1-3-3v-2.999a2.99 2.99 0 0 1 2.046-2.831A5.29 5.29 0 0 1 1 4.998C1 2.237 3.015-.001 5.5-.001S10 2.237 10 4.998a5.297 5.297 0 0 1-1.046 3.17c.87.294 1.56.97 1.869 1.831H9.724a2.002 2.002 0 0 0-1.566-.984zM9 4.998C9 2.789 7.433.999 5.5.999S2 2.789 2 4.998c0 2.21 1.567 4.001 3.5 4.001S9 7.208 9 4.998z"/>
</svg>
