<svg xmlns="http://www.w3.org/2000/svg" width="66" height="56" viewBox="0 0 66 56">
    <g fill="none" fill-rule="evenodd">
        <g fill="#F0D500" transform="translate(37.936 3.204)">
            <path d="M.028 33.154h9.138v19.558H.028z"/>
            <ellipse cx="18.982" cy="8.08" rx="8.067" ry="7.968"/>
        </g>
        <path fill="#000" d="M52.574 13.401c-.169-.056-.282-.111-.395-.167l-.169-.112V12.9l.113-1.06.056-.39.339.168c.056 0 .113.056.17.056.056 0 .112.055.168.055.113.056.282.112.395.112.113.056.282.056.395.111.113 0 .226.056.339.056.112 0 .225 0 .338.056h.451c.113 0 .226 0 .282-.056.113 0 .17-.056.282-.111.113-.056.17-.112.226-.168.057-.055.113-.111.17-.223.056-.055.056-.167.112-.222v-.279c0-.111 0-.167-.056-.279-.057-.055-.057-.167-.113-.223l-.17-.167a.778.778 0 0 0-.225-.167.43.43 0 0 0-.226-.111c-.056-.056-.169-.056-.282-.112-.169-.055-.338-.111-.507-.223-.17-.055-.339-.167-.508-.223a1.23 1.23 0 0 1-.451-.278c-.113-.112-.282-.167-.395-.334l-.339-.335c-.112-.111-.169-.278-.282-.39l-.169-.501c-.056-.167-.056-.335-.056-.502 0-.223 0-.39.056-.613.056-.167.113-.39.17-.557.056-.167.169-.334.281-.501.113-.168.226-.279.395-.446.17-.112.282-.223.452-.335.169-.111.338-.167.507-.222h.057V3.26h1.466v1.17h.113c.113 0 .17.056.282.056.113 0 .226.055.282.055.057 0 .17.056.226.056.056 0 .113.056.225.056l.226.055-.056.223-.113 1.003-.057.335-.338-.112c-.056 0-.113-.056-.226-.056-.056 0-.112-.055-.225-.055s-.226-.056-.339-.056c-.113 0-.225-.056-.338-.056h-.451c-.113 0-.226 0-.339.056-.113.056-.17.056-.282.111-.056.056-.17.112-.226.168a.42.42 0 0 0-.112.223c-.057.055-.057.167-.057.278v.279c0 .111.057.167.057.278.056.056.056.168.112.223l.17.167c.056.056.169.112.225.168.057.055.17.055.226.111.113.056.17.056.282.111.17.056.338.112.508.223.169.056.338.168.507.223.17.056.282.167.452.279.169.111.282.223.394.334l.339.334c.113.112.17.28.226.39.056.168.112.335.169.446.056.167.056.335.056.502 0 .223 0 .39-.056.613-.057.223-.113.39-.17.557-.056.167-.169.334-.281.501a1.31 1.31 0 0 1-.395.39l-.508.335c-.17.111-.395.167-.564.223h-.057v1.226h-1.466v-1.171h-.113c-.17 0-.338-.055-.508-.055-.169-.056-.338-.056-.451-.112.056.112-.113.056-.226.056"/>
        <g fill="#231F20">
            <path fill-rule="nonzero" d="M54.774 18.026c5.02 0 9.082-4.012 9.082-8.971 0-4.96-4.061-8.971-9.082-8.971-5.02 0-9.082 4.067-9.082 9.026 0 4.96 4.062 8.916 9.082 8.916zm0-15.88c3.893 0 7.052 3.12 7.052 6.964 0 3.845-3.16 6.966-7.052 6.966-3.892 0-7.05-3.12-7.05-6.966 0-3.844 3.158-6.965 7.05-6.965z"/>
            <path d="M11.62 33.294a.961.961 0 0 0 .565-.168l13.482-9.528 13.03 5.35c.339.11.734.11 1.016-.112l10.492-8.191c.451-.335.508-.947.17-1.393-.34-.446-.96-.502-1.41-.167L38.922 26.94 25.95 21.592c-.339-.111-.677-.111-.96.111L11.057 31.51c-.45.335-.564.948-.225 1.393.169.28.507.39.79.39z"/>
            <path fill-rule="nonzero" d="M64.985 52.852h-4.626V24.434c0-.557-.451-1.003-1.015-1.003h-9.139c-.564 0-1.015.446-1.015 1.003v28.418h-3.385V34.24c0-.557-.451-1.003-1.015-1.003h-9.082c-.564 0-1.016.446-1.016 1.003v18.61h-3.384V32.793c0-.557-.452-1.003-1.016-1.003h-9.138c-.564 0-1.016.446-1.016 1.003v20.06h-3.384v-14.32c0-.558-.451-1.004-1.016-1.004H6.656c-.564 0-1.015.446-1.015 1.003v14.32H1.015c-.564 0-1.015.447-1.015 1.004 0 .557.451 1.003 1.015 1.003h63.969c.565 0 1.016-.446 1.016-1.003 0-.557-.508-1.003-1.015-1.003zM51.22 25.382h7.164v27.47H51.22v-27.47zm-14.554 9.862h7.164v17.608h-7.164V35.244zm-14.498-1.505h7.164v19.057H22.17V33.739zM7.672 39.48h7.164v13.317H7.672V39.479z"/>
        </g>
    </g>
</svg>
