<svg width="22" height="22" viewBox="0 0 22 22" fill="none" xmlns="http://www.w3.org/2000/svg">
<path d="M20.1667 7.81065V3.64898C20.1667 2.35648 19.58 1.83398 18.1225 1.83398H14.4192C12.9617 1.83398 12.375 2.35648 12.375 3.64898V7.80148C12.375 9.10315 12.9617 9.61648 14.4192 9.61648H18.1225C19.58 9.62565 20.1667 9.10315 20.1667 7.81065Z" stroke="#25352B" stroke-width="1.5" stroke-linecap="round" stroke-linejoin="round"/>
<path d="M20.1667 18.1225V14.4192C20.1667 12.9617 19.58 12.375 18.1225 12.375H14.4192C12.9617 12.375 12.375 12.9617 12.375 14.4192V18.1225C12.375 19.58 12.9617 20.1667 14.4192 20.1667H18.1225C19.58 20.1667 20.1667 19.58 20.1667 18.1225Z" stroke="#25352B" stroke-width="1.5" stroke-linecap="round" stroke-linejoin="round"/>
<path d="M9.6276 7.81065V3.64898C9.6276 2.35648 9.04094 1.83398 7.58344 1.83398H3.8801C2.4226 1.83398 1.83594 2.35648 1.83594 3.64898V7.80148C1.83594 9.10315 2.4226 9.61648 3.8801 9.61648H7.58344C9.04094 9.62565 9.6276 9.10315 9.6276 7.81065Z" stroke="#25352B" stroke-width="1.5" stroke-linecap="round" stroke-linejoin="round"/>
<path d="M9.6276 18.1225V14.4192C9.6276 12.9617 9.04094 12.375 7.58344 12.375H3.8801C2.4226 12.375 1.83594 12.9617 1.83594 14.4192V18.1225C1.83594 19.58 2.4226 20.1667 3.8801 20.1667H7.58344C9.04094 20.1667 9.6276 19.58 9.6276 18.1225Z" stroke="#25352B" stroke-width="1.5" stroke-linecap="round" stroke-linejoin="round"/>
</svg>
