<svg xmlns="http://www.w3.org/2000/svg" width="13" height="13">
    <path fill="#00AEEF" fill-opacity=".502" fill-rule="evenodd" d="M12.787 3.884l-7.956 7.972a.49.49 0 0 1-.231.131l-3.982.997a.495.495 0 0 1-.472-.131.497.497 0 0 1-.131-.473l.995-3.989a.498.498 0 0 1 .131-.232l5.964-5.975v-.002h.002L9.096.188a.497.497 0 0 1 .704 0l2.987 2.991a.5.5 0 0 1 0 .705zM1.181 11.815l3.044-.762L9.74 5.526 7.458 3.24 1.943 8.767l-.762 3.048zm8.267-10.57l-1.287 1.29 2.283 2.286 1.287-1.289-2.283-2.287z"/>
</svg>
