<svg xmlns="http://www.w3.org/2000/svg" width="56" height="47" viewBox="0 0 56 47">
    <g fill="none" fill-rule="evenodd">
        <path fill="#FFEFB2" d="M40.62 13.129c1.208 1.66 1.94 3.686 1.94 5.895 0 5.561-4.514 10.071-10.08 10.071-2.21 0-4.238-.732-5.9-1.938 1.832 2.52 4.784 4.176 8.14 4.176 5.566 0 10.08-4.51 10.08-10.071 0-3.353-1.658-6.303-4.18-8.133z"/>
        <path fill="#FFEFB2" d="M52.64 2.238h-3.36V34.69a1.12 1.12 0 0 1-1.12 1.12H2.24v3.357a1.12 1.12 0 0 0 1.12 1.119h49.28a1.12 1.12 0 0 0 1.12-1.12V3.358a1.12 1.12 0 0 0-1.12-1.119z"/>
        <path fill="#000" d="M52.64 0H3.36A3.36 3.36 0 0 0 0 3.357v35.81a3.36 3.36 0 0 0 3.36 3.357h1.12v2.238A2.24 2.24 0 0 0 6.72 47h4.48a2.24 2.24 0 0 0 2.24-2.238v-2.238h29.12v2.238A2.24 2.24 0 0 0 44.8 47h4.48a2.24 2.24 0 0 0 2.24-2.238v-2.238h1.12A3.36 3.36 0 0 0 56 39.167V3.357A3.36 3.36 0 0 0 52.64 0zM11.2 44.762H6.72v-2.238h4.48v2.238zm38.08 0H44.8v-2.238h4.48v2.238zm4.48-5.595a1.12 1.12 0 0 1-1.12 1.119H3.36a1.12 1.12 0 0 1-1.12-1.12V3.358a1.12 1.12 0 0 1 1.12-1.119h49.28c.618 0 1.12.501 1.12 1.12v35.809z"/>
        <path fill="#FC0" d="M10.08 6.714a1.12 1.12 0 0 0-1.12 1.12v3.356H7.84a1.12 1.12 0 1 0 0 2.239h1.12v6.714H7.84a1.12 1.12 0 1 0 0 2.238h1.12v6.714H7.84a1.12 1.12 0 1 0 0 2.238h1.12v3.357a1.12 1.12 0 0 0 2.24 0V7.833a1.12 1.12 0 0 0-1.12-1.119zM34.72 8.952c-6.805 0-12.32 5.51-12.32 12.31 0 6.8 5.515 12.31 12.32 12.31 6.805 0 12.32-5.51 12.32-12.31 0-6.8-5.515-12.31-12.32-12.31zm0 22.381c-5.557 0-10.08-4.518-10.08-10.071S29.163 11.19 34.72 11.19c5.174 0 9.401 3.93 9.966 8.953H39.2a1.12 1.12 0 1 0 0 2.238h5.486c-.565 5.022-4.792 8.952-9.966 8.952z"/>
    </g>
</svg>
