<svg width="18" height="18" viewBox="0 0 18 18" fill="none" xmlns="http://www.w3.org/2000/svg">
<path d="M6 1.5V3.75" stroke="#566877" stroke-width="1.2" stroke-miterlimit="10" stroke-linecap="round" stroke-linejoin="round"/>
<path d="M12 1.5V3.75" stroke="#566877" stroke-width="1.2" stroke-miterlimit="10" stroke-linecap="round" stroke-linejoin="round"/>
<path d="M2.625 6.81738H15.375" stroke="#566877" stroke-width="1.2" stroke-miterlimit="10" stroke-linecap="round" stroke-linejoin="round"/>
<path d="M14.4083 11.8282L11.7533 14.4832C11.6483 14.5882 11.5508 14.7832 11.5283 14.9257L11.3858 15.9382C11.3333 16.3057 11.5883 16.5607 11.9558 16.5082L12.9683 16.3657C13.1108 16.3432 13.3133 16.2457 13.4108 16.1407L16.0658 13.4857C16.5233 13.0282 16.7408 12.4957 16.0658 11.8207C15.3983 11.1532 14.8658 11.3707 14.4083 11.8282Z" stroke="#566877" stroke-width="1.2" stroke-miterlimit="10" stroke-linecap="round" stroke-linejoin="round"/>
<path d="M14.0234 12.2109C14.2484 13.0209 14.8784 13.6509 15.6884 13.8759" stroke="#566877" stroke-width="1.2" stroke-miterlimit="10" stroke-linecap="round" stroke-linejoin="round"/>
<path d="M9 16.5H6C3.375 16.5 2.25 15 2.25 12.75V6.375C2.25 4.125 3.375 2.625 6 2.625H12C14.625 2.625 15.75 4.125 15.75 6.375V9" stroke="#566877" stroke-width="1.2" stroke-miterlimit="10" stroke-linecap="round" stroke-linejoin="round"/>
<path d="M8.99588 10.2754H9.00262" stroke="#566877" stroke-width="1.2" stroke-linecap="round" stroke-linejoin="round"/>
<path d="M6.22244 10.2754H6.22918" stroke="#566877" stroke-width="1.2" stroke-linecap="round" stroke-linejoin="round"/>
<path d="M6.22244 12.5254H6.22918" stroke="#566877" stroke-width="1.2" stroke-linecap="round" stroke-linejoin="round"/>
</svg>
