<svg width="13" height="11" viewBox="0 0 13 11" fill="none" xmlns="http://www.w3.org/2000/svg">
<path d="M5.98047 10.0833V6.875" stroke="#10213A" stroke-miterlimit="10" stroke-linecap="round" stroke-linejoin="round"/>
<path d="M5.98047 2.29102V0.916016" stroke="#10213A" stroke-miterlimit="10" stroke-linecap="round" stroke-linejoin="round"/>
<path d="M11.0195 10.084V8.70898" stroke="#10213A" stroke-miterlimit="10" stroke-linecap="round" stroke-linejoin="round"/>
<path d="M11.0195 4.12435V0.916016" stroke="#10213A" stroke-miterlimit="10" stroke-linecap="round" stroke-linejoin="round"/>
<path d="M7.35547 3.20768V5.95768C7.35547 6.46185 7.1263 6.87435 6.4388 6.87435H5.52214C4.83464 6.87435 4.60547 6.46185 4.60547 5.95768V3.20768C4.60547 2.70352 4.83464 2.29102 5.52214 2.29102H6.4388C7.1263 2.29102 7.35547 2.70352 7.35547 3.20768Z" stroke="#10213A" stroke-miterlimit="10" stroke-linecap="round" stroke-linejoin="round"/>
<path d="M12.3945 5.04167V7.79167C12.3945 8.29583 12.1654 8.70833 11.4779 8.70833H10.5612C9.8737 8.70833 9.64453 8.29583 9.64453 7.79167V5.04167C9.64453 4.5375 9.8737 4.125 10.5612 4.125H11.4779C12.1654 4.125 12.3945 4.5375 12.3945 5.04167Z" stroke="#10213A" stroke-miterlimit="10" stroke-linecap="round" stroke-linejoin="round"/>
</svg>
