<svg xmlns="http://www.w3.org/2000/svg" width="52" height="52">
    <path fill="#FFF" fill-rule="evenodd" d="M26 0c14.359 0 26 11.641 26 26S40.359 52 26 52 0 40.359 0 26 11.641 0 26 0z"/>
    <path fill="#2FBDF2" fill-rule="evenodd" d="M25.707 22.707L32 16.414V20h2v-6a1 1 0 0 0-1-1h-6v2h3.586L25 20.586l-3.293-3.293a.999.999 0 0 0-1.414 0l-5 5 1.414 1.414L21 19.414l3.293 3.293a.999.999 0 0 0 1.414 0z"/>
    <path fill="#A4E2F9" fill-opacity=".502" fill-rule="evenodd" d="M36 37h-4a1 1 0 0 1-1-1V23a1 1 0 0 1 1-1h4a1 1 0 0 1 1 1v13a1 1 0 0 1-1 1zm-18 0h-4a1 1 0 0 1-1-1v-5a1 1 0 0 1 1-1h4a1 1 0 0 1 1 1v5a1 1 0 0 1-1 1z"/>
    <path fill="#A4E2F9" fill-rule="evenodd" d="M27 26h-4a1 1 0 0 0-1 1v9a1 1 0 0 0 1 1h4a1 1 0 0 0 1-1v-9a1 1 0 0 0-1-1z"/>
</svg>
