<svg xmlns="http://www.w3.org/2000/svg" width="33" height="33" viewBox="0 0 33 33">
    <g fill="none" fill-rule="evenodd">
        <path fill="#000" d="M19.25 17.875h-5.5c-.759 0-1.375.616-1.375 1.375v12.375c0 .759.616 1.375 1.375 1.375h5.5c.759 0 1.375-.616 1.375-1.375V19.25c0-.759-.616-1.375-1.375-1.375zM6.875 23.375h-5.5C.616 23.375 0 23.991 0 24.75v6.875C0 32.384.616 33 1.375 33h5.5c.759 0 1.375-.616 1.375-1.375V24.75c0-.759-.616-1.375-1.375-1.375zM31.625 12.375h-5.5c-.759 0-1.375.616-1.375 1.375v17.875c0 .759.616 1.375 1.375 1.375h5.5c.759 0 1.375-.616 1.375-1.375V13.75c0-.759-.616-1.375-1.375-1.375z"/>
        <path fill="#FC0" d="M17.472 13.347l8.653-8.653v4.931h2.75v-8.25C28.875.616 28.259 0 27.5 0h-8.25v2.75h4.93l-7.68 7.68-4.528-4.527a1.373 1.373 0 0 0-1.944 0l-6.875 6.875 1.944 1.944L11 8.82l4.528 4.528a1.373 1.373 0 0 0 1.944 0z"/>
    </g>
</svg>
