<svg xmlns="http://www.w3.org/2000/svg" width="56" height="54" viewBox="0 0 56 54">
    <g fill="none" fill-rule="evenodd">
        <path fill="#F0D500" d="M38.46 6.377c9.842 2.506 17.148 11.158 17.51 21.6-10.325.12-23.366.716-23.366.716l4.287-16.468 1.57-5.848z"/>
        <g fill="#231F20" fill-rule="nonzero">
            <path d="M47.758 28.096c-8.694.12-19.441.537-22.52.716l-5.615-21.54c-.121-.537-.725-.895-1.329-.776C7.547 9.241 0 18.848 0 29.886c0 13.307 10.928 24.107 24.392 24.107 13.465 0 24.393-10.8 24.393-24.107v-.775c0-.537-.483-.955-1.027-1.015zM24.392 51.964c-12.317 0-22.279-9.905-22.279-22.018 0-9.666 6.4-18.199 15.698-21.063l5.555 21.302c.12.477.604.775 1.087.775.12 0 12.196-.596 22.219-.716-.181 11.994-10.083 21.72-22.28 21.72z"/>
            <path d="M36.468 2.26c-.604-.12-1.147.179-1.328.776L29.283 25.41c-.06.299 0 .657.181.955.181.239.483.418.845.418h.06c.122 0 13.103-.597 23.306-.716.302 0 .544-.12.785-.299.182-.179.302-.477.302-.775-.302-10.74-7.849-20.049-18.294-22.734zm-4.71 22.256l5.253-19.929C45.645 7.212 51.864 14.91 52.59 23.86c-8.03.12-17.329.537-20.83.656zM25.72 24.516c.122.478.544.776 1.027.776.483 0 .906-.298 1.027-.776L33.63 2.141c.06-.299 0-.537-.12-.776a.934.934 0 0 0-.665-.477 25.063 25.063 0 0 0-12.256 0c-.302.06-.483.238-.664.477-.121.239-.182.537-.121.776l5.917 22.375zm5.555-21.838L26.747 20.04 22.22 2.678a23.134 23.134 0 0 1 9.056 0z"/>
        </g>
        <path fill="#000" d="M10.808 34.958c-.182-.06-.363-.179-.544-.238l-.241-.12.06-.298.181-1.492.06-.537.484.239c.06.06.12.06.241.12.06.059.12.059.242.119l.543.179c.181.06.362.119.543.119.181 0 .302.06.483.06.182 0 .302.06.483.06h.604c.12 0 .302-.06.423-.06.12-.06.241-.06.362-.12.12-.06.242-.12.302-.238.06-.06.181-.18.241-.299.06-.12.121-.238.121-.358s.06-.238 0-.358c0-.12-.06-.238-.06-.358-.06-.12-.12-.238-.181-.298a.469.469 0 0 0-.242-.239c-.06-.06-.18-.12-.302-.179l-.362-.179c-.12-.06-.241-.12-.362-.12-.242-.059-.483-.178-.725-.298l-.724-.358c-.242-.119-.423-.238-.664-.358a3.313 3.313 0 0 1-.544-.417c-.18-.12-.302-.299-.483-.478l-.362-.537a2.887 2.887 0 0 1-.242-.656c-.06-.239-.06-.477-.06-.656 0-.299 0-.597.06-.836.06-.238.121-.537.242-.775.12-.239.241-.478.362-.657.181-.238.302-.417.544-.596.18-.18.422-.299.664-.478.241-.12.483-.238.724-.298l.121-.06v-1.73h2.053v1.611h.12c.121 0 .242.06.423.06.121.06.302.06.423.119.12 0 .241.06.302.06.06 0 .18.06.302.119l.302.12-.06.298-.182 1.372v.418l-.483-.12c-.06 0-.181-.06-.302-.119-.06 0-.181-.06-.302-.06-.12-.06-.302-.06-.483-.06-.12 0-.302-.059-.422-.059h-.604c-.181 0-.302.06-.423.06l-.362.179c-.12.06-.181.179-.302.238-.06.12-.12.18-.181.299-.06.119-.06.238-.12.358v.417c0 .12.06.239.12.358.06.12.12.239.181.299l.242.238c.12.06.18.12.301.18l.363.178c.12.06.241.12.362.12.241.06.483.179.724.298.242.12.483.239.665.358.18.12.422.239.603.358.182.12.363.298.544.418.18.12.302.298.422.477l.363.537c.12.18.18.418.241.656.06.24.06.418.06.657 0 .298 0 .537-.06.835-.06.239-.12.537-.241.776s-.242.477-.423.656c-.181.18-.362.418-.543.597-.181.179-.423.298-.665.477-.241.12-.543.239-.784.299l-.121.06v1.73H12.86v-1.611h-.12c-.242 0-.423-.06-.665-.12-.241-.06-.422-.119-.664-.179-.18 0-.362-.06-.603-.179"/>
    </g>
</svg>
