<svg xmlns="http://www.w3.org/2000/svg" width="652" height="300" viewBox="0 0 652 300">
    <defs>
        <linearGradient id="a" x1="-1.508%" x2="101.517%" y1="-.989%" y2="100.98%">
            <stop offset=".714%" stop-color="#00AEEF" stop-opacity=".222"/>
            <stop offset="100%" stop-color="#D4F1FB" stop-opacity=".264"/>
        </linearGradient>
    </defs>
    <g fill="none" fill-rule="evenodd">
        <path fill="url(#a)" d="M643 2.05c5.053.501 9 4.765 9 9.95v278c0 5.185-3.947 9.449-9 9.95v.05H0v-1.136a3.003 3.003 0 0 0 2.997-3.008A3.003 3.003 0 0 0 0 292.848v-3.33a3.002 3.002 0 0 0 2.997-3.006A3.002 3.002 0 0 0 0 283.505v-3.331a3.005 3.005 0 0 0 2.997-3.009A3.003 3.003 0 0 0 0 274.157v-3.33a3.003 3.003 0 0 0 2.997-3.006A3.004 3.004 0 0 0 0 264.811v-3.331a3.002 3.002 0 0 0 2.997-3.006A3.002 3.002 0 0 0 0 255.468v-3.332a3.004 3.004 0 0 0 2.997-3.008A3.002 3.002 0 0 0 0 246.122v-3.334a3 3 0 0 0 2.997-3.006A3.002 3.002 0 0 0 0 236.777v-3.334a3.002 3.002 0 0 0 2.997-3.006A3.004 3.004 0 0 0 0 227.43v-3.331a3.004 3.004 0 0 0 2.997-3.007A3.002 3.002 0 0 0 0 218.086v-3.333a3.004 3.004 0 0 0 2.997-3.007A3.003 3.003 0 0 0 0 208.738v-3.33a3.004 3.004 0 0 0 2.997-3.008A3.003 3.003 0 0 0 0 199.394v-3.332a3.004 3.004 0 0 0 2.997-3.007A3.002 3.002 0 0 0 0 190.048v-3.331a3.004 3.004 0 0 0 2.997-3.008A3.003 3.003 0 0 0 0 180.702v-3.332a3.002 3.002 0 0 0 2.997-3.007A3.002 3.002 0 0 0 0 171.356v-3.33a3.003 3.003 0 0 0 2.997-3.008A3.003 3.003 0 0 0 0 162.01v-3.332a3.002 3.002 0 0 0 2.997-3.007A3.002 3.002 0 0 0 0 152.665v-3.33a3.003 3.003 0 0 0 2.997-3.008A3.003 3.003 0 0 0 0 143.32v-3.33a3.003 3.003 0 0 0 2.997-3.008A3.002 3.002 0 0 0 0 133.974v-3.332a3.002 3.002 0 0 0 2.997-3.005A3.003 3.003 0 0 0 0 124.627v-3.33a3.003 3.003 0 0 0 2.997-3.008A3.003 3.003 0 0 0 0 115.282v-3.332a3.003 3.003 0 0 0 2.997-3.008A3.002 3.002 0 0 0 0 105.937v-3.331a3.004 3.004 0 0 0 2.997-3.007A3.004 3.004 0 0 0 0 96.59V93.26a3.003 3.003 0 0 0 2.997-3.008A3.003 3.003 0 0 0 0 87.246v-3.333a3.002 3.002 0 0 0 2.997-3.006A3.003 3.003 0 0 0 0 77.9v-3.332a3.002 3.002 0 0 0 2.997-3.007A3.003 3.003 0 0 0 0 68.555v-3.332a3.003 3.003 0 0 0 2.997-3.007A3.002 3.002 0 0 0 0 59.209v-3.332a3.003 3.003 0 0 0 2.997-3.007A3.004 3.004 0 0 0 0 49.862v-3.33a3.003 3.003 0 0 0 2.997-3.007A3.003 3.003 0 0 0 0 40.517v-3.33a3.003 3.003 0 0 0 2.997-3.008A3.003 3.003 0 0 0 0 31.172V27.84a3.002 3.002 0 0 0 2.997-3.007A3.002 3.002 0 0 0 0 21.826v-3.332a3.002 3.002 0 0 0 2.997-3.007A3.003 3.003 0 0 0 0 12.48V9.15a3.003 3.003 0 0 0 2.997-3.008A3.003 3.003 0 0 0 0 3.135C0 2.508.508 2 1.135 2H643v.05z"/>
        <g stroke="#FFF" stroke-width=".75">
            <path d="M1.23 1.079h650.492M1.23 4.051c20.328 0 20.328.238 40.655.238 20.326 0 20.326-.238 40.652-.238s20.326.238 40.653.238c20.327 0 20.327-.238 40.654-.238 20.325 0 20.325.238 40.652.238 20.328 0 20.328-.238 40.654-.238 20.328 0 20.328.238 40.656.238 20.329 0 20.329-.238 40.658-.238 20.326 0 20.326.238 40.654.238 20.326 0 20.326-.238 40.651-.238 20.328 0 20.328.238 40.656.238 20.329 0 20.329-.238 40.656-.238 20.33 0 20.33.238 40.66.238 20.327 0 20.327-.238 40.656-.238 20.332 0 20.332.238 40.663.238 20.332 0 20.332-.238 40.662-.238M1.23 7.022c20.328 0 20.328.48 40.655.48 20.326 0 20.326-.48 40.652-.48s20.326.48 40.653.48c20.327 0 20.327-.48 40.654-.48 20.325 0 20.325.48 40.652.48 20.328 0 20.328-.48 40.654-.48 20.328 0 20.328.48 40.656.48 20.329 0 20.329-.48 40.658-.48 20.326 0 20.326.48 40.654.48 20.326 0 20.326-.48 40.651-.48 20.328 0 20.328.48 40.656.48 20.329 0 20.329-.48 40.656-.48 20.33 0 20.33.48 40.66.48 20.327 0 20.327-.48 40.656-.48 20.332 0 20.332.48 40.663.48 20.332 0 20.332-.48 40.662-.48M1.23 9.994c20.328 0 20.328.718 40.655.718 20.326 0 20.326-.718 40.652-.718s20.326.718 40.653.718c20.327 0 20.327-.718 40.654-.718 20.325 0 20.325.718 40.652.718 20.328 0 20.328-.718 40.654-.718 20.328 0 20.328.718 40.656.718 20.329 0 20.329-.718 40.658-.718 20.326 0 20.326.718 40.654.718 20.326 0 20.326-.718 40.651-.718 20.328 0 20.328.718 40.656.718 20.329 0 20.329-.718 40.656-.718 20.33 0 20.33.718 40.66.718 20.327 0 20.327-.718 40.656-.718 20.332 0 20.332.718 40.663.718 20.332 0 20.332-.718 40.662-.718M1.23 12.966c20.328 0 20.328.957 40.655.957 20.326 0 20.326-.957 40.652-.957s20.326.957 40.653.957c20.327 0 20.327-.957 40.654-.957 20.325 0 20.325.957 40.652.957 20.328 0 20.328-.957 40.654-.957 20.328 0 20.328.957 40.656.957 20.329 0 20.329-.957 40.658-.957 20.326 0 20.326.957 40.654.957 20.326 0 20.326-.957 40.651-.957 20.328 0 20.328.957 40.656.957 20.329 0 20.329-.957 40.656-.957 20.33 0 20.33.957 40.66.957 20.327 0 20.327-.957 40.656-.957 20.332 0 20.332.957 40.663.957 20.332 0 20.332-.957 40.662-.957M1.23 15.937c20.328 0 20.328 1.197 40.655 1.197 20.326 0 20.326-1.197 40.652-1.197s20.326 1.197 40.653 1.197c20.327 0 20.327-1.197 40.654-1.197 20.325 0 20.325 1.197 40.652 1.197 20.328 0 20.328-1.197 40.654-1.197 20.328 0 20.328 1.197 40.656 1.197 20.329 0 20.329-1.197 40.658-1.197 20.326 0 20.326 1.197 40.654 1.197 20.326 0 20.326-1.197 40.651-1.197 20.328 0 20.328 1.197 40.656 1.197 20.329 0 20.329-1.197 40.656-1.197 20.33 0 20.33 1.197 40.66 1.197 20.327 0 20.327-1.197 40.656-1.197 20.332 0 20.332 1.197 40.663 1.197 20.332 0 20.332-1.197 40.662-1.197M1.23 18.909c20.328 0 20.328 1.436 40.655 1.436 20.326 0 20.326-1.436 40.652-1.436s20.326 1.436 40.653 1.436c20.327 0 20.327-1.436 40.654-1.436 20.325 0 20.325 1.436 40.652 1.436 20.328 0 20.328-1.436 40.654-1.436 20.328 0 20.328 1.436 40.656 1.436 20.329 0 20.329-1.436 40.658-1.436 20.326 0 20.326 1.436 40.654 1.436 20.326 0 20.326-1.436 40.651-1.436 20.328 0 20.328 1.436 40.656 1.436 20.329 0 20.329-1.436 40.656-1.436 20.33 0 20.33 1.436 40.66 1.436 20.327 0 20.327-1.436 40.656-1.436 20.332 0 20.332 1.436 40.663 1.436 20.332 0 20.332-1.436 40.662-1.436M1.23 21.88c20.328 0 20.328 1.676 40.655 1.676 20.326 0 20.326-1.676 40.652-1.676s20.326 1.676 40.653 1.676c20.327 0 20.327-1.676 40.654-1.676 20.325 0 20.325 1.676 40.652 1.676 20.328 0 20.328-1.676 40.654-1.676 20.328 0 20.328 1.676 40.656 1.676 20.329 0 20.329-1.676 40.658-1.676 20.326 0 20.326 1.676 40.654 1.676 20.326 0 20.326-1.676 40.651-1.676 20.328 0 20.328 1.676 40.656 1.676 20.329 0 20.329-1.676 40.656-1.676 20.33 0 20.33 1.676 40.66 1.676 20.327 0 20.327-1.676 40.656-1.676 20.332 0 20.332 1.676 40.663 1.676 20.332 0 20.332-1.676 40.662-1.676M1.23 24.852c20.328 0 20.328 1.916 40.655 1.916 20.326 0 20.326-1.916 40.652-1.916s20.326 1.916 40.653 1.916c20.327 0 20.327-1.916 40.654-1.916 20.325 0 20.325 1.916 40.652 1.916 20.328 0 20.328-1.916 40.654-1.916 20.328 0 20.328 1.916 40.656 1.916 20.329 0 20.329-1.916 40.658-1.916 20.326 0 20.326 1.916 40.654 1.916 20.326 0 20.326-1.916 40.651-1.916 20.328 0 20.328 1.916 40.656 1.916 20.329 0 20.329-1.916 40.656-1.916 20.33 0 20.33 1.916 40.66 1.916 20.327 0 20.327-1.916 40.656-1.916 20.332 0 20.332 1.916 40.663 1.916 20.332 0 20.332-1.916 40.662-1.916M1.23 27.824c20.328 0 20.328 2.155 40.655 2.155 20.326 0 20.326-2.155 40.652-2.155s20.326 2.155 40.653 2.155c20.327 0 20.327-2.155 40.654-2.155 20.325 0 20.325 2.155 40.652 2.155 20.328 0 20.328-2.155 40.654-2.155 20.328 0 20.328 2.155 40.656 2.155 20.329 0 20.329-2.155 40.658-2.155 20.326 0 20.326 2.155 40.654 2.155 20.326 0 20.326-2.155 40.651-2.155 20.328 0 20.328 2.155 40.656 2.155 20.329 0 20.329-2.155 40.656-2.155 20.33 0 20.33 2.155 40.66 2.155 20.327 0 20.327-2.155 40.656-2.155 20.332 0 20.332 2.155 40.663 2.155 20.332 0 20.332-2.155 40.662-2.155M1.23 30.795c20.328 0 20.328 2.395 40.655 2.395 20.326 0 20.326-2.395 40.652-2.395s20.326 2.395 40.653 2.395c20.327 0 20.327-2.395 40.654-2.395 20.325 0 20.325 2.395 40.652 2.395 20.328 0 20.328-2.395 40.654-2.395 20.328 0 20.328 2.395 40.656 2.395 20.329 0 20.329-2.395 40.658-2.395 20.326 0 20.326 2.395 40.654 2.395 20.326 0 20.326-2.395 40.651-2.395 20.328 0 20.328 2.395 40.656 2.395 20.329 0 20.329-2.395 40.656-2.395 20.33 0 20.33 2.395 40.66 2.395 20.327 0 20.327-2.395 40.656-2.395 20.332 0 20.332 2.395 40.663 2.395 20.332 0 20.332-2.395 40.662-2.395M1.23 33.767c20.328 0 20.328 2.633 40.655 2.633 20.326 0 20.326-2.633 40.652-2.633S102.863 36.4 123.19 36.4c20.327 0 20.327-2.633 40.654-2.633 20.325 0 20.325 2.633 40.652 2.633 20.328 0 20.328-2.633 40.654-2.633 20.328 0 20.328 2.633 40.656 2.633 20.329 0 20.329-2.633 40.658-2.633 20.326 0 20.326 2.633 40.654 2.633 20.326 0 20.326-2.633 40.651-2.633 20.328 0 20.328 2.633 40.656 2.633 20.329 0 20.329-2.633 40.656-2.633 20.33 0 20.33 2.633 40.66 2.633 20.327 0 20.327-2.633 40.656-2.633 20.332 0 20.332 2.633 40.663 2.633 20.332 0 20.332-2.633 40.662-2.633M1.23 36.738c20.328 0 20.328 2.873 40.655 2.873 20.326 0 20.326-2.873 40.652-2.873s20.326 2.873 40.653 2.873c20.327 0 20.327-2.873 40.654-2.873 20.325 0 20.325 2.873 40.652 2.873 20.328 0 20.328-2.873 40.654-2.873 20.328 0 20.328 2.873 40.656 2.873 20.329 0 20.329-2.873 40.658-2.873 20.326 0 20.326 2.873 40.654 2.873 20.326 0 20.326-2.873 40.651-2.873 20.328 0 20.328 2.873 40.656 2.873 20.329 0 20.329-2.873 40.656-2.873 20.33 0 20.33 2.873 40.66 2.873 20.327 0 20.327-2.873 40.656-2.873 20.332 0 20.332 2.873 40.663 2.873 20.332 0 20.332-2.873 40.662-2.873M1.23 39.71c20.328 0 20.328 3.113 40.655 3.113 20.326 0 20.326-3.113 40.652-3.113s20.326 3.113 40.653 3.113c20.327 0 20.327-3.113 40.654-3.113 20.325 0 20.325 3.113 40.652 3.113 20.328 0 20.328-3.113 40.654-3.113 20.328 0 20.328 3.113 40.656 3.113 20.329 0 20.329-3.113 40.658-3.113 20.326 0 20.326 3.113 40.654 3.113 20.326 0 20.326-3.113 40.651-3.113 20.328 0 20.328 3.113 40.656 3.113 20.329 0 20.329-3.113 40.656-3.113 20.33 0 20.33 3.113 40.66 3.113 20.327 0 20.327-3.113 40.656-3.113 20.332 0 20.332 3.113 40.663 3.113 20.332 0 20.332-3.113 40.662-3.113"/>
            <path d="M1.23 42.682c20.328 0 20.328 3.352 40.655 3.352 20.326 0 20.326-3.352 40.652-3.352s20.326 3.352 40.653 3.352c20.327 0 20.327-3.352 40.654-3.352 20.325 0 20.325 3.352 40.652 3.352 20.328 0 20.328-3.352 40.654-3.352 20.328 0 20.328 3.352 40.656 3.352 20.329 0 20.329-3.352 40.658-3.352 20.326 0 20.326 3.352 40.654 3.352 20.326 0 20.326-3.352 40.651-3.352 20.328 0 20.328 3.352 40.656 3.352 20.329 0 20.329-3.352 40.656-3.352 20.33 0 20.33 3.352 40.66 3.352 20.327 0 20.327-3.352 40.656-3.352 20.332 0 20.332 3.352 40.663 3.352 20.332 0 20.332-3.352 40.662-3.352"/>
            <path d="M1.23 45.654c20.328 0 20.328 3.591 40.655 3.591 20.326 0 20.326-3.591 40.652-3.591s20.326 3.591 40.653 3.591c20.327 0 20.327-3.591 40.654-3.591 20.325 0 20.325 3.591 40.652 3.591 20.328 0 20.328-3.591 40.654-3.591 20.328 0 20.328 3.591 40.656 3.591 20.329 0 20.329-3.591 40.658-3.591 20.326 0 20.326 3.591 40.654 3.591 20.326 0 20.326-3.591 40.651-3.591 20.328 0 20.328 3.591 40.656 3.591 20.329 0 20.329-3.591 40.656-3.591 20.33 0 20.33 3.591 40.66 3.591 20.327 0 20.327-3.591 40.656-3.591 20.332 0 20.332 3.591 40.663 3.591 20.332 0 20.332-3.591 40.662-3.591"/>
            <path d="M1.23 48.625c20.328 0 20.328 3.83 40.655 3.83 20.326 0 20.326-3.83 40.652-3.83s20.326 3.83 40.653 3.83c20.327 0 20.327-3.83 40.654-3.83 20.325 0 20.325 3.83 40.652 3.83 20.328 0 20.328-3.83 40.654-3.83 20.328 0 20.328 3.83 40.656 3.83 20.329 0 20.329-3.83 40.658-3.83 20.326 0 20.326 3.83 40.654 3.83 20.326 0 20.326-3.83 40.651-3.83 20.328 0 20.328 3.83 40.656 3.83 20.329 0 20.329-3.83 40.656-3.83 20.33 0 20.33 3.83 40.66 3.83 20.327 0 20.327-3.83 40.656-3.83 20.332 0 20.332 3.83 40.663 3.83 20.332 0 20.332-3.83 40.662-3.83"/>
            <path d="M1.23 51.597c20.328 0 20.328 4.07 40.655 4.07 20.326 0 20.326-4.07 40.652-4.07s20.326 4.07 40.653 4.07c20.327 0 20.327-4.07 40.654-4.07 20.325 0 20.325 4.07 40.652 4.07 20.328 0 20.328-4.07 40.654-4.07 20.328 0 20.328 4.07 40.656 4.07 20.329 0 20.329-4.07 40.658-4.07 20.326 0 20.326 4.07 40.654 4.07 20.326 0 20.326-4.07 40.651-4.07 20.328 0 20.328 4.07 40.656 4.07 20.329 0 20.329-4.07 40.656-4.07 20.33 0 20.33 4.07 40.66 4.07 20.327 0 20.327-4.07 40.656-4.07 20.332 0 20.332 4.07 40.663 4.07 20.332 0 20.332-4.07 40.662-4.07"/>
            <path d="M1.23 54.569c20.328 0 20.328 4.31 40.655 4.31 20.326 0 20.326-4.31 40.652-4.31s20.326 4.31 40.653 4.31c20.327 0 20.327-4.31 40.654-4.31 20.325 0 20.325 4.31 40.652 4.31 20.328 0 20.328-4.31 40.654-4.31 20.328 0 20.328 4.31 40.656 4.31 20.329 0 20.329-4.31 40.658-4.31 20.326 0 20.326 4.31 40.654 4.31 20.326 0 20.326-4.31 40.651-4.31 20.328 0 20.328 4.31 40.656 4.31 20.329 0 20.329-4.31 40.656-4.31 20.33 0 20.33 4.31 40.66 4.31 20.327 0 20.327-4.31 40.656-4.31 20.332 0 20.332 4.31 40.663 4.31 20.332 0 20.332-4.31 40.662-4.31"/>
            <path d="M1.23 57.54c20.328 0 20.328 4.55 40.655 4.55 20.326 0 20.326-4.55 40.652-4.55s20.326 4.55 40.653 4.55c20.327 0 20.327-4.55 40.654-4.55 20.325 0 20.325 4.55 40.652 4.55 20.328 0 20.328-4.55 40.654-4.55 20.328 0 20.328 4.55 40.656 4.55 20.329 0 20.329-4.55 40.658-4.55 20.326 0 20.326 4.55 40.654 4.55 20.326 0 20.326-4.55 40.651-4.55 20.328 0 20.328 4.55 40.656 4.55 20.329 0 20.329-4.55 40.656-4.55 20.33 0 20.33 4.55 40.66 4.55 20.327 0 20.327-4.55 40.656-4.55 20.332 0 20.332 4.55 40.663 4.55 20.332 0 20.332-4.55 40.662-4.55"/>
            <path d="M1.23 60.512c20.328 0 20.328 4.788 40.655 4.788 20.326 0 20.326-4.788 40.652-4.788S102.863 65.3 123.19 65.3c20.327 0 20.327-4.788 40.654-4.788 20.325 0 20.325 4.788 40.652 4.788 20.328 0 20.328-4.788 40.654-4.788 20.328 0 20.328 4.788 40.656 4.788 20.329 0 20.329-4.788 40.658-4.788 20.326 0 20.326 4.788 40.654 4.788 20.326 0 20.326-4.788 40.651-4.788 20.328 0 20.328 4.788 40.656 4.788 20.329 0 20.329-4.788 40.656-4.788 20.33 0 20.33 4.788 40.66 4.788 20.327 0 20.327-4.788 40.656-4.788 20.332 0 20.332 4.788 40.663 4.788 20.332 0 20.332-4.788 40.662-4.788"/>
            <path d="M1.23 63.484c20.328 0 20.328 5.026 40.655 5.026 20.326 0 20.326-5.026 40.652-5.026s20.326 5.026 40.653 5.026c20.327 0 20.327-5.026 40.654-5.026 20.325 0 20.325 5.026 40.652 5.026 20.328 0 20.328-5.026 40.654-5.026 20.328 0 20.328 5.026 40.656 5.026 20.329 0 20.329-5.026 40.658-5.026 20.326 0 20.326 5.026 40.654 5.026 20.326 0 20.326-5.026 40.651-5.026 20.328 0 20.328 5.026 40.656 5.026 20.329 0 20.329-5.026 40.656-5.026 20.33 0 20.33 5.026 40.66 5.026 20.327 0 20.327-5.026 40.656-5.026 20.332 0 20.332 5.026 40.663 5.026 20.332 0 20.332-5.026 40.662-5.026"/>
            <path d="M1.23 66.455c20.328 0 20.328 5.267 40.655 5.267 20.326 0 20.326-5.267 40.652-5.267s20.326 5.267 40.653 5.267c20.327 0 20.327-5.267 40.654-5.267 20.325 0 20.325 5.267 40.652 5.267 20.328 0 20.328-5.267 40.654-5.267 20.328 0 20.328 5.267 40.656 5.267 20.329 0 20.329-5.267 40.658-5.267 20.326 0 20.326 5.267 40.654 5.267 20.326 0 20.326-5.267 40.651-5.267 20.328 0 20.328 5.267 40.656 5.267 20.329 0 20.329-5.267 40.656-5.267 20.33 0 20.33 5.267 40.66 5.267 20.327 0 20.327-5.267 40.656-5.267 20.332 0 20.332 5.267 40.663 5.267 20.332 0 20.332-5.267 40.662-5.267"/>
            <path d="M1.23 69.427c20.328 0 20.328 5.506 40.655 5.506 20.326 0 20.326-5.506 40.652-5.506s20.326 5.506 40.653 5.506c20.327 0 20.327-5.506 40.654-5.506 20.325 0 20.325 5.506 40.652 5.506 20.328 0 20.328-5.506 40.654-5.506 20.328 0 20.328 5.506 40.656 5.506 20.329 0 20.329-5.506 40.658-5.506 20.326 0 20.326 5.506 40.654 5.506 20.326 0 20.326-5.506 40.651-5.506 20.328 0 20.328 5.506 40.656 5.506 20.329 0 20.329-5.506 40.656-5.506 20.33 0 20.33 5.506 40.66 5.506 20.327 0 20.327-5.506 40.656-5.506 20.332 0 20.332 5.506 40.663 5.506 20.332 0 20.332-5.506 40.662-5.506"/>
            <path d="M1.23 72.399c20.328 0 20.328 5.744 40.655 5.744 20.326 0 20.326-5.744 40.652-5.744s20.326 5.744 40.653 5.744c20.327 0 20.327-5.744 40.654-5.744 20.325 0 20.325 5.744 40.652 5.744 20.328 0 20.328-5.744 40.654-5.744 20.328 0 20.328 5.744 40.656 5.744 20.329 0 20.329-5.744 40.658-5.744 20.326 0 20.326 5.744 40.654 5.744 20.326 0 20.326-5.744 40.651-5.744 20.328 0 20.328 5.744 40.656 5.744 20.329 0 20.329-5.744 40.656-5.744 20.33 0 20.33 5.744 40.66 5.744 20.327 0 20.327-5.744 40.656-5.744 20.332 0 20.332 5.744 40.663 5.744 20.332 0 20.332-5.744 40.662-5.744"/>
            <path d="M1.23 75.37c20.328 0 20.328 5.984 40.655 5.984 20.326 0 20.326-5.984 40.652-5.984s20.326 5.984 40.653 5.984c20.327 0 20.327-5.984 40.654-5.984 20.325 0 20.325 5.984 40.652 5.984 20.328 0 20.328-5.984 40.654-5.984 20.328 0 20.328 5.984 40.656 5.984 20.329 0 20.329-5.984 40.658-5.984 20.326 0 20.326 5.984 40.654 5.984 20.326 0 20.326-5.984 40.651-5.984 20.328 0 20.328 5.984 40.656 5.984 20.329 0 20.329-5.984 40.656-5.984 20.33 0 20.33 5.984 40.66 5.984 20.327 0 20.327-5.984 40.656-5.984 20.332 0 20.332 5.984 40.663 5.984 20.332 0 20.332-5.984 40.662-5.984"/>
            <path d="M1.23 78.342c20.328 0 20.328 6.224 40.655 6.224 20.326 0 20.326-6.224 40.652-6.224s20.326 6.224 40.653 6.224c20.327 0 20.327-6.224 40.654-6.224 20.325 0 20.325 6.224 40.652 6.224 20.328 0 20.328-6.224 40.654-6.224 20.328 0 20.328 6.224 40.656 6.224 20.329 0 20.329-6.224 40.658-6.224 20.326 0 20.326 6.224 40.654 6.224 20.326 0 20.326-6.224 40.651-6.224 20.328 0 20.328 6.224 40.656 6.224 20.329 0 20.329-6.224 40.656-6.224 20.33 0 20.33 6.224 40.66 6.224 20.327 0 20.327-6.224 40.656-6.224 20.332 0 20.332 6.224 40.663 6.224 20.332 0 20.332-6.224 40.662-6.224"/>
            <path d="M1.23 81.314c20.328 0 20.328 6.463 40.655 6.463 20.326 0 20.326-6.463 40.652-6.463s20.326 6.463 40.653 6.463c20.327 0 20.327-6.463 40.654-6.463 20.325 0 20.325 6.463 40.652 6.463 20.328 0 20.328-6.463 40.654-6.463 20.328 0 20.328 6.463 40.656 6.463 20.329 0 20.329-6.463 40.658-6.463 20.326 0 20.326 6.463 40.654 6.463 20.326 0 20.326-6.463 40.651-6.463 20.328 0 20.328 6.463 40.656 6.463 20.329 0 20.329-6.463 40.656-6.463 20.33 0 20.33 6.463 40.66 6.463 20.327 0 20.327-6.463 40.656-6.463 20.332 0 20.332 6.463 40.663 6.463 20.332 0 20.332-6.463 40.662-6.463"/>
            <path d="M1.23 84.285c20.328 0 20.328 6.703 40.655 6.703 20.326 0 20.326-6.703 40.652-6.703s20.326 6.703 40.653 6.703c20.327 0 20.327-6.703 40.654-6.703 20.325 0 20.325 6.703 40.652 6.703 20.328 0 20.328-6.703 40.654-6.703 20.328 0 20.328 6.703 40.656 6.703 20.329 0 20.329-6.703 40.658-6.703 20.326 0 20.326 6.703 40.654 6.703 20.326 0 20.326-6.703 40.651-6.703 20.328 0 20.328 6.703 40.656 6.703 20.329 0 20.329-6.703 40.656-6.703 20.33 0 20.33 6.703 40.66 6.703 20.327 0 20.327-6.703 40.656-6.703 20.332 0 20.332 6.703 40.663 6.703 20.332 0 20.332-6.703 40.662-6.703"/>
            <path d="M1.23 87.257c20.328 0 20.328 6.942 40.655 6.942 20.326 0 20.326-6.942 40.652-6.942s20.326 6.942 40.653 6.942c20.327 0 20.327-6.942 40.654-6.942 20.325 0 20.325 6.942 40.652 6.942 20.328 0 20.328-6.942 40.654-6.942 20.328 0 20.328 6.942 40.656 6.942 20.329 0 20.329-6.942 40.658-6.942 20.326 0 20.326 6.942 40.654 6.942 20.326 0 20.326-6.942 40.651-6.942 20.328 0 20.328 6.942 40.656 6.942 20.329 0 20.329-6.942 40.656-6.942 20.33 0 20.33 6.942 40.66 6.942 20.327 0 20.327-6.942 40.656-6.942 20.332 0 20.332 6.942 40.663 6.942 20.332 0 20.332-6.942 40.662-6.942"/>
            <path d="M1.23 90.228c20.328 0 20.328 7.182 40.655 7.182 20.326 0 20.326-7.182 40.652-7.182s20.326 7.182 40.653 7.182c20.327 0 20.327-7.182 40.654-7.182 20.325 0 20.325 7.182 40.652 7.182 20.328 0 20.328-7.182 40.654-7.182 20.328 0 20.328 7.182 40.656 7.182 20.329 0 20.329-7.182 40.658-7.182 20.326 0 20.326 7.182 40.654 7.182 20.326 0 20.326-7.182 40.651-7.182 20.328 0 20.328 7.182 40.656 7.182 20.329 0 20.329-7.182 40.656-7.182 20.33 0 20.33 7.182 40.66 7.182 20.327 0 20.327-7.182 40.656-7.182 20.332 0 20.332 7.182 40.663 7.182 20.332 0 20.332-7.182 40.662-7.182"/>
            <path d="M1.23 93.2c20.328 0 20.328 7.42 40.655 7.42 20.326 0 20.326-7.42 40.652-7.42s20.326 7.42 40.653 7.42c20.327 0 20.327-7.42 40.654-7.42 20.325 0 20.325 7.42 40.652 7.42 20.328 0 20.328-7.42 40.654-7.42 20.328 0 20.328 7.42 40.656 7.42 20.329 0 20.329-7.42 40.658-7.42 20.326 0 20.326 7.42 40.654 7.42 20.326 0 20.326-7.42 40.651-7.42 20.328 0 20.328 7.42 40.656 7.42 20.329 0 20.329-7.42 40.656-7.42 20.33 0 20.33 7.42 40.66 7.42 20.327 0 20.327-7.42 40.656-7.42 20.332 0 20.332 7.42 40.663 7.42 20.332 0 20.332-7.42 40.662-7.42"/>
            <path d="M1.23 96.172c20.328 0 20.328 7.66 40.655 7.66 20.326 0 20.326-7.66 40.652-7.66s20.326 7.66 40.653 7.66c20.327 0 20.327-7.66 40.654-7.66 20.325 0 20.325 7.66 40.652 7.66 20.328 0 20.328-7.66 40.654-7.66 20.328 0 20.328 7.66 40.656 7.66 20.329 0 20.329-7.66 40.658-7.66 20.326 0 20.326 7.66 40.654 7.66 20.326 0 20.326-7.66 40.651-7.66 20.328 0 20.328 7.66 40.656 7.66 20.329 0 20.329-7.66 40.656-7.66 20.33 0 20.33 7.66 40.66 7.66 20.327 0 20.327-7.66 40.656-7.66 20.332 0 20.332 7.66 40.663 7.66 20.332 0 20.332-7.66 40.662-7.66"/>
            <path d="M1.23 99.144c20.328 0 20.328 7.9 40.655 7.9 20.326 0 20.326-7.9 40.652-7.9s20.326 7.9 40.653 7.9c20.327 0 20.327-7.9 40.654-7.9 20.325 0 20.325 7.9 40.652 7.9 20.328 0 20.328-7.9 40.654-7.9 20.328 0 20.328 7.9 40.656 7.9 20.329 0 20.329-7.9 40.658-7.9 20.326 0 20.326 7.9 40.654 7.9 20.326 0 20.326-7.9 40.651-7.9 20.328 0 20.328 7.9 40.656 7.9 20.329 0 20.329-7.9 40.656-7.9 20.33 0 20.33 7.9 40.66 7.9 20.327 0 20.327-7.9 40.656-7.9 20.332 0 20.332 7.9 40.663 7.9 20.332 0 20.332-7.9 40.662-7.9"/>
            <path d="M1.23 102.115c20.328 0 20.328 8.14 40.655 8.14 20.326 0 20.326-8.14 40.652-8.14s20.326 8.14 40.653 8.14c20.327 0 20.327-8.14 40.654-8.14 20.325 0 20.325 8.14 40.652 8.14 20.328 0 20.328-8.14 40.654-8.14 20.328 0 20.328 8.14 40.656 8.14 20.329 0 20.329-8.14 40.658-8.14 20.326 0 20.326 8.14 40.654 8.14 20.326 0 20.326-8.14 40.651-8.14 20.328 0 20.328 8.14 40.656 8.14 20.329 0 20.329-8.14 40.656-8.14 20.33 0 20.33 8.14 40.66 8.14 20.327 0 20.327-8.14 40.656-8.14 20.332 0 20.332 8.14 40.663 8.14 20.332 0 20.332-8.14 40.662-8.14"/>
            <path d="M1.23 105.087c20.328 0 20.328 8.379 40.655 8.379 20.326 0 20.326-8.38 40.652-8.38s20.326 8.38 40.653 8.38c20.327 0 20.327-8.38 40.654-8.38 20.325 0 20.325 8.38 40.652 8.38 20.328 0 20.328-8.38 40.654-8.38 20.328 0 20.328 8.38 40.656 8.38 20.329 0 20.329-8.38 40.658-8.38 20.326 0 20.326 8.38 40.654 8.38 20.326 0 20.326-8.38 40.651-8.38 20.328 0 20.328 8.38 40.656 8.38 20.329 0 20.329-8.38 40.656-8.38 20.33 0 20.33 8.38 40.66 8.38 20.327 0 20.327-8.38 40.656-8.38 20.332 0 20.332 8.38 40.663 8.38 20.332 0 20.332-8.38 40.662-8.38"/>
            <path d="M1.23 108.058c20.328 0 20.328 8.619 40.655 8.619 20.326 0 20.326-8.619 40.652-8.619s20.326 8.619 40.653 8.619c20.327 0 20.327-8.619 40.654-8.619 20.325 0 20.325 8.619 40.652 8.619 20.328 0 20.328-8.619 40.654-8.619 20.328 0 20.328 8.619 40.656 8.619 20.329 0 20.329-8.619 40.658-8.619 20.326 0 20.326 8.619 40.654 8.619 20.326 0 20.326-8.619 40.651-8.619 20.328 0 20.328 8.619 40.656 8.619 20.329 0 20.329-8.619 40.656-8.619 20.33 0 20.33 8.619 40.66 8.619 20.327 0 20.327-8.619 40.656-8.619 20.332 0 20.332 8.619 40.663 8.619 20.332 0 20.332-8.619 40.662-8.619"/>
            <path d="M1.23 111.03c20.328 0 20.328 8.857 40.655 8.857 20.326 0 20.326-8.857 40.652-8.857s20.326 8.857 40.653 8.857c20.327 0 20.327-8.857 40.654-8.857 20.325 0 20.325 8.857 40.652 8.857 20.328 0 20.328-8.857 40.654-8.857 20.328 0 20.328 8.857 40.656 8.857 20.329 0 20.329-8.857 40.658-8.857 20.326 0 20.326 8.857 40.654 8.857 20.326 0 20.326-8.857 40.651-8.857 20.328 0 20.328 8.857 40.656 8.857 20.329 0 20.329-8.857 40.656-8.857 20.33 0 20.33 8.857 40.66 8.857 20.327 0 20.327-8.857 40.656-8.857 20.332 0 20.332 8.857 40.663 8.857 20.332 0 20.332-8.857 40.662-8.857"/>
            <path d="M1.23 114.002c20.328 0 20.328 9.096 40.655 9.096 20.326 0 20.326-9.096 40.652-9.096s20.326 9.096 40.653 9.096c20.327 0 20.327-9.096 40.654-9.096 20.325 0 20.325 9.096 40.652 9.096 20.328 0 20.328-9.096 40.654-9.096 20.328 0 20.328 9.096 40.656 9.096 20.329 0 20.329-9.096 40.658-9.096 20.326 0 20.326 9.096 40.654 9.096 20.326 0 20.326-9.096 40.651-9.096 20.328 0 20.328 9.096 40.656 9.096 20.329 0 20.329-9.096 40.656-9.096 20.33 0 20.33 9.096 40.66 9.096 20.327 0 20.327-9.096 40.656-9.096 20.332 0 20.332 9.096 40.663 9.096 20.332 0 20.332-9.096 40.662-9.096"/>
            <path d="M1.23 116.974c20.328 0 20.328 9.336 40.655 9.336 20.326 0 20.326-9.336 40.652-9.336s20.326 9.336 40.653 9.336c20.327 0 20.327-9.336 40.654-9.336 20.325 0 20.325 9.336 40.652 9.336 20.328 0 20.328-9.336 40.654-9.336 20.328 0 20.328 9.336 40.656 9.336 20.329 0 20.329-9.336 40.658-9.336 20.326 0 20.326 9.336 40.654 9.336 20.326 0 20.326-9.336 40.651-9.336 20.328 0 20.328 9.336 40.656 9.336 20.329 0 20.329-9.336 40.656-9.336 20.33 0 20.33 9.336 40.66 9.336 20.327 0 20.327-9.336 40.656-9.336 20.332 0 20.332 9.336 40.663 9.336 20.332 0 20.332-9.336 40.662-9.336"/>
            <path d="M1.23 119.945c20.328 0 20.328 9.576 40.655 9.576 20.326 0 20.326-9.576 40.652-9.576s20.326 9.576 40.653 9.576c20.327 0 20.327-9.576 40.654-9.576 20.325 0 20.325 9.576 40.652 9.576 20.328 0 20.328-9.576 40.654-9.576 20.328 0 20.328 9.576 40.656 9.576 20.329 0 20.329-9.576 40.658-9.576 20.326 0 20.326 9.576 40.654 9.576 20.326 0 20.326-9.576 40.651-9.576 20.328 0 20.328 9.576 40.656 9.576 20.329 0 20.329-9.576 40.656-9.576 20.33 0 20.33 9.576 40.66 9.576 20.327 0 20.327-9.576 40.656-9.576 20.332 0 20.332 9.576 40.663 9.576 20.332 0 20.332-9.576 40.662-9.576"/>
            <path d="M1.23 122.917c20.328 0 20.328 9.815 40.655 9.815 20.326 0 20.326-9.815 40.652-9.815s20.326 9.815 40.653 9.815c20.327 0 20.327-9.815 40.654-9.815 20.325 0 20.325 9.815 40.652 9.815 20.328 0 20.328-9.815 40.654-9.815 20.328 0 20.328 9.815 40.656 9.815 20.329 0 20.329-9.815 40.658-9.815 20.326 0 20.326 9.815 40.654 9.815 20.326 0 20.326-9.815 40.651-9.815 20.328 0 20.328 9.815 40.656 9.815 20.329 0 20.329-9.815 40.656-9.815 20.33 0 20.33 9.815 40.66 9.815 20.327 0 20.327-9.815 40.656-9.815 20.332 0 20.332 9.815 40.663 9.815 20.332 0 20.332-9.815 40.662-9.815"/>
            <path d="M1.23 125.888c20.328 0 20.328 10.054 40.655 10.054 20.326 0 20.326-10.054 40.652-10.054s20.326 10.054 40.653 10.054c20.327 0 20.327-10.054 40.654-10.054 20.325 0 20.325 10.054 40.652 10.054 20.328 0 20.328-10.054 40.654-10.054 20.328 0 20.328 10.054 40.656 10.054 20.329 0 20.329-10.054 40.658-10.054 20.326 0 20.326 10.054 40.654 10.054 20.326 0 20.326-10.054 40.651-10.054 20.328 0 20.328 10.054 40.656 10.054 20.329 0 20.329-10.054 40.656-10.054 20.33 0 20.33 10.054 40.66 10.054 20.327 0 20.327-10.054 40.656-10.054 20.332 0 20.332 10.054 40.663 10.054 20.332 0 20.332-10.054 40.662-10.054"/>
            <path d="M1.23 128.86c20.328 0 20.328 10.294 40.655 10.294 20.326 0 20.326-10.294 40.652-10.294s20.326 10.294 40.653 10.294c20.327 0 20.327-10.294 40.654-10.294 20.325 0 20.325 10.294 40.652 10.294 20.328 0 20.328-10.294 40.654-10.294 20.328 0 20.328 10.294 40.656 10.294 20.329 0 20.329-10.294 40.658-10.294 20.326 0 20.326 10.294 40.654 10.294 20.326 0 20.326-10.294 40.651-10.294 20.328 0 20.328 10.294 40.656 10.294 20.329 0 20.329-10.294 40.656-10.294 20.33 0 20.33 10.294 40.66 10.294 20.327 0 20.327-10.294 40.656-10.294 20.332 0 20.332 10.294 40.663 10.294 20.332 0 20.332-10.294 40.662-10.294"/>
            <path d="M1.23 131.831c20.328 0 20.328 10.533 40.655 10.533 20.326 0 20.326-10.533 40.652-10.533s20.326 10.533 40.653 10.533c20.327 0 20.327-10.533 40.654-10.533 20.325 0 20.325 10.533 40.652 10.533 20.328 0 20.328-10.533 40.654-10.533 20.328 0 20.328 10.533 40.656 10.533 20.329 0 20.329-10.533 40.658-10.533 20.326 0 20.326 10.533 40.654 10.533 20.326 0 20.326-10.533 40.651-10.533 20.328 0 20.328 10.533 40.656 10.533 20.329 0 20.329-10.533 40.656-10.533 20.33 0 20.33 10.533 40.66 10.533 20.327 0 20.327-10.533 40.656-10.533 20.332 0 20.332 10.533 40.663 10.533 20.332 0 20.332-10.533 40.662-10.533"/>
            <path d="M1.23 134.804c20.328 0 20.328 10.772 40.655 10.772 20.326 0 20.326-10.772 40.652-10.772s20.326 10.772 40.653 10.772c20.327 0 20.327-10.772 40.654-10.772 20.325 0 20.325 10.772 40.652 10.772 20.328 0 20.328-10.772 40.654-10.772 20.328 0 20.328 10.772 40.656 10.772 20.329 0 20.329-10.772 40.658-10.772 20.326 0 20.326 10.772 40.654 10.772 20.326 0 20.326-10.772 40.651-10.772 20.328 0 20.328 10.772 40.656 10.772 20.329 0 20.329-10.772 40.656-10.772 20.33 0 20.33 10.772 40.66 10.772 20.327 0 20.327-10.772 40.656-10.772 20.332 0 20.332 10.772 40.663 10.772 20.332 0 20.332-10.772 40.662-10.772"/>
            <path d="M1.23 137.775c20.328 0 20.328 11.012 40.655 11.012 20.326 0 20.326-11.012 40.652-11.012s20.326 11.012 40.653 11.012c20.327 0 20.327-11.012 40.654-11.012 20.325 0 20.325 11.012 40.652 11.012 20.328 0 20.328-11.012 40.654-11.012 20.328 0 20.328 11.012 40.656 11.012 20.329 0 20.329-11.012 40.658-11.012 20.326 0 20.326 11.012 40.654 11.012 20.326 0 20.326-11.012 40.651-11.012 20.328 0 20.328 11.012 40.656 11.012 20.329 0 20.329-11.012 40.656-11.012 20.33 0 20.33 11.012 40.66 11.012 20.327 0 20.327-11.012 40.656-11.012 20.332 0 20.332 11.012 40.663 11.012 20.332 0 20.332-11.012 40.662-11.012"/>
            <path d="M1.23 140.747c20.328 0 20.328 11.251 40.655 11.251 20.326 0 20.326-11.251 40.652-11.251s20.326 11.251 40.653 11.251c20.327 0 20.327-11.251 40.654-11.251 20.325 0 20.325 11.251 40.652 11.251 20.328 0 20.328-11.251 40.654-11.251 20.328 0 20.328 11.251 40.656 11.251 20.329 0 20.329-11.251 40.658-11.251 20.326 0 20.326 11.251 40.654 11.251 20.326 0 20.326-11.251 40.651-11.251 20.328 0 20.328 11.251 40.656 11.251 20.329 0 20.329-11.251 40.656-11.251 20.33 0 20.33 11.251 40.66 11.251 20.327 0 20.327-11.251 40.656-11.251 20.332 0 20.332 11.251 40.663 11.251 20.332 0 20.332-11.251 40.662-11.251"/>
            <path d="M1.23 143.718c20.328 0 20.328 11.491 40.655 11.491 20.326 0 20.326-11.491 40.652-11.491s20.326 11.491 40.653 11.491c20.327 0 20.327-11.491 40.654-11.491 20.325 0 20.325 11.491 40.652 11.491 20.328 0 20.328-11.491 40.654-11.491 20.328 0 20.328 11.491 40.656 11.491 20.329 0 20.329-11.491 40.658-11.491 20.326 0 20.326 11.491 40.654 11.491 20.326 0 20.326-11.491 40.651-11.491 20.328 0 20.328 11.491 40.656 11.491 20.329 0 20.329-11.491 40.656-11.491 20.33 0 20.33 11.491 40.66 11.491 20.327 0 20.327-11.491 40.656-11.491 20.332 0 20.332 11.491 40.663 11.491 20.332 0 20.332-11.491 40.662-11.491"/>
            <path d="M1.23 146.69c20.328 0 20.328 11.73 40.655 11.73 20.326 0 20.326-11.73 40.652-11.73s20.326 11.73 40.653 11.73c20.327 0 20.327-11.73 40.654-11.73 20.325 0 20.325 11.73 40.652 11.73 20.328 0 20.328-11.73 40.654-11.73 20.328 0 20.328 11.73 40.656 11.73 20.329 0 20.329-11.73 40.658-11.73 20.326 0 20.326 11.73 40.654 11.73 20.326 0 20.326-11.73 40.651-11.73 20.328 0 20.328 11.73 40.656 11.73 20.329 0 20.329-11.73 40.656-11.73 20.33 0 20.33 11.73 40.66 11.73 20.327 0 20.327-11.73 40.656-11.73 20.332 0 20.332 11.73 40.663 11.73 20.332 0 20.332-11.73 40.662-11.73"/>
            <path d="M1.23 149.661c20.328 0 20.328 11.97 40.655 11.97 20.326 0 20.326-11.97 40.652-11.97s20.326 11.97 40.653 11.97c20.327 0 20.327-11.97 40.654-11.97 20.325 0 20.325 11.97 40.652 11.97 20.328 0 20.328-11.97 40.654-11.97 20.328 0 20.328 11.97 40.656 11.97 20.329 0 20.329-11.97 40.658-11.97 20.326 0 20.326 11.97 40.654 11.97 20.326 0 20.326-11.97 40.651-11.97 20.328 0 20.328 11.97 40.656 11.97 20.329 0 20.329-11.97 40.656-11.97 20.33 0 20.33 11.97 40.66 11.97 20.327 0 20.327-11.97 40.656-11.97 20.332 0 20.332 11.97 40.663 11.97 20.332 0 20.332-11.97 40.662-11.97"/>
            <path d="M1.23 152.633c20.328 0 20.328 12.209 40.655 12.209 20.326 0 20.326-12.209 40.652-12.209s20.326 12.209 40.653 12.209c20.327 0 20.327-12.209 40.654-12.209 20.325 0 20.325 12.209 40.652 12.209 20.328 0 20.328-12.209 40.654-12.209 20.328 0 20.328 12.209 40.656 12.209 20.329 0 20.329-12.209 40.658-12.209 20.326 0 20.326 12.209 40.654 12.209 20.326 0 20.326-12.209 40.651-12.209 20.328 0 20.328 12.209 40.656 12.209 20.329 0 20.329-12.209 40.656-12.209 20.33 0 20.33 12.209 40.66 12.209 20.327 0 20.327-12.209 40.656-12.209 20.332 0 20.332 12.209 40.663 12.209 20.332 0 20.332-12.209 40.662-12.209"/>
            <g>
                <path d="M1.23 296.788c20.328 0 20.328 1.675 40.655 1.675 20.326 0 20.326-1.675 40.652-1.675s20.326 1.675 40.653 1.675c20.327 0 20.327-1.675 40.654-1.675 20.325 0 20.325 1.675 40.652 1.675 20.328 0 20.328-1.675 40.654-1.675 20.328 0 20.328 1.675 40.656 1.675 20.329 0 20.329-1.675 40.658-1.675 20.326 0 20.326 1.675 40.654 1.675 20.326 0 20.326-1.675 40.651-1.675 20.328 0 20.328 1.675 40.656 1.675 20.329 0 20.329-1.675 40.656-1.675 20.33 0 20.33 1.675 40.66 1.675 20.327 0 20.327-1.675 40.656-1.675 20.332 0 20.332 1.675 40.663 1.675 20.332 0 20.332-1.675 40.662-1.675M1.23 293.58c20.328 0 20.328 1.912 40.655 1.912 20.326 0 20.326-1.913 40.652-1.913s20.326 1.913 40.653 1.913c20.327 0 20.327-1.913 40.654-1.913 20.325 0 20.325 1.913 40.652 1.913 20.328 0 20.328-1.913 40.654-1.913 20.328 0 20.328 1.913 40.656 1.913 20.329 0 20.329-1.913 40.658-1.913 20.326 0 20.326 1.913 40.654 1.913 20.326 0 20.326-1.913 40.651-1.913 20.328 0 20.328 1.913 40.656 1.913 20.329 0 20.329-1.913 40.656-1.913 20.33 0 20.33 1.913 40.66 1.913 20.327 0 20.327-1.913 40.656-1.913 20.332 0 20.332 1.913 40.663 1.913 20.332 0 20.332-1.913 40.662-1.913M1.23 290.37c20.328 0 20.328 2.153 40.655 2.153 20.326 0 20.326-2.152 40.652-2.152s20.326 2.152 40.653 2.152c20.327 0 20.327-2.152 40.654-2.152 20.325 0 20.325 2.152 40.652 2.152 20.328 0 20.328-2.152 40.654-2.152 20.328 0 20.328 2.152 40.656 2.152 20.329 0 20.329-2.152 40.658-2.152 20.326 0 20.326 2.152 40.654 2.152 20.326 0 20.326-2.152 40.651-2.152 20.328 0 20.328 2.152 40.656 2.152 20.329 0 20.329-2.152 40.656-2.152 20.33 0 20.33 2.152 40.66 2.152 20.327 0 20.327-2.152 40.656-2.152 20.332 0 20.332 2.152 40.663 2.152 20.332 0 20.332-2.152 40.662-2.152M1.23 287.162c20.328 0 20.328 2.393 40.655 2.393 20.326 0 20.326-2.393 40.652-2.393s20.326 2.393 40.653 2.393c20.327 0 20.327-2.393 40.654-2.393 20.325 0 20.325 2.393 40.652 2.393 20.328 0 20.328-2.393 40.654-2.393 20.328 0 20.328 2.393 40.656 2.393 20.329 0 20.329-2.393 40.658-2.393 20.326 0 20.326 2.393 40.654 2.393 20.326 0 20.326-2.393 40.651-2.393 20.328 0 20.328 2.393 40.656 2.393 20.329 0 20.329-2.393 40.656-2.393 20.33 0 20.33 2.393 40.66 2.393 20.327 0 20.327-2.393 40.656-2.393 20.332 0 20.332 2.393 40.663 2.393 20.332 0 20.332-2.393 40.662-2.393M1.23 283.954c20.328 0 20.328 2.63 40.655 2.63 20.326 0 20.326-2.63 40.652-2.63s20.326 2.63 40.653 2.63c20.327 0 20.327-2.63 40.654-2.63 20.325 0 20.325 2.63 40.652 2.63 20.328 0 20.328-2.63 40.654-2.63 20.328 0 20.328 2.63 40.656 2.63 20.329 0 20.329-2.63 40.658-2.63 20.326 0 20.326 2.63 40.654 2.63 20.326 0 20.326-2.63 40.651-2.63 20.328 0 20.328 2.63 40.656 2.63 20.329 0 20.329-2.63 40.656-2.63 20.33 0 20.33 2.63 40.66 2.63 20.327 0 20.327-2.63 40.656-2.63 20.332 0 20.332 2.63 40.663 2.63 20.332 0 20.332-2.63 40.662-2.63M1.23 280.745c20.328 0 20.328 2.87 40.655 2.87 20.326 0 20.326-2.87 40.652-2.87s20.326 2.87 40.653 2.87c20.327 0 20.327-2.87 40.654-2.87 20.325 0 20.325 2.87 40.652 2.87 20.328 0 20.328-2.87 40.654-2.87 20.328 0 20.328 2.87 40.656 2.87 20.329 0 20.329-2.87 40.658-2.87 20.326 0 20.326 2.87 40.654 2.87 20.326 0 20.326-2.87 40.651-2.87 20.328 0 20.328 2.87 40.656 2.87 20.329 0 20.329-2.87 40.656-2.87 20.33 0 20.33 2.87 40.66 2.87 20.327 0 20.327-2.87 40.656-2.87 20.332 0 20.332 2.87 40.663 2.87 20.332 0 20.332-2.87 40.662-2.87M1.23 277.536c20.328 0 20.328 3.11 40.655 3.11 20.326 0 20.326-3.11 40.652-3.11s20.326 3.11 40.653 3.11c20.327 0 20.327-3.11 40.654-3.11 20.325 0 20.325 3.11 40.652 3.11 20.328 0 20.328-3.11 40.654-3.11 20.328 0 20.328 3.11 40.656 3.11 20.329 0 20.329-3.11 40.658-3.11 20.326 0 20.326 3.11 40.654 3.11 20.326 0 20.326-3.11 40.651-3.11 20.328 0 20.328 3.11 40.656 3.11 20.329 0 20.329-3.11 40.656-3.11 20.33 0 20.33 3.11 40.66 3.11 20.327 0 20.327-3.11 40.656-3.11 20.332 0 20.332 3.11 40.663 3.11 20.332 0 20.332-3.11 40.662-3.11"/>
                <path d="M1.23 274.328c20.328 0 20.328 3.348 40.655 3.348 20.326 0 20.326-3.348 40.652-3.348s20.326 3.348 40.653 3.348c20.327 0 20.327-3.348 40.654-3.348 20.325 0 20.325 3.348 40.652 3.348 20.328 0 20.328-3.348 40.654-3.348 20.328 0 20.328 3.348 40.656 3.348 20.329 0 20.329-3.348 40.658-3.348 20.326 0 20.326 3.348 40.654 3.348 20.326 0 20.326-3.348 40.651-3.348 20.328 0 20.328 3.348 40.656 3.348 20.329 0 20.329-3.348 40.656-3.348 20.33 0 20.33 3.348 40.66 3.348 20.327 0 20.327-3.348 40.656-3.348 20.332 0 20.332 3.348 40.663 3.348 20.332 0 20.332-3.348 40.662-3.348"/>
                <path d="M1.23 271.12c20.328 0 20.328 3.588 40.655 3.588 20.326 0 20.326-3.589 40.652-3.589s20.326 3.59 40.653 3.59c20.327 0 20.327-3.59 40.654-3.59 20.325 0 20.325 3.59 40.652 3.59 20.328 0 20.328-3.59 40.654-3.59 20.328 0 20.328 3.59 40.656 3.59 20.329 0 20.329-3.59 40.658-3.59 20.326 0 20.326 3.59 40.654 3.59 20.326 0 20.326-3.59 40.651-3.59 20.328 0 20.328 3.59 40.656 3.59 20.329 0 20.329-3.59 40.656-3.59 20.33 0 20.33 3.59 40.66 3.59 20.327 0 20.327-3.59 40.656-3.59 20.332 0 20.332 3.59 40.663 3.59 20.332 0 20.332-3.59 40.662-3.59"/>
                <path d="M1.23 267.91c20.328 0 20.328 3.828 40.655 3.828 20.326 0 20.326-3.827 40.652-3.827s20.326 3.827 40.653 3.827c20.327 0 20.327-3.827 40.654-3.827 20.325 0 20.325 3.827 40.652 3.827 20.328 0 20.328-3.827 40.654-3.827 20.328 0 20.328 3.827 40.656 3.827 20.329 0 20.329-3.827 40.658-3.827 20.326 0 20.326 3.827 40.654 3.827 20.326 0 20.326-3.827 40.651-3.827 20.328 0 20.328 3.827 40.656 3.827 20.329 0 20.329-3.827 40.656-3.827 20.33 0 20.33 3.827 40.66 3.827 20.327 0 20.327-3.827 40.656-3.827 20.332 0 20.332 3.827 40.663 3.827 20.332 0 20.332-3.827 40.662-3.827"/>
                <path d="M1.23 264.702c20.328 0 20.328 4.067 40.655 4.067 20.326 0 20.326-4.067 40.652-4.067s20.326 4.067 40.653 4.067c20.327 0 20.327-4.067 40.654-4.067 20.325 0 20.325 4.067 40.652 4.067 20.328 0 20.328-4.067 40.654-4.067 20.328 0 20.328 4.067 40.656 4.067 20.329 0 20.329-4.067 40.658-4.067 20.326 0 20.326 4.067 40.654 4.067 20.326 0 20.326-4.067 40.651-4.067 20.328 0 20.328 4.067 40.656 4.067 20.329 0 20.329-4.067 40.656-4.067 20.33 0 20.33 4.067 40.66 4.067 20.327 0 20.327-4.067 40.656-4.067 20.332 0 20.332 4.067 40.663 4.067 20.332 0 20.332-4.067 40.662-4.067"/>
                <path d="M1.23 261.493c20.328 0 20.328 4.306 40.655 4.306 20.326 0 20.326-4.306 40.652-4.306s20.326 4.306 40.653 4.306c20.327 0 20.327-4.306 40.654-4.306 20.325 0 20.325 4.306 40.652 4.306 20.328 0 20.328-4.306 40.654-4.306 20.328 0 20.328 4.306 40.656 4.306 20.329 0 20.329-4.306 40.658-4.306 20.326 0 20.326 4.306 40.654 4.306 20.326 0 20.326-4.306 40.651-4.306 20.328 0 20.328 4.306 40.656 4.306 20.329 0 20.329-4.306 40.656-4.306 20.33 0 20.33 4.306 40.66 4.306 20.327 0 20.327-4.306 40.656-4.306 20.332 0 20.332 4.306 40.663 4.306 20.332 0 20.332-4.306 40.662-4.306"/>
                <path d="M1.23 258.285c20.328 0 20.328 4.545 40.655 4.545 20.326 0 20.326-4.545 40.652-4.545s20.326 4.545 40.653 4.545c20.327 0 20.327-4.545 40.654-4.545 20.325 0 20.325 4.545 40.652 4.545 20.328 0 20.328-4.545 40.654-4.545 20.328 0 20.328 4.545 40.656 4.545 20.329 0 20.329-4.545 40.658-4.545 20.326 0 20.326 4.545 40.654 4.545 20.326 0 20.326-4.545 40.651-4.545 20.328 0 20.328 4.545 40.656 4.545 20.329 0 20.329-4.545 40.656-4.545 20.33 0 20.33 4.545 40.66 4.545 20.327 0 20.327-4.545 40.656-4.545 20.332 0 20.332 4.545 40.663 4.545 20.332 0 20.332-4.545 40.662-4.545"/>
                <path d="M1.23 255.077c20.328 0 20.328 4.784 40.655 4.784 20.326 0 20.326-4.784 40.652-4.784s20.326 4.784 40.653 4.784c20.327 0 20.327-4.784 40.654-4.784 20.325 0 20.325 4.784 40.652 4.784 20.328 0 20.328-4.784 40.654-4.784 20.328 0 20.328 4.784 40.656 4.784 20.329 0 20.329-4.784 40.658-4.784 20.326 0 20.326 4.784 40.654 4.784 20.326 0 20.326-4.784 40.651-4.784 20.328 0 20.328 4.784 40.656 4.784 20.329 0 20.329-4.784 40.656-4.784 20.33 0 20.33 4.784 40.66 4.784 20.327 0 20.327-4.784 40.656-4.784 20.332 0 20.332 4.784 40.663 4.784 20.332 0 20.332-4.784 40.662-4.784"/>
                <path d="M1.23 251.868c20.328 0 20.328 5.024 40.655 5.024 20.326 0 20.326-5.024 40.652-5.024s20.326 5.024 40.653 5.024c20.327 0 20.327-5.024 40.654-5.024 20.325 0 20.325 5.024 40.652 5.024 20.328 0 20.328-5.024 40.654-5.024 20.328 0 20.328 5.024 40.656 5.024 20.329 0 20.329-5.024 40.658-5.024 20.326 0 20.326 5.024 40.654 5.024 20.326 0 20.326-5.024 40.651-5.024 20.328 0 20.328 5.024 40.656 5.024 20.329 0 20.329-5.024 40.656-5.024 20.33 0 20.33 5.024 40.66 5.024 20.327 0 20.327-5.024 40.656-5.024 20.332 0 20.332 5.024 40.663 5.024 20.332 0 20.332-5.024 40.662-5.024"/>
                <path d="M1.23 248.66c20.328 0 20.328 5.262 40.655 5.262 20.326 0 20.326-5.262 40.652-5.262s20.326 5.262 40.653 5.262c20.327 0 20.327-5.262 40.654-5.262 20.325 0 20.325 5.262 40.652 5.262 20.328 0 20.328-5.262 40.654-5.262 20.328 0 20.328 5.262 40.656 5.262 20.329 0 20.329-5.262 40.658-5.262 20.326 0 20.326 5.262 40.654 5.262 20.326 0 20.326-5.262 40.651-5.262 20.328 0 20.328 5.262 40.656 5.262 20.329 0 20.329-5.262 40.656-5.262 20.33 0 20.33 5.262 40.66 5.262 20.327 0 20.327-5.262 40.656-5.262 20.332 0 20.332 5.262 40.663 5.262 20.332 0 20.332-5.262 40.662-5.262"/>
                <path d="M1.23 245.45c20.328 0 20.328 5.503 40.655 5.503 20.326 0 20.326-5.502 40.652-5.502s20.326 5.502 40.653 5.502c20.327 0 20.327-5.502 40.654-5.502 20.325 0 20.325 5.502 40.652 5.502 20.328 0 20.328-5.502 40.654-5.502 20.328 0 20.328 5.502 40.656 5.502 20.329 0 20.329-5.502 40.658-5.502 20.326 0 20.326 5.502 40.654 5.502 20.326 0 20.326-5.502 40.651-5.502 20.328 0 20.328 5.502 40.656 5.502 20.329 0 20.329-5.502 40.656-5.502 20.33 0 20.33 5.502 40.66 5.502 20.327 0 20.327-5.502 40.656-5.502 20.332 0 20.332 5.502 40.663 5.502 20.332 0 20.332-5.502 40.662-5.502"/>
                <path d="M1.23 242.243c20.328 0 20.328 5.74 40.655 5.74 20.326 0 20.326-5.74 40.652-5.74s20.326 5.74 40.653 5.74c20.327 0 20.327-5.74 40.654-5.74 20.325 0 20.325 5.74 40.652 5.74 20.328 0 20.328-5.74 40.654-5.74 20.328 0 20.328 5.74 40.656 5.74 20.329 0 20.329-5.74 40.658-5.74 20.326 0 20.326 5.74 40.654 5.74 20.326 0 20.326-5.74 40.651-5.74 20.328 0 20.328 5.74 40.656 5.74 20.329 0 20.329-5.74 40.656-5.74 20.33 0 20.33 5.74 40.66 5.74 20.327 0 20.327-5.74 40.656-5.74 20.332 0 20.332 5.74 40.663 5.74 20.332 0 20.332-5.74 40.662-5.74"/>
                <path d="M1.23 239.034c20.328 0 20.328 5.98 40.655 5.98 20.326 0 20.326-5.98 40.652-5.98s20.326 5.98 40.653 5.98c20.327 0 20.327-5.98 40.654-5.98 20.325 0 20.325 5.98 40.652 5.98 20.328 0 20.328-5.98 40.654-5.98 20.328 0 20.328 5.98 40.656 5.98 20.329 0 20.329-5.98 40.658-5.98 20.326 0 20.326 5.98 40.654 5.98 20.326 0 20.326-5.98 40.651-5.98 20.328 0 20.328 5.98 40.656 5.98 20.329 0 20.329-5.98 40.656-5.98 20.33 0 20.33 5.98 40.66 5.98 20.327 0 20.327-5.98 40.656-5.98 20.332 0 20.332 5.98 40.663 5.98 20.332 0 20.332-5.98 40.662-5.98"/>
                <path d="M1.23 235.825c20.328 0 20.328 6.22 40.655 6.22 20.326 0 20.326-6.22 40.652-6.22s20.326 6.22 40.653 6.22c20.327 0 20.327-6.22 40.654-6.22 20.325 0 20.325 6.22 40.652 6.22 20.328 0 20.328-6.22 40.654-6.22 20.328 0 20.328 6.22 40.656 6.22 20.329 0 20.329-6.22 40.658-6.22 20.326 0 20.326 6.22 40.654 6.22 20.326 0 20.326-6.22 40.651-6.22 20.328 0 20.328 6.22 40.656 6.22 20.329 0 20.329-6.22 40.656-6.22 20.33 0 20.33 6.22 40.66 6.22 20.327 0 20.327-6.22 40.656-6.22 20.332 0 20.332 6.22 40.663 6.22 20.332 0 20.332-6.22 40.662-6.22"/>
                <path d="M1.23 232.617c20.328 0 20.328 6.458 40.655 6.458 20.326 0 20.326-6.458 40.652-6.458s20.326 6.458 40.653 6.458c20.327 0 20.327-6.458 40.654-6.458 20.325 0 20.325 6.458 40.652 6.458 20.328 0 20.328-6.458 40.654-6.458 20.328 0 20.328 6.458 40.656 6.458 20.329 0 20.329-6.458 40.658-6.458 20.326 0 20.326 6.458 40.654 6.458 20.326 0 20.326-6.458 40.651-6.458 20.328 0 20.328 6.458 40.656 6.458 20.329 0 20.329-6.458 40.656-6.458 20.33 0 20.33 6.458 40.66 6.458 20.327 0 20.327-6.458 40.656-6.458 20.332 0 20.332 6.458 40.663 6.458 20.332 0 20.332-6.458 40.662-6.458"/>
                <path d="M1.23 229.409c20.328 0 20.328 6.697 40.655 6.697 20.326 0 20.326-6.697 40.652-6.697s20.326 6.697 40.653 6.697c20.327 0 20.327-6.697 40.654-6.697 20.325 0 20.325 6.697 40.652 6.697 20.328 0 20.328-6.697 40.654-6.697 20.328 0 20.328 6.697 40.656 6.697 20.329 0 20.329-6.697 40.658-6.697 20.326 0 20.326 6.697 40.654 6.697 20.326 0 20.326-6.697 40.651-6.697 20.328 0 20.328 6.697 40.656 6.697 20.329 0 20.329-6.697 40.656-6.697 20.33 0 20.33 6.697 40.66 6.697 20.327 0 20.327-6.697 40.656-6.697 20.332 0 20.332 6.697 40.663 6.697 20.332 0 20.332-6.697 40.662-6.697"/>
                <path d="M1.23 226.2c20.328 0 20.328 6.937 40.655 6.937 20.326 0 20.326-6.937 40.652-6.937s20.326 6.937 40.653 6.937c20.327 0 20.327-6.937 40.654-6.937 20.325 0 20.325 6.937 40.652 6.937 20.328 0 20.328-6.937 40.654-6.937 20.328 0 20.328 6.937 40.656 6.937 20.329 0 20.329-6.937 40.658-6.937 20.326 0 20.326 6.937 40.654 6.937 20.326 0 20.326-6.937 40.651-6.937 20.328 0 20.328 6.937 40.656 6.937 20.329 0 20.329-6.937 40.656-6.937 20.33 0 20.33 6.937 40.66 6.937 20.327 0 20.327-6.937 40.656-6.937 20.332 0 20.332 6.937 40.663 6.937 20.332 0 20.332-6.937 40.662-6.937"/>
                <path d="M1.23 222.991c20.328 0 20.328 7.177 40.655 7.177 20.326 0 20.326-7.177 40.652-7.177s20.326 7.177 40.653 7.177c20.327 0 20.327-7.177 40.654-7.177 20.325 0 20.325 7.177 40.652 7.177 20.328 0 20.328-7.177 40.654-7.177 20.328 0 20.328 7.177 40.656 7.177 20.329 0 20.329-7.177 40.658-7.177 20.326 0 20.326 7.177 40.654 7.177 20.326 0 20.326-7.177 40.651-7.177 20.328 0 20.328 7.177 40.656 7.177 20.329 0 20.329-7.177 40.656-7.177 20.33 0 20.33 7.177 40.66 7.177 20.327 0 20.327-7.177 40.656-7.177 20.332 0 20.332 7.177 40.663 7.177 20.332 0 20.332-7.177 40.662-7.177"/>
                <path d="M1.23 219.783c20.328 0 20.328 7.415 40.655 7.415 20.326 0 20.326-7.415 40.652-7.415s20.326 7.415 40.653 7.415c20.327 0 20.327-7.415 40.654-7.415 20.325 0 20.325 7.415 40.652 7.415 20.328 0 20.328-7.415 40.654-7.415 20.328 0 20.328 7.415 40.656 7.415 20.329 0 20.329-7.415 40.658-7.415 20.326 0 20.326 7.415 40.654 7.415 20.326 0 20.326-7.415 40.651-7.415 20.328 0 20.328 7.415 40.656 7.415 20.329 0 20.329-7.415 40.656-7.415 20.33 0 20.33 7.415 40.66 7.415 20.327 0 20.327-7.415 40.656-7.415 20.332 0 20.332 7.415 40.663 7.415 20.332 0 20.332-7.415 40.662-7.415"/>
                <path d="M1.23 216.575c20.328 0 20.328 7.654 40.655 7.654 20.326 0 20.326-7.654 40.652-7.654s20.326 7.654 40.653 7.654c20.327 0 20.327-7.654 40.654-7.654 20.325 0 20.325 7.654 40.652 7.654 20.328 0 20.328-7.654 40.654-7.654 20.328 0 20.328 7.654 40.656 7.654 20.329 0 20.329-7.654 40.658-7.654 20.326 0 20.326 7.654 40.654 7.654 20.326 0 20.326-7.654 40.651-7.654 20.328 0 20.328 7.654 40.656 7.654 20.329 0 20.329-7.654 40.656-7.654 20.33 0 20.33 7.654 40.66 7.654 20.327 0 20.327-7.654 40.656-7.654 20.332 0 20.332 7.654 40.663 7.654 20.332 0 20.332-7.654 40.662-7.654"/>
                <path d="M1.23 213.366c20.328 0 20.328 7.893 40.655 7.893 20.326 0 20.326-7.893 40.652-7.893s20.326 7.893 40.653 7.893c20.327 0 20.327-7.893 40.654-7.893 20.325 0 20.325 7.893 40.652 7.893 20.328 0 20.328-7.893 40.654-7.893 20.328 0 20.328 7.893 40.656 7.893 20.329 0 20.329-7.893 40.658-7.893 20.326 0 20.326 7.893 40.654 7.893 20.326 0 20.326-7.893 40.651-7.893 20.328 0 20.328 7.893 40.656 7.893 20.329 0 20.329-7.893 40.656-7.893 20.33 0 20.33 7.893 40.66 7.893 20.327 0 20.327-7.893 40.656-7.893 20.332 0 20.332 7.893 40.663 7.893 20.332 0 20.332-7.893 40.662-7.893"/>
                <path d="M1.23 210.157c20.328 0 20.328 8.133 40.655 8.133 20.326 0 20.326-8.133 40.652-8.133s20.326 8.133 40.653 8.133c20.327 0 20.327-8.133 40.654-8.133 20.325 0 20.325 8.133 40.652 8.133 20.328 0 20.328-8.133 40.654-8.133 20.328 0 20.328 8.133 40.656 8.133 20.329 0 20.329-8.133 40.658-8.133 20.326 0 20.326 8.133 40.654 8.133 20.326 0 20.326-8.133 40.651-8.133 20.328 0 20.328 8.133 40.656 8.133 20.329 0 20.329-8.133 40.656-8.133 20.33 0 20.33 8.133 40.66 8.133 20.327 0 20.327-8.133 40.656-8.133 20.332 0 20.332 8.133 40.663 8.133 20.332 0 20.332-8.133 40.662-8.133"/>
                <path d="M1.23 206.948c20.328 0 20.328 8.373 40.655 8.373 20.326 0 20.326-8.373 40.652-8.373s20.326 8.373 40.653 8.373c20.327 0 20.327-8.373 40.654-8.373 20.325 0 20.325 8.373 40.652 8.373 20.328 0 20.328-8.373 40.654-8.373 20.328 0 20.328 8.373 40.656 8.373 20.329 0 20.329-8.373 40.658-8.373 20.326 0 20.326 8.373 40.654 8.373 20.326 0 20.326-8.373 40.651-8.373 20.328 0 20.328 8.373 40.656 8.373 20.329 0 20.329-8.373 40.656-8.373 20.33 0 20.33 8.373 40.66 8.373 20.327 0 20.327-8.373 40.656-8.373 20.332 0 20.332 8.373 40.663 8.373 20.332 0 20.332-8.373 40.662-8.373"/>
                <path d="M1.23 203.74c20.328 0 20.328 8.611 40.655 8.611 20.326 0 20.326-8.611 40.652-8.611s20.326 8.611 40.653 8.611c20.327 0 20.327-8.611 40.654-8.611 20.325 0 20.325 8.611 40.652 8.611 20.328 0 20.328-8.611 40.654-8.611 20.328 0 20.328 8.611 40.656 8.611 20.329 0 20.329-8.611 40.658-8.611 20.326 0 20.326 8.611 40.654 8.611 20.326 0 20.326-8.611 40.651-8.611 20.328 0 20.328 8.611 40.656 8.611 20.329 0 20.329-8.611 40.656-8.611 20.33 0 20.33 8.611 40.66 8.611 20.327 0 20.327-8.611 40.656-8.611 20.332 0 20.332 8.611 40.663 8.611 20.332 0 20.332-8.611 40.662-8.611"/>
                <path d="M1.23 200.532c20.328 0 20.328 8.85 40.655 8.85 20.326 0 20.326-8.85 40.652-8.85s20.326 8.85 40.653 8.85c20.327 0 20.327-8.85 40.654-8.85 20.325 0 20.325 8.85 40.652 8.85 20.328 0 20.328-8.85 40.654-8.85 20.328 0 20.328 8.85 40.656 8.85 20.329 0 20.329-8.85 40.658-8.85 20.326 0 20.326 8.85 40.654 8.85 20.326 0 20.326-8.85 40.651-8.85 20.328 0 20.328 8.85 40.656 8.85 20.329 0 20.329-8.85 40.656-8.85 20.33 0 20.33 8.85 40.66 8.85 20.327 0 20.327-8.85 40.656-8.85 20.332 0 20.332 8.85 40.663 8.85 20.332 0 20.332-8.85 40.662-8.85"/>
                <path d="M1.23 197.323c20.328 0 20.328 9.09 40.655 9.09 20.326 0 20.326-9.09 40.652-9.09s20.326 9.09 40.653 9.09c20.327 0 20.327-9.09 40.654-9.09 20.325 0 20.325 9.09 40.652 9.09 20.328 0 20.328-9.09 40.654-9.09 20.328 0 20.328 9.09 40.656 9.09 20.329 0 20.329-9.09 40.658-9.09 20.326 0 20.326 9.09 40.654 9.09 20.326 0 20.326-9.09 40.651-9.09 20.328 0 20.328 9.09 40.656 9.09 20.329 0 20.329-9.09 40.656-9.09 20.33 0 20.33 9.09 40.66 9.09 20.327 0 20.327-9.09 40.656-9.09 20.332 0 20.332 9.09 40.663 9.09 20.332 0 20.332-9.09 40.662-9.09"/>
                <path d="M1.23 194.115c20.328 0 20.328 9.328 40.655 9.328 20.326 0 20.326-9.328 40.652-9.328s20.326 9.328 40.653 9.328c20.327 0 20.327-9.328 40.654-9.328 20.325 0 20.325 9.328 40.652 9.328 20.328 0 20.328-9.328 40.654-9.328 20.328 0 20.328 9.328 40.656 9.328 20.329 0 20.329-9.328 40.658-9.328 20.326 0 20.326 9.328 40.654 9.328 20.326 0 20.326-9.328 40.651-9.328 20.328 0 20.328 9.328 40.656 9.328 20.329 0 20.329-9.328 40.656-9.328 20.33 0 20.33 9.328 40.66 9.328 20.327 0 20.327-9.328 40.656-9.328 20.332 0 20.332 9.328 40.663 9.328 20.332 0 20.332-9.328 40.662-9.328"/>
                <path d="M1.23 190.906c20.328 0 20.328 9.569 40.655 9.569 20.326 0 20.326-9.57 40.652-9.57s20.326 9.57 40.653 9.57c20.327 0 20.327-9.57 40.654-9.57 20.325 0 20.325 9.57 40.652 9.57 20.328 0 20.328-9.57 40.654-9.57 20.328 0 20.328 9.57 40.656 9.57 20.329 0 20.329-9.57 40.658-9.57 20.326 0 20.326 9.57 40.654 9.57 20.326 0 20.326-9.57 40.651-9.57 20.328 0 20.328 9.57 40.656 9.57 20.329 0 20.329-9.57 40.656-9.57 20.33 0 20.33 9.57 40.66 9.57 20.327 0 20.327-9.57 40.656-9.57 20.332 0 20.332 9.57 40.663 9.57 20.332 0 20.332-9.57 40.662-9.57"/>
                <path d="M1.23 187.698c20.328 0 20.328 9.807 40.655 9.807 20.326 0 20.326-9.807 40.652-9.807s20.326 9.807 40.653 9.807c20.327 0 20.327-9.807 40.654-9.807 20.325 0 20.325 9.807 40.652 9.807 20.328 0 20.328-9.807 40.654-9.807 20.328 0 20.328 9.807 40.656 9.807 20.329 0 20.329-9.807 40.658-9.807 20.326 0 20.326 9.807 40.654 9.807 20.326 0 20.326-9.807 40.651-9.807 20.328 0 20.328 9.807 40.656 9.807 20.329 0 20.329-9.807 40.656-9.807 20.33 0 20.33 9.807 40.66 9.807 20.327 0 20.327-9.807 40.656-9.807 20.332 0 20.332 9.807 40.663 9.807 20.332 0 20.332-9.807 40.662-9.807"/>
                <path d="M1.23 184.49c20.328 0 20.328 10.046 40.655 10.046 20.326 0 20.326-10.047 40.652-10.047s20.326 10.047 40.653 10.047c20.327 0 20.327-10.047 40.654-10.047 20.325 0 20.325 10.047 40.652 10.047 20.328 0 20.328-10.047 40.654-10.047 20.328 0 20.328 10.047 40.656 10.047 20.329 0 20.329-10.047 40.658-10.047 20.326 0 20.326 10.047 40.654 10.047 20.326 0 20.326-10.047 40.651-10.047 20.328 0 20.328 10.047 40.656 10.047 20.329 0 20.329-10.047 40.656-10.047 20.33 0 20.33 10.047 40.66 10.047 20.327 0 20.327-10.047 40.656-10.047 20.332 0 20.332 10.047 40.663 10.047 20.332 0 20.332-10.047 40.662-10.047"/>
                <path d="M1.23 181.28c20.328 0 20.328 10.286 40.655 10.286 20.326 0 20.326-10.285 40.652-10.285s20.326 10.285 40.653 10.285c20.327 0 20.327-10.285 40.654-10.285 20.325 0 20.325 10.285 40.652 10.285 20.328 0 20.328-10.285 40.654-10.285 20.328 0 20.328 10.285 40.656 10.285 20.329 0 20.329-10.285 40.658-10.285 20.326 0 20.326 10.285 40.654 10.285 20.326 0 20.326-10.285 40.651-10.285 20.328 0 20.328 10.285 40.656 10.285 20.329 0 20.329-10.285 40.656-10.285 20.33 0 20.33 10.285 40.66 10.285 20.327 0 20.327-10.285 40.656-10.285 20.332 0 20.332 10.285 40.663 10.285 20.332 0 20.332-10.285 40.662-10.285"/>
                <path d="M1.23 178.072c20.328 0 20.328 10.525 40.655 10.525 20.326 0 20.326-10.525 40.652-10.525s20.326 10.525 40.653 10.525c20.327 0 20.327-10.525 40.654-10.525 20.325 0 20.325 10.525 40.652 10.525 20.328 0 20.328-10.525 40.654-10.525 20.328 0 20.328 10.525 40.656 10.525 20.329 0 20.329-10.525 40.658-10.525 20.326 0 20.326 10.525 40.654 10.525 20.326 0 20.326-10.525 40.651-10.525 20.328 0 20.328 10.525 40.656 10.525 20.329 0 20.329-10.525 40.656-10.525 20.33 0 20.33 10.525 40.66 10.525 20.327 0 20.327-10.525 40.656-10.525 20.332 0 20.332 10.525 40.663 10.525 20.332 0 20.332-10.525 40.662-10.525"/>
                <path d="M1.23 174.863c20.328 0 20.328 10.764 40.655 10.764 20.326 0 20.326-10.764 40.652-10.764s20.326 10.764 40.653 10.764c20.327 0 20.327-10.764 40.654-10.764 20.325 0 20.325 10.764 40.652 10.764 20.328 0 20.328-10.764 40.654-10.764 20.328 0 20.328 10.764 40.656 10.764 20.329 0 20.329-10.764 40.658-10.764 20.326 0 20.326 10.764 40.654 10.764 20.326 0 20.326-10.764 40.651-10.764 20.328 0 20.328 10.764 40.656 10.764 20.329 0 20.329-10.764 40.656-10.764 20.33 0 20.33 10.764 40.66 10.764 20.327 0 20.327-10.764 40.656-10.764 20.332 0 20.332 10.764 40.663 10.764 20.332 0 20.332-10.764 40.662-10.764"/>
                <path d="M1.23 171.655c20.328 0 20.328 11.003 40.655 11.003 20.326 0 20.326-11.003 40.652-11.003s20.326 11.003 40.653 11.003c20.327 0 20.327-11.003 40.654-11.003 20.325 0 20.325 11.003 40.652 11.003 20.328 0 20.328-11.003 40.654-11.003 20.328 0 20.328 11.003 40.656 11.003 20.329 0 20.329-11.003 40.658-11.003 20.326 0 20.326 11.003 40.654 11.003 20.326 0 20.326-11.003 40.651-11.003 20.328 0 20.328 11.003 40.656 11.003 20.329 0 20.329-11.003 40.656-11.003 20.33 0 20.33 11.003 40.66 11.003 20.327 0 20.327-11.003 40.656-11.003 20.332 0 20.332 11.003 40.663 11.003 20.332 0 20.332-11.003 40.662-11.003"/>
                <path d="M1.23 168.446c20.328 0 20.328 11.243 40.655 11.243 20.326 0 20.326-11.243 40.652-11.243s20.326 11.243 40.653 11.243c20.327 0 20.327-11.243 40.654-11.243 20.325 0 20.325 11.243 40.652 11.243 20.328 0 20.328-11.243 40.654-11.243 20.328 0 20.328 11.243 40.656 11.243 20.329 0 20.329-11.243 40.658-11.243 20.326 0 20.326 11.243 40.654 11.243 20.326 0 20.326-11.243 40.651-11.243 20.328 0 20.328 11.243 40.656 11.243 20.329 0 20.329-11.243 40.656-11.243 20.33 0 20.33 11.243 40.66 11.243 20.327 0 20.327-11.243 40.656-11.243 20.332 0 20.332 11.243 40.663 11.243 20.332 0 20.332-11.243 40.662-11.243"/>
                <path d="M1.23 165.238c20.328 0 20.328 11.48 40.655 11.48 20.326 0 20.326-11.48 40.652-11.48s20.326 11.48 40.653 11.48c20.327 0 20.327-11.48 40.654-11.48 20.325 0 20.325 11.48 40.652 11.48 20.328 0 20.328-11.48 40.654-11.48 20.328 0 20.328 11.48 40.656 11.48 20.329 0 20.329-11.48 40.658-11.48 20.326 0 20.326 11.48 40.654 11.48 20.326 0 20.326-11.48 40.651-11.48 20.328 0 20.328 11.48 40.656 11.48 20.329 0 20.329-11.48 40.656-11.48 20.33 0 20.33 11.48 40.66 11.48 20.327 0 20.327-11.48 40.656-11.48 20.332 0 20.332 11.48 40.663 11.48 20.332 0 20.332-11.48 40.662-11.48"/>
                <path d="M1.23 162.03c20.328 0 20.328 11.72 40.655 11.72 20.326 0 20.326-11.72 40.652-11.72s20.326 11.72 40.653 11.72c20.327 0 20.327-11.72 40.654-11.72 20.325 0 20.325 11.72 40.652 11.72 20.328 0 20.328-11.72 40.654-11.72 20.328 0 20.328 11.72 40.656 11.72 20.329 0 20.329-11.72 40.658-11.72 20.326 0 20.326 11.72 40.654 11.72 20.326 0 20.326-11.72 40.651-11.72 20.328 0 20.328 11.72 40.656 11.72 20.329 0 20.329-11.72 40.656-11.72 20.33 0 20.33 11.72 40.66 11.72 20.327 0 20.327-11.72 40.656-11.72 20.332 0 20.332 11.72 40.663 11.72 20.332 0 20.332-11.72 40.662-11.72"/>
                <path d="M1.23 158.82c20.328 0 20.328 11.96 40.655 11.96 20.326 0 20.326-11.96 40.652-11.96s20.326 11.96 40.653 11.96c20.327 0 20.327-11.96 40.654-11.96 20.325 0 20.325 11.96 40.652 11.96 20.328 0 20.328-11.96 40.654-11.96 20.328 0 20.328 11.96 40.656 11.96 20.329 0 20.329-11.96 40.658-11.96 20.326 0 20.326 11.96 40.654 11.96 20.326 0 20.326-11.96 40.651-11.96 20.328 0 20.328 11.96 40.656 11.96 20.329 0 20.329-11.96 40.656-11.96 20.33 0 20.33 11.96 40.66 11.96 20.327 0 20.327-11.96 40.656-11.96 20.332 0 20.332 11.96 40.663 11.96 20.332 0 20.332-11.96 40.662-11.96"/>
                <path d="M1.23 155.612c20.328 0 20.328 12.2 40.655 12.2 20.326 0 20.326-12.2 40.652-12.2s20.326 12.2 40.653 12.2c20.327 0 20.327-12.2 40.654-12.2 20.325 0 20.325 12.2 40.652 12.2 20.328 0 20.328-12.2 40.654-12.2 20.328 0 20.328 12.2 40.656 12.2 20.329 0 20.329-12.2 40.658-12.2 20.326 0 20.326 12.2 40.654 12.2 20.326 0 20.326-12.2 40.651-12.2 20.328 0 20.328 12.2 40.656 12.2 20.329 0 20.329-12.2 40.656-12.2 20.33 0 20.33 12.2 40.66 12.2 20.327 0 20.327-12.2 40.656-12.2 20.332 0 20.332 12.2 40.663 12.2 20.332 0 20.332-12.2 40.662-12.2"/>
            </g>
        </g>
    </g>
</svg>
