<svg xmlns="http://www.w3.org/2000/svg" width="51" height="62" viewBox="0 0 51 62">
    <g fill="none" fill-rule="nonzero">
        <path fill="#B61F24" d="M29.197 17.188a.66.66 0 0 1-.665-.653V7.918l3.804-3.74a.673.673 0 0 1 .941 0c.26.255.26.67 0 .925l-3.419 3.35v8.082a.66.66 0 0 1-.66.653zm11.57-.374a.66.66 0 0 1-.664-.654V11.05a.66.66 0 0 1 .665-.655.66.66 0 0 1 .666.655v5.111c0 .174-.07.34-.195.463a.67.67 0 0 1-.471.191zm-5.612-1.496a.66.66 0 0 1-.665-.654V8.93a.66.66 0 0 1 .666-.654.66.66 0 0 1 .665.654v5.734c0 .174-.07.34-.195.463a.67.67 0 0 1-.47.191z"/>
        <path fill="#B61F24" d="M45.489 35.871a.658.658 0 0 1-.609-.41.67.67 0 0 1 .143-.724l4.032-4.073V25.34l-1.709-1.726v-5.796l-2.288-2.312v-4.623L35.595 1.33h-6.094l-3.125 3.157v12.389a.662.662 0 0 1-.659.665.662.662 0 0 1-.658-.665V3.942L28.96 0h7.191l10.229 10.333v4.624l2.288 2.311v5.795l1.697 1.726v6.425l-4.416 4.462a.653.653 0 0 1-.461.195z"/>
        <path fill="#F9A11B" d="M37.304 61.53h-7.728l-2.587-2.614a.673.673 0 0 1 0-.944.657.657 0 0 1 .936 0l2.199 2.221h6.62l5.6-5.656v-6.788c0-.369.296-.668.662-.668.365 0 .661.3.661.668v7.34l-6.363 6.44z"/>
        <path fill="#F9A11B" d="M43.833 52.312a.661.661 0 0 1-.468-1.129l3.337-3.335v-4.292l2.836-2.836v-5.438l-.77-.772a.661.661 0 1 1 .935-.936l1.16 1.159v6.534l-2.837 2.837v4.286l-3.728 3.722a.66.66 0 0 1-.465.2z"/>
        <path fill="#F9A11B" d="M47.245 44.59h-2.688a.632.632 0 0 1-.642-.623c0-.344.287-.622.642-.622h2.686c.355 0 .642.278.642.622a.632.632 0 0 1-.642.623h.002z"/>
        <path fill="#B61F24" d="M43.088 19.39a.66.66 0 0 1-.61-.406.654.654 0 0 1 .143-.716l2.895-2.88a.663.663 0 0 1 1.106.295.655.655 0 0 1-.171.635l-2.895 2.88a.66.66 0 0 1-.468.191zm-.001 7.514a.659.659 0 0 1-.66-.657v-4.134a.66.66 0 0 1 .66-.657.66.66 0 0 1 .662.657v4.132a.655.655 0 0 1-.662.659z"/>
        <path fill="#F9A11B" d="M32.046 57.544a.66.66 0 0 1-.47-.195l-3.292-3.315v-7.78c0-.368.298-.667.665-.667.366 0 .664.299.664.668v7.232l2.903 2.91a.67.67 0 0 1 .144.728.664.664 0 0 1-.614.412v.007zm5.002-2.442a.66.66 0 0 1-.47-.195l-4.116-4.141v-4.477c0-.37.298-.668.665-.668.367 0 .664.299.664.668v3.924l3.727 3.75a.67.67 0 0 1 .144.727.664.664 0 0 1-.614.412z"/>
        <path fill="#0C4B80" d="M21.666 17.188a.66.66 0 0 1-.667-.653V8.459l-3.427-3.357a.645.645 0 0 1 0-.925.677.677 0 0 1 .943 0l3.815 3.738v8.616a.647.647 0 0 1-.193.464.674.674 0 0 1-.471.193zm-11.323-.42a.66.66 0 0 1-.667-.654v-5.108a.66.66 0 0 1 .668-.654.66.66 0 0 1 .667.654v5.107c0 .174-.07.34-.195.463a.674.674 0 0 1-.473.192zm5.361-1.448a.66.66 0 0 1-.667-.654v-5.73a.66.66 0 0 1 .668-.654.66.66 0 0 1 .667.654v5.73c0 .174-.07.34-.195.463a.674.674 0 0 1-.473.19z"/>
        <path fill="#0C4B80" d="M5.44 35.871a.667.667 0 0 1-.471-.194L.496 31.214v-6.426l1.73-1.726v-5.794l2.318-2.311v-4.624L14.904 0h7.007a.666.666 0 1 1 0 1.33h-6.456l-9.577 9.554v4.623L3.56 17.82v5.794l-1.73 1.728v5.323l4.083 4.073a.663.663 0 0 1-.471 1.134H5.44z"/>
        <path fill="#1A6935" d="M21.286 61.779h-7.723l-6.368-6.374v-7.268a.661.661 0 1 1 1.322 0v6.722l5.597 5.602h6.628l3.987-3.991V46.248a.661.661 0 1 1 1.322 0v10.764l-4.765 4.767z"/>
        <path fill="#1A6935" d="M7.03 52.562a.66.66 0 0 1-.469-.194l-3.725-3.734v-4.297L0 41.492v-6.553l1.36-1.364a.66.66 0 0 1 .937 0c.258.259.258.679 0 .938l-.973.975v5.455l2.837 2.844v4.296l3.336 3.346a.664.664 0 0 1-.468 1.133z"/>
        <path fill="#1A6935" d="M6.305 44.59H3.619a.633.633 0 0 1-.642-.623c0-.344.288-.622.642-.622h2.686c.355 0 .642.278.642.622a.633.633 0 0 1-.642.623z"/>
        <path fill="#0C4B80" d="M7.774 19.39a.66.66 0 0 1-.467-.192l-2.896-2.88a.655.655 0 0 1 .297-1.1.663.663 0 0 1 .638.17l2.895 2.88c.19.189.246.471.144.717a.66.66 0 0 1-.611.405zm0 7.514a.659.659 0 0 1-.66-.657v-4.133a.66.66 0 0 1 .66-.658.66.66 0 0 1 .662.658v4.131a.655.655 0 0 1-.662.659z"/>
        <path fill="#1A6935" d="M11.165 39.484c0 .165-.07.323-.193.44a.678.678 0 0 1-.465.182H6.365c-.364 0-.659-.279-.659-.623 0-.343.295-.622.66-.622h4.14c.174 0 .342.065.466.182a.605.605 0 0 1 .193.441z"/>
        <path fill="#F9A11B" d="M45.156 39.484c0 .165-.07.323-.193.44a.678.678 0 0 1-.466.182h-4.14c-.365 0-.66-.279-.66-.623 0-.343.295-.622.66-.622h4.14c.175 0 .343.065.466.182a.605.605 0 0 1 .193.441z"/>
        <path fill="#1A6935" d="M18.557 57.793a.669.669 0 0 1-.47-1.14l2.911-2.92v-7.23a.667.667 0 1 1 1.332 0v7.777l-3.302 3.318a.663.663 0 0 1-.47.195zm-4.99-2.48a.669.669 0 0 1-.47-1.14l3.736-3.747v-3.922a.667.667 0 1 1 1.331 0v4.474l-4.126 4.14a.663.663 0 0 1-.47.195z"/>
        <path fill="#0C4B80" d="M11.51 28.15V17.527h10.82v-1.834H9.676v12.455z"/>
        <path fill="#B51F24" d="M28.532 17.528h11.074v10.621h1.828V15.694H28.532z"/>
        <path fill="#F8A01B" d="M39.606 34.377v11.11H28.532v1.843h12.902V34.377h-1.828z"/>
        <path fill="#1A6935" d="M22.33 45.262H11.51V34.128H9.675V47.08H22.33v-1.82z"/>
        <path fill="#231F20" d="M17.483 26.28a2.663 2.663 0 0 0 2.052-.975v1.128c-.605.41-1.32.63-2.052.628-1.68 0-3.035-1.037-3.035-2.314 0-1.277 1.356-2.322 3.035-2.322a3.633 3.633 0 0 1 2.052.628v1.137a2.666 2.666 0 0 0-2.052-.987c-1.193 0-2.152.69-2.152 1.55 0 .862.96 1.527 2.152 1.527zm5.83-3.86c1.68 0 3.036 1.044 3.036 2.321 0 1.277-1.355 2.32-3.035 2.32-1.68 0-3.035-1.037-3.035-2.314 0-1.277 1.362-2.327 3.035-2.327zm0 3.862c1.194 0 2.153-.681 2.153-1.54 0-.86-.96-1.551-2.152-1.551-1.192 0-2.152.689-2.152 1.55 0 .861.967 1.54 2.152 1.54zm3.817.619v-4.32h2.378c1.293 0 2.962.597 2.962 2.16 0 1.563-1.666 2.16-2.962 2.16H27.13zm.846-.774h1.456c.905 0 2.152-.282 2.152-1.386 0-1.104-1.247-1.385-2.152-1.385h-1.45l-.006 2.77zm5.272-3.545h4.298v.774H34.1v.897h2.904v.774h-2.912v1.1h3.454v.774h-4.298v-4.32zm-22.523 10.79H7.691v-4.318h2.602c.799 0 1.804.17 1.804 1.215a1.1 1.1 0 0 1-.282.666c.394.226.645.637.666 1.09-.004.956-.956 1.347-1.756 1.347zm-2.189-3.544v.858h1.907c.31 0 .774-.053.774-.41 0-.432-.564-.45-.93-.45l-1.75.002zm2.168 2.771c.388 0 .89-.093.89-.564 0-.47-.473-.587-.868-.587h-2.19v1.146l2.168.005zm3.406.773h-.846v-4.318h2.624c.79 0 1.693.302 1.693 1.24 0 .665-.423 1.006-.952 1.152l1.24 1.927H16.86l-1.162-1.832H14.11v1.83zm0-2.608h1.692c.65 0 .892-.162.892-.472 0-.31-.24-.465-.892-.465H14.11v.937zm4.616-1.71h4.297v.774h-3.445v.898h2.904v.774h-2.913v1.1h3.454v.773h-4.297v-4.319zm8.603 3.056h-2.324l-.814 1.262h-1.007l2.982-4.628 2.981 4.628H28.14l-.81-1.262zm-1.82-.774h1.324l-.666-1.029-.659 1.03zm4.885 2.036h-.846v-4.318h.846v1.943l2.238-1.943h1.147l-1.682 1.479 2.322 2.839h-1.044l-1.959-2.284-1.022.867v1.417zm4.448-4.318h4.302v.774h-3.446v.898h2.904v.774h-2.914v1.1h3.456v.773h-4.302v-4.319zm5.89 4.318h-.847v-4.318h2.625c.79 0 1.693.302 1.693 1.24 0 .665-.424 1.006-.952 1.152l1.24 1.927h-1.004l-1.162-1.832h-1.593v1.83zm0-2.608h1.703c.65 0 .89-.162.89-.472 0-.31-.24-.465-.89-.465h-1.703v.937zm-22.87 7.778h-.812l-.282.44h-.35l1.04-1.616 1.04 1.617h-.35l-.287-.441zm-.637-.27h.463l-.233-.358-.23.357zm2.121.71h-.3v-1.509h.917c.282 0 .592.106.592.433a.402.402 0 0 1-.333.403l.433.674h-.34l-.411-.646h-.565l.007.644zm0-.911h.596c.227 0 .311-.056.311-.165 0-.109-.083-.162-.311-.162h-.596v.327zm1.787-.327v-.27h1.756v.27h-.73v1.237h-.292v-1.237h-.734zm2.329 1.237v-1.508h.295v1.508h-.295zm1.084-1.508h1.502v.27h-1.204v.312h1.014v.271h-1.017v.654h-.295v-1.507zm2.116 1.508v-1.508h.282v1.508h-.282zm2.044-.22a.93.93 0 0 0 .716-.342v.395a1.27 1.27 0 0 1-.716.215c-.587 0-1.061-.362-1.061-.809 0-.446.474-.81 1.06-.81.256-.001.506.075.717.218v.398a.931.931 0 0 0-.716-.347c-.424 0-.752.241-.752.541 0 .3.336.54.752.54zm1.496.22v-1.508h.295v1.508h-.295zm2.312-.44h-.811l-.283.442h-.35l1.04-1.617 1.04 1.615h-.353l-.283-.44zm-.634-.27h.463l-.236-.357-.227.357zm2.116.441h1.176v.27h-1.47v-1.507h.294v1.237zm-20.31 2.525v-1.508h.296v1.508h-.295zm1.092 0v-1.631l1.464 1.149V39.73h.295v1.622l-1.464-1.127v1.013l-.295-.001zm2.318-1.238v-.27h1.755v.27h-.73v1.238h-.295v-1.238h-.73zm2.308-.27h1.502v.27h-1.204v.312h1.014v.27h-1.017v.384h1.206v.27h-1.5V39.73zm2.49 1.239h1.176v.27h-1.471V39.73h.295v1.238zm2.025 0h1.176v.27h-1.47V39.73h.294v1.238zm1.756.269v-1.508h.282v1.508h-.282zm2.98-.681c0 .495-.423.736-.937.736-.586 0-1.06-.363-1.06-.81 0-.446.474-.81 1.06-.81.256 0 .505.075.717.219v.397a.931.931 0 0 0-.717-.347c-.423 0-.751.241-.751.542 0 .3.335.538.751.538.263 0 .564-.076.614-.282h-.457v-.268h.778l.002.085zm.687-.827h1.502v.27h-1.205v.312h1.014v.27h-1.017v.384h1.206v.27h-1.5V39.73zm2.196 1.508v-1.631l1.464 1.149V39.73h.289v1.622l-1.464-1.127v1.013l-.29-.001zm3.504-.222a.93.93 0 0 0 .717-.34v.394a1.27 1.27 0 0 1-.717.216c-.586 0-1.06-.363-1.06-.81 0-.446.474-.81 1.06-.81.256 0 .506.078.717.223v.397a.931.931 0 0 0-.717-.346c-.423 0-.751.24-.751.54 0 .301.334.536.751.536zm1.474-1.286h1.502v.27h-1.202v.312h1.015v.27h-1.015v.384h1.206v.27h-1.506V39.73zm5.389 6.079v-.253h1.066v.253h-.402v.674h-.268v-.674h-.396zm1.382.674h-.282l.384-1.063.444.68.447-.68.38 1.063h-.283l-.174-.473-.371.574-.374-.574-.17.473z"/>
    </g>
</svg>
