<svg xmlns="http://www.w3.org/2000/svg" width="18" height="18">
    <path fill="#3C4042" fill-opacity=".6" fill-rule="evenodd" d="M9 17.998a9 9 0 0 1-9-9A8.999 8.999 0 0 1 9-.001c4.971 0 9 4.028 9 8.999a9 9 0 0 1-9 9zM9 1.123a7.875 7.875 0 1 0 0 15.75 7.875 7.875 0 0 0 0-15.75zm2.813 9.619c0 1.05-.716 2.147-2.628 2.275v1.039h-.752v-1.039c-1.246-.07-2.196-.56-2.813-1.225l.617-.747a3.427 3.427 0 0 0 2.196 1.097V9.306c-1.258-.327-2.554-.723-2.554-2.158 0-1.202 1.073-2.054 2.554-2.159V3.927h.752v1.074c1.024.081 1.838.478 2.443 1.073l-.617.712c-.494-.513-1.135-.805-1.826-.899v2.544c1.271.339 2.628.782 2.628 2.311zm-2.628 1.412c1.172-.117 1.567-.782 1.567-1.342 0-.759-.703-1.074-1.567-1.319v2.661zm-.752-6.29c-.876.059-1.493.549-1.493 1.225 0 .642.654.923 1.493 1.156V5.864z"/>
</svg>
