<svg width="18" height="18" viewBox="0 0 18 18" fill="none" xmlns="http://www.w3.org/2000/svg">
<path d="M13.8553 12.6225L14.1478 14.9925C14.2228 15.615 13.5553 16.05 13.0228 15.7275L9.88031 13.86C9.53531 13.86 9.19782 13.8375 8.86782 13.7925C9.42282 13.14 9.75282 12.315 9.75282 11.4225C9.75282 9.29249 7.90782 7.56752 5.62782 7.56752C4.75782 7.56752 3.95532 7.815 3.28782 8.25C3.26532 8.0625 3.25781 7.87499 3.25781 7.67999C3.25781 4.26749 6.22031 1.5 9.88031 1.5C13.5403 1.5 16.5028 4.26749 16.5028 7.67999C16.5028 9.70499 15.4603 11.4975 13.8553 12.6225Z" stroke="#08295B" stroke-width="1.3" stroke-linecap="round" stroke-linejoin="round"/>
<path d="M9.75 11.4214C9.75 12.3139 9.42001 13.1389 8.86501 13.7914C8.12251 14.6914 6.945 15.2689 5.625 15.2689L3.6675 16.4314C3.3375 16.6339 2.9175 16.3564 2.9625 15.9739L3.15 14.4964C2.145 13.7989 1.5 12.6814 1.5 11.4214C1.5 10.1014 2.205 8.93889 3.285 8.24889C3.9525 7.81389 4.755 7.56641 5.625 7.56641C7.905 7.56641 9.75 9.29137 9.75 11.4214Z" stroke="#08295B" stroke-width="1.3" stroke-linecap="round" stroke-linejoin="round"/>
</svg>
