<svg width="13" height="15" viewBox="0 0 13 15" fill="none" xmlns="http://www.w3.org/2000/svg">
<path d="M9.625 8.75001C9.625 8.91577 9.55915 9.07475 9.44194 9.19196C9.32473 9.30917 9.16576 9.37501 9 9.37501H4C3.83424 9.37501 3.67527 9.30917 3.55806 9.19196C3.44085 9.07475 3.375 8.91577 3.375 8.75001C3.375 8.58425 3.44085 8.42528 3.55806 8.30807C3.67527 8.19086 3.83424 8.12501 4 8.12501H9C9.16576 8.12501 9.32473 8.19086 9.44194 8.30807C9.55915 8.42528 9.625 8.58425 9.625 8.75001ZM7.125 10.625H4C3.83424 10.625 3.67527 10.6909 3.55806 10.8081C3.44085 10.9253 3.375 11.0843 3.375 11.25C3.375 11.4158 3.44085 11.5747 3.55806 11.692C3.67527 11.8092 3.83424 11.875 4 11.875H7.125C7.29076 11.875 7.44973 11.8092 7.56694 11.692C7.68415 11.5747 7.75 11.4158 7.75 11.25C7.75 11.0843 7.68415 10.9253 7.56694 10.8081C7.44973 10.6909 7.29076 10.625 7.125 10.625ZM12.75 6.55314V11.875C12.749 12.7035 12.4195 13.4978 11.8336 14.0836C11.2478 14.6695 10.4535 14.999 9.625 15H3.375C2.5465 14.999 1.75222 14.6695 1.16639 14.0836C0.580551 13.4978 0.250992 12.7035 0.25 11.875V3.12501C0.250992 2.29652 0.580551 1.50224 1.16639 0.916402C1.75222 0.330566 2.5465 0.00100682 3.375 1.44054e-05H6.19688C6.77164 -0.00146492 7.34099 0.111007 7.87202 0.330926C8.40304 0.550846 8.8852 0.873851 9.29063 1.28126L11.4681 3.46001C11.8758 3.86516 12.199 4.34718 12.419 4.87812C12.6391 5.40907 12.7516 5.9784 12.75 6.55314ZM8.40688 2.16501C8.21018 1.97449 7.98933 1.81059 7.75 1.67751V4.37501C7.75 4.54077 7.81585 4.69975 7.93306 4.81696C8.05027 4.93417 8.20924 5.00001 8.375 5.00001H11.0725C10.9393 4.76076 10.7752 4.54011 10.5844 4.34376L8.40688 2.16501ZM11.5 6.55314C11.5 6.45001 11.48 6.35126 11.4706 6.25001H8.375C7.87772 6.25001 7.40081 6.05247 7.04918 5.70084C6.69754 5.34921 6.5 4.8723 6.5 4.37501V1.27939C6.39875 1.27001 6.29938 1.25001 6.19688 1.25001H3.375C2.87772 1.25001 2.40081 1.44756 2.04918 1.79919C1.69754 2.15082 1.5 2.62773 1.5 3.12501V11.875C1.5 12.3723 1.69754 12.8492 2.04918 13.2008C2.40081 13.5525 2.87772 13.75 3.375 13.75H9.625C10.1223 13.75 10.5992 13.5525 10.9508 13.2008C11.3025 12.8492 11.5 12.3723 11.5 11.875V6.55314Z" fill="#000000"/>
</svg>
