<svg xmlns="http://www.w3.org/2000/svg" width="49" height="37" viewBox="0 0 49 37">
    <g fill="none" fill-rule="evenodd">
        <path fill="#000" fill-rule="nonzero" d="M45.863.066H9.173A3.064 3.064 0 0 0 6.115 3.14v9.223h39.748v15.37H24.46v3.074h21.403a3.064 3.064 0 0 0 3.057-3.074V3.14c0-1.699-1.367-3.074-3.057-3.074zm0 6.148H9.173V3.14h36.69v3.074z"/>
        <path fill="#000" d="M27.222 18.049h13.611v4.512H27.222z"/>
        <path fill="#FC0" fill-rule="nonzero" d="M10.701 15.437C4.79 15.437 0 20.252 0 26.196s4.79 10.76 10.701 10.76c5.913 0 10.702-4.816 10.702-10.76s-4.79-10.76-10.702-10.76zM8.54 32.717l-5.405-5.434 2.162-2.173 3.243 3.26 7.566-7.607 2.162 2.173-9.728 9.78z"/>
    </g>
</svg>
