<svg xmlns="http://www.w3.org/2000/svg" width="52" height="52">
    <path fill="#FFF" fill-rule="evenodd" d="M26 0c14.359 0 26 11.641 26 26S40.359 52 26 52C11.64 52 0 40.359 0 26S11.64 0 26 0z"/>
    <path fill="#A4E2F9" fill-rule="evenodd" d="M39 20.999V17a2 2 0 0 0-2-2H17a2 2 0 0 0-2 2v3.999h24z"/>
    <path fill="#D1F0FC" fill-rule="evenodd" d="M15 24v9a2 2 0 0 0 2 2h20a2 2 0 0 0 2-2v-9H15zm11 6h-7v-2h7v2z"/>
    <path fill="#FFF" fill-rule="evenodd" d="M37 27a9 9 0 0 1 9 9 9 9 0 0 1-9 9 9 9 0 0 1-9-9 9 9 0 0 1 9-9z"/>
    <path fill="#2FBDF2" fill-rule="evenodd" d="M41.825 36l-4.118-.939 1.551-1.168A2.852 2.852 0 0 0 37.202 33c-1.321 0-2.473.925-2.802 2.249l-1.869-.499c.549-2.208 2.47-3.75 4.671-3.75 1.4 0 2.715.644 3.622 1.714l1.414-1.065L41.825 36zm-5.127 1.939l-1.551 1.168a2.851 2.851 0 0 0 2.055.893c1.322 0 2.474-.925 2.803-2.249l1.869.499c-.55 2.208-2.47 3.75-4.672 3.75-1.399 0-2.714-.644-3.621-1.714l-1.414 1.065L32.58 37l4.118.939z"/>
</svg>
