<svg width="24" height="24" viewBox="0 0 24 24" fill="none" xmlns="http://www.w3.org/2000/svg">
<path d="M16.7031 18.9794H7.30313C6.88313 18.9794 6.41313 18.6494 6.27313 18.2494L2.13313 6.66938C1.54313 5.00938 2.23313 4.49938 3.65313 5.51938L7.55313 8.30938C8.20313 8.75938 8.94313 8.52938 9.22313 7.79938L10.9831 3.10938C11.5431 1.60938 12.4731 1.60938 13.0331 3.10938L14.7931 7.79938C15.0731 8.52938 15.8131 8.75938 16.4531 8.30938L20.1131 5.69937C21.6731 4.57937 22.4231 5.14938 21.7831 6.95938L17.7431 18.2694C17.5931 18.6494 17.1231 18.9794 16.7031 18.9794Z" stroke="#00A8ED" stroke-width="1.5" stroke-linecap="round" stroke-linejoin="round"/>
<path d="M6.5 22H17.5" stroke="#00A8ED" stroke-width="1.5" stroke-linecap="round" stroke-linejoin="round"/>
<path d="M9.5 14H14.5" stroke="#00A8ED" stroke-width="1.5" stroke-linecap="round" stroke-linejoin="round"/>
</svg>
