<svg width="21" height="21" viewBox="0 0 21 21" fill="none" xmlns="http://www.w3.org/2000/svg">
<path d="M14.8379 5.39844C16.5879 6.61469 17.7954 8.54844 18.0404 10.7797" stroke="#566877" stroke-width="1.2" stroke-linecap="round" stroke-linejoin="round"/>
<path d="M3.05273 10.8236C3.28023 8.60113 4.47023 6.66738 6.20273 5.44238" stroke="#566877" stroke-width="1.2" stroke-linecap="round" stroke-linejoin="round"/>
<path d="M7.16406 18.3223C8.17906 18.8385 9.33406 19.1273 10.5503 19.1273C11.7228 19.1273 12.8253 18.8648 13.8141 18.3835" stroke="#566877" stroke-width="1.2" stroke-linecap="round" stroke-linejoin="round"/>
<path d="M10.5536 6.73805C11.897 6.73805 12.9861 5.64898 12.9861 4.30555C12.9861 2.96211 11.897 1.87305 10.5536 1.87305C9.21016 1.87305 8.12109 2.96211 8.12109 4.30555C8.12109 5.64898 9.21016 6.73805 10.5536 6.73805Z" stroke="#566877" stroke-width="1.2" stroke-linecap="round" stroke-linejoin="round"/>
<path d="M4.22742 17.4295C5.57085 17.4295 6.65992 16.3404 6.65992 14.997C6.65992 13.6535 5.57085 12.5645 4.22742 12.5645C2.88399 12.5645 1.79492 13.6535 1.79492 14.997C1.79492 16.3404 2.88399 17.4295 4.22742 17.4295Z" stroke="#566877" stroke-width="1.2" stroke-linecap="round" stroke-linejoin="round"/>
<path d="M16.7743 17.4295C18.1177 17.4295 19.2068 16.3404 19.2068 14.997C19.2068 13.6535 18.1177 12.5645 16.7743 12.5645C15.4309 12.5645 14.3418 13.6535 14.3418 14.997C14.3418 16.3404 15.4309 17.4295 16.7743 17.4295Z" stroke="#566877" stroke-width="1.2" stroke-linecap="round" stroke-linejoin="round"/>
</svg>
