<svg width="17" height="17" viewBox="0 0 17 17" fill="none" xmlns="http://www.w3.org/2000/svg">
<path d="M6.37533 15.5837H10.6253C14.167 15.5837 15.5837 14.167 15.5837 10.6253V6.37533C15.5837 2.83366 14.167 1.41699 10.6253 1.41699H6.37533C2.83366 1.41699 1.41699 2.83366 1.41699 6.37533V10.6253C1.41699 14.167 2.83366 15.5837 6.37533 15.5837Z" stroke="white" stroke-width="1.3" stroke-linecap="round" stroke-linejoin="round"/>
<path d="M1.41699 9.20826H4.08033C4.61866 9.20826 5.10741 9.51284 5.34824 9.99451L5.97866 11.2624C6.37533 12.0416 7.08366 12.0416 7.25366 12.0416H9.75408C10.2924 12.0416 10.7812 11.737 11.022 11.2553L11.6524 9.98742C11.8932 9.50576 12.382 9.20117 12.9203 9.20117H15.5695" stroke="white" stroke-width="1.3" stroke-linecap="round" stroke-linejoin="round"/>
</svg>
