<svg xmlns="http://www.w3.org/2000/svg" width="9" height="11">
    <path fill="#666D70" fill-opacity=".6" fill-rule="evenodd" d="M9 8.25L6.231 11l-.001-.001H.346A.345.345 0 0 1 0 10.655V.342c0-.189.155-.343.346-.343h8.308c.191 0 .346.154.346.343v7.907h-.002L9 8.25zm-2.769 1.901l1.916-1.902H6.231v1.902zM8.307 1.03a.346.346 0 0 0-.346-.344H1.038a.346.346 0 0 0-.346.344v8.938c0 .189.155.343.346.343h4.5v-2.75h2.769V1.03zm-6.23 4.125c0-.19.155-.344.346-.344h4.154c.191 0 .346.154.346.344 0 .19-.155.344-.346.344H2.423a.345.345 0 0 1-.346-.344zm4.5-1.718H2.423a.344.344 0 0 1 0-.688h4.154a.344.344 0 1 1 0 .688z"/>
</svg>
