<svg width="16" height="16" viewBox="0 0 16 16" fill="none" xmlns="http://www.w3.org/2000/svg">
<path d="M14.6654 6.66634V9.99967C14.6654 13.333 13.332 14.6663 9.9987 14.6663H5.9987C2.66536 14.6663 1.33203 13.333 1.33203 9.99967V5.99967C1.33203 2.66634 2.66536 1.33301 5.9987 1.33301H9.33203" stroke="#425673" stroke-width="1.1" stroke-linecap="round" stroke-linejoin="round"/>
<path d="M14.6654 6.66634H11.9987C9.9987 6.66634 9.33203 5.99967 9.33203 3.99967V1.33301L14.6654 6.66634Z" stroke="#425673" stroke-width="1.1" stroke-linecap="round" stroke-linejoin="round"/>
<path fill-rule="evenodd" clip-rule="evenodd" d="M5.5439 7.99902H7.31057C7.49057 7.99902 7.71723 8.11902 7.81057 8.26569L8.5639 9.39902C8.71723 9.62569 8.6839 9.96569 8.49056 10.159L6.85056 11.799C6.61723 12.0324 6.23057 12.0324 5.99723 11.799L4.35723 10.159C4.1639 9.96569 4.13056 9.62569 4.2839 9.39902L5.03723 8.26569C5.1439 8.11902 5.37056 7.99902 5.5439 7.99902Z" stroke="#425673" stroke-width="1.1" stroke-miterlimit="10" stroke-linecap="round" stroke-linejoin="round"/>
</svg>
