<svg width="19" height="20" viewBox="0 0 19 20" fill="none" xmlns="http://www.w3.org/2000/svg">
<path d="M13.4609 10.6077V12.9827C13.4609 16.1493 12.1943 17.416 9.0276 17.416H6.01927C2.8526 17.416 1.58594 16.1493 1.58594 12.9827V9.97435C1.58594 6.80768 2.8526 5.54102 6.01927 5.54102H8.39427" stroke="#25352B" stroke-width="1.2" stroke-linecap="round" stroke-linejoin="round"/>
<path d="M13.4573 10.6077H10.924C9.02396 10.6077 8.39062 9.97435 8.39062 8.07435V5.54102L13.4573 10.6077Z" stroke="#25352B" stroke-width="1.2" stroke-linecap="round" stroke-linejoin="round"/>
<path d="M9.17969 1.58398H12.3464" stroke="#25352B" stroke-width="1.2" stroke-linecap="round" stroke-linejoin="round"/>
<path d="M5.53906 3.95898C5.53906 2.64482 6.5999 1.58398 7.91406 1.58398H9.98823" stroke="#25352B" stroke-width="1.2" stroke-linecap="round" stroke-linejoin="round"/>
<path d="M17.4199 6.33398V11.2344C17.4199 12.4615 16.4224 13.459 15.1953 13.459" stroke="#25352B" stroke-width="1.2" stroke-linecap="round" stroke-linejoin="round"/>
<path d="M17.4141 6.33398H15.0391C13.2578 6.33398 12.6641 5.74023 12.6641 3.95898V1.58398L17.4141 6.33398Z" stroke="#25352B" stroke-width="1.2" stroke-linecap="round" stroke-linejoin="round"/>
</svg>
