<svg xmlns="http://www.w3.org/2000/svg" width="204" height="204" viewBox="0 0 204 204">
    <defs>
        <filter id="kr86ymjupa">
            <feColorMatrix in="SourceGraphic" values="0 0 0 0 0.337255 0 0 0 0 0.117647 0 0 0 0 0.949020 0 0 0 1.000000 0"/>
        </filter>
    </defs>
    <g fill="none" fill-rule="evenodd" opacity=".201">
        <g>
            <g>
                <g filter="url(#kr86ymjupa)" transform="translate(-800 -87) translate(115) translate(685 84)">
                    <g fill="#FFF" transform="matrix(0 -1 1 0 0 207)">
                        <circle cx="3" cy="3" r="3"/>
                        <circle cx="3" cy="21" r="3"/>
                        <circle cx="3" cy="39" r="3"/>
                        <circle cx="3" cy="57" r="3"/>
                        <circle cx="3" cy="75" r="3"/>
                        <circle cx="21" cy="3" r="3"/>
                        <circle cx="21" cy="21" r="3"/>
                        <circle cx="21" cy="39" r="3"/>
                        <circle cx="21" cy="57" r="3"/>
                        <circle cx="21" cy="75" r="3"/>
                        <circle cx="39" cy="3" r="3"/>
                        <circle cx="39" cy="21" r="3"/>
                        <circle cx="39" cy="39" r="3"/>
                        <circle cx="39" cy="57" r="3"/>
                        <circle cx="39" cy="75" r="3"/>
                        <circle cx="57" cy="3" r="3"/>
                        <circle cx="57" cy="21" r="3"/>
                        <circle cx="57" cy="39" r="3"/>
                        <circle cx="57" cy="57" r="3"/>
                        <circle cx="57" cy="75" r="3"/>
                        <circle cx="75" cy="3" r="3"/>
                        <circle cx="75" cy="21" r="3"/>
                        <circle cx="75" cy="39" r="3"/>
                        <circle cx="75" cy="57" r="3"/>
                        <circle cx="75" cy="75" r="3"/>
                        <circle cx="93" cy="3" r="3"/>
                        <circle cx="93" cy="21" r="3"/>
                        <circle cx="93" cy="39" r="3"/>
                        <circle cx="93" cy="57" r="3"/>
                        <circle cx="93" cy="75" r="3"/>
                        <circle cx="3" cy="93" r="3"/>
                        <circle cx="21" cy="93" r="3"/>
                        <circle cx="39" cy="93" r="3"/>
                        <circle cx="57" cy="93" r="3"/>
                        <circle cx="75" cy="93" r="3"/>
                        <circle cx="93" cy="93" r="3"/>
                        <circle cx="111" cy="3" r="3"/>
                        <circle cx="111" cy="21" r="3"/>
                        <circle cx="111" cy="39" r="3"/>
                        <circle cx="111" cy="57" r="3"/>
                        <circle cx="111" cy="75" r="3"/>
                        <circle cx="129" cy="3" r="3"/>
                        <circle cx="129" cy="21" r="3"/>
                        <circle cx="129" cy="39" r="3"/>
                        <circle cx="129" cy="57" r="3"/>
                        <circle cx="129" cy="75" r="3"/>
                        <circle cx="147" cy="3" r="3"/>
                        <circle cx="147" cy="21" r="3"/>
                        <circle cx="147" cy="39" r="3"/>
                        <circle cx="147" cy="57" r="3"/>
                        <circle cx="147" cy="75" r="3"/>
                        <circle cx="165" cy="3" r="3"/>
                        <circle cx="165" cy="21" r="3"/>
                        <circle cx="165" cy="39" r="3"/>
                        <circle cx="165" cy="57" r="3"/>
                        <circle cx="165" cy="75" r="3"/>
                        <circle cx="183" cy="3" r="3"/>
                        <circle cx="183" cy="21" r="3"/>
                        <circle cx="183" cy="39" r="3"/>
                        <circle cx="183" cy="57" r="3"/>
                        <circle cx="183" cy="75" r="3"/>
                        <circle cx="201" cy="3" r="3"/>
                        <circle cx="201" cy="21" r="3"/>
                        <circle cx="201" cy="39" r="3"/>
                        <circle cx="201" cy="57" r="3"/>
                        <circle cx="201" cy="75" r="3"/>
                        <circle cx="111" cy="93" r="3"/>
                        <circle cx="129" cy="93" r="3"/>
                        <circle cx="147" cy="93" r="3"/>
                        <circle cx="165" cy="93" r="3"/>
                        <circle cx="183" cy="93" r="3"/>
                        <circle cx="201" cy="93" r="3"/>
                        <circle cx="3" cy="111" r="3"/>
                        <circle cx="3" cy="129" r="3"/>
                        <circle cx="3" cy="147" r="3"/>
                        <circle cx="3" cy="165" r="3"/>
                        <circle cx="3" cy="183" r="3"/>
                        <circle cx="21" cy="111" r="3"/>
                        <circle cx="21" cy="129" r="3"/>
                        <circle cx="21" cy="147" r="3"/>
                        <circle cx="21" cy="165" r="3"/>
                        <circle cx="21" cy="183" r="3"/>
                        <circle cx="39" cy="111" r="3"/>
                        <circle cx="39" cy="129" r="3"/>
                        <circle cx="39" cy="147" r="3"/>
                        <circle cx="39" cy="165" r="3"/>
                        <circle cx="39" cy="183" r="3"/>
                        <circle cx="57" cy="111" r="3"/>
                        <circle cx="57" cy="129" r="3"/>
                        <circle cx="57" cy="147" r="3"/>
                        <circle cx="57" cy="165" r="3"/>
                        <circle cx="57" cy="183" r="3"/>
                        <circle cx="75" cy="111" r="3"/>
                        <circle cx="75" cy="129" r="3"/>
                        <circle cx="75" cy="147" r="3"/>
                        <circle cx="75" cy="165" r="3"/>
                        <circle cx="75" cy="183" r="3"/>
                        <circle cx="93" cy="111" r="3"/>
                        <circle cx="93" cy="129" r="3"/>
                        <circle cx="93" cy="147" r="3"/>
                        <circle cx="93" cy="165" r="3"/>
                        <circle cx="93" cy="183" r="3"/>
                        <circle cx="3" cy="201" r="3"/>
                        <circle cx="21" cy="201" r="3"/>
                        <circle cx="39" cy="201" r="3"/>
                        <circle cx="57" cy="201" r="3"/>
                        <circle cx="75" cy="201" r="3"/>
                        <circle cx="93" cy="201" r="3"/>
                        <circle cx="111" cy="111" r="3"/>
                        <circle cx="111" cy="129" r="3"/>
                        <circle cx="111" cy="147" r="3"/>
                        <circle cx="111" cy="165" r="3"/>
                        <circle cx="111" cy="183" r="3"/>
                        <circle cx="129" cy="111" r="3"/>
                        <circle cx="129" cy="129" r="3"/>
                        <circle cx="129" cy="147" r="3"/>
                        <circle cx="129" cy="165" r="3"/>
                        <circle cx="129" cy="183" r="3"/>
                        <circle cx="147" cy="111" r="3"/>
                        <circle cx="147" cy="129" r="3"/>
                        <circle cx="147" cy="147" r="3"/>
                        <circle cx="147" cy="165" r="3"/>
                        <circle cx="147" cy="183" r="3"/>
                        <circle cx="165" cy="111" r="3"/>
                        <circle cx="165" cy="129" r="3"/>
                        <circle cx="165" cy="147" r="3"/>
                        <circle cx="165" cy="165" r="3"/>
                        <circle cx="165" cy="183" r="3"/>
                        <circle cx="183" cy="111" r="3"/>
                        <circle cx="183" cy="129" r="3"/>
                        <circle cx="183" cy="147" r="3"/>
                        <circle cx="183" cy="165" r="3"/>
                        <circle cx="183" cy="183" r="3"/>
                        <circle cx="201" cy="111" r="3"/>
                        <circle cx="201" cy="129" r="3"/>
                        <circle cx="201" cy="147" r="3"/>
                        <circle cx="201" cy="165" r="3"/>
                        <circle cx="201" cy="183" r="3"/>
                        <circle cx="111" cy="201" r="3"/>
                        <circle cx="129" cy="201" r="3"/>
                        <circle cx="147" cy="201" r="3"/>
                        <circle cx="165" cy="201" r="3"/>
                        <circle cx="183" cy="201" r="3"/>
                        <circle cx="201" cy="201" r="3"/>
                    </g>
                </g>
            </g>
        </g>
    </g>
</svg>
