<svg width="11" height="12" viewBox="0 0 11 12" fill="none" xmlns="http://www.w3.org/2000/svg">
<path d="M6.2 1C6.2 0.613401 5.8866 0.3 5.5 0.3C5.1134 0.3 4.8 0.613401 4.8 1L6.2 1ZM5.00503 11.495C5.27839 11.7683 5.72161 11.7683 5.99497 11.495L10.4497 7.0402C10.7231 6.76684 10.7231 6.32362 10.4497 6.05025C10.1764 5.77689 9.73316 5.77689 9.4598 6.05025L5.5 10.0101L1.5402 6.05025C1.26684 5.77689 0.82362 5.77689 0.550252 6.05025C0.276886 6.32362 0.276886 6.76684 0.550253 7.0402L5.00503 11.495ZM4.8 1L4.8 11L6.2 11L6.2 1L4.8 1Z" fill="#00A8ED"/>
</svg>
