<svg xmlns="http://www.w3.org/2000/svg" width="19" height="15">
    <path fill="#3C4042" fill-opacity=".6" fill-rule="evenodd" d="M18.953.62c.009.048.029.093.029.144v13.399a.774.774 0 0 1-.781.768H.78a.774.774 0 0 1-.78-.768V.764C0 .703.021.648.035.591-.02.426-.015.247.116.115.248-.016.427-.021.592.034.654.019.713-.003.78-.003h17.421c.071 0 .135.022.201.04.166-.058.348-.055.481.078.14.14.14.333.07.505zM.996 1.773v11.445c0 .427.351.773.785.773h15.42a.78.78 0 0 0 .785-.773V1.773a.76.76 0 0 0-.055-.27L9.869 8.814c-.008.012-.005.028-.015.039a.465.465 0 0 1-.354.132.465.465 0 0 1-.354-.132c-.011-.011-.007-.027-.016-.039L1.053 1.491a.759.759 0 0 0-.057.282zM9.5 7.915l7.534-6.914H1.966L9.5 7.915z"/>
</svg>
