<svg width="18" height="14" viewBox="0 0 18 14" fill="none" xmlns="http://www.w3.org/2000/svg">
<path d="M15.5938 0.85625H2.40625C1.60421 0.85625 0.95 1.50974 0.95 2.3125V11.6875C0.95 12.4875 1.60128 13.1438 2.40625 13.1438H15.5938C16.3938 13.1438 17.05 12.4925 17.05 11.6875V2.3125C17.05 1.5125 16.3987 0.85625 15.5938 0.85625ZM9.02966 8.14297L2.72642 1.89375H15.2789L9.02966 8.14297ZM1.9875 11.3727V2.62214L6.38161 6.97856L1.9875 11.3727ZM9.39808 9.24179L10.9062 7.73362L15.2789 12.1062H2.72112L7.11837 7.709L8.66605 9.24338C8.86884 9.44445 9.19611 9.4438 9.39808 9.24179ZM16.0125 2.62734V11.3726L11.6399 7L16.0125 2.62734Z" fill="#85889D" stroke="#85889D" stroke-width="0.1"/>
</svg>
