<svg xmlns="http://www.w3.org/2000/svg" width="22" height="16">
    <path fill="#686F76" fill-opacity=".702" fill-rule="evenodd" d="M21.5 16h-11a.5.5 0 0 1-.5-.5v-5a.5.5 0 0 1 .5-.5h11a.5.5 0 0 1 .5.5v5a.5.5 0 0 1-.5.5zm-.5-5H11v4h10v-4zm.5-4h-11a.5.5 0 0 1-.5-.5v-5a.5.5 0 0 1 .5-.5h11a.5.5 0 0 1 .5.5v5a.5.5 0 0 1-.5.5zM21 2H11v4h10V2zM6.852 3.853a.502.502 0 0 1-.71 0L3.988 1.707V6.5a.501.501 0 0 1-1.003 0V1.707L.831 3.853a.502.502 0 0 1-.71 0 .497.497 0 0 1 0-.706L3.131.148a.503.503 0 0 1 .711-.001l3.01 3a.495.495 0 0 1 0 .706zM.121 12.146a.504.504 0 0 1 .71 0l2.154 2.147V9.5a.501.501 0 0 1 1.003 0v4.793l2.154-2.147a.504.504 0 0 1 .857.354.495.495 0 0 1-.147.353l-3.01 3.001h-.001a.502.502 0 0 1-.71-.002l-3.01-2.999a.499.499 0 0 1 0-.707z"/>
</svg>
