<svg xmlns="http://www.w3.org/2000/svg" width="17" height="18">
    <path fill="#686F76" fill-opacity=".702" fill-rule="evenodd" d="M14 9v2.5a.5.5 0 0 1-1 0V9H9v2H8V9H4v2.5a.5.5 0 0 1-1 0V9H0V8h8V6h1v2h8v1h-3zm-3.5-4h-4a.5.5 0 0 1-.5-.5v-4c0-.277.223-.5.5-.5h4a.5.5 0 0 1 .5.5v4a.5.5 0 0 1-.5.5zM10 1H7v3h3V1zM1.5 13h4a.5.5 0 0 1 .5.5v4a.5.5 0 0 1-.5.5h-4a.499.499 0 0 1-.5-.5v-4a.5.5 0 0 1 .5-.5zm.5 4h3v-3H2v3zm9.5-4h4a.5.5 0 0 1 .5.5v4a.5.5 0 0 1-.5.5h-4a.499.499 0 0 1-.5-.5v-4a.5.5 0 0 1 .5-.5zm.5 4h3v-3h-3v3z"/>
</svg>
