<svg xmlns="http://www.w3.org/2000/svg" width="18" height="17">
    <path fill="#686F76" fill-opacity=".702" fill-rule="evenodd" d="M17.5 16h-4a.5.5 0 0 1-.5-.5v-4a.5.5 0 0 1 .5-.5h4a.5.5 0 0 1 .5.5v4a.5.5 0 0 1-.5.5zm-.5-4h-3v3h3v-3zm.5-6h-4a.5.5 0 0 1-.5-.5v-4a.5.5 0 0 1 .5-.5h4a.5.5 0 0 1 .5.5v4a.5.5 0 0 1-.5.5zM17 2h-3v3h3V2zm-5.5 11a.5.5 0 0 1 0 1H9v3H8V9H6V8h2V0h1v3h2.5a.5.5 0 0 1 0 1H9v4h2v1H9v4h2.5zm-7-2h-4a.5.5 0 0 1-.5-.5v-4A.5.5 0 0 1 .5 6h4a.5.5 0 0 1 .5.5v4a.5.5 0 0 1-.5.5zM4 7H1v3h3V7z"/>
</svg>
