<svg xmlns="http://www.w3.org/2000/svg" width="18" height="18">
    <path fill="#686F76" fill-opacity=".702" fill-rule="evenodd" d="M17.5 18h-4a.5.5 0 0 1-.5-.5v-4a.5.5 0 0 1 .5-.5h4a.5.5 0 0 1 .5.5v4a.5.5 0 0 1-.5.5zm-.5-4h-3v3h3v-3zm.5-3h-4a.499.499 0 0 1-.5-.5v-4a.5.5 0 0 1 .5-.5h4a.5.5 0 0 1 .5.5v4a.5.5 0 0 1-.5.5zM17 7h-3v3h3V7zm-5.5 8a.5.5 0 0 1 0 1H8V3H6V2h5v1H9v5h2.5a.5.5 0 0 1 0 1H9v6h2.5zm-7-10h-4a.5.5 0 0 1-.5-.5v-4A.5.5 0 0 1 .5 0h4a.5.5 0 0 1 .5.5v4a.5.5 0 0 1-.5.5zM4 1H1v3h3V1z"/>
</svg>
