<svg xmlns="http://www.w3.org/2000/svg" width="16" height="16">
    <path fill="#686F76" fill-opacity=".702" fill-rule="evenodd" d="M15.968.502l.031 4.989c.001.261-.222.472-.501.473-.278.001-.503-.208-.504-.469l-.025-3.803L6.838 9.86a.493.493 0 0 1-.693.003.488.488 0 0 1-.005-.692l8.127-8.162-3.825.024c-.261.002-.472-.222-.475-.498 0-.277.21-.502.471-.503L15.46 0h.033c.112 0 .21.047.291.115.013.009.027.016.038.027s.017.023.026.034c.07.081.119.18.12.292v.034zM.999 2.495v12.004a.5.5 0 0 0 .5.5h11.997a.5.5 0 0 0 .5-.5V7.996h1v7.003c0 .552-.448 1.001-1 1.001H.999c-.552 0-1-.449-1-1.001V1.996a1 1 0 0 1 1-1.001h6.998v1.001H1.499a.5.5 0 0 0-.5.499z"/>
</svg>
