<?xml version="1.0" ?><!DOCTYPE svg  PUBLIC '-//W3C//DTD SVG 1.1//EN'  'http://www.w3.org/Graphics/SVG/1.1/DTD/svg11.dtd'><svg enable-background="new 0 0 77.945 77.943" height="77.943px" id="Layer_1" version="1.1" viewBox="0 0 77.945 77.943" width="77.945px" xml:space="preserve" xmlns="http://www.w3.org/2000/svg" xmlns:xlink="http://www.w3.org/1999/xlink"><g><g><g><path d="M23.517,53.201h-6.888c-0.773-0.002-1.398-0.627-1.4-1.399V32.276c0.002-0.772,0.627-1.398,1.4-1.399h5.154     c-0.197-0.295-0.297-0.653-0.296-1.012h-4.858c-1.333,0-2.412,1.08-2.412,2.411v19.525c0,1.332,1.08,2.411,2.412,2.411h7.107     C23.568,53.909,23.496,53.552,23.517,53.201z"/></g><g><path d="M60.918,29.865h-5.109c0.09,0.327,0.091,0.684,0.002,1.012h5.107c0.771,0.001,1.396,0.627,1.398,1.399v19.525     c-0.002,0.772-0.625,1.397-1.398,1.399h-7.954c0.164,0.305,0.233,0.662,0.21,1.012h7.744c1.332,0,2.41-1.079,2.411-2.411V32.276     C63.328,30.945,62.25,29.865,60.918,29.865z"/></g></g><g><g><path d="M22.686,38.975c-0.578,0-1.068-0.327-1.383-0.769l0,0c-0.318-0.444-0.496-1.019-0.497-1.644l0,0V17.038     c0.001-0.625,0.179-1.199,0.497-1.644l0,0c0.314-0.44,0.805-0.769,1.383-0.769l0,0h31.938c0.577,0,1.067,0.327,1.382,0.769l0,0     c0.318,0.444,0.497,1.018,0.497,1.644l0,0v19.019h0.001v0.506c-0.001,0.624-0.179,1.199-0.497,1.643l0,0     c-0.314,0.441-0.805,0.77-1.382,0.77l0,0H22.686L22.686,38.975z M22.125,15.986c-0.179,0.245-0.309,0.624-0.308,1.052l0,0v19.524     c-0.001,0.428,0.129,0.807,0.308,1.052l0,0c0.182,0.25,0.379,0.349,0.561,0.349l0,0h31.938c0.181,0,0.378-0.099,0.56-0.349l0,0     c0.17-0.234,0.296-0.591,0.307-0.995l0,0V17.038c0-0.429-0.129-0.808-0.307-1.053l0,0c-0.184-0.248-0.379-0.348-0.561-0.347l0,0     H22.686c-0.001,0-0.002,0-0.002,0l0,0C22.502,15.639,22.307,15.738,22.125,15.986L22.125,15.986z"/></g></g><g><g><path d="M22.949,60.916v-12.75c0.001-0.945,0.729-1.746,1.681-1.751l0,0h27.334c0.95,0.005,1.679,0.806,1.681,1.751l0,0v12.75     c-0.002,0.945-0.73,1.746-1.681,1.75l0,0H24.63C23.678,62.662,22.95,61.861,22.949,60.916L22.949,60.916z M23.961,48.166v12.75     c0.002,0.43,0.322,0.737,0.669,0.738l0,0l27.334-0.001c0.346,0,0.667-0.308,0.669-0.737l0,0v-12.75     c-0.002-0.43-0.323-0.738-0.669-0.738l0,0H24.63C24.283,47.428,23.963,47.736,23.961,48.166L23.961,48.166z"/></g></g><g><g><polygon points="26.777,23.021 26.777,22.009 50.53,22.009 50.53,23.021 26.777,23.021    "/></g></g><g><g><polygon points="26.777,28.259 26.777,27.246 50.53,27.246 50.53,28.259 26.777,28.259    "/></g></g><g><g><polygon points="26.777,33.497 26.777,32.484 50.53,32.484 50.53,33.497 26.777,33.497    "/></g></g></g></svg>