<svg xmlns="http://www.w3.org/2000/svg" width="10" height="10" viewBox="0 0 10 10">
    <path fill="#D03602" fill-rule="evenodd" d="M5 0c.69 0 1.34.13 1.948.39.609.261 1.14.617 1.592 1.07.453.452.809.983 1.07 1.592A4.9 4.9 0 0 1 10 5a4.9 4.9 0 0 1-.39 1.948A5.017 5.017 0 0 1 8.54 8.54a5.017 5.017 0 0 1-1.592 1.07A4.9 4.9 0 0 1 5 10a4.9 4.9 0 0 1-1.948-.39A5.017 5.017 0 0 1 1.46 8.54 5.017 5.017 0 0 1 .39 6.948 4.9 4.9 0 0 1 0 5c0-.69.13-1.34.39-1.948.261-.609.617-1.14 1.07-1.592A5.017 5.017 0 0 1 3.052.39 4.9 4.9 0 0 1 5 0zm0 9.385a4.22 4.22 0 0 0 1.704-.347 4.415 4.415 0 0 0 2.324-2.334A4.22 4.22 0 0 0 9.375 5a4.22 4.22 0 0 0-.347-1.704 4.457 4.457 0 0 0-.937-1.387A4.457 4.457 0 0 0 6.704.972 4.22 4.22 0 0 0 5 .625a4.22 4.22 0 0 0-1.704.347c-.53.23-.993.543-1.387.937a4.457 4.457 0 0 0-.937 1.387A4.22 4.22 0 0 0 .625 5c0 .605.116 1.173.347 1.704a4.415 4.415 0 0 0 2.324 2.334A4.22 4.22 0 0 0 5 9.385zm1.768-6.153a.298.298 0 0 1 .087.22c0 .088-.029.161-.087.22L5.439 5l1.329 1.328a.298.298 0 0 1 .087.22.298.298 0 0 1-.307.307.298.298 0 0 1-.22-.087L5 5.439 3.672 6.768a.298.298 0 0 1-.22.087.298.298 0 0 1-.307-.307c0-.088.029-.161.087-.22L4.561 5 3.232 3.672a.298.298 0 0 1-.087-.22.298.298 0 0 1 .307-.307c.088 0 .161.029.22.087L5 4.561l1.328-1.329a.298.298 0 0 1 .22-.087c.088 0 .161.029.22.087z"/>
</svg>
