<svg xmlns="http://www.w3.org/2000/svg" width="10" height="10" viewBox="0 0 10 10">
    <path fill="#F8E71C" fill-rule="evenodd" d="M2.957 4.038l1.538 1.539 4.303-4.279.697.697-5 5L2.26 4.76l.697-.722zM8.99 5H10c0 1.378-.489 2.556-1.466 3.534C7.556 9.51 6.378 10 5 10c-1.378 0-2.556-.489-3.534-1.466C.49 7.556 0 6.378 0 5c0-1.378.489-2.556 1.466-3.534C2.444.49 3.622 0 5 0c.641 0 1.266.128 1.875.385l-.77.769A4.184 4.184 0 0 0 5 1.01c-1.106 0-2.047.388-2.825 1.165C1.398 2.953 1.01 3.895 1.01 5c0 1.106.388 2.047 1.165 2.825C2.953 8.602 3.895 8.99 5 8.99c1.106 0 2.047-.388 2.825-1.165C8.602 7.047 8.99 6.105 8.99 5z"/>
</svg>
