<svg width="45" height="45" viewBox="0 0 45 45" fill="none" xmlns="http://www.w3.org/2000/svg">
<g clip-path="url(#clip0_57_445)">
<path d="M13.2797 32.4357C12.9576 32.6055 12.8341 33.0043 13.0039 33.3264C14.5879 36.3319 15.391 39.7344 15.391 43.4395C15.391 43.8037 15.6862 44.0988 16.0503 44.0988C16.4144 44.0988 16.7096 43.8037 16.7096 43.4395C16.7096 39.5179 15.8552 35.9086 14.1703 32.7115C14.0006 32.3894 13.6019 32.2659 13.2797 32.4357Z" fill="#54C9EB"/>
<path d="M10.7677 28.1379C10.4907 27.9022 10.0758 27.9357 9.83953 28.212C9.60328 28.4884 9.63598 28.9044 9.91196 29.1412C9.91872 29.147 10.599 29.7353 11.4667 30.8912C11.5963 31.0637 11.7941 31.1547 11.9945 31.1547C12.1322 31.1547 12.2712 31.1117 12.3899 31.0227C12.681 30.804 12.7398 30.3908 12.5213 30.0996C11.5574 28.8153 10.7995 28.1649 10.7677 28.1379Z" fill="#54C9EB"/>
<path d="M35.1512 28.2126C34.9152 27.9353 34.4992 27.9019 34.2219 28.1378C34.1601 28.1904 32.6918 29.455 31.2248 31.981C29.882 34.293 28.2812 38.1578 28.2812 43.4393C28.2812 43.8035 28.5764 44.0986 28.9405 44.0986C29.3046 44.0986 29.5998 43.8035 29.5998 43.4393C29.5998 38.4812 31.0866 34.8608 32.3339 32.6967C33.6888 30.346 35.0637 29.1529 35.0774 29.1411C35.3539 28.905 35.3869 28.4895 35.1512 28.2126Z" fill="#54C9EB"/>
<path d="M7.34638 25.1013C4.8045 22.3776 3.8784 18.9663 3.86741 18.9248C3.7746 18.5729 3.41425 18.3624 3.06233 18.4551C2.71015 18.5475 2.49957 18.9082 2.59212 19.2602C2.63211 19.4125 3.60339 23.0233 6.38222 26.001C6.51213 26.1402 6.688 26.2105 6.86439 26.2105C7.02541 26.2105 7.18704 26.1518 7.31404 26.0332C7.58044 25.7848 7.59485 25.3675 7.34638 25.1013Z" fill="#FFBA4C"/>
<path d="M41.9287 18.4557C41.5768 18.3627 41.2163 18.5731 41.1232 18.9248C41.114 18.959 40.1887 22.3747 37.6441 25.1014C37.3956 25.3676 37.4101 25.7848 37.6763 26.0333C37.8034 26.1519 37.9648 26.2106 38.1259 26.2106C38.3023 26.2106 38.4783 26.1402 38.6081 26.0011C41.3869 23.0234 42.3582 19.4126 42.3982 19.2604C42.4908 18.9084 42.2805 18.5484 41.9287 18.4557Z" fill="#FFBA4C"/>
<path d="M7.15076 35.0196C6.87294 35.2527 6.83691 35.6679 7.06841 35.947C7.07201 35.9514 7.42991 36.3878 7.77268 37.2311C8.08882 38.009 8.457 39.3038 8.41481 41.0543C8.40602 41.4184 8.69404 41.7206 9.05808 41.7294C9.06353 41.7295 9.06889 41.7296 9.07434 41.7296C9.431 41.7296 9.72447 41.4447 9.73317 41.0861C9.82659 37.2033 8.14744 35.1805 8.0759 35.0962C7.84123 34.8199 7.4285 34.7865 7.15076 35.0196Z" fill="#FFBA4C"/>
<path d="M37.8461 35.0205C37.5686 34.7847 37.1525 34.8187 36.9169 35.0962C36.8453 35.1804 35.1662 37.2032 35.2596 41.0861C35.2683 41.4447 35.5617 41.7295 35.9184 41.7295C35.9239 41.7295 35.9293 41.7294 35.9347 41.7294C36.2987 41.7206 36.5867 41.4184 36.578 41.0543C36.5358 39.3037 36.904 38.0089 37.2201 37.231C37.5589 36.3974 37.9124 35.9614 37.9241 35.9473C38.1574 35.6696 38.1228 35.2554 37.8461 35.0205Z" fill="#FFBA4C"/>
<path d="M14.8194 26.596C14.9293 26.596 15.0406 26.5684 15.1431 26.5106C15.4601 26.3314 15.5719 25.9292 15.3928 25.6122C13.4515 22.1762 12.5266 19.5062 12.0926 17.8712C11.6339 16.1431 11.6123 15.1776 11.6115 15.1257C11.6115 15.1245 11.6115 15.1238 11.6115 15.1236C11.6103 14.7604 11.3156 14.4664 10.9522 14.4664C10.5881 14.4664 10.293 14.7616 10.293 15.1258C10.293 15.2948 10.3379 19.3458 14.2449 26.261C14.3661 26.4755 14.5895 26.596 14.8194 26.596Z" fill="#D0EDF5"/>
<path d="M29.8117 26.5105C29.9141 26.5684 30.0255 26.5959 30.1354 26.5959C30.3654 26.5959 30.5888 26.4754 30.71 26.2608C34.617 19.3456 34.6619 15.2947 34.6619 15.1256C34.6619 14.7623 34.3681 14.4686 34.0047 14.4674H34.0026C33.6404 14.4674 33.3457 14.761 33.3434 15.1235C33.3433 15.133 33.3316 16.1029 32.8622 17.8711C32.4282 19.5061 31.5033 22.1761 29.562 25.6121C29.3828 25.9292 29.4946 26.3314 29.8117 26.5105Z" fill="#D0EDF5"/>
<path d="M14.7179 7.43027C13.0045 7.43027 11.6106 6.03598 11.6106 4.3222C11.6106 3.95798 11.3154 3.66284 10.9513 3.66284C10.5872 3.66284 10.292 3.95798 10.292 4.3222C10.292 6.03598 8.89809 7.43027 7.18466 7.43027C6.82053 7.43027 6.52539 7.72541 6.52539 8.08963C6.52539 8.45385 6.82053 8.74898 7.18466 8.74898C8.89809 8.74898 10.292 10.1433 10.292 11.8571C10.292 12.2213 10.5872 12.5164 10.9513 12.5164C11.3154 12.5164 11.6106 12.2213 11.6106 11.8571C11.6106 10.1433 13.0045 8.74898 14.7179 8.74898C15.0821 8.74898 15.3772 8.45385 15.3772 8.08963C15.3772 7.7255 15.0821 7.43027 14.7179 7.43027Z" fill="#54C9EB"/>
<path d="M37.806 7.43027C36.0925 7.43027 34.6986 6.03598 34.6986 4.3222C34.6986 3.95798 34.4034 3.66284 34.0393 3.66284C33.6752 3.66284 33.38 3.95798 33.38 4.3222C33.38 6.03598 31.9861 7.43027 30.2727 7.43027C29.9085 7.43027 29.6134 7.72541 29.6134 8.08963C29.6134 8.45385 29.9085 8.74898 30.2727 8.74898C31.9861 8.74898 33.38 10.1433 33.38 11.8571C33.38 12.2213 33.6752 12.5164 34.0393 12.5164C34.4034 12.5164 34.6986 12.2213 34.6986 11.8571C34.6986 10.1433 36.0925 8.74898 37.806 8.74898C38.1701 8.74898 38.4652 8.45385 38.4652 8.08963C38.4653 7.7255 38.1702 7.43027 37.806 7.43027Z" fill="#54C9EB"/>
<path d="M28.1086 4.96784L25.5329 7.14806L26.3777 10.4597C26.4445 10.7208 26.3452 10.9968 26.1271 11.1551C26.012 11.2395 25.8757 11.2816 25.7386 11.2816C25.6173 11.2816 25.495 11.2482 25.3869 11.1797L22.4957 9.35552L19.6054 11.1797C19.3768 11.3238 19.0832 11.3142 18.8652 11.1551C18.6472 10.9969 18.5478 10.7208 18.6146 10.4597L19.4594 7.14806L16.8872 4.96784C16.6824 4.79373 16.6032 4.51336 16.6877 4.25839C16.7721 4.00342 17.0024 3.82412 17.2705 3.80654L20.6188 3.58673L21.8839 0.415811C21.9841 0.164355 22.2258 0 22.4958 0C22.7657 0 23.0082 0.164355 23.1084 0.415811L24.3734 3.58673L27.7253 3.80654C27.9944 3.82412 28.2246 4.00351 28.309 4.25839C28.3926 4.51336 28.3135 4.7947 28.1086 4.96784Z" fill="#FFBA4C"/>
<path d="M22.503 38.3252C22.1389 38.3252 21.8438 38.6204 21.8438 38.9846V44.3407C21.8438 44.7048 22.139 45 22.503 45C22.8671 45 23.1623 44.7048 23.1623 44.3407V38.9846C23.1623 38.6204 22.8671 38.3252 22.503 38.3252Z" fill="#98654C"/>
<path d="M26.5848 21.8511L26.5804 21.9187L26.2894 26.3293V26.3302L26.0046 30.6519V30.6528L25.7153 35.0484L25.4533 39.0282C25.4304 39.3745 25.143 39.6444 24.7958 39.6444H20.2123C19.9926 39.6444 19.7965 39.5363 19.677 39.3684C19.6066 39.2717 19.5636 39.1547 19.5548 39.0282L19.5082 38.3257L19.3184 35.4352V35.4343L19.0528 31.4027L18.7944 27.488L18.4234 21.8512C18.4111 21.6692 18.4752 21.4898 18.6 21.3571C18.7248 21.2235 18.8989 21.1479 19.0809 21.1479H25.9271C26.1091 21.1479 26.2832 21.2235 26.408 21.3571C26.5329 21.4898 26.5971 21.6691 26.5848 21.8511Z" fill="#F77A49"/>
<path d="M26.4081 21.3569C26.2833 21.2233 26.1091 21.1477 25.9272 21.1477H25.2257L24.1348 37.7093L25.7153 35.0482L26.0046 30.6526V30.6518L26.2894 26.33V26.3291L26.5804 21.9186L26.5848 21.8509C26.5971 21.6689 26.533 21.4896 26.4081 21.3569Z" fill="#DE4F42"/>
<path d="M26.2893 26.33L26.0044 30.6516V30.6525L24.5303 31.7066L19.3183 35.434L19.0527 31.4024L24.816 27.3629L26.2893 26.33Z" fill="#D0EDF5"/>
<path d="M26.5847 21.8509L26.5803 21.9186L25.1053 22.9735L18.7944 27.4878L18.4234 21.8509C18.4111 21.669 18.4752 21.4896 18.6 21.3569C18.7248 21.2233 18.8989 21.1477 19.0809 21.1477H25.9271C26.1091 21.1477 26.2832 21.2233 26.408 21.3569C26.5329 21.4896 26.597 21.6689 26.5847 21.8509Z" fill="#D0EDF5"/>
<path d="M24.241 36.103L19.6777 39.3681C19.7973 39.5361 19.9933 39.6442 20.2131 39.6442H24.7966C25.1438 39.6442 25.4312 39.3742 25.4541 39.0279L25.7161 35.0481L24.241 36.103Z" fill="#D0EDF5"/>
<path d="M25.715 35.0481L25.453 39.0279C25.4301 39.3742 25.1427 39.6442 24.7955 39.6442H24.0078L24.2399 36.1031L25.715 35.0481Z" fill="#A6DFF5"/>
<path d="M24.815 27.3631L26.2883 26.3301L26.0035 30.6517V30.6526L24.5293 31.7067L24.815 27.3631Z" fill="#A6DFF5"/>
<path d="M26.4083 21.357C26.5331 21.4897 26.5972 21.6691 26.5849 21.851L26.5805 21.9187L25.1055 22.9736L25.2259 21.1477H25.9274C26.1094 21.1477 26.2835 21.2233 26.4083 21.357Z" fill="#A6DFF5"/>
<path d="M27.5299 21.5533C27.4719 21.7255 27.3471 21.8663 27.1827 21.9436C26.7282 22.1546 26.264 22.3339 25.7929 22.4807C24.7213 22.8148 23.6127 22.9818 22.5034 22.9818C20.907 22.9818 19.3115 22.6354 17.8241 21.9435C17.6597 21.8662 17.5348 21.7255 17.4768 21.5532C17.4197 21.3817 17.4364 21.1936 17.5217 21.0337L21.9223 12.835C22.0375 12.6214 22.2608 12.4878 22.5034 12.4878C22.746 12.4878 22.9693 12.6214 23.0844 12.835L27.485 21.0337C27.5704 21.1936 27.5871 21.3818 27.5299 21.5533Z" fill="#FF734D"/>
<path d="M27.5305 21.5533C27.4724 21.7255 27.3476 21.8663 27.1832 21.9436C26.7287 22.1546 26.2646 22.3339 25.7934 22.4807L25.4224 22.4948L22.5039 12.4878C22.7466 12.4878 22.9698 12.6214 23.085 12.835L27.4855 21.0337C27.5709 21.1936 27.5876 21.3818 27.5305 21.5533Z" fill="#DE4F42"/>
<path d="M5.71395 14.344C5.71395 15.9212 4.43232 17.2038 2.85697 17.2038C2.55015 17.2038 2.25483 17.1555 1.97789 17.065C0.830742 16.694 0 15.6144 0 14.344C0 13.0746 0.830742 11.9951 1.97789 11.6241C2.25483 11.5336 2.55015 11.4852 2.85697 11.4852C4.43224 11.4852 5.71395 12.7678 5.71395 14.344Z" fill="#997AB8"/>
<path d="M5.71457 14.344C5.71457 15.9211 4.43295 17.2037 2.8576 17.2037C2.55077 17.2037 2.25546 17.1554 1.97852 17.0649C3.12479 16.693 3.95641 15.6143 3.95641 14.344C3.95641 13.0746 3.12479 11.996 1.97852 11.6241C2.25546 11.5336 2.55077 11.4852 2.8576 11.4852C4.43286 11.4851 5.71457 12.7677 5.71457 14.344Z" fill="#6957A1"/>
<path d="M44.9991 14.3523C44.9991 15.9294 43.7175 17.212 42.1421 17.212C41.8353 17.212 41.54 17.1637 41.263 17.0732C40.1159 16.7022 39.2852 15.6226 39.2852 14.3523C39.2852 13.0829 40.1159 12.0034 41.263 11.6324C41.54 11.5419 41.8353 11.4935 42.1421 11.4935C43.7175 11.4934 44.9991 12.776 44.9991 14.3523Z" fill="#997AB8"/>
<path d="M44.9997 14.3523C44.9997 15.9294 43.7181 17.212 42.1428 17.212C41.8359 17.212 41.5406 17.1637 41.2637 17.0732C42.4099 16.7013 43.2416 15.6226 43.2416 14.3523C43.2416 13.0829 42.4099 12.0043 41.2637 11.6324C41.5406 11.5419 41.8359 11.4935 42.1428 11.4935C43.7181 11.4934 44.9997 12.776 44.9997 14.3523Z" fill="#6957A1"/>
<path d="M6.71555 32.4211C6.71555 33.5121 5.82768 34.4 4.73766 34.4C4.43962 34.4 4.15661 34.334 3.90252 34.2144C3.22831 33.8988 2.75977 33.214 2.75977 32.421C2.75977 31.6281 3.22831 30.9423 3.90252 30.6276C4.15661 30.5081 4.43962 30.4413 4.73766 30.4413C5.82768 30.4414 6.71555 31.3292 6.71555 32.4211Z" fill="#F77A49"/>
<path d="M6.71549 32.4211C6.71549 33.5121 5.82762 34.4 4.7376 34.4C4.43957 34.4 4.15656 34.334 3.90247 34.2144C4.57667 33.8988 5.04522 33.2131 5.04522 32.421C5.04522 31.6281 4.57667 30.9423 3.90247 30.6276C4.15656 30.5081 4.43957 30.4413 4.7376 30.4413C5.82762 30.4414 6.71549 31.3292 6.71549 32.4211Z" fill="#DE4F42"/>
<path d="M42.239 32.3599C42.239 33.4509 41.3511 34.3388 40.2611 34.3388C39.9631 34.3388 39.68 34.2729 39.426 34.1532C38.7517 33.8376 38.2832 33.1528 38.2832 32.3598C38.2832 31.5669 38.7517 30.8812 39.426 30.5664C39.68 30.4469 39.9631 30.38 40.2611 30.38C41.3511 30.3801 42.239 31.268 42.239 32.3599Z" fill="#F77A49"/>
<path d="M42.2389 32.3599C42.2389 33.4509 41.3511 34.3388 40.261 34.3388C39.963 34.3388 39.68 34.2729 39.4259 34.1532C40.1001 33.8376 40.5687 33.1519 40.5687 32.3598C40.5687 31.5669 40.1001 30.8812 39.4259 30.5664C39.68 30.4469 39.963 30.38 40.261 30.38C41.3511 30.3801 42.2389 31.268 42.2389 32.3599Z" fill="#DE4F42"/>
<path d="M28.1081 4.96775L25.5324 7.14797L26.3772 10.4596C26.444 10.7207 26.3446 10.9967 26.1266 11.155L22.5039 5.64117L28.3085 4.2583C28.3921 4.51327 28.3129 4.79461 28.1081 4.96775Z" fill="#FB963F"/>
</g>
<defs>
<clipPath id="clip0_57_445">
<rect width="45" height="45" fill="white"/>
</clipPath>
</defs>
</svg>
