<svg xmlns="http://www.w3.org/2000/svg" width="22" height="5">
    <path fill="#686F76" fill-opacity=".702" fill-rule="evenodd" d="M19.25 5c-1.516 0-2.75-1.122-2.75-2.5 0-1.379 1.234-2.5 2.75-2.5S22 1.121 22 2.5C22 3.878 20.766 5 19.25 5zm0-3.75c-.759 0-1.375.561-1.375 1.25 0 .69.616 1.25 1.375 1.25s1.375-.56 1.375-1.25c0-.689-.616-1.25-1.375-1.25zM11 5C9.483 5 8.25 3.878 8.25 2.5 8.25 1.121 9.483 0 11 0c1.516 0 2.75 1.121 2.75 2.5C13.75 3.878 12.516 5 11 5zm0-3.75c-.758 0-1.375.561-1.375 1.25 0 .69.617 1.25 1.375 1.25s1.375-.56 1.375-1.25c0-.689-.617-1.25-1.375-1.25zM2.75 5C1.233 5 0 3.878 0 2.5 0 1.121 1.233 0 2.75 0S5.5 1.121 5.5 2.5C5.5 3.878 4.267 5 2.75 5zm0-3.75c-.758 0-1.375.561-1.375 1.25 0 .69.617 1.25 1.375 1.25s1.375-.56 1.375-1.25c0-.689-.617-1.25-1.375-1.25z"/>
</svg>
