<svg width="16" height="16" viewBox="0 0 16 16" fill="none" xmlns="http://www.w3.org/2000/svg">
<path d="M14.3312 3.56602C14.3312 4.17268 14.0446 4.71268 13.6046 5.05935C13.2846 5.31268 12.8779 5.46602 12.4312 5.46602C11.3779 5.46602 10.5312 4.61935 10.5312 3.56602C10.5312 3.11935 10.6846 2.71935 10.9379 2.39268H10.9446C11.2846 1.95268 11.8246 1.66602 12.4312 1.66602C13.4846 1.66602 14.3312 2.51268 14.3312 3.56602Z" stroke="#425673" stroke-width="1.1" stroke-linecap="round" stroke-linejoin="round"/>
<path d="M5.46406 3.56602C5.46406 4.61935 4.6174 5.46602 3.56406 5.46602C3.1174 5.46602 2.7174 5.31268 2.39073 5.05935C1.95073 4.71268 1.66406 4.17268 1.66406 3.56602C1.66406 2.51268 2.51073 1.66602 3.56406 1.66602C4.17073 1.66602 4.71073 1.95268 5.0574 2.39268C5.31073 2.71935 5.46406 3.11935 5.46406 3.56602Z" stroke="#425673" stroke-width="1.1" stroke-linecap="round" stroke-linejoin="round"/>
<path d="M14.3312 12.4332C14.3312 13.4865 13.4846 14.3332 12.4312 14.3332C11.8246 14.3332 11.2846 14.0465 10.9446 13.6065H10.9379C10.6846 13.2865 10.5312 12.8799 10.5312 12.4332C10.5312 11.3799 11.3779 10.5332 12.4312 10.5332C12.8779 10.5332 13.2779 10.6865 13.6046 10.9399V10.9465C14.0446 11.2865 14.3312 11.8265 14.3312 12.4332Z" stroke="#425673" stroke-width="1.1" stroke-linecap="round" stroke-linejoin="round"/>
<path d="M5.46406 12.4332C5.46406 12.8799 5.31073 13.2799 5.0574 13.6065C4.71073 14.0532 4.17073 14.3332 3.56406 14.3332C2.51073 14.3332 1.66406 13.4865 1.66406 12.4332C1.66406 11.8265 1.95073 11.2865 2.39073 10.9465V10.9399C2.71073 10.6865 3.1174 10.5332 3.56406 10.5332C4.6174 10.5332 5.46406 11.3799 5.46406 12.4332Z" stroke="#425673" stroke-width="1.1" stroke-linecap="round" stroke-linejoin="round"/>
<path d="M14.3307 7.99935C14.3307 9.06602 14.0707 10.0593 13.6041 10.9393C13.2841 10.686 12.8774 10.5327 12.4307 10.5327C11.3774 10.5327 10.5307 11.3793 10.5307 12.4327C10.5307 12.8793 10.6841 13.2793 10.9374 13.606C10.0574 14.0727 9.06406 14.3327 7.9974 14.3327C6.9374 14.3327 5.9374 14.0727 5.0574 13.606C5.31073 13.286 5.46406 12.8793 5.46406 12.4327C5.46406 11.3793 4.6174 10.5327 3.56406 10.5327C3.1174 10.5327 2.7174 10.686 2.39073 10.9393C1.92406 10.0593 1.66406 9.06602 1.66406 7.99935C1.66406 6.93935 1.92406 5.93935 2.39073 5.05935C2.7174 5.31268 3.1174 5.46602 3.56406 5.46602C4.6174 5.46602 5.46406 4.61935 5.46406 3.56602C5.46406 3.11935 5.31073 2.71935 5.0574 2.39268C5.9374 1.92602 6.9374 1.66602 7.9974 1.66602C9.06406 1.66602 10.0574 1.92602 10.9374 2.39268C10.6841 2.71268 10.5307 3.11935 10.5307 3.56602C10.5307 4.61935 11.3774 5.46602 12.4307 5.46602C12.8774 5.46602 13.2774 5.31268 13.6041 5.05935C14.0707 5.93935 14.3307 6.93935 14.3307 7.99935Z" stroke="#425673" stroke-width="1.1" stroke-linecap="round" stroke-linejoin="round"/>
</svg>
