<svg xmlns="http://www.w3.org/2000/svg" width="18" height="15">
    <path fill="#686F76" fill-opacity=".702" fill-rule="evenodd" d="M.583 15.005h.019c.285-.01.464-.229.489-.511.019-.206.597-5.216 8.477-5.211v3.204a.564.564 0 0 0 .919.431l7.295-5.996a.555.555 0 0 0-.002-.864L10.486.118a.57.57 0 0 0-.597-.072.559.559 0 0 0-.321.504v3.133c-3.269.104-5.818 1.147-7.46 3.052C-.562 9.836.034 14.342.062 14.53c.041.274.244.475.521.475zm9.547-6.847h-.001c-5.629.004-7.78 1.889-9.008 3.556.18-1.335.704-2.944 1.846-4.257 1.517-1.746 3.962-2.666 7.163-2.666a.56.56 0 0 0 .563-.558V1.725l5.843 4.768-5.843 4.812V8.716a.558.558 0 0 0-.563-.558z"/>
</svg>
