<svg xmlns="http://www.w3.org/2000/svg" width="16" height="16">
    <path fill="#686F76" fill-opacity=".702" fill-rule="evenodd" d="M15.968.502l.031 4.989c.001.261-.222.472-.501.473-.278.001-.503-.208-.504-.469l-.025-3.803L6.838 9.86a.493.493 0 0 1-.693.003.487.487 0 0 1-.004-.692l8.126-8.162-3.825.024c-.261.002-.472-.222-.474-.498-.001-.277.209-.502.47-.503L15.46 0h.033c.112 0 .21.047.291.115.013.009.028.016.038.027.011.011.017.023.026.034.07.081.119.18.12.292v.034zM.999 2.495v12.004a.5.5 0 0 0 .5.5h11.997a.5.5 0 0 0 .5-.5V7.996h1v7.003c0 .552-.448 1.001-1 1.001H.999A1 1 0 0 1 0 14.999V1.996A1 1 0 0 1 .999.995h6.999v1.001H1.499a.5.5 0 0 0-.5.499z"/>
</svg>
