<svg xmlns="http://www.w3.org/2000/svg" width="15" height="17">
    <path fill="#8D9297" fill-opacity=".6" fill-rule="evenodd" d="M10.973 8.568l1.457 2.813c.069.142.131.248.187.318.056.071.118.107.187.107a.622.622 0 0 0 .278-.092c.112-.061.273-.189.483-.384l.264.41a1.417 1.417 0 0 1-.194.249 2.908 2.908 0 0 1-.934.663 1.5 1.5 0 0 1-.623.135c-.161 0-.295-.018-.402-.055a.73.73 0 0 1-.271-.157.868.868 0 0 1-.18-.242 3.462 3.462 0 0 1-.135-.315l-.937-2.556-2.074 3.179H6.512l3.179-4.322-1.348-2.805a1.416 1.416 0 0 0-.194-.315.288.288 0 0 0-.223-.102.51.51 0 0 0-.282.095.817.817 0 0 0-.224.212l-.278-.41c.024-.044.078-.113.161-.209a2.22 2.22 0 0 1 .776-.553c.171-.073.357-.109.557-.109.166 0 .307.015.421.047a.785.785 0 0 1 .293.147.86.86 0 0 1 .202.238c.053.092.1.202.139.329l.813 2.534 2.153-3.237h1.582l-3.266 4.387zM7.435 1.717a1.49 1.49 0 0 0-.513-.206 1.872 1.872 0 0 0-.359-.032.865.865 0 0 0-.498.15c-.146.1-.272.24-.377.421a2.823 2.823 0 0 0-.264.644c-.07.249-.125.525-.164.828l-.088.659h1.714l-.125 1.055H5.04l-.974 7.771a5.6 5.6 0 0 1-.344 1.377c-.166.415-.373.77-.619 1.065a2.79 2.79 0 0 1-.843.693 2.207 2.207 0 0 1-1.014.256 6.704 6.704 0 0 1-.71-.022 3.357 3.357 0 0 1-.498-.073l.388-1.238c.024.01.084.03.179.062a6.181 6.181 0 0 0 .7.18c.127.024.237.036.329.036a.454.454 0 0 0 .319-.135c.095-.091.178-.215.249-.374.071-.159.131-.345.179-.56.049-.215.091-.447.125-.696l1.011-8.342H2.506l.11-.557 1.091-.454.088-.52c.073-.454.211-.88.414-1.278.202-.398.443-.747.721-1.047.279-.301.586-.537.923-.711.337-.173.678-.26 1.025-.26.196 0 .391.011.587.033.194.022.385.075.571.158l-.433 1.23a5.312 5.312 0 0 0-.168-.113z"/>
</svg>
