<svg xmlns="http://www.w3.org/2000/svg" xmlns:xlink="http://www.w3.org/1999/xlink" width="43" height="39" viewBox="0 0 43 39">
    <defs>
        <circle id="a" cx="21.5" cy="21.5" r="21.5"/>
    </defs>
    <g fill="none" fill-rule="evenodd">
        <g>
            <mask id="b" fill="#fff">
                <use xlink:href="#a"/>
            </mask>
            <path fill="#000" d="M-3.583 21.519c0 6.705 2.697 13.008 7.416 17.75l1.04 1.044 9.351-9.397-2.078-2.088-3.015 3.03a16.04 16.04 0 0 1-3.654-8.863l-.07-2.953a16.203 16.203 0 0 1 3.677-8.91l2.078-2.087A16.049 16.049 0 0 1 20.03 5.35h2.94a16.049 16.049 0 0 1 8.868 3.694l2.078 2.088a16.203 16.203 0 0 1 3.676 8.91l-.069 2.933a16.1 16.1 0 0 1-3.654 8.882l-3.015-3.03-2.078 2.088 9.352 9.396 1.039-1.044c4.72-4.74 7.416-11.044 7.416-17.75 0-13.84-11.306-25.101-25.083-25.101S-3.583 7.677-3.583 21.519z" mask="url(#b)"/>
        </g>
        <path fill="#FC0" d="M25.777 22.609l2.89-10.067-9.592 3.176c-1.792.866-2.95 2.787-2.95 4.894 0 2.96 2.247 5.367 5.01 5.367 1.966 0 3.758-1.24 4.642-3.37z"/>
    </g>
</svg>
