<svg xmlns="http://www.w3.org/2000/svg" width="64" height="64" viewBox="0 0 64 64">
    <g fill="none" fill-rule="evenodd">
        <g>
            <g>
                <g transform="translate(-815 -800) translate(215 800) translate(600)">
                    <circle cx="31.8" cy="31.8" r="31.8" fill="#67E2E6" fill-opacity=".17"/>
                    <g fill="#14C9CF" fill-rule="nonzero">
                        <path d="M12.03 7.259L8.4 0H0l5.16 10.32c1.9-1.734 4.31-2.807 6.87-3.061zM14.37 7.259L18 0h8.4l-5.16 10.32c-1.9-1.734-4.31-2.807-6.87-3.061zM13.2 9.6c-5.302 0-9.6 4.298-9.6 9.6s4.298 9.6 9.6 9.6 9.6-4.298 9.6-9.6c0-2.546-1.011-4.988-2.812-6.788-1.8-1.8-4.242-2.812-6.788-2.812zm2.821 13.942L13.2 22.058l-2.821 1.484.541-3.142-2.28-2.225 3.154-.458 1.406-2.859 1.411 2.859 3.154.458L15.48 20.4l.541 3.142z" transform="translate(19.2 19.2)"/>
                    </g>
                </g>
            </g>
        </g>
    </g>
</svg>
