<svg width="35" height="45" viewBox="0 0 35 45" fill="none" xmlns="http://www.w3.org/2000/svg">
<path fill-rule="evenodd" clip-rule="evenodd" d="M6.52329 0H21.574L34.3284 13.2939V39.1485C34.3284 42.3717 31.7 45 28.4768 45H6.52329C3.28628 45 0.671753 42.3717 0.671753 39.1485V5.85153C0.671753 2.61453 3.28628 0 6.52329 0Z" fill="#FFB11F"/>
<path opacity="0.302" fill-rule="evenodd" clip-rule="evenodd" d="M21.5604 0V13.1832H34.3286L21.5604 0Z" fill="white"/>
<path d="M13.0673 23.3784V20.3074C13.0673 19.9754 12.8044 19.7125 12.4724 19.7125H10.8124C10.4804 19.7125 10.2176 19.9754 10.2176 20.3074V23.3784L9.29073 26.0898C9.02788 26.8506 9.1524 27.6945 9.62272 28.3446C10.0792 28.9948 10.84 29.3821 11.6424 29.3821C12.4448 29.3821 13.1918 28.9948 13.6621 28.3446C14.1324 27.6945 14.2569 26.8507 13.9941 26.0898L13.0673 23.3784ZM12.6799 27.6391C12.2096 28.3169 11.0753 28.3169 10.5911 27.6391C10.356 27.3071 10.2868 26.8644 10.4251 26.4771L10.7294 25.5641H12.5416L12.8598 26.4771C12.9843 26.8644 12.9289 27.3071 12.6799 27.6391ZM7.96277 3.22317V4.91086C7.96277 5.24286 8.22562 5.50571 8.55761 5.50571H10.8125V8.02341H8.55761C8.22562 8.02341 7.96277 8.28626 7.96277 8.61825V9.91858C7.96277 10.2506 8.22562 10.5272 8.55761 10.5272H10.8125V13.0311H8.55761C8.22562 13.0311 7.96277 13.2939 7.96277 13.6259V14.9401C7.96277 15.272 8.22562 15.5349 8.55761 15.5349H10.8125V17.4439C10.8125 17.7759 11.0891 18.0387 11.4211 18.0387H14.7273C15.0455 18.0387 15.3222 17.7759 15.3222 17.4439V16.1297C15.3222 15.8116 15.0455 15.5349 14.7273 15.5349H12.4587V13.0311H14.7273C15.0455 13.0311 15.3222 12.7682 15.3222 12.4362V11.1221C15.3222 10.7901 15.0455 10.5272 14.7273 10.5272H12.4587V8.02341H14.7273C15.0455 8.02341 15.3222 7.74674 15.3222 7.41475V6.11442C15.3222 5.78243 15.0455 5.50576 14.7273 5.50576H12.4587V3.20935C12.4586 3.20935 7.96277 3.22317 7.96277 3.22317Z" fill="white"/>
</svg>
