<svg xmlns="http://www.w3.org/2000/svg" width="22" height="22.969" viewBox="0 0 22 22.969">
  <metadata><?xpacket begin="﻿" id="W5M0MpCehiHzreSzNTczkc9d"?>
<x:xmpmeta xmlns:x="adobe:ns:meta/" x:xmptk="Adobe XMP Core 5.6-c138 79.159824, 2016/09/14-01:09:01        ">
   <rdf:RDF xmlns:rdf="http://www.w3.org/1999/02/22-rdf-syntax-ns#">
      <rdf:Description rdf:about=""/>
   </rdf:RDF>
</x:xmpmeta>
                                                                                                    
                                                                                                    
                                                                                                    
                                                                                                    
                                                                                                    
                                                                                                    
                                                                                                    
                                                                                                    
                                                                                                    
                                                                                                    
                                                                                                    
                                                                                                    
                                                                                                    
                                                                                                    
                                                                                                    
                                                                                                    
                                                                                                    
                                                                                                    
                                                                                                    
                                                                                                    
                           
<?xpacket end="w"?></metadata>
<defs>
    <style>
      .cls-1 {
        fill: #8DC53E;
        fill-opacity: 1;
        fill-rule: evenodd;
      }
    </style>
  </defs>
  <path class="cls-1" d="M1248.97,299.1a3.033,3.033,0,1,1,3-3.033A3.014,3.014,0,0,1,1248.97,299.1Zm0-5.055a2.022,2.022,0,1,0,2,2.022A2.007,2.007,0,0,0,1248.97,294.042Zm-7.99-1.011a3.034,3.034,0,1,1,3-3.034A3.015,3.015,0,0,1,1240.98,293.031Zm0-5.056a2.022,2.022,0,1,0,2,2.022A2.007,2.007,0,0,0,1240.98,287.975Zm-0.34,21.966a3.47,3.47,0,0,1-1.56-.373l-7.08-3.586v-7.9h1.5c1.02,0,3.88.37,5.24,2.023h2.74a4.484,4.484,0,0,1,3.74,2.022h5.25c2.59,0,3.42,1.623,3.5,2.481l0.03,0.381-12.1,4.713A3.5,3.5,0,0,1,1240.64,309.941Zm-7.64-4.583,6.53,3.306a2.456,2.456,0,0,0,2.01.1l11.33-4.412c-0.19-.466-0.76-1.208-2.4-1.208h-4.75a4.489,4.489,0,0,1,.26,1.517v0.5h-7.49v-1.011h6.45a3.511,3.511,0,0,0-3.46-3.033h-3.25l-0.15-.216c-0.95-1.365-3.5-1.807-4.58-1.807H1233v6.261Z" transform="translate(-1232 -286.969)"/>
</svg>
