<svg width="23" height="23" viewBox="0 0 23 23" fill="none" xmlns="http://www.w3.org/2000/svg">
<path d="M2.875 17.25H7.66667" stroke="#A4B4C4" stroke-width="1.5" stroke-linecap="round" stroke-linejoin="round"/>
<path d="M7.66406 20.125H4.78906" stroke="#A4B4C4" stroke-width="1.5" stroke-linecap="round" stroke-linejoin="round"/>
<path d="M11.5 20.125C13.2059 20.125 14.8734 19.6192 16.2918 18.6714C17.7102 17.7237 18.8157 16.3767 19.4685 14.8006C20.1213 13.2246 20.2921 11.4904 19.9593 9.81735C19.6265 8.14426 18.805 6.60744 17.5988 5.40121C16.3926 4.19498 14.8557 3.37353 13.1827 3.04073C11.5096 2.70793 9.77537 2.87874 8.19936 3.53154C6.62334 4.18435 5.2763 5.28984 4.32857 6.70821C3.38085 8.12659 2.875 9.79414 2.875 11.5C2.87758 12.1455 2.95418 12.7886 3.10329 13.4167" stroke="#A4B4C4" stroke-width="1.5" stroke-linecap="round" stroke-linejoin="round"/>
<path d="M11.2305 7.66602V12.1088L14.7341 14.245" stroke="#A4B4C4" stroke-width="1.5" stroke-linecap="round" stroke-linejoin="round"/>
</svg>
