<?xml version="1.0" encoding="UTF-8"?>
<svg xmlns="http://www.w3.org/2000/svg" xmlns:xlink="http://www.w3.org/1999/xlink" width="16px" height="16px" viewBox="0 0 16 16" version="1.1">
<g id="surface1">
<path style=" stroke:none;fill-rule:nonzero;fill:rgb(40.392157%,45.098039%,50.196078%);fill-opacity:1;" d="M 15.632812 8.492188 C 15.566406 8.492188 15.5 8.464844 15.449219 8.414062 L 7.992188 0.957031 L 0.53125 8.414062 C 0.429688 8.515625 0.265625 8.515625 0.164062 8.414062 C 0.0625 8.3125 0.0625 8.148438 0.164062 8.046875 L 7.992188 0.21875 L 15.816406 8.046875 C 15.917969 8.148438 15.917969 8.3125 15.816406 8.414062 C 15.765625 8.464844 15.699219 8.492188 15.632812 8.492188 Z M 15.632812 8.492188 "/>
<path style=" stroke:none;fill-rule:nonzero;fill:rgb(40.392157%,45.098039%,50.196078%);fill-opacity:1;" d="M 13.746094 6.195312 C 13.605469 6.195312 13.488281 6.308594 13.488281 6.453125 L 13.488281 14.917969 C 13.488281 15.089844 13.347656 15.230469 13.171875 15.230469 L 10.226562 15.230469 L 10.226562 11.421875 C 10.226562 10.429688 9.417969 9.621094 8.425781 9.621094 L 7.554688 9.621094 C 6.5625 9.621094 5.753906 10.429688 5.753906 11.421875 L 5.753906 15.230469 L 2.808594 15.230469 C 2.636719 15.230469 2.496094 15.089844 2.496094 14.917969 L 2.496094 6.453125 C 2.496094 6.308594 2.378906 6.195312 2.234375 6.195312 C 2.089844 6.195312 1.972656 6.308594 1.972656 6.453125 L 1.972656 14.917969 C 1.972656 15.378906 2.347656 15.75 2.808594 15.75 L 6.277344 15.75 L 6.277344 11.421875 C 6.277344 10.714844 6.851562 10.140625 7.554688 10.140625 L 8.425781 10.140625 C 9.132812 10.140625 9.707031 10.714844 9.707031 11.421875 L 9.707031 15.75 L 13.171875 15.75 C 13.632812 15.75 14.007812 15.378906 14.007812 14.917969 L 14.007812 6.453125 C 14.007812 6.308594 13.890625 6.195312 13.746094 6.195312 Z M 13.746094 6.195312 "/>
</g>
</svg>
