<svg xmlns="http://www.w3.org/2000/svg" width="16" height="13">
    <path fill="#686F76" fill-opacity=".6" fill-rule="evenodd" d="M15.969 12.498a.5.5 0 0 1-.5.5H.499a.5.5 0 0 1-.5-.5v-12c0-.004.003-.006.003-.01C.002.481.005.476.005.47A.493.493 0 0 1 .13.168C.138.158.135.145.143.136.154.125.172.129.183.119A.491.491 0 0 1 .452.008c.019-.002.034-.011.054-.01h14.956c.02-.001.035.008.054.01.102.01.194.049.269.111.011.01.029.006.04.017.009.009.005.022.013.032a.493.493 0 0 1 .125.302c0 .006.003.011.003.018 0 .004.003.006.003.01v12zm-14.971-1a.5.5 0 0 0 .499.5h12.974a.5.5 0 0 0 .5-.5V1.516L8.352 7.824c-.006.007-.003.019-.01.026a.489.489 0 0 1-.358.14.489.489 0 0 1-.358-.14c-.006-.007-.004-.019-.01-.026L.998 1.516v9.982zm6.986-4.63l6.071-5.87H1.913l6.071 5.87z"/>
</svg>
