<svg xmlns="http://www.w3.org/2000/svg" width="20" height="20">
    <path fill="#FFDB92" fill-rule="evenodd" d="M10 0C4.486 0 0 4.486 0 10s4.486 10 10 10 10-4.486 10-10S15.514 0 10 0zm2.215 15.237c-.551.216-2.46 1.128-3.56.159a1.397 1.397 0 0 1-.492-1.098c0-.832.274-1.557.766-3.298.087-.329.193-.756.193-1.094 0-.584-.222-.739-.823-.739-.293 0-.618.104-.912.214l.162-.666c.656-.267 1.479-.592 2.184-.592 1.058 0 1.836.528 1.836 1.531 0 .289-.05.796-.155 1.146l-.608 2.152c-.126.435-.354 1.394-.001 1.678.347.281 1.168.132 1.573-.059l-.163.666zm-1.005-8.57a1.25 1.25 0 1 1 0-2.5 1.25 1.25 0 0 1 0 2.5z"/>
</svg>
