<svg xmlns="http://www.w3.org/2000/svg" width="18" height="17" viewBox="0 0 18 17">
    <g fill="none" fill-rule="evenodd" stroke="#677380" stroke-width=".7">
        <path stroke-linecap="square" d="M17 4c-.72-.72-2.28-.72-3 0 .72-.72.72-2.28 0-3 .72.72 2.28.72 3 0-.72.72-.72 2.28 0 3zM16 12c-.48-.48-1.52-.48-2 0 .48-.48.48-1.52 0-2 .48.48 1.52.48 2 0-.48.48-.48 1.52 0 2zM8 4c-.48-.48-1.52-.48-2 0 .48-.48.48-1.52 0-2 .48.48 1.52.48 2 0-.48.48-.48 1.52 0 2z"/>
        <path d="M9 7l2 2"/>
        <path stroke-linecap="square" d="M1 14.545L10.545 5 13 7.455 3.455 17z"/>
    </g>
</svg>
