<svg xmlns="http://www.w3.org/2000/svg" width="16" height="17">
    <path fill="#3C4042" fill-opacity=".6" fill-rule="evenodd" d="M15.5 9.999h-3a.5.5 0 0 1 0-1h3a.5.5 0 0 1 0 1zm0-3h-4a.5.5 0 0 1 0-1h4a.5.5 0 1 1 0 1zm0-3h-4a.5.5 0 0 1 0-1.001h4a.501.501 0 0 1 0 1.001zM8 16.998H3a3 3 0 0 1-3-2.999v-3.001c0-1.321.86-2.43 2.046-2.83A5.292 5.292 0 0 1 1 4.998C1 2.237 3.014-.001 5.5-.001c2.485 0 4.5 2.238 4.5 4.999 0 1.21-.403 2.305-1.046 3.17A2.99 2.99 0 0 1 11 10.998v3.001a3 3 0 0 1-3 2.999zm1-12C9 2.789 7.433.999 5.5.999S2 2.789 2 4.998s1.567 4.001 3.5 4.001S9 7.207 9 4.998zm1 6c0-1.05-.813-1.902-1.842-1.984-.747.612-1.66.985-2.658.985-.999 0-1.912-.373-2.658-.985A1.994 1.994 0 0 0 1 10.998v3.001a2 2 0 0 0 2 1.999h5a2 2 0 0 0 2-1.999v-3.001zm2.5 1h3a.5.5 0 0 1 0 1.001h-3a.5.5 0 0 1 0-1.001z"/>
</svg>
