<svg width="17" height="17" viewBox="0 0 17 17" fill="none" xmlns="http://www.w3.org/2000/svg">
<path d="M4.95052 1H12.0495C12.5367 1 12.9715 1.01546 13.3613 1.0695C15.4378 1.30881 16 2.31236 16 5.06057V9.93943C16 12.6876 15.4378 13.6912 13.3613 13.9305C12.9715 13.9845 12.5442 14 12.0495 14H4.95052C4.46326 14 4.02848 13.9845 3.63867 13.9305C1.56221 13.6912 1 12.6876 1 9.93943V5.06057C1 2.31236 1.56221 1.30881 3.63867 1.0695C4.02848 1.01546 4.46326 1 4.95052 1Z" stroke="white" stroke-width="1.2" stroke-linecap="round" stroke-linejoin="round"/>
<path d="M9.61719 5.89453H12.2238" stroke="white" stroke-width="1.2" stroke-linecap="round" stroke-linejoin="round"/>
<path d="M4.77344 9.99609H4.7876H12.2322" stroke="white" stroke-width="1.2" stroke-linecap="round" stroke-linejoin="round"/>
<path d="M5.09637 5.87956H5.10273" stroke="white" stroke-width="1.2" stroke-linecap="round" stroke-linejoin="round"/>
<path d="M7.43231 5.87956H7.43867" stroke="white" stroke-width="1.2" stroke-linecap="round" stroke-linejoin="round"/>
</svg>
