<svg xmlns="http://www.w3.org/2000/svg" width="18" height="18">
    <path fill="#686F76" fill-rule="evenodd" d="M17.999 8.68l-9.038 9.03a.99.99 0 0 1-1.398 0l-7.29-7.284a.986.986 0 0 1 0-1.396L9.311 0 18-.001l-.001 8.681zM9.66 1.047L1.321 9.379a.493.493 0 0 0 0 .698l6.592 6.586a.496.496 0 0 0 .699 0l8.338-8.332L17 .999l-7.34.048zm1.912 5.373a2.005 2.005 0 0 1 0-2.837 2.01 2.01 0 0 1 2.84 0 2.003 2.003 0 0 1 0 2.837 2.01 2.01 0 0 1-2.84 0zm2.146-2.144a1.004 1.004 0 1 0-1.42 1.42 1.004 1.004 0 0 0 1.42-1.42zm-9.649 6.15l.699-.698 3.494 3.491-.699.698-3.494-3.491z"/>
</svg>
