<svg xmlns="http://www.w3.org/2000/svg" width="16" height="16">
    <path fill="#3C4042" fill-opacity=".6" fill-rule="evenodd" d="M14 15.998H1a1 1 0 0 1-1-1v-13a.999.999 0 0 1 1-.999h3V-.002h1V.999h5V-.002h1V.999h3.5c.552 0 .5.447.5.999v13a1 1 0 0 1-1 1zm0-13.499a.5.5 0 0 0-.5-.501H11v1.001h-1V1.998H5v1.001H4V1.998H1.5a.5.5 0 0 0-.5.501v1.5h13v-1.5zm0 2.5H1v9.499a.5.5 0 0 0 .5.5h12a.5.5 0 0 0 .5-.5V4.999zm-4 5.999h3v3.001h-3v-3.001zm1 2.001h1v-1.001h-1v1.001zm-1-6h3v2.999h-3V6.999zm1 1.999h1v-.999h-1v.999zm-5 2h3v3.001H6v-3.001zm1 2.001h1v-1.001H7v1.001zm-1-6h3v2.999H6V6.999zm1 1.999h1v-.999H7v.999zm-5 2h3v3.001H2v-3.001zm1 2.001h1v-1.001H3v1.001zm-1-6h3v2.999H2V6.999zm1 1.999h1v-.999H3v.999z"/>
</svg>
