<svg width="18" height="18" viewBox="0 0 18 18" fill="none" xmlns="http://www.w3.org/2000/svg">
<path d="M8.97852 16.5C13.1207 16.5 16.4785 13.1421 16.4785 9C16.4785 4.85786 13.1207 1.5 8.97852 1.5C4.83638 1.5 1.47852 4.85786 1.47852 9C1.47852 13.1421 4.83638 16.5 8.97852 16.5Z" stroke="#566877" stroke-width="1.2" stroke-linecap="round" stroke-linejoin="round"/>
<path d="M9 12.375C10.864 12.375 12.375 10.864 12.375 9C12.375 7.13604 10.864 5.625 9 5.625C7.13604 5.625 5.625 7.13604 5.625 9C5.625 10.864 7.13604 12.375 9 12.375Z" stroke="#566877" stroke-width="1.2" stroke-linecap="round" stroke-linejoin="round"/>
<path d="M3.67578 3.69727L6.33078 6.34477" stroke="#566877" stroke-width="1.2" stroke-linecap="round" stroke-linejoin="round"/>
<path d="M3.67578 14.3028L6.33078 11.6553" stroke="#566877" stroke-width="1.2" stroke-linecap="round" stroke-linejoin="round"/>
<path d="M14.2878 14.3028L11.6328 11.6553" stroke="#566877" stroke-width="1.2" stroke-linecap="round" stroke-linejoin="round"/>
<path d="M14.2878 3.69727L11.6328 6.34477" stroke="#566877" stroke-width="1.2" stroke-linecap="round" stroke-linejoin="round"/>
</svg>
