<svg width="17" height="17" viewBox="0 0 17 17" fill="none" xmlns="http://www.w3.org/2000/svg">
<path d="M16.9019 16.8996V10.7466C16.9019 7.7226 16.2509 5.4126 12.7229 5.4126C11.0219 5.4126 9.88792 6.3366 9.42592 7.2186H9.38392V5.6856H6.04492V16.8996H9.53092V11.3346C9.53092 9.8646 9.80392 8.4576 11.6099 8.4576C13.3949 8.4576 13.4159 10.1166 13.4159 11.4186V16.8786H16.9019V16.8996Z" fill="white"/>
<path d="M0.375 5.68555H3.861V16.8995H0.375V5.68555Z" fill="white"/>
<path d="M2.11756 0.0996094C1.00456 0.0996094 0.101562 1.00261 0.101562 2.11561C0.101562 3.22861 1.00456 4.15261 2.11756 4.15261C3.23056 4.15261 4.13356 3.22861 4.13356 2.11561C4.13356 1.00261 3.23056 0.0996094 2.11756 0.0996094Z" fill="white"/>
</svg>
