<svg xmlns="http://www.w3.org/2000/svg" width="18" height="18">
    <path fill="#3C4042" fill-opacity=".6" fill-rule="evenodd" d="M16.608 8.056l-2.393 2.399a.509.509 0 0 1-.707.009.482.482 0 0 1-.01-.692l2.399-2.403a3.608 3.608 0 0 0 .004-5.188c-1.462-1.429-3.839-1.43-5.303 0L8.135 4.529a.507.507 0 0 1-.707-.009.48.48 0 0 1 .009-.691l2.458-2.344c1.848-1.806 4.862-1.806 6.713.005A4.556 4.556 0 0 1 18 4.772a4.559 4.559 0 0 1-1.392 3.284zm-3.612-3.035c.195.191.195.5 0 .691L5.71 12.833a.508.508 0 0 1-.707 0 .481.481 0 0 1 0-.691l7.286-7.121a.508.508 0 0 1 .707 0zM7.402 15.673l2.463-2.349a.51.51 0 0 1 .707.01.48.48 0 0 1-.01.691l-2.458 2.344a4.772 4.772 0 0 1-3.354 1.355 4.776 4.776 0 0 1-3.359-1.36A4.561 4.561 0 0 1 0 13.081c0-1.24.494-2.406 1.391-3.283l2.394-2.4a.51.51 0 0 1 .707-.008.48.48 0 0 1 .009.691l-2.398 2.404A3.602 3.602 0 0 0 1 13.081c0 .979.39 1.9 1.098 2.592 1.462 1.43 3.842 1.43 5.304 0z"/>
</svg>
