<svg width="19" height="19" viewBox="0 0 19 19" fill="none" xmlns="http://www.w3.org/2000/svg">
<path d="M4.75 7.91659V6.33325C4.75 3.71284 5.54167 1.58325 9.5 1.58325C13.4583 1.58325 14.25 3.71284 14.25 6.33325V7.91659" stroke="#080D44" stroke-width="1.3" stroke-linecap="round" stroke-linejoin="round"/>
<path d="M9.5 14C10.3284 14 11 13.3284 11 12.5C11 11.6716 10.3284 11 9.5 11C8.67157 11 8 11.6716 8 12.5C8 13.3284 8.67157 14 9.5 14Z" stroke="#080D44" stroke-width="1.3" stroke-linecap="round" stroke-linejoin="round"/>
<path d="M12.75 17H6.25C3.65 17 3 16.25 3 13.25V11.75C3 8.75 3.65 8 6.25 8H12.75C15.35 8 16 8.75 16 11.75V13.25C16 16.25 15.35 17 12.75 17Z" stroke="#080D44" stroke-width="1.3" stroke-linecap="round" stroke-linejoin="round"/>
</svg>
