<svg xmlns="http://www.w3.org/2000/svg" width="18" height="15" viewBox="0 0 18 15">
    <g fill="none" fill-rule="evenodd">
        <g fill="#1DA1F2" fill-rule="nonzero">
            <g>
                <g>
                    <g>
                        <path d="M18 1.918c-.662.293-1.374.492-2.121.581.762-.457 1.348-1.18 1.624-2.043-.714.423-1.504.73-2.345.896C14.484.634 13.524.186 12.462.186c-2.04 0-3.693 1.653-3.693 3.693 0 .29.033.571.096.841-3.07-.154-5.79-1.624-7.612-3.858-.318.545-.5 1.18-.5 1.856 0 1.282.652 2.412 1.643 3.074-.605-.019-1.175-.185-1.673-.462v.047c0 1.789 1.273 3.282 2.962 3.62-.31.085-.636.13-.973.13-.238 0-.469-.023-.694-.066.47 1.467 1.833 2.535 3.45 2.565-1.265.99-2.857 1.58-4.587 1.58-.298 0-.592-.017-.881-.051 1.634 1.048 3.575 1.66 5.66 1.66 6.794 0 10.508-5.628 10.508-10.508 0-.16-.004-.32-.01-.478.72-.52 1.347-1.17 1.842-1.911z" transform="translate(-880 -6940) translate(215 6884) translate(664 12) translate(1 44)"/>
                    </g>
                </g>
            </g>
        </g>
    </g>
</svg>
