<svg xmlns="http://www.w3.org/2000/svg" width="18" height="13" viewBox="0 0 18 13">
    <g fill="none" fill-rule="evenodd">
        <g fill-rule="nonzero">
            <g>
                <g>
                    <g>
                        <path fill="#DC2217" d="M17.82 2.776s-.176-1.24-.715-1.787C16.42.273 15.653.27 15.3.227 12.782.045 9.004.045 9.004.045h-.008S5.218.045 2.7.227C2.347.269 1.58.273.895.989.355 1.536.18 2.776.18 2.776S0 4.233 0 5.69v1.366c0 1.457.18 2.913.18 2.913s.176 1.24.715 1.787c.685.717 1.584.694 1.985.77 1.44.137 6.12.18 6.12.18s3.782-.006 6.301-.188c.352-.042 1.12-.045 1.804-.762.54-.546.715-1.787.715-1.787S18 8.512 18 7.055V5.689c0-1.456-.18-2.913-.18-2.913z" transform="translate(-880 -6980) translate(215 6884) translate(664 12) translate(1 84)"/>
                        <path fill="#FFF" d="M7.142 8.71L7.141 3.652 12.005 6.19z" transform="translate(-880 -6980) translate(215 6884) translate(664 12) translate(1 84)"/>
                    </g>
                </g>
            </g>
        </g>
    </g>
</svg>
