<svg xmlns="http://www.w3.org/2000/svg" width="52" height="52">
    <path fill="#00AEEF" fill-opacity=".078" fill-rule="evenodd" d="M26 0c14.359 0 26 11.641 26 26S40.359 52 26 52 0 40.359 0 26 11.641 0 26 0z"/>
    <path fill="#FFF" fill-rule="evenodd" d="M34.449 21.368l-3.818-3.818a.636.636 0 0 0-.9 0l-4.454 4.455 4.718 4.718 4.454-4.455a.636.636 0 0 0 0-.9z"/>
    <path fill="#00AEEF" fill-opacity=".302" fill-rule="evenodd" d="M40.363 14.818a1.912 1.912 0 0 0-1.909 1.909.637.637 0 1 1-1.273 0 1.911 1.911 0 0 0-1.909-1.909.636.636 0 1 1 0-1.273 1.91 1.91 0 0 0 1.909-1.909.637.637 0 0 1 1.273 0c0 1.053.857 1.909 1.909 1.909a.637.637 0 0 1 0 1.273zm-14.636 0c-1.053 0-1.91.857-1.91 1.909a.636.636 0 1 1-1.272 0 1.912 1.912 0 0 0-1.909-1.909.637.637 0 1 1 0-1.273 1.911 1.911 0 0 0 1.909-1.909.636.636 0 1 1 1.272 0c0 1.053.857 1.909 1.91 1.909a.637.637 0 0 1 0 1.273zm9.545 13.364a1.911 1.911 0 0 0 1.909-1.909.637.637 0 1 1 1.273 0c0 1.052.857 1.909 1.909 1.909a.636.636 0 1 1 0 1.273 1.911 1.911 0 0 0-1.909 1.909.636.636 0 1 1-1.273 0 1.91 1.91 0 0 0-1.909-1.909.637.637 0 0 1 0-1.273z"/>
    <path fill="#00AEEF" fill-opacity=".8" fill-rule="evenodd" d="M13.186 34.096a.634.634 0 0 0 0 .899l3.818 3.819a.634.634 0 0 0 .9 0l12.091-12.091-4.718-4.718-12.091 12.091z"/>
</svg>
