<svg width="15" height="17" viewBox="0 0 15 17" fill="none" xmlns="http://www.w3.org/2000/svg">
<g clip-path="url(#clip0_589_2672)">
<path d="M14.3979 15.3757C14.3444 15.4294 14.2775 15.4562 14.1971 15.4562C14.1168 15.4562 14.0499 15.4294 13.9963 15.3757C13.9428 15.322 13.916 15.2549 13.916 15.1744C13.916 15.0939 13.9428 15.0201 14.003 14.9664C14.0566 14.9128 14.1235 14.8927 14.1971 14.8927C14.2775 14.8927 14.3444 14.9195 14.3979 14.9732C14.4515 15.0268 14.4783 15.0939 14.4783 15.1744C14.485 15.2549 14.4582 15.322 14.3979 15.3757ZM14.0365 15.0067C13.9897 15.0537 13.9696 15.1073 13.9696 15.1677C13.9696 15.2348 13.9897 15.2885 14.0365 15.3354C14.0834 15.3824 14.1369 15.4025 14.2038 15.4025C14.2708 15.4025 14.3243 15.3824 14.3712 15.3354C14.418 15.2885 14.4381 15.2348 14.4381 15.1677C14.4381 15.1073 14.418 15.047 14.3712 15.0067C14.3243 14.9597 14.2708 14.9329 14.2038 14.9329C14.1369 14.9396 14.0834 14.9597 14.0365 15.0067ZM14.2908 15.3153C14.2641 15.3354 14.2373 15.3421 14.2105 15.3421C14.1704 15.3421 14.1302 15.3287 14.0967 15.2952C14.0633 15.2616 14.0499 15.2214 14.0499 15.1744C14.0499 15.1275 14.0633 15.0872 14.0901 15.0537C14.1168 15.0201 14.157 15.0067 14.2038 15.0067C14.2306 15.0067 14.2574 15.0134 14.2842 15.0268C14.3176 15.047 14.3444 15.0805 14.3511 15.1342H14.2775C14.2708 15.114 14.2641 15.0939 14.2507 15.0872C14.2373 15.0805 14.2239 15.0738 14.2105 15.0738C14.1904 15.0738 14.1704 15.0805 14.157 15.1006C14.1436 15.1208 14.1369 15.1476 14.1369 15.1811C14.1369 15.2147 14.1436 15.2415 14.157 15.2549C14.1704 15.2683 14.1904 15.2818 14.2105 15.2818C14.2306 15.2818 14.244 15.2751 14.2574 15.2683L14.2775 15.2281H14.3444C14.3377 15.2683 14.3176 15.2952 14.2908 15.3153ZM15.0003 12.3366C15.0003 12.3098 14.9936 12.2829 14.9936 12.2561C14.9936 12.236 14.9869 12.2226 14.9869 12.2091C14.9802 12.1689 14.9736 12.1354 14.9602 12.0951C14.9334 12.0213 14.8932 11.9475 14.8397 11.8871C14.7861 11.8267 14.7259 11.7798 14.6657 11.7462C14.5987 11.7127 14.5318 11.6926 14.4783 11.6792C14.4582 11.6792 14.4448 11.6724 14.4314 11.6724C14.505 11.3504 14.4113 11.1022 14.3511 10.9882L14.3645 10.9747C14.4448 10.8942 14.5117 10.8204 14.572 10.7466L14.5853 10.7332C14.6322 10.6661 14.659 10.599 14.6791 10.5387C14.6924 10.485 14.7058 10.438 14.7058 10.3911V10.3508V10.324V10.2636C14.6991 10.163 14.6857 10.0355 14.6188 9.89463C14.5853 9.82754 14.5385 9.75374 14.4783 9.68665C14.418 9.61957 14.3444 9.55919 14.2574 9.51223C14.2507 9.50552 14.244 9.50552 14.2373 9.49881C14.0566 9.23717 13.8558 9.0292 13.6751 8.8749C13.5814 8.79439 13.4944 8.7273 13.4207 8.67363C13.3471 8.61996 13.2869 8.57971 13.2534 8.55287C13.1731 8.4925 13.1128 8.45895 13.0861 8.44553C13.0191 8.40528 12.9723 8.37174 12.9455 8.35161C12.9254 8.33149 12.912 8.32478 12.9053 8.31807C12.9053 8.31807 12.9053 8.31136 12.8987 8.29794C12.892 8.27782 12.892 8.25098 12.892 8.20402C12.892 8.13693 12.892 8.0363 12.8987 7.90213C12.912 7.68744 12.9321 7.39897 12.9589 7.00315C12.9656 6.87568 12.9656 6.75493 12.9656 6.64759C12.9589 6.46645 12.9321 6.30544 12.8987 6.15785C12.892 6.1243 12.8786 6.09076 12.8719 6.05722C12.8652 6.03038 12.8585 6.01696 12.8518 6.00355C12.8451 5.98342 12.8384 5.96329 12.825 5.93646C12.8183 5.92304 12.8183 5.90962 12.8049 5.89621C12.7916 5.86266 12.7782 5.82912 12.7581 5.79557L12.7514 5.78887L12.7447 5.76874L12.738 5.75532C12.7046 5.69494 12.6644 5.64127 12.6242 5.59431C12.6042 5.50039 12.5707 5.36621 12.5104 5.21191C12.4569 5.07774 12.39 4.93014 12.2896 4.78255C12.2561 4.72888 12.2159 4.68192 12.1758 4.63496L12.1892 4.62154C12.2093 4.60141 12.6778 4.10497 13.0526 3.46093C13.742 2.26006 13.5144 1.5288 13.1999 1.12628L13.1932 1.11286L13.1865 1.09944C12.8853 0.764004 12.4703 0.562741 11.9683 0.495653C10.9175 0.361478 9.72606 0.884761 9.41148 1.03235L8.83586 0.401731C8.78232 0.34806 8.72877 0.29439 8.66853 0.254138C8.60829 0.213885 8.54136 0.173633 8.47443 0.140089C8.34056 0.07971 8.19331 0.0394575 8.03268 0.0193312C7.71809 -0.0209214 7.35666 0.0193312 6.96845 0.119963C6.38614 0.267555 5.7369 0.562741 5.05419 0.971975C4.37148 1.38121 3.66199 1.9112 2.97259 2.54183C2.12924 3.30662 1.43315 4.11838 0.924463 4.8966C0.67012 5.279 0.46263 5.65469 0.308686 6.01696C0.154741 6.37253 0.0543428 6.71467 0.0141834 7.02328C-0.0125895 7.25138 -0.0125895 7.46606 0.0342631 7.66061C0.0543428 7.74782 0.0811157 7.82833 0.121275 7.90883C0.168128 8.00947 0.228367 8.10339 0.301992 8.18389L0.89769 8.80781L0.964622 8.8749L0.957929 8.8816L0.937849 8.92186C0.924463 8.94198 0.91777 8.96211 0.904383 8.97553L0.884304 9.01578C0.87761 9.0359 0.864224 9.05603 0.857531 9.07616L0.837451 9.11641C0.830758 9.13654 0.817371 9.15666 0.810678 9.17679C0.803985 9.19021 0.797292 9.20362 0.797292 9.21704L0.777212 9.27742C0.770519 9.29084 0.770519 9.30425 0.763825 9.31767C0.757132 9.3378 0.750439 9.35793 0.743746 9.38476C0.743746 9.39147 0.737053 9.39818 0.737053 9.40489C0.737053 9.4116 0.730359 9.4183 0.730359 9.42501C0.723666 9.44514 0.716973 9.47197 0.71028 9.4921C0.71028 9.50552 0.703586 9.51894 0.703586 9.53235C0.703586 9.53906 0.696893 9.55248 0.696893 9.55919C0.696893 9.57261 0.6902 9.58602 0.6902 9.59944C0.6902 9.61286 0.683507 9.62628 0.683507 9.63969C0.676813 9.66653 0.676813 9.69336 0.67012 9.72691C0.67012 9.73362 0.67012 9.74032 0.663427 9.75374V9.76045C0.663427 9.78058 0.656734 9.8007 0.656734 9.81412C0.656734 9.84096 0.650041 9.8745 0.650041 9.90134V10.2368C0.650041 10.2502 0.650041 10.2636 0.656734 10.277C0.656734 10.2904 0.656734 10.3106 0.663427 10.3307V10.3508C0.663427 10.3642 0.67012 10.3844 0.67012 10.3978C0.67012 10.4112 0.676813 10.4246 0.676813 10.4447C0.676813 10.4515 0.676813 10.4582 0.683507 10.4649C0.683507 10.4716 0.6902 10.485 0.6902 10.4917V10.5051C0.6902 10.5185 0.696893 10.532 0.703586 10.5588C0.703586 10.5655 0.703586 10.5655 0.71028 10.5722C0.716973 10.5856 0.716973 10.599 0.716973 10.6058L0.723666 10.6192C0.723666 10.6259 0.723666 10.6259 0.730359 10.6326L0.737053 10.646V10.6661C0.737053 10.6728 0.737053 10.6728 0.743746 10.6796L0.750439 10.693C0.750439 10.7064 0.757132 10.7131 0.757132 10.7265C0.763825 10.7399 0.763825 10.7533 0.770519 10.7802C0.770519 10.7869 0.770519 10.7869 0.777212 10.7936C0.783905 10.8137 0.790598 10.8271 0.790598 10.8339C0.797292 10.8473 0.803985 10.8607 0.810678 10.8875L0.817371 10.8942C0.824065 10.9076 0.824064 10.9211 0.830758 10.9278L0.837451 10.9412C0.837451 10.9479 0.844144 10.9546 0.844144 10.9613C0.844144 10.968 0.850837 10.9814 0.857531 10.9882L0.864224 11.0016C0.870917 11.0083 0.870917 11.0217 0.87761 11.0284C0.884304 11.0351 0.884304 11.0418 0.884304 11.0485C0.890997 11.062 0.89769 11.0754 0.904383 11.0955L0.911077 11.1022C0.91777 11.1089 0.91777 11.1156 0.924463 11.1223C0.931156 11.129 0.931156 11.1425 0.937849 11.1492C0.944543 11.1559 0.951236 11.1693 0.957929 11.1894L0.964622 11.1961C0.971316 11.2028 0.971316 11.2095 0.978009 11.2163C0.984702 11.2297 0.991395 11.2364 0.991395 11.2431C0.998089 11.2498 1.00478 11.2632 1.01148 11.2766V11.2833C1.01817 11.29 1.01817 11.2968 1.02486 11.3035C1.03155 11.3169 1.03825 11.3236 1.04494 11.3303C1.05163 11.337 1.05833 11.3504 1.07171 11.3706C1.07841 11.3773 1.0851 11.384 1.0851 11.3907C1.09179 11.4041 1.09849 11.4108 1.10518 11.4175C1.11187 11.4242 1.11857 11.4376 1.12526 11.4511C1.13195 11.4578 1.13865 11.4712 1.14534 11.4779C1.15203 11.4913 1.15873 11.498 1.17211 11.5047L1.19219 11.5249L1.19889 11.5316C1.21227 11.545 1.21897 11.5584 1.23235 11.5718L1.24574 11.5852L1.26582 11.6054L1.30598 11.6456L1.31936 11.659L1.33944 11.6792L1.34614 11.6859C1.35952 11.6993 1.3796 11.7127 1.39299 11.7328L1.39968 11.7395C1.40638 11.7462 1.41307 11.7462 1.41976 11.7597C1.43984 11.7798 1.45992 11.7932 1.48 11.8133L1.49339 11.82L1.50008 11.8267L1.51347 11.8335C1.53355 11.8469 1.54693 11.8603 1.56701 11.8737L1.57371 11.8804C1.5804 11.8871 1.58709 11.8871 1.58709 11.8871L1.60048 11.9005C1.61387 11.914 1.62725 11.9207 1.64064 11.9341L1.65403 11.9408L1.66741 11.9542L1.67411 11.9609C1.68749 11.9676 1.70757 11.9811 1.72096 11.9878C1.72765 11.9945 1.73434 12.0012 1.74773 12.0012L1.76112 12.0079L1.76781 12.0146H1.7745C1.80128 12.028 1.82136 12.0414 1.84144 12.0548L1.85482 12.0616L1.93514 12.1018H1.94183L1.95522 12.1085L1.99538 12.1286C2.00207 12.1286 2.00877 12.1354 2.01546 12.1354C2.02215 12.1421 2.02885 12.1421 2.04223 12.1488H2.04893C2.06231 12.1555 2.0757 12.1622 2.08909 12.1622H2.09578C2.10916 12.1689 2.12255 12.1756 2.14263 12.1823H2.14932L2.16271 12.189C2.1694 12.189 2.1761 12.1957 2.18279 12.1957H2.18948C2.20956 12.2024 2.22964 12.2091 2.25642 12.2159H2.26311C2.29658 12.2293 2.33004 12.236 2.36351 12.2427H2.3702C2.39697 12.2494 2.43044 12.2561 2.45721 12.2628H2.48399C2.51076 12.2695 2.53753 12.2762 2.5643 12.2762H2.59108C2.61116 12.2762 2.62454 12.2829 2.64462 12.2829C2.64462 12.2897 2.65132 12.2964 2.65132 12.3031C2.69817 12.4305 2.74502 12.558 2.79857 12.6788C3.58837 14.8725 5.77706 16.5766 8.27363 16.8919C10.7702 17.2005 13.4408 15.5367 14.5251 13.2893C14.572 13.202 14.6121 13.1215 14.6523 13.0343C14.7594 12.9203 14.8464 12.8062 14.8999 12.6855C14.9869 12.6117 15.007 12.4641 15.0003 12.3366Z" fill="#664F44"/>
<path d="M12.8649 1.36184C12.7445 1.22766 12.6039 1.12703 12.45 1.05324C12.4232 1.03982 12.3964 1.03311 12.363 1.0264C12.3496 1.01969 12.3362 1.00627 12.3228 0.999566C12.1889 0.945896 12.0484 0.912352 11.9011 0.892226C11.1782 0.798303 10.3483 1.06665 9.87976 1.2545C9.85299 1.26792 9.82621 1.27463 9.79944 1.28804C9.75928 1.30817 9.71912 1.32159 9.67896 1.34171C9.61203 1.36855 9.5451 1.40209 9.47147 1.43564C9.45809 1.44234 9.45139 1.44234 9.43801 1.44905L9.31084 1.30146L9.2506 1.23437L9.19705 1.17399L9.17697 1.14716L8.68836 0.583623L8.64821 0.536661L8.59466 0.476282H8.58797L8.44741 0.509826L8.28677 0.54337C8.19976 0.503118 8.09267 0.476283 7.97219 0.456156C7.73123 0.422612 7.42334 0.456156 7.0753 0.54337C6.72725 0.630584 6.33235 0.784886 5.91737 0.992857C5.08071 1.4088 4.15705 2.04613 3.26015 2.8646C2.94557 3.14637 2.65776 3.44155 2.39003 3.73003C2.129 4.0118 1.89473 4.30028 1.68055 4.57534C1.24549 5.14558 0.917521 5.6957 0.703337 6.19215C0.56278 6.52088 0.475768 6.82277 0.442301 7.08441C0.415528 7.27226 0.422222 7.43998 0.455688 7.57415C0.469074 7.62111 0.482461 7.65466 0.495847 7.69491C0.529313 7.77541 0.569473 7.8425 0.623019 7.90288L1.16517 8.47313L1.22541 8.5335L1.2321 8.5268C1.24549 8.50667 1.26557 8.48654 1.28565 8.47313L1.29234 8.46642L1.31242 8.44629C1.32581 8.42616 1.34589 8.41275 1.35927 8.39262C1.37266 8.3792 1.37935 8.37249 1.39274 8.36579C1.40613 8.35908 1.41282 8.34566 1.42621 8.33895L1.43959 8.32553C1.45298 8.31882 1.45967 8.30541 1.47306 8.2987C1.48645 8.28528 1.50653 8.27186 1.51991 8.25845C1.52661 8.25174 1.53999 8.24503 1.54668 8.23832H1.55338C1.57346 8.2249 1.58684 8.21148 1.60692 8.19807C1.62031 8.19136 1.627 8.18465 1.64039 8.17123C1.66047 8.15781 1.67386 8.1444 1.69394 8.13098C1.70732 8.12427 1.71402 8.11756 1.7274 8.11085C1.74748 8.09744 1.76756 8.08402 1.78764 8.07731C1.80103 8.0706 1.80772 8.06389 1.82111 8.05718C1.84119 8.04377 1.86127 8.03706 1.88135 8.02364C1.89473 8.01693 1.90143 8.01022 1.91481 8.00351L1.9282 7.9968C1.94828 7.99009 1.96167 7.97668 1.98175 7.96997C1.98844 7.96326 2.00182 7.96326 2.00852 7.95655C2.0219 7.94984 2.03529 7.94313 2.05537 7.93643L2.09553 7.9163L2.10892 7.90959L2.20932 7.86934C2.2227 7.86263 2.22939 7.86263 2.24278 7.85592C2.25617 7.84921 2.26286 7.84921 2.27625 7.8425L2.28963 7.83579C2.29633 7.83579 2.30302 7.82908 2.30971 7.82908C2.3231 7.82238 2.33649 7.82238 2.35657 7.81567H2.36995C2.39003 7.80896 2.40342 7.80896 2.4235 7.80225C2.43689 7.79554 2.45696 7.79554 2.47035 7.78883C2.49043 7.78212 2.51051 7.78212 2.53059 7.77541C2.53728 7.77541 2.54398 7.76871 2.55736 7.76871C2.56406 7.76871 2.57744 7.76871 2.58414 7.762C2.60422 7.75529 2.6243 7.75529 2.64438 7.75529C2.66445 7.75529 2.67784 7.74858 2.69792 7.74858C2.71131 7.74858 2.72469 7.74187 2.73808 7.74187H2.79163C2.85856 7.74187 2.93888 7.74187 3.0192 7.74858H3.03258C3.1129 7.75529 3.20661 7.76871 3.30031 7.78883C3.32039 7.79554 3.34716 7.79554 3.36724 7.80225C3.37394 7.79554 3.37394 7.78212 3.38063 7.77541C3.43418 7.6882 3.48103 7.59428 3.53457 7.50706C3.83577 7.00391 4.15705 6.56113 4.48501 6.17202C4.5988 6.03785 4.71258 5.91709 4.82637 5.79633C5.30159 5.29988 5.77681 4.91748 6.20518 4.6223C6.29888 4.55521 6.39928 4.49483 6.48629 4.43445C6.61346 4.35395 6.73394 4.28686 6.84773 4.21977C6.94143 4.1661 7.02844 4.11914 7.11546 4.07889C7.25601 4.00509 7.38318 3.94471 7.49697 3.89775L7.59737 3.8575C7.64422 3.83737 7.69107 3.81725 7.73123 3.80383C7.69777 3.79712 7.65761 3.79712 7.62414 3.79712H7.49028C7.45681 3.79712 7.41665 3.79712 7.38318 3.80383C7.31625 3.81054 7.24263 3.81725 7.169 3.82395C7.14223 3.83066 7.12215 3.83066 7.09538 3.83737C7.27609 3.74345 7.45681 3.67636 7.62414 3.62269C7.73793 3.58915 7.85171 3.56231 7.9588 3.54219C8.10605 3.51535 8.24661 3.49522 8.37378 3.48852C8.4608 3.48181 8.54111 3.48181 8.61474 3.48181C8.68836 3.48181 8.76199 3.48852 8.82223 3.48852C9.04311 3.50193 9.17697 3.53548 9.17697 3.53548C9.14351 3.48852 9.10334 3.45497 9.06319 3.42143C8.98287 3.36105 8.89585 3.3208 8.81554 3.28725C8.78207 3.27384 8.7553 3.26713 8.72852 3.25371C8.70844 3.247 8.68837 3.24029 8.67498 3.24029C8.71514 3.23358 8.7486 3.22687 8.78207 3.22687C8.82223 3.22017 8.8557 3.22017 8.89585 3.21346C9.21044 3.18662 9.49155 3.21346 9.69904 3.247C9.94669 3.29396 10.1006 3.35434 10.1006 3.35434C10.0672 3.28725 10.0136 3.22687 9.95339 3.1732C9.91323 3.13966 9.86637 3.10612 9.82621 3.07928C9.91323 3.09941 9.98685 3.11953 10.0672 3.14637C10.268 3.20675 10.4353 3.28054 10.5692 3.34092L10.6896 3.4013C10.703 3.40801 10.7097 3.41472 10.7164 3.41472C10.8369 3.48181 10.9038 3.52877 10.9038 3.52877C10.8837 3.45497 10.8436 3.38788 10.79 3.32751C10.7767 3.31409 10.7633 3.29396 10.7499 3.28054H10.7566C10.7633 3.28054 10.77 3.28725 10.7833 3.28725C10.79 3.28725 10.8034 3.29396 10.8168 3.30067C10.8704 3.3208 10.9507 3.35434 11.0444 3.4013C11.0511 3.4013 11.0511 3.40801 11.0578 3.40801L11.0979 3.42814C11.1314 3.44826 11.1649 3.46168 11.1983 3.48852L11.2987 3.5489C11.3188 3.56231 11.3322 3.56902 11.3523 3.58244C11.3857 3.60927 11.4259 3.63611 11.4594 3.66965C11.4995 3.7032 11.533 3.73674 11.5665 3.77028L11.5865 3.79041C11.6133 3.81725 11.6401 3.84408 11.6602 3.87092C11.707 3.92459 11.7472 3.98496 11.7873 4.04534C11.8342 4.11914 11.8677 4.20635 11.9011 4.29357C11.9011 4.30028 11.9011 4.30698 11.9078 4.30698C11.9279 4.28686 11.9681 4.24661 12.0149 4.19294C12.4031 3.73674 13.5677 2.26081 12.8649 1.36184Z" fill="#132134"/>
<path d="M14.5968 12.3838C14.5968 12.3838 14.6101 12.2832 14.5566 12.1893C14.5566 12.1826 14.5499 12.1758 14.5499 12.1758L14.5432 12.1691L14.5231 12.149C14.5098 12.1356 14.4964 12.1222 14.4763 12.1088C14.4696 12.1021 14.4562 12.0953 14.4428 12.0886C14.4094 12.0752 14.3759 12.0618 14.329 12.0551C14.2956 12.0484 14.2621 12.0484 14.2219 12.0484H14.1684V12.0618C14.1684 12.0685 14.1751 12.0752 14.1751 12.0886C14.1751 12.0953 14.1751 12.1021 14.1818 12.1021C14.1885 12.1222 14.1952 12.1557 14.2019 12.1826C14.2019 12.1826 14.2019 12.1893 14.1952 12.2027V12.2094C14.1751 12.2564 14.1215 12.3637 14.0011 12.4979C13.981 12.5247 13.9609 12.5448 13.9341 12.5717C13.5995 12.9205 12.8766 13.4103 11.3505 13.6853C10.8352 13.7591 10.3533 13.7658 9.95166 13.7122C9.34927 13.6384 8.90082 13.4438 8.68664 13.1822C8.66656 13.162 8.65317 13.1352 8.63309 13.1151C8.61971 13.0949 8.61301 13.0815 8.59963 13.0614C8.59293 13.0547 8.59293 13.048 8.58624 13.0413C8.49923 12.8803 8.45907 12.7058 8.45907 12.5381C8.45907 12.3302 8.526 12.1356 8.63309 11.988C8.72011 11.8672 8.83389 11.7733 8.97445 11.7331C9.04138 11.7129 9.11501 11.6995 9.18863 11.7062C9.20202 11.7062 9.2221 11.7062 9.24887 11.7129C9.29572 11.7197 9.36935 11.7264 9.45636 11.7398C9.46305 11.7398 9.47644 11.7398 9.48313 11.7465C9.77094 11.78 10.2261 11.827 10.7749 11.7935C11.7789 11.7331 13.0975 11.4178 14.2956 10.3309V10.3242C14.3023 10.2303 14.2889 10.0693 14.1751 9.94183C14.155 9.92171 14.1349 9.90158 14.1082 9.88145C14.0948 9.86804 14.0747 9.86133 14.0613 9.84791C14.0412 9.8412 14.0278 9.82778 14.0145 9.82107L13.9542 9.78082V9.77411C13.9475 9.76069 13.9408 9.74728 13.9274 9.73386C13.6196 9.26425 13.1912 8.98919 13.0172 8.86172C12.9368 8.80134 12.8833 8.77451 12.8833 8.77451C12.5152 8.54641 12.4616 8.47261 12.4951 7.86212C12.5085 7.64073 12.5286 7.35225 12.5553 6.95643C12.5553 6.90276 12.562 6.8558 12.562 6.80884V6.7753V6.61429C12.562 6.58074 12.5553 6.5472 12.5553 6.52036C12.5553 6.50695 12.5553 6.49353 12.5486 6.48011C12.5419 6.44657 12.5419 6.41302 12.5352 6.37948C12.5352 6.36606 12.5286 6.34594 12.5286 6.33252C12.5286 6.31239 12.5219 6.29897 12.5152 6.27885C12.5085 6.26543 12.5085 6.2453 12.5018 6.23189C12.4951 6.21176 12.4884 6.19163 12.4884 6.17151C12.4884 6.1648 12.4817 6.15809 12.4817 6.15138C12.4817 6.14467 12.475 6.13796 12.475 6.13126V6.12455L12.4683 6.10442C12.4616 6.091 12.4549 6.07759 12.4549 6.06417V6.05746L12.4482 6.04404L12.4415 6.03062C12.4282 6.00379 12.4215 5.97695 12.4081 5.95683L12.4014 5.9367C12.388 5.91658 12.3746 5.88974 12.3612 5.86961L12.3545 5.86291L12.3478 5.8562C12.3345 5.84278 12.3278 5.82936 12.3144 5.81594L12.301 5.79582C12.2876 5.77569 12.2742 5.76227 12.2608 5.74886V5.69519C12.2541 5.66835 12.2474 5.63481 12.2407 5.60126C12.2407 5.59455 12.2341 5.58114 12.2341 5.57443V5.56772C12.2341 5.5543 12.2274 5.54759 12.2274 5.53418C12.2207 5.50734 12.214 5.48051 12.2006 5.45367C12.2006 5.44696 12.1939 5.43354 12.1939 5.42684L12.1738 5.36646C12.1671 5.35304 12.1671 5.33962 12.1604 5.33291C12.1537 5.31279 12.147 5.29266 12.1337 5.27253L12.1136 5.23228C12.1069 5.21216 12.0935 5.19203 12.0868 5.1719L12.0667 5.13165C12.0533 5.11152 12.0466 5.0914 12.0333 5.07127L12.0132 5.03102C11.9998 5.01089 11.9864 4.99077 11.973 4.96393C11.9663 4.95051 11.9596 4.9438 11.9529 4.93039C11.9462 4.92368 11.9396 4.91026 11.9329 4.90355C11.9128 4.88343 11.8994 4.8633 11.8793 4.84317L11.8659 4.83646C11.8392 4.80963 11.8191 4.78279 11.7923 4.76267L11.7856 4.75596C11.7722 4.74925 11.7588 4.73583 11.7521 4.72912H11.7454C11.7321 4.72242 11.7254 4.71571 11.712 4.709L11.7053 4.70229C11.6919 4.69558 11.6718 4.68216 11.645 4.66875C11.6384 4.66204 11.625 4.66204 11.6116 4.65533C11.5513 4.6352 11.4777 4.60837 11.384 4.58153C11.3773 4.58153 11.3706 4.58153 11.3639 4.57482C11.2903 4.5547 11.2033 4.53457 11.1096 4.52115C11.0761 4.51444 11.0494 4.51444 11.0159 4.50774C11.0025 4.50774 10.9891 4.50774 10.969 4.50103H10.949C10.8753 4.49432 10.8084 4.48761 10.7348 4.48761H10.7281C10.6344 4.48761 10.5407 4.49432 10.4537 4.51444C10.4737 4.4809 10.534 4.44065 10.5875 4.4071C10.6611 4.36685 10.7281 4.34002 10.7281 4.34002C10.6879 4.34002 10.6478 4.34673 10.6076 4.35343C10.5942 4.35343 10.5808 4.36014 10.5674 4.36014C10.5607 4.36014 10.5474 4.36014 10.5407 4.36685H10.534C10.5273 4.36685 10.5206 4.36685 10.5139 4.37356C10.3064 4.42052 10.1056 4.49432 9.99182 4.54128L9.95166 4.56141H9.94497C9.93158 4.56141 9.92489 4.56141 9.9115 4.56811C9.99182 4.41381 10.1123 4.33331 10.206 4.29306C10.2194 4.28635 10.2395 4.27964 10.2529 4.27293C10.2595 4.27293 10.2595 4.27293 10.2662 4.26622C10.2796 4.25951 10.293 4.25951 10.2997 4.2528C10.3198 4.24609 10.3332 4.24609 10.3332 4.24609H10.2261C9.99851 4.27293 9.79102 4.34673 9.617 4.44736C9.49652 4.51444 9.38943 4.58824 9.29572 4.66204C9.26895 4.66875 9.24887 4.67545 9.2221 4.67545C8.96776 4.72912 8.67995 4.79621 8.37875 4.89013C8.26497 4.92368 8.15118 4.96393 8.0374 5.00418C7.95038 5.03773 7.85668 5.07127 7.76967 5.10482C7.70273 5.13165 7.6425 5.15849 7.57556 5.18532C7.11373 5.39329 6.6519 5.66835 6.27038 6.03733L6.23022 6.07759L6.12983 6.17822L6.08967 6.21847C6.07628 6.2386 6.0562 6.25872 6.04281 6.27214C5.96919 6.35264 5.90226 6.43986 5.83532 6.53378C5.78847 6.60087 5.74162 6.67467 5.70146 6.74846L5.69477 6.75517C5.60775 6.90947 5.52743 7.07048 5.4672 7.25162C5.43373 7.33883 5.40696 7.43276 5.38018 7.52668C5.37349 7.55351 5.3668 7.57364 5.3601 7.60047L5.35341 7.61389C5.32664 7.71452 5.30656 7.82186 5.29317 7.9292C5.29317 7.94933 5.28648 7.96946 5.28648 7.99629C5.27978 8.04996 5.27309 8.10363 5.27309 8.16401C5.2664 8.21768 5.2664 8.26464 5.2664 8.31831V8.52628C5.2664 8.58666 5.2664 8.64704 5.27309 8.70742V8.71413C5.27309 8.77451 5.27978 8.83489 5.28648 8.90197C5.28648 8.92881 5.29317 8.95564 5.29317 8.98248V9.0026C5.29317 9.01602 5.29317 9.02944 5.29986 9.04957C5.30656 9.11665 5.31994 9.19045 5.32664 9.26425C5.32664 9.28437 5.33333 9.3045 5.33333 9.32463C5.34672 9.385 5.35341 9.45209 5.3668 9.51247C5.3668 9.51247 5.35341 9.43197 5.3601 9.31121C5.3601 9.28437 5.3668 9.25083 5.3668 9.22399C5.37349 9.15691 5.38688 9.0764 5.41365 9.0026L5.43373 8.94223C5.43373 8.93552 5.44042 8.92881 5.44712 8.91539C5.4605 8.88185 5.48058 8.8416 5.50066 8.80805C5.50735 8.83489 5.50735 8.86172 5.51405 8.88185V9.23741C5.52074 9.46551 5.54082 9.74057 5.58767 9.97538C5.58767 9.97538 5.59437 9.55272 5.66799 9.49905C5.66799 9.49905 5.79516 10.2907 5.90895 10.5859C5.92234 10.6261 5.94241 10.653 5.9558 10.6731V10.5926L5.94241 10.1565V10.1096C6.02943 10.2907 6.12983 10.4718 6.24361 10.6664C6.27708 10.72 6.30385 10.7737 6.33732 10.8274C6.12313 11.0152 5.92234 11.2903 5.77508 11.6123C5.755 11.666 5.72823 11.7197 5.70815 11.7733C5.69477 11.8069 5.68807 11.8337 5.67469 11.8672C5.67469 11.874 5.66799 11.8874 5.66799 11.8941C5.6613 11.9142 5.65461 11.941 5.64791 11.9612C5.64791 11.9746 5.64122 11.9813 5.64122 11.9947C5.63453 12.0148 5.62783 12.0417 5.62114 12.0618C5.62114 12.0752 5.61445 12.0819 5.61445 12.0953L5.59437 12.196C5.58767 12.2295 5.58098 12.2631 5.58098 12.2966C5.58098 12.31 5.58098 12.3167 5.57429 12.3302C5.57429 12.357 5.56759 12.3771 5.56759 12.4039C5.56759 12.4174 5.56759 12.4308 5.5609 12.4442C5.5609 12.471 5.55421 12.4912 5.55421 12.518V12.7528C5.55421 12.7796 5.55421 12.8065 5.5609 12.84V12.8601C5.5609 12.8937 5.56759 12.9272 5.57429 12.9675C5.57429 12.9809 5.57429 12.9876 5.58098 13.001C5.58098 13.0279 5.58767 13.048 5.59437 13.0748C5.59437 13.0882 5.60106 13.1017 5.60106 13.1151C5.60775 13.1352 5.60775 13.162 5.61445 13.1822C5.61445 13.1956 5.62114 13.209 5.62114 13.2224C5.62783 13.2425 5.63453 13.2627 5.63453 13.2895C5.64122 13.3029 5.64122 13.3163 5.64791 13.3365C5.65461 13.3566 5.6613 13.3834 5.66799 13.4036C5.67469 13.417 5.67469 13.4304 5.68138 13.4438C5.68807 13.4639 5.69477 13.4908 5.70146 13.5109C5.70815 13.5243 5.70815 13.5377 5.71484 13.5511C5.72154 13.578 5.73492 13.6048 5.74162 13.6249C5.74831 13.6384 5.74831 13.6451 5.755 13.6585L5.8554 13.8799C5.8621 13.8933 5.86879 13.9 5.87548 13.9134L5.91564 13.9939C5.92234 14.0073 5.92903 14.0208 5.94241 14.0342C5.9558 14.0543 5.96919 14.0811 5.98257 14.1013C5.98927 14.1147 6.00265 14.1281 6.00935 14.1415C6.02273 14.1616 6.03612 14.1885 6.0562 14.2086C6.06959 14.222 6.07628 14.2354 6.08967 14.2556C6.10305 14.2757 6.12313 14.3025 6.13652 14.3227C6.1499 14.3361 6.1566 14.3495 6.16998 14.3696C6.19006 14.3897 6.20345 14.4166 6.22353 14.4367C6.23692 14.4501 6.24361 14.4635 6.257 14.477C6.27708 14.5038 6.29716 14.5239 6.32393 14.5508L6.3574 14.5843C6.39086 14.6178 6.42433 14.6581 6.45779 14.6916C6.45779 14.6916 6.43771 14.6648 6.41094 14.6111C6.40425 14.6044 6.39755 14.591 6.39755 14.5776L6.37747 14.5373C6.37078 14.5239 6.36409 14.5105 6.3574 14.4904C6.30385 14.3696 6.257 14.1952 6.26369 14.0073L6.32393 14.0878C6.34401 14.1348 6.37747 14.1952 6.41094 14.2623C6.42433 14.2824 6.43771 14.3092 6.44441 14.3294C6.49795 14.4233 6.5515 14.5306 6.61843 14.6313C6.69875 14.7587 6.77907 14.8795 6.86608 14.9935C6.86608 14.9935 6.76568 14.7788 6.73222 14.638C6.72552 14.5977 6.71883 14.5642 6.72552 14.544C6.73222 14.5508 6.73891 14.5642 6.7523 14.5709C6.75899 14.5776 6.76568 14.591 6.77907 14.5977C6.79246 14.6178 6.81253 14.6447 6.83931 14.6782L6.85269 14.6916C6.86608 14.7051 6.87277 14.7252 6.88616 14.7386C6.89955 14.7587 6.91293 14.7788 6.93301 14.799C7.07357 14.9801 7.26767 15.2216 7.40154 15.3491C7.44839 15.3893 7.48855 15.4229 7.51532 15.4363L7.32122 15.0875C7.76297 15.4497 9.59692 15.9126 11.3974 15.3961C11.6183 15.3357 11.8325 15.2552 12.0466 15.1612C12.1738 15.1076 12.301 15.0405 12.4282 14.9734L12.4482 14.96C12.5352 14.913 12.6223 14.8594 12.7093 14.8057C12.7762 14.7654 12.8431 14.7185 12.9034 14.6782C13.0105 14.6044 13.1176 14.5239 13.2247 14.4367C13.2313 14.43 13.238 14.4233 13.2447 14.4233C13.3451 14.3361 13.4455 14.2421 13.5325 14.1482C13.653 14.0208 13.7601 13.8933 13.8538 13.7658L13.8605 13.7591C13.8873 13.7256 13.9074 13.6987 13.9274 13.6652L13.9341 13.6585C13.9408 13.6451 13.9475 13.6384 13.9542 13.6249C13.9877 13.578 14.0145 13.5377 14.0479 13.4908C14.0546 13.4773 14.0613 13.4706 14.068 13.4572C14.0814 13.4304 14.0948 13.4103 14.1149 13.3834C14.1282 13.3633 14.1349 13.3499 14.1483 13.3298C14.1617 13.3096 14.1751 13.2895 14.1818 13.2694C14.2019 13.2358 14.2219 13.1956 14.242 13.162L14.2621 13.1218L14.3023 13.0413L14.3223 13.001L14.329 12.9876C14.3424 12.9541 14.3625 12.9205 14.3759 12.887V12.8803C14.4361 12.8266 14.4763 12.7729 14.5164 12.726C14.5231 12.7193 14.5298 12.7126 14.5298 12.7058C14.57 12.5784 14.5968 12.4777 14.5968 12.3838ZM3.82735 11.0823C3.82735 11.0756 3.82735 11.0689 3.82066 11.0555C3.80058 10.9414 3.7805 10.8207 3.77381 10.6999V10.6731C3.75373 10.6798 3.73365 10.7066 3.70688 10.7402C3.70018 10.7536 3.6868 10.767 3.6801 10.7871C3.61986 10.9012 3.56632 11.0622 3.56632 11.0622C3.57301 11.0085 3.5797 10.9549 3.5797 10.9012V10.8811C3.5864 10.8274 3.59309 10.767 3.59978 10.7133V10.6932C3.60648 10.6261 3.61986 10.5657 3.63325 10.5054C3.63325 10.4987 3.63325 10.492 3.63994 10.4785V10.4718C3.63994 10.4651 3.63994 10.4584 3.64664 10.4517C3.64664 10.4383 3.65333 10.4316 3.65333 10.4182C3.66002 10.3712 3.67341 10.3242 3.6801 10.2773C3.6868 10.237 3.69349 10.1968 3.70018 10.1632V10.1498C3.70018 10.1431 3.70018 10.1364 3.70688 10.1364V10.123C3.70688 10.1163 3.71357 10.1028 3.71357 10.0961C3.71357 10.0894 3.71357 10.0827 3.72026 10.076C3.72026 10.0626 3.72695 10.0492 3.72695 10.0425C3.72695 10.0358 3.73365 10.0223 3.73365 10.0156C3.73365 10.0022 3.74034 9.98879 3.74034 9.98208C3.74034 9.97538 3.74034 9.96867 3.74703 9.96196C3.74703 9.95525 3.74703 9.94854 3.75373 9.94854C3.75373 9.93512 3.76042 9.92841 3.76042 9.92171V9.90158L3.74703 9.915C3.73365 9.92171 3.72695 9.93512 3.71357 9.94183L3.70018 9.95525C3.6868 9.96867 3.67341 9.98208 3.66672 9.9955L3.66002 10.0022L3.61986 10.0626L3.61317 10.0693C3.61317 10.076 3.60648 10.076 3.60648 10.0827L3.5864 10.123V10.1364C3.5797 10.1565 3.56632 10.1766 3.55962 10.1968C3.53954 10.2504 3.51946 10.3041 3.50608 10.3511C3.49939 10.3645 3.49938 10.3846 3.49269 10.3913C3.486 10.4182 3.47931 10.445 3.47931 10.4517C3.47931 10.4316 3.47931 10.4182 3.486 10.398C3.486 10.3645 3.49269 10.3242 3.49269 10.2907C3.49269 10.2639 3.49939 10.2303 3.50608 10.2035C3.50608 10.1968 3.50608 10.1833 3.51277 10.1766C3.51277 10.1632 3.51946 10.1498 3.51946 10.1364C3.51946 10.123 3.52616 10.1096 3.52616 10.0961V10.076C3.52616 10.0626 3.53285 10.0425 3.53285 10.029V9.9955V9.98208C3.53285 9.97538 3.53285 9.96867 3.53954 9.96196C3.54624 9.94183 3.55293 9.915 3.55293 9.89487V9.88816C3.55962 9.87474 3.55962 9.85462 3.56632 9.8412V9.83449C3.57301 9.80095 3.5864 9.7674 3.59309 9.73386V9.72044C3.59309 9.71373 3.59309 9.70703 3.59978 9.70032C3.61317 9.64665 3.63325 9.59298 3.64664 9.54602V9.53931C3.66002 9.49905 3.6801 9.45209 3.69349 9.41184V9.40513C3.70018 9.385 3.70688 9.37159 3.71357 9.35146C3.72695 9.32463 3.73365 9.29779 3.74703 9.27096C3.74703 9.26425 3.75373 9.25083 3.76711 9.22399C3.77381 9.21729 3.77381 9.20387 3.7805 9.19716C3.78719 9.18374 3.79389 9.17032 3.80058 9.1502L3.80727 9.13678L3.92106 8.92881C3.92775 8.9221 3.92775 8.90868 3.93444 8.90197V8.89527L3.94114 8.88185C3.95452 8.86172 3.96791 8.83489 3.9813 8.81476C4.00138 8.78122 4.01476 8.74767 4.03484 8.72084C4.06831 8.66046 4.09508 8.60679 4.11516 8.57995C4.12186 8.55983 4.12855 8.55312 4.13524 8.54641C4.12855 8.54641 4.09508 8.51957 4.04154 8.48603C3.9746 8.44578 3.8809 8.39211 3.76711 8.33844C3.72695 8.31831 3.69349 8.30489 3.65333 8.28477C3.60648 8.26464 3.55293 8.24452 3.49938 8.22439C3.486 8.21768 3.47261 8.21768 3.45923 8.21097C3.41237 8.19755 3.37221 8.18414 3.32536 8.17072C3.29189 8.16401 3.25843 8.1573 3.23166 8.15059C3.20488 8.14388 3.17811 8.14388 3.15134 8.13718C3.13795 8.13718 3.12456 8.13718 3.11118 8.13047C3.09779 8.13047 3.0844 8.13047 3.07102 8.12376C3.03755 8.12376 2.99739 8.11705 2.96393 8.11705H2.91038C2.83006 8.11705 2.75644 8.12376 2.68281 8.13718H2.66942C2.53556 8.1573 2.40839 8.19085 2.28122 8.23781C2.24106 8.25122 2.2009 8.27135 2.15405 8.29148C2.14066 8.29819 2.13397 8.30489 2.12058 8.30489L2.08042 8.32502C1.95994 8.3854 1.84616 8.4659 1.73906 8.55312H1.73237C1.63867 8.62691 1.55835 8.71413 1.48472 8.80134L1.42448 8.88185C1.39771 8.91539 1.37763 8.94894 1.35755 8.98248C1.31739 9.04286 1.27723 9.10995 1.24377 9.17703C1.23038 9.20387 1.21699 9.22399 1.2103 9.25083C1.2103 9.25754 1.20361 9.25754 1.20361 9.26425C1.13667 9.42526 1.08313 9.59298 1.06305 9.77411C1.05636 9.80766 1.05636 9.8412 1.04966 9.88145V9.89487C1.04966 9.92171 1.04297 9.94854 1.04297 9.98208V10.1028C1.04297 10.1297 1.04297 10.1565 1.04966 10.1833V10.2169C1.04966 10.237 1.05636 10.2571 1.05636 10.2773V10.284C1.05636 10.2974 1.05636 10.3041 1.06305 10.3175C1.06305 10.3376 1.06974 10.3578 1.06974 10.3712C1.06974 10.3846 1.07643 10.398 1.07643 10.4114C1.08313 10.4316 1.08313 10.445 1.08982 10.4651C1.08982 10.4785 1.09651 10.492 1.10321 10.5054V10.5121L1.1099 10.5255V10.5389L1.11659 10.5523C1.12329 10.5657 1.12329 10.5792 1.12998 10.5926C1.13667 10.606 1.13667 10.6261 1.14337 10.6395C1.15006 10.653 1.15675 10.6664 1.15675 10.6865L1.16345 10.6999C1.17014 10.7133 1.17014 10.72 1.17683 10.7335C1.18353 10.7469 1.19022 10.7603 1.19691 10.7804L1.21699 10.8207C1.22369 10.8274 1.22369 10.8341 1.23038 10.8408C1.23707 10.8475 1.23707 10.8542 1.24377 10.8609L1.26385 10.9012C1.27054 10.9146 1.27723 10.9347 1.29062 10.9481C1.29731 10.9616 1.304 10.975 1.3107 10.9817C1.31739 10.9951 1.33078 11.0152 1.33747 11.0287C1.34416 11.0421 1.35086 11.0488 1.35755 11.0622C1.36424 11.0756 1.37763 11.0957 1.39102 11.1092C1.39771 11.1226 1.4044 11.1293 1.4111 11.136C1.42448 11.1494 1.43118 11.1695 1.44456 11.183C1.45126 11.1897 1.45795 11.2031 1.46464 11.2098C1.47803 11.2232 1.49142 11.2433 1.5048 11.2567C1.51149 11.2635 1.51819 11.2702 1.52488 11.2836C1.53827 11.297 1.55165 11.3171 1.56504 11.3305L1.58512 11.3507C1.59851 11.3641 1.61189 11.3842 1.63197 11.3976L1.65205 11.4178L1.69891 11.4647C1.7056 11.4714 1.71229 11.4781 1.71899 11.4781C1.73237 11.4916 1.75245 11.505 1.77253 11.5251C1.77922 11.5318 1.78592 11.5318 1.79261 11.5385C1.81269 11.5519 1.82608 11.5654 1.84616 11.5788C1.85285 11.5855 1.85954 11.5855 1.85954 11.5922L1.91978 11.6324L1.93317 11.6391L1.99341 11.6794L2.00679 11.6861C2.02687 11.6995 2.05365 11.7129 2.07373 11.7264L2.08711 11.7331C2.10719 11.7465 2.13397 11.7599 2.15405 11.7666L2.16743 11.7733C2.1942 11.7867 2.21428 11.7934 2.24106 11.8069L2.24775 11.8136C2.27452 11.827 2.3013 11.8337 2.32138 11.8471H2.32807C2.35484 11.8538 2.38162 11.8672 2.40839 11.874H2.41508C2.42847 11.8807 2.44185 11.8807 2.45524 11.8874C2.46863 11.8941 2.48201 11.8941 2.50209 11.9008H2.50879C2.53556 11.9075 2.56903 11.9142 2.5958 11.9209C2.62257 11.9276 2.65604 11.9343 2.68281 11.9343C2.77652 11.9478 2.87022 11.9545 2.96393 11.9612H3.03086C3.06432 11.9612 3.0911 11.9612 3.12456 11.9545C3.16472 11.9478 3.21158 11.9478 3.25843 11.941C3.29859 11.9343 3.33875 11.9276 3.37221 11.9209C3.43245 11.9075 3.49269 11.8941 3.54624 11.874C3.72026 11.827 3.86751 11.7599 3.96122 11.6861C3.96122 11.6861 3.90098 11.4178 3.85413 11.1494C3.84074 11.136 3.83405 11.1092 3.82735 11.0823Z" fill="#90694C"/>
<path d="M8.12725 1.11446L8.10717 0.846114L8.24104 0.550928L8.29458 0.537511C8.20757 0.497258 8.10048 0.470423 7.98 0.450297C7.73904 0.416753 7.43116 0.450297 7.08311 0.537511C6.73506 0.624725 6.34016 0.779026 5.92518 0.986998C5.08852 1.40294 4.16486 2.04027 3.26796 2.85874C2.95338 3.14051 2.66557 3.4357 2.39784 3.72417C2.13681 4.00594 1.90255 4.29442 1.68836 4.56948C1.2533 5.13972 0.925333 5.68984 0.71115 6.18629C0.570592 6.51502 0.48358 6.81691 0.450114 7.07855C0.423341 7.2664 0.430034 7.43412 0.4635 7.56829C0.476887 7.61525 0.490273 7.6488 0.50366 7.68905C0.537126 7.76956 0.577285 7.83664 0.630831 7.89702L1.17298 8.46727L1.23322 8.52765L1.23992 8.52094C1.2533 8.50081 1.27338 8.48068 1.29346 8.46727L1.30015 8.46056L1.32023 8.44043C1.33362 8.42031 1.3537 8.40689 1.36709 8.38676C1.38047 8.37334 1.38717 8.36663 1.40055 8.35993C1.41394 8.35322 1.42063 8.3398 1.43402 8.33309L1.44741 8.31967C1.46079 8.31296 1.46749 8.29955 1.48087 8.29284C1.49426 8.27942 1.51434 8.266 1.52772 8.25259C1.53442 8.24588 1.5478 8.23917 1.5545 8.23246H1.56119C1.58127 8.21904 1.59466 8.20562 1.61474 8.19221C1.62812 8.1855 1.63482 8.17879 1.6482 8.16537C1.66828 8.15195 1.68167 8.13854 1.70175 8.12512C1.71513 8.11841 1.72183 8.1117 1.73521 8.10499C1.75529 8.09158 1.77537 8.07816 1.79545 8.07145C1.80884 8.06474 1.81553 8.05803 1.82892 8.05132C1.849 8.03791 1.86908 8.0312 1.88916 8.01778C1.90255 8.01107 1.90924 8.00436 1.92262 7.99765L1.93601 7.99094C2.06318 7.63538 2.25729 7.23956 2.51163 6.83704C2.81952 6.34059 3.21442 5.81731 3.68295 5.29402C3.97745 4.96529 4.29872 4.63656 4.64677 4.32125C5.09522 3.91202 5.55705 3.54304 6.01219 3.22102C6.32008 3.00634 6.62127 2.81178 6.91578 2.64406C6.94255 2.63064 6.96932 2.61052 7.00279 2.5971C7.08311 2.55014 7.15673 2.50989 7.23705 2.46963C7.40438 2.38242 7.57171 2.30191 7.73235 2.23483L7.65203 2.1409L7.63865 2.12749L7.53825 2.01344L6.98271 1.34256L6.9894 0.859531L6.98271 0.852823L7.37761 0.732065L8.12725 1.11446Z" fill="#2F83C1"/>
<path d="M14.5992 12.3841C14.5992 12.3841 14.6126 12.2835 14.559 12.1896C14.559 12.1829 14.5523 12.1761 14.5523 12.1761L14.5456 12.1694L14.5256 12.1493C14.5122 12.1359 14.4988 12.1225 14.4787 12.1091C14.472 12.1024 14.4586 12.0956 14.4452 12.0889C14.4118 12.0755 14.3783 12.0621 14.3315 12.0554C14.298 12.0487 14.2645 12.0487 14.2244 12.0487H14.1708V12.0621C14.1708 12.0688 14.1775 12.0755 14.1775 12.0889C14.1775 12.0956 14.1775 12.1024 14.1842 12.1024C14.1909 12.1225 14.1976 12.156 14.2043 12.1829C14.2043 12.1829 14.2043 12.1896 14.1976 12.203V12.2097C14.1775 12.2567 14.124 12.364 14.0035 12.4982C13.9834 12.525 13.9633 12.5451 13.9366 12.572C13.6019 12.9208 12.879 13.4106 11.353 13.6856C10.8376 13.7594 10.3557 13.7661 9.95408 13.7125C9.35169 13.6387 8.90324 13.4441 8.68906 13.1825C8.66898 13.1623 8.65559 13.1355 8.63551 13.1154C8.62212 13.0952 8.61543 13.0818 8.60204 13.0617C8.59535 13.055 8.59535 13.0483 8.58866 13.0416C8.50164 12.8806 8.46149 12.7061 8.46149 12.5384C8.46149 12.3304 8.52842 12.1359 8.63551 11.9883C8.72252 11.8675 8.83631 11.7736 8.97686 11.7334C9.0438 11.7132 9.11742 11.6998 9.19105 11.7065C9.20443 11.7065 9.22451 11.7065 9.25129 11.7132C9.29814 11.72 9.37177 11.7267 9.45878 11.7401C9.46547 11.7401 9.47886 11.7401 9.48555 11.7468C9.77336 11.7803 10.2285 11.8273 10.7773 11.7937C11.7813 11.7334 13.0999 11.4181 14.298 10.3312V10.3245C14.3047 10.2306 14.2913 10.0696 14.1775 9.94213C14.1574 9.922 14.1373 9.90188 14.1106 9.88175C14.0972 9.86833 14.0771 9.86163 14.0637 9.84821C14.0436 9.8415 14.0303 9.82808 14.0169 9.82137L13.9566 9.78112V9.77441C13.9499 9.76099 13.9432 9.74758 13.9299 9.73416C13.622 9.26455 13.1936 8.98949 13.0196 8.86202C12.9393 8.80164 12.8857 8.77481 12.8857 8.77481C12.5176 8.54671 12.464 8.47291 12.4975 7.86241C12.5109 7.64103 12.531 7.35255 12.5577 6.95673C12.5577 6.90306 12.5644 6.8561 12.5644 6.80914V6.7756V6.61459C12.5644 6.58104 12.5577 6.5475 12.5577 6.52066C12.5577 6.50724 12.5577 6.49383 12.5511 6.48041C12.5444 6.44687 12.5444 6.41332 12.5377 6.37978C12.5377 6.36636 12.531 6.34624 12.531 6.33282C12.531 6.31269 12.5243 6.29927 12.5176 6.27915C12.5109 6.26573 12.5109 6.2456 12.5042 6.23219C12.4975 6.21206 12.4908 6.19193 12.4908 6.17181C12.4908 6.1651 12.4841 6.15839 12.4841 6.15168C12.4841 6.14497 12.4774 6.13826 12.4774 6.13155V6.12485L12.4707 6.10472C12.464 6.0913 12.4573 6.07788 12.4573 6.06447V6.05776L12.4507 6.04434L12.444 6.03092C12.4306 6.00409 12.4239 5.97725 12.4105 5.95713L12.4038 5.937C12.3904 5.91687 12.377 5.89004 12.3636 5.86991L12.3569 5.8632L12.3503 5.8565C12.3369 5.84308 12.3302 5.82966 12.3168 5.81624L12.3034 5.79612C12.29 5.77599 12.2766 5.76257 12.2632 5.74916L12.2097 5.69549C12.1896 5.68207 12.1695 5.66865 12.1495 5.66194C12.1428 5.65523 12.1361 5.65523 12.1294 5.65523L12.0892 5.63511C12.0825 5.63511 12.0758 5.6284 12.0691 5.6284C12.0558 5.62169 12.0424 5.62169 12.0357 5.61498C12.029 5.61498 12.0223 5.60827 12.0089 5.60827C11.9955 5.60827 11.9888 5.60156 11.9754 5.60156H11.8282C11.8215 5.60156 11.8148 5.60156 11.8081 5.60827C11.8014 5.60827 11.7947 5.60827 11.788 5.61498C11.7746 5.61498 11.7612 5.62169 11.7412 5.6284H11.7278C11.6876 5.64182 11.6542 5.65523 11.614 5.66865L11.6006 5.67536C11.5872 5.68207 11.5738 5.68878 11.5538 5.69549L11.5337 5.70219L11.4935 5.72232L11.4734 5.73574L11.4333 5.75586L11.4132 5.76928C11.3998 5.77599 11.3864 5.78941 11.373 5.79612L11.3597 5.80283C11.3463 5.81624 11.3262 5.82295 11.3128 5.83637L11.3061 5.84308C11.286 5.8565 11.2726 5.86991 11.2526 5.87662C11.2191 5.89675 11.1856 5.92358 11.1522 5.94371C11.1254 5.96384 11.0986 5.98396 11.0652 6.00409L11.0518 6.0108C11.025 6.03092 10.9915 6.05105 10.9648 6.06447L10.9514 6.07118C10.9246 6.0913 10.8911 6.10472 10.8644 6.12485L10.851 6.13155C10.8242 6.15168 10.7907 6.1651 10.7573 6.17852L10.7439 6.18522C10.7104 6.19864 10.6836 6.21206 10.6502 6.22548L10.6368 6.23219C10.6033 6.2456 10.5699 6.25231 10.5364 6.26573H10.5297C10.4962 6.27244 10.4561 6.27915 10.4226 6.28586C10.3624 6.29256 10.2954 6.29927 10.2352 6.29927C10.1348 6.29927 10.0344 6.29256 9.9273 6.27915L9.8269 6.25902C9.81352 6.25902 9.80013 6.25231 9.79344 6.25231C9.70643 6.23219 9.61272 6.21206 9.52571 6.19193C9.48555 6.18522 9.45208 6.17181 9.41192 6.1651C9.35169 6.15168 9.29145 6.13826 9.22451 6.12485C9.21113 6.12485 9.19774 6.11814 9.19105 6.11814C9.18435 6.11814 9.17097 6.11143 9.16427 6.11143C9.15089 6.11143 9.1375 6.10472 9.12412 6.10472C9.11073 6.10472 9.09734 6.09801 9.08396 6.09801H9.07057C9.05718 6.09801 9.0438 6.0913 9.0371 6.0913C9.01033 6.08459 8.98356 6.07788 8.95009 6.07788C8.9434 6.07788 8.93001 6.07788 8.92332 6.07118C8.90324 6.07118 8.88316 6.06447 8.86308 6.06447C8.84969 6.06447 8.843 6.06447 8.82961 6.05776C8.80953 6.05776 8.79615 6.05105 8.77607 6.05105H8.46818C8.43471 6.05105 8.40794 6.05776 8.37447 6.05776H8.3477C8.32762 6.05776 8.30754 6.06447 8.28746 6.06447H8.28077C8.26738 6.06447 8.26069 6.07118 8.2473 6.07118C8.22722 6.07788 8.20714 6.07788 8.18706 6.08459C8.17368 6.08459 8.16029 6.0913 8.1536 6.0913C8.13352 6.09801 8.11344 6.10472 8.09336 6.10472C8.07997 6.10472 8.07328 6.11143 8.05989 6.11814C8.03981 6.12485 8.01304 6.13155 7.99296 6.13826C7.97957 6.14497 7.97288 6.14497 7.96619 6.15168C7.93272 6.1651 7.89925 6.17852 7.87248 6.19193C7.61814 6.33953 7.39726 6.54079 7.22993 6.76889C7.16969 6.84939 7.11615 6.9299 7.06929 7.0104C7.01575 7.09762 6.97559 7.19154 6.93543 7.28546C6.92204 7.3123 6.91535 7.33913 6.90196 7.36597C6.88858 7.41293 6.8685 7.45989 6.85511 7.50685C6.85511 7.51356 6.85511 7.52027 6.84842 7.52027C6.83503 7.57394 6.82164 7.62761 6.80826 7.68799C6.79487 7.74837 6.78818 7.80204 6.78148 7.86241C6.77479 7.89596 6.77479 7.92279 6.77479 7.95634C6.7681 8.04355 6.7681 8.12406 6.77479 8.21127V8.2314C6.77479 8.25152 6.77479 8.27165 6.78148 8.29848C6.78818 8.35886 6.79487 8.41924 6.80826 8.47962C6.81495 8.49975 6.82164 8.51987 6.82164 8.54671C6.82834 8.56683 6.82834 8.58696 6.83503 8.60709C6.87519 8.76139 6.93543 8.90227 7.00905 9.02303C7.28348 9.49935 7.73862 9.78783 8.07328 9.94213C8.20045 9.9958 8.33431 10.0495 8.47487 10.0964L8.46149 10.1098C8.43471 10.1166 8.40794 10.1233 8.37447 10.13C8.32762 10.1434 8.26738 10.1635 8.20714 10.1836C8.14021 10.2038 8.05989 10.2373 7.97957 10.2709C7.76539 10.3581 7.52443 10.4855 7.31025 10.66C7.28348 10.6801 7.2567 10.7069 7.22993 10.7271C7.18308 10.7673 7.14292 10.8076 7.10276 10.8545L7.08937 10.8679L7.06929 10.8881C7.05591 10.9082 7.03583 10.9216 7.02244 10.9417L7.00236 10.9619C6.98228 10.9887 6.9622 11.0155 6.94881 11.0424C6.92874 11.0692 6.91535 11.096 6.89527 11.1229C6.7681 11.3443 6.69447 11.6126 6.71455 11.9346V11.9212C6.71455 11.9145 6.71455 11.9078 6.72124 11.9011V11.8944C6.72124 11.8877 6.72794 11.881 6.72794 11.8675V11.8608C6.72794 11.8541 6.73463 11.8407 6.73463 11.8273C6.73463 11.8139 6.74132 11.8072 6.74802 11.7937V11.787C6.75471 11.7736 6.75471 11.7602 6.7614 11.7468V11.7401C6.7681 11.7267 6.7681 11.7132 6.77479 11.6998V11.6931C6.78148 11.6797 6.78818 11.6663 6.79487 11.6462L6.80156 11.6394C6.80826 11.626 6.81495 11.6059 6.82834 11.5925C6.84172 11.5657 6.85511 11.5455 6.8685 11.5187C6.87519 11.512 6.88188 11.4986 6.88858 11.4919L6.89527 11.4851L6.93543 11.4248C6.94881 11.4113 6.9622 11.3912 6.97559 11.3778L6.98897 11.3644C7.00236 11.351 7.00905 11.3376 7.02244 11.3308L7.03583 11.3174C7.04921 11.304 7.06929 11.2906 7.08268 11.2705C7.08268 11.2705 6.79487 11.9279 6.92204 12.4445V12.4378V12.4244V12.4042V12.3774V12.3439C6.92204 12.3304 6.92204 12.317 6.92873 12.3036C6.92873 12.2902 6.92873 12.2768 6.93543 12.2634V12.2567C6.93543 12.2432 6.94212 12.2231 6.94212 12.2097V12.1963C6.94881 12.1761 6.94881 12.1627 6.95551 12.1426V12.1359C6.9622 12.1158 6.96889 12.0956 6.96889 12.0822C6.96889 12.0755 6.97559 12.0688 6.97559 12.0621L6.98228 12.0487C6.98897 12.0353 6.99567 12.0151 7.00236 12.0017C7.00905 11.9816 7.02244 11.9615 7.03583 11.9413C7.03583 11.9346 7.04252 11.9279 7.04252 11.9279L7.08268 11.8675C7.08268 11.8675 7.06929 12.0286 7.06929 12.2231C7.06929 12.2567 7.06929 12.2835 7.07599 12.317C7.07599 12.3372 7.07599 12.3573 7.08268 12.3774C7.07599 12.5116 7.07599 12.6458 7.08937 12.7866C7.10945 13.0215 7.16969 13.2764 7.27009 13.538C7.27009 13.538 7.17638 13.2361 7.31025 12.9342L7.35041 13.0147C7.3638 13.102 7.37718 13.2294 7.40395 13.3703C7.43073 13.6051 7.53782 14.3095 8.01973 14.7993C8.01973 14.7993 7.83901 14.5645 7.86579 14.2626C7.88587 14.3028 7.90595 14.3364 7.91933 14.3699C7.99965 14.5242 8.16029 14.806 8.34101 15.0072C8.34101 15.0072 8.20045 14.7322 8.23392 14.6718C8.23392 14.6718 8.70244 15.2555 8.84969 15.3091L8.65559 14.9871L8.6489 14.9804C9.32491 15.4769 10.262 15.658 11.4132 15.336C11.614 15.2823 11.8148 15.2085 12.029 15.1213C12.1561 15.0676 12.2833 15.0005 12.4105 14.9334L12.4306 14.92C12.5176 14.8731 12.6046 14.8194 12.6916 14.7657C12.7585 14.7255 12.8255 14.6785 12.8857 14.6383C12.9928 14.5645 13.0999 14.484 13.207 14.3967C13.2137 14.39 13.2204 14.3833 13.2271 14.3833C13.3275 14.2961 13.4279 14.2022 13.5149 14.1083C13.6354 13.9808 13.7424 13.8533 13.8362 13.7259L13.8428 13.7192C13.8696 13.6856 13.8897 13.6588 13.9098 13.6252L13.9165 13.6185C13.9232 13.6051 13.9299 13.5984 13.9366 13.585C13.97 13.538 13.9968 13.4978 14.0303 13.4508C14.0369 13.4374 14.0436 13.4307 14.0503 13.4173C14.0637 13.3904 14.0771 13.3703 14.0972 13.3435C14.1106 13.3233 14.1173 13.3099 14.1307 13.2898C14.144 13.2697 14.1574 13.2495 14.1641 13.2294C14.1842 13.1959 14.2043 13.1556 14.2244 13.1221L14.2444 13.0818L14.2846 13.0013L14.3047 12.9611L14.3114 12.9477C14.3248 12.9141 14.3448 12.8806 14.3582 12.847V12.8403C14.4185 12.7866 14.4586 12.733 14.4988 12.686C14.5055 12.6793 14.5122 12.6726 14.5122 12.6659C14.5724 12.5787 14.5992 12.478 14.5992 12.3841ZM3.77622 10.6734C3.75614 10.6801 3.73606 10.7069 3.70929 10.7405C3.7026 10.7539 3.68921 10.7673 3.68252 10.7874C3.62228 10.9015 3.56873 11.0625 3.56873 11.0625C3.57543 11.0088 3.58212 10.9552 3.58212 10.9015V10.8814C3.58881 10.8277 3.59551 10.7673 3.6022 10.7136V10.6935C3.60889 10.6264 3.62228 10.566 3.63566 10.5057C3.63566 10.499 3.63566 10.4922 3.64236 10.4788V10.4721C3.64236 10.4654 3.64236 10.4587 3.64905 10.452C3.64905 10.4386 3.65574 10.4319 3.65574 10.4185C3.66244 10.3715 3.67582 10.3245 3.68252 10.2776C3.68921 10.2373 3.6959 10.1971 3.7026 10.1635V10.1501C3.7026 10.1434 3.7026 10.1367 3.70929 10.1367V10.1233C3.70929 10.1166 3.71598 10.1031 3.71598 10.0964C3.71598 10.0897 3.71598 10.083 3.72268 10.0763C3.72268 10.0629 3.72937 10.0495 3.72937 10.0428C3.72937 10.0361 3.73606 10.0226 3.73606 10.0159C3.73606 10.0025 3.74276 9.98909 3.74276 9.98238C3.74276 9.97567 3.74276 9.96897 3.74945 9.96226C3.74945 9.95555 3.74945 9.94884 3.75614 9.94884C3.75614 9.93542 3.76284 9.92871 3.76284 9.922V9.90188L3.74945 9.9153C3.73606 9.922 3.72937 9.93542 3.71598 9.94213L3.7026 9.95555C3.68921 9.96897 3.67582 9.98238 3.66913 9.9958L3.66244 10.0025L3.62228 10.0629L3.61558 10.0696C3.61558 10.0763 3.60889 10.0763 3.60889 10.083L3.58881 10.1233V10.1367C3.58212 10.1568 3.56873 10.1769 3.56204 10.1971C3.54196 10.2507 3.52188 10.3044 3.50849 10.3514C3.5018 10.3648 3.5018 10.3849 3.49511 10.3916C3.48841 10.4185 3.48172 10.4453 3.48172 10.452C3.48172 10.4319 3.48172 10.4185 3.48841 10.3983C3.48841 10.3648 3.49511 10.3245 3.49511 10.291C3.49511 10.2642 3.5018 10.2306 3.50849 10.2038C3.50849 10.1971 3.50849 10.1836 3.51519 10.1769C3.51519 10.1635 3.52188 10.1501 3.52188 10.1367C3.52188 10.1233 3.52857 10.1098 3.52857 10.0964V10.0763C3.52857 10.0629 3.53527 10.0428 3.53527 10.0293V9.9958V9.98238C3.53527 9.97567 3.53527 9.96897 3.54196 9.96226C3.54865 9.94213 3.55535 9.9153 3.55535 9.89517V9.88846C3.56204 9.87504 3.56204 9.85492 3.56873 9.8415V9.83479C3.57543 9.80125 3.58881 9.7677 3.59551 9.73416V9.72074C3.59551 9.71403 3.59551 9.70732 3.6022 9.70062C3.61558 9.64695 3.63566 9.59328 3.64905 9.54631V9.5396C3.66244 9.49935 3.68252 9.45239 3.6959 9.41214V9.40543C3.7026 9.3853 3.70929 9.37189 3.71598 9.35176C3.72937 9.32492 3.73606 9.29809 3.74945 9.27125C3.74945 9.26455 3.75614 9.25113 3.76953 9.22429C3.77622 9.21758 3.77622 9.20417 3.78292 9.19746C3.78961 9.18404 3.7963 9.17062 3.803 9.1505L3.80969 9.13708C3.803 9.13037 3.78961 9.13037 3.78292 9.12366H3.77622L3.76284 9.11695C3.7026 9.09012 3.63566 9.06328 3.56873 9.04316H3.55535C3.50849 9.02974 3.46833 9.02303 3.42148 9.01632C3.39471 9.01632 3.36794 9.00961 3.34116 9.00961H3.27423C3.24076 9.00961 3.2073 9.01632 3.17383 9.01632C3.16045 9.01632 3.15375 9.01632 3.14037 9.02303C3.12698 9.02303 3.1069 9.02974 3.09351 9.02974C3.08682 9.02974 3.08013 9.02974 3.07343 9.03645C3.06005 9.03645 3.05335 9.04316 3.03997 9.04316C3.01989 9.04987 2.99311 9.05657 2.97303 9.06328C2.96634 9.06328 2.95295 9.06999 2.94626 9.06999C2.91949 9.08341 2.88602 9.09012 2.85925 9.10354C2.84586 9.11024 2.83917 9.11695 2.82578 9.11695L2.78562 9.13708L2.77224 9.14379C2.75885 9.1505 2.74546 9.15721 2.73208 9.17062C2.71869 9.17733 2.70531 9.18404 2.69192 9.19746C2.67853 9.20417 2.66515 9.21758 2.65176 9.22429C2.64507 9.231 2.63168 9.23771 2.62499 9.24442C2.60491 9.26455 2.57813 9.28467 2.55805 9.3048L2.52459 9.33834C2.50451 9.35847 2.49112 9.3786 2.47104 9.39872L2.46435 9.40543C2.45766 9.41885 2.44427 9.42556 2.43758 9.43897L2.4175 9.4591C2.38403 9.50606 2.35056 9.55973 2.32379 9.6134C2.3171 9.62011 2.3171 9.62682 2.3104 9.63353C2.29702 9.66036 2.29032 9.6872 2.27694 9.71403C2.27025 9.72745 2.27025 9.73416 2.26355 9.74758C2.25686 9.77441 2.24347 9.80125 2.23678 9.83479V9.86163C2.23009 9.88175 2.23009 9.90188 2.22339 9.922C2.22339 9.93542 2.22339 9.94213 2.2167 9.95555C2.2167 9.96897 2.2167 9.97567 2.21001 9.98909V10.0159C2.21001 10.0495 2.20331 10.083 2.21001 10.1166C2.21001 10.1434 2.21001 10.1702 2.2167 10.1971V10.2105C2.2167 10.2239 2.22339 10.2373 2.22339 10.2507C2.23009 10.3044 2.24347 10.3514 2.25686 10.405C2.27025 10.4453 2.28363 10.4788 2.29702 10.5124C2.32379 10.5795 2.35726 10.6398 2.39742 10.7002C2.47774 10.821 2.58483 10.9283 2.712 11.0088C2.77893 11.0558 2.85925 11.0893 2.93957 11.1162C3.01319 11.143 3.09351 11.1631 3.18052 11.1698C3.2006 11.1698 3.22068 11.1765 3.23407 11.1765H3.32108C3.34786 11.1765 3.37463 11.1698 3.4014 11.1698C3.41479 11.1698 3.43487 11.1698 3.44825 11.1631C3.48841 11.1564 3.52188 11.1497 3.56204 11.143H3.56873C3.58212 11.1363 3.59551 11.1363 3.61558 11.1296C3.66244 11.1162 3.70929 11.096 3.74945 11.0759L3.75614 11.0692C3.76953 11.0625 3.78292 11.0558 3.78961 11.0558C3.76953 10.9417 3.74945 10.821 3.74276 10.7002C3.77622 10.6868 3.77622 10.6801 3.77622 10.6734Z" fill="#FCE9CD"/>
<path d="M14.1911 12.1087C14.1911 12.102 14.1911 12.0953 14.1844 12.0953C14.1778 12.0819 14.1778 12.0752 14.1778 12.0685C14.1443 11.9611 14.1041 11.8806 14.064 11.8203C14.0171 11.7465 13.977 11.7062 13.977 11.7062L13.997 11.6257C14.0037 11.5922 14.0104 11.5586 14.0104 11.5251C14.0372 11.2836 13.977 11.0957 13.9234 10.9884C13.9167 10.9682 13.91 10.9548 13.9033 10.9414C13.8632 10.9682 13.8297 10.9951 13.7895 11.0219C13.0667 11.5117 12.2568 11.827 11.38 11.9611C10.7776 12.0551 10.1417 12.0618 9.4791 11.9813L9.49249 11.988C9.49249 11.988 9.0909 12.0416 8.9838 12.424L8.9905 12.4308L8.95703 12.6857C8.97042 13.0345 9.12436 13.2492 9.30508 13.3633C9.49249 13.4371 9.72006 13.4907 9.9744 13.5243C10.4095 13.5779 10.9181 13.5645 11.4268 13.484C12.1095 13.3901 13.0734 13.0278 13.7628 12.5582C13.9167 12.4509 14.064 12.3368 14.1844 12.2228L14.1911 12.2161L14.1978 12.2094C14.1978 12.1624 14.1911 12.1356 14.1911 12.1087Z" fill="white"/>
<path d="M12.8848 8.7956C12.5167 8.56751 12.4631 8.49371 12.4966 7.88321C12.51 7.66182 12.5301 7.37335 12.5568 6.97753C12.5568 6.92386 12.5635 6.8769 12.5635 6.82994V6.79639V6.63538C12.5635 6.60184 12.5568 6.5683 12.5568 6.54146C12.5568 6.52804 12.5568 6.51463 12.5501 6.50121C12.5435 6.46766 12.5435 6.43412 12.5368 6.40058C12.5368 6.38716 12.5301 6.36703 12.5301 6.35362C12.5301 6.33349 12.5234 6.32007 12.5167 6.29995C12.51 6.28653 12.51 6.2664 12.5033 6.25298C12.4497 6.17248 12.3895 6.10539 12.3159 6.04501L12.3025 6.0316L12.2891 6.02489H12.2824C12.269 6.01818 12.2623 6.01147 12.2489 6.00476C12.2356 5.99805 12.2222 5.99134 12.2155 5.98463C12.1084 5.91755 11.9812 5.87729 11.854 5.85717C11.7804 5.84375 11.7068 5.84375 11.6332 5.84375C11.5997 5.84375 11.5595 5.85046 11.5261 5.85046C11.4324 5.86388 11.3387 5.884 11.2383 5.91084C11.2048 5.93096 11.1713 5.9578 11.1379 5.97793C11.1111 5.99805 11.0843 6.01818 11.0509 6.0383L11.0375 6.04501C11.0107 6.06514 10.9772 6.08527 10.9505 6.09868L10.9371 6.10539C10.9103 6.12552 10.8768 6.13894 10.8501 6.15906L10.8367 6.16577C10.8099 6.1859 10.7764 6.19931 10.743 6.21273L10.7296 6.21944C10.6961 6.23286 10.6693 6.24628 10.6359 6.25969L10.6225 6.2664C10.589 6.27982 10.5556 6.28653 10.5221 6.29995H10.5154C10.4819 6.30665 10.4418 6.31336 10.4083 6.32007C10.3481 6.32678 10.2811 6.33349 10.2209 6.33349C10.1205 6.33349 10.0201 6.32678 9.91301 6.31336L9.81261 6.29324C9.79923 6.29324 9.78584 6.28653 9.77915 6.28653C9.69213 6.2664 9.59843 6.24628 9.51142 6.22615C9.47126 6.21944 9.43779 6.20602 9.39763 6.19931C9.33739 6.1859 9.27715 6.17248 9.21022 6.15906C9.19683 6.15906 9.18345 6.15235 9.17675 6.15235C9.12321 6.15235 9.06966 6.15906 9.02281 6.16577H9.00942C8.85548 6.1859 8.70823 6.21944 8.55428 6.27311C8.54759 6.27311 8.5409 6.27982 8.52751 6.27982C8.50074 6.28653 8.48066 6.29995 8.45389 6.30665C8.42042 6.32007 8.39365 6.33349 8.36018 6.34691C8.1393 6.44083 7.93181 6.575 7.73102 6.74272C7.6507 6.80981 7.57707 6.88361 7.50345 6.9574C7.39635 7.07145 7.30265 7.19221 7.21564 7.31968C7.20894 7.32639 7.20894 7.33309 7.20225 7.3398C7.1554 7.40689 7.11524 7.48069 7.08177 7.54778C7.06839 7.57461 7.055 7.60145 7.04161 7.62157V7.62828C7.00145 7.71549 6.96799 7.796 6.94121 7.88321C6.94121 7.88992 6.94121 7.89663 6.93452 7.89663C6.92783 7.91005 6.92783 7.92347 6.92114 7.93688C6.90775 7.97714 6.89436 8.01739 6.88767 8.05764C6.87428 8.09789 6.86759 8.13815 6.8609 8.18511C6.8609 8.19182 6.8542 8.20523 6.8542 8.21194C6.84751 8.23878 6.84751 8.26561 6.84082 8.28574C6.82743 8.37966 6.82074 8.47358 6.81404 8.56751V8.63459C6.8542 8.7889 6.91444 8.92978 6.98807 9.05054C7.26249 9.52686 7.71763 9.81534 8.05229 9.96964C8.17946 10.0233 8.31333 10.077 8.45389 10.1239L8.46058 10.1306L8.46727 10.1239C8.48735 10.1105 8.50074 10.0971 8.52082 10.0837C8.52751 10.077 8.5342 10.077 8.5409 10.0703L8.60114 10.03C8.60783 10.0233 8.61452 10.0233 8.62122 10.0166L8.68146 9.97635C8.68815 9.96964 8.69484 9.96964 8.70153 9.96293C8.72161 9.94951 8.74169 9.93609 8.76847 9.92268C8.77516 9.91597 8.78185 9.91597 8.78855 9.90926C8.80863 9.89584 8.8354 9.88242 8.85548 9.86901C8.86217 9.8623 8.86887 9.8623 8.87556 9.85559C8.89564 9.84217 8.92241 9.82875 8.94249 9.81534C8.94919 9.80863 8.96257 9.80863 8.96926 9.80192C8.98934 9.7885 9.01612 9.77508 9.0362 9.76167C9.04289 9.75496 9.05628 9.74825 9.06297 9.74825C9.08305 9.73483 9.10982 9.72141 9.1366 9.708C9.14998 9.70129 9.15667 9.69458 9.17006 9.69458C9.19683 9.68116 9.21691 9.66774 9.24369 9.66103C9.25707 9.65433 9.26377 9.64762 9.27715 9.64762C9.30393 9.6342 9.32401 9.62749 9.35078 9.61407L9.39094 9.59395C9.41771 9.58053 9.43779 9.57382 9.46456 9.5604C9.47795 9.55369 9.49134 9.54699 9.51142 9.54028C9.53819 9.53357 9.55827 9.52015 9.58504 9.51344C9.59843 9.50673 9.61851 9.50002 9.63189 9.49332C9.65867 9.48661 9.67875 9.47319 9.70552 9.46648C9.7256 9.45977 9.73899 9.45306 9.75907 9.44635C9.78584 9.43965 9.80592 9.42623 9.83269 9.41952L9.89293 9.39939C9.91301 9.39268 9.93978 9.38598 9.95986 9.37256C9.97994 9.36585 10.0067 9.35914 10.0268 9.35243C10.0469 9.34572 10.0736 9.33901 10.0937 9.33231C10.1205 9.3256 10.1473 9.31889 10.1674 9.31218C10.1874 9.30547 10.2075 9.29876 10.2343 9.29205C10.2611 9.28534 10.2878 9.27864 10.3213 9.26522C10.3347 9.25851 10.3481 9.25851 10.3615 9.2518C10.4685 8.97674 10.7965 8.29245 11.3521 8.21865C11.4123 8.21194 11.4658 8.20523 11.5194 8.20523H11.5595C11.5529 8.16498 11.5462 8.12473 11.5462 8.07777C11.5261 7.78258 11.6198 7.53436 11.747 7.52765C11.8474 7.52094 11.9277 7.66853 11.9411 7.71549C11.9812 7.80271 12.008 7.91676 12.0147 8.04422C12.0214 8.15827 12.008 8.26561 11.9879 8.35953C12.0013 8.37295 12.008 8.38637 12.0214 8.39308C12.1486 8.55409 12.1686 8.76877 12.1619 8.92978C12.2088 8.92307 12.2623 8.92307 12.3159 8.91636C12.3293 8.91636 12.3427 8.91636 12.356 8.90965H12.3828C12.4431 8.90294 12.51 8.89624 12.5769 8.89624C12.7242 8.88282 12.8714 8.87611 13.0254 8.8694C12.9384 8.82244 12.8848 8.7956 12.8848 8.7956ZM14.2837 12.9282C14.0427 13.1429 13.7884 13.3173 13.534 13.4582C13.4069 13.5253 13.2797 13.5857 13.1592 13.6393C12.8848 13.7601 12.6238 13.8406 12.3895 13.901C11.8741 14.0284 11.5194 14.0284 11.5194 14.0284C11.8005 14.1827 12.1552 14.1827 12.3962 14.1626C12.5635 14.1492 12.6773 14.1157 12.6773 14.1157C12.6706 14.2163 12.6572 14.3102 12.6438 14.4041C12.6238 14.5048 12.597 14.592 12.5635 14.6725V14.6792C12.5234 14.7798 12.4698 14.867 12.4163 14.9475C12.4096 14.9542 12.4029 14.9677 12.3962 14.9744L12.4163 14.961C12.5033 14.914 12.5903 14.8603 12.6773 14.8067C12.7442 14.7664 12.8112 14.7194 12.8714 14.6792C12.9785 14.6054 13.0856 14.5249 13.1927 14.4377C13.1994 14.431 13.2061 14.4243 13.2128 14.4243C13.3132 14.337 13.4136 14.2431 13.5006 14.1492C13.6211 14.0217 13.7282 13.8943 13.8219 13.7668L13.8286 13.7601C13.8553 13.7265 13.8754 13.6997 13.8955 13.6662L13.9022 13.6595C13.9089 13.646 13.9156 13.6393 13.9223 13.6259C13.9557 13.579 13.9825 13.5387 14.016 13.4917C14.0227 13.4783 14.0293 13.4716 14.036 13.4582C14.0494 13.4314 14.0628 13.4112 14.0829 13.3844C14.0963 13.3643 14.103 13.3509 14.1164 13.3307C14.1297 13.3106 14.1431 13.2905 14.1498 13.2703C14.1699 13.2368 14.19 13.1966 14.2101 13.163L14.2301 13.1228L14.2703 13.0422L14.2904 13.002L14.2971 12.9886C14.3105 12.955 14.3305 12.9215 14.3439 12.8879C14.3172 12.8947 14.3038 12.9081 14.2837 12.9282ZM8.17946 10.2246C8.11253 10.2447 8.03221 10.2782 7.95189 10.3118C7.73771 10.399 7.49675 10.5265 7.28257 10.7009C7.2558 10.721 7.22902 10.7479 7.20225 10.768C7.1554 10.8082 7.11524 10.8485 7.07508 10.8954L7.06169 10.9089L7.04161 10.929C7.02823 10.9491 7.00815 10.9625 6.99476 10.9827L6.97468 11.0028C6.9546 11.0296 6.93452 11.0565 6.92114 11.0833C6.90106 11.1101 6.88767 11.137 6.86759 11.1638C6.74042 11.3852 6.66679 11.6535 6.68687 11.9756V11.9621C6.68687 11.9554 6.68687 11.9487 6.69357 11.942V11.9353C6.69357 11.9286 6.70026 11.9219 6.70026 11.9085V11.9018C6.70026 11.8951 6.70695 11.8816 6.70695 11.8682C6.70695 11.8548 6.71364 11.8481 6.72034 11.8347V11.828C6.72703 11.8145 6.72703 11.8011 6.73372 11.7877V11.781C6.74042 11.7676 6.74042 11.7542 6.74711 11.7407V11.734C6.7538 11.7206 6.7605 11.7072 6.76719 11.6871L6.77388 11.6804C6.78058 11.667 6.78727 11.6468 6.80066 11.6334C6.81404 11.6066 6.82743 11.5864 6.84082 11.5596C6.84751 11.5529 6.8542 11.5395 6.8609 11.5328L6.86759 11.5261L6.90775 11.4657C6.92113 11.4523 6.93452 11.4321 6.94791 11.4187L6.96129 11.4053C6.97468 11.3919 6.98137 11.3785 6.99476 11.3718L7.00815 11.3584C7.02153 11.3449 7.04161 11.3315 7.055 11.3114C7.055 11.3114 6.76719 11.9688 6.89436 12.4854V12.4787V12.4653V12.4452V12.4183V12.3848C6.89436 12.3714 6.89436 12.358 6.90106 12.3445C6.90106 12.3311 6.90106 12.3177 6.90775 12.3043V12.2976C6.90775 12.2842 6.91444 12.264 6.91444 12.2506V12.2372C6.92114 12.2171 6.92114 12.2037 6.92783 12.1835V12.1768C6.93452 12.1567 6.94121 12.1366 6.94121 12.1231C6.94121 12.1164 6.94791 12.1097 6.94791 12.103L6.9546 12.0896C6.96129 12.0762 6.96799 12.0561 6.97468 12.0426C6.98137 12.0225 6.99476 12.0024 7.00815 11.9823C7.00815 11.9756 7.01484 11.9688 7.01484 11.9688L7.055 11.9085C7.055 11.9085 7.04161 12.0695 7.04161 12.264C7.04161 12.2976 7.04161 12.3244 7.04831 12.358C7.04831 12.3781 7.04831 12.3982 7.055 12.4183C7.06839 12.2104 7.10855 12.0158 7.16209 11.8347C7.17548 11.7877 7.19556 11.734 7.20894 11.6871C7.20894 11.6804 7.21564 11.6737 7.21564 11.667C7.23572 11.62 7.2491 11.5797 7.26918 11.5328C7.27588 11.5261 7.27588 11.5194 7.28257 11.5059C7.30265 11.4657 7.32273 11.4187 7.34281 11.3785C7.3495 11.3718 7.3495 11.3651 7.3495 11.3584C7.39635 11.2711 7.44321 11.1906 7.49006 11.1168C7.49675 11.1101 7.49675 11.1034 7.50345 11.0967C7.52353 11.0699 7.54361 11.043 7.56369 11.0095C7.57038 11.0028 7.57038 10.9961 7.57707 10.9894C7.58376 10.9827 7.58377 10.976 7.59046 10.9692C7.61723 10.9357 7.63731 10.9022 7.66408 10.8686C7.67078 10.8619 7.67078 10.8552 7.67747 10.8552C7.70424 10.8217 7.73102 10.7881 7.75779 10.7613C7.79126 10.721 7.82472 10.6875 7.85819 10.6472C7.88496 10.6204 7.90504 10.5936 7.93181 10.5734L7.95859 10.5466C8.01213 10.4929 8.06568 10.4392 8.11922 10.3923C8.26648 10.2581 8.38695 10.1709 8.42711 10.1441C8.40034 10.1508 8.37357 10.1575 8.3401 10.1642C8.29994 10.1843 8.24639 10.2044 8.17946 10.2246Z" fill="#F2D2AC"/>
<path d="M12.035 8.76957C12.035 8.76957 12.035 8.75615 12.0283 8.72931C12.0015 8.63539 11.9078 8.40729 11.5397 8.44084C11.1515 8.48109 11.0176 8.7964 10.9841 8.90374C10.9774 8.92387 10.9774 8.93729 10.9774 8.93729L10.9908 8.944C11.0377 8.90374 11.1314 8.90374 11.2184 8.96412C11.2585 8.99096 11.2853 9.01779 11.3121 9.05133C11.3456 9.105 11.3522 9.15868 11.3322 9.19893L11.3121 9.21905C11.3121 9.21905 11.3255 9.22576 11.3522 9.23247C11.4593 9.26602 11.7605 9.32639 11.9212 9.11842C11.9279 9.105 11.9346 9.0983 11.9413 9.08488C11.9078 9.07146 11.8944 9.0245 11.8944 8.96412C11.8944 8.93729 11.9011 8.91045 11.9078 8.87691C11.9279 8.7964 11.9881 8.74944 12.035 8.76957ZM10.1006 11.6409C9.84627 11.6946 9.62539 11.7348 9.45806 11.7617C9.46476 11.7617 9.47814 11.7617 9.48484 11.7684C9.77264 11.8019 10.2278 11.8489 10.7766 11.8153C11.7806 11.755 13.0992 11.4397 14.2973 10.3528V10.3461C14.304 10.2522 14.2906 10.0912 14.1768 9.96373C14.1567 9.9436 14.1366 9.92347 14.1099 9.90335C14.1032 9.90335 14.1032 9.89664 14.0965 9.89664C14.063 9.87651 14.0362 9.8631 14.0095 9.84297L13.9492 9.80272V9.79601C13.8756 9.90335 13.7886 10.004 13.6949 10.0979C13.6614 10.1314 13.6279 10.165 13.5878 10.1985C13.2598 10.4937 12.8315 10.7487 12.3696 10.9499C11.6066 11.2854 10.7499 11.5067 10.1006 11.6409ZM3.75543 9.88993C3.74204 9.89664 3.73535 9.91006 3.72196 9.91677L3.70858 9.93018C3.69519 9.9436 3.6818 9.95702 3.67511 9.97044L3.66842 9.97714L3.62826 10.0375L3.62156 10.0442C3.62156 10.0509 3.61487 10.0509 3.61487 10.0576L3.59479 10.0979V10.1113C3.5881 10.1314 3.57471 10.1516 3.56802 10.1717C3.54794 10.2254 3.52786 10.279 3.51447 10.326C3.50778 10.3394 3.50778 10.3595 3.50109 10.3663C3.49439 10.3931 3.4877 10.4199 3.4877 10.4266C3.4877 10.4065 3.4877 10.3931 3.49439 10.373C3.49439 10.3394 3.50109 10.2992 3.50109 10.2656C3.50109 10.2388 3.50778 10.2052 3.51447 10.1784C3.51447 10.1717 3.51447 10.1583 3.52117 10.1516C3.52117 10.1382 3.52786 10.1247 3.52786 10.1113C3.52786 10.0979 3.53455 10.0845 3.53455 10.0711V10.0509C3.53455 10.0375 3.54125 10.0174 3.54125 10.004V9.97044V9.95702C3.54125 9.95031 3.54125 9.9436 3.54794 9.93689C3.55463 9.91677 3.56132 9.88993 3.56132 9.8698V9.8631C3.56802 9.84968 3.56802 9.82955 3.57471 9.81613V9.80942C3.5814 9.77588 3.59479 9.74234 3.60148 9.70879V9.69538C3.60148 9.68867 3.60148 9.68196 3.60818 9.67525C3.62156 9.62158 3.64164 9.56791 3.65503 9.52095V9.51424C3.66842 9.47399 3.6885 9.42703 3.70188 9.38677V9.38006C3.70858 9.35994 3.71527 9.34652 3.72196 9.32639C3.73535 9.29956 3.74204 9.27272 3.75543 9.24589C3.75543 9.23918 3.76212 9.22576 3.77551 9.19893C3.7822 9.19222 3.7822 9.1788 3.78889 9.17209C3.79559 9.15868 3.80228 9.14526 3.80897 9.12513L3.81567 9.11171C3.80897 9.10501 3.79559 9.10501 3.78889 9.0983H3.7822L3.76882 9.09159C3.70858 9.06475 3.64164 9.03792 3.57471 9.01779H3.56132C3.51447 9.00437 3.47431 8.99766 3.42746 8.99096C3.40069 8.99096 3.37391 8.98425 3.34714 8.98425H3.28021C3.24674 8.98425 3.21328 8.99096 3.17981 8.99096C3.16642 8.99096 3.15973 8.99096 3.14634 8.99767C3.13296 8.99767 3.11288 9.00437 3.09949 9.00437C3.0928 9.00437 3.08611 9.00437 3.07941 9.01108C3.06603 9.01108 3.05933 9.01779 3.04595 9.01779C3.02587 9.0245 2.99909 9.03121 2.97901 9.03792C2.97232 9.03792 2.95893 9.04463 2.95224 9.04463C2.92547 9.05804 2.892 9.06475 2.86523 9.07817C2.85184 9.08488 2.84515 9.09159 2.83176 9.09159L2.7916 9.11171L2.77822 9.11842C2.76483 9.12513 2.75144 9.13184 2.73806 9.14526C2.72467 9.15197 2.71128 9.15868 2.6979 9.17209C2.68451 9.1788 2.67113 9.19222 2.65774 9.19893C2.65105 9.20564 2.63766 9.21234 2.63097 9.21905C2.61089 9.23918 2.58411 9.25931 2.56403 9.27943L2.53057 9.31298C2.51049 9.3331 2.4971 9.35323 2.47702 9.37336L2.47033 9.38006C2.46363 9.39348 2.45025 9.40019 2.44356 9.41361L2.42348 9.43373C2.39001 9.4807 2.35654 9.53437 2.32977 9.58804C2.32308 9.59474 2.32308 9.60145 2.31638 9.60816C2.303 9.635 2.2963 9.66183 2.28292 9.68867C2.27622 9.70208 2.27622 9.70879 2.26953 9.72221C2.26953 9.72892 2.27622 9.73563 2.27622 9.74234C2.28292 9.76917 2.28961 9.7893 2.2963 9.81613V9.82955C2.303 9.84968 2.31638 9.87651 2.32308 9.89664C2.34985 9.96373 2.37662 10.0241 2.41009 10.0778C2.41678 10.0845 2.41678 10.0912 2.42348 10.0979V10.1046L2.43017 10.1113C2.45025 10.1516 2.47033 10.1851 2.49041 10.212C2.52387 10.2589 2.55065 10.2925 2.57073 10.3193L2.58411 10.3327C2.58411 10.3394 2.59081 10.3394 2.59081 10.3394L2.60419 10.3528C2.60419 10.3394 2.5975 10.326 2.5975 10.3193C2.57742 10.2321 2.57073 10.1516 2.57073 10.0644V10.0509C2.57073 9.99727 2.57073 9.9436 2.57742 9.89664L2.5975 9.95702C2.60419 9.98385 2.61758 10.0107 2.62427 10.0375V10.0509C2.66443 10.165 2.71128 10.2589 2.75814 10.3327C2.81168 10.4266 2.85854 10.487 2.892 10.5273C2.89869 10.534 2.90539 10.5407 2.90539 10.5474L2.91877 10.5608C2.89869 10.4669 2.88531 10.3797 2.88531 10.2925V10.2052C2.88531 10.165 2.88531 10.1314 2.892 10.0979C2.90539 10.1583 2.92547 10.2187 2.94555 10.2723V10.279C3.01917 10.4736 3.10619 10.6145 3.16642 10.7017L3.17312 10.7084C3.1865 10.7218 3.1932 10.7352 3.19989 10.7487C3.20658 10.7554 3.21328 10.7621 3.21328 10.7688L3.22666 10.7822L3.23336 10.7889V10.7755C3.23336 10.7621 3.22666 10.7487 3.22666 10.7352C3.21997 10.6883 3.21328 10.6413 3.20658 10.6011C3.20658 10.5742 3.19989 10.5407 3.19989 10.5138V10.4333V10.4199V10.3663C3.19989 10.3327 3.20658 10.2925 3.20658 10.2589C3.21328 10.279 3.21997 10.3059 3.22666 10.326C3.23336 10.3394 3.24005 10.3595 3.24674 10.373V10.3797L3.25344 10.3864C3.26013 10.4065 3.26682 10.4266 3.27352 10.44C3.2869 10.4736 3.30029 10.5071 3.32037 10.534C3.34045 10.5742 3.35383 10.6078 3.37391 10.6346C3.3873 10.6547 3.39399 10.6681 3.40069 10.6816C3.41407 10.7017 3.42746 10.7218 3.43415 10.7352C3.44754 10.7487 3.45423 10.7621 3.46093 10.7755L3.46762 10.7822C3.47431 10.7956 3.4877 10.8023 3.49439 10.8157C3.50109 10.8224 3.50778 10.8292 3.50778 10.8359C3.52117 10.8493 3.52786 10.8627 3.53455 10.8627L3.54125 10.8694V10.8493C3.54794 10.7956 3.55463 10.7352 3.56132 10.6816V10.6614C3.56802 10.5943 3.5814 10.534 3.59479 10.4736C3.59479 10.4669 3.59479 10.4602 3.60148 10.4468V10.44C3.60148 10.4333 3.60148 10.4266 3.60818 10.4199C3.60818 10.4065 3.61487 10.3998 3.61487 10.3864C3.62156 10.3394 3.63495 10.2925 3.64164 10.2455C3.64834 10.2052 3.65503 10.165 3.66172 10.1314V10.118C3.66172 10.1113 3.66172 10.1046 3.66842 10.1046V10.0912C3.66842 10.0845 3.67511 10.0711 3.67511 10.0644C3.67511 10.0576 3.67511 10.0509 3.6818 10.0442C3.6818 10.0308 3.6885 10.0174 3.6885 10.0107C3.6885 10.004 3.69519 9.99056 3.69519 9.98385C3.69519 9.97044 3.70188 9.95702 3.70188 9.95031C3.70188 9.9436 3.70188 9.93689 3.70858 9.93018C3.70858 9.92347 3.70858 9.91677 3.71527 9.91677C3.71527 9.90335 3.72196 9.89664 3.72196 9.88993V9.8698L3.75543 9.88993ZM11.8676 12.6942C11.9613 12.6606 12.0416 12.6338 12.1086 12.607C12.2358 12.5533 12.3027 12.5131 12.3027 12.4996C12.296 12.4862 12.2224 12.4929 12.0885 12.5265C12.0216 12.5399 11.9413 12.5533 11.8409 12.5801C11.794 12.5936 11.7405 12.6003 11.6869 12.607C11.6334 12.6137 11.5731 12.6271 11.5129 12.6338C11.3924 12.6539 11.2585 12.6674 11.1113 12.6808L10.8904 12.7009C10.8168 12.7076 10.7365 12.7076 10.6562 12.7143C10.3349 12.721 9.98013 12.7076 9.6187 12.6405C9.43129 12.607 9.17025 12.5198 8.98954 12.4191L8.98284 12.4124C9.08993 12.03 9.49153 11.9764 9.49153 11.9764L9.47814 11.9696H9.45806C9.39782 11.9629 9.35097 11.9562 9.30412 11.9495C9.27065 11.9428 9.24388 11.9428 9.2238 11.9361C9.20372 11.9361 9.18364 11.9294 9.17695 11.9294C8.93599 11.916 8.80213 12.1172 8.76197 12.2045L8.74189 12.2447C8.70842 12.3252 8.68165 12.4124 8.67495 12.5131C8.66157 12.6942 8.70842 12.8887 8.84898 13.0565C8.94268 13.1705 9.10332 13.2711 9.31081 13.3517C9.13009 13.2376 8.96946 13.0162 8.96276 12.6741C9.17025 12.7613 9.40452 12.815 9.58523 12.8485C9.96675 12.9223 10.3416 12.929 10.6695 12.9089C10.7499 12.9022 10.8369 12.8955 10.9105 12.8887C10.9908 12.8753 11.0644 12.8686 11.1381 12.8619C11.2853 12.8351 11.4125 12.815 11.5397 12.7881C11.5999 12.7747 11.6601 12.7613 11.7137 12.7412C11.7739 12.7277 11.8208 12.7143 11.8676 12.6942Z" fill="#F2D2AC"/>
<path d="M11.5532 8.21017C11.754 8.21688 11.8879 8.27726 11.9816 8.37118C12.0017 8.28397 12.015 8.17663 12.0083 8.05587C12.0017 7.9284 11.9749 7.81435 11.9347 7.72714C11.9213 7.67347 11.841 7.53259 11.7406 7.53929C11.6134 7.546 11.5197 7.79423 11.5398 8.08941C11.5398 8.12966 11.5465 8.16992 11.5532 8.21017ZM11.8879 8.96826C11.8879 9.02193 11.908 9.06889 11.9347 9.08902C11.9816 9.11585 12.0418 9.06218 12.0686 8.97497C12.0686 8.96826 12.0753 8.96155 12.0753 8.95484C12.0954 8.87434 12.0753 8.79383 12.0284 8.77371C11.9816 8.74687 11.9213 8.80054 11.8946 8.88775C11.8946 8.91459 11.8879 8.94142 11.8879 8.96826ZM10.9776 9.11585C10.9977 9.1494 11.0311 9.18294 11.0713 9.20978C11.1583 9.26345 11.252 9.27015 11.3056 9.22319L11.3256 9.20307C11.3457 9.16281 11.339 9.10914 11.3056 9.05547C11.2855 9.02193 11.252 8.98839 11.2119 8.96826C11.1248 8.91459 11.0311 8.90788 10.9843 8.94813C10.9776 8.95484 10.9709 8.96155 10.9642 8.97497C10.9441 9.00851 10.9508 9.06218 10.9776 9.11585ZM14.3041 10.3436C14.2974 10.3436 14.2974 10.3436 14.3041 10.3436V10.3436ZM14.197 12.2019C14.0699 12.3226 13.9293 12.4367 13.7687 12.544C13.0793 13.0136 12.1154 13.3826 11.4327 13.4698C10.9174 13.5503 10.4154 13.5638 9.9803 13.5101C9.72596 13.4765 9.50508 13.4229 9.31098 13.3491C9.10349 13.2686 8.94285 13.1679 8.84914 13.0539C8.70859 12.8862 8.66843 12.6849 8.67512 12.5105C8.68181 12.4166 8.70189 12.3226 8.74205 12.2421L8.76213 12.2019C8.80899 12.1147 8.93616 11.9067 9.17711 11.9268C9.18381 11.9268 9.20389 11.9268 9.22397 11.9335C9.24405 11.9335 9.27751 11.9402 9.30428 11.9469C9.35114 11.9537 9.39799 11.9604 9.45823 11.9671H9.47831C10.1409 12.0476 10.7768 12.0409 11.3792 11.9469C12.256 11.8128 13.0659 11.4975 13.7888 11.0077C13.8289 10.9809 13.8624 10.9541 13.9025 10.9272L14.2974 10.3368C13.0993 11.4304 11.7808 11.7457 10.7768 11.8061C10.228 11.8396 9.77281 11.7994 9.485 11.7591C9.47162 11.7591 9.46492 11.7591 9.45823 11.7524C9.37122 11.739 9.30428 11.7323 9.25074 11.7256C9.22397 11.7256 9.20389 11.7189 9.1905 11.7189C9.11687 11.7121 9.04325 11.7256 8.97632 11.7457C8.84245 11.7859 8.72197 11.8799 8.63496 12.0006C8.52787 12.1482 8.46094 12.3495 8.46094 12.5507C8.46094 12.7185 8.5011 12.8929 8.58811 13.0539C8.5948 13.0606 8.5948 13.0673 8.6015 13.074C8.61488 13.0941 8.62157 13.1076 8.63496 13.1277C8.64835 13.1478 8.66843 13.1747 8.68851 13.1948C8.896 13.4564 9.35114 13.6443 9.95353 13.7248C10.3618 13.7784 10.837 13.7717 11.3524 13.6979C12.8785 13.4229 13.6013 12.9264 13.936 12.5843C13.9628 12.5574 13.9829 12.5373 14.0029 12.5105C14.1234 12.3696 14.177 12.2623 14.197 12.222V12.2153C14.2037 12.2019 14.2037 12.1952 14.2037 12.1952L14.197 12.2019Z" fill="#664F44"/>
<path d="M9.34358 6.90206C9.29673 6.87523 9.24318 6.8551 9.18964 6.84168C9.15617 6.83498 9.12271 6.82827 9.08255 6.82156C9.06916 6.82156 9.05577 6.82156 9.04239 6.81485C8.86167 6.80143 8.70773 6.82827 8.70773 6.82827C8.67426 6.83498 8.64079 6.84168 8.61402 6.8551C8.37306 6.9289 8.20573 7.05636 8.08525 7.20396C7.99155 7.32472 7.92462 7.45218 7.89115 7.57965C7.88446 7.59307 7.88446 7.59977 7.88446 7.61319C7.87776 7.64674 7.86438 7.68028 7.85768 7.70711C7.83761 7.81445 7.82422 7.90838 7.82422 7.98888C7.82422 8.09622 7.83091 8.16331 7.83091 8.16331C7.87107 8.06939 7.91792 7.98888 7.96478 7.90838C8.07856 7.71382 8.19904 7.55281 8.32621 7.42535C8.56717 7.17712 8.81482 7.04295 9.00223 6.97586C9.20302 6.90877 9.34358 6.90206 9.34358 6.90206ZM12.2418 6.55992L12.2351 6.5465C12.2083 6.51296 12.1748 6.47941 12.1347 6.45258C12.041 6.3922 11.9138 6.35865 11.7398 6.3922C11.7398 6.3922 11.5323 6.43916 11.4118 6.58004C11.4118 6.58004 11.7732 6.42574 12.1614 6.7008C12.1949 6.72764 12.2351 6.75447 12.2685 6.78801C12.302 6.82156 12.3421 6.8551 12.3756 6.90206C12.3756 6.90206 12.3622 6.73434 12.2618 6.58675C12.2551 6.57333 12.2484 6.56663 12.2418 6.55992Z" fill="#E9B784"/>
<path d="M9.392 9.23035C9.53256 9.1901 9.67981 9.14985 9.84714 9.1096C9.87392 8.98213 9.88061 8.82783 9.86053 8.66011C9.81368 8.271 9.63965 7.96911 9.46563 7.98923C9.2916 8.00936 9.19121 8.3448 9.23806 8.7339C9.26483 8.93517 9.31838 9.1096 9.392 9.23035Z" fill="#664F44"/>
<path d="M8.59297 0.462891L8.23153 0.543396L8.30516 1.20085L7.34803 0.711115L6.95312 0.831872L6.95982 0.838581L8.12444 2.16692L8.13783 2.16021L8.15121 2.1535C8.18468 2.13337 8.22484 2.10654 8.25831 2.08641C8.27169 2.0797 8.28508 2.07299 8.29846 2.05958C8.35201 2.02603 8.40556 1.99249 8.4591 1.96565L7.9638 1.39541L8.7603 1.78452C8.78707 1.7711 8.80715 1.75768 8.83392 1.74426L8.7603 1.17402L9.12173 1.59667H9.12842C9.16189 1.58325 9.18866 1.56313 9.22213 1.54971L9.23552 1.543L9.2489 1.53629C9.2556 1.53629 9.26229 1.52958 9.26229 1.52958L9.30245 1.50946C9.30245 1.50946 9.30914 1.50946 9.30914 1.50275C9.3493 1.48262 9.39615 1.4625 9.43631 1.44237L8.59297 0.462891Z" fill="#FFD250"/>
<path d="M8.23772 0.543116L8.29127 0.529698C8.20426 0.489446 8.09716 0.462611 7.97669 0.442484C7.73573 0.408941 7.42784 0.442484 7.07979 0.529698C6.73175 0.616912 6.33684 0.771214 5.92186 0.979185C5.08521 1.39513 4.16154 2.03246 3.26465 2.85093C2.95007 3.1327 2.66226 3.42788 2.39453 3.71636L3.47883 5.05811C3.77334 4.73609 4.08792 4.41407 4.43597 4.09876C4.8978 3.67611 5.36633 3.30042 5.82816 2.9784C6.27661 2.66308 6.72505 2.39473 7.14673 2.18005L6.95932 1.32133L6.96601 0.838301L6.95932 0.831592L7.35422 0.710835L8.12394 1.10665L8.10386 0.838301L8.23772 0.543116Z" fill="#4D9ED7"/>
<path d="M8.23927 0.542969L8.1054 0.838154L8.12548 1.11321L8.31289 1.20714L8.23927 0.542969ZM7.96484 1.39498L8.76803 1.7908L8.46014 1.96523L7.96484 1.39498ZM8.76803 1.17359L8.84166 1.74384L9.12947 1.59624L8.76803 1.17359Z" fill="#132134"/>
<path d="M11.7931 0.966207H11.9404C12.0742 0.966207 12.2014 0.986334 12.3219 1.01317C12.3286 1.01317 12.3353 1.01317 12.342 1.01988H12.3487L12.362 1.02659H12.3754C12.362 1.01988 12.3487 1.00646 12.3353 0.999751C12.2014 0.946081 12.0608 0.912537 11.9136 0.892411C11.1907 0.798488 10.3608 1.06684 9.89224 1.25468C9.86546 1.2681 9.83869 1.27481 9.81192 1.28823C9.77176 1.30835 9.7316 1.32177 9.69144 1.3419C9.62451 1.36873 9.55758 1.40228 9.48395 1.43582C9.47056 1.44253 9.46387 1.44253 9.45048 1.44924C9.41032 1.46936 9.36347 1.48949 9.32331 1.50962C9.32331 1.50962 9.31662 1.50962 9.31662 1.51633L9.27646 1.53645C9.26977 1.53645 9.26307 1.54316 9.26307 1.54316H9.2363L9.22961 1.54987C9.19614 1.56329 9.16937 1.5767 9.1359 1.59683H9.12921C9.12252 1.60354 9.11582 1.60354 9.10913 1.61025H9.10244C9.09574 1.61025 9.08905 1.61696 9.08905 1.61696C9.0422 1.64379 8.99534 1.66392 8.94849 1.69075C8.91503 1.71088 8.88156 1.7243 8.84809 1.74442H8.8414C8.81463 1.75784 8.79455 1.77126 8.76777 1.78468C8.68746 1.82493 8.61383 1.87189 8.53351 1.91885C8.52682 1.92556 8.52012 1.92556 8.50674 1.93227C8.50005 1.93898 8.49335 1.93898 8.48666 1.94569C8.47997 1.9524 8.47327 1.9524 8.46658 1.9591L8.45989 1.96581C8.40634 1.99936 8.35279 2.02619 8.29925 2.05974C8.28586 2.06644 8.27248 2.07315 8.25909 2.08657C8.22562 2.1067 8.18546 2.13353 8.152 2.15366L8.13861 2.16037L8.12522 2.16708L7.82403 2.36834C7.6567 2.48239 7.49606 2.59644 7.33542 2.71719C7.31534 2.73061 7.29526 2.75074 7.27518 2.76416C6.85351 3.07947 6.45192 3.42161 6.06371 3.77047C5.65542 4.14616 5.26052 4.52856 4.89239 4.91767C4.6916 5.11893 4.51757 5.30007 4.38371 5.44766C4.10259 5.74955 3.94865 5.9374 3.95534 5.94411C3.95534 5.94411 3.98211 5.92398 4.02897 5.87702C3.9955 5.91727 3.95534 5.96423 3.92188 6.00449C4.53765 5.34703 5.21367 4.67615 5.94323 4.04553C6.38498 3.66313 6.84682 3.29415 7.32204 2.952C7.52953 2.80441 7.74371 2.65682 7.95789 2.51593C8.02483 2.46897 8.09845 2.42872 8.16538 2.38176C8.19885 2.36163 8.23232 2.3415 8.27248 2.32138C8.29255 2.30796 8.31263 2.29454 8.33271 2.28783C8.37287 2.26771 8.40634 2.24087 8.4465 2.22075C8.47997 2.20062 8.52013 2.18049 8.55359 2.15366C8.57367 2.14024 8.59375 2.13353 8.61383 2.12011L8.75439 2.03961C8.78116 2.02619 8.80793 2.00607 8.83471 1.99265C8.92172 1.94569 9.00873 1.89873 9.10244 1.85176C9.10913 1.84506 9.11582 1.84506 9.12252 1.83835L9.16267 1.81822C9.18275 1.81151 9.19614 1.79809 9.21622 1.79139C9.22291 1.78468 9.22961 1.78468 9.2363 1.77797L9.27646 1.75784C9.27646 1.75784 9.28315 1.75784 9.28315 1.75113H9.28985C9.33001 1.73101 9.37017 1.71088 9.40363 1.69746C9.41032 1.69746 9.41702 1.69075 9.42371 1.68404L9.46387 1.66392C9.51072 1.64379 9.55088 1.62367 9.59773 1.60354C9.61112 1.59683 9.62451 1.59012 9.6312 1.58341C9.63789 1.58341 9.64459 1.5767 9.65128 1.5767C9.66467 1.57 9.67805 1.56329 9.69144 1.56329C9.74499 1.54316 9.79184 1.51633 9.84539 1.4962C9.89224 1.47607 9.9324 1.45595 9.97925 1.43582C10.2336 1.32848 10.4679 1.24127 10.6887 1.16747C11.1037 1.05342 11.4718 0.979625 11.7931 0.966207Z" fill="white"/>
</g>
<defs>
<clipPath id="clip0_589_2672">
<rect width="15" height="17" fill="white"/>
</clipPath>
</defs>
</svg>
