<svg xmlns="http://www.w3.org/2000/svg" width="52" height="52">
    <path fill="#FFF" fill-rule="evenodd" d="M26 0c14.359 0 26 11.641 26 26S40.359 52 26 52C11.64 52 0 40.359 0 26S11.64 0 26 0z"/>
    <path fill="#BAE9FA" fill-rule="evenodd" d="M34 27V15a1 1 0 0 1 2 0v12h-2zm-8-12a1 1 0 0 1 2 0v2h-2v-2zm-8 0a1 1 0 0 1 2 0v12h-2V15z"/>
    <path fill="#A4E2F9" fill-rule="evenodd" d="M38 35h-2v2a1 1 0 0 1-2 0v-2h-2a1 1 0 0 1-1-1v-4a1 1 0 0 1 1-1h6a1 1 0 0 1 1 1v4a1 1 0 0 1-1 1zm-16 0h-2v2a1 1 0 0 1-2 0v-2h-2a1 1 0 0 1-1-1v-4a1 1 0 0 1 1-1h6a1 1 0 0 1 1 1v4a1 1 0 0 1-1 1z"/>
    <path fill="#2FBDF2" fill-rule="evenodd" d="M31 20a1 1 0 0 0-1-1h-6a1 1 0 0 0-1 1v4a1 1 0 0 0 1 1h2v12a1 1 0 0 0 2 0V25h2a1 1 0 0 0 1-1v-4z"/>
</svg>
