<svg width="24" height="12" viewBox="0 0 24 12" fill="none" xmlns="http://www.w3.org/2000/svg">
<path d="M5.14671 7.9132C5.14671 8.60305 5.29322 9.13262 5.48485 9.45302C5.73603 9.87271 6.11065 10.0509 6.49259 10.0509C6.98514 10.0509 7.43579 9.92455 8.3042 8.68372C9.0001 7.68921 9.81973 6.29324 10.3713 5.41806L11.3054 3.93537C11.9543 2.90567 12.7054 1.76102 13.5665 0.98513C14.2698 0.35181 15.0279 0 15.7912 0C17.0726 0 18.2931 0.767112 19.2272 2.20583C20.2495 3.78145 20.7458 5.76617 20.7458 7.81422C20.7458 9.03182 20.5135 9.92644 20.1181 10.6332C19.7363 11.3167 18.9919 11.9997 17.7397 11.9997V10.0505C18.8119 10.0505 19.0794 9.03273 19.0794 7.86795C19.0794 6.2081 18.7048 4.36611 17.8795 3.04991C17.2939 2.11631 16.535 1.54588 15.7 1.54588C14.7968 1.54588 14.0701 2.24965 13.2533 3.50411C12.8191 4.17072 12.3733 4.98301 11.8728 5.89966L11.3218 6.90802C10.2151 8.93571 9.93467 9.39733 9.38124 10.1592C8.4113 11.4935 7.58296 11.9994 6.49259 11.9994C5.19901 11.9994 4.38107 11.4207 3.87446 10.5487C3.46094 9.83821 3.25781 8.90582 3.25781 7.8435L5.14671 7.9132Z" fill="#0081FB"/>
<path d="M4.74609 2.34341C5.61209 0.964395 6.86186 0 8.29527 0C9.12537 0 9.95078 0.253812 10.8124 0.980741C11.755 1.77532 12.7597 3.08449 14.0131 5.24121L14.4625 6.01498C15.5474 7.88217 16.1647 8.84279 16.526 9.29577C16.9905 9.87748 17.3159 10.0509 17.7386 10.0509C18.8108 10.0509 19.0783 9.03311 19.0783 7.86833L20.7447 7.8143C20.7447 9.0319 20.5124 9.92652 20.117 10.6333C19.7352 11.3168 18.9908 11.9998 17.7386 11.9998C16.9601 11.9998 16.2705 11.8251 15.5079 11.0818C14.9219 10.5114 14.2362 9.49805 13.7089 8.58708L12.1405 5.88059C11.3536 4.52231 10.6315 3.50955 10.214 3.05089C9.7645 2.55765 9.18676 1.96209 8.2648 1.96209C7.51864 1.96209 6.88493 2.50301 6.35465 3.33043L4.74609 2.34341Z" fill="url(#paint0_linear_589_2703)"/>
<path d="M8.26589 1.96209C7.51974 1.96209 6.88603 2.50301 6.35575 3.33043C5.60586 4.4996 5.14708 6.2411 5.14708 7.9135C5.14708 8.60335 5.29358 9.13292 5.48521 9.45333L3.87446 10.549C3.46094 9.83851 3.25781 8.90613 3.25781 7.84381C3.25781 5.91192 3.7711 3.89837 4.74719 2.34341C5.61319 0.964395 6.86295 0 8.29636 0L8.26589 1.96209Z" fill="url(#paint1_linear_589_2703)"/>
<defs>
<linearGradient id="paint0_linear_589_2703" x1="7.0477" y1="5.6889" x2="19.0909" y2="6.27768" gradientUnits="userSpaceOnUse">
<stop stop-color="#0064E1"/>
<stop offset="0.4" stop-color="#0064E1"/>
<stop offset="0.83" stop-color="#0073EE"/>
<stop offset="1" stop-color="#0082FB"/>
</linearGradient>
<linearGradient id="paint1_linear_589_2703" x1="5.77705" y1="8.73276" x2="5.77705" y2="4.14651" gradientUnits="userSpaceOnUse">
<stop stop-color="#0082FB"/>
<stop offset="1" stop-color="#0064E0"/>
</linearGradient>
</defs>
</svg>
