<svg width="16" height="16" viewBox="0 0 16 16" fill="none" xmlns="http://www.w3.org/2000/svg">
<path d="M7.9987 9.66732C8.91917 9.66732 9.66536 8.92113 9.66536 8.00065C9.66536 7.08018 8.91917 6.33398 7.9987 6.33398C7.07822 6.33398 6.33203 7.08018 6.33203 8.00065C6.33203 8.92113 7.07822 9.66732 7.9987 9.66732Z" stroke="#425673" stroke-width="1.1" stroke-miterlimit="10" stroke-linecap="round" stroke-linejoin="round"/>
<path d="M12.332 6.33398V9.66732" stroke="#425673" stroke-width="1.1" stroke-miterlimit="10" stroke-linecap="round" stroke-linejoin="round"/>
<path d="M3.33464 14.6673C4.80739 14.6673 6.0013 13.4734 6.0013 12.0007C6.0013 10.5279 4.80739 9.33398 3.33464 9.33398C1.86188 9.33398 0.667969 10.5279 0.667969 12.0007C0.667969 13.4734 1.86188 14.6673 3.33464 14.6673Z" stroke="#425673" stroke-width="1.1" stroke-miterlimit="10" stroke-linecap="round" stroke-linejoin="round"/>
<path d="M3.5013 11.168V11.788C3.5013 12.0213 3.38131 12.2413 3.17464 12.3613L2.66797 12.668" stroke="#425673" stroke-width="1.1" stroke-miterlimit="10" stroke-linecap="round" stroke-linejoin="round"/>
<path d="M1.33203 10.1327V5.99935C1.33203 3.66602 2.66536 2.66602 4.66536 2.66602H11.332C13.332 2.66602 14.6654 3.66602 14.6654 5.99935V9.99935C14.6654 12.3327 13.332 13.3327 11.332 13.3327H5.66536" stroke="#425673" stroke-width="1.1" stroke-miterlimit="10" stroke-linecap="round" stroke-linejoin="round"/>
</svg>
