<svg xmlns="http://www.w3.org/2000/svg" width="49" height="58" viewBox="0 0 49 58">
    <g fill="none" fill-rule="evenodd">
        <path fill="#F0D500" d="M27.942 19.003c23.5 0 16.236 34.575 19.288 34.575.977 0 1.709.804 1.709 1.732v.927c0 .99-.794 1.732-1.71 1.732H8.595c-.977 0-1.71-.804-1.71-1.732v-.927c0-.99.794-1.732 1.71-1.732 3.113 0-4.15-34.575 19.348-34.575z"/>
        <path fill="#231F20" fill-rule="nonzero" d="M41.78 48.305c-.244-.804-.305-3.03-.367-5.01-.305-8.659-.915-25.791-14.465-29.07.122-.185.183-.37.183-.618 0-.557-.427-.99-.977-1.051 2.198-2.165 4.212-5.752 5.127-10.268.122-.556 0-1.051-.305-1.422C30.366.124 29.206 0 28.291 0c-1.404 0-3.357.247-5.433.557-2.32.309-4.7.618-6.592.618-.976 0-1.77-.062-2.258-.247-.305-.124-.671-.062-.977.123-.305.186-.427.557-.427.866 0 3.773 2.38 8.04 5.005 10.639-.488.123-.793.556-.793 1.051 0 .247.122.495.244.68C3.693 17.69 3.082 34.637 2.777 43.295c-.06 1.98-.122 4.206-.366 5.01-1.343.186-2.38 1.36-2.38 2.783v.928c0 1.546 1.281 2.845 2.807 2.845h38.637c1.525 0 2.807-1.299 2.807-2.845v-.928c-.122-1.36-1.16-2.536-2.502-2.783zM14.862 3.34c2.137.247 5.31-.186 8.301-.557 2.015-.247 3.846-.495 5.128-.495.427 0 .671 0 .854.062-1.282 5.814-4.395 9.34-6.53 10.267h-1.588c-2.136-1.113-5.554-5.257-6.165-9.277zm27.162 48.676c0 .371-.305.68-.672.68H2.716a.682.682 0 0 1-.671-.68v-.928c0-.37.305-.68.671-.68 1.831 0 1.953-2.35 2.136-7.051.367-9.587.977-27.462 17.213-27.462S38.91 33.77 39.277 43.42c.183 4.7.244 7.05 2.136 7.05.367 0 .672.31.672.681v.866h-.061z"/>
        <path fill="#000" d="M18.83 41.625c-.183-.062-.427-.185-.61-.247l-.306-.124.061-.31.183-1.67.061-.618.55.31c.06.061.183.061.244.123s.183.062.244.124c.183.062.366.124.61.186.184.061.367.123.61.123.184.062.367.062.49.062.182 0 .304.062.487.062H22.126c.122 0 .305-.062.427-.062l.366-.185c.122-.062.244-.186.367-.248.122-.062.183-.185.244-.31l.183-.37a.535.535 0 0 0 0-.433c0-.124-.061-.31-.061-.433-.061-.124-.122-.247-.183-.31-.061-.123-.183-.185-.244-.247-.123-.062-.184-.185-.306-.247l-.366-.186c-.122-.062-.244-.123-.366-.123-.244-.124-.55-.186-.794-.31l-.732-.37a6.631 6.631 0 0 1-.671-.372 4.286 4.286 0 0 1-.61-.495c-.184-.185-.367-.309-.49-.494-.121-.186-.304-.372-.365-.619-.122-.247-.183-.495-.244-.742-.062-.248-.062-.495-.062-.742 0-.31 0-.619.062-.928.06-.31.122-.557.244-.866.122-.247.244-.495.427-.742.183-.248.366-.433.55-.619.243-.185.427-.37.67-.495.245-.123.489-.247.794-.309l.122-.062V26.41h2.137V28.203h.122c.122 0 .305.063.427.063.183.061.305.061.427.123s.244.062.305.062.183.062.305.124l.367.123-.061.372-.183 1.484-.061.495-.489-.186c-.06 0-.183-.062-.366-.123-.061 0-.183-.062-.305-.062-.183-.062-.305-.062-.488-.124h-1.099c-.183 0-.305.062-.488.062-.123.062-.306.124-.428.185a.74.74 0 0 0-.305.31l-.183.37c-.061.124-.061.248-.122.372v.433c0 .123.061.309.122.433.061.123.122.247.183.309.061.124.183.186.244.247.122.062.183.124.305.186l.367.185c.122.062.244.124.366.124.244.124.488.186.793.31l.733.37c.244.124.427.248.671.433.244.124.427.31.61.495.184.186.367.371.489.557.122.186.244.371.366.618.122.248.183.495.244.743.061.247.061.494.061.742 0 .31 0 .618-.06.866-.062.309-.123.556-.245.866-.122.247-.244.494-.427.742a5.552 5.552 0 0 1-.55.618c-.244.186-.488.371-.732.495a3.5 3.5 0 0 1-.854.31l-.123.061V43.914h-2.136V42.12h-.122c-.244 0-.488-.062-.732-.124a9.91 9.91 0 0 1-.672-.185c-.244 0-.488-.124-.671-.186"/>
    </g>
</svg>
