<svg width="16" height="16" viewBox="0 0 16 16" fill="none" xmlns="http://www.w3.org/2000/svg">
<path d="M4.0026 2.66634C5.11594 1.83301 6.5026 1.33301 8.0026 1.33301C11.6826 1.33301 14.6693 4.31967 14.6693 7.99967C14.6693 11.6797 11.6826 14.6663 8.0026 14.6663C4.3226 14.6663 1.33594 11.6797 1.33594 7.99967C1.33594 6.79301 1.65593 5.65967 2.2226 4.67967L8.0026 7.99967" stroke="#425673" stroke-width="1.1" stroke-miterlimit="10" stroke-linecap="round" stroke-linejoin="round"/>
<path d="M4.55332 5.97333C4.19999 6.56666 4 7.26 4 8C4 10.2067 5.79333 12 8 12C10.2067 12 12 10.2067 12 8C12 5.79333 10.2067 4 8 4C7.39333 4 6.81334 4.13334 6.30001 4.38" stroke="#425673" stroke-width="1.1" stroke-miterlimit="10" stroke-linecap="round" stroke-linejoin="round"/>
</svg>
