<svg width="17" height="16" viewBox="0 0 17 16" fill="none" xmlns="http://www.w3.org/2000/svg">
<path d="M4.76839 13.134C5.34922 12.5473 6.23464 12.594 6.74464 13.234L7.46005 14.134C8.0338 14.8473 8.96172 14.8473 9.53547 14.134L10.2509 13.234C10.7609 12.594 11.6463 12.5473 12.2271 13.134C13.488 14.4007 14.5151 13.9806 14.5151 12.2073V4.69398C14.5221 2.00732 13.8563 1.33398 11.1788 1.33398H5.8238C3.1463 1.33398 2.48047 2.00732 2.48047 4.69398V12.2006C2.48047 13.9806 3.51464 14.394 4.76839 13.134Z" stroke="#425673" stroke-width="1.1" stroke-linecap="round" stroke-linejoin="round"/>
<path d="M5.73309 7.33333H5.73945" stroke="#425673" stroke-width="1.1" stroke-linecap="round" stroke-linejoin="round"/>
<path d="M7.71875 7.33398H11.6146" stroke="#425673" stroke-width="1.1" stroke-linecap="round" stroke-linejoin="round"/>
<path d="M5.73309 4.66732H5.73945" stroke="#425673" stroke-width="1.1" stroke-linecap="round" stroke-linejoin="round"/>
<path d="M7.71875 4.66602H11.6146" stroke="#425673" stroke-width="1.1" stroke-linecap="round" stroke-linejoin="round"/>
</svg>
