<svg xmlns="http://www.w3.org/2000/svg" width="16" height="16">
    <path fill="#686F76" fill-opacity=".702" fill-rule="evenodd" d="M14.5 13h-3.766l-2.35 2.82a.497.497 0 0 1-.768 0L5.266 13H1.5C.673 13 0 12.327 0 11.5v-10C0 .673.673 0 1.5 0h13c.827 0 1.5.673 1.5 1.5v10c0 .827-.673 1.5-1.5 1.5zM15 1.5a.5.5 0 0 0-.5-.5h-13a.5.5 0 0 0-.5.5v10a.5.5 0 0 0 .5.5h4c.148 0 .289.065.384.18L8 14.719l2.116-2.539A.497.497 0 0 1 10.5 12h4c.275 0 .5-.225.5-.5v-10zM12.5 9h-9a.5.5 0 0 1 0-1h9a.5.5 0 0 1 0 1zm0-4h-9a.5.5 0 0 1 0-1h9a.5.5 0 0 1 0 1z"/>
</svg>
