<svg xmlns="http://www.w3.org/2000/svg" width="11" height="11">
    <path fill="#666D70" fill-opacity=".6" fill-rule="evenodd" d="M10.312 10.999H.687A.688.688 0 0 1 0 10.312V.686c0-.379.308-.687.687-.687H6.88v.687H.687v9.626h9.625V3.439H11v6.873a.688.688 0 0 1-.688.687zm-.654-7.582l-5.18 5.124h-.105l-.027-.006-2.14.747-.49-.433.667-2.238.004-.02v-.123l5.305-5.024.996-1.158c.401-.397 1.105-.397 1.506 0l.461.436c.416.412.481 1.209.066 1.62L9.658 3.417zm-7.249 5.18l1.376-.46-.936-.918-.44 1.378zm.736-1.868L4.237 7.83l4.811-4.793-1.061-1.073-4.842 4.765zm7.095-5.381L9.692.784c-.067-.067-.21-.167-.306-.167a.355.355 0 0 0-.251.102l-.783.775 1.106 1.127.783-.775a.35.35 0 0 0-.001-.498z"/>
</svg>
