<svg xmlns="http://www.w3.org/2000/svg" width="13" height="16">
    <path fill="#686F76" fill-opacity=".702" fill-rule="evenodd" d="M8.949 12.998a2.5 2.5 0 1 1-4.899 0H0v-.999h1v-6c0-2.594 1.982-4.701 4.51-4.951-.001-.017-.01-.032-.01-.049a1 1 0 1 1 2 0c0 .017-.009.032-.01.049 2.528.25 4.51 2.357 4.51 4.951v6h1v.999H8.949zm-2.449 2A1.5 1.5 0 0 0 8 13.499a1.49 1.49 0 0 0-.101-.501H5.101a1.466 1.466 0 0 0-.101.501 1.5 1.5 0 0 0 1.5 1.499zm4.5-5V5.999a4.001 4.001 0 0 0-4-4.001H6c-2.209 0-4 1.792-4 4.001v6h9V9.998z"/>
</svg>
