<svg width="46" height="46" viewBox="0 0 46 46" fill="none" xmlns="http://www.w3.org/2000/svg">
<g clip-path="url(#clip0_57_414)">
<path d="M44.499 15.2507C37.1977 12.7699 30.1585 11.0475 23 15.7683C15.8416 11.0475 8.80226 12.7699 1.50102 15.2507C0.60375 15.5556 0 16.4003 0 17.3497V43.8951C0 45.326 1.3986 46.3402 2.75784 45.8932C8.00894 44.1659 13.1997 42.2221 18.3408 43.6542C19.3649 43.9394 20.2977 44.4943 21.038 45.2573C21.9511 46.1982 24.0048 46.2569 24.9375 45.3317C25.7537 44.5219 26.7353 43.8949 27.8472 43.6026C32.9269 42.2675 38.0551 44.187 43.2422 45.8933C44.6013 46.3403 46 45.3261 46 43.8952V17.3497C46 16.4003 45.3963 15.5556 44.499 15.2507Z" fill="#A1BDD6"/>
<path d="M41.9264 15.4202C35.4988 13.2366 29.3018 11.7206 23 15.8757C16.6982 11.7206 10.5011 13.2366 4.07362 15.4202C3.28362 15.6885 2.7522 16.432 2.7522 17.2677V39.818C2.7522 41.0795 3.98593 41.9694 5.18427 41.5753C10.8801 39.7019 16.4952 38.5175 22.0473 41.7968C22.636 42.1445 23.3642 42.1445 23.9528 41.7968C29.505 38.5175 35.1201 39.7019 40.8158 41.5753C42.0142 41.9694 43.2479 41.0795 43.2479 39.818V17.2677C43.2478 16.432 42.7164 15.6885 41.9264 15.4202Z" fill="#CFDBE4"/>
<path d="M43.2478 37.7726C36.3891 35.3824 29.65 33.2121 23 37.7726V11.2438C29.3018 7.08861 35.4989 8.60463 41.9264 10.7882C42.7164 11.0566 43.2478 11.8 43.2478 12.6357V37.7726Z" fill="#F7F9FA"/>
<path d="M41.9264 10.7882C37.8358 9.39852 33.8384 8.27925 29.848 8.72011C32.6145 8.99647 35.397 9.82771 38.2242 10.7882C39.0141 11.0566 39.5456 11.8 39.5456 12.6358V36.5382C40.7759 36.9169 42.0099 37.3412 43.2478 37.7726V12.6358C43.2479 11.8 42.7164 11.0566 41.9264 10.7882Z" fill="#ECF1F5"/>
<path d="M2.7522 37.7727C9.61096 35.3825 16.35 33.2122 23 37.7727V11.2439C16.6982 7.08873 10.5011 8.60475 4.07362 10.7883C3.28362 11.0567 2.7522 11.8001 2.7522 12.6359V37.7727Z" fill="#F7F9FA"/>
<path d="M12.4495 8.72015C14.729 8.97207 17.0063 9.73305 19.2974 11.2438V35.8907C20.5347 36.3149 21.7687 36.9284 22.9996 37.7726V11.2438C19.4698 8.91619 15.9726 8.36814 12.4495 8.72015Z" fill="#ECF1F5"/>
<path d="M6.45433 14.5924C6.16153 14.5924 5.88931 14.4058 5.79416 14.1122C5.67593 13.7475 5.87565 13.3559 6.24033 13.2378C9.71351 12.1114 12.138 11.6309 14.3473 11.6309C16.242 11.6309 17.9576 12.0029 19.5922 12.7684C19.9393 12.9309 20.089 13.3442 19.9265 13.6914C19.7639 14.0387 19.3508 14.1882 19.0034 14.0256C17.5571 13.3484 16.0341 13.0192 14.3473 13.0192C12.2918 13.0192 9.99544 13.4796 6.66852 14.5584C6.59746 14.5814 6.52522 14.5924 6.45433 14.5924Z" fill="#685E68"/>
<path d="M6.45433 17.9494C6.16153 17.9494 5.88931 17.7628 5.79416 17.4692C5.67593 17.1045 5.87565 16.713 6.24033 16.5949C9.71351 15.4685 12.138 14.9879 14.3473 14.9879C16.242 14.9879 17.9576 15.36 19.5922 16.1254C19.9393 16.288 20.089 16.7012 19.9265 17.0485C19.7639 17.3957 19.3508 17.5453 19.0034 17.3827C17.5571 16.7055 16.0341 16.3763 14.3473 16.3763C12.2918 16.3763 9.99544 16.8366 6.66852 17.9155C6.59746 17.9385 6.52522 17.9494 6.45433 17.9494Z" fill="#685E68"/>
<path d="M6.45433 21.3066C6.16153 21.3066 5.88931 21.12 5.79416 20.8264C5.67593 20.4617 5.87565 20.0702 6.24033 19.952C9.71351 18.8257 12.138 18.3451 14.3473 18.3451C16.242 18.3451 17.9576 18.7171 19.5922 19.4826C19.9393 19.6451 20.089 20.0584 19.9265 20.4057C19.7639 20.7528 19.3508 20.9024 19.0034 20.7399C17.5571 20.0626 16.0341 19.7334 14.3473 19.7334C12.2918 19.7334 9.99544 20.1938 6.66852 21.2727C6.59746 21.2957 6.52522 21.3066 6.45433 21.3066Z" fill="#685E68"/>
<path d="M39.5461 26.6124C39.4751 26.6124 39.4029 26.6014 39.3318 26.5783C36.0049 25.4995 33.7085 25.0391 31.653 25.0391C29.9662 25.0391 28.4432 25.3683 26.9969 26.0455C26.6496 26.2082 26.2364 26.0585 26.0738 25.7113C25.9113 25.3642 26.061 24.9508 26.4081 24.7883C28.0427 24.0228 29.7584 23.6508 31.653 23.6508C33.8623 23.6508 36.2868 24.1313 39.76 25.2577C40.1247 25.3759 40.3245 25.7674 40.2061 26.1321C40.1111 26.4258 39.8389 26.6124 39.5461 26.6124Z" fill="#685E68"/>
<path d="M39.5461 29.9694C39.4751 29.9694 39.4029 29.9585 39.3318 29.9354C36.0049 28.8565 33.7085 28.3962 31.653 28.3962C29.9662 28.3962 28.4432 28.7254 26.9969 29.4026C26.6496 29.5652 26.2364 29.4155 26.0738 29.0684C25.9113 28.7212 26.061 28.3079 26.4081 28.1453C28.0427 27.3799 29.7584 27.0078 31.653 27.0078C33.8623 27.0078 36.2868 27.4884 39.76 28.6148C40.1247 28.733 40.3245 29.1244 40.2061 29.4891C40.1111 29.7828 39.8389 29.9694 39.5461 29.9694Z" fill="#685E68"/>
<path d="M39.5461 33.3266C39.4751 33.3266 39.4029 33.3156 39.3318 33.2926C36.0049 32.2137 33.7085 31.7533 31.653 31.7533C29.9662 31.7533 28.4432 32.0825 26.9969 32.7598C26.6496 32.9223 26.2364 32.7727 26.0738 32.4256C25.9113 32.0784 26.061 31.665 26.4081 31.5025C28.0427 30.737 29.7584 30.365 31.653 30.365C33.8623 30.365 36.2868 30.8456 39.76 31.9719C40.1247 32.0902 40.3245 32.4816 40.2061 32.8463C40.1111 33.1399 39.8389 33.3266 39.5461 33.3266Z" fill="#685E68"/>
<path d="M23.3369 0.200329L24.1232 1.63783C24.1585 1.70243 24.2117 1.75561 24.2763 1.79092L25.7138 2.57715C25.9809 2.72323 25.9809 3.10686 25.7138 3.25295L24.2763 4.03917C24.2117 4.07448 24.1585 4.12767 24.1232 4.19227L23.3369 5.62977C23.1908 5.89687 22.8072 5.89687 22.6611 5.62977L21.8749 4.19227C21.8396 4.12767 21.7864 4.07448 21.7218 4.03917L20.2843 3.25295C20.0172 3.10686 20.0172 2.72323 20.2843 2.57715L21.7218 1.79092C21.7864 1.75561 21.8396 1.70243 21.8749 1.63783L22.6611 0.200329C22.8072 -0.0667764 23.1908 -0.0667764 23.3369 0.200329Z" fill="#68ACE9"/>
<path d="M33.4618 14.4092L34.248 15.8467C34.2833 15.9113 34.3365 15.9645 34.4011 15.9998L35.8386 16.786C36.1057 16.9321 36.1057 17.3157 35.8386 17.4618L34.4011 18.248C34.3365 18.2833 34.2833 18.3365 34.248 18.4011L33.4618 19.8386C33.3157 20.1057 32.9321 20.1057 32.786 19.8386L31.9998 18.4011C31.9645 18.3365 31.9113 18.2833 31.8467 18.248L30.4092 17.4618C30.1421 17.3157 30.1421 16.9321 30.4092 16.786L31.8467 15.9998C31.9113 15.9645 31.9645 15.9113 31.9998 15.8467L32.786 14.4092C32.9321 14.1421 33.3157 14.1421 33.4618 14.4092Z" fill="#68ACE9"/>
<path d="M13.2139 24.9461L14.0001 26.3836C14.0354 26.4482 14.0886 26.5014 14.1532 26.5367L15.5907 27.3229C15.8578 27.469 15.8578 27.8527 15.5907 27.9987L14.1532 28.785C14.0886 28.8203 14.0354 28.8735 14.0001 28.9381L13.2139 30.3756C13.0678 30.6427 12.6842 30.6427 12.5381 30.3756L11.7519 28.9381C11.7166 28.8735 11.6634 28.8203 11.5988 28.785L10.1613 27.9987C9.89416 27.8527 9.89416 27.469 10.1613 27.3229L11.5988 26.5367C11.6634 26.5014 11.7166 26.4482 11.7519 26.3836L12.5381 24.9461C12.6842 24.6789 13.0678 24.6789 13.2139 24.9461Z" fill="#68ACE9"/>
</g>
<defs>
<clipPath id="clip0_57_414">
<rect width="46" height="46" fill="white"/>
</clipPath>
</defs>
</svg>
