<svg width="22" height="22" viewBox="0 0 22 22" fill="none" xmlns="http://www.w3.org/2000/svg">
<path d="M20.9 12.4668H1.10003C0.695024 12.4668 0.366699 12.7951 0.366699 13.2001V16.8668C0.366699 17.2718 0.695024 17.6001 1.10003 17.6001H20.9C21.305 17.6001 21.6334 17.2718 21.6334 16.8668V13.2001C21.6334 12.7951 21.305 12.4668 20.9 12.4668Z" fill="#FBFBFB"/>
<path d="M18.6998 9.90002V12.4667H3.2998V9.90002C3.2998 9.09 3.95645 8.43335 4.76647 8.43335H17.2331C18.0432 8.43335 18.6998 9.09 18.6998 9.90002Z" fill="#F2F2F2"/>
<path d="M18.6998 17.6001V20.1668C18.6998 20.9768 18.0432 21.6334 17.2331 21.6334H4.76647C3.95645 21.6334 3.2998 20.9768 3.2998 20.1668V17.6001H18.6998Z" fill="#E2E2E2"/>
<path d="M1.1 17.9667H2.93333V20.1667C2.93455 21.1787 3.75465 21.9988 4.76667 22H17.2333C18.2454 21.9988 19.0655 21.1787 19.0667 20.1667V17.9667H20.9C21.5075 17.9667 22 17.4742 22 16.8667V13.2C22 12.5925 21.5075 12.1 20.9 12.1H19.0667V9.9C19.0655 8.88798 18.2454 8.06788 17.2333 8.06667V6.23333C17.2333 2.79076 14.4426 0 11 0C7.55743 0 4.76667 2.79076 4.76667 6.23333V8.06667C3.75465 8.06788 2.93455 8.88798 2.93333 9.9V12.1H1.1C0.492487 12.1 0 12.5925 0 13.2V16.8667C0 17.4742 0.492487 17.9667 1.1 17.9667ZM18.3333 20.1667C18.3333 20.7742 17.8408 21.2667 17.2333 21.2667H4.76667C4.15915 21.2667 3.66667 20.7742 3.66667 20.1667V17.9667H18.3333V20.1667ZM5.5 6.23333C5.5 3.19577 7.96243 0.733333 11 0.733333C14.0376 0.733333 16.5 3.19577 16.5 6.23333V8.06667H15.0333V6.23333C15.0333 4.00578 13.2275 2.2 11 2.2C8.77245 2.2 6.96667 4.00578 6.96667 6.23333V8.06667H5.5V6.23333ZM7.7 8.06667V6.23333C7.7 4.41079 9.17746 2.93333 11 2.93333C12.8225 2.93333 14.3 4.41079 14.3 6.23333V8.06667H7.7ZM3.66667 9.9C3.66667 9.29249 4.15915 8.8 4.76667 8.8H17.2333C17.8408 8.8 18.3333 9.29249 18.3333 9.9V12.1H3.66667V9.9ZM0.733333 13.2C0.733333 12.9975 0.897496 12.8333 1.1 12.8333H20.9C21.1025 12.8333 21.2667 12.9975 21.2667 13.2V16.8667C21.2667 17.0692 21.1025 17.2333 20.9 17.2333H1.1C0.897496 17.2333 0.733333 17.0692 0.733333 16.8667V13.2Z" fill="#A1A9AF"/>
<path d="M1.52848 15.9702C1.58244 16.0511 1.66635 16.1072 1.76173 16.1263C1.8571 16.1453 1.95614 16.1257 2.03705 16.0717L2.56688 15.7183V16.1333C2.56688 16.3358 2.73104 16.5 2.93355 16.5C3.13605 16.5 3.30021 16.3358 3.30021 16.1333V15.7183L3.83005 16.0717C3.93904 16.1444 4.07854 16.1535 4.19599 16.0954C4.31345 16.0374 4.39103 15.9211 4.39949 15.7904C4.40796 15.6596 4.34604 15.5343 4.23705 15.4616L3.59355 15.0333L4.23595 14.6051C4.34494 14.5323 4.40686 14.407 4.39839 14.2763C4.38993 14.1455 4.31235 14.0293 4.19489 13.9712C4.07744 13.9132 3.93794 13.9222 3.82895 13.9949L3.30021 14.3484V13.9333C3.30021 13.7308 3.13605 13.5667 2.93355 13.5667C2.73104 13.5667 2.56688 13.7308 2.56688 13.9333V14.3484L2.03705 13.9949C1.86856 13.8825 1.64087 13.928 1.52848 14.0965C1.41609 14.265 1.46156 14.4927 1.63005 14.6051L2.27355 15.0333L1.63005 15.4616C1.54913 15.5155 1.49297 15.5995 1.47392 15.6948C1.45487 15.7902 1.4745 15.8892 1.52848 15.9702Z" fill="#A1A9AF"/>
<path d="M5.56168 15.9702C5.61565 16.0511 5.69955 16.1072 5.79493 16.1263C5.89031 16.1453 5.98935 16.1257 6.07025 16.0717L6.60008 15.7183V16.1333C6.60008 16.3358 6.76425 16.5 6.96675 16.5C7.16926 16.5 7.33342 16.3358 7.33342 16.1333V15.7183L7.86325 16.0717C7.97224 16.1444 8.11174 16.1535 8.2292 16.0954C8.34665 16.0374 8.42423 15.9211 8.4327 15.7904C8.44116 15.6596 8.37924 15.5343 8.27025 15.4616L7.62675 15.0333L8.26915 14.6051C8.37814 14.5323 8.44006 14.407 8.4316 14.2763C8.42313 14.1455 8.34555 14.0293 8.2281 13.9712C8.11064 13.9132 7.97114 13.9222 7.86215 13.9949L7.33342 14.3484V13.9333C7.33342 13.7308 7.16926 13.5667 6.96675 13.5667C6.76425 13.5667 6.60008 13.7308 6.60008 13.9333V14.3484L6.07025 13.9949C5.90177 13.8825 5.67407 13.928 5.56168 14.0965C5.44929 14.265 5.49477 14.4927 5.66325 14.6051L6.30675 15.0333L5.66435 15.4616C5.58325 15.5154 5.52687 15.5992 5.50761 15.6946C5.48835 15.79 5.50781 15.8891 5.56168 15.9702Z" fill="#A1A9AF"/>
<path d="M13.6281 15.9702C13.6821 16.0511 13.766 16.1072 13.8613 16.1263C13.9567 16.1453 14.0558 16.1257 14.1367 16.0717L14.6665 15.7183V16.1333C14.6665 16.3358 14.8307 16.5 15.0332 16.5C15.2357 16.5 15.3998 16.3358 15.3998 16.1333V15.7183L15.9297 16.0717C16.0386 16.1444 16.1781 16.1535 16.2956 16.0954C16.4131 16.0374 16.4906 15.9211 16.4991 15.7904C16.5076 15.6596 16.4456 15.5343 16.3367 15.4616L15.6932 15.0333L16.3356 14.6051C16.4445 14.5323 16.5065 14.407 16.498 14.2763C16.4895 14.1455 16.412 14.0293 16.2945 13.9712C16.177 13.9132 16.0375 13.9222 15.9286 13.9949L15.3998 14.3484V13.9333C15.3998 13.7308 15.2357 13.5667 15.0332 13.5667C14.8307 13.5667 14.6665 13.7308 14.6665 13.9333V14.3484L14.1367 13.9949C13.9682 13.8825 13.7405 13.928 13.6281 14.0965C13.5157 14.265 13.5612 14.4927 13.7297 14.6051L14.3732 15.0333L13.7308 15.4616C13.6497 15.5154 13.5933 15.5992 13.574 15.6946C13.5548 15.79 13.5742 15.8891 13.6281 15.9702Z" fill="#A1A9AF"/>
<path d="M9.59489 15.9702C9.64885 16.0511 9.73275 16.1072 9.82813 16.1263C9.92351 16.1453 10.0225 16.1257 10.1035 16.0717L10.6333 15.7183V16.1333C10.6333 16.3358 10.7975 16.5 11 16.5C11.2025 16.5 11.3666 16.3358 11.3666 16.1333V15.7183L11.8965 16.0717C12.0054 16.1444 12.1449 16.1535 12.2624 16.0954C12.3799 16.0374 12.4574 15.9211 12.4659 15.7904C12.4744 15.6596 12.4124 15.5343 12.3035 15.4616L11.66 15.0333L12.3024 14.6051C12.4113 14.5323 12.4733 14.407 12.4648 14.2763C12.4563 14.1455 12.3788 14.0293 12.2613 13.9712C12.1438 13.9132 12.0043 13.9222 11.8954 13.9949L11.3666 14.3484V13.9333C11.3666 13.7308 11.2025 13.5667 11 13.5667C10.7975 13.5667 10.6333 13.7308 10.6333 13.9333V14.3484L10.1035 13.9949C9.93497 13.8825 9.70728 13.928 9.59489 14.0965C9.4825 14.265 9.52797 14.4927 9.69645 14.6051L10.34 15.0333L9.69755 15.4616C9.61646 15.5154 9.56007 15.5992 9.54081 15.6946C9.52156 15.79 9.54101 15.8891 9.59489 15.9702Z" fill="#A1A9AF"/>
<path d="M5.86657 9.53345H4.76657C4.56406 9.53345 4.3999 9.69761 4.3999 9.90011V11.0001C4.3999 11.2026 4.56406 11.3668 4.76657 11.3668C4.96907 11.3668 5.13324 11.2026 5.13324 11.0001V10.2668H5.86657C6.06907 10.2668 6.23324 10.1026 6.23324 9.90011C6.23324 9.69761 6.06907 9.53345 5.86657 9.53345Z" fill="#A1A9AF"/>
<path d="M17.9668 16.4999H20.1668C20.3693 16.4999 20.5334 16.3358 20.5334 16.1333C20.5334 15.9308 20.3693 15.7666 20.1668 15.7666H17.9668C17.7643 15.7666 17.6001 15.9308 17.6001 16.1333C17.6001 16.3358 17.7643 16.4999 17.9668 16.4999Z" fill="#A1A9AF"/>
</svg>
