<svg width="14" height="20" viewBox="0 0 14 20" fill="none" xmlns="http://www.w3.org/2000/svg">
<path d="M6.99609 14.5616C7.31499 14.5616 7.57344 14.303 7.57344 13.9843V11.7998C7.57344 11.4809 7.31498 11.2225 6.99609 11.2225C6.67735 11.2225 6.41875 11.4809 6.41875 11.7998V13.9843C6.41875 14.303 6.67734 14.5616 6.99609 14.5616Z" fill="#85889D" stroke="#85889D" stroke-width="0.1"/>
<path d="M13.0408 6.7343H10.595V4.21542C10.595 2.41024 8.97624 0.95 6.99698 0.95C5.01786 0.95 3.39908 2.41024 3.39908 4.21542V6.7343H0.953125C0.634227 6.7343 0.375781 6.9929 0.375781 7.31165V14.0557C0.375781 16.8096 2.61617 19.05 5.37004 19.05H8.62405C11.3779 19.05 13.6183 16.8096 13.6183 14.0557V7.31165V7.31162C13.6182 6.9929 13.3597 6.7343 13.0408 6.7343ZM4.55377 4.21542C4.55377 3.05805 5.64283 2.10469 6.99698 2.10469C8.35113 2.10469 9.44033 3.05805 9.44033 4.21542V6.7343H4.55377V4.21542ZM12.4635 14.0557C12.4635 16.1728 10.7411 17.8953 8.62392 17.8953H5.37004C3.25299 17.8953 1.53047 16.1728 1.53047 14.0557V7.88899H12.4635V14.0557Z" fill="#85889D" stroke="#85889D" stroke-width="0.1"/>
</svg>
