<svg xmlns="http://www.w3.org/2000/svg" width="17" height="19">
    <path fill="#FFF" fill-rule="evenodd" d="M1 0h15v18H1V0z"/>
    <path fill="#CC4B4C" fill-rule="evenodd" d="M12.541 10.843c-.439 0-.977.054-1.602.162-.873-.881-1.784-2.168-2.427-3.432.638-2.554.319-2.916.178-3.087-.15-.181-.361-.476-.601-.476-.101 0-.376.044-.485.078-.275.087-.422.289-.541.552-.337.75.126 2.029.602 3.015a29.567 29.567 0 0 1-1.807 4.878c-1.808.788-2.768 1.562-2.855 2.301-.031.268.035.663.532 1.017a.789.789 0 0 0 .461.148c.418 0 .839-.304 1.327-.956.356-.476.738-1.124 1.137-1.93a23.697 23.697 0 0 1 4.211-1.28c.753.688 1.428 1.037 2.008 1.037.427 0 .794-.187 1.059-.541.276-.368.339-.697.186-.98-.184-.34-.636-.506-1.383-.506zm-8.534 4.39c-.223-.163-.211-.273-.206-.314.03-.253.445-.7 1.465-1.245-.773 1.357-1.188 1.538-1.259 1.559zM7.918 4.83c.02-.007.498.499.046 1.459-.68-.662-.093-1.444-.046-1.459zm-.986 7.273c.484-1.098.935-2.31 1.276-3.433a15.516 15.516 0 0 0 1.822 2.516 24.894 24.894 0 0 0-3.098.917zm6.153-.217c-.146.195-.465.2-.577.2-.254 0-.349-.144-.738-.429.321-.039.623-.049.864-.049.424 0 .502.06.561.09a.729.729 0 0 1-.11.188z"/>
    <path fill="#686F76" fill-opacity=".702" fill-rule="evenodd" d="M17 4l-4-4-.001.002H.5a.5.5 0 0 0-.5.5v18a.5.5 0 0 0 .5.499h16a.5.5 0 0 0 .5-.499v-14.5h-.002L17 4zm-1.232.002H13V1.234l2.768 2.768zm.232 13.5a.5.5 0 0 1-.5.5h-14a.5.5 0 0 1-.5-.5V1.501a.5.5 0 0 1 .5-.499H12v4h4v12.5z"/>
</svg>
