<svg width="17" height="17" viewBox="0 0 17 17" fill="none" xmlns="http://www.w3.org/2000/svg">
<path d="M12.0027 5.77399C11.9627 5.76732 11.916 5.76732 11.876 5.77399C10.956 5.74065 10.2227 4.98732 10.2227 4.05399C10.2227 3.10065 10.9893 2.33398 11.9427 2.33398C12.896 2.33398 13.6627 3.10732 13.6627 4.05399C13.656 4.98732 12.9227 5.74065 12.0027 5.77399Z" stroke="#425673" stroke-width="1.1" stroke-linecap="round" stroke-linejoin="round"/>
<path d="M11.3169 10.6274C12.2302 10.7808 13.2369 10.6208 13.9435 10.1474C14.8835 9.52076 14.8835 8.49409 13.9435 7.86743C13.2302 7.39409 12.2102 7.23409 11.2969 7.39409" stroke="#425673" stroke-width="1.1" stroke-linecap="round" stroke-linejoin="round"/>
<path d="M3.97641 5.77399C4.01641 5.76732 4.06307 5.76732 4.10307 5.77399C5.02307 5.74065 5.75641 4.98732 5.75641 4.05399C5.75641 3.10065 4.98974 2.33398 4.03641 2.33398C3.08307 2.33398 2.31641 3.10732 2.31641 4.05399C2.32307 4.98732 3.05641 5.74065 3.97641 5.77399Z" stroke="#425673" stroke-width="1.1" stroke-linecap="round" stroke-linejoin="round"/>
<path d="M4.6637 10.6274C3.75036 10.7808 2.7437 10.6208 2.03703 10.1474C1.09703 9.52076 1.09703 8.49409 2.03703 7.86743C2.75036 7.39409 3.77036 7.23409 4.6837 7.39409" stroke="#425673" stroke-width="1.1" stroke-linecap="round" stroke-linejoin="round"/>
<path d="M8.00266 10.7525C7.96266 10.7458 7.91599 10.7458 7.87599 10.7525C6.95599 10.7192 6.22266 9.96583 6.22266 9.0325C6.22266 8.07917 6.98932 7.3125 7.94265 7.3125C8.89599 7.3125 9.66266 8.08583 9.66266 9.0325C9.65599 9.96583 8.92266 10.7258 8.00266 10.7525Z" stroke="#425673" stroke-width="1.1" stroke-linecap="round" stroke-linejoin="round"/>
<path d="M6.06437 12.8523C5.12438 13.4789 5.12438 14.5056 6.06437 15.1323C7.13104 15.8456 8.87771 15.8456 9.94437 15.1323C10.8844 14.5056 10.8844 13.4789 9.94437 12.8523C8.88437 12.1456 7.13104 12.1456 6.06437 12.8523Z" stroke="#425673" stroke-width="1.1" stroke-linecap="round" stroke-linejoin="round"/>
</svg>
