<svg width="14" height="14" viewBox="0 0 14 14" fill="none" xmlns="http://www.w3.org/2000/svg">
<path d="M10.4989 4.17602C10.4639 4.17018 10.4231 4.17018 10.3881 4.17602C9.58307 4.14685 8.94141 3.48768 8.94141 2.67102C8.94141 1.83685 9.61224 1.16602 10.4464 1.16602C11.2806 1.16602 11.9514 1.84268 11.9514 2.67102C11.9456 3.48768 11.3039 4.14685 10.4989 4.17602Z" stroke="#25352B" stroke-linecap="round" stroke-linejoin="round"/>
<path d="M9.89641 8.42278C10.6956 8.55694 11.5764 8.41694 12.1947 8.00278C13.0172 7.45444 13.0172 6.55611 12.1947 6.00778C11.5706 5.59361 10.6781 5.45361 9.87891 5.59361" stroke="#25352B" stroke-linecap="round" stroke-linejoin="round"/>
<path d="M3.48375 4.17602C3.51875 4.17018 3.55958 4.17018 3.59458 4.17602C4.39958 4.14685 5.04125 3.48768 5.04125 2.67102C5.04125 1.83685 4.37042 1.16602 3.53625 1.16602C2.70208 1.16602 2.03125 1.84268 2.03125 2.67102C2.03708 3.48768 2.67875 4.14685 3.48375 4.17602Z" stroke="#25352B" stroke-linecap="round" stroke-linejoin="round"/>
<path d="M4.08318 8.42278C3.28401 8.55694 2.40318 8.41694 1.78484 8.00278C0.962344 7.45444 0.962344 6.55611 1.78484 6.00778C2.40901 5.59361 3.30151 5.45361 4.10068 5.59361" stroke="#25352B" stroke-linecap="round" stroke-linejoin="round"/>
<path d="M7.00281 8.53344C6.96781 8.52761 6.92698 8.52761 6.89198 8.53344C6.08698 8.50427 5.44531 7.84511 5.44531 7.02844C5.44531 6.19427 6.11614 5.52344 6.95031 5.52344C7.78448 5.52344 8.45531 6.20011 8.45531 7.02844C8.44948 7.84511 7.80781 8.51011 7.00281 8.53344Z" stroke="#25352B" stroke-linecap="round" stroke-linejoin="round"/>
<path d="M5.30438 10.37C4.48188 10.9183 4.48188 11.8167 5.30438 12.365C6.23771 12.9892 7.76604 12.9892 8.69938 12.365C9.52188 11.8167 9.52188 10.9183 8.69938 10.37C7.77187 9.75167 6.23771 9.75167 5.30438 10.37Z" stroke="#25352B" stroke-linecap="round" stroke-linejoin="round"/>
</svg>
