<svg xmlns="http://www.w3.org/2000/svg" width="15" height="16">
    <path fill="#677380" fill-rule="evenodd" d="M12 13.999v-1a2 2 0 0 0 0-4.001h-.184a3 3 0 0 0-.594-1H12a3 3 0 0 1 0 6.001zm-.841-6.076a2.987 2.987 0 0 0-.637-.496c.06-.148.116-.297.166-.451C11.979 6.858 13 5.578 13 3.998c0-1.656-1.12-3-2.5-3-.272 0-.529.065-.774.162a5.853 5.853 0 0 0-.709-.773A3.116 3.116 0 0 1 10.5-.002c1.933 0 3.5 1.791 3.5 4 0 1.952-1.224 3.572-2.841 3.925zm-2.205.245A2.99 2.99 0 0 1 11 10.998v2.001a3 3 0 0 1-3 2.999H3a3 3 0 0 1-3-2.999v-2.001c0-1.32.859-2.43 2.046-2.83A5.292 5.292 0 0 1 1 4.998c0-2.761 2.014-5 4.5-5 2.485 0 4.5 2.239 4.5 5 0 1.21-.403 2.305-1.046 3.17zM1 10.998v2.001a2 2 0 0 0 2 2h5a2 2 0 0 0 2-2v-2.001c0-1.05-.813-1.902-1.842-1.984-.747.611-1.66.985-2.658.985-.999 0-1.912-.374-2.658-.985A1.993 1.993 0 0 0 1 10.998zm4.5-10c-1.933 0-3.5 1.791-3.5 4 0 2.21 1.567 4 3.5 4s3.499-1.79 3.499-4c0-2.209-1.566-4-3.499-4z"/>
</svg>
