<svg width="20" height="20" viewBox="0 0 20 20" fill="#fff" xmlns="http://www.w3.org/2000/svg">
    <path
        d="M16.6654 6.87435V14.9993C16.6654 17.4993 15.1737 18.3327 13.332 18.3327H6.66536C4.8237 18.3327 3.33203 17.4993 3.33203 14.9993V6.87435C3.33203 4.16602 4.8237 3.54102 6.66536 3.54102C6.66536 4.05768 6.87368 4.52435 7.21534 4.86601C7.55701 5.20768 8.0237 5.41602 8.54036 5.41602H11.457C12.4904 5.41602 13.332 4.57435 13.332 3.54102C15.1737 3.54102 16.6654 4.16602 16.6654 6.87435Z"
        stroke="#08295B" stroke-width="1.3" stroke-linecap="round" stroke-linejoin="round" />
    <path
        d="M13.3346 3.54102C13.3346 4.57435 12.493 5.41602 11.4596 5.41602H8.54297C8.0263 5.41602 7.55961 5.20768 7.21795 4.86601C6.87628 4.52435 6.66797 4.05768 6.66797 3.54102C6.66797 2.50768 7.50964 1.66602 8.54297 1.66602H11.4596C11.9763 1.66602 12.443 1.87435 12.7847 2.21602C13.1263 2.55769 13.3346 3.02435 13.3346 3.54102Z"
        stroke="#08295B" stroke-width="1.3" stroke-linecap="round" stroke-linejoin="round" />
    <path d="M6.66797 10.834H10.0013" stroke="#08295B" stroke-width="1.3" stroke-linecap="round"
        stroke-linejoin="round" />
    <path d="M6.66797 14.166H13.3346" stroke="#08295B" stroke-width="1.3" stroke-linecap="round"
        stroke-linejoin="round" />
</svg>