<svg xmlns="http://www.w3.org/2000/svg" width="20" height="20">
    <path fill="#3C4042" fill-opacity=".6" fill-rule="evenodd" d="M19.418 5.166c-.395.284-4.548 3.048-5.029 3.351a1.486 1.486 0 0 1-.802.214c-.378 0-.799-.112-1.221-.333-.401-.211-.621.098-1.218-.242-.528.371.226-.678-1.706 1.251-1.949 1.94-.894 1.172-1.264 1.695.342.597.036.812.248 1.214.217.412.328.834.328 1.216 0 .296-.066.567-.203.79-.314.511-3.096 4.683-3.365 5.065-.256.364-.73.602-1.275.602a2.17 2.17 0 0 1-1.238-.413c-.036-.024-2.666-1.649-2.666-3.142v-.035c.137-4.262 2.276-7.253 5.725-10.69C9.181 2.272 12.185.145 16.444.011l.031-.002c1.52 0 3.102 2.618 3.128 2.654.264.38.39.817.39 1.23 0 .523-.202 1.004-.575 1.273zm-.636-1.931C17.59 1.568 17.01 1.027 16.475 1.01c-3.066.097-5.342.728-10.037 5.408-3.321 3.309-5.305 6.08-5.432 10.014.034.584.802 1.298 2.244 2.327.213.149.443.23.661.23.229 0 .396-.092.456-.177.286-.405 3.045-4.546 3.331-5.013a.526.526 0 0 0 .056-.267c0-.222-.076-.489-.214-.751-.176-.336-.751-1.347-1.229-2.181l.681.446.369-.521c.416-.589-.592.132 1.374-1.827 1.972-1.966 1.252-.95 1.84-1.361l.518-.362.549.312c.537.305.795.019 1.188.225.27.141.538.219.757.219a.51.51 0 0 0 .265-.058c.5-.315 4.641-3.073 4.982-3.318.078-.057.159-.223.159-.462 0-.23-.075-.463-.211-.658z"/>
</svg>
