<svg xmlns="http://www.w3.org/2000/svg" width="13" height="21">
    <path fill="#3C4042" fill-opacity=".6" fill-rule="evenodd" d="M9.8 20.997H3.2c-1.768 0-3.2-1.399-3.2-3.124V3.122C0 1.396 1.432-.002 3.2-.002h6.6c1.767 0 3.2 1.398 3.2 3.124v14.751c0 1.725-1.433 3.124-3.2 3.124zM12 2.999a2 2 0 0 0-2-2H3a2 2 0 0 0-2 2v.999h11v-.999zm0 1.999H1v9h11v-9zm-11 10v3.001a2 2 0 0 0 2 2h7a2 2 0 0 0 2-2v-3.001H1zm5.5 3.999a1.502 1.502 0 0 1-1.506-1.5c0-.827.674-1.499 1.506-1.499s1.505.672 1.505 1.499c0 .829-.673 1.5-1.505 1.5z"/>
</svg>
