<svg xmlns="http://www.w3.org/2000/svg" width="16" height="16">
    <path fill="#686F76" fill-opacity=".6" fill-rule="evenodd" d="M9 7V6h7v1H9zm0-4h7v1H9V3zm0-3h7v1H9V0zm.659 10.769c.381-.219 1.16-.664 1.417-.8.265-.139.535-.211.779-.211a.96.96 0 0 1 .507.131c.327.201 3 1.985 3.244 2.158.402.282.563.978.121 1.611-.016.023-1.696 2.351-2.653 2.351h-.022c-2.73-.088-5.928-2.742-8.129-4.954C2.72 8.844.077 5.635-.01 2.904-.041 1.932 2.307.253 2.331.237c.243-.17.523-.25.787-.25.335 0 .643.129.816.368.182.254 1.952 2.917 2.147 3.225.207.327.177.812-.077 1.297a80.22 80.22 0 0 1-.796 1.422c.237.339.848 1.138 2.083 2.378 1.243 1.249 2.033 1.855 2.368 2.092zM4.392 6.876l-.364-.521.314-.552c.403-.71.687-1.217.778-1.392a.717.717 0 0 0 .099-.322A264.46 264.46 0 0 0 3.159.961a.218.218 0 0 0-.041-.004.393.393 0 0 0-.218.071c-.869.63-1.785 1.538-1.91 1.893.086 1.873 1.731 4.507 4.638 7.426 2.907 2.919 5.534 4.57 7.405 4.658.352-.131 1.251-1.05 1.884-1.931.075-.109.081-.196.075-.236a244.328 244.328 0 0 0-3.124-2.077l-.013-.001a.706.706 0 0 0-.314.096c-.209.111-.854.477-1.387.783l-.551.315-.518-.365c-.384-.271-1.219-.917-2.5-2.204-1.276-1.281-1.922-2.122-2.193-2.509z"/>
</svg>
