<svg xmlns="http://www.w3.org/2000/svg" width="25" height="25">
    <path fill="#677380" fill-rule="evenodd" d="M19.006 12.503a6.498 6.498 0 0 0-5.462-6.408L14.497.18c6.05.972 10.5 6.193 10.504 12.323h-5.995zM15.319 1.367l-.64 3.963a7.449 7.449 0 0 1 5.261 6.173h4.02a11.421 11.421 0 0 0-8.641-10.136zM12.511 19a6.458 6.458 0 0 0 3.735-1.184l3.448 4.899a12.487 12.487 0 0 1-7.211 2.283C5.585 24.99-.001 19.389.007 12.489.015 5.588 5.613 0 12.511.007v5.998a6.496 6.496 0 0 0-6.495 6.498A6.496 6.496 0 0 0 12.511 19zm-7.434-5.504a7.496 7.496 0 0 1 6.435-8.425V1.05A11.493 11.493 0 0 0 1.014 12.509c.003 6.349 5.151 11.493 11.497 11.489a11.39 11.39 0 0 0 5.766-1.56l-2.311-3.286a7.494 7.494 0 0 1-10.889-5.656zm13.852-.019l5.921.9a12.465 12.465 0 0 1-3.503 6.965l-4.24-4.241a6.484 6.484 0 0 0 1.822-3.624zm4.743 1.731l-3.972-.606a7.418 7.418 0 0 1-1.227 2.452l2.843 2.844a11.373 11.373 0 0 0 2.356-4.69z"/>
</svg>
