<svg xmlns="http://www.w3.org/2000/svg" width="20" height="16">
    <path fill="#686F76" fill-opacity=".702" fill-rule="evenodd" d="M18.621.999H.504A.502.502 0 0 1 0 .499c0-.277.226-.5.504-.5h18.117c.279 0 .505.223.505.5 0 .276-.226.5-.505.5zM2.522 5.998a.502.502 0 0 1-.504-.5c0-.276.225-.5.504-.5h14.082c.278 0 .504.224.504.5s-.226.5-.504.5H2.522zm1.982 4h10.117c.279 0 .505.224.505.5a.503.503 0 0 1-.505.501H4.504A.503.503 0 0 1 4 10.498c0-.276.226-.5.504-.5zm2.027 5h6.568a.501.501 0 0 1 0 1H6.531a.502.502 0 0 1-.504-.5c0-.276.226-.5.504-.5z"/>
</svg>
