<svg width="123" height="41" viewBox="0 0 123 41" fill="none" xmlns="http://www.w3.org/2000/svg">
<g clip-path="url(#clip0_3215_938)">
<path d="M19.1594 37.0172C29.223 37.0172 37.3813 28.8188 37.3813 18.7056C37.3813 8.59241 29.223 0.394043 19.1594 0.394043C9.09571 0.394043 0.9375 8.59241 0.9375 18.7056C0.9375 28.8188 9.09571 37.0172 19.1594 37.0172Z" fill="white"/>
<path fill-rule="evenodd" clip-rule="evenodd" d="M4.55804 14.4022C4.30592 14.1337 4.11497 13.8131 3.99845 13.4629C3.47374 15.0107 3.18005 16.6282 3.12695 18.2625L5.03507 14.7942C4.86071 14.6831 4.70052 14.5509 4.55804 14.4007" fill="#BBBBBB"/>
<path fill-rule="evenodd" clip-rule="evenodd" d="M6.48039 10.0994L6.62258 8.60352C6.20857 9.13678 5.82716 9.69484 5.48047 10.2746C5.80076 10.1491 6.14287 10.0895 6.48651 10.0994" fill="#BBBBBB"/>
<path fill-rule="evenodd" clip-rule="evenodd" d="M29.8731 29.7698C29.6613 29.9716 29.4099 30.1265 29.1349 30.2247C28.86 30.3229 28.5676 30.3621 28.2767 30.3398C27.9858 30.3175 27.7027 30.2342 27.4458 30.0952C27.1888 29.9563 26.9636 29.7648 26.7847 29.533L18.0973 33.501C18.1377 33.8123 18.0927 34.1289 17.9671 34.4164C17.8415 34.7039 17.6402 34.9514 17.3848 35.1321C19.9186 35.4695 22.4958 35.2058 24.9102 34.3622C27.3246 33.5186 29.5091 32.1186 31.2889 30.2741L30.0994 29.5054C30.0309 29.5983 29.9547 29.6852 29.8716 29.7652" fill="#BBBBBB"/>
<path fill-rule="evenodd" clip-rule="evenodd" d="M29.7383 26.6057C30.12 26.9118 30.3829 27.3428 30.4813 27.8237C30.5796 28.3046 30.5071 28.805 30.2765 29.2377L31.5164 30.0356C34.236 27.1159 35.8022 23.2986 35.9213 19.3001C35.5523 19.2861 35.1925 19.1805 34.874 18.9927L29.7383 26.5996" fill="#BBBBBB"/>
<path fill-rule="evenodd" clip-rule="evenodd" d="M11.8313 6.34313C12.0376 6.14602 12.3112 6.03597 12.5957 6.03566L13.7363 3.35449C12.1003 3.97665 10.5744 4.85907 9.2168 5.96801L11.6386 6.58296C11.6889 6.49472 11.7511 6.41399 11.8236 6.34313" fill="#BBBBBB"/>
<path fill-rule="evenodd" clip-rule="evenodd" d="M22.7166 4.7612C22.9806 4.51191 23.3065 4.33871 23.6601 4.25979C24.0137 4.18087 24.3819 4.19915 24.726 4.3127C25.0701 4.42626 25.3775 4.6309 25.6158 4.90513C25.8541 5.17936 26.0145 5.51307 26.0803 5.87118L29.2911 5.55141C26.1078 3.1759 22.1764 2.04044 18.2246 2.35523L22.4751 5.02563C22.5442 4.93134 22.6214 4.84337 22.7059 4.76274" fill="#BBBBBB"/>
<path fill-rule="evenodd" clip-rule="evenodd" d="M25.6992 7.46874L34.4463 15.4261C34.7274 15.1583 35.0731 14.9686 35.4493 14.8758C34.7791 12.0921 33.3954 9.53352 31.4358 7.45491C30.8901 6.87606 30.3035 6.33761 29.6806 5.84375L26.1166 6.19734C26.1256 6.65659 25.9784 7.10515 25.6992 7.46874Z" fill="#BBBBBB"/>
<path fill-rule="evenodd" clip-rule="evenodd" d="M13.4122 6.38656C13.5487 6.53274 13.6432 6.71337 13.6858 6.90927L22.0873 6.23283C22.0875 5.90854 22.1651 5.58905 22.3136 5.30118L17.7039 2.40479C16.4955 2.54066 15.3059 2.81084 14.1567 3.21036L12.9336 6.09139C13.1164 6.14617 13.2819 6.2479 13.4137 6.38656" fill="#BBBBBB"/>
<path fill-rule="evenodd" clip-rule="evenodd" d="M15.0794 32.6186L12.2524 29.5761C12.0266 29.7448 11.7537 29.8373 11.4725 29.8406C11.1913 29.8438 10.9163 29.7576 10.6868 29.5942C10.4573 29.4308 10.2851 29.1986 10.1947 28.9308C10.1043 28.6631 10.1005 28.3734 10.1837 28.1033L4.60156 25.6436C5.5807 27.7973 7.0097 29.7137 8.79134 31.2625C10.573 32.8112 12.6655 33.9559 14.9265 34.6187C14.7415 34.3111 14.6568 33.9531 14.6842 33.5948C14.7117 33.2364 14.8498 32.8956 15.0794 32.6201" fill="#BBBBBB"/>
<path fill-rule="evenodd" clip-rule="evenodd" d="M11.6643 7.7731C11.5789 7.64375 11.5213 7.49795 11.4949 7.34497C11.4686 7.19199 11.4742 7.03518 11.5114 6.8845L8.91072 6.21729C8.21818 6.80867 7.5749 7.45601 6.98731 8.15283L6.80078 10.133C7.32806 10.2164 7.8153 10.4662 8.19212 10.8463L11.6643 7.77156" fill="#BBBBBB"/>
<path fill-rule="evenodd" clip-rule="evenodd" d="M11.8309 18.5359L12.0571 14.279L8.81121 13.4473C8.69435 13.8081 8.49782 14.1376 8.23633 14.4112L11.2545 18.6743C11.439 18.6016 11.6332 18.557 11.8309 18.5421" fill="#BBBBBB"/>
<path fill-rule="evenodd" clip-rule="evenodd" d="M24.1475 8.2588L23.8203 13.8932C24.5692 13.9743 25.2647 14.3214 25.7818 14.872C26.2989 15.4227 26.6037 16.1408 26.6412 16.8973H33.763C33.7924 16.4493 33.9555 16.0207 34.2309 15.6674L25.4838 7.70996C25.1216 8.05342 24.6453 8.24907 24.1475 8.2588Z" fill="#BBBBBB"/>
<path fill-rule="evenodd" clip-rule="evenodd" d="M15.6921 32.1539L14.5087 28.6087L12.7902 28.6333C12.7621 28.8985 12.6556 29.1492 12.4844 29.3528L15.3114 32.3907C15.427 32.295 15.5544 32.2149 15.6906 32.1524L15.6921 32.1539ZM18.7484 28.5472L17.1996 32.2031C17.3445 32.2808 17.4773 32.3792 17.5941 32.4952L22.294 28.498L18.7576 28.5488" fill="#BBBBBB"/>
<path fill-rule="evenodd" clip-rule="evenodd" d="M33.7596 17.2155H26.6393C26.6152 17.7212 26.4713 18.2137 26.2194 18.6521C25.9675 19.0904 25.6151 19.4618 25.1914 19.7353L27.2172 24.3028L34.1846 18.3732C33.9367 18.0337 33.7889 17.6309 33.758 17.2109" fill="#BBBBBB"/>
<path fill-rule="evenodd" clip-rule="evenodd" d="M23.1921 28.1603L26.354 28.1157C26.3717 27.8157 26.4535 27.5231 26.5939 27.2578C26.7343 26.9925 26.9299 26.7607 27.1674 26.5783L26.5864 25.27L23.1936 28.1587L23.1921 28.1603ZM22.8053 28.4893L18.2598 32.3588L26.3876 28.6476C26.3739 28.5785 26.3637 28.5087 26.357 28.4385L22.8038 28.4893" fill="#BBBBBB"/>
<path fill-rule="evenodd" clip-rule="evenodd" d="M3.56143 22.5947L10.012 20.9036C9.96057 20.6085 9.97503 20.3056 10.0544 20.0169C10.1337 19.7281 10.2759 19.4607 10.4707 19.234L7.44799 14.9678C7.1124 15.1197 6.74798 15.1965 6.37996 15.1928C6.01195 15.189 5.64914 15.1049 5.31665 14.9463L3.12109 18.9434C3.13215 20.1732 3.27985 21.3979 3.56143 22.5947Z" fill="#BBBBBB"/>
<path fill-rule="evenodd" clip-rule="evenodd" d="M11.3727 27.1499L11.6189 22.5378C11.2706 22.474 10.9455 22.3182 10.6768 22.0864C10.4082 21.8546 10.2056 21.5552 10.0899 21.2188L3.63477 22.9099C3.83291 23.6914 4.08844 24.457 4.39923 25.2005L10.304 27.8048C10.4111 27.6141 10.5647 27.454 10.7503 27.3394C10.9359 27.2249 11.1475 27.1596 11.3651 27.1499" fill="#BBBBBB"/>
<path fill-rule="evenodd" clip-rule="evenodd" d="M27.3535 24.6151L28.0507 26.1832C28.537 26.0923 29.0396 26.1773 29.4696 26.423L34.6053 18.8161C34.5308 18.7568 34.4598 18.6932 34.3927 18.6255L27.3596 24.6212" fill="#BBBBBB"/>
<path fill-rule="evenodd" clip-rule="evenodd" d="M12.3779 14.3609L12.1562 18.5364C12.4761 18.5617 12.7852 18.6641 13.0574 18.8348C13.3296 19.0055 13.557 19.2396 13.7204 19.5172L20.333 17.5064C20.2831 17.1484 20.294 16.7845 20.3651 16.4302L12.3779 14.3594" fill="#BBBBBB"/>
<path fill-rule="evenodd" clip-rule="evenodd" d="M21.1693 19.2527C20.9429 19.0123 20.7551 18.7379 20.6127 18.4395L13.9985 20.4549C14.0193 20.8682 13.913 21.2778 13.6942 21.6282C13.4753 21.9786 13.1546 22.2528 12.7754 22.4135L14.7355 28.2894L18.5364 28.234L22.0729 19.9322C21.7297 19.7671 21.4189 19.5411 21.1555 19.265" fill="#BBBBBB"/>
<path fill-rule="evenodd" clip-rule="evenodd" d="M22.6404 7.62847C22.5625 7.54561 22.4919 7.45611 22.4294 7.36097L12.5616 10.9338L12.3965 14.0301L20.4448 16.1117C20.6465 15.4571 21.0532 14.8857 21.6043 14.4826C22.1554 14.0795 22.8213 13.8663 23.5027 13.8748L23.8253 8.24342C23.3725 8.18068 22.9547 7.96361 22.6419 7.62847H22.6404ZM13.3735 7.97745C13.1919 8.15314 12.9563 8.26156 12.7053 8.28492L12.6182 9.87917L21.6894 6.59229L13.716 7.2349C13.6992 7.51735 13.5762 7.78281 13.3719 7.97745" fill="#BBBBBB"/>
<path fill-rule="evenodd" clip-rule="evenodd" d="M12.0777 13.9469L12.2305 11.052L8.90664 12.2558C8.95033 12.5436 8.94464 12.8369 8.88982 13.1228L12.0777 13.9484V13.9469ZM8.57944 11.3349L12.2902 9.98968L12.3804 8.26168C12.196 8.22308 12.0245 8.1379 11.882 8.01416L8.4082 11.0889C8.47041 11.1698 8.5276 11.2545 8.57944 11.3426" fill="#BBBBBB"/>
<path fill-rule="evenodd" clip-rule="evenodd" d="M14.8496 28.6044L15.9978 32.0481C16.2968 31.9762 16.6095 31.9868 16.903 32.0789L18.4044 28.5537L14.8496 28.6044Z" fill="#BBBBBB"/>
<path fill-rule="evenodd" clip-rule="evenodd" d="M22.3763 20.0503L18.8965 28.2229L22.6821 28.1676L26.4494 24.9622L24.3089 20.1379C23.6713 20.3109 22.9959 20.2803 22.3763 20.0503Z" fill="#BBBBBB"/>
<path fill-rule="evenodd" clip-rule="evenodd" d="M12.4676 22.5103C12.3174 22.5473 12.1635 22.5669 12.0089 22.5687L11.7031 27.1669C11.9801 27.2178 12.2337 27.3558 12.4275 27.5612C12.6213 27.7665 12.7451 28.0285 12.781 28.3092L14.391 28.2861L12.4676 22.5118" fill="#BBBBBB"/>
<path fill-rule="evenodd" clip-rule="evenodd" d="M37.2936 18.7453C37.2866 16.3362 36.8065 13.9523 35.8809 11.7303C34.7283 8.998 32.9213 6.59494 30.6209 4.73535C28.3206 2.87575 25.5983 1.6174 22.6969 1.07249C19.7954 0.527571 16.805 0.713022 13.9921 1.61231C11.1792 2.51159 8.6314 4.09676 6.57571 6.2265C3.36788 9.62852 1.60773 14.1554 1.67015 18.843C1.73257 23.5307 3.61263 28.0086 6.9099 31.323C10.2072 34.6375 14.6611 36.5265 19.323 36.5879C23.985 36.6492 28.4865 34.878 31.8689 31.6514C33.5819 29.975 34.9457 27.9723 35.8809 25.7603C36.8067 23.5378 37.2868 21.1533 37.2936 18.7437V18.7453ZM37.2936 18.7453C37.2956 22.4321 36.2164 26.0377 34.191 29.111C32.1656 32.1842 29.284 34.5888 25.9065 36.0238C22.529 37.4589 18.8057 37.8606 15.2023 37.1789C11.599 36.4972 8.27547 34.7622 5.64765 32.1911C2.95628 29.5709 1.11301 26.1957 0.358425 22.5061C-0.396156 18.8165 -0.0269921 14.9838 1.41773 11.5084C2.86246 8.03299 5.31563 5.07624 8.45704 3.02408C11.5985 0.971932 15.2822 -0.0802834 19.0274 0.00477886C23.9048 0.106101 28.5486 2.1247 31.9634 5.62787C35.3782 9.13104 37.2922 13.84 37.2951 18.7453H37.2936Z" fill="#BBBBBB"/>
<path fill-rule="evenodd" clip-rule="evenodd" d="M45.879 28.1215C45.879 30.3384 47.2397 30.7258 47.8544 30.7258C48.3407 30.7291 48.8084 30.538 49.1548 30.1947C49.5011 29.8514 49.6977 29.3838 49.7013 28.8948C49.7013 27.8878 48.9063 27.5803 45.9829 26.3412C44.6482 25.8001 41.338 24.4595 41.338 20.8759C41.338 17.0325 44.8011 14.9985 47.9828 14.9985C50.6003 14.9985 54.2942 16.3376 54.3707 20.9266H49.5729C49.4704 20.2825 49.3175 19.071 47.8284 19.071C47.41 19.0475 46.9995 19.1918 46.6868 19.4722C46.3741 19.7526 46.1847 20.1463 46.1603 20.5669C46.1603 21.4416 46.674 21.6753 50.0866 23.2219C53.6276 24.8208 54.5205 26.4704 54.5205 28.6872C54.5205 31.7297 52.9304 34.7967 47.9017 34.7967C42.9235 34.7967 40.9237 31.8588 41.0506 28.1199H45.879V28.1215ZM82.5001 25.5157C82.2723 24.8495 81.8434 24.2714 81.2731 23.8622C80.7028 23.4529 80.0197 23.233 79.3191 23.233C78.6185 23.233 77.9354 23.4529 77.3652 23.8622C76.7949 24.2714 76.3659 24.8495 76.1382 25.5157H82.5001ZM76.0908 28.7656C76.2327 29.5195 76.6464 30.1941 77.2524 30.6602C77.8584 31.1263 78.6142 31.3511 79.3749 31.2915C79.8865 31.3214 80.3967 31.213 80.8524 30.9775C81.3082 30.742 81.6929 30.3881 81.9665 29.9525H86.327C85.7237 31.4251 84.7162 32.6947 83.422 33.613C82.2382 34.4593 80.8198 34.91 79.3673 34.9013C77.372 34.8845 75.4635 34.0782 74.0549 32.657C72.6464 31.2359 71.8511 29.3141 71.8413 27.3077C71.8314 25.3013 72.6078 23.3718 74.0023 21.9367C75.3968 20.5016 77.2973 19.6764 79.2924 19.6398C80.2972 19.6237 81.2945 19.8169 82.2215 20.2071C83.1485 20.5974 83.9851 21.1763 84.6788 21.9075C85.5187 22.8161 86.1368 23.9088 86.4842 25.0991C86.8316 26.2895 86.8987 27.5447 86.6802 28.7656H76.0908ZM88.1694 20.1303H92.1721V21.7337C92.4812 21.0485 92.9966 20.4782 93.6454 20.1033C94.2942 19.7284 95.0437 19.5679 95.7881 19.6445V23.9491H95.6352C93.4549 23.9491 92.4244 24.747 92.4244 26.7594V34.4462H88.1694V20.1303ZM102.919 24.1505C102.895 23.843 102.843 23.0743 101.586 23.0743C100.688 23.0743 100.381 23.6416 100.381 24.0275C100.381 24.6716 101.431 25.1036 102.561 25.4449C104.974 26.1152 107.54 26.8378 107.54 29.931C107.54 33.0764 104.898 34.932 101.742 34.932C100.35 35.0597 98.9643 34.635 97.8801 33.7487C96.7958 32.8625 96.0994 31.585 95.9395 30.1892H100.172C100.223 30.5745 100.42 30.9252 100.721 31.1696C101.021 31.414 101.404 31.5335 101.789 31.5037C102.508 31.5037 103.275 31.0917 103.275 30.3952C103.275 29.4159 102.225 29.2853 99.5034 28.2291C98.6094 28.0649 97.7938 27.6096 97.1824 26.9334C96.571 26.2572 96.1976 25.3977 96.1199 24.4872C96.1516 23.7998 96.3213 23.126 96.6187 22.5063C96.916 21.8865 97.335 21.3337 97.8503 20.8809C98.3655 20.4281 98.9666 20.0847 99.6172 19.8715C100.268 19.6582 100.955 19.5794 101.636 19.6398C102.29 19.5749 102.95 19.6401 103.578 19.8318C104.207 20.0235 104.791 20.3378 105.299 20.7569C105.806 21.176 106.227 21.6915 106.536 22.2741C106.845 22.8567 107.037 23.4948 107.101 24.152H102.916L102.919 24.1505ZM118.724 25.5187C118.496 24.8525 118.067 24.2745 117.497 23.8652C116.926 23.456 116.243 23.2361 115.543 23.2361C114.842 23.2361 114.159 23.456 113.589 23.8652C113.019 24.2745 112.59 24.8525 112.362 25.5187H118.724ZM112.311 28.7656C112.453 29.5195 112.867 30.1941 113.473 30.6602C114.079 31.1263 114.835 31.3511 115.595 31.2915C116.107 31.3214 116.617 31.213 117.073 30.9775C117.529 30.742 117.913 30.3881 118.187 29.9525H122.549C121.945 31.4248 120.938 32.6942 119.644 33.613C118.46 34.4594 117.042 34.9101 115.589 34.9013C113.594 34.8847 111.685 34.0787 110.277 32.6577C108.868 31.2366 108.072 29.3149 108.062 27.3085C108.052 25.3021 108.828 23.3724 110.223 21.9371C111.617 20.5019 113.518 19.6766 115.513 19.6398C116.518 19.6235 117.516 19.8166 118.443 20.2068C119.37 20.5971 120.207 21.1761 120.901 21.9075C121.741 22.8161 122.359 23.9088 122.706 25.0991C123.054 26.2895 123.121 27.5447 122.902 28.7656H112.311ZM66.8392 27.2959C66.8484 27.7718 66.7627 28.2447 66.5874 28.6867C66.412 29.1288 66.1504 29.5311 65.8179 29.87C65.4855 30.2088 65.089 30.4773 64.6518 30.6597C64.2146 30.842 63.7455 30.9345 63.2722 30.9318C62.8011 30.9347 62.3341 30.8431 61.8986 30.6624C61.4631 30.4817 61.0678 30.2156 60.7359 29.8795C60.4039 29.5434 60.1419 29.1441 59.9652 28.705C59.7884 28.2659 59.7006 27.7957 59.7067 27.3221C59.6951 26.3575 60.0531 25.4255 60.7066 24.7193C61.0391 24.374 61.438 24.1005 61.8791 23.9155C62.3202 23.7305 62.7942 23.6378 63.2722 23.6431C63.7441 23.6419 64.2116 23.7351 64.6473 23.9173C65.0831 24.0995 65.4784 24.3671 65.8103 24.7045C66.1421 25.0419 66.4039 25.4424 66.5803 25.8825C66.7566 26.3227 66.8441 26.7938 66.8377 27.2682V27.2944L66.8392 27.2959ZM64.1452 19.6398C63.2863 19.6185 62.4337 19.793 61.6515 20.1504C60.8693 20.5077 60.1777 21.0385 59.6287 21.703V20.1287H55.6275V41H55.6871L59.8856 36.8491V33.1487C60.4255 33.743 61.089 34.2105 61.8289 34.5179C62.5688 34.8253 63.3669 34.9651 64.1666 34.9274C65.1165 34.9086 66.0529 34.6977 66.9199 34.3071C67.787 33.9166 68.5669 33.3545 69.2133 32.6544C69.8596 31.9543 70.3592 31.1304 70.6821 30.232C71.0049 29.3335 71.1446 28.3789 71.0927 27.4251C71.0927 24.0997 69.1937 19.6398 64.1391 19.6398H64.1452Z" fill="#2E3C54"/>
<path d="M19.1594 37.0172C29.223 37.0172 37.3813 28.8188 37.3813 18.7056C37.3813 8.59241 29.223 0.394043 19.1594 0.394043C9.09571 0.394043 0.9375 8.59241 0.9375 18.7056C0.9375 28.8188 9.09571 37.0172 19.1594 37.0172Z" fill="white"/>
<path fill-rule="evenodd" clip-rule="evenodd" d="M4.55804 14.4022C4.30592 14.1337 4.11497 13.8131 3.99845 13.4629C3.47374 15.0107 3.18005 16.6282 3.12695 18.2625L5.03507 14.7942C4.86071 14.6831 4.70052 14.5509 4.55804 14.4007" fill="#159D8F"/>
<path fill-rule="evenodd" clip-rule="evenodd" d="M6.48039 10.0994L6.62258 8.60352C6.20857 9.13678 5.82716 9.69484 5.48047 10.2746C5.80076 10.1491 6.14287 10.0895 6.48651 10.0994" fill="#0A8A44"/>
<path fill-rule="evenodd" clip-rule="evenodd" d="M29.8731 29.7698C29.6613 29.9716 29.4099 30.1265 29.1349 30.2247C28.86 30.3229 28.5676 30.3621 28.2767 30.3398C27.9858 30.3175 27.7027 30.2342 27.4458 30.0952C27.1888 29.9563 26.9636 29.7648 26.7847 29.533L18.0973 33.501C18.1377 33.8123 18.0927 34.1289 17.9671 34.4164C17.8415 34.7039 17.6402 34.9514 17.3848 35.1321C19.9186 35.4695 22.4958 35.2058 24.9102 34.3622C27.3246 33.5186 29.5091 32.1186 31.2889 30.2741L30.0994 29.5054C30.0309 29.5983 29.9547 29.6852 29.8716 29.7652" fill="#253967"/>
<path fill-rule="evenodd" clip-rule="evenodd" d="M29.7383 26.6057C30.12 26.9118 30.3829 27.3428 30.4813 27.8237C30.5796 28.3046 30.5071 28.805 30.2765 29.2377L31.5164 30.0356C34.236 27.1159 35.8022 23.2986 35.9213 19.3001C35.5523 19.2861 35.1925 19.1805 34.874 18.9927L29.7383 26.5996" fill="#582D7A"/>
<path fill-rule="evenodd" clip-rule="evenodd" d="M11.8313 6.34313C12.0376 6.14602 12.3112 6.03597 12.5957 6.03566L13.7363 3.35449C12.1003 3.97665 10.5744 4.85907 9.2168 5.96801L11.6386 6.58296C11.6889 6.49472 11.7511 6.41399 11.8236 6.34313" fill="#0A8A44"/>
<path fill-rule="evenodd" clip-rule="evenodd" d="M22.7166 4.7612C22.9806 4.51191 23.3065 4.33871 23.6601 4.25979C24.0137 4.18087 24.3819 4.19915 24.726 4.3127C25.0701 4.42626 25.3775 4.6309 25.6158 4.90513C25.8541 5.17936 26.0145 5.51307 26.0803 5.87118L29.2911 5.55141C26.1078 3.1759 22.1764 2.04044 18.2246 2.35523L22.4751 5.02563C22.5442 4.93134 22.6214 4.84337 22.7059 4.76274" fill="#C72254"/>
<path fill-rule="evenodd" clip-rule="evenodd" d="M25.6992 7.46874L34.4463 15.4261C34.7274 15.1583 35.0731 14.9686 35.4493 14.8758C34.7791 12.0921 33.3954 9.53352 31.4358 7.45491C30.8901 6.87606 30.3035 6.33761 29.6806 5.84375L26.1166 6.19734C26.1256 6.65659 25.9784 7.10515 25.6992 7.46874Z" fill="#DB2C6F"/>
<path fill-rule="evenodd" clip-rule="evenodd" d="M13.4122 6.38656C13.5487 6.53274 13.6432 6.71337 13.6858 6.90927L22.0873 6.23283C22.0875 5.90854 22.1651 5.58905 22.3136 5.30118L17.7039 2.40479C16.4955 2.54066 15.3059 2.81084 14.1567 3.21036L12.9336 6.09139C13.1164 6.14617 13.2819 6.2479 13.4137 6.38656" fill="#DF5430"/>
<path fill-rule="evenodd" clip-rule="evenodd" d="M15.0794 32.6186L12.2524 29.5761C12.0266 29.7448 11.7537 29.8373 11.4725 29.8406C11.1913 29.8438 10.9163 29.7576 10.6868 29.5942C10.4573 29.4308 10.2851 29.1986 10.1947 28.9308C10.1043 28.6631 10.1005 28.3734 10.1837 28.1033L4.60156 25.6436C5.5807 27.7973 7.0097 29.7137 8.79134 31.2625C10.573 32.8112 12.6655 33.9559 14.9265 34.6187C14.7415 34.3111 14.6568 33.9531 14.6842 33.5948C14.7117 33.2364 14.8498 32.8956 15.0794 32.6201" fill="#253967"/>
<path fill-rule="evenodd" clip-rule="evenodd" d="M11.6643 7.7731C11.5789 7.64375 11.5213 7.49795 11.4949 7.34497C11.4686 7.19199 11.4742 7.03518 11.5114 6.8845L8.91072 6.21729C8.21818 6.80867 7.5749 7.45601 6.98731 8.15283L6.80078 10.133C7.32806 10.2164 7.8153 10.4662 8.19212 10.8463L11.6643 7.77156" fill="#0A8A44"/>
<path fill-rule="evenodd" clip-rule="evenodd" d="M11.8309 18.5359L12.0571 14.279L8.81121 13.4473C8.69435 13.8081 8.49782 14.1376 8.23633 14.4112L11.2545 18.6743C11.439 18.6016 11.6332 18.557 11.8309 18.5421" fill="#3BAB48"/>
<path fill-rule="evenodd" clip-rule="evenodd" d="M24.1475 8.2588L23.8203 13.8932C24.5692 13.9743 25.2647 14.3214 25.7818 14.872C26.2989 15.4227 26.6037 16.1408 26.6412 16.8973H33.763C33.7924 16.4493 33.9555 16.0207 34.2309 15.6674L25.4838 7.70996C25.1216 8.05342 24.6453 8.24907 24.1475 8.2588Z" fill="#C72254"/>
<path fill-rule="evenodd" clip-rule="evenodd" d="M15.6921 32.1539L14.5087 28.6087L12.7902 28.6333C12.7621 28.8985 12.6556 29.1492 12.4844 29.3528L15.3114 32.3907C15.427 32.295 15.5544 32.2149 15.6906 32.1524L15.6921 32.1539ZM18.7484 28.5472L17.1996 32.2031C17.3445 32.2808 17.4773 32.3792 17.5941 32.4952L22.294 28.498L18.7576 28.5488" fill="#276AA5"/>
<path fill-rule="evenodd" clip-rule="evenodd" d="M33.7596 17.2155H26.6393C26.6152 17.7212 26.4713 18.2137 26.2194 18.6521C25.9675 19.0904 25.6151 19.4618 25.1914 19.7353L27.2172 24.3028L34.1846 18.3732C33.9367 18.0337 33.7889 17.6309 33.758 17.2109" fill="#812D7B"/>
<path fill-rule="evenodd" clip-rule="evenodd" d="M23.1921 28.1603L26.354 28.1157C26.3717 27.8157 26.4535 27.5231 26.5939 27.2578C26.7343 26.9925 26.9299 26.7607 27.1674 26.5783L26.5864 25.27L23.1936 28.1587L23.1921 28.1603ZM22.8053 28.4893L18.2598 32.3588L26.3876 28.6476C26.3739 28.5785 26.3637 28.5087 26.357 28.4385L22.8038 28.4893" fill="#1C4E71"/>
<path fill-rule="evenodd" clip-rule="evenodd" d="M3.56143 22.5947L10.012 20.9036C9.96057 20.6085 9.97503 20.3056 10.0544 20.0169C10.1337 19.7281 10.2759 19.4607 10.4707 19.234L7.44799 14.9678C7.1124 15.1197 6.74798 15.1965 6.37996 15.1928C6.01195 15.189 5.64914 15.1049 5.31665 14.9463L3.12109 18.9434C3.13215 20.1732 3.27985 21.3979 3.56143 22.5947Z" fill="#159D8F"/>
<path fill-rule="evenodd" clip-rule="evenodd" d="M11.3727 27.1499L11.6189 22.5378C11.2706 22.474 10.9455 22.3182 10.6768 22.0864C10.4082 21.8546 10.2056 21.5552 10.0899 21.2188L3.63477 22.9099C3.83291 23.6914 4.08844 24.457 4.39923 25.2005L10.304 27.8048C10.4111 27.6141 10.5647 27.454 10.7503 27.3394C10.9359 27.2249 11.1475 27.1596 11.3651 27.1499" fill="#349FCD"/>
<path fill-rule="evenodd" clip-rule="evenodd" d="M27.3535 24.6151L28.0507 26.1832C28.537 26.0923 29.0396 26.1773 29.4696 26.423L34.6053 18.8161C34.5308 18.7568 34.4598 18.6932 34.3927 18.6255L27.3596 24.6212" fill="#582D7A"/>
<path fill-rule="evenodd" clip-rule="evenodd" d="M12.3779 14.3609L12.1562 18.5364C12.4761 18.5617 12.7852 18.6641 13.0574 18.8348C13.3296 19.0055 13.557 19.2396 13.7204 19.5172L20.333 17.5064C20.2831 17.1484 20.294 16.7845 20.3651 16.4302L12.3779 14.3594" fill="#85BF42"/>
<path fill-rule="evenodd" clip-rule="evenodd" d="M21.1693 19.2527C20.9429 19.0123 20.7551 18.7379 20.6127 18.4395L13.9985 20.4549C14.0193 20.8682 13.913 21.2778 13.6942 21.6282C13.4753 21.9786 13.1546 22.2528 12.7754 22.4135L14.7355 28.2894L18.5364 28.234L22.0729 19.9322C21.7297 19.7671 21.4189 19.5411 21.1555 19.265" fill="#38A2CF"/>
<path fill-rule="evenodd" clip-rule="evenodd" d="M22.6404 7.62847C22.5625 7.54561 22.4919 7.45611 22.4294 7.36097L12.5616 10.9338L12.3965 14.0301L20.4448 16.1117C20.6465 15.4571 21.0532 14.8857 21.6043 14.4826C22.1554 14.0795 22.8213 13.8663 23.5027 13.8748L23.8253 8.24342C23.3725 8.18068 22.9547 7.96361 22.6419 7.62847H22.6404ZM13.3735 7.97745C13.1919 8.15314 12.9563 8.26156 12.7053 8.28492L12.6182 9.87917L21.6894 6.59229L13.716 7.2349C13.6992 7.51735 13.5762 7.78281 13.3719 7.97745" fill="#EA8A2F"/>
<path fill-rule="evenodd" clip-rule="evenodd" d="M12.0777 13.9469L12.2305 11.052L8.90664 12.2558C8.95033 12.5436 8.94464 12.8369 8.88982 13.1228L12.0777 13.9484V13.9469ZM8.57944 11.3349L12.2902 9.98968L12.3804 8.26168C12.196 8.22308 12.0245 8.1379 11.882 8.01416L8.4082 11.0889C8.47041 11.1698 8.5276 11.2545 8.57944 11.3426" fill="#3BAB48"/>
<path fill-rule="evenodd" clip-rule="evenodd" d="M14.8496 28.6044L15.9978 32.0481C16.2968 31.9762 16.6095 31.9868 16.903 32.0789L18.4044 28.5537L14.8496 28.6044Z" fill="#38A2CF"/>
<path fill-rule="evenodd" clip-rule="evenodd" d="M22.3763 20.0503L18.8965 28.2229L22.6821 28.1676L26.4494 24.9622L24.3089 20.1379C23.6713 20.3109 22.9959 20.2803 22.3763 20.0503Z" fill="#276AA5"/>
<path fill-rule="evenodd" clip-rule="evenodd" d="M12.4676 22.5103C12.3174 22.5473 12.1635 22.5669 12.0089 22.5687L11.7031 27.1669C11.9801 27.2178 12.2337 27.3558 12.4275 27.5612C12.6213 27.7665 12.7451 28.0285 12.781 28.3092L14.391 28.2861L12.4676 22.5118" fill="#276AA5"/>
<path fill-rule="evenodd" clip-rule="evenodd" d="M37.2936 18.7453C37.2866 16.3362 36.8065 13.9523 35.8809 11.7303C34.7283 8.998 32.9213 6.59494 30.6209 4.73535C28.3206 2.87575 25.5983 1.6174 22.6969 1.07249C19.7954 0.527571 16.805 0.713022 13.9921 1.61231C11.1792 2.51159 8.6314 4.09676 6.57571 6.2265C3.36788 9.62852 1.60773 14.1554 1.67015 18.843C1.73257 23.5307 3.61263 28.0086 6.9099 31.323C10.2072 34.6375 14.6611 36.5265 19.323 36.5879C23.985 36.6492 28.4865 34.878 31.8689 31.6514C33.5819 29.975 34.9457 27.9723 35.8809 25.7603C36.8067 23.5378 37.2868 21.1533 37.2936 18.7437V18.7453ZM37.2936 18.7453C37.2956 22.4321 36.2164 26.0377 34.191 29.111C32.1656 32.1842 29.284 34.5888 25.9065 36.0238C22.529 37.4589 18.8057 37.8606 15.2023 37.1789C11.599 36.4972 8.27547 34.7622 5.64765 32.1911C2.95628 29.5709 1.11301 26.1957 0.358425 22.5061C-0.396156 18.8165 -0.0269921 14.9838 1.41773 11.5084C2.86246 8.03299 5.31563 5.07624 8.45704 3.02408C11.5985 0.971932 15.2822 -0.0802834 19.0274 0.00477886C23.9048 0.106101 28.5486 2.1247 31.9634 5.62787C35.3782 9.13104 37.2922 13.84 37.2951 18.7453H37.2936Z" fill="#28B9E0"/>
<path d="M56.379 3.59913C56.7695 3.58886 57.1579 3.65867 57.5207 3.8043C57.8835 3.94994 58.2129 4.16836 58.4889 4.44622C58.7663 4.71949 58.9848 5.04722 59.1308 5.40904C59.2768 5.77085 59.3471 6.159 59.3375 6.54934C59.3415 6.93995 59.2675 7.32739 59.1199 7.68874C58.9723 8.05008 58.7541 8.37799 58.4783 8.65306C58.2024 8.92813 57.8745 9.14477 57.5139 9.29017C57.1534 9.43556 56.7674 9.50676 56.379 9.49954H54.558V12.5743H53.0918V3.59913H56.379ZM56.379 8.11284C56.5783 8.1189 56.7767 8.0826 56.9611 8.0063C57.1456 7.93001 57.3119 7.81544 57.4493 7.67008C57.5896 7.52024 57.6991 7.3439 57.7712 7.15127C57.8434 6.95863 57.8769 6.75353 57.8697 6.5478C57.8769 6.34208 57.8434 6.13697 57.7712 5.94434C57.6991 5.7517 57.5896 5.57537 57.4493 5.42553C57.3118 5.28025 57.1455 5.16573 56.9611 5.08944C56.7767 5.01315 56.5783 4.9768 56.379 4.98276H54.558V8.11284H56.379Z" fill="#BBBBBB"/>
<path d="M62.8479 12.7435C62.4054 12.7521 61.9658 12.6701 61.5558 12.5025C61.1458 12.335 60.7739 12.0854 60.4628 11.7689C60.1438 11.4589 59.8919 11.0861 59.7229 10.6736C59.554 10.2612 59.4717 9.81806 59.4812 9.3721C59.4716 8.92591 59.5538 8.48254 59.7228 8.06982C59.8917 7.6571 60.1436 7.28396 60.4628 6.97381C61.1024 6.34872 61.9591 5.99902 62.851 5.99902C63.7429 5.99902 64.5997 6.34872 65.2392 6.97381C65.5572 7.28464 65.808 7.65801 65.9761 8.07064C66.1442 8.48327 66.2259 8.92631 66.2162 9.3721C66.2205 9.81703 66.1364 10.2583 65.9688 10.6701C65.8011 11.0819 65.5534 11.4559 65.24 11.7701C64.9267 12.0843 64.5541 12.3324 64.1441 12.4998C63.7341 12.6672 63.295 12.7506 62.8525 12.7451L62.8479 12.7435ZM61.4321 10.8203C61.8116 11.1903 62.3194 11.3973 62.8479 11.3973C63.3765 11.3973 63.8843 11.1903 64.2637 10.8203C64.6323 10.4289 64.8376 9.91034 64.8376 9.37134C64.8376 8.83233 64.6323 8.31381 64.2637 7.92237C63.8843 7.55232 63.3765 7.34537 62.8479 7.34537C62.3194 7.34537 61.8116 7.55232 61.4321 7.92237C61.0636 8.31381 60.8583 8.83233 60.8583 9.37134C60.8583 9.91034 61.0636 10.4289 61.4321 10.8203Z" fill="#BBBBBB"/>
<path d="M73.7461 6.16357H75.2001L73.1972 12.5759H71.8456L70.52 8.25439L69.1807 12.5759H67.8214L65.8262 6.16357H67.2802L68.5171 10.5881L69.8565 6.16357H71.1698L72.4969 10.5881L73.7461 6.16357Z" fill="#BBBBBB"/>
<path d="M76.4453 9.96087C76.5253 10.4124 76.777 10.815 77.147 11.0831C77.5413 11.3523 78.0101 11.489 78.4864 11.4736C78.8053 11.4938 79.1241 11.4313 79.4122 11.2922C79.7002 11.153 79.9479 10.9418 80.1315 10.6788L81.266 11.346C80.9608 11.8024 80.5428 12.1712 80.0531 12.4162C79.5634 12.6612 79.0188 12.774 78.4726 12.7435C78.0113 12.7634 77.5508 12.689 77.119 12.5246C76.6872 12.3602 76.2931 12.1094 75.9606 11.7873C75.6449 11.4722 75.3971 11.0952 75.2324 10.6797C75.0678 10.2642 74.9898 9.8191 75.0035 9.37205C74.9917 8.92806 75.0691 8.48624 75.2312 8.07307C75.3933 7.65991 75.6367 7.28391 75.9468 6.96761C76.2622 6.64647 76.6404 6.39459 77.0575 6.22788C77.4746 6.06117 77.9216 5.98326 78.3702 5.99907C78.8022 5.98635 79.2317 6.068 79.6292 6.2384C80.0268 6.4088 80.3828 6.66389 80.6728 6.98606C81.2698 7.63839 81.5921 8.49806 81.5718 9.38435C81.5679 9.57796 81.5511 9.77108 81.5213 9.9624L76.4453 9.96087ZM76.433 8.8309H80.1789C80.1284 8.3853 79.9125 7.97531 79.5743 7.68287C79.2361 7.39044 78.8006 7.23712 78.3549 7.25356C77.8934 7.23754 77.4413 7.38743 77.0798 7.67634C76.7332 7.97136 76.5032 8.38153 76.4315 8.83244L76.433 8.8309Z" fill="#BBBBBB"/>
<path d="M83.6772 7.24119C83.8373 6.85908 84.1137 6.5378 84.4667 6.32346C84.8196 6.10912 85.2311 6.01276 85.6419 6.0482V7.54867C85.1529 7.50435 84.6645 7.63861 84.2659 7.92686C84.06 8.09669 83.8988 8.31477 83.7965 8.56193C83.6941 8.80909 83.6537 9.07776 83.6788 9.34431V12.5728H82.3027V6.1635H83.6788L83.6772 7.24119Z" fill="#BBBBBB"/>
<path d="M87.0028 9.96086C87.0823 10.4126 87.3341 10.8153 87.7046 11.0831C88.0988 11.3523 88.5677 11.489 89.0439 11.4736C89.3631 11.4936 89.682 11.4311 89.9703 11.2919C90.2585 11.1528 90.5065 10.9417 90.6906 10.6788L91.8251 11.346C91.5197 11.8023 91.1017 12.171 90.6121 12.416C90.1224 12.6609 89.5778 12.7738 89.0317 12.7435C88.5704 12.7633 88.1099 12.6888 87.6781 12.5245C87.2463 12.3601 86.8522 12.1093 86.5197 11.7873C86.2043 11.472 85.9567 11.095 85.7923 10.6795C85.6279 10.264 85.5502 9.81899 85.5641 9.37205C85.5525 8.92795 85.6302 8.48606 85.7925 8.07289C85.9549 7.65972 86.1986 7.28378 86.509 6.96761C86.8243 6.64647 87.2025 6.39459 87.6196 6.22788C88.0368 6.06117 88.4837 5.98326 88.9323 5.99907C89.364 5.98637 89.7934 6.06804 90.1907 6.23844C90.5879 6.40885 90.9437 6.66392 91.2334 6.98606C91.8304 7.63839 92.1527 8.49806 92.1324 9.38435C92.1281 9.57794 92.1113 9.77103 92.0819 9.9624L87.0028 9.96086ZM86.9906 8.8309H90.741C90.6902 8.38545 90.4741 7.97566 90.136 7.6833C89.798 7.39093 89.3627 7.23748 88.917 7.25356C88.4555 7.23754 88.0034 7.38743 87.6419 7.67634C87.295 7.9711 87.0649 8.38139 86.9936 8.83244L86.9906 8.8309Z" fill="#BBBBBB"/>
<path d="M97.821 3.59912H99.197V12.5758H97.821V11.6534C97.5703 12.0093 97.2342 12.2959 96.844 12.4864C96.4538 12.677 96.022 12.7654 95.5887 12.7434C95.167 12.7484 94.7489 12.6636 94.3621 12.4945C93.9752 12.3255 93.6284 12.076 93.3442 11.7625C93.0395 11.4455 92.8003 11.0708 92.6405 10.6602C92.4807 10.2496 92.4034 9.81121 92.4131 9.37039C92.4023 8.9285 92.479 8.48886 92.6388 8.0771C92.7987 7.66534 93.0385 7.28971 93.3442 6.9721C93.6294 6.66036 93.9766 6.41247 94.3633 6.24454C94.75 6.07661 95.1675 5.99241 95.5887 5.99741C96.0206 5.97488 96.4512 6.06158 96.8412 6.24958C97.2312 6.43757 97.568 6.72087 97.821 7.07357V3.59912ZM94.3656 10.8386C94.7529 11.213 95.2693 11.4221 95.8066 11.4221C96.3439 11.4221 96.8603 11.213 97.2476 10.8386C97.4373 10.6458 97.5859 10.4162 97.6844 10.1638C97.783 9.91136 97.8295 9.64142 97.821 9.37039C97.8295 9.09936 97.783 8.82942 97.6844 8.57702C97.5859 8.32461 97.4373 8.09502 97.2476 7.90221C96.8601 7.52817 96.3438 7.3193 95.8066 7.3193C95.2694 7.3193 94.7531 7.52817 94.3656 7.90221C94.176 8.09502 94.0273 8.32461 93.9288 8.57702C93.8302 8.82942 93.7837 9.09936 93.7922 9.37039C93.7829 9.64099 93.8284 9.91066 93.9259 10.163C94.0234 10.4154 94.1709 10.6452 94.3595 10.8386H94.3656Z" fill="#BBBBBB"/>
<path d="M106.395 5.99741C106.817 5.9926 107.234 6.07689 107.621 6.24481C108.007 6.41272 108.355 6.66051 108.64 6.9721C108.945 7.28978 109.185 7.66547 109.345 8.07723C109.504 8.489 109.581 8.9286 109.569 9.37039C109.579 9.8111 109.502 10.2494 109.343 10.66C109.183 11.0706 108.944 11.4453 108.64 11.7625C108.356 12.0758 108.009 12.3252 107.622 12.4942C107.235 12.6633 106.817 12.7482 106.395 12.7434C105.962 12.7654 105.53 12.677 105.14 12.4864C104.75 12.2959 104.414 12.0093 104.163 11.6534V12.5758H102.787V3.59912H104.163V7.0751C104.416 6.72213 104.753 6.43853 105.143 6.25026C105.533 6.06199 105.963 5.97505 106.395 5.99741ZM104.737 10.8386C105.124 11.2133 105.64 11.4227 106.178 11.4227C106.715 11.4227 107.231 11.2133 107.619 10.8386C107.808 10.6459 107.957 10.4164 108.056 10.1639C108.155 9.91153 108.202 9.64153 108.193 9.37039C108.202 9.09925 108.155 8.82925 108.056 8.57684C107.957 8.32443 107.808 8.09489 107.619 7.90221C107.231 7.52782 106.715 7.31871 106.178 7.31871C105.64 7.31871 105.124 7.52782 104.737 7.90221C104.547 8.09502 104.398 8.32461 104.3 8.57702C104.201 8.82942 104.155 9.09936 104.163 9.37039C104.155 9.64142 104.201 9.91136 104.3 10.1638C104.398 10.4162 104.547 10.6458 104.737 10.8386Z" fill="#BBBBBB"/>
<path d="M114.62 6.16357H116.088L113.641 12.7742C113.484 13.4742 113.086 14.0955 112.516 14.5276C111.946 14.9597 111.242 15.1746 110.53 15.1341V13.8504C110.901 13.8927 111.275 13.794 111.577 13.5737C111.877 13.3104 112.101 12.9719 112.227 12.5928L112.29 12.4652L109.582 6.16357H111.087L112.989 10.8187L114.62 6.16357Z" fill="#BBBBBB"/>
</g>
<defs>
<clipPath id="clip0_3215_938">
<rect width="123" height="41" fill="white"/>
</clipPath>
</defs>
</svg>
