<svg width="81" height="27" viewBox="0 0 81 27" fill="none" xmlns="http://www.w3.org/2000/svg">
<g clip-path="url(#clip0_3201_3)">
<path fill-rule="evenodd" clip-rule="evenodd" d="M30.0074 18.2928C30.0074 19.7348 30.8974 19.9868 31.2994 19.9868C31.6175 19.989 31.9234 19.8647 32.1499 19.6414C32.3764 19.4181 32.505 19.1139 32.5074 18.7958C32.5074 18.1408 31.9874 17.9408 30.0754 17.1348C29.2024 16.7828 27.0374 15.9108 27.0374 13.5798C27.0374 11.0798 29.3024 9.75684 31.3834 9.75684C33.0954 9.75684 35.5114 10.6278 35.5614 13.6128H32.4234C32.3564 13.1938 32.2564 12.4058 31.2824 12.4058C31.0088 12.3905 30.7403 12.4844 30.5358 12.6668C30.3312 12.8492 30.2074 13.1053 30.1914 13.3788C30.1914 13.9478 30.5274 14.0998 32.7594 15.1058C35.0754 16.1458 35.6594 17.2188 35.6594 18.6608C35.6594 20.6398 34.6194 22.6348 31.3304 22.6348C28.0744 22.6348 26.7664 20.7238 26.8494 18.2918H30.0074V18.2928ZM53.9594 16.5978C53.8104 16.1645 53.5299 15.7885 53.1569 15.5223C52.7839 15.2561 52.3371 15.113 51.8789 15.113C51.4207 15.113 50.9739 15.2561 50.6009 15.5223C50.2279 15.7885 49.9474 16.1645 49.7984 16.5978H53.9594ZM49.7674 18.7118C49.8602 19.2022 50.1308 19.641 50.5272 19.9442C50.9235 20.2474 51.4179 20.3936 51.9154 20.3548C52.25 20.3743 52.5837 20.3038 52.8817 20.1506C53.1798 19.9974 53.4314 19.7672 53.6104 19.4838H56.4624C56.0678 20.4417 55.4088 21.2675 54.5624 21.8648C53.7881 22.4153 52.8604 22.7085 51.9104 22.7028C50.6054 22.6919 49.3571 22.1675 48.4359 21.2431C47.5146 20.3186 46.9945 19.0686 46.988 17.7635C46.9816 16.4584 47.4894 15.2033 48.4014 14.2698C49.3135 13.3364 50.5565 12.7996 51.8614 12.7758C52.5186 12.7654 53.1709 12.891 53.7772 13.1448C54.3835 13.3987 54.9307 13.7752 55.3844 14.2508C55.9338 14.8419 56.338 15.5526 56.5652 16.3269C56.7924 17.1012 56.8363 17.9177 56.6934 18.7118H49.7674ZM57.6674 13.0948H60.2854V14.1378C60.4876 13.6921 60.8246 13.3211 61.249 13.0773C61.6733 12.8335 62.1635 12.7291 62.6504 12.7788V15.5788H62.5504C61.1244 15.5788 60.4504 16.0978 60.4504 17.4068V22.4068H57.6674V13.0948ZM67.3144 15.7098C67.2984 15.5098 67.2644 15.0098 66.4424 15.0098C65.8554 15.0098 65.6544 15.3788 65.6544 15.6298C65.6544 16.0488 66.3414 16.3298 67.0804 16.5518C68.6584 16.9878 70.3364 17.4578 70.3364 19.4698C70.3364 21.5158 68.6084 22.7228 66.5444 22.7228C65.6343 22.8059 64.7278 22.5296 64.0187 21.9532C63.3095 21.3767 62.854 20.5457 62.7494 19.6378H65.5174C65.5514 19.8884 65.6798 20.1166 65.8765 20.2755C66.0732 20.4345 66.3233 20.5122 66.5754 20.4928C67.0454 20.4928 67.5474 20.2248 67.5474 19.7718C67.5474 19.1348 66.8604 19.0498 65.0804 18.3628C64.4956 18.256 63.9622 17.9599 63.5623 17.52C63.1624 17.0802 62.9183 16.5211 62.8674 15.9288C62.8882 15.4817 62.9992 15.0435 63.1936 14.6403C63.3881 14.2372 63.6621 13.8776 63.9992 13.5831C64.3362 13.2886 64.7293 13.0652 65.1548 12.9265C65.5804 12.7878 66.0296 12.7365 66.4754 12.7758C66.9028 12.7336 67.3344 12.776 67.7454 12.9007C68.1565 13.0254 68.5389 13.2299 68.8708 13.5024C69.2028 13.775 69.4777 14.1104 69.6799 14.4893C69.8822 14.8683 70.0077 15.2833 70.0494 15.7108H67.3124L67.3144 15.7098ZM77.6514 16.5998C77.5024 16.1665 77.2219 15.7905 76.8489 15.5243C76.4759 15.2581 76.0291 15.115 75.5709 15.115C75.1127 15.115 74.6659 15.2581 74.2929 15.5243C73.9199 15.7905 73.6394 16.1665 73.4904 16.5998H77.6514ZM73.4574 18.7118C73.5502 19.2022 73.8208 19.641 74.2171 19.9442C74.6135 20.2474 75.1079 20.3936 75.6054 20.3548C75.94 20.3743 76.2737 20.3038 76.5717 20.1506C76.8698 19.9974 77.1214 19.7672 77.3004 19.4838H80.1534C79.7585 20.4415 79.0996 21.2672 78.2534 21.8648C77.4792 22.4154 76.5514 22.7086 75.6014 22.7028C74.2963 22.6921 73.048 22.1678 72.1266 21.2435C71.2052 20.3191 70.6849 19.0691 70.6783 17.764C70.6718 16.4589 71.1794 15.2037 72.0915 14.2701C73.0035 13.3366 74.2465 12.7997 75.5514 12.7758C76.2088 12.7652 76.8612 12.8908 77.4677 13.1446C78.0742 13.3985 78.6216 13.7751 79.0754 14.2508C79.6247 14.8419 80.029 15.5526 80.2562 16.3269C80.4834 17.1012 80.5273 17.9177 80.3844 18.7118H73.4574ZM43.7164 17.7558C43.7224 18.0654 43.6664 18.373 43.5517 18.6605C43.437 18.9481 43.2659 19.2098 43.0485 19.4302C42.831 19.6505 42.5717 19.8252 42.2858 19.9438C41.9998 20.0624 41.693 20.1226 41.3834 20.1208C41.0753 20.1227 40.7699 20.0632 40.485 19.9456C40.2002 19.8281 39.9417 19.655 39.7245 19.4363C39.5074 19.2177 39.336 18.958 39.2205 18.6724C39.1049 18.3867 39.0474 18.0809 39.0514 17.7728C39.0438 17.1454 39.278 16.5392 39.7054 16.0798C39.9228 15.8552 40.1838 15.6773 40.4723 15.557C40.7608 15.4366 41.0708 15.3764 41.3834 15.3798C41.6921 15.379 41.9978 15.4396 42.2828 15.5582C42.5678 15.6767 42.8264 15.8508 43.0434 16.0702C43.2605 16.2897 43.4317 16.5502 43.5471 16.8365C43.6624 17.1228 43.7197 17.4292 43.7154 17.7378V17.7548L43.7164 17.7558ZM41.9544 12.7758C41.3926 12.762 40.835 12.8755 40.3234 13.1079C39.8118 13.3403 39.3595 13.6856 39.0004 14.1178V13.0938H36.3834V26.6698H36.4224L39.1684 23.9698V21.5628C39.5216 21.9494 39.9555 22.2535 40.4394 22.4535C40.9233 22.6534 41.4454 22.7444 41.9684 22.7198C42.5897 22.7076 43.2021 22.5704 43.7692 22.3164C44.3363 22.0624 44.8464 21.6967 45.2692 21.2413C45.6919 20.7859 46.0186 20.25 46.2298 19.6656C46.441 19.0812 46.5324 18.4603 46.4984 17.8398C46.4984 15.6768 45.2564 12.7758 41.9504 12.7758H41.9544Z" fill="#BBBBBB"/>
<path d="M36.8746 2.34146C37.13 2.33478 37.3841 2.38019 37.6213 2.47492C37.8586 2.56965 38.0741 2.71172 38.2546 2.89246C38.436 3.07021 38.5789 3.28339 38.6744 3.51874C38.7699 3.75409 38.8159 4.00656 38.8096 4.26046C38.8122 4.51454 38.7638 4.76656 38.6673 5.0016C38.5707 5.23664 38.428 5.44993 38.2476 5.62886C38.0672 5.80778 37.8527 5.9487 37.6169 6.04327C37.3811 6.13785 37.1287 6.18416 36.8746 6.17946H35.6836V8.17946H34.7246V2.34146H36.8746ZM36.8746 5.27746C37.005 5.28141 37.1347 5.25779 37.2553 5.20817C37.376 5.15854 37.4848 5.08401 37.5746 4.98946C37.6664 4.892 37.738 4.7773 37.7852 4.652C37.8324 4.5267 37.8543 4.39328 37.8496 4.25946C37.8543 4.12565 37.8324 3.99223 37.7852 3.86693C37.738 3.74163 37.6664 3.62693 37.5746 3.52946C37.4847 3.43497 37.3759 3.36047 37.2553 3.31085C37.1347 3.26123 37.005 3.23758 36.8746 3.24146H35.6836V5.27746H36.8746Z" fill="#BCBCBC"/>
<path d="M41.1048 8.28941C40.8154 8.29495 40.5279 8.24161 40.2597 8.13262C39.9916 8.02364 39.7483 7.86128 39.5448 7.65541C39.3362 7.45382 39.1714 7.21128 39.0609 6.94299C38.9505 6.67471 38.8966 6.38648 38.9028 6.09641C38.8966 5.80618 38.9503 5.51778 39.0608 5.24932C39.1713 4.98086 39.3361 4.73815 39.5448 4.53641C39.9631 4.12981 40.5235 3.90234 41.1068 3.90234C41.6902 3.90234 42.2505 4.12981 42.6688 4.53641C42.8768 4.73859 43.0409 4.98145 43.1508 5.24986C43.2608 5.51826 43.3142 5.80643 43.3078 6.09641C43.3107 6.38582 43.2556 6.67288 43.146 6.94073C43.0364 7.20859 42.8743 7.45184 42.6694 7.65622C42.4645 7.86059 42.2208 8.02197 41.9526 8.13087C41.6844 8.23978 41.3972 8.29402 41.1078 8.29041L41.1048 8.28941ZM40.1788 7.03841C40.427 7.27911 40.7591 7.41372 41.1048 7.41372C41.4506 7.41372 41.7827 7.27911 42.0308 7.03841C42.2719 6.78379 42.4062 6.44651 42.4062 6.09591C42.4062 5.74531 42.2719 5.40803 42.0308 5.15341C41.7827 4.91271 41.4506 4.7781 41.1048 4.7781C40.7591 4.7781 40.427 4.91271 40.1788 5.15341C39.9378 5.40803 39.8035 5.74531 39.8035 6.09591C39.8035 6.44651 39.9378 6.78379 40.1788 7.03841Z" fill="#BCBCBC"/>
<path d="M48.2327 4.00977H49.1837L47.8737 8.18077H46.9897L46.1227 5.36977L45.2467 8.18077H44.3577L43.0527 4.00977H44.0037L44.8127 6.88777L45.6887 4.00977H46.5477L47.4157 6.88777L48.2327 4.00977Z" fill="#BCBCBC"/>
<path d="M49.9987 6.47967C50.051 6.7734 50.2156 7.03523 50.4577 7.20967C50.7155 7.38476 51.0222 7.47368 51.3337 7.46367C51.5423 7.4768 51.7508 7.43616 51.9392 7.34563C52.1276 7.25511 52.2896 7.11774 52.4097 6.94667L53.1517 7.38067C52.952 7.67753 52.6787 7.9174 52.3584 8.07675C52.0381 8.23611 51.6819 8.30948 51.3247 8.28967C51.023 8.30264 50.7218 8.2542 50.4394 8.14728C50.1569 8.04036 49.8992 7.87719 49.6817 7.66767C49.4752 7.46271 49.3131 7.21748 49.2054 6.94723C49.0977 6.67697 49.0468 6.38746 49.0557 6.09667C49.048 5.80787 49.0986 5.52048 49.2046 5.25173C49.3107 4.98298 49.4699 4.73841 49.6727 4.53267C49.879 4.32378 50.1263 4.15994 50.3991 4.0515C50.672 3.94306 50.9643 3.89239 51.2577 3.90267C51.5402 3.89439 51.8212 3.94751 52.0812 4.05834C52.3412 4.16918 52.574 4.33511 52.7637 4.54467C53.1542 4.96898 53.3649 5.52817 53.3517 6.10467C53.3492 6.2306 53.3381 6.35622 53.3187 6.48067L49.9987 6.47967ZM49.9907 5.74467H52.4407C52.4076 5.45483 52.2664 5.18814 52.0452 4.99792C51.824 4.8077 51.5392 4.70797 51.2477 4.71867C50.9458 4.70825 50.6501 4.80575 50.4137 4.99367C50.187 5.18557 50.0366 5.45237 49.9897 5.74567L49.9907 5.74467Z" fill="#BCBCBC"/>
<path d="M54.7291 4.71036C54.8338 4.46181 55.0145 4.25283 55.2454 4.11341C55.4763 3.97399 55.7454 3.91131 56.0141 3.93436V4.91036C55.6943 4.88154 55.3748 4.96886 55.1141 5.15636C54.9794 5.26683 54.874 5.40868 54.807 5.56945C54.7401 5.73022 54.7137 5.90498 54.7301 6.07836V8.17836H53.8301V4.00936H54.7301L54.7291 4.71036Z" fill="#BCBCBC"/>
<path d="M56.903 6.47967C56.955 6.77352 57.1197 7.03545 57.362 7.20967C57.6198 7.38476 57.9265 7.47368 58.238 7.46367C58.4467 7.47668 58.6553 7.436 58.8438 7.34549C59.0324 7.25498 59.1946 7.11768 59.315 6.94667L60.057 7.38067C59.8572 7.67746 59.5839 7.91727 59.2636 8.07662C58.9433 8.23597 58.5871 8.30938 58.23 8.28967C57.9283 8.30258 57.6271 8.25412 57.3447 8.1472C57.0622 8.04028 56.8045 7.87715 56.587 7.66767C56.3807 7.46262 56.2188 7.21736 56.1112 6.94711C56.0037 6.67685 55.9529 6.38738 55.962 6.09667C55.9544 5.8078 56.0052 5.52037 56.1114 5.25161C56.2176 4.98286 56.377 4.73833 56.58 4.53267C56.7862 4.32378 57.0336 4.15994 57.3064 4.0515C57.5792 3.94306 57.8716 3.89239 58.165 3.90267C58.4473 3.89441 58.7281 3.94753 58.988 4.05837C59.2478 4.16921 59.4805 4.33513 59.67 4.54467C60.0605 4.96898 60.2712 5.52817 60.258 6.10467C60.2552 6.23059 60.2441 6.35619 60.225 6.48067L56.903 6.47967ZM56.895 5.74467H59.348C59.3147 5.45492 59.1734 5.18837 58.9523 4.9982C58.7311 4.80802 58.4464 4.70821 58.155 4.71867C57.8531 4.70825 57.5574 4.80575 57.321 4.99367C57.094 5.1854 56.9436 5.45228 56.897 5.74567L56.895 5.74467Z" fill="#BCBCBC"/>
<path d="M63.9791 2.3418H64.8791V8.1808H63.9791V7.5808C63.8151 7.81234 63.5953 7.99873 63.3401 8.12267C63.0848 8.24661 62.8024 8.3041 62.5191 8.2898C62.2432 8.29305 61.9698 8.23788 61.7168 8.12792C61.4638 8.01796 61.2369 7.8557 61.0511 7.6518C60.8518 7.44555 60.6953 7.20184 60.5908 6.93476C60.4863 6.66768 60.4357 6.38253 60.4421 6.0958C60.435 5.80837 60.4851 5.52239 60.5897 5.25456C60.6943 4.98673 60.8511 4.74239 61.0511 4.5358C61.2376 4.33302 61.4647 4.17178 61.7176 4.06254C61.9705 3.95331 62.2436 3.89854 62.5191 3.9018C62.8015 3.88714 63.0832 3.94354 63.3382 4.06582C63.5933 4.18811 63.8136 4.37238 63.9791 4.6018V2.3418ZM61.7191 7.0508C61.9724 7.29432 62.3102 7.43034 62.6616 7.43034C63.013 7.43034 63.3507 7.29432 63.6041 7.0508C63.7281 6.92538 63.8253 6.77604 63.8898 6.61186C63.9542 6.44768 63.9846 6.27209 63.9791 6.0958C63.9846 5.9195 63.9542 5.74392 63.8898 5.57974C63.8253 5.41556 63.7281 5.26621 63.6041 5.1408C63.3506 4.8975 63.0129 4.76164 62.6616 4.76164C62.3102 4.76164 61.9725 4.8975 61.7191 5.1408C61.595 5.26621 61.4978 5.41556 61.4334 5.57974C61.3689 5.74392 61.3385 5.9195 61.3441 6.0958C61.338 6.27181 61.3677 6.44722 61.4315 6.61139C61.4953 6.77555 61.5918 6.92505 61.7151 7.0508H61.7191Z" fill="#BCBCBC"/>
<path d="M69.5885 3.9018C69.864 3.89867 70.137 3.95349 70.3899 4.06272C70.6428 4.17194 70.8699 4.33312 71.0565 4.5358C71.2563 4.74244 71.413 4.98681 71.5174 5.25464C71.6218 5.52248 71.6718 5.80843 71.6645 6.0958C71.671 6.38246 71.6206 6.66757 71.5162 6.93465C71.4119 7.20173 71.2556 7.44547 71.0565 7.6518C70.8706 7.8556 70.6437 8.01779 70.3907 8.12775C70.1377 8.2377 69.8643 8.29292 69.5885 8.2898C69.3051 8.3041 69.0228 8.24661 68.7675 8.12267C68.5123 7.99873 68.2925 7.81234 68.1285 7.5808V8.1808H67.2285V2.3418H68.1285V4.6028C68.2939 4.3732 68.5141 4.18873 68.7692 4.06626C69.0243 3.9438 69.3059 3.88725 69.5885 3.9018ZM68.5035 7.0508C68.7567 7.29455 69.0945 7.43073 69.446 7.43073C69.7975 7.43073 70.1353 7.29455 70.3885 7.0508C70.5127 6.92546 70.6101 6.77616 70.6747 6.61197C70.7394 6.44779 70.7699 6.27217 70.7645 6.0958C70.7699 5.91943 70.7394 5.7438 70.6747 5.57962C70.6101 5.41544 70.5127 5.26613 70.3885 5.1408C70.1352 4.89727 69.7974 4.76125 69.446 4.76125C69.0946 4.76125 68.7568 4.89727 68.5035 5.1408C68.3795 5.26621 68.2823 5.41556 68.2178 5.57974C68.1533 5.74392 68.123 5.9195 68.1285 6.0958C68.123 6.27209 68.1533 6.44768 68.2178 6.61186C68.2823 6.77604 68.3795 6.92538 68.5035 7.0508Z" fill="#BCBCBC"/>
<path d="M74.9669 4.00977H75.9269L74.3269 8.30977C74.2242 8.76507 73.9633 9.16919 73.5907 9.45025C73.2181 9.73132 72.7579 9.87111 72.2919 9.84477V9.00977C72.5347 9.03726 72.779 8.97306 72.9769 8.82977C73.1726 8.65853 73.3193 8.43834 73.4019 8.19177L73.4429 8.10877L71.6719 4.00977H72.6559L73.8999 7.03777L74.9669 4.00977Z" fill="#BCBCBC"/>
</g>
<defs>
<clipPath id="clip0_3201_3">
<rect width="80.448" height="26.669" fill="white"/>
</clipPath>
</defs>
</svg>
