<svg xmlns="http://www.w3.org/2000/svg" width="16" height="16">
    <path fill="#686F76" fill-opacity=".702" fill-rule="evenodd" d="M14.5 15.998h-13a1.5 1.5 0 0 1-1.5-1.5v-13a1.5 1.5 0 0 1 1.5-1.5h13a1.5 1.5 0 0 1 1.5 1.5v13a1.5 1.5 0 0 1-1.5 1.5zm.499-14.5a.5.5 0 0 0-.499-.5h-13a.5.5 0 0 0-.5.5v13a.5.5 0 0 0 .5.5h13a.5.5 0 0 0 .499-.5v-13zM13 12.998H5v1H4v-1H3a.5.5 0 0 1 0-.999h1v-1.001h1v1.001h8a.5.5 0 1 1 0 .999zm0-3.999h-1v.999h-1v-.999H3a.501.501 0 0 1 0-1.001h8v-1h1v1h1a.5.5 0 0 1 0 1.001zm0-4H8v1H7v-1H3a.5.5 0 0 1 0-1h4V2.998h1v1.001h5a.5.5 0 1 1 0 1z"/>
</svg>
