<svg xmlns="http://www.w3.org/2000/svg" width="52" height="52">
    <path fill="#FFF" fill-rule="evenodd" d="M26 0c14.359 0 26 11.641 26 26S40.359 52 26 52C11.64 52 0 40.359 0 26S11.64 0 26 0z"/>
    <path fill="#D1F0FC" fill-rule="evenodd" d="M19.307 25l2.721-5.4c.303-.7 1.411-.7 1.814 0l5.14 10.2 2.116-4.2c.202-.3.504-.6.907-.6h5.946c-.504-6.1-5.644-11-11.992-11-6.349 0-11.489 4.9-11.993 11h5.341z"/>
    <path fill="#87DAF9" fill-rule="evenodd" d="M32.61 27l-2.721 5.4c-.202.4-.504.6-.907.6s-.706-.2-.907-.6l-5.14-10.2-2.116 4.2c-.202.4-.504.6-.907.6h-5.946c.504 6.1 5.644 11 11.993 11 6.348 0 11.488-4.9 11.992-11H32.61z"/>
</svg>
