<svg xmlns="http://www.w3.org/2000/svg" width="43.5" height="43.5">
    <path fill="#FFF" fill-rule="evenodd" stroke="#E5E9EC" d="M21.5.5c11.598 0 21 9.402 21 21s-9.402 21-21 21-21-9.402-21-21 9.402-21 21-21z"/>
    <path fill="#686F76" fill-opacity=".702" fill-rule="evenodd" d="M28.399 20.499c-.489-3.388-3.376-6.001-6.899-6.001-2.787 0-5.174 1.642-6.3 3.999h3.798a.5.5 0 0 1 0 1.001H13.765c.005-.017.007-.035.011-.052a.481.481 0 0 1-.177-.158.493.493 0 0 1-.036-.053.472.472 0 0 1-.051-.171c-.003-.024-.02-.042-.02-.067 0-.014.007-.025.008-.039v-4.957a.5.5 0 0 1 1.001 0v3.658c1.36-2.475 3.976-4.161 6.999-4.161 4.079 0 7.438 3.055 7.931 7.001h-1.032zm-6.899 8c2.787 0 5.174-1.641 6.3-3.999h-3.798a.5.5 0 0 1 0-1.001h4.173v-.001h1.06c-.005.017-.007.036-.011.053.072.036.13.092.177.158a.702.702 0 0 1 .036.053c.028.052.043.11.051.171.003.023.019.041.019.066 0 .014-.006.026-.008.039v4.958a.5.5 0 1 1-1.001 0v-3.659c-1.359 2.475-3.974 4.161-6.998 4.161-4.079 0-7.438-3.054-7.93-6.999h1.031c.489 3.388 3.376 6 6.899 6z"/>
</svg>
