<svg xmlns="http://www.w3.org/2000/svg" width="23" height="15">
    <path fill="#686F76" fill-opacity=".702" fill-rule="evenodd" d="M21.944 14.504h-.019c-.271-.008-.442-.213-.466-.476-.018-.193-.569-4.868-8.086-4.864v2.99a.518.518 0 0 1-.307.471.548.548 0 0 1-.57-.068L5.538 6.96a.51.51 0 0 1 .001-.806L12.498.61a.552.552 0 0 1 .569-.067c.187.087.306.27.306.47v2.925c3.118.096 5.55 1.07 7.116 2.848 2.547 2.895 1.979 7.1 1.952 7.275-.04.256-.233.443-.497.443zm-9.107-6.389h.001c5.369.003 7.421 1.762 8.593 3.318-.172-1.246-.672-2.747-1.761-3.974-1.448-1.629-3.78-2.487-6.833-2.487a.53.53 0 0 1-.537-.521V2.11L6.726 6.56l5.574 4.492V8.635c0-.138.056-.271.158-.369a.548.548 0 0 1 .379-.151z"/>
    <path fill="none" stroke="#A4A8AC" d="M7.476 1.577L2.11 5.884l5.366 5.385"/>
</svg>
