<svg xmlns="http://www.w3.org/2000/svg" width="18" height="17">
    <path fill="#8A8C8E" fill-rule="evenodd" d="M16 16.998H1c-.553 0-1-.447-1-.999V1.998a.999.999 0 0 1 1-.999h3V-.002h1V.999h7V-.002h1V.999h3.5c.552 0 .5.447.5.999v14.001a1 1 0 0 1-1 .999zm0-14.499a.5.5 0 0 0-.5-.501H13v1.001h-1V1.998H5v1.001H4V1.998H1.5a.5.5 0 0 0-.5.501v1.5h15v-1.5zm0 2.5H1v10.499a.5.5 0 0 0 .5.501h14a.5.5 0 0 0 .5-.501V4.999zm-4.182 7.857a.495.495 0 0 1-.704 0 .5.5 0 0 1 0-.705l1.112-1.116H4.73l1.136 1.141a.5.5 0 0 1-.351.851.496.496 0 0 1-.352-.146L3.18 10.89a.497.497 0 0 1 0-.707l1.983-1.991a.496.496 0 0 1 .703 0 .5.5 0 0 1 0 .705L4.73 10.038h7.544l-1.16-1.165a.5.5 0 0 1 0-.705.497.497 0 0 1 .704 0l1.983 1.991a.5.5 0 0 1 0 .706l-1.983 1.991z"/>
</svg>
