<svg xmlns="http://www.w3.org/2000/svg" width="12" height="18">
    <path fill="#3C4042" fill-opacity=".6" fill-rule="evenodd" d="M12 15.499h-.101C11.42 16.916 8.97 17.998 6 17.998c-2.971 0-5.42-1.082-5.899-2.499H0v-.5-4-4-3.5h.101a1.552 1.552 0 0 1-.101-.5C0 1.341 2.686-.002 6-.002c3.313 0 6 1.343 6 3.001 0 .171-.046.336-.101.5H12v12zM6 .998c-2.762 0-5 .896-5 2.001 0 1.104 2.238 2 5 2 2.761 0 5-.896 5-2C11 1.894 8.761.998 6 .998zm5 3.655c-1.074.81-2.911 1.345-5 1.345-2.09 0-3.926-.535-5-1.345v2.346c.001 1.105 2.239 2 5 2s4.999-.895 5-2V4.653zm0 4c-1.074.81-2.911 1.345-5 1.345-2.09 0-3.926-.535-5-1.345v2.346c.001 1.104 2.239 2 5 2s4.999-.896 5-2V8.653zm-5 5.345c-2.09 0-3.926-.535-5-1.345v2.345c.001 1.105 2.239 2.001 5 2.001s4.999-.896 5-2.001v-2.345c-1.074.81-2.911 1.345-5 1.345z"/>
</svg>
