<svg width="200" height="41" viewBox="0 0 200 41" xmlns="http://www.w3.org/2000/svg"><path d="M199.299911 32.3269231h-15.047942V8.6730769H200v3.7062167h-11.797118v5.7546684h11.205262v3.6955986h-11.205262v6.7729047H200v3.7228242h-.700089v.0016336zm-27.481845-13.4595962h8.496895v12.1171467l-.506806.1578638c-.622182.1934928-1.250632.3639639-1.88478.5116872-.610787.1425159-1.250063.2650249-1.917542.3678008-.660356.1005834-1.361451.1759524-2.103854.2266552-.747531.0504287-1.532951.0767394-2.350847.0767394-1.663997.0260366-3.318308-.2466623-4.878322-.804119-1.425265-.527035-2.704101-1.3648645-3.735944-2.4477119v-.0008222c-1.057768-1.1209429-1.851734-2.4479859-2.328342-3.890412-.531305-1.6411263-.789408-3.3524142-.764339-5.070828-.006267-1.1535572.12136-2.3040996.381172-3.4302499.241296-1.049959.624177-2.0651112 1.138959-3.0191461.491707-.9145688 1.122721-1.7532205 1.872246-2.4882741.749809-.7265574 1.609869-1.3404723 2.550264-1.8203675.977431-.4988059 2.020385-.8696215 3.100373-1.1025803 1.161749-.2488548 2.348853-.3719119 3.538806-.3658823 1.232969-.0030148 2.463375.1120942 3.6727.3436827 1.176278.2266552 2.324353.5728046 3.424568 1.0326927l.673177.281195-.292005.6547512-1.029564 2.2999886-.288015.6413219-.654375-.2724248c-.939541-.3946596-1.915547-.7043578-2.914914-.9252575-.90621-.1984261-1.832362-.2998317-2.761647-.3022983-1.180837-.0208293-2.355121.1691006-3.463597.5601974-.964326.3538233-1.830938.9170355-2.532317 1.6455113-.723601.7616383-1.268865 1.6641481-1.598474 2.6464121-.382027 1.1713716-.566631 2.3942683-.545834 3.6220983-.024785 1.275792.153266 2.5480211.528171 3.77174.300836.9726716.823595 1.8683296 1.530102 2.6217458.692264.7103873 1.551468 1.2505777 2.505539 1.5756237 1.16004.3820525 2.381045.5654048 3.607177.5415608 1.316725.0019184 2.630317-.1285385 3.918839-.3891783v-5.6208848h-5.113634v-3.747348h.72474l.001424.0013704zm-18.276901 1.4416356c.02357-1.2809419-.147518-2.5578737-.507442-3.7841063-.289492-.9707317-.792497-1.8586834-1.470196-2.5945375-.681858-.7123664-1.518168-1.2471425-2.439051-1.5605035-1.146043-.3821056-2.345326-.5648518-3.549323-.5407912h-3.055468v17.2076441h2.442101c1.299108.0260657 2.593779-.1629821 3.834933-.5602688 2.003981-.6235713 3.577884-2.2327689 4.202343-4.2959675.382938-1.2522983.565396-2.5607381.540717-3.8737608l.001386.0022915zm3.937075-.0237589c.028416 1.7290858-.235248 3.4508219-.780063 5.0928001-.486617 1.4427196-1.300834 2.7539611-2.379808 3.8319177-1.090175 1.0643459-2.409589 1.8670969-3.858239 2.3472775-1.648105.5362561-3.374354.7959457-5.108253.7676357h-6.7692V8.6748497h7.41183c1.625701-.0258601 3.243479.2313795 4.780381.760286 1.381163.4888914 2.633089 1.2840204 3.661242 2.3252284 1.028154 1.051552 1.809583 2.3173343 2.28773 3.7061561.52323 1.551604.778151 3.1805161.753287 4.8173223l.001093.0013611zm-24.316286 12.0417195h-15.051718V8.6730769h15.747758v3.7062167H122.06122v5.7546684h11.20651v3.6955986h-11.20651v6.7729047h11.797048v3.7228242h-.697684l.00137.0016336zm-25.165025 0h.710493V12.3792936h7.828011V8.6730769H96.850394v3.7062167h7.822974v19.9462682h3.322722l.000839.0013613zm-24.530456-.7038539V8.6730769h3.929368v19.9004127h11.029356v3.7534335h-14.96063v-.7065767l.001906.0027228zm-10.238127-9.5461461l-2.37675-6.7814976c-.125201-.3430124-.248626-.7106146-.374123-1.1031178-.108626.3570192-.225244.7183961-.345413 1.0847532l-.006808.0121393-2.408717 6.7877229h5.511811zm4.240917 9.8017311l-2.623016-6.5968479H66.79403l-2.590757 6.5944072-.178402.4507096H59.84252l.383452-.9591816 8.895981-22.2458533.180365-.4488113h3.17337l.176438.4488113 8.855869 22.2458533.381769.9591816h-4.24266l-.177841-.4485401v.0002712zM25.984252 18.8997367v-5.4958905l-22.8313695 8.695855-.0032762 5.4964526 22.8335536-8.6975412.0010921.0011241zm3.1496063-11.7832209L.0019193 18.1346154 0 11.0178193 29.1335841 0v7.1159553l.0002742.0005605zm-.0008227 22.8638626L0 41v-7.1158346l29.1338583-11.0187808v7.1149938h-.0008227zm29.9212284-4.6324165c.015611 1.0068885-.18302 2.0055553-.581897 2.9266637-.397263.8816441-.999077 1.6514725-1.753229 2.2437115-.795063.6264963-1.701284 1.0902021-2.66914 1.3659043-1.095701.3069448-2.228006.4557582-3.36381.4417813-1.174561.0109623-2.347507-.0792027-3.506996-.2691248-.932059-.1463469-1.839088-.4267081-2.693901-.8328618l-.390803-.194033v-4.0217988l.949823.4165679c.433059.1888259.875269.3543568 1.325015.4963188.460243.146895.941748.2743319 1.444247.3820366.490388.1057863.98562.1860853 1.483812.2403487.490926.0523451.984274.0783806 1.477622.0781065.68552.0109623 1.369694-.0646776 2.036642-.2252755.481505-.1131859.935827-.3233883 1.335512-.6188227.318671-.2403487.574899-.5563374.746885-.9200121.174139-.3971099.259458-.828751.249231-1.2636808.003499-.2992711-.027992-.5977201-.093933-.8893177-.049523-.2271939-.134574-.4445218-.252191-.6440359h.00296c-.133228-.2058174-.293371-.3924508-.475853-.5538709-.245463-.2167797-.510574-.4088943-.791564-.5744252l-.001884.0019184c-.410989-.2370601-.835166-.449729-1.26957-.6377326-.515957-.2280162-1.125846-.4711055-1.830475-.7306382l-.001615-.0027406c-.940133-.3370912-1.846354-.7654436-2.706012-1.279302-.706783-.4171161-1.343048-.947418-1.884305-1.5708996-.49577-.587306-.871231-1.2694359-1.105121-2.0066515-.248961-.7942197-.371155-1.6243409-.361734-2.4580248-.013458-.9043909.169563-1.8008341.535604-2.624652.370347-.800797.91914-1.5026592 1.602506-2.0491305V9.571274c.714049-.5768918 1.530375-1.0079848 2.404567-1.26971.969202-.2874867 1.974738-.4278043 2.984042-.4162939 1.082782-.0035627 2.163142.104142 3.22493.3209217 1.021685.2104765 2.017532.535235 2.969508.9685205l.586474.2666582-.215857.6210151-.782144 2.2634438-.241156.7051508-.666679-.2883089c-.810943-.3565492-1.653376-.634992-2.515456-.8312174-.795063-.180056-1.606813-.2715913-2.421254-.2729616-.538296-.009592-1.075246.0550856-1.596586.1923886-.399415.1063344-.774876.2910494-1.105121.5434567-.273454.2110245-.493348.4864527-.640302.8024414-.148301.3472312-.220702.7229646-.212089 1.1014384-.003499.3039302.025031.6070382.084513.9043909v.0032887c.044947.2260977.123808.4436997.233889.6454062.118156.2041731.264303.3902584.434136.5527747.221508.212943.464549.4012207.725084.5620926.374385.2274681.762765.4299968 1.162449.6070382.494694.2244533 1.066633.4579506 1.716087.7004918v-.0021924c1.02653.3658672 2.02157.8177886 2.974084 1.3519273.734774.3987542 1.40226.9150791 1.976622 1.5286946.489042.5514044.864234 1.1970847 1.103775 1.8986728.247347.7468076.369271 1.530613.36012 2.3185293l.000538-.0013702z" fill="#272727" fill-rule="evenodd"/></svg>
