<svg xmlns="http://www.w3.org/2000/svg" width="47" height="63" viewBox="0 0 47 63">
    <g fill="none" fill-rule="nonzero">
        <path fill="#B1E7FB" fill-opacity=".531" d="M40 17.275V40.81c0 8.649-6.982 15.69-15.556 15.69h-3.888C11.98 56.5 5 49.459 5 40.81V17.275h7.778c3.733 0 7.136-1.441 9.722-3.775 2.586 2.334 5.989 3.775 9.722 3.775H40z"/>
        <path fill="#FFF" d="M46 7.306v31.936c0 11.235-9.187 20.323-20.543 20.323A1.94 1.94 0 0 0 23.5 61.5c0-1.065-.88-1.935-1.957-1.935C10.186 59.565 1 50.477 1 39.242V7.306c0 2.14 1.751 3.871 3.913 3.871h8.804c5.409 0 9.783-4.326 9.783-9.677 0 5.351 4.373 9.677 9.783 9.677h8.804c2.162 0 3.913-1.732 3.913-3.87zm-4.891 31.936V16.016h-7.826c-3.757 0-7.18-1.423-9.783-3.726-2.602 2.303-6.026 3.726-9.783 3.726H5.891v23.226c0 8.535 7.024 15.484 15.652 15.484h3.914c8.627 0 15.652-6.949 15.652-15.484z"/>
        <path fill="#B1E7FB" fill-opacity=".531" d="M27.3 40.006a9.576 9.576 0 0 1-3.8.78c-1.35 0-2.64-.279-3.8-.78-3.363-1.43-5.7-4.7-5.7-8.506v3.714c0 3.808 2.337 7.076 5.7 8.506 1.16.502 2.45.78 3.8.78 1.349 0 2.64-.278 3.8-.78 3.352-1.43 5.7-4.7 5.7-8.506V31.5c0 3.807-2.348 7.076-5.7 8.506z"/>
        <path fill="#FFF" d="M33 32a9.494 9.494 0 0 1-5.7 8.702 9.39 9.39 0 0 1-3.8.798c-1.35 0-2.64-.285-3.8-.798A9.478 9.478 0 0 1 14 32c0-5.244 4.247-9.5 9.5-9.5 5.244 0 9.5 4.256 9.5 9.5z"/>
        <g fill="#00AEEF">
            <path d="M21.542 60.562C9.664 60.562 0 51 0 39.249c0-.536.437-.969.98-.969.54 0 .978.433.978.97 0 10.682 8.786 19.374 19.584 19.374.541 0 .979.433.979.969a.973.973 0 0 1-.98.969zM33.292 12.125c-5.939 0-10.771-4.78-10.771-10.656 0-.536.437-.969.979-.969s.98.433.98.969c0 4.808 3.952 8.719 8.812 8.719.541 0 .979.432.979.968a.973.973 0 0 1-.98.969zM25.458 60.562a.973.973 0 0 1-.979-.97c0-.535.438-.968.98-.968 10.797 0 19.583-8.692 19.583-19.375 0-.536.437-.969.979-.969s.979.433.979.97C47 51 37.336 60.561 25.458 60.561zM42.104 12.125a.973.973 0 0 1-.979-.969c0-.536.437-.969.98-.969 1.619 0 2.937-1.304 2.937-2.906 0-.536.437-.968.979-.968s.979.432.979.968c0 2.67-2.196 4.844-4.896 4.844z"/>
            <path d="M42.104 12.125h-8.812a.973.973 0 0 1-.98-.969c0-.536.438-.969.98-.969h8.812c.542 0 .98.433.98.97a.973.973 0 0 1-.98.968zM46.02 40.218a.973.973 0 0 1-.978-.969V7.281c0-.536.437-.968.979-.968s.979.432.979.968V39.25a.973.973 0 0 1-.98.969zM13.708 12.125a.973.973 0 0 1-.979-.969c0-.536.438-.969.98-.969 4.859 0 8.812-3.91 8.812-8.718 0-.536.437-.969.979-.969s.98.433.98.969c0 5.875-4.833 10.656-10.772 10.656zM4.896 12.125C2.196 12.125 0 9.952 0 7.281c0-.536.437-.968.98-.968.54 0 .978.432.978.968 0 1.602 1.318 2.907 2.938 2.907.542 0 .979.432.979.968a.973.973 0 0 1-.98.969z"/>
            <path d="M13.708 12.125H4.896a.973.973 0 0 1-.98-.969c0-.536.438-.969.98-.969h8.812c.542 0 .98.433.98.97a.973.973 0 0 1-.98.968zM.98 40.218a.973.973 0 0 1-.98-.969V7.281c0-.536.437-.968.98-.968.54 0 .978.432.978.968V39.25a.973.973 0 0 1-.979.969zM23.5 62.5a.973.973 0 0 1-.98-.969c0-1.602 1.32-2.907 2.94-2.907.541 0 .978.433.978.969a.973.973 0 0 1-.979.969c-.54 0-.98.435-.98.97a.973.973 0 0 1-.979.968z"/>
            <path d="M23.5 62.5a.973.973 0 0 1-.98-.969.975.975 0 0 0-.978-.968.973.973 0 0 1-.98-.97c0-.535.438-.968.98-.968 1.619 0 2.937 1.304 2.937 2.906a.973.973 0 0 1-.979.969zM25.458 55.719h-3.916c-9.18 0-16.646-7.389-16.646-16.47V16c0-.536.437-.969.979-.969h7.833c3.365 0 6.609-1.237 9.138-3.484a.985.985 0 0 1 1.308 0 13.748 13.748 0 0 0 9.138 3.484h7.833c.542 0 .98.433.98.969v23.25c0 9.08-7.468 16.469-16.647 16.469zM6.854 16.969v22.28c0 8.014 6.589 14.532 14.688 14.532h3.916c8.099 0 14.688-6.518 14.688-14.532V16.97h-6.854A15.709 15.709 0 0 1 23.5 13.54a15.709 15.709 0 0 1-9.792 3.429H6.854z"/>
            <path d="M33.292 37.313a.973.973 0 0 1-.98-.97V32.47c0-.536.438-.969.98-.969.541 0 .979.433.979.969v3.875a.973.973 0 0 1-.98.968z"/>
            <path d="M23.5 43.125c-5.939 0-10.77-4.78-10.77-10.656S17.56 21.812 23.5 21.812c5.939 0 10.77 4.781 10.77 10.657 0 5.875-4.831 10.656-10.77 10.656zm0-19.375c-4.86 0-8.813 3.91-8.813 8.719 0 4.808 3.954 8.718 8.813 8.718 4.86 0 8.813-3.91 8.813-8.718S28.358 23.75 23.5 23.75z"/>
            <path d="M23.5 47c-5.939 0-10.77-4.78-10.77-10.656 0-.536.437-.969.978-.969.542 0 .98.433.98.969 0 4.808 3.953 8.718 8.812 8.718 4.86 0 8.813-3.91 8.813-8.718 0-.536.437-.969.979-.969.541 0 .979.433.979.969C34.27 42.219 29.439 47 23.5 47z"/>
            <path d="M13.708 37.313a.973.973 0 0 1-.979-.97V32.47c0-.536.438-.969.98-.969.541 0 .979.433.979.969v3.875a.973.973 0 0 1-.98.968zM27.417 46.194a.973.973 0 0 1-.98-.969V41.35c0-.535.438-.969.98-.969.541 0 .979.434.979.97v3.874a.973.973 0 0 1-.98.969zM19.583 46.194a.973.973 0 0 1-.979-.969V41.35c0-.535.438-.969.98-.969.541 0 .979.434.979.97v3.874a.973.973 0 0 1-.98.969zM23.5 36.344a.973.973 0 0 1-.98-.969v-5.813c0-.535.438-.968.98-.968s.98.433.98.968v5.813a.973.973 0 0 1-.98.969z"/>
        </g>
    </g>
</svg>
