<svg width="18" height="18" viewBox="0 0 18 18" fill="none" xmlns="http://www.w3.org/2000/svg">
<path d="M9 11.25C10.2426 11.25 11.25 10.2426 11.25 9C11.25 7.75736 10.2426 6.75 9 6.75C7.75736 6.75 6.75 7.75736 6.75 9C6.75 10.2426 7.75736 11.25 9 11.25Z" stroke="#566877" stroke-width="1.2" stroke-miterlimit="10" stroke-linecap="round" stroke-linejoin="round"/>
<path d="M1.50195 9.66105V8.34105C1.50195 7.56105 2.13945 6.91605 2.92695 6.91605C4.28445 6.91605 4.83945 5.95605 4.15695 4.77855C3.76695 4.10355 3.99945 3.22605 4.68195 2.83605L5.97945 2.09355C6.57195 1.74105 7.33695 1.95105 7.68945 2.54355L7.77195 2.68605C8.44695 3.86355 9.55695 3.86355 10.2395 2.68605L10.322 2.54355C10.6745 1.95105 11.4395 1.74105 12.032 2.09355L13.3295 2.83605C14.012 3.22605 14.2445 4.10355 13.8545 4.77855C13.172 5.95605 13.727 6.91605 15.0845 6.91605C15.8645 6.91605 16.5095 7.55355 16.5095 8.34105V9.66105C16.5095 10.4411 15.872 11.0861 15.0845 11.0861C13.727 11.0861 13.172 12.0461 13.8545 13.2236C14.2445 13.9061 14.012 14.7761 13.3295 15.1661L12.032 15.9086C11.4395 16.2611 10.6745 16.0511 10.322 15.4586L10.2395 15.3161C9.56445 14.1386 8.45445 14.1386 7.77195 15.3161L7.68945 15.4586C7.33695 16.0511 6.57195 16.2611 5.97945 15.9086L4.68195 15.1661C3.99945 14.7761 3.76695 13.8986 4.15695 13.2236C4.83945 12.0461 4.28445 11.0861 2.92695 11.0861C2.13945 11.0861 1.50195 10.4411 1.50195 9.66105Z" stroke="#566877" stroke-width="1.2" stroke-miterlimit="10" stroke-linecap="round" stroke-linejoin="round"/>
</svg>
