<svg width="13" height="13" viewBox="0 0 13 13" fill="none" xmlns="http://www.w3.org/2000/svg">
<path d="M6.5 8.125C7.39746 8.125 8.125 7.39746 8.125 6.5C8.125 5.60254 7.39746 4.875 6.5 4.875C5.60254 4.875 4.875 5.60254 4.875 6.5C4.875 7.39746 5.60254 8.125 6.5 8.125Z" stroke="#10213A" stroke-miterlimit="10" stroke-linecap="round" stroke-linejoin="round"/>
<path d="M1.08203 6.97612V6.02279C1.08203 5.45946 1.54245 4.99362 2.1112 4.99362C3.09161 4.99362 3.49245 4.30029 2.99953 3.44987C2.71786 2.96237 2.88578 2.32862 3.3787 2.04696L4.31578 1.51071C4.7437 1.25612 5.2962 1.40779 5.55078 1.83571L5.61036 1.93862C6.09786 2.78904 6.89953 2.78904 7.39245 1.93862L7.45203 1.83571C7.70661 1.40779 8.25911 1.25612 8.68703 1.51071L9.62411 2.04696C10.117 2.32862 10.2849 2.96237 10.0033 3.44987C9.51036 4.30029 9.9112 4.99362 10.8916 4.99362C11.4549 4.99362 11.9208 5.45404 11.9208 6.02279V6.97612C11.9208 7.53946 11.4604 8.00529 10.8916 8.00529C9.9112 8.00529 9.51036 8.69862 10.0033 9.54904C10.2849 10.042 10.117 10.6703 9.62411 10.952L8.68703 11.4882C8.25911 11.7428 7.70661 11.5911 7.45203 11.1632L7.39245 11.0603C6.90495 10.2099 6.10328 10.2099 5.61036 11.0603L5.55078 11.1632C5.2962 11.5911 4.7437 11.7428 4.31578 11.4882L3.3787 10.952C2.88578 10.6703 2.71786 10.0365 2.99953 9.54904C3.49245 8.69862 3.09161 8.00529 2.1112 8.00529C1.54245 8.00529 1.08203 7.53946 1.08203 6.97612Z" stroke="#10213A" stroke-miterlimit="10" stroke-linecap="round" stroke-linejoin="round"/>
</svg>
