<svg width="26" height="26" viewBox="0 0 26 26" fill="none" xmlns="http://www.w3.org/2000/svg">
<path fill-rule="evenodd" clip-rule="evenodd" d="M11.8461 4.33913C14.2788 1.90649 18.2228 1.90649 20.6555 4.33913C23.0882 6.77177 23.0882 10.7159 20.6555 13.1485L18.3574 15.4466C18.0402 15.7639 17.5257 15.7639 17.2084 15.4466C16.8911 15.1293 16.8911 14.6149 17.2084 14.2975L19.5065 11.9995C21.3045 10.2014 21.3045 7.28622 19.5065 5.48818C17.7084 3.69014 14.7932 3.69014 12.9952 5.48818L10.6971 7.78628C10.3798 8.10358 9.86534 8.10358 9.54804 7.78628C9.23073 7.46897 9.23073 6.95453 9.54804 6.63723L11.8461 4.33913ZM7.63296 9.70135C7.95026 10.0187 7.95026 10.5331 7.63296 10.8504L5.33486 13.1485C3.53682 14.9466 3.53682 17.8617 5.33486 19.6598C7.1329 21.4578 10.0481 21.4578 11.8461 19.6598L14.1443 17.3616C14.4615 17.0443 14.976 17.0443 15.2933 17.3616C15.6106 17.679 15.6106 18.1934 15.2933 18.5107L12.9952 20.8088C10.5625 23.2414 6.61845 23.2414 4.18581 20.8088C1.75317 18.3762 1.75317 14.4321 4.18581 11.9995L6.48391 9.70135C6.80121 9.38405 7.31566 9.38405 7.63296 9.70135Z" fill="black"/>
<path fill-rule="evenodd" clip-rule="evenodd" d="M9.54852 15.4466C9.23122 15.1293 9.23122 14.6149 9.54852 14.2976L14.1447 9.70136C14.462 9.38405 14.9765 9.38405 15.2938 9.70136C15.6111 10.0187 15.6111 10.5331 15.2938 10.8504L10.6976 15.4466C10.3803 15.764 9.86582 15.764 9.54852 15.4466Z" fill="black"/>
</svg>
