<svg width="17" height="17" viewBox="0 0 17 17" fill="none" xmlns="http://www.w3.org/2000/svg">
<path d="M14.8746 1.41675H10.6246C10.4367 1.41675 10.2566 1.49138 10.1237 1.62421C9.99088 1.75705 9.91626 1.93722 9.91626 2.12508C9.91626 2.31294 9.99088 2.49311 10.1237 2.62595C10.2566 2.75879 10.4367 2.83341 10.6246 2.83341H13.1647L7.29047 8.70762C7.22281 8.77296 7.16885 8.85113 7.13173 8.93755C7.0946 9.02396 7.07506 9.11691 7.07425 9.21096C7.07343 9.30502 7.09135 9.39829 7.12697 9.48534C7.16258 9.57239 7.21518 9.65148 7.28169 9.71799C7.34819 9.78449 7.42728 9.83709 7.51433 9.87271C7.60138 9.90832 7.69466 9.92624 7.78871 9.92543C7.88276 9.92461 7.97571 9.90507 8.06213 9.86795C8.14855 9.83082 8.22671 9.77686 8.29205 9.70921L14.1663 3.835V6.37508C14.1663 6.56294 14.2409 6.74311 14.3737 6.87595C14.5066 7.00879 14.6867 7.08342 14.8746 7.08342C15.0625 7.08342 15.2426 7.00879 15.3755 6.87595C15.5083 6.74311 15.5829 6.56294 15.5829 6.37508V2.12508C15.5829 1.93722 15.5083 1.75705 15.3755 1.62421C15.2426 1.49138 15.0625 1.41675 14.8746 1.41675Z" fill="#000000"/>
<path d="M13.4596 7.49975C13.2718 7.49975 13.0916 7.57438 12.9588 7.70722C12.8259 7.84006 12.7513 8.02022 12.7513 8.20809V13.2819C12.7511 13.5165 12.6578 13.7414 12.492 13.9073C12.3261 14.0731 12.1012 14.1664 11.8666 14.1666H3.71934C3.48476 14.1664 3.25984 14.0731 3.09397 13.9073C2.92809 13.7414 2.83482 13.5165 2.83464 13.2819V5.13463C2.83482 4.90005 2.92809 4.67513 3.09397 4.50925C3.25984 4.34338 3.48476 4.25011 3.71934 4.24992H8.12659C8.31446 4.24992 8.49462 4.17529 8.62746 4.04245C8.7603 3.90961 8.83493 3.72945 8.83493 3.54159C8.83493 3.35372 8.7603 3.17356 8.62746 3.04072C8.49462 2.90788 8.31446 2.83325 8.12659 2.83325H3.71934C3.10921 2.834 2.52428 3.07671 2.09285 3.50814C1.66142 3.93957 1.41872 4.52449 1.41797 5.13463V13.2805C1.41834 13.8908 1.66088 14.4761 2.09235 14.9079C2.52382 15.3396 3.10897 15.5825 3.71934 15.5833H11.8652C12.4756 15.5829 13.0608 15.3403 13.4926 14.9089C13.9243 14.4774 14.1672 13.8923 14.168 13.2819V8.20809C14.168 8.02022 14.0933 7.84006 13.9605 7.70722C13.8277 7.57438 13.6475 7.49975 13.4596 7.49975Z" fill="#000000"/>
</svg>
