<svg xmlns="http://www.w3.org/2000/svg" width="42" height="42" viewBox="0 0 42 42">
    <g fill="none" fill-rule="evenodd">
        <path fill="#000" d="M36.69 31.449H14.868L5.694 10.483H0v-2.62h7.41l9.172 20.965H36.69zM23.587 38.001A3.931 3.931 0 1 1 15.725 38a3.931 3.931 0 0 1 7.862.001zM36.69 38.001a3.932 3.932 0 0 1-7.861 0 3.932 3.932 0 0 1 7.862 0z"/>
        <path fill="#000" d="M32.76 20.966c-5.12 0-9.442-3.296-11.07-7.862h-8.586l5.241 13.103h18.346l3.025-7.56c-1.955 1.439-4.348 2.319-6.956 2.319z"/>
        <path fill="#FC0" fill-rule="nonzero" d="M32.76 0c-5.065 0-9.173 4.108-9.173 9.173 0 5.064 4.108 9.172 9.173 9.172 5.064 0 9.172-4.108 9.172-9.172C41.932 4.108 37.824 0 32.76 0zm-1.39 13.805l-1.853-1.853-2.78-2.78 1.854-1.852 2.779 2.78 5.559-5.56 1.852 1.853-7.411 7.412z"/>
    </g>
</svg>
