<svg width="22" height="22" viewBox="0 0 22 22" fill="none" xmlns="http://www.w3.org/2000/svg">
<path d="M1.83594 1.83398H3.43094C4.42094 1.83398 5.20011 2.68648 5.11761 3.66732L4.35677 12.7973C4.22844 14.2915 5.41093 15.5748 6.91426 15.5748H16.6768C17.9968 15.5748 19.1518 14.4932 19.2526 13.1823L19.7476 6.30732C19.8576 4.78566 18.7026 3.54815 17.1718 3.54815H5.33761" stroke="#25352B" stroke-width="1.5" stroke-miterlimit="10" stroke-linecap="round" stroke-linejoin="round"/>
<path d="M14.8958 20.1667C15.5287 20.1667 16.0417 19.6537 16.0417 19.0208C16.0417 18.388 15.5287 17.875 14.8958 17.875C14.263 17.875 13.75 18.388 13.75 19.0208C13.75 19.6537 14.263 20.1667 14.8958 20.1667Z" stroke="#25352B" stroke-width="1.5" stroke-miterlimit="10" stroke-linecap="round" stroke-linejoin="round"/>
<path d="M7.5599 20.1667C8.19272 20.1667 8.70573 19.6537 8.70573 19.0208C8.70573 18.388 8.19272 17.875 7.5599 17.875C6.92707 17.875 6.41406 18.388 6.41406 19.0208C6.41406 19.6537 6.92707 20.1667 7.5599 20.1667Z" stroke="#25352B" stroke-width="1.5" stroke-miterlimit="10" stroke-linecap="round" stroke-linejoin="round"/>
<path d="M8.25 7.33398H19.25" stroke="#25352B" stroke-width="1.5" stroke-miterlimit="10" stroke-linecap="round" stroke-linejoin="round"/>
</svg>
