<svg fill="none"
     height="12"
     viewBox="0 0 18 12"
     width="18"
     xmlns="http://www.w3.org/2000/svg">
    <path d="M9.00118 2.43604C7.03624 2.43604 5.4375 4.03477 5.4375 5.99972C5.4375 7.96467 7.03624 9.5634 9.00118 9.5634C10.9661 9.5634 12.5649 7.96467 12.5649 5.99972C12.5649 4.03477 10.9661 2.43604 9.00118 2.43604ZM9.00118 8.3634C7.69776 8.3634 6.6375 7.30314 6.6375 5.99972C6.6375 4.69629 7.69776 3.63604 9.00118 3.63604C10.3046 3.63604 11.3649 4.69629 11.3649 5.99972C11.3649 7.30314 10.3046 8.3634 9.00118 8.3634Z"
          fill="#0d3985"/>
    <path d="M9 0.0932617C5.19755 0.0932617 1.68747 2.31192 0.0579713 5.74582C-0.0193725 5.90901 -0.0193724 6.09827 0.0582638 6.26116C1.69304 9.69066 5.20282 11.9064 9 11.9064C12.7972 11.9064 16.307 9.69066 17.9417 6.26115C18.0194 6.09826 18.0194 5.90901 17.942 5.74582C16.3125 2.31192 12.8025 0.0932617 9 0.0932617ZM9 10.7064C5.75917 10.7064 2.75622 8.86917 1.2697 6.00246C2.75183 3.13224 5.75448 1.29327 9 1.29327C12.2455 1.29327 15.2482 3.13224 16.7303 6.00246C15.2438 8.86917 12.2408 10.7064 9 10.7064Z"
          fill="#0d3985"/>
</svg>
