<svg xmlns="http://www.w3.org/2000/svg" width="17" height="16">
    <path fill="#686F76" fill-opacity=".6" fill-rule="evenodd" d="M16.79 11.854l-3.989 3.999a.495.495 0 0 1-.705 0l-1.995-1.999a.5.5 0 1 1 .706-.708l1.642 1.647 3.636-3.646a.5.5 0 0 1 .705.707zm-5.089-.251A4.464 4.464 0 0 0 9.462 11H6.465c-2.306 0-4.211 1.753-4.46 4h6.454a.5.5 0 0 1 0 1H1.478a.5.5 0 0 1-.498-.5c0-3.032 2.46-5.5 5.485-5.5H9.463c.959 0 1.906.255 2.736.737a.5.5 0 0 1-.498.866zM7.961 8a3.998 3.998 0 0 1-3.989-4c0-2.206 1.789-4 3.989-4s3.989 1.794 3.989 4-1.789 4-3.989 4zm0-7a3 3 0 0 0-2.992 3 3 3 0 0 0 2.992 3 3 3 0 0 0 0-6z"/>
</svg>
