<svg xmlns="http://www.w3.org/2000/svg" width="16" height="16">
    <path fill="#686F76" fill-opacity=".6" fill-rule="evenodd" d="M14.5 12.998h-3.494L8 16.004l-3.007-3.006H1.5a1.5 1.5 0 0 1-1.5-1.5V1.499a1.5 1.5 0 0 1 1.5-1.5h13a1.5 1.5 0 0 1 1.5 1.5v9.999a1.5 1.5 0 0 1-1.5 1.5zM15 1.499a.5.5 0 0 0-.5-.5h-13a.5.5 0 0 0-.5.5v10a.5.5 0 0 0 .5.5h3.994L8 14.505l2.505-2.506H14.5a.5.5 0 0 0 .5-.5v-10zm-2.5 3.5h-9a.501.501 0 0 1 0-1.001h9a.5.5 0 0 1 0 1.001zm-7 1.999h5a.5.5 0 0 1 0 1h-5a.5.5 0 1 1 0-1z"/>
</svg>
