<svg width="177" height="34" viewBox="0 0 177 34" fill="none" xmlns="http://www.w3.org/2000/svg">
<path d="M53.6827 29.6927C59.204 29.6927 62.5095 26.6051 62.5095 22.7184C62.5095 14.9814 49.2148 14.2912 49.2148 9.35111C49.2148 6.95371 51.249 5.60971 54.6272 5.60971C56.9882 5.60971 59.0224 6.37252 59.0224 8.443C59.0224 9.46008 58.5502 10.2229 57.3878 10.7678C57.5694 11.7485 58.3685 12.4023 59.4583 12.4023C60.8386 12.4023 61.783 11.3126 61.783 9.75067C61.783 7.20798 59.5673 4.77425 54.9177 4.77425C49.9777 4.77425 46.5632 7.20798 46.5632 10.9857C46.5632 17.5967 59.6762 18.0689 59.6762 24.571C59.6762 27.15 57.4604 28.7846 54.0823 28.7846C50.6678 28.7846 48.7426 26.8957 48.7426 25.0068C48.7426 23.9171 49.2875 23.1543 50.2319 22.9C50.1956 21.9193 49.3965 21.1565 48.1978 21.1565C46.7448 21.1565 45.6914 22.4278 45.6914 24.1351C45.6914 26.4961 47.9798 29.6927 53.6827 29.6927ZM71.7915 29.6563C76.8769 29.6563 79.8191 26.0603 79.8191 20.6843C79.8191 15.2356 76.8042 11.8212 71.8641 11.8212C66.7061 11.8212 63.6549 15.4899 63.6549 20.7569C63.6549 26.0239 66.7061 29.6563 71.7915 29.6563ZM71.8641 28.7482C69.0308 28.7482 67.3963 25.4791 67.3963 20.43C67.3963 15.6715 68.8492 12.7293 71.6099 12.7293C74.4795 12.7293 76.0777 15.8895 76.0777 20.9022C76.0777 25.4064 74.7701 28.7482 71.8641 28.7482ZM80.517 29.2205H88.2177V28.6756L86.1109 28.2034V3.53923L85.8929 3.43026L80.4806 4.77425V5.28279L82.6238 5.21014V28.2034L80.517 28.6756V29.2205ZM96.9077 29.6563C101.993 29.6563 104.935 26.0603 104.935 20.6843C104.935 15.2356 101.92 11.8212 96.9804 11.8212C91.8223 11.8212 88.7711 15.4899 88.7711 20.7569C88.7711 26.0239 91.8223 29.6563 96.9077 29.6563ZM96.9804 28.7482C94.1471 28.7482 92.5125 25.4791 92.5125 20.43C92.5125 15.6715 93.9654 12.7293 96.7261 12.7293C99.5957 12.7293 101.194 15.8895 101.194 20.9022C101.194 25.4064 99.8863 28.7482 96.9804 28.7482ZM120.82 19.195C124.706 19.195 131.68 18.8317 131.68 12.0028C131.68 5.60971 125.832 5.24647 120.82 5.24647H112.465V5.9003L115.516 6.51782V27.9491L112.465 28.5666V29.2205H122.164V28.5666L119.112 27.9491V19.195H120.82ZM120.82 6.15457C123.907 6.15457 127.794 6.37252 127.794 12.0028C127.794 17.7783 123.471 18.2505 120.82 18.2505H119.112V6.15457H120.82ZM132.133 29.2205H139.834V28.6756L137.727 28.2034V3.53923L137.509 3.43026L132.097 4.77425V5.28279L134.24 5.21014V28.2034L132.133 28.6756V29.2205ZM156.37 24.6799V25.2248C156.37 27.1863 155.788 28.1671 154.844 28.1671C153.754 28.1671 153.718 26.8594 153.718 25.6244V17.9236C153.718 13.819 151.575 11.7848 147.543 11.7848C143.583 11.7848 140.75 14.1459 140.75 16.5796C140.75 17.851 141.44 18.7591 142.603 18.7591C143.947 18.7591 144.71 17.742 144.71 16.9792C143.874 16.7976 143.402 16.0711 143.402 15.163C143.402 13.6374 144.637 12.7293 146.526 12.7293C148.996 12.7293 150.231 14.1096 150.231 17.5967V18.1416C150.231 19.5945 148.451 20.2484 146.417 20.7932C143.257 21.6287 140.242 22.6458 140.242 25.9876C140.242 28.385 142.058 29.6927 144.528 29.6927C147.252 29.6927 149.25 27.9491 150.267 26.2782H150.376C150.485 28.0944 151.502 29.6927 153.609 29.6927C156.733 29.6927 156.914 26.8231 156.914 25.2611V24.6799H156.37ZM146.344 27.8038C144.637 27.8038 143.947 26.6414 143.947 25.0432C143.947 22.6094 145.69 21.9193 147.434 21.3018C148.524 20.9022 149.613 20.5753 150.231 19.7762V25.3338C149.177 27.0047 147.833 27.8038 146.344 27.8038ZM156.965 29.2205H164.666V28.6756L162.559 28.2034V19.195C163.322 16.5796 165.138 13.71 167.972 13.71C169.86 13.71 170.623 14.8361 170.623 17.9599V28.2034L168.516 28.6756V29.2205H176.217V28.6756L174.11 28.2034V18.2505C174.11 15.3083 173.82 11.7848 169.751 11.7848C165.719 11.7848 163.504 14.7271 162.596 17.1608H162.414V11.9665L162.196 11.7848L156.929 13.0925V13.601L159.072 13.4194V28.2034L156.965 28.6756V29.2205Z" fill="white"/>
<path d="M63.9002 26.2304C64.7222 25.9221 68.6899 21.2479 69.1051 20.6859C69.1031 20.6711 69.102 20.6633 69.102 20.6633C69.1536 20.6116 69.1515 20.6231 69.1051 20.6859C69.1391 20.9293 69.4387 23.0672 69.5464 23.5518C68.5754 24.3514 63.0441 29.7443 61.1594 29.0589C59.6747 28.519 63.272 26.7444 63.9002 26.2304Z" fill="#052163"/>
<path d="M66 23.5C65.1903 26.5396 59 28.5001 59 28.5001L59.5 27.0001C59.5 27.0001 63.9011 25.2019 65.9572 21.775C66.6465 20.626 66.3449 22.2052 66 23.5Z" fill="white" stroke="white" stroke-width="0.342681"/>
<g clip-path="url(#clip0_301_3)">
<path fill-rule="evenodd" clip-rule="evenodd" d="M33.903 2.40759C34.379 0.979489 33.0204 -0.379215 31.5923 0.0967553L1.24915 10.2113C-0.454819 10.7792 -0.401998 13.2074 1.32491 13.7008L16.0825 17.9174L20.299 32.675C20.7925 34.4021 23.2205 34.4549 23.7885 32.7508L33.903 2.40759ZM31.5241 3.76765L22.0556 32.1732L17.8472 17.4443L31.5241 3.76765ZM30.2323 2.47584L16.5556 16.1525L1.82691 11.9444L30.2323 2.47584Z" fill="white"/>
</g>
<defs>
<clipPath id="clip0_301_3">
<rect width="34" height="34" fill="white"/>
</clipPath>
</defs>
</svg>
