<svg xmlns="http://www.w3.org/2000/svg" width="15" height="14">
    <path fill="#686F76" fill-opacity=".702" fill-rule="evenodd" d="M14.499 9.999H10.49a.5.5 0 0 1 0-1h4.009a.5.5 0 1 1 0 1zm0-3H7.484a.501.501 0 0 1 0-1h7.015a.5.5 0 1 1 0 1zm0-3H7.484a.501.501 0 0 1 0-1h7.015a.5.5 0 1 1 0 1zm0-3H7.484a.501.501 0 0 1 0-1h7.015a.5.5 0 1 1 0 1zm-5.67 8.142c.2.2.2.523 0 .723L4.844 13.84c-.001.002-.004.001-.005.003a.498.498 0 0 1-.722 0c-.001-.002-.004-.001-.005-.003L.127 9.864a.512.512 0 0 1 .725-.723l3.125 3.119V.499a.5.5 0 0 1 1.002 0V12.26l3.125-3.119a.515.515 0 0 1 .725 0zm-.342 2.858h6.012a.5.5 0 1 1 0 1H8.487a.501.501 0 0 1-.502-.5c0-.276.225-.5.502-.5z"/>
</svg>
