<?xml version="1.0" encoding="UTF-8"?>
<svg xmlns="http://www.w3.org/2000/svg" xmlns:xlink="http://www.w3.org/1999/xlink" width="22px" height="22px" viewBox="0 0 22 22" version="1.1">
<g id="surface1">
<path style=" stroke:none;fill-rule:nonzero;fill:rgb(14.509804%,20.784314%,16.862745%);fill-opacity:1;" d="M 9.109375 1.09375 L 9.226562 1.09375 L 9.3125 1.140625 L 9.421875 1.234375 L 9.515625 1.34375 L 9.742188 1.570312 L 9.828125 1.644531 L 9.925781 1.742188 L 10.011719 1.816406 L 10.085938 1.890625 L 10.203125 1.988281 L 10.324219 2.09375 L 10.429688 2.179688 L 10.601562 2.320312 L 10.804688 2.46875 L 11 2.609375 L 11.257812 2.78125 L 11.484375 2.921875 L 11.710938 3.050781 L 12.007812 3.210938 L 12.3125 3.351562 L 12.621094 3.480469 L 12.921875 3.585938 L 13.148438 3.664062 L 13.546875 3.769531 L 13.945312 3.855469 L 14.339844 3.921875 L 14.726562 3.964844 L 15.234375 3.996094 L 15.75 3.996094 L 16.210938 3.976562 L 16.414062 3.976562 L 16.5 4.027344 L 16.5625 4.113281 L 16.574219 4.148438 L 16.574219 7.703125 L 16.523438 7.789062 L 16.457031 7.84375 L 16.414062 7.863281 L 16.273438 7.863281 L 16.1875 7.820312 L 16.125 7.746094 L 16.101562 7.679688 L 16.101562 4.480469 L 15.75 4.492188 L 15.382812 4.492188 L 14.898438 4.46875 L 14.4375 4.425781 L 14.0625 4.371094 L 13.664062 4.296875 L 13.296875 4.210938 L 12.890625 4.09375 L 12.558594 3.976562 L 12.257812 3.855469 L 11.902344 3.695312 L 11.730469 3.609375 L 11.441406 3.460938 L 11.148438 3.289062 L 10.976562 3.179688 L 10.785156 3.050781 L 10.539062 2.878906 L 10.335938 2.726562 L 10.164062 2.589844 L 10.054688 2.503906 L 9.894531 2.363281 L 9.753906 2.246094 L 9.601562 2.105469 L 9.515625 2.03125 L 9.378906 1.890625 L 9.292969 1.816406 L 9.171875 1.695312 L 9.152344 1.695312 L 9.078125 1.78125 L 8.96875 1.878906 L 8.789062 2.0625 L 8.703125 2.136719 L 8.539062 2.289062 L 8.421875 2.382812 L 8.273438 2.515625 L 8.101562 2.652344 L 7.796875 2.878906 L 7.605469 3.019531 L 7.390625 3.15625 L 7.1875 3.289062 L 6.972656 3.414062 L 6.671875 3.578125 L 6.347656 3.738281 L 6.078125 3.855469 L 5.746094 3.984375 L 5.339844 4.125 L 4.910156 4.242188 L 4.523438 4.328125 L 4.082031 4.40625 L 3.71875 4.445312 L 3.289062 4.480469 L 2.953125 4.492188 L 2.640625 4.492188 L 2.246094 4.480469 L 2.246094 13.148438 L 2.277344 13.578125 L 2.332031 13.976562 L 2.40625 14.351562 L 2.480469 14.652344 L 2.578125 14.976562 L 2.695312 15.296875 L 2.804688 15.554688 L 2.945312 15.855469 L 3.105469 16.167969 L 3.277344 16.457031 L 3.414062 16.671875 L 3.585938 16.917969 L 3.71875 17.089844 L 3.835938 17.242188 L 3.929688 17.359375 L 4.0625 17.507812 L 4.179688 17.640625 L 4.253906 17.726562 L 4.371094 17.84375 L 4.425781 17.90625 L 4.480469 17.960938 L 4.585938 18.058594 L 4.695312 18.164062 L 4.78125 18.242188 L 4.941406 18.378906 L 5.09375 18.507812 L 5.242188 18.625 L 5.46875 18.796875 L 5.683594 18.949219 L 5.875 19.078125 L 6.058594 19.195312 L 6.5 19.453125 L 6.851562 19.636719 L 7.144531 19.777344 L 7.550781 19.949219 L 7.875 20.066406 L 8.164062 20.164062 L 8.539062 20.269531 L 8.992188 20.378906 L 9.109375 20.398438 L 9.21875 20.398438 L 9.582031 20.324219 L 9.96875 20.226562 L 10.355469 20.109375 L 10.859375 19.925781 L 11.160156 19.796875 L 11.441406 19.667969 L 11.761719 19.507812 L 11.957031 19.398438 L 12.214844 19.25 L 12.417969 19.121094 L 12.644531 18.96875 L 12.859375 18.820312 L 13.050781 18.671875 L 13.234375 18.53125 L 13.394531 18.390625 L 13.546875 18.261719 L 13.6875 18.132812 L 13.847656 17.984375 L 14.039062 17.789062 L 14.117188 17.703125 L 14.242188 17.5625 L 14.339844 17.445312 L 14.480469 17.285156 L 14.566406 17.175781 L 14.71875 16.972656 L 14.855469 16.78125 L 14.976562 16.597656 L 15.113281 16.371094 L 15.273438 16.09375 L 15.523438 15.597656 L 15.609375 15.523438 L 15.683594 15.5 L 15.789062 15.511719 L 15.875 15.554688 L 15.941406 15.640625 L 15.960938 15.703125 L 15.953125 15.824219 L 15.824219 16.101562 L 15.683594 16.371094 L 15.53125 16.628906 L 15.40625 16.84375 L 15.242188 17.078125 L 15.136719 17.230469 L 15.007812 17.402344 L 14.898438 17.542969 L 14.804688 17.660156 L 14.671875 17.8125 L 14.554688 17.9375 L 14.480469 18.023438 L 14.363281 18.15625 L 14.019531 18.5 L 13.933594 18.574219 L 13.824219 18.671875 L 13.738281 18.746094 L 13.601562 18.863281 L 13.449219 18.980469 L 13.289062 19.109375 L 13.085938 19.261719 L 12.867188 19.410156 L 12.742188 19.496094 L 12.535156 19.625 L 12.320312 19.753906 L 12.054688 19.90625 L 11.847656 20.011719 L 11.675781 20.097656 L 11.332031 20.257812 L 10.96875 20.410156 L 10.6875 20.515625 L 10.289062 20.648438 L 9.90625 20.753906 L 9.484375 20.851562 L 9.207031 20.90625 L 9.054688 20.894531 L 8.519531 20.773438 L 7.992188 20.625 L 7.550781 20.476562 L 7.175781 20.324219 L 6.863281 20.183594 L 6.554688 20.035156 L 6.285156 19.894531 L 6.039062 19.753906 L 5.757812 19.582031 L 5.542969 19.445312 L 5.339844 19.304688 L 5.144531 19.164062 L 5.007812 19.054688 L 4.855469 18.9375 L 4.738281 18.84375 L 4.585938 18.710938 L 4.480469 18.617188 L 4.394531 18.539062 L 4.253906 18.414062 L 4.167969 18.328125 L 4.082031 18.25 L 4.015625 18.175781 L 3.84375 18.003906 L 3.769531 17.917969 L 3.652344 17.789062 L 3.554688 17.671875 L 3.425781 17.519531 L 3.296875 17.347656 L 3.148438 17.144531 L 3.03125 16.972656 L 2.921875 16.8125 L 2.738281 16.511719 L 2.632812 16.316406 L 2.480469 16.027344 L 2.375 15.800781 L 2.222656 15.4375 L 2.117188 15.148438 L 2.007812 14.792969 L 1.902344 14.363281 L 1.835938 14.007812 L 1.78125 13.589844 L 1.761719 13.308594 L 1.75 12.976562 L 1.75 4.210938 L 1.773438 4.113281 L 1.816406 4.050781 L 1.878906 3.996094 L 1.933594 3.976562 L 2.117188 3.976562 L 2.566406 3.996094 L 3.019531 3.996094 L 3.460938 3.976562 L 3.8125 3.941406 L 4.265625 3.878906 L 4.695312 3.792969 L 5.070312 3.695312 L 5.382812 3.597656 L 5.714844 3.480469 L 5.972656 3.375 L 6.1875 3.277344 L 6.574219 3.082031 L 6.800781 2.953125 L 7.046875 2.804688 L 7.304688 2.632812 L 7.488281 2.503906 L 7.660156 2.375 L 7.851562 2.222656 L 8.035156 2.074219 L 8.140625 1.976562 L 8.261719 1.878906 L 8.335938 1.804688 L 8.421875 1.730469 L 8.605469 1.558594 L 8.925781 1.234375 L 9 1.148438 Z M 9.109375 1.09375 "/>
<path style=" stroke:none;fill-rule:nonzero;fill:rgb(14.509804%,20.784314%,16.862745%);fill-opacity:1;" d="M 9.109375 2.46875 L 9.226562 2.46875 L 9.3125 2.515625 L 9.429688 2.621094 L 9.515625 2.695312 L 9.667969 2.824219 L 9.808594 2.945312 L 9.957031 3.0625 L 10.152344 3.210938 L 10.355469 3.351562 L 10.472656 3.4375 L 10.632812 3.546875 L 10.816406 3.664062 L 11.109375 3.835938 L 11.300781 3.941406 L 11.675781 4.136719 L 11.988281 4.273438 L 12.3125 4.40625 L 12.578125 4.5 L 12.914062 4.609375 L 13.222656 4.695312 L 13.601562 4.78125 L 14.007812 4.855469 L 14.382812 4.910156 L 14.84375 4.953125 L 15.4375 4.984375 L 15.523438 5.027344 L 15.585938 5.101562 L 15.609375 5.15625 L 15.609375 7.691406 L 15.566406 7.777344 L 15.492188 7.84375 L 15.4375 7.863281 L 15.308594 7.863281 L 15.222656 7.820312 L 15.15625 7.746094 L 15.136719 7.691406 L 15.125 7.617188 L 15.125 5.457031 L 14.855469 5.445312 L 14.460938 5.414062 L 14.03125 5.359375 L 13.589844 5.285156 L 13.160156 5.1875 L 12.835938 5.101562 L 12.429688 4.972656 L 12.019531 4.824219 L 11.6875 4.683594 L 11.300781 4.5 L 11.097656 4.394531 L 10.96875 4.320312 L 10.851562 4.253906 L 10.625 4.125 L 10.355469 3.953125 L 10.152344 3.8125 L 9.957031 3.671875 L 9.753906 3.523438 L 9.484375 3.308594 L 9.367188 3.210938 L 9.207031 3.070312 L 9.152344 3.050781 L 9.023438 3.167969 L 8.765625 3.382812 L 8.59375 3.511719 L 8.398438 3.664062 L 8.195312 3.804688 L 8.046875 3.910156 L 7.777344 4.082031 L 7.488281 4.253906 L 7.25 4.382812 L 7.003906 4.511719 L 6.691406 4.664062 L 6.390625 4.789062 L 6.027344 4.929688 L 5.671875 5.046875 L 5.296875 5.15625 L 4.996094 5.230469 L 4.566406 5.316406 L 4.082031 5.390625 L 3.511719 5.445312 L 3.210938 5.46875 L 3.203125 6.15625 L 3.203125 12.460938 L 3.210938 13.050781 L 3.234375 13.382812 L 3.277344 13.738281 L 3.351562 14.125 L 3.414062 14.382812 L 3.535156 14.757812 L 3.671875 15.113281 L 3.804688 15.394531 L 3.976562 15.726562 L 4.136719 15.996094 L 4.320312 16.265625 L 4.4375 16.425781 L 4.585938 16.617188 L 4.824219 16.898438 L 4.941406 17.027344 L 5.101562 17.199219 L 5.21875 17.316406 L 5.304688 17.390625 L 5.402344 17.488281 L 5.523438 17.585938 L 5.640625 17.691406 L 5.757812 17.789062 L 5.898438 17.898438 L 6.070312 18.023438 L 6.25 18.15625 L 6.414062 18.261719 L 6.617188 18.390625 L 6.851562 18.53125 L 7.046875 18.636719 L 7.316406 18.777344 L 7.671875 18.9375 L 7.960938 19.054688 L 8.324219 19.1875 L 8.5625 19.261719 L 9.011719 19.378906 L 9.121094 19.398438 L 9.21875 19.398438 L 9.625 19.304688 L 10.054688 19.175781 L 10.367188 19.066406 L 10.765625 18.90625 L 11.128906 18.734375 L 11.460938 18.5625 L 11.761719 18.378906 L 12.019531 18.21875 L 12.234375 18.070312 L 12.4375 17.917969 L 12.609375 17.777344 L 12.761719 17.660156 L 12.890625 17.542969 L 12.976562 17.46875 L 13.085938 17.371094 L 13.363281 17.089844 L 13.4375 17.003906 L 13.566406 16.867188 L 13.652344 16.757812 L 13.75 16.640625 L 13.898438 16.445312 L 14.039062 16.253906 L 14.203125 16.007812 L 14.296875 15.84375 L 14.460938 15.566406 L 14.511719 15.523438 L 14.578125 15.492188 L 14.71875 15.492188 L 14.78125 15.523438 L 14.835938 15.578125 L 14.878906 15.640625 L 14.890625 15.671875 L 14.890625 15.769531 L 14.835938 15.898438 L 14.707031 16.125 L 14.546875 16.382812 L 14.40625 16.585938 L 14.253906 16.789062 L 14.136719 16.941406 L 14.019531 17.078125 L 13.921875 17.199219 L 13.78125 17.347656 L 13.707031 17.433594 L 13.351562 17.789062 L 13.265625 17.863281 L 13.125 17.992188 L 13.007812 18.089844 L 12.828125 18.242188 L 12.609375 18.402344 L 12.460938 18.507812 L 12.320312 18.605469 L 12.160156 18.710938 L 12.019531 18.796875 L 11.804688 18.929688 L 11.492188 19.101562 L 11.148438 19.273438 L 10.859375 19.398438 L 10.507812 19.539062 L 10.097656 19.679688 L 9.722656 19.789062 L 9.269531 19.894531 L 9.21875 19.90625 L 9.109375 19.90625 L 8.691406 19.808594 L 8.3125 19.703125 L 7.875 19.550781 L 7.550781 19.421875 L 7.261719 19.292969 L 6.90625 19.121094 L 6.691406 19.003906 L 6.433594 18.851562 L 6.242188 18.734375 L 6.046875 18.605469 L 5.800781 18.433594 L 5.574219 18.261719 L 5.425781 18.144531 L 5.285156 18.023438 L 5.132812 17.898438 L 5.007812 17.777344 L 4.929688 17.703125 L 4.84375 17.628906 L 4.652344 17.433594 L 4.578125 17.347656 L 4.492188 17.261719 L 4.394531 17.144531 L 4.285156 17.027344 L 4.167969 16.875 L 4.082031 16.769531 L 3.953125 16.597656 L 3.757812 16.304688 L 3.632812 16.101562 L 3.460938 15.800781 L 3.289062 15.457031 L 3.15625 15.15625 L 3.019531 14.769531 L 2.933594 14.492188 L 2.847656 14.136719 L 2.792969 13.847656 L 2.75 13.523438 L 2.726562 13.246094 L 2.726562 5.144531 L 2.78125 5.058594 L 2.847656 5.007812 L 2.898438 4.984375 L 3.492188 4.953125 L 3.941406 4.910156 L 4.394531 4.84375 L 4.789062 4.769531 L 5.15625 4.683594 L 5.597656 4.554688 L 5.941406 4.4375 L 6.242188 4.320312 L 6.519531 4.199219 L 6.691406 4.113281 L 6.898438 4.015625 L 7.132812 3.890625 L 7.359375 3.757812 L 7.550781 3.640625 L 7.703125 3.546875 L 7.832031 3.460938 L 8.035156 3.320312 L 8.292969 3.125 L 8.445312 3.007812 L 8.5625 2.910156 L 8.710938 2.78125 L 8.828125 2.6875 L 8.980469 2.546875 L 9.078125 2.480469 Z M 9.109375 2.46875 "/>
<path style=" stroke:none;fill-rule:nonzero;fill:rgb(14.509804%,20.784314%,16.862745%);fill-opacity:1;" d="M 8.273438 8.101562 L 18.746094 8.101562 L 18.960938 8.132812 L 19.121094 8.175781 L 19.324219 8.261719 L 19.496094 8.359375 L 19.625 8.453125 L 19.734375 8.550781 L 19.863281 8.679688 L 19.980469 8.839844 L 20.054688 8.96875 L 20.152344 9.195312 L 20.207031 9.378906 L 20.238281 9.59375 L 20.238281 13.761719 L 20.207031 13.976562 L 20.140625 14.191406 L 20.054688 14.382812 L 19.949219 14.554688 L 19.863281 14.664062 L 19.765625 14.769531 L 19.667969 14.867188 L 19.507812 14.984375 L 19.324219 15.09375 L 19.109375 15.179688 L 18.90625 15.234375 L 18.746094 15.253906 L 18.367188 15.265625 L 8.820312 15.265625 L 8.28125 15.253906 L 8.066406 15.222656 L 7.90625 15.179688 L 7.746094 15.113281 L 7.539062 15.007812 L 7.390625 14.898438 L 7.25 14.769531 L 7.175781 14.695312 L 7.035156 14.511719 L 6.929688 14.320312 L 6.851562 14.136719 L 6.800781 13.933594 L 6.777344 13.804688 L 6.765625 13.609375 L 6.765625 9.765625 L 6.777344 9.550781 L 6.820312 9.335938 L 6.898438 9.109375 L 6.984375 8.9375 L 7.089844 8.765625 L 7.230469 8.605469 L 7.335938 8.496094 L 7.476562 8.390625 L 7.648438 8.28125 L 7.808594 8.207031 L 7.96875 8.152344 L 8.175781 8.109375 Z M 8.324219 8.582031 L 8.164062 8.605469 L 7.980469 8.65625 L 7.777344 8.765625 L 7.660156 8.863281 L 7.59375 8.914062 L 7.59375 8.9375 L 7.5625 8.949219 L 7.433594 9.121094 L 7.347656 9.28125 L 7.28125 9.476562 L 7.25 9.679688 L 7.25 13.695312 L 7.292969 13.921875 L 7.359375 14.09375 L 7.453125 14.265625 L 7.550781 14.382812 L 7.691406 14.523438 L 7.796875 14.597656 L 7.960938 14.683594 L 8.152344 14.75 L 8.292969 14.769531 L 18.722656 14.769531 L 18.90625 14.738281 L 19.078125 14.671875 L 19.238281 14.585938 L 19.347656 14.5 L 19.453125 14.40625 L 19.5625 14.265625 L 19.65625 14.09375 L 19.722656 13.910156 L 19.753906 13.75 L 19.765625 13.632812 L 19.765625 9.742188 L 19.742188 9.527344 L 19.703125 9.367188 L 19.617188 9.171875 L 19.53125 9.046875 L 19.433594 8.925781 L 19.3125 8.820312 L 19.164062 8.722656 L 19.035156 8.65625 L 18.875 8.605469 L 18.722656 8.582031 Z M 8.324219 8.582031 "/>
<path style=" stroke:none;fill-rule:nonzero;fill:rgb(14.509804%,20.784314%,16.862745%);fill-opacity:1;" d="M 9.765625 9.527344 L 10.214844 9.527344 L 10.453125 9.5625 L 10.6875 9.625 L 10.945312 9.734375 L 11.140625 9.851562 L 11.289062 9.96875 L 11.367188 10.042969 L 11.484375 10.195312 L 11.589844 10.375 L 11.65625 10.546875 L 11.699219 10.71875 L 11.71875 10.9375 L 11.699219 11.042969 L 11.65625 11.109375 L 11.589844 11.160156 L 11.539062 11.183594 L 10.988281 11.195312 L 10.871094 11.183594 L 10.871094 11.203125 L 10.945312 11.214844 L 11.183594 11.3125 L 11.367188 11.417969 L 11.503906 11.539062 L 11.589844 11.632812 L 11.675781 11.773438 L 11.742188 11.914062 L 11.785156 12.0625 L 11.816406 12.289062 L 11.816406 12.40625 L 11.804688 12.589844 L 11.761719 12.828125 L 11.699219 13 L 11.613281 13.160156 L 11.503906 13.296875 L 11.40625 13.40625 L 11.246094 13.523438 L 11.054688 13.632812 L 10.839844 13.71875 L 10.65625 13.773438 L 10.386719 13.8125 L 10.300781 13.824219 L 9.808594 13.824219 L 9.570312 13.792969 L 9.34375 13.738281 L 9.132812 13.664062 L 8.925781 13.566406 L 8.753906 13.460938 L 8.605469 13.332031 L 8.476562 13.203125 L 8.359375 13.050781 L 8.261719 12.890625 L 8.1875 12.707031 L 8.121094 12.484375 L 8.101562 12.363281 L 8.101562 12.246094 L 8.152344 12.140625 L 8.25 12.074219 L 8.28125 12.0625 L 9.046875 12.054688 L 8.875 11.96875 L 8.710938 11.859375 L 8.582031 11.742188 L 8.507812 11.65625 L 8.410156 11.503906 L 8.347656 11.355469 L 8.304688 11.203125 L 8.273438 11 L 8.273438 10.839844 L 8.304688 10.601562 L 8.347656 10.441406 L 8.445312 10.238281 L 8.53125 10.109375 L 8.625 9.992188 L 8.765625 9.859375 L 8.9375 9.753906 L 9.085938 9.679688 L 9.34375 9.59375 L 9.570312 9.550781 Z M 9.765625 9.527344 "/>
<path style=" stroke:none;fill-rule:nonzero;fill:rgb(14.509804%,20.784314%,16.862745%);fill-opacity:1;" d="M 13.640625 9.527344 L 14.105469 9.527344 L 14.328125 9.5625 L 14.546875 9.613281 L 14.71875 9.679688 L 14.890625 9.765625 L 15.039062 9.859375 L 15.148438 9.945312 L 15.253906 10.042969 L 15.371094 10.195312 L 15.46875 10.367188 L 15.53125 10.515625 L 15.585938 10.730469 L 15.597656 10.804688 L 15.597656 11.011719 L 15.554688 11.097656 L 15.480469 11.160156 L 15.425781 11.183594 L 14.757812 11.195312 L 14.976562 11.269531 L 15.148438 11.355469 L 15.273438 11.441406 L 15.394531 11.539062 L 15.5 11.664062 L 15.609375 11.859375 L 15.664062 12.019531 L 15.695312 12.214844 L 15.695312 12.570312 L 15.664062 12.773438 L 15.585938 13 L 15.480469 13.191406 L 15.382812 13.308594 L 15.265625 13.429688 L 15.070312 13.554688 L 14.867188 13.664062 L 14.664062 13.738281 L 14.492188 13.78125 L 14.277344 13.8125 L 14.167969 13.824219 L 13.695312 13.824219 L 13.460938 13.792969 L 13.234375 13.738281 L 13.039062 13.675781 L 12.773438 13.546875 L 12.601562 13.429688 L 12.484375 13.320312 L 12.429688 13.277344 L 12.332031 13.160156 L 12.226562 13.019531 L 12.140625 12.867188 L 12.074219 12.707031 L 12.007812 12.484375 L 11.988281 12.375 L 11.988281 12.234375 L 12.054688 12.128906 L 12.140625 12.074219 L 12.171875 12.0625 L 12.933594 12.054688 L 12.761719 11.96875 L 12.609375 11.871094 L 12.472656 11.75 L 12.351562 11.601562 L 12.265625 11.453125 L 12.203125 11.28125 L 12.171875 11.117188 L 12.160156 11.011719 L 12.160156 10.804688 L 12.203125 10.546875 L 12.257812 10.386719 L 12.34375 10.214844 L 12.417969 10.097656 L 12.535156 9.96875 L 12.609375 9.894531 L 12.78125 9.773438 L 12.945312 9.6875 L 13.125 9.625 L 13.332031 9.570312 L 13.535156 9.539062 Z M 13.640625 9.527344 "/>
<path style=" stroke:none;fill-rule:nonzero;fill:rgb(14.509804%,20.784314%,16.862745%);fill-opacity:1;" d="M 16.101562 9.613281 L 16.886719 9.613281 L 17.039062 9.625 L 17.125 9.679688 L 17.175781 9.742188 L 17.199219 9.796875 L 17.210938 12.449219 L 18.488281 12.460938 L 18.5625 12.492188 L 18.636719 12.558594 L 18.679688 12.65625 L 18.679688 13.535156 L 18.648438 13.621094 L 18.59375 13.6875 L 18.507812 13.726562 L 18.402344 13.738281 L 16.113281 13.738281 L 15.984375 13.71875 L 15.898438 13.652344 L 15.855469 13.578125 L 15.84375 13.523438 L 15.84375 9.820312 L 15.886719 9.710938 L 15.960938 9.648438 L 16.015625 9.625 Z M 16.101562 9.613281 "/>
<path style=" stroke:none;fill-rule:nonzero;fill:rgb(14.509804%,20.784314%,16.862745%);fill-opacity:1;" d="M 9.097656 3.75 L 9.226562 3.75 L 9.335938 3.804688 L 9.507812 3.941406 L 9.710938 4.09375 L 9.925781 4.242188 L 10.152344 4.394531 L 10.355469 4.523438 L 10.570312 4.652344 L 10.796875 4.78125 L 11.085938 4.929688 L 11.257812 5.015625 L 11.558594 5.15625 L 11.871094 5.285156 L 12.179688 5.402344 L 12.6875 5.5625 L 13.136719 5.683594 L 13.664062 5.789062 L 14.070312 5.855469 L 14.425781 5.898438 L 14.546875 5.941406 L 14.621094 6.027344 L 14.640625 6.089844 L 14.640625 7.671875 L 14.609375 7.757812 L 14.566406 7.808594 L 14.5 7.851562 L 14.46875 7.863281 L 14.339844 7.863281 L 14.253906 7.820312 L 14.179688 7.734375 L 14.15625 7.648438 L 14.15625 6.359375 L 14.03125 6.347656 L 13.554688 6.273438 L 13.179688 6.199219 L 12.828125 6.113281 L 12.4375 6.003906 L 12.042969 5.875 L 11.664062 5.734375 L 11.289062 5.574219 L 10.96875 5.425781 L 10.6875 5.285156 L 10.441406 5.144531 L 10.164062 4.984375 L 9.980469 4.867188 L 9.699219 4.683594 L 9.527344 4.566406 L 9.421875 4.492188 L 9.410156 5.574219 L 9.410156 7.648438 L 9.378906 7.746094 L 9.304688 7.832031 L 9.238281 7.863281 L 9.097656 7.863281 L 9.011719 7.820312 L 8.949219 7.746094 L 8.925781 7.671875 L 8.925781 3.941406 L 8.960938 3.855469 L 9 3.804688 Z M 9.097656 3.75 "/>
<path style=" stroke:none;fill-rule:nonzero;fill:rgb(14.509804%,20.784314%,16.862745%);fill-opacity:1;" d="M 9.085938 15.492188 L 9.238281 15.492188 L 9.335938 15.542969 L 9.390625 15.617188 L 9.410156 15.695312 L 9.410156 18.347656 L 9.765625 18.242188 L 10.117188 18.109375 L 10.421875 17.984375 L 10.730469 17.832031 L 11.023438 17.679688 L 11.320312 17.5 L 11.613281 17.304688 L 11.804688 17.164062 L 11.914062 17.078125 L 12.0625 16.960938 L 12.203125 16.84375 L 12.363281 16.695312 L 12.472656 16.597656 L 12.6875 16.382812 L 12.761719 16.296875 L 12.867188 16.179688 L 13.085938 15.910156 L 13.203125 15.75 L 13.289062 15.628906 L 13.363281 15.578125 L 13.394531 15.566406 L 13.523438 15.566406 L 13.609375 15.609375 L 13.675781 15.683594 L 13.695312 15.738281 L 13.695312 15.875 L 13.652344 15.960938 L 13.523438 16.132812 L 13.382812 16.316406 L 13.265625 16.457031 L 13.171875 16.574219 L 13 16.757812 L 12.945312 16.820312 L 12.890625 16.875 L 12.546875 17.199219 L 12.429688 17.296875 L 12.277344 17.421875 L 12.0625 17.585938 L 11.902344 17.703125 L 11.578125 17.917969 L 11.367188 18.046875 L 11.117188 18.1875 L 10.828125 18.335938 L 10.472656 18.5 L 10.085938 18.648438 L 9.699219 18.777344 L 9.355469 18.875 L 9.207031 18.90625 L 9.121094 18.90625 L 9.023438 18.863281 L 8.949219 18.777344 L 8.925781 18.710938 L 8.925781 15.683594 L 8.960938 15.597656 L 9.011719 15.53125 Z M 9.085938 15.492188 "/>
<path style=" stroke:none;fill-rule:nonzero;fill:rgb(100%,100%,100%);fill-opacity:1;" d="M 13.664062 10.011719 L 14.070312 10.011719 L 14.277344 10.042969 L 14.4375 10.085938 L 14.652344 10.183594 L 14.824219 10.300781 L 14.910156 10.386719 L 15.007812 10.527344 L 15.082031 10.679688 L 15.082031 10.699219 L 14.769531 10.699219 L 14.640625 10.527344 L 14.566406 10.453125 L 14.449219 10.375 L 14.277344 10.300781 L 14.082031 10.257812 L 13.984375 10.25 L 13.664062 10.25 L 13.429688 10.289062 L 13.277344 10.34375 L 13.148438 10.421875 L 13.039062 10.515625 L 12.964844 10.644531 L 12.933594 10.753906 L 12.933594 10.96875 L 12.976562 11.085938 L 13.050781 11.203125 L 13.148438 11.289062 L 13.296875 11.375 L 13.460938 11.429688 L 13.71875 11.484375 L 14.449219 11.613281 L 14.664062 11.664062 L 14.867188 11.75 L 14.984375 11.828125 L 15.082031 11.914062 L 15.167969 12.0625 L 15.210938 12.234375 L 15.210938 12.535156 L 15.1875 12.664062 L 15.148438 12.792969 L 15.082031 12.914062 L 14.996094 13.019531 L 14.898438 13.09375 L 14.757812 13.179688 L 14.585938 13.257812 L 14.394531 13.308594 L 14.15625 13.34375 L 13.726562 13.34375 L 13.515625 13.308594 L 13.308594 13.257812 L 13.136719 13.191406 L 12.976562 13.105469 L 12.828125 12.988281 L 12.75 12.914062 L 12.632812 12.761719 L 12.535156 12.578125 L 12.535156 12.546875 L 12.847656 12.546875 L 12.914062 12.644531 L 12.988281 12.742188 L 13.09375 12.847656 L 13.265625 12.953125 L 13.449219 13.03125 L 13.578125 13.0625 L 13.835938 13.09375 L 14.15625 13.09375 L 14.363281 13.0625 L 14.535156 13.007812 L 14.695312 12.921875 L 14.792969 12.847656 L 14.855469 12.761719 L 14.910156 12.65625 L 14.929688 12.558594 L 14.929688 12.363281 L 14.890625 12.226562 L 14.835938 12.128906 L 14.792969 12.074219 L 14.640625 11.976562 L 14.511719 11.921875 L 14.222656 11.859375 L 13.738281 11.773438 L 13.394531 11.699219 L 13.105469 11.601562 L 12.964844 11.527344 L 12.847656 11.441406 L 12.773438 11.355469 L 12.6875 11.203125 L 12.65625 11.074219 L 12.65625 10.765625 L 12.695312 10.59375 L 12.78125 10.421875 L 12.878906 10.300781 L 13.019531 10.195312 L 13.222656 10.097656 L 13.382812 10.054688 Z M 13.664062 10.011719 "/>
<path style=" stroke:none;fill-rule:nonzero;fill:rgb(100%,100%,100%);fill-opacity:1;" d="M 9.796875 10.011719 L 10.171875 10.011719 L 10.386719 10.042969 L 10.546875 10.085938 L 10.71875 10.164062 L 10.859375 10.25 L 10.96875 10.335938 L 11.074219 10.453125 L 11.171875 10.625 L 11.195312 10.699219 L 10.902344 10.710938 L 10.851562 10.65625 L 10.785156 10.558594 L 10.710938 10.472656 L 10.601562 10.398438 L 10.453125 10.324219 L 10.3125 10.28125 L 10.097656 10.25 L 9.773438 10.25 L 9.527344 10.289062 L 9.367188 10.355469 L 9.257812 10.421875 L 9.164062 10.507812 L 9.097656 10.613281 L 9.066406 10.6875 L 9.054688 10.742188 L 9.054688 10.988281 L 9.109375 11.128906 L 9.164062 11.195312 L 9.164062 11.214844 L 9.207031 11.234375 L 9.28125 11.300781 L 9.390625 11.367188 L 9.570312 11.429688 L 9.828125 11.484375 L 10.558594 11.613281 L 10.773438 11.664062 L 10.914062 11.71875 L 11.054688 11.796875 L 11.148438 11.871094 L 11.226562 11.957031 L 11.28125 12.0625 L 11.320312 12.226562 L 11.320312 12.546875 L 11.289062 12.707031 L 11.234375 12.835938 L 11.140625 12.988281 L 11.054688 13.074219 L 10.914062 13.160156 L 10.785156 13.222656 L 10.558594 13.296875 L 10.269531 13.34375 L 9.839844 13.34375 L 9.625 13.308594 L 9.421875 13.257812 L 9.257812 13.191406 L 9.109375 13.117188 L 8.992188 13.03125 L 8.882812 12.933594 L 8.777344 12.804688 L 8.679688 12.644531 L 8.648438 12.546875 L 8.960938 12.546875 L 9.023438 12.644531 L 9.097656 12.742188 L 9.183594 12.828125 L 9.324219 12.921875 L 9.507812 13.007812 L 9.6875 13.0625 L 9.925781 13.09375 L 10.269531 13.09375 L 10.527344 13.050781 L 10.699219 12.988281 L 10.859375 12.890625 L 10.945312 12.804688 L 11.011719 12.695312 L 11.042969 12.578125 L 11.042969 12.363281 L 11.011719 12.246094 L 10.957031 12.140625 L 10.902344 12.074219 L 10.753906 11.976562 L 10.625 11.921875 L 10.28125 11.847656 L 9.796875 11.761719 L 9.476562 11.6875 L 9.304688 11.632812 L 9.132812 11.558594 L 8.992188 11.460938 L 8.882812 11.355469 L 8.820312 11.246094 L 8.765625 11.042969 L 8.753906 10.890625 L 8.777344 10.699219 L 8.820312 10.570312 L 8.875 10.460938 L 8.960938 10.34375 L 9.054688 10.25 L 9.195312 10.164062 L 9.34375 10.097656 L 9.550781 10.042969 L 9.679688 10.023438 Z M 9.796875 10.011719 "/>
<path style=" stroke:none;fill-rule:nonzero;fill:rgb(100%,100%,100%);fill-opacity:1;" d="M 16.339844 10.097656 L 16.714844 10.097656 L 16.726562 10.109375 L 16.734375 12.773438 L 16.769531 12.835938 L 16.8125 12.890625 L 16.898438 12.933594 L 18.1875 12.945312 L 18.195312 12.953125 L 18.195312 13.246094 L 18.1875 13.257812 L 16.328125 13.257812 L 16.316406 13.222656 L 16.316406 11.042969 L 16.328125 10.109375 Z M 16.339844 10.097656 "/>
<path style=" stroke:none;fill-rule:nonzero;fill:rgb(100%,100%,100%);fill-opacity:1;" d="M 13.203125 12.148438 L 13.289062 12.160156 L 13.792969 12.265625 L 14.234375 12.34375 L 14.414062 12.398438 L 14.460938 12.429688 L 14.460938 12.503906 L 14.40625 12.546875 L 14.265625 12.601562 L 14.117188 12.621094 L 13.867188 12.621094 L 13.640625 12.589844 L 13.492188 12.535156 L 13.40625 12.484375 L 13.332031 12.417969 L 13.277344 12.332031 L 13.222656 12.179688 Z M 13.203125 12.148438 "/>
<path style=" stroke:none;fill-rule:nonzero;fill:rgb(100%,100%,100%);fill-opacity:1;" d="M 9.324219 12.148438 L 9.398438 12.160156 L 9.796875 12.246094 L 10.34375 12.34375 L 10.507812 12.386719 L 10.570312 12.429688 L 10.582031 12.472656 L 10.546875 12.523438 L 10.441406 12.578125 L 10.3125 12.609375 L 10.238281 12.621094 L 9.980469 12.621094 L 9.742188 12.589844 L 9.582031 12.523438 L 9.496094 12.460938 L 9.441406 12.417969 L 9.367188 12.265625 L 9.324219 12.171875 Z M 9.324219 12.148438 "/>
<path style=" stroke:none;fill-rule:nonzero;fill:rgb(100%,100%,100%);fill-opacity:1;" d="M 13.707031 10.71875 L 13.953125 10.71875 L 14.09375 10.742188 L 14.222656 10.796875 L 14.308594 10.871094 L 14.339844 10.9375 L 14.375 11.0625 L 14.40625 11.117188 L 14.308594 11.109375 L 13.707031 11 L 13.535156 10.957031 L 13.429688 10.902344 L 13.40625 10.882812 L 13.40625 10.828125 L 13.503906 10.765625 L 13.621094 10.730469 Z M 13.707031 10.71875 "/>
<path style=" stroke:none;fill-rule:nonzero;fill:rgb(100%,100%,100%);fill-opacity:1;" d="M 9.808594 10.71875 L 10.054688 10.71875 L 10.203125 10.742188 L 10.34375 10.796875 L 10.421875 10.859375 L 10.453125 10.9375 L 10.484375 11.054688 L 10.515625 11.117188 L 10.421875 11.109375 L 10 11.03125 L 9.6875 10.96875 L 9.570312 10.925781 L 9.515625 10.859375 L 9.539062 10.804688 L 9.613281 10.765625 L 9.734375 10.730469 Z M 9.808594 10.71875 "/>
</g>
</svg>
