<svg width="17" height="17" viewBox="0 0 17 17" fill="none" xmlns="http://www.w3.org/2000/svg">
<path d="M9.72596 2.48539L10.9726 4.97872C11.1426 5.32581 11.596 5.65872 11.9785 5.72247L14.238 6.09789C15.683 6.33872 16.023 7.38706 14.9818 8.42122L13.2251 10.1779C12.9276 10.4754 12.7647 11.0491 12.8568 11.46L13.3597 13.6346C13.7564 15.3558 12.8426 16.0216 11.3197 15.1221L9.2018 13.8683C8.8193 13.6416 8.18888 13.6416 7.7993 13.8683L5.68138 15.1221C4.16555 16.0216 3.24471 15.3487 3.64138 13.6346L4.1443 11.46C4.23638 11.0491 4.07346 10.4754 3.77596 10.1779L2.0193 8.42122C0.985129 7.38706 1.31805 6.33872 2.76305 6.09789L5.02263 5.72247C5.39805 5.65872 5.85138 5.32581 6.02138 4.97872L7.26805 2.48539C7.94805 1.13247 9.05305 1.13247 9.72596 2.48539Z" stroke="#08295B" stroke-width="1.2" stroke-linecap="round" stroke-linejoin="round"/>
</svg>
