<svg width="20" height="20" viewBox="0 0 20 20" fill="none" xmlns="http://www.w3.org/2000/svg">
<path d="M5.0013 3.33268C6.39297 2.29102 8.1263 1.66602 10.0013 1.66602C14.6013 1.66602 18.3346 5.39935 18.3346 9.99935C18.3346 14.5993 14.6013 18.3327 10.0013 18.3327C5.4013 18.3327 1.66797 14.5993 1.66797 9.99935C1.66797 8.49102 2.06796 7.07434 2.77629 5.84934L10.0013 9.99935" stroke="#10213A" stroke-width="1.5" stroke-miterlimit="10" stroke-linecap="round" stroke-linejoin="round"/>
<path d="M5.69166 7.46666C5.24999 8.20833 5 9.075 5 10C5 12.7583 7.24167 15 10 15C12.7583 15 15 12.7583 15 10C15 7.24167 12.7583 5 10 5C9.24167 5 8.51668 5.16667 7.87501 5.47501" stroke="#10213A" stroke-width="1.5" stroke-miterlimit="10" stroke-linecap="round" stroke-linejoin="round"/>
</svg>
