<svg xmlns="http://www.w3.org/2000/svg" width="18" height="18" viewBox="0 0 18 18">
    <path fill="#686F76" fill-rule="evenodd" d="M17.999 8.68L8.96 17.71a.99.99 0 0 1-1.398 0l-7.29-7.284a.987.987 0 0 1 0-1.396L9.31 0 18-.001l-.001 8.681zm-8.34-7.633L1.322 9.379a.493.493 0 0 0 0 .698l6.592 6.586a.495.495 0 0 0 .699 0L16.95 8.33 17 .999l-7.34.048zm1.913 5.373a2.005 2.005 0 0 1 0-2.837 2.01 2.01 0 0 1 2.84 0 2.004 2.004 0 0 1 0 2.837 2.01 2.01 0 0 1-2.84 0zm2.147-2.144a1.004 1.004 0 1 0-1.42 1.421 1.004 1.004 0 0 0 1.42-1.42zm-9.65 6.15l.699-.698 3.494 3.49-.699.699-3.494-3.49z"/>
</svg>
