<svg xmlns="http://www.w3.org/2000/svg" width="25" height="24" viewBox="0 0 25 24">
    <g fill="none" fill-rule="nonzero">
        <path fill="#B1E7FB" fill-opacity=".531" d="M22.456 4c0 .123-.04.264-.073.412a5.671 5.671 0 0 1-1.69 3.03l-.114.117a6.465 6.465 0 0 1-3.318 1.66c-.39.082-.785.133-1.182.154H16c1.015 1.41 2.589 2.207 4.234 2.145.38.001.758-.036 1.13-.11h.08c.113 0 .222.046.305.129L23.22 13v-2.084c0-.163.075-.314.198-.406.95-.65 1.542-1.768 1.583-2.987C25 6.047 24 4.689 22.456 4z"/>
        <path fill="#00AEEF" d="M18.538 15.931l-.08-.044a26.199 26.199 0 0 1-1.146-.634l-.068-.033a2.58 2.58 0 0 0-1.21-.32c-.807.023-1.545.485-1.946 1.219l-.526.81A27.514 27.514 0 0 1 6.724 9.76l.778-.551c.674-.48 1.668-1.567.763-3.436l-.042-.083a44.049 44.049 0 0 1-.526-1.075l-.042-.083C6.95 3.159 5.85 2.679 4.499 3.214L1.51 4.422A2.308 2.308 0 0 0 .101 5.9a4.026 4.026 0 0 0 .353 2.757c3.081 6.407 8.035 11.613 14.139 14.858A3.97 3.97 0 0 0 16.36 24c.98.008 1.868-.607 2.246-1.555V22.4l1.194-3.16c.29-.795.526-2.284-1.262-3.31z"/>
        <path fill="#00AEEF" d="M15 0c-2.748 0-5 1.688-5 3.768a3.463 3.463 0 0 0 1.71 2.826c.104.07.166.184.166.308V9l1.648-1.474a.377.377 0 0 1 .324-.093c.38.068.766.103 1.152.103 2.748 0 5-1.707 5-3.768S17.748 0 15 0z"/>
    </g>
</svg>
