<svg width="48" height="48" viewBox="0 0 48 48" fill="none" xmlns="http://www.w3.org/2000/svg">
<g clip-path="url(#clip0_57_375)">
<path d="M41.1431 22.0954C42.8262 22.0954 44.1907 20.9015 44.1907 19.4288C44.1907 17.956 42.8262 16.7621 41.1431 16.7621C39.4599 16.7621 38.0955 17.956 38.0955 19.4288C38.0955 20.9015 39.4599 22.0954 41.1431 22.0954Z" fill="#785550"/>
<path d="M40.3814 19.4286C40.3814 18.3101 41.1702 17.3556 42.2861 16.9597C41.9327 16.8342 41.5481 16.762 41.1433 16.762C39.4601 16.762 38.0957 17.9559 38.0957 19.4286C38.0957 20.9013 39.4601 22.0952 41.1433 22.0952C41.5481 22.0952 41.9328 22.0229 42.2861 21.8975C41.1702 21.5016 40.3814 20.5471 40.3814 19.4286Z" fill="#694B4B"/>
<path d="M46.7359 34.5959L44.2703 33.3632C43.754 33.1051 43.4278 32.5774 43.4279 32.0001L43.428 29.7144H38.8566V32.0002C38.8566 32.5773 38.5305 33.1049 38.0143 33.3631L35.5486 34.5959C34.7743 34.9831 34.2852 35.7745 34.2852 36.6403V41.143C34.2852 41.5637 34.6262 41.9049 35.0471 41.9049H47.2376C47.6584 41.9049 47.9995 41.5637 47.9995 41.143V36.6403C47.9995 35.7745 47.5103 34.9831 46.7359 34.5959Z" fill="#E6AF78"/>
<path d="M41.1434 32.7619C41.9638 32.7619 42.7495 32.5928 43.4699 32.2917C43.4509 32.1957 43.4289 32.1002 43.4289 32.0001L43.429 29.7144H38.8576V32.0002C38.8576 32.1008 38.8355 32.1968 38.8164 32.2932C39.5373 32.5927 40.3228 32.7619 41.1434 32.7619Z" fill="#D29B6E"/>
<path d="M46.7359 34.5959L44.9794 33.7176C44.1649 34.9754 42.7523 35.8095 41.1423 35.8095C39.5323 35.8095 38.1196 34.9753 37.3051 33.7175L35.5486 34.5959C34.7743 34.9831 34.2852 35.7745 34.2852 36.6403V41.1428C34.2852 41.5636 34.6263 41.9047 35.0471 41.9047H47.2376C47.6583 41.9047 47.9995 41.5636 47.9995 41.1428V36.6403C47.9995 35.7745 47.5103 34.9831 46.7359 34.5959Z" fill="#D5DCED"/>
<path d="M41.1439 29.7139C44.0894 29.7139 46.4772 27.3261 46.4772 24.3806C46.4772 21.4351 44.0894 19.0472 41.1439 19.0472C38.1984 19.0472 35.8105 21.4351 35.8105 24.3806C35.8105 27.3261 38.1984 29.7139 41.1439 29.7139Z" fill="#5A4146"/>
<path d="M46.427 23.6416C46.1339 21.4682 44.4687 19.6511 42.3272 19.1783C41.9365 19.092 41.552 19.05 41.1769 19.0477C38.6217 19.0317 37.7685 22.5598 40.0656 23.679C40.189 23.7392 40.2674 23.7662 40.2674 23.7662L42.9215 28.5713C42.9215 28.5713 43.6287 28.6196 44.342 28.6417C45.8164 27.5331 46.7023 25.6838 46.427 23.6416Z" fill="#694B4B"/>
<path d="M41.1437 31.238C38.8195 31.238 36.9004 29.5036 36.6103 27.2584C36.5683 26.933 36.7245 26.6141 37.0174 26.4664C37.3682 26.2894 37.878 25.991 38.366 25.5556C38.9095 25.0706 39.2283 24.5592 39.4084 24.1838C39.5635 23.8605 39.92 23.6777 40.2675 23.7664C42.9501 24.4505 44.7765 25.8463 45.439 26.416C45.6169 26.569 45.7194 26.7946 45.7011 27.0286C45.5166 29.384 43.5467 31.238 41.1437 31.238Z" fill="#F0C087"/>
<path d="M45.439 26.416C44.7765 25.8462 42.95 24.4505 40.2675 23.7663C39.92 23.6777 39.5635 23.8605 39.4084 24.1838C39.272 24.4681 39.0466 24.8304 38.7121 25.2001C38.712 25.201 38.7119 25.2018 38.7118 25.2027C38.608 25.3203 38.4975 25.4382 38.366 25.5555C37.878 25.9911 37.3682 26.2893 37.0174 26.4663C36.7245 26.6141 36.5683 26.9331 36.6103 27.2583C36.8709 29.2747 38.4488 30.8677 40.4506 31.1737C39.5384 30.5531 38.858 29.7118 38.858 28.1904V27.1041C39.0311 26.9763 39.2054 26.8489 39.3805 26.6926C39.804 26.3147 40.1736 25.8777 40.4701 25.4071C42.5223 26.0475 43.9137 27.1141 44.4411 27.5677C44.5855 27.6943 44.9438 28.0246 45.363 28.4179C45.5434 27.9838 45.6627 27.5181 45.701 27.0286C45.7194 26.7946 45.6169 26.569 45.439 26.416Z" fill="#E6AF78"/>
<path d="M47.5363 35.2668C47.8298 35.6563 48.0007 36.1342 48.0007 36.6403V41.1428C48.0007 41.5636 47.6596 41.9047 47.2388 41.9047H44.9531V38.0657C44.9531 37.6027 45.1636 37.1649 45.525 36.8758L47.5363 35.2668Z" fill="#C7CFE2"/>
<path d="M2.28516 22.0953V22.6299C2.28516 23.2851 2.39081 23.9359 2.59791 24.5574L3.80897 28.1905H6.09469V19.8096H4.57088C3.30853 19.8096 2.28516 20.8329 2.28516 22.0953Z" fill="#5A4146"/>
<path d="M12.7169 23.6779L11.4277 28.1904L5.33241 22.8571C4.49081 22.8571 3.80859 22.1749 3.80859 21.3333C3.80859 20.071 4.83197 19.0476 6.09431 19.0476H11.4277C12.2692 19.0476 12.9515 19.7298 12.9515 20.5714V22.0035C12.9515 22.5698 12.8725 23.1333 12.7169 23.6779Z" fill="#694B4B"/>
<path d="M9.90542 30.4762H5.33398V33.8483H9.90542V30.4762Z" fill="#E6AF78"/>
<path d="M5.33398 31.8758C6.04067 32.1629 6.8112 32.3246 7.6197 32.3246C8.4282 32.3246 9.19873 32.1629 9.90542 31.8758V30.4762H5.33398V31.8758Z" fill="#D29B6E"/>
<path d="M13.5802 33.3747L9.9045 32.3246L7.61906 33.8413L5.33334 32.3245L1.65778 33.3747C0.6765 33.655 0 34.5519 0 35.5725V41.1429C0 41.5637 0.341156 41.9048 0.761906 41.9048H14.4762C14.897 41.9048 15.2381 41.5637 15.2381 41.1429V35.5725C15.2381 34.5519 14.5615 33.655 13.5802 33.3747Z" fill="#D5DCED"/>
<path d="M8.38123 41.9048H6.85742L7.23833 33.8484H8.00023L8.38123 41.9048Z" fill="#AFB9D2"/>
<path d="M7.61831 31.238C5.09353 31.238 3.04688 29.1913 3.04688 26.6666V25.774C3.04688 25.3698 3.20738 24.9823 3.49322 24.6965L4.87481 23.3149C5.16741 23.0223 5.56744 22.8541 5.98097 22.8672C8.4165 22.9439 10.5723 23.4658 11.7507 24.6167C12.0392 24.8984 12.1897 25.2926 12.1897 25.6958V26.6666C12.1897 29.1913 10.143 31.238 7.61831 31.238Z" fill="#F0C087"/>
<path d="M5.33259 25.9631C5.33259 25.0842 6.07069 24.3855 6.94781 24.4415C8.48597 24.5397 10.7682 24.7967 12.1686 25.4702C12.1228 25.1488 11.9847 24.8454 11.7507 24.6167C10.5723 23.4658 8.4165 22.944 5.98097 22.8672C5.56753 22.8541 5.16731 23.0224 4.87481 23.3149L3.49322 24.6966C3.20738 24.9823 3.04688 25.37 3.04688 25.7742V26.6668C3.04688 28.7516 4.44375 30.5068 6.35166 31.0565C5.71659 30.2729 5.33259 29.2784 5.33259 28.1906V25.9631Z" fill="#E6AF78"/>
<path d="M3.04763 37.8428C3.04763 37.2366 2.80678 36.6551 2.37816 36.2265L0.416906 34.2653C0.154781 34.6399 0 35.091 0 35.5725V41.1429C0 41.5637 0.341156 41.9049 0.761906 41.9049H3.04763V37.8428Z" fill="#C7CFE2"/>
<path d="M8.00023 35.3722H7.23833C7.02795 35.3722 6.85742 35.2017 6.85742 34.9912V33.8484H8.38123V34.9912C8.38123 35.2016 8.2107 35.3722 8.00023 35.3722Z" fill="#959CB5"/>
<path d="M7.61858 33.8413L6.32717 34.8277C6.1047 34.9977 5.78314 34.9295 5.6487 34.684L4.49023 32.5685L4.95655 31.8572C5.05995 31.6994 5.28036 31.6726 5.41864 31.8008L7.61858 33.8413Z" fill="#C7CFE2"/>
<path d="M7.61914 33.8413L8.91055 34.8277C9.13302 34.9977 9.45458 34.9295 9.58902 34.684L10.7475 32.5685L10.2812 31.8572C10.1778 31.6994 9.95736 31.6726 9.81908 31.8008L7.61914 33.8413Z" fill="#C7CFE2"/>
<path d="M24.3815 32.7619C29.3662 32.7619 33.8414 30.7237 35.3066 29.9809C35.6054 29.8295 35.7704 29.5057 35.7151 29.1753C35.4787 27.7625 34.8422 23.5308 34.2862 16C33.8339 9.874 29.8517 6.09521 24.3814 6.09521C18.9111 6.09521 14.9289 9.874 14.4766 16C13.9207 23.5309 13.2842 27.7625 13.0477 29.1753C12.9924 29.5057 13.1575 29.8294 13.4563 29.9809C14.9217 30.7237 19.3968 32.7619 24.3815 32.7619Z" fill="#5A4146"/>
<path d="M35.3052 29.9809C35.604 29.8294 35.7691 29.5057 35.7138 29.1753C35.4774 27.7625 34.8409 23.5308 34.2849 16C33.8326 9.874 29.8503 6.09521 24.3801 6.09521C23.9967 6.09521 23.6207 6.11378 23.2527 6.15043C18.9944 6.57456 18.3551 12.5879 22.4479 13.8374C22.5131 13.8572 22.5492 13.8666 22.5492 13.8666L24.0723 32.7542C24.0744 32.7562 24.0757 32.7574 24.0778 32.7594C29.183 32.8446 33.8104 30.7386 35.3052 29.9809Z" fill="#694B4B"/>
<path d="M11.4277 41.1428V37.0332C11.4277 35.8263 12.14 34.7331 13.244 34.2454L19.6624 31.4106C20.2144 31.1667 20.5705 30.6202 20.5705 30.0167V26.6666H28.1896V30.0167C28.1896 30.6202 28.5457 31.1668 29.0977 31.4106L35.516 34.2454C36.6201 34.733 37.3324 35.8263 37.3324 37.0332V41.1428C37.3324 41.5636 36.9912 41.9048 36.5705 41.9048H12.1896C11.7688 41.9048 11.4277 41.5637 11.4277 41.1428Z" fill="#E6AF78"/>
<path d="M35.5162 34.2453L30.7821 32.1544C29.7977 34.7349 27.3065 36.5714 24.3801 36.5714C21.4538 36.5714 18.9626 34.735 17.9781 32.1544L13.244 34.2453C12.14 34.7329 11.4277 35.8262 11.4277 37.0332V41.1428C11.4277 41.5635 11.7688 41.9047 12.1896 41.9047H36.5705C36.9914 41.9047 37.3325 41.5635 37.3325 41.1428V37.0332C37.3325 35.8262 36.6203 34.733 35.5162 34.2453Z" fill="#68ACE9"/>
<path d="M20.5723 28.875C21.7332 29.4085 23.0205 29.7143 24.3818 29.7143C25.7431 29.7143 27.0304 29.4085 28.1913 28.875V26.6666H20.5723V28.875Z" fill="#D29B6E"/>
<path d="M31.2317 17.5244C30.0082 16.4604 27.2616 14.5789 22.55 13.8666C21.8979 13.768 21.2404 14.0889 20.9503 14.6812C20.4669 15.6681 19.4389 17.2484 17.3975 18.6409C16.9923 18.9173 16.7618 19.3876 16.7618 19.878V20.3104C16.7618 24.3685 19.8241 27.9118 23.8737 28.174C28.3112 28.4614 32 24.9471 32 20.5714V19.2348C32 18.5799 31.7257 17.954 31.2317 17.5244Z" fill="#F0C087"/>
<path d="M31.6584 18.0499C31.5413 17.8572 31.4056 17.6756 31.2316 17.5244C30.0081 16.4603 27.2613 14.5789 22.5498 13.8666C21.8978 13.768 21.2403 14.0889 20.9502 14.6811C20.8337 14.9191 20.6777 15.1963 20.4907 15.4924C19.9058 16.4215 18.952 17.5776 17.4095 18.6324C17.0007 18.912 16.7617 19.3826 16.7617 19.8779V20.3104C16.7617 24.2269 19.6172 27.6546 23.4565 28.1254C22.1441 26.7567 21.3332 24.9032 21.3332 22.8572V18.0671C21.3332 17.2832 21.9218 16.6286 22.7017 16.5499C24.5335 16.365 27.9802 16.3491 31.6584 18.0499Z" fill="#E6AF78"/>
<path d="M12.5673 34.6633C11.8597 35.2331 11.4277 36.097 11.4277 37.0332V41.1429C11.4277 41.5636 11.7689 41.9048 12.1896 41.9048H16.7611V39.8039C16.7611 39.1977 16.5202 38.6163 16.0916 38.1877L12.5673 34.6633Z" fill="#61A5E2"/>
<path d="M36.1938 34.6633C36.9013 35.2331 37.3333 36.097 37.3333 37.0332V41.1429C37.3333 41.5636 36.9922 41.9048 36.5714 41.9048H32V39.8039C32 39.1977 32.2408 38.6163 32.6695 38.1877L36.1938 34.6633Z" fill="#61A5E2"/>
</g>
<defs>
<clipPath id="clip0_57_375">
<rect width="48" height="48" fill="white"/>
</clipPath>
</defs>
</svg>
