<svg xmlns="http://www.w3.org/2000/svg" width="23" height="23" viewBox="0 0 23 23">
  <metadata><?xpacket begin="﻿" id="W5M0MpCehiHzreSzNTczkc9d"?>
<x:xmpmeta xmlns:x="adobe:ns:meta/" x:xmptk="Adobe XMP Core 5.6-c138 79.159824, 2016/09/14-01:09:01        ">
   <rdf:RDF xmlns:rdf="http://www.w3.org/1999/02/22-rdf-syntax-ns#">
      <rdf:Description rdf:about=""/>
   </rdf:RDF>
</x:xmpmeta>
                                                                                                    
                                                                                                    
                                                                                                    
                                                                                                    
                                                                                                    
                                                                                                    
                                                                                                    
                                                                                                    
                                                                                                    
                                                                                                    
                                                                                                    
                                                                                                    
                                                                                                    
                                                                                                    
                                                                                                    
                                                                                                    
                                                                                                    
                                                                                                    
                                                                                                    
                                                                                                    
                           
<?xpacket end="w"?></metadata>
<defs>
    <style>
      .cls-1 {
        fill: #00AEEF;
        fill-opacity: 1;
        fill-rule: evenodd;
      }
    </style>
  </defs>
  <path id="_-e-icon" data-name="-e-icon" class="cls-1" d="M566,310H553v-3.5a2.5,2.5,0,0,1,2.5-2.5H568v1a1.939,1.939,0,0,0-2,1.917V310Zm-12-1h11v-2.083a2.871,2.871,0,0,1,.721-1.917H555.5a1.5,1.5,0,0,0-1.5,1.5V309Zm19,1a3,3,0,0,1-3-3,1.936,1.936,0,0,0-2-2v-1a2.939,2.939,0,0,1,3,3,2,2,0,0,0,4,0V288H560v16.5h-1V287h17v20A3,3,0,0,1,573,310Zm-2-16h-7v-1h7v1Zm0,5h-7v-1h7v1Z" transform="translate(-553 -287)"/>
</svg>
