<svg xmlns="http://www.w3.org/2000/svg" width="18" height="16" viewBox="0 0 18 16">
    <path fill="#FFF" fill-rule="evenodd" d="M18 1.817a7.093 7.093 0 0 1-2.118.61A3.866 3.866 0 0 0 17.506.282a7.195 7.195 0 0 1-2.345.942A3.606 3.606 0 0 0 12.461 0a3.652 3.652 0 0 0-2.622 1.146A3.93 3.93 0 0 0 8.767 3.88c0 .298.032.595.095.885-2.979-.16-5.749-1.636-7.61-4.054-.98 1.772-.483 4.027 1.142 5.18a3.538 3.538 0 0 1-1.673-.485v.049C.713 7.291 1.952 8.881 3.686 9.259a3.536 3.536 0 0 1-1.668.067c.474 1.572 1.862 2.655 3.45 2.694A7.19 7.19 0 0 1 .88 13.68c-.29.102-.605.083-.881-.053a10.082 10.082 0 0 0 5.658 1.746c2.81 0 5.504-1.168 7.479-3.243 1.974-2.074 3.065-4.882 3.03-7.796 0-.17 0-.336-.011-.503A7.711 7.711 0 0 0 18 1.817z"/>
</svg>
