<svg width="15" height="15" viewBox="0 0 15 15" fill="none" xmlns="http://www.w3.org/2000/svg">
<path d="M11.9937 10.7506L2.98918 1.74609C2.74291 1.76842 2.49272 1.78696 2.22668 1.78696C1.98378 1.78696 1.78723 1.98351 1.78723 2.22641V3.02978L11.0107 12.2532C11.388 11.7854 11.708 11.2782 11.9937 10.7506Z" fill="#586475" fill-opacity="0.27"/>
<path d="M13.2129 5.99894V2.22673C13.2129 1.98383 13.0164 1.78728 12.7735 1.78728C10.2175 1.78728 8.51162 0.596293 7.86921 0.158985L7.74391 0.0740249C7.59628 -0.024675 7.40401 -0.024675 7.25638 0.0740249L7.1302 0.159424C6.61438 0.510777 5.58537 1.23428 4.06567 1.58001L12.4092 9.9235C12.9269 8.70746 13.2129 7.38021 13.2129 5.99894Z" fill="#586475" fill-opacity="0.27"/>
<path d="M1.78723 5.99849C1.78723 9.80287 3.9008 13.2521 7.30349 14.9532C7.36528 14.9841 7.43266 14.9995 7.50004 14.9995C7.56743 14.9995 7.63481 14.9841 7.69659 14.9532C8.73797 14.4326 9.64068 13.7065 10.4169 12.9022L1.78723 4.27246V5.99849Z" fill="#586475" fill-opacity="0.27"/>
</svg>
