<svg width="22" height="22" viewBox="0 0 22 22" fill="none" xmlns="http://www.w3.org/2000/svg">
<g clip-path="url(#clip0_57_668)">
<path d="M20.166 11.9167C19.9229 11.9167 19.6897 12.0133 19.5178 12.1852C19.3459 12.3571 19.2494 12.5903 19.2494 12.8334V16.6953C19.2486 17.3727 18.9792 18.0221 18.5003 18.501C18.0213 18.98 17.3719 19.2494 16.6946 19.2501H5.3041C4.62676 19.2494 3.97737 18.98 3.49842 18.501C3.01947 18.0221 2.75008 17.3727 2.74935 16.6953V12.8334C2.74935 12.5903 2.65277 12.3571 2.48086 12.1852C2.30896 12.0133 2.0758 11.9167 1.83268 11.9167C1.58957 11.9167 1.35641 12.0133 1.1845 12.1852C1.01259 12.3571 0.916016 12.5903 0.916016 12.8334V16.6953C0.917229 17.8588 1.37993 18.9742 2.2026 19.7968C3.02526 20.6195 4.14068 21.0822 5.3041 21.0834H16.6946C17.858 21.0822 18.9734 20.6195 19.7961 19.7968C20.6188 18.9742 21.0815 17.8588 21.0827 16.6953V12.8334C21.0827 12.5903 20.9861 12.3571 20.8142 12.1852C20.6423 12.0133 20.4091 11.9167 20.166 11.9167Z" fill="black"/>
<path d="M6.14724 7.9813L10.0825 4.04605V15.5832C10.0825 15.8263 10.1791 16.0595 10.351 16.2314C10.5229 16.4033 10.756 16.4999 10.9992 16.4999C11.2423 16.4999 11.4754 16.4033 11.6473 16.2314C11.8192 16.0595 11.9158 15.8263 11.9158 15.5832V4.04605L15.8511 7.9813C16.024 8.14828 16.2555 8.24068 16.4959 8.23859C16.7362 8.2365 16.9661 8.14009 17.1361 7.97014C17.306 7.80018 17.4024 7.57027 17.4045 7.32992C17.4066 7.08957 17.3142 6.85802 17.1472 6.68514L11.6472 1.18514C11.4753 1.01329 11.2422 0.916748 10.9992 0.916748C10.7561 0.916748 10.523 1.01329 10.3511 1.18514L4.85107 6.68514C4.68409 6.85802 4.5917 7.08957 4.59378 7.32992C4.59587 7.57027 4.69228 7.80018 4.86224 7.97014C5.03219 8.14009 5.2621 8.2365 5.50245 8.23859C5.7428 8.24068 5.97435 8.14828 6.14724 7.9813Z" fill="black"/>
</g>
<defs>
<clipPath id="clip0_57_668">
<rect width="22" height="22" fill="white"/>
</clipPath>
</defs>
</svg>
