<svg xmlns="http://www.w3.org/2000/svg" width="62" height="55">
    <path fill="#00AEEF" fill-opacity=".6" fill-rule="evenodd" d="M51.089 41.996L39 42h-1v-2h13c5.008-.451 9-4.846 9-10 0-5.244-3.949-9.544-9.187-10.004l-.826-.072-.082-.825C48.94 9.351 40.812 2 31 2c-8.392 0-15.683 5.422-18.143 13.492l-.182.596-.616.1A11.915 11.915 0 0 0 2 28c0 6.268 4.864 11.539 11.074 12.003L24 40v2H13c-7.322-.544-13-6.692-13-14a13.903 13.903 0 0 1 11.131-13.675C14.017 5.731 21.926 0 31 0c10.575 0 19.38 7.727 20.801 18.102A11.98 11.98 0 0 1 62 30c0 6.181-4.793 11.45-10.911 11.996zM19.586 33L31 21.586 42.414 33 41 34.414l-9-9V55h-2V25.414l-9 9L19.586 33z"/>
</svg>
