<svg xmlns="http://www.w3.org/2000/svg" width="14.383" height="17.2" viewBox="0 0 14.383 17.2">
  <g id="Group_2" data-name="Group 2" transform="translate(-0.295 0.1)">
    <g id="Контур_6912" data-name="Контур 6912" fill="#85889d">
      <path d="M 7.377820014953613 8.238960266113281 C 6.239369869232178 8.238960266113281 5.2534499168396 7.830480098724365 4.447450160980225 7.02485990524292 C 3.641730070114136 6.219150066375732 3.233200073242188 5.233190059661865 3.233200073242188 4.09434986114502 C 3.233200073242188 2.955699920654297 3.641730070114136 1.969820022583008 4.447440147399902 1.164100050926208 C 5.253069877624512 0.3584800362586975 6.23898983001709 -0.04999996349215508 7.377820014953613 -0.04999996349215508 C 8.516460418701172 -0.04999996349215508 9.502389907836914 0.3584400415420532 10.30825042724609 1.163969993591309 C 11.11390018463135 1.969860076904297 11.52239990234375 2.955780029296875 11.52239990234375 4.09434986114502 C 11.52239990234375 5.233059883117676 11.11394023895264 6.218979835510254 10.30836009979248 7.024720191955566 C 9.502630233764648 7.830430030822754 8.516650199890137 8.238960266113281 7.377820014953613 8.238960266113281 Z M 7.377820014953613 1.046220064163208 C 6.528520107269287 1.046220064163208 5.823569774627686 1.338320016860962 5.22268009185791 1.939220070838928 C 4.621610164642334 2.540280103683472 4.329430103302002 3.245229959487915 4.329430103302002 4.09434986114502 C 4.329430103302002 4.943679809570312 4.621610164642334 5.648680210113525 5.222670078277588 6.249619960784912 C 5.823909759521484 6.850600242614746 6.528870105743408 7.142740249633789 7.377820014953613 7.142740249633789 C 8.227120399475098 7.142740249633789 8.932120323181152 6.850600242614746 9.533089637756348 6.249619960784912 C 10.13405990600586 5.648519992828369 10.4261999130249 4.943520069122314 10.4261999130249 4.09434986114502 C 10.4261999130249 3.245260000228882 10.13405990600586 2.540310144424438 9.533089637756348 1.939210057258606 C 8.932080268859863 1.338320016860962 8.227089881896973 1.046220064163208 7.377820014953613 1.046220064163208 Z" stroke="none"/>
      <path d="M 7.377820014953613 8.188960075378418 C 8.502840042114258 8.188960075378418 9.476880073547363 7.785470008850098 10.27299976348877 6.989369869232178 C 11.06879997253418 6.19340991973877 11.47239971160889 5.219500064849854 11.47239971160889 4.09434986114502 C 11.47239971160889 2.969599962234497 11.0689001083374 1.995560050010681 10.27289962768555 1.19933009147644 C 9.476750373840332 0.4035000503063202 8.502710342407227 3.768920819879895e-08 7.377820014953613 3.768920819879895e-08 C 6.252679824829102 3.768920819879895e-08 5.278759956359863 0.4035000503063202 4.482800006866455 1.199460029602051 C 3.686830043792725 1.995429992675781 3.283200025558472 2.969470024108887 3.283200025558472 4.09434986114502 C 3.283200025558472 5.219500064849854 3.686830043792725 6.193540096282959 4.482800006866455 6.989500045776367 C 5.279019832611084 7.785339832305908 6.253069877624512 8.188960075378418 7.377820014953613 8.188960075378418 M 7.377820014953613 0.9962200522422791 C 8.240969657897949 0.9962200522422791 8.95757007598877 1.293099999427795 9.568449974060059 1.903860092163086 C 10.17920017242432 2.514739990234375 10.47620010375977 3.231330156326294 10.47620010375977 4.09434986114502 C 10.47620010375977 4.957630157470703 10.17920017242432 5.674089908599854 9.568449974060059 6.284979820251465 C 8.95757007598877 6.895860195159912 8.240969657897949 7.192739963531494 7.377820014953613 7.192739963531494 C 6.514800071716309 7.192739963531494 5.79833984375 6.895730018615723 5.187319755554199 6.284979820251465 C 4.57643985748291 5.674220085144043 4.279429912567139 4.957630157470703 4.279429912567139 4.09434986114502 C 4.279429912567139 3.231330156326294 4.57643985748291 2.514739990234375 5.187319755554199 1.903860092163086 C 5.798079967498779 1.293099999427795 6.514540195465088 0.9962200522422791 7.377820014953613 0.9962200522422791 M 7.377820014953613 8.288960456848145 C 6.225629806518555 8.288960456848145 5.227819919586182 7.875550270080566 4.412109851837158 7.060230255126953 C 3.596659898757935 6.244790077209473 3.183199882507324 5.246930122375488 3.183199882507324 4.09434986114502 C 3.183199882507324 2.941950082778931 3.596659898757935 1.944180011749268 4.412089824676514 1.128750085830688 C 5.227429866790771 0.3134100437164307 6.225239753723145 -0.09999996423721313 7.377820014953613 -0.09999996423721313 C 8.530189514160156 -0.09999996423721313 9.528030395507812 0.3133600354194641 10.34360027313232 1.128610014915466 C 11.15898036956787 1.944220066070557 11.57240009307861 2.942039966583252 11.57240009307861 4.09434986114502 C 11.57240009307861 5.246799945831299 11.15900993347168 6.244619846343994 10.34372043609619 7.060070037841797 C 9.52826976776123 7.875510215759277 8.530400276184082 8.288960456848145 7.377820014953613 8.288960456848145 Z M 7.377820014953613 1.096220016479492 C 6.542459964752197 1.096220016479492 5.849070072174072 1.383530020713806 5.258029937744141 1.974570035934448 C 4.666820049285889 2.5657799243927 4.379429817199707 3.259160041809082 4.379429817199707 4.09434986114502 C 4.379429817199707 4.929749965667725 4.666820049285889 5.623179912567139 5.258019924163818 6.214260101318359 C 5.849410057067871 6.805379867553711 6.542799949645996 7.092740058898926 7.377820014953613 7.092740058898926 C 8.213190078735352 7.092740058898926 8.906620025634766 6.805389881134033 9.497739791870117 6.214270114898682 C 10.0888500213623 5.623020172119141 10.37619972229004 4.929590225219727 10.37619972229004 4.09434986114502 C 10.37619972229004 3.259200096130371 10.0888500213623 2.565809965133667 9.497730255126953 1.974560022354126 C 8.906590461730957 1.383530020713806 8.213150024414062 1.096220016479492 7.377820014953613 1.096220016479492 Z" stroke="none" fill="#85889d"/>
    </g>
    <g id="Контур_6913" data-name="Контур 6913" fill="#85889d">
      <path d="M 11.57890510559082 17.05020523071289 L 3.393315553665161 17.05020523071289 C 2.495935440063477 17.05020523071289 1.75747549533844 16.78047561645508 1.198445439338684 16.24851608276367 C 0.6318254470825195 15.70887565612793 0.3445354700088501 14.97818565368652 0.3445354700088501 14.07670497894287 C 0.3445354700088501 13.73368549346924 0.35600546002388 13.39475536346436 0.3786354660987854 13.06932544708252 C 0.4017254412174225 12.73532485961914 0.4482954442501068 12.3719654083252 0.5170454382896423 11.98936557769775 C 0.5864354372024536 11.60276508331299 0.6758154630661011 11.23730564117432 0.7827054262161255 10.90316486358643 C 0.8936454653739929 10.55654525756836 1.044405460357666 10.2144250869751 1.230795502662659 9.886284828186035 C 1.424655437469482 9.54494571685791 1.652825474739075 9.247594833374023 1.908955454826355 9.002494812011719 C 2.177985429763794 8.745075225830078 2.507035493850708 8.538285255432129 2.886975526809692 8.387855529785156 C 3.265475511550903 8.237935066223145 3.684695482254028 8.161914825439453 4.13299560546875 8.161914825439453 C 4.317615509033203 8.161914825439453 4.49236536026001 8.235175132751465 4.825515270233154 8.452245712280273 C 5.026715278625488 8.583325386047363 5.260055541992188 8.733715057373047 5.519035339355469 8.899215698242188 C 5.737545490264893 9.038684844970703 6.035235404968262 9.169765472412109 6.403835296630859 9.288825035095215 C 6.762705326080322 9.404865264892578 7.126655578613281 9.463705062866211 7.485595226287842 9.463705062866211 C 7.844785690307617 9.463705062866211 8.208735466003418 9.404865264892578 8.56733512878418 9.288835525512695 C 8.935735702514648 9.169855117797852 9.233665466308594 9.038704872131348 9.452865600585938 8.899035453796387 C 9.710915565490723 8.734155654907227 9.944035530090332 8.58387565612793 10.14569568634033 8.452395439147949 C 10.47909545898438 8.235295295715332 10.65390586853027 8.16203498840332 10.8384952545166 8.16203498840332 C 11.28687572479248 8.16203498840332 11.70612525939941 8.237975120544434 12.08459568023682 8.387735366821289 C 12.4646053314209 8.538314819335938 12.79359531402588 8.745104789733887 13.06246566772461 9.002365112304688 C 13.3182954788208 9.246974945068359 13.54650592803955 9.544375419616699 13.74076557159424 9.886284828186035 C 13.92689514160156 10.21352481842041 14.07771587371826 10.55558490753174 14.18902587890625 10.90293502807617 C 14.29589557647705 11.23665523529053 14.38531589508057 11.60218524932861 14.45480537414551 11.98937511444092 C 14.52365589141846 12.37345504760742 14.57020568847656 12.73666572570801 14.59317588806152 13.06894493103027 C 14.61597537994385 13.39412498474121 14.62759590148926 13.73312568664551 14.62769508361816 14.0764856338501 C 14.62769508361816 14.97855567932129 14.34035587310791 15.70933532714844 13.77366542816162 16.24851608276367 C 13.2145357131958 16.78047561645508 12.47610569000244 17.05020523071289 11.57890510559082 17.05020523071289 Z M 4.044785499572754 9.259542465209961 C 3.769586086273193 9.26823902130127 3.515906095504761 9.317837715148926 3.290575504302979 9.407014846801758 C 3.042875528335571 9.505044937133789 2.83305549621582 9.635395050048828 2.666945457458496 9.794435501098633 C 2.487885475158691 9.965855598449707 2.325365543365479 10.178955078125 2.18388557434082 10.42780494689941 C 2.034955501556396 10.68996524810791 1.914785504341125 10.96233558654785 1.826695442199707 11.23735523223877 C 1.734725475311279 11.5246753692627 1.657105445861816 11.84285545349121 1.595985412597656 12.18303489685059 C 1.534155488014221 12.52731513977051 1.492485404014587 12.85101509094238 1.472145438194275 13.14514541625977 C 1.451305508613586 13.44455528259277 1.44074547290802 13.75796508789062 1.44074547290802 14.07670497894287 C 1.44074547290802 14.67480564117432 1.608725428581238 15.12544536590576 1.954265475273132 15.45437526702881 C 2.307485342025757 15.79056549072266 2.778195381164551 15.95399570465088 3.393315553665161 15.95399570465088 L 11.57879543304443 15.95399570465088 C 12.19382572174072 15.95399570465088 12.6645450592041 15.79053497314453 13.01783561706543 15.45428562164307 C 13.36337566375732 15.12542533874512 13.53139591217041 14.67481517791748 13.53149509429932 14.07669544219971 C 13.53139591217041 13.75798511505127 13.5207052230835 13.44467544555664 13.49971580505371 13.14549541473389 C 13.47942543029785 12.85245513916016 13.43776512145996 12.5286750793457 13.37588500976562 12.18290519714355 C 13.31516551971436 11.84434509277344 13.23747539520264 11.52616500854492 13.14498519897461 11.2372350692749 C 13.05715560913086 10.96261501312256 12.93695545196533 10.6903247833252 12.78773498535156 10.42791557312012 C 12.64619541168213 10.17887496948242 12.48365592956543 9.965744972229004 12.30462551116943 9.794445037841797 C 12.13831520080566 9.63532543182373 11.92852592468262 9.504975318908691 11.68108558654785 9.407014846801758 C 11.45569610595703 9.317837715148926 11.20193576812744 9.268238067626953 10.92663860321045 9.259542465209961 C 10.8912353515625 9.278896331787109 10.83306884765625 9.312914848327637 10.74437522888184 9.370665550231934 C 10.54807567596436 9.49870491027832 10.31855583190918 9.646675109863281 10.04273509979248 9.823025703430176 C 9.744625091552734 10.01306533813477 9.361715316772461 10.18429565429688 8.904575347900391 10.33197498321533 C 8.436565399169922 10.48321533203125 7.959185600280762 10.55989551544189 7.485725402832031 10.55989551544189 C 7.012335300445557 10.55989551544189 6.534915447235107 10.48317527770996 6.06673526763916 10.33187484741211 C 5.6099853515625 10.18438529968262 5.227295398712158 10.01328563690186 4.929315567016602 9.823305130004883 C 4.675505638122559 9.661205291748047 4.439255237579346 9.508914947509766 4.227085590362549 9.370655059814453 C 4.139247894287109 9.313376426696777 4.080715179443359 9.279170989990234 4.044785499572754 9.259542465209961 Z" stroke="none"/>
      <path d="M 11.57890510559082 17.00020599365234 C 12.46279525756836 17.00020599365234 13.18969535827637 16.7350959777832 13.73919582366943 16.21229553222656 C 14.29559516906738 15.68290519714355 14.57769584655762 14.96419525146484 14.57769584655762 14.07649517059326 C 14.57759571075439 13.73399543762207 14.56599521636963 13.39609527587891 14.54329586029053 13.07239532470703 C 14.52039527893066 12.74110507965088 14.47399520874023 12.37979507446289 14.40559577941895 11.99820518493652 C 14.33660507202148 11.61379528045654 14.24779510498047 11.25039482116699 14.14140510559082 10.9181957244873 C 14.03139591217041 10.57489490509033 13.88209533691406 10.23589515686035 13.69729518890381 9.910984992980957 C 13.50569534301758 9.573755264282227 13.28059577941895 9.280115127563477 13.0278959274292 9.038495063781738 C 12.76369571685791 8.78569507598877 12.44029521942139 8.582465171813965 12.06619548797607 8.434225082397461 C 11.69349575042725 8.286745071411133 11.2803955078125 8.212035179138184 10.8384952545166 8.212035179138184 C 10.66489505767822 8.212035179138184 10.49709510803223 8.283245086669922 10.17300510406494 8.494275093078613 C 9.973495483398438 8.624355316162109 9.740165710449219 8.774805068969727 9.479735374450684 8.941205024719238 C 9.257035255432129 9.083105087280273 8.955365180969238 9.216054916381836 8.582725524902344 9.336404800415039 C 8.219175338745117 9.454045295715332 7.85005521774292 9.513705253601074 7.485595226287842 9.513705253601074 C 7.121405601501465 9.513705253601074 6.752275466918945 9.454045295715332 6.388465404510498 9.336404800415039 C 6.0162353515625 9.216175079345703 5.714415550231934 9.083234786987305 5.492115497589111 8.94134521484375 C 5.234145641326904 8.776494979858398 5.000685691833496 8.626045227050781 4.798225402832031 8.494134902954102 C 4.474365234375 8.283124923706055 4.306525230407715 8.211915016174316 4.13299560546875 8.211915016174316 C 3.690975427627563 8.211915016174316 3.278015375137329 8.286745071411133 2.905385494232178 8.434345245361328 C 2.531585454940796 8.582345008850098 2.207985401153564 8.785574913024902 1.943525433540344 9.038615226745605 C 1.69087541103363 9.28038501739502 1.465725421905518 9.573884963989258 1.274275422096252 9.910984992980957 C 1.089715480804443 10.23589515686035 0.9403054714202881 10.57479572296143 0.8303254842758179 10.91839504241943 C 0.7240954637527466 11.25049495697021 0.6352554559707642 11.61379528045654 0.5662554502487183 11.99820518493652 C 0.4977754652500153 12.37929534912109 0.4514654576778412 12.74079513549805 0.4285154640674591 13.07279491424561 C 0.4059454500675201 13.39739513397217 0.3945354521274567 13.73529529571533 0.3945354521274567 14.07670497894287 C 0.3945354521274567 14.96409511566162 0.6766254305839539 15.6824951171875 1.23291540145874 16.21229553222656 C 1.782315492630005 16.7350959777832 2.509155511856079 17.00020599365234 3.393315553665161 17.00020599365234 L 11.57890510559082 17.00020599365234 M 4.05672550201416 9.209175109863281 C 4.091615676879883 9.227725028991699 4.153745651245117 9.263134956359863 4.254385471343994 9.328764915466309 C 4.459185600280762 9.462224960327148 4.695235252380371 9.614475250244141 4.95619535446167 9.781145095825195 C 5.250355243682861 9.968685150146484 5.629335403442383 10.13809490203857 6.082115650177002 10.28429508209229 C 7.007925510406494 10.58349800109863 7.963935375213623 10.58339214324951 8.889204978942871 10.28439521789551 C 9.342375755310059 10.13799571990967 9.721235275268555 9.968685150146484 10.0158052444458 9.780895233154297 C 10.28279590606689 9.610195159912109 10.51229572296143 9.462345123291016 10.71709537506104 9.328764915466309 C 10.81770515441895 9.26325511932373 10.87979507446289 9.227725028991699 10.91469573974609 9.209175109863281 C 11.20110511779785 9.216835021972656 11.46479511260986 9.267664909362793 11.69949531555176 9.360525131225586 C 11.95309543609619 9.460925102233887 12.16839504241943 9.594904899597168 12.33919525146484 9.758315086364746 C 12.52179527282715 9.933034896850586 12.68729591369629 10.14999485015869 12.83119583129883 10.40319538116455 C 12.98200511932373 10.66839504241943 13.1036958694458 10.94400501251221 13.19260501861572 11.22199535369873 C 13.28559589385986 11.51249504089355 13.36390590667725 11.83289527893066 13.42510509490967 12.17409515380859 C 13.48709583282471 12.52049541473389 13.5291051864624 12.84609508514404 13.54959583282471 13.14179515838623 L 13.54959583282471 13.14199542999268 C 13.5706958770752 13.44279479980469 13.58139514923096 13.75720500946045 13.58149528503418 14.07670497894287 C 13.58139514923096 14.68920516967773 13.40830516815186 15.15169525146484 13.05230522155762 15.49050521850586 C 12.68929576873779 15.83600521087646 12.20729541778564 16.00399589538574 11.57879543304443 16.00399589538574 L 3.393315553665161 16.00399589538574 C 2.764655351638794 16.00399589538574 2.282695531845093 15.83600521087646 1.919795513153076 15.4905948638916 C 1.563775420188904 15.15169525146484 1.390745401382446 14.68910503387451 1.390745401382446 14.07670497894287 C 1.390745401382446 13.75809478759766 1.401255488395691 13.44359493255615 1.422265410423279 13.14169502258301 C 1.442755460739136 12.8453950881958 1.484665513038635 12.52000522613525 1.546775460243225 12.17419528961182 C 1.608125448226929 11.83269500732422 1.686215400695801 11.51220512390137 1.779075503349304 11.22210502624512 C 1.86818540096283 10.94389533996582 1.989705443382263 10.66839504241943 2.14041543006897 10.40309524536133 C 2.284255504608154 10.15009498596191 2.449745416641235 9.933155059814453 2.632365465164185 9.758315086364746 C 2.803175449371338 9.594775199890137 3.018485546112061 9.460925102233887 3.272175550460815 9.360525131225586 C 3.506805419921875 9.267664909362793 3.770475387573242 9.216835021972656 4.05672550201416 9.209175109863281 M 11.57890510559082 17.10020446777344 L 3.393315553665161 17.10020446777344 C 2.482675552368164 17.10020446777344 1.73261547088623 16.82584571838379 1.163975477218628 16.28473472595215 C 0.587045431137085 15.73527526855469 0.2945354580879211 14.99239540100098 0.2945354580879211 14.07670497894287 C 0.2945354580879211 13.73253536224365 0.3060454428195953 13.39243507385254 0.3287554681301117 13.06585502624512 C 0.351965457201004 12.73007488250732 0.3987654447555542 12.36489486694336 0.4678354561328888 11.9805154800415 C 0.5376154780387878 11.59177494049072 0.6275254487991333 11.22416496276855 0.7350754737854004 10.88792514801025 C 0.8470754623413086 10.53802490234375 0.9992354512214661 10.19272518157959 1.187325477600098 9.861595153808594 C 1.383585453033447 9.516025543212891 1.614745497703552 9.214825630187988 1.874385476112366 8.966364860534668 C 2.148105382919312 8.704464912414551 2.482595443725586 8.494185447692871 2.868575572967529 8.341364860534668 C 3.252945423126221 8.189115524291992 3.678365468978882 8.111915588378906 4.13299560546875 8.111915588378906 C 4.328715324401855 8.111915588378906 4.510355472564697 8.187225341796875 4.852815628051758 8.410345077514648 C 5.053885459899902 8.541355133056641 5.287095546722412 8.691655158996582 5.545965671539307 8.857085227966309 C 5.76084566116333 8.994235038757324 6.054665565490723 9.123505592346191 6.419205665588379 9.241245269775391 C 6.773115634918213 9.355685234069824 7.131885528564453 9.413704872131348 7.485595226287842 9.413704872131348 C 7.839555263519287 9.413704872131348 8.198325157165527 9.355685234069824 8.551935195922852 9.241265296936035 C 8.916325569152832 9.123575210571289 9.210385322570801 8.994255065917969 9.425995826721191 8.856875419616699 C 9.683865547180176 8.692105293273926 9.916855812072754 8.541905403137207 10.11838531494141 8.410505294799805 C 10.46111583709717 8.187345504760742 10.64281558990479 8.112034797668457 10.8384952545166 8.112034797668457 C 11.29320526123047 8.112034797668457 11.7186450958252 8.189155578613281 12.10298538208008 8.341245651245117 C 12.48904514312744 8.49421501159668 12.82347583770752 8.704495429992676 13.09702587127686 8.966245651245117 C 13.35636520385742 9.214204788208008 13.58758544921875 9.515445709228516 13.78424549102783 9.86158561706543 C 13.97205543518066 10.19180488586426 14.12427520751953 10.5370454788208 14.23663520812988 10.88767528533936 C 14.3441858291626 11.22349548339844 14.4341459274292 11.59118556976318 14.50402545928955 11.98054504394531 C 14.57318592071533 12.36640548706055 14.61996555328369 12.73142528533936 14.64305591583252 13.06549549102783 C 14.66593551635742 13.39178562164307 14.6775951385498 13.73195552825928 14.67769527435303 14.07646560668945 C 14.67769527435303 14.99278545379639 14.38512516021729 15.73574542999268 13.80812549591064 16.28474617004395 C 13.2393856048584 16.82584571838379 12.48937511444092 17.10020446777344 11.57890510559082 17.10020446777344 Z M 4.032680034637451 9.30998420715332 C 3.768539667129517 9.31968879699707 3.525194883346558 9.367932319641113 3.308975458145142 9.453505516052246 C 3.067315340042114 9.549145698547363 2.862935543060303 9.676005363464355 2.701525449752808 9.830545425415039 C 2.525965452194214 9.998624801635742 2.366435527801514 10.20788478851318 2.22734546661377 10.45251560211182 C 2.080135345458984 10.71166515350342 1.961345434188843 10.98086547851562 1.874305486679077 11.25260543823242 C 1.783015489578247 11.53783512115479 1.705925464630127 11.85385513305664 1.645195484161377 12.19187545776367 C 1.583685398101807 12.53437519073486 1.542245507240295 12.8562650680542 1.522025465965271 13.14859485626221 C 1.501265406608582 13.44687557220459 1.490745425224304 13.75912570953369 1.490745425224304 14.07670497894287 C 1.490745425224304 14.66038513183594 1.653645396232605 15.09917545318604 1.988745450973511 15.41816520690918 C 2.332205533981323 15.74507522583008 2.791645526885986 15.90399551391602 3.393315553665161 15.90399551391602 L 11.57879543304443 15.90399551391602 C 12.18037509918213 15.90399551391602 12.63981533050537 15.74504566192627 12.98336505889893 15.41806507110596 C 13.31845569610596 15.09915542602539 13.48139572143555 14.66038513183594 13.48149585723877 14.07668495178223 C 13.48139572143555 13.7591552734375 13.47074508666992 13.44701480865479 13.44984531402588 13.1489953994751 L 13.44959545135498 13.14525604248047 C 13.42933750152588 12.85515594482422 13.38799095153809 12.53435039520264 13.3266658782959 12.19171524047852 C 13.26633548736572 11.8553352355957 13.18918514251709 11.53931522369385 13.0973653793335 11.25248527526855 C 13.01058578491211 10.98113536834717 12.89178562164307 10.71203517913818 12.74426555633545 10.4526252746582 C 12.60512542724609 10.20779514312744 12.44558525085449 9.998515129089355 12.27006530761719 9.830565452575684 C 12.10843563079834 9.675934791564941 11.90408515930176 9.549075126647949 11.66268539428711 9.453505516052246 C 11.44640827178955 9.367932319641113 11.20297622680664 9.319687843322754 10.93874931335449 9.30998420715332 C 10.90357303619385 9.329680442810059 10.84978771209717 9.361695289611816 10.77166557312012 9.412565231323242 C 10.57526588439941 9.540665626525879 10.34561538696289 9.688725471496582 10.06967544555664 9.865145683288574 C 9.767925262451172 10.05751514434814 9.381134986877441 10.23056507110596 8.91994571685791 10.37955570220947 C 7.974054336547852 10.68521308898926 6.997735500335693 10.68530750274658 6.051365375518799 10.37944507598877 C 5.59056568145752 10.23066520690918 5.204005241394043 10.05772495269775 4.902435302734375 9.86546516418457 C 4.648465633392334 9.703265190124512 4.41208553314209 9.550895690917969 4.199785232543945 9.412545204162598 C 4.122313022613525 9.362027168273926 4.068278312683105 9.329892158508301 4.032680034637451 9.30998420715332 Z" stroke="none" fill="#85889d"/>
    </g>
  </g>
</svg>
