<svg xmlns="http://www.w3.org/2000/svg" width="52" height="52">
    <path fill="#FFF" fill-rule="evenodd" d="M26 0c14.359 0 26 11.641 26 26S40.359 52 26 52C11.64 52 0 40.359 0 26S11.64 0 26 0z"/>
    <path fill="#D1F0FC" fill-rule="evenodd" d="M36.647 41H16.353A1.35 1.35 0 0 1 15 39.652V22.13a1.35 1.35 0 0 1 1.353-1.347h20.294A1.35 1.35 0 0 1 38 22.13v17.522A1.35 1.35 0 0 1 36.647 41z"/>
    <path fill="#2FBDF2" fill-rule="evenodd" d="M29.206 28.87a2.701 2.701 0 0 0-2.706-2.696 2.701 2.701 0 0 0-2.706 2.696c0 .995.548 1.854 1.353 2.321v4.418h2.706v-4.418a2.682 2.682 0 0 0 1.353-2.321z"/>
    <path fill="#A4E2F9" fill-rule="evenodd" d="M21.765 20.783v-3.37c0-2.601 2.124-4.717 4.735-4.717s4.735 2.116 4.735 4.717v3.37h2.706v-3.37c0-4.088-3.338-7.413-7.441-7.413s-7.441 3.325-7.441 7.413v3.37h2.706z"/>
</svg>
