<svg width="19" height="19" viewBox="0 0 19 19" fill="none" xmlns="http://www.w3.org/2000/svg">
<path d="M17.2188 9.5C17.2188 10.1591 16.4113 10.6875 16.245 11.3109C16.0788 11.9344 16.5063 12.8131 16.1856 13.3594C15.865 13.9056 14.8912 13.9828 14.44 14.44C13.9887 14.8972 13.9175 15.865 13.3594 16.1856C12.8013 16.5063 11.9344 16.0788 11.3109 16.245C10.6875 16.4113 10.1591 17.2188 9.5 17.2188C8.84094 17.2188 8.3125 16.4113 7.71875 16.245C7.125 16.0788 6.21656 16.5063 5.67031 16.1856C5.12406 15.865 5.04688 14.8912 4.58969 14.44C4.1325 13.9887 3.16469 13.9175 2.84406 13.3594C2.52344 12.8013 2.95094 11.9344 2.78469 11.3109C2.61844 10.6875 1.78125 10.1591 1.78125 9.5C1.78125 8.84094 2.58875 8.3125 2.755 7.71875C2.92125 7.125 2.49375 6.21656 2.81437 5.67031C3.135 5.12406 4.10875 5.01719 4.56 4.56C5.01125 4.10281 5.0825 3.135 5.64062 2.81437C6.19875 2.49375 7.06562 2.92125 7.68906 2.755C8.3125 2.58875 8.84094 1.78125 9.5 1.78125C10.1591 1.78125 10.6875 2.58875 11.3109 2.755C11.9344 2.92125 12.8131 2.49375 13.3594 2.81437C13.9056 3.135 13.9828 4.10875 14.44 4.56C14.8972 5.01125 15.865 5.0825 16.1856 5.64062C16.5063 6.19875 16.0788 7.06562 16.245 7.68906C16.4113 8.3125 17.2188 8.84094 17.2188 9.5Z" fill="#109138"/>
<path d="M6.5 9.5L8.5 11.5L12.5 7.5" stroke="white" stroke-linecap="round"/>
</svg>
