<svg width="11" height="11" viewBox="0 0 11 11" fill="none" xmlns="http://www.w3.org/2000/svg">
<path d="M7.14104 5.49826C7.14104 6.40576 6.40771 7.13909 5.50021 7.13909C4.59271 7.13909 3.85938 6.40576 3.85938 5.49826C3.85938 4.59076 4.59271 3.85742 5.50021 3.85742C6.40771 3.85742 7.14104 4.59076 7.14104 5.49826Z" stroke="#10213A" stroke-linecap="round" stroke-linejoin="round"/>
<path d="M5.49651 9.29245C7.11443 9.29245 8.62234 8.33911 9.67193 6.68911C10.0844 6.04286 10.0844 4.95661 9.67193 4.31036C8.62234 2.66036 7.11443 1.70703 5.49651 1.70703C3.87859 1.70703 2.37068 2.66036 1.32109 4.31036C0.908594 4.95661 0.908594 6.04286 1.32109 6.68911C2.37068 8.33911 3.87859 9.29245 5.49651 9.29245Z" stroke="#10213A" stroke-linecap="round" stroke-linejoin="round"/>
</svg>
