<svg xmlns="http://www.w3.org/2000/svg" width="19" height="17">
    <path fill="#3C4042" fill-opacity=".6" fill-rule="evenodd" d="M18.754 10.786c-1.12 3.676-4.688 6.225-8.689 6.225l-.127.001c-2.931 0-5.678-1.366-7.356-3.666C1.218 11.474.701 9.209 1.127 6.968c.426-2.241 1.744-4.191 3.711-5.488 1.038-.66 2.621-.767 3.337.118.568.7.311 1.508.123 2.099-.103.323-.22.691-.121.816.411.479 1.052.35 2.518-.087 1.588-.474 3.568-1.064 5.76-.074a.069.069 0 0 1 .008.003c3.447 1.625 2.42 5.944 2.291 6.431zm-2.785-5.469c-1.795-.809-3.465-.31-4.938.13-1.37.41-2.788.833-3.738-.273-.457-.576-.243-1.248-.072-1.787.172-.542.263-.889.063-1.135-.122-.151-.369-.224-.661-.224-.367 0-.805.115-1.152.336-1.712 1.13-2.865 2.835-3.237 4.795-.373 1.959.079 3.94 1.272 5.576 1.484 2.035 3.911 3.2 6.53 3.206h.021c3.511 0 6.635-2.233 7.61-5.434.038-.143.998-3.914-1.698-5.19zm-3.161 6.878c-1.551 0-2.812-1.2-2.812-2.676 0-1.475 1.261-2.676 2.812-2.676s2.813 1.201 2.813 2.676c0 1.476-1.262 2.676-2.813 2.676zm0-4.282c-.93 0-1.687.721-1.687 1.606 0 .885.757 1.605 1.687 1.605.931 0 1.687-.72 1.687-1.605s-.756-1.606-1.687-1.606zm-5.062 5.352c-.622 0-1.126-.479-1.126-1.07 0-.591.504-1.071 1.126-1.071.621 0 1.125.48 1.125 1.071s-.504 1.07-1.125 1.07zm-2.25-3.211c-.622 0-1.125-.479-1.125-1.07 0-.591.503-1.071 1.125-1.071.621 0 1.124.48 1.124 1.071s-.503 1.07-1.124 1.07z"/>
</svg>
