<svg xmlns="http://www.w3.org/2000/svg" width="40.969" height="39" viewBox="0 0 40.969 39">
  <defs>
    <style>
      .cls-1 {
        fill: red;
        fill-rule: evenodd;
      }
    </style>
  </defs>
  <path class="cls-1" d="M842.125,226.841l-14.471-26.874a5.971,5.971,0,0,0-10.322,0l-14.471,26.874a6.061,6.061,0,0,0,5.16,9.158h28.944A6.061,6.061,0,0,0,842.125,226.841Zm-19.632,4.308a2.425,2.425,0,1,1,2.4-2.425A2.417,2.417,0,0,1,822.493,231.149Zm2.4-9.7a2.4,2.4,0,1,1-4.8,0V209.324a2.4,2.4,0,1,1,4.8,0V221.45Z" transform="translate(-802 -197)"/>
</svg>
