<svg xmlns="http://www.w3.org/2000/svg" width="93" height="93" viewBox="0 0 93 93">
    <g fill="none" fill-rule="nonzero">
        <path fill="#1FC0E7" d="M46.501 93C72.181 93 93 72.18 93 46.5 93 20.816 72.184 0 46.501 0 20.82 0 0 20.816 0 46.5 0 72.18 20.819 93 46.501 93"/>
        <path fill="#FFF" d="M22.477 46.488l7.98-8.005a1.429 1.429 0 0 0-2.035-2.007l-7.975 7.97-8.006-7.985a1.43 1.43 0 0 0-1.01-.411 1.427 1.427 0 1 0-1.001 2.447l7.978 7.979-7.975 7.984a1.431 1.431 0 1 0 2.007 2.04l7.996-7.989 7.965 7.958a1.428 1.428 0 1 0 2.049-1.992l-7.975-7.997.002.008zm47.436-.002a2.602 2.602 0 0 0 2.603 2.6 2.6 2.6 0 0 0-.003-5.199 2.599 2.599 0 0 0-2.594 2.6h-.006zm-4.925 0c0-4.148 3.374-7.527 7.526-7.527 4.143 0 7.523 3.379 7.523 7.527 0 4.149-3.378 7.527-7.524 7.527-4.15 0-7.525-3.374-7.525-7.527zm-2.96 0c0 5.78 4.705 10.488 10.486 10.488 5.78 0 10.486-4.703 10.486-10.486C83 40.708 78.294 36 72.513 36c-5.782 0-10.486 4.706-10.486 10.488v-.002zm-.744-10.307h-.437a5.942 5.942 0 0 0-3.66 1.237 1.45 1.45 0 0 0-1.404-1.123 1.417 1.417 0 0 0-1.416 1.422l.004 17.664a1.43 1.43 0 0 0 1.426 1.423 1.432 1.432 0 0 0 1.43-1.427V44.513c0-3.618.334-5.082 3.432-5.469.292-.035.6-.029.604-.029.846-.031 1.45-.615 1.45-1.403a1.435 1.435 0 0 0-1.437-1.431l.008-.002zm-27.457 8.583c0-.041.005-.083.006-.12a7.575 7.575 0 0 1 14.711.114H33.826l.002.006zm17.643-.27c-.616-2.917-2.213-5.315-4.643-6.853-3.556-2.259-8.25-2.134-11.682.311-2.802 1.99-4.42 5.25-4.42 8.609 0 .842.104 1.692.312 2.53 1.058 4.16 4.635 7.312 8.9 7.834a9.9 9.9 0 0 0 3.769-.25c1.099-.27 2.159-.711 3.135-1.34 1.014-.65 1.862-1.511 2.687-2.54.012-.02.029-.035.045-.056.571-.707.465-1.718-.16-2.196-.529-.406-1.416-.57-2.111.324-.15.217-.319.437-.5.655a8.252 8.252 0 0 1-2.07 1.668 7.56 7.56 0 0 1-3.519.888c-4.16-.048-6.384-2.953-7.177-5.024a7.719 7.719 0 0 1-.319-1.206l-.02-.218h14.93c2.044-.046 3.143-1.491 2.84-3.14l.003.004z"/>
    </g>
</svg>
