<svg xmlns="http://www.w3.org/2000/svg" width="17" height="19">
    <path fill="#FFF" fill-rule="evenodd" d="M0 0h15v18H0V0z"/>
    <path fill="#686F76" fill-opacity=".702" fill-rule="evenodd" d="M17 4l-4-4-.001.002H.5a.5.5 0 0 0-.5.5v18c0 .276.223.499.5.499h16a.5.5 0 0 0 .5-.499v-14.5h-.002L17 4zm-1.232.002H13V1.234l2.768 2.768zm.232 13.5a.5.5 0 0 1-.5.5h-14a.5.5 0 0 1-.5-.5V1.501a.5.5 0 0 1 .5-.499H12v4h4v12.5z"/>
    <path fill="#2ABE4F" fill-rule="evenodd" d="M12.035 13.328l-.707.708L8.5 11.207l-2.828 2.829-.708-.708L7.793 10.5 4.964 7.672l.708-.707L8.5 9.793l2.828-2.828.707.707L9.207 10.5l2.828 2.828z"/>
</svg>
