<svg width="17" height="17" viewBox="0 0 17 17" fill="none" xmlns="http://www.w3.org/2000/svg">
<g clip-path="url(#clip0_589_2709)">
<path d="M10.6249 8.50372C10.6252 9.11669 10.5146 9.72466 10.2985 10.2983C9.72472 10.5144 9.11661 10.6251 8.50345 10.6252H8.49628C7.86489 10.6244 7.25993 10.509 6.70172 10.2985C6.48548 9.72486 6.37479 9.1168 6.375 8.50372V8.49628C6.3747 7.88342 6.48516 7.27556 6.70106 6.70198C7.27484 6.48551 7.88308 6.37473 8.49635 6.375H8.50352C9.11671 6.3747 9.72489 6.48546 10.2986 6.70192C10.5147 7.27543 10.6253 7.88333 10.625 8.49621V8.50365L10.6249 8.50372ZM16.8819 7.08336H11.9203L15.4285 3.57491C15.1531 3.18811 14.846 2.82496 14.5102 2.48924V2.48897C14.1745 2.15361 13.8114 1.84673 13.4248 1.5715L9.91638 5.07995V0.118336C9.44976 0.039839 8.97742 0.00025745 8.50425 0L8.49548 0C8.01417 0.000265625 7.54275 0.0411719 7.08336 0.118336V5.07995L3.57491 1.5715C3.18826 1.84666 2.82536 2.15376 2.49004 2.48957L2.48818 2.4909C2.15299 2.8262 1.84627 3.18879 1.57117 3.57491L5.07988 7.08336H0.118336C0.118336 7.08336 0 8.01523 0 8.49708V8.50292C0 8.98477 0.0408398 9.45698 0.118336 9.91664H5.07995L1.57124 13.4251C2.12318 14.1996 2.80035 14.8768 3.57491 15.4288L7.08336 11.9201V16.8819C7.54946 16.96 8.02122 16.9995 8.49382 17H8.50584C8.97845 16.9996 9.45021 16.9601 9.91631 16.8819V11.9201L13.4251 15.4288C13.8116 15.1534 14.1746 14.8465 14.5102 14.511L14.511 14.5102C14.8463 14.1745 15.1532 13.8115 15.4285 13.4251L11.9198 9.91664H16.8819C16.9592 9.45778 16.9995 8.98696 17 8.50618V8.49382C16.9995 8.01304 16.9592 7.54222 16.8819 7.08336Z" fill="#FF4A00"/>
</g>
<defs>
<clipPath id="clip0_589_2709">
<rect width="17" height="17" fill="white"/>
</clipPath>
</defs>
</svg>
