<svg xmlns="http://www.w3.org/2000/svg" width="67" height="45" viewBox="0 0 67 45">
    <g fill="none" fill-rule="evenodd">
        <path fill="#FFE34C" d="M3.409 9.713h58.478v30.594H3.409z"/>
        <g fill="#231F20">
            <path fill-rule="nonzero" d="M65.825.09H7.347a1.06 1.06 0 0 0-1.058 1.068v5.05H1.058A1.06 1.06 0 0 0 0 7.278V37.87c0 .594.47 1.07 1.058 1.07H59.536a1.06 1.06 0 0 0 1.058-1.07v-5.05h5.23a1.06 1.06 0 0 0 1.058-1.069V1.1c0-.535-.47-1.01-1.057-1.01zM12.577 36.742c-.47-5.585-4.937-10.1-10.461-10.575v-7.307c5.524-.475 9.991-4.99 10.461-10.574h35.734c.47 5.465 4.819 9.92 10.226 10.574v7.426c-5.407.594-9.698 5.05-10.226 10.574H12.577v-.118zM58.478 9.475v7.307c-4.29-.594-7.64-4.099-8.11-8.435h8.11v1.128zm-9.227-3.267H17.749a11.75 11.75 0 0 0 1.058-3.98h35.792c.118 1.425.47 2.732 1.058 3.98h-6.406zM60.535 17.85v-6.475c1.293.713 2.704 1.129 4.232 1.307v7.426c-1.47.178-2.939.594-4.232 1.307V17.85zm4.232-15.683v8.436c-1.528-.238-2.939-.772-4.232-1.723V7.218c0-.594-.47-1.07-1.058-1.07H57.95c-.764-1.247-1.234-2.554-1.352-3.98h8.17zm-56.363 0h8.405a10.31 10.31 0 0 1-1.352 3.98H8.463v-3.98h-.059zm-6.288 6.12h8.345c-.47 4.455-3.996 7.96-8.404 8.494V8.287h.059zm0 28.455v-8.436c4.408.475 7.875 4.04 8.404 8.495H2.116v-.06zm56.362 0h-8.11c.47-4.337 3.878-7.842 8.11-8.436v8.436zm6.289-6.06h-4.232V23.97a9.083 9.083 0 0 1 4.232-1.663v8.376z"/>
            <path fill-rule="nonzero" d="M30.268 12.98c-5.231 0-9.463 4.277-9.463 9.565 0 5.287 4.232 9.564 9.463 9.564 5.23 0 9.462-4.277 9.462-9.564 0-5.288-4.232-9.565-9.462-9.565zm0 16.99c-4.056 0-7.347-3.326-7.347-7.425 0-4.1 3.291-7.426 7.347-7.426 4.055 0 7.346 3.327 7.346 7.426.059 4.099-3.232 7.425-7.346 7.425zM15.28 18.98c-1.939 0-3.467 1.604-3.467 3.505 0 1.96 1.587 3.505 3.468 3.505 1.94 0 3.467-1.604 3.467-3.505 0-1.9-1.587-3.505-3.467-3.505zm0 4.93c-.763 0-1.41-.653-1.41-1.425s.647-1.426 1.41-1.426c.765 0 1.411.654 1.411 1.426-.059.832-.646 1.426-1.41 1.426zM48.84 22.545c0-1.96-1.587-3.505-3.468-3.505-1.88 0-3.468 1.604-3.468 3.505 0 1.96 1.587 3.505 3.468 3.505 1.88 0 3.467-1.604 3.467-3.505zm-3.527 1.366c-.764 0-1.41-.654-1.41-1.426 0-.772.646-1.426 1.41-1.426.764 0 1.41.654 1.41 1.426 0 .832-.587 1.426-1.41 1.426z"/>
            <path d="M59.536 42.802H1.058A1.06 1.06 0 0 0 0 43.872c0 .593.47 1.069 1.058 1.069h58.478a1.06 1.06 0 0 0 1.058-1.07c0-.594-.47-1.069-1.058-1.069z"/>
        </g>
    </g>
</svg>
