<svg xmlns="http://www.w3.org/2000/svg" width="61" height="53" viewBox="0 0 61 53">
    <g fill="none" fill-rule="evenodd">
        <g fill="#F0D500">
            <path d="M44.721 14.622h4.472V30.37h-4.472zM11.18 14.622h4.472V30.37H11.18z"/>
        </g>
        <path fill="#F0D500" d="M32.423 37.118h-4.472a2.242 2.242 0 0 1-2.236-2.25V25.87h8.944v8.998c0 1.243-1 2.25-2.236 2.25z"/>
        <g fill="#000" fill-rule="nonzero">
            <path d="M2.236 47.241V30.34a5.511 5.511 0 0 0 3.354 1.154h16.77v-2.25h-5.59V14.622h-2.236v14.622h-2.236V14.622h-2.236v14.622H5.59c-1.85 0-3.354-1.513-3.354-3.374V15.747c0-1.86 1.505-3.374 3.354-3.374h49.194c1.849 0 3.354 1.514 3.354 3.374V25.871c0 1.86-1.505 3.373-3.354 3.373h-4.472V14.622h-2.236v14.622h-2.237V14.622h-2.236v14.622h-5.59v2.25h16.77c1.264 0 2.418-.44 3.355-1.154v3.404h2.236V15.747c0-3.101-2.508-5.624-5.59-5.624h-11.18v-4.5c0-3.1-2.508-5.623-5.59-5.623H22.36c-3.083 0-5.59 2.523-5.59 5.624v4.5H5.59C2.507 10.123 0 12.645 0 15.746v31.494c0 3.101 2.508 5.624 5.59 5.624h25.715v-2.25H5.59c-1.85 0-3.354-1.514-3.354-3.374zm34.66-37.118H23.478V6.75h13.416v3.374zm-17.89-4.5c0-1.86 1.505-3.373 3.355-3.373h15.652c1.85 0 3.354 1.514 3.354 3.374v4.5h-2.236V4.498H21.243v5.624h-2.236v-4.5z"/>
            <path d="M58.127 47.247v-23.62h2.236v23.62c0 3.101-2.508 5.624-5.59 5.624H29.058v-2.25h25.715c1.85 0 3.354-1.513 3.354-3.374zM35.777 34.868V24.745h-11.18v10.123c0 1.86 1.505 3.375 3.354 3.375h4.472c1.85 0 3.354-1.514 3.354-3.375zm-2.236 0c0 .62-.5 1.125-1.118 1.125h-4.472a1.123 1.123 0 0 1-1.118-1.125v-7.873h6.708v7.873z"/>
        </g>
    </g>
</svg>
