<svg id="Layer_1" data-name="Layer 1" xmlns="http://www.w3.org/2000/svg" viewBox="0 0 20 17"><defs><style>.cls-1,.cls-2{fill:none;stroke:#000;stroke-width:2px;}.cls-1{stroke-miterlimit:10;}.cls-2{stroke-linejoin:round;}</style></defs><title>menu-NewestOffers</title><path class="cls-1" d="M1,14V3A2,2,0,0,1,3,1H17a2,2,0,0,1,2,2V14a2,2,0,0,1-2,2H3A2,2,0,0,1,1,14Z"/><line class="cls-2" x1="4" y1="12" x2="10" y2="12"/><path d="M20,4H0V2A2,2,0,0,1,2,0H18a2,2,0,0,1,2,2Z"/><path d="M14.7,11.2a.91.91,0,0,0-.3-.7,3,3,0,0,0-1-.5,5.39,5.39,0,0,1-1.7-.8,1.61,1.61,0,0,1-.6-1.3,1.9,1.9,0,0,1,.5-1.3A2.59,2.59,0,0,1,13,6V5h.8V6a2.1,2.1,0,0,1,1.4.7,2.17,2.17,0,0,1,.5,1.4H14.5a1.22,1.22,0,0,0-.3-.9c0-.1-.2-.2-.6-.2a1,1,0,0,0-.8.3,1,1,0,0,0,0,1.4,3,3,0,0,0,1,.5,4,4,0,0,1,1.6.8,1.54,1.54,0,0,1,.5,1.3,1.9,1.9,0,0,1-.5,1.3,3,3,0,0,1-1.5.6V14h-.8v-.9a3.39,3.39,0,0,1-1.5-.6A2,2,0,0,1,11,11h1.2c0,.4.1.8.4.9a1.22,1.22,0,0,0,.9.3,1.22,1.22,0,0,0,.9-.3A.91.91,0,0,0,14.7,11.2Z"/></svg>