<svg xmlns="http://www.w3.org/2000/svg" width="67" height="64" viewBox="0 0 67 64">
    <g fill="none" fill-rule="evenodd">
        <g fill="#F0D500">
            <path d="M44.613 28.145c0 5.8-4.701 10.5-10.5 10.5-5.8 0-10.5-4.7-10.5-10.5 0-5.799 4.7-10.5 10.5-10.5 5.799 0 10.5 4.701 10.5 10.5zM30.258 8.645h6.484v6.484h-6.484zM30.258 42.387h6.484V62.92h-6.484z"/>
        </g>
        <path fill="#000" fill-rule="nonzero" d="M56.194 9.726c0-1.192-.97-2.161-2.162-2.161H48.63V5.666A5.672 5.672 0 0 0 42.964 0a5.622 5.622 0 0 0-4.006 1.66L33.5 7.117 28.043 1.66A5.624 5.624 0 0 0 24.036 0a5.672 5.672 0 0 0-5.665 5.666v1.899h-5.403c-1.192 0-2.162.969-2.162 2.16v4.323c0 1.192.97 2.162 2.162 2.162h41.064c1.192 0 2.162-.97 2.162-2.162V9.726zM40.487 3.187a3.476 3.476 0 0 1 2.477-1.026 3.508 3.508 0 0 1 3.504 3.505v1.899h-10.36l4.38-4.378zM20.532 5.666a3.508 3.508 0 0 1 3.504-3.505c.937 0 1.816.364 2.478 1.027l4.377 4.377H20.532V5.666zm-7.564 8.382V9.726h41.064l.001 4.322H12.968zM12.968 64h41.064V41.306H12.968V64zm2.161-20.532h36.742v18.37H15.129v-18.37z"/>
        <path fill="#000" d="M38.903 57.516h2.162v2.161h-2.162zM43.226 57.516h2.161v2.161h-2.161zM47.548 57.516h2.162v2.161h-2.162zM36 32h-4c-.552 0-1-.45-1-1h-2c0 1.654 1.346 3 3 3h1v1h2v-1h1c1.654 0 3-1.346 3-3v-1c0-1.654-1.346-3-3-3h-4c-.552 0-1-.45-1-1v-1c0-.55.448-1 1-1h4c.552 0 1 .45 1 1h2c0-1.654-1.346-3-3-3h-1v-1h-2v1h-1c-1.654 0-3 1.346-3 3v1c0 1.654 1.346 3 3 3h4c.552 0 1 .45 1 1v1c0 .55-.448 1-1 1zM4.323 15.371h2.16v2.161h-2.16zM4.323 19.694h2.16V32.66h-2.16zM8.645 36.984h2.161v2.161h-2.16zM8.645 21.855h2.161v12.968h-2.16zM56.194 36.984h2.16v2.161h-2.16zM56.194 21.855h2.16v12.968h-2.16zM60.516 15.371h2.161v2.161h-2.16zM60.516 19.694h2.161V32.66h-2.16zM64.839 9.968H67v2.161h-2.161zM64.839 14.29H67v12.968h-2.161zM0 9.968h2.161v2.161H0zM0 14.29h2.161v12.968H0z"/>
    </g>
</svg>
