<svg xmlns="http://www.w3.org/2000/svg" width="48" height="60" viewBox="0 0 48 60">
    <g fill="none" fill-rule="evenodd">
        <circle cx="26.326" cy="34.265" r="13.514" fill="#FFE34C"/>
        <path fill="#000" d="M20.197 37.883c-.222-.074-.443-.221-.665-.295l-.295-.148.074-.37.221-1.845.074-.665.59.295c.075.074.149.074.296.148.074.074.148.074.296.148l.664.221c.222.074.443.148.665.148.221 0 .37.074.59.074.222 0 .37.074.591.074h.739c.148 0 .37-.074.517-.074.148-.074.295-.074.443-.148.148-.074.295-.148.37-.295a1.61 1.61 0 0 0 .295-.37c.073-.147.147-.295.147-.443 0-.147.074-.295 0-.443 0-.147-.074-.295-.074-.443-.073-.147-.147-.295-.221-.369a.577.577 0 0 0-.296-.295c-.073-.074-.221-.148-.369-.222l-.443-.221c-.148-.074-.295-.148-.443-.148-.295-.074-.59-.222-.886-.37l-.886-.442c-.296-.148-.517-.296-.813-.443a4.058 4.058 0 0 1-.664-.517c-.222-.148-.37-.37-.59-.591l-.444-.665a3.6 3.6 0 0 1-.295-.812c-.074-.295-.074-.59-.074-.812 0-.37 0-.739.074-1.034.073-.296.147-.665.295-.96.148-.296.295-.591.443-.813.222-.295.37-.516.665-.738.221-.222.517-.37.812-.59.295-.148.59-.296.886-.37l.148-.074v-2.141h2.511V22.818h.147c.148 0 .296.074.517.074.148.074.37.074.517.148.148 0 .296.074.37.074.073 0 .22.074.369.148l.369.147-.074.37-.222 1.698-.073.59-.517-.147c-.074 0-.222-.074-.37-.148-.073 0-.221-.074-.369-.074-.221-.147-.443-.221-.59-.221-.148 0-.37-.074-.517-.074h-.739c-.221 0-.37.074-.517.074l-.443.221c-.148.074-.221.222-.37.296-.073.148-.147.221-.22.37-.075.147-.075.294-.148.442v.517c0 .148.073.295.147.443.074.148.148.296.222.37l.295.295c.148.074.222.147.37.221l.443.222c.147.074.295.148.443.148.295.073.59.221.886.369.295.147.59.295.812.443.222.148.517.295.739.443.221.148.443.37.664.517.222.148.37.37.517.59l.443.665c.148.222.222.517.296.813.073.295.073.516.073.812 0 .37 0 .664-.073 1.034-.074.295-.148.664-.296.96-.148.295-.295.59-.517.812-.221.222-.443.517-.664.738-.222.222-.517.37-.813.591a5.127 5.127 0 0 1-.96.37l-.147.073v2.142h-2.511v-2.067h-.148c-.295 0-.517-.075-.812-.149-.296-.073-.517-.147-.812-.221-.222.074-.444 0-.665-.074"/>
        <g fill="#231F20" fill-rule="nonzero">
            <path d="M23.89 15.803c-8.198 0-14.844 6.646-14.844 14.843S15.692 45.49 23.89 45.49s14.843-6.72 14.843-14.843c0-8.123-6.646-14.843-14.843-14.843zm0 27.028c-6.72 0-12.26-5.465-12.26-12.259 0-6.794 5.54-12.184 12.26-12.184s12.258 5.464 12.258 12.258c0 6.794-5.539 12.185-12.259 12.185z"/>
            <path d="M47.225 5.76c-.37-.222-.813-.295-1.182-.148-2.585 1.034-5.095 1.551-7.532 1.551-8.566 0-13.514-6.572-13.514-6.646C24.775.147 24.332 0 23.963 0c-.443 0-.812.222-1.034.517-.074.074-4.947 6.572-13.514 6.646-2.437 0-4.947-.517-7.532-1.55-.37-.148-.886-.148-1.181.147-.37.222-.591.665-.591 1.108v27.027c0 9.453 7.384 21.563 23.557 25.92.074 0 .221.074.369.074s.221 0 .37-.074c16.171-4.357 23.556-16.467 23.556-25.92V6.794c-.148-.443-.37-.812-.738-1.034zm-2.068 28.062c0 8.418-6.646 19.2-21.268 23.261C9.268 53.022 2.622 42.24 2.622 33.822V8.64c2.289.738 4.504 1.108 6.72 1.108 7.532 0 12.553-4.283 14.547-6.425 2.068 2.142 7.016 6.425 14.548 6.425 2.215 0 4.43-.37 6.72-1.108v25.182z"/>
        </g>
    </g>
</svg>
