<svg xmlns="http://www.w3.org/2000/svg" width="78" height="53" viewBox="0 0 78 53">
    <g fill="none" fill-rule="evenodd">
        <path fill="#F0D500" d="M34.555 1.669L27.89.613l8.874 19.03L51.13 17.66z"/>
        <path fill="#000" d="M32.491 30.93l-.341 2.317-20.758-3.288.341-2.317zM70.12 28.564a10.728 10.728 0 0 0-8.655-4.23l-.053-2.344c1.598-.021 3.171.25 4.674.807a13.078 13.078 0 0 1 5.877 4.352l-1.842 1.415z"/>
        <path fill="#F0D500" d="M9.281 22.178L.206 31.923l2.473 5.302 14.958-12.597z"/>
        <path fill="#000" d="M22.585 24.958l2.106-.982.993 2.13-2.106.982zM28.84 24.634l2.106-.982.993 2.13-2.105.982z"/>
        <path fill="#000" fill-rule="nonzero" d="M67.658 18.397a17.52 17.52 0 0 0-6.364-1.097L18.73 18.346l.001.03L6.93 8.92 3.12 10.696l6.24 13.383 7.73.848 4.5-2.099-1.016-2.181 40.784-1.003c1.883-.025 3.739.295 5.513.952 3.846 1.426 6.924 4.27 8.668 8.01a1.335 1.335 0 0 1-.634 1.776 8.836 8.836 0 0 1-1.658.58 82.734 82.734 0 0 1-29.753 1.667l-.267 2.327a85.021 85.021 0 0 0 30.58-1.714c.72-.172 1.423-.418 2.091-.73 1.823-.85 2.606-3.042 1.746-4.887-2.009-4.309-5.555-7.586-9.987-9.228zM18.494 21.68l-1.814.845-5.776-.634L6.22 11.844l.402-.187 11.493 9.209.38.814z"/>
        <path fill="#F0D500" d="M19.693 52.316l-6.774-1.073 22.145-24.476 17.113 1.878z"/>
    </g>
</svg>
