<svg xmlns="http://www.w3.org/2000/svg" width="23" height="23">
    <path fill="#677380" fill-rule="evenodd" d="M22.5 22H21v-6.5a1.5 1.5 0 0 0-1.5-1.5h-1a1.5 1.5 0 0 0-1.5 1.5V22h-3V2.5A1.5 1.5 0 0 0 12.5 1h-1A1.5 1.5 0 0 0 10 2.5V22H7V11.5A1.5 1.5 0 0 0 5.5 10h-1A1.5 1.5 0 0 0 3 11.5V22H1V.5a.5.5 0 0 0-1 0v22a.5.5 0 0 0 .5.5h22a.5.5 0 0 0 0-1zM4 22V11.5a.5.5 0 0 1 .5-.5h1a.5.5 0 0 1 .5.5V22H4zm7 0V2.5a.5.5 0 0 1 .5-.5h1a.5.5 0 0 1 .5.5V22h-2zm7 0v-6.5a.5.5 0 0 1 .5-.5h1a.5.5 0 0 1 .5.5V22h-2z"/>
</svg>
