<svg xmlns="http://www.w3.org/2000/svg" width="20" height="20" viewBox="0 0 20 20">
    <g fill="#AC1F22" fill-rule="nonzero">
        <path d="M11 4.964A4.938 4.938 0 0 1 15.036 9H20c-.398-4.783-4.217-8.603-9-9v4.964zM14.906 11c-.403 2.318-2.481 4.09-4.985 4.09-1.186 0-2.276-.4-3.14-1.066L3 17.325A10.24 10.24 0 0 0 9.921 20c5.297 0 9.648-3.969 10.079-9h-5.094zM5.677 12.637a5.04 5.04 0 0 1-.768-2.676C4.91 7.488 6.682 5.434 9 5.035V0C3.968.427 0 4.727 0 9.961 0 12.231.754 14.32 2.01 16l3.667-3.363z"/>
    </g>
</svg>
