<svg xmlns="http://www.w3.org/2000/svg" width="185" height="224" viewBox="0 0 185 224">
    <g fill="none" fill-rule="nonzero">
        <path fill="#B61F24" d="M105.912 62.1c-1.332 0-2.412-1.058-2.412-2.362V28.606l13.798-13.514a2.45 2.45 0 0 1 3.413 0 2.33 2.33 0 0 1 0 3.344L108.31 30.543v29.195c0 1.298-1.07 2.354-2.397 2.362zm41.97-1.351c-1.331 0-2.411-1.058-2.411-2.363V39.918c0-1.307 1.08-2.365 2.414-2.365s2.415 1.058 2.415 2.365v18.468c0 .628-.255 1.23-.708 1.672a2.438 2.438 0 0 1-1.71.69zm-20.359-5.406c-1.332 0-2.412-1.058-2.412-2.362V32.265c0-1.306 1.081-2.365 2.415-2.365s2.415 1.059 2.415 2.365V52.98c0 .627-.255 1.229-.709 1.672a2.438 2.438 0 0 1-1.709.69z"/>
        <path fill="#B61F24" d="M165.008 129.6a2.387 2.387 0 0 1-2.206-1.482 2.412 2.412 0 0 1 .518-2.618l14.623-14.714V91.554l-6.197-6.236v-20.94l-8.3-8.352V39.323L129.12 4.807h-22.104L95.677 16.21v44.76a2.396 2.396 0 0 1-2.389 2.403A2.396 2.396 0 0 1 90.9 60.97V14.242L105.053 0h26.088l37.102 37.334v16.703l8.3 8.352v20.935l6.157 6.236v23.214l-16.019 16.119a2.373 2.373 0 0 1-1.673.707z"/>
        <path fill="#F9A11B" d="M135.32 222.3h-28.033l-9.384-9.441a2.423 2.423 0 0 1 0-3.413 2.389 2.389 0 0 1 3.392 0l7.978 8.026h24.015l20.313-20.435v-24.523a2.407 2.407 0 0 1 2.4-2.414c1.325 0 2.399 1.08 2.399 2.414v26.515L135.32 222.3z"/>
        <path fill="#F9A11B" d="M159.002 189a2.4 2.4 0 0 1-2.22-1.474 2.381 2.381 0 0 1 .522-2.605l12.104-12.05v-15.507l10.288-10.248v-19.647l-2.796-2.788a2.383 2.383 0 0 1-.621-2.31c.222-.824.87-1.468 1.698-1.69a2.408 2.408 0 0 1 2.32.62l4.203 4.185v23.609l-10.289 10.248v15.486l-13.521 13.447a2.4 2.4 0 0 1-1.688.724z"/>
        <path fill="#F9A11B" d="M171.378 161.1h-9.751c-1.285 0-2.327-1.007-2.327-2.25s1.042-2.25 2.327-2.25h9.746c1.285 0 2.327 1.007 2.327 2.25s-1.042 2.25-2.327 2.25h.005z"/>
        <path fill="#B61F24" d="M156.3 70.052a2.396 2.396 0 0 1-2.215-1.465 2.357 2.357 0 0 1 .52-2.588l10.502-10.403a2.413 2.413 0 0 1 2.316-.615c.827.22 1.474.86 1.695 1.68a2.36 2.36 0 0 1-.62 2.294l-10.502 10.403c-.45.446-1.06.695-1.695.694zm-.004 27.148a2.385 2.385 0 0 1-2.396-2.373V79.893a2.387 2.387 0 0 1 2.398-2.376 2.387 2.387 0 0 1 2.399 2.376v14.929a2.362 2.362 0 0 1-.702 1.683 2.407 2.407 0 0 1-1.7.695z"/>
        <path fill="#F9A11B" d="M116.246 207.9a2.4 2.4 0 0 1-1.703-.705L102.6 195.22v-28.106a2.412 2.412 0 0 1 2.41-2.415c1.33 0 2.409 1.081 2.409 2.415v26.129l10.53 10.512c.69.69.896 1.728.523 2.63a2.407 2.407 0 0 1-2.226 1.488v.026zm18.144-8.82a2.4 2.4 0 0 1-1.703-.706l-14.931-14.963v-16.174a2.412 2.412 0 0 1 2.41-2.414c1.33 0 2.409 1.08 2.409 2.414v14.176l13.519 13.548c.69.69.896 1.728.523 2.63a2.407 2.407 0 0 1-2.227 1.489z"/>
        <path fill="#0C4B80" d="M78.591 62.1c-1.335 0-2.418-1.057-2.418-2.36V30.56L63.74 18.433a2.322 2.322 0 0 1 0-3.341 2.463 2.463 0 0 1 3.423 0L81 28.596v31.128a2.332 2.332 0 0 1-.7 1.676 2.449 2.449 0 0 1-1.709.7zM37.52 60.58c-1.336 0-2.419-1.057-2.419-2.361V39.764c0-1.305 1.084-2.363 2.421-2.363 1.338 0 2.422 1.058 2.422 2.363v18.45a2.332 2.332 0 0 1-.709 1.674 2.45 2.45 0 0 1-1.715.692zm19.447-5.232c-1.336 0-2.419-1.057-2.419-2.36V32.286c0-1.305 1.084-2.363 2.422-2.363 1.337 0 2.421 1.058 2.421 2.363v20.7c0 .627-.256 1.229-.71 1.671a2.45 2.45 0 0 1-1.714.69z"/>
        <path fill="#0C4B80" d="M19.734 129.6a2.425 2.425 0 0 1-1.71-.702L1.8 112.774V89.555l6.277-6.236V62.39l8.406-8.352V37.334L54.062 0H79.48A2.411 2.411 0 0 1 81.9 2.403a2.411 2.411 0 0 1-2.42 2.404H56.065L21.32 39.323v16.703l-8.406 8.352v20.935l-6.277 6.241v19.232L21.45 125.5c.693.687.9 1.72.525 2.618a2.418 2.418 0 0 1-2.235 1.482h-.005z"/>
        <path fill="#1A6935" d="M77.213 223.2H49.198L26.1 200.174v-26.258c0-1.32 1.074-2.39 2.398-2.39a2.394 2.394 0 0 1 2.398 2.39V198.2l20.301 20.238H75.24l14.465-14.42v-36.928c0-1.32 1.073-2.391 2.398-2.391a2.394 2.394 0 0 1 2.398 2.39v38.888L77.213 223.2z"/>
        <path fill="#1A6935" d="M25.498 189.9a2.396 2.396 0 0 1-1.698-.7L10.29 175.71v-15.526L0 149.907V126.23l4.936-4.928a2.404 2.404 0 0 1 3.396 0 2.395 2.395 0 0 1 0 3.39l-3.528 3.523v19.707L15.092 158.2v15.52l12.104 12.09c.687.684.893 1.716.521 2.612a2.4 2.4 0 0 1-2.219 1.478z"/>
        <path fill="#1A6935" d="M22.87 161.1h-9.74c-1.287 0-2.33-1.007-2.33-2.25s1.043-2.25 2.33-2.25h9.74c1.287 0 2.33 1.007 2.33 2.25s-1.043 2.25-2.33 2.25z"/>
        <path fill="#0C4B80" d="M28.2 70.055a2.401 2.401 0 0 1-1.695-.693L16.002 58.954a2.36 2.36 0 0 1-.62-2.294c.221-.82.867-1.46 1.694-1.679.828-.22 1.71.015 2.315.615l10.504 10.407c.686.679.891 1.7.52 2.588a2.395 2.395 0 0 1-2.215 1.464zm0 27.145a2.384 2.384 0 0 1-2.395-2.373V79.895a2.387 2.387 0 0 1 2.398-2.376 2.387 2.387 0 0 1 2.397 2.376v14.927a2.362 2.362 0 0 1-.701 1.683 2.406 2.406 0 0 1-1.699.695z"/>
        <path fill="#1A6935" d="M40.5 142.652c0 .596-.252 1.168-.7 1.59a2.465 2.465 0 0 1-1.687.658H23.09c-1.32 0-2.39-1.007-2.39-2.25s1.07-2.25 2.39-2.25h15.018a2.465 2.465 0 0 1 1.693.658c.449.423.7.997.699 1.594z"/>
        <path fill="#F9A11B" d="M163.8 142.652c0 .596-.252 1.168-.7 1.59a2.466 2.466 0 0 1-1.688.658H146.39c-1.32 0-2.391-1.007-2.391-2.25s1.07-2.25 2.39-2.25h15.022c.634 0 1.242.237 1.69.66.448.423.7.995.698 1.592z"/>
        <path fill="#1A6935" d="M67.316 208.8a2.41 2.41 0 1 1-1.707-4.117l10.56-10.553v-26.117a2.414 2.414 0 0 1 4.831 0v28.094l-11.977 11.988a2.409 2.409 0 0 1-1.707.705zm-18.1-8.96a2.41 2.41 0 1 1-1.707-4.117l13.55-13.54v-14.17a2.414 2.414 0 0 1 4.83 0v16.167l-14.966 14.956a2.409 2.409 0 0 1-1.708.705z"/>
        <path fill="#0C4B80" d="M41.75 101.7V63.328H81V56.7H35.1v45z"/>
        <path fill="#B51F24" d="M103.5 63.325h40.169V101.7h6.631v-45h-46.8z"/>
        <path fill="#F8A01B" d="M143.669 124.2v40.14H103.5V171h46.8v-46.8h-6.631z"/>
        <path fill="#1A6935" d="M81 163.526H41.75V123.3H35.1v46.8H81v-6.574z"/>
        <path fill="#231F20" d="M63.42 94.948a9.676 9.676 0 0 0 7.444-3.524v4.074a13.268 13.268 0 0 1-7.444 2.271c-6.093 0-11.01-3.748-11.01-8.361 0-4.614 4.917-8.388 11.01-8.388a13.217 13.217 0 0 1 7.444 2.267v4.11a9.686 9.686 0 0 0-7.444-3.566c-4.328 0-7.807 2.49-7.807 5.602s3.48 5.515 7.807 5.515zM84.57 81c6.093 0 11.01 3.774 11.01 8.387 0 4.614-4.917 8.382-11.01 8.382s-11.01-3.748-11.01-8.361c0-4.614 4.942-8.408 11.01-8.408zm0 13.953c4.328 0 7.807-2.46 7.807-5.566s-3.484-5.601-7.807-5.601-7.807 2.49-7.807 5.601c0 3.112 3.51 5.561 7.807 5.561v.005zm13.844 2.236V81.586h8.625c4.691 0 10.744 2.154 10.744 7.801 0 5.648-6.042 7.802-10.744 7.802h-8.625zm3.07-2.796h5.279c3.284 0 7.807-1.018 7.807-5.006 0-3.987-4.523-5.006-7.807-5.006h-5.26l-.02 10.012zm19.123-12.807h15.588v2.795h-12.498v3.244h10.533v2.796h-10.564v3.972h12.529v2.796h-15.588V81.586zm-81.703 38.982H27.9V104.97h9.439c2.896 0 6.543.616 6.543 4.39-.059.893-.42 1.74-1.023 2.404a4.8 4.8 0 0 1 2.415 3.941c-.015 3.453-3.469 4.863-6.37 4.863zm-7.94-12.802v3.101h6.917c1.126 0 2.809-.193 2.809-1.482 0-1.563-2.046-1.624-3.371-1.624l-6.355.005zm7.864 10.012c1.407 0 3.228-.336 3.228-2.037 0-1.701-1.714-2.124-3.146-2.124h-7.946v4.14l7.864.02zm12.355 2.79h-3.07V104.97h9.521c2.865 0 6.14 1.09 6.14 4.476 0 2.404-1.536 3.636-3.454 4.166l4.497 6.961h-3.658l-4.216-6.62h-5.76v6.615zm0-9.42h6.139c2.358 0 3.233-.586 3.233-1.707 0-1.12-.87-1.68-3.233-1.68h-6.14v3.386zm16.744-6.178h15.589v2.796H71.017v3.244h10.534v2.796H70.987v3.972h12.529v2.795H67.927V104.97zm31.208 11.04h-8.431l-2.952 4.558h-3.653l10.815-16.718 10.815 16.718h-3.652l-2.942-4.557zm-6.605-2.795h4.804l-2.415-3.718-2.389 3.718zm17.722 7.353h-3.07V104.97h3.07v7.018l8.119-7.018h4.16l-6.099 5.342 8.42 10.256h-3.785l-7.106-8.25-3.71 3.132v5.118zm16.136-15.598h15.603v2.796h-12.498v3.244h10.534v2.796h-10.57v3.972h12.534v2.795h-15.603V104.97zm21.364 15.598h-3.07V104.97h9.521c2.865 0 6.14 1.09 6.14 4.476 0 2.404-1.535 3.636-3.454 4.166l4.497 6.961h-3.637l-4.216-6.62h-5.781v6.615zm0-9.42h6.18c2.359 0 3.228-.586 3.228-1.707 0-1.12-.87-1.68-3.228-1.68h-6.18v3.386zm-82.96 28.1H61.85l-1.024 1.593h-1.273l3.775-5.84 3.776 5.84H65.83l-1.039-1.593zm-2.308-.978h1.678l-.844-1.289-.834 1.289zm7.694 2.566h-1.09v-5.449h3.326c1.023 0 2.149.382 2.149 1.564.013.715-.5 1.333-1.208 1.456l1.571 2.434h-1.233L72.2 138.51h-2.046l.025 2.327zm0-3.29h2.16c.823 0 1.13-.203 1.13-.595 0-.392-.302-.586-1.13-.586h-2.16v1.182zm6.482-1.18v-.979h6.37v.978h-2.65v4.471h-1.06v-4.47h-2.66zm8.447 4.47v-5.449h1.07v5.45h-1.07zm3.934-5.449h5.449v.978h-4.37v1.126H93.8v.977H90.11v2.363h-1.069v-5.444zm7.674 5.45v-5.45h1.023v5.45h-1.023zm7.413-.8a3.377 3.377 0 0 0 2.599-1.233v1.426a4.62 4.62 0 0 1-2.599.78c-2.128 0-3.847-1.31-3.847-2.924 0-1.614 1.719-2.928 3.847-2.928a4.62 4.62 0 0 1 2.599.79v1.436a3.382 3.382 0 0 0-2.599-1.253c-1.535 0-2.727.87-2.727 1.955s1.218 1.95 2.727 1.95zm5.428.8v-5.45h1.07v5.45h-1.07zm8.385-1.59H115l-1.024 1.594h-1.274l3.776-5.84 3.77 5.835h-1.278l-1.029-1.588zm-2.297-.977h1.678l-.854-1.289-.824 1.289zm7.674 1.594h4.267v.977h-5.331v-5.448h1.064v4.47zm-73.67 9.12v-5.449h1.07v5.45h-1.07zm3.96 0v-5.892l5.31 4.15v-3.702h1.07v5.862l-5.311-4.074v3.661l-1.07-.005zm8.405-4.47v-.979h6.37v.978h-2.65v4.471h-1.07v-4.47h-2.65zm8.375-.979h5.449v.978h-4.37v1.126h3.679v.977h-3.689v1.385h4.375v.978h-5.444v-5.444zm9.03 4.477h4.267v.977h-5.336v-5.449h1.069v4.472zm7.346 0h4.267v.977h-5.336v-5.449h1.07v4.472zm6.37.972v-5.449h1.023v5.45h-1.023zm10.81-2.46c0 1.788-1.535 2.659-3.397 2.659-2.128 0-3.847-1.309-3.847-2.923s1.719-2.928 3.847-2.928a4.62 4.62 0 0 1 2.599.789v1.436a3.382 3.382 0 0 0-2.6-1.253c-1.534 0-2.726.871-2.726 1.956s1.218 1.945 2.727 1.945c.951 0 2.046-.275 2.225-1.018h-1.657v-.968h2.824l.005.306zm2.491-2.989h5.449v.978h-4.37v1.126h3.68v.977h-3.69v1.385h4.375v.978h-5.444v-5.444zm7.966 5.45v-5.893l5.31 4.15v-3.702h1.05v5.862l-5.311-4.074v3.661l-1.05-.005zm12.713-.8a3.377 3.377 0 0 0 2.6-1.233v1.426a4.62 4.62 0 0 1-2.6.78c-2.128 0-3.847-1.31-3.847-2.924 0-1.614 1.719-2.928 3.847-2.928a4.62 4.62 0 0 1 2.6.805v1.436a3.382 3.382 0 0 0-2.6-1.253c-1.535 0-2.727.871-2.727 1.956 0 1.084 1.213 1.935 2.727 1.935zm5.346-4.65h5.449v.978h-4.359v1.126h3.678v.977h-3.678v1.385h4.374v.978h-5.464v-5.444zm19.548 21.964v-.911h3.868v.911h-1.458v2.434h-.972V165.5h-1.438zm5.014 2.434H156l1.392-3.84 1.611 2.455 1.622-2.454 1.376 3.84h-1.023l-.635-1.707-1.345 2.073-1.356-2.073-.619 1.706z"/>
    </g>
</svg>
