<svg xmlns="http://www.w3.org/2000/svg" width="44" height="45" viewBox="0 0 44 45">
    <g fill="none" fill-rule="nonzero">
        <circle cx="21.843" cy="22.232" r="21.843" fill="#007AB9"/>
        <path fill="#F1F2F2" d="M34.895 23.99v9.006h-5.221v-8.402c0-2.11-.754-3.55-2.645-3.55-1.442 0-2.3.97-2.678 1.908-.137.336-.173.802-.173 1.273v8.77h-5.221s.07-14.23 0-15.703h5.222v2.225c-.01.018-.026.035-.035.052h.035v-.052c.693-1.067 1.93-2.594 4.705-2.594 3.435 0 6.01 2.245 6.01 7.067zm-21.4-14.268c-1.787 0-2.955 1.173-2.955 2.713 0 1.508 1.134 2.714 2.886 2.714h.034c1.82 0 2.953-1.206 2.953-2.714-.034-1.54-1.132-2.713-2.919-2.713zM10.85 32.996h5.22V17.292h-5.22v15.704z"/>
    </g>
</svg>
