<svg xmlns="http://www.w3.org/2000/svg" width="12" height="14" viewBox="0 0 12 14">
    <path fill="#959494" fill-rule="nonzero" d="M6 0C4.114 0 2.571 1.575 2.571 3.5v.875H.857c-.514 0-.857.35-.857.875v7.875c0 .525.343.875.857.875h10.286c.514 0 .857-.35.857-.875V5.25c0-.525-.343-.875-.857-.875H9.429V3.5C9.429 1.575 7.886 0 6 0zm.857 10.238v1.137H5.143v-1.137c-.514-.263-.857-.875-.857-1.488C4.286 7.787 5.057 7 6 7s1.714.787 1.714 1.75c0 .613-.343 1.225-.857 1.488zm.857-5.863H4.286V3.5c0-.962.771-1.75 1.714-1.75s1.714.788 1.714 1.75v.875z" opacity=".7"/>
</svg>
