<svg xmlns="http://www.w3.org/2000/svg" width="22" height="20" viewBox="0 0 22 20">
    <g fill="#AC1F22" fill-rule="nonzero">
        <path d="M15.514.111a.992.992 0 0 0-.955.024l-7.3 4.31H3.765C1.688 4.444 0 6.038 0 8c0 1.96 1.688 3.556 3.765 3.556h3.494l7.301 4.309a.982.982 0 0 0 .954.024.883.883 0 0 0 .486-.778V.89a.883.883 0 0 0-.486-.778zM18 7h4v2h-4zM16.893 3.759l3.176-1.819.917 1.575-3.177 1.818zM16.892 12.605l.917-1.575 3.176 1.819-.916 1.574zM7.022 14H4l2.353 5.183a1.386 1.386 0 0 0 1.827.697 1.376 1.376 0 0 0 .7-1.82L7.022 14z"/>
    </g>
</svg>
