<svg xmlns="http://www.w3.org/2000/svg" width="44" height="44" viewBox="0 0 44 44">
    <g fill="none" fill-rule="nonzero">
        <circle cx="21.844" cy="21.843" r="21.843" fill="#55ACEE"/>
        <path fill="#F1F2F2" d="M35.224 15.698c-.936.415-1.943.696-3 .821a5.235 5.235 0 0 0 2.297-2.888 10.452 10.452 0 0 1-3.316 1.267 5.216 5.216 0 0 0-3.812-1.648 5.222 5.222 0 0 0-5.085 6.411 14.821 14.821 0 0 1-10.762-5.456 5.199 5.199 0 0 0-.707 2.625 5.22 5.22 0 0 0 2.322 4.346 5.184 5.184 0 0 1-2.364-.654v.066c0 2.53 1.8 4.64 4.188 5.12a5.203 5.203 0 0 1-2.358.09 5.227 5.227 0 0 0 4.878 3.626 10.476 10.476 0 0 1-6.486 2.235c-.42 0-.837-.025-1.244-.073a14.769 14.769 0 0 0 8.003 2.346c9.603 0 14.855-7.956 14.855-14.856 0-.226-.005-.452-.015-.675a10.588 10.588 0 0 0 2.606-2.703z"/>
    </g>
</svg>
