<svg xmlns="http://www.w3.org/2000/svg" width="48" height="48" viewBox="0 0 48 48">
    <g fill="none" fill-rule="nonzero">
        <circle cx="23.997" cy="23.997" r="23.997" fill="#D42428"/>
        <path fill="#CC202D" d="M40.964 7.026c9.371 9.372 9.372 24.566 0 33.938-9.371 9.371-24.567 9.372-33.939 0L40.964 7.026z"/>
        <path fill="#BA202E" d="M47.51 28.803L35.635 16.926l-14.007 1.595-8.473 13.117L28.986 47.47c9.308-1.969 16.626-9.332 18.525-18.667z"/>
        <path fill="#FFF" d="M36.554 19.366a3.641 3.641 0 0 0-3.64-3.642H15.835a3.64 3.64 0 0 0-3.64 3.642v9.766a3.64 3.64 0 0 0 3.64 3.642h17.079c2.01 0 3.64-1.63 3.64-3.642v-9.766zm-14.616 9.003v-9.173l6.957 4.587-6.957 4.586z"/>
    </g>
</svg>
