<svg width="47" height="47" viewBox="0 0 47 47" fill="none" xmlns="http://www.w3.org/2000/svg">
<circle opacity="0.5" cx="23.5" cy="23.5" r="23" stroke="#E6EDF2"/>
<g clip-path="url(#clip0_1181_2095)">
<path d="M26.1372 17.3201C25.9622 17.3201 25.8203 17.1782 25.8203 17.0032V14.5054C25.8203 13.8191 26.3787 13.2607 27.065 13.2607C27.7513 13.2607 28.3096 13.8191 28.3096 14.5054V15.2904C28.3096 15.4654 28.1678 15.6073 27.9927 15.6073C27.8177 15.6073 27.6758 15.4654 27.6758 15.2904V14.5054C27.6758 14.1686 27.4018 13.8945 27.065 13.8945C26.7281 13.8945 26.4541 14.1686 26.4541 14.5054V17.0032C26.4541 17.1782 26.3123 17.3201 26.1372 17.3201Z" fill="#7B60EC"/>
<path d="M29.7427 17.3201C29.5676 17.3201 29.4258 17.1782 29.4258 17.0032V14.5054C29.4258 13.8191 29.9841 13.2607 30.6704 13.2607C31.3567 13.2607 31.9151 13.8191 31.9151 14.5054V15.2904C31.9151 15.4654 31.7732 15.6073 31.5982 15.6073C31.4231 15.6073 31.2813 15.4654 31.2813 15.2904V14.5054C31.2813 14.1686 31.0072 13.8945 30.6704 13.8945C30.3336 13.8945 30.0596 14.1686 30.0596 14.5054V17.0032C30.0596 17.1782 29.9177 17.3201 29.7427 17.3201Z" fill="#7B60EC"/>
<path d="M15.3677 17.3201C15.1926 17.3201 15.0508 17.1782 15.0508 17.0032V14.5054C15.0508 13.8191 15.6091 13.2607 16.2954 13.2607C16.9818 13.2607 17.5401 13.8191 17.5401 14.5054V15.2904C17.5401 15.4654 17.3983 15.6073 17.2232 15.6073C17.0481 15.6073 16.9063 15.4654 16.9063 15.2904V14.5054C16.9063 14.1686 16.6323 13.8945 16.2954 13.8945C15.9586 13.8945 15.6846 14.1686 15.6846 14.5054V17.0032C15.6846 17.1782 15.5427 17.3201 15.3677 17.3201Z" fill="#7B60EC"/>
<path d="M18.9692 17.3201C18.7942 17.3201 18.6523 17.1782 18.6523 17.0032V14.5054C18.6523 13.8191 19.2107 13.2607 19.897 13.2607C20.5833 13.2607 21.1416 13.8191 21.1416 14.5054V15.2904C21.1416 15.4654 20.9998 15.6073 20.8247 15.6073C20.6497 15.6073 20.5078 15.4654 20.5078 15.2904V14.5054C20.5078 14.1686 20.2338 13.8945 19.897 13.8945C19.5602 13.8945 19.2861 14.1686 19.2861 14.5054V17.0032C19.2861 17.1782 19.1443 17.3201 18.9692 17.3201Z" fill="#7B60EC"/>
<path d="M33.0331 15.0049H13.9669C13.4329 15.0049 13 15.4378 13 15.9718V18.322H34V15.9718C34 15.4378 33.5671 15.0049 33.0331 15.0049Z" fill="#684AE9"/>
<path d="M33.538 33.7395H13.462C13.2069 33.7395 13 33.5326 13 33.2774V18.3223H34V33.2774C34 33.5326 33.7931 33.7395 33.538 33.7395Z" fill="#F6F0FA"/>
<path d="M30.3476 32.4717H13V33.2772C13 33.5324 13.2069 33.7393 13.462 33.7393H30.1651L30.3476 32.4717Z" fill="#E5DBEA"/>
<path d="M33.0332 15.0049H31.7656C32.2996 15.0049 32.7326 15.4378 32.7326 15.9718V18.322H34.0002V15.9718C34.0002 15.4378 33.5673 15.0049 33.0332 15.0049Z" fill="#26A6FE"/>
<path d="M33.9981 29.5896V18.3223H32.7305V29.7952L33.9981 29.5896Z" fill="#E5DBEA"/>
<path d="M33.999 29.5898H30.6261C30.3709 29.5898 30.1641 29.7967 30.1641 30.0519V33.7397L33.999 29.5898Z" fill="#E5DBEA"/>
<path d="M16.2012 22.9121C15.6931 22.9121 15.2812 22.5002 15.2812 21.9922C15.2812 21.4841 15.6931 21.0723 16.2012 21.0723C16.7092 21.0723 17.1211 21.4841 17.1211 21.9922C17.1211 22.5002 16.7092 22.9121 16.2012 22.9121Z" fill="#684AE9"/>
<path d="M19.8496 22.9121C19.3415 22.9121 18.9297 22.5002 18.9297 21.9922C18.9297 21.4841 19.3415 21.0723 19.8496 21.0723C20.3576 21.0723 20.7695 21.4841 20.7695 21.9922C20.7695 22.5002 20.3576 22.9121 19.8496 22.9121Z" fill="#684AE9"/>
<path d="M23.5019 22.9121C22.9939 22.9121 22.582 22.5002 22.582 21.9922C22.582 21.4841 22.9939 21.0723 23.5019 21.0723C24.01 21.0723 24.4218 21.4841 24.4218 21.9922C24.4218 22.5002 24.01 22.9121 23.5019 22.9121Z" fill="#684AE9"/>
<path d="M27.1504 22.9121C26.6423 22.9121 26.2305 22.5002 26.2305 21.9922C26.2305 21.4841 26.6423 21.0723 27.1504 21.0723C27.6584 21.0723 28.0703 21.4841 28.0703 21.9922C28.0703 22.5002 27.6584 22.9121 27.1504 22.9121Z" fill="#684AE9"/>
<path d="M30.7988 22.9121C30.2908 22.9121 29.8789 22.5002 29.8789 21.9922C29.8789 21.4841 30.2908 21.0723 30.7988 21.0723C31.3069 21.0723 31.7187 21.4841 31.7187 21.9922C31.7187 22.5002 31.3069 22.9121 30.7988 22.9121Z" fill="#684AE9"/>
<path d="M16.2012 26.8339C15.6931 26.8339 15.2812 26.4221 15.2812 25.914C15.2812 25.406 15.6931 24.9941 16.2012 24.9941C16.7092 24.9941 17.1211 25.406 17.1211 25.914C17.1211 26.4221 16.7092 26.8339 16.2012 26.8339Z" fill="#684AE9"/>
<path d="M19.8496 26.8339C19.3415 26.8339 18.9297 26.4221 18.9297 25.914C18.9297 25.406 19.3415 24.9941 19.8496 24.9941C20.3576 24.9941 20.7695 25.406 20.7695 25.914C20.7695 26.4221 20.3576 26.8339 19.8496 26.8339Z" fill="#684AE9"/>
<path d="M23.5019 26.8339C22.9939 26.8339 22.582 26.4221 22.582 25.914C22.582 25.406 22.9939 24.9941 23.5019 24.9941C24.01 24.9941 24.4218 25.406 24.4218 25.914C24.4218 26.4221 24.01 26.8339 23.5019 26.8339Z" fill="#684AE9"/>
<path d="M27.1504 26.8339C26.6423 26.8339 26.2305 26.4221 26.2305 25.914C26.2305 25.406 26.6423 24.9941 27.1504 24.9941C27.6584 24.9941 28.0703 25.406 28.0703 25.914C28.0703 26.4221 27.6584 26.8339 27.1504 26.8339Z" fill="#684AE9"/>
<path d="M30.7988 26.8339C30.2908 26.8339 29.8789 26.4221 29.8789 25.914C29.8789 25.406 30.2908 24.9941 30.7988 24.9941C31.3069 24.9941 31.7187 25.406 31.7187 25.914C31.7187 26.4221 31.3069 26.8339 30.7988 26.8339Z" fill="#684AE9"/>
<path d="M16.2012 30.7548C15.6931 30.7548 15.2812 30.343 15.2812 29.8349C15.2812 29.3269 15.6931 28.915 16.2012 28.915C16.7092 28.915 17.1211 29.3269 17.1211 29.8349C17.1211 30.343 16.7092 30.7548 16.2012 30.7548Z" fill="#684AE9"/>
<path d="M19.8496 30.7548C19.3415 30.7548 18.9297 30.343 18.9297 29.8349C18.9297 29.3269 19.3415 28.915 19.8496 28.915C20.3576 28.915 20.7695 29.3269 20.7695 29.8349C20.7695 30.343 20.3576 30.7548 19.8496 30.7548Z" fill="#684AE9"/>
<path d="M23.5019 30.7548C22.9939 30.7548 22.582 30.343 22.582 29.8349C22.582 29.3269 22.9939 28.915 23.5019 28.915C24.01 28.915 24.4218 29.3269 24.4218 29.8349C24.4218 30.343 24.01 30.7548 23.5019 30.7548Z" fill="#684AE9"/>
<path d="M27.1504 30.7548C26.6423 30.7548 26.2305 30.343 26.2305 29.8349C26.2305 29.3269 26.6423 28.915 27.1504 28.915C27.6584 28.915 28.0703 29.3269 28.0703 29.8349C28.0703 30.343 27.6584 30.7548 27.1504 30.7548Z" fill="#684AE9"/>
<path d="M16.9063 14.5054V14.8396H17.5401V14.5054C17.5401 13.8191 16.9818 13.2607 16.2954 13.2607C15.6091 13.2607 15.0508 13.8191 15.0508 14.5054V17.0032C15.0508 17.1782 15.1926 17.3201 15.3677 17.3201C15.5427 17.3201 15.6846 17.1782 15.6846 17.0032V14.5054C15.6846 14.1686 15.9586 13.8945 16.2954 13.8945C16.6323 13.8945 16.9063 14.1686 16.9063 14.5054Z" fill="#10213A"/>
<path d="M20.5078 14.5054V14.8396H21.1416V14.5054C21.1416 13.8191 20.5833 13.2607 19.897 13.2607C19.2107 13.2607 18.6523 13.8191 18.6523 14.5054V17.0032C18.6523 17.1782 18.7942 17.3201 18.9692 17.3201C19.1443 17.3201 19.2861 17.1782 19.2861 17.0032V14.5054C19.2861 14.1686 19.5602 13.8945 19.897 13.8945C20.2338 13.8945 20.5078 14.1686 20.5078 14.5054Z" fill="#10213A"/>
<path d="M27.6758 14.5054V14.8396H28.3096V14.5054C28.3096 13.8191 27.7513 13.2607 27.065 13.2607C26.3787 13.2607 25.8203 13.8191 25.8203 14.5054V17.0032C25.8203 17.1782 25.9622 17.3201 26.1372 17.3201C26.3123 17.3201 26.4541 17.1782 26.4541 17.0032V14.5054C26.4541 14.1686 26.7281 13.8945 27.065 13.8945C27.4018 13.8945 27.6758 14.1686 27.6758 14.5054Z" fill="#10213A"/>
<path d="M31.2813 14.5054V14.8396H31.9151V14.5054C31.9151 13.8191 31.3567 13.2607 30.6704 13.2607C29.9841 13.2607 29.4258 13.8191 29.4258 14.5054V17.0032C29.4258 17.1782 29.5676 17.3201 29.7427 17.3201C29.9177 17.3201 30.0596 17.1782 30.0596 17.0032V14.5054C30.0596 14.1686 30.3336 13.8945 30.6704 13.8945C31.0072 13.8945 31.2813 14.1686 31.2813 14.5054Z" fill="#10213A"/>
</g>
<defs>
<clipPath id="clip0_1181_2095">
<rect width="21" height="21" fill="white" transform="translate(13 13)"/>
</clipPath>
</defs>
</svg>
