<svg width="47" height="47" viewBox="0 0 47 47" fill="none" xmlns="http://www.w3.org/2000/svg">
<circle opacity="0.5" cx="23.5" cy="23.5" r="23" stroke="#E6EDF2"/>
<g clip-path="url(#clip0_1181_2008)">
<path d="M27.0672 28.2591V25.4834H19.9297V28.2591L23.4984 31.4313L27.0672 28.2591Z" fill="#E6DCEB"/>
<path d="M32.5882 29.5566L27.6814 28.4021C27.6073 28.3847 27.5391 28.355 27.4754 28.3192L23.5012 30.6374L19.682 28.207C19.5831 28.3001 19.4604 28.3693 19.321 28.4021L14.4143 29.5567C13.6978 29.7252 13.1914 30.3646 13.1914 31.1006V34.2062C13.1914 34.6443 13.5465 34.9993 13.9845 34.9993H33.0178C33.4559 34.9993 33.8109 34.6442 33.8109 34.2062V31.1006C33.811 30.3645 33.3046 29.7252 32.5882 29.5566Z" fill="#E6DCEB"/>
<path d="M19.9297 25.4834V28.412C24.4254 30.0318 27.0672 25.9779 27.0672 25.9779V25.4834H19.9297V25.4834Z" fill="#E6DCEB"/>
<path d="M18.3438 16.3633L18.6893 23.9653C18.7215 24.6754 19.0698 25.334 19.6385 25.7606L21.278 26.9903C21.6899 27.2991 22.1907 27.4661 22.7055 27.4661H24.2917C24.8065 27.4661 25.3074 27.2991 25.7192 26.9903L27.3588 25.7606C27.9275 25.334 28.2757 24.6755 28.308 23.9653L28.6535 16.3633H18.3438Z" fill="#E6DCEB"/>
<path d="M22.3091 17.9494C23.8952 17.9494 26.2743 17.5529 26.8387 16.3633H18.3438L18.6893 23.9653C18.7215 24.6754 19.0698 25.334 19.6385 25.7606L21.2781 26.9903C21.6899 27.2991 22.1908 27.4661 22.7056 27.4661H23.4986C22.7056 27.4661 21.1195 25.88 21.1195 23.8974C21.1195 22.9277 21.1195 20.3286 21.1195 19.139C21.1195 18.7425 21.516 17.9494 22.3091 17.9494Z" fill="#E5DBEA"/>
<path d="M16.1024 32.4263L13.5329 30.1182C13.3176 30.3908 13.1914 30.7339 13.1914 31.1011V34.2067C13.1914 34.6448 13.5465 34.9998 13.9845 34.9998H16.7602V33.9013C16.7601 33.3385 16.521 32.8023 16.1024 32.4263Z" fill="#D3C2F0"/>
<path d="M30.8999 32.4263L33.4694 30.1182C33.6847 30.3908 33.8109 30.7339 33.8109 31.1011V34.2067C33.8109 34.6448 33.4559 34.9998 33.0179 34.9998H30.2422V33.9013C30.2422 33.3385 30.4813 32.8023 30.8999 32.4263Z" fill="#D3C2F0"/>
<path d="M24.4905 35.0004H22.5078L22.7556 31.4316H24.2426L24.4905 35.0004Z" fill="#5B5D6E"/>
<path d="M24.4905 30.6387H22.5078V31.385C22.5078 31.6298 22.7063 31.8283 22.9511 31.8283H24.0471C24.292 31.8283 24.4904 31.6298 24.4904 31.385V30.6387H24.4905Z" fill="#515262"/>
<path d="M19.8761 27.3762L23.5005 30.6382C23.5005 30.6382 22.4855 31.1506 21.2329 32.1834C20.9745 32.3964 20.5836 32.3101 20.445 32.0053L18.7422 28.2591L19.2809 27.4511C19.4149 27.2498 19.6963 27.2145 19.8761 27.3762Z" fill="#DBCDE2"/>
<path d="M27.1245 27.3762L23.5 30.6382C23.5 30.6382 24.515 31.1506 25.7676 32.1834C26.026 32.3964 26.4169 32.3101 26.5555 32.0053L28.2583 28.2591L27.7196 27.4511C27.5855 27.2498 27.3041 27.2145 27.1245 27.3762Z" fill="#DBCDE2"/>
<path d="M25.9023 13.7366L26.2741 16.3636C27.971 16.703 28.2155 19.366 28.2508 20.1266C28.2571 20.2647 28.3012 20.398 28.3761 20.5141L29.0235 21.5184C29.0235 21.5184 28.8019 19.858 29.8166 18.7427C29.8166 18.7427 30.165 12.1504 25.9023 13.7366Z" fill="#1B2B42"/>
<path d="M29.4233 21.3487L28.9757 23.1393C28.9226 23.3515 28.732 23.5004 28.5132 23.5004C28.2727 23.5004 28.0699 23.3213 28.0401 23.0828L27.8112 21.2513C27.7499 20.7611 28.1321 20.3281 28.6261 20.3281H28.6265C29.1609 20.3282 29.5529 20.8303 29.4233 21.3487Z" fill="#E5DBEA"/>
<path d="M18.7235 13.0256L19.31 13.4262C16.6583 15.3841 17.1539 18.7422 17.1539 18.7422C17.9469 19.5352 17.9469 21.5179 17.9469 21.5179L18.74 20.7249C18.74 20.7249 18.4339 18.4339 19.9295 17.5526C21.3174 16.7348 22.5318 17.1561 23.7709 17.1561C27.0918 17.1561 28.0212 15.9045 27.8601 14.3804C27.7768 13.5918 26.571 11.949 23.4983 12.0012C22.2583 12.0223 19.9296 12.3977 18.7235 13.0256Z" fill="#10213A"/>
<path d="M18.4922 16.8086C18.4922 16.8086 18.0709 15.1482 19.31 13.4258C16.6583 15.3836 17.1539 18.7418 17.1539 18.7418C17.9469 19.5348 17.9469 21.5175 17.9469 21.5175L18.74 20.7244C18.74 20.7244 18.4339 18.4335 19.9295 17.5522C21.3174 16.7343 22.5318 17.1557 23.7709 17.1557C24.311 17.1557 24.7817 17.1195 25.2009 17.0575C22.6434 17.1432 21.1358 15.206 18.4922 16.8086Z" fill="#1B2B42"/>
<path d="M17.5757 21.3487L18.0234 23.1393C18.0764 23.3515 18.2671 23.5004 18.4859 23.5004C18.7263 23.5004 18.9291 23.3213 18.9589 23.0828L19.1879 21.2513C19.2492 20.7611 18.867 20.3281 18.3729 20.3281H18.3726C17.8382 20.3282 17.4461 20.8303 17.5757 21.3487Z" fill="#E6DCEB"/>
<path d="M28.6566 34.207H25.8809C25.6619 34.207 25.4844 34.3846 25.4844 34.6036V35.0001H29.0531V34.6036C29.0531 34.3846 28.8756 34.207 28.6566 34.207Z" fill="#DBCDE2"/>
</g>
<defs>
<clipPath id="clip0_1181_2008">
<rect width="23" height="23" fill="white" transform="translate(12 12)"/>
</clipPath>
</defs>
</svg>
