<svg width="23" height="23" viewBox="0 0 23 23" fill="none" xmlns="http://www.w3.org/2000/svg">
<g clip-path="url(#clip0_1456_5156)">
<path d="M15.0672 16.26V13.4844H7.92969V16.26L11.4984 19.4323L15.0672 16.26Z" fill="#E6DCEB"/>
<path d="M20.5882 17.5566L15.6814 16.4021C15.6073 16.3847 15.5391 16.355 15.4754 16.3192L11.5012 18.6374L7.682 16.207C7.58312 16.3001 7.4604 16.3693 7.32101 16.4021L2.41426 17.5567C1.69776 17.7252 1.19141 18.3646 1.19141 19.1006V22.2062C1.19141 22.6443 1.54647 22.9993 1.98445 22.9993H21.0178C21.4559 22.9993 21.8109 22.6442 21.8109 22.2062V19.1006C21.811 18.3645 21.3046 17.7252 20.5882 17.5566Z" fill="#E6DCEB"/>
<path d="M7.92969 13.4844V16.413C12.4254 18.0327 15.0672 13.9789 15.0672 13.9789V13.4844H7.92969V13.4844Z" fill="#E6DCEB"/>
<path d="M6.34375 4.36328L6.68929 11.9653C6.72154 12.6754 7.06977 13.334 7.63848 13.7606L9.27803 14.9903C9.68987 15.2991 10.1907 15.4661 10.7055 15.4661H12.2917C12.8065 15.4661 13.3074 15.2991 13.7192 14.9903L15.3588 13.7606C15.9275 13.334 16.2757 12.6755 16.308 11.9653L16.6535 4.36328H6.34375Z" fill="#EEE5F2"/>
<path d="M10.3091 5.94942C11.8952 5.94942 14.2743 5.5529 14.8387 4.36328H6.34375L6.68929 11.9653C6.72154 12.6754 7.06977 13.334 7.63853 13.7606L9.27808 14.9903C9.68992 15.2991 10.1908 15.4661 10.7056 15.4661H11.4986C10.7056 15.4661 9.11946 13.88 9.11946 11.8974C9.11946 10.9277 9.11946 8.3286 9.11946 7.13899C9.11946 6.74247 9.51598 5.94942 10.3091 5.94942Z" fill="#E5DBEA"/>
<path d="M4.10242 20.4253L1.53295 18.1172C1.31764 18.3898 1.19141 18.7329 1.19141 19.1002V22.2058C1.19141 22.6438 1.54647 22.9988 1.98445 22.9988H4.76016V21.9003C4.76011 21.3376 4.521 20.8013 4.10242 20.4253Z" fill="#D3C2F0"/>
<path d="M18.8999 20.4253L21.4694 18.1172C21.6847 18.3898 21.8109 18.7329 21.8109 19.1002V22.2058C21.8109 22.6438 21.4559 22.9988 21.0179 22.9988H18.2422V21.9003C18.2422 21.3376 18.4813 20.8013 18.8999 20.4253Z" fill="#D3C2F0"/>
<path d="M12.4905 23.0004H10.5078L10.7556 19.4316H12.2426L12.4905 23.0004Z" fill="#5B5D6E"/>
<path d="M12.4905 18.6387H10.5078V19.385C10.5078 19.6298 10.7063 19.8283 10.9511 19.8283H12.0471C12.292 19.8283 12.4904 19.6298 12.4904 19.385V18.6387H12.4905Z" fill="#515262"/>
<path d="M7.87605 15.3772L11.5005 18.6392C11.5005 18.6392 10.4855 19.1516 9.23287 20.1844C8.97448 20.3974 8.58361 20.3111 8.44503 20.0062L6.74219 16.26L7.28089 15.452C7.41493 15.2508 7.69632 15.2155 7.87605 15.3772Z" fill="#DBCDE2"/>
<path d="M15.1245 15.3772L11.5 18.6392C11.5 18.6392 12.515 19.1516 13.7676 20.1844C14.026 20.3974 14.4169 20.3111 14.5555 20.0062L16.2583 16.26L15.7196 15.452C15.5855 15.2508 15.3041 15.2155 15.1245 15.3772Z" fill="#DBCDE2"/>
<path d="M13.9023 1.73658L14.2741 4.36359C15.971 4.70298 16.2155 7.36602 16.2508 8.12663C16.2571 8.26468 16.3012 8.39796 16.3761 8.51408L17.0235 9.51844C17.0235 9.51844 16.8019 7.85796 17.8166 6.74273C17.8166 6.74273 18.165 0.150441 13.9023 1.73658Z" fill="#1B2B42"/>
<path d="M17.4233 9.34865L16.9757 11.1393C16.9226 11.3515 16.732 11.5004 16.5132 11.5004C16.2727 11.5004 16.0699 11.3213 16.0401 11.0828L15.8112 9.25131C15.7499 8.76108 16.1321 8.32812 16.6261 8.32812H16.6265C17.1609 8.32817 17.5529 8.83026 17.4233 9.34865Z" fill="#E5DBEA"/>
<path d="M6.72353 1.02556L7.31003 1.42622C4.65826 3.38408 5.15388 6.7422 5.15388 6.7422C5.94693 7.53525 5.94693 9.51791 5.94693 9.51791L6.73997 8.72486C6.73997 8.72486 6.43392 6.43395 7.92954 5.55263C9.3174 4.73479 10.5318 5.15611 11.7709 5.15611C15.0918 5.15611 16.0212 3.90455 15.8601 2.3804C15.7768 1.59176 14.571 -0.0510267 11.4983 0.00121718C10.2583 0.0222854 7.92963 0.39774 6.72353 1.02556Z" fill="#10213A"/>
<path d="M6.49219 4.80865C6.49219 4.80865 6.07087 3.14817 7.31003 1.42578C4.65826 3.38364 5.15388 6.74176 5.15388 6.74176C5.94693 7.53481 5.94693 9.51747 5.94693 9.51747L6.73997 8.72442C6.73997 8.72442 6.43392 6.43351 7.92954 5.55219C9.3174 4.73435 10.5318 5.15567 11.7709 5.15567C12.311 5.15567 12.7817 5.11951 13.2009 5.05751C10.6434 5.14322 9.13578 3.20598 6.49219 4.80865Z" fill="#1B2B42"/>
<path d="M5.57571 9.34865L6.02335 11.1393C6.07641 11.3515 6.26705 11.5004 6.48587 11.5004C6.72633 11.5004 6.92911 11.3213 6.95894 11.0828L7.1879 9.25131C7.24917 8.76108 6.86698 8.32812 6.37293 8.32812H6.37257C5.83819 8.32817 5.44611 8.83026 5.57571 9.34865Z" fill="#E6DCEB"/>
<path d="M16.6566 22.207H13.8809C13.6619 22.207 13.4844 22.3846 13.4844 22.6036V23.0001H17.0531V22.6036C17.0531 22.3846 16.8756 22.207 16.6566 22.207Z" fill="#DBCDE2"/>
</g>
<defs>
<clipPath id="clip0_1456_5156">
<rect width="23" height="23" fill="white"/>
</clipPath>
</defs>
</svg>
