<svg width="21" height="21" viewBox="0 0 21 21" fill="none" xmlns="http://www.w3.org/2000/svg">
<g clip-path="url(#clip0_1456_5034)">
<path d="M13.1372 4.3191C12.9622 4.3191 12.8203 4.17722 12.8203 4.0022V1.50443C12.8203 0.818146 13.3787 0.259766 14.065 0.259766C14.7513 0.259766 15.3096 0.818104 15.3096 1.50443V2.28946C15.3096 2.46447 15.1678 2.60636 14.9927 2.60636C14.8177 2.60636 14.6758 2.46447 14.6758 2.28946V1.50443C14.6758 1.16762 14.4018 0.893568 14.065 0.893568C13.7281 0.893568 13.4541 1.16758 13.4541 1.50443V4.0022C13.4541 4.17722 13.3123 4.3191 13.1372 4.3191Z" fill="#7B60EC"/>
<path d="M16.7427 4.3191C16.5676 4.3191 16.4258 4.17722 16.4258 4.0022V1.50443C16.4258 0.818146 16.9841 0.259766 17.6704 0.259766C18.3567 0.259766 18.9151 0.818104 18.9151 1.50443V2.28946C18.9151 2.46447 18.7732 2.60636 18.5982 2.60636C18.4231 2.60636 18.2813 2.46447 18.2813 2.28946V1.50443C18.2813 1.16762 18.0072 0.893568 17.6704 0.893568C17.3336 0.893568 17.0596 1.16758 17.0596 1.50443V4.0022C17.0596 4.17722 16.9177 4.3191 16.7427 4.3191Z" fill="#7B60EC"/>
<path d="M2.36768 4.3191C2.19263 4.3191 2.05078 4.17722 2.05078 4.0022V1.50443C2.05078 0.818146 2.60912 0.259766 3.29544 0.259766C3.98177 0.259766 4.54011 0.818104 4.54011 1.50443V2.28946C4.54011 2.46447 4.39826 2.60636 4.2232 2.60636C4.04815 2.60636 3.9063 2.46447 3.9063 2.28946V1.50443C3.9063 1.16762 3.63229 0.893568 3.29544 0.893568C2.9586 0.893568 2.68458 1.16758 2.68458 1.50443V4.0022C2.68458 4.17722 2.54274 4.3191 2.36768 4.3191Z" fill="#7B60EC"/>
<path d="M5.96925 4.3191C5.79419 4.3191 5.65234 4.17722 5.65234 4.0022V1.50443C5.65234 0.818146 6.21068 0.259766 6.89696 0.259766C7.58329 0.259766 8.14163 0.818104 8.14163 1.50443V2.28946C8.14163 2.46447 7.99978 2.60636 7.82472 2.60636C7.64967 2.60636 7.50782 2.46447 7.50782 2.28946V1.50443C7.50782 1.16762 7.23381 0.893568 6.89696 0.893568C6.56016 0.893568 6.28615 1.16758 6.28615 1.50443V4.0022C6.28615 4.17722 6.14426 4.3191 5.96925 4.3191Z" fill="#7B60EC"/>
<path d="M20.0331 2.00391H0.966929C0.432887 2.00391 0 2.43684 0 2.97084V5.32098H21V2.97084C21 2.43684 20.5671 2.00391 20.0331 2.00391Z" fill="#684AE9"/>
<path d="M20.538 20.7395H0.462042C0.206873 20.7395 0 20.5326 0 20.2774V5.32227H21V20.2774C21 20.5326 20.7931 20.7395 20.538 20.7395Z" fill="#F6F0FA"/>
<path d="M17.3476 19.4707H0V20.2763C0 20.5314 0.206873 20.7383 0.462042 20.7383H17.1651L17.3476 19.4707Z" fill="#E5DBEA"/>
<path d="M20.0332 2.00391H18.7656C19.2996 2.00391 19.7326 2.43679 19.7326 2.97084V5.32098H21.0002V2.97084C21.0002 2.43684 20.5673 2.00391 20.0332 2.00391Z" fill="#684AE9"/>
<path d="M20.9981 16.5877V5.32031H19.7305V16.7932L20.9981 16.5877Z" fill="#E5DBEA"/>
<path d="M20.999 16.5898H17.6261C17.3709 16.5898 17.1641 16.7967 17.1641 17.0519V20.7397L20.999 16.5898Z" fill="#E5DBEA"/>
<path d="M3.20115 9.91012C2.69309 9.91012 2.28125 9.49827 2.28125 8.99021C2.28125 8.48216 2.69309 8.07031 3.20115 8.07031C3.70921 8.07031 4.12105 8.48216 4.12105 8.99021C4.12105 9.49827 3.70921 9.91012 3.20115 9.91012Z" fill="#684AE9"/>
<path d="M6.84959 9.91012C6.34153 9.91012 5.92969 9.49827 5.92969 8.99021C5.92969 8.48216 6.34153 8.07031 6.84959 8.07031C7.35765 8.07031 7.76949 8.48216 7.76949 8.99021C7.76949 9.49827 7.3576 9.91012 6.84959 9.91012Z" fill="#684AE9"/>
<path d="M10.5019 9.91012C9.99388 9.91012 9.58203 9.49827 9.58203 8.99021C9.58203 8.48216 9.99388 8.07031 10.5019 8.07031C11.01 8.07031 11.4218 8.48216 11.4218 8.99021C11.4218 9.49827 11.01 9.91012 10.5019 9.91012Z" fill="#684AE9"/>
<path d="M14.1504 9.91012C13.6423 9.91012 13.2305 9.49827 13.2305 8.99021C13.2305 8.48216 13.6423 8.07031 14.1504 8.07031C14.6584 8.07031 15.0703 8.48216 15.0703 8.99021C15.0703 9.49827 14.6584 9.91012 14.1504 9.91012Z" fill="#684AE9"/>
<path d="M17.7988 9.91012C17.2908 9.91012 16.8789 9.49827 16.8789 8.99021C16.8789 8.48216 17.2908 8.07031 17.7988 8.07031C18.3069 8.07031 18.7187 8.48216 18.7187 8.99021C18.7187 9.49827 18.3069 9.91012 17.7988 9.91012Z" fill="#684AE9"/>
<path d="M3.20115 13.832C2.69309 13.832 2.28125 13.4201 2.28125 12.9121C2.28125 12.404 2.69309 11.9922 3.20115 11.9922C3.70921 11.9922 4.12105 12.404 4.12105 12.9121C4.12105 13.4201 3.70921 13.832 3.20115 13.832Z" fill="#684AE9"/>
<path d="M6.84959 13.832C6.34153 13.832 5.92969 13.4201 5.92969 12.9121C5.92969 12.404 6.34153 11.9922 6.84959 11.9922C7.35765 11.9922 7.76949 12.404 7.76949 12.9121C7.76949 13.4201 7.3576 13.832 6.84959 13.832Z" fill="#684AE9"/>
<path d="M10.5019 13.832C9.99388 13.832 9.58203 13.4201 9.58203 12.9121C9.58203 12.404 9.99388 11.9922 10.5019 11.9922C11.01 11.9922 11.4218 12.404 11.4218 12.9121C11.4218 13.4201 11.01 13.832 10.5019 13.832Z" fill="#684AE9"/>
<path d="M14.1504 13.832C13.6423 13.832 13.2305 13.4201 13.2305 12.9121C13.2305 12.404 13.6423 11.9922 14.1504 11.9922C14.6584 11.9922 15.0703 12.404 15.0703 12.9121C15.0703 13.4201 14.6584 13.832 14.1504 13.832Z" fill="#684AE9"/>
<path d="M17.7988 13.832C17.2908 13.832 16.8789 13.4201 16.8789 12.9121C16.8789 12.404 17.2908 11.9922 17.7988 11.9922C18.3069 11.9922 18.7187 12.404 18.7187 12.9121C18.7187 13.4201 18.3069 13.832 17.7988 13.832Z" fill="#684AE9"/>
<path d="M3.20115 17.7539C2.69309 17.7539 2.28125 17.342 2.28125 16.834C2.28125 16.3259 2.69309 15.9141 3.20115 15.9141C3.70921 15.9141 4.12105 16.3259 4.12105 16.834C4.12105 17.342 3.70921 17.7539 3.20115 17.7539Z" fill="#684AE9"/>
<path d="M6.84959 17.7539C6.34153 17.7539 5.92969 17.342 5.92969 16.834C5.92969 16.3259 6.34153 15.9141 6.84959 15.9141C7.35765 15.9141 7.76949 16.3259 7.76949 16.834C7.76949 17.342 7.3576 17.7539 6.84959 17.7539Z" fill="#684AE9"/>
<path d="M10.5019 17.7539C9.99388 17.7539 9.58203 17.342 9.58203 16.834C9.58203 16.3259 9.99388 15.9141 10.5019 15.9141C11.01 15.9141 11.4218 16.3259 11.4218 16.834C11.4218 17.342 11.01 17.7539 10.5019 17.7539Z" fill="#684AE9"/>
<path d="M14.1504 17.7539C13.6423 17.7539 13.2305 17.342 13.2305 16.834C13.2305 16.3259 13.6423 15.9141 14.1504 15.9141C14.6584 15.9141 15.0703 16.3259 15.0703 16.834C15.0703 17.342 14.6584 17.7539 14.1504 17.7539Z" fill="#684AE9"/>
<path d="M3.9063 1.50443V1.83865H4.54011V1.50443C4.54011 0.818146 3.98177 0.259766 3.29544 0.259766C2.60912 0.259766 2.05078 0.818104 2.05078 1.50443V4.0022C2.05078 4.17722 2.19263 4.3191 2.36768 4.3191C2.54274 4.3191 2.68458 4.17722 2.68458 4.0022V1.50443C2.68458 1.16762 2.9586 0.893568 3.29544 0.893568C3.63229 0.893568 3.9063 1.16758 3.9063 1.50443Z" fill="#10213A"/>
<path d="M7.50782 1.50443V1.83865H8.14163V1.50443C8.14163 0.818146 7.58329 0.259766 6.89696 0.259766C6.21068 0.259766 5.65234 0.818104 5.65234 1.50443V4.0022C5.65234 4.17722 5.79419 4.3191 5.96925 4.3191C6.1443 4.3191 6.28615 4.17722 6.28615 4.0022V1.50443C6.28615 1.16762 6.56016 0.893568 6.89696 0.893568C7.23381 0.893568 7.50782 1.16758 7.50782 1.50443Z" fill="#10213A"/>
<path d="M14.6758 1.50443V1.83865H15.3096V1.50443C15.3096 0.818146 14.7513 0.259766 14.065 0.259766C13.3787 0.259766 12.8203 0.818104 12.8203 1.50443V4.0022C12.8203 4.17722 12.9622 4.3191 13.1372 4.3191C13.3123 4.3191 13.4541 4.17722 13.4541 4.0022V1.50443C13.4541 1.16762 13.7281 0.893568 14.065 0.893568C14.4018 0.893568 14.6758 1.16758 14.6758 1.50443Z" fill="#10213A"/>
<path d="M18.2813 1.50443V1.83865H18.9151V1.50443C18.9151 0.818146 18.3567 0.259766 17.6704 0.259766C16.9841 0.259766 16.4258 0.818104 16.4258 1.50443V4.0022C16.4258 4.17722 16.5676 4.3191 16.7427 4.3191C16.9177 4.3191 17.0596 4.17722 17.0596 4.0022V1.50443C17.0596 1.16762 17.3336 0.893568 17.6704 0.893568C18.0072 0.893568 18.2813 1.16758 18.2813 1.50443Z" fill="#10213A"/>
</g>
<defs>
<clipPath id="clip0_1456_5034">
<rect width="21" height="21" fill="white"/>
</clipPath>
</defs>
</svg>
