<svg width="21" height="21" viewBox="0 0 21 21" fill="none" xmlns="http://www.w3.org/2000/svg">
<path d="M0.633814 19.7053C0.283746 19.7053 0 19.4216 0 19.0715V4.01119L0.422543 2.06155C0.422543 1.71152 0.706289 1.42773 1.05636 1.42773L19.6501 1.55821C20.0002 1.55821 20.5775 1.84195 20.5775 2.02472V18.1918C20.5775 18.7092 19.95 19.5803 19.6 19.5803L19.2166 19.7053H0.633814Z" fill="#F6F0FA"/>
<path d="M16.4401 11.4118L14.9382 12.191L13.6471 11.4118C13.6471 9.67666 12.2401 8.26967 10.5049 8.26967L9.75391 6.80818L10.5049 5.47656C13.7826 5.47663 16.4401 8.13424 16.4401 11.4118Z" fill="#B4A6F3"/>
<path d="M14.9341 15.3564C14.8384 15.4641 14.7388 15.5683 14.6355 15.6687C14.4064 15.8303 14.1902 15.9715 13.9922 16.1211C12.9989 16.8709 11.9083 17.0674 10.568 17.0674C7.29031 17.0674 4.96875 14.736 4.96875 11.4583C4.96875 9.93382 5.22333 8.52032 6.16813 7.46911C6.37445 7.23954 6.5092 7.05321 6.75511 6.80784C7.77677 5.97563 9.0806 5.47656 10.5009 5.47656V8.2696C8.76569 8.2696 7.3587 9.67659 7.3587 11.4118C7.3587 13.147 8.76569 14.554 10.5009 14.554C11.4212 14.554 12.2493 14.1581 12.824 13.5275L14.3797 13.9259L14.9341 15.3564Z" fill="#684AE9"/>
<path d="M16.4363 11.4121C16.4363 12.9267 15.8687 14.3085 14.9344 15.3566L12.8242 13.5279C13.3333 12.9693 13.6433 12.2263 13.6433 11.4121H16.4363Z" fill="#D9D0FF"/>
<path d="M14.636 15.6688C13.5677 16.7078 12.109 17.3475 10.5016 17.3475C7.22395 17.3475 4.56641 14.6899 4.56641 11.4123C4.56641 9.55487 5.4197 7.89647 6.75613 6.80859C6.07392 7.79385 5.67381 8.9893 5.67381 10.2783C5.67381 13.6481 8.40544 16.3804 11.7752 16.3804C12.8094 16.3804 13.7828 16.1227 14.636 15.6688Z" fill="#684AE9"/>
<path d="M20.8335 2.07973V3.87285L19.7082 4.00759L0 4.01177V1.92678C0 1.57651 0.283951 1.29297 0.633815 1.29297H19.1038L20.0907 1.33686C20.4405 1.33686 20.8335 1.72946 20.8335 2.07973Z" fill="#E5DBEA"/>
<path d="M20.4808 3.64062L20.9982 4.00657V19.0711C20.9982 19.4211 20.7145 19.7049 20.3644 19.7049H19.2148L19.3485 19.6258C19.5703 19.4945 19.7064 19.2558 19.7064 18.998V4.00657L20.4808 3.64062Z" fill="#F6F0FA"/>
<path d="M20.9978 1.92678V4.00755H19.706V2.11447C19.706 1.80948 19.5387 1.52905 19.2703 1.38411L19.1016 1.29297H20.364C20.7139 1.29301 20.9978 1.57651 20.9978 1.92678Z" fill="#E5DBEA"/>
<path d="M1.46142 2.95409C1.63643 2.95409 1.7783 2.81221 1.7783 2.6372C1.7783 2.46219 1.63643 2.32031 1.46142 2.32031C1.28641 2.32031 1.14453 2.46219 1.14453 2.6372C1.14453 2.81221 1.28641 2.95409 1.46142 2.95409Z" fill="#10213A"/>
<path d="M2.90282 2.95409C3.07784 2.95409 3.21971 2.81221 3.21971 2.6372C3.21971 2.46219 3.07784 2.32031 2.90282 2.32031C2.72781 2.32031 2.58594 2.46219 2.58594 2.6372C2.58594 2.81221 2.72781 2.95409 2.90282 2.95409Z" fill="#10213A"/>
<path d="M4.34423 2.95409C4.51924 2.95409 4.66112 2.81221 4.66112 2.6372C4.66112 2.46219 4.51924 2.32031 4.34423 2.32031C4.16922 2.32031 4.02734 2.46219 4.02734 2.6372C4.02734 2.81221 4.16922 2.95409 4.34423 2.95409Z" fill="#10213A"/>
</svg>
