<svg width="47" height="47" viewBox="0 0 47 47" fill="none" xmlns="http://www.w3.org/2000/svg">
<circle opacity="0.5" cx="23.5" cy="23.5" r="23" stroke="#E6EDF2"/>
<path d="M33.144 21.4287C34.0908 21.4287 34.8583 20.7571 34.8583 19.9287C34.8583 19.1003 34.0908 18.4287 33.144 18.4287C32.1972 18.4287 31.4297 19.1003 31.4297 19.9287C31.4297 20.7571 32.1972 21.4287 33.144 21.4287Z" fill="#1B2B42"/>
<path d="M32.7154 19.9287C32.7154 19.2995 33.1591 18.7626 33.7868 18.5399C33.588 18.4694 33.3717 18.4287 33.144 18.4287C32.1972 18.4287 31.4297 19.1003 31.4297 19.9287C31.4297 20.7571 32.1972 21.4287 33.144 21.4287C33.3717 21.4287 33.5881 21.388 33.7868 21.3174C33.1591 21.0947 32.7154 20.5579 32.7154 19.9287Z" fill="#10213A"/>
<path d="M36.2887 28.4607L34.9018 27.7673C34.6114 27.6221 34.4279 27.3253 34.428 27.0006L34.428 25.7148H31.8566V27.0006C31.8566 27.3252 31.6732 27.622 31.3828 27.7673L29.9959 28.4607C29.5603 28.6785 29.2852 29.1237 29.2852 29.6107V32.1434C29.2852 32.3801 29.477 32.572 29.7137 32.572H36.5709C36.8076 32.572 36.9995 32.3801 36.9995 32.1434V29.6107C36.9995 29.1237 36.7243 28.6785 36.2887 28.4607Z" fill="#D7C8DE"/>
<path d="M33.141 27.4291C33.6024 27.4291 34.0444 27.3339 34.4496 27.1646C34.439 27.1106 34.4266 27.0569 34.4266 27.0006L34.4266 25.7148H31.8552V27.0006C31.8552 27.0572 31.8428 27.1112 31.832 27.1655C32.2376 27.3339 32.6794 27.4291 33.141 27.4291Z" fill="#D7C8DE"/>
<path d="M36.2887 28.4609L35.3007 27.9668C34.8425 28.6743 34.0479 29.1435 33.1423 29.1435C32.2367 29.1435 31.442 28.6743 30.9839 27.9668L29.9959 28.4609C29.5603 28.6787 29.2852 29.1238 29.2852 29.6108V32.1435C29.2852 32.3802 29.4771 32.5721 29.7137 32.5721H36.5709C36.8076 32.5721 36.9995 32.3802 36.9995 32.1435V29.6108C36.9995 29.1238 36.7243 28.6787 36.2887 28.4609Z" fill="#E6DCEB"/>
<path d="M33.1445 25.7139C34.8014 25.7139 36.1445 24.3707 36.1445 22.7139C36.1445 21.057 34.8014 19.7139 33.1445 19.7139C31.4877 19.7139 30.1445 21.057 30.1445 22.7139C30.1445 24.3707 31.4877 25.7139 33.1445 25.7139Z" fill="#10213A"/>
<path d="M36.1155 22.299C35.9507 21.0764 35.014 20.0543 33.8094 19.7883C33.5897 19.7398 33.3734 19.7162 33.1624 19.7149C31.7251 19.7059 31.2452 21.6905 32.5372 22.32C32.6067 22.3539 32.6508 22.369 32.6508 22.369L34.1437 25.0719C34.1437 25.0719 34.5415 25.0991 34.9427 25.1115C35.7721 24.4879 36.2704 23.4477 36.1155 22.299Z" fill="#1B2B42"/>
<path d="M33.1437 26.5709C31.8363 26.5709 30.7569 25.5952 30.5936 24.3323C30.57 24.1493 30.6579 23.9699 30.8227 23.8868C31.02 23.7872 31.3067 23.6194 31.5812 23.3745C31.8869 23.1017 32.0663 22.814 32.1676 22.6029C32.2548 22.421 32.4554 22.3181 32.6508 22.368C34.1598 22.7529 35.1871 23.538 35.5598 23.8585C35.6599 23.9445 35.7175 24.0714 35.7072 24.203C35.6035 25.528 34.4954 26.5709 33.1437 26.5709Z" fill="#E6DCEB"/>
<path d="M35.5598 23.8584C35.1871 23.5379 34.1597 22.7529 32.6508 22.368C32.4554 22.3182 32.2548 22.421 32.1676 22.6028C32.0909 22.7628 31.9641 22.9665 31.7759 23.1745C31.7759 23.175 31.7758 23.1755 31.7757 23.176C31.7174 23.2421 31.6552 23.3084 31.5812 23.3744C31.3067 23.6194 31.02 23.7872 30.8227 23.8868C30.6579 23.9699 30.57 24.1493 30.5936 24.3323C30.7402 25.4665 31.6278 26.3625 32.7538 26.5347C32.2407 26.1856 31.858 25.7124 31.858 24.8565V24.2455C31.9553 24.1736 32.0534 24.102 32.1519 24.0141C32.3901 23.8015 32.598 23.5556 32.7648 23.291C33.9192 23.6512 34.7018 24.2512 34.9985 24.5063C35.0797 24.5775 35.2813 24.7633 35.5171 24.9845C35.6185 24.7404 35.6856 24.4784 35.7072 24.2031C35.7175 24.0714 35.6599 23.9445 35.5598 23.8584Z" fill="#DBE3EA"/>
<path d="M36.7382 28.8379C36.9033 29.0569 36.9994 29.3258 36.9994 29.6104V32.1431C36.9994 32.3798 36.8075 32.5717 36.5709 32.5717H35.2852V30.4122C35.2852 30.1518 35.4035 29.9056 35.6068 29.7429L36.7382 28.8379Z" fill="#D3C2F0"/>
<path d="M11.2852 21.4283V21.729C11.2852 22.0975 11.3446 22.4636 11.4611 22.8133L12.1423 24.8569H13.428V20.1426H12.5709C11.8608 20.1426 11.2852 20.7182 11.2852 21.4283Z" fill="#10213A"/>
<path d="M17.1555 22.3194L16.4303 24.8577L13.0017 21.8577C12.5283 21.8577 12.1445 21.474 12.1445 21.0006C12.1445 20.2905 12.7202 19.7148 13.4302 19.7148H16.4303C16.9037 19.7148 17.2874 20.0986 17.2874 20.572V21.3775C17.2874 21.6961 17.243 22.0131 17.1555 22.3194Z" fill="#1B2B42"/>
<path d="M15.5714 26.1426H13V28.0394H15.5714V26.1426Z" fill="#D7C8DE"/>
<path d="M13 26.9298C13.3975 27.0914 13.8309 27.1823 14.2857 27.1823C14.7405 27.1823 15.1739 27.0914 15.5714 26.9298V26.1426H13V26.9298Z" fill="#D7C8DE"/>
<path d="M17.6389 27.7733L15.5713 27.1827L14.2857 28.0358L13 27.1826L10.9325 27.7733C10.3805 27.931 10 28.4355 10 29.0096V32.143C10 32.3796 10.1919 32.5715 10.4286 32.5715H18.1429C18.3795 32.5715 18.5714 32.3796 18.5714 32.143V29.0096C18.5714 28.4355 18.1909 27.931 17.6389 27.7733Z" fill="#E6DCEB"/>
<path d="M14.7126 32.5708H13.8555L14.0697 28.0391H14.4983L14.7126 32.5708Z" fill="#D3C2F0"/>
<path d="M14.2863 26.5713C12.8661 26.5713 11.7148 25.4201 11.7148 23.9999V23.4978C11.7148 23.2704 11.8051 23.0524 11.9659 22.8917L12.7431 22.1146C12.9076 21.95 13.1327 21.8554 13.3653 21.8627C14.7353 21.9059 15.9479 22.1994 16.6108 22.8468C16.773 23.0053 16.8577 23.227 16.8577 23.4538V23.9999C16.8577 25.4201 15.7064 26.5713 14.2863 26.5713Z" fill="#E6DCEB"/>
<path d="M13.0006 23.6041C13.0006 23.1098 13.4157 22.7168 13.9091 22.7483C14.7743 22.8035 16.0581 22.9481 16.8458 23.3269C16.8201 23.1461 16.7424 22.9754 16.6108 22.8468C15.9479 22.1994 14.7353 21.9059 13.3653 21.8627C13.1327 21.8554 12.9076 21.95 12.7431 22.1146L11.9659 22.8918C11.8051 23.0525 11.7148 23.2706 11.7148 23.4979V24C11.7148 25.1727 12.5006 26.16 13.5738 26.4692C13.2166 26.0285 13.0006 25.469 13.0006 24.8571V23.6041Z" fill="#D7C8DE"/>
<path d="M11.7143 30.2868C11.7143 29.9458 11.5788 29.6187 11.3377 29.3776L10.2345 28.2744C10.0871 28.4851 10 28.7389 10 29.0097V32.1431C10 32.3798 10.1919 32.5717 10.4286 32.5717H11.7143V30.2868Z" fill="#D3C2F0"/>
<path d="M14.4983 28.8962H14.0697C13.9514 28.8962 13.8555 28.8003 13.8555 28.6819V28.0391H14.7126V28.6819C14.7126 28.8002 14.6167 28.8962 14.4983 28.8962Z" fill="#D3C2F0"/>
<path d="M14.287 28.0353L13.5606 28.5902C13.4355 28.6858 13.2546 28.6475 13.179 28.5093L12.5273 27.3193L12.7896 26.9192C12.8478 26.8305 12.9718 26.8154 13.0496 26.8876L14.287 28.0353Z" fill="#D3C2F0"/>
<path d="M14.2852 28.0353L15.0116 28.5902C15.1367 28.6858 15.3176 28.6475 15.3932 28.5093L16.0448 27.3193L15.7825 26.9192C15.7244 26.8305 15.6004 26.8154 15.5226 26.8876L14.2852 28.0353Z" fill="#D3C2F0"/>
<path d="M23.7133 27.4287C26.5171 27.4287 29.0344 26.2822 29.8586 25.8644C30.0267 25.7793 30.1195 25.5971 30.0884 25.4113C29.9554 24.6166 29.5974 22.2362 29.2846 18.0002C29.0303 14.5543 26.7903 12.4287 23.7132 12.4287C20.6362 12.4287 18.3962 14.5543 18.1418 18.0002C17.8291 22.2363 17.471 24.6166 17.338 25.4113C17.3069 25.5971 17.3997 25.7792 17.5678 25.8644C18.3921 26.2822 20.9094 27.4287 23.7133 27.4287Z" fill="#1B2B42"/>
<path d="M29.8587 25.8644C30.0268 25.7792 30.1196 25.5971 30.0885 25.4113C29.9555 24.6166 29.5975 22.2363 29.2847 18.0002C29.0304 14.5543 26.7903 12.4287 23.7133 12.4287C23.4977 12.4287 23.2862 12.4392 23.0792 12.4598C20.6839 12.6983 20.3242 16.0808 22.6265 16.7837C22.6631 16.7949 22.6834 16.8001 22.6834 16.8001L23.5402 27.4244C23.5413 27.4255 23.5421 27.4262 23.5433 27.4273C26.4149 27.4753 29.0179 26.2906 29.8587 25.8644Z" fill="#10213A"/>
<path d="M16.4297 32.1429V29.8312C16.4297 29.1523 16.8304 28.5374 17.4514 28.263L21.0617 26.6685C21.3722 26.5313 21.5725 26.2239 21.5725 25.8844V24H25.8582V25.8844C25.8582 26.2239 26.0586 26.5314 26.3691 26.6685L29.9794 28.263C30.6004 28.5373 31.001 29.1523 31.001 29.8312V32.1429C31.001 32.3795 30.8091 32.5714 30.5725 32.5714H16.8583C16.6215 32.5714 16.4297 32.3796 16.4297 32.1429Z" fill="#D7C8DE"/>
<path d="M29.9795 28.263L27.3165 27.0869C26.7628 28.5384 25.3615 29.5714 23.7154 29.5714C22.0694 29.5714 20.6681 28.5385 20.1143 27.0869L17.4514 28.263C16.8304 28.5373 16.4297 29.1523 16.4297 29.8312V32.1429C16.4297 32.3795 16.6215 32.5714 16.8583 32.5714H30.5725C30.8092 32.5714 31.0011 32.3795 31.0011 32.1429V29.8312C31.0011 29.1523 30.6005 28.5374 29.9795 28.263Z" fill="#684AE9"/>
<path d="M21.5703 25.2422C22.2233 25.5423 22.9474 25.7143 23.7132 25.7143C24.4789 25.7143 25.203 25.5423 25.856 25.2422V24H21.5703V25.2422Z" fill="#D7C8DE"/>
<path d="M27.569 18.8574C26.8808 18.259 25.3358 17.2006 22.6855 16.8C22.3187 16.7445 21.9489 16.925 21.7857 17.2582C21.5138 17.8133 20.9355 18.7022 19.7872 19.4855C19.5593 19.641 19.4297 19.9055 19.4297 20.1813V20.4246C19.4297 22.7073 21.1522 24.7004 23.4301 24.8479C25.9262 25.0095 28.0011 23.0327 28.0011 20.5714V19.8195C28.0011 19.4512 27.8469 19.0991 27.569 18.8574Z" fill="#E6DCEB"/>
<path d="M27.8091 19.153C27.7432 19.0447 27.6668 18.9425 27.569 18.8574C26.8808 18.2589 25.3357 17.2006 22.6855 16.8C22.3187 16.7445 21.9489 16.925 21.7857 17.2581C21.7202 17.392 21.6325 17.5479 21.5272 17.7145C21.1982 18.2371 20.6617 18.8874 19.7941 19.4807C19.5641 19.638 19.4297 19.9027 19.4297 20.1813V20.4246C19.4297 22.6276 21.0359 24.5557 23.1955 24.8205C22.4573 24.0506 22.0011 23.008 22.0011 21.8571V19.1627C22.0011 18.7218 22.3322 18.3536 22.7709 18.3093C23.8013 18.2053 25.7401 18.1964 27.8091 19.153Z" fill="#D7C8DE"/>
<path d="M17.0707 28.498C16.6727 28.8186 16.4297 29.3045 16.4297 29.8311V32.1428C16.4297 32.3795 16.6216 32.5714 16.8583 32.5714H19.4297V31.3896C19.4297 31.0487 19.2942 30.7216 19.0531 30.4805L17.0707 28.498Z" fill="#5D40D9"/>
<path d="M30.359 28.498C30.757 28.8186 31 29.3045 31 29.8311V32.1428C31 32.3795 30.8081 32.5714 30.5714 32.5714H28V31.3896C28 31.0487 28.1355 30.7216 28.3766 30.4805L30.359 28.498Z" fill="#5D40D9"/>
</svg>
