<svg width="27" height="27" viewBox="0 0 27 27" fill="none" xmlns="http://www.w3.org/2000/svg">
<path d="M23.144 12.4296C24.0908 12.4296 24.8583 11.7581 24.8583 10.9297C24.8583 10.1012 24.0908 9.42969 23.144 9.42969C22.1972 9.42969 21.4297 10.1012 21.4297 10.9297C21.4297 11.7581 22.1972 12.4296 23.144 12.4296Z" fill="#1B2B42"/>
<path d="M22.7154 10.9297C22.7154 10.3005 23.1591 9.7636 23.7868 9.5409C23.588 9.47035 23.3717 9.42969 23.144 9.42969C22.1972 9.42969 21.4297 10.1013 21.4297 10.9297C21.4297 11.7581 22.1972 12.4296 23.144 12.4296C23.3717 12.4296 23.5881 12.389 23.7868 12.3184C23.1591 12.0957 22.7154 11.5588 22.7154 10.9297Z" fill="#10213A"/>
<path d="M26.2887 19.4607L24.9018 18.7673C24.6114 18.6221 24.4279 18.3253 24.428 18.0006L24.428 16.7148H21.8566V18.0006C21.8566 18.3252 21.6732 18.622 21.3828 18.7673L19.9959 19.4607C19.5603 19.6785 19.2852 20.1237 19.2852 20.6107V23.1434C19.2852 23.3801 19.477 23.572 19.7137 23.572H26.5709C26.8076 23.572 26.9995 23.3801 26.9995 23.1434V20.6107C26.9995 20.1237 26.7243 19.6785 26.2887 19.4607Z" fill="#D7C8DE"/>
<path d="M23.141 18.4291C23.6024 18.4291 24.0444 18.3339 24.4496 18.1646C24.439 18.1106 24.4266 18.0569 24.4266 18.0006L24.4266 16.7148H21.8552V18.0006C21.8552 18.0572 21.8428 18.1112 21.832 18.1655C22.2376 18.3339 22.6794 18.4291 23.141 18.4291Z" fill="#D7C8DE"/>
<path d="M26.2887 19.4609L25.3007 18.9668C24.8425 19.6743 24.0479 20.1435 23.1423 20.1435C22.2367 20.1435 21.442 19.6743 20.9839 18.9668L19.9959 19.4609C19.5603 19.6787 19.2852 20.1238 19.2852 20.6108V23.1435C19.2852 23.3802 19.4771 23.5721 19.7137 23.5721H26.5709C26.8076 23.5721 26.9995 23.3802 26.9995 23.1435V20.6108C26.9995 20.1238 26.7243 19.6787 26.2887 19.4609Z" fill="#E6DCEB"/>
<path d="M23.1445 16.7129C24.8014 16.7129 26.1445 15.3698 26.1445 13.7129C26.1445 12.056 24.8014 10.7129 23.1445 10.7129C21.4877 10.7129 20.1445 12.056 20.1445 13.7129C20.1445 15.3698 21.4877 16.7129 23.1445 16.7129Z" fill="#10213A"/>
<path d="M26.1155 13.299C25.9507 12.0764 25.014 11.0543 23.8094 10.7883C23.5897 10.7398 23.3734 10.7162 23.1624 10.7149C21.7251 10.7059 21.2452 12.6905 22.5372 13.32C22.6067 13.3539 22.6508 13.369 22.6508 13.369L24.1437 16.0719C24.1437 16.0719 24.5415 16.0991 24.9427 16.1115C25.7721 15.4879 26.2704 14.4477 26.1155 13.299Z" fill="#1B2B42"/>
<path d="M23.1437 17.5709C21.8363 17.5709 20.7569 16.5952 20.5936 15.3323C20.57 15.1493 20.6579 14.9699 20.8227 14.8868C21.02 14.7872 21.3067 14.6194 21.5812 14.3745C21.8869 14.1017 22.0663 13.814 22.1676 13.6029C22.2548 13.421 22.4554 13.3181 22.6508 13.368C24.1598 13.7529 25.1871 14.538 25.5598 14.8585C25.6599 14.9445 25.7175 15.0714 25.7072 15.203C25.6035 16.528 24.4954 17.5709 23.1437 17.5709Z" fill="#E6DCEB"/>
<path d="M25.5598 14.8584C25.1871 14.5379 24.1597 13.7529 22.6508 13.368C22.4554 13.3182 22.2548 13.421 22.1676 13.6028C22.0909 13.7628 21.9641 13.9665 21.7759 14.1745C21.7759 14.175 21.7758 14.1755 21.7757 14.176C21.7174 14.2421 21.6552 14.3084 21.5812 14.3744C21.3067 14.6194 21.02 14.7872 20.8227 14.8868C20.6579 14.9699 20.57 15.1493 20.5936 15.3323C20.7402 16.4665 21.6278 17.3625 22.7538 17.5347C22.2407 17.1856 21.858 16.7124 21.858 15.8565V15.2455C21.9553 15.1736 22.0534 15.102 22.1519 15.0141C22.3901 14.8015 22.598 14.5556 22.7648 14.291C23.9192 14.6512 24.7018 15.2512 24.9985 15.5063C25.0797 15.5775 25.2813 15.7633 25.5171 15.9845C25.6185 15.7404 25.6856 15.4784 25.7072 15.2031C25.7175 15.0714 25.6599 14.9445 25.5598 14.8584Z" fill="#D7C8DE"/>
<path d="M26.7382 19.8379C26.9033 20.0569 26.9994 20.3258 26.9994 20.6104V23.1431C26.9994 23.3798 26.8075 23.5717 26.5709 23.5717H25.2852V21.4122C25.2852 21.1518 25.4035 20.9056 25.6068 20.7429L26.7382 19.8379Z" fill="#D3C2F0"/>
<path d="M1.28516 12.4283V12.729C1.28516 13.0975 1.34459 13.4636 1.46108 13.8133L2.1423 15.8569H3.42802V11.1426H2.57087C1.8608 11.1426 1.28516 11.7182 1.28516 12.4283Z" fill="#10213A"/>
<path d="M7.15546 13.3194L6.43025 15.8577L3.00168 12.8577C2.52828 12.8577 2.14453 12.474 2.14453 12.0006C2.14453 11.2905 2.72018 10.7148 3.43025 10.7148H6.43025C6.90365 10.7148 7.2874 11.0986 7.2874 11.572V12.3775C7.2874 12.6961 7.243 13.0131 7.15546 13.3194Z" fill="#1B2B42"/>
<path d="M5.57143 17.1426H3V19.0394H5.57143V17.1426Z" fill="#D7C8DE"/>
<path d="M3 17.9298C3.39751 18.0914 3.83094 18.1823 4.28572 18.1823C4.7405 18.1823 5.17392 18.0914 5.57143 17.9298V17.1426H3V17.9298Z" fill="#D7C8DE"/>
<path d="M7.63889 18.7724L5.57128 18.1817L4.28572 19.0348L3.00001 18.1816L0.932502 18.7724C0.380531 18.93 0 19.4346 0 20.0086V23.142C0 23.3787 0.1919 23.5706 0.428572 23.5706H8.14287C8.37954 23.5706 8.57144 23.3787 8.57144 23.142V20.0086C8.57144 19.4346 8.19086 18.93 7.63889 18.7724Z" fill="#E6DCEB"/>
<path d="M4.71261 23.5708H3.85547L4.06973 19.0391H4.4983L4.71261 23.5708Z" fill="#D3C2F0"/>
<path d="M4.28628 17.5703C2.86609 17.5703 1.71484 16.4191 1.71484 14.9989V14.4968C1.71484 14.2695 1.80513 14.0515 1.96591 13.8907L2.74306 13.1136C2.90764 12.949 3.13266 12.8544 3.36527 12.8617C4.73526 12.9049 5.94788 13.1984 6.61076 13.8459C6.77302 14.0043 6.85771 14.226 6.85771 14.4528V14.9989C6.85771 16.4191 5.70641 17.5703 4.28628 17.5703Z" fill="#E6DCEB"/>
<path d="M3.00056 14.6032C3.00056 14.1088 3.41574 13.7158 3.90912 13.7473C4.77433 13.8025 6.0581 13.9471 6.84579 14.3259C6.82006 14.1451 6.74238 13.9745 6.61076 13.8459C5.94789 13.1984 4.73526 12.905 3.36527 12.8617C3.13271 12.8544 2.90759 12.9491 2.74306 13.1136L1.96591 13.8908C1.80513 14.0515 1.71484 14.2696 1.71484 14.4969V14.999C1.71484 16.1717 2.50059 17.159 3.57378 17.4682C3.21656 17.0275 3.00056 16.4681 3.00056 15.8561V14.6032Z" fill="#D7C8DE"/>
<path d="M1.71429 21.2858C1.71429 20.9448 1.57881 20.6177 1.33771 20.3766L0.23451 19.2734C0.0870645 19.4842 0 19.7379 0 20.0088V23.1421C0 23.3788 0.1919 23.5707 0.428572 23.5707H1.71429V21.2858Z" fill="#D3C2F0"/>
<path d="M4.4983 19.8962H4.06973C3.95139 19.8962 3.85547 19.8003 3.85547 19.6819V19.0391H4.71261V19.6819C4.71261 19.8002 4.61669 19.8962 4.4983 19.8962Z" fill="#D3C2F0"/>
<path d="M4.28704 19.0353L3.56062 19.5902C3.43548 19.6858 3.2546 19.6475 3.17898 19.5093L2.52734 18.3193L2.78964 17.9192C2.84781 17.8305 2.97179 17.8154 3.04957 17.8876L4.28704 19.0353Z" fill="#D3C2F0"/>
<path d="M4.28516 19.0353L5.01157 19.5902C5.13671 19.6858 5.31759 19.6475 5.39321 19.5093L6.04485 18.3193L5.78255 17.9192C5.72438 17.8305 5.6004 17.8154 5.52262 17.8876L4.28516 19.0353Z" fill="#D3C2F0"/>
<path d="M13.7133 18.4297C16.5171 18.4297 19.0344 17.2832 19.8586 16.8654C20.0267 16.7802 20.1195 16.5981 20.0884 16.4123C19.9554 15.6175 19.5974 13.2372 19.2846 9.00113C19.0303 5.55525 16.7903 3.42969 13.7132 3.42969C10.6362 3.42969 8.39616 5.55525 8.14177 9.00113C7.82905 13.2373 7.47104 15.6175 7.33799 16.4123C7.30687 16.5981 7.39974 16.7802 7.5678 16.8654C8.39209 17.2832 10.9094 18.4297 13.7133 18.4297Z" fill="#1B2B42"/>
<path d="M19.8587 16.8654C20.0268 16.7802 20.1196 16.5981 20.0885 16.4123C19.9555 15.6176 19.5975 13.2372 19.2848 9.00113C19.0304 5.55525 16.7903 3.42969 13.7133 3.42969C13.4977 3.42969 13.2862 3.44013 13.0792 3.46075C10.6839 3.69932 10.3242 7.08181 12.6265 7.78465C12.6631 7.79583 12.6834 7.8011 12.6834 7.8011L13.5402 18.4254C13.5413 18.4265 13.5421 18.4272 13.5433 18.4283C16.4149 18.4762 19.0179 17.2916 19.8587 16.8654Z" fill="#10213A"/>
<path d="M6.42969 23.1429V20.8312C6.42969 20.1523 6.83036 19.5374 7.45136 19.263L11.0617 17.6685C11.3722 17.5313 11.5725 17.2239 11.5725 16.8844V15H15.8582V16.8844C15.8582 17.2239 16.0586 17.5314 16.3691 17.6685L19.9794 19.263C20.6004 19.5373 21.001 20.1523 21.001 20.8312V23.1429C21.001 23.3795 20.8091 23.5714 20.5725 23.5714H6.85826C6.62154 23.5714 6.42969 23.3796 6.42969 23.1429Z" fill="#D7C8DE"/>
<path d="M19.9795 19.2621L17.3165 18.0859C16.7628 19.5375 15.3615 20.5705 13.7154 20.5705C12.0694 20.5705 10.6681 19.5375 10.1143 18.0859L7.45136 19.2621C6.83036 19.5363 6.42969 20.1513 6.42969 20.8302V23.1419C6.42969 23.3786 6.62154 23.5705 6.85826 23.5705H20.5725C20.8092 23.5705 21.0011 23.3786 21.0011 23.1419V20.8302C21.0011 20.1513 20.6005 19.5364 19.9795 19.2621Z" fill="#684AE9"/>
<path d="M11.5703 16.2422C12.2233 16.5423 12.9474 16.7143 13.7132 16.7143C14.4789 16.7143 15.203 16.5423 15.856 16.2422V15H11.5703V16.2422Z" fill="#D7C8DE"/>
<path d="M17.569 9.85647C16.8808 9.25799 15.3358 8.19966 12.6855 7.79898C12.3187 7.74351 11.9489 7.92402 11.7857 8.25719C11.5138 8.81233 10.9355 9.70122 9.78723 10.4845C9.55931 10.64 9.42969 10.9045 9.42969 11.1804V11.4236C9.42969 13.7063 11.1522 15.6994 13.4301 15.8469C15.9262 16.0085 18.0011 14.0318 18.0011 11.5704V10.8186C18.0011 10.4502 17.8469 10.0982 17.569 9.85647Z" fill="#E6DCEB"/>
<path d="M17.8091 10.152C17.7432 10.0437 17.6668 9.94153 17.569 9.85647C16.8808 9.25793 15.3357 8.19966 12.6855 7.79898C12.3187 7.74351 11.9489 7.92402 11.7857 8.25714C11.7202 8.39098 11.6325 8.54692 11.5272 8.7135C11.1982 9.2361 10.6617 9.88642 9.79408 10.4797C9.56411 10.637 9.42969 10.9017 9.42969 11.1803V11.4236C9.42969 13.6266 11.0359 15.5547 13.1955 15.8196C12.4573 15.0496 12.0011 14.007 12.0011 12.8562V10.1617C12.0011 9.72078 12.3322 9.35259 12.7709 9.30829C13.8013 9.2043 15.7401 9.19539 17.8091 10.152Z" fill="#D7C8DE"/>
<path d="M7.07067 19.498C6.67269 19.8186 6.42969 20.3045 6.42969 20.8311V23.1428C6.42969 23.3795 6.62159 23.5714 6.85826 23.5714H9.42969V22.3896C9.42969 22.0487 9.29422 21.7216 9.05312 21.4805L7.07067 19.498Z" fill="#5D40D9"/>
<path d="M20.359 19.498C20.757 19.8186 21 20.3045 21 20.8311V23.1428C21 23.3795 20.8081 23.5714 20.5714 23.5714H18V22.3896C18 22.0487 18.1355 21.7216 18.3766 21.4805L20.359 19.498Z" fill="#5D40D9"/>
</svg>
