<svg width="23" height="23" viewBox="0 0 23 23" fill="none" xmlns="http://www.w3.org/2000/svg">
<g clip-path="url(#clip0_1456_5067)">
<path d="M17.25 21.6286V22.6761C17.25 22.855 17.1049 23 16.9261 23H1.76143C1.58251 23 1.4375 22.8549 1.4375 22.6761V1.76143C1.4375 1.58255 1.58255 1.4375 1.76143 1.4375H2.875L17.25 21.6286Z" fill="#E5DBEA"/>
<path d="M18.3617 21.6286H4.26151L3.33594 21.1658V0.462785L4.26151 0H15.8107L16.7854 1.90033L18.6857 2.875V21.3046C18.6857 21.4835 18.5406 21.6286 18.3617 21.6286Z" fill="#F6F0FA"/>
<path d="M2.875 0.323932V21.3046C2.875 21.4835 3.02005 21.6285 3.19893 21.6285H4.26331V0H3.19893C3.02005 0 2.875 0.145053 2.875 0.323932Z" fill="#F6F0FA"/>
<path d="M15.8125 0V2.55107C15.8125 2.72999 15.9576 2.875 16.1364 2.875H18.6875L15.8125 0Z" fill="#E5DBEA"/>
<path d="M12.6669 15.8722L20.3359 8.66602L20.9248 9.2549L20.3257 10.7796L13.7186 17.3866L12.4094 18.1103L11.616 18.0111L11.4805 17.1814L12.6669 15.8722Z" fill="#684AE9"/>
<path d="M12.2043 15.8734L11.4807 17.1826L11.4609 18.0884L12.3748 18.0767L13.5927 15.8734L19.5056 9.96053L19.582 9.11133L18.8114 9.26635L12.2043 15.8734Z" fill="#684AE9"/>
<path d="M8.62441 3.22148H5.74941C5.55768 3.22148 5.40234 3.06609 5.40234 2.87441C5.40234 2.68273 5.55773 2.52734 5.74941 2.52734H8.62441C8.81614 2.52734 8.97148 2.68273 8.97148 2.87441C8.97148 3.06609 8.81614 3.22148 8.62441 3.22148Z" fill="#CFB8DE"/>
<path d="M9.97072 4.65898H5.74941C5.55768 4.65898 5.40234 4.50359 5.40234 4.31191C5.40234 4.12023 5.55773 3.96484 5.74941 3.96484H9.97076C10.1625 3.96484 10.3178 4.12023 10.3178 4.31191C10.3178 4.50359 10.1624 4.65898 9.97072 4.65898Z" fill="#CFB8DE"/>
<path d="M15.8119 7.53398H5.74941C5.55768 7.53398 5.40234 7.37859 5.40234 7.18691C5.40234 6.99523 5.55773 6.83984 5.74941 6.83984H15.8119C16.0036 6.83984 16.159 6.99523 16.159 7.18691C16.159 7.37859 16.0036 7.53398 15.8119 7.53398Z" fill="#CFB8DE"/>
<path d="M14.3783 8.97148H5.74941C5.55768 8.97148 5.40234 8.81609 5.40234 8.62441C5.40234 8.43273 5.55773 8.27734 5.74941 8.27734H14.3783C14.57 8.27734 14.7254 8.43273 14.7254 8.62441C14.7254 8.81609 14.57 8.97148 14.3783 8.97148Z" fill="#CFB8DE"/>
<path d="M12.9369 10.409H5.74941C5.55768 10.409 5.40234 10.2536 5.40234 10.0619C5.40234 9.87023 5.55773 9.71484 5.74941 9.71484H12.9369C13.1286 9.71484 13.284 9.87023 13.284 10.0619C13.284 10.2536 13.1286 10.409 12.9369 10.409Z" fill="#CFB8DE"/>
<path d="M14.3783 11.8465H5.74941C5.55768 11.8465 5.40234 11.6911 5.40234 11.4994C5.40234 11.3077 5.55773 11.1523 5.74941 11.1523H14.3783C14.57 11.1523 14.7254 11.3077 14.7254 11.4994C14.7254 11.6911 14.57 11.8465 14.3783 11.8465Z" fill="#CFB8DE"/>
<path d="M12.8724 13.284H5.74941C5.55768 13.284 5.40234 13.1286 5.40234 12.9369C5.40234 12.7452 5.55773 12.5898 5.74941 12.5898H12.8724C13.0641 12.5898 13.2194 12.7452 13.2194 12.9369C13.2194 13.1286 13.064 13.284 12.8724 13.284Z" fill="#CFB8DE"/>
<path d="M11.4994 14.7215H5.74941C5.55768 14.7215 5.40234 14.5661 5.40234 14.3744C5.40234 14.1827 5.55773 14.0273 5.74941 14.0273H11.4994C11.6911 14.0273 11.8465 14.1827 11.8465 14.3744C11.8465 14.5661 11.6911 14.7215 11.4994 14.7215Z" fill="#CFB8DE"/>
<path d="M10.0638 16.159H5.74941C5.55768 16.159 5.40234 16.0036 5.40234 15.8119C5.40234 15.6202 5.55773 15.4648 5.74941 15.4648H10.0638C10.2556 15.4648 10.4109 15.6202 10.4109 15.8119C10.4109 16.0036 10.2556 16.159 10.0638 16.159Z" fill="#CFB8DE"/>
<path d="M8.53569 18.9012H5.74941C5.55768 18.9012 5.40234 18.7458 5.40234 18.5541C5.40234 18.3624 5.55773 18.207 5.74941 18.207H8.53569C8.72742 18.207 8.88276 18.3624 8.88276 18.5541C8.88276 18.7458 8.72737 18.9012 8.53569 18.9012Z" fill="#CFB8DE"/>
<path d="M11.48 17.1816L10.8625 18.2988C10.7377 18.5717 11.019 18.8529 11.2918 18.7281L12.409 18.1106L11.48 17.1816Z" fill="#435F73"/>
<path d="M21.3608 8.76535L20.8281 8.23262C20.557 7.96152 20.1174 7.96152 19.8463 8.23262L18.8125 9.26646L20.327 10.7809L21.3608 9.74708C21.6319 9.47597 21.6319 9.03641 21.3608 8.76535Z" fill="#10213A"/>
<path d="M20.8281 8.23262C20.557 7.96152 20.1174 7.96152 19.8463 8.23262L18.8125 9.26646L19.5067 9.96063L21.0314 8.43594L20.8281 8.23262Z" fill="#10213A"/>
</g>
<defs>
<clipPath id="clip0_1456_5067">
<rect width="23" height="23" fill="white"/>
</clipPath>
</defs>
</svg>
