<svg width="47" height="47" viewBox="0 0 47 47" fill="none" xmlns="http://www.w3.org/2000/svg">
<circle opacity="0.5" cx="23.5" cy="23.5" r="23" stroke="#E6EDF2"/>
<g clip-path="url(#clip0_1181_2061)">
<path d="M30.25 33.6286V34.6761C30.25 34.855 30.1049 35 29.9261 35H14.7614C14.5825 35 14.4375 34.8549 14.4375 34.6761V13.7614C14.4375 13.5826 14.5826 13.4375 14.7614 13.4375H15.875L30.25 33.6286Z" fill="#E5DBEA"/>
<path d="M31.3617 33.6286H17.2615L16.3359 33.1658V12.4628L17.2615 12H28.8107L29.7854 13.9003L31.6857 14.875V33.3046C31.6857 33.4835 31.5406 33.6286 31.3617 33.6286Z" fill="#F6F0FA"/>
<path d="M15.875 12.3239V33.3046C15.875 33.4835 16.0201 33.6285 16.1989 33.6285H17.2633V12H16.1989C16.0201 12 15.875 12.1451 15.875 12.3239Z" fill="#F6F0FA"/>
<path d="M28.8125 12V14.5511C28.8125 14.73 28.9576 14.875 29.1364 14.875H31.6875L28.8125 12Z" fill="#D8DCE5"/>
<path d="M25.6669 27.8722L33.3359 20.666L33.9248 21.2549L33.3257 22.7796L26.7186 29.3866L25.4094 30.1103L24.616 30.0111L24.4805 29.1814L25.6669 27.8722Z" fill="#684AE9"/>
<path d="M25.2043 27.8734L24.4807 29.1826L24.4609 30.0884L25.3748 30.0767L26.5927 27.8734L32.5056 21.9605L32.582 21.1113L31.8114 21.2664L25.2043 27.8734Z" fill="#684AE9"/>
<path d="M21.6244 15.2215H18.7494C18.5577 15.2215 18.4023 15.0661 18.4023 14.8744C18.4023 14.6827 18.5577 14.5273 18.7494 14.5273H21.6244C21.8161 14.5273 21.9715 14.6827 21.9715 14.8744C21.9715 15.0661 21.8161 15.2215 21.6244 15.2215Z" fill="#CFB8DE"/>
<path d="M22.9707 16.659H18.7494C18.5577 16.659 18.4023 16.5036 18.4023 16.3119C18.4023 16.1202 18.5577 15.9648 18.7494 15.9648H22.9708C23.1625 15.9648 23.3178 16.1202 23.3178 16.3119C23.3178 16.5036 23.1624 16.659 22.9707 16.659Z" fill="#CFB8DE"/>
<path d="M28.8119 19.534H18.7494C18.5577 19.534 18.4023 19.3786 18.4023 19.1869C18.4023 18.9952 18.5577 18.8398 18.7494 18.8398H28.8119C29.0036 18.8398 29.159 18.9952 29.159 19.1869C29.159 19.3786 29.0036 19.534 28.8119 19.534Z" fill="#CFB8DE"/>
<path d="M27.3783 20.9715H18.7494C18.5577 20.9715 18.4023 20.8161 18.4023 20.6244C18.4023 20.4327 18.5577 20.2773 18.7494 20.2773H27.3783C27.57 20.2773 27.7254 20.4327 27.7254 20.6244C27.7254 20.8161 27.57 20.9715 27.3783 20.9715Z" fill="#CFB8DE"/>
<path d="M25.9369 22.409H18.7494C18.5577 22.409 18.4023 22.2536 18.4023 22.0619C18.4023 21.8702 18.5577 21.7148 18.7494 21.7148H25.9369C26.1286 21.7148 26.284 21.8702 26.284 22.0619C26.284 22.2536 26.1286 22.409 25.9369 22.409Z" fill="#CFB8DE"/>
<path d="M27.3783 23.8465H18.7494C18.5577 23.8465 18.4023 23.6911 18.4023 23.4994C18.4023 23.3077 18.5577 23.1523 18.7494 23.1523H27.3783C27.57 23.1523 27.7254 23.3077 27.7254 23.4994C27.7254 23.6911 27.57 23.8465 27.3783 23.8465Z" fill="#CFB8DE"/>
<path d="M25.8724 25.284H18.7494C18.5577 25.284 18.4023 25.1286 18.4023 24.9369C18.4023 24.7452 18.5577 24.5898 18.7494 24.5898H25.8724C26.0641 24.5898 26.2194 24.7452 26.2194 24.9369C26.2194 25.1286 26.064 25.284 25.8724 25.284Z" fill="#CFB8DE"/>
<path d="M24.4994 26.7215H18.7494C18.5577 26.7215 18.4023 26.5661 18.4023 26.3744C18.4023 26.1827 18.5577 26.0273 18.7494 26.0273H24.4994C24.6911 26.0273 24.8465 26.1827 24.8465 26.3744C24.8465 26.5661 24.6911 26.7215 24.4994 26.7215Z" fill="#CFB8DE"/>
<path d="M23.0638 28.159H18.7494C18.5577 28.159 18.4023 28.0036 18.4023 27.8119C18.4023 27.6202 18.5577 27.4648 18.7494 27.4648H23.0638C23.2556 27.4648 23.4109 27.6202 23.4109 27.8119C23.4109 28.0036 23.2556 28.159 23.0638 28.159Z" fill="#CFB8DE"/>
<path d="M21.5357 30.9002H18.7494C18.5577 30.9002 18.4023 30.7448 18.4023 30.5531C18.4023 30.3614 18.5577 30.2061 18.7494 30.2061H21.5357C21.7274 30.2061 21.8828 30.3614 21.8828 30.5531C21.8828 30.7448 21.7274 30.9002 21.5357 30.9002Z" fill="#CFB8DE"/>
<path d="M24.48 29.1816L23.8625 30.2988C23.7377 30.5717 24.019 30.8529 24.2918 30.7281L25.409 30.1106L24.48 29.1816Z" fill="#435F73"/>
<path d="M34.3608 20.7654L33.8281 20.2326C33.557 19.9615 33.1174 19.9615 32.8463 20.2326L31.8125 21.2665L33.327 22.7809L34.3608 21.7471C34.6319 21.476 34.6319 21.0364 34.3608 20.7654Z" fill="#10213A"/>
<path d="M33.8281 20.2326C33.557 19.9615 33.1174 19.9615 32.8463 20.2326L31.8125 21.2665L32.5067 21.9606L34.0314 20.4359L33.8281 20.2326Z" fill="#10213A"/>
</g>
<defs>
<clipPath id="clip0_1181_2061">
<rect width="23" height="23" fill="white" transform="translate(13 12)"/>
</clipPath>
</defs>
</svg>
