<svg width="47" height="47" viewBox="0 0 47 47" fill="none" xmlns="http://www.w3.org/2000/svg">
<circle opacity="0.5" cx="23.5" cy="23.5" r="23" stroke="#E6EDF2"/>
<g clip-path="url(#clip0_1181_2030)">
<path d="M23.1383 32.8484L23.323 32.9457L24.9217 33.8687C25.3965 34.1428 26.0038 33.9739 26.2689 33.494L26.6262 32.8472C26.8843 32.38 26.7208 31.7922 26.2585 31.5254L25.3506 31.0011L27.5591 32.2762C28.0338 32.5503 28.6412 32.3814 28.9062 31.9015L29.2635 31.2547C29.5216 30.7875 29.3581 30.1997 28.8959 29.9328L27.5483 29.1547L29.547 30.3086C30.0154 30.5791 30.6145 30.4186 30.885 29.9501L31.2544 29.3102C31.5248 28.8418 31.3644 28.2428 30.8961 27.9723L29.6739 27.2663L31.2062 28.1512C31.6847 28.4275 32.2968 28.2536 32.5586 27.7671L32.9088 27.1162C33.1597 26.6499 32.9945 26.0686 32.5359 25.8039L32.496 25.7808L29.5003 21.8209L19.7955 20.0804C19.2546 20.0669 18.7225 19.9174 18.2491 19.6441L15.9471 18.3175C15.9013 18.2911 15.8427 18.3068 15.8162 18.3526L12.3019 24.4398C12.2754 24.4856 12.2912 24.5443 12.3371 24.5708L14.3887 25.7531L20.5631 31.4916L23.1383 32.8484Z" fill="#E5DBEA"/>
<path d="M10.0102 23.9908L14.2724 16.6085C14.2935 16.572 14.3402 16.5595 14.3768 16.5806L17.2571 18.2435C17.2936 18.2646 17.3061 18.3114 17.2851 18.3479L13.0229 25.7302C13.0018 25.7667 12.9551 25.7792 12.9185 25.7581L10.0382 24.0952C10.0017 24.0741 9.98915 24.0273 10.0102 23.9908Z" fill="#684AE9"/>
<path d="M31.2115 18.3526C31.1851 18.3068 31.1265 18.2911 31.0806 18.3175L28.8138 19.6233C28.1184 20.0247 27.2617 20.0246 26.5664 19.6232L24.7175 18.5557C24.0115 18.1481 23.1418 18.1481 22.4359 18.5557L18.8702 20.6143C18.6731 20.7281 18.6055 20.9802 18.7193 21.1773L18.8522 21.4075C19.41 22.3736 20.6455 22.7046 21.6117 22.1468C21.8429 22.0134 22.0495 21.8941 22.194 21.8107C22.443 21.667 22.7615 21.7079 22.9578 21.918C23.2742 22.2568 23.7249 22.4686 24.225 22.4686C24.7826 22.4686 25.2787 22.2054 25.5958 21.7965L26.0881 21.8302L26.2822 22.1928L27.1305 22.6825H27.1304L29.6574 24.1415L32.4963 25.7806L34.6648 24.5256C34.7106 24.4991 34.7262 24.4405 34.6998 24.3947L31.2115 18.3526Z" fill="#F6F0FA"/>
<path d="M26.5741 21.532C26.6268 21.32 26.4976 21.1054 26.2856 21.0528C26.0735 21.0001 25.8591 21.1293 25.8064 21.3413C25.7647 21.509 25.6903 21.6658 25.5898 21.8036C25.5917 21.8012 25.5937 21.7987 25.5956 21.7963L26.282 22.1926C26.4153 21.9921 26.5153 21.7688 26.5741 21.532Z" fill="#E5DBEA"/>
<path d="M36.9882 23.9908L32.726 16.6085C32.7049 16.572 32.6582 16.5595 32.6217 16.5806L29.7413 18.2435C29.7048 18.2646 29.6923 18.3114 29.7134 18.3479L33.9755 25.7302C33.9966 25.7667 34.0433 25.7792 34.0799 25.7581L36.9602 24.0952C36.9967 24.0741 37.0093 24.0273 36.9882 23.9908Z" fill="#684AE9"/>
<path d="M17.2573 18.2435L14.377 16.5806C14.3404 16.5595 14.2937 16.572 14.2726 16.6085L14.1386 16.8406L14.671 17.148C15.2358 17.4741 15.4294 18.1964 15.1033 18.7612L11.5273 24.9549L12.9187 25.7582C12.9552 25.7793 13.002 25.7668 13.023 25.7302L17.2852 18.348C17.3063 18.3114 17.2938 18.2646 17.2573 18.2435Z" fill="#684AE9"/>
<path d="M36.9908 23.9908L32.7287 16.6085C32.7076 16.572 32.6609 16.5595 32.6243 16.5806L31.5312 17.2117L34.2656 21.9478C34.5917 22.5126 34.3982 23.2349 33.8334 23.561L33.0027 24.0406L33.9782 25.7302C33.9993 25.7667 34.046 25.7792 34.0825 25.7581L36.9629 24.0952C36.9994 24.0741 37.0119 24.0273 36.9908 23.9908Z" fill="#684AE9"/>
<path d="M15.9482 27.9238L17.4674 27.0466C18.1126 26.6741 18.3336 25.8491 17.9612 25.204C17.5887 24.5588 16.7637 24.3378 16.1185 24.7102L14.5993 25.5874C14.1308 25.8578 13.9703 26.4569 14.2408 26.9254L14.6102 27.5652C14.8806 28.0337 15.4797 28.1942 15.9482 27.9238Z" fill="#F6F0FA"/>
<path d="M17.5068 30.1397L18.5391 29.5437C19.1843 29.1712 19.4053 28.3462 19.0329 27.701C18.6604 27.0559 17.8354 26.8348 17.1902 27.2073L16.1579 27.8033C15.6894 28.0738 15.5289 28.6728 15.7994 29.1413L16.1688 29.7812C16.4392 30.2496 17.0383 30.4102 17.5068 30.1397Z" fill="#F6F0FA"/>
<path d="M19.6005 32.0469L20.5634 31.491C21.2086 31.1184 21.4296 30.2935 21.0571 29.6483C20.6846 29.0031 19.8596 28.7821 19.2145 29.1546L18.2516 29.7105C17.7832 29.981 17.6226 30.58 17.8931 31.0485L18.2625 31.6883C18.533 32.1568 19.132 32.3174 19.6005 32.0469Z" fill="#F6F0FA"/>
<path d="M21.913 33.8267L22.5977 33.4314C23.2429 33.0589 23.4639 32.2339 23.0914 31.5887C22.7189 30.9436 21.8939 30.7225 21.2488 31.095L20.5641 31.4903C20.0957 31.7608 19.9351 32.3598 20.2056 32.8283L20.575 33.4681C20.8455 33.9367 21.4445 34.0972 21.913 33.8267Z" fill="#F6F0FA"/>
<path d="M23.4726 16.0008C23.0584 16.0008 22.7227 15.665 22.7227 15.2508V13.7509C22.7227 13.3367 23.0584 13.001 23.4726 13.001C23.8868 13.001 24.2225 13.3367 24.2225 13.7509V15.2508C24.2225 15.665 23.8868 16.0008 23.4726 16.0008Z" fill="#10213A"/>
<path d="M26.8477 16.6497C26.489 16.4426 26.3662 15.9839 26.5733 15.6252L27.3232 14.3263C27.5303 13.9676 27.989 13.8447 28.3477 14.0518C28.7064 14.2589 28.8292 14.7175 28.6221 15.0762L27.8722 16.3752C27.6651 16.7339 27.2064 16.8568 26.8477 16.6497Z" fill="#10213A"/>
<path d="M20.0977 16.6497C20.4564 16.4426 20.5792 15.9839 20.3721 15.6252L19.6222 14.3263C19.4151 13.9676 18.9564 13.8447 18.5977 14.0518C18.239 14.2589 18.1162 14.7175 18.3233 15.0762L19.0732 16.3752C19.2803 16.7339 19.739 16.8568 20.0977 16.6497Z" fill="#10213A"/>
<path d="M25.7027 30.2894C25.5135 30.1801 25.2716 30.245 25.1624 30.4342C25.0532 30.6233 25.118 30.8652 25.3072 30.9744L27.5964 32.2961C28.0033 32.5086 28.4962 32.407 28.7882 32.0708L25.7027 30.2894Z" fill="#E6DCEB"/>
<path d="M28.4058 25.6215C28.2167 25.5121 27.9748 25.5771 27.8656 25.7662C27.7563 25.9554 27.8212 26.1973 28.0103 26.3065L31.2384 28.1702C31.6461 28.3848 32.1404 28.2829 32.4328 27.9464L28.4058 25.6215Z" fill="#E6DCEB"/>
<path d="M27.0582 27.9574C26.869 27.8481 26.6271 27.913 26.5179 28.1021C26.4087 28.2913 26.4735 28.5332 26.6627 28.6424L29.583 30.3285C29.9893 30.5406 30.4823 30.4399 30.7748 30.1031L27.0582 27.9574Z" fill="#E6DCEB"/>
<path d="M15.0869 19.0703C15.3053 19.0703 15.4824 18.8932 15.4824 18.6748C15.4824 18.4564 15.3053 18.2793 15.0869 18.2793C14.8685 18.2793 14.6914 18.4564 14.6914 18.6748C14.6914 18.8932 14.8685 19.0703 15.0869 19.0703Z" fill="#F2FBFF"/>
<path d="M15.4839 18.675C15.4839 18.5154 15.3893 18.3779 15.2532 18.3154C15.2344 18.4682 15.1853 18.6198 15.1035 18.7615L14.9414 19.0423C14.9869 19.0605 15.0364 19.0705 15.0884 19.0705C15.3068 19.0705 15.4839 18.8935 15.4839 18.675Z" fill="#DFF6FD"/>
<path d="M31.9111 19.0703C32.1296 19.0703 32.3066 18.8932 32.3066 18.6748C32.3066 18.4564 32.1296 18.2793 31.9111 18.2793C31.6927 18.2793 31.5156 18.4564 31.5156 18.6748C31.5156 18.8932 31.6927 19.0703 31.9111 19.0703Z" fill="#F2FBFF"/>
</g>
<defs>
<clipPath id="clip0_1181_2030">
<rect width="27" height="27" fill="white" transform="translate(10 10)"/>
</clipPath>
</defs>
</svg>
