<svg width="27" height="27" viewBox="0 0 27 27" fill="none" xmlns="http://www.w3.org/2000/svg">
<g clip-path="url(#clip0_1456_5101)">
<path d="M13.1383 22.8484L13.323 22.9457L14.9217 23.8687C15.3965 24.1428 16.0038 23.9739 16.2689 23.494L16.6262 22.8472C16.8843 22.38 16.7208 21.7922 16.2585 21.5254L15.3506 21.0011L17.5591 22.2762C18.0338 22.5503 18.6412 22.3814 18.9062 21.9015L19.2635 21.2547C19.5216 20.7875 19.3581 20.1997 18.8959 19.9328L17.5483 19.1547L19.547 20.3086C20.0154 20.5791 20.6145 20.4186 20.885 19.9501L21.2544 19.3102C21.5248 18.8418 21.3644 18.2428 20.8961 17.9723L19.6739 17.2663L21.2062 18.1512C21.6847 18.4275 22.2968 18.2536 22.5586 17.7671L22.9088 17.1162C23.1597 16.6499 22.9945 16.0686 22.5359 15.8039L22.496 15.7808L19.5003 11.8209L9.79547 10.0804C9.25458 10.0669 8.72254 9.91737 8.24914 9.64415L5.94713 8.31751C5.9013 8.29109 5.84272 8.3068 5.81624 8.35263L2.30192 14.4398C2.27545 14.4856 2.29116 14.5443 2.33709 14.5708L4.38867 15.7531L10.5631 21.4916L13.1383 22.8484Z" fill="#E5DBEA"/>
<path d="M0.0102399 13.9908L4.27239 6.60851C4.29348 6.57197 4.34021 6.55947 4.37675 6.58056L7.2571 8.24354C7.29365 8.26464 7.30615 8.31136 7.28505 8.3479L3.0229 15.7302C3.00181 15.7667 2.95509 15.7792 2.91854 15.7581L0.0381891 14.0952C0.00169695 14.0741 -0.0108538 14.0273 0.0102399 13.9908Z" fill="#684AE9"/>
<path d="M21.2115 8.35261C21.1851 8.30678 21.1265 8.29107 21.0806 8.31749L18.8138 9.62335C18.1184 10.0247 17.2617 10.0246 16.5664 9.62319L14.7175 8.55569C14.0115 8.1481 13.1418 8.1481 12.4359 8.55569L8.87021 10.6143C8.67309 10.7281 8.60554 10.9802 8.71934 11.1773L8.85223 11.4075C9.41 12.3736 10.6455 12.7046 11.6117 12.1468C11.8429 12.0134 12.0495 11.8941 12.194 11.8107C12.443 11.667 12.7615 11.7079 12.9578 11.918C13.2742 12.2568 13.7249 12.4686 14.225 12.4686C14.7826 12.4686 15.2787 12.2054 15.5958 11.7965L16.0881 11.8302L16.2822 12.1928L17.1305 12.6825H17.1304L19.6574 14.1415L22.4963 15.7806L24.6648 14.5256C24.7106 14.4991 24.7262 14.4405 24.6998 14.3947L21.2115 8.35261Z" fill="#F5EEFA"/>
<path d="M16.5741 11.53C16.6268 11.318 16.4976 11.1035 16.2856 11.0508C16.0735 10.9982 15.8591 11.1273 15.8064 11.3393C15.7647 11.507 15.6903 11.6638 15.5898 11.8016C15.5917 11.7992 15.5937 11.7968 15.5956 11.7943L16.282 12.1906C16.4153 11.9901 16.5153 11.7669 16.5741 11.53Z" fill="#E5DBEA"/>
<path d="M26.9882 13.9908L22.726 6.60851C22.7049 6.57197 22.6582 6.55947 22.6217 6.58056L19.7413 8.24354C19.7048 8.26464 19.6923 8.31136 19.7134 8.3479L23.9755 15.7302C23.9966 15.7667 24.0433 15.7792 24.0799 15.7581L26.9602 14.0952C26.9967 14.0741 27.0093 14.0273 26.9882 13.9908Z" fill="#684AE9"/>
<path d="M7.2573 8.24354L4.37695 6.58056C4.34041 6.55947 4.29368 6.57197 4.27259 6.60851L4.13859 6.8406L4.671 7.14799C5.23584 7.47409 5.42937 8.1964 5.10326 8.76124L1.52734 14.9549L2.91869 15.7582C2.95523 15.7793 3.00196 15.7668 3.02305 15.7302L7.2852 8.34796C7.30635 8.31141 7.29385 8.26464 7.2573 8.24354Z" fill="#684AE9"/>
<path d="M26.9908 13.9908L22.7287 6.60851C22.7076 6.57197 22.6609 6.55947 22.6243 6.58056L21.5312 7.21169L24.2656 11.9478C24.5917 12.5126 24.3982 13.2349 23.8334 13.561L23.0027 14.0406L23.9782 15.7302C23.9993 15.7667 24.046 15.7792 24.0825 15.7581L26.9629 14.0952C26.9994 14.0741 27.0119 14.0273 26.9908 13.9908Z" fill="#684AE9"/>
<path d="M5.94819 17.9218L7.46742 17.0447C8.11262 16.6722 8.33363 15.8472 7.96117 15.202C7.58865 14.5568 6.76368 14.3358 6.11853 14.7083L4.5993 15.5854C4.13081 15.8559 3.97029 16.4549 4.24076 16.9234L4.61016 17.5633C4.88064 18.0318 5.4797 18.1923 5.94819 17.9218Z" fill="#F5EEFA"/>
<path d="M7.50679 20.1387L8.53911 19.5427C9.18432 19.1702 9.40533 18.3452 9.03287 17.7001C8.66035 17.0549 7.83537 16.8339 7.19022 17.2063L6.15789 17.8023C5.6894 18.0728 5.52888 18.6719 5.79935 19.1403L6.16876 19.7802C6.43923 20.2487 7.0383 20.4092 7.50679 20.1387Z" fill="#F5EEFA"/>
<path d="M9.60054 22.0459L10.5634 21.49C11.2086 21.1175 11.4296 20.2925 11.0571 19.6473C10.6846 19.0021 9.85962 18.7811 9.21447 19.1536L8.25164 19.7095C7.78315 19.98 7.62263 20.5791 7.8931 21.0475L8.26251 21.6874C8.53303 22.1559 9.13204 22.3164 9.60054 22.0459Z" fill="#F5EEFA"/>
<path d="M11.913 23.8267L12.5977 23.4314C13.2429 23.0589 13.4639 22.2339 13.0914 21.5887C12.7189 20.9436 11.8939 20.7225 11.2488 21.095L10.5641 21.4903C10.0957 21.7608 9.93513 22.3598 10.2056 22.8283L10.575 23.4681C10.8455 23.9367 11.4445 24.0972 11.913 23.8267Z" fill="#F5EEFA"/>
<path d="M13.4726 5.9998C13.0584 5.9998 12.7227 5.66404 12.7227 5.24986V3.74994C12.7227 3.33576 13.0584 3 13.4726 3C13.8868 3 14.2225 3.33576 14.2225 3.74994V5.24981C14.2225 5.66404 13.8868 5.9998 13.4726 5.9998Z" fill="#10213A"/>
<path d="M16.8477 6.64773C16.489 6.44064 16.3662 5.98196 16.5733 5.62326L17.3232 4.3243C17.5303 3.9656 17.989 3.84273 18.3477 4.04982C18.7064 4.25691 18.8292 4.71559 18.6221 5.07429L17.8722 6.37325C17.6651 6.73194 17.2064 6.85487 16.8477 6.64773Z" fill="#10213A"/>
<path d="M10.0977 6.64773C10.4564 6.44064 10.5792 5.98196 10.3721 5.62326L9.62221 4.3243C9.41512 3.9656 8.95644 3.84273 8.59774 4.04982C8.23904 4.25691 8.11617 4.71559 8.32326 5.07429L9.07319 6.37325C9.28028 6.73194 9.73897 6.85487 10.0977 6.64773Z" fill="#10213A"/>
<path d="M15.7027 20.2875C15.5135 20.1782 15.2716 20.243 15.1624 20.4322C15.0532 20.6214 15.118 20.8633 15.3072 20.9725L17.5964 22.2942C18.0033 22.5067 18.4962 22.405 18.7882 22.0689L15.7027 20.2875Z" fill="#E6DCEB"/>
<path d="M18.4058 15.6195C18.2167 15.5102 17.9748 15.5751 17.8656 15.7643C17.7563 15.9534 17.8212 16.1953 18.0103 16.3045L21.2384 18.1683C21.6461 18.3828 22.1404 18.281 22.4328 17.9445L18.4058 15.6195Z" fill="#E6DCEB"/>
<path d="M17.0582 17.9554C16.869 17.8462 16.6271 17.911 16.5179 18.1002C16.4087 18.2893 16.4735 18.5312 16.6627 18.6404L19.583 20.3265C19.9893 20.5387 20.4823 20.4379 20.7748 20.1012L17.0582 17.9554Z" fill="#E6DCEB"/>
<path d="M5.08691 9.06836C5.30535 9.06836 5.48242 8.89128 5.48242 8.67285C5.48242 8.45442 5.30535 8.27734 5.08691 8.27734C4.86848 8.27734 4.69141 8.45442 4.69141 8.67285C4.69141 8.89128 4.86848 9.06836 5.08691 9.06836Z" fill="#F2FBFF"/>
<path d="M5.48388 8.67405C5.48388 8.51442 5.38933 8.37694 5.25317 8.31445C5.2344 8.46722 5.1853 8.61884 5.10351 8.76053L4.94141 9.04134C4.98686 9.05954 5.03643 9.06956 5.08838 9.06956C5.3068 9.06956 5.48388 8.89247 5.48388 8.67405Z" fill="#DFF6FD"/>
<path d="M21.9111 9.06836C22.1296 9.06836 22.3066 8.89128 22.3066 8.67285C22.3066 8.45442 22.1296 8.27734 21.9111 8.27734C21.6927 8.27734 21.5156 8.45442 21.5156 8.67285C21.5156 8.89128 21.6927 9.06836 21.9111 9.06836Z" fill="#F2FBFF"/>
</g>
<defs>
<clipPath id="clip0_1456_5101">
<rect width="27" height="27" fill="white"/>
</clipPath>
</defs>
</svg>
