<svg width="22" height="22" viewBox="0 0 22 22" fill="none" xmlns="http://www.w3.org/2000/svg">
<path d="M15.7908 17.6893C15.7914 17.8061 15.7876 17.9214 15.7788 18.0361C15.6002 20.4336 13.4578 22.2462 11.0226 21.972L5.38002 21.3358C2.82961 21.0485 1.10059 18.6002 1.68384 16.1006L3.31404 9.11568L3.41286 8.69299C3.68481 7.52648 4.27026 6.50687 5.06381 5.70898C5.04795 5.88756 6.63393 5.75376 6.63393 5.93509C6.63393 6.30371 6.89389 5.94329 6.96161 6.31738L9.54081 9.43279C9.99735 11.9586 9.85826 15.039 12.3137 14.2908L15.7876 17.0236L15.7908 17.6893Z" fill="#F6F0FA"/>
<path d="M15.7821 17.0236L12.199 15.7107C9.74359 16.4589 10.6349 12.1746 10.1783 9.64875L6.73771 6.8089C6.67 6.43481 7.33846 6.57678 7.33846 6.20815C7.33846 6.02682 5.04255 5.88756 5.05837 5.70898C4.26486 6.50687 3.67941 7.52648 3.40742 8.69299L3.30859 9.11568L4.6313 16.4338C5.08784 18.9596 7.6459 20.521 10.1013 19.7728L13.9253 18.6073L15.5331 18.1169C15.6145 18.0924 15.6947 18.0651 15.7734 18.0361C15.7821 17.9214 15.7859 17.8062 15.7854 17.6893L15.7821 17.0236Z" fill="#E5DBEA"/>
<path d="M9.49193 3.86133C9.29969 3.86133 9.10964 3.86954 8.92122 3.88754C8.92887 3.92084 7.38419 4.97323 7.39458 5.00653C7.64909 5.84154 8.9079 8.21011 9.74291 7.95561C10.1438 7.83327 11.6376 4.64882 11.8299 4.31186C11.3176 4.10595 10.7698 3.96561 10.1975 3.90064C9.96051 3.87388 9.72461 3.86133 9.49193 3.86133Z" fill="#E5DBEA"/>
<path d="M5.05866 5.70947C5.0428 5.88805 5.03516 6.06774 5.03516 6.24903C5.03516 6.61766 5.06794 6.99123 5.13566 7.36531L6.4884 14.8505C6.94495 17.3763 9.503 18.9377 11.9584 18.1895L15.7824 17.0241L17.3902 16.5337C19.8455 15.7855 21.0978 13.0625 20.0678 10.7115L17.0155 3.74451C15.7431 0.840206 12.4985 -0.651798 9.46536 0.272804C6.97502 1.03137 5.27492 3.22295 5.05866 5.70947ZM8.91979 3.88815C8.7303 3.08425 9.19556 2.26015 9.99727 2.01656C10.8318 1.76206 11.7148 2.23226 11.9688 3.06676C12.1009 3.50092 12.0376 3.94766 11.8284 4.31247C11.6362 4.64943 11.3194 4.91648 10.9186 5.03881C10.0836 5.29332 9.20102 4.82311 8.94652 3.98805C8.93616 3.95475 8.92739 3.92145 8.91979 3.88815Z" fill="#684AE9"/>
<path d="M9.65566 10.2344C9.48013 10.2344 9.31775 10.1207 9.264 9.94416C9.19804 9.72777 9.32003 9.49892 9.53642 9.43292L14.9682 7.77764C15.1848 7.71176 15.4134 7.83367 15.4794 8.05006C15.5454 8.26645 15.4234 8.4953 15.207 8.5613L9.77524 10.2166C9.73545 10.2286 9.69519 10.2344 9.65566 10.2344Z" fill="#F6F0FA"/>
<path d="M10.2299 12.0938C10.0543 12.0938 9.89197 11.9801 9.83821 11.8036C9.77226 11.5872 9.89425 11.3583 10.1106 11.2923L15.5424 9.63702C15.7589 9.57111 15.9877 9.6931 16.0536 9.90945C16.1196 10.1258 15.9976 10.3547 15.7812 10.4207L10.3495 12.076C10.3097 12.088 10.2694 12.0938 10.2299 12.0938Z" fill="#F6F0FA"/>
</svg>
