<svg width="47" height="47" viewBox="0 0 47 47" fill="none" xmlns="http://www.w3.org/2000/svg">
<circle opacity="0.5" cx="23.5" cy="23.5" r="23" stroke="#E6EDF2"/>
<path d="M28.5075 30.4936C28.5081 30.6158 28.5041 30.7363 28.4949 30.8562C28.3083 33.3626 26.0684 35.2576 23.5225 34.971L17.6235 34.3058C14.9572 34.0055 13.1495 31.4459 13.7593 28.8327L15.4636 21.5303L15.5669 21.0884C15.8512 19.8689 16.4633 18.8029 17.2929 17.9688C17.2763 18.1554 18.9344 18.0156 18.9344 18.2051C18.9344 18.5905 19.2062 18.2137 19.277 18.6048L21.9734 21.8618C22.4507 24.5025 22.3053 27.7228 24.8723 26.9406L28.5041 29.7977L28.5075 30.4936Z" fill="#F6F0FA"/>
<path d="M28.5014 29.7977L24.7554 28.4251C22.1884 29.2073 23.1202 24.7282 22.6429 22.0876L19.0459 19.1187C18.9751 18.7276 19.674 18.876 19.674 18.4906C19.674 18.301 17.2737 18.1554 17.2902 17.9688C16.4607 18.8029 15.8486 19.8689 15.5643 21.0884L15.4609 21.5303L16.8438 29.181C17.3211 31.8217 19.9954 33.454 22.5624 32.6718L26.5602 31.4534L28.2411 30.9407C28.3262 30.915 28.4101 30.8865 28.4923 30.8562C28.5014 30.7363 28.5054 30.6158 28.5049 30.4936L28.5014 29.7977Z" fill="#E5DBEA"/>
<path d="M21.9232 16.0371C21.7222 16.0371 21.5235 16.0457 21.3266 16.0645C21.3345 16.0993 19.7197 17.1996 19.7305 17.2344C19.9966 18.1073 21.3126 20.5836 22.1856 20.3175C22.6047 20.1896 24.1664 16.8604 24.3674 16.5081C23.8318 16.2928 23.2592 16.1461 22.6608 16.0782C22.4131 16.0502 22.1665 16.0371 21.9232 16.0371Z" fill="#E5DBEA"/>
<path d="M17.2902 17.969C17.2736 18.1557 17.2656 18.3435 17.2656 18.5331C17.2656 18.9185 17.2999 19.309 17.3707 19.7001L18.7849 27.5255C19.2622 30.1662 21.9366 31.7985 24.5036 31.0163L28.5013 29.7979L30.1822 29.2852C32.7492 28.503 34.0584 25.6562 32.9816 23.1983L29.7906 15.9147C28.4602 12.8784 25.0682 11.3186 21.8972 12.2852C19.2937 13.0783 17.5163 15.3695 17.2902 17.969ZM21.3268 16.0649C21.1287 15.2244 21.6151 14.3629 22.4533 14.1082C23.3257 13.8422 24.2489 14.3337 24.5144 15.2062C24.6526 15.66 24.5863 16.1271 24.3677 16.5085C24.1667 16.8608 23.8355 17.14 23.4165 17.2678C22.5435 17.5339 21.6208 17.0423 21.3548 16.1693C21.3439 16.1345 21.3348 16.0997 21.3268 16.0649Z" fill="#684AE9"/>
<path d="M22.0961 22.7004C21.9126 22.7004 21.7429 22.5816 21.6867 22.397C21.6177 22.1707 21.7453 21.9315 21.9715 21.8625L27.6502 20.132C27.8766 20.0631 28.1156 20.1905 28.1846 20.4168C28.2536 20.643 28.1261 20.8822 27.8998 20.9512L22.2212 22.6818C22.1796 22.6944 22.1375 22.7004 22.0961 22.7004Z" fill="#F6F0FA"/>
<path d="M22.6977 24.6448C22.5142 24.6448 22.3444 24.5259 22.2882 24.3413C22.2193 24.1151 22.3468 23.8758 22.5731 23.8068L28.2517 22.0763C28.478 22.0074 28.7173 22.1349 28.7862 22.3611C28.8552 22.5873 28.7276 22.8266 28.5014 22.8956L22.8227 24.6261C22.7811 24.6387 22.7391 24.6448 22.6977 24.6448Z" fill="#F6F0FA"/>
</svg>
