<svg width="47" height="47" viewBox="0 0 47 47" fill="none" xmlns="http://www.w3.org/2000/svg">
<circle opacity="0.5" cx="23.5" cy="23.5" r="23" stroke="#E6EDF2"/>
<path d="M12.6942 33.5837C12.3108 33.5837 12 33.273 12 32.8896V16.3949L12.4628 14.2596C12.4628 13.8762 12.7736 13.5654 13.157 13.5654L33.5216 13.7083C33.9049 13.7083 34.5372 14.0191 34.5372 14.2193V31.9261C34.5372 32.4927 33.85 33.4469 33.4667 33.4469L33.0468 33.5837H12.6942Z" fill="#F6F0FA"/>
<path d="M30.0066 24.5006L28.3616 25.3539L26.9476 24.5006C26.9476 22.6001 25.4066 21.0591 23.5061 21.0591L22.6836 19.4584L23.5061 18C27.096 18.0001 30.0066 20.9108 30.0066 24.5006Z" fill="#B4A6F3"/>
<path d="M28.3559 28.8208C28.251 28.9388 28.1419 29.0529 28.0288 29.1629C27.7779 29.3398 27.5411 29.4945 27.3242 29.6582C26.2364 30.4795 25.0419 30.6947 23.5739 30.6947C19.9841 30.6947 17.4414 28.1412 17.4414 24.5514C17.4414 22.8818 17.7202 21.3336 18.755 20.1823C18.981 19.9309 19.1286 19.7268 19.3979 19.4581C20.5169 18.5466 21.9449 18 23.5004 18V21.059C21.6 21.059 20.059 22.6 20.059 24.5005C20.059 26.4009 21.6 27.9419 23.5004 27.9419C24.5084 27.9419 25.4154 27.5083 26.0448 26.8177L27.7486 27.254L28.3559 28.8208Z" fill="#684AE9"/>
<path d="M29.9991 24.5C29.9991 26.1588 29.3774 27.6723 28.3541 28.8202L26.043 26.8173C26.6005 26.2055 26.94 25.3917 26.94 24.5H29.9991Z" fill="#D9D0FF"/>
<path d="M28.0287 29.1621C26.8585 30.3 25.261 31.0006 23.5005 31.0006C19.9106 31.0006 17 28.0899 17 24.5001C17 22.4658 17.9346 20.6495 19.3983 19.458C18.6511 20.5371 18.2129 21.8464 18.2129 23.2582C18.2129 26.9489 21.2047 29.9414 24.8954 29.9414C26.028 29.9414 27.0941 29.6592 28.0287 29.1621Z" fill="#684AE9"/>
<path d="M34.8177 14.2787V16.2426L33.5851 16.3901L12 16.3947V14.1112C12 13.7275 12.311 13.417 12.6942 13.417H32.9232L34.0041 13.4651C34.3872 13.4651 34.8177 13.8951 34.8177 14.2787Z" fill="#E5DBEA"/>
<path d="M34.4334 15.9893L35.0001 16.3901V32.8893C35.0001 33.2727 34.6893 33.5835 34.3059 33.5835H33.0469L33.1932 33.4968C33.4362 33.353 33.5852 33.0916 33.5852 32.8092V16.3901L34.4334 15.9893Z" fill="#F6F0FA"/>
<path d="M34.9987 14.1112V16.3901H33.5839V14.3167C33.5839 13.9827 33.4007 13.6756 33.1067 13.5168L32.9219 13.417H34.3046C34.6878 13.417 34.9987 13.7275 34.9987 14.1112Z" fill="#E5DBEA"/>
<path d="M13.601 15.2371C13.7927 15.2371 13.948 15.0817 13.948 14.89C13.948 14.6984 13.7927 14.543 13.601 14.543C13.4093 14.543 13.2539 14.6984 13.2539 14.89C13.2539 15.0817 13.4093 15.2371 13.601 15.2371Z" fill="#10213A"/>
<path d="M15.1791 15.2371C15.3708 15.2371 15.5262 15.0817 15.5262 14.89C15.5262 14.6984 15.3708 14.543 15.1791 14.543C14.9874 14.543 14.832 14.6984 14.832 14.89C14.832 15.0817 14.9874 15.2371 15.1791 15.2371Z" fill="#10213A"/>
<path d="M16.7572 15.2371C16.9489 15.2371 17.1043 15.0817 17.1043 14.89C17.1043 14.6984 16.9489 14.543 16.7572 14.543C16.5655 14.543 16.4102 14.6984 16.4102 14.89C16.4102 15.0817 16.5655 15.2371 16.7572 15.2371Z" fill="#10213A"/>
</svg>
