<svg width="23" height="23" viewBox="0 0 23 23" fill="none" xmlns="http://www.w3.org/2000/svg">
<g clip-path="url(#clip0_1456_5132)">
<path d="M4.81594 22.9578C4.27638 22.7981 3.9684 22.2313 4.12809 21.6917L5.04441 18.5957L6.99838 19.174L6.08206 22.27C5.92236 22.8096 5.35549 23.1176 4.81594 22.9578Z" fill="#D6C9DC"/>
<path d="M16.1121 22.9578C16.6517 22.7981 16.9597 22.2313 16.8 21.6917L15.8837 18.5957L13.9297 19.174L14.846 22.27C15.0057 22.8096 15.5726 23.1176 16.1121 22.9578Z" fill="#D6C9DC"/>
<path d="M6.99962 19.1739L6.08335 22.2699C5.92379 22.8094 5.3566 23.1174 4.81709 22.9574C4.74468 22.9362 4.67689 22.9076 4.61328 22.8721C4.83924 22.7472 5.01771 22.5369 5.09655 22.2699L6.13501 18.918L6.99962 19.1739Z" fill="#9EB1C5"/>
<path d="M16.1123 22.9575C15.8398 23.0382 15.5604 22.9999 15.3298 22.8722C15.7397 22.6467 15.9523 22.1589 15.8135 21.6917L14.9766 18.8641L15.8841 18.5957L16.8003 21.6917C16.9599 22.2312 16.6523 22.798 16.1123 22.9575Z" fill="#9EB1C5"/>
<path d="M10.4649 21.6037C15.8584 21.6037 20.2306 17.2314 20.2306 11.838C20.2306 6.44452 15.8584 2.07227 10.4649 2.07227C5.07147 2.07227 0.699219 6.44452 0.699219 11.838C0.699219 17.2314 5.07147 21.6037 10.4649 21.6037Z" fill="#684AE9"/>
<path d="M20.2294 11.8392C20.2294 17.2325 15.8574 21.6049 10.4636 21.6049C8.20916 21.6049 6.13364 20.8413 4.48047 19.558C5.93854 20.4244 7.64198 20.922 9.46109 20.922C14.8544 20.922 19.2268 16.5495 19.2268 11.1562C19.2268 8.01596 17.7448 5.222 15.4415 3.43555C18.3083 5.13759 20.2294 8.26402 20.2294 11.8392Z" fill="#5C3EE0"/>
<path d="M10.465 19.5961C14.7497 19.5961 18.223 16.1227 18.223 11.8381C18.223 7.55346 14.7497 4.08008 10.465 4.08008C6.18041 4.08008 2.70703 7.55346 2.70703 11.8381C2.70703 16.1227 6.18041 19.5961 10.465 19.5961Z" fill="#F9F8F9"/>
<path d="M18.2218 11.8377C18.2218 16.1224 14.7486 19.5957 10.4638 19.5957C9.34467 19.5957 8.28128 19.3587 7.32031 18.9326C8.0263 19.1437 8.77425 19.2572 9.54893 19.2572C13.8333 19.2572 17.3069 15.784 17.3069 11.4992C17.3069 8.33357 15.4108 5.61063 12.6924 4.4043C15.8908 5.36203 18.2218 8.328 18.2218 11.8377Z" fill="#EFEDEF"/>
<path d="M10.4648 17.6503C13.6749 17.6503 16.2772 15.048 16.2772 11.8378C16.2772 8.62771 13.6749 6.02539 10.4648 6.02539C7.25466 6.02539 4.65234 8.62771 4.65234 11.8378C4.65234 15.048 7.25466 17.6503 10.4648 17.6503Z" fill="#684AE9"/>
<path d="M16.2764 11.8393C16.2764 15.0497 13.6743 17.6518 10.4639 17.6518C9.38303 17.6518 8.37085 17.3566 7.50391 16.8425C8.12181 17.0662 8.78858 17.1883 9.48352 17.1883C12.6939 17.1883 15.2961 14.5862 15.2961 11.3758C15.2961 9.24724 14.1515 7.38568 12.4445 6.37305C14.6795 7.18281 16.2764 9.32473 16.2764 11.8393Z" fill="#5C3EE0"/>
<path d="M10.4661 15.5826C12.5335 15.5826 14.2095 13.9066 14.2095 11.8391C14.2095 9.77169 12.5335 8.0957 10.4661 8.0957C8.39865 8.0957 6.72266 9.77169 6.72266 11.8391C6.72266 13.9066 8.39865 15.5826 10.4661 15.5826Z" fill="#F9F8F9"/>
<path d="M14.2087 11.8391C14.2087 13.9068 12.533 15.5825 10.4653 15.5825C9.68785 15.5825 8.96573 15.3455 8.36719 14.9402C8.73056 15.0578 9.11837 15.1214 9.52141 15.1214C11.5886 15.1214 13.2648 13.4457 13.2648 11.378C13.2648 10.0877 12.6119 8.94969 11.6186 8.27734C13.1219 8.7629 14.2087 10.1744 14.2087 11.8391Z" fill="#EFEDEF"/>
<path d="M10.466 13.5278C11.3987 13.5278 12.1547 12.7717 12.1547 11.8391C12.1547 10.9064 11.3987 10.1504 10.466 10.1504C9.5334 10.1504 8.77734 10.9064 8.77734 11.8391C8.77734 12.7717 9.5334 13.5278 10.466 13.5278Z" fill="#684AE9"/>
<path d="M12.1542 11.8375C12.1542 12.7704 11.3984 13.5262 10.4656 13.5262C10.0806 13.5262 9.72545 13.3971 9.44141 13.1803C9.49352 13.1854 9.54607 13.1877 9.59958 13.1877C10.532 13.1877 11.2882 12.4319 11.2882 11.4991C11.2882 10.9517 11.0277 10.4647 10.6238 10.1562C11.4824 10.236 12.1542 10.9586 12.1542 11.8375Z" fill="#5C3EDF"/>
<path d="M10.463 12.1835C10.3745 12.1835 10.286 12.1498 10.2185 12.0822C10.0834 11.9472 10.0834 11.7282 10.2185 11.5931L19.4291 2.38253C19.5641 2.24749 19.7831 2.24749 19.9182 2.38253C20.0533 2.51756 20.0533 2.73656 19.9182 2.87164L10.7076 12.0822C10.64 12.1498 10.5515 12.1835 10.463 12.1835Z" fill="#10213A"/>
<path d="M20.0108 2.2932L19.7412 0.161474C19.722 0.00936879 19.5363 -0.0541957 19.4279 0.0542457L16.1634 3.31876C16.1203 3.36184 16.1013 3.42343 16.1126 3.48327L16.5417 5.76229L20.0108 2.2932Z" fill="#10213A"/>
<path d="M20.0102 2.29318L16.5406 5.76223L16.3359 4.6735L19.8649 1.14453L20.0102 2.29318Z" fill="#10213A"/>
<path d="M20.0121 2.29297L22.1438 2.56259C22.2959 2.58182 22.3595 2.76752 22.251 2.87592L18.9865 6.14044C18.9434 6.18352 18.8818 6.20252 18.822 6.19124L16.543 5.76206L20.0121 2.29297Z" fill="#10213A"/>
<path d="M22.2491 2.87654L18.9847 6.14132C18.9414 6.18422 18.8801 6.20309 18.8201 6.19204L17.8047 6.00067L21.2332 2.57219C21.2673 2.53805 21.2843 2.49659 21.2871 2.45508L22.1416 2.56343C22.2938 2.58279 22.3574 2.76818 22.2491 2.87654Z" fill="#10213A"/>
</g>
<defs>
<clipPath id="clip0_1456_5132">
<rect width="23" height="23" fill="white"/>
</clipPath>
</defs>
</svg>
