<svg viewBox="0 0 90 24" id="sofi-logo" xmlns="http://www.w3.org/2000/svg"><path d="M75.5 16.1c2 0 3.7 1.7 3.7 3.7s-1.7 3.7-3.7 3.7-3.7-1.7-3.7-3.7c0-2.1 1.7-3.7 3.7-3.7m-8.2-8c2 0 3.6 1.7 3.6 3.7s-1.7 3.7-3.8 3.7c-2 0-3.6-1.7-3.6-3.8.1-2.1 1.7-3.6 3.8-3.6m-.1 15.4c-2 0-3.7-1.6-3.7-3.7 0-2 1.6-3.7 3.7-3.7s3.7 1.6 3.7 3.6-1.6 3.8-3.7 3.8m20.3-11.8c0 2.1-1.6 3.7-3.6 3.7s-3.7-1.6-3.7-3.6c0-2.1 1.6-3.7 3.6-3.7 2.1 0 3.7 1.6 3.7 3.6m-8.3-7.9c0 2.1-1.6 3.6-3.7 3.6s-3.7-1.6-3.7-3.7c0-2 1.7-3.7 3.7-3.6 2.1 0 3.7 1.7 3.7 3.7m8.3 0c0 2.1-1.6 3.7-3.7 3.7s-3.7-1.6-3.7-3.7c0-2 1.6-3.7 3.7-3.7s3.7 1.6 3.7 3.7M67.2 6.4c-1.5 0-2.6-1.2-2.6-2.6s1.2-2.6 2.6-2.6c1.5 0 2.7 1.2 2.7 2.6 0 1.4-1.2 2.6-2.7 2.6m0-6.3c-2 0-3.7 1.6-3.7 3.7s1.6 3.7 3.7 3.7 3.7-1.6 3.7-3.7S69.2.1 67.2.1m16.6 22.3c-1.5 0-2.6-1.2-2.6-2.6s1.2-2.6 2.6-2.6c1.5 0 2.7 1.2 2.7 2.6 0 1.5-1.2 2.6-2.7 2.6m0-6.3c-2 0-3.7 1.6-3.7 3.7s1.6 3.7 3.7 3.7 3.7-1.6 3.7-3.7c.1-2-1.6-3.7-3.7-3.7m-8.3-1.8c-1.5 0-2.6-1.1-2.6-2.6 0-1.4 1.1-2.6 2.6-2.6 1.4 0 2.6 1.1 2.6 2.6s-1.1 2.6-2.6 2.6m3.7-2.5c0-.4-.1-.7-.2-1.1-.3-.8-.8-1.5-1.5-2-.1-.1-.2-.1-.3-.2-.1 0-.1-.1-.2-.1-.1-.1-.2-.1-.3-.1-.2-.1-.5-.1-.7-.2h-.6c-.3 0-.6 0-.9.1-.2.1-.5.1-.7.2-.6.3-1.1.7-1.4 1.3l-.1.1c-.3.6-.5 1.2-.5 1.9 0 2.1 1.6 3.7 3.7 3.7s3.7-1.6 3.7-3.6m9.4 10.3v.3h.1c.1 0 .2-.1.2-.1 0-.1-.1-.2-.3-.2.1 0 0 0 0 0zm.5.2c0 .1-.1.2-.2.3l.2.4h-.3l-.2-.4h-.1v.4h-.2v-1.1h.4c.3 0 .4.2.4.4zm-1.2.2c0 .5.3.8.8.8s.8-.4.8-.8c0-.5-.3-.8-.8-.8-.5-.1-.8.3-.8.8zm1.8 0c0 .6-.4 1.1-1 1.1s-1-.5-1-1.1.4-1.1 1-1.1 1 .5 1 1.1zm-64.2-2c-2.4 0-4.2-2-4.2-4.7s1.8-4.7 4.2-4.7c2.5 0 4.3 2 4.3 4.7s-1.8 4.7-4.3 4.7m0-13c-4.6 0-8.1 3.5-8.1 8.2s3.5 8.2 8.1 8.2c2.3 0 4.4-.9 5.9-2.5 1.4-1.5 2.2-3.6 2.2-5.8s-.8-4.3-2.2-5.8c-1.5-1.5-3.6-2.3-5.9-2.3m11.9-6.4c-.7 0-1.2.4-1.2 1v21.3h1.9c1 0 1.7-.7 1.7-1.7v-8h6.7c1 0 1.7-.7 1.7-1.7v-1.8h-8.3V4.7h8.6c.8 0 1.3-.5 1.3-1.3V1.1H37.4zM53.7 8c-.9 0-1.3.7-1.3 1.3v14.2h2.4c.4 0 1.3-.3 1.3-1.3V8h-2.4zm.6-2.6c1.3 0 2.3-1.1 2.3-2.4S55.5.6 54.3.6C53 .7 52 1.8 52 3.1s1 2.3 2.3 2.3M7.8 10.1C6.2 9.5 4.6 8.7 4.6 7c0-.7.2-1.3.7-1.8.6-.5 1.4-.9 2.4-.8 3.4.1 3.1 3.6 3.1 3.6h2.5c.7 0 1.2-.4 1.3-1.1 0-.4-.2-1.1-.2-1.2 0-.1-1.2-4.7-6.8-4.8-2.1 0-4 .8-5.3 2.1C1.2 4.1.7 5.5.7 7c0 4.5 3.5 5.8 7.3 7.1 1.4.5 3.4 1.2 3.4 3.3 0 .8-.3 1.5-.8 2-.6.6-1.6 1-2.6 1-2.5 0-4.1-1.7-4.1-4.3V16H0v.1c0 .4 0 .7.1 1.1 0 .2.1.5.1.7v.1c.1.2.1.5.2.7.1.5.3.9.5 1.3l.3.6c.1.2.2.3.4.5.1.2.3.3.4.5.1.1.3.3.5.4.2.1.3.3.5.4.4.2.7.5 1.1.6.2.1.4.2.6.2.2.1.4.1.6.2h.1c.2 0 .4.1.6.1.2 0 .4.1.6.1h.7c2.4 0 4.5-.8 5.8-2.2 1.2-1.2 1.8-2.8 1.8-4.7.4-4-3.8-5.5-7.1-6.6" fill="#00a9ce"></path></svg>