<svg xmlns="http://www.w3.org/2000/svg" width="27" height="20" viewBox="0 0 27 20">
    <g fill="none" fill-rule="evenodd">
        <path fill="#007AC6" d="M25.24 0H1.76C.789 0 0 .79 0 1.765v16.47C0 19.21.788 20 1.76 20h23.48c.972 0 1.76-.79 1.76-1.765V1.765C27 .79 26.212 0 25.24 0z"/>
        <path fill="#FFF" d="M5.595 10.252h1.368l-.684-1.68-.684 1.68zM24.652 7.06H21.15l-.855.924-.77-.924H12.09l-.684 1.512-.683-1.512H7.73v.672L7.39 7.06H4.826L2.348 12.94h2.991l.342-.924h.854l.342.924h3.333v-.672l.256.672h1.71l.256-.756v.756h6.837l.854-.924.77.924h3.503L22.174 10l2.478-2.941zM14.312 12.1h-.94V8.824L11.918 12.1h-.855L9.611 8.824V12.1H7.646l-.342-.925h-2.05l-.342.925H3.8l1.794-4.202h1.453l1.623 3.95v-3.95h1.624l1.282 2.857 1.196-2.857h1.623V12.1h-.084zm8.46 0H21.49l-1.11-1.43-1.283 1.43h-3.846V7.899h3.931l1.197 1.345 1.281-1.345h1.197L20.977 10l1.795 2.1zm-6.58-3.362v.757h2.136v.84h-2.136v.84h2.393l1.11-1.26-1.024-1.177h-2.48z"/>
    </g>
</svg>
