<svg xmlns="http://www.w3.org/2000/svg" width="57" height="67" viewBox="0 0 57 67">
    <g fill="none" fill-rule="evenodd">
        <path fill="#000" fill-rule="nonzero" d="M57 11.887H39.462v2.161h15.346v27.017h-14.25v-8.646c0-1.787-1.476-3.242-3.289-3.242a3.31 3.31 0 0 0-1.223.238 3.274 3.274 0 0 0-4.385-2.16 3.274 3.274 0 0 0-3.161-2.4 3.275 3.275 0 0 0-3.161 2.4 3.31 3.31 0 0 0-1.224-.239c-1.812 0-3.288 1.455-3.288 3.242v10.807H2.192V14.048h15.346v-2.16H0v31.338h17.538v3.669c0 .643.191 1.264.553 1.798l3.648 5.395c.12.177.184.384.184.598v3.669h-2.192V67h19.73v-8.645H37.27v-3.812c0-.167.04-.336.115-.484l2.826-5.571c.228-.448.348-.95.348-1.45v-3.812H57V11.887zM37.27 64.84H21.922v-4.323H37.27v4.323zm1.095-17.8c0 .166-.04.334-.115.482l-2.826 5.572a3.207 3.207 0 0 0-.347 1.45v3.812H24.115v-3.669c0-.643-.19-1.264-.552-1.798l-3.648-5.396a1.06 1.06 0 0 1-.184-.597v-3.67h3.288V30.259c0-.595.493-1.08 1.096-1.08a1.09 1.09 0 0 1 1.097 1.08v12.968h2.192v-15.13c0-.594.492-1.08 1.096-1.08a1.09 1.09 0 0 1 1.096 1.08v15.13h2.192V30.258c0-.595.493-1.08 1.097-1.08a1.09 1.09 0 0 1 1.096 1.08v12.968h2.192V32.419c0-.595.492-1.08 1.096-1.08a1.09 1.09 0 0 1 1.096 1.08v14.62z"/>
        <path fill="#000" d="M6.577 18.371h3.288V16.21h-5.48v5.403h2.192zM4.385 38.903h5.48v-2.161H6.577V33.5H4.385zM52.615 16.21h-5.48v2.161h3.288v3.242h2.192zM50.423 36.742h-3.288v2.161h5.48V33.5h-2.192zM37.27 24.855h2.192v2.161h-2.193zM41.654 24.855h2.192v2.161h-2.192zM46.038 24.855h2.193v2.161h-2.193zM8.77 24.855h2.192v2.161H8.769zM13.154 24.855h2.192v2.161h-2.192zM17.538 24.855h2.193v2.161h-2.193z"/>
        <path fill="#F0D500" d="M40.558 11.887c0 6.565-5.399 11.887-12.058 11.887-6.66 0-12.058-5.322-12.058-11.887S21.841 0 28.5 0c6.66 0 12.058 5.322 12.058 11.887z"/>
        <path fill="#000" d="M30.692 16.21h-4.384a1.09 1.09 0 0 1-1.096-1.081h-2.193c0 1.787 1.476 3.242 3.289 3.242h1.096v2.161h2.192v-2.161h1.096c1.813 0 3.289-1.455 3.289-3.242v-1.08c0-1.788-1.476-3.243-3.289-3.243h-4.384a1.09 1.09 0 0 1-1.096-1.08v-1.08c0-.596.492-1.081 1.096-1.081h4.384a1.09 1.09 0 0 1 1.096 1.08h2.193c0-1.787-1.476-3.242-3.289-3.242h-1.096V3.242h-2.192v2.161h-1.096c-1.813 0-3.289 1.455-3.289 3.242v1.08c0 1.788 1.476 3.243 3.289 3.243h4.384a1.09 1.09 0 0 1 1.096 1.08v1.081a1.09 1.09 0 0 1-1.096 1.08z"/>
    </g>
</svg>
