<svg xmlns="http://www.w3.org/2000/svg" width="55" height="66" viewBox="0 0 55 66">
    <g fill="none" fill-rule="evenodd">
        <path fill="#F0D500" d="M10.577 56.42h40.192v5.322H10.577zM30.673 53.226c-8.748 0-15.865-7.163-15.865-15.968S21.925 21.29 30.673 21.29c8.748 0 15.865 7.163 15.865 15.968s-7.117 15.968-15.865 15.968z"/>
        <path fill="#000" fill-rule="nonzero" d="M48.654 13.398v-9.14H33.739C33.248 1.832 31.111 0 28.558 0c-2.554 0-4.69 1.832-5.182 4.258H0v55.355h6.346V66H55V19.785l-6.346-6.387zm-2.116.881l4.851 4.882h-4.85V14.28zm0-3.01l-.62-.624H33.847V6.387h12.692v4.882zM2.115 57.484V6.387H23.27v4.258H6.346v46.839h-4.23zm6.347 6.387V12.774h14.807v3.194c0 1.76 1.424 3.193 3.173 3.193 1.75 0 3.173-1.433 3.173-3.193v-9.58H27.5v9.58c0 .586-.475 1.064-1.058 1.064a1.063 1.063 0 0 1-1.057-1.064V5.323c0-1.76 1.423-3.194 3.173-3.194 1.749 0 3.173 1.433 3.173 3.194V19.16h2.115v-6.387h10.577v8.516h8.462v42.581H8.462z"/>
        <path fill="#000" fill-rule="nonzero" d="M41.25 43.664c0-2.363-1.577-4.468-3.835-5.119l-3.569-1.025v-.284A5.34 5.34 0 0 0 35.962 33v-1.908c0-2.861-2.117-5.286-4.82-5.522a5.28 5.28 0 0 0-4.042 1.377 5.351 5.351 0 0 0-1.715 3.924V33a5.34 5.34 0 0 0 2.115 4.236v.284l-3.569 1.026c-2.258.65-3.835 2.755-3.835 5.118v3.175H41.25v-3.175zm-2.115 1.046H22.212v-1.046c0-1.418.946-2.681 2.3-3.071l5.103-1.468v-3.07l-.525-.307A3.163 3.163 0 0 1 27.5 33v-2.129c0-.892.375-1.751 1.03-2.355a3.133 3.133 0 0 1 2.43-.826c1.618.142 2.886 1.635 2.886 3.402V33a3.163 3.163 0 0 1-1.59 2.748l-.525.307v3.07l5.102 1.467a3.208 3.208 0 0 1 2.302 3.072v1.046z"/>
        <path fill="#000" d="M10.577 55.355h40.192v2.129H10.577zM10.577 59.613h35.961v2.129H10.577zM48.654 59.613h2.115v2.129h-2.115z"/>
    </g>
</svg>
