<svg xmlns="http://www.w3.org/2000/svg" width="26" height="20" viewBox="0 0 26 20">
    <g fill="none" fill-rule="evenodd">
        <path fill="#E6E6E6" d="M26 9.491V1.694C26 .758 25.24 0 24.304 0H1.696C.759 0 0 .758 0 1.694v15.812c0 .936.76 1.694 1.696 1.694H7.68C16.52 17.964 23.74 13.041 26 9.491z"/>
        <path fill="#E6E6E6" d="M26 17.506V9.49c-2.26 3.55-9.48 8.473-18.32 9.709h16.624c.937 0 1.696-.758 1.696-1.694z"/>
        <path fill="#FA7000" d="M25.632 17.615V9.6c-2.26 3.55-9.48 8.473-18.32 9.709h16.624c.937 0 1.696-.758 1.696-1.694zM13.582 7.913c-.956 0-1.731.746-1.731 1.667 0 .979.741 1.71 1.73 1.71.966 0 1.727-.742 1.727-1.692 0-.944-.755-1.685-1.726-1.685z"/>
        <path fill="#444" d="M3.756 7.974h-.93v3.243h.925c.492 0 .847-.117 1.158-.375.37-.305.59-.767.59-1.245 0-.958-.716-1.623-1.743-1.623zm.74 2.436c-.2.18-.457.258-.867.258h-.17V8.523h.17c.41 0 .657.074.868.262.218.195.35.496.35.807-.001.312-.132.624-.35.818zM5.79 7.974h.631v3.243h-.63zM7.97 9.217c-.38-.14-.492-.233-.492-.408 0-.203.2-.358.473-.358.19 0 .346.075.512.26l.33-.43a1.413 1.413 0 0 0-.953-.361c-.575 0-1.013.4-1.013.927 0 .449.204.676.798.892.248.086.374.145.438.185.127.082.19.199.19.334 0 .264-.21.458-.493.458a.748.748 0 0 1-.69-.433l-.408.395c.291.427.641.618 1.123.618.658 0 1.12-.44 1.12-1.066.001-.516-.214-.75-.934-1.013zM9.105 9.597c0 .953.749 1.693 1.713 1.693.272 0 .506-.054.793-.19v-.745c-.254.255-.477.355-.765.355-.638 0-1.09-.46-1.09-1.118 0-.621.467-1.114 1.062-1.114.3 0 .53.107.792.365V8.1a1.622 1.622 0 0 0-.78-.198c-.957 0-1.725.753-1.725 1.696zM16.74 10.152l-.865-2.178h-.691L16.56 11.3h.34l1.403-3.325h-.685zM18.59 11.217h1.795v-.55h-1.161v-.874h1.117v-.55h-1.117v-.72h1.161v-.549H18.59zM22.891 8.93c0-.607-.417-.956-1.148-.956h-.94v3.243h.635V9.913h.082l.874 1.304h.78L22.153 9.85c.477-.097.738-.423.738-.92zm-1.27.536h-.183v-.981h.194c.396 0 .608.166.608.481 0 .325-.212.5-.618.5z"/>
    </g>
</svg>
