<svg xmlns="http://www.w3.org/2000/svg" width="64" height="66" viewBox="0 0 64 66">
    <g fill="none" fill-rule="evenodd">
        <g fill="#F0D500">
            <path d="M46.452 16.637C46.452 8.364 41.032.09 32 .09S17.548 8.364 17.548 16.637c0 1.621.298 3.431.801 5.158.008-.271.395-11.363 13.651-11.363s13.643 11.092 13.65 11.363c.504-1.727.802-3.537.802-5.158zM57.412 41.153c-.376-2.687-1.499-7.076-3.88-8.29l-6.048-2.05H45.96c-.452.758-.945 1.416-1.466 1.913L34.353 35.83 24.21 32.726c-.52-.497-1.014-1.155-1.466-1.914l-2.59.88-6.34 3.232c-2.381 1.214-4.027 3.542-4.403 6.23L7.985 51.34h50.854l-1.427-10.187z"/>
        </g>
        <g fill="#000" fill-rule="nonzero">
            <path d="M29.541 25.67h-5.573l-1.684-6.747 9.107 3.04-1.85 3.707zm-3.96-2.068h2.684l.215-.43-3.28-1.095.38 1.525zM40.032 25.67h-5.573l-1.85-3.706 9.107-3.041-1.684 6.747zm-4.297-2.068h2.685l.38-1.525-3.28 1.095.215.43z"/>
        </g>
        <path fill="#000" fill-rule="nonzero" d="M0 54.625c0 2.85 2.315 5.17 5.161 5.17h15.484v4.137h-4.129V66h30.968v-2.068h-4.13v-4.137H58.84c2.846 0 5.161-2.32 5.161-5.17v-3.102H0v3.102zm41.29 9.307H22.71v-4.137h18.58v4.137zM2.065 53.59h59.87v1.034c0 1.71-1.389 3.102-3.096 3.102H5.16a3.103 3.103 0 0 1-3.096-3.102V53.59z"/>
        <path fill="#000" d="M58.839 11.193h-7.226v2.068h7.226a3.103 3.103 0 0 1 3.096 3.102v33.091H64v-33.09c0-2.852-2.315-5.171-5.161-5.171zM2.065 16.363c0-1.71 1.389-3.102 3.096-3.102h7.226v-2.068H5.161c-2.846 0-5.161 2.32-5.161 5.17v33.091h2.065v-33.09z"/>
        <path fill="#3F3A34" d="M52.443 33.964a7.236 7.236 0 0 1 3.921 5.45l1.453 10.187 2.044-.292-1.453-10.187a9.31 9.31 0 0 0-5.042-7.008l-6.453-3.232-.924 1.85 6.454 3.232zM5.592 39.122L4.139 49.308l2.044.292 1.453-10.187a7.236 7.236 0 0 1 3.921-5.45l6.453-3.232-.924-1.85-6.453 3.231a9.315 9.315 0 0 0-5.041 7.01z"/>
        <path fill="#000" fill-rule="nonzero" d="M21.149 31.762l9.819 2.95v14.742h2.064V34.712l9.82-2.95.176-.166c2.499-2.34 4.456-7.667 4.456-12.13 0-8.642-5.791-17.58-15.484-17.58s-15.484 8.938-15.484 17.58c0 4.463 1.957 9.79 4.456 12.13l.177.166zm20.635-1.839L32 32.863l-9.784-2.94c-1.135-1.158-2.158-3.19-2.828-5.413.08-1.308 1.05-10.215 12.612-10.215 11.567 0 12.533 8.916 12.612 10.214-.67 2.223-1.694 4.255-2.828 5.414zM32 3.953c8.4 0 13.42 7.887 13.42 15.512 0 .088-.006.178-.008.267-1.603-3.466-5.224-7.505-13.412-7.505s-11.809 4.039-13.412 7.505c-.002-.089-.007-.179-.007-.267C18.58 11.84 23.599 3.954 32 3.954z"/>
        <path fill="#000" d="M37.161 38.825l5.488-1.834-.653-1.96-6.9 2.303v7.984h2.065zM35.097 47.386h2.065v2.068h-2.065zM28.903 37.334l-6.9-2.303-.652 1.96 5.488 1.834v6.493h2.064zM26.839 47.386h2.065v2.068h-2.065z"/>
    </g>
</svg>
