<svg xmlns="http://www.w3.org/2000/svg" width="27" height="20" viewBox="0 0 27 20">
    <g fill="none" fill-rule="evenodd">
        <path fill="#003564" d="M25.24 0H1.76C.789 0 0 .79 0 1.765v16.47C0 19.21.788 20 1.76 20h23.48c.972 0 1.76-.79 1.76-1.765V1.765C27 .79 26.212 0 25.24 0z"/>
        <path fill="#2285DD" d="M13.886 6.672a4.713 4.713 0 0 1 0 6.656 4.688 4.688 0 0 1-6.641 0 4.713 4.713 0 0 1 0-6.656 4.688 4.688 0 0 1 6.64 0"/>
        <path fill="#376BD1" d="M13.5 13.67c.055-.044.104-.094.157-.14h-.314c.053.046.102.096.157.14z"/>
        <path fill="#F01524" d="M16.435 5.294c-1.482 0-2.802.69-3.663 1.765h1.456c.147.184.276.383.395.588h-2.251c-.11.189-.207.384-.289.588h2.828c.078.19.144.386.197.589h-3.215c-.05.191-.089.387-.113.588h3.442c.024.193.039.389.039.588h-3.522c0 .2.017.395.04.588h3.443c-.025.2-.065.397-.114.588h-3.215c.052.202.114.399.19.589H14.913c-.083.203-.18.4-.289.588h-2.251c.12.206.252.403.4.588h1.456a4.739 4.739 0 0 1-.571.588h-.321a4.667 4.667 0 0 0 3.098 1.177A4.701 4.701 0 0 0 21.13 10a4.7 4.7 0 0 0-4.695-4.706z"/>
    </g>
</svg>
