<svg xmlns="http://www.w3.org/2000/svg" width="27" height="20" viewBox="0 0 27 20">
    <g fill="none" fill-rule="evenodd">
        <path fill="#E6E6E6" d="M0 4.118h27v11.176H0z"/>
        <path fill="#E79800" d="M1.76 20h23.48c.972 0 1.76-.79 1.76-1.765v-2.94H0v2.94C0 19.21.788 20 1.76 20z"/>
        <path fill="#1A1876" d="M25.24 0H1.76C.789 0 0 .79 0 1.765v2.94h27v-2.94C27 .79 26.212 0 25.24 0zM10.705 12.824h1.531l.959-5.633h-1.532zM16.284 9.452c-.535-.26-.863-.434-.86-.698 0-.234.278-.485.878-.485.49-.007.886.093 1.284.281l.208-1.221a3.948 3.948 0 0 0-1.373-.237c-1.514 0-2.58.764-2.59 1.86-.008.809.762 1.26 1.343 1.53.596.276.797.452.794.699-.003.377-.476.55-.917.55-.68 0-1.022-.106-1.639-.386l-.215 1.261c.358.158 1.02.294 1.707.301 1.61 0 2.656-.755 2.668-1.925.004-.64-.404-1.128-1.288-1.53zM21.721 7.196h-1.183c-.367 0-.641.1-.803.467l-2.275 5.162h1.609s.263-.694.323-.846l1.962.002c.046.197.187.844.187.844h1.421l-1.24-5.63zm-1.888 3.631c.063-.162.688-1.771.813-2.112.207.97.005.029.459 2.112h-1.272zM9.42 7.195l-1.5 3.84-.16-.78-.537-2.589c-.093-.356-.361-.462-.694-.475H4.058l-.02.117a6.449 6.449 0 0 1 1.61.618l1.362 4.892 1.621-.002 2.412-5.622H9.42z"/>
    </g>
</svg>
