<svg xmlns="http://www.w3.org/2000/svg" width="17.5" height="17.5">
    <path fill="#FFF" fill-rule="evenodd" stroke="#004993" d="M.5.5h16v16H.5V.5z"/>
    <path fill="#004993" fill-rule="evenodd" d="M5.401 11.321l.227-.64.534-1.428 1.902-4.754h1.909v4.877c0 .64-.05 1.289-.148 1.946.038-.115.29-.826.755-2.131L12.301 4.5h2.198l-3.606 9.001H8.275V9.684c0-.636.024-1.301.073-1.995-.125.546-.348 1.262-.67 2.149l-1.437 3.663H3.776L3.498 4.5h2.101l-.056 4.513c-.023 1.096-.07 1.865-.142 2.308z"/>
</svg>
