<svg xmlns="http://www.w3.org/2000/svg" width="17.5" height="17.5">
    <path fill="#FFF" fill-rule="evenodd" stroke="#FB3449" d="M.5.5h16v16H.5V.5z"/>
    <path fill="#FB3449" fill-rule="evenodd" d="M10.624 9.066a12.274 12.274 0 0 1-.996-.86c-.317-.317-.6-.625-.846-.918.383-1.185.551-1.795.551-2.121 0-1.383-.499-1.667-1.25-1.667-.57 0-1.25.297-1.25 1.707 0 .622.341 1.377 1.016 2.254-.165.504-.359 1.085-.577 1.741a9.3 9.3 0 0 1-.34.875 7.578 7.578 0 0 0-.285.134c-.331.166-.646.315-.937.453-1.331.63-2.21 1.046-2.21 1.869 0 .598.649.968 1.25.968.775 0 1.945-1.035 2.799-2.778.887-.35 1.99-.61 2.86-.772.698.536 1.468 1.049 1.841 1.049 1.033 0 1.25-.597 1.25-1.098 0-.985-1.125-.985-1.667-.985-.168 0-.619.05-1.209.149zM4.75 12.667a.658.658 0 0 1-.417-.134c0-.295.881-.713 1.733-1.116l.165-.078c-.626.907-1.245 1.328-1.481 1.328zm2.917-7.46c0-.873.271-.873.416-.873.295 0 .417 0 .417.833 0 .176-.117.615-.332 1.301-.327-.503-.501-.935-.501-1.261zm.319 4.478l.076-.219.418-1.256c.173.19.359.385.559.585.078.078.272.254.529.474-.513.112-1.059.251-1.582.416zm4.681.217c0 .187 0 .265-.387.268-.113-.025-.376-.179-.7-.4.118-.013.204-.019.253-.019.616 0 .791.06.834.151z"/>
</svg>
