<svg xmlns="http://www.w3.org/2000/svg" width="38" height="38" viewBox="0 0 38 38">
    <g fill="none" fill-rule="evenodd">
        <ellipse cx="18.589" cy="18.57" fill="#F8EBF7" rx="18.589" ry="18.57"/>
        <path fill="#CB60C6" d="M18.786 16.049l3.326 4.065a.37.37 0 0 1-.286.603H19.24v5.913a.37.37 0 0 1-.37.37h-.739a.37.37 0 0 1-.37-.37v-5.913h-2.586a.37.37 0 0 1-.286-.603l3.326-4.066a.37.37 0 0 1 .572 0z"/>
        <path fill="#C65CC1" fill-opacity=".5" fill-rule="nonzero" d="M26.26 10H10.74a.74.74 0 0 0-.74.74v12.564c0 .409.33.74.74.74h5.543v-.74h-5.174a.37.37 0 0 1-.37-.37v-8.869a.37.37 0 0 1 .37-.37H25.89a.37.37 0 0 1 .37.37v8.87a.37.37 0 0 1-.37.37h-5.174v.738h5.544a.74.74 0 0 0 .739-.739V10.74a.74.74 0 0 0-.74-.739zm-14.412 2.587a.74.74 0 1 1-.034-1.478.74.74 0 0 1 .034 1.478zm2.587 0a.74.74 0 1 1-.034-1.478.74.74 0 0 1 .034 1.478zm2.587 0a.74.74 0 1 1-.034-1.478.74.74 0 0 1 .034 1.478z"/>
    </g>
</svg>
