<svg xmlns="http://www.w3.org/2000/svg" width="38" height="38" viewBox="0 0 38 38">
    <g fill="none" fill-rule="evenodd">
        <ellipse cx="18.589" cy="18.57" fill="#BADC58" fill-opacity=".25" rx="18.589" ry="18.57"/>
        <path fill="#7BC15D" d="M24.966 15.672v5.902a.253.253 0 0 1-.26.246h-3.62a.253.253 0 0 0-.258.246v1.23h-4.656v-1.23a.253.253 0 0 0-.258-.246h-3.62a.253.253 0 0 1-.26-.246v-5.902h-.517a.505.505 0 0 0-.517.492v8.852c0 .544.463.984 1.034.984h12.932c.57 0 1.034-.44 1.034-.984v-8.852a.505.505 0 0 0-.517-.492h-.517z"/>
        <path fill="#BADC58" fill-rule="nonzero" d="M23.931 11H13.069a.505.505 0 0 0-.517.492v9.59c0 .136.116.246.258.246h11.38c.142 0 .258-.11.258-.246v-9.59a.505.505 0 0 0-.517-.492z"/>
        <path fill="#E7F3C5" fill-rule="nonzero" d="M18.5 18.869h-2.845a.252.252 0 0 1-.258-.246c0-.136.115-.246.258-.246H18.5c.143 0 .259.11.259.246a.252.252 0 0 1-.259.246zM21.345 16.41h-5.69a.252.252 0 0 1-.258-.246c0-.136.115-.246.258-.246h5.69c.143 0 .258.11.258.246a.252.252 0 0 1-.258.246zM21.345 13.95h-5.69a.252.252 0 0 1-.258-.245c0-.136.115-.246.258-.246h5.69c.143 0 .258.11.258.246a.252.252 0 0 1-.258.246z"/>
    </g>
</svg>
