<svg xmlns="http://www.w3.org/2000/svg" width="36" height="36" viewBox="0 0 36 36">
    <g fill="none" fill-rule="evenodd">
        <ellipse cx="17.996" cy="17.978" fill="#F9CA23" fill-opacity=".25" rx="17.996" ry="17.978"/>
        <path fill="#F19B3A" d="M26.723 8.171H9.02a1.027 1.027 0 1 0 0 2.055V9.198h17.703v1.028a1.027 1.027 0 0 0 0-2.055z"/>
        <path fill="#F7D794" d="M9.796 25.013L11.847 27l2.052-1.987L15.949 27 18 25.013 20.052 27l2.051-1.987L24.155 27l2.05-1.987.684.66V9.119H9.11v16.556z"/>
        <path fill="#F19B3A" d="M23.598 15.851c0 .304.315.551.701.551.387 0 .701-.247.701-.55 0-1.327-1.203-2.44-2.8-2.694v-.607c0-.304-.314-.551-.7-.551-.386 0-.7.247-.7.55v.608c-.763.124-1.46.44-1.973.918-.427.398-.626.905-.557 1.432.072.537.427 1.036.97 1.37l1.56.953v2.991c-.814-.228-1.398-.832-1.398-1.549 0-.304-.315-.55-.701-.55-.387 0-.701.246-.701.55 0 1.329 1.203 2.438 2.8 2.696v.484c0 .303.314.547.7.547.386 0 .7-.244.7-.547v-.486c.763-.121 1.46-.441 1.973-.919.427-.398.626-.905.557-1.431-.076-.538-.427-1.037-.97-1.37l-1.56-.953v-2.992c.814.228 1.398.832 1.398 1.55zm-.696 3.263c.242.15.402.376.434.616a.688.688 0 0 1-.233.609 2.185 2.185 0 0 1-.902.48v-2.132l.7.427zm-2.804-3.104c-.242-.15-.402-.373-.434-.615a.684.684 0 0 1 .233-.607c.242-.228.557-.387.902-.483v2.132l-.7-.428z"/>
        <path stroke="#F0932B" stroke-linecap="square" stroke-width=".88" d="M11.444 14.706h4.152M11.444 11.353h6.428M11.444 18.059h4.392M11.444 21.412h4.392"/>
    </g>
</svg>
