<svg xmlns="http://www.w3.org/2000/svg" width="38" height="38" viewBox="0 0 38 38">
    <g fill="none" fill-rule="evenodd">
        <ellipse cx="18.589" cy="18.57" fill="#E056FD" fill-opacity=".2" rx="18.589" ry="18.57"/>
        <path fill="#D56BEC" d="M19 10c-3.396 0-7 .877-7 2.468 0 1.59 3.604 2.467 7 2.467s7-.877 7-2.467S22.396 10 19 10z"/>
        <path fill="#E056FD" fill-opacity=".5" d="M23.926 14.826c-1.322.411-3.111.658-4.926.658s-3.604-.247-4.926-.658c-1.063-.33-1.685-.74-2.074-1.152V18.5c0 1.59 3.604 2.468 7 2.468s7-.878 7-2.468v-4.826c-.389.411-1.037.823-2.074 1.152z"/>
        <path fill="#E056FD" fill-opacity=".5" d="M23.926 20.858c-1.322.411-3.111.658-4.926.658s-3.604-.247-4.926-.658c-1.063-.329-1.685-.74-2.074-1.152v4.826C12 26.122 15.604 27 19 27s7-.877 7-2.468v-4.826c-.389.412-1.037.823-2.074 1.152z"/>
    </g>
</svg>
