<svg xmlns="http://www.w3.org/2000/svg" width="36" height="36" viewBox="0 0 36 36">
    <g fill="none" fill-rule="evenodd">
        <ellipse cx="17.996" cy="17.978" fill="#FF7979" fill-opacity=".25" rx="17.996" ry="17.978"/>
        <path fill="#F58383" d="M25.652 23H10.348c-.192 0-.348-.145-.348-.324V12.324c0-.18.156-.324.348-.324h15.304c.192 0 .348.145.348.324v10.352c0 .18-.156.324-.348.324z"/>
        <path fill="#F58383" d="M18 15.882c.084 0 .168.028.234.084l7.652 6.471c.107.09.142.232.09.356a.348.348 0 0 1-.324.207H10.348a.348.348 0 0 1-.325-.207.308.308 0 0 1 .09-.356l7.653-6.47a.363.363 0 0 1 .234-.085z"/>
        <path fill="#E45554" d="M18 19.118a.363.363 0 0 1-.234-.084l-7.652-6.471a.308.308 0 0 1-.09-.356.348.348 0 0 1 .324-.207h15.304c.144 0 .273.082.325.207a.308.308 0 0 1-.09.356l-7.653 6.47a.363.363 0 0 1-.234.085z"/>
    </g>
</svg>
