<svg xmlns="http://www.w3.org/2000/svg" width="36" height="36" viewBox="0 0 36 36">
    <g fill="none" fill-rule="evenodd">
        <ellipse cx="17.996" cy="17.978" fill="#FFEFE9" rx="17.996" ry="17.978"/>
        <path fill="#EC805C" fill-rule="nonzero" d="M8 19.189L9.698 21v-1.358h2.984v-.906H9.698v-1.359L8 19.19zm5.302-2.83h-2.984v.905h2.984v1.359L15 16.81 13.302 15v1.358z"/>
        <path fill="#FDA98D" fill-rule="nonzero" d="M23.762 17.615a2.62 2.62 0 0 1-.762-.111c.47-.623.754-1.38.754-2.196 0-.816-.283-1.573-.754-2.196a2.62 2.62 0 0 1 .762-.112c1.38 0 2.492 1.035 2.492 2.308s-1.112 2.307-2.492 2.307zm.35 1.662c1.671.273 3.65 1 3.65 2.185V23h-2.5v-1.538c0-.908-.458-1.627-1.15-2.185z"/>
        <path fill="#EC805C" d="M22.807 19.884c-.71-.247-1.86-.543-3.307-.543-1.448 0-2.597.296-3.307.543-.713.25-1.193.89-1.193 1.597v1.275c0 .135.119.244.265.244h8.47c.146 0 .265-.11.265-.244v-1.275c0-.706-.48-1.348-1.193-1.597zM19.5 18.366c1.466 0 2.647-1.601 2.647-2.927C22.147 14.094 20.96 13 19.5 13c-1.46 0-2.647 1.094-2.647 2.439 0 1.326 1.18 2.927 2.647 2.927z"/>
    </g>
</svg>
