<svg xmlns="http://www.w3.org/2000/svg" width="38" height="38" viewBox="0 0 38 38">
    <g fill="none" fill-rule="evenodd">
        <ellipse cx="18.589" cy="18.57" fill="#686DE0" fill-opacity=".25" rx="18.589" ry="18.57"/>
        <g fill-rule="nonzero">
            <path fill="#4834D4" d="M19 24.09c-.829 0-1.5.652-1.5 1.455 0 .804.671 1.455 1.5 1.455s1.5-.65 1.5-1.455c0-.803-.671-1.454-1.5-1.454z"/>
            <path fill="#686DE0" d="M14.5 11c-.829 0-1.5.65-1.5 1.455 0 .803.671 1.454 1.5 1.454s1.5-.65 1.5-1.454C16 11.65 15.329 11 14.5 11zM14.5 15.364c-.829 0-1.5.65-1.5 1.454 0 .804.671 1.455 1.5 1.455s1.5-.651 1.5-1.455c0-.803-.671-1.454-1.5-1.454zM14.5 19.727c-.829 0-1.5.651-1.5 1.455 0 .803.671 1.454 1.5 1.454s1.5-.65 1.5-1.454c0-.804-.671-1.455-1.5-1.455zM23.5 13.91c.829 0 1.5-.652 1.5-1.455C25 11.65 24.329 11 23.5 11s-1.5.65-1.5 1.455c0 .803.671 1.454 1.5 1.454z"/>
            <path fill="#4834D4" d="M19 19.727c-.829 0-1.5.651-1.5 1.455 0 .803.671 1.454 1.5 1.454s1.5-.65 1.5-1.454c0-.804-.671-1.455-1.5-1.455z"/>
            <path fill="#686DE0" d="M23.5 19.727c-.829 0-1.5.651-1.5 1.455 0 .803.671 1.454 1.5 1.454s1.5-.65 1.5-1.454c0-.804-.671-1.455-1.5-1.455zM23.5 15.364c-.829 0-1.5.65-1.5 1.454 0 .804.671 1.455 1.5 1.455s1.5-.651 1.5-1.455c0-.803-.671-1.454-1.5-1.454z"/>
            <path fill="#4834D4" d="M19 15.364c-.829 0-1.5.65-1.5 1.454 0 .804.671 1.455 1.5 1.455s1.5-.651 1.5-1.455c0-.803-.671-1.454-1.5-1.454zM19 11c-.829 0-1.5.65-1.5 1.455 0 .803.671 1.454 1.5 1.454s1.5-.65 1.5-1.454C20.5 11.65 19.829 11 19 11z"/>
        </g>
    </g>
</svg>
