<svg xmlns="http://www.w3.org/2000/svg" xmlns:xlink="http://www.w3.org/1999/xlink" width="60" height="60" viewBox="0 0 60 60">
    <defs>
        <path id="a" d="M.03.122h59.834V59.97H.03z"/>
    </defs>
    <g fill="none" fill-rule="evenodd">
        <path fill="#159D8F" d="M7.315 23.128a4.064 4.064 0 0 1-.9-1.501 26.455 26.455 0 0 0-1.397 7.669l3.063-5.54a4.07 4.07 0 0 1-.766-.628"/>
        <path fill="#0A8A44" d="M10.402 16.256l.227-2.39a26.532 26.532 0 0 0-1.843 2.67 4.105 4.105 0 0 1 1.616-.28"/>
        <path fill="#253967" d="M47.95 47.678a3.352 3.352 0 0 1-4.957-.377l-13.946 6.336a2.752 2.752 0 0 1-.834 2.36 2.762 2.762 0 0 1-.309.248c7.591.995 15.55-1.31 21.544-6.985.266-.253.522-.514.777-.774l-1.909-1.222c-.11.145-.23.285-.366.414"/>
        <path fill="#582D7A" d="M47.734 42.624c.12.096.237.197.346.313a3.354 3.354 0 0 1 .517 3.892l1.992 1.274a26.243 26.243 0 0 0 7.07-17.15 3.591 3.591 0 0 1-1.682-.481l-8.242 12.152"/>
        <path fill="#0A8A44" d="M18.991 10.255c.35-.33.796-.49 1.242-.488l1.829-4.285a26.207 26.207 0 0 0-7.257 4.163l3.89.993c.08-.136.175-.268.296-.383"/>
        <path fill="#C72254" d="M36.464 7.734a3.237 3.237 0 0 1 5.407 1.772l5.162-.512A26.308 26.308 0 0 0 29.27 3.887l6.824 4.267c.11-.147.231-.29.37-.42"/>
        <path fill="#DB2C6F" d="M41.25 12.052l14.042 12.711c.003-.004.006-.009.011-.012a3.58 3.58 0 0 1 1.611-.878 26.191 26.191 0 0 0-6.453-11.844 26.451 26.451 0 0 0-2.821-2.574l-5.72.568a3.22 3.22 0 0 1-.67 2.029"/>
        <path fill="#DF5430" d="M21.53 10.325c.23.242.373.532.442.836l13.483-1.08c0-.512.123-1.022.364-1.488l-7.4-4.628a26.39 26.39 0 0 0-5.695 1.285L20.76 9.852c.284.088.552.242.77.473"/>
        <path fill="#253967" d="M24.208 52.226l-4.544-4.859a2.149 2.149 0 0 1-2.833-.25 2.15 2.15 0 0 1-.488-2.103L7.384 41.08a26.26 26.26 0 0 0 4.832 7.166 26.217 26.217 0 0 0 11.742 7.17 2.755 2.755 0 0 1 .25-3.19"/>
        <path fill="#0A8A44" d="M18.724 12.539a1.789 1.789 0 0 1-.235-1.418l-4.185-1.066c-.364.308-.725.627-1.075.96a26.751 26.751 0 0 0-2.011 2.132l-.301 3.162a4.05 4.05 0 0 1 2.232 1.14l5.575-4.91"/>
        <path fill="#3BAB48" d="M18.991 29.731l.366-6.8-5.212-1.341a4.014 4.014 0 0 1-.924 1.54l4.846 6.815c.297-.118.61-.19.924-.214"/>
        <path fill="#C72254" d="M38.76 13.313l-.526 9a5.076 5.076 0 0 1 4.529 4.799l11.43-.007c.05-.698.302-1.38.753-1.956L40.904 12.438a3.217 3.217 0 0 1-2.145.875"/>
        <path fill="#276AA5" d="M25.188 51.485l-1.897-5.663-2.759.041a2.13 2.13 0 0 1-.49 1.149l4.535 4.852c.19-.156.396-.281.611-.379M30.108 45.725l-2.499 5.839c.228.121.442.277.634.467l7.543-6.388-5.678.082"/>
        <path fill="#812D7B" d="M54.19 27.622l-11.427.008a5.073 5.073 0 0 1-2.325 4.024l3.252 7.296 11.184-9.472a3.586 3.586 0 0 1-.684-1.856"/>
        <path fill="#1C4E71" d="M37.224 45.105l5.076-.072a3.341 3.341 0 0 1 1.305-2.454l-.933-2.09-5.447 4.616M36.602 45.632l-7.297 6.18 13.048-5.929c-.02-.11-.037-.22-.047-.333l-5.704.082"/>
        <path fill="#159D8F" d="M5.716 36.215l10.352-2.704a3.226 3.226 0 0 1 .73-2.666l-4.844-6.81a4.076 4.076 0 0 1-3.42-.029l-3.526 6.378a26.42 26.42 0 0 0 .708 5.831"/>
        <path fill="#349FCD" d="M18.255 43.492l.395-7.373a3.206 3.206 0 0 1-2.45-2.107L5.839 36.719a25.98 25.98 0 0 0 1.233 3.658l9.479 4.162c.1-.168.215-.33.364-.47.381-.36.857-.544 1.34-.577"/>
        <path fill="#582D7A" d="M43.908 39.443l1.119 2.505a3.361 3.361 0 0 1 2.28.383l8.242-12.153a3.897 3.897 0 0 1-.342-.304l-11.299 9.569"/>
        <path fill="#85BF42" d="M19.87 23.062l-.358 6.671a3.21 3.21 0 0 1 2.51 1.564l10.617-3.21a5.09 5.09 0 0 1 .05-1.728l-12.82-3.297"/>
        <path fill="#38A2CF" d="M33.979 30.878a5.092 5.092 0 0 1-.894-1.302L22.47 32.788a3.22 3.22 0 0 1-1.002 2.507c-.286.27-.609.476-.953.621l3.146 9.385 6.103-.088 5.677-13.266a5.076 5.076 0 0 1-1.462-1.069"/>
        <path fill="#EA8A2F" d="M36.34 12.306a3.145 3.145 0 0 1-.339-.428l-15.838 5.71-.266 4.947 12.921 3.322a5.076 5.076 0 0 1 4.899-3.572l.525-9.001a3.206 3.206 0 0 1-1.901-.978M21.462 12.864a1.785 1.785 0 0 1-1.072.478l-.137 2.56 14.561-5.25-12.8 1.025a1.78 1.78 0 0 1-.552 1.188"/>
        <path fill="#3BAB48" d="M19.386 22.403l.248-4.624-5.337 1.923c.07.461.061.928-.027 1.384l5.116 1.317M13.769 18.24l5.955-2.147.148-2.774a1.78 1.78 0 0 1-.802-.395l-5.575 4.911c.1.129.19.265.274.405"/>
        <path fill="#38A2CF" d="M23.834 45.816l1.845 5.502c.479-.113.98-.099 1.452.047l2.41-5.632-5.707.083"/>
        <path fill="#276AA5" d="M35.916 32.15l-5.584 13.054 6.075-.087 6.047-5.12-3.435-7.708a5.11 5.11 0 0 1-3.102-.139"/>
        <g>
            <mask id="b" fill="#fff">
                <use xlink:href="#a"/>
            </mask>
            <path fill="#276AA5" d="M20.024 36.081c-.24.06-.486.09-.732.093L18.8 43.52c.43.083.84.289 1.163.63.325.343.508.761.568 1.194l2.585-.037-3.092-9.226" mask="url(#b)"/>
            <path fill="#28B9E0" d="M59.863 30.064a29.234 29.234 0 0 0-2.27-11.206c-1.487-3.535-3.713-6.741-6.44-9.409a28.8 28.8 0 0 0-9.532-6.146A28.676 28.676 0 0 0 30.537 1.35 28.672 28.672 0 0 0 19.639 3.75c-3.421 1.486-6.513 3.667-9.097 6.317-5.185 5.299-8.175 12.618-8.117 19.996-.06 7.377 2.926 14.702 8.113 20.001 2.581 2.654 5.677 4.832 9.099 6.318a28.626 28.626 0 0 0 10.902 2.404c3.76.083 7.554-.569 11.085-1.958a28.776 28.776 0 0 0 9.531-6.147c2.726-2.669 4.954-5.875 6.44-9.41a29.246 29.246 0 0 0 2.269-11.208zm0 0c.063 7.691-3.061 15.337-8.471 20.856-2.696 2.762-5.922 5.032-9.491 6.579a29.885 29.885 0 0 1-11.364 2.494c-3.916.084-7.871-.6-11.549-2.047a30.04 30.04 0 0 1-9.923-6.409c-2.84-2.78-5.151-6.12-6.704-9.802A30.445 30.445 0 0 1 0 30.064a30.4 30.4 0 0 1 2.359-11.672c1.545-3.684 3.865-7.022 6.701-9.803 2.845-2.782 6.253-4.959 9.926-6.411A29.872 29.872 0 0 1 30.538.129c3.917.078 7.804.935 11.364 2.497 3.569 1.549 6.797 3.818 9.492 6.582 5.408 5.52 8.53 13.167 8.469 20.856z" mask="url(#b)"/>
        </g>
    </g>
</svg>
