<svg xmlns="http://www.w3.org/2000/svg" width="60" height="60" viewBox="0 0 60 60">
    <g fill="none" fill-rule="nonzero">
        <path fill="#1FC0E7" d="M30 60c16.569 0 30-13.432 30-30C60 13.43 46.57 0 30 0 13.432 0 0 13.43 0 30c0 16.568 13.431 30 30 30"/>
        <path fill="#FFF" d="M14.547 29.993l5.133-4.973a.865.865 0 0 0 .193-.965.922.922 0 0 0-.848-.546.923.923 0 0 0-.654.265l-5.13 4.95-5.15-4.96a.937.937 0 0 0-.65-.255.92.92 0 0 0-.85.552.864.864 0 0 0 .207.968l5.132 4.956-5.13 4.96a.879.879 0 0 0-.278.636c0 .49.412.888.92.889.245 0 .476-.091.65-.259l5.143-4.962 5.123 4.943c.182.18.415.278.667.278.508-.001.92-.4.919-.889a.863.863 0 0 0-.268-.627l-5.13-4.967.001.006zm30.513-.002c0 .892.75 1.614 1.674 1.615.92 0 1.67-.724 1.67-1.614 0-.892-.75-1.615-1.671-1.615-.92 0-1.669.723-1.669 1.614h-.004zm-3.167 0c0-2.576 2.17-4.675 4.84-4.675 2.665 0 4.84 2.099 4.84 4.675 0 2.577-2.173 4.676-4.84 4.676-2.67 0-4.84-2.096-4.84-4.676zm-1.905 0c0 3.59 3.027 6.515 6.745 6.515s6.745-2.921 6.745-6.513c0-3.59-3.027-6.515-6.745-6.515-3.72 0-6.745 2.923-6.745 6.515v-.002zm-.478-6.402h-.282c-.85 0-1.67.259-2.354.769a.926.926 0 0 0-.903-.698.928.928 0 0 0-.646.26.863.863 0 0 0-.265.624l.003 10.971c0 .487.415.884.917.884.508-.001.92-.397.92-.886v-6.747c0-2.247.215-3.157 2.208-3.397.187-.022.386-.018.388-.018.544-.02.933-.382.933-.872-.002-.491-.415-.889-.925-.888l.006-.002zm-17.662 5.332c0-.026.003-.052.004-.075.534-2.04 2.446-3.548 4.722-3.548 2.304 0 4.232 1.542 4.741 3.619h-9.468l.001.004zm11.349-.168c-.396-1.812-1.424-3.301-2.987-4.257-2.287-1.403-5.307-1.325-7.514.194-1.803 1.236-2.843 3.26-2.843 5.347 0 .523.067 1.05.2 1.571.681 2.583 2.982 4.541 5.725 4.866a6.589 6.589 0 0 0 2.425-.155 6.787 6.787 0 0 0 2.017-.832c.652-.404 1.197-.94 1.728-1.579.008-.012.018-.021.029-.034.367-.44.299-1.067-.103-1.364-.34-.252-.911-.354-1.358.201a5.974 5.974 0 0 1-.322.407c-.357.381-.8.75-1.331 1.036a5 5 0 0 1-2.264.552c-2.676-.03-4.106-1.835-4.617-3.12a4.663 4.663 0 0 1-.204-.75l-.014-.136h9.604c1.315-.028 2.022-.926 1.826-1.95l.003.003z"/>
    </g>
</svg>
