<svg width="40" height="40" viewBox="0 0 40 40" fill="none" xmlns="http://www.w3.org/2000/svg">
<g>
<path fill-rule="evenodd" clip-rule="evenodd" d="M14.0257 11.4931V9H16.8661V15.1747L23.3879 15.1747V9H26.2283V15.4364L31 11.0396V31L23.3879 25.5762V24.8788L26.2283 22.2674V24.109L28.1596 25.4852V17.5221L26.2283 19.3017V19.3417L26.2055 19.3197L23.3879 21.9232V21.9189L20.0882 24.9593L16.8661 22.0397V25.5982L9 30.9197V11.076L11.8417 13.651V17.487L11.8404 17.4857V25.5654L14.0257 24.087V21.281H14.0314V11.4931H14.0257ZM23.3879 18.0192H16.8661V18.2036L20.0722 21.1088L23.3879 18.0536V18.0192Z" fill="#50F5AC"/>
</g>
</svg>
