<svg width="24" height="24" viewBox="0 0 24 24" xmlns="http://www.w3.org/2000/svg">
  <path fill="#E60023" fill-rule="evenodd" clip-rule="evenodd" d="M11.987 0C5.38 0 0 5.36 0 12c0 5.067 3.17 9.413 7.618 11.173-.106-.96-.186-2.4.053-3.44.214-.933 1.412-5.973 1.412-5.973s-.346-.72-.346-1.787c0-1.68.959-2.906 2.158-2.906 1.012 0 1.518.773 1.518 1.68 0 1.04-.666 2.56-.986 4-.293 1.2.586 2.16 1.785 2.16 2.131 0 3.756-2.24 3.756-5.494 0-2.88-2.051-4.88-5.008-4.88-3.41 0-5.407 2.56-5.407 5.2 0 1.04.4 2.134.879 2.747.106.107.106.213.08.347-.08.373-.293 1.2-.32 1.36-.053.213-.186.266-.4.16-1.491-.694-2.424-2.88-2.424-4.64 0-3.787 2.744-7.254 7.912-7.254 4.155 0 7.378 2.96 7.378 6.934 0 4.133-2.61 7.466-6.206 7.466-1.226 0-2.344-.64-2.744-1.386 0 0-.613 2.293-.746 2.853-.266 1.04-1.012 2.347-1.491 3.147a12.01 12.01 0 003.542.533C18.62 24 24 18.64 24 12c-.053-6.64-5.407-12-12.013-12z"></path>
</svg>