<svg xmlns="http://www.w3.org/2000/svg" width="54" height="19" viewBox="0 0 54 19">
    <g fill="none" fill-rule="evenodd">
        <path fill="#2FABF7" d="M4.623 4.692h1.883l-.942-2.41z"/>
        <path fill="#228FE0" d="M27.994 2.626c-.172-.086-.429-.086-.685-.086h-1.712v1.377h1.712c.256 0 .513 0 .685-.086.17-.086.256-.344.256-.603.086-.344-.085-.516-.256-.602z"/>
        <path fill="#0571C1" fill-rule="nonzero" d="M46.313.043v1.033L45.8.043h-4.024v1.033L41.263.043h-5.48c-.94 0-1.711.172-2.396.517V.043h-3.853V.56c-.428-.345-.941-.517-1.626-.517H14.125l-.942 2.152-.941-2.152H7.876v1.033L7.362.043h-3.68L1.968 4.089 0 8.566h4.366l.514-1.378h1.198l.514 1.378h4.965V7.533l.428 1.033h2.483l.428-1.033v1.033h11.899V6.327h.171c.171 0 .171 0 .171.259V8.48h6.164v-.517c.514.258 1.284.517 2.312.517h2.568l.513-1.378h1.199l.514 1.378h4.965V7.188l.77 1.292h4.024V.043h-3.853zM17.378 7.274h-1.455V2.54l-2.055 4.734h-1.284L10.53 2.54v4.734H7.619l-.6-1.29H4.11L3.595 7.36H1.97l2.568-6.113h2.14l2.397 5.768V1.248h2.312l1.883 4.133 1.712-4.133h2.397v6.026zM23.2 2.54h-3.34v1.119h3.254v1.205H19.86v1.205H23.2v1.292h-4.794V1.248H23.2V2.54zm6.42 2.496c.171.345.257.603.257 1.12V7.36h-1.455v-.775c0-.345 0-.861-.257-1.205-.257-.259-.514-.259-1.028-.259h-1.54v2.239H24.14V1.248h3.253c.77 0 1.284 0 1.712.259.428.258.685.688.685 1.377 0 .947-.599 1.463-1.027 1.636.428.086.685.344.856.516zm2.568 2.238h-1.455V1.162h1.455v6.112zm16.865 0h-2.055l-2.74-4.562v4.562h-2.91l-.513-1.29h-2.997l-.513 1.377h-1.627c-.685 0-1.54-.173-2.054-.69-.514-.516-.77-1.204-.77-2.324 0-.86.17-1.721.77-2.41.428-.517 1.198-.689 2.14-.689h1.37V2.54h-1.37c-.514 0-.77.086-1.113.344-.257.258-.428.775-.428 1.377 0 .69.085 1.12.428 1.464.257.258.6.344 1.027.344h.6l1.968-4.735h2.14l2.398 5.768V1.334h2.14l2.482 4.219V1.334h1.456v5.94h.17z"/>
        <g fill="#228FE0">
            <path d="M38.352 4.692h1.969l-.942-2.41zM23.799 17.088v-4.907l-2.226 2.41z"/>
        </g>
        <path fill="#2FABF7" d="M14.639 12.784v1.12h3.167v1.204H14.64V16.4h3.51l1.626-1.808-1.54-1.808z"/>
        <path fill="#228FE0" d="M27.052 12.784h-1.798v1.55h1.883c.514 0 .857-.259.857-.775-.086-.517-.429-.775-.942-.775z"/>
        <path fill="#0571C1" fill-rule="nonzero" d="M53.504 14.248v-3.874H49.91c-.77 0-1.37.172-1.798.516v-.516h-3.938c-.599 0-1.37.172-1.712.516v-.516h-6.934v.516c-.514-.43-1.455-.516-1.883-.516H29.02v.516c-.428-.43-1.456-.516-1.97-.516h-5.136l-1.198 1.29-1.113-1.29h-7.705v8.436h7.534l1.198-1.291 1.113 1.291h4.623v-1.98h.6c.598 0 1.369 0 1.968-.258v2.324h3.853v-2.238h.17c.258 0 .258 0 .258.258v1.98h11.642c.77 0 1.541-.172 1.97-.516v.516h3.68c.77 0 1.541-.086 2.055-.43.856-.517 1.37-1.464 1.37-2.583 0-.602-.172-1.205-.429-1.635zm-26.538 1.377h-1.712v2.066h-2.74l-1.711-1.98-1.798 1.98h-5.65V11.58h5.735l1.713 1.98 1.797-1.98h4.537c1.113 0 2.397.344 2.397 1.98-.085 1.722-1.284 2.066-2.568 2.066zm8.561-.344c.171.258.257.602.257 1.119v1.205h-1.456v-.775c0-.344 0-.947-.256-1.205-.172-.258-.514-.258-1.028-.258h-1.54v2.238h-1.456v-6.112h3.253c.685 0 1.284 0 1.712.258.428.258.77.689.77 1.377 0 .947-.598 1.464-1.027 1.636.429.172.685.344.771.517zm5.907-2.497h-3.339v1.12h3.253v1.204h-3.253v1.206h3.339v1.291H36.64v-6.112h4.794v1.291zm3.595 4.821h-2.74v-1.291h2.74c.257 0 .428 0 .6-.172a.66.66 0 0 0 .17-.43.66.66 0 0 0-.17-.431c-.086-.086-.257-.173-.514-.173-1.37-.086-2.996 0-2.996-1.893 0-.861.513-1.808 2.054-1.808h2.825v1.463h-2.654c-.256 0-.428 0-.599.086-.171.086-.171.259-.171.43 0 .259.171.345.342.431.172.086.343.086.514.086h.77c.771 0 1.285.172 1.627.517.257.258.428.688.428 1.291 0 1.291-.77 1.894-2.226 1.894zm7.363-.603c-.343.345-.942.603-1.798.603h-2.74v-1.291h2.74c.257 0 .428 0 .6-.172a.66.66 0 0 0 .17-.43.66.66 0 0 0-.17-.431c-.087-.086-.258-.173-.515-.173-1.37-.086-2.996 0-2.996-1.893 0-.861.514-1.808 2.055-1.808h2.825v1.463h-2.568c-.257 0-.428 0-.6.086-.17.086-.17.259-.17.43 0 .259.085.345.342.431.17.086.342.086.513.086h.77c.771 0 1.285.172 1.627.517.086 0 .086.086.086.086.257.344.342.775.342 1.205 0 .517-.171.947-.513 1.291z"/>
        <path fill="#228FE0" d="M33.986 12.956c-.171-.086-.428-.086-.685-.086H31.59v1.378h1.712c.257 0 .514 0 .685-.086.171-.087.257-.345.257-.603.085-.344-.086-.517-.257-.603z"/>
        <g fill="#228FE0">
            <path d="M27.994 2.626c-.172-.086-.429-.086-.685-.086h-1.712v1.377h1.712c.256 0 .513 0 .685-.086.17-.086.256-.344.256-.603.086-.344-.085-.516-.256-.602zM38.352 4.692h1.969l-.942-2.41zM23.799 17.088v-4.907l-2.226 2.41z"/>
        </g>
        <path fill="#228FE0" d="M27.052 12.784h-1.798v1.55h1.883c.514 0 .857-.259.857-.775-.086-.517-.429-.775-.942-.775zM33.986 12.956c-.171-.086-.428-.086-.685-.086H31.59v1.378h1.712c.257 0 .514 0 .685-.086.171-.087.257-.345.257-.603.085-.344-.086-.517-.257-.603z"/>
        <g fill="#2FABF7">
            <path d="M26.453 17.433l-1.199-1.291v1.463H22.43l-1.712-1.98-1.883 1.98h-5.65v-6.026h5.735l1.798 1.98.856-1.033-2.14-2.152h-7.534v8.436h7.534l1.284-1.291 1.113 1.291h4.623zM17.55 8.48l-1.113-1.206h-.514v-.516l-1.284-1.291-.856 1.807h-1.199L10.53 2.54v4.734H7.619l-.6-1.29H4.11l-.6 1.29H1.97l2.568-6.026h2.14l2.397 5.768V1.248h1.284L9.16.043H7.876v1.033L7.448.043H3.68L1.97 4.089 0 8.48h4.452l.513-1.29h1.199l.599 1.29h4.794V7.448l.428 1.033h2.483l.428-1.033V8.48z"/>
            <path d="M13.612 4.52l-1.37-1.378 1.027 2.239z"/>
        </g>
        <g fill="#228FE0">
            <path fill-rule="nonzero" d="M52.563 18.38a3.152 3.152 0 0 0 1.37-2.325l-1.199-1.205c.086.258.171.517.171.861 0 .517-.171.947-.513 1.291-.343.345-.942.603-1.798.603h-2.74v-1.291h2.74c.257 0 .428 0 .6-.172a.66.66 0 0 0 .17-.43.66.66 0 0 0-.17-.431c-.087-.086-.258-.173-.515-.173-1.37-.086-2.996 0-2.996-1.893 0-.861.514-1.636 1.798-1.808l-.942-.947c-.171.086-.257.172-.342.172v-.517h-3.938c-.6 0-1.37.173-1.712.517v-.517h-7.02v.517c-.514-.43-1.455-.517-1.883-.517H29.02v.517c-.428-.43-1.456-.517-1.97-.517h-5.136l-1.198 1.292-1.113-1.292h-.942l2.569 2.583 1.284-1.377h4.537c1.113 0 2.397.344 2.397 1.98 0 1.721-1.199 2.066-2.483 2.066h-1.712v1.291l1.284 1.291v-1.29h.428c.6 0 1.37 0 1.97-.26v2.325h3.852v-2.238h.17c.258 0 .258 0 .258.258v1.98h11.642c.77 0 1.541-.172 1.97-.516v.516h3.68c.685.086 1.456 0 2.055-.344zm-17.036-3.1c.171.259.257.603.257 1.12v1.205h-1.456v-.775c0-.344 0-.947-.256-1.205-.172-.258-.514-.258-1.028-.258h-1.54v2.238h-1.456v-6.112h3.253c.685 0 1.284 0 1.712.258.428.258.77.689.77 1.377 0 .947-.598 1.464-1.027 1.636.429.172.685.344.771.517zm5.907-2.496h-3.339v1.12h3.253v1.204h-3.253v1.206h3.339v1.291H36.64v-6.112h4.794v1.291zm3.595 4.821h-2.74v-1.291h2.74c.257 0 .428 0 .6-.172a.66.66 0 0 0 .17-.43.66.66 0 0 0-.17-.431c-.086-.086-.257-.173-.514-.173-1.37-.086-2.996 0-2.996-1.893 0-.861.513-1.808 2.054-1.808h2.825v1.463h-2.654c-.256 0-.428 0-.599.086-.171.086-.171.259-.171.43 0 .259.171.345.342.431.172.086.343.086.514.086h.77c.771 0 1.285.172 1.627.517.257.258.428.688.428 1.291 0 1.291-.77 1.894-2.226 1.894z"/>
            <path d="M49.138 13.387c0 .258.086.344.343.43.171.086.342.086.514.086h.77c.514 0 .856.086 1.199.259l-1.285-1.292h-.77c-.257 0-.428 0-.6.086a.66.66 0 0 0-.17.43zM46.142 8.221l.171.259h.086zM41.434 3.487l1.455 3.53V4.95z"/>
            <path fill-rule="nonzero" d="M26.795 6.327h.171c.171 0 .171 0 .171.259V8.48h6.164v-.517c.514.258 1.284.517 2.312.517h2.568l.513-1.378h1.199l.514 1.378h4.965v-.861l-1.199-1.205v.947h-2.91l-.428-1.378h-2.997l-.513 1.378h-1.627c-.685 0-1.54-.173-2.054-.69-.514-.516-.77-1.204-.77-2.324 0-.86.17-1.721.77-2.41.428-.517 1.198-.689 2.14-.689h1.37V2.54h-1.37c-.514 0-.77.086-1.113.344-.257.258-.428.775-.428 1.377 0 .69.085 1.12.428 1.464.257.258.6.344 1.027.344h.6l1.968-4.735h.856L37.924.13h-2.226c-.942 0-1.712.172-2.397.517V.129h-3.767v.517C29.106.3 28.593.129 27.908.129H14.125l-.942 2.152L12.242.13H8.475l1.199 1.205h1.712L12.84 4.52l.514.516 1.54-3.788h2.398v6.113h-1.456V2.626l-1.455 3.443 2.483 2.497h9.844l.086-2.239zm3.938-5.079h1.455v6.113h-1.455V1.248zM23.2 2.54h-3.34v1.119h3.254v1.205H19.86v1.205H23.2v1.292h-4.794V1.248H23.2V2.54zm2.397 4.734H24.14V1.162h3.253c.77 0 1.284 0 1.712.258.428.259.685.69.685 1.378 0 .947-.599 1.463-1.027 1.636.342.086.6.344.685.516.171.344.257.603.257 1.12v1.204H28.25V6.5c0-.345 0-.861-.256-1.206-.086-.172-.343-.172-.857-.172h-1.54v2.152z"/>
        </g>
    </g>
</svg>
