<svg xmlns="http://www.w3.org/2000/svg" width="24" height="24" viewBox="0 0 24 24">
    <g fill="none" fill-rule="evenodd" stroke="#000000" stroke-width="1.3">
        <path stroke-linecap="square" d="M14 19l2.95 2.95a3.5 3.5 0 0 0 5 0 3.5 3.5 0 0 0 0-5L20 15"/>
        <path d="M9.925 10.225L6.5 6.8"/>
        <path stroke-linecap="square" d="M4.4 7.5l2.1-.7.7-2.1-2.8-2.8-2.8 2.8zM22.678 4.922L19.6 7.987l-3.595-3.576 3.08-3.066a4.212 4.212 0 0 0-2.259-.307 5.615 5.615 0 0 0-5.133 5.723A4.226 4.226 0 0 0 12 8.4l-9.855 8.683a3.419 3.419 0 0 0-.205 4.905 3.287 3.287 0 0 0 4.928-.2l8.726-9.81a6.728 6.728 0 0 0 2.875.2 5.686 5.686 0 0 0 4.311-3.986 5.083 5.083 0 0 0-.102-3.27z"/>
    </g>
</svg>
