<svg xmlns="http://www.w3.org/2000/svg" width="131" height="120" viewBox="0 0 131 120">
    <g fill="none" fill-rule="evenodd">
        <circle cx="59.974" cy="59.974" r="59.974" fill="#FE4C00" fill-opacity=".066"/>
        <g fill-rule="nonzero" transform="translate(28 29)">
            <circle cx="33.5" cy="20.623" r="20.532" fill="#FFD6C4" fill-opacity=".7"/>
            <path fill="#000" d="M57.777 41.155h-.34c-1.042 0-2.04.324-2.883.938l-1.477 1.074a4.926 4.926 0 0 0-3.945-2.012h-.34c-1.043 0-2.04.324-2.883.938L35.31 49.8H31.34v2.162h13.319l11.166-8.121a2.727 2.727 0 0 1 1.611-.524h.34c1.511 0 2.741 1.23 2.741 2.74 0 .733-.285 1.42-.802 1.938L49.316 58.392a7.515 7.515 0 0 1-5.348 2.215H22.366L15.61 65.11l1.198 1.798 6.213-4.14h20.947a9.658 9.658 0 0 0 6.876-2.85l10.398-10.396a4.871 4.871 0 0 0 1.435-3.466 4.907 4.907 0 0 0-4.9-4.902zM43.955 49.8h-4.97l8.194-5.96a2.727 2.727 0 0 1 1.611-.523h.34c.875 0 1.675.44 2.187 1.129L43.955 49.8z"/>
            <path fill="#000" d="M28.097 49.26a2.705 2.705 0 0 1-2.702 2.702H17.29v2.161h8.105a4.869 4.869 0 0 0 4.863-4.863 4.869 4.869 0 0 0-4.863-4.863H14.823L.514 53.202l1.134 1.84 13.787-8.483h9.96a2.705 2.705 0 0 1 2.702 2.701zM35.661 19.542H31.34a3.246 3.246 0 0 1-3.242-3.242 3.246 3.246 0 0 1 3.242-3.241h4.322a3.246 3.246 0 0 1 3.242 3.241h2.162a5.41 5.41 0 0 0-5.404-5.403h-1.08V6.575h-2.162v4.322h-1.08a5.41 5.41 0 0 0-5.404 5.403 5.41 5.41 0 0 0 5.404 5.404h4.322a3.246 3.246 0 0 1 3.242 3.242 3.246 3.246 0 0 1-3.242 3.242H31.34a3.246 3.246 0 0 1-3.242-3.242h-2.162a5.41 5.41 0 0 0 5.404 5.403h1.08v4.322h2.162V30.35h1.08a5.41 5.41 0 0 0 5.404-5.403 5.41 5.41 0 0 0-5.404-5.404zM9.726 33.591h2.161v2.161H9.726zM9.726 37.913h2.161v2.161H9.726zM11.887 35.752h2.161v2.161h-2.161zM7.565 35.752h2.161v2.161H7.565zM2.161 2.252h2.161v2.161H2.161zM2.161 6.575h2.161v2.161H2.161zM4.323 4.413h2.161v2.161H4.323zM0 4.413h2.161v2.161H0zM62.677 16.3h2.161v2.161h-2.161zM62.677 20.623h2.161v2.161h-2.161zM64.839 18.462H67v2.161h-2.161zM60.516 18.462h2.161v2.161h-2.161z"/>
        </g>
        <g fill-rule="nonzero">
            <path fill="#FE4C00" d="M109.12 4C97.456 4 88 13.456 88 25.12c0 11.664 9.456 21.12 21.12 21.12 11.664 0 21.12-9.456 21.12-21.12-.034-11.65-9.47-21.086-21.12-21.12z"/>
            <path fill="#FFF" d="M119.84 33.04l-2.8 2.8-7.92-7.92-7.92 7.92-2.8-2.8 7.92-7.92-7.92-7.92 2.8-2.8 7.92 7.92 7.92-7.92 2.8 2.8-7.92 7.92z"/>
        </g>
    </g>
</svg>
