<svg xmlns="http://www.w3.org/2000/svg" width="52" height="10" viewBox="0 0 52 10">
    <g fill="none" fill-rule="evenodd">
        <ellipse cx="27.308" cy="4.373" fill="#F26E21" rx="4.271" ry="4.362"/>
        <g fill="#0B161F">
            <path fill-rule="nonzero" d="M4.302 7.232c-.503.46-1.152.66-2.184.66H1.69V2.413h.428c1.032 0 1.655.187 2.184.67.552.497.881 1.266.881 2.06 0 .796-.329 1.592-.88 2.088zm-1.864-6.22H.095v8.28h2.331c1.238 0 2.132-.296 2.917-.955a4.185 4.185 0 0 0 1.483-3.181c0-2.445-1.803-4.144-4.388-4.144z"/>
            <path d="M7.562 9.292h1.593v-8.28H7.562v8.28M13.055 4.188c-.957-.36-1.24-.596-1.24-1.04 0-.523.503-.92 1.19-.92.478 0 .87.198 1.289.669l.832-1.104a3.546 3.546 0 0 0-2.403-.919c-1.446 0-2.55 1.018-2.55 2.37 0 1.144.514 1.727 2.01 2.274.626.223.944.371 1.104.472.318.212.479.508.479.856 0 .672-.528 1.167-1.24 1.167-.76 0-1.372-.384-1.74-1.104L9.756 7.916c.734 1.09 1.617 1.577 2.832 1.577 1.654 0 2.818-1.12 2.818-2.72.001-1.317-.537-1.913-2.352-2.585M15.91 5.156c0 2.436 1.889 4.323 4.316 4.323.687 0 1.275-.137 1.999-.483V7.094c-.638.647-1.203.907-1.926.907-1.606 0-2.746-1.18-2.746-2.857 0-1.588 1.177-2.843 2.673-2.843.76 0 1.336.272 1.999.931v-1.9c-.698-.36-1.276-.508-1.963-.508a4.326 4.326 0 0 0-4.352 4.332M35.146 6.574l-2.183-5.562h-1.74l3.47 8.493h.857l3.532-8.493h-1.73l-2.206 5.562M39.806 9.292h4.523v-1.4h-2.93V5.653h2.818V4.252H41.4V2.414h2.929V1.012h-4.523v8.28"/>
            <path fill-rule="nonzero" d="M47.441 4.823h-.464v-2.51h.49c.994 0 1.534.425 1.534 1.23 0 .832-.54 1.28-1.56 1.28zm3.2-1.367c0-1.552-1.053-2.444-2.894-2.444h-2.365v8.28h1.595V5.965h.209l2.205 3.327h1.962l-2.576-3.488c1.203-.248 1.864-1.081 1.864-2.348z"/>
        </g>
    </g>
</svg>
