<svg xmlns="http://www.w3.org/2000/svg" width="131" height="131" viewBox="0 0 131 131">
    <g fill="none" fill-rule="evenodd">
        <circle cx="65.472" cy="65.472" r="65.472" fill="#FFF8D9"/>
        <path fill="#FFF" d="M35.932 35.932h51.671l1.034 8.267c-10.335 2.756-15.502 8.268-15.502 16.535 0 8.268 4.823 13.78 14.468 16.535v7.234h-3.1v10.334H35.932V35.932z"/>
        <path fill="#F0D500" fill-rule="nonzero" d="M89.177 72.245c-6.223 0-11.288-5.064-11.288-11.288s5.065-11.289 11.288-11.289c6.224 0 11.289 5.065 11.289 11.289 0 6.224-5.065 11.288-11.289 11.288z"/>
        <path fill="#000" fill-rule="nonzero" d="M90.03 100.561a1.17 1.17 0 1 1-2.34 0 1.17 1.17 0 0 1 2.34 0z"/>
        <path fill="#F0D500" fill-rule="nonzero" d="M57.267 92.37H38.545V75.99h18.722zM57.267 70.138H38.545V53.757h18.722z"/>
        <path fill="#000" fill-rule="nonzero" d="M106.412 60.777c0-9.283-7.249-16.886-16.382-17.492v-9.42H33.865V97.05H83.01v3.51a5.857 5.857 0 0 0 5.85 5.85 5.857 5.857 0 0 0 5.85-5.85V83.01h-2.34v-5.034c8.002-1.631 14.042-8.722 14.042-17.199zm-2.34 0c0 8.388-6.824 15.212-15.212 15.212-8.387 0-15.211-6.824-15.211-15.212 0-8.387 6.824-15.211 15.211-15.211 8.388 0 15.212 6.824 15.212 15.211zM83.01 83.01v11.7H36.205V36.206H87.69v7.08c-9.133.606-16.382 8.209-16.382 17.492 0 8.477 6.04 15.568 14.042 17.2v5.033h-2.34zm9.36 17.551a3.515 3.515 0 0 1-3.51 3.51 3.515 3.515 0 0 1-3.51-3.51V85.35h7.02v15.211zM90.03 83.01h-2.34v-4.74c.389.025.775.06 1.17.06.396 0 .782-.035 1.17-.06v4.74z"/>
        <path fill="#000" fill-rule="nonzero" d="M84.83 63.314l-1.3 1.947 4.614 3.075 6.444-12.886-2.095-1.046-5.257 10.516zM47.498 84.457l-2.275-2.275-1.654 1.655 4.746 4.746 6.522-15.654-2.16-.9zM47.498 62.225l-2.275-2.275-1.654 1.655 4.746 4.746 6.522-15.654-2.16-.9zM66.628 43.226h2.34v2.34h-2.34zM38.545 43.226h25.743v2.34H38.545zM59.607 75.989H73.65v2.34H59.607zM59.607 80.67H73.65v2.34H59.607zM59.607 85.35H73.65v2.34H59.607zM59.607 90.03H73.65v2.34H59.607zM59.607 53.757h9.361v2.34h-9.36zM59.607 58.437h9.361v2.34h-9.36zM59.607 63.118h9.361v2.34h-9.36zM59.607 67.798h9.361v2.34h-9.36zM38.545 38.545h30.423v2.34H38.545z"/>
    </g>
</svg>
