<svg xmlns="http://www.w3.org/2000/svg" width="45" height="28" viewBox="0 0 45 28">
    <g fill="none" fill-rule="evenodd">
        <path fill="#931B1D" d="M13.363.12C5.998.167.035 6.276.035 13.796c0 7.549 6.01 13.675 13.414 13.675 3.474 0 6.641-1.35 9.025-3.563h.001c.49-.454.944-.945 1.362-1.465H21.09c-.367-.452-.7-.924-1-1.41h4.738c.29-.47.55-.958.783-1.463h-6.303c-.215-.47-.402-.949-.56-1.437h7.423a14.027 14.027 0 0 0 .382-7.267h-8.2c.103-.486.23-.966.382-1.436h7.428a13.85 13.85 0 0 0-.578-1.464h-6.278c.226-.494.483-.973.77-1.437h4.735a13.582 13.582 0 0 0-1.04-1.463h-2.64a12.4 12.4 0 0 1 1.344-1.38C20.093 1.47 16.926.12 13.45.12h-.087z"/>
        <path fill="#F16622" d="M44.854 13.8c.002 7.552-6 13.676-13.41 13.678-7.407.002-13.414-6.12-13.416-13.672V13.8C18.026 6.246 24.03.122 31.438.12c7.407-.003 13.414 6.119 13.416 13.673v.007z"/>
        <path fill="#F7981D" d="M44.854 13.951c.002 7.552-6 13.677-13.41 13.679-7.407.002-13.414-6.12-13.416-13.672v-.007C18.026 6.398 24.03.273 31.438.271c7.407-.002 13.414 6.12 13.416 13.673v.007z"/>
        <path fill="#CB2026" d="M13.363.275C5.998.323.035 6.43.035 13.95c0 7.55 6.01 13.676 13.414 13.676 3.474 0 6.641-1.35 9.025-3.564v-.001h.001c.49-.453.944-.942 1.362-1.465H21.09c-.367-.45-.7-.921-1-1.407h4.738c.29-.47.55-.96.783-1.465h-6.303c-.215-.47-.402-.949-.56-1.436h7.423a14.023 14.023 0 0 0 .382-7.267h-8.2c.103-.486.23-.966.382-1.436h7.428c-.166-.502-.359-.99-.578-1.465h-6.278c.226-.492.483-.973.77-1.436h4.735a13.835 13.835 0 0 0-1.04-1.465h-2.64c.408-.49.857-.952 1.344-1.38C20.093 1.626 16.926.275 13.45.275h-.087z"/>
        <g fill="#FFF">
            <path d="M18.272 17.433l.18-1.238c-.098 0-.242.043-.369.043-.497 0-.552-.27-.52-.469l.402-2.526h.755l.182-1.37h-.712l.146-.85h-1.429c-.03.032-.843 4.789-.843 5.367 0 .857.471 1.24 1.138 1.234.52-.005.927-.152 1.07-.191z"/>
            <path fill-rule="nonzero" d="M18.725 15.073c0 2.058 1.331 2.547 2.466 2.547 1.048 0 1.509-.24 1.509-.24l.252-1.404s-.797.36-1.517.36c-1.533 0-1.264-1.166-1.264-1.166h2.903s.186-.945.186-1.329c0-.959-.469-2.128-2.036-2.128-1.437 0-2.5 1.577-2.5 3.36zm2.505-2.057c.805 0 .656.924.656.998h-1.585c0-.095.15-.998.929-.998z"/>
            <path d="M30.272 17.433l.256-1.59s-.7.36-1.181.36c-1.013 0-1.42-.79-1.42-1.635 0-1.72.872-2.666 1.843-2.666.727 0 1.312.417 1.312.417l.232-1.542s-.866-.358-1.607-.358c-1.65 0-3.254 1.457-3.254 4.198 0 1.814.867 3.015 2.571 3.015.481 0 1.248-.2 1.248-.2z"/>
            <path fill-rule="nonzero" d="M10.417 11.735c-.979 0-1.73.32-1.73.32L8.48 13.31s.62-.256 1.557-.256c.532 0 .92.06.92.502 0 .267-.047.366-.047.366s-.42-.036-.614-.036c-1.234 0-2.532.537-2.532 2.159 0 1.276.85 1.57 1.378 1.57 1.008 0 1.441-.667 1.465-.67l-.047.557h1.258l.56-4.011c0-1.701-1.455-1.756-1.96-1.756zM10.724 15c.027.246-.151 1.394-1.011 1.394-.444 0-.56-.346-.56-.55 0-.398.213-.877 1.26-.877.243 0 .27.027.31.033z"/>
            <path d="M13.716 17.584c.32 0 2.16.084 2.16-1.85 0-1.81-1.702-1.453-1.702-2.18 0-.36.277-.476.784-.476.201 0 .976.067.976.067l.18-1.287s-.5-.113-1.316-.113c-1.058 0-2.13.428-2.13 1.9 0 1.668 1.789 1.5 1.789 2.202 0 .469-.5.507-.886.507-.665 0-1.265-.233-1.267-.222l-.19 1.272c.032.012.403.18 1.602.18z"/>
            <path fill-rule="nonzero" d="M42.102 10.581l-.308 1.949s-.538-.756-1.379-.756c-1.309 0-2.4 1.608-2.4 3.457 0 1.193.582 2.36 1.772 2.36.856 0 1.329-.607 1.329-.607l-.062.519h1.389l1.092-6.925-1.433.003zm-.663 3.801c0 .769-.374 1.795-1.148 1.795-.514 0-.754-.44-.754-1.13 0-1.128.496-1.874 1.123-1.874.515 0 .779.36.779 1.21z"/>
            <path d="M2.684 17.509l.87-5.228.127 5.228h.984l1.836-5.228-.813 5.228h1.461l1.127-6.932H6.015l-1.408 4.252-.073-4.252H2.45l-1.142 6.932zM24.688 17.519c.416-2.41.493-4.367 1.486-4.01.173-.933.34-1.293.53-1.688 0 0-.089-.02-.276-.02-.638 0-1.113.891-1.113.891l.127-.818h-1.33l-.89 5.645h1.466z"/>
            <path fill-rule="nonzero" d="M33.567 11.735c-.979 0-1.73.32-1.73.32l-.206 1.255s.62-.256 1.556-.256c.531 0 .92.06.92.502 0 .267-.047.366-.047.366s-.419-.036-.615-.036c-1.235 0-2.531.537-2.531 2.159 0 1.276.85 1.57 1.378 1.57 1.008 0 1.442-.667 1.465-.67l-.047.557h1.258l.561-4.011c0-1.701-1.455-1.756-1.962-1.756zM33.874 15c.027.246-.15 1.394-1.011 1.394-.443 0-.558-.346-.558-.55 0-.398.212-.877 1.258-.877.244 0 .27.027.311.033z"/>
            <path d="M36.677 17.519c.417-2.41.494-4.367 1.486-4.01.174-.933.341-1.293.531-1.688 0 0-.09-.02-.276-.02-.64 0-1.113.891-1.113.891l.127-.818h-1.33l-.89 5.644h1.466z"/>
        </g>
    </g>
</svg>
