<svg xmlns="http://www.w3.org/2000/svg" width="38" height="12" viewBox="0 0 38 12">
    <g fill="none" fill-rule="evenodd">
        <path fill="#19266D" fill-rule="nonzero" d="M15.319.029l-1.88 11.428h3.006L18.325.03h-3.006zm9.068 4.655c-1.05-.506-1.694-.848-1.694-1.366.013-.472.544-.954 1.732-.954a5.34 5.34 0 0 1 2.24.423l.272.119.409-2.391a7.75 7.75 0 0 0-2.699-.471c-2.968 0-5.059 1.507-5.072 3.662-.025 1.591 1.497 2.474 2.635 3.003 1.163.544 1.56.896 1.56 1.378-.014.741-.941 1.083-1.807 1.083-1.199 0-1.843-.176-2.821-.589l-.396-.176-.42 2.485c.706.307 2.005.576 3.353.59 3.155 0 5.208-1.484 5.234-3.781.01-1.26-.792-2.226-2.526-3.015zM35.053.064h-2.326c-.716 0-1.261.202-1.571.92L26.69 11.457h3.155l.869-2.267h3.53l.45 2.276h2.784L35.053.064zM31.59 6.901C31.649 6.907 32.8 3.2 32.8 3.2l.916 3.701h-2.127zM10.926.03L7.98 7.793l-.32-1.53c-.545-1.768-2.253-3.688-4.158-4.641l2.697 9.824H9.38L14.107.03h-3.181V.03z"/>
        <path fill="#F2C933" d="M6.669 1.503C6.439.63 5.707.043 4.713.03H.048L0 .243c3.639.875 6.693 3.57 7.684 6.106L6.67 1.503z"/>
    </g>
</svg>
