<svg width="24" height="24" viewBox="0 0 24 24" fill="none" xmlns="http://www.w3.org/2000/svg">
<g clip-path="url(#clip0_1556_5153)">
<path d="M5.77211 21.2693H2.32422V17.8584C2.32422 17.599 2.5345 17.3887 2.79391 17.3887H5.30252C5.56192 17.3887 5.7722 17.599 5.7722 17.8584V21.2693H5.77211Z" fill="#CFE4EC"/>
<path d="M11.0729 21.2684H7.625V15.2939C7.625 15.0345 7.83528 14.8242 8.09469 14.8242H10.6032C10.8627 14.8242 11.0729 15.0345 11.0729 15.2939V21.2684Z" fill="#CFE4EC"/>
<path d="M16.3776 21.2675H12.9297V12.7295C12.9297 12.47 13.14 12.2598 13.3994 12.2598H15.908C16.1674 12.2598 16.3777 12.47 16.3777 12.7295V21.2675H16.3776Z" fill="#CFE4EC"/>
<path d="M21.6745 21.2685H18.2266V10.167C18.2266 9.90755 18.4368 9.69727 18.6962 9.69727H21.2049C21.4643 9.69727 21.6745 9.90755 21.6745 10.167L21.6745 21.2685Z" fill="#CFE4EC"/>
<path fill-rule="evenodd" clip-rule="evenodd" d="M19.365 1.39117L19.7788 5.51266C19.7988 5.71216 19.5757 5.84336 19.4111 5.72889L18.3633 5.00039C14.1119 10.8171 7.68931 12.2066 3.79845 12.4773C3.27903 12.5135 3.13986 11.7757 3.63616 11.6189V11.6184C13.3463 8.62178 16.0338 3.38074 16.0338 3.38074L14.9859 2.65216C14.8212 2.53764 14.8666 2.28269 15.0608 2.23211L19.0722 1.18736C19.2116 1.15103 19.3506 1.24778 19.365 1.39117Z" fill="#00B0F5"/>
<path d="M23.6477 23.6752H0.352266C0.157734 23.6752 0 23.5175 0 23.323C0 23.1284 0.157687 22.9707 0.352266 22.9707H23.6478C23.8423 22.9707 24 23.1284 24 23.323C24 23.5175 23.8423 23.6752 23.6477 23.6752Z" fill="#CFE4EC"/>
</g>
<defs>
<clipPath id="clip0_1556_5153">
<rect width="24" height="24" fill="white"/>
</clipPath>
</defs>
</svg>
