<svg width="23" height="23" viewBox="0 0 23 23" fill="none" xmlns="http://www.w3.org/2000/svg">
<path d="M23 5.50001V17.5C23 18.6045 22.1046 19.5 21 19.5H2.00001C0.895428 19.5 0 18.6045 0 17.5V5.50001C0 4.39547 0.895428 3.5 2.00001 3.5H21C22.1045 3.5 23 4.39547 23 5.50001Z" fill="#DEEDF3"/>
<path d="M23 8V17.5C23 18.6045 22.1046 19.5 21 19.5H2.00001C0.895428 19.5 0 18.6045 0 17.5V8H23Z" fill="#CFE4EC"/>
<path d="M6.96546 9.99998H3.03448C2.7393 9.99998 2.5 9.76068 2.5 9.4655V6.53448C2.5 6.2393 2.7393 6 3.03448 6H6.96541C7.2606 6 7.49989 6.2393 7.49989 6.53448V9.46541C7.49998 9.76068 7.26064 9.99998 6.96546 9.99998Z" fill="#00B0F5"/>
<path d="M7.49998 8V9.46549C7.49998 9.76067 7.26069 9.99997 6.9655 9.99997H3.03448C2.7393 9.99997 2.5 9.76067 2.5 9.46549V8H7.49998Z" fill="#00B0F5"/>
<path d="M5.87503 15.5C5.87503 15.7071 5.70712 15.875 5.50003 15.875H2.50001C2.29292 15.875 2.125 15.7071 2.125 15.5C2.125 15.2929 2.29292 15.125 2.50001 15.125H5.50003C5.70712 15.125 5.87503 15.2929 5.87503 15.5ZM10.5 15.125H7.49999C7.2929 15.125 7.12498 15.293 7.12498 15.5001C7.12498 15.7071 7.2929 15.8751 7.49999 15.8751H10.5C10.7071 15.8751 10.875 15.7071 10.875 15.5001C10.875 15.293 10.7071 15.125 10.5 15.125ZM15.5 15.125H12.5C12.2929 15.125 12.125 15.293 12.125 15.5001C12.125 15.7071 12.2929 15.8751 12.5 15.8751H15.5C15.7071 15.8751 15.875 15.7071 15.875 15.5001C15.875 15.293 15.7071 15.125 15.5 15.125ZM20.5 15.125H17.5C17.2929 15.125 17.125 15.293 17.125 15.5001C17.125 15.7071 17.2929 15.8751 17.5 15.8751H20.5C20.7071 15.8751 20.875 15.7071 20.875 15.5001C20.875 15.293 20.7071 15.125 20.5 15.125Z" fill="#00B0F5"/>
<path d="M5.25 8.75003H4.75002C4.33584 8.75003 4 8.41424 4 8.00002C4 7.58584 4.33579 7.25 4.75002 7.25H5.25C5.66418 7.25 6.00001 7.58579 6.00001 8.00002C5.99997 8.4142 5.66418 8.75003 5.25 8.75003Z" fill="#DEEDF3"/>
</svg>
