<svg width="20" height="20" viewBox="0 0 20 20" fill="none" xmlns="http://www.w3.org/2000/svg">
<g clip-path="url(#clip0_1554_5144)">
<path d="M13.1163 8.52091L11.4876 6.89228C11.3734 6.7781 11.1883 6.7781 11.074 6.89228L0.430054 17.5363C-0.132915 18.0992 -0.132954 19.0154 0.430054 19.5785C0.711538 19.86 1.08134 20.0007 1.45111 20.0007C1.82087 20.0007 2.19068 19.86 2.4722 19.5785L13.1162 8.93446C13.2304 8.82024 13.2304 8.63509 13.1163 8.52091Z" fill="#CFE4EC"/>
<path d="M19.818 1.71879L19.1063 1.39977C18.8769 1.29695 18.6938 1.11391 18.5909 0.884414L18.272 0.172812C18.2249 0.0676562 18.1204 0 18.0052 0C17.89 0 17.7854 0.0676562 17.7384 0.172852L17.4194 0.884453C17.3165 1.11395 17.1335 1.29699 16.904 1.39984L16.1924 1.71883C16.0872 1.76598 16.0195 1.87047 16.0195 1.98566C16.0195 2.1009 16.0872 2.20543 16.1924 2.2525L16.904 2.57145C17.1335 2.67434 17.3165 2.85738 17.4194 3.08687L17.7384 3.79848C17.7855 3.90363 17.89 3.97133 18.0052 3.97133C18.1204 3.97133 18.225 3.90367 18.272 3.79848L18.591 3.08687C18.6939 2.85738 18.8769 2.67434 19.1064 2.57145L19.818 2.2525C19.9232 2.20539 19.9909 2.10086 19.9909 1.98566C19.9909 1.87047 19.9231 1.76594 19.818 1.71879Z" fill="#00B0F5"/>
<path d="M18.8571 9.81258L18.1455 9.49363C17.916 9.39074 17.7329 9.2077 17.63 8.9782L17.3111 8.2666C17.264 8.16145 17.1595 8.09375 17.0443 8.09375C16.9291 8.09375 16.8245 8.16141 16.7774 8.2666L16.4585 8.9782C16.3556 9.2077 16.1725 9.39074 15.943 9.49363L15.2314 9.81258C15.1263 9.85969 15.0586 9.96422 15.0586 10.0794C15.0586 10.1946 15.1263 10.2992 15.2314 10.3462L15.943 10.6652C16.1725 10.7681 16.3556 10.9511 16.4585 11.1806L16.7774 11.8922C16.8245 11.9974 16.9291 12.0651 17.0443 12.0651C17.1595 12.0651 17.264 11.9974 17.3111 11.8922L17.63 11.1806C17.7329 10.9511 17.916 10.7681 18.1455 10.6652L18.8571 10.3462C18.9622 10.2991 19.0299 10.1946 19.0299 10.0794C19.0299 9.96422 18.9623 9.85969 18.8571 9.81258Z" fill="#00B0F5"/>
<path d="M11.7818 2.70078L10.8496 2.28297C10.5286 2.13914 10.2726 1.88312 10.1288 1.56215L9.71094 0.629883C9.66379 0.524727 9.5593 0.457031 9.4441 0.457031C9.32887 0.457031 9.22438 0.524687 9.17727 0.629883L8.75945 1.56211C8.61563 1.88309 8.35965 2.1391 8.03867 2.28293L7.10645 2.70074C7.00129 2.74785 6.93359 2.85238 6.93359 2.96758C6.93359 3.08281 7.00129 3.18734 7.10645 3.23441L8.03867 3.65223C8.35965 3.79605 8.61563 4.05207 8.75949 4.37305L9.17727 5.30523C9.22441 5.41039 9.32891 5.47809 9.4441 5.47809C9.55938 5.47809 9.66383 5.41043 9.71094 5.30523L10.1287 4.37305C10.2726 4.05207 10.5286 3.79605 10.8495 3.65223L11.7818 3.23441C11.8869 3.1873 11.9546 3.08277 11.9546 2.96758C11.9546 2.85238 11.887 2.74789 11.7818 2.70078Z" fill="#00B0F5"/>
<path d="M13.115 8.5198L12.4311 7.83594L1.58066 18.6871C1.29914 18.9686 0.929375 19.1093 0.55957 19.1093C0.399297 19.1093 0.239023 19.0828 0.0859375 19.0299C0.155078 19.23 0.269258 19.4179 0.42875 19.5774C0.710274 19.8589 1.08008 19.9996 1.44984 19.9996C1.81961 19.9996 2.18941 19.8589 2.47094 19.5774L13.115 8.93336C13.2292 8.81914 13.2292 8.63398 13.115 8.5198Z" fill="#C0D4DC"/>
<path d="M15.9654 4.04137C15.4024 3.4784 14.4863 3.4784 13.9232 4.04137L11.0739 6.89062C10.9597 7.00488 10.9597 7.19 11.0739 7.30422L12.7026 8.93285C12.7597 8.98992 12.8346 9.01848 12.9094 9.01848C12.9842 9.01848 13.0591 8.98992 13.1162 8.93285L15.9654 6.08359C16.5284 5.52051 16.5284 4.60437 15.9654 4.04137Z" fill="#94B2BD"/>
<path d="M15.9663 4.04203C15.8068 3.88258 15.6189 3.76836 15.4189 3.69922C15.5938 4.20551 15.4796 4.79043 15.076 5.19398L12.0195 8.24957L12.7035 8.93352C12.7606 8.99059 12.8355 9.01914 12.9103 9.01914C12.9851 9.01914 13.06 8.99059 13.1171 8.93352L15.9663 6.08426C16.5293 5.52117 16.5293 4.60504 15.9663 4.04203Z" fill="#85A5B1"/>
</g>
<defs>
<clipPath id="clip0_1554_5144">
<rect width="20" height="20" fill="white"/>
</clipPath>
</defs>
</svg>
