<svg width="22" height="22" viewBox="0 0 22 22" fill="none" xmlns="http://www.w3.org/2000/svg">
<g clip-path="url(#clip0_1554_5084)">
<path d="M21.601 10.2082H15.8804C15.6968 10.2082 15.5379 10.0818 15.4953 9.90319C15.094 8.22101 13.7643 6.89551 12.0799 6.50016C11.9006 6.45805 11.7734 6.29889 11.7734 6.11473V0.396286C11.7734 0.16013 11.9786 -0.0225727 12.2134 0.00226322C14.7122 0.267079 17.0276 1.36798 18.8298 3.16966C20.6268 4.96716 21.727 7.276 21.995 9.76762C22.0202 10.0027 21.8374 10.2082 21.601 10.2082Z" fill="#00B0F5"/>
<path d="M21.999 12.1348C21.7786 14.2457 20.9616 16.2264 19.6299 17.8775C19.4815 18.0615 19.2069 18.0776 19.0398 17.9105L15.8371 14.7078L14.9944 13.8651C14.864 13.7347 14.8419 13.5322 14.9388 13.3753C15.1968 12.9576 15.3896 12.4957 15.5032 12.0037C15.5448 11.8235 15.7042 11.6953 15.8891 11.6953H21.605C21.8409 11.6953 22.0235 11.9001 21.999 12.1348Z" fill="#B5CBD3"/>
<path d="M17.9898 18.9621C18.1566 19.129 18.1409 19.403 17.9575 19.5515C16.0016 21.1363 13.582 21.9983 11.0294 21.9983C8.08372 21.9983 5.31391 20.8506 3.23053 18.7678C1.15893 16.6963 0.0129972 13.9459 0.000106569 11.0189C-0.012827 8.07937 1.15197 5.24821 3.23058 3.16964C5.03243 1.3678 7.34818 0.266895 9.84728 0.00225082C10.0818 -0.0225421 10.2864 0.160633 10.2864 0.396402V6.11476C10.2864 6.29927 10.1587 6.45825 9.97906 6.50044C7.95249 6.97654 6.43918 8.79893 6.43918 10.969C6.43918 13.4996 8.49824 15.5591 11.0293 15.5591C11.9192 15.5591 12.7505 15.3043 13.4548 14.8642C13.6118 14.7661 13.8154 14.7878 13.9463 14.9187L17.9898 18.9621Z" fill="#CFE4EC"/>
</g>
<defs>
<clipPath id="clip0_1554_5084">
<rect width="22" height="22" fill="white"/>
</clipPath>
</defs>
</svg>
