<svg width="25" height="23" viewBox="0 0 25 23" fill="none" xmlns="http://www.w3.org/2000/svg">
<circle cx="12.5" cy="11.5" r="10.5" stroke="#CFE4EC" stroke-width="2"/>
<circle cx="12.5" cy="11.5" r="7.5" fill="#CFE4EC"/>
<path d="M6.87812 16.7545L5.00935 11.1843L4.36643 12.9589C4.31482 13.1014 4.17638 13.1968 4.02105 13.1968H0.366234C0.163975 13.1968 0 13.0372 0 12.8404C0 12.6435 0.163975 12.4839 0.366234 12.4839H3.7619L4.67734 9.95716C4.79454 9.63367 5.26351 9.64503 5.37084 9.96509L7.14927 15.266L8.87106 7.28295C8.95158 6.90966 9.498 6.9041 9.58634 7.27592L10.8229 12.4839H14.7924L15.8035 9.94684C15.9274 9.6359 16.3895 9.64664 16.4941 9.96813L17.9875 14.5587L19.1391 7.84382C19.2045 7.4624 19.7615 7.44496 19.856 7.81711L21.0393 12.4839H24.6338C24.8361 12.4839 25 12.6435 25 12.8404C25 13.0372 24.8361 13.1968 24.6338 13.1968H20.7524C20.584 13.1968 20.4372 13.0849 20.3968 12.9258L19.5696 9.66351L18.4593 16.138C18.3966 16.5043 17.865 16.5437 17.7489 16.1869L16.11 11.1491L15.3846 12.9692C15.33 13.1064 15.1944 13.1968 15.0432 13.1968H10.5316C10.3611 13.1968 10.2132 13.0823 10.1748 12.9206L9.24667 9.0116L7.5847 16.7171C7.50809 17.0723 6.99477 17.1022 6.87812 16.7545Z" fill="#00B0F5"/>
</svg>
