<svg width="32" height="25" viewBox="0 0 32 25" fill="none" xmlns="http://www.w3.org/2000/svg">
<path d="M7.88672 2.29937C7.88672 1.29805 8.71699 0.486328 9.74121 0.486328H21.2638C22.288 0.486328 23.1183 1.29805 23.1183 2.29937V22.7023C23.1183 23.7037 22.288 24.5154 21.2638 24.5154H9.74121C8.71699 24.5154 7.88672 23.7037 7.88672 22.7023V2.29937Z" fill="#EAF6FF"/>
<path d="M21.1913 24.951L19.5547 24.9999H19.3923H9.81445C8.60288 24.9999 7.61719 24.0142 7.61719 22.8026V2.19727C7.61719 0.985693 8.60288 0 9.81445 0H19.3923H19.6112L21.1914 0.0488281C22.4029 0.0488281 23.3398 0.985693 23.3398 2.19727V22.8026C23.3397 24.0142 22.4029 24.951 21.1913 24.951ZM9.81445 0.732422C9.00674 0.732422 8.34961 1.38955 8.34961 2.19727V22.8026C8.34961 23.6103 9.00674 24.2674 9.81445 24.2674H20.9188L21.1913 24.3163C21.999 24.3163 22.705 23.6103 22.705 22.8026V2.19727C22.705 1.38955 21.999 0.683594 21.1913 0.683594L20.9187 0.732422H9.81445Z" fill="#85A5B1"/>
<path d="M23.3833 22.9247V2.07515C23.3197 0.920166 22.3603 0 21.1896 0H19.3906C20.0115 0 20.5642 0.286865 20.917 0.732275L21.1896 0.732422C21.9974 0.732422 22.6545 1.38955 22.6545 2.19727V22.8026C22.6545 23.6103 21.9974 24.2674 21.1896 24.2674L20.9172 24.2673C20.5643 24.7127 20.0115 24.9999 19.3906 24.9999H21.1896C22.3603 24.9999 23.3197 24.0797 23.3833 22.9247Z" fill="#85A5B1"/>
<path d="M16.1006 2.19727H13.6592C13.4569 2.19727 13.293 2.0333 13.293 1.83105C13.293 1.62881 13.4569 1.46484 13.6592 1.46484H16.1006C16.3028 1.46484 16.4668 1.62881 16.4668 1.83105C16.4668 2.0333 16.3028 2.19727 16.1006 2.19727Z" fill="#CFE4EC"/>
<path d="M17.3467 2.19727C17.5489 2.19727 17.7129 2.03331 17.7129 1.83105C17.7129 1.6288 17.5489 1.46484 17.3467 1.46484C17.1444 1.46484 16.9805 1.6288 16.9805 1.83105C16.9805 2.03331 17.1444 2.19727 17.3467 2.19727Z" fill="#CFE4EC"/>
<path d="M19.4936 20.2898H9.92256C9.84018 20.2898 9.77344 20.223 9.77344 20.1407V7.51631C9.77344 7.43394 9.84018 7.36719 9.92256 7.36719H17.6997C17.7392 7.36719 17.7771 7.38291 17.8051 7.41084L19.599 9.20474C19.627 9.23271 19.6426 9.27061 19.6426 9.31016V20.1406C19.6427 20.223 19.5759 20.2898 19.4936 20.2898Z" fill="#CFE4EC"/>
<path d="M18.3405 5.68555H11.6062C11.5238 5.68555 11.457 5.75229 11.457 5.83467V18.4591C11.457 18.5414 11.5238 18.6082 11.6062 18.6082H20.2005H20.2494L21.0795 18.5105C21.1619 18.5105 21.2286 18.4438 21.2286 18.3614V7.902C21.2286 7.88081 21.2236 7.86025 21.215 7.84131L18.3405 5.68555Z" fill="#DEEDF3"/>
<path d="M21.3121 7.84131L19.17 5.69917C19.151 5.69053 19.1305 5.68555 19.1093 5.68555H18.3398V7.74365C18.3398 8.25601 18.7552 8.67139 19.2676 8.67139H20.1538C20.2616 8.67139 20.3491 8.75884 20.3491 8.8667V18.4591C20.3491 18.5414 20.2823 18.6082 20.1999 18.6082H21.1766C21.2589 18.6082 21.3257 18.5415 21.3257 18.4591V8.67139V7.902C21.3257 7.88076 21.3208 7.86025 21.3121 7.84131Z" fill="#DEEDF3"/>
<path d="M21.3101 7.84136C21.3029 7.82559 21.2933 7.81094 21.2808 7.79844L19.2109 5.72852C19.1984 5.71602 19.1837 5.7064 19.168 5.69922V7.7437C19.168 7.79766 19.2117 7.84136 19.2656 7.84136H21.3101Z" fill="#CFE4EC"/>
<rect x="3" y="9" width="26" height="8" rx="1" fill="#00B0F5"/>
<path d="M9.99297 11.5117C10.1952 11.5117 10.3592 11.3478 10.3592 11.1455C10.3592 10.9433 10.1952 10.7793 9.99297 10.7793H8.52246C8.32021 10.7793 8.15625 10.9433 8.15625 11.1455V14.6354C8.15625 14.8377 8.32021 15.0017 8.52246 15.0017H9.99297C10.1952 15.0017 10.3592 14.8377 10.3592 14.6354C10.3592 14.4332 10.1952 14.2692 9.99297 14.2692H8.88867V13.2567H9.82856C10.0308 13.2567 10.1948 13.0927 10.1948 12.8905C10.1948 12.6882 10.0308 12.5243 9.82856 12.5243H8.88867V11.5117H9.99297Z" fill="#EAF6FF"/>
<path d="M23.7192 10.7793H21.792C21.5897 10.7793 21.4258 10.9433 21.4258 11.1455C21.4258 11.3478 21.5897 11.5117 21.792 11.5117H22.3855V14.6352C22.3855 14.8375 22.5495 15.0014 22.7517 15.0014C22.954 15.0014 23.1179 14.8375 23.1179 14.6352V11.5117H23.7192C23.9214 11.5117 24.0854 11.3478 24.0854 11.1455C24.0854 10.9433 23.9214 10.7793 23.7192 10.7793Z" fill="#EAF6FF"/>
<path d="M21.2147 12.0525C21.2147 11.3504 20.6206 10.7793 19.8902 10.7793H18.9639C18.7616 10.7793 18.5977 10.9433 18.5977 11.1455V12.9641V14.6354C18.5977 14.8377 18.7616 15.0017 18.9639 15.0017C19.1661 15.0017 19.3301 14.8377 19.3301 14.6354V13.4596L20.5732 14.8769C20.6456 14.9594 20.7469 15.0017 20.8487 15.0017C20.9344 15.0017 21.0205 14.9717 21.09 14.9107C21.242 14.7774 21.2572 14.546 21.1238 14.394L20.1662 13.3022C20.7645 13.1793 21.2147 12.6658 21.2147 12.0525ZM19.8902 12.5979H19.33V11.5117H19.8902C20.2111 11.5117 20.4823 11.7594 20.4823 12.0525C20.4823 12.3481 20.2112 12.5979 19.8902 12.5979Z" fill="#EAF6FF"/>
<path d="M7.62881 12.0525C7.62881 11.3504 7.03462 10.7793 6.3043 10.7793H5.37793C5.17568 10.7793 5.01172 10.9433 5.01172 11.1455V12.9641V14.6354C5.01172 14.8377 5.17568 15.0017 5.37793 15.0017C5.58018 15.0017 5.74414 14.8377 5.74414 14.6354V13.4596L6.9873 14.8769C7.05967 14.9594 7.16099 15.0016 7.26274 15.0016C7.34849 15.0016 7.43457 14.9717 7.50405 14.9107C7.6561 14.7773 7.67124 14.5459 7.53789 14.3939L6.58027 13.3021C7.17856 13.1793 7.62881 12.6658 7.62881 12.0525ZM6.3043 12.5979H5.74414V11.5117H6.3043C6.62524 11.5117 6.89639 11.7594 6.89639 12.0525C6.89639 12.3481 6.62524 12.5979 6.3043 12.5979Z" fill="#EAF6FF"/>
<path d="M12.2033 10.7793H11.2334C11.0312 10.7793 10.8672 10.9433 10.8672 11.1455V13.1181V14.6354C10.8672 14.8377 11.0312 15.0017 11.2334 15.0017C11.4356 15.0017 11.5996 14.8377 11.5996 14.6354V13.4843H12.2033C12.9589 13.4843 13.5737 12.877 13.5737 12.1304C13.5737 11.3854 12.9589 10.7793 12.2033 10.7793ZM12.2033 12.7519H11.5996V11.5117H12.2033C12.5491 11.5117 12.8413 11.795 12.8413 12.1304C12.8413 12.4673 12.5491 12.7519 12.2033 12.7519Z" fill="#EAF6FF"/>
<path d="M16.0213 10.7793C14.8572 10.7793 13.9102 11.7264 13.9102 12.8905C13.9102 14.0546 14.8572 15.0017 16.0213 15.0017C17.1854 15.0017 18.1325 14.0546 18.1325 12.8905C18.1325 11.7264 17.1854 10.7793 16.0213 10.7793ZM16.0213 14.2692C15.2611 14.2692 14.6426 13.6507 14.6426 12.8905C14.6426 12.1302 15.2611 11.5117 16.0213 11.5117C16.7816 11.5117 17.4001 12.1302 17.4001 12.8905C17.4001 13.6507 16.7816 14.2692 16.0213 14.2692Z" fill="#EAF6FF"/>
<path d="M24.1827 14.408L24.183 14.4078C24.1607 14.3555 24.1492 14.3022 24.1492 14.2483C24.1492 14.1603 24.1828 14.0822 24.2463 14.0155C24.3117 13.9468 24.3944 13.9124 24.4909 13.9124C24.5666 13.9124 24.6366 13.9382 24.7 13.987L24.7031 13.9894L24.703 13.9895C24.8502 14.1224 25.0023 14.2222 25.1593 14.2898C25.3185 14.3566 25.5061 14.3908 25.723 14.3908C25.8764 14.3908 26.015 14.3664 26.1395 14.3183L26.14 14.3181L26.14 14.3181C26.2693 14.2697 26.3693 14.2055 26.4423 14.1268C26.5134 14.0501 26.548 13.963 26.548 13.8633C26.548 13.734 26.5099 13.632 26.4364 13.5532L26.4349 13.5515L26.4349 13.5515C26.3626 13.4665 26.2537 13.3947 26.1042 13.3384L26.1028 13.3379L26.1028 13.3378C25.9559 13.2772 25.7768 13.2256 25.565 13.1833C25.3641 13.1478 25.1824 13.0984 25.0203 13.0348L25.0199 13.0347C24.8609 12.9708 24.7232 12.8904 24.6075 12.7932L24.6068 12.7926L24.6068 12.7926C24.4904 12.6907 24.4007 12.5702 24.3381 12.4313C24.2752 12.2914 24.2445 12.1306 24.2445 11.9499C24.2445 11.7033 24.3107 11.4884 24.4448 11.3077C24.5776 11.1286 24.7577 10.9912 24.9831 10.8948C25.2085 10.7984 25.4613 10.7508 25.7409 10.7508C25.996 10.7508 26.2357 10.7905 26.4597 10.8702C26.6826 10.9457 26.8655 11.0498 27.0066 11.1837C27.1082 11.2712 27.1659 11.3711 27.1659 11.4833C27.1659 11.569 27.129 11.6469 27.0627 11.7162M24.1827 14.408L27.0266 11.6816M24.1827 14.408L24.1853 14.4126C24.2126 14.4617 24.2509 14.5036 24.299 14.5383M24.1827 14.408L24.299 14.5383M27.0627 11.7162L27.0266 11.6816M27.0627 11.7162C27.0628 11.7162 27.0628 11.7161 27.0628 11.7161L27.0266 11.6816M27.0627 11.7162C26.9985 11.7836 26.9202 11.8191 26.8302 11.8191C26.7646 11.8191 26.7059 11.8005 26.6565 11.7618L26.6509 11.7574L26.6513 11.7571C26.593 11.6964 26.5132 11.6413 26.41 11.5927L26.4087 11.592L26.4087 11.592C26.3046 11.5391 26.1926 11.4955 26.0724 11.4614L26.072 11.4613L26.072 11.4613C25.957 11.4274 25.8467 11.4108 25.7409 11.4108C25.5668 11.4108 25.4206 11.4355 25.301 11.4831L25.2998 11.4836L25.2998 11.4835C25.1794 11.5278 25.0907 11.5892 25.0301 11.6659L25.0294 11.6668L25.0294 11.6668C24.9699 11.7389 24.9397 11.8246 24.9397 11.9266C24.9397 12.0485 24.9741 12.1448 25.0399 12.2197M27.0266 11.6816C26.971 11.7399 26.9056 11.7691 26.8302 11.7691C26.7746 11.7691 26.727 11.7536 26.6873 11.7224C26.6238 11.6563 26.5385 11.598 26.4314 11.5474C26.3242 11.493 26.2091 11.4483 26.0861 11.4133C25.9671 11.3783 25.852 11.3608 25.7409 11.3608C25.5623 11.3608 25.4095 11.3861 25.2826 11.4366C25.1556 11.4833 25.0583 11.5494 24.9909 11.6349C24.9234 11.7166 24.8897 11.8138 24.8897 11.9266C24.8897 12.0588 24.9274 12.1677 25.0028 12.2533M25.0399 12.2197C25.0397 12.2196 25.0396 12.2194 25.0394 12.2193L25.0028 12.2533M25.0399 12.2197C25.04 12.2199 25.0402 12.2201 25.0403 12.2202L25.0028 12.2533M25.0399 12.2197C25.1128 12.2982 25.2146 12.3642 25.3479 12.4165M25.0028 12.2533C25.0822 12.3388 25.1913 12.4088 25.3302 12.4633M25.3302 12.4633L25.3473 12.4163C25.3475 12.4164 25.3477 12.4164 25.3479 12.4165M25.3302 12.4633C25.4691 12.5138 25.6278 12.5605 25.8064 12.6033M25.3302 12.4633L25.3484 12.4167C25.3482 12.4167 25.348 12.4166 25.3479 12.4165M25.3479 12.4165C25.4843 12.4661 25.6408 12.5122 25.8174 12.5545M25.8064 12.6033L25.8168 12.5544C25.817 12.5544 25.8172 12.5545 25.8174 12.5545M25.8064 12.6033C26.0246 12.6499 26.2191 12.7024 26.3897 12.7608C26.5643 12.8191 26.7111 12.8949 26.8302 12.9883M25.8064 12.6033L25.818 12.5547C25.8178 12.5546 25.8176 12.5546 25.8174 12.5545M25.8174 12.5545C26.0369 12.6015 26.233 12.6544 26.4057 12.7134L26.8302 12.9883M26.8302 12.9883L26.8602 12.9483C26.8603 12.9484 26.8605 12.9485 26.8606 12.9486C26.8607 12.9487 26.8609 12.9488 26.861 12.9489L26.8302 12.9883ZM26.4611 14.8549C26.2429 14.9522 25.9988 15.0008 25.729 15.0008C25.4433 15.0008 25.1893 14.9619 24.9671 14.8841C24.7449 14.8063 24.5326 14.678 24.3302 14.4991C24.2865 14.468 24.2528 14.4311 24.229 14.3883L26.4611 14.8549ZM26.4611 14.8549L26.4815 14.9006C26.4814 14.9006 26.4814 14.9007 26.4813 14.9007C26.2559 15.0011 26.0049 15.0508 25.729 15.0508C25.4388 15.0508 25.1791 15.0113 24.9506 14.9313C24.7221 14.8513 24.5049 14.7199 24.299 14.5383M26.4611 14.8549L24.299 14.5383" fill="#EAF6FF" stroke="#EAF6FF" stroke-width="0.1"/>
</svg>
