<svg width="23" height="23" viewBox="0 0 23 23" fill="none" xmlns="http://www.w3.org/2000/svg">
<path d="M15.2734 23H1.61719C1.41872 23 1.25781 22.8391 1.25781 22.6406V0.359375C1.25781 0.16091 1.41872 0 1.61719 0H18.8672C19.0657 0 19.2266 0.16091 19.2266 0.359375V19.0469L15.2734 23Z" fill="#DEEDF3"/>
<path d="M2.69531 22.6406V0.359375C2.69531 0.16091 2.85622 0 3.05469 0H1.61719C1.41872 0 1.25781 0.16091 1.25781 0.359375V22.6406C1.25781 22.8391 1.41872 23 1.61719 23H3.05469C2.85622 23 2.69531 22.8391 2.69531 22.6406Z" fill="#CFE4EC"/>
<path d="M19.2266 19.0469H15.6328C15.4343 19.0469 15.2734 19.2078 15.2734 19.4062V23L19.2266 19.0469Z" fill="#CFE4EC"/>
<path d="M10.2422 1.79688C7.46795 1.79688 5.21094 4.05388 5.21094 6.82812C5.21094 9.60237 7.46795 11.8594 10.2422 11.8594C13.0164 11.8594 15.2734 9.60237 15.2734 6.82812C15.2734 4.05388 13.0164 1.79688 10.2422 1.79688Z" fill="#00B0F5"/>
<path d="M10.2422 2.875C8.06244 2.875 6.28906 4.64838 6.28906 6.82812C6.28906 9.00787 8.06244 10.7812 10.2422 10.7812C12.4219 10.7812 14.1953 9.00787 14.1953 6.82812C14.1953 4.64838 12.422 2.875 10.2422 2.875Z" fill="#00B0F5"/>
<path d="M11.7422 6.10938C11.9407 6.10938 12.1016 5.94846 12.1016 5.75V5.39062C12.1016 4.59798 11.4567 3.95312 10.6641 3.95312V3.23438C10.6641 3.03591 10.5032 2.875 10.3047 2.875C10.1062 2.875 9.94531 3.03591 9.94531 3.23438V3.96337C9.13789 4.05308 8.50781 4.73935 8.50781 5.57031C8.50781 6.46206 9.23326 7.1875 10.125 7.1875H10.4844C10.9798 7.1875 11.3828 7.59054 11.3828 8.08594C11.3828 8.58134 10.9798 8.98438 10.4844 8.98438H9.94531C9.54901 8.98438 9.22656 8.66193 9.22656 8.26562C9.22656 8.06716 9.06565 7.90625 8.86719 7.90625C8.66872 7.90625 8.50781 8.06716 8.50781 8.26562C8.50781 9.05827 9.15267 9.70312 9.94531 9.70312V10.4219C9.94531 10.6203 10.1062 10.7812 10.3047 10.7812C10.5032 10.7812 10.6641 10.6203 10.6641 10.4219V9.69288C11.4715 9.60317 12.1016 8.9169 12.1016 8.08594C12.1016 7.19419 11.3761 6.46875 10.4844 6.46875H10.125C9.6296 6.46875 9.22656 6.06571 9.22656 5.57031C9.22656 5.07491 9.6296 4.67188 10.125 4.67188H10.6641C11.0604 4.67188 11.3828 4.99432 11.3828 5.39062V5.75C11.3828 5.94846 11.5437 6.10938 11.7422 6.10938Z" fill="white"/>
<path d="M13.55 19H5.45C5.20149 19 5 18.7761 5 18.5C5 18.2239 5.20149 18 5.45 18H13.55C13.7985 18 14 18.2239 14 18.5C14 18.7761 13.7985 19 13.55 19Z" fill="#BBD0D9"/>
<path d="M13.55 17H5.45C5.20149 17 5 16.7761 5 16.5C5 16.2239 5.20149 16 5.45 16H13.55C13.7985 16 14 16.2239 14 16.5C14 16.7761 13.7985 17 13.55 17Z" fill="#BBD0D9"/>
<path d="M7.5 21H5.5C5.22387 21 5 20.7761 5 20.5C5 20.2239 5.22387 20 5.5 20H7.5C7.77612 20 8 20.2239 8 20.5C8 20.7761 7.77619 21 7.5 21Z" fill="#BBD0D9"/>
<path d="M7.5 15H5.5C5.22387 15 5 14.7761 5 14.5C5 14.2239 5.22387 14 5.5 14H7.5C7.77612 14 8 14.2239 8 14.5C8 14.7761 7.77619 15 7.5 15Z" fill="#BBD0D9"/>
<path d="M13.5833 21H9.41667C9.18656 21 9 20.7761 9 20.5C9 20.2239 9.18656 20 9.41667 20H13.5833C13.8134 20 14 20.2239 14 20.5C14 20.7761 13.8134 21 13.5833 21Z" fill="#BBD0D9"/>
<path d="M13.5833 15H9.41667C9.18656 15 9 14.7761 9 14.5C9 14.2239 9.18656 14 9.41667 14H13.5833C13.8134 14 14 14.2239 14 14.5C14 14.7761 13.8134 15 13.5833 15Z" fill="#BBD0D9"/>
</svg>
