<svg xmlns="http://www.w3.org/2000/svg" xmlns:xlink="http://www.w3.org/1999/xlink" width="101" height="30" viewBox="0 0 101 30">
    <defs>
        <path id="a" d="M.015.061H29.95v29.924H.015z"/>
    </defs>
    <g fill="none" fill-rule="evenodd">
        <ellipse cx="15.385" cy="15" fill="#FFF" rx="14.634" ry="14.625"/>
        <path fill="#159D8F" d="M3.66 11.564a2.032 2.032 0 0 1-.45-.75 13.22 13.22 0 0 0-.7 3.834l1.533-2.77a2.036 2.036 0 0 1-.383-.314"/>
        <path fill="#0A8A44" d="M5.204 8.128l.114-1.195c-.338.43-.644.876-.922 1.335.26-.101.534-.148.808-.14"/>
        <path fill="#253967" d="M23.99 23.839a1.678 1.678 0 0 1-2.48-.189l-6.977 3.169a1.375 1.375 0 0 1-.572 1.303 13.153 13.153 0 0 0 11.167-3.88l-.955-.61a1.641 1.641 0 0 1-.183.207"/>
        <path fill="#582D7A" d="M23.882 21.312a1.676 1.676 0 0 1 .432 2.102l.996.637a13.117 13.117 0 0 0 3.537-8.574 1.798 1.798 0 0 1-.841-.241l-4.124 6.076"/>
        <path fill="#0A8A44" d="M9.502 5.128a.893.893 0 0 1 .62-.245l.916-2.142a13.114 13.114 0 0 0-3.63 2.082l1.945.496a.87.87 0 0 1 .149-.191"/>
        <path fill="#C72254" d="M18.243 3.867a1.62 1.62 0 0 1 2.705.886l2.583-.256a13.168 13.168 0 0 0-8.887-2.553l3.414 2.133c.055-.074.116-.145.185-.21"/>
        <path fill="#DB2C6F" d="M20.638 6.026l7.025 6.356c.002-.002.003-.005.006-.006.235-.222.513-.368.806-.44a13.093 13.093 0 0 0-3.23-5.921 13.23 13.23 0 0 0-1.41-1.287l-2.862.283a1.61 1.61 0 0 1-.335 1.015"/>
        <path fill="#DF5430" d="M10.772 5.162a.886.886 0 0 1 .22.418l6.747-.54c0-.255.061-.51.182-.744l-3.703-2.314a13.21 13.21 0 0 0-2.849.643l-.983 2.301c.142.044.277.12.386.236"/>
        <path fill="#253967" d="M12.111 26.113l-2.273-2.43a1.076 1.076 0 0 1-1.417-.125 1.075 1.075 0 0 1-.244-1.051L3.694 20.54a13.13 13.13 0 0 0 2.418 3.583 13.118 13.118 0 0 0 5.874 3.585 1.377 1.377 0 0 1 .125-1.595"/>
        <path fill="#0A8A44" d="M9.368 6.27a.894.894 0 0 1-.118-.71l-2.094-.533a13.379 13.379 0 0 0-1.544 1.546l-.15 1.582c.41.065.802.255 1.117.57L9.368 6.27"/>
        <path fill="#3BAB48" d="M9.502 14.866l.182-3.4-2.607-.671c-.09.281-.247.544-.462.77l2.424 3.407a1.6 1.6 0 0 1 .463-.106"/>
        <path fill="#C72254" d="M19.392 6.657l-.263 4.5a2.54 2.54 0 0 1 2.265 2.399l5.72-.003c.025-.35.15-.69.376-.978l-7.025-6.356a1.61 1.61 0 0 1-1.073.438"/>
        <path fill="#276AA5" d="M12.602 25.742l-.95-2.831-1.38.02a1.065 1.065 0 0 1-.245.575l2.27 2.426c.094-.078.197-.14.305-.19M15.063 22.863l-1.25 2.919c.114.06.221.139.317.233l3.774-3.194-2.84.041"/>
        <path fill="#812D7B" d="M27.112 13.811l-5.718.004a2.536 2.536 0 0 1-1.163 2.012l1.627 3.648 5.596-4.736a1.792 1.792 0 0 1-.342-.928"/>
        <path fill="#1C4E71" d="M18.624 22.552l2.539-.036a1.67 1.67 0 0 1 .653-1.226l-.467-1.045-2.725 2.307M18.312 22.816l-3.65 3.09 6.528-2.964a1.682 1.682 0 0 1-.024-.167l-2.854.041"/>
        <path fill="#159D8F" d="M2.86 18.108l5.18-1.352c-.082-.465.04-.957.364-1.334l-2.423-3.405a2.04 2.04 0 0 1-1.712-.014l-1.763 3.189c.009.979.127 1.957.354 2.916"/>
        <path fill="#349FCD" d="M9.133 21.746l.198-3.687a1.604 1.604 0 0 1-1.226-1.053L2.921 18.36c.159.62.365 1.232.617 1.829l4.742 2.08a1.07 1.07 0 0 1 .182-.235c.191-.18.429-.272.67-.288"/>
        <path fill="#582D7A" d="M21.968 19.721l.56 1.253a1.683 1.683 0 0 1 1.14.191l4.124-6.076a1.95 1.95 0 0 1-.171-.152l-5.653 4.784"/>
        <path fill="#85BF42" d="M9.94 11.531l-.178 3.335a1.606 1.606 0 0 1 1.256.783l5.311-1.606c-.04-.287-.032-.579.026-.863L9.94 11.53"/>
        <path fill="#38A2CF" d="M17 15.439a2.546 2.546 0 0 1-.447-.65l-5.311 1.604a1.61 1.61 0 0 1-.978 1.564l1.574 4.693 3.053-.044 2.84-6.633A2.54 2.54 0 0 1 17 15.44"/>
        <path fill="#EA8A2F" d="M18.182 6.153a1.573 1.573 0 0 1-.17-.214l-7.924 2.855-.133 2.473 6.464 1.662a2.538 2.538 0 0 1 2.45-1.787l.264-4.5a1.604 1.604 0 0 1-.951-.489M10.738 6.432a.893.893 0 0 1-.537.24l-.068 1.279 7.285-2.625-6.404.513a.89.89 0 0 1-.276.593"/>
        <path fill="#3BAB48" d="M9.699 11.201l.124-2.312-2.67.962c.035.23.03.464-.014.692l2.56.659M6.889 9.12l2.98-1.074.073-1.386a.89.89 0 0 1-.4-.198l-2.79 2.456c.05.064.095.132.137.202"/>
        <path fill="#38A2CF" d="M11.925 22.908l.922 2.751c.24-.057.491-.05.727.024l1.206-2.816-2.855.04"/>
        <path fill="#276AA5" d="M17.97 16.075l-2.795 6.527 3.04-.044 3.025-2.56-1.719-3.853a2.558 2.558 0 0 1-1.552-.07"/>
        <mask id="b" fill="#fff">
            <use xlink:href="#a"/>
        </mask>
        <path fill="#276AA5" d="M10.018 18.04a1.62 1.62 0 0 1-.366.047l-.246 3.673c.215.041.42.144.582.315.162.171.254.38.284.597l1.293-.018-1.547-4.613" mask="url(#b)"/>
        <path fill="#28B9E0" d="M29.95 15.032a14.61 14.61 0 0 0-1.135-5.603 14.468 14.468 0 0 0-3.222-4.705 14.41 14.41 0 0 0-4.77-3.072 14.355 14.355 0 0 0-5.545-.978 14.353 14.353 0 0 0-10.004 4.36c-2.594 2.65-4.09 6.31-4.061 9.998-.03 3.688 1.464 7.351 4.059 10a14.366 14.366 0 0 0 10.006 4.362c1.882.04 3.78-.285 5.546-.98a14.398 14.398 0 0 0 4.769-3.073 14.461 14.461 0 0 0 3.222-4.705 14.615 14.615 0 0 0 1.135-5.604zm0 0c.031 3.846-1.531 7.668-4.238 10.428a14.96 14.96 0 0 1-10.434 4.537c-1.96.041-3.938-.3-5.778-1.024a15.03 15.03 0 0 1-4.965-3.204 15.102 15.102 0 0 1-3.354-4.901A15.214 15.214 0 0 1 0 15.031a15.191 15.191 0 0 1 1.18-5.836 15.057 15.057 0 0 1 3.353-4.901 15.01 15.01 0 0 1 4.966-3.206A14.954 14.954 0 0 1 15.28.065c1.959.039 3.904.467 5.685 1.248 1.786.774 3.4 1.909 4.749 3.29 2.706 2.761 4.268 6.584 4.237 10.429z" mask="url(#b)"/>
        <path fill="#FFF" d="M37.547 16.937c0 1.81 1.117 2.127 1.622 2.127.948 0 1.517-.78 1.517-1.495 0-.822-.653-1.074-3.054-2.085-1.096-.442-3.814-1.537-3.814-4.464 0-3.137 2.844-4.8 5.457-4.8 2.149 0 5.183 1.094 5.246 4.842h-3.94c-.084-.526-.21-1.516-1.433-1.516-.695 0-1.37.485-1.37 1.222 0 .715.422.905 3.224 2.168 2.908 1.306 3.645 2.653 3.645 4.464 0 2.485-1.306 4.99-5.435 4.99-4.088 0-5.731-2.4-5.626-5.453h3.961M67.621 14.81c-.084-.547-.8-1.853-2.612-1.853s-2.529 1.306-2.613 1.853h5.225zm-5.267 2.653c.148 1.242 1.327 2.063 2.697 2.063 1.117 0 1.706-.483 2.128-1.094h3.581c-.568 1.305-1.39 2.316-2.38 2.99a5.688 5.688 0 0 1-3.33 1.052c-3.35 0-6.194-2.716-6.194-6.19 0-3.263 2.571-6.274 6.132-6.274 1.79 0 3.329.694 4.424 1.852 1.475 1.58 1.917 3.454 1.643 5.601h-8.7zM72.275 10.41h3.287v1.305c.336-.631.948-1.706 2.97-1.706v3.517h-.126c-1.791 0-2.634.652-2.634 2.295v6.274h-3.497V10.41M84.388 13.694c-.02-.253-.063-.884-1.095-.884-.737 0-.99.463-.99.779 0 .526.863.884 1.79 1.158 1.981.547 4.088 1.137 4.088 3.664 0 2.569-2.17 4.084-4.761 4.084-1.77 0-4.446-.8-4.762-3.874h3.476c.148 1.074 1.18 1.074 1.328 1.074.59 0 1.221-.337 1.221-.905 0-.8-.863-.906-3.097-1.769-1.517-.484-2.78-1.474-2.78-3.053 0-2.421 2.106-3.959 4.53-3.959 1.537 0 4.192.611 4.487 3.685h-3.435M97.37 14.81c-.084-.547-.8-1.853-2.612-1.853s-2.528 1.306-2.613 1.853h5.225zm-5.267 2.653c.148 1.242 1.328 2.063 2.697 2.063 1.117 0 1.706-.483 2.128-1.094h3.582c-.57 1.305-1.39 2.316-2.381 2.99a5.687 5.687 0 0 1-3.33 1.052c-3.349 0-6.193-2.716-6.193-6.19 0-3.263 2.57-6.274 6.13-6.274 1.792 0 3.33.694 4.425 1.852 1.475 1.58 1.917 3.454 1.644 5.601h-8.702zM54.76 16.263c0 1.474-1.096 2.969-2.929 2.969a2.945 2.945 0 0 1-2.086-.863 2.925 2.925 0 0 1-.842-2.085c0-.842.316-1.6.821-2.126a2.891 2.891 0 0 1 2.107-.885c1.917 0 2.928 1.6 2.928 2.969v.021zm-2.212-6.254c-1.792 0-2.95.8-3.709 1.685v-1.285h-3.286v17.046h.049l3.448-3.39v-3.022c.422.442 1.412 1.453 3.519 1.453 3.328 0 5.688-2.759 5.688-6.128 0-2.716-1.56-6.358-5.71-6.358z"/>
    </g>
</svg>
