<svg width="31" height="31" viewBox="0 0 31 31" fill="none" xmlns="http://www.w3.org/2000/svg">
<path d="M22.7213 27.0378C23.2457 27.5811 24.1172 27.6003 24.607 27.0256C26.6674 24.6084 27.8587 21.5525 27.962 18.3512C28.08 14.6923 26.7675 11.1314 24.3031 8.42441C21.8387 5.71739 18.4164 4.0773 14.7625 3.85226C11.5656 3.65537 8.4116 4.5553 5.81208 6.38036C5.19406 6.81426 5.1316 7.68364 5.62339 8.25667V8.25667C6.11518 8.8297 6.97452 8.88764 7.60254 8.46835C9.65375 7.0989 12.1079 6.42851 14.5944 6.58165C17.5382 6.76296 20.2955 8.08433 22.281 10.2653C24.2665 12.4463 25.3239 15.3152 25.2288 18.263C25.1485 20.7529 24.2513 23.1335 22.6958 25.0475C22.2196 25.6335 22.1968 26.4945 22.7213 27.0378V27.0378Z" fill="#08295B"/>
<path d="M9.97289 10.2701L4.66852 8.30446L6.63414 3.00009" stroke="#08295B" stroke-width="3" stroke-linecap="round"/>
</svg>
