<svg width="40" height="40" viewBox="0 0 40 40" fill="none" xmlns="http://www.w3.org/2000/svg">
<rect width="40" height="40" rx="10" fill="#010101"/>
<path d="M25.2955 18.3475C26.1115 18.445 26.8082 18.883 27.2515 19.513L27.2575 19.522C27.6265 20.2457 27.8425 21.1007 27.8425 22.0067C27.8425 22.144 27.8372 22.2797 27.8275 22.414L27.8282 22.396C27.8327 22.4995 27.835 22.621 27.835 22.7432C27.835 25.0697 26.9432 27.1885 25.4822 28.7747L25.4882 28.7687C24.049 30.2987 22.0105 31.252 19.75 31.252C19.663 31.252 19.576 31.2505 19.489 31.2475H19.5017C19.4995 31.2475 19.4965 31.2475 19.4942 31.2475C18.4937 31.2475 17.5375 31.0577 16.66 30.712L16.7125 30.73C15.811 30.3887 15.0378 29.8982 14.3845 29.2825L14.3883 29.2855C13.7125 28.6855 13.1537 27.9715 12.739 27.1705L12.7195 27.13C12.3722 26.4535 12.1667 25.654 12.163 24.8072V24.8057C12.1592 24.7442 12.1562 24.673 12.1562 24.601C12.1562 23.9087 12.3723 23.2667 12.7413 22.7395L12.7345 22.75C13.1897 22.2317 13.816 21.8732 14.5248 21.763L14.5412 21.7607C14.4302 21.52 14.3155 21.2185 14.218 20.9087L14.2023 20.8502C14.1445 20.6815 14.1055 20.4865 14.0935 20.2847V20.2787C14.14 19.7057 14.4137 19.204 14.824 18.8597L14.827 18.8575C15.1667 18.4562 15.652 18.187 16.201 18.133L16.2092 18.1322C16.42 18.1345 16.6217 18.1712 16.81 18.2365L16.7965 18.2327C17.0695 18.3287 17.3042 18.4405 17.524 18.574L17.5067 18.5642C16.7137 16.3187 16.137 14.5857 15.7765 13.3652C15.514 12.628 15.3227 11.7715 15.2387 10.8827L15.2357 10.8392C15.2335 10.804 15.2327 10.7627 15.2327 10.7207C15.2327 10.1875 15.421 9.6977 15.7337 9.31445L15.7307 9.3182C16.042 8.9702 16.492 8.75195 16.9937 8.75195C17.0222 8.75195 17.0507 8.7527 17.0785 8.7542H17.0747C18.0417 8.7542 19.2673 10.917 20.7513 15.2425C21.0083 15.984 21.2037 16.5557 21.3377 16.9577L21.817 15.5987C23.2995 11.3127 24.5767 9.16995 25.6487 9.17045C25.6682 9.1697 25.6915 9.16895 25.7147 9.16895C26.188 9.16895 26.6132 9.3752 26.9057 9.7022L26.9072 9.7037C27.2027 10.0592 27.3812 10.5205 27.3812 11.0237C27.3812 11.062 27.3805 11.0995 27.3782 11.137V11.1317C27.2942 12.049 27.1112 12.8942 26.8382 13.6967L26.8615 13.6187C26.5165 14.8242 25.9937 16.4 25.2932 18.346L25.2955 18.3475ZM14.2345 24.6512C14.3778 24.8267 14.5795 25.0832 14.836 25.4237C15.5165 26.3607 16.1447 26.8292 16.7207 26.8292C16.7222 26.8292 16.7245 26.8292 16.7267 26.8292C16.9247 26.8292 17.1055 26.7595 17.2472 26.6425L17.2457 26.644C17.3755 26.5592 17.464 26.4205 17.4782 26.26V26.2577C17.4295 25.9652 17.3207 25.7042 17.1647 25.4792L17.1692 25.486C16.894 25.0225 16.6135 24.6235 16.306 24.2477L16.3202 24.2657C15.9992 23.8412 15.6625 23.4647 15.2972 23.119L15.2935 23.1152C15.1255 22.93 14.8997 22.7995 14.6448 22.753L14.638 22.7522C14.2202 22.7777 13.8587 22.9997 13.6435 23.3267L13.6405 23.3312C13.3562 23.692 13.1845 24.1532 13.1845 24.6542C13.1845 24.67 13.1845 24.6857 13.1853 24.7015V24.6992C13.2003 25.213 13.315 25.6967 13.5115 26.1355L13.5017 26.1115C13.7552 26.71 14.0635 27.2267 14.431 27.694L14.4197 27.6797C15.0107 28.4732 15.7698 29.1092 16.6473 29.5412L16.6832 29.557C17.533 29.971 18.532 30.2132 19.588 30.2132C19.618 30.2132 19.648 30.2132 19.6772 30.2125H19.6727C19.7072 30.2132 19.7485 30.2132 19.7897 30.2132C21.7532 30.2132 23.5142 29.3455 24.7105 27.9722L24.7172 27.9647C25.981 26.545 26.7527 24.664 26.7527 22.6022C26.7527 22.5077 26.7513 22.414 26.7483 22.3202V22.3337C26.7498 22.2812 26.7505 22.2205 26.7505 22.1582C26.7505 21.6377 26.6935 21.1307 26.5847 20.6425L26.5937 20.689C26.524 20.332 26.3417 20.026 26.086 19.8017L26.0845 19.8002C25.381 19.339 24.5507 19.0075 23.6575 18.862L23.6208 18.8567C22.4905 18.5912 21.1922 18.4397 19.8595 18.4397C19.8377 18.4397 19.8152 18.4397 19.7935 18.4397H19.7972C19.7627 18.4367 19.723 18.4345 19.6825 18.4345C19.4335 18.4345 19.201 18.5057 19.0045 18.628L19.0097 18.625C18.8642 18.7645 18.7742 18.961 18.7742 19.1777C18.7742 19.2062 18.7757 19.234 18.7787 19.2617V19.258C18.7862 19.9825 19.276 20.59 19.942 20.7767L19.9532 20.7797C20.9215 21.088 22.036 21.2657 23.191 21.2657C23.389 21.2657 23.5855 21.2605 23.7805 21.25L23.7535 21.2515H24.3857C24.3895 21.2515 24.3947 21.2515 24.3993 21.2515C24.5343 21.2515 24.655 21.3145 24.733 21.4127L24.7337 21.4135C24.8305 21.55 24.895 21.7165 24.9115 21.8972V21.901C24.6025 22.1365 24.2432 22.3277 23.8562 22.4567L23.83 22.4642C23.3522 22.6367 22.939 22.8482 22.558 23.1032L22.579 23.0897C21.9797 23.5262 21.4825 24.0632 21.1023 24.6797L21.0887 24.7037C20.7557 25.2032 20.548 25.8115 20.524 26.467V26.473C20.5397 26.9177 20.6267 27.3377 20.773 27.7285L20.764 27.7007C20.866 27.9557 20.9492 28.2542 20.9995 28.5647L21.0025 28.5895V28.6975L20.9717 28.837C20.4857 28.7875 20.083 28.4762 19.9015 28.0487L19.8985 28.0405C19.6472 27.5095 19.5002 26.8877 19.5002 26.2307C19.5002 26.164 19.5017 26.0972 19.5047 26.0312V26.041V25.9022C19.4365 25.9645 19.357 26.017 19.27 26.0545L19.2648 26.0567C19.1912 26.0867 19.1057 26.104 19.0165 26.104C19.0142 26.104 19.012 26.104 19.0097 26.104C19.0082 26.104 19.0067 26.104 19.0052 26.104C18.9137 26.104 18.8245 26.095 18.7382 26.0785L18.7472 26.08C18.6347 26.0582 18.541 26.0342 18.4495 26.0057L18.4682 26.011C18.5177 26.1842 18.5507 26.3852 18.5605 26.5922V26.5982C18.5605 26.5997 18.5605 26.602 18.5605 26.6035C18.5605 26.9927 18.3872 27.3415 18.1142 27.577L18.1127 27.5785C17.8405 27.832 17.4745 27.988 17.0717 27.988C17.0635 27.988 17.0545 27.988 17.0462 27.988H17.0477C16.261 27.9355 15.5665 27.5807 15.0722 27.04L15.07 27.0377C14.5075 26.593 14.1317 25.9345 14.0657 25.1867L14.065 25.177C14.065 25.1725 14.065 25.168 14.065 25.1627C14.065 25.0607 14.0793 24.9617 14.1055 24.8687L14.104 24.8762C14.1295 24.7877 14.1738 24.712 14.2345 24.6512ZM18.8695 25.021C19.063 25.015 19.234 24.9235 19.3465 24.7832L19.3472 24.7817C19.4777 24.6482 19.5602 24.466 19.564 24.265V24.2642C19.4763 23.7512 19.3285 23.2915 19.126 22.8632L19.1395 22.8955C18.8117 22.0795 18.457 21.385 18.0475 20.7287L18.0812 20.7865C17.8262 20.3395 17.5232 19.9555 17.1715 19.6225L17.1692 19.6202C16.951 19.3975 16.6547 19.2512 16.3247 19.2272H16.3202C16.0262 19.2655 15.7742 19.4162 15.6032 19.6345L15.6017 19.6367C15.3835 19.8265 15.238 20.095 15.2087 20.3965L15.208 20.401C15.259 20.818 15.3962 21.1952 15.601 21.5252L15.5942 21.5132C15.9182 22.1125 16.2617 22.6277 16.6457 23.1085L16.6293 23.0875C17.0132 23.6207 17.4347 24.0865 17.9027 24.502L17.9117 24.5095C18.1607 24.7705 18.49 24.9527 18.859 25.018L18.8695 25.0195V25.021ZM20.383 17.56L18.715 12.7397C18.4188 11.8105 18.0782 11.0155 17.6725 10.261L17.71 10.3375C17.473 9.96045 17.2155 9.77245 16.9375 9.77345C16.9322 9.77345 16.9262 9.77345 16.921 9.77345C16.7155 9.77345 16.5317 9.86945 16.414 10.0195L16.4132 10.021C16.2865 10.189 16.21 10.4012 16.21 10.6315C16.21 10.6502 16.2107 10.669 16.2115 10.687V10.6847C16.2947 11.5952 16.4868 12.4345 16.7747 13.2272L16.7522 13.1575C17.1132 14.332 17.654 15.8715 18.3745 17.776C18.4315 17.668 18.523 17.5847 18.6332 17.5382L18.637 17.5367C18.76 17.4925 18.9017 17.4662 19.0502 17.4662C19.0682 17.4662 19.0862 17.467 19.1035 17.4677H19.1012C19.1627 17.4677 19.2865 17.4722 19.4725 17.4827C19.657 17.4932 19.9608 17.5192 20.3837 17.5607L20.383 17.56ZM22.129 22.2407C21.6678 22.2205 21.2343 22.171 20.8112 22.093L20.8697 22.102C20.4355 22.0232 20.0545 21.916 19.6885 21.7772L19.7342 21.7922C19.8982 22.1222 20.045 22.4517 20.1745 22.7807C20.281 23.0387 20.389 23.3635 20.4767 23.6957L20.4903 23.755C20.7362 23.4475 20.992 23.1722 21.2665 22.9165L21.271 22.912C21.5275 22.6735 21.8072 22.4522 22.1042 22.255L22.1282 22.24L22.129 22.2407ZM24.1832 18.085C24.8733 16.2105 25.4115 14.6632 25.798 13.4432C26.0433 12.8005 26.245 12.0437 26.3687 11.2607L26.377 11.1955C26.3785 11.1752 26.3792 11.152 26.3792 11.1287C26.3792 10.894 26.3065 10.6765 26.182 10.4972L26.1842 10.501C26.0657 10.3495 25.8835 10.2527 25.678 10.2527C25.6683 10.2527 25.6592 10.2527 25.6495 10.2535H25.651C25.3622 10.2535 25.0697 10.4927 24.7697 10.9712C24.3932 11.6305 24.058 12.3955 23.8045 13.1965L23.7812 13.2812L22.237 17.7452L24.1832 18.085Z" fill="white"/>
</svg>
