<svg width="40" height="40" viewBox="0 0 40 40" fill="none" xmlns="http://www.w3.org/2000/svg">
<rect width="40" height="40" rx="10" fill="#010101"/>
<path d="M23.851 9C23.8975 9 23.9441 9 23.9932 9C24.1074 10.4104 23.569 11.4643 22.9148 12.2275C22.2728 12.9854 21.3937 13.7205 19.9718 13.609C19.877 12.2187 20.4162 11.243 21.0696 10.4816C21.6756 9.77197 22.7865 9.14052 23.851 9Z" fill="white"/>
<path d="M28.1568 23.68C28.1568 23.694 28.1568 23.7063 28.1568 23.7195C27.7572 24.9297 27.1873 25.9669 26.4917 26.9295C25.8567 27.8033 25.0786 28.9793 23.6893 28.9793C22.4887 28.9793 21.6913 28.2073 20.4609 28.1862C19.1593 28.1651 18.4436 28.8317 17.2536 28.9995C17.1174 28.9995 16.9813 28.9995 16.8478 28.9995C15.974 28.873 15.2688 28.1809 14.755 27.5574C13.24 25.7149 12.0694 23.3348 11.8516 20.2891C11.8516 19.9905 11.8516 19.6928 11.8516 19.3942C11.9438 17.2144 13.0029 15.4422 14.4107 14.5833C15.1537 14.1266 16.1751 13.7375 17.3124 13.9114C17.7998 13.9869 18.2978 14.1538 18.7343 14.3189C19.1479 14.4779 19.6652 14.7598 20.1553 14.7449C20.4872 14.7352 20.8174 14.5622 21.1521 14.4401C22.1322 14.0862 23.0929 13.6804 24.3594 13.871C25.8813 14.1011 26.9616 14.7773 27.629 15.8207C26.3415 16.6401 25.3237 17.8749 25.4975 19.9835C25.6521 21.8989 26.7657 23.0196 28.1568 23.68Z" fill="white"/>
</svg>
