<svg width="40" height="40" viewBox="0 0 40 40" fill="none" xmlns="http://www.w3.org/2000/svg">
<rect width="40" height="40" rx="10" fill="#005F86"/>
<path d="M16.6468 16.633C15.8922 17.6735 16.1234 19.1284 17.1634 19.8836L19.5221 21.5965C19.7841 21.7851 19.842 22.151 19.6514 22.4116L20.005 22.6667L21.2504 20.9506C21.5395 20.5551 21.6957 20.0782 21.6965 19.5882C21.6954 19.4635 21.6851 19.339 21.6657 19.216C21.5715 18.6073 21.2396 18.0611 20.743 17.6969L18.3874 15.9871C18.2564 15.8995 18.1674 15.7614 18.1414 15.6058C18.1383 15.575 18.1383 15.5442 18.1414 15.5137C18.1423 15.3912 18.1808 15.2719 18.2521 15.1723L17.8985 14.9141L16.6468 16.633Z" fill="white"/>
<path d="M18.0724 9.75048C17.6546 10.3241 17.4297 11.0153 17.4297 11.7248C17.4289 11.9049 17.4431 12.0853 17.4728 12.2631C17.6104 13.1481 18.0967 13.9412 18.823 14.4651L21.7876 16.6175C22.1761 16.8981 22.436 17.3222 22.5102 17.7954C22.5259 17.891 22.5342 17.9877 22.5348 18.0845C22.5334 18.4629 22.4115 18.8313 22.1872 19.1361L22.4731 19.3422L24.8074 16.1161C25.8973 14.6053 25.5602 12.4976 24.0539 11.4017L20.4774 8.80327C20.2537 8.64116 20.1041 8.39658 20.0622 8.12375C20.0165 7.8512 20.083 7.57152 20.2468 7.34863L19.964 7.14258L18.0724 9.75048Z" fill="white"/>
<path d="M24.8959 23.2441H15.0442L14.6875 24.4228H17.3159L17.8125 26.0467H22.1276L22.6299 24.4228H25.2527L24.8959 23.2441Z" fill="white"/>
<path d="M15.8721 29.8011C16.351 29.5708 16.6498 29.0805 16.6347 28.5494V28.5309C16.6441 28.1613 16.5005 27.804 16.238 27.5437C15.8196 27.1781 15.2731 26.9932 14.7188 27.03H12.0185L12.0156 32.8271H14.7833C16.0964 32.8271 16.9577 32.2952 16.9577 31.2309C16.9577 30.4498 16.5425 30.0594 15.8721 29.8011ZM13.2642 28.1496H14.5373C15.0693 28.1496 15.377 28.3802 15.377 28.7646C15.377 29.1953 15.0171 29.3796 14.4543 29.3796H13.2642V28.1496ZM15.6966 31.1051C15.6966 31.5203 15.3584 31.7201 14.7925 31.7201L13.2639 31.7509V30.4715H14.7525C15.4075 30.4715 15.6966 30.699 15.6966 31.0865V31.1051Z" fill="white"/>
<path d="M26.8643 29.8011C27.3432 29.5708 27.642 29.0805 27.6269 28.5494V28.5309C27.6363 28.1613 27.4927 27.804 27.2302 27.5437C26.8118 27.1781 26.2653 26.9932 25.711 27.03H23.011L23.0078 32.8271H25.7755C27.0886 32.8271 27.9528 32.2952 27.9528 31.2309C27.9528 30.4498 27.5378 30.0594 26.8643 29.8011ZM24.2564 28.1496H25.5235C26.0524 28.1496 26.36 28.3802 26.36 28.7646C26.36 29.1953 26.0001 29.3796 25.4373 29.3796H24.2564V28.1496ZM26.6828 31.1051C26.6828 31.5203 26.3415 31.7201 25.7755 31.7201L24.2564 31.7509V30.4715H25.7356C26.3905 30.4715 26.6828 30.699 26.6828 31.0865V31.1051Z" fill="white"/>
<path d="M21.3815 29.8011C21.8603 29.5708 22.1591 29.0805 22.144 28.5494V28.5309C22.1543 28.1616 22.0119 27.8045 21.7505 27.5437C21.3321 27.1781 20.7856 26.9932 20.2313 27.03H17.5312V32.8269H20.293C21.6061 32.8269 22.4702 32.2949 22.4702 31.2307C22.4702 30.4498 22.055 30.0594 21.3815 29.8011ZM18.7613 28.1496H20.0435C20.5724 28.1496 20.88 28.3802 20.88 28.7646C20.88 29.1953 20.5201 29.3796 19.9574 29.3796H18.761L18.7613 28.1496ZM21.1999 31.1051C21.1999 31.5203 20.8618 31.7201 20.2958 31.7201L18.7613 31.7509V30.4715H20.2559C20.9108 30.4715 21.1999 30.699 21.1999 31.0865V31.1051Z" fill="white"/>
</svg>
