<svg data-lov-id="src\components\SocialIcon.tsx:109:10" data-lov-name="svg" data-component-path="src\components\SocialIcon.tsx" data-component-line="109" data-component-file="SocialIcon.tsx" data-component-name="svg" data-component-content="%7B%7D" fill="none" viewBox="0 0 64 57" class="h-8 w-8 text-white drop-shadow-sm"><path data-lov-id="src\components\SocialIcon.tsx:110:12" data-lov-name="path" data-component-path="src\components\SocialIcon.tsx" data-component-line="110" data-component-file="SocialIcon.tsx" data-component-name="path" data-component-content="%7B%7D" fill="currentColor" d="M13.873 3.805C21.21 9.332 29.103 20.537 32 26.55v15.882c0-.338-.13.044-.41.867-1.512 4.456-7.418 21.847-20.923 7.944-7.111-7.32-3.819-14.64 9.125-16.85-7.405 1.264-15.73-.825-18.014-9.015C1.12 23.022 0 8.51 0 6.55 0-3.268 8.579-.182 13.873 3.805ZM50.127 3.805C42.79 9.332 34.897 20.537 32 26.55v15.882c0-.338.13.044.41.867 1.512 4.456 7.418 21.847 20.923 7.944 7.111-7.32 3.819-14.64-9.125-16.85 7.405 1.264 15.73-.825 18.014-9.015C62.88 23.022 64 8.51 64 6.55c0-9.818-8.578-6.732-13.873-2.745Z"></path></svg>