<svg width="40" height="40" viewBox="0 0 40 40" fill="none" xmlns="http://www.w3.org/2000/svg">
<rect width="40" height="40" rx="10" fill="#010101"/>
<g clip-path="url(#clip0_1_69)">
<path d="M14.1897 26.2466C10.6592 26.2466 8 23.357 8 19.7896C8 16.2104 10.5234 13.2971 14.1897 13.2971C16.1359 13.2971 17.4825 13.9154 18.5348 15.3305L16.8375 16.7931C16.1246 16.0082 15.2646 15.6158 14.1897 15.6158C11.802 15.6158 10.4894 17.5065 10.4894 19.7896C10.4894 22.0728 11.9265 23.9278 14.1897 23.9278C15.2533 23.9278 16.1586 23.5354 16.8714 22.7506L18.5462 24.2726C17.5391 25.6282 16.1586 26.2466 14.1897 26.2466Z" fill="white"/>
<path d="M25.8589 16.7448H28.1447V26.0199H25.8589V24.6643C25.3837 25.6275 24.5916 26.2696 23.0753 26.2696C20.6538 26.2696 18.7188 24.0936 18.7188 21.418C18.7188 18.7425 20.6538 16.5664 23.0753 16.5664C24.5803 16.5664 25.3837 17.2085 25.8589 18.1717V16.7448ZM25.9268 21.418C25.9268 19.9673 24.965 18.7663 23.4487 18.7663C21.989 18.7663 21.0384 19.9792 21.0384 21.418C21.0384 22.8212 21.989 24.0698 23.4487 24.0698C24.9537 24.0698 25.9268 22.8569 25.9268 21.418Z" fill="white"/>
<path d="M29.7578 13H32.0435V26.009H29.7578V13Z" fill="white"/>
</g>
<defs>
<clipPath id="clip0_1_69">
<rect width="24" height="14" fill="white" transform="translate(8 13)"/>
</clipPath>
</defs>
</svg>
