<svg width="40" height="40" viewBox="0 0 40 40" fill="none" xmlns="http://www.w3.org/2000/svg">
<rect width="40" height="40" rx="10" fill="#006BFF"/>
<mask id="mask0_15595_96" style="mask-type:luminance" maskUnits="userSpaceOnUse" x="10" y="9" width="20" height="21">
<path d="M29.6122 9.97852H10V29.9993H29.6122V9.97852Z" fill="white"/>
</mask>
<g mask="url(#mask0_15595_96)">
<path d="M23.4518 22.8857C22.8267 23.4373 22.0177 24.136 20.5835 24.136H19.7378C18.7081 24.136 17.752 23.7683 17.0533 23.0696C16.3914 22.4077 16.0237 21.4884 16.0237 20.4955V19.3188C16.0237 18.3259 16.3914 17.4065 17.0533 16.7446C17.7152 16.0459 18.6714 15.6782 19.7378 15.6782H20.5835C22.0177 15.6782 22.8267 16.3769 23.4518 16.9285C24.1137 17.5169 24.6653 18.0317 26.2098 18.0317C26.4305 18.0317 26.6878 18.0317 26.9085 17.9949C26.8349 17.7743 26.7246 17.5536 26.5775 17.333L25.5479 15.5679C24.6286 13.9499 22.9002 12.957 21.0248 12.957H19.0023C17.1269 12.957 15.4353 13.9499 14.4792 15.5679L13.4864 17.333C12.567 18.951 12.567 20.9368 13.4864 22.5548L14.516 24.3199C15.4353 25.9379 17.1637 26.9307 19.0391 26.9307H21.0616C22.937 26.9307 24.6286 25.9379 25.5846 24.3199L26.6143 22.5548C26.7246 22.3341 26.8349 22.1135 26.9453 21.8929C26.7246 21.8561 26.4672 21.8193 26.2466 21.8193C24.7021 21.8193 24.1137 22.3341 23.4518 22.8857Z" fill="white"/>
<path d="M20.5895 16.7461H19.7437C18.1625 16.7461 17.1328 17.886 17.1328 19.3202V20.4969C17.1328 21.931 18.1625 23.071 19.7437 23.071H20.5895C22.9062 23.071 22.7223 20.7176 26.2157 20.7176C26.5467 20.7176 26.8777 20.7543 27.2086 20.7911C27.3189 20.2027 27.3189 19.5776 27.2086 18.9892C26.8777 19.0628 26.5467 19.0628 26.2157 19.0628C22.7223 19.0995 22.9062 16.7461 20.5895 16.7461Z" fill="white"/>
<path d="M29.1902 21.7093C28.6018 21.268 27.9031 20.9738 27.2045 20.8635C27.1309 21.1945 27.0574 21.5622 26.9102 21.8932C27.4986 22.0035 28.087 22.2241 28.565 22.5919C27.0941 27.2988 22.093 29.9465 17.3861 28.4755C12.6791 27.0046 10.0315 22.0035 11.5024 17.2965C12.9733 12.5896 17.9745 9.94195 22.6814 11.4129C25.5129 12.2954 27.7193 14.5018 28.565 17.2965C28.087 17.6643 27.4986 17.8849 26.9102 17.9952C27.0574 18.3262 27.1309 18.6572 27.2045 19.0249C27.9399 18.8778 28.6018 18.5836 29.1902 18.1791C29.7786 17.7746 29.6682 17.2965 29.5579 17.0024C27.9399 11.7071 22.3136 8.76522 17.0551 10.3833C11.7598 12.0013 8.81795 17.6275 10.436 22.886C12.054 28.1814 17.6802 31.1232 22.9388 29.5052C26.1013 28.5123 28.565 26.0485 29.5579 22.886C29.6682 22.5919 29.7786 22.1138 29.1902 21.7093Z" fill="white"/>
<path d="M26.916 17.9967C26.6954 18.0335 26.438 18.0703 26.2174 18.0703C24.7097 18.0703 24.1213 17.5555 23.4594 16.9671C22.8342 16.4155 22.0253 15.7168 20.5911 15.7168H19.7453C18.7157 15.7168 17.7596 16.0846 17.0609 16.7832C16.399 17.4451 16.0312 18.3645 16.0312 19.3573V20.5341C16.0312 21.5269 16.399 22.4463 17.0609 23.1082C17.7228 23.8069 18.6789 24.1746 19.7453 24.1746H20.5911C22.0253 24.1746 22.8342 23.4759 23.4594 22.9243C24.1213 22.336 24.6729 21.8212 26.2174 21.8212C26.438 21.8212 26.6954 21.8211 26.916 21.8579C27.0631 21.5269 27.1367 21.196 27.2103 20.8282C26.8793 20.7547 26.5483 20.7547 26.2174 20.7547C22.7239 20.7547 22.9078 23.1082 20.5911 23.1082H19.7453C18.1641 23.1082 17.1344 21.9682 17.1344 20.5341V19.3573C17.1344 17.9232 18.1641 16.7832 19.7453 16.7832H20.5911C22.9078 16.7832 22.7239 19.1367 26.2174 19.1367C26.5483 19.1367 26.8793 19.0999 27.2103 19.0632C27.1367 18.6587 27.0264 18.3277 26.916 17.9967Z" fill="#0AE8F0"/>
<path d="M26.916 17.9967C26.6954 18.0335 26.438 18.0703 26.2174 18.0703C24.7097 18.0703 24.1213 17.5555 23.4594 16.9671C22.8342 16.4155 22.0253 15.7168 20.5911 15.7168H19.7453C18.7157 15.7168 17.7596 16.0846 17.0609 16.7832C16.399 17.4451 16.0312 18.3645 16.0312 19.3573V20.5341C16.0312 21.5269 16.399 22.4463 17.0609 23.1082C17.7228 23.8069 18.6789 24.1746 19.7453 24.1746H20.5911C22.0253 24.1746 22.8342 23.4759 23.4594 22.9243C24.1213 22.336 24.6729 21.8212 26.2174 21.8212C26.438 21.8212 26.6954 21.8211 26.916 21.8579C27.0631 21.5269 27.1367 21.196 27.2103 20.8282C26.8793 20.7547 26.5483 20.7547 26.2174 20.7547C22.7239 20.7547 22.9078 23.1082 20.5911 23.1082H19.7453C18.1641 23.1082 17.1344 21.9682 17.1344 20.5341V19.3573C17.1344 17.9232 18.1641 16.7832 19.7453 16.7832H20.5911C22.9078 16.7832 22.7239 19.1367 26.2174 19.1367C26.5483 19.1367 26.8793 19.0999 27.2103 19.0632C27.1367 18.6587 27.0264 18.3277 26.916 17.9967Z" fill="#0AE8F0"/>
</g>
</svg>
