<svg width="40" height="40" viewBox="0 0 40 40" fill="none" xmlns="http://www.w3.org/2000/svg">
<rect width="40" height="40" rx="10" fill="#006BFF"/>
<mask id="mask0_1_209" style="mask-type:luminance" maskUnits="userSpaceOnUse" x="10" y="9" width="20" height="22">
<path d="M29.6122 9.97981H10V30.0006H29.6122V9.97981Z" fill="white"/>
</mask>
<g mask="url(#mask0_1_209)">
<path d="M23.4535 22.8865C22.8283 23.4381 22.0193 24.1368 20.5852 24.1368H19.7394C18.7098 24.1368 17.7536 23.769 17.055 23.0704C16.3931 22.4084 16.0253 21.4891 16.0253 20.4963V19.3195C16.0253 18.3266 16.3931 17.4073 17.055 16.7454C17.7169 16.0467 18.673 15.679 19.7394 15.679H20.5852C22.0193 15.679 22.8283 16.3777 23.4535 16.9293C24.1154 17.5176 24.667 18.0325 26.2114 18.0325C26.4321 18.0325 26.6895 18.0325 26.9102 17.9957C26.8366 17.775 26.7263 17.5544 26.5792 17.3338L25.5495 15.5686C24.6302 13.9506 22.9019 12.9578 21.0265 12.9578H19.0039C17.1285 12.9578 15.437 13.9506 14.4809 15.5686L13.488 17.3338C12.5687 18.9518 12.5687 20.9375 13.488 22.5555L14.5177 24.3206C15.437 25.9386 17.1653 26.9315 19.0407 26.9315H21.0632C22.9386 26.9315 24.6302 25.9386 25.5863 24.3206L26.6159 22.5555C26.7263 22.3349 26.8366 22.1143 26.9469 21.8936C26.7263 21.8568 26.4688 21.8201 26.2482 21.8201C24.7038 21.8201 24.1154 22.3349 23.4535 22.8865Z" fill="white"/>
<path d="M20.5854 16.7467H19.7396C18.1584 16.7467 17.1287 17.8866 17.1287 19.3208V20.4975C17.1287 21.9316 18.1584 23.0716 19.7396 23.0716H20.5854C22.9021 23.0716 22.7182 20.7182 26.2116 20.7182C26.5426 20.7182 26.8736 20.7549 27.2045 20.7917C27.3148 20.2033 27.3148 19.5782 27.2045 18.9898C26.8736 19.0634 26.5426 19.0634 26.2116 19.0634C22.7182 19.1001 22.9021 16.7467 20.5854 16.7467Z" fill="white"/>
<path d="M29.1893 21.7105C28.601 21.2693 27.9023 20.9751 27.2036 20.8648C27.1301 21.1957 27.0565 21.5634 26.9094 21.8944C27.4978 22.0047 28.0861 22.2253 28.5642 22.5931C27.0933 27.3 22.0922 29.9477 17.3852 28.4768C12.6783 27.0059 10.0306 22.0047 11.5015 17.2978C12.9724 12.5908 17.9736 9.94317 22.6805 11.4141C25.512 12.2966 27.7184 14.503 28.5642 17.2978C28.0861 17.6655 27.4978 17.8861 26.9094 17.9964C27.0565 18.3274 27.1301 18.6584 27.2036 19.0261C27.939 18.879 28.601 18.5848 29.1893 18.1803C29.7777 17.7758 29.6674 17.2978 29.5571 17.0036C27.939 11.7083 22.3128 8.76644 17.0542 10.3845C11.759 12.0025 8.8171 17.6287 10.4351 22.8873C12.0531 28.1826 17.6794 31.1244 22.9379 29.5064C26.1004 28.5135 28.5642 26.0498 29.5571 22.8873C29.6674 22.5931 29.7777 22.115 29.1893 21.7105Z" fill="white"/>
<path d="M26.9186 17.9976C26.698 18.0344 26.4406 18.0711 26.2199 18.0711C24.7122 18.0711 24.1239 17.5563 23.4619 16.968C22.8368 16.4164 22.0278 15.7177 20.5937 15.7177H19.7479C18.7183 15.7177 17.7621 16.0854 17.0635 16.7841C16.4016 17.446 16.0338 18.3653 16.0338 19.3582V20.5349C16.0338 21.5278 16.4016 22.4471 17.0635 23.109C17.7254 23.8077 18.6815 24.1755 19.7479 24.1755H20.5937C22.0278 24.1755 22.8368 23.4767 23.4619 22.9252C24.1239 22.3368 24.6755 21.822 26.2199 21.822C26.4406 21.822 26.698 21.822 26.9186 21.8588C27.0657 21.5278 27.1392 21.1969 27.2128 20.8291C26.8819 20.7556 26.5509 20.7556 26.2199 20.7556C22.7265 20.7556 22.9103 23.109 20.5937 23.109H19.7479C18.1667 23.109 17.137 21.9691 17.137 20.5349V19.3582C17.137 17.924 18.1667 16.7841 19.7479 16.7841H20.5937C22.9103 16.7841 22.7265 19.1376 26.2199 19.1376C26.5509 19.1376 26.8819 19.1008 27.2128 19.064C27.1392 18.6595 27.0289 18.3285 26.9186 17.9976Z" fill="#0AE8F0"/>
<path d="M26.9186 17.9976C26.698 18.0344 26.4406 18.0711 26.2199 18.0711C24.7122 18.0711 24.1239 17.5563 23.4619 16.968C22.8368 16.4164 22.0278 15.7177 20.5937 15.7177H19.7479C18.7183 15.7177 17.7621 16.0854 17.0635 16.7841C16.4016 17.446 16.0338 18.3653 16.0338 19.3582V20.5349C16.0338 21.5278 16.4016 22.4471 17.0635 23.109C17.7254 23.8077 18.6815 24.1755 19.7479 24.1755H20.5937C22.0278 24.1755 22.8368 23.4767 23.4619 22.9252C24.1239 22.3368 24.6755 21.822 26.2199 21.822C26.4406 21.822 26.698 21.822 26.9186 21.8588C27.0657 21.5278 27.1392 21.1969 27.2128 20.8291C26.8819 20.7556 26.5509 20.7556 26.2199 20.7556C22.7265 20.7556 22.9103 23.109 20.5937 23.109H19.7479C18.1667 23.109 17.137 21.9691 17.137 20.5349V19.3582C17.137 17.924 18.1667 16.7841 19.7479 16.7841H20.5937C22.9103 16.7841 22.7265 19.1376 26.2199 19.1376C26.5509 19.1376 26.8819 19.1008 27.2128 19.064C27.1392 18.6595 27.0289 18.3285 26.9186 17.9976Z" fill="#0AE8F0"/>
</g>
</svg>
