<svg width="40" height="40" viewBox="0 0 40 40" fill="none" xmlns="http://www.w3.org/2000/svg">
<rect width="40" height="40" rx="10" fill="#FF6A22"/>
<g clip-path="url(#clip0_1_173)">
<path d="M20 38C29.9411 38 38 29.9411 38 20C38 10.0589 29.9411 2 20 2C10.0589 2 2 10.0589 2 20C2 29.9411 10.0589 38 20 38Z" fill="#FF6A22"/>
<path d="M7.3601 24.0865C7.35143 24.1449 7.30972 24.1866 7.25549 24.1866C7.20127 24.1866 7.15955 24.1449 7.15121 24.0852L6.96094 22.6612L7.15121 21.2134C7.15923 21.1531 7.20095 21.1114 7.25549 21.1114C7.3094 21.1114 7.35111 21.1531 7.3601 21.2134L7.58663 22.6628L7.3601 24.0865ZM8.32944 24.9515C8.32045 25.0135 8.27553 25.0568 8.22002 25.0568C8.16611 25.0568 8.11895 25.0135 8.11157 24.9515L7.85551 22.6609L8.11157 20.3189C8.11927 20.2585 8.16611 20.2136 8.22002 20.2136C8.27553 20.2136 8.32045 20.2576 8.32944 20.3189L8.62078 22.6609L8.32944 24.9515ZM9.37546 25.3395C9.36808 25.4139 9.31225 25.4668 9.24519 25.4668C9.17588 25.4668 9.12101 25.4139 9.11428 25.3395L8.87138 22.6628L9.11428 19.8844C9.12037 19.809 9.17588 19.7551 9.24519 19.7551C9.31225 19.7551 9.36776 19.809 9.37546 19.8844L9.65109 22.6628L9.37546 25.3395ZM10.4318 25.4245C10.4241 25.5098 10.3573 25.5743 10.2781 25.5743C10.1969 25.5743 10.1305 25.5098 10.1237 25.4245L9.8943 22.6628L10.1237 19.808C10.1305 19.722 10.1969 19.6575 10.2781 19.6575C10.3573 19.6575 10.4241 19.722 10.4318 19.808L10.692 22.6628L10.4318 25.4245ZM11.4938 25.4466C11.4884 25.5458 11.411 25.6193 11.3196 25.6193C11.2253 25.6193 11.1505 25.5458 11.1441 25.4466L10.9272 22.6625L11.1441 20.014C11.1508 19.9155 11.2253 19.842 11.3196 19.842C11.4126 19.842 11.4884 19.9155 11.4938 20.0127L11.7396 22.6625L11.4938 25.4466ZM12.5662 25.4482V25.4466C12.5597 25.5564 12.4728 25.643 12.3682 25.643C12.2633 25.643 12.1763 25.556 12.1702 25.4482L11.9677 22.6641L12.1702 18.3551C12.1763 18.2454 12.2633 18.1588 12.3682 18.1588C12.4731 18.1588 12.5601 18.2457 12.5662 18.3535L12.7956 22.6641L12.5662 25.4482ZM13.6305 25.4466V25.445C13.6241 25.5663 13.5281 25.6629 13.4094 25.6629C13.2929 25.6629 13.1967 25.5663 13.1909 25.445L12.9997 22.6788L13.1909 17.3842C13.1967 17.2629 13.2929 17.167 13.4094 17.167C13.5281 17.167 13.6241 17.2629 13.6305 17.3842L13.8458 22.6788L13.6305 25.4466ZM14.7346 25.404V25.4023C14.7298 25.5374 14.6236 25.6424 14.493 25.6424C14.3624 25.6424 14.2562 25.5374 14.2514 25.404L14.0739 22.666C14.0739 22.666 14.2514 16.9302 14.2514 16.9286C14.2565 16.7951 14.3624 16.6882 14.493 16.6882C14.6236 16.6882 14.7301 16.7951 14.7346 16.9286L14.9351 22.666L14.7346 25.404ZM15.8323 25.3857C15.8271 25.5326 15.7119 25.6478 15.5685 25.6478C15.4248 25.6478 15.3096 25.5326 15.3044 25.3869L15.1389 22.6654L15.3044 16.7364C15.3096 16.5888 15.4248 16.4739 15.5685 16.4739C15.7119 16.4739 15.8275 16.5888 15.8323 16.7364L16.0161 22.6654L15.8323 25.3857ZM16.937 25.3616V25.36C16.9319 25.5188 16.8077 25.6449 16.6502 25.6449C16.4949 25.6449 16.3681 25.5188 16.3652 25.3616L16.2131 22.666L16.3636 16.8885C16.3681 16.7274 16.4945 16.6029 16.6502 16.6029C16.8077 16.6029 16.9319 16.7274 16.937 16.8885L17.1077 22.666L16.937 25.3616ZM18.0507 25.3456V25.3433C18.0482 25.5163 17.9115 25.6494 17.7427 25.6494C17.5727 25.6494 17.4379 25.5163 17.4328 25.3456L17.2954 22.6657L17.4331 17.0996C17.4382 16.927 17.573 16.7919 17.743 16.7919C17.9118 16.7919 18.0485 16.927 18.0511 17.0996L18.2067 22.6673L18.0507 25.3456ZM19.1869 25.0629L19.1731 25.3253C19.1715 25.4168 19.133 25.4996 19.0743 25.5593C19.014 25.618 18.9312 25.6555 18.8436 25.6555C18.7416 25.6555 18.6517 25.6087 18.5901 25.5349C18.5446 25.4813 18.5163 25.412 18.5131 25.3391C18.5122 25.3359 18.5122 25.3318 18.5122 25.3273C18.5122 25.3273 18.3854 22.6686 18.3854 22.6641L18.5105 16.1046L18.5122 16.0417C18.5131 15.9268 18.5741 15.8245 18.6652 15.7657C18.7162 15.7317 18.7765 15.7118 18.8439 15.7118C18.91 15.7118 18.9726 15.7324 19.0249 15.7686C19.1138 15.828 19.1719 15.9278 19.1735 16.042L19.3127 22.6673L19.1869 25.0629ZM20.291 25.291V25.2878C20.2888 25.4816 20.13 25.6395 19.9381 25.6395C19.7456 25.6395 19.5871 25.4816 19.5851 25.2894L19.5123 23.9963L19.4407 22.6686L19.5851 15.4792V15.443C19.5855 15.3339 19.6368 15.2363 19.716 15.1705C19.7767 15.1208 19.8547 15.0906 19.9381 15.0906C20.0045 15.0906 20.0661 15.1089 20.1187 15.1397C20.2192 15.2026 20.2894 15.314 20.2926 15.4414L20.4489 22.6682L20.291 25.291ZM29.8314 25.6465C29.8314 25.6465 20.9488 25.6465 20.9395 25.6465C20.7476 25.627 20.5959 25.4742 20.5927 25.2775V15.0983C20.5959 14.911 20.6604 14.8144 20.9016 14.7216C21.5245 14.4804 22.2297 14.3379 22.9546 14.3379C25.9113 14.3379 28.3342 16.6061 28.5912 19.4955C28.9718 19.3367 29.3921 19.2462 29.8314 19.2462C31.6019 19.2462 33.0375 20.6824 33.0375 22.4542C33.0375 24.2257 31.6019 25.6465 29.8314 25.6465Z" fill="#F1F2F2"/>
</g>
<defs>
<clipPath id="clip0_1_173">
<rect width="36" height="36" fill="white" transform="translate(2 2)"/>
</clipPath>
</defs>
</svg>
