<svg width="40" height="40" viewBox="0 0 40 40" fill="none" xmlns="http://www.w3.org/2000/svg">
<rect width="40" height="40" rx="10" fill="black"/>
<rect x="7" y="10" width="27" height="20" fill="white"/>
<path d="M30.5215 22.3849C30.5215 22.407 30.5228 22.433 30.5228 22.459C30.5228 24.3472 28.9922 25.8778 27.104 25.8778C25.2159 25.8778 23.6853 24.3472 23.6853 22.459C23.6853 20.5709 25.2159 19.0403 27.104 19.0403C27.7243 19.0403 28.3069 19.2055 28.8088 19.4954L28.7919 19.4863C29.8114 20.0728 30.4942 21.1469 30.5228 22.381L30.5215 22.3849ZM30.883 26.8791C30.394 27.3017 29.8231 27.6489 29.2003 27.8895L29.1612 27.9025C28.5189 28.1586 27.775 28.3082 26.9974 28.3082C25.749 28.3082 24.5904 27.9259 23.632 27.2718L23.6528 27.2848V27.9025H21.199V10.7256H23.6359V17.4044C24.4603 16.8401 25.4603 16.4694 26.5397 16.3823L26.5618 16.381H27C27.0026 16.381 27.0065 16.381 27.0091 16.381C30.303 16.381 32.9727 19.0507 32.9727 22.3446C32.9727 24.156 32.1652 25.7776 30.8908 26.8713L30.883 26.8791ZM12.4473 25.5058C12.8648 25.7009 13.3537 25.814 13.8687 25.814C15.2471 25.814 16.4356 25.0013 16.9805 23.8283L16.9896 23.8075H19.6866C19.0247 26.4538 16.6684 28.3823 13.8609 28.3823C10.5488 28.3823 7.86476 25.6983 7.86476 22.3862C7.86476 19.0741 10.5501 16.3901 13.8609 16.3901C16.6684 16.3901 19.0247 18.3186 19.6775 20.9233L19.6866 20.9649H16.9896C16.4356 19.7711 15.2471 18.9584 13.87 18.9584C11.9766 18.9584 10.4408 20.4941 10.4408 22.3875C10.4408 23.7659 11.2536 24.9545 12.4265 25.4993L12.4473 25.5085V25.5058ZM32.1001 6L8.89987 7C6.74902 7.0091 5.0091 8.75032 5 10.8986V31.1001C5.0091 33.251 6.75032 34.9909 8.89857 35L31.1001 33C33.251 32.9909 34.9909 31.2497 35 29.1014L36 9.89987C35.9909 7.74902 34.2484 6.0091 32.1001 6Z" fill="black"/>
</svg>
