<svg width="40" height="40" viewBox="0 0 40 40" fill="none" xmlns="http://www.w3.org/2000/svg">
<rect width="40" height="40" rx="10" fill="#5865F2"/>
<path d="M26.9309 13.6406C25.6562 13.0558 24.2892 12.6248 22.86 12.378C22.8339 12.3732 22.8079 12.3851 22.7945 12.4089C22.6187 12.7216 22.424 13.1295 22.2876 13.4501C20.7504 13.22 19.221 13.22 17.7153 13.4501C17.5789 13.1224 17.3771 12.7216 17.2005 12.4089C17.1871 12.3859 17.1611 12.374 17.1351 12.378C15.7066 12.624 14.3397 13.0549 13.0641 13.6406C13.0531 13.6454 13.0436 13.6533 13.0373 13.6637C10.4445 17.5373 9.73421 21.3157 10.0826 25.0473C10.0842 25.0655 10.0945 25.083 10.1087 25.0941C11.8193 26.3504 13.4764 27.1131 15.1027 27.6186C15.1287 27.6265 15.1563 27.6171 15.1729 27.5956C15.5576 27.0703 15.9005 26.5163 16.1945 25.9338C16.2119 25.8997 16.1953 25.8592 16.1598 25.8457C15.6159 25.6394 15.098 25.3878 14.5997 25.1021C14.5603 25.0791 14.5571 25.0227 14.5934 24.9957C14.6983 24.9172 14.8032 24.8354 14.9033 24.7529C14.9214 24.7378 14.9466 24.7346 14.9679 24.7441C18.241 26.2385 21.7846 26.2385 25.0191 24.7441C25.0404 24.7338 25.0656 24.737 25.0845 24.7521C25.1847 24.8346 25.2895 24.9171 25.3951 24.9957C25.4314 25.0227 25.429 25.079 25.3896 25.1021C24.8914 25.3933 24.3735 25.6393 23.8287 25.8449C23.7933 25.8583 23.7775 25.8996 23.7949 25.9337C24.0952 26.5154 24.4382 27.0694 24.8157 27.5948C24.8315 27.617 24.8599 27.6265 24.8859 27.6186C26.5201 27.1131 28.1772 26.3504 29.8878 25.0941C29.9028 25.083 29.9123 25.0663 29.9139 25.0481C30.3309 20.734 29.2154 16.9865 26.9568 13.6644C26.9514 13.6533 26.9419 13.6454 26.9309 13.6406ZM16.6834 22.7751C15.698 22.7751 14.886 21.8704 14.886 20.7594C14.886 19.6483 15.6822 18.7436 16.6834 18.7436C17.6924 18.7436 18.4966 19.6562 18.4808 20.7594C18.4808 21.8704 17.6845 22.7751 16.6834 22.7751ZM23.329 22.7751C22.3436 22.7751 21.5316 21.8704 21.5316 20.7594C21.5316 19.6483 22.3278 18.7436 23.329 18.7436C24.338 18.7436 25.1421 19.6562 25.1264 20.7594C25.1264 21.8704 24.3381 22.7751 23.329 22.7751Z" fill="white"/>
</svg>
