<svg width="40" height="40" viewBox="0 0 40 40" fill="none" xmlns="http://www.w3.org/2000/svg">
<rect width="40" height="40" rx="10" fill="#DB3472"/>
<path fill-rule="evenodd" clip-rule="evenodd" d="M22.2777 19.4832C22.0779 19.0221 21.8699 18.5621 21.6484 18.1068C23.541 17.2871 25.0621 16.1738 26.1953 14.7623C27.301 16.0684 27.9947 17.7271 28.0973 19.5436C25.9873 19.1979 24.0467 19.1785 22.2777 19.4832ZM24.5061 26.7529C24.1469 24.8252 23.6207 22.9408 22.9328 21.1021C24.4697 20.8848 26.1613 20.941 28.0117 21.2627C27.6543 23.5461 26.3512 25.5178 24.5061 26.7529ZM15.0121 26.4014C16.6258 23.8701 18.6854 22.223 21.2377 21.4625C21.9977 23.4453 22.5566 25.4855 22.9123 27.575C20.2533 28.6027 17.2662 28.1609 15.0121 26.4014ZM11.8855 19.792C15.0385 19.7873 17.759 19.4252 20.0377 18.708C20.2287 19.0971 20.4115 19.4879 20.5867 19.8816C17.8182 20.7465 15.5359 22.5207 13.7559 25.1914C12.4744 23.6533 11.8369 21.7883 11.8855 19.792ZM16.3328 12.7613C17.4238 14.1893 18.39 15.6611 19.2309 17.1711C17.2387 17.7576 14.8627 18.0588 12.1141 18.0775C12.6818 15.7543 14.2463 13.8225 16.3328 12.7613ZM24.949 13.5764C23.9623 14.8496 22.5994 15.8563 20.8627 16.5916C20.0307 15.067 19.0797 13.5799 18.0051 12.1361C20.4379 11.5162 22.9533 12.0354 24.949 13.5764ZM19.9973 10.168C14.5668 10.168 10.1641 14.5707 10.1641 20.0012C10.1641 25.4316 14.5668 29.8344 19.9973 29.8344C25.4277 29.8344 29.8305 25.4316 29.8305 20.0012C29.8305 14.5707 25.4277 10.168 19.9973 10.168Z" fill="white"/>
</svg>
