<svg width="40" height="40" viewBox="0 0 40 40" fill="none" xmlns="http://www.w3.org/2000/svg">
<rect width="40" height="40" rx="10" fill="#3D6AD6"/>
<path d="M17.0157 21.2916C16.9372 21.2916 15.2905 21.2921 14.531 21.2914C14.14 21.2911 14.0005 21.1506 14.0005 20.7571C14 19.7464 13.9997 18.7356 14.0005 17.7249C14.0007 17.3364 14.1482 17.1881 14.5342 17.1879C15.2937 17.1874 16.9315 17.1876 17.0157 17.1876C17.0157 17.1184 17.0155 15.6592 17.0157 14.9872C17.0162 13.9937 17.1935 13.0427 17.6982 12.1719C18.215 11.2807 18.967 10.6702 19.9307 10.3172C20.548 10.0909 21.1887 10.0007 21.8437 10.0002C22.6632 9.99965 23.4827 10.0004 24.3025 10.0019C24.6547 10.0024 24.811 10.1582 24.8117 10.5129C24.8132 11.4637 24.8132 12.4144 24.8117 13.3649C24.8112 13.7234 24.6615 13.8674 24.3012 13.8714C23.6295 13.8787 22.9572 13.8742 22.2862 13.9012C21.6085 13.9012 21.252 14.2322 21.252 14.9337C21.2357 15.6757 21.2452 16.4184 21.2452 17.1874C21.3087 17.1874 23.2375 17.1871 24.139 17.1874C24.5485 17.1874 24.6885 17.3281 24.6885 17.7399C24.6885 18.7451 24.6882 19.7506 24.6875 20.7559C24.6872 21.1616 24.5557 21.2911 24.1437 21.2914C23.2422 21.2919 21.321 21.2916 21.237 21.2916V29.4279C21.237 29.8616 21.1005 29.9999 20.6725 29.9999C19.629 29.9999 18.5852 30.0001 17.5417 29.9999C17.1635 29.9999 17.016 29.8529 17.016 29.4746C17.0157 26.8249 17.0157 21.3846 17.0157 21.2916Z" fill="white"/>
</svg>
