<svg width="40" height="40" viewBox="0 0 40 40" fill="none" xmlns="http://www.w3.org/2000/svg">
<rect width="40" height="40" rx="10" fill="#010101"/>
<g clip-path="url(#clip0_1_75)">
<path d="M20 9.45898C13.9225 9.45898 9 14.299 9 20.2683C9 25.0451 12.1515 29.0958 16.5213 30.524C17.0712 30.6257 17.2729 30.2912 17.2729 30.0042C17.2729 29.7476 17.2638 29.0674 17.2592 28.1663C14.1993 28.8181 13.554 26.7162 13.554 26.7162C13.0535 25.4686 12.3303 25.1349 12.3303 25.1349C11.3338 24.4648 12.4073 24.4786 12.4073 24.4786C13.5118 24.5537 14.0921 25.5923 14.0921 25.5923C15.0729 27.2451 16.667 26.7675 17.2958 26.4916C17.3948 25.7922 17.6781 25.3164 17.9925 25.046C15.5496 24.7756 12.982 23.8461 12.982 19.7046C12.982 18.5248 13.4083 17.5605 14.1141 16.8042C13.9903 16.5311 13.6191 15.432 14.2103 13.9433C14.2103 13.9433 15.1316 13.6537 17.2353 15.0516C18.1153 14.8114 19.0503 14.6922 19.9853 14.6867C20.9203 14.6922 21.8553 14.8114 22.7353 15.0516C24.8253 13.6537 25.7466 13.9433 25.7466 13.9433C26.3378 15.432 25.9666 16.5311 25.8566 16.8042C26.5578 17.5605 26.9841 18.5248 26.9841 19.7046C26.9841 23.8571 24.4128 24.771 21.9653 25.0368C22.3503 25.3613 22.7078 26.0241 22.7078 27.037C22.7078 28.4835 22.6941 29.6458 22.6941 29.9969C22.6941 30.2802 22.8866 30.6184 23.4503 30.5102C27.8512 29.0912 31 25.0377 31 20.2683C31 14.299 26.0748 9.45898 20 9.45898Z" fill="white"/>
</g>
<defs>
<clipPath id="clip0_1_75">
<rect width="22" height="22" fill="white" transform="translate(9 9)"/>
</clipPath>
</defs>
</svg>
