<svg width="40" height="40" viewBox="0 0 40 40" fill="none" xmlns="http://www.w3.org/2000/svg">
<rect width="40" height="40" rx="10" fill="#0CAA41"/>
<path d="M24.8018 27.859H12C12 29.5949 13.4307 31 15.1983 31H24.7974C26.5649 31 27.9956 29.5949 27.9956 27.859V14.9512C27.9956 14.8867 27.9431 14.8352 27.8775 14.8352H24.9111C24.8455 14.8352 24.793 14.8867 24.793 14.9512V27.859H24.8018ZM24.8018 9C26.5693 9 28 10.4051 28 12.141H15.2026V25.0488C15.2026 25.1133 15.1501 25.1648 15.0845 25.1648H12.1181C12.0525 25.1648 12 25.1133 12 25.0488V12.141C12 10.4051 13.4307 9 15.1983 9H24.8018Z" fill="white"/>
</svg>
