<svg width="40" height="40" viewBox="0 0 40 40" fill="none" xmlns="http://www.w3.org/2000/svg">
<rect width="40" height="40" rx="10" fill="#010101"/>
<g clip-path="url(#clip0_15597_495)">
<path d="M30.7347 20.206C30.7347 19.3047 30.6615 18.6469 30.5032 17.9648H20.2109V22.033H26.2523C26.1305 23.044 25.4728 24.5665 24.0111 25.5896L23.9907 25.7258L27.2449 28.2468L27.4703 28.2693C29.541 26.357 30.7347 23.5434 30.7347 20.206Z" fill="#4285F4"/>
<path d="M20.2148 30.925C23.1746 30.925 25.6593 29.9505 27.4742 28.2697L24.015 25.59C23.0893 26.2355 21.8469 26.6862 20.2148 26.6862C17.3159 26.6862 14.8555 24.774 13.9785 22.1309L13.8499 22.1418L10.4661 24.7605L10.4219 24.8835C12.2245 28.4645 15.9273 30.925 20.2148 30.925Z" fill="#34A853"/>
<path d="M13.9759 22.1306C13.7445 21.4485 13.6105 20.7176 13.6105 19.9625C13.6105 19.2072 13.7445 18.4765 13.9637 17.7944L13.9576 17.6491L10.5314 14.9883L10.4193 15.0416C9.67631 16.5276 9.25 18.1963 9.25 19.9625C9.25 21.7286 9.67631 23.3972 10.4193 24.8832L13.9759 22.1306Z" fill="#FBBC05"/>
<path d="M20.2148 13.2387C22.2732 13.2387 23.6618 14.1278 24.4535 14.8709L27.5473 11.8502C25.6472 10.084 23.1746 9 20.2148 9C15.9273 9 12.2245 11.4604 10.4219 15.0414L13.9663 17.7941C14.8555 15.151 17.3159 13.2387 20.2148 13.2387Z" fill="#EB4335"/>
</g>
<defs>
<clipPath id="clip0_15597_495">
<rect width="22" height="22" fill="white" transform="translate(9 9)"/>
</clipPath>
</defs>
</svg>
