<svg width="40" height="40" viewBox="0 0 40 40" fill="none" xmlns="http://www.w3.org/2000/svg">
<rect width="40" height="40" rx="10" fill="url(#paint0_linear_15588_264)"/>
<g clip-path="url(#clip0_15588_264)">
<path d="M30.9789 15.4681C30.9274 14.2991 30.7383 13.4955 30.4675 12.7991C30.1882 12.0599 29.7584 11.3982 29.1953 10.848C28.6452 10.2893 27.9791 9.85518 27.2484 9.58019C26.5481 9.3094 25.7486 9.12037 24.5797 9.06883C23.402 9.01293 23.0281 9 20.0412 9C17.0543 9 16.6804 9.01293 15.5071 9.06447C14.3382 9.116 13.5345 9.3052 12.8383 9.57583C12.099 9.85518 11.4372 10.2849 10.8871 10.848C10.3284 11.3982 9.89441 12.0643 9.61925 12.7949C9.34846 13.4955 9.15943 14.2948 9.10789 15.4637C9.05199 16.6414 9.03906 17.0152 9.03906 20.0021C9.03906 22.9891 9.05199 23.3629 9.10353 24.5362C9.15507 25.7052 9.34427 26.5088 9.61506 27.2052C9.89441 27.9444 10.3284 28.6061 10.8871 29.1563C11.4372 29.715 12.1034 30.1491 12.834 30.4241C13.5345 30.6949 14.3338 30.8839 15.5029 30.9355C16.6761 30.9872 17.0501 30.9999 20.037 30.9999C23.0239 30.9999 23.3978 30.9872 24.5711 30.9355C25.74 30.8839 26.5437 30.6949 27.2399 30.4241C28.7184 29.8525 29.8873 28.6835 30.459 27.2052C30.7296 26.5046 30.9188 25.7052 30.9703 24.5362C31.0219 23.3629 31.0348 22.9891 31.0348 20.0021C31.0348 17.0152 31.0304 16.6414 30.9789 15.4681ZM28.9977 24.4503C28.9504 25.5247 28.7699 26.1049 28.6195 26.4917C28.2498 27.4501 27.4892 28.2108 26.5308 28.5805C26.144 28.7309 25.5596 28.9113 24.4893 28.9585C23.329 29.0102 22.9809 29.023 20.0456 29.023C17.1102 29.023 16.7578 29.0102 15.6016 28.9585C14.5272 28.9113 13.947 28.7309 13.5602 28.5805C13.0833 28.4042 12.6491 28.1248 12.2968 27.7595C11.9315 27.4028 11.6521 26.973 11.4758 26.4961C11.3254 26.1093 11.1449 25.5247 11.0978 24.4546C11.0461 23.2943 11.0333 22.9461 11.0333 20.0107C11.0333 17.0753 11.0461 16.723 11.0978 15.5669C11.1449 14.4925 11.3254 13.9123 11.4758 13.5255C11.6521 13.0484 11.9315 12.6144 12.3011 12.2619C12.6577 11.8966 13.0875 11.6172 13.5646 11.4411C13.9514 11.2907 14.5359 11.1102 15.606 11.0629C16.7664 11.0114 17.1146 10.9984 20.0498 10.9984C22.9895 10.9984 23.3375 11.0114 24.4937 11.0629C25.5681 11.1102 26.1483 11.2907 26.5351 11.4411C27.0121 11.6172 27.4462 11.8966 27.7986 12.2619C28.1639 12.6186 28.4432 13.0484 28.6195 13.5255C28.7699 13.9123 28.9504 14.4967 28.9977 15.5669C29.0493 16.7273 29.0622 17.0753 29.0622 20.0107C29.0622 22.9461 29.0493 23.2899 28.9977 24.4503Z" fill="white"/>
<path d="M20.0421 14.3516C16.9221 14.3516 14.3906 16.8828 14.3906 20.0031C14.3906 23.1233 16.9221 25.6546 20.0421 25.6546C23.1623 25.6546 25.6936 23.1233 25.6936 20.0031C25.6936 16.8828 23.1623 14.3516 20.0421 14.3516ZM20.0421 23.669C18.018 23.669 16.3761 22.0273 16.3761 20.0031C16.3761 17.9788 18.018 16.3371 20.0421 16.3371C22.0664 16.3371 23.7081 17.9788 23.7081 20.0031C23.7081 22.0273 22.0664 23.669 20.0421 23.669Z" fill="white"/>
<path d="M27.2326 14.128C27.2326 14.8566 26.6419 15.4473 25.9131 15.4473C25.1845 15.4473 24.5938 14.8566 24.5938 14.128C24.5938 13.3992 25.1845 12.8086 25.9131 12.8086C26.6419 12.8086 27.2326 13.3992 27.2326 14.128Z" fill="white"/>
</g>
<defs>
<linearGradient id="paint0_linear_15588_264" x1="2.68567" y1="37.394" x2="39.7484" y2="5.31035" gradientUnits="userSpaceOnUse">
<stop stop-color="#FFDD55"/>
<stop offset="0.5" stop-color="#FF543E"/>
<stop offset="1" stop-color="#C837AB"/>
</linearGradient>
<clipPath id="clip0_15588_264">
<rect width="22" height="22" fill="white" transform="translate(9 9)"/>
</clipPath>
</defs>
</svg>
