<svg width="40" height="40" viewBox="0 0 40 40" fill="none" xmlns="http://www.w3.org/2000/svg">
<rect width="40" height="40" rx="10" fill="#0077B5"/>
<path d="M15 12.5C15 12.9945 14.8534 13.4778 14.5787 13.8889C14.304 14.3 13.9135 14.6205 13.4567 14.8097C12.9999 14.9989 12.4972 15.0484 12.0123 14.952C11.5273 14.8555 11.0819 14.6174 10.7322 14.2678C10.3826 13.9181 10.1445 13.4727 10.048 12.9877C9.95157 12.5028 10.0011 12.0001 10.1903 11.5433C10.3795 11.0865 10.7 10.696 11.1111 10.4213C11.5222 10.1466 12.0055 10 12.5 10C13.163 10 13.7989 10.2634 14.2678 10.7322C14.7366 11.2011 15 11.837 15 12.5Z" fill="white"/>
<path d="M15 16.7065V29.2916C15.0004 29.3845 14.9843 29.4765 14.9524 29.5624C14.9205 29.6483 14.8735 29.7265 14.8142 29.7923C14.7548 29.8581 14.6843 29.9104 14.6066 29.946C14.5289 29.9817 14.4456 30 14.3614 30H11.6403C11.5561 30.0002 11.4728 29.9821 11.395 29.9467C11.3172 29.9113 11.2465 29.8593 11.187 29.7936C11.1275 29.728 11.0804 29.65 11.0483 29.5642C11.0162 29.4784 10.9998 29.3864 11 29.2935V16.7065C11 16.5191 11.0675 16.3394 11.1875 16.2069C11.3076 16.0744 11.4705 16 11.6403 16H14.3614C14.531 16.0005 14.6934 16.0752 14.8131 16.2076C14.9328 16.34 15 16.5194 15 16.7065Z" fill="white"/>
<path d="M30 23.3574V29.3601C30.0003 29.4442 29.9833 29.5275 29.95 29.6052C29.9168 29.683 29.8679 29.7536 29.8063 29.8131C29.7446 29.8726 29.6714 29.9197 29.5907 29.9518C29.5101 29.9839 29.4238 30.0002 29.3366 30H26.0388C25.9516 30.0002 25.8652 29.9839 25.7846 29.9518C25.704 29.9197 25.6308 29.8726 25.5691 29.8131C25.5074 29.7536 25.4586 29.683 25.4253 29.6052C25.3921 29.5275 25.3751 29.4442 25.3754 29.3601V23.5426C25.3754 22.6744 25.6392 19.7404 23.0223 19.7404C20.9952 19.7404 20.582 21.7482 20.5005 22.6501V29.3601C20.5005 29.5282 20.4319 29.6895 20.3096 29.8093C20.1873 29.929 20.021 29.9975 19.8468 30H16.6615C16.5745 30 16.4883 29.9834 16.4079 29.9512C16.3275 29.9191 16.2545 29.8719 16.1931 29.8125C16.1316 29.753 16.0829 29.6824 16.0498 29.6048C16.0167 29.5272 15.9997 29.444 16 29.3601V16.8476C15.9997 16.7637 16.0167 16.6805 16.0498 16.6029C16.0829 16.5253 16.1316 16.4547 16.1931 16.3952C16.2545 16.3358 16.3275 16.2886 16.4079 16.2564C16.4883 16.2243 16.5745 16.2077 16.6615 16.2077H19.8468C20.0227 16.2077 20.1915 16.2751 20.3159 16.3951C20.4403 16.5151 20.5102 16.6779 20.5102 16.8476V17.9292C21.2629 16.8401 22.3783 16 24.7585 16C30.031 16 30 20.749 30 23.3574Z" fill="white"/>
</svg>
