<svg width="40" height="40" viewBox="0 0 40 40" fill="none" xmlns="http://www.w3.org/2000/svg">
<rect width="40" height="40" rx="10" fill="#2196F3"/>
<g clip-path="url(#clip0_1_142)">
<path d="M19.9989 9.00214C14.0546 8.88493 9.13573 13.5988 9 19.5428C9.01551 22.5685 10.3553 25.4356 12.6663 27.3886V30.5417C12.6663 30.7948 12.8715 31 13.1246 31C13.2105 31 13.2947 30.9758 13.3675 30.9303L15.922 29.3346C17.2235 29.8324 18.6055 30.0862 19.9989 30.0834C25.9433 30.2006 30.8621 25.4867 30.9979 19.5428C30.8621 13.5988 25.9433 8.88493 19.9989 9.00214Z" fill="white"/>
<path d="M27.2448 16.5182C27.1085 16.3355 26.8585 16.2808 26.6582 16.3899L21.892 18.9884L18.9269 16.4458C18.7451 16.2899 18.4739 16.3003 18.3046 16.4696L12.8051 21.9691C12.6267 22.1486 12.6276 22.4388 12.8071 22.6172C12.9507 22.7599 13.1708 22.7915 13.3487 22.695L18.1149 20.0965L21.0827 22.64C21.2646 22.7959 21.5357 22.7856 21.7051 22.6162L27.2045 17.1167C27.3648 16.955 27.382 16.7001 27.2448 16.5182Z" fill="#2196F3"/>
</g>
<defs>
<clipPath id="clip0_1_142">
<rect width="22" height="22" fill="white" transform="translate(9 9)"/>
</clipPath>
</defs>
</svg>
