<svg width="40" height="40" viewBox="0 0 40 40" fill="none" xmlns="http://www.w3.org/2000/svg">
<rect width="40" height="40" rx="10" fill="#2D8CFF"/>
<g clip-path="url(#clip0_15597_509)">
<path fill-rule="evenodd" clip-rule="evenodd" d="M7 24.5277V15.283C7 15.1267 7.12304 15 7.27485 15H9.4337C9.5168 15 9.5967 15.0395 9.64783 15.107L13.9623 20.6607V15.283C13.9623 15.1267 14.0854 15 14.2372 15H16.2522C16.404 15 16.5271 15.1267 16.5271 15.283V24.5277C16.5271 24.6841 16.404 24.8108 16.2522 24.8108H14.095C14.0119 24.8108 13.932 24.7713 13.8809 24.7038L9.56633 19.1501V24.5277C9.56633 24.6841 9.44329 24.8108 9.29148 24.8108H7.27485C7.12304 24.8108 7 24.6841 7 24.5277Z" fill="white"/>
<path fill-rule="evenodd" clip-rule="evenodd" d="M25.4476 17.6406H27.2868C27.5345 17.6406 27.7502 17.8101 27.8158 18.0553L29.0782 22.7352L30.3406 18.0553C30.4061 17.8101 30.6234 17.6406 30.8695 17.6406H32.7088C32.835 17.6406 32.9372 17.7459 32.9372 17.8759C32.9372 17.899 32.934 17.922 32.9277 17.9451L30.9893 24.542C30.943 24.7017 30.8008 24.8103 30.6394 24.8103H27.5186C27.3571 24.8103 27.2149 24.7017 27.1686 24.542L25.2286 17.9451C25.1919 17.82 25.2606 17.6883 25.3821 17.6505C25.4028 17.6439 25.4252 17.6406 25.4476 17.6406Z" fill="white"/>
<path fill-rule="evenodd" clip-rule="evenodd" d="M19.4184 21.1828C19.4184 21.4148 19.4584 21.6304 19.5383 21.8311C19.6182 22.0302 19.7285 22.2047 19.8675 22.3544C20.0065 22.5025 20.1711 22.6193 20.3628 22.7033C20.5546 22.7872 20.7623 22.8283 20.986 22.8283C21.2002 22.8283 21.4031 22.7872 21.5965 22.7033C21.7882 22.6193 21.9544 22.5041 22.0918 22.3544C22.2309 22.2063 22.3427 22.0335 22.4274 21.8393C22.5121 21.6435 22.5553 21.4345 22.5553 21.2124C22.5553 20.9902 22.5121 20.778 22.4274 20.5789C22.3427 20.3798 22.2309 20.2053 22.0918 20.0556C21.9528 19.9075 21.7882 19.7906 21.5965 19.7067C21.4047 19.6228 21.2018 19.5817 20.986 19.5817C20.7623 19.5817 20.5546 19.6228 20.3628 19.7067C20.1711 19.7906 20.0049 19.9058 19.8675 20.0556C19.7285 20.2037 19.6198 20.3732 19.5383 20.5641C19.4584 20.7533 19.4184 20.959 19.4184 21.1828ZM22.7614 17.6416H24.639C24.7908 17.6416 24.9139 17.7683 24.9139 17.9246V24.5282C24.9139 24.6845 24.7908 24.8112 24.639 24.8112H22.7646C22.6128 24.8112 22.4913 24.6861 22.4897 24.5298L22.4865 23.9621C21.9688 24.6401 21.2545 25.0005 20.3708 25.0005C19.8707 25.0005 19.4104 24.905 18.9902 24.7141C18.5699 24.5232 18.204 24.2567 17.8908 23.9128C17.5776 23.5688 17.3347 23.1657 17.1605 22.7C16.9863 22.2359 16.8984 21.7291 16.8984 21.1811C16.8984 20.671 16.9831 20.1856 17.1525 19.7248C17.3219 19.2657 17.5584 18.8626 17.8636 18.5203C18.1672 18.1764 18.53 17.9048 18.9486 17.7057C19.3689 17.5066 19.8339 17.4062 20.3421 17.4062C21.2002 17.4062 21.9225 17.7749 22.4849 18.4907V17.9246C22.4865 17.7683 22.6096 17.6416 22.7614 17.6416Z" fill="white"/>
</g>
<defs>
<clipPath id="clip0_15597_509">
<rect width="26" height="10" fill="white" transform="translate(7 15)"/>
</clipPath>
</defs>
</svg>
