<svg width="40" height="40" viewBox="0 0 40 40" fill="none" xmlns="http://www.w3.org/2000/svg">
<rect width="40" height="40" rx="10" fill="#B5374B"/>
<path d="M19.012 12.9029C17.7916 11.6436 16.2874 11 14.4142 11C12.541 11 10.98 11.6156 9.81641 12.9029C8.59601 14.1901 8 15.8132 8 17.8C8 19.8148 8.59601 21.4379 9.78803 22.6971C11.0084 23.9844 12.5126 24.6 14.3858 24.6C16.259 24.6 17.7632 23.9564 18.9836 22.6971C20.204 21.4379 20.8 19.7868 20.8 17.8C20.8 15.7852 20.204 14.1621 19.012 12.9029ZM17.1672 21.8856C16.4577 22.893 15.5211 23.3967 14.3858 23.3967C13.2506 23.3967 12.314 22.865 11.6044 21.8576C10.8949 20.8502 10.5543 19.479 10.5543 17.772C10.5543 16.065 10.9233 14.6938 11.5761 13.6864C12.2856 12.679 13.1938 12.1473 14.3574 12.1473C15.5211 12.1473 16.4293 12.679 17.1388 13.6864C17.8483 14.6938 18.1889 16.065 18.1889 17.772C18.2457 19.479 17.8767 20.8502 17.1672 21.8856Z" fill="white"/>
<path d="M28.5718 22.9422C27.1611 22.9422 26.0548 22.4645 25.225 21.5091C24.4228 20.5537 24.0079 19.2331 24.0079 17.6033C24.0079 15.9455 24.3675 14.5967 25.0867 13.5851C25.8058 12.5736 26.7462 12.0678 27.9633 12.0678C28.1845 12.0678 28.4058 12.0959 28.6271 12.1802C28.8484 12.2645 29.0696 12.3488 29.2633 12.4612V14.681C29.4569 14.7934 29.6505 14.9058 29.8718 14.9901C30.0654 15.0744 30.259 15.1025 30.4803 15.1025C30.9505 15.1025 31.2824 14.9901 31.559 14.7091C31.8356 14.4281 31.9739 14.0909 31.9739 13.6694C31.9739 12.8545 31.6143 12.1802 30.8952 11.7306C30.176 11.2529 29.2079 11 27.9633 11C26.0824 11 24.5611 11.6182 23.3718 12.9107C22.1824 14.1752 21.6016 15.8331 21.6016 17.8281C21.6016 19.8793 22.1824 21.481 23.2611 22.7455C24.3399 23.9818 25.8335 24.6 27.659 24.6C28.3782 24.6 29.0696 24.4876 29.8165 24.2909C30.5356 24.0661 31.2824 23.757 32.0016 23.2793V21.8463C31.4207 22.2397 30.8675 22.5207 30.3143 22.7174C29.7058 22.8579 29.1526 22.9422 28.5718 22.9422Z" fill="#2A2E2F"/>
<path d="M30.8524 27C31.4951 27 32.0016 27.5492 32.0016 28.2C32.0016 28.8712 31.4757 29.4 30.8524 29.4C30.2096 29.4 29.7032 28.8508 29.7032 28.2C29.6837 27.5492 30.2096 27 30.8524 27ZM25.8271 27C26.4699 27 26.9763 27.5492 26.9763 28.2C26.9763 28.8712 26.4504 29.4 25.8271 29.4C25.2038 29.4 24.6779 28.8508 24.6779 28.2C24.6584 27.5492 25.1843 27 25.8271 27ZM20.8018 27C21.4446 27 21.951 27.5492 21.951 28.2C21.951 28.8712 21.4251 29.4 20.8018 29.4C20.1591 29.4 19.6526 28.8508 19.6526 28.2C19.6526 27.5492 20.1591 27 20.8018 27ZM15.7766 27C16.4193 27 16.9257 27.5492 16.9257 28.2C16.9257 28.8712 16.3998 29.4 15.7766 29.4C15.1338 29.4 14.6274 28.8508 14.6274 28.2C14.6079 27.5492 15.1338 27 15.7766 27ZM10.7513 27C11.394 27 11.9005 27.5492 11.9005 28.2C11.9005 28.8712 11.3746 29.4 10.7513 29.4C10.1085 29.4 9.60209 28.8508 9.60209 28.2C9.58261 27.5492 10.1085 27 10.7513 27Z" fill="white"/>
</svg>
