<svg width="40" height="40" viewBox="0 0 40 40" fill="none" xmlns="http://www.w3.org/2000/svg">
<rect width="40" height="40" rx="10" fill="#2081E2"/>
<g clip-path="url(#clip0_15597_554)">
<path d="M20 36C28.8366 36 36 28.8366 36 20C36 11.1634 28.8366 4 20 4C11.1634 4 4 11.1634 4 20C4 28.8366 11.1634 36 20 36Z" fill="#2081E2"/>
<path d="M11.8901 20.5388L11.9592 20.4304L16.1211 13.919C16.1349 13.8974 16.1543 13.88 16.1773 13.8686C16.2002 13.8571 16.2258 13.852 16.2513 13.8539C16.2769 13.8558 16.3015 13.8645 16.3225 13.8792C16.3435 13.8938 16.3601 13.9139 16.3707 13.9372C17.0661 15.4956 17.6661 17.4336 17.3851 18.6403C17.2651 19.1366 16.9365 19.8089 16.5665 20.4304C16.5185 20.5209 16.4661 20.6096 16.4104 20.695C16.3973 20.7144 16.3797 20.7302 16.359 20.7411C16.3384 20.752 16.3153 20.7576 16.292 20.7574H12.0117C11.8965 20.7574 11.8293 20.6326 11.8901 20.5388Z" fill="white"/>
<path d="M30.4448 21.7479V22.7783C30.4448 22.8378 30.4087 22.8903 30.3562 22.9134C30.034 23.0516 28.9309 23.5578 28.4724 24.1956C27.3018 25.8244 26.4077 28.154 24.4087 28.154H16.0695C13.114 28.154 10.7188 25.7508 10.7188 22.785V22.69C10.7188 22.611 10.7828 22.547 10.8618 22.547H15.5107C15.6026 22.547 15.6701 22.6324 15.6618 22.723C15.6291 23.0303 15.6868 23.3405 15.8279 23.6154C15.963 23.8889 16.172 24.119 16.4311 24.28C16.6902 24.4409 16.9891 24.5262 17.2941 24.5262H19.5956V22.7294H17.3204C17.2937 22.729 17.2677 22.7214 17.245 22.7074C17.2224 22.6934 17.204 22.6735 17.1918 22.6498C17.1796 22.6261 17.1741 22.5995 17.1759 22.573C17.1777 22.5464 17.1867 22.5208 17.202 22.499C17.2269 22.4612 17.2547 22.4222 17.2842 22.3774C17.581 21.9501 17.8576 21.509 18.113 21.0558C18.3216 20.691 18.5239 20.3012 18.6864 19.9102C18.7194 19.8394 18.7456 19.7671 18.7719 19.6964C18.8164 19.5716 18.8624 19.4548 18.8954 19.338C18.928 19.2394 18.9546 19.1358 18.9808 19.0388C19.058 18.7066 19.0909 18.355 19.0909 17.9902C19.0909 17.8471 19.0845 17.6974 19.0711 17.5543C19.0647 17.3982 19.0448 17.242 19.025 17.0858C19.0097 16.9458 18.9884 16.8064 18.961 16.6682C18.9267 16.4581 18.8829 16.2497 18.8298 16.0436L18.8116 15.9649C18.7719 15.8218 18.7392 15.6855 18.6932 15.5425C18.5659 15.1046 18.42 14.6724 18.2557 14.2471C18.1981 14.0842 18.1325 13.9281 18.0669 13.7719C17.97 13.5367 17.8711 13.3233 17.7808 13.121C17.7348 13.0289 17.6954 12.945 17.656 12.8596C17.6121 12.7635 17.5666 12.6681 17.5194 12.5735C17.4864 12.5031 17.4487 12.4372 17.4224 12.3713L17.1412 11.8519C17.1323 11.8362 17.1284 11.8182 17.1297 11.8003C17.1311 11.7823 17.1377 11.7651 17.1488 11.7509C17.1598 11.7367 17.1749 11.7261 17.192 11.7204C17.209 11.7146 17.2274 11.7141 17.2448 11.7188L19.0039 12.1956H19.0087C19.0119 12.1956 19.0138 12.1972 19.0151 12.1972L19.2471 12.2612L19.5018 12.3335L19.5956 12.3598V11.3143C19.5956 10.8097 20 10.4004 20.4995 10.4004C20.7495 10.4004 20.9764 10.5022 21.1392 10.6682C21.3018 10.8346 21.4039 11.0612 21.4039 11.3146V12.8663L21.5911 12.9188C21.6064 12.9236 21.6209 12.9308 21.634 12.9402C21.68 12.9748 21.746 13.0257 21.8295 13.0881C21.8954 13.1406 21.9661 13.2049 22.0516 13.2705C22.2208 13.4071 22.4228 13.5828 22.6448 13.785C22.704 13.8362 22.7616 13.8887 22.8144 13.9412C23.133 14.2344 23.4374 14.5427 23.7264 14.865C23.8122 14.962 23.896 15.0606 23.9815 15.1642C24.0669 15.2695 24.1575 15.3729 24.2362 15.4766C24.3399 15.6148 24.4516 15.7578 24.5485 15.9073C24.5946 15.978 24.6471 16.0503 24.6916 16.121C24.8164 16.3098 24.9264 16.5057 25.0317 16.7012C25.0762 16.7918 25.1223 16.8903 25.1616 16.9873C25.2784 17.2487 25.3703 17.5153 25.4295 17.7812C25.4477 17.8388 25.4608 17.9012 25.4672 17.9572V17.9703C25.4871 18.0494 25.4938 18.1332 25.5002 18.2186C25.5275 18.4928 25.5119 18.7694 25.4541 19.0388C25.4287 19.1552 25.3963 19.2699 25.3572 19.3825C25.3178 19.4945 25.2784 19.611 25.2272 19.721C25.1282 19.954 25.01 20.1783 24.874 20.3918C24.8295 20.4705 24.777 20.5543 24.7242 20.6334C24.6666 20.7172 24.6077 20.7962 24.5549 20.8734C24.4826 20.9719 24.4055 21.0756 24.3264 21.1678C24.256 21.2647 24.1834 21.3617 24.1047 21.4471C23.999 21.5733 23.8905 21.6971 23.7792 21.8183C23.7133 21.8958 23.6426 21.9748 23.5703 22.0455C23.4999 22.1242 23.4272 22.195 23.3616 22.2609C23.2516 22.371 23.1594 22.4564 23.0823 22.5271L22.9015 22.6932C22.8746 22.7166 22.8401 22.7294 22.8045 22.7294H21.4036V24.5262H23.1658C23.5589 24.526 23.9389 24.3854 24.2375 24.1297C24.3412 24.0394 24.793 23.6481 25.3274 23.058C25.3453 23.038 25.3687 23.0238 25.3946 23.017L30.2621 21.6097C30.2835 21.6037 30.3059 21.6027 30.3277 21.6069C30.3494 21.611 30.37 21.6201 30.3876 21.6335C30.4053 21.6469 30.4196 21.6642 30.4295 21.684C30.4393 21.7039 30.4448 21.7257 30.4448 21.7479Z" fill="white"/>
</g>
<defs>
<clipPath id="clip0_15597_554">
<rect width="32" height="32" fill="white" transform="translate(4 4)"/>
</clipPath>
</defs>
</svg>
