<svg width="40" height="40" viewBox="0 0 40 40" fill="none" xmlns="http://www.w3.org/2000/svg">
<rect width="40" height="40" rx="10" fill="#FF4500"/>
<g clip-path="url(#clip0_15596_243)">
<path d="M20 38C29.9411 38 38 29.9411 38 20C38 10.0589 29.9411 2 20 2C10.0589 2 2 10.0589 2 20C2 29.9411 10.0589 38 20 38Z" fill="#FF4500"/>
<path d="M31.9961 20C31.9961 18.5502 30.8208 17.375 29.3711 17.375C28.6635 17.375 28.0226 17.6563 27.5505 18.1116C25.7563 16.8168 23.2841 15.9805 20.5305 15.8844L21.7263 10.2586L25.633 11.0892C25.6805 12.0824 26.4941 12.875 27.4991 12.875C28.5346 12.875 29.3741 12.0356 29.3741 11C29.3741 9.96446 28.5346 9.125 27.4991 9.125C26.7625 9.125 26.1316 9.55363 25.8249 10.1715L21.4626 9.24425C21.3412 9.21788 21.2141 9.24172 21.1099 9.30964C21.0056 9.37742 20.9325 9.4838 20.9066 9.60538L19.5713 15.8828C16.7773 15.9604 14.2656 16.7977 12.4482 18.1069C11.9766 17.6546 11.3379 17.3751 10.6328 17.3751C9.18309 17.3751 8.00781 18.5504 8.00781 20.0001C8.00781 21.0667 8.64505 21.9829 9.55877 22.3936C9.51827 22.6545 9.49612 22.9192 9.49612 23.1876C9.49612 27.2262 14.1971 30.5001 19.9961 30.5001C25.795 30.5001 30.4961 27.2262 30.4961 23.1876C30.4961 22.9209 30.4743 22.658 30.4343 22.3988C31.354 21.9904 31.9961 21.0709 31.9961 20ZM13.9991 21.8752C13.9991 20.8412 14.8406 20 15.8749 20C16.9082 20 17.749 20.8412 17.749 21.8752C17.749 22.9088 16.9082 23.7498 15.8749 23.7498C14.8406 23.7498 13.9991 22.9088 13.9991 21.8752ZM24.4542 26.8296C23.1744 28.1075 20.7223 28.2069 20.0012 28.2069C19.28 28.2069 16.8276 28.1075 15.5495 26.8293C15.3598 26.6396 15.3598 26.3319 15.5496 26.1422C15.7392 25.9525 16.047 25.9525 16.2368 26.1422C17.0433 26.9489 18.7688 27.2351 20.0012 27.2351C21.2337 27.2351 22.9596 26.9488 23.7675 26.142C23.9576 25.9525 24.2652 25.9527 24.4547 26.1425C24.6442 26.3324 24.6441 26.6401 24.4542 26.8296ZM24.1241 23.7503C23.0902 23.7503 22.249 22.9091 22.249 21.8754C22.249 20.8413 23.0902 20 24.1241 20C25.1579 20 25.9991 20.8413 25.9991 21.8754C25.999 22.9091 25.1579 23.7503 24.1241 23.7503Z" fill="white"/>
</g>
<defs>
<clipPath id="clip0_15596_243">
<rect width="36" height="36" fill="white" transform="translate(2 2)"/>
</clipPath>
</defs>
</svg>
