<svg width="40" height="40" viewBox="0 0 40 40" fill="none" xmlns="http://www.w3.org/2000/svg">
<rect width="40" height="40" rx="10" fill="#F78422"/>
<g clip-path="url(#clip0_1_153)">
<path d="M20 35C28.2843 35 35 28.2843 35 20C35 11.7157 28.2843 5 20 5C11.7157 5 5 11.7157 5 20C5 28.2843 11.7157 35 20 35Z" fill="#F78422"/>
<path d="M15.5549 24.6019C15.7868 24.831 15.9709 25.1039 16.0966 25.4047C16.2223 25.7055 16.287 26.0282 16.287 26.3542C16.287 26.6802 16.2223 27.0029 16.0966 27.3037C15.9709 27.6045 15.7868 27.8774 15.5549 28.1065C15.3267 28.3459 15.053 28.5374 14.7498 28.6696C14.4466 28.8018 14.12 28.8722 13.7893 28.8765C13.4585 28.8808 13.1303 28.819 12.8237 28.6947C12.5172 28.5704 12.2386 28.3861 12.0043 28.1527C11.7699 27.9192 11.5846 27.6413 11.4591 27.3353C11.3336 27.0293 11.2705 26.7012 11.2735 26.3705C11.2766 26.0397 11.3456 25.7129 11.4767 25.4092C11.6077 25.1055 11.7981 24.831 12.0367 24.6019C12.2675 24.3706 12.5417 24.1871 12.8436 24.0619C13.1454 23.9367 13.469 23.8722 13.7958 23.8722C14.1226 23.8722 14.4461 23.9367 14.748 24.0619C15.0498 24.1871 15.324 24.3706 15.5549 24.6019ZM11.3054 16.4883V20.0678C13.6356 20.0705 15.8692 20.9987 17.5151 22.6481C19.161 24.2975 20.0844 26.5331 20.0821 28.8633H23.6787C23.6724 25.5835 22.3668 22.4398 20.0478 20.1204C17.7288 17.8011 14.5853 16.495 11.3054 16.4883ZM11.3054 10.1133V13.6928C15.3243 13.7023 19.1755 15.3042 22.0155 18.1477C24.8555 20.9912 26.4526 24.8445 26.4571 28.8633H30.0554C30.0482 23.8942 28.0716 19.1305 24.5587 15.616C21.0458 12.1015 16.2831 10.1227 11.314 10.1133H11.3054Z" fill="white"/>
</g>
<defs>
<clipPath id="clip0_1_153">
<rect width="30" height="30" fill="white" transform="translate(5 5)"/>
</clipPath>
</defs>
</svg>
