<svg width="40" height="40" viewBox="0 0 40 40" fill="none" xmlns="http://www.w3.org/2000/svg">
<rect width="40" height="40" rx="10" fill="#03A9F4"/>
<path d="M30.5302 22.3649C32.1508 15.0838 25.7713 8.4691 18.2794 9.7389C14.2124 7.21526 8.79688 10.0673 8.79688 14.9057C8.79688 16.0311 9.10739 17.0844 9.64723 17.9925C8.14139 25.2907 14.573 31.8099 22.0585 30.4536C27.35 33.2513 33.1969 27.6715 30.5302 22.3649ZM23.4087 26.7562C21.4431 27.5645 18.2085 27.569 16.2516 26.5445C13.4608 25.0566 12.965 21.7069 15.3724 21.7069C17.1868 21.7069 16.6125 23.8223 18.4446 24.6847C19.2857 25.0734 21.0936 25.1137 22.1445 24.405C23.1822 23.7103 23.0872 22.6178 22.523 22.0959C21.0284 20.716 16.7514 21.2643 14.7962 18.8487C13.9466 17.8009 13.7865 15.9521 14.8306 14.6115C16.6506 12.2695 21.9916 12.127 24.2879 13.8955C26.408 15.5363 25.8357 17.7141 24.1246 17.7141C22.0669 17.7141 23.1483 15.0217 19.8264 15.0217C17.4181 15.0217 16.4706 16.7341 18.1668 17.5677C20.4662 18.7098 26.3254 18.3285 26.3254 22.7914C26.3204 24.6481 25.1819 26.0327 23.4087 26.7562Z" fill="white"/>
</svg>
