<svg width="40" height="40" viewBox="0 0 40 40" fill="none" xmlns="http://www.w3.org/2000/svg">
<rect width="40" height="40" rx="10" fill="#5D0F58"/>
<g clip-path="url(#clip0_1_160)">
<path d="M17.0518 20.6445C15.7825 20.6445 14.75 21.6771 14.75 22.9463V28.6982C14.75 29.9674 15.7825 31 17.0518 31C18.321 31 19.3535 29.9675 19.3535 28.6982V22.9463C19.3535 21.6771 18.321 20.6445 17.0518 20.6445Z" fill="#FF4340"/>
<path d="M13.4645 20.6445H11.2362C10.0074 20.6445 9.00781 21.6442 9.00781 22.8729C9.00781 24.1016 10.0075 25.1013 11.2362 25.1013C12.4649 25.1013 13.4645 24.1016 13.4645 22.8729V20.6445Z" fill="#FF4340"/>
<path d="M9 17.0537C9 18.3229 10.0325 19.3555 11.3017 19.3555H17.0537C18.3229 19.3555 19.3555 18.3229 19.3555 17.0537C19.3555 15.7845 18.3229 14.752 17.0537 14.752H11.3017C10.0325 14.7519 9 15.7845 9 17.0537Z" fill="#36C6FF"/>
<path d="M17.1268 13.4626H19.3552V11.2342C19.3552 10.0055 18.3555 9.00586 17.1268 9.00586C15.8981 9.00586 14.8984 10.0055 14.8984 11.2342C14.8984 12.4629 15.8981 13.4626 17.1268 13.4626Z" fill="#36C6FF"/>
<path d="M22.9424 19.3555C24.2116 19.3555 25.2441 18.3229 25.2441 17.0537V11.3017C25.2442 10.0325 24.2116 9 22.9424 9C21.6732 9 20.6406 10.0325 20.6406 11.3017V17.0537C20.6406 18.3229 21.6732 19.3555 22.9424 19.3555Z" fill="#0DC46E"/>
<path d="M26.5391 19.3552H28.7674C29.9962 19.3552 30.9958 18.3555 30.9958 17.1268C30.9958 15.8981 29.9961 14.8984 28.7674 14.8984C27.5387 14.8984 26.5391 15.8981 26.5391 17.1268V19.3552Z" fill="#0DC46E"/>
<path d="M30.9961 22.9463C30.9961 21.6771 29.9636 20.6445 28.6943 20.6445H22.9424C21.6732 20.6445 20.6406 21.6771 20.6406 22.9463C20.6406 24.2155 21.6732 25.248 22.9424 25.248H28.6943C29.9636 25.2481 30.9961 24.2155 30.9961 22.9463Z" fill="#FDCB02"/>
<path d="M22.869 26.5371H20.6406V28.7655C20.6406 29.9942 21.6403 30.9939 22.869 30.9939C24.0977 30.9939 25.0973 29.9942 25.0973 28.7655C25.0973 27.5368 24.0977 26.5371 22.869 26.5371Z" fill="#FDCB02"/>
</g>
<defs>
<clipPath id="clip0_1_160">
<rect width="22" height="22" fill="white" transform="translate(9 9)"/>
</clipPath>
</defs>
</svg>
