<svg width="40" height="40" viewBox="0 0 40 40" fill="none" xmlns="http://www.w3.org/2000/svg">
<rect width="40" height="40" rx="10" fill="#FFEB3B"/>
<g clip-path="url(#clip0_15588_322)">
<path d="M27.7116 26.888C28.6109 26.7441 30.4882 26.404 30.5404 25.4975C30.5551 25.2426 30.3773 25.0162 30.1279 24.9759C27.3532 24.5102 25.606 21.3147 25.8755 20.6758C26.0699 20.2138 26.937 20.035 27.3193 19.8847C29.1489 19.1514 28.3606 17.8965 27.2799 17.8965C26.7931 17.8965 26.2156 18.4245 25.683 18.176C25.848 15.3665 26.1414 13.3874 24.154 11.4734C21.5745 8.99288 16.3404 9.28163 14.5547 13.3571C14.0239 14.5662 14.2274 16.7763 14.3127 18.176C13.9369 18.3438 13.3997 18.1632 13.0284 17.9854C12.0925 17.5399 10.492 19.0038 12.6792 19.8838C13.627 20.2624 14.5235 20.3705 14.023 21.4064C13.9689 21.5054 13.6646 22.2607 12.9505 23.1059C10.8917 25.5451 9.01619 24.5478 9.50936 25.7165V25.7184C9.82194 26.4618 11.4829 26.7597 12.2859 26.888C12.5069 27.3088 12.3464 28.275 13.099 28.275C13.5033 28.275 14.2733 27.9404 15.4796 28.1466C17.1058 28.4235 18.9529 31.8628 23.0403 28.9276L23.0412 28.9258C23.9221 28.2933 24.5409 27.8249 26.4145 28.2007C27.773 28.4684 27.3954 27.5141 27.7116 26.888Z" fill="white"/>
<path d="M19.9502 30.5363C19.9658 30.5391 19.92 30.5418 19.8723 30.5418C18.4203 30.5418 17.4624 29.8525 16.6924 29.2979C13.8792 27.2721 12.6132 30.3475 11.9349 27.2941C8.04641 26.6038 8.81 24.6861 9.79908 24.5221C10.9385 24.3296 11.8689 23.6796 12.6032 22.8106C13.0844 22.2414 13.7884 21.0552 13.7022 20.8517C13.6106 20.6317 12.7801 20.4181 12.5115 20.31C9.74591 19.1953 11.714 16.8551 13.2256 17.571C13.4905 17.6984 13.6885 17.7525 13.8306 17.7736C13.7462 16.3976 13.6014 14.392 14.1367 13.1728C16.3083 8.20998 23.6829 8.17973 25.8646 13.1737C26.4017 14.3966 26.2542 16.3976 26.1698 17.7543C26.6181 17.6425 27.1186 17.2318 27.9161 17.5618C29.1627 18.0156 29.4726 19.6986 27.1516 20.4273C26.9407 20.4961 26.3742 20.6785 26.3009 20.8536C26.1937 21.1102 27.6273 24.0912 30.2068 24.5239C30.6872 24.6036 31.0291 25.0336 31.0007 25.5249C30.9347 26.6891 29.2278 27.0878 28.0692 27.2941C27.8996 28.0613 27.774 28.7195 26.927 28.7195C25.4787 28.6342 25.0194 28.0705 23.3117 29.3006C22.3015 30.023 21.3078 30.6216 19.9502 30.5363ZM22.6865 28.6186C24.7609 27.1272 25.266 27.6818 26.9252 27.8019C27.1241 27.8019 26.982 27.46 27.4092 26.4727C27.7722 26.4003 29.8246 26.1116 30.0666 25.5405H30.0657L30.0528 25.4286C26.9655 24.9098 25.6207 21.7418 25.5648 21.6071C24.6491 19.7224 27.1754 19.738 27.8299 19.0551C28.0957 18.7764 27.9051 18.5326 27.5824 18.4152C27.0342 18.1879 26.8509 18.6591 25.9957 18.6985C25.5584 18.6792 25.4576 18.5601 25.2073 18.4592C25.4108 15.602 25.6913 13.5899 23.8369 11.8033C21.4957 9.55198 16.6347 9.74907 14.9764 13.5404C14.4768 14.6771 14.7005 16.9779 14.7922 18.4656C14.6152 18.4996 14.1193 19.0184 12.8314 18.3978C12.4785 18.2301 11.2437 18.8094 12.8516 19.4584C13.2842 19.6316 14.2632 19.8168 14.5474 20.4988C14.9837 21.5493 12.8617 24.9364 9.9485 25.4259L9.93291 25.5405C10.1914 26.1565 12.4941 26.4425 12.5857 26.4709C13.0111 27.4948 12.7361 26.9054 12.9744 27.7267C13.0716 28.0567 13.8847 27.4031 15.5594 27.6946C17.3093 27.9926 19.0226 31.2431 22.6865 28.6186Z" fill="#212121"/>
</g>
<defs>
<clipPath id="clip0_15588_322">
<rect width="22" height="22" fill="white" transform="translate(9 9)"/>
</clipPath>
</defs>
</svg>
