<svg width="40" height="40" viewBox="0 0 40 40" fill="none" xmlns="http://www.w3.org/2000/svg">
<rect width="40" height="40" rx="10" fill="#5558AF"/>
<g clip-path="url(#clip0_15597_611)">
<path d="M26.9279 17.6651C27.0916 17.8289 27.2848 17.9591 27.4981 18.0498C27.9432 18.2362 28.4446 18.2362 28.8906 18.0498C29.3206 17.8667 29.6632 17.5249 29.8455 17.0949C30.0319 16.6498 30.0319 16.1484 29.8455 15.7024C29.6624 15.2724 29.3206 14.9298 28.8906 14.7475C28.4455 14.5611 27.9441 14.5611 27.4981 14.7475C27.0681 14.9306 26.7255 15.2724 26.5432 15.7024C26.3568 16.1475 26.3568 16.6489 26.5432 17.0949C26.6339 17.3074 26.7649 17.5014 26.9279 17.6651ZM26.4038 19.3263V24.719H27.3024C27.6115 24.7173 27.9189 24.6887 28.2221 24.6316C28.5269 24.5779 28.8209 24.4754 29.093 24.3276C29.35 24.1882 29.5717 23.9917 29.7422 23.7548C29.9211 23.492 30.0109 23.1787 29.9983 22.8604V19.3263H26.4038ZM23.4912 17.0655C23.7297 17.0672 23.9666 17.0193 24.1866 16.9252C24.6166 16.7422 24.9584 16.4003 25.1407 15.9703C25.3271 15.5252 25.3271 15.0238 25.1398 14.5779C24.9567 14.1479 24.6149 13.8052 24.1849 13.623C23.9649 13.5289 23.7281 13.481 23.4887 13.4827C23.251 13.481 23.0159 13.5289 22.7975 13.623C22.6346 13.6927 22.5834 13.7834 22.3591 13.8926V16.6557C22.5842 16.7657 22.6346 16.8555 22.7975 16.9252C23.0167 17.0201 23.2527 17.0672 23.4912 17.0655ZM22.3591 26.145C22.5842 26.1937 22.6648 26.2315 22.8244 26.2534C22.9991 26.2786 23.1754 26.2912 23.3518 26.292C23.6239 26.2903 23.896 26.2618 24.1623 26.2047C24.4335 26.1501 24.6939 26.0484 24.9307 25.9048C25.1634 25.7621 25.359 25.5672 25.5035 25.3363C25.6631 25.0667 25.7412 24.7559 25.7294 24.4427V18.2026H22.3591V26.145ZM10 27.865L21.6847 29.8874V10.1133L10 12.1356V27.865Z" fill="white"/>
<path d="M18.5411 16.1797L13.1484 16.5081V17.7519L15.1708 17.6704V23.4376L16.5187 23.5165V17.6175L18.5411 17.5276V16.1797Z" fill="#5558AF"/>
</g>
<defs>
<clipPath id="clip0_15597_611">
<rect width="20" height="20" fill="white" transform="translate(10 10)"/>
</clipPath>
</defs>
</svg>
