<svg width="40" height="40" viewBox="0 0 40 40" fill="none" xmlns="http://www.w3.org/2000/svg">
<rect width="40" height="40" rx="10" fill="#010101"/>
<g clip-path="url(#clip0_15588_493)">
<path d="M20.1548 30H20.149C17.165 29.9798 14.871 28.996 13.3297 27.075C11.9576 25.3659 11.2503 22.9876 11.2266 20.0072V19.9928C11.2504 17.0117 11.9576 14.6341 13.3297 12.925C14.8703 11.004 17.165 10.0202 20.1483 10H20.1598C22.4473 10.0151 24.361 10.6036 25.8483 11.7473C27.2463 12.8227 28.2302 14.3554 28.7733 16.3037L27.0735 16.7776C26.1538 13.4781 23.8259 11.7913 20.1541 11.7646C17.7297 11.7819 15.8966 12.5439 14.7046 14.0291C13.5882 15.42 13.0113 17.4288 12.9904 19.9993C13.012 22.5706 13.5889 24.5794 14.7046 25.9695C15.8967 27.4546 17.7297 28.2166 20.1541 28.2339C22.3393 28.2181 23.7856 27.7089 24.9884 26.5305C26.3612 25.1858 26.336 23.5364 25.8966 22.5332C25.6381 21.9418 25.1684 21.4492 24.5353 21.0761C24.3762 22.2011 24.0182 23.1144 23.465 23.8023C22.7275 24.7205 21.6817 25.2226 20.3579 25.2939C19.356 25.3479 18.3909 25.111 17.6418 24.6262C16.7559 24.0529 16.2373 23.1756 16.1818 22.1557C16.1278 21.164 16.5211 20.2521 17.2889 19.588C18.0228 18.9535 19.0549 18.5811 20.2743 18.5127C21.1732 18.4623 22.0137 18.5019 22.7909 18.6315C22.6879 18.0128 22.479 17.5223 22.1678 17.168C21.74 16.6804 21.0781 16.4312 20.2016 16.4254H20.1771C19.4734 16.4254 18.5176 16.6184 17.9083 17.5245L16.444 16.5399C17.2593 15.3277 18.5839 14.6608 20.1764 14.6608H20.2124C22.8752 14.6773 24.4605 16.3058 24.6182 19.1501C24.7089 19.1883 24.7975 19.2279 24.8854 19.2689C26.1279 19.8531 27.0361 20.7376 27.5128 21.8266C28.177 23.3448 28.2382 25.819 26.2222 27.7924C24.6823 29.3006 22.8125 29.9812 20.1598 29.9993H20.1541L20.1548 30ZM20.9903 20.2571C20.7886 20.2571 20.584 20.2629 20.3751 20.2751C18.8446 20.3616 17.891 21.0624 17.945 22.0606C18.0019 23.1064 19.1557 23.5926 20.2642 23.5329C21.2848 23.478 22.613 23.0812 22.8355 20.4407C22.2722 20.3205 21.6529 20.2571 20.9902 20.2571H20.9903Z" fill="white"/>
</g>
<defs>
<clipPath id="clip0_15588_493">
<rect width="20" height="20" fill="white" transform="translate(10 10)"/>
</clipPath>
</defs>
</svg>
