<svg width="40" height="40" viewBox="0 0 40 40" fill="none" xmlns="http://www.w3.org/2000/svg">
<rect width="40" height="40" rx="10" fill="#010101"/>
<g clip-path="url(#clip0_1_58)">
<path d="M20.1549 30H20.1491C17.1651 29.9798 14.8711 28.996 13.3298 27.075C11.9577 25.3659 11.2504 22.9876 11.2267 20.0072V19.9928C11.2505 17.0117 11.9577 14.6341 13.3298 12.925C14.8704 11.004 17.1651 10.0202 20.1484 10H20.1599C22.4474 10.0151 24.3611 10.6036 25.8484 11.7473C27.2464 12.8227 28.2304 14.3554 28.7734 16.3037L27.0736 16.7776C26.1539 13.4781 23.8261 11.7913 20.1542 11.7646C17.7298 11.7819 15.8968 12.5439 14.7048 14.0291C13.5884 15.42 13.0114 17.4288 12.9906 19.9993C13.0122 22.5706 13.5891 24.5794 14.7048 25.9695C15.8968 27.4546 17.7298 28.2166 20.1542 28.2339C22.3394 28.2181 23.7857 27.7089 24.9886 26.5305C26.3613 25.1858 26.3361 23.5364 25.8968 22.5332C25.6382 21.9418 25.1685 21.4492 24.5354 21.0761C24.3763 22.2011 24.0183 23.1144 23.4652 23.8023C22.7276 24.7205 21.6818 25.2226 20.358 25.2939C19.3561 25.3479 18.391 25.111 17.6419 24.6262C16.756 24.0529 16.2374 23.1756 16.182 22.1557C16.1279 21.164 16.5212 20.2521 17.289 19.588C18.0229 18.9535 19.055 18.5811 20.2744 18.5127C21.1733 18.4623 22.0138 18.5019 22.791 18.6315C22.688 18.0128 22.4791 17.5223 22.168 17.168C21.7401 16.6804 21.0782 16.4312 20.2017 16.4254H20.1772C19.4735 16.4254 18.5177 16.6184 17.9084 17.5245L16.4441 16.5399C17.2595 15.3277 18.584 14.6608 20.1765 14.6608H20.2125C22.8753 14.6773 24.4606 16.3058 24.6183 19.1501C24.709 19.1883 24.7977 19.2279 24.8855 19.2689C26.128 19.8531 27.0362 20.7376 27.513 21.8266C28.1771 23.3448 28.2383 25.819 26.2223 27.7924C24.6824 29.3006 22.8126 29.9812 20.1599 29.9993H20.1542L20.1549 30ZM20.9904 20.2571C20.7887 20.2571 20.5841 20.2629 20.3752 20.2751C18.8447 20.3616 17.8911 21.0624 17.9451 22.0606C18.002 23.1064 19.1559 23.5926 20.2643 23.5329C21.2849 23.478 22.6131 23.0812 22.8356 20.4407C22.2723 20.3205 21.653 20.2571 20.9904 20.2571H20.9904Z" fill="white"/>
</g>
<defs>
<clipPath id="clip0_1_58">
<rect width="20" height="20" fill="white" transform="translate(10 10)"/>
</clipPath>
</defs>
</svg>
