<svg width="40" height="40" viewBox="0 0 40 40" fill="none" xmlns="http://www.w3.org/2000/svg">
<rect width="40" height="40" rx="10" fill="#080000"/>
<path d="M16.8316 20.4047C15.0871 20.4047 13.6777 21.8141 13.7035 23.5414C13.7207 24.65 14.3308 25.6125 15.2289 26.1496C14.9238 25.6813 14.7433 25.127 14.7347 24.5297C14.7089 22.8023 16.1183 21.393 17.8628 21.393C18.2066 21.393 18.5375 21.4488 18.8468 21.5477V18.0887C18.5246 18.0414 18.1937 18.0156 17.8628 18.0156C17.8457 18.0156 17.8328 18.0156 17.8156 18.0156V20.5594C17.5062 20.4605 17.1753 20.4047 16.8316 20.4047Z" fill="#F00044"/>
<path d="M24.3727 10.0312H24.3469H23.4531C23.7109 11.3246 24.4371 12.4504 25.4512 13.2152C24.7852 12.3344 24.3812 11.2344 24.3727 10.0312Z" fill="#F00044"/>
<path d="M29.6297 15.2957C29.2902 15.2957 28.9637 15.2613 28.6414 15.2012V17.6805C27.4727 17.6805 26.3383 17.4527 25.2727 16.9973C24.5852 16.7051 23.9449 16.3313 23.3562 15.8801L23.3734 23.5242C23.3648 25.243 22.6859 26.8543 21.457 28.0703C20.4559 29.0586 19.1883 29.6902 17.8133 29.8922C17.491 29.9395 17.1602 29.9652 16.8293 29.9652C15.3598 29.9652 13.959 29.4883 12.8203 28.6074C12.9492 28.7621 13.0867 28.9125 13.2371 29.0586C14.4746 30.2789 16.116 30.9535 17.8648 30.9535C18.1957 30.9535 18.5266 30.9277 18.8488 30.8805C20.2238 30.6785 21.4914 30.0469 22.4926 29.0586C23.7215 27.8426 24.4004 26.2312 24.409 24.5125L24.3445 16.8684C24.9289 17.3195 25.5691 17.6977 26.2609 17.9855C27.3309 18.4367 28.4652 18.6687 29.6297 18.6687" fill="#F00044"/>
<path d="M13.2203 19.9191C14.4449 18.7031 16.0735 18.0285 17.8094 18.0156V17.1004C17.4871 17.0531 17.1563 17.0273 16.8254 17.0273C15.0723 17.0273 13.4266 17.702 12.1891 18.9309C10.9731 20.1383 10.277 21.7883 10.2813 23.5027C10.2813 25.2301 10.9645 26.85 12.1977 28.0746C12.3953 28.268 12.5973 28.4484 12.8121 28.6117C11.841 27.4559 11.3125 26.0121 11.3082 24.491C11.3125 22.7766 12.0043 21.1266 13.2203 19.9191Z" fill="#08FFF9"/>
<path d="M28.6414 15.2V14.2805H28.6328C27.4383 14.2805 26.3383 13.8852 25.4531 13.2148C26.2223 14.2289 27.348 14.9508 28.6414 15.2Z" fill="#08FFF9"/>
<path d="M17.6844 27.5711C18.0926 27.5926 18.4836 27.5367 18.8445 27.4207C20.0906 27.0125 20.9887 25.8523 20.9887 24.4859L20.993 19.3727V10.0312H23.4508C23.3863 9.70898 23.352 9.38242 23.3477 9.04297H19.9617V18.3801L19.9574 23.4934C19.9574 24.8598 19.0594 26.0199 17.8133 26.4281C17.4523 26.5484 17.0613 26.6043 16.6531 26.5785C16.1332 26.5484 15.6477 26.3937 15.2266 26.1445C15.7551 26.9609 16.6574 27.5152 17.6844 27.5711Z" fill="#08FFF9"/>
<path d="M17.8094 29.8914C19.1844 29.6895 20.452 29.0578 21.4531 28.0695C22.6821 26.8535 23.361 25.2422 23.3696 23.5234L23.3524 15.8793C23.9367 16.3305 24.577 16.7086 25.2688 16.9965C26.3387 17.4477 27.4731 17.6797 28.6375 17.6797V15.2004C27.3442 14.9512 26.2184 14.2293 25.4492 13.2152C24.4352 12.4504 23.7047 11.3246 23.4512 10.0312H20.9891V19.3684L20.9848 24.4816C20.9848 25.848 20.0867 27.0082 18.8406 27.4164C18.4797 27.5367 18.0887 27.5926 17.6805 27.5668C16.6492 27.5109 15.7512 26.9566 15.2227 26.1445C14.3246 25.6117 13.7145 24.6449 13.6973 23.5363C13.6715 21.809 15.0809 20.3996 16.8254 20.3996C17.1692 20.3996 17.5 20.4555 17.8094 20.5543V18.0105C16.0735 18.0234 14.4449 18.698 13.2203 19.9141C12.0043 21.1215 11.3082 22.7715 11.3125 24.4816C11.3125 26.0027 11.841 27.4465 12.8164 28.6023C13.9594 29.4832 15.3559 29.9602 16.8254 29.9602C17.1563 29.9645 17.4871 29.9387 17.8094 29.8914Z" fill="white"/>
</svg>
