<svg width="40" height="40" viewBox="0 0 40 40" fill="none" xmlns="http://www.w3.org/2000/svg">
<rect width="40" height="40" rx="10" fill="#6E2CAA"/>
<g clip-path="url(#clip0_15588_463)">
<path d="M30.2262 21.7356C30.8826 16.2109 29.9109 12.723 28.1582 11.1454L28.1591 11.1445C25.3303 8.45039 15.7768 8.05164 12.3925 11.2655C10.8726 12.8376 10.3373 15.1448 10.2786 18.0011C10.22 20.8584 10.1503 26.2108 15.1379 27.6628H15.1425L15.1379 29.8802C15.1379 29.8802 15.104 30.7786 15.6778 30.9591C16.3341 31.1718 16.6311 30.7547 18.6726 28.3164C22.0862 28.6125 24.7079 27.9341 25.0058 27.8351C25.6951 27.6041 29.5956 27.0881 30.2262 21.7356ZM19.009 26.7562C19.009 26.7562 16.8484 29.4503 16.1765 30.1497C15.9565 30.3771 15.7154 30.356 15.7191 29.905C15.7191 29.6089 15.7356 26.2236 15.7356 26.2236C11.507 25.0118 11.7563 20.4541 11.8021 18.0699C11.848 15.6847 12.2843 13.7313 13.5713 12.4159C16.5404 9.63197 24.916 10.2544 27.05 12.2601C29.6588 14.5728 28.7302 21.1068 28.7357 21.3296C28.1995 25.7974 25.0388 26.0806 24.4576 26.2741C24.2092 26.3566 21.9038 26.9496 19.009 26.7562Z" fill="white"/>
<path d="M20.2022 12.9395C19.8493 12.9395 19.8493 13.4895 20.2022 13.494C22.9403 13.5151 25.1953 15.4236 25.22 18.9244C25.22 19.2938 25.7609 19.2892 25.7563 18.9198C25.7269 15.1477 23.2639 12.9605 20.2022 12.9395Z" fill="white"/>
<path d="M23.8091 18.3446C23.8008 18.7094 24.3408 18.7268 24.3453 18.3574C24.3903 16.2775 23.1078 14.5643 20.6979 14.3837C20.345 14.358 20.3083 14.9126 20.6603 14.9383C22.7503 15.0968 23.8513 16.5232 23.8091 18.3446Z" fill="white"/>
<path d="M23.2283 20.7094C22.7755 20.4473 22.3144 20.6104 22.1238 20.868L21.725 21.3841C21.5224 21.6463 21.1438 21.6114 21.1438 21.6114C18.381 20.8809 17.6422 17.9897 17.6422 17.9897C17.6422 17.9897 17.6083 17.5983 17.8613 17.3883L18.3599 16.9758C18.6093 16.7778 18.7669 16.3012 18.513 15.8328C17.8347 14.6072 17.3791 14.1846 17.1472 13.8601C16.9033 13.5548 16.5367 13.4861 16.1553 13.6923H16.1471C15.3542 14.1562 14.4861 15.0243 14.7638 15.918C15.2378 16.8603 16.1086 19.8643 18.8843 22.1339C20.1887 23.2073 22.253 24.3074 23.1293 24.5613L23.1376 24.5741C24.0011 24.8619 24.8408 23.9599 25.289 23.1432V23.1368C25.4879 22.7417 25.4219 22.3677 25.1313 22.1229C24.6162 21.6206 23.8388 21.066 23.2283 20.7094Z" fill="white"/>
<path d="M21.0722 16.4282C21.9531 16.4795 22.3803 16.9397 22.4261 17.8848C22.4426 18.2542 22.9789 18.2285 22.9624 17.8591C22.9037 16.6253 22.2602 15.9378 21.1016 15.8736C20.7486 15.8525 20.7156 16.4071 21.0722 16.4282Z" fill="white"/>
</g>
<defs>
<clipPath id="clip0_15588_463">
<rect width="22" height="22" fill="white" transform="translate(9 9)"/>
</clipPath>
</defs>
</svg>
