<svg width="40" height="40" viewBox="0 0 40 40" fill="none" xmlns="http://www.w3.org/2000/svg">
<rect width="40" height="40" rx="10" fill="#19B2E5"/>
<g clip-path="url(#clip0_15588_418)">
<path d="M27.0808 11.2545C24.3075 11.1537 22.4342 12.7437 21.4458 15.9995C21.9542 15.772 22.4483 15.6703 22.9267 15.6703C26.4425 15.6703 22.1175 22.4662 21.0408 22.4662C19.7725 22.4662 19.01 16.3962 18.7517 14.7387C18.3925 12.4345 17.435 11.357 15.8792 11.5078C15.2217 11.5703 14.2333 12.1737 12.9175 13.3253C11.9592 14.2045 10.9875 15.0795 10 15.9587L10.9408 17.1853C11.8367 16.5503 12.3592 16.232 12.5083 16.232C15.085 16.232 14.915 28.7503 18.9942 28.7503C22.9125 28.7503 29.8092 19.1495 29.9808 15.3012L29.9917 15.2928C30.1033 12.6553 29.1408 11.3053 27.0808 11.2545Z" fill="white"/>
</g>
<defs>
<clipPath id="clip0_15588_418">
<rect width="20" height="20" fill="white" transform="translate(10 10)"/>
</clipPath>
</defs>
</svg>
