<svg width="40" height="40" viewBox="0 0 40 40" fill="none" xmlns="http://www.w3.org/2000/svg">
<rect width="40" height="40" rx="10" fill="#2DC100"/>
<path d="M24.9208 16.9057C22.66 17.0238 20.6941 17.7092 19.098 19.2576C17.4854 20.8219 16.7493 22.7388 16.9505 25.1151C16.0668 25.0057 15.262 24.8852 14.4525 24.8171C14.173 24.7935 13.8412 24.827 13.6044 24.9606C12.8184 25.4041 12.0649 25.9048 11.1718 26.4631C11.3357 25.7219 11.4418 25.0729 11.6295 24.4486C11.7676 23.9898 11.7037 23.7344 11.281 23.4356C8.56707 21.5196 7.42309 18.6521 8.27921 15.6999C9.07127 12.9688 11.0164 11.3124 13.6593 10.449C17.2667 9.2707 21.3208 10.4727 23.5144 13.3367C24.3066 14.3713 24.7924 15.5324 24.9208 16.9057ZM14.5158 15.9858C14.5366 15.4459 14.0688 14.9594 13.513 14.9432C12.944 14.9265 12.476 15.3613 12.4594 15.922C12.4426 16.4902 12.8773 16.9456 13.4504 16.9602C14.0185 16.9745 14.4948 16.5392 14.5158 15.9858ZM19.9445 14.9428C19.3867 14.9531 18.9154 15.4281 18.9253 15.9703C18.9354 16.5322 19.3978 16.9717 19.9714 16.9648C20.5465 16.9579 20.9826 16.5137 20.9772 15.9399C20.9724 15.3767 20.5121 14.9324 19.9445 14.9428Z" fill="white"/>
<path d="M30.0015 30.9992C29.2857 30.6804 28.629 30.2022 27.9298 30.1292C27.2334 30.0564 26.5012 30.4582 25.7726 30.5327C23.553 30.7598 21.5646 30.1412 19.925 28.625C16.8067 25.7407 17.2523 21.3183 20.86 18.9547C24.0665 16.8541 28.7689 17.5544 31.0296 20.4691C33.0025 23.0125 32.7706 26.3888 30.3622 28.5255C29.6653 29.1439 29.4145 29.6528 29.8617 30.468C29.9442 30.6185 29.9536 30.8091 30.0015 30.9992ZM21.8527 23.1095C22.3084 23.1099 22.6837 22.7532 22.7009 22.3031C22.7192 21.8265 22.3359 21.4268 21.8586 21.4249C21.3862 21.4227 20.9904 21.828 21.0068 22.2975C21.0223 22.7461 21.4002 23.1089 21.8527 23.1095ZM27.1058 21.4267C26.6636 21.4236 26.2879 21.7856 26.2699 22.2324C26.2507 22.7102 26.6221 23.1025 27.0949 23.1038C27.5522 23.1053 27.9136 22.7594 27.9302 22.3043C27.9479 21.8254 27.5764 21.43 27.1058 21.4267Z" fill="white"/>
</svg>
