<svg width="40" height="40" viewBox="0 0 40 40" fill="none" xmlns="http://www.w3.org/2000/svg">
<rect width="40" height="40" rx="10" fill="#29BA3B"/>
<g clip-path="url(#clip0_15588_368)">
<path fill-rule="evenodd" clip-rule="evenodd" d="M27.2935 12.6731C25.3639 10.7413 22.7977 9.67691 20.0639 9.67578C14.4305 9.67578 9.84581 14.2604 9.84354 19.8953C9.84278 21.6965 10.3133 23.4549 11.2078 25.0048L9.75781 30.3008L15.1758 28.8795C16.6686 29.6939 18.3493 30.123 20.0597 30.1235H20.064C25.6967 30.1235 30.282 25.5386 30.2841 19.9034C30.2853 17.1725 29.2232 14.6048 27.2935 12.6731ZM20.0639 28.3975H20.0604C18.5362 28.3969 17.0413 27.9873 15.7368 27.2135L15.4268 27.0293L12.2117 27.8727L13.0698 24.738L12.8678 24.4167C12.0174 23.0642 11.5684 21.5009 11.5692 19.8959C11.5709 15.2123 15.3817 11.4019 20.0673 11.4019C22.3362 11.4027 24.4691 12.2874 26.0729 13.8931C27.6767 15.4987 28.5594 17.633 28.5586 19.9028C28.5566 24.5867 24.7461 28.3975 20.0639 28.3975ZM24.7234 22.0354C24.4681 21.9075 23.2125 21.2899 22.9784 21.2046C22.7445 21.1194 22.574 21.0769 22.404 21.3325C22.2336 21.588 21.7443 22.1633 21.5953 22.3336C21.4462 22.5041 21.2974 22.5255 21.042 22.3976C20.7866 22.2698 19.9638 22 18.9883 21.1301C18.2292 20.4529 17.7168 19.6167 17.5677 19.3611C17.4189 19.1053 17.5665 18.9804 17.6798 18.84C17.9562 18.4967 18.233 18.1368 18.3181 17.9664C18.4033 17.796 18.3607 17.6468 18.2967 17.519C18.233 17.3913 17.7223 16.1343 17.5096 15.6228C17.3021 15.1251 17.0917 15.1923 16.9349 15.1845C16.7861 15.1771 16.6158 15.1756 16.4455 15.1756C16.2753 15.1756 15.9986 15.2394 15.7644 15.4952C15.5304 15.7509 14.8708 16.3686 14.8708 17.6255C14.8708 18.8825 15.7858 20.0968 15.9135 20.2672C16.0411 20.4377 17.7142 23.0171 20.2759 24.1231C20.8852 24.3865 21.3608 24.5434 21.7317 24.6611C22.3435 24.8555 22.9001 24.8281 23.3402 24.7623C23.8309 24.689 24.8509 24.1445 25.0639 23.5481C25.2767 22.9515 25.2767 22.4403 25.2127 22.3336C25.149 22.2271 24.9787 22.1633 24.7234 22.0354Z" fill="white"/>
</g>
<defs>
<clipPath id="clip0_15588_368">
<rect width="22" height="22" fill="white" transform="translate(9 9)"/>
</clipPath>
</defs>
</svg>
