<svg width="40" height="40" viewBox="0 0 40 40" fill="none" xmlns="http://www.w3.org/2000/svg">
<rect width="40" height="40" rx="10" fill="#D32200"/>
<path fill-rule="evenodd" clip-rule="evenodd" d="M12.1703 19.5914C11.8186 20.1641 11.6705 21.9674 11.7917 23.1643C11.8346 23.5596 11.9052 23.8889 12.0069 24.0856C12.1474 24.3571 12.3841 24.5193 12.6541 24.5283C12.8271 24.5379 12.9344 24.5077 16.1849 23.4455C16.1849 23.4455 17.6294 22.978 17.6357 22.9746C17.9956 22.8824 18.2378 22.5456 18.2621 22.1152C18.2849 21.6752 18.0607 21.2854 17.6917 21.1451C17.6917 21.1451 16.6742 20.723 16.6715 20.723C13.1788 19.2594 13.0223 19.2016 12.8458 19.1995C12.5766 19.1892 12.3357 19.3267 12.1703 19.5914ZM19.9841 30.4976C20.0408 30.3319 20.0471 30.2171 20.0567 26.7473C20.0567 26.7473 20.065 25.2149 20.0657 25.1984C20.0886 24.8237 19.8505 24.482 19.4573 24.3273C19.0538 24.1699 18.6198 24.2675 18.3761 24.5769C18.3761 24.5769 17.6639 25.4363 17.6611 25.4363C15.2129 28.3561 15.1126 28.4908 15.0523 28.664C15.0163 28.7672 15.0011 28.8744 15.0143 28.9823C15.0288 29.1363 15.0966 29.2904 15.2115 29.432C15.7784 30.1181 18.5 31.1356 19.3687 30.985C19.6712 30.9286 19.8899 30.7561 19.9841 30.4976ZM25.503 29.2902C26.3233 28.9581 28.1139 26.6447 28.2399 25.7544C28.2828 25.4451 28.188 25.1776 27.9776 25.0078C27.8405 24.9026 27.7339 24.8614 24.4862 23.7786C24.4862 23.7786 23.0617 23.3001 23.0431 23.2911C22.699 23.1557 22.3045 23.2801 22.0401 23.6136C21.766 23.9539 21.7231 24.4014 21.9425 24.7418L22.5163 25.6898C24.4454 28.8722 24.5921 29.097 24.7313 29.207C24.9458 29.3789 25.2185 29.4071 25.503 29.2902ZM23.8259 21.099C27.5173 20.1908 27.6598 20.142 27.8059 20.0451C28.0288 19.8932 28.1409 19.6367 28.1222 19.3246C28.1222 19.3143 28.1236 19.3047 28.1222 19.293C28.0274 18.3731 26.4382 15.9765 25.656 15.5881C25.3791 15.4526 25.1009 15.4622 24.8725 15.6183C24.7299 15.7132 24.624 15.8555 22.6478 18.6014C22.6478 18.6014 21.7542 19.8381 21.7438 19.8498C21.5078 20.14 21.5057 20.5579 21.7348 20.9154C21.973 21.2853 22.3758 21.4654 22.7447 21.3616C22.7447 21.3616 22.7295 21.3878 22.7254 21.3933C22.9074 21.3225 23.2334 21.242 23.8259 21.099ZM20.1186 18.002C20.0556 16.5163 19.616 9.89715 19.5641 9.58984C19.488 9.31278 19.2755 9.11409 18.9675 9.03502C18.0261 8.79715 14.4247 9.82357 13.7568 10.5234C13.5429 10.7503 13.4626 11.0308 13.527 11.2776C13.6315 11.4976 18.0953 18.631 18.0953 18.631C18.7557 19.718 19.2935 19.5495 19.4693 19.4939C19.6444 19.4382 20.1795 19.2697 20.1186 18.002Z" fill="white"/>
</svg>
