<svg width="40" height="40" viewBox="0 0 40 40" fill="none" xmlns="http://www.w3.org/2000/svg">
<rect width="40" height="40" rx="10" fill="#F70000"/>
<path d="M29.5821 15.1554C29.3521 14.2893 28.6744 13.6072 27.8139 13.3757C26.2542 12.9551 20 12.9551 20 12.9551C20 12.9551 13.7458 12.9551 12.1861 13.3757C11.3256 13.6072 10.6479 14.2893 10.4179 15.1554C10 16.7252 10 20.0005 10 20.0005C10 20.0005 10 23.2759 10.4179 24.8457C10.6479 25.7118 11.3256 26.3939 12.1861 26.6254C13.7458 27.046 20 27.046 20 27.046C20 27.046 26.2542 27.046 27.8139 26.6254C28.6744 26.3939 29.3521 25.7118 29.5821 24.8457C30 23.2759 30 20.0005 30 20.0005C30 20.0005 30 16.7252 29.5821 15.1554Z" fill="white"/>
<path d="M17.9531 22.9748L23.1804 20.0012L17.9531 17.0273V22.9748Z" fill="#F70000"/>
</svg>
