<svg width="40" height="40" viewBox="0 0 40 40" fill="none" xmlns="http://www.w3.org/2000/svg">
<rect width="40" height="40" rx="10" fill="#2D8CFF"/>
<g clip-path="url(#clip0_15597_400)">
<path d="M29.1 7H10.9C8.74609 7 7 8.74609 7 10.9V29.1C7 31.2539 8.74609 33 10.9 33H29.1C31.2539 33 33 31.2539 33 29.1V10.9C33 8.74609 31.2539 7 29.1 7Z" fill="#2D8CFF"/>
<path d="M28.7344 25.1289C29.1406 25.2305 29.4961 25.0273 29.6992 24.7227C29.8008 24.5703 29.8008 24.3164 29.8008 23.7578V16.0898C29.8008 15.5312 29.8008 15.3281 29.6992 15.125C29.5469 14.7188 29.1406 14.5664 28.7344 14.7188C27.668 15.4297 25.332 17.5117 25.2812 18.375C25.2406 18.5273 25.2406 18.7812 25.2406 19.1367V21.0664C25.2406 21.4727 25.2406 21.625 25.2812 21.8281C25.332 22.2344 25.4844 22.5898 25.6875 22.793C26.2969 23.25 28.3281 25.0781 28.7852 25.0781L28.7344 25.1289ZM10.25 16.4961C10.25 15.7344 10.25 15.3281 10.4023 15.125C10.5039 14.9219 10.8086 14.7188 10.9609 14.5664C11.1641 14.4141 11.5195 14.4141 12.332 14.4141H18.8828C20.8125 14.4141 21.7773 14.4141 22.5391 14.8203C23.0977 15.2266 23.707 15.582 24.0625 16.3438C24.4688 17.1055 24.4688 18.0703 24.4688 20V23.4531C24.4688 24.2148 24.4688 24.6211 24.3164 24.8242C24.2148 25.0273 23.9102 25.2305 23.7578 25.3828C23.5547 25.5352 23.1992 25.5352 22.3867 25.5352H15.8359C13.9062 25.5352 12.9414 25.5352 12.1797 25.1289C11.6211 24.7227 11.0117 24.3672 10.6562 23.6055C10.25 22.8438 10.25 21.8789 10.25 19.9492V16.4961Z" fill="white"/>
</g>
<defs>
<clipPath id="clip0_15597_400">
<rect width="26" height="26" fill="white" transform="translate(7 7)"/>
</clipPath>
</defs>
</svg>
