<svg width="116" height="116" viewBox="0 0 116 116" xmlns="http://www.w3.org/2000/svg" xmlns:xlink="http://www.w3.org/1999/xlink"><title>9B2B7BEF-5B23-45C9-A357-7527A057FF48</title><defs><circle id="a" cx="58" cy="58" r="40.384"/><mask id="b" x="0" y="0" width="80.768" height="80.768" fill="#fff"><use xlink:href="#a"/></mask></defs><g fill="none" fill-rule="evenodd"><circle fill-opacity=".05" fill="#80C6CC" cx="58" cy="58" r="58"/><use stroke-opacity=".1" stroke="#80C6CC" mask="url(#b)" stroke-width="6" fill="#FFF" xlink:href="#a"/><path d="M75.06 64.885c0-.11-.659-3.078-5.496-3.078h-6.706c-.99-1.32-2.638-2.199-4.287-2.199h-3.848c-1.54-1.979-4.507-3.298-7.146-3.298h-2.199v-1.1c0-.659-.44-1.099-1.099-1.099H42.08c-.66 0-1.099.44-1.099 1.1v14.291c0 .66.44 1.1 1.1 1.1h2.198c.66 0 1.1-.44 1.1-1.1v-1.539l8.464 4.288c.77.44 1.76.66 2.639.66.77 0 1.429-.11 2.199-.44l15.72-6.377c.44-.22.77-.66.66-1.209zm-17.259 5.607c-.99.33-2.089.33-2.968-.11l-9.455-4.837v-7.036h2.2c2.198 0 4.616 1.21 5.716 2.858.22.33.55.44.88.44h4.397c.989 0 2.088.66 2.748 1.649l.11.11c.11.11.11.33.22.44h-8.575c-.66 0-1.1.44-1.1 1.099 0 .66.44 1.1 1.1 1.1h9.894c.66 0 1.1-.44 1.1-1.1 0-.33 0-.77-.11-1.1h5.606c1.43 0 2.199.33 2.639.66L57.8 70.492z" fill="#697073"/><path d="M54.173 40.92c-3.078 0-5.497 2.418-5.497 5.496 0 3.078 2.419 5.497 5.497 5.497s5.497-2.419 5.497-5.497-2.419-5.497-5.497-5.497zm1.1 6.595h-2.2c-.659 0-1.099-.44-1.099-1.1 0-.659.44-1.098 1.1-1.098h2.199c.66 0 1.099.44 1.099 1.099 0 .66-.44 1.1-1.1 1.1zM67.365 47.515c-3.078 0-5.496 2.419-5.496 5.497s2.418 5.497 5.496 5.497c3.079 0 5.497-2.419 5.497-5.497s-2.418-5.497-5.497-5.497zm1.1 6.596h-2.199c-.66 0-1.1-.44-1.1-1.099 0-.66.44-1.1 1.1-1.1h2.199c.66 0 1.1.44 1.1 1.1 0 .66-.44 1.1-1.1 1.1z" fill="#ED9D1A"/></g></svg>