<svg width="116" height="116" viewBox="0 0 116 116" xmlns="http://www.w3.org/2000/svg" xmlns:xlink="http://www.w3.org/1999/xlink"><title>2F4E86E4-68C8-4551-8F08-4D4FDBCC5675</title><defs><ellipse id="a" cx="58" cy="58.002" rx="40.171" ry="40.171"/><mask id="b" x="0" y="0" width="80.342" height="80.342" fill="#fff"><use xlink:href="#a"/></mask></defs><g fill="none" fill-rule="evenodd"><circle fill-opacity=".05" fill="#80C6CC" cx="57.866" cy="57.866" r="57.42"/><use stroke-opacity=".1" stroke="#80C6CC" mask="url(#b)" stroke-width="6" fill="#FFF" xlink:href="#a"/><path d="M75.4 66.12H40.6c-.696 0-1.16.464-1.16 1.16 0 1.972 1.508 3.48 3.48 3.48h30.16c1.972 0 3.48-1.508 3.48-3.48 0-.696-.464-1.16-1.16-1.16zM44.08 63.8c.696 0 1.16-.464 1.16-1.16V48.72c0-.696.464-1.16 1.16-1.16h23.2c.696 0 1.16.464 1.16 1.16v13.92c0 .696.464 1.16 1.16 1.16s1.16-.464 1.16-1.16V48.72c0-1.972-1.508-3.48-3.48-3.48H46.4c-1.972 0-3.48 1.508-3.48 3.48v13.92c0 .696.464 1.16 1.16 1.16z" fill="#697073"/><path d="M66.004 52.896a1.398 1.398 0 0 0-.58-.58c-.116-.116-.348-.116-.464-.116h-4.64c-.696 0-1.16.464-1.16 1.16s.464 1.16 1.16 1.16h1.856L58 58.696l-3.828-3.828a1.121 1.121 0 0 0-1.624 0l-3.48 3.48a1.121 1.121 0 0 0 0 1.624c.464.464 1.16.464 1.624 0l2.668-2.668 3.828 3.828c.232.232.58.348.812.348.232 0 .58-.116.812-.348l4.988-4.988V58c0 .696.464 1.16 1.16 1.16s1.16-.464 1.16-1.16v-4.64c0-.116 0-.348-.116-.464z" fill="#ED9D1A"/></g></svg>