<svg width="52" height="52" viewBox="0 0 52 52" xmlns="http://www.w3.org/2000/svg"><title>48C5ABA2-CC84-48D9-8A76-34827E5E2F90</title><g transform="translate(1 1)" fill="none" fill-rule="evenodd"><circle stroke-opacity=".2" stroke="#FFF" cx="25" cy="25" r="25"/><g fill-opacity=".4" fill="#FFF"><path d="M33.682 24.33H32.24v-1.443h-1.442v1.443h-1.443v1.442h1.443v1.442h1.442v-1.442h1.442zM28.293 24.333l-5.428-.003v2.163h3.102c-.168.916-1.085 2.586-3.463 2.586-2.092 0-3.8-1.734-3.8-3.87 0-2.137 1.708-3.871 3.8-3.871 1.191 0 1.988.508 2.444.946l1.663-1.603c-1.068-.998-2.452-1.602-4.107-1.602a6.125 6.125 0 0 0-6.13 6.13c0 3.388 2.742 6.13 6.13 6.13 4.218 0 6.39-3.501 5.789-7.006z"/></g></g></svg>