<svg width="190" height="44" viewBox="0 0 190 44" xmlns="http://www.w3.org/2000/svg"><title>48E39C25-063B-4E23-B957-E885F0A94D97</title><g fill="none" fill-rule="evenodd"><path d="M103.184 24.338h4.79v-2.491h-4.79v-3.711h5.147v-2.5h-8.092v14.396h2.945v-5.694zm16.179-8.705v8.793a3.766 3.766 0 0 1-.662 2.457c-.56.57-1.34.858-2.128.784a2.697 2.697 0 0 1-2.173-.778 3.748 3.748 0 0 1-.656-2.442v-8.814h-2.984v9.277a5.103 5.103 0 0 0 1.503 3.895 5.915 5.915 0 0 0 4.23 1.423 7.11 7.11 0 0 0 3.128-.64 4.586 4.586 0 0 0 2.022-1.842c.48-.849.724-1.816.703-2.796v-9.317h-2.983zm19.006 0h-2.694v6.816c0 .774.048 2.097.145 3.968h-.067l-6.132-10.783h-3.775v14.398h2.675v-6.777c0-.82-.061-2.192-.183-4.114h.087l6.14 10.89h3.804V15.634zm13.516 1.86a7.371 7.371 0 0 0-5.368-1.86h-4.43v14.399h3.998c2.497 0 4.407-.63 5.73-1.891 1.323-1.26 1.985-3.076 1.984-5.445a6.922 6.922 0 0 0-1.914-5.202zm-5.522 10.016h-1.285v-9.375h1.594c2.677 0 4.016 1.546 4.016 4.638 0 3.158-1.442 4.737-4.325 4.737zm13.08 2.523v-14.4h-2.993v14.4h2.993zm15.776-14.398h-2.694v6.815c0 .774.048 2.097.145 3.968h-.07l-6.132-10.783h-3.776v14.398h2.675v-6.777c0-.82-.06-2.192-.183-4.114h.087l6.142 10.89h3.804V15.634l.002.001zm9.074 8.853h2.675v3.004c-.625.129-1.261.195-1.899.197a3.23 3.23 0 0 1-2.737-1.236 5.825 5.825 0 0 1-.941-3.58 5.222 5.222 0 0 1 1.168-3.574 3.933 3.933 0 0 1 3.108-1.33 6.99 6.99 0 0 1 3.215.788l.995-2.442a10.316 10.316 0 0 0-4.192-.887 7.335 7.335 0 0 0-5.42 1.95 7.339 7.339 0 0 0-1.956 5.436c0 2.39.562 4.222 1.685 5.5a6.151 6.151 0 0 0 4.88 1.915c.822.001 1.644-.06 2.457-.182a15.52 15.52 0 0 0 2.564-.635v-7.466h-5.6v2.54l-.002.002z" fill="#48DC8E"/><path d="M68.423 24.486h2.674v3.003c-.624.13-1.26.195-1.898.197a3.23 3.23 0 0 1-2.737-1.236 5.828 5.828 0 0 1-.942-3.58 5.223 5.223 0 0 1 1.169-3.574 3.933 3.933 0 0 1 3.108-1.33 6.99 6.99 0 0 1 3.215.789l.995-2.442a10.316 10.316 0 0 0-4.192-.888 7.336 7.336 0 0 0-5.42 1.95 7.339 7.339 0 0 0-1.956 5.436c0 2.39.561 4.223 1.685 5.5a6.151 6.151 0 0 0 4.88 1.915c.822.001 1.644-.06 2.457-.182a15.52 15.52 0 0 0 2.564-.635v-7.464h-5.602v2.54zm17.136 3.023h-5.136V23.8h4.776v-2.501h-4.78v-3.164h5.137v-2.5H77.43v14.398h8.13v-2.523zm8.558-9.336h3.833v-2.54H87.291v2.54h3.833v11.859h2.993V18.173z" fill="#161B1D"/><g><path fill="#48DC8E" d="M18.341 9.578h14.731L38.787 0H12.628z"/><path fill="#34BE75" d="M0 22.15h11.425L18.641 9.58 12.628 0zM33.074 34.421L38.486 44h.301l5.412-9.578H33.072z"/><path fill="#161B1D" d="M21.047 17.364v9.575h16.236l-4.209 7.779h11.127l7.517-12.572-6.617-11.37H34.578l2.705 6.588z"/><path fill="#48DC8E" d="M11.425 41.006V22.15H0zM20.747 34.421V44h18.04l-5.713-9.578H20.747z"/></g></g></svg>