<svg xmlns="http://www.w3.org/2000/svg" width="30" height="31" viewBox="0 0 30 31">
    <g fill="none" fill-rule="evenodd" opacity=".5">
        <path fill="none" d="M13 27V12"/>
        <path stroke="#161B1D" stroke-linecap="square" stroke-width="1.6" d="M13 27V12"/>
        <path fill="none" d="M17 12v15"/>
        <path stroke="#161B1D" stroke-linecap="square" stroke-width="1.6" d="M17 12v15"/>
        <path fill="none" d="M4 27V12"/>
        <path stroke="#161B1D" stroke-linecap="square" stroke-width="1.6" d="M4 27V12"/>
        <path fill="none" d="M8 12v15"/>
        <path stroke="#161B1D" stroke-linecap="square" stroke-width="1.6" d="M8 12v15"/>
        <path fill="none" d="M22 27V12"/>
        <path stroke="#161B1D" stroke-linecap="square" stroke-width="1.6" d="M22 27V12"/>
        <path fill="none" d="M26 12v15"/>
        <path stroke="#161B1D" stroke-linecap="square" stroke-width="1.6" d="M26 12v15"/>
        <path fill="none" d="M15 1L1 9v3h28V9z"/>
        <path stroke="#161B1D" stroke-linecap="square" stroke-width="1.6" d="M15 1L1 9v3h28V9z"/>
        <path fill="none" d="M16.414 5.586a2 2 0 1 1-2.828 2.828 2 2 0 0 1 2.828-2.828"/>
        <path stroke="#161B1D" stroke-linecap="square" stroke-width="1.6" d="M16.414 5.586a2 2 0 1 1-2.828 2.828 2 2 0 0 1 2.828-2.828"/>
        <path fill="none" d="M1 27h28v3H1z"/>
        <path stroke="#161B1D" stroke-linecap="square" stroke-width="1.6" d="M1 27h28v3H1z"/>
    </g>
</svg>
