<svg xmlns="http://www.w3.org/2000/svg" width="26" height="26" viewBox="0 0 26 26">
    <g fill="none" fill-rule="evenodd">
        <circle cx="13" cy="13" r="13" fill="#ED9D1A"/>
        <g fill="#FFF">
            <path d="M19.125 8H6.875C6.35 8 6 8.333 6 8.833v8.334c0 .5.35.833.875.833h12.25c.525 0 .875-.333.875-.833V8.833c0-.5-.35-.833-.875-.833zm-3.412 8.333h-5.425c-.35-1.166-1.313-2.083-2.538-2.416v-1.834c1.225-.333 2.188-1.25 2.537-2.416H15.8c.35 1.166 1.313 2.083 2.537 2.416V14c-1.312.25-2.275 1.167-2.625 2.333z"/>
            <path d="M14.237 11.821c.684.651.684 1.707 0 2.358-.683.65-1.791.65-2.474 0a1.611 1.611 0 0 1 0-2.358 1.812 1.812 0 0 1 2.474 0"/>
        </g>
    </g>
</svg>
