<svg width="156" height="36" viewBox="0 0 156 36" xmlns="http://www.w3.org/2000/svg"><title>A0273485-DC45-4C08-A888-0AEF613C65E8</title><g fill="#FFF" fill-rule="evenodd" opacity=".4"><path d="M84.506 19.441h3.899v-1.985h-3.899V14.5h4.19v-1.993h-6.587V23.98h2.397V19.44zm13.171-6.937v7.007a2.954 2.954 0 0 1-.538 1.959 2.173 2.173 0 0 1-1.733.624 2.224 2.224 0 0 1-1.769-.62 2.94 2.94 0 0 1-.534-1.946v-7.024h-2.429v7.393a4.02 4.02 0 0 0 1.223 3.104 4.882 4.882 0 0 0 3.443 1.134 5.896 5.896 0 0 0 2.547-.51 3.706 3.706 0 0 0 1.647-1.468 4.274 4.274 0 0 0 .572-2.228v-7.425h-2.429zm15.473 0h-2.193v5.432c0 .617.04 1.67.118 3.162h-.055l-4.991-8.593h-3.074v11.474h2.178v-5.4c0-.654-.05-1.747-.15-3.279h.072l4.998 8.679h3.097V12.504zm11.004 1.483a6.082 6.082 0 0 0-4.37-1.483h-3.606V23.98h3.254c2.033 0 3.588-.503 4.665-1.507 1.077-1.005 1.615-2.451 1.615-4.34a5.449 5.449 0 0 0-1.558-4.145zm-4.496 7.981h-1.046v-7.47h1.298c2.18 0 3.269 1.232 3.27 3.696 0 2.516-1.174 3.774-3.522 3.774zm10.649 2.01V12.505h-2.437V23.98h2.437zm12.843-11.473h-2.193v5.43c0 .618.039 1.672.117 3.163h-.057l-4.991-8.593h-3.074v11.474h2.178v-5.4c0-.654-.05-1.747-.15-3.279h.071l5 8.679h3.097V12.504l.002.002zm7.387 7.055h2.177v2.394a7.89 7.89 0 0 1-1.545.156 2.653 2.653 0 0 1-2.228-.984 4.567 4.567 0 0 1-.767-2.853 4.104 4.104 0 0 1 .951-2.848 3.234 3.234 0 0 1 2.53-1.06c.91.001 1.808.216 2.618.628l.81-1.946a8.553 8.553 0 0 0-3.412-.707 6.05 6.05 0 0 0-4.414 1.554 5.775 5.775 0 0 0-1.591 4.332c0 1.904.457 3.365 1.371 4.383a5.066 5.066 0 0 0 3.973 1.526c.67 0 1.338-.048 2-.146a12.86 12.86 0 0 0 2.088-.505v-5.95h-4.56v2.026z"/><path d="M56.207 19.559h2.177v2.393a7.886 7.886 0 0 1-1.545.157 2.654 2.654 0 0 1-2.229-.985 4.57 4.57 0 0 1-.766-2.852 4.105 4.105 0 0 1 .951-2.849 3.235 3.235 0 0 1 2.53-1.059c.91 0 1.807.216 2.618.628l.81-1.946a8.553 8.553 0 0 0-3.412-.707 6.05 6.05 0 0 0-4.414 1.554 5.775 5.775 0 0 0-1.592 4.331c0 1.905.458 3.366 1.372 4.383a5.066 5.066 0 0 0 3.973 1.527c.67 0 1.338-.048 2-.146a12.86 12.86 0 0 0 2.087-.506v-5.947h-4.56v2.024zm13.95 2.41h-4.18V19.01h3.888v-1.993h-3.892v-2.52h4.182v-1.993H63.54v11.474h6.619v-2.01zm6.968-7.44h3.12v-2.025h-8.677v2.025h3.12v9.45h2.437v-9.45z" fill-opacity=".7"/><g><path fill-opacity=".7" d="M15.072 7.836h12.106L31.874 0H10.377z"/><path d="M0 18.123h9.389l5.93-10.286L10.377 0zM27.179 28.163L31.626 36h.248l4.447-7.836h-9.143z"/><path fill-opacity=".4" d="M17.296 14.207v7.834h13.342l-3.459 6.364h9.144L42.5 18.12l-5.438-9.304h-8.647l2.223 5.391z"/><path fill-opacity=".7" d="M9.389 33.55V18.123H0zM17.049 28.163V36h14.825l-4.695-7.836h-10.13z"/></g></g></svg>