<svg width="116" height="116" viewBox="0 0 116 116" xmlns="http://www.w3.org/2000/svg" xmlns:xlink="http://www.w3.org/1999/xlink"><title>88CCADC0-28F0-41E7-A3E0-C8D935DD039C</title><defs><circle id="a" cx="58" cy="58" r="40.384"/><mask id="b" x="0" y="0" width="80.768" height="80.768" fill="#fff"><use xlink:href="#a"/></mask><path id="c" d="M35.82 0v31.342H0V0h35.82z"/></defs><g fill="none" fill-rule="evenodd"><circle fill-opacity=".05" fill="#80C6CC" cx="58" cy="58" r="58"/><use stroke-opacity=".1" stroke="#80C6CC" mask="url(#b)" stroke-width="6" fill="#FFF" xlink:href="#a"/><g transform="translate(40.687 45.263)"><mask id="d" fill="#fff"><use xlink:href="#c"/></mask><path d="M18.701 4.805a1.12 1.12 0 1 1-1.583 1.583 1.12 1.12 0 0 1 1.583-1.583M17.91 22.387H0v1.12a5.603 5.603 0 0 0 5.597 5.596H20.96a8.928 8.928 0 0 1-3.051-6.716z" fill="#697073" mask="url(#d)"/><path d="M30.223 3.358v10.734c.812.33 1.564.774 2.238 1.316V3.358A3.362 3.362 0 0 0 29.103 0H6.716a3.362 3.362 0 0 0-3.358 3.358v16.79h2.239V3.358c0-.617.501-1.12 1.12-1.12h22.386c.618 0 1.12.503 1.12 1.12z" fill="#697073" mask="url(#d)"/><path d="M35.491 29.431l-3.158-3.159a6.672 6.672 0 0 0 1.248-3.885 6.723 6.723 0 0 0-6.717-6.716 6.723 6.723 0 0 0-6.716 6.716 6.723 6.723 0 0 0 6.716 6.716 6.673 6.673 0 0 0 3.886-1.248l3.159 3.159a1.116 1.116 0 0 0 1.582 0 1.118 1.118 0 0 0 0-1.583zm-13.104-7.044a4.482 4.482 0 0 1 4.477-4.477 4.482 4.482 0 0 1 4.478 4.477 4.482 4.482 0 0 1-4.478 4.477 4.482 4.482 0 0 1-4.477-4.477z" fill="#ED9D1A" mask="url(#d)"/></g></g></svg>