<svg xmlns="http://www.w3.org/2000/svg" width="75" height="21" viewBox="0 0 75 21">
    <g fill="none" fill-rule="nonzero">
        <path fill="#253B80" d="M9.758.66H4.022a.797.797 0 0 0-.788.673L.914 16.042a.478.478 0 0 0 .473.551h2.739a.797.797 0 0 0 .787-.673l.626-3.967a.796.796 0 0 1 .787-.674H8.14c3.779 0 5.96-1.828 6.529-5.451.257-1.585.01-2.83-.731-3.703C13.123 1.167 11.677.66 9.758.66zm.661 5.372c-.313 2.059-1.886 2.059-3.406 2.059h-.866l.607-3.844a.478.478 0 0 1 .472-.404h.397c1.036 0 2.013 0 2.518.59.301.353.393.876.278 1.6zM26.903 5.966h-2.746a.478.478 0 0 0-.473.404l-.121.768-.192-.279c-.595-.863-1.92-1.151-3.244-1.151-3.036 0-5.628 2.299-6.133 5.524-.263 1.608.11 3.146 1.023 4.22.837.985 2.035 1.396 3.46 1.396 2.446 0 3.802-1.572 3.802-1.572l-.123.763a.478.478 0 0 0 .472.554h2.474a.797.797 0 0 0 .787-.674l1.485-9.401a.476.476 0 0 0-.47-.552zm-3.828 5.346c-.265 1.57-1.51 2.623-3.1 2.623-.797 0-1.434-.256-1.844-.74-.406-.482-.56-1.168-.43-1.93.247-1.557 1.513-2.644 3.077-2.644.78 0 1.414.259 1.832.748.419.494.585 1.183.465 1.943zM41.532 5.966h-2.76a.8.8 0 0 0-.66.35l-3.807 5.607-1.614-5.388a.8.8 0 0 0-.765-.569h-2.712a.478.478 0 0 0-.454.633l3.04 8.922-2.858 4.035a.478.478 0 0 0 .39.755h2.757a.796.796 0 0 0 .655-.343l9.18-13.251a.478.478 0 0 0-.392-.75z"/>
        <path fill="#179BD7" d="M50.67.66h-5.736a.797.797 0 0 0-.787.673l-2.32 14.709a.477.477 0 0 0 .472.551h2.944c.273 0 .507-.2.55-.47l.658-4.17a.796.796 0 0 1 .787-.674h1.815c3.78 0 5.959-1.828 6.53-5.451.257-1.585.01-2.83-.733-3.703C54.036 1.167 52.59.66 50.67.66zm.662 5.372c-.312 2.059-1.885 2.059-3.406 2.059h-.865l.608-3.844a.476.476 0 0 1 .471-.404h.397c1.035 0 2.013 0 2.518.59.3.353.392.876.277 1.6zM67.816 5.966H65.07a.476.476 0 0 0-.472.404l-.121.768-.193-.279c-.595-.863-1.92-1.151-3.244-1.151-3.035 0-5.627 2.299-6.131 5.524-.262 1.608.11 3.146 1.022 4.22.839.985 2.035 1.396 3.46 1.396 2.445 0 3.801-1.572 3.801-1.572l-.122.763a.478.478 0 0 0 .473.554h2.473a.797.797 0 0 0 .787-.674l1.485-9.401a.479.479 0 0 0-.473-.552zm-3.83 5.346c-.262 1.57-1.51 2.623-3.098 2.623-.796 0-1.435-.256-1.844-.74-.406-.482-.559-1.168-.432-1.93.25-1.557 1.514-2.644 3.079-2.644.78 0 1.414.259 1.831.748.42.494.587 1.183.465 1.943zM71.054 1.064L68.7 16.042a.477.477 0 0 0 .471.551h2.367a.796.796 0 0 0 .787-.673l2.322-14.708a.478.478 0 0 0-.471-.552h-2.65a.48.48 0 0 0-.472.404z"/>
    </g>
</svg>
