<svg width="252" height="197" viewBox="0 0 252 197" xmlns="http://www.w3.org/2000/svg"><title>4EB9F39C-7229-4EA0-B857-33E585549C28</title><path d="M98.57 183.415c-23.366 21.69-63.157 15.955-81.787-7.011C-5.267 149.279-9.67 97.87 28.744 51.884 47.798 29.073 70.761 11.778 97.609 0l12.383 19.912c-38.193 18.479-66.74 43.533-70.785 85.538 17.232 0 31.53-.624 44.264 3.926 14.498 5.18 23.305 14.786 26.919 25.801 5.733 17.248 2.954 34.522-11.82 48.238zm138.479 0c-23.365 21.69-63.156 15.955-81.787-7.011-22.05-27.125-26.452-78.534 11.962-124.52C186.278 29.073 209.24 11.778 236.089 0l12.383 19.912c-38.193 18.479-66.74 43.533-70.785 85.538 17.232 0 31.53-.624 44.264 3.926 14.498 5.18 23.304 14.786 26.919 25.801 5.733 17.248 2.954 34.522-11.821 48.238z" fill="#FFF" fill-rule="evenodd" fill-opacity=".1"/></svg>