<svg width="52" height="52" viewBox="0 0 52 52" xmlns="http://www.w3.org/2000/svg"><title>FA9FE1C5-CFEC-45AE-8966-C398860E7B23</title><g transform="translate(1 1)" fill="none" fill-rule="evenodd"><circle stroke-opacity=".2" stroke="#FFF" cx="25" cy="25" r="25"/><path d="M33.255 21.892c-.62.276-1.239.482-1.927.55a3.662 3.662 0 0 0 1.514-1.857c-.688.413-1.376.688-2.133.826a3.33 3.33 0 0 0-2.476-1.1 3.376 3.376 0 0 0-3.37 3.37c0 .275 0 .55.068.757a9.498 9.498 0 0 1-7.016-3.577c-.344.55-.482 1.1-.482 1.72 0 1.169.62 2.2 1.514 2.82-.55 0-1.1-.138-1.514-.413v.069c0 1.65 1.17 3.026 2.683 3.302-.275.068-.55.137-.894.137-.207 0-.413 0-.62-.069a3.261 3.261 0 0 0 3.165 2.34c-1.17.893-2.614 1.444-4.196 1.444-.275 0-.55 0-.826-.07a9.629 9.629 0 0 0 5.16 1.514c6.26 0 9.63-5.159 9.63-9.63v-.413c.688-.481 1.238-1.1 1.72-1.72z" fill-opacity=".4" fill="#FFF"/></g></svg>