<svg xmlns="http://www.w3.org/2000/svg" xmlns:xlink="http://www.w3.org/1999/xlink" width="1600" height="697" viewBox="0 0 1600 697">
    <defs>
        <path id="a" d="M0 0h1600v737H0z"/>
        <linearGradient id="b" x1="76.02%" x2="23.033%" y1="22.073%" y2="81.108%">
            <stop offset="0%" stop-color="#0162D2"/>
            <stop offset="48.607%" stop-color="#5751CC"/>
            <stop offset="100%" stop-color="#B240C5"/>
        </linearGradient>
        <path id="d" d="M-729.44-97.946c86.891-87.412 194.312-131.118 322.262-131.118 191.924 0 240.584 79.758 390.725 79.758 150.142 0 231.584-147.023 490.017-147.023s217.038 99.191 468.56 99.191c251.523 0 208.46-117.785 524.552-127.957 316.093-10.172 301.328 106.969 576.987 96.031C2319.32-240 2361.576-430 2722.4-430c240.55 0 303.958-4.79 190.223-14.367V656.507H-805.354l75.914-754.453z"/>
    </defs>
    <g fill="none" fill-rule="evenodd">
        <mask id="c" fill="#fff">
            <use xlink:href="#a"/>
        </mask>
        <path fill="url(#b)" d="M-646.29-192.414c86.892-87.412 194.313-131.117 322.262-131.117 191.925 0 240.584 79.758 390.726 79.758 150.141 0 231.583-147.024 490.016-147.024s217.038 99.192 468.56 99.192c251.523 0 208.46-117.786 524.553-127.957 316.093-10.172 301.328 106.968 576.986 96.03 275.659-10.937 317.914-200.937 678.74-200.937 240.55 0 303.957-4.789 190.221-14.367V562.04H-722.203l75.913-754.453z" mask="url(#c)" transform="scale(1 -1) rotate(16 1246.72 0)"/>
        <use fill="url(#b)" fill-opacity=".1" transform="scale(1 -1) rotate(16 1835.741 0)" xlink:href="#d"/>
    </g>
</svg>
