<svg xmlns="http://www.w3.org/2000/svg" width="32" height="40" viewBox="0 0 32 40">
    <g fill="none" fill-rule="evenodd">
        <path fill="#CEE4FE" d="M29.6 1.6h-.8V36a.8.8 0 0 1-.8.8H1.6v.8a.8.8 0 0 0 .8.8h27.2a.8.8 0 0 0 .8-.8V2.4a.8.8 0 0 0-.8-.8z"/>
        <path fill="#157EF9" fill-rule="nonzero" d="M29.6 0H2.4A2.4 2.4 0 0 0 0 2.4v35.2A2.4 2.4 0 0 0 2.4 40h27.2a2.4 2.4 0 0 0 2.4-2.4V2.4A2.4 2.4 0 0 0 29.6 0zm.8 37.6a.8.8 0 0 1-.8.8H2.4a.8.8 0 0 1-.8-.8V2.4a.8.8 0 0 1 .8-.8h27.2a.8.8 0 0 1 .8.8v35.2z"/>
        <path fill="#157EF9" d="M26.4 6.4H5.6a.8.8 0 1 0 0 1.6h20.8a.8.8 0 1 0 0-1.6z"/>
        <circle cx="8" cy="16" r="1.6" fill="#B040C4"/>
        <circle cx="16" cy="16" r="1.6" fill="#B040C4"/>
        <circle cx="24" cy="16" r="1.6" fill="#B040C4"/>
        <circle cx="8" cy="24" r="1.6" fill="#B040C4"/>
        <circle cx="16" cy="24" r="1.6" fill="#B040C4"/>
        <circle cx="24" cy="24" r="1.6" fill="#B040C4"/>
        <circle cx="8" cy="32" r="1.6" fill="#B040C4"/>
        <circle cx="16" cy="32" r="1.6" fill="#B040C4"/>
        <circle cx="24" cy="32" r="1.6" fill="#B040C4"/>
    </g>
</svg>
