<svg xmlns="http://www.w3.org/2000/svg" width="40" height="40" viewBox="0 0 40 40">
    <g fill="none" fill-rule="evenodd">
        <path fill="#CEE4FE" d="M35.112 17.48a2.376 2.376 0 0 1-1.62-1.605 14.069 14.069 0 0 0-1.034-2.509 2.374 2.374 0 0 1 .016-2.272l1.65-2.976-2.244-2.241-1.504.835c.003.163.024.323.024.488.217 12.59-9.81 22.975-22.4 23.2-.427 0-.845-.042-1.266-.066l-.857 1.546 2.243 2.243 2.976-1.65c.35-.194.746-.297 1.147-.297.393 0 .78.097 1.127.282.8.425 1.638.77 2.505 1.033.776.232 1.381.843 1.605 1.621l.942 3.288h3.156l.944-3.288a2.376 2.376 0 0 1 1.601-1.62 13.963 13.963 0 0 0 2.507-1.034c.347-.185.734-.281 1.127-.282.402 0 .797.102 1.149.296l2.976 1.651 2.243-2.243-1.651-2.976a2.374 2.374 0 0 1-.016-2.275c.425-.8.771-1.64 1.035-2.507a2.376 2.376 0 0 1 1.62-1.602l3.287-.942v-3.156l-3.288-.942z"/>
        <path fill="#157EF9" fill-rule="nonzero" d="M38.842 16.883l-3.29-.942a.782.782 0 0 1-.531-.53 15.626 15.626 0 0 0-1.152-2.793.78.78 0 0 1 .003-.75l1.651-2.972a1.6 1.6 0 0 0-.269-1.907l-2.241-2.245a1.598 1.598 0 0 0-1.909-.267l-2.976 1.651a.77.77 0 0 1-.747 0 15.552 15.552 0 0 0-2.792-1.152.784.784 0 0 1-.53-.528l-.944-3.288A1.6 1.6 0 0 0 21.58 0h-3.157a1.6 1.6 0 0 0-1.539 1.16l-.942 3.286a.784.784 0 0 1-.53.532c-.966.292-1.9.678-2.792 1.152a.771.771 0 0 1-.749 0L8.896 4.475a1.598 1.598 0 0 0-1.907.267L4.746 6.987a1.6 1.6 0 0 0-.27 1.909l1.652 2.976a.78.78 0 0 1 0 .747 15.56 15.56 0 0 0-1.152 2.792.782.782 0 0 1-.53.53l-3.288.944A1.6 1.6 0 0 0 0 18.42v3.157a1.6 1.6 0 0 0 1.16 1.539l3.286.942a.78.78 0 0 1 .532.53 15.64 15.64 0 0 0 1.152 2.793.778.778 0 0 1-.002.748l-1.651 2.974a1.6 1.6 0 0 0 .267 1.907l2.243 2.243a1.6 1.6 0 0 0 1.909.268l2.976-1.65a.771.771 0 0 1 .747 0c.891.474 1.826.86 2.792 1.152a.784.784 0 0 1 .53.53l.944 3.288A1.6 1.6 0 0 0 18.42 40h3.157a1.6 1.6 0 0 0 1.539-1.16l.94-3.286a.78.78 0 0 1 .532-.532c.966-.292 1.9-.678 2.792-1.152a.802.802 0 0 1 .376-.094c.13 0 .259.033.373.096l2.974 1.651a1.6 1.6 0 0 0 1.907-.269l2.243-2.243a1.6 1.6 0 0 0 .27-1.907l-1.652-2.976a.778.778 0 0 1-.002-.747c.474-.892.86-1.828 1.152-2.794a.784.784 0 0 1 .532-.53l3.288-.94A1.6 1.6 0 0 0 40 21.577v-3.155a1.6 1.6 0 0 0-1.158-1.539zm-.442 4.695l-3.288.944a2.376 2.376 0 0 0-1.62 1.6 14.045 14.045 0 0 1-1.034 2.508 2.374 2.374 0 0 0 .016 2.276l1.65 2.976-2.244 2.241-2.976-1.65a2.373 2.373 0 0 0-2.275-.015c-.8.425-1.64.77-2.506 1.033a2.376 2.376 0 0 0-1.603 1.623l-.942 3.286h-3.156l-.944-3.288a2.378 2.378 0 0 0-1.603-1.62 13.958 13.958 0 0 1-2.505-1.034 2.413 2.413 0 0 0-1.127-.282c-.402 0-.797.102-1.149.298l-2.976 1.65-2.241-2.244 1.65-2.976c.39-.705.396-1.561.015-2.272-.424-.8-.77-1.64-1.033-2.507a2.374 2.374 0 0 0-1.621-1.603L1.6 21.578v-3.156l3.286-.944a2.376 2.376 0 0 0 1.623-1.6 14.01 14.01 0 0 1 1.032-2.507 2.373 2.373 0 0 0-.015-2.277l-1.65-2.976L8.12 5.877l2.974 1.65a2.374 2.374 0 0 0 2.276.015c.8-.424 1.639-.77 2.505-1.033a2.376 2.376 0 0 0 1.605-1.621l.94-3.288h3.158l.944 3.288a2.376 2.376 0 0 0 1.6 1.62c.867.262 1.706.608 2.507 1.033.347.185.734.282 1.128.283.402 0 .797-.102 1.149-.296l2.976-1.651 2.243 2.243-1.651 2.974a2.374 2.374 0 0 0-.016 2.272c.424.801.77 1.642 1.033 2.51a2.376 2.376 0 0 0 1.621 1.604l3.288.942v3.156z"/>
        <path fill="#B040C4" fill-rule="nonzero" d="M20 11.2a8.8 8.8 0 1 0 8.8 8.8 8.81 8.81 0 0 0-8.8-8.8zm0 16a7.2 7.2 0 1 1 0-14.4 7.2 7.2 0 0 1 0 14.4z"/>
    </g>
</svg>
