<svg xmlns="http://www.w3.org/2000/svg" xmlns:xlink="http://www.w3.org/1999/xlink" width="214" height="214" viewBox="0 0 214 214">
    <defs>
        <circle id="b" cx="29" cy="29" r="29"/>
        <filter id="a" width="567.2%" height="567.2%" x="-233.6%" y="-195.7%" filterUnits="objectBoundingBox">
            <feOffset dy="22" in="SourceAlpha" result="shadowOffsetOuter1"/>
            <feGaussianBlur in="shadowOffsetOuter1" result="shadowBlurOuter1" stdDeviation="41.5"/>
            <feColorMatrix in="shadowBlurOuter1" values="0 0 0 0 0.145098039 0 0 0 0 0.160784314 0 0 0 0 0.258823529 0 0 0 0.26 0"/>
        </filter>
    </defs>
    <g fill="none" fill-rule="evenodd">
        <g transform="translate(78 56)">
            <use fill="#000" filter="url(#a)" xlink:href="#b"/>
            <use fill="#FFF" xlink:href="#b"/>
        </g>
        <path fill="#E8E5FE" d="M106.716 71.382c-1.1.003-2.196.131-3.269.381 4.613 1.05 8.476 4.283 10.428 8.724a15.938 15.938 0 0 1-.509 13.849h6.538a15.94 15.94 0 0 0-.252-15.362c-2.709-4.715-7.627-7.601-12.936-7.592z"/>
        <path fill="#8F45C4" fill-rule="nonzero" d="M106.716 70.032c-5.91-.01-11.365 3.282-14.257 8.605-2.893 5.323-2.772 11.845.316 17.05h27.882c3.088-5.205 3.21-11.727.317-17.05s-8.347-8.615-14.258-8.605zm13.188 24.304H93.53c-3.465-6.532-1.95-14.684 3.609-19.429 5.559-4.744 13.598-4.744 19.157 0 5.56 4.745 7.074 12.897 3.61 19.429z"/>
        <path fill="#8F45C4" fill-rule="nonzero" d="M112.726 83.8l-5.169 5.338a1.942 1.942 0 0 0-2.473.658 2.094 2.094 0 0 0 .214 2.629 1.933 1.933 0 0 0 2.546.221c.787-.576 1.056-1.656.637-2.554l5.17-5.337a.69.69 0 0 0-.009-.947.64.64 0 0 0-.916-.008zm-6.01 7.835a.665.665 0 0 1-.653-.675c0-.372.292-.675.653-.675.361 0 .654.303.654.675a.665.665 0 0 1-.654.675z"/>
        <path fill="#8F45C4" d="M106.716 73.848c-6.973.008-12.625 5.874-12.632 13.112 0 .345.27.625.601.625.333 0 .602-.28.602-.625 0-6.552 5.117-11.863 11.43-11.863 6.312 0 11.429 5.311 11.429 11.863 0 .345.269.625.601.625.332 0 .602-.28.602-.625-.008-7.238-5.659-13.104-12.633-13.112z"/>
    </g>
</svg>
