<svg xmlns="http://www.w3.org/2000/svg" width="39" height="29" viewBox="0 0 39 29">
    <g fill="none" fill-rule="evenodd">
        <path fill="#CEE4FE" d="M19.77 1.526a17.788 17.788 0 0 0-3.847.43c5.427 1.188 9.973 4.842 12.27 9.863a17.384 17.384 0 0 1-.6 15.655h7.693a17.402 17.402 0 0 0-.296-17.366c-3.187-5.33-8.975-8.593-15.22-8.582z"/>
        <path fill="#157EF9" fill-rule="nonzero" d="M19.77 0C12.813-.011 6.396 3.71 2.993 9.727A18.919 18.919 0 0 0 3.366 29h32.806a18.919 18.919 0 0 0 .373-19.273C33.14 3.709 26.724-.011 19.769 0zm15.516 27.474H4.252C.176 20.09 1.957 10.874 8.5 5.51c6.541-5.363 16-5.363 22.54 0 6.542 5.363 8.324 14.579 4.247 21.963z"/>
        <path fill="#B040C4" fill-rule="nonzero" d="M26.84 15.564l-6.082 6.033a2.34 2.34 0 0 0-2.91.745 2.297 2.297 0 0 0 .253 2.971 2.343 2.343 0 0 0 2.995.25 2.3 2.3 0 0 0 .75-2.887l6.082-6.033a.759.759 0 0 0-.01-1.07.774.774 0 0 0-1.078-.01zm-7.07 8.857a.766.766 0 0 1-.77-.763c0-.422.344-.763.77-.763.424 0 .768.341.768.763a.766.766 0 0 1-.769.763z"/>
        <path fill="#157EF9" d="M19.77 5.053C11.955 5.06 5.623 11.377 5.614 19.17a.673.673 0 0 0 1.348 0c0-7.054 5.734-12.773 12.806-12.773 7.073 0 12.806 5.719 12.806 12.773a.673.673 0 0 0 1.348 0c-.008-7.793-6.34-14.11-14.154-14.117z"/>
    </g>
</svg>
