<svg xmlns="http://www.w3.org/2000/svg" width="159" height="28" viewBox="0 0 159 28">
    <g fill="#FFF" fill-rule="evenodd">
        <text font-family="Calluna-Semibold, Calluna" font-size="24.829" font-weight="500">
            <tspan x="45.382" y="20.98">LendSpace</tspan>
        </text>
        <path d="M31.302.966a.673.673 0 0 0-.456-.498 2.352 2.352 0 0 0-1.235.088S2.13 10.434.56 11.527c-.338.236-.451.373-.507.534-.272.784.573 1.12.573 1.12L7.71 15.49c.12.021.243.014.36-.021C9.68 14.45 24.273 5.23 25.121 4.922c.13-.04.231 0 .205.098-.337 1.182-12.949 12.385-13.018 12.453a.261.261 0 0 0-.094.232l-.662 6.915s-.277 2.153 1.876 0a60.333 60.333 0 0 1 3.723-3.408c2.436 1.682 5.056 3.542 6.186 4.515.384.372.903.572 1.438.553a1.615 1.615 0 0 0 1.373-1.22s5.005-20.154 5.172-22.854c.017-.261.04-.434.042-.615.008-.21-.012-.42-.061-.625z"/>
    </g>
</svg>
