<svg xmlns="http://www.w3.org/2000/svg" xmlns:xlink="http://www.w3.org/1999/xlink" width="214" height="214" viewBox="0 0 214 214">
    <defs>
        <circle id="b" cx="29" cy="29" r="29"/>
        <filter id="a" width="567.2%" height="567.2%" x="-233.6%" y="-195.7%" filterUnits="objectBoundingBox">
            <feOffset dy="22" in="SourceAlpha" result="shadowOffsetOuter1"/>
            <feGaussianBlur in="shadowOffsetOuter1" result="shadowBlurOuter1" stdDeviation="41.5"/>
            <feColorMatrix in="shadowBlurOuter1" values="0 0 0 0 0.145098039 0 0 0 0 0.160784314 0 0 0 0 0.258823529 0 0 0 0.26 0"/>
        </filter>
    </defs>
    <g fill="none" fill-rule="evenodd">
        <g transform="translate(78 56)">
            <use fill="#000" filter="url(#a)" xlink:href="#b"/>
            <use fill="#FFF" xlink:href="#b"/>
        </g>
        <path fill="#1EBF9C" fill-opacity=".2" d="M97.247 99.873h-2.704v-1.989l2.704-2.651zM106.227 99.873h-2.704v-8.617l2.704-2.652zM115.422 99.873h-2.704V84.627l2.704-2.651z"/>
        <path fill="#10AF8C" d="M96.49 91.256h-1.298c-1.075 0-1.947.89-1.947 1.988v5.303c0 1.098.872 1.989 1.947 1.989h1.298c1.076 0 1.948-.89 1.948-1.989v-5.303c0-1.098-.872-1.988-1.948-1.988zm.65 7.291c0 .366-.291.663-.65.663h-1.298a.656.656 0 0 1-.65-.663v-5.303c0-.366.292-.663.65-.663h1.298c.359 0 .65.297.65.663v5.303zM105.578 84.627h-1.299c-1.075 0-1.947.89-1.947 1.989v11.931c0 1.098.872 1.989 1.947 1.989h1.299c1.075 0 1.947-.89 1.947-1.989V86.616c0-1.099-.872-1.989-1.947-1.989zm.649 13.92c0 .366-.29.663-.65.663h-1.298a.656.656 0 0 1-.649-.663V86.616c0-.366.291-.663.65-.663h1.298c.358 0 .649.297.649.663v11.931zM114.665 76.673h-1.298c-1.076 0-1.947.89-1.947 1.988v19.886c0 1.098.871 1.989 1.947 1.989h1.298c1.076 0 1.947-.89 1.947-1.989V78.661c0-1.098-.871-1.988-1.947-1.988zm.65 21.874c0 .366-.291.663-.65.663h-1.298a.656.656 0 0 1-.65-.663V78.661c0-.366.291-.662.65-.662h1.298c.359 0 .65.296.65.662v19.886zM117.908 68.042a.674.674 0 0 0-.031-.159.69.69 0 0 0-.022-.092.673.673 0 0 0-.064-.097.652.652 0 0 0-.082-.114l-.006-.015a.627.627 0 0 0-.086-.053.612.612 0 0 0-.12-.073.61.61 0 0 0-.142-.029.596.596 0 0 0-.093-.017h-5.193a.656.656 0 0 0-.65.663c0 .366.291.663.65.663h3.679c-9.143 9.558-23.308 17.231-23.454 17.31a.663.663 0 0 0-.38.565.667.667 0 0 0 .312.606.638.638 0 0 0 .67.002c.151-.08 14.419-7.809 23.716-17.49v3.647c0 .366.291.662.65.662.358 0 .649-.296.649-.662v-5.303l-.003-.014z"/>
    </g>
</svg>
