<svg xmlns="http://www.w3.org/2000/svg" width="40" height="39" viewBox="0 0 40 39">
    <g fill="none" fill-rule="evenodd">
        <path fill="#CEE4FE" d="M35.2 14.2v20H.8v2.4a.8.8 0 0 0 .8.8h36.8V14.2h-3.2z"/>
        <path fill="#B040C4" d="M14.4 26.2a6.04 6.04 0 0 0 5.6 6.4 6.04 6.04 0 0 0 5.6-6.4 6.04 6.04 0 0 0-5.6-6.4 6.04 6.04 0 0 0-5.6 6.4zm9.6 0a4.46 4.46 0 0 1-4 4.8 4.46 4.46 0 0 1-4-4.8 4.46 4.46 0 0 1 4-4.8 4.46 4.46 0 0 1 4 4.8zM31.2 18.2a.8.8 0 1 0 0 1.6h3.2a.8.8 0 1 0 0-1.6h-3.2zM5.6 32.6a.8.8 0 1 0 0 1.6h3.2a.8.8 0 1 0 0-1.6H5.6z"/>
        <path fill="#157EF9" d="M39.2 13.4a.8.8 0 0 0-.8.8v23.2H1.6V15H32a4.8 4.8 0 0 0 0-9.6H17.131l3.435-3.435a.8.8 0 1 0-1.13-1.131l-4.8 4.8a.8.8 0 0 0 0 1.13l4.8 4.8a.8.8 0 1 0 1.129-1.13L17.13 7H32a3.2 3.2 0 1 1 0 6.4H1.6A1.6 1.6 0 0 0 0 15v22.4A1.6 1.6 0 0 0 1.6 39h36.8a1.6 1.6 0 0 0 1.6-1.6V14.2a.8.8 0 0 0-.8-.8z"/>
    </g>
</svg>
