<svg xmlns="http://www.w3.org/2000/svg" width="39" height="39" viewBox="0 0 39 39">
    <g fill="none" fill-rule="evenodd">
        <path fill="#CEE4FE" d="M23.67 4.73A13.578 13.578 0 0 1 4.73 23.67 13.586 13.586 0 1 0 23.67 4.73z"/>
        <path fill="#B040C4" d="M23.218 10.451l-8.498 9.03-4.784-4.315a.8.8 0 0 0-1.072 1.188l5.365 4.84a.8.8 0 0 0 1.12-.045l9.033-9.6a.8.8 0 1 0-1.164-1.098z"/>
        <path fill="#157EF9" fill-rule="nonzero" d="M27.082 25.95c5.534-6.148 5.163-15.586-.838-21.28-6-5.695-15.446-5.57-21.295.279-5.85 5.85-5.974 15.294-.28 21.295 5.695 6.001 15.133 6.372 21.281.838l11.685 11.684a.8.8 0 1 0 1.131-1.132L27.082 25.95zM15.8 29.4c-7.511 0-13.6-6.089-13.6-13.6 0-7.511 6.089-13.6 13.6-13.6 7.511 0 13.6 6.089 13.6 13.6-.009 7.507-6.093 13.591-13.6 13.6z"/>
    </g>
</svg>
