<svg xmlns="http://www.w3.org/2000/svg" width="36" height="40" viewBox="0 0 36 40">
    <g fill="none" fill-rule="evenodd">
        <path fill="#CEE4FE" d="M29.143 1.74v12.173c0 7.38-8.892 19.13-16.286 19.13a11.455 11.455 0 0 1-6.531-2.575C9.559 34.803 13.994 38.26 18 38.26c7.394 0 16.286-11.75 16.286-19.13V1.738h-5.143z"/>
        <path fill="#157EF9" fill-rule="nonzero" d="M0 0v19.13C0 27.174 9.322 40 18 40s18-12.826 18-20.87V0H0zm34.286 19.13c0 7.381-8.892 19.13-16.286 19.13-7.394 0-16.286-11.749-16.286-19.13V1.74h32.572v17.39z"/>
        <path fill="#B040C4" d="M18 34.783c.473 0 .857-.39.857-.87s-.384-.87-.857-.87c-5.057 0-11.143-8.01-11.143-13.043V6.957h7.714c.474 0 .858-.39.858-.87s-.384-.87-.858-.87H6a.863.863 0 0 0-.857.87V20c0 5.972 6.771 14.783 12.857 14.783z"/>
    </g>
</svg>
