<svg width="53" height="53" viewBox="0 0 53 53" fill="none" xmlns="http://www.w3.org/2000/svg">
<path d="M50.7917 39.7503C50.7917 41.4066 50.3279 42.9745 49.5108 44.2995C49.0471 45.0945 48.4508 45.8012 47.7663 46.3753C46.2204 47.7666 44.1887 48.5837 41.9583 48.5837C39.2642 48.5837 36.8571 47.3691 35.2671 45.47C35.2229 45.4037 35.1567 45.3595 35.1125 45.2933C34.8475 44.9841 34.6046 44.6528 34.4058 44.2995C33.5888 42.9745 33.125 41.4066 33.125 39.7503C33.125 36.9678 34.4058 34.4724 36.4375 32.8603C37.9612 31.6458 39.8825 30.917 41.9583 30.917C44.1667 30.917 46.1542 31.7119 47.7 33.059C47.965 33.2578 48.2079 33.5008 48.4287 33.7437C49.8862 35.3337 50.7917 37.4316 50.7917 39.7503Z" stroke="#8B9C8B" stroke-width="1.5" stroke-miterlimit="10" stroke-linecap="round" stroke-linejoin="round"/>
<path d="M45.2488 39.7051H38.668" stroke="#8B9C8B" stroke-width="1.5" stroke-miterlimit="10" stroke-linecap="round" stroke-linejoin="round"/>
<path d="M41.957 36.4814V43.0843" stroke="#8B9C8B" stroke-width="1.5" stroke-miterlimit="10" stroke-linecap="round" stroke-linejoin="round"/>
<path d="M7 16.4307L26.4996 27.7152L45.8667 16.4968" stroke="#8B9C8B" stroke-width="1.5" stroke-linecap="round" stroke-linejoin="round"/>
<path d="M26.5 47.723V27.6934" stroke="#8B9C8B" stroke-width="1.5" stroke-linecap="round" stroke-linejoin="round"/>
<path d="M47.7215 20.2507V32.75C47.7215 32.8604 47.7215 32.9486 47.6994 33.0591C46.1536 31.712 44.1661 30.917 41.9578 30.917C39.8819 30.917 37.9607 31.6458 36.4369 32.8604C34.4053 34.4725 33.1244 36.9679 33.1244 39.7504C33.1244 41.4066 33.5882 42.9745 34.4053 44.2995C34.604 44.6529 34.8469 44.9841 35.1119 45.2933L31.0707 47.5237C28.5532 48.9371 24.4457 48.9371 21.9282 47.5237L10.1357 40.987C7.46359 39.5074 5.27734 35.7975 5.27734 32.75V20.2507C5.27734 17.2032 7.46359 13.4933 10.1357 12.0137L21.9282 5.47699C24.4457 4.06366 28.5532 4.06366 31.0707 5.47699L42.8632 12.0137C45.5353 13.4933 47.7215 17.2032 47.7215 20.2507Z" stroke="#8B9C8B" stroke-width="1.5" stroke-linecap="round" stroke-linejoin="round"/>
</svg>
