<svg xmlns="http://www.w3.org/2000/svg" width="116.5" height="116.5">
    <path fill="#FFF" fill-rule="evenodd" stroke="#DADEE1" stroke-dasharray="7, 7" d="M58 .5c31.756 0 57.5 25.744 57.5 57.5S89.756 115.5 58 115.5.5 89.756.5 58 26.244.5 58 .5z"/>
    <path fill="#DADEE1" fill-rule="evenodd" d="M79.5 80.5v-1c0-10.477-8.523-19-19-19h-4c-10.477 0-19 8.523-19 19v1h-2v-1c0-10.141 7.226-18.625 16.799-20.577C48.252 56.718 45.5 52.425 45.5 47.5c0-7.169 5.832-13 13-13s13 5.831 13 13c0 4.925-2.753 9.218-6.8 11.423 9.574 1.952 16.8 10.436 16.8 20.577v1h-2zm-10-33c0-6.065-4.935-11-11-11s-11 4.935-11 11 4.935 11 11 11 11-4.935 11-11z"/>
</svg>
