<svg xmlns="http://www.w3.org/2000/svg" width="488" height="445" viewBox="0 0 488 445">
    <g fill="none" fill-rule="nonzero">
        <g fill="#F1F3F5">
            <path d="M345.854 95.608l-.261 53.93 1.892.01.257-53.147 17.34-17.265.17-31.533 18.206.083.008-1.896-20.097-.092-.175 32.644z"/>
            <path d="M372.515 61.908l-.175 32.2-14.58 3.227-.09 27.528 1.893.007.084-26.01 14.577-3.227.17-31.28 13.72 3.55 11.649-7.551-1.028-1.592-10.953 7.098z"/>
            <path d="M384.007 96.067l.142-.493.086-15.347-1.892-.01-.085 15.079-24.532 39.71-.142.493-.166 26.517-20.188-.167-.016 1.897 22.084.182.177-28.15zM382.378 111.717l-.207.589-.084 17.497-9.318 5.232-.177 46.784 9.228 2.702-.08 10.62 1.892.014.091-12.052-9.233-2.704.168-44.25 9.316-5.232.087-18.272 15.754-19.71.207-.589.087-18.05-1.893-.008-.084 17.719z"/>
            <path d="M387.165 150.673l12.594.087.09-18.722 14.514-22.438.153-.511.172-34.705-1.892-.01-.171 34.427-14.515 22.438-.152.512-.082 17.1-12.596-.088-.092 23.579 12.508 6.8-.083 16.088 1.892.01.09-17.223-12.51-6.801z"/>
            <path d="M405.833 102.87l-1.608-1-11.991 19.357-.143.491-.172 17.352 1.892.02.17-17.088zM428.975 102.92l.12-.458.086-15.347-1.892-.01-.085 15.102-17.911 32.138-.12.456-.169 27.694-9.557 2.435.466 1.838 10.975-2.796.175-28.915zM445.224 102.01l-21.998 32.35 1.564 1.068 21.998-32.35zM430.659 133.946l-.017 1.896 10.515.093 10.01-20.322h8.642v-1.897h-9.819l-10.004 20.312z"/>
            <path d="M418.06 141.62l-.01 1.896 37.606.177 10.267-21.203-1.703-.828-9.747 20.129zM448.691 165.157l-28.128-.169-.012 1.897 30.016.18.103-11.926-22.511-.09-9.695-5.965-.99 1.616 9.92 6.104.492.14 20.875.084z"/>
            <path d="M470.677 143.763l-.163 29.505-57.285-.258-.009 1.897 59.176.266.183-33.278-7.25-.11-9.86 15.801 1.605 1.005 9.293-14.893z"/>
            <path d="M433.246 183.123l-10.007 11.335-14.754-.084-.01 1.896 15.612.09 10.007-11.336 50.122.264.09-18.998-1.892-.01-.082 17.102z"/>
            <path d="M452.512 192.436l30.757.172.01-1.897-31.529-.176-11.519 11.185-.174 31.179 1.892.01.17-30.382z"/>
            <path d="M483.19 202.744l-27.087-.087-.006 1.897 27.088.086zM448.681 237.58l-.335.606.05-.37.285-.236zm-18.63 15.74l-.608.217.265-.22.343.002zm21.856-42.035l31.2.18-.01 1.896-29.534-.17-3.39 25.613-19.523 16.194-.608.218-17.254-.088.01-1.896 16.91.085 18.687-15.5 3.512-26.532z"/>
            <path d="M462.048 225.307l21.05.086.007-1.896-21.05-.087zM447.41 253.546l.988 1.617 14.51-8.908.09-13.257-1.892-.013-.083 12.204zM430.041 244.49l.011-1.896-31.658-.18-.178 31.031 1.893.011.167-29.135zM393.46 219.557l29.695.167 6.277 6.929 1.401-1.275-6.835-7.546-32.418-.182-.098 15.928 38.638.536.026-1.897-36.76-.51zM363.623 191.042l.055.326-.056-.158.001-.168zm66.687 11.441l-.01 1.897-66.77-.354.092-12.816-6.155-17.281 1.782-.638 6.211 17.44.055.325-.08 11.083 64.875.344zM384.672 262.72l1.893.011.264-45.068-21.486-.174v-6.74l20.617.083.007-1.896-22.517-.091v10.525l21.476.174z"/>
            <path d="M355.173 210.16l-48.49 24.865.863 1.688 45.715-23.443-.169 26.765 20.965.175-.168 33.149 1.892.01.177-35.04-20.962-.174zM372.336 218.516v14.04h1.892v-14.04zM281.148 190.084l.344-64.75-6.249-5.95-1.303 1.374 5.656 5.385-.346 65 20.21 12.4.489.139 58.23.349.012-1.897-57.968-.347z"/>
            <path d="M294.52 180.935l51.48.248 11.636 10.569 1.27-1.405-11.904-10.813-.63-.245-56.511-.273 17.038 16.73 39.463.175.009-1.896-38.696-.173z"/>
            <path d="M324.284 187.463l-.086 7.412 1.893.022.086-7.412zM290.635 145.884l-1.893-.006-.089 28.325 57.794.355.012-1.896-55.908-.343z"/>
            <path d="M338.252 150.143l.19-44.718-9.699 15.449 1.602 1.01 6.176-9.839-.156 36.724-7.936 2.616-.09 16.726 1.893.01.082-15.361z"/>
            <path d="M330.314 142.561l.098-11.75-16.37-.082 16.378-24.872-1.58-1.045-18.302 27.795 17.966.092-.074 8.829-11.217 7.325-.089 16.555 1.893.01.083-15.533z"/>
            <path d="M301.242 142.905h9.565l-4.14 10.385 1.757.703 5.177-12.984h-14.244l-.094 25.265h8.197v-1.896h-6.297zM347.926 72.078l.159-33.89 26.14.168.012-1.897-28.036-.18-.186 39.704 13.804-10.818.089-15.806-1.892-.01-.084 14.887zM330.67 75.977l-10.523 3.191-.088 22.496-14.528 23.753 1.614.991 14.665-23.979.14-.492.083-21.36 6.73-2.04-.09 15.184 18.749-12.98-1.076-1.561-15.759 10.911z"/>
            <path d="M322.128 65.027l.16-21.717 14.587-1.698-.168 35.64 1.893.01.177-37.78-18.368 2.138-.185 25.02 10.519 1.702.092-16.454-1.892-.01-.08 14.239z"/>
            <path d="M326.48 30.075l32.563.171.01-1.896-33.518-.177-25.562 34.303-.188.563-.173 32.088 1.892.01.171-31.776z"/>
            <path d="M294.916 125.338l1.623.975 16.736-27.99.134-.483.173-32.088-1.892-.01-.172 31.829zM288.829 135.15l1.892.011.086-14.998-.208-.599-13.85-17.279 23.716.16.013-1.896-27.698-.187 16.133 20.127z"/>
            <path d="M287.001 102.13l8.196 7.062 1.233-1.437-8.195-7.063zM273.906 73.2l-.092 23.438 17.979-.645-.068-1.896-16.011.576.08-20.684 32.938-32.946.188-.268 8.873-18.961 16.486-4.506-.498-1.83-17.33 4.737-9.174 19.604z"/>
            <path d="M283.134 76.99l-.085 18.05 1.892.01.086-18.05zM300.896 212.407l27.78.17.011-1.897-29.674-.18-.1 19.337 15.833-9.103-.942-1.645-12.981 7.464zM363.105 285.304l1.893.01.177-32.34-18.201-.086.166-24.512-1.892-.013-.18 26.412 18.205.087zM337.737 243.024l-1.892-.01-.178 36.439 22.17.09.007-1.896-20.275-.083z"/>
            <path d="M336.7 266.726l15.182.086.011-1.897-15.183-.086zM312.38 290.814l.25-44.006 24.702-13.596-.91-1.662-25.678 14.132-.268 47.028h14.489l.177-39.049-1.893-.008-.168 37.161zM311.345 302.15l-.007 1.896 26.14.09v-11.334l17.425.083.009-1.897-19.326-.091v11.337zM267.17 202.563l-.173-.55-8.454-12.033-1.547 1.092 8.28 11.786-.089 21.398 17.766.09 19.504 22.858-.343 66.527 1.892.01.345-66.88-.227-.622-20.295-23.786-16.742-.084z"/>
            <path d="M291.16 210.417l-16.995-.086-.01 1.896 16.995.086z"/>
            <path d="M264.84 145.711l-1.892-.009-.172 38.106.167.543 18.979 27.554 1.557-1.077-18.81-27.31zM265.013 108.304l-1.892-.01-.087 17.353.187.57 9.302 12.564-.085 26.368 1.892.006.086-26.683-.186-.568-9.302-12.564zM215.934 30.763l-.177 39.1 17.166 10.114-.255 33.547 1.892.014.263-34.641-17.169-10.116.168-37.11 13.975-11.336.089-15.795-1.892-.011-.084 14.897z"/>
            <path d="M224.048 124.524l-.087 12.383-19.843-.088-.265 57.74 11.214 12.119-.257 35.724 1.893.013.261-36.475-11.216-12.122.253-55.094 19.84.087.086-12.381 18.55.087.177-40.362-1.893-.008-.168 38.464z"/>
            <path d="M265.006 91.967l-1.706-.82-12.682 26.508-.093.407-.082 22.68-16.91-.082-.01 1.897 18.805.091.089-24.366zM268.126 65.154l-.084 19.87-16.393-.083-.01 1.897 18.287.092.089-20.94 35.151-32.33.25-.378L313.786 10l-1.78-.642-8.29 23.062zM224.474 36.24l-.09 26.023 16.35 7.314.771-1.731-15.224-6.812.082-24.028 15.96-16.654.088-15.725-1.893-.01-.084 14.967z"/>
            <path d="M269.149 56.144l.015-1.896-11.643-.095-.173 21.72h-13.554v1.896h15.431l.173-21.704zM233.517 39.15l1.057 1.573 23.018-15.54.088-20.557-1.892-.009-.084 19.554z"/>
            <path d="M250.795 63.835l-16.357-9.631-.958 1.635 19.185 11.296.195-28.74-14.707 8.301.929 1.653 11.864-6.697zM270.273 29.477l.088-24.765-1.892-.007-.084 23.368-10.781 3.313-.09 14.736 1.891.011.082-13.342zM291.245 27.922l.166-23.12-1.892-.013-.18 25.014 12.345.101 3.858-20.133-1.858-.358-3.561 18.582zM282.439 36.89l-.946-.954h.951l-.005.954zm-1.72-32.1l1.893.011-.168 31.135h7.848l-.005 1.897-15.353-.082v10.902l-11.134-.095.016-1.896 9.225.079V35.844l17.256.092-.005 1.897h-9.75l.177-33.042zM235.598 187.458l11.905 10.726-.09 13.956h10.184v-1.896h-8.279l.083-12.9-11.905-10.726.263-38.63-21.48-.09-.009 1.896 19.583.083zM249.657 149.027l-1.892-.014-.176 24.489 7.644 6.999 1.276-1.4-7.021-6.43z"/>
            <path d="M217.05 189.672l.084-28.616-1.892-.005-.09 30.504 13.798.1.09-30.599-1.893-.005-.084 28.694zM225.32 240.857l-.411-37.524h11.897v-1.896h-13.81l.451 41.303 14.127.1.178-31.73-1.892-.01-.167 29.83zM267.178 261.377l-12.68 3.226-.177 32.473 1.893.01.168-31.006 12.683-3.227.089-27.156-.2-.585-12.508-16.131-1.494 1.164 12.308 15.873zM281.228 266.06l.161-30.844 13.908 18.667-.253 58.898-12.165-.08-.012 1.896 14.061.093.263-61.116-.188-.572-17.477-23.456-.184 35.426-12.25 7.237-.176 24.953 1.893.013.168-23.878z"/>
            <path d="M288.125 268.552l-.155 36.126h-7.857v1.897h9.741l.19-44.095-10.535 15.137-.17.536-.086 13.429 1.892.012.084-13.134zM256.478 255.406l-11.012-.073 3.64-13.195-1.825-.505-4.297 15.58 15.386.102v-15.342l-.087-.399-9.145-19.794-1.717.797 9.057 19.604zM247.155 266.284l-.167 25.123 1.893.013.179-27.021-17.168-.098v8.278h1.892v-6.371z"/>
            <path d="M220.867 286.983l-12.99 36.638 1.783.634 12.547-35.387 20.462-.177v-10.706h-1.892v8.826zM216.697 252.695l19.842.166.016-1.896-21.738-.183-.198 30.339 13.724-19.061-1.535-1.11-10.258 14.248zM227.826 109.08l.095-18.296-25.535-12.12.077-12.103 8.54-.436.263-43.724 9.886-17.487-1.646-.934-10.008 17.7-.122.462-.254 42.18-8.54.436-.096 15.103 25.536 12.12-.078 15.187-10.35-.087-.18 24.057 1.893.014.165-22.158zM203.553 304.495l-.302.69.002-.41.3-.28zm-7.123 35.403l-1.893-.006.088-27.094 8.628-8.023.339-65.062-11.83-3.546.542-1.817 13.188 3.953-.351 67.303-8.626 8.022-.085 26.27zM203.764 209.866l-.082 17.802 1.892.009.09-19.694-14.487-.1-.09 19.698 1.892.008.082-17.797z"/>
            <path d="M180.825 323.36l-.078.555 4.744 29.472 1.868-.302-4.698-29.183 9.883-21.01.09-.4.259-54.15-1.893-.009-.257 53.94zM141.82 91.895l.49-.134 9.317-5.58-.97-1.629-9.091 5.445-51.759-.262-8.624 9.938-49.168-.519-.02 1.897 50.042.527 8.629-9.942z"/>
            <path d="M134.223 79.867l.086-10.726 35.119.165-.165 27.463-6.399 7.056 1.4 1.275 6.643-7.324.246-.633.178-29.724-38.899-.183-.086 10.724-46.46-.259-10.674 14.096-33.825-2.32-.13 1.893 34.845 2.389 10.72-14.156z"/>
            <path d="M70.528 84.941H59.87v1.897h11.772l5.101-9.215-24.116-.094-.007 1.897 20.916.08zM119.486 67.15l-55.557-.259-.009 1.897 55.557.258zM145.459 100.694l23.714 23.52-.085 21.053 1.893.008.087-21.849-22.353-22.17 13.203-6.217.177-26.67-1.892-.013-.169 25.475zM223.198 90l-1.253-1.42-17.658 15.628-.088 26.846 1.893.007.085-25.995zM186.519 159.923l-.181 40.533h10.803l-.539-24.774-1.892.041.497 22.836h-6.969l.165-36.724 11.213.087.178-30.859-1.892-.01-.167 28.958zM205.309 90.151l.019-1.896-9.662-.097-.177 24.72-6.982 7.126.502-83.395 17.568-31.79-1.655-.919-17.685 32.002-.119.454-.531 88.315 10.789-11.011.168-23.587z"/>
            <path d="M187.984 53.812l-.012 1.896 14.489.093.18-22.658-1.892-.016-.165 20.766zM136.54 159.671l-20.193-15.502-1.15 1.506 20.445 15.695.57.196 43.218.267.264-51.872-1.893-.01-.254 49.974z"/>
            <path d="M138.586 151.823l-18.792-18.22-.624-.267-33.504-1.188.08-14.468 10.573-7.646.738-8.708 38.11.597.03-1.897-39.876-.624-.814 9.604-10.649 7.7-.094 17.272 34.976 1.24 19.077 18.498 20.567.09.008-1.897z"/>
            <path d="M122.008 112.016l-31.87.392.025 1.897 31.574-.436 14.37 4.578.595.187 7.049-8.235-1.437-1.235-6.236 7.286zM163.499 124.163l-78.677-1.727-.041 1.896 78.676 1.727z"/>
            <path d="M157.45 144.23l-13.99-.079-9.58-20.3-1.71.81 10.09 21.38 17.067.096.1-13.579-12.16-.094-.015 1.896 10.27.08zM95.98 57.384l-26.7-.172-.013 1.897 27.475.177 17.213-16.711-19.487-.099-.01 1.896 14.849.076zM171.495 46.683l.09-24.793-.183-.563-6.556-8.982-1.528 1.12 6.373 8.73-.081 22.504-45.444-2.068-15.914 17.774 1.409 1.266 15.315-17.105zM178.317 8.894c0 .864-.062 13.904-.167 35.07l-.004.774-.118 23.66-.04 7.751-.014 2.934 1.892.01.015-2.934.039-7.752.118-23.66.004-.774c.105-21.192.168-34.21.168-35.079h-1.893z"/>
            <path d="M179.068 57.277l.05-1.895-46.938-1.237-4.924 10.23 1.704.825 4.393-9.127zM158.387 36.044l-41.915-4.288-.192 1.886 43.317 4.432 5.671-13.738-11.262-3.444-.552 1.814 9.27 2.835zM73.855 129.32l-44.35-4.097.077-15.114a2668.61 2668.61 0 0 1 8.25-.075c4.81-.038 9.545-.066 13.975-.078 6.51-.019 11.934-.003 15.908.053 2.252.032 4.008.076 5.216.134.625.03 1.099.064 1.407.1-.636-.074-.317.006-.317-.81h1.892c0-1.435-.427-1.44-24.112-1.374-4.433.013-9.17.04-13.983.078a3367.746 3367.746 0 0 0-9.188.086l-.93.01-.096 18.719 48.13 4.447.1-15.207-31.457 1.711.102 1.894 29.449-1.602-.073 11.126zM4.232 171.384l-.26 55.237 1.891.01.257-54.458 10.61-10.637.262-37.186-1.892-.013-.256 36.408zM16.302 247.384l.343-68.538-1.892-.01-.343 68.538z"/>
            <path d="M55.39 179.703l-.012-1.897-28.025.18-.086 22.398-11.646-.08-.013 1.896 13.544.093.086-22.422z"/>
            <path d="M50.815 241.53l1.892.012.092-15.596-23.81-.174.167-24.427-1.892-.013-.18 26.322 23.811.175zM47.875 167.576l41.445.264 6.18 11.67-.251 36.612-36.796 1.447.074 1.895 38.602-1.518.265-38.662-.11-.45-6.822-12.883-40.682-.26.173-26.077H35.8v1.896h12.247z"/>
            <path d="M65.433 209.195l-37.305-.172-.009 1.896 38.093.177 9.191-9.198-.008-.404a1178.324 1178.324 0 0 1-.093-5.715 980.097 980.097 0 0 1-.087-9.135c-.034-7.777.07-13.06.333-14.323l-1.852-.387c-.306 1.465-.408 6.687-.373 14.718.013 2.903.044 6.006.087 9.153a1180.243 1180.243 0 0 0 .086 5.322l-8.063 8.068z"/>
            <path d="M86.098 208.31l1.893.008.09-23.006-13.28-.094-.013 1.896 11.393.081zM74.37 196.29l-27.003-.172-.012 1.896 27.002.172zM39.427 152.24l-.172 27.206 1.892.012.172-27.206z"/>
            <path d="M40.243 164.902l-14.58.689.09 1.894 14.579-.689zM104.133 230.206l-43.395-.256-.01 1.897 45.288.267.354-74.446-37.21-.177-12.92-13.487-1.366 1.313 13.477 14.067 36.118.172z"/>
            <path d="M131.56 167.8l1.206-1.46-31.575-26.16-.528-.214-44.945-3.575-.15 1.89 44.648 3.551z"/>
            <path d="M111.118 148.68l-36.147-.172-.008 1.896 36.146.173zM109.998 182.773l-.09 25.625 1.893.007.083-23.728 20.598.085 10.697-11.335 33.32.172.01-1.897-34.14-.176-10.698 11.336z"/>
            <path d="M139.352 186.265l-.058 1.895 40.055 1.252v-10.047h-1.893v8.09zM110.776 220.533l-.016 1.896 11.39.095.086-24.07 54.092.258.009-1.897-55.987-.266-.086 24.063z"/>
            <path d="M181.176 226.545l-48.322-.252.078-16.764 49.261.257.01-1.897-51.155-.266-.095 20.556 52.095.272.106-10.132-32.648-1.883-.109 1.894 30.846 1.779zM168.675 308.532l1.339 1.34 12.697-12.745.347-61.863-1.892-.011-.343 61.085zM95.59 342.435l-.01 1.896 74.36.442.09-14.156 8.53-17.156-1.695-.846-8.626 17.353-.1.416-.08 12.481zM91.19 334.715l1.89-.103-1.685-30.902-51.713-4.696-.17 1.89 50.083 4.547z"/>
            <path d="M82.823 327.445l-9.336 6.346 1.062 1.57 10.16-6.907.095-16.795-34.073-.18-.01 1.897 32.18.17z"/>
            <path d="M74.11 322.291l-13.889-.086-.012 1.896 13.89.086zM18.967 259.93l.714 1.755 21.722-8.872.09-18.335-1.893-.01-.083 17.068z"/>
            <path d="M39.863 243.203l-11.905-.086-.014 1.896 11.905.087zM69.27 248.408V238.31h-1.892v8.912l-33.213 16.219v12.988l-9.583 6.346 1.044 1.582 10.431-6.908v-12.823zM79.115 243.462l-.09 20.829 1.892.008.082-18.932 38.313.173 2.737-14.112-1.857-.362-2.439 12.57z"/>
            <path d="M92.485 254.54l-.011 1.896 45.461.267.091-18.04-1.892-.009-.082 16.142zM170.977 284.079l-9.31 20.545 1.724.784 9.403-20.753.084-.435-2.284-49.99-23.845-.181-.014 1.896 22.05.168zM101.106 323.196l.175-33.51-27.343-.18-.012 1.896 25.453.169-.17 32.586 15.66 11.447.554.182 43.48.174.007-1.896-43.173-.173zM51.84 277.74l.085-10.207 16.693-7.34-.76-1.737-17.815 7.833-.087 10.546-17.574 14.384 28.002.096.007-1.896-22.723-.078z"/>
            <path d="M123.444 265.592l.011-1.896-31.676-.179-3.192 10.55-25.691-.17-.013 1.897 27.105.18 3.192-10.552zM109.305 320.097l1.892.009.177-37.047-15.524-.093-.012 1.897 13.635.081z"/>
            <path d="M159.164 316.902l-48.656-8.982-.342 1.865 48.655 8.982zM103.183 270.846l-.012 1.896 54.517.355.18-24.927-1.892-.013-.166 23.031z"/>
            <path d="M117.5 272.137l-.173 28.252 1.893.011.172-28.251z"/>
            <path d="M117.842 291.51l27.951 18.31 1.035-1.586-27.95-18.312zM162.707 283.312l-44.342-.259-.01 1.897 44.341.258z"/>
            <path d="M143.248 290.111l-1.294 1.384 11.33 10.64.098-17.256-1.892-.01-.074 12.913zM124.056 327.181l.081-15.969-1.892-.01-.091 17.863 30.705.2-13.94-9.851-1.09 1.55 9.008 6.366zM177.536 354.097l.008-1.896-20.442-.092-.177 33.734 1.892.01.167-31.839zM139.493 343.65l-1.893-.01-.09 17.322 11.216 4.098-.17 36.13 1.893.01.175-37.465-11.214-4.098zM116.985 368.796l-.348 72.33 1.893.01.342-71.37 13.262-9.663.887-16.495-1.89-.102-.838 15.594zM105.329 366.506l11.58-12.987-1.411-1.263-11.82 13.254-.24.626-.35 61.106 6.89.1.028-1.895-5.015-.074z"/>
            <path d="M130.18 414.809l.168-34.45-1.892-.009-.177 36.355h7.82l6.473-26.71-1.84-.447-6.121 25.26zM99.993 351.851l-9.748-.086-.017 1.896 9.748.086z"/>
        </g>
        <g fill="#F1F3F5">
            <ellipse cx="427.717" cy="86.674" rx="3.796" ry="3.837"/>
            <ellipse cx="397.61" cy="166.372" rx="3.796" ry="3.837"/>
            <ellipse cx="419.436" cy="165.326" rx="3.796" ry="3.837"/>
            <ellipse cx="417.365" cy="149.892" rx="3.796" ry="3.837"/>
            <path d="M427.459 134.894c0 2.093 1.725 3.837 3.795 3.837s3.796-1.744 3.796-3.837-1.725-3.836-3.796-3.836c-2.07 0-3.795 1.743-3.795 3.836z"/>
            <ellipse cx="421.247" cy="134.894" rx="3.796" ry="3.837"/>
            <path d="M440.916 102.544c0 2.093 1.726 3.837 3.796 3.837s3.796-1.744 3.796-3.837-1.725-3.837-3.796-3.837c-2.07 0-3.796 1.744-3.796 3.837z"/>
            <ellipse cx="459.205" cy="114.664" rx="3.796" ry="3.837"/>
            <ellipse cx="465.589" cy="123.123" rx="3.796" ry="3.837"/>
            <ellipse cx="455.668" cy="158.089" rx="3.796" ry="3.837"/>
            <ellipse cx="410.981" cy="174.133" rx="3.796" ry="3.837"/>
            <path d="M404.08 195.322c0 2.093 1.725 3.837 3.796 3.837 2.07 0 3.795-1.744 3.795-3.837s-1.725-3.837-3.795-3.837c-2.07-.087-3.796 1.657-3.796 3.837z"/>
            <ellipse cx="429.702" cy="203.431" rx="3.796" ry="3.837"/>
            <ellipse cx="429.529" cy="225.841" rx="3.796" ry="3.837"/>
            <ellipse cx="398.559" cy="275.108" rx="3.796" ry="3.837"/>
            <path d="M381.219 262.638c0 2.093 1.725 3.837 3.796 3.837 2.07 0 3.795-1.744 3.795-3.837 0-2.092-1.725-3.836-3.795-3.836s-3.796 1.744-3.796 3.836z"/>
            <ellipse cx="372.678" cy="232.904" rx="3.796" ry="3.837"/>
            <ellipse cx="385.877" cy="209.884" rx="3.796" ry="3.837"/>
            <ellipse cx="429.443" cy="243.542" rx="3.796" ry="3.837"/>
            <ellipse cx="447.3" cy="254.355" rx="3.796" ry="3.837"/>
            <ellipse cx="461.448" cy="233.34" rx="3.796" ry="3.837"/>
            <ellipse cx="482.498" cy="223.399" rx="3.796" ry="3.837"/>
            <ellipse cx="455.496" cy="203.606" rx="3.796" ry="3.837"/>
            <ellipse cx="482.584" cy="204.914" rx="3.796" ry="3.837"/>
            <ellipse cx="483.964" cy="192.357" rx="3.796" ry="3.837"/>
            <ellipse cx="382.082" cy="195.148" rx="3.796" ry="3.837"/>
            <ellipse cx="357.754" cy="173.871" rx="3.796" ry="3.837"/>
            <ellipse cx="336.618" cy="162.797" rx="3.796" ry="3.837"/>
            <ellipse cx="347.315" cy="149.543" rx="3.796" ry="3.837"/>
            <ellipse cx="328.94" cy="122.338" rx="3.796" ry="3.837"/>
            <path d="M342.484 82.314c0 2.093 1.726 3.837 3.796 3.837s3.796-1.744 3.796-3.837c0-2.092-1.725-3.836-3.796-3.836-2.07 0-3.796 1.744-3.796 3.836z"/>
            <ellipse cx="312.032" cy="66.27" rx="3.796" ry="3.837"/>
            <ellipse cx="382.858" cy="46.738" rx="3.796" ry="3.837"/>
            <ellipse cx="398.645" cy="59.207" rx="3.796" ry="3.837"/>
            <ellipse cx="382.685" cy="80.222" rx="3.796" ry="3.837"/>
            <ellipse cx="392.347" cy="139.08" rx="3.796" ry="3.837"/>
            <ellipse cx="398.559" cy="74.292" rx="3.796" ry="3.837"/>
            <ellipse cx="329.285" cy="52.057" rx="3.796" ry="3.837"/>
            <path d="M299.61 127.57c0 2.092 1.725 3.836 3.795 3.836s3.796-1.744 3.796-3.836c0-2.093-1.726-3.837-3.796-3.837s-3.796 1.657-3.796 3.837zM303.146 153.642c0 2.092 1.726 3.836 3.796 3.836s3.796-1.744 3.796-3.836c0-2.093-1.726-3.837-3.796-3.837s-3.796 1.744-3.796 3.837z"/>
            <ellipse cx="317.467" cy="165.936" rx="3.796" ry="3.837"/>
            <path d="M354.476 192.706c0 2.093 1.725 3.837 3.796 3.837 2.07 0 3.795-1.744 3.795-3.837s-1.725-3.837-3.795-3.837-3.71 1.657-3.796 3.837z"/>
            <ellipse cx="328.423" cy="211.628" rx="3.796" ry="3.837"/>
            <ellipse cx="313.326" cy="221.394" rx="3.796" ry="3.837"/>
            <path d="M332.477 232.38c0 2.094 1.726 3.838 3.796 3.838s3.796-1.744 3.796-3.837-1.725-3.837-3.796-3.837c-2.07-.087-3.796 1.657-3.796 3.837z"/>
            <ellipse cx="345.59" cy="226.539" rx="3.796" ry="3.837"/>
            <path d="M359.652 285.92c0 2.093 1.725 3.837 3.796 3.837 2.07 0 3.795-1.744 3.795-3.837s-1.725-3.837-3.795-3.837-3.796 1.744-3.796 3.837zM346.712 266.388c0 2.093 1.725 3.836 3.795 3.836s3.796-1.743 3.796-3.836-1.725-3.837-3.796-3.837c-2.07-.087-3.795 1.657-3.795 3.837z"/>
            <ellipse cx="354.389" cy="278.595" rx="3.796" ry="3.837"/>
            <ellipse cx="353.268" cy="293.506" rx="3.796" ry="3.837"/>
            <ellipse cx="324.282" cy="253.657" rx="3.796" ry="3.837"/>
            <ellipse cx="310.824" cy="303.098" rx="3.796" ry="3.837"/>
            <ellipse cx="279.595" cy="293.07" rx="3.796" ry="3.837"/>
            <path d="M277.438 314.085c0 2.092 1.726 3.836 3.796 3.836s3.796-1.744 3.796-3.836c0-2.093-1.725-3.837-3.796-3.837-2.07 0-3.71 1.744-3.796 3.837z"/>
            <ellipse cx="267.259" cy="300.569" rx="3.796" ry="3.837"/>
            <path d="M251.299 219.563c0 2.093 1.725 3.836 3.796 3.836 2.07 0 3.796-1.743 3.796-3.836s-1.726-3.837-3.796-3.837-3.796 1.657-3.796 3.837zM287.618 211.366c0 2.093 1.725 3.837 3.796 3.837 2.07 0 3.796-1.744 3.796-3.837 0-2.092-1.726-3.836-3.796-3.836s-3.796 1.744-3.796 3.836z"/>
            <ellipse cx="248.107" cy="149.456" rx="3.796" ry="3.837"/>
            <ellipse cx="264.239" cy="145.271" rx="3.796" ry="3.837"/>
            <ellipse cx="271.831" cy="167.07" rx="3.796" ry="3.837"/>
            <ellipse cx="274.074" cy="120.071" rx="3.796" ry="3.837"/>
            <ellipse cx="263.549" cy="108.299" rx="3.796" ry="3.837"/>
            <ellipse cx="289.084" cy="145.881" rx="3.796" ry="3.837"/>
            <path d="M296.072 101.76c0 2.092 1.726 3.836 3.796 3.836s3.796-1.744 3.796-3.837c0-2.092-1.726-3.836-3.796-3.836s-3.796 1.744-3.796 3.836zM279.681 76.995c0 2.093 1.726 3.837 3.796 3.837s3.796-1.744 3.796-3.837-1.726-3.836-3.796-3.836-3.796 1.656-3.796 3.836z"/>
            <ellipse cx="333.254" cy="17.091" rx="3.796" ry="3.837"/>
            <path d="M285.979 4.796c0 2.093 1.725 3.837 3.796 3.837 2.07 0 3.795-1.744 3.795-3.837S291.845.959 289.775.959c-1.985 0-3.71 1.744-3.796 3.837z"/>
            <ellipse cx="268.811" cy="4.709" rx="3.796" ry="3.837"/>
            <path d="M236.979 4.534c0 2.093 1.725 3.837 3.795 3.837s3.796-1.744 3.796-3.837c0-2.092-1.725-3.836-3.796-3.836-2.07 0-3.795 1.744-3.795 3.836zM197.209 33.135c0 2.093 1.725 3.837 3.796 3.837 2.07 0 3.796-1.744 3.796-3.837s-1.726-3.837-3.796-3.837c-1.984-.087-3.71 1.657-3.796 3.837zM174.865 8.894c0 2.093 1.726 3.837 3.796 3.837s3.796-1.744 3.796-3.837-1.725-3.837-3.796-3.837c-2.07 0-3.796 1.744-3.796 3.837zM174.52 79.088c0 2.093 1.726 3.837 3.796 3.837s3.796-1.744 3.796-3.837-1.725-3.837-3.796-3.837c-2.07 0-3.796 1.744-3.796 3.837zM200.918 90.424c0 2.092 1.726 3.836 3.796 3.836s3.796-1.744 3.796-3.836c0-2.093-1.725-3.837-3.796-3.837-2.07 0-3.796 1.744-3.796 3.837zM174.348 111.7c0 2.092 1.725 3.836 3.796 3.836 2.07 0 3.795-1.744 3.795-3.836 0-2.093-1.725-3.837-3.795-3.837s-3.796 1.744-3.796 3.837z"/>
            <ellipse cx="195.57" cy="176.836" rx="3.796" ry="3.837"/>
            <path d="M174.003 180.237c0 2.093 1.725 3.837 3.796 3.837 2.07 0 3.795-1.744 3.795-3.837s-1.725-3.837-3.795-3.837c-2.07-.087-3.796 1.657-3.796 3.837zM200.228 228.457c0 2.093 1.726 3.837 3.796 3.837s3.796-1.744 3.796-3.837-1.725-3.837-3.796-3.837c-2.07 0-3.796 1.744-3.796 3.837zM187.633 228.457c0 2.093 1.726 3.837 3.796 3.837s3.796-1.744 3.796-3.837-1.726-3.837-3.796-3.837c-2.07-.087-3.796 1.657-3.796 3.837z"/>
            <ellipse cx="181.681" cy="209.797" rx="3.796" ry="3.837"/>
            <ellipse cx="175.469" cy="198.287" rx="3.796" ry="3.837"/>
            <path d="M154.679 152.334c0 2.092 1.725 3.836 3.796 3.836 2.07 0 3.795-1.744 3.795-3.836 0-2.093-1.725-3.837-3.795-3.837s-3.796 1.744-3.796 3.837z"/>
            <ellipse cx="147.691" cy="133.935" rx="3.796" ry="3.837"/>
            <ellipse cx="142.946" cy="109.781" rx="3.796" ry="3.837"/>
            <path d="M123.708 64.788c0 2.092 1.726 3.836 3.796 3.836s3.796-1.744 3.796-3.836c0-2.093-1.725-3.837-3.796-3.837-2.07 0-3.796 1.744-3.796 3.837z"/>
            <ellipse cx="116.376" cy="32.699" rx="3.796" ry="3.837"/>
            <path d="M148.295 19.968c0 2.093 1.725 3.837 3.796 3.837 2.07 0 3.796-1.744 3.796-3.837s-1.726-3.836-3.796-3.836-3.796 1.743-3.796 3.836z"/>
            <ellipse cx="150.538" cy="85.192" rx="3.796" ry="3.837"/>
            <path d="M159.165 104.898c0 2.093 1.725 3.837 3.795 3.837s3.796-1.744 3.796-3.837c0-2.092-1.725-3.836-3.796-3.836-2.07 0-3.795 1.744-3.795 3.836zM131.386 100.887c0 2.093 1.726 3.837 3.796 3.837s3.796-1.744 3.796-3.837c0-2.092-1.725-3.836-3.796-3.836-2.07 0-3.796 1.744-3.796 3.836zM55.643 85.192c0 2.093 1.725 3.836 3.796 3.836 2.07 0 3.796-1.743 3.796-3.836s-1.726-3.837-3.796-3.837-3.796 1.657-3.796 3.837z"/>
            <ellipse cx="67.979" cy="58.422" rx="3.796" ry="3.837"/>
            <path d="M107.145 61.387c0 2.093 1.725 3.837 3.796 3.837 2.07 0 3.796-1.744 3.796-3.837s-1.726-3.837-3.796-3.837c-2.07-.087-3.796 1.657-3.796 3.837zM90.064 43.599c0 2.092 1.725 3.836 3.796 3.836 2.07 0 3.796-1.744 3.796-3.836 0-2.093-1.726-3.837-3.796-3.837-2.07-.087-3.796 1.657-3.796 3.837z"/>
            <ellipse cx="43.393" cy="118.85" rx="3.796" ry="3.837"/>
            <path d="M51.243 137.336c0 2.092 1.726 3.836 3.796 3.836s3.796-1.744 3.796-3.836c0-2.093-1.726-3.837-3.796-3.837s-3.796 1.744-3.796 3.837zM106.369 221.481c0 2.093 1.725 3.837 3.795 3.837s3.796-1.744 3.796-3.837-1.725-3.837-3.796-3.837c-2.07 0-3.795 1.657-3.795 3.837z"/>
            <ellipse cx="119.223" cy="231.945" rx="3.796" ry="3.837"/>
            <path d="M146.052 217.296c0 2.092 1.725 3.836 3.796 3.836 2.07 0 3.796-1.744 3.796-3.836 0-2.093-1.726-3.837-3.796-3.837s-3.796 1.744-3.796 3.837z"/>
            <ellipse cx="140.445" cy="188.172" rx="3.796" ry="3.837"/>
            <ellipse cx="74.363" cy="109.217" rx="3.796" ry="3.837"/>
            <ellipse cx="86.441" cy="209.361" rx="3.796" ry="3.837"/>
            <path d="M42.616 197.066c0 2.093 1.726 3.837 3.796 3.837s3.796-1.744 3.796-3.837-1.725-3.837-3.796-3.837c-2.07 0-3.796 1.657-3.796 3.837z"/>
            <ellipse cx="23.983" cy="167.07" rx="3.796" ry="3.837"/>
            <ellipse cx="15.442" cy="125.041" rx="3.796" ry="3.837"/>
            <ellipse cx="14.752" cy="246.507" rx="3.796" ry="3.837"/>
            <path d="M69.256 290.278c0 2.093 1.726 3.837 3.796 3.837s3.796-1.744 3.796-3.837c0-2.092-1.726-3.836-3.796-3.836s-3.796 1.744-3.796 3.836z"/>
            <ellipse cx="67.72" cy="240.49" rx="3.796" ry="3.837"/>
            <path d="M119.05 264.644c0 2.093 1.725 3.837 3.796 3.837 2.07 0 3.796-1.744 3.796-3.837s-1.726-3.837-3.796-3.837-3.796 1.744-3.796 3.837zM152.522 248.948c0 2.093 1.725 3.837 3.796 3.837 2.07 0 3.796-1.744 3.796-3.837 0-2.092-1.726-3.836-3.796-3.836s-3.796 1.656-3.796 3.836z"/>
            <ellipse cx="141.566" cy="290.803" rx="3.796" ry="3.837"/>
            <path d="M158.13 304.929c0 2.093 1.725 3.837 3.795 3.837s3.796-1.744 3.796-3.837-1.725-3.837-3.796-3.837c-2.07 0-3.796 1.744-3.796 3.837z"/>
            <ellipse cx="138.029" cy="238.659" rx="3.796" ry="3.837"/>
            <ellipse cx="62.286" cy="275.718" rx="3.796" ry="3.837"/>
            <path d="M105.851 320.014c0 2.093 1.725 3.837 3.796 3.837 2.07 0 3.796-1.744 3.796-3.837s-1.726-3.837-3.796-3.837-3.796 1.744-3.796 3.837zM35.197 300.482c0 2.093 1.726 3.837 3.796 3.837s3.796-1.744 3.796-3.837-1.725-3.837-3.796-3.837c-2.07 0-3.796 1.657-3.796 3.837zM20.704 283.478c0 2.093 1.726 3.837 3.796 3.837s3.796-1.744 3.796-3.837c0-2.092-1.725-3.836-3.796-3.836-2.07 0-3.796 1.744-3.796 3.836zM24.759 244.065c0 2.093 1.725 3.837 3.796 3.837 2.07 0 3.796-1.744 3.796-3.837 0-2.092-1.726-3.836-3.796-3.836s-3.796 1.744-3.796 3.836z"/>
            <ellipse cx="4.313" cy="226.626" rx="3.796" ry="3.837"/>
            <path d="M47.361 242.06c0 2.092 1.726 3.836 3.796 3.836s3.796-1.744 3.796-3.836c0-2.093-1.726-3.837-3.796-3.837s-3.796 1.657-3.796 3.837zM54.608 218.952c0 2.093 1.725 3.837 3.796 3.837 2.07 0 3.795-1.744 3.795-3.837 0-2.092-1.725-3.836-3.795-3.836s-3.796 1.657-3.796 3.836z"/>
            <ellipse cx="90.15" cy="255.488" rx="3.796" ry="3.837"/>
            <path d="M155.887 335.012c0 2.093 1.725 3.837 3.795 3.837s3.796-1.744 3.796-3.837-1.725-3.837-3.796-3.837c-2.07 0-3.795 1.744-3.795 3.837zM134.233 320.189c0 2.092 1.726 3.836 3.796 3.836s3.796-1.744 3.796-3.836c0-2.093-1.726-3.837-3.796-3.837s-3.796 1.744-3.796 3.837z"/>
            <ellipse cx="117.67" cy="302.051" rx="3.796" ry="3.837"/>
            <path d="M173.313 314.346c0 2.093 1.725 3.837 3.795 3.837s3.796-1.744 3.796-3.837c0-2.092-1.725-3.836-3.796-3.836-2.07 0-3.795 1.744-3.795 3.836zM173.14 353.15c0 2.092 1.725 3.836 3.796 3.836 2.07 0 3.796-1.744 3.796-3.837s-1.726-3.837-3.796-3.837-3.796 1.744-3.796 3.837zM137.253 389.772c0 2.093 1.725 3.837 3.795 3.837s3.796-1.744 3.796-3.837-1.725-3.837-3.796-3.837c-2.07-.087-3.795 1.657-3.795 3.837zM113.184 441.044c0 2.093 1.725 3.837 3.796 3.837 2.07 0 3.795-1.744 3.795-3.837s-1.725-3.837-3.795-3.837-3.796 1.744-3.796 3.837zM105.506 426.308c0 2.092 1.725 3.836 3.796 3.836 2.07 0 3.796-1.744 3.796-3.836 0-2.093-1.726-3.837-3.796-3.837-1.984 0-3.71 1.744-3.796 3.837z"/>
            <ellipse cx="194.707" cy="339.895" rx="3.796" ry="3.837"/>
            <ellipse cx="181.508" cy="237.177" rx="3.796" ry="3.837"/>
            <path d="M106.627 209.448c0 2.093 1.726 3.837 3.796 3.837s3.796-1.744 3.796-3.837-1.725-3.837-3.796-3.837c-2.07 0-3.71 1.657-3.796 3.837z"/>
            <ellipse cx="74.277" cy="175.092" rx="3.796" ry="3.837"/>
            <ellipse cx="55.298" cy="179.103" rx="3.796" ry="3.837"/>
            <ellipse cx="15.183" cy="178.493" rx="3.796" ry="3.837"/>
            <ellipse cx="32.523" cy="141.085" rx="3.796" ry="3.837"/>
            <path d="M27.606 100.364c0 2.093 1.725 3.837 3.796 3.837 2.07 0 3.795-1.744 3.795-3.837s-1.725-3.837-3.795-3.837-3.796 1.744-3.796 3.837zM130.179 168.727c0 2.093 1.725 3.836 3.795 3.836s3.796-1.743 3.796-3.836-1.725-3.837-3.796-3.837c-2.07 0-3.795 1.744-3.795 3.837zM194.448 130.97c0 2.093 1.726 3.837 3.796 3.837s3.796-1.744 3.796-3.837c0-2.092-1.725-3.836-3.796-3.836-2.07 0-3.796 1.744-3.796 3.836z"/>
            <ellipse cx="254.664" cy="297.081" rx="3.796" ry="3.837"/>
            <path d="M302.715 235.694c0 2.093 1.725 3.837 3.796 3.837 2.07 0 3.795-1.744 3.795-3.837 0-2.092-1.725-3.836-3.795-3.836s-3.796 1.656-3.796 3.836z"/>
            <ellipse cx="358.013" cy="123.995" rx="3.796" ry="3.837"/>
            <ellipse cx="397.524" cy="195.06" rx="3.796" ry="3.837"/>
            <path d="M400.715 102.37c0 2.092 1.726 3.836 3.796 3.836s3.796-1.744 3.796-3.836c0-2.093-1.725-3.837-3.796-3.837-2.07 0-3.796 1.657-3.796 3.837z"/>
            <ellipse cx="482.756" cy="165.588" rx="3.796" ry="3.837"/>
            <path d="M436.603 232.73c0 2.092 1.725 3.836 3.796 3.836 2.07 0 3.796-1.744 3.796-3.836 0-2.093-1.726-3.837-3.796-3.837s-3.796 1.744-3.796 3.837z"/>
            <ellipse cx="205.146" cy="5.232" rx="3.796" ry="3.837"/>
            <path d="M285.893 36.884c0 2.093 1.725 3.837 3.795 3.837s3.796-1.744 3.796-3.837c0-2.092-1.725-3.836-3.796-3.836-2.07 0-3.795 1.744-3.795 3.836z"/>
            <ellipse cx="233.442" cy="40.46" rx="3.796" ry="3.837"/>
            <path d="M159.078 125.303c0 2.092 1.726 3.836 3.796 3.836s3.796-1.744 3.796-3.836c0-2.093-1.725-3.837-3.796-3.837-2.07 0-3.796 1.744-3.796 3.837z"/>
            <ellipse cx="16.477" cy="262.551" rx="3.796" ry="3.837"/>
            <path d="M47.016 313.649c0 2.092 1.725 3.836 3.796 3.836 2.07 0 3.796-1.744 3.796-3.836 0-2.093-1.726-3.837-3.796-3.837s-3.796 1.744-3.796 3.837z"/>
            <ellipse cx="96.189" cy="343.383" rx="3.796" ry="3.837"/>
            <path d="M158.302 284.263c0 2.093 1.725 3.837 3.796 3.837 2.07 0 3.796-1.744 3.796-3.837s-1.726-3.836-3.796-3.836c-2.07-.088-3.796 1.656-3.796 3.836zM89.978 283.914c0 2.093 1.725 3.837 3.795 3.837s3.796-1.744 3.796-3.837c0-2.092-1.725-3.836-3.796-3.836-2.07-.087-3.795 1.656-3.795 3.836zM228.524 251.564c0 2.093 1.726 3.837 3.796 3.837s3.796-1.744 3.796-3.837-1.726-3.836-3.796-3.836c-2.07-.088-3.796 1.656-3.796 3.836zM183.147 353.236c0 2.093 1.726 3.837 3.796 3.837s3.796-1.744 3.796-3.837c0-2.092-1.726-3.836-3.796-3.836s-3.796 1.656-3.796 3.836z"/>
            <ellipse cx="159.423" cy="385.848" rx="3.796" ry="3.837"/>
            <ellipse cx="148.899" cy="401.195" rx="3.796" ry="3.837"/>
            <path d="M125.003 380.355c0 2.092 1.725 3.836 3.795 3.836s3.796-1.744 3.796-3.836c0-2.093-1.725-3.837-3.796-3.837-2.07-.087-3.795 1.657-3.795 3.837zM110.94 352.8c0 2.093 1.726 3.837 3.797 3.837 2.07 0 3.795-1.744 3.795-3.837 0-2.092-1.725-3.836-3.795-3.836s-3.796 1.744-3.796 3.836zM83.594 352.713c0 2.093 1.725 3.837 3.796 3.837 2.07 0 3.795-1.744 3.795-3.837s-1.725-3.837-3.795-3.837-3.796 1.657-3.796 3.837z"/>
            <ellipse cx="73.5" cy="323.589" rx="3.796" ry="3.837"/>
            <ellipse cx="91.358" cy="334.663" rx="3.796" ry="3.837"/>
            <ellipse cx="159.769" cy="318.096" rx="3.796" ry="3.837"/>
            <path d="M216.447 4.447c0 2.093 1.725 3.837 3.796 3.837 2.07 0 3.795-1.744 3.795-3.837S222.313.61 220.243.61s-3.796 1.744-3.796 3.837zM263.808 55.632c0 2.093 1.725 3.837 3.796 3.837 2.07 0 3.796-1.744 3.796-3.837s-1.726-3.837-3.796-3.837-3.796 1.657-3.796 3.837z"/>
            <ellipse cx="233.355" cy="55.457" rx="3.796" ry="3.837"/>
            <ellipse cx="233.01" cy="115.972" rx="3.796" ry="3.837"/>
            <path d="M211.96 129.924c0 2.093 1.726 3.837 3.797 3.837 2.07 0 3.795-1.744 3.795-3.837s-1.725-3.837-3.795-3.837-3.796 1.744-3.796 3.837z"/>
            <ellipse cx="213.255" cy="149.369" rx="3.796" ry="3.837"/>
            <path d="M223.952 161.053c0 2.093 1.725 3.837 3.796 3.837 2.07 0 3.796-1.744 3.796-3.837 0-2.092-1.726-3.836-3.796-3.836s-3.796 1.744-3.796 3.836zM211.357 245.112c0 2.092 1.725 3.836 3.796 3.836 2.07 0 3.796-1.744 3.796-3.836 0-2.093-1.726-3.837-3.796-3.837-2.07-.087-3.796 1.657-3.796 3.837z"/>
            <ellipse cx="247.59" cy="242.583" rx="3.796" ry="3.837"/>
            <ellipse cx="232.234" cy="272.753" rx="3.796" ry="3.837"/>
            <path d="M232.579 202.385c0 2.093 1.725 3.837 3.796 3.837 2.07 0 3.795-1.744 3.795-3.837s-1.725-3.837-3.795-3.837-3.796 1.744-3.796 3.837z"/>
            <ellipse cx="324.799" cy="187.474" rx="3.796" ry="3.837"/>
        </g>
        <g fill="#F49221" transform="translate(233.425 76.914)">
            <ellipse cx="9.678" cy="9.935" fill-opacity=".25" rx="9.388" ry="9.489"/>
            <ellipse cx="9.678" cy="9.935" rx="4.282" ry="4.328"/>
        </g>
        <g fill="#00AEEF">
            <path fill-opacity=".25" d="M247.711 190.613c0 5.165 4.258 9.47 9.368 9.47s9.368-4.305 9.368-9.47c0-5.164-4.258-9.468-9.368-9.468s-9.155 4.304-9.368 9.468z"/>
            <path d="M252.732 190.613c0 2.397 1.976 4.394 4.347 4.394 2.371 0 4.347-1.997 4.347-4.394 0-2.396-1.976-4.393-4.347-4.393-2.371 0-4.248 1.997-4.347 4.393z"/>
        </g>
        <g fill="#F49221">
            <path fill-opacity=".25" d="M198.871 324.29c0 5.123 4.225 9.393 9.294 9.393 5.07 0 9.294-4.27 9.294-9.394 0-5.124-4.225-9.394-9.294-9.394-5.07-.213-9.294 4.057-9.294 9.394z"/>
            <path d="M203.793 324.287c0 2.41 1.987 4.42 4.372 4.42s4.372-2.01 4.372-4.42-1.987-4.42-4.372-4.42c-2.385-.1-4.372 1.909-4.372 4.42z"/>
        </g>
        <g fill="#D71D5C">
            <path fill-opacity=".25" d="M181.317 248.425c0 5.527 4.557 10.133 10.026 10.133 5.468 0 10.025-4.606 10.025-10.133 0-5.527-4.557-10.133-10.025-10.133-5.469 0-10.026 4.606-10.026 10.133z"/>
            <path d="M186.886 248.425c0 2.457 2.026 4.505 4.457 4.505 2.43 0 4.456-2.048 4.456-4.505s-2.026-4.504-4.456-4.504c-2.431 0-4.457 2.047-4.457 4.504z"/>
        </g>
        <g fill="#3DC14C" transform="translate(104.963 134.991)">
            <ellipse cx="9.48" cy="9.538" fill-opacity=".25" rx="9.266" ry="9.286"/>
            <ellipse cx="9.48" cy="9.551" rx="4.633" ry="4.643"/>
        </g>
        <g fill="#C65CC1" transform="translate(60.315 249.577)">
            <ellipse cx="9.864" cy="9.924" fill-opacity=".25" rx="9.343" ry="9.443"/>
            <ellipse cx="9.864" cy="9.924" rx="4.176" ry="4.221"/>
        </g>
    </g>
</svg>
