<svg width="53" height="53" viewBox="0 0 53 53" fill="none" xmlns="http://www.w3.org/2000/svg">
<path d="M11.043 22.0837H15.4596C19.8763 22.0837 22.0846 19.8753 22.0846 15.4587V11.042C22.0846 6.62533 19.8763 4.41699 15.4596 4.41699H11.043C6.6263 4.41699 4.41797 6.62533 4.41797 11.042V15.4587C4.41797 19.8753 6.6263 22.0837 11.043 22.0837Z" stroke="#9F8582" stroke-width="1.5" stroke-miterlimit="10" stroke-linecap="round" stroke-linejoin="round"/>
<path d="M37.543 22.0837H41.9596C46.3763 22.0837 48.5846 19.8753 48.5846 15.4587V11.042C48.5846 6.62533 46.3763 4.41699 41.9596 4.41699H37.543C33.1263 4.41699 30.918 6.62533 30.918 11.042V15.4587C30.918 19.8753 33.1263 22.0837 37.543 22.0837Z" stroke="#9F8582" stroke-width="1.5" stroke-miterlimit="10" stroke-linecap="round" stroke-linejoin="round"/>
<path d="M37.543 48.5837H41.9596C46.3763 48.5837 48.5846 46.3753 48.5846 41.9587V37.542C48.5846 33.1253 46.3763 30.917 41.9596 30.917H37.543C33.1263 30.917 30.918 33.1253 30.918 37.542V41.9587C30.918 46.3753 33.1263 48.5837 37.543 48.5837Z" stroke="#9F8582" stroke-width="1.5" stroke-miterlimit="10" stroke-linecap="round" stroke-linejoin="round"/>
<path d="M11.043 48.5837H15.4596C19.8763 48.5837 22.0846 46.3753 22.0846 41.9587V37.542C22.0846 33.1253 19.8763 30.917 15.4596 30.917H11.043C6.6263 30.917 4.41797 33.1253 4.41797 37.542V41.9587C4.41797 46.3753 6.6263 48.5837 11.043 48.5837Z" stroke="#9F8582" stroke-width="1.5" stroke-miterlimit="10" stroke-linecap="round" stroke-linejoin="round"/>
</svg>
