<svg xmlns="http://www.w3.org/2000/svg" width="136" height="152" fill="none" viewBox="0 0 136 152">
    <path fill="#F6DD7E" fill-rule="evenodd" d="M67.41 7.592c-4.138 0-7.49 3.407-7.49 7.59 0-4.183-3.354-7.59-7.488-7.59 4.134 0 7.488-3.41 7.488-7.592 0 4.183 3.352 7.592 7.49 7.592z" clip-rule="evenodd"/>
    <path fill="#FFD9D9" fill-rule="evenodd" d="M12.128 112.333c-3.037 0-5.506 2.5-5.506 5.579 0-3.079-2.466-5.579-5.506-5.579 3.04 0 5.506-2.506 5.506-5.582 0 3.076 2.469 5.582 5.506 5.582z" clip-rule="evenodd"/>
    <path fill="#BED9FC" fill-rule="evenodd" d="M66.792 146.135c-3.038 0-5.506 2.5-5.506 5.579 0-3.079-2.467-5.579-5.507-5.579 3.04 0 5.507-2.506 5.507-5.582 0 3.076 2.468 5.582 5.506 5.582z" clip-rule="evenodd"/>
    <path fill="#FFD9D9" fill-rule="evenodd" d="M136 78.86c-5.519 0-9.99 4.545-9.99 10.127 0-5.582-4.475-10.127-9.99-10.127 5.515 0 9.99-4.548 9.99-10.128 0 5.58 4.471 10.128 9.99 10.128z" clip-rule="evenodd"/>
    <path fill="#F6DD7E" fill-rule="evenodd" d="M117.035 122.804c-5.518 0-9.99 4.544-9.99 10.126 0-5.582-4.474-10.126-9.99-10.126 5.516 0 9.99-4.548 9.99-10.128 0 5.58 4.472 10.128 9.99 10.128z" clip-rule="evenodd"/>
    <path fill="#BED9FC" fill-rule="evenodd" d="M19.98 41.676c-5.518 0-9.99 4.545-9.99 10.127 0-5.582-4.475-10.127-9.99-10.127 5.515 0 9.99-4.547 9.99-10.127 0 5.58 4.472 10.127 9.99 10.127z" clip-rule="evenodd"/>
    <path fill="#00AEEF" d="M106.575 45.417c-19.95 8.573-38.517 23.484-52.284 38.408L35.03 70.108l-8.255 8.23 27.517 30.178c12.554-22.118 29.582-44.238 55.036-57.612l-2.752-5.487z"/>
</svg>
