<svg width="73" height="73" viewBox="0 0 73 73" fill="none" xmlns="http://www.w3.org/2000/svg">
<path d="M66.4375 2.85156H6.55469C3.72451 2.85156 1.42188 5.15406 1.42188 7.98438V54.4857C1.42188 57.316 3.72437 59.6185 6.55469 59.6185H17.1768C18.6122 61.837 20.4261 63.815 22.5361 65.4287C26.5734 68.5163 31.4006 70.1484 36.4961 70.1484C41.5916 70.1484 46.4188 68.5163 50.4562 65.4285C52.5662 63.8148 54.3801 61.8368 55.8156 59.6183H66.4375C69.2677 59.6183 71.5703 57.3158 71.5703 54.4855V7.98438C71.5703 5.15406 69.2677 2.85156 66.4375 2.85156ZM6.55469 4.5625H66.4375C68.3242 4.5625 69.8594 6.09764 69.8594 7.98438V15.2724H3.13281V7.98438C3.13281 6.09764 4.66781 4.5625 6.55469 4.5625ZM35.6406 59.1153V68.3659C32.6271 67.8608 29.8809 64.7138 28.0818 59.9518C30.5196 59.4491 33.0574 59.1665 35.6406 59.1153ZM27.5229 58.3213C27.1177 57.0139 26.7808 55.606 26.5212 54.1185H35.6406V57.4041C32.8661 57.4568 30.1397 57.767 27.5229 58.3213ZM37.3516 68.3659V59.1153C39.9348 59.1664 42.4725 59.4491 44.9103 59.9518C43.1113 64.7138 40.365 67.8608 37.3516 68.3659ZM37.3516 57.4041V54.1185H46.4711C46.2114 55.606 45.8745 57.0137 45.4694 58.3213C42.8527 57.767 40.1263 57.4568 37.3516 57.4041ZM48.2083 54.1185H56.6166C55.7724 56.5543 54.5023 58.7716 52.9054 60.6949C51.0773 59.8909 49.1465 59.227 47.1395 58.7121C47.5808 57.2715 47.9391 55.7341 48.2083 54.1185ZM51.9011 52.4076V41.8903H60.3861C61.5067 41.8903 62.4184 42.8021 62.4184 43.9226V50.3753C62.4184 51.4958 61.5067 52.4076 60.3861 52.4076H51.9011ZM48.2083 40.1795C47.9391 38.5641 47.5808 37.0264 47.1397 35.5861C49.1466 35.0711 51.0776 34.4071 52.9056 33.6031C54.5024 35.5265 55.7725 37.7437 56.6167 40.1795H48.2083ZM35.6406 25.9321V35.1829C33.0573 35.1318 30.5196 34.8491 28.0818 34.3462C29.8809 29.5844 32.6272 26.4373 35.6406 25.9321ZM35.6406 36.8941V40.1795H26.521C26.7808 38.6921 27.1177 37.2845 27.5228 35.9769C30.1397 36.5312 32.8659 36.8413 35.6406 36.8941ZM45.4694 35.9769C45.8746 37.2843 46.2115 38.692 46.4711 40.1795H37.3516V36.8941C40.1263 36.8413 42.8527 36.5312 45.4694 35.9769ZM37.3516 35.1829V25.9321C40.365 26.4373 43.1113 29.5844 44.9103 34.3462C42.4727 34.8491 39.9349 35.1317 37.3516 35.1829ZM46.5913 33.9604C45.9132 32.1277 45.0901 30.4826 44.1379 29.0705C43.4951 28.1175 42.8109 27.2987 42.093 26.6165C45.75 27.6221 49.0622 29.5894 51.6918 32.2614C50.067 32.9435 48.3607 33.5127 46.5913 33.9604ZM28.8543 29.0707C27.9021 30.4828 27.0788 32.1277 26.4009 33.9605C24.6316 33.5128 22.9252 32.9437 21.3004 32.2616C23.93 29.5897 27.2422 27.6222 30.8992 26.6166C30.1813 27.2989 29.4971 28.1177 28.8543 29.0707ZM20.0868 33.6031C21.9148 34.4072 23.8457 35.0711 25.8526 35.5861C25.4115 37.0264 25.0532 38.5641 24.784 40.1795H16.3758C17.2198 37.7437 18.4899 35.5265 20.0868 33.6031ZM50.1902 41.8905V52.4077H12.6063C11.4858 52.4077 10.5741 51.4959 10.5741 50.3754V43.9228C10.5741 42.8022 11.4858 41.8905 12.6063 41.8905H50.1902ZM24.784 54.1185C25.0532 55.7341 25.4114 57.2715 25.8526 58.7121C23.8457 59.227 21.9148 59.8909 20.0868 60.6949C18.4899 58.7716 17.2198 56.5543 16.3756 54.1185H24.784ZM21.3004 62.0366C22.9252 61.3546 24.6316 60.7855 26.4009 60.3376C27.079 62.1705 27.9019 63.8154 28.8543 65.2275C29.4971 66.1805 30.1813 66.9993 30.8992 67.6815C27.2423 66.6758 23.93 64.7085 21.3004 62.0366ZM42.093 67.6814C42.8109 66.9992 43.4953 66.1803 44.138 65.2274C45.0903 63.8153 45.9134 62.1705 46.5915 60.3375C48.3607 60.7853 50.0671 61.3545 51.6919 62.0366C49.0622 64.7085 45.75 66.6758 42.093 67.6814ZM66.4375 57.9075H56.8215C57.4661 56.6956 58.0024 55.427 58.4189 54.1187H60.3859C62.45 54.1187 64.1292 52.4395 64.1292 50.3754V43.9228C64.1292 41.8587 62.45 40.1795 60.3859 40.1795H58.4189C57.0004 35.7239 54.1917 31.7263 50.4562 28.8695C46.419 25.7818 41.5917 24.1496 36.4961 24.1496C31.4005 24.1496 26.5732 25.7817 22.536 28.8695C18.8004 31.7265 15.9916 35.7239 14.5733 40.1795H12.6063C10.5423 40.1795 8.86317 41.8587 8.86317 43.9228V50.3754C8.86317 52.4395 10.5423 54.1187 12.6063 54.1187H14.5733C14.9898 55.427 15.5261 56.6956 16.1707 57.9075H6.55469C4.66795 57.9075 3.13281 56.3724 3.13281 54.4857V16.9833H69.8594V54.4855C69.8594 56.3724 68.3244 57.9075 66.4375 57.9075ZM9.06948 12.641C10.5713 12.641 11.793 11.4192 11.793 9.91731C11.793 8.41567 10.5713 7.19378 9.06948 7.19378C7.56771 7.19378 6.34581 8.41553 6.34581 9.91731C6.34581 11.4192 7.56771 12.641 9.06948 12.641ZM9.06948 8.90486C9.62782 8.90486 10.0821 9.35911 10.0821 9.91745C10.0821 10.4758 9.62782 10.9302 9.06948 10.9302C8.511 10.9302 8.05675 10.4758 8.05675 9.91745C8.05675 9.35911 8.511 8.90486 9.06948 8.90486ZM17.289 12.641C18.7907 12.641 20.0126 11.4192 20.0126 9.91731C20.0126 8.41567 18.7909 7.19378 17.289 7.19378C15.7872 7.19378 14.5654 8.41553 14.5654 9.91731C14.5654 11.4192 15.7873 12.641 17.289 12.641ZM17.289 8.90486C17.8474 8.90486 18.3017 9.35911 18.3017 9.91745C18.3017 10.4758 17.8474 10.9302 17.289 10.9302C16.7306 10.9302 16.2764 10.4758 16.2764 9.91745C16.2764 9.35911 16.7306 8.90486 17.289 8.90486ZM25.5086 12.641C27.0104 12.641 28.2323 11.4192 28.2323 9.91731C28.2323 8.41567 27.0105 7.19378 25.5086 7.19378C24.0068 7.19378 22.7851 8.41553 22.7851 9.91731C22.7851 11.4192 24.007 12.641 25.5086 12.641ZM25.5086 8.90486C26.0671 8.90486 26.5213 9.35911 26.5213 9.91745C26.5213 10.4758 26.0671 10.9302 25.5086 10.9302C24.9503 10.9302 24.496 10.4758 24.496 9.91745C24.496 9.35911 24.9503 8.90486 25.5086 8.90486ZM47.4836 12.641H63.9229C65.4246 12.641 66.6464 11.4192 66.6464 9.91731C66.6464 8.41567 65.4246 7.19378 63.9229 7.19378H47.4836C45.9818 7.19378 44.7601 8.41553 44.7601 9.91731C44.7601 11.4192 45.9818 12.641 47.4836 12.641ZM47.4836 8.90486H63.9229C64.4812 8.90486 64.9354 9.35911 64.9354 9.91745C64.9354 10.4758 64.4812 10.9302 63.9229 10.9302H47.4836C46.9253 10.9302 46.471 10.4758 46.471 9.91745C46.471 9.35911 46.9253 8.90486 47.4836 8.90486ZM60.8593 49.6389L59.5718 48.3514C59.8726 47.8425 60.0462 47.2498 60.0462 46.6171C60.0462 44.7322 58.5127 43.1986 56.6277 43.1986C54.7427 43.1986 53.2092 44.7322 53.2092 46.6171C53.2092 48.5019 54.7428 50.0355 56.6277 50.0355C57.2605 50.0355 57.8532 49.862 58.362 49.5612L59.6494 50.8485C59.8165 51.0156 60.0353 51.0991 60.2543 51.0991C60.4733 51.0991 60.6922 51.0156 60.8593 50.8485C61.1933 50.5146 61.1933 49.9729 60.8593 49.6389ZM54.9203 46.6172C54.9203 45.6756 55.6864 44.9097 56.6278 44.9097C57.5693 44.9097 58.3354 45.6756 58.3354 46.6172C58.3354 47.5588 57.5694 48.3247 56.6278 48.3247C55.6863 48.3247 54.9203 47.5586 54.9203 46.6172Z" fill="#00A8ED"/>
</svg>
