<svg width="53" height="53" viewBox="0 0 53 53" fill="none" xmlns="http://www.w3.org/2000/svg">
<path d="M44.1654 15.3476V37.6518C43.812 37.5855 43.4366 37.5413 43.0612 37.5413C40.0137 37.5413 37.5404 40.0147 37.5404 43.0622C37.5404 43.4376 37.5845 43.813 37.6508 44.1663H15.3466C15.4129 43.813 15.457 43.4376 15.457 43.0622C15.457 40.0147 12.9837 37.5413 9.9362 37.5413C9.56078 37.5413 9.18536 37.5855 8.83203 37.6518V15.3476C9.18536 15.4138 9.56078 15.458 9.9362 15.458C12.9837 15.458 15.457 12.9847 15.457 9.93717C15.457 9.56176 15.4129 9.18634 15.3466 8.83301H37.6508C37.5845 9.18634 37.5404 9.56176 37.5404 9.93717C37.5404 12.9847 40.0137 15.458 43.0612 15.458C43.4366 15.458 43.812 15.4138 44.1654 15.3476Z" stroke="#999484" stroke-width="1.5" stroke-linecap="round" stroke-linejoin="round"/>
<path d="M15.4596 9.93783C15.4596 12.9853 12.9863 15.4587 9.9388 15.4587C9.56339 15.4587 9.18797 15.4145 8.83464 15.3482C6.31714 14.8403 4.41797 12.6099 4.41797 9.93783C4.41797 6.89033 6.8913 4.41699 9.9388 4.41699C12.6109 4.41699 14.8413 6.31616 15.3492 8.83366C15.4155 9.18699 15.4596 9.56241 15.4596 9.93783Z" stroke="#999484" stroke-width="1.5" stroke-linecap="round" stroke-linejoin="round"/>
<path d="M48.5846 9.93783C48.5846 12.6099 46.6855 14.8403 44.168 15.3482C43.8146 15.4145 43.4392 15.4587 43.0638 15.4587C40.0163 15.4587 37.543 12.9853 37.543 9.93783C37.543 9.56241 37.5871 9.18699 37.6534 8.83366C38.1613 6.31616 40.3917 4.41699 43.0638 4.41699C46.1113 4.41699 48.5846 6.89033 48.5846 9.93783Z" stroke="#999484" stroke-width="1.5" stroke-linecap="round" stroke-linejoin="round"/>
<path d="M15.4596 43.0628C15.4596 43.4382 15.4155 43.8137 15.3492 44.167C14.8413 46.6845 12.6109 48.5837 9.9388 48.5837C6.8913 48.5837 4.41797 46.1103 4.41797 43.0628C4.41797 40.3907 6.31714 38.1603 8.83464 37.6524C9.18797 37.5862 9.56339 37.542 9.9388 37.542C12.9863 37.542 15.4596 40.0153 15.4596 43.0628Z" stroke="#999484" stroke-width="1.5" stroke-linecap="round" stroke-linejoin="round"/>
<path d="M48.5846 43.0628C48.5846 46.1103 46.1113 48.5837 43.0638 48.5837C40.3917 48.5837 38.1613 46.6845 37.6534 44.167C37.5871 43.8137 37.543 43.4382 37.543 43.0628C37.543 40.0153 40.0163 37.542 43.0638 37.542C43.4392 37.542 43.8146 37.5862 44.168 37.6524C46.6855 38.1603 48.5846 40.3907 48.5846 43.0628Z" stroke="#999484" stroke-width="1.5" stroke-linecap="round" stroke-linejoin="round"/>
</svg>
