<svg width="79" height="21" viewBox="0 0 79 21" fill="none" xmlns="http://www.w3.org/2000/svg">
<path d="M26.7536 5.17383H22.3836C22.2389 5.17374 22.0989 5.22528 21.9889 5.31918C21.8789 5.41308 21.8061 5.54315 21.7835 5.68596L20.0161 16.8845C20.008 16.9365 20.0112 16.9896 20.0256 17.0402C20.04 17.0908 20.0652 17.1377 20.0994 17.1776C20.1337 17.2175 20.1762 17.2496 20.224 17.2715C20.2718 17.2935 20.3238 17.3048 20.3765 17.3047H22.4628C22.6076 17.3048 22.7476 17.2531 22.8576 17.1591C22.9676 17.0651 23.0404 16.9349 23.0628 16.7919L23.5395 13.7715C23.5619 13.6287 23.6346 13.4986 23.7445 13.4045C23.8543 13.3105 23.9942 13.2588 24.1389 13.2587H25.5223C28.401 13.2587 30.0624 11.8667 30.4962 9.10805C30.6918 7.90115 30.5045 6.95288 29.939 6.28877C29.3179 5.55952 28.2163 5.17383 26.7536 5.17383ZM27.2578 9.26386C27.0188 10.8309 25.8207 10.8309 24.6622 10.8309H24.0028L24.4654 7.90435C24.4789 7.81873 24.5226 7.74075 24.5886 7.68444C24.6545 7.62813 24.7384 7.5972 24.8252 7.59719H25.1274C25.9166 7.59719 26.661 7.59719 27.0457 8.04675C27.2751 8.31495 27.3453 8.71341 27.2578 9.26386ZM39.8166 9.21341H37.7239C37.6371 9.21341 37.5533 9.24435 37.4873 9.30066C37.4214 9.35696 37.3777 9.43494 37.3641 9.52056L37.2715 10.1055L37.1252 9.89349C36.6721 9.2364 35.6619 9.01673 34.6535 9.01673C32.341 9.01673 30.3659 10.767 29.9812 13.2223C29.7812 14.4471 30.0655 15.6183 30.7608 16.435C31.3985 17.1859 32.311 17.4988 33.3966 17.4988C35.2599 17.4988 36.2932 16.3015 36.2932 16.3015L36.1999 16.8826C36.1916 16.9346 36.1946 16.9877 36.2088 17.0384C36.2231 17.089 36.2481 17.136 36.2822 17.1761C36.3164 17.2161 36.3588 17.2483 36.4066 17.2704C36.4543 17.2925 36.5064 17.304 36.559 17.3041H38.444C38.5888 17.3041 38.7288 17.2525 38.8389 17.1585C38.9489 17.0645 39.0216 16.9342 39.0441 16.7913L40.1751 9.63359C40.1834 9.58175 40.1804 9.52872 40.1662 9.47817C40.152 9.42762 40.127 9.38075 40.0929 9.3408C40.0588 9.30085 40.0165 9.26876 39.9688 9.24677C39.921 9.22478 39.8691 9.21339 39.8166 9.21341ZM36.8996 13.2836C36.6977 14.4784 35.7488 15.2804 34.5385 15.2804C33.9308 15.2804 33.4452 15.0857 33.1334 14.7166C32.8241 14.3501 32.7065 13.8283 32.8049 13.2472C32.9934 12.0627 33.9583 11.2345 35.15 11.2345C35.7443 11.2345 36.2274 11.4318 36.5456 11.8041C36.8644 12.1802 36.991 12.7051 36.8996 13.2836ZM50.9619 9.21341H48.859C48.7598 9.21357 48.6622 9.2379 48.5745 9.28431C48.4869 9.33071 48.4119 9.39778 48.3561 9.47969L45.4557 13.7492L44.2263 9.64636C44.1886 9.52123 44.1115 9.41156 44.0065 9.33358C43.9016 9.25561 43.7743 9.21347 43.6435 9.21341H41.577C41.519 9.21326 41.4618 9.22695 41.4102 9.25335C41.3585 9.27976 41.3139 9.3181 41.2801 9.3652C41.2463 9.4123 41.2242 9.46679 41.2157 9.52414C41.2073 9.58148 41.2126 9.64003 41.2313 9.69489L43.5477 16.488L41.37 19.5601C41.3313 19.6146 41.3083 19.6787 41.3036 19.7453C41.2989 19.8119 41.3127 19.8786 41.3434 19.9379C41.3741 19.9973 41.4205 20.0471 41.4776 20.0818C41.5347 20.1165 41.6003 20.1349 41.6671 20.1348H43.7675C43.8656 20.135 43.9622 20.1113 44.0491 20.066C44.136 20.0206 44.2106 19.9548 44.2665 19.8743L51.261 9.78493C51.2989 9.73034 51.3211 9.66643 51.3253 9.60011C51.3294 9.5338 51.3153 9.46761 51.2845 9.40873C51.2537 9.34985 51.2074 9.30052 51.1505 9.26609C51.0936 9.23166 51.0284 9.21344 50.9619 9.21341Z" fill="#253B80"/>
<path d="M57.9256 5.17251H53.5549C53.4103 5.17257 53.2705 5.22419 53.1607 5.31807C53.0508 5.41196 52.978 5.54194 52.9555 5.68465L51.1881 16.8832C51.1798 16.9351 51.183 16.9881 51.1972 17.0387C51.2115 17.0892 51.2366 17.1361 51.2707 17.176C51.3048 17.216 51.3472 17.248 51.395 17.27C51.4427 17.292 51.4946 17.3034 51.5472 17.3034H53.7901C53.8912 17.3032 53.989 17.267 54.0659 17.2012C54.1427 17.1354 54.1936 17.0444 54.2092 16.9445L54.7108 13.7702C54.7332 13.6274 54.8059 13.4972 54.9158 13.4032C55.0257 13.3092 55.1656 13.2575 55.3102 13.2574H56.693C59.5723 13.2574 61.2331 11.8653 61.6676 9.10673C61.8637 7.89984 61.6752 6.95156 61.1097 6.28745C60.4893 5.55821 59.3883 5.17251 57.9256 5.17251ZM58.4298 9.26254C58.1914 10.8296 56.9933 10.8296 55.8342 10.8296H55.1754L55.6387 7.90303C55.6519 7.81741 55.6955 7.73937 55.7613 7.68303C55.8272 7.62669 55.9111 7.59577 55.9978 7.59588H56.3C57.0885 7.59588 57.8336 7.59588 58.2183 8.04543C58.4477 8.31363 58.5173 8.7121 58.4298 9.26254ZM70.9879 9.2121H68.8965C68.8098 9.21186 68.7258 9.24272 68.6599 9.29909C68.594 9.35545 68.5506 9.43357 68.5374 9.51925L68.4447 10.1042L68.2978 9.89217C67.8447 9.23509 66.8351 9.01542 65.8268 9.01542C63.5143 9.01542 61.5398 10.7657 61.1551 13.221C60.9557 14.4458 61.2388 15.6169 61.934 16.4337C62.573 17.1846 63.4842 17.4975 64.5699 17.4975C66.4332 17.4975 67.4664 16.3002 67.4664 16.3002L67.3731 16.8813C67.3648 16.9334 67.3679 16.9866 67.3822 17.0374C67.3965 17.0881 67.4216 17.1352 67.4559 17.1752C67.4902 17.2153 67.5328 17.2475 67.5807 17.2695C67.6286 17.2915 67.6808 17.3029 67.7335 17.3028H69.6179C69.7626 17.3027 69.9025 17.251 70.0124 17.157C70.1222 17.0629 70.1949 16.9328 70.2173 16.79L71.349 9.63227C71.357 9.58027 71.3537 9.52715 71.3392 9.47656C71.3247 9.42597 71.2995 9.3791 71.2652 9.33918C71.2309 9.29926 71.1883 9.26724 71.1405 9.2453C71.0926 9.22336 71.0406 9.21203 70.9879 9.2121ZM68.0709 13.2823C67.8703 14.4771 66.9201 15.2791 65.7098 15.2791C65.1034 15.2791 64.6165 15.0844 64.3047 14.7153C63.9954 14.3487 63.8791 13.827 63.9763 13.2459C64.166 12.0614 65.1296 11.2332 66.3214 11.2332C66.9156 11.2332 67.3987 11.4305 67.7169 11.8028C68.0371 12.1789 68.1636 12.7038 68.0709 13.2823ZM73.4551 5.47966L71.6614 16.8832C71.6532 16.9351 71.6563 16.9881 71.6706 17.0387C71.6849 17.0892 71.7099 17.1361 71.7441 17.176C71.7782 17.216 71.8206 17.248 71.8683 17.27C71.9161 17.292 71.968 17.3034 72.0206 17.3034H73.8238C74.1235 17.3034 74.3778 17.0863 74.4238 16.7906L76.1925 5.59269C76.2008 5.54078 76.1976 5.48772 76.1834 5.43714C76.1691 5.38655 76.144 5.33966 76.1099 5.29967C76.0758 5.25969 76.0334 5.22756 75.9857 5.2055C75.938 5.18344 75.886 5.17197 75.8334 5.17188H73.8142C73.7275 5.17218 73.6438 5.20332 73.578 5.25972C73.5122 5.31612 73.4686 5.39409 73.4551 5.47966Z" fill="#179BD7"/>
<path d="M4.66027 19.4815L4.99446 17.3602L4.25004 17.3429H0.695312L3.16566 1.68969C3.17302 1.64187 3.19733 1.59827 3.23416 1.56686C3.27099 1.53544 3.31789 1.5183 3.36631 1.51856H9.36007C11.3499 1.51856 12.7231 1.93235 13.44 2.74908C13.7762 3.13222 13.9902 3.5326 14.0937 3.97321C14.2024 4.43554 14.2043 4.9879 14.0982 5.66159L14.0905 5.71076V6.14243L14.4267 6.33272C14.6832 6.46263 14.9139 6.63837 15.1072 6.85124C15.3947 7.17883 15.5807 7.59517 15.6593 8.08879C15.7404 8.59645 15.7136 9.20053 15.5807 9.88444C15.4273 10.6712 15.1794 11.3563 14.8446 11.917C14.5491 12.4193 14.1519 12.8543 13.6784 13.1941C13.2337 13.5096 12.7052 13.7491 12.1077 13.9023C11.5288 14.053 10.8687 14.129 10.1448 14.129H9.67829C9.34474 14.129 9.02077 14.2491 8.76645 14.4643C8.51249 14.6817 8.34402 14.9823 8.29103 15.3123L8.25589 15.5032L7.66546 19.242L7.63862 19.3793C7.63159 19.4227 7.61945 19.4444 7.60156 19.4591C7.58423 19.4733 7.5626 19.4812 7.54022 19.4815H4.66027Z" fill="#253B80"/>
<path d="M14.742 5.76074C14.7241 5.87505 14.7036 5.9919 14.6806 6.11195C13.8902 10.1675 11.186 11.5685 7.7322 11.5685H5.97369C5.55131 11.5685 5.19539 11.875 5.12958 12.2914L4.22923 17.9976L3.97428 19.6151C3.96412 19.6793 3.968 19.7449 3.98564 19.8074C4.00329 19.8699 4.03428 19.9279 4.07649 19.9773C4.11869 20.0267 4.17111 20.0663 4.23013 20.0936C4.28915 20.1208 4.35338 20.1349 4.41838 20.1349H7.53731C7.90664 20.1349 8.22039 19.8667 8.27854 19.5027L8.30921 19.3444L8.89645 15.6202L8.93415 15.4159C8.99166 15.0506 9.30604 14.7824 9.67538 14.7824H10.1418C13.1636 14.7824 15.5292 13.5564 16.2206 10.0085C16.5094 8.52638 16.3599 7.28884 15.5957 6.41847C15.3534 6.14922 15.0641 5.92634 14.742 5.76074Z" fill="#179BD7"/>
<path d="M13.9183 5.43121C13.666 5.35825 13.4092 5.3013 13.1496 5.26072C12.6367 5.18194 12.1183 5.14415 11.5994 5.14769H6.90155C6.72276 5.14755 6.54982 5.21134 6.414 5.32752C6.27817 5.44369 6.18841 5.6046 6.16095 5.78115L5.16157 12.1068L5.13281 12.2914C5.16395 12.09 5.26617 11.9064 5.421 11.7738C5.57583 11.6412 5.77303 11.5684 5.97692 11.5685H7.73544C11.1892 11.5685 13.8934 10.1668 14.6839 6.11193C14.7075 5.99188 14.7273 5.87502 14.7452 5.76071C14.5366 5.65141 14.3192 5.55977 14.0953 5.48677C14.0366 5.4673 13.9776 5.44878 13.9183 5.43121Z" fill="#222D65"/>
<path d="M6.15886 5.78059C6.18608 5.604 6.27579 5.44302 6.41169 5.32689C6.54758 5.21077 6.72065 5.14722 6.89945 5.14777H11.5973C12.1539 5.14777 12.6734 5.18417 13.1475 5.2608C13.4684 5.31119 13.7848 5.38656 14.0939 5.48622C14.3271 5.56348 14.5437 5.6548 14.7437 5.76016C14.9789 4.26144 14.7418 3.24101 13.9309 2.317C13.037 1.29976 11.4235 0.864258 9.35894 0.864258H3.36517C2.94344 0.864258 2.58368 1.17077 2.51851 1.58776L0.0219572 17.4019C0.0103287 17.4753 0.014753 17.5504 0.0349257 17.6219C0.0550983 17.6935 0.0905407 17.7598 0.138815 17.8164C0.187089 17.8729 0.247049 17.9184 0.31457 17.9496C0.382092 17.9807 0.455572 17.9969 0.529958 17.997H4.23037L5.15947 12.1063L6.15886 5.78059Z" fill="#253B80"/>
</svg>
