<svg width="53" height="53" viewBox="0 0 53 53" fill="none" xmlns="http://www.w3.org/2000/svg">
<path d="M48.582 14.3545H35.332" stroke="#998BA7" stroke-width="1.5" stroke-miterlimit="10" stroke-linecap="round" stroke-linejoin="round"/>
<path d="M13.2513 14.3545H4.41797" stroke="#998BA7" stroke-width="1.5" stroke-miterlimit="10" stroke-linecap="round" stroke-linejoin="round"/>
<path d="M22.0846 22.0833C26.3533 22.0833 29.8138 18.6229 29.8138 14.3542C29.8138 10.0855 26.3533 6.625 22.0846 6.625C17.8159 6.625 14.3555 10.0855 14.3555 14.3542C14.3555 18.6229 17.8159 22.0833 22.0846 22.0833Z" stroke="#998BA7" stroke-width="1.5" stroke-miterlimit="10" stroke-linecap="round" stroke-linejoin="round"/>
<path d="M48.5833 38.6455H39.75" stroke="#998BA7" stroke-width="1.5" stroke-miterlimit="10" stroke-linecap="round" stroke-linejoin="round"/>
<path d="M17.668 38.6455H4.41797" stroke="#998BA7" stroke-width="1.5" stroke-miterlimit="10" stroke-linecap="round" stroke-linejoin="round"/>
<path d="M30.9167 46.3753C35.1854 46.3753 38.6458 42.9149 38.6458 38.6462C38.6458 34.3775 35.1854 30.917 30.9167 30.917C26.648 30.917 23.1875 34.3775 23.1875 38.6462C23.1875 42.9149 26.648 46.3753 30.9167 46.3753Z" stroke="#998BA7" stroke-width="1.5" stroke-miterlimit="10" stroke-linecap="round" stroke-linejoin="round"/>
</svg>
