<svg width="182" height="50" viewBox="0 0 182 50" fill="none" xmlns="http://www.w3.org/2000/svg">
<g clip-path="url(#clip0_3215_348)">
<path d="M25.4587 49.1898C38.8332 49.1898 49.6753 38.2951 49.6753 24.8557C49.6753 11.4163 38.8332 0.521484 25.4587 0.521484C12.0843 0.521484 1.24219 11.4163 1.24219 24.8557C1.24219 38.2951 12.0843 49.1898 25.4587 49.1898Z" fill="white"/>
<path fill-rule="evenodd" clip-rule="evenodd" d="M6.05567 19.1386C5.72022 18.7819 5.46603 18.3561 5.31078 17.8906C4.61348 19.9473 4.22309 22.0965 4.15234 24.2682L6.68944 19.659C6.45794 19.5121 6.24511 19.3373 6.05567 19.1386Z" fill="#CBB9FF"/>
<path fill-rule="evenodd" clip-rule="evenodd" d="M8.61041 13.4214L8.79917 11.4316C8.24684 12.1408 7.73797 12.8832 7.27539 13.6546C7.70105 13.4877 8.15573 13.4084 8.61244 13.4214" fill="#CBB9FF"/>
<path fill-rule="evenodd" clip-rule="evenodd" d="M39.6977 39.5631C39.4163 39.8314 39.0822 40.0374 38.7169 40.1679C38.3515 40.2985 37.963 40.3506 37.5764 40.321C37.1898 40.2914 36.8136 40.1807 36.4721 39.996C36.1306 39.8114 35.8314 39.5568 35.5937 39.2489L24.0479 44.5218C24.1018 44.9356 24.0421 45.3563 23.8753 45.7384C23.7085 46.1205 23.4409 46.4495 23.1016 46.6897C26.4691 47.1379 29.8943 46.7875 33.1031 45.6664C36.3118 44.5454 39.2151 42.6848 41.5807 40.2335L40.0006 39.2188C39.909 39.342 39.8071 39.4572 39.6962 39.5631" fill="#561EF2"/>
<path fill-rule="evenodd" clip-rule="evenodd" d="M39.5195 35.3587C40.0267 35.7656 40.376 36.3383 40.5067 36.9773C40.6373 37.6163 40.541 38.2812 40.2345 38.8562L41.8826 39.9159C45.4963 36.036 47.5775 30.9633 47.7356 25.65C47.2459 25.6336 46.7678 25.4959 46.3438 25.249L39.5195 35.3587Z" fill="#561EF2"/>
<path fill-rule="evenodd" clip-rule="evenodd" d="M15.723 8.43046C15.9997 8.1663 16.3674 8.02003 16.749 8.02229L18.2646 4.45801C16.0908 5.2822 14.0627 6.45202 12.2578 7.9228L15.4764 8.74832C15.5434 8.63132 15.6264 8.52433 15.723 8.43046Z" fill="#CBB9FF"/>
<path fill-rule="evenodd" clip-rule="evenodd" d="M30.188 6.33211C30.5389 5.99974 30.9724 5.76864 31.4429 5.66317C31.9134 5.55769 32.4035 5.58174 32.8615 5.73277C33.3196 5.8838 33.7287 6.15624 34.0457 6.52139C34.3627 6.88653 34.5759 7.33087 34.6629 7.80762L38.9374 7.3816C34.7076 4.22467 29.4837 2.71523 24.2324 3.13262L29.882 6.6816C29.9731 6.55635 30.075 6.4394 30.1865 6.33211" fill="#CBB9FF"/>
<path fill-rule="evenodd" clip-rule="evenodd" d="M34.1519 9.92392L45.7769 20.4994C45.7804 20.4959 45.7819 20.4913 45.787 20.4892C46.1614 20.1328 46.6217 19.8806 47.1225 19.7576C46.2265 16.0604 44.3829 12.6636 41.7754 9.90555C41.0497 9.13565 40.2696 8.4195 39.4412 7.7627L34.705 8.23361C34.7168 8.84361 34.5211 9.43938 34.1504 9.92239" fill="#A17FFF"/>
<path fill-rule="evenodd" clip-rule="evenodd" d="M17.8244 8.48664C18.006 8.68107 18.1317 8.92141 18.1882 9.18205L29.3514 8.28358C29.352 7.85269 29.4553 7.42823 29.6528 7.04582L23.5268 3.19531C21.9207 3.37614 20.3396 3.73548 18.8123 4.26674L17.1855 8.09327C17.4288 8.16614 17.649 8.30155 17.8244 8.48613" fill="#CBB9FF"/>
<path fill-rule="evenodd" clip-rule="evenodd" d="M20.0419 43.3472L16.2804 39.3038C15.9805 39.5275 15.6179 39.6503 15.2444 39.6544C14.871 39.6586 14.5057 39.544 14.2009 39.327C13.8961 39.11 13.6673 38.8018 13.5471 38.4462C13.4269 38.0906 13.4215 37.706 13.5317 37.3472L6.11328 34.0742C7.11039 36.2701 8.46254 38.2846 10.1148 40.036C12.7692 42.8585 16.1247 44.9176 19.8349 46.0008C19.5904 45.5919 19.479 45.1165 19.5161 44.6409C19.5532 44.1653 19.737 43.7132 20.0419 43.3477" fill="#561EF2"/>
<path fill-rule="evenodd" clip-rule="evenodd" d="M15.5021 10.3301C15.3899 10.1576 15.3146 9.96348 15.281 9.76016C15.2474 9.55684 15.2561 9.3487 15.3067 9.14896L11.842 8.26172C10.9221 9.04773 10.0676 9.90808 9.28719 10.8342L9.03906 13.4663C9.73859 13.578 10.3848 13.9101 10.8845 14.4148L15.5021 10.3301Z" fill="#CBB9FF"/>
<path fill-rule="evenodd" clip-rule="evenodd" d="M15.7227 24.6322L16.0241 18.9751L11.71 17.8613C11.5545 18.3409 11.2931 18.7789 10.9453 19.1425L14.9565 24.8088C15.2017 24.7119 15.4599 24.6524 15.7227 24.6322Z" fill="#A17FFF"/>
<path fill-rule="evenodd" clip-rule="evenodd" d="M32.0897 10.9737L31.6543 18.4614C32.6494 18.5692 33.5737 19.0304 34.2608 19.7621C34.9479 20.4939 35.3528 21.4482 35.4026 22.4533L44.868 22.4482C44.9091 21.855 45.1266 21.288 45.4921 20.8206L33.8651 10.2451C33.3836 10.7012 32.7506 10.9609 32.0892 10.9737" fill="#A17FFF"/>
<path fill-rule="evenodd" clip-rule="evenodd" d="M20.8541 42.7293L19.2811 38.0186L16.9977 38.0518C16.9606 38.4043 16.8192 38.7376 16.5918 39.0084L20.3467 43.0452C20.5006 42.9181 20.6703 42.8118 20.8516 42.7288L20.8541 42.7293ZM24.9241 37.9385L22.8554 42.7957C23.048 42.8987 23.2247 43.0293 23.38 43.1834L29.6279 37.8691L24.9282 37.9375" fill="#561EF2"/>
<path fill-rule="evenodd" clip-rule="evenodd" d="M44.8655 22.8779L35.4032 22.8846C35.371 23.5565 35.1795 24.2109 34.8447 24.7933C34.5099 25.3757 34.0415 25.8691 33.4785 26.2325L36.1709 32.304L45.4313 24.4238C45.1024 23.9728 44.9063 23.4378 44.8655 22.88" fill="#561EF2"/>
<path fill-rule="evenodd" clip-rule="evenodd" d="M30.818 37.4218L35.0194 37.3621C35.0433 36.9638 35.1522 36.5754 35.3387 36.2233C35.5252 35.8711 35.7849 35.5635 36.1002 35.3213L35.3274 33.583L30.818 37.4218ZM30.302 37.8611L24.2637 43.0024L35.0661 38.0708C35.0483 37.9788 35.0351 37.886 35.0265 37.7927L30.3035 37.8611" fill="#561EF2"/>
<path fill-rule="evenodd" clip-rule="evenodd" d="M4.73205 30.0279L13.3044 27.7763C13.235 27.3846 13.253 26.9823 13.3572 26.5985C13.4613 26.2147 13.649 25.8589 13.9067 25.5569L9.89807 19.8937C9.45209 20.0962 8.96765 20.1988 8.47831 20.1944C7.98898 20.19 7.50644 20.0787 7.06414 19.8682L4.14648 25.1743C4.16133 26.8085 4.35773 28.436 4.73205 30.0263" fill="#A17FFF"/>
<path fill-rule="evenodd" clip-rule="evenodd" d="M15.1138 36.0811L15.4416 29.9464C14.9793 29.8612 14.5478 29.6541 14.1912 29.3462C13.8346 29.0384 13.5656 28.6409 13.4119 28.1943L4.83398 30.4474C5.09897 31.4858 5.44021 32.5031 5.85491 33.4908L13.7032 36.9515C13.8455 36.6981 14.0496 36.4853 14.2963 36.333C14.543 36.1807 14.8241 36.094 15.1133 36.0811" fill="#561EF2"/>
<path fill-rule="evenodd" clip-rule="evenodd" d="M36.3521 32.7113L37.2786 34.796C37.9251 34.6747 38.5934 34.7872 39.1652 35.1138L45.9895 25.0041C45.8902 24.9248 45.7956 24.8396 45.7063 24.749L36.3516 32.7082" fill="#561EF2"/>
<path fill-rule="evenodd" clip-rule="evenodd" d="M16.4486 19.0836L16.1543 24.6325C16.5796 24.6659 16.9907 24.8017 17.3528 25.0285C17.7149 25.2554 18.0174 25.5665 18.2347 25.9356L27.0232 23.2632C26.9564 22.7856 26.971 22.3001 27.0663 21.8274L16.4486 19.082" fill="#A17FFF"/>
<path fill-rule="evenodd" clip-rule="evenodd" d="M28.1313 25.5865C27.8303 25.2668 27.5807 24.9019 27.3915 24.5049L18.6025 27.1738C18.6304 27.7219 18.4901 28.2654 18.2007 28.7308C17.9113 29.1962 17.4867 29.561 16.9844 29.7758L19.589 37.5819L24.6413 37.5085L29.341 26.4748C28.8883 26.2544 28.4785 25.954 28.1313 25.588" fill="#561EF2"/>
<path fill-rule="evenodd" clip-rule="evenodd" d="M30.0867 10.1358C29.9828 10.0252 29.8888 9.90568 29.8056 9.77864L16.6929 14.5302L16.4727 18.6445L27.1695 21.4098C27.437 20.5414 27.976 19.783 28.7065 19.2473C29.4369 18.7115 30.3198 18.4271 31.2238 18.4363L31.6607 10.9485C31.0593 10.8661 30.5041 10.5789 30.0877 10.1348L30.0867 10.1358ZM17.7691 10.5991C17.5263 10.8293 17.2132 10.9701 16.8806 10.9985L16.768 13.1266L28.8227 8.75977L18.2253 9.61385C18.2033 9.98915 18.04 10.342 17.7686 10.6006" fill="#A17FFF"/>
<path fill-rule="evenodd" clip-rule="evenodd" d="M16.0506 18.5346L16.2535 14.6876L11.8375 16.2881C11.8951 16.6705 11.8872 17.06 11.8141 17.4397L16.0506 18.5361V18.5346ZM11.4011 15.0718L16.3322 13.2861L16.4529 10.98C16.2088 10.9281 15.9818 10.8147 15.7933 10.6504L11.1758 14.7371C11.2582 14.8444 11.3339 14.9567 11.4026 15.0734" fill="#A17FFF"/>
<path fill-rule="evenodd" clip-rule="evenodd" d="M19.7324 38.0137L21.2582 42.5912C21.6555 42.4953 22.0712 42.509 22.4613 42.631L24.457 37.9453L19.7324 38.0137Z" fill="#561EF2"/>
<path fill-rule="evenodd" clip-rule="evenodd" d="M29.7364 26.6451L25.1113 37.5053L30.1419 37.4318L35.1476 33.1721L32.303 26.7599C31.4557 26.9897 30.5582 26.9491 29.7349 26.6436" fill="#561EF2"/>
<path fill-rule="evenodd" clip-rule="evenodd" d="M16.5762 29.9141C16.3779 29.9632 16.1746 29.9894 15.9704 29.9921L15.5645 36.1033C15.9324 36.1709 16.2695 36.3543 16.527 36.6271C16.7846 36.8998 16.9493 37.2477 16.9974 37.6207L19.1372 37.5906L16.5762 29.9156" fill="#561EF2"/>
<path fill-rule="evenodd" clip-rule="evenodd" d="M49.5605 24.9093C49.5513 21.7076 48.9133 18.5393 47.683 15.5863C46.151 11.9541 43.7487 8.75965 40.6906 6.28771C37.6324 3.81578 34.0134 2.14323 30.1562 1.41923C26.299 0.695231 22.3236 0.942277 18.5845 2.13834C14.8453 3.3344 11.4586 5.4423 8.72648 8.27407C4.38899 12.7817 1.9875 18.8231 2.04 25.095C2.09249 31.3669 4.59478 37.3668 9.00711 41.8004C13.4194 46.234 19.3882 48.746 25.6259 48.7947C31.8636 48.8433 37.8704 46.4246 42.3506 42.0603C44.6266 39.833 46.439 37.1725 47.682 34.2338C48.9123 31.2802 49.5503 28.1114 49.5595 24.9093H49.5605ZM49.5605 24.9093C49.5623 29.8085 48.1274 34.5995 45.4354 38.6831C42.7434 42.7667 38.9137 45.9616 34.4254 47.8682C29.937 49.7748 24.9892 50.3085 20.2007 49.4025C15.4123 48.4966 10.9958 46.1911 7.5036 42.7746C3.92884 39.2922 1.48093 34.8073 0.479237 29.905C-0.522453 25.0027 -0.0314116 19.9107 1.8883 15.2932C3.80801 10.6758 7.06725 6.74727 11.2408 4.02029C15.4144 1.29331 20.3085 -0.105554 25.2846 0.00621102C31.7659 0.141488 37.9367 2.82401 42.4748 7.47896C47.0128 12.1339 49.5569 18.3909 49.562 24.9093H49.5605Z" fill="#561EF2"/>
<path fill-rule="evenodd" clip-rule="evenodd" d="M109.914 25.605C109.775 24.6948 108.591 22.5218 105.592 22.5218C102.594 22.5218 101.407 24.6948 101.268 25.605H109.914ZM101.198 30.0193C101.444 32.0856 103.395 33.4519 105.664 33.4519C106.359 33.4924 107.052 33.3448 107.671 33.0247C108.291 32.7046 108.813 32.2235 109.185 31.6315H115.109C114.292 33.6318 112.926 35.3572 111.171 36.6065C109.562 37.7566 107.634 38.369 105.66 38.357C102.944 38.3536 100.34 37.2677 98.4185 35.337C96.4972 33.4064 95.4154 30.7887 95.4103 28.0575C95.4103 22.6284 99.665 17.6182 105.559 17.6182C106.924 17.5963 108.28 17.8587 109.54 18.3891C110.8 18.9194 111.937 19.7062 112.88 20.6999C115.32 23.329 116.052 26.4468 115.598 30.0193H101.2H101.198ZM117.616 18.2846H123.055V20.455C123.614 19.405 124.624 17.6162 127.97 17.6162V23.4682H127.762C124.798 23.4682 123.403 24.5529 123.403 27.2871V37.7264H117.618V18.2841L117.616 18.2846ZM137.662 23.7483C137.629 23.3274 137.557 22.2774 135.85 22.2774C134.632 22.2774 134.211 23.0478 134.211 23.5733C134.211 24.4483 135.639 25.0443 137.173 25.5004C140.452 26.4106 143.938 27.3922 143.938 31.5968C143.938 35.8713 140.347 38.3922 136.06 38.3922C133.131 38.3922 128.702 37.0611 128.179 31.9463H133.931C134.177 33.732 135.884 33.732 136.129 33.732C137.105 33.732 138.15 33.1708 138.15 32.2264C138.15 30.8953 136.722 30.7188 133.025 29.283C130.515 28.4779 128.424 26.8305 128.424 24.2029C128.424 20.1723 131.909 17.6157 135.921 17.6157C138.464 17.6157 142.857 18.6325 143.346 23.7473H137.663L137.662 23.7483ZM159.145 25.6045C159.006 24.6943 157.821 22.5213 154.823 22.5213C151.825 22.5213 150.64 24.6943 150.499 25.6045H159.145ZM150.429 30.0187C150.674 32.0851 152.627 33.4514 154.894 33.4514C155.59 33.4918 156.283 33.3443 156.902 33.0241C157.521 32.704 158.044 32.223 158.416 31.631H164.344C163.525 33.631 162.159 35.3563 160.404 36.606C158.795 37.7562 156.867 38.3685 154.893 38.3565C152.177 38.3531 149.573 37.2671 147.651 35.3365C145.73 33.4059 144.648 30.7882 144.643 28.057C144.643 22.6279 148.896 17.6177 154.787 17.6177C156.153 17.5954 157.509 17.8577 158.769 18.3881C160.029 18.9184 161.166 19.7054 162.109 20.6994C164.55 23.3284 165.282 26.4463 164.83 30.0187H150.429ZM88.6322 28.0228C88.6446 28.6693 88.5281 29.3116 88.2898 29.9122C88.0515 30.5127 87.6961 31.0592 87.2445 31.5195C86.793 31.9798 86.2544 32.3446 85.6605 32.5924C85.0666 32.8403 84.4294 32.9661 83.7864 32.9626C83.1462 32.9665 82.5117 32.842 81.92 32.5964C81.3282 32.3509 80.7911 31.9892 80.34 31.5325C79.8888 31.0758 79.5328 30.5333 79.2926 29.9366C79.0524 29.34 78.9329 28.7012 78.941 28.0575C78.9251 26.7468 79.4115 25.4801 80.2994 24.5203C80.9773 23.8219 81.8477 23.3437 82.7984 23.1475C83.7491 22.9512 84.7365 23.0459 85.6332 23.4193C86.5299 23.7927 87.2948 24.4276 87.8292 25.2423C88.3635 26.0569 88.6429 27.0139 88.6312 27.9897V28.0244L88.6322 28.0228ZM84.9717 17.6147C83.804 17.5857 82.6449 17.8231 81.5815 18.3092C80.5181 18.7952 79.5781 19.5171 78.8319 20.4208V18.282H73.3965V46.6448H73.4777L79.1831 41.0045V35.9759C79.8793 36.7101 81.5197 38.3937 85.0042 38.3937C90.5112 38.3937 94.4168 33.8019 94.4168 28.1973C94.4168 23.6784 91.8351 17.6182 84.9677 17.6182L84.9717 17.6147Z" fill="#310844"/>
<path fill-rule="evenodd" clip-rule="evenodd" d="M64.8997 23.1327C64.8668 22.7117 64.7957 21.6617 63.0877 21.6617C61.8699 21.6617 61.4493 22.4321 61.4493 22.9577C61.4493 23.8327 62.8772 24.4286 64.4116 24.8847C67.69 25.7949 71.1765 26.7765 71.1765 30.9811C71.1765 35.2556 67.5855 37.7765 63.2978 37.7765C60.369 37.7765 55.9403 36.4454 55.4176 31.3306H61.1697C61.4148 33.1163 63.1222 33.1163 63.3673 33.1163C64.3436 33.1163 65.3879 32.5551 65.3879 31.6107C65.3879 30.2796 63.96 30.1031 60.2629 28.6673C57.7527 27.8622 55.6627 26.2148 55.6627 23.5872C55.6627 19.5566 59.1476 17 63.1588 17C65.7025 17 70.0957 18.0168 70.5838 23.1316H64.9007L64.8997 23.1327Z" fill="#310844"/>
<path fill-rule="evenodd" clip-rule="evenodd" d="M166 18.2846H171.44V20.455C171.998 19.405 173.008 17.6162 176.354 17.6162V23.4683H176.146C173.182 23.4683 171.787 24.5529 171.787 27.2871V37.7264H166.003V18.2841L166 18.2846Z" fill="#310844"/>
</g>
<defs>
<clipPath id="clip0_3215_348">
<rect width="182" height="50" fill="white"/>
</clipPath>
</defs>
</svg>
