<svg width="70" height="70" viewBox="0 0 70 70" fill="none" xmlns="http://www.w3.org/2000/svg">
<path d="M35.401 19.9986H37.501C37.9273 19.9986 38.2802 19.6456 38.2802 19.2194C38.2802 18.7932 37.9273 18.4402 37.501 18.4402H35.401C34.9748 18.4402 34.6219 18.7932 34.6219 19.2194C34.6219 19.6456 34.9748 19.9986 35.401 19.9986Z" fill="#00A8ED" stroke="#00A8ED" stroke-width="0.1"/>
<mask id="path-2-outside-1_2285_3866" maskUnits="userSpaceOnUse" x="3.13281" y="3.19922" width="63" height="63" fill="black">
<rect fill="white" x="3.13281" y="3.19922" width="63" height="63"/>
<path d="M65.8689 19.2201C65.8689 19.2103 65.8689 19.2006 65.8689 19.2006V10.752C65.8689 7.13533 62.9328 4.19922 59.3259 4.19922H10.6856C7.06892 4.19922 4.13281 7.13533 4.13281 10.752V52.2562C4.13281 55.8728 7.06892 58.8089 10.6856 58.8089H47.0856L46.5606 65.0214C46.5314 65.3326 46.7064 65.6242 46.9884 65.7506C47.2703 65.877 47.6009 65.8089 47.8148 65.5853L51.7814 61.3659L55.7481 65.5853C55.8842 65.7312 56.0786 65.8187 56.2828 65.8187C56.38 65.8187 56.487 65.7992 56.5842 65.7506C56.8661 65.6242 57.0411 65.3326 57.012 65.0214L56.487 58.8089H59.3161C62.9231 58.8089 65.8592 55.8728 65.8592 52.2562V19.2492C65.8689 19.2395 65.8689 19.2298 65.8689 19.2201ZM55.3884 53.7437C55.3787 53.7437 55.3689 53.7437 55.3592 53.7437C55.3495 53.7437 55.3495 53.7437 55.3398 53.7437C55.33 53.7437 55.33 53.7534 55.3203 53.7534C54.4745 53.7728 53.6773 54.1034 53.0745 54.7062C52.3648 55.4159 51.2175 55.4159 50.5078 54.7062C49.905 54.1034 49.1175 53.7728 48.2717 53.7534C48.262 53.7534 48.262 53.7437 48.2523 53.7437C48.2425 53.7437 48.2425 53.7437 48.2328 53.7437C48.2231 53.7437 48.2134 53.7437 48.2037 53.7437C47.2023 53.7437 46.3856 52.927 46.3856 51.9256C46.3856 51.0506 46.0453 50.2339 45.4231 49.6117C44.7134 48.902 44.7134 47.7548 45.4231 47.0451C46.0453 46.4228 46.3856 45.6062 46.3856 44.7312C46.3856 43.7298 47.2023 42.9228 48.2037 42.9228C49.0592 42.9228 49.905 42.5728 50.5175 41.9603C50.8578 41.6201 51.3148 41.4256 51.8009 41.4256C52.287 41.4256 52.7439 41.6103 53.0842 41.9603C53.7064 42.5826 54.5231 42.9228 55.3981 42.9228C56.3995 42.9228 57.2161 43.7395 57.2161 44.7312C57.2161 45.6062 57.5564 46.4228 58.1786 47.0451C58.8884 47.7548 58.8884 48.902 58.1786 49.6117C57.5564 50.2339 57.2161 51.0506 57.2161 51.9256C57.1967 52.927 56.3898 53.7437 55.3884 53.7437ZM52.3162 59.7909C52.18 59.6451 51.9856 59.5576 51.7814 59.5576C51.5773 59.5576 51.3925 59.6353 51.2467 59.7909L48.1745 63.0478L48.8259 55.3187C49.0592 55.4062 49.2731 55.5423 49.4578 55.727C50.0995 56.3687 50.9356 56.6798 51.7717 56.6798C52.6078 56.6798 53.4439 56.3589 54.0856 55.727C54.2703 55.5423 54.4842 55.4062 54.7175 55.3187L55.3689 63.0478L52.3162 59.7909ZM59.3259 57.3409H56.38L56.1953 55.0853C57.6148 54.7256 58.6745 53.452 58.6745 51.9256C58.6745 51.4395 58.8592 50.9826 59.2092 50.6423C60.4828 49.3687 60.4828 47.2881 59.2092 46.0145C58.8689 45.6742 58.6745 45.2173 58.6745 44.7312C58.6745 42.9228 57.2064 41.4645 55.3981 41.4645C54.912 41.4645 54.455 41.2798 54.1148 40.9298C52.88 39.6951 50.7217 39.6951 49.487 40.9298C49.1467 41.2701 48.68 41.4645 48.2037 41.4645C46.3953 41.4645 44.9273 42.9326 44.9273 44.7312C44.9273 45.2173 44.7425 45.6742 44.3925 46.0145C43.1189 47.2881 43.1189 49.3687 44.3925 50.6423C44.7328 50.9826 44.9273 51.4395 44.9273 51.9256C44.9273 53.452 45.987 54.7353 47.4064 55.0853L47.212 57.3312H10.6856C7.87587 57.3312 5.59115 55.0464 5.59115 52.2367V19.9492H14.6328C14.8078 19.9492 14.9828 19.8812 15.1092 19.7645L17.987 17.2367H24.5592L26.9703 19.7256C27.1064 19.8714 27.2911 19.9492 27.4953 19.9492H31.812C32.2106 19.9492 32.5411 19.6187 32.5411 19.2201C32.5411 18.8214 32.2106 18.4909 31.812 18.4909H27.8064L25.3953 16.002C25.2592 15.8562 25.0745 15.7784 24.8703 15.7784H17.7148C17.5398 15.7784 17.3648 15.8464 17.2384 15.9631L14.3606 18.4909H5.59115V10.752C5.59115 7.94227 7.87587 5.65755 10.6856 5.65755H59.3259C62.1259 5.65755 64.4106 7.94227 64.4106 10.752V18.4909H40.9217C40.5231 18.4909 40.1925 18.8214 40.1925 19.2201C40.1925 19.6187 40.5231 19.9492 40.9217 19.9492H64.4106V52.2464C64.4106 55.0562 62.1259 57.3409 59.3259 57.3409Z"/>
</mask>
<path d="M65.8689 19.2201C65.8689 19.2103 65.8689 19.2006 65.8689 19.2006V10.752C65.8689 7.13533 62.9328 4.19922 59.3259 4.19922H10.6856C7.06892 4.19922 4.13281 7.13533 4.13281 10.752V52.2562C4.13281 55.8728 7.06892 58.8089 10.6856 58.8089H47.0856L46.5606 65.0214C46.5314 65.3326 46.7064 65.6242 46.9884 65.7506C47.2703 65.877 47.6009 65.8089 47.8148 65.5853L51.7814 61.3659L55.7481 65.5853C55.8842 65.7312 56.0786 65.8187 56.2828 65.8187C56.38 65.8187 56.487 65.7992 56.5842 65.7506C56.8661 65.6242 57.0411 65.3326 57.012 65.0214L56.487 58.8089H59.3161C62.9231 58.8089 65.8592 55.8728 65.8592 52.2562V19.2492C65.8689 19.2395 65.8689 19.2298 65.8689 19.2201ZM55.3884 53.7437C55.3787 53.7437 55.3689 53.7437 55.3592 53.7437C55.3495 53.7437 55.3495 53.7437 55.3398 53.7437C55.33 53.7437 55.33 53.7534 55.3203 53.7534C54.4745 53.7728 53.6773 54.1034 53.0745 54.7062C52.3648 55.4159 51.2175 55.4159 50.5078 54.7062C49.905 54.1034 49.1175 53.7728 48.2717 53.7534C48.262 53.7534 48.262 53.7437 48.2523 53.7437C48.2425 53.7437 48.2425 53.7437 48.2328 53.7437C48.2231 53.7437 48.2134 53.7437 48.2037 53.7437C47.2023 53.7437 46.3856 52.927 46.3856 51.9256C46.3856 51.0506 46.0453 50.2339 45.4231 49.6117C44.7134 48.902 44.7134 47.7548 45.4231 47.0451C46.0453 46.4228 46.3856 45.6062 46.3856 44.7312C46.3856 43.7298 47.2023 42.9228 48.2037 42.9228C49.0592 42.9228 49.905 42.5728 50.5175 41.9603C50.8578 41.6201 51.3148 41.4256 51.8009 41.4256C52.287 41.4256 52.7439 41.6103 53.0842 41.9603C53.7064 42.5826 54.5231 42.9228 55.3981 42.9228C56.3995 42.9228 57.2161 43.7395 57.2161 44.7312C57.2161 45.6062 57.5564 46.4228 58.1786 47.0451C58.8884 47.7548 58.8884 48.902 58.1786 49.6117C57.5564 50.2339 57.2161 51.0506 57.2161 51.9256C57.1967 52.927 56.3898 53.7437 55.3884 53.7437ZM52.3162 59.7909C52.18 59.6451 51.9856 59.5576 51.7814 59.5576C51.5773 59.5576 51.3925 59.6353 51.2467 59.7909L48.1745 63.0478L48.8259 55.3187C49.0592 55.4062 49.2731 55.5423 49.4578 55.727C50.0995 56.3687 50.9356 56.6798 51.7717 56.6798C52.6078 56.6798 53.4439 56.3589 54.0856 55.727C54.2703 55.5423 54.4842 55.4062 54.7175 55.3187L55.3689 63.0478L52.3162 59.7909ZM59.3259 57.3409H56.38L56.1953 55.0853C57.6148 54.7256 58.6745 53.452 58.6745 51.9256C58.6745 51.4395 58.8592 50.9826 59.2092 50.6423C60.4828 49.3687 60.4828 47.2881 59.2092 46.0145C58.8689 45.6742 58.6745 45.2173 58.6745 44.7312C58.6745 42.9228 57.2064 41.4645 55.3981 41.4645C54.912 41.4645 54.455 41.2798 54.1148 40.9298C52.88 39.6951 50.7217 39.6951 49.487 40.9298C49.1467 41.2701 48.68 41.4645 48.2037 41.4645C46.3953 41.4645 44.9273 42.9326 44.9273 44.7312C44.9273 45.2173 44.7425 45.6742 44.3925 46.0145C43.1189 47.2881 43.1189 49.3687 44.3925 50.6423C44.7328 50.9826 44.9273 51.4395 44.9273 51.9256C44.9273 53.452 45.987 54.7353 47.4064 55.0853L47.212 57.3312H10.6856C7.87587 57.3312 5.59115 55.0464 5.59115 52.2367V19.9492H14.6328C14.8078 19.9492 14.9828 19.8812 15.1092 19.7645L17.987 17.2367H24.5592L26.9703 19.7256C27.1064 19.8714 27.2911 19.9492 27.4953 19.9492H31.812C32.2106 19.9492 32.5411 19.6187 32.5411 19.2201C32.5411 18.8214 32.2106 18.4909 31.812 18.4909H27.8064L25.3953 16.002C25.2592 15.8562 25.0745 15.7784 24.8703 15.7784H17.7148C17.5398 15.7784 17.3648 15.8464 17.2384 15.9631L14.3606 18.4909H5.59115V10.752C5.59115 7.94227 7.87587 5.65755 10.6856 5.65755H59.3259C62.1259 5.65755 64.4106 7.94227 64.4106 10.752V18.4909H40.9217C40.5231 18.4909 40.1925 18.8214 40.1925 19.2201C40.1925 19.6187 40.5231 19.9492 40.9217 19.9492H64.4106V52.2464C64.4106 55.0562 62.1259 57.3409 59.3259 57.3409Z" fill="#00A8ED"/>
<path d="M65.8689 19.2201C65.8689 19.2103 65.8689 19.2006 65.8689 19.2006V10.752C65.8689 7.13533 62.9328 4.19922 59.3259 4.19922H10.6856C7.06892 4.19922 4.13281 7.13533 4.13281 10.752V52.2562C4.13281 55.8728 7.06892 58.8089 10.6856 58.8089H47.0856L46.5606 65.0214C46.5314 65.3326 46.7064 65.6242 46.9884 65.7506C47.2703 65.877 47.6009 65.8089 47.8148 65.5853L51.7814 61.3659L55.7481 65.5853C55.8842 65.7312 56.0786 65.8187 56.2828 65.8187C56.38 65.8187 56.487 65.7992 56.5842 65.7506C56.8661 65.6242 57.0411 65.3326 57.012 65.0214L56.487 58.8089H59.3161C62.9231 58.8089 65.8592 55.8728 65.8592 52.2562V19.2492C65.8689 19.2395 65.8689 19.2298 65.8689 19.2201ZM55.3884 53.7437C55.3787 53.7437 55.3689 53.7437 55.3592 53.7437C55.3495 53.7437 55.3495 53.7437 55.3398 53.7437C55.33 53.7437 55.33 53.7534 55.3203 53.7534C54.4745 53.7728 53.6773 54.1034 53.0745 54.7062C52.3648 55.4159 51.2175 55.4159 50.5078 54.7062C49.905 54.1034 49.1175 53.7728 48.2717 53.7534C48.262 53.7534 48.262 53.7437 48.2523 53.7437C48.2425 53.7437 48.2425 53.7437 48.2328 53.7437C48.2231 53.7437 48.2134 53.7437 48.2037 53.7437C47.2023 53.7437 46.3856 52.927 46.3856 51.9256C46.3856 51.0506 46.0453 50.2339 45.4231 49.6117C44.7134 48.902 44.7134 47.7548 45.4231 47.0451C46.0453 46.4228 46.3856 45.6062 46.3856 44.7312C46.3856 43.7298 47.2023 42.9228 48.2037 42.9228C49.0592 42.9228 49.905 42.5728 50.5175 41.9603C50.8578 41.6201 51.3148 41.4256 51.8009 41.4256C52.287 41.4256 52.7439 41.6103 53.0842 41.9603C53.7064 42.5826 54.5231 42.9228 55.3981 42.9228C56.3995 42.9228 57.2161 43.7395 57.2161 44.7312C57.2161 45.6062 57.5564 46.4228 58.1786 47.0451C58.8884 47.7548 58.8884 48.902 58.1786 49.6117C57.5564 50.2339 57.2161 51.0506 57.2161 51.9256C57.1967 52.927 56.3898 53.7437 55.3884 53.7437ZM52.3162 59.7909C52.18 59.6451 51.9856 59.5576 51.7814 59.5576C51.5773 59.5576 51.3925 59.6353 51.2467 59.7909L48.1745 63.0478L48.8259 55.3187C49.0592 55.4062 49.2731 55.5423 49.4578 55.727C50.0995 56.3687 50.9356 56.6798 51.7717 56.6798C52.6078 56.6798 53.4439 56.3589 54.0856 55.727C54.2703 55.5423 54.4842 55.4062 54.7175 55.3187L55.3689 63.0478L52.3162 59.7909ZM59.3259 57.3409H56.38L56.1953 55.0853C57.6148 54.7256 58.6745 53.452 58.6745 51.9256C58.6745 51.4395 58.8592 50.9826 59.2092 50.6423C60.4828 49.3687 60.4828 47.2881 59.2092 46.0145C58.8689 45.6742 58.6745 45.2173 58.6745 44.7312C58.6745 42.9228 57.2064 41.4645 55.3981 41.4645C54.912 41.4645 54.455 41.2798 54.1148 40.9298C52.88 39.6951 50.7217 39.6951 49.487 40.9298C49.1467 41.2701 48.68 41.4645 48.2037 41.4645C46.3953 41.4645 44.9273 42.9326 44.9273 44.7312C44.9273 45.2173 44.7425 45.6742 44.3925 46.0145C43.1189 47.2881 43.1189 49.3687 44.3925 50.6423C44.7328 50.9826 44.9273 51.4395 44.9273 51.9256C44.9273 53.452 45.987 54.7353 47.4064 55.0853L47.212 57.3312H10.6856C7.87587 57.3312 5.59115 55.0464 5.59115 52.2367V19.9492H14.6328C14.8078 19.9492 14.9828 19.8812 15.1092 19.7645L17.987 17.2367H24.5592L26.9703 19.7256C27.1064 19.8714 27.2911 19.9492 27.4953 19.9492H31.812C32.2106 19.9492 32.5411 19.6187 32.5411 19.2201C32.5411 18.8214 32.2106 18.4909 31.812 18.4909H27.8064L25.3953 16.002C25.2592 15.8562 25.0745 15.7784 24.8703 15.7784H17.7148C17.5398 15.7784 17.3648 15.8464 17.2384 15.9631L14.3606 18.4909H5.59115V10.752C5.59115 7.94227 7.87587 5.65755 10.6856 5.65755H59.3259C62.1259 5.65755 64.4106 7.94227 64.4106 10.752V18.4909H40.9217C40.5231 18.4909 40.1925 18.8214 40.1925 19.2201C40.1925 19.6187 40.5231 19.9492 40.9217 19.9492H64.4106V52.2464C64.4106 55.0562 62.1259 57.3409 59.3259 57.3409Z" stroke="#00A8ED" stroke-width="0.2" mask="url(#path-2-outside-1_2285_3866)"/>
<path d="M47.2139 14.8664C48.8068 14.8664 50.1028 13.5705 50.1028 11.9776C50.1028 10.3847 48.8068 9.08867 47.2139 9.08867C45.621 9.08867 44.325 10.3847 44.325 11.9776C44.325 13.5705 45.621 14.8664 47.2139 14.8664ZM47.2139 10.6373C47.9541 10.6373 48.5444 11.2369 48.5444 11.9678C48.5444 12.6986 47.9446 13.2984 47.2139 13.2984C46.4832 13.2984 45.8833 12.6986 45.8833 11.9678C45.8833 11.2369 46.4737 10.6373 47.2139 10.6373Z" fill="#00A8ED" stroke="#00A8ED" stroke-width="0.1"/>
<path d="M38.5186 14.8664C40.1115 14.8664 41.4075 13.5705 41.4075 11.9776C41.4075 10.3847 40.1115 9.08867 38.5186 9.08867C36.9257 9.08867 35.6297 10.3847 35.6297 11.9776C35.6297 13.5703 36.9158 14.8664 38.5186 14.8664ZM38.5186 10.6373C39.2493 10.6373 39.8491 11.2371 39.8491 11.9678C39.8491 12.6986 39.2493 13.2984 38.5186 13.2984C37.7879 13.2984 37.188 12.6986 37.188 11.9678C37.188 11.2369 37.7784 10.6373 38.5186 10.6373Z" fill="#00A8ED" stroke="#00A8ED" stroke-width="0.1"/>
<path d="M55.9014 14.8664C57.4943 14.8664 58.7903 13.5705 58.7903 11.9776C58.7903 10.3847 57.4943 9.08867 55.9014 9.08867C54.3085 9.08867 53.0125 10.3847 53.0125 11.9776C53.0125 13.5705 54.3085 14.8664 55.9014 14.8664ZM55.9014 10.6373C56.6321 10.6373 57.2319 11.2371 57.2319 11.9678C57.2319 12.6986 56.6321 13.2984 55.9014 13.2984C55.1612 13.2984 54.5708 12.6988 54.5708 11.9678C54.5708 11.2369 55.1612 10.6373 55.9014 10.6373Z" fill="#00A8ED" stroke="#00A8ED" stroke-width="0.1"/>
<path d="M39.1267 43.8152H36.3073C35.8811 43.8152 35.5281 44.1682 35.5281 44.5944C35.5281 45.0206 35.8811 45.3736 36.3073 45.3736H39.1267C39.553 45.3736 39.9059 45.0206 39.9059 44.5944C39.9059 44.1686 39.5631 43.8152 39.1267 43.8152Z" fill="#00A8ED" stroke="#00A8ED" stroke-width="0.1"/>
<path d="M10.9948 45.354H33.1615C33.5877 45.354 33.9406 45.0011 33.9406 44.5749C33.9406 44.1486 33.5877 43.7957 33.1615 43.7957H10.9948C10.5686 43.7957 10.2156 44.1486 10.2156 44.5749C10.2156 45.0007 10.5584 45.354 10.9948 45.354Z" fill="#00A8ED" stroke="#00A8ED" stroke-width="0.1"/>
<path d="M16.7601 47.8797H10.9948C10.5686 47.8797 10.2156 48.2326 10.2156 48.6589C10.2156 49.0851 10.5686 49.438 10.9948 49.438H16.7601C17.1863 49.438 17.5392 49.0851 17.5392 48.6589C17.5392 48.2326 17.1863 47.8797 16.7601 47.8797Z" fill="#00A8ED" stroke="#00A8ED" stroke-width="0.1"/>
<path d="M39.1229 47.8797H20.5729C20.1467 47.8797 19.7937 48.2326 19.7937 48.6589C19.7937 49.0851 20.1467 49.438 20.5729 49.438H39.1229C39.5491 49.438 39.9021 49.0851 39.9021 48.6589C39.9021 48.2331 39.5593 47.8797 39.1229 47.8797Z" fill="#00A8ED" stroke="#00A8ED" stroke-width="0.1"/>
<path d="M10.9948 41.272H16.7601C17.1863 41.272 17.5392 40.9191 17.5392 40.4928C17.5392 40.0666 17.1863 39.7137 16.7601 39.7137H10.9948C10.5686 39.7137 10.2156 40.0666 10.2156 40.4928C10.2156 40.9186 10.5584 41.272 10.9948 41.272Z" fill="#00A8ED" stroke="#00A8ED" stroke-width="0.1"/>
<path d="M39.1229 39.7137H20.5729C20.1467 39.7137 19.7937 40.0666 19.7937 40.4928C19.7937 40.9191 20.1467 41.272 20.5729 41.272H39.1229C39.5491 41.272 39.9021 40.9191 39.9021 40.4928C39.9021 40.067 39.5593 39.7137 39.1229 39.7137Z" fill="#00A8ED" stroke="#00A8ED" stroke-width="0.1"/>
<path d="M16.7352 33.4528C15.9851 33.4528 15.3755 32.8433 15.3755 32.0931C15.3755 31.6669 15.0226 31.3139 14.5964 31.3139C14.1701 31.3139 13.8172 31.6669 13.8172 32.0931C13.8172 33.7054 15.1229 35.0112 16.7352 35.0112C18.3476 35.0112 19.6533 33.7054 19.6533 32.0931C19.6533 30.4808 18.3476 29.175 16.7352 29.175C15.9851 29.175 15.3755 28.5655 15.3755 27.8153C15.3755 27.0652 15.9851 26.4556 16.7352 26.4556C17.4854 26.4556 18.095 27.0652 18.095 27.8153C18.095 28.2415 18.4479 28.5945 18.8741 28.5945C19.3004 28.5945 19.6533 28.2415 19.6533 27.8153C19.6533 26.203 18.3476 24.8973 16.7352 24.8973C15.1229 24.8973 13.8172 26.203 13.8172 27.8153C13.8172 29.4277 15.1229 30.7334 16.7352 30.7334C17.4854 30.7334 18.095 31.3429 18.095 32.0931C18.095 32.8433 17.4854 33.4528 16.7352 33.4528Z" fill="#00A8ED" stroke="#00A8ED" stroke-width="0.1"/>
<path d="M24.2665 33.4528C23.5163 33.4528 22.9068 32.8433 22.9068 32.0931C22.9068 31.6669 22.5538 31.3139 22.1276 31.3139C21.7014 31.3139 21.3484 31.6669 21.3484 32.0931C21.3484 33.7054 22.6542 35.0112 24.2665 35.0112C25.8788 35.0112 27.1845 33.7054 27.1845 32.0931C27.1845 30.4808 25.8788 29.175 24.2665 29.175C23.5163 29.175 22.9068 28.5655 22.9068 27.8153C22.9068 27.0652 23.5163 26.4556 24.2665 26.4556C25.0167 26.4556 25.6262 27.0652 25.6262 27.8153C25.6262 28.2415 25.9792 28.5945 26.4054 28.5945C26.8316 28.5945 27.1845 28.2415 27.1845 27.8153C27.1845 26.203 25.8788 24.8973 24.2665 24.8973C22.6542 24.8973 21.3484 26.203 21.3484 27.8153C21.3484 29.4277 22.6542 30.7334 24.2665 30.7334C25.0167 30.7334 25.6262 31.3429 25.6262 32.0931C25.6262 32.8433 25.0167 33.4528 24.2665 33.4528Z" fill="#00A8ED" stroke="#00A8ED" stroke-width="0.1"/>
<path d="M29.9167 35.0112H34.6514C35.0776 35.0112 35.4306 34.6582 35.4306 34.232C35.4306 33.8058 35.0776 33.4528 34.6514 33.4528H30.6958V25.6764C30.6958 25.2502 30.3429 24.8973 29.9167 24.8973C29.4904 24.8973 29.1375 25.2502 29.1375 25.6764V34.232C29.1375 34.6578 29.4803 35.0112 29.9167 35.0112Z" fill="#00A8ED" stroke="#00A8ED" stroke-width="0.1"/>
<path d="M60.7969 24.8973H47.9635C47.5373 24.8973 47.1844 25.2502 47.1844 25.6764C47.1844 26.1027 47.5373 26.4556 47.9635 26.4556H60.7969C61.2231 26.4556 61.576 26.1027 61.576 25.6764C61.576 25.2502 61.2231 24.8973 60.7969 24.8973Z" fill="#00A8ED" stroke="#00A8ED" stroke-width="0.1"/>
<path d="M42.2917 26.4556H44.6736C45.0998 26.4556 45.4528 26.1027 45.4528 25.6764C45.4528 25.2502 45.0998 24.8973 44.6736 24.8973H42.2917C41.8654 24.8973 41.5125 25.2502 41.5125 25.6764C41.5125 26.1022 41.8553 26.4556 42.2917 26.4556Z" fill="#00A8ED" stroke="#00A8ED" stroke-width="0.1"/>
<path d="M60.7931 29.3973H42.2917C41.8654 29.3973 41.5125 29.7502 41.5125 30.1764C41.5125 30.6027 41.8654 30.9556 42.2917 30.9556H60.7931C61.2193 30.9556 61.5722 30.6027 61.5722 30.1764C61.5722 29.7502 61.2193 29.3973 60.7931 29.3973Z" fill="#00A8ED" stroke="#00A8ED" stroke-width="0.1"/>
<path d="M60.7944 33.909H57.4792C57.0529 33.909 56.7 34.2619 56.7 34.6882C56.7 35.1144 57.0529 35.4673 57.4792 35.4673H60.7944C61.2207 35.4673 61.5736 35.1144 61.5736 34.6882C61.5736 34.2619 61.2207 33.909 60.7944 33.909Z" fill="#00A8ED" stroke="#00A8ED" stroke-width="0.1"/>
<path d="M54.3764 33.909H42.2917C41.8654 33.909 41.5125 34.2619 41.5125 34.6882C41.5125 35.1144 41.8654 35.4673 42.2917 35.4673H54.3764C54.8026 35.4673 55.1556 35.1144 55.1556 34.6882C55.1556 34.2619 54.8026 33.909 54.3764 33.909Z" fill="#00A8ED" stroke="#00A8ED" stroke-width="0.1"/>
<path d="M51.7903 43.7391C49.2543 43.7391 47.2 45.8032 47.2 48.3293C47.2 50.8554 49.2639 52.9293 51.7903 52.9293C54.3166 52.9293 56.3806 50.8652 56.3806 48.3293C56.3806 45.7934 54.3262 43.7391 51.7903 43.7391ZM51.7903 51.371C50.1166 51.371 48.7583 50.0129 48.7583 48.3293C48.7583 46.6459 50.1164 45.2974 51.7903 45.2974C53.4641 45.2974 54.8222 46.6556 54.8222 48.3293C54.8222 50.0033 53.4638 51.371 51.7903 51.371Z" fill="#00A8ED" stroke="#00A8ED" stroke-width="0.1"/>
</svg>
