<svg width="53" height="53" viewBox="0 0 53 53" fill="none" xmlns="http://www.w3.org/2000/svg">
<path d="M40.0597 47.7444C38.1164 48.3186 35.8197 48.5836 33.1256 48.5836H19.8756C17.1814 48.5836 14.8847 48.3186 12.9414 47.7444C13.4272 42.0027 19.3235 37.4756 26.5006 37.4756C33.6777 37.4756 39.5739 42.0027 40.0597 47.7444Z" stroke="#767991" stroke-width="1.5" stroke-linecap="round" stroke-linejoin="round"/>
<path d="M33.1263 4.41699H19.8763C8.83464 4.41699 4.41797 8.83366 4.41797 19.8753V33.1253C4.41797 41.4728 6.93547 46.0441 12.9421 47.7445C13.428 42.0028 19.3242 37.4757 26.5013 37.4757C33.6784 37.4757 39.5746 42.0028 40.0605 47.7445C46.0671 46.0441 48.5846 41.4728 48.5846 33.1253V19.8753C48.5846 8.83366 44.168 4.41699 33.1263 4.41699ZM26.5013 31.2924C22.1288 31.2924 18.5955 27.737 18.5955 23.3645C18.5955 18.992 22.1288 15.4587 26.5013 15.4587C30.8738 15.4587 34.4071 18.992 34.4071 23.3645C34.4071 27.737 30.8738 31.2924 26.5013 31.2924Z" stroke="#767991" stroke-width="1.5" stroke-linecap="round" stroke-linejoin="round"/>
<path d="M34.4054 23.3639C34.4054 27.7364 30.8721 31.2917 26.4996 31.2917C22.1271 31.2917 18.5938 27.7364 18.5938 23.3639C18.5938 18.9914 22.1271 15.458 26.4996 15.458C30.8721 15.458 34.4054 18.9914 34.4054 23.3639Z" stroke="#767991" stroke-width="1.5" stroke-linecap="round" stroke-linejoin="round"/>
</svg>
