<svg width="59" height="23" viewBox="0 0 59 23" fill="none" xmlns="http://www.w3.org/2000/svg">
<path d="M6.03128 3.18519L1.07979 3.14037V6.37037H9.28577L0.757812 17.1185V19.8519H6.03128V23H9.19536V19.8519H14.5743C14.6195 19.7259 14.6354 19.3864 14.3491 19.0753C13.8745 18.5567 13.4971 18.0148 13.1505 17.3333C12.9923 17.0296 12.8722 16.6659 12.827 16.6362C11.7678 16.5885 5.67397 16.6008 5.67728 16.563L14.2128 5.74896V3.18519H9.19544V0H6.03136V3.18519H6.03128ZM28.8805 1.68148C28.8051 1.71111 28.7825 3.34815 28.7825 9.54815C28.7825 17.9259 28.775 17.7852 29.1517 18.5037C29.4907 19.1481 30.3194 19.7259 31.246 19.963C31.7583 20.0963 33.265 20.1111 33.8451 19.9926C34.5909 19.837 34.734 19.6148 34.4402 19.0444C34.2519 18.6889 34.0033 17.9111 33.943 17.4815C33.8601 16.9704 33.7547 16.8889 33.1218 16.9037C32.8205 16.9111 32.5342 16.8889 32.4815 16.8593C32.1726 16.6667 32.1726 16.6148 32.1726 9.11111C32.1726 4.28889 32.15 1.86667 32.0973 1.77037C32.0219 1.63704 31.924 1.62963 30.4926 1.63704C29.6564 1.63704 28.9257 1.65926 28.8805 1.68148ZM35.7887 1.7037C35.6908 1.76296 35.6757 2.71111 35.6757 9.4963C35.6757 16.8074 35.6832 17.2519 35.8188 17.763C36.075 18.7704 36.6551 19.3852 37.755 19.837C38.1768 20.0074 38.3652 20.037 39.2165 20.0593C40.354 20.0889 40.9341 20.0074 41.5142 19.7185C42.0867 19.4444 42.1018 19.2519 41.6121 18.5481C41.4163 18.2667 41.1149 17.7852 40.9492 17.4815L40.6478 16.9259L40.0979 16.9185C39.4123 16.9037 39.3445 16.8741 39.2165 16.5556C39.1185 16.3407 39.1035 15.237 39.1035 9.11111C39.1035 4.28889 39.0809 1.86667 39.0281 1.77037C38.9528 1.63704 38.8549 1.62963 37.4235 1.62963C36.5873 1.62963 35.849 1.66667 35.7887 1.7037ZM55.8279 3.2963C55.2177 3.57037 54.9013 4.04444 54.8937 4.7037C54.8862 5.26667 55.1197 5.6963 55.5944 6C56.182 6.39259 57.1237 6.28148 57.6133 5.76296C58.2386 5.1037 58.1105 3.96296 57.3421 3.45185C56.9429 3.18519 56.2422 3.11852 55.8279 3.2963ZM57.0333 3.57037C57.8845 3.99259 58.0126 5.07407 57.2894 5.7037C56.9805 5.97037 56.762 6.02963 56.2874 5.98518C54.9766 5.85926 54.7205 4.05185 55.9409 3.51111C56.2724 3.36296 56.6566 3.38519 57.0333 3.57037Z" fill="#6C1CD3"/>
<path d="M55.8809 3.90342C55.8282 3.9923 55.8207 5.37008 55.8734 5.51082C55.896 5.57749 55.9638 5.62934 56.0241 5.62934C56.0994 5.62934 56.1296 5.52564 56.1296 5.25897C56.1296 4.92564 56.1446 4.8886 56.3028 4.8886C56.4234 4.8886 56.5288 4.9923 56.6946 5.25897C56.8302 5.48119 56.9658 5.62934 57.0486 5.62934C57.2294 5.62934 57.2219 5.59971 56.9432 5.19971C56.7774 4.96267 56.7322 4.85156 56.8 4.82934C56.9959 4.76267 57.1842 4.51823 57.1842 4.33304C57.1842 3.99971 56.9432 3.85156 56.4008 3.85156C56.1296 3.85156 55.896 3.87379 55.8809 3.90342ZM56.7925 4.14045C56.8528 4.17008 56.8829 4.28119 56.8678 4.37749C56.8452 4.53304 56.8 4.55527 56.4912 4.57749L56.1296 4.59971V4.34045C56.1296 4.08119 56.1371 4.07378 56.4158 4.07378C56.5665 4.07378 56.7398 4.10341 56.7925 4.14045ZM19.4036 6.33304C19.3659 6.34786 19.0721 6.41453 18.7633 6.48119C16.8271 6.91823 15.117 8.37749 14.3938 10.2293C13.9945 11.2516 13.8514 12.0442 13.8439 13.2219C13.8363 14.8738 14.1753 16.0886 14.9513 17.2442C15.8252 18.5405 17.1059 19.4219 18.7633 19.8664C19.3283 20.0145 19.5769 20.0367 20.8727 20.0367C22.1534 20.0367 22.417 20.0145 22.9519 19.8738C24.2778 19.5108 25.4078 18.9108 26.3194 18.059C26.8995 17.5256 26.8919 17.3775 26.3043 16.933C26.0633 16.7479 25.6263 16.3479 25.34 16.0367C24.9784 15.659 24.7599 15.4812 24.6469 15.4812C24.5415 15.4812 24.3004 15.6293 24.0669 15.8516C23.2608 16.5701 22.2438 16.9108 20.9103 16.9034C19.6899 16.896 18.8009 16.5849 18.2359 15.9479C17.9496 15.6293 17.588 14.9034 17.5127 14.496L17.4675 14.2219H22.1609C24.7449 14.2219 26.907 14.1923 26.9597 14.1553C27.2083 13.9997 27.2686 12.9256 27.0878 11.7553C26.6584 8.95527 24.9558 7.07378 22.2814 6.44416C21.8068 6.33304 21.4151 6.29601 20.5713 6.30341C19.9686 6.30341 19.4488 6.31823 19.4036 6.33304ZM21.4151 9.1923C21.965 9.30341 22.643 9.67378 22.9594 10.0293C23.2532 10.3553 23.5546 10.9405 23.6299 11.3182L23.6827 11.5553H17.5428L17.5956 11.3182C17.8216 10.3182 18.6955 9.48119 19.7803 9.21453C20.2624 9.09601 20.9103 9.0886 21.4151 9.1923ZM46.788 6.39971C44.1136 6.9849 42.3055 8.83675 41.7405 11.5701C41.4015 13.1849 41.5898 15.0664 42.2302 16.4145C43.1041 18.2812 44.6937 19.4886 46.8633 19.9256C47.5489 20.0664 47.8201 20.0812 48.8974 20.0516C49.8089 20.0219 50.2986 19.9701 50.7205 19.859C52.0087 19.5256 53.1388 18.9182 54.0051 18.1034C54.6681 17.4738 54.6681 17.4442 53.9524 16.859C53.6209 16.5923 53.1764 16.1701 52.9655 15.9256C52.4758 15.3701 52.3477 15.3627 51.7978 15.8516C50.9766 16.5849 49.9973 16.9108 48.6337 16.9034C46.7202 16.896 45.6052 16.0886 45.2436 14.459L45.1909 14.2667H54.7359C55.0598 14.0371 54.9393 11.6071 54.5475 10.4812C54.4722 10.259 54.2688 9.81452 54.103 9.50341C53.2216 7.84415 51.8128 6.81453 49.8541 6.40712C49.2288 6.27378 47.3831 6.27378 46.788 6.39971ZM49.1384 9.1923C49.6507 9.30341 50.1781 9.56267 50.5547 9.89601C50.8712 10.1849 51.3834 11.096 51.3834 11.3775V11.5553H45.2662L45.3189 11.3479C45.7107 9.76267 47.3681 8.82193 49.1384 9.1923Z" fill="#6C1CD3"/>
</svg>
