<svg width="44" height="25" viewBox="0 0 44 25" fill="none" xmlns="http://www.w3.org/2000/svg">
    <rect width="44" height="24.2319" rx="12.1159" fill="#E1E4EE" />
    <g clip-path="url(#clip0_15637_708)">
        <path
            d="M25.7008 13.495C25.8604 13.3966 26.0664 13.4146 26.2046 13.5409C27.2109 14.4537 28.5126 14.9567 29.8693 14.9567C32.8804 14.9567 35.3303 12.5068 35.3303 9.49563C35.3303 8.13888 34.8274 6.83726 33.9146 5.83094C33.7887 5.69222 33.7698 5.48672 33.8687 5.32713C33.9676 5.16797 34.1612 5.09412 34.3401 5.14464C37.3968 6.01022 39.5312 8.83588 39.5312 12.016C39.5312 15.954 36.3277 19.1575 32.3898 19.1575C29.2096 19.1575 26.3839 17.023 25.5183 13.9664C25.467 13.7858 25.5416 13.5938 25.7008 13.495Z"
            fill="#192130" />
    </g>
    <path
        d="M8.94133 5.39615C9.03678 5.1024 9.45236 5.1024 9.5478 5.39615L9.81724 6.2254C9.85992 6.35677 9.98234 6.44571 10.1205 6.44571H10.9924C11.3013 6.44571 11.4297 6.84095 11.1798 7.0225L10.4744 7.535C10.3627 7.61619 10.3159 7.76011 10.3586 7.89148L10.628 8.72072C10.7235 9.01447 10.3873 9.25874 10.1374 9.0772L9.43198 8.56469C9.32023 8.4835 9.16891 8.4835 9.05716 8.56469L8.35176 9.0772C8.10188 9.25874 7.76567 9.01447 7.86111 8.72072L8.13055 7.89148C8.17323 7.76011 8.12647 7.61619 8.01472 7.535L7.30933 7.0225C7.05945 6.84095 7.18787 6.44571 7.49674 6.44571H8.36866C8.50679 6.44571 8.62921 6.35677 8.67189 6.2254L8.94133 5.39615Z"
        fill="#767D8B" />
    <path
        d="M15.957 14.3239C16.0524 14.0301 16.468 14.0301 16.5634 14.3239L16.8329 15.1531C16.8755 15.2845 16.998 15.3734 17.1361 15.3734H18.008C18.3169 15.3734 18.4453 15.7687 18.1954 15.9502L17.49 16.4627C17.3783 16.5439 17.3315 16.6878 17.3742 16.8192L17.6436 17.6485C17.7391 17.9422 17.4029 18.1865 17.153 18.0049L16.4476 17.4924C16.3359 17.4112 16.1845 17.4112 16.0728 17.4924L15.3674 18.0049C15.1175 18.1865 14.7813 17.9422 14.8767 17.6485L15.1462 16.8192C15.1889 16.6878 15.1421 16.5439 15.0303 16.4627L14.325 15.9502C14.0751 15.7687 14.2035 15.3734 14.5124 15.3734H15.3843C15.5224 15.3734 15.6448 15.2845 15.6875 15.1531L15.957 14.3239Z"
        fill="#192130" />
    <circle cx="16.894" cy="8.60887" r="0.956522" fill="#767D8B" />
    <circle cx="21.6846" cy="5.10057" r="0.637681" fill="#767D8B" />
    <circle cx="9.24558" cy="16.2612" r="0.956522" fill="#767D8B" />
    <defs>
        <clipPath id="clip0_15637_708">
            <rect width="14.029" height="14.029" fill="white" transform="matrix(-1 0 0 1 39.5312 5.10156)" />
        </clipPath>
    </defs>
</svg>