<svg xmlns="http://www.w3.org/2000/svg" width="21" height="21" viewBox="0 0 21 21">
    <g fill="none" fill-rule="evenodd">
        <path fill="#93d1e8" d="M10.369.263C4.81.263.263 4.811.263 10.37c0 5.557 4.548 10.105 10.106 10.105s10.105-4.548 10.105-10.105C20.474 4.81 15.927.263 10.369.263z"/>
        <path fill="#58a3dc" style="transform-origin: 11px 11px;transform: scale(0.7);" d="M16.625 6.5L18 3.875l-1.75-1.75L13.625 3.5c-.375-.25-.875-.375-1.375-.5l-1-3h-2.5l-1 2.875c-.375.125-.875.25-1.25.5L3.875 2 2 3.875 3.375 6.5c-.25.375-.375.875-.5 1.25L0 8.75v2.5l2.875 1c.125.5.375.875.5 1.375L2 16.25 3.75 18l2.625-1.375c.375.25.875.375 1.375.5l1 2.875h2.5l1-2.875c.5-.125.875-.375 1.375-.5L16.25 18 18 16.25l-1.375-2.625c.25-.375.375-.875.5-1.375l2.875-1v-2.5l-2.875-1c-.125-.375-.25-.875-.5-1.25zM10 13.75c-2.125 0-3.75-1.625-3.75-3.75S7.875 6.25 10 6.25s3.75 1.625 3.75 3.75-1.625 3.75-3.75 3.75z"/>
    </g>
</svg>
