<svg xmlns="http://www.w3.org/2000/svg" width="21" height="21" viewBox="0 0 21 21">
    <g fill="none" fill-rule="evenodd">
        <path fill="#F9EBD1" d="M10.369.263C4.81.263.263 4.811.263 10.37c0 5.557 4.548 10.105 10.106 10.105s10.105-4.548 10.105-10.105C20.474 4.81 15.927.263 10.369.263z"/>
        <path fill="#EFAE30" fill-rule="nonzero" d="M7.935 14.6h-1.72A.215.215 0 0 1 6 14.385v-1.72c0-.057.023-.112.063-.152l6.45-6.45a.215.215 0 0 1 .304 0l1.72 1.72a.215.215 0 0 1 0 .304l-6.45 6.45a.215.215 0 0 1-.152.063z"/>
    </g>
</svg>
