<svg xmlns="http://www.w3.org/2000/svg" width="18" height="18" viewBox="0 0 18 18">
    <path fill="#FC0" fill-rule="nonzero" d="M17.609 7.043h-1.605c-.391 0-.704-.234-.86-.586a.9.9 0 0 1 .195-1.018l1.135-1.135a.355.355 0 0 0 .117-.274.355.355 0 0 0-.117-.273l-2.23-2.23a.378.378 0 0 0-.548 0L12.56 2.66c-.274.274-.626.352-1.018.196-.352-.157-.586-.47-.586-.861V.39c0-.234-.157-.391-.392-.391h-3.13c-.235 0-.392.157-.392.391v1.605c0 .391-.234.704-.586.86a.9.9 0 0 1-1.018-.195L4.304 1.526a.378.378 0 0 0-.547 0l-2.23 2.23a.355.355 0 0 0-.118.274c0 .118.039.196.117.274L2.661 5.44a.9.9 0 0 1 .196 1.018c-.157.352-.47.586-.861.586H.39C.157 7.043 0 7.2 0 7.435v3.13c0 .235.157.392.391.392h1.605c.391 0 .704.234.86.586a.9.9 0 0 1-.195 1.018l-1.135 1.135a.355.355 0 0 0-.117.274c0 .117.039.195.117.273l2.23 2.23a.378.378 0 0 0 .548 0L5.44 15.34c.274-.274.626-.352 1.018-.196.352.157.586.47.586.861v1.605c0 .234.157.391.392.391h3.13c.235 0 .392-.157.392-.391v-1.605c0-.391.234-.704.586-.86a.9.9 0 0 1 1.018.195l1.135 1.135a.378.378 0 0 0 .547 0l2.23-2.23a.355.355 0 0 0 .118-.274.355.355 0 0 0-.117-.274l-1.135-1.135a.9.9 0 0 1-.196-1.018c.157-.352.47-.586.861-.586h1.605c.234 0 .391-.157.391-.392v-3.13c0-.235-.157-.392-.391-.392zM9 11.74A2.722 2.722 0 0 1 6.26 9 2.722 2.722 0 0 1 9 6.26 2.722 2.722 0 0 1 11.74 9 2.722 2.722 0 0 1 9 11.74z"/>
</svg>
