<svg xmlns="http://www.w3.org/2000/svg" xmlns:xlink="http://www.w3.org/1999/xlink" width="36" height="34" viewBox="0 0 36 34">
    <defs>
        <linearGradient id="b" x1="95.638%" x2="4.362%" y1="0%" y2="100%">
            <stop offset="0%" stop-color="#FAD961"/>
            <stop offset="100%" stop-color="#F76B1C"/>
        </linearGradient>
        <path id="a" d="M18 1.714c9.444 0 17.1 7.292 17.1 16.286 0 8.994-7.656 16.286-17.1 16.286C8.556 34.286.9 26.994.9 18 .9 9.006 8.556 1.714 18 1.714z"/>
    </defs>
    <g fill="none" fill-rule="evenodd">
        <g transform="translate(0 -1)">
            <use fill="#0FF" fill-opacity="0" xlink:href="#a"/>
            <use fill="url(#b)" xlink:href="#a"/>
        </g>
        <path fill="#FFF" fill-rule="nonzero" d="M11.566 19.68c-1.926 0-3.366-1.359-3.366-3.24 0-1.881 1.44-3.24 3.375-3.24 1.026 0 1.908.369 2.493 1.053l-.756.711a2.212 2.212 0 0 0-1.683-.738c-1.305 0-2.25.918-2.25 2.214 0 1.296.945 2.214 2.25 2.214a2.19 2.19 0 0 0 1.683-.747l.756.72c-.585.684-1.467 1.053-2.502 1.053zm8.406-5.409h-3.429v1.917h3.042v.99h-3.042v2.412h-1.17v-6.3h4.599v.981zm4.185 5.409c-1.953 0-3.393-1.377-3.393-3.24 0-1.863 1.44-3.24 3.393-3.24 1.953 0 3.393 1.368 3.393 3.24s-1.44 3.24-3.393 3.24zm0-1.026c1.269 0 2.214-.927 2.214-2.214s-.945-2.214-2.214-2.214c-1.269 0-2.214.927-2.214 2.214s.945 2.214 2.214 2.214z"/>
    </g>
</svg>
