<svg xmlns="http://www.w3.org/2000/svg" xmlns:xlink="http://www.w3.org/1999/xlink" width="36" height="35" viewBox="0 0 36 35">
    <defs>
        <linearGradient id="b" x1="94.551%" x2="5.449%" y1="0%" y2="100%">
            <stop offset="0%" stop-color="#C86DD7"/>
            <stop offset="100%" stop-color="#3023AE"/>
        </linearGradient>
        <path id="a" d="M18 1.756c9.444 0 17.1 7.47 17.1 16.683 0 9.214-7.656 16.683-17.1 16.683-9.444 0-17.1-7.47-17.1-16.683C.9 9.225 8.556 1.756 18 1.756z"/>
    </defs>
    <g fill="none" fill-rule="evenodd">
        <g transform="translate(0 -1)">
            <use fill="#0FF" fill-opacity="0" xlink:href="#a"/>
            <use fill="url(#b)" xlink:href="#a"/>
        </g>
        <path fill="#FFF" fill-rule="nonzero" d="M10.666 19.68c-1.926 0-3.366-1.359-3.366-3.24 0-1.881 1.44-3.24 3.375-3.24 1.026 0 1.908.369 2.493 1.053l-.756.711a2.212 2.212 0 0 0-1.683-.738c-1.305 0-2.25.918-2.25 2.214 0 1.296.945 2.214 2.25 2.214a2.19 2.19 0 0 0 1.683-.747l.756.72c-.585.684-1.467 1.053-2.502 1.053zm9.189-.09h-1.26l-1.287-1.845c-.081.009-.162.009-.243.009h-1.422v1.836h-1.17v-6.3h2.592c1.656 0 2.682.846 2.682 2.241 0 .954-.486 1.656-1.341 1.989l1.449 2.07zm-1.287-4.059c0-.792-.531-1.251-1.557-1.251h-1.368v2.511h1.368c1.026 0 1.557-.468 1.557-1.26zm9.558 4.059h-1.107l-.009-4.176-2.07 3.456h-.522l-2.07-3.402v4.122h-1.116v-6.3h.963l2.502 4.176 2.457-4.176h.963l.009 6.3z"/>
    </g>
</svg>
