<svg xmlns="http://www.w3.org/2000/svg" xmlns:xlink="http://www.w3.org/1999/xlink" width="36" height="34" viewBox="0 0 36 34">
    <defs>
        <linearGradient id="b" x1="94.551%" x2="5.449%" y1="0%" y2="100%">
            <stop offset="0%" stop-color="#2BD3EC"/>
            <stop offset="100%" stop-color="#0D72E4"/>
        </linearGradient>
        <path id="a" d="M18 1.714c9.444 0 17.1 7.292 17.1 16.286 0 8.994-7.656 16.286-17.1 16.286C8.556 34.286.9 26.994.9 18 .9 9.006 8.556 1.714 18 1.714z"/>
    </defs>
    <g fill="none" fill-rule="evenodd">
        <g transform="translate(0 -1)">
            <use fill="#0FF" fill-opacity="0" xlink:href="#a"/>
            <use fill="url(#b)" xlink:href="#a"/>
        </g>
        <path fill="#FFF" fill-rule="nonzero" d="M7.551 19.89c-.981 0-1.962-.306-2.484-.756l.405-.909c.504.405 1.305.693 2.079.693.981 0 1.395-.351 1.395-.819 0-1.359-3.744-.468-3.744-2.808 0-1.017.81-1.881 2.538-1.881.756 0 1.548.198 2.097.558l-.369.909a3.5 3.5 0 0 0-1.737-.495c-.972 0-1.368.378-1.368.855 0 1.341 3.735.468 3.735 2.781 0 1.008-.819 1.872-2.547 1.872zm3.708-.09v-6.3h1.17v5.31h3.294v.99h-4.464zm5.391 0v-6.3h1.17v6.3h-1.17zm5.787.09c-1.926 0-3.366-1.359-3.366-3.24 0-1.881 1.44-3.24 3.375-3.24 1.026 0 1.908.369 2.493 1.053l-.756.711a2.212 2.212 0 0 0-1.683-.738c-1.305 0-2.25.918-2.25 2.214 0 1.296.945 2.214 2.25 2.214a2.19 2.19 0 0 0 1.683-.747l.756.72c-.585.684-1.467 1.053-2.502 1.053zm4.797-1.071h3.555v.981h-4.725v-6.3h4.599v.981h-3.429v1.638h3.042v.963h-3.042v1.737z"/>
    </g>
</svg>
