<svg xmlns="http://www.w3.org/2000/svg" width="474" height="373" viewBox="0 0 474 373">
    <g fill="none" fill-rule="nonzero" opacity=".15">
        <g fill="#F1F3F5">
            <path d="M324.863 5.55l-.274 56.718 1.986.01.27-55.895 18.192-18.157.178-33.163 19.101.088.01-1.995-21.086-.096-.184 34.332z"/>
            <path d="M352.836-29.892l-.184 33.864-15.298 3.394-.093 28.951 1.985.007.088-27.355 15.295-3.393.178-32.897 14.394 3.733 12.222-7.94-1.078-1.675-11.491 7.465z"/>
            <path d="M364.893 6.033l.149-.52.09-16.14-1.985-.01-.089 15.858-25.739 41.762-.149.519-.174 27.888-21.181-.176-.016 1.995 23.17.191.185-29.605zM363.184 22.491l-.218.62-.088 18.4-9.776 5.503-.186 49.202 9.682 2.842-.085 11.168 1.986.015.096-12.675-9.688-2.843.176-46.537 9.775-5.502.092-19.217 16.528-20.729.218-.619.09-18.982-1.985-.01-.089 18.635z"/>
            <path d="M368.206 63.46l13.213.092.094-19.69 15.229-23.598.16-.537.18-36.498-1.985-.01-.18 36.206-15.228 23.597-.16.538-.085 17.984-13.216-.092-.097 24.797 13.124 7.153-.088 16.918 1.986.01.093-18.112-13.125-7.153z"/>
            <path d="M387.792 13.187l-1.687-1.052-12.581 20.358-.15.516-.18 18.25 1.985.019.178-17.97zM412.072 13.239l.126-.481.09-16.14-1.985-.011-.089 15.883-18.792 33.798-.126.48-.177 29.126-10.027 2.56.49 1.934 11.513-2.941.185-30.41zM429.12 12.282l-23.08 34.023 1.641 1.123 23.08-34.022zM413.839 45.87l-.018 1.993 11.032.098 10.502-21.373h9.068v-1.994H434.12l-10.497 21.361z"/>
            <path d="M400.62 53.939l-.01 1.994 39.455.187 10.772-22.299-1.786-.87-10.227 21.169zM432.758 78.693l-29.512-.177-.012 1.994 31.493.19.107-12.543-23.618-.094-10.172-6.273-1.038 1.7 10.408 6.419.516.147 21.902.088z"/>
            <path d="M455.825 56.194l-.17 31.03-60.104-.271-.009 1.994 62.087.28.192-34.998-7.607-.115-10.344 16.617 1.683 1.057 9.75-15.663z"/>
            <path d="M416.553 97.588l-10.5 11.921-15.479-.089-.011 1.994 16.38.095 10.5-11.922 52.587.278.095-19.98-1.986-.01-.085 17.985z"/>
            <path d="M436.767 107.382l32.27.18.01-1.994-33.08-.185-12.085 11.763-.183 32.79 1.985.011.179-31.952z"/>
            <path d="M468.954 118.222l-28.42-.09-.006 1.994 28.42.09zM432.747 154.86l-.35.636.05-.387.3-.25zm-19.546 16.552l-.637.229.277-.23.36.001zm22.93-44.206l32.735.188-.011 1.994-30.985-.178-3.557 26.936-20.484 17.031-.638.23-18.102-.092.01-1.995 17.742.09 19.606-16.301 3.685-27.903z"/>
            <path d="M446.772 141.952l22.085.09.008-1.994-22.085-.09zM431.414 171.65l1.037 1.701 15.223-9.368.095-13.943-1.986-.013-.086 12.834zM413.19 162.127l.012-1.995-33.214-.189-.187 32.635 1.985.012.176-30.64zM374.81 135.905l31.156.175 6.586 7.287 1.47-1.34-7.172-7.936-34.012-.192-.103 16.751 40.538.564.028-1.994-38.569-.537zM343.506 105.917l.058.342-.06-.166.002-.176zm69.967 12.032l-.01 1.994-70.055-.372.097-13.478-6.458-18.175 1.87-.67 6.517 18.34.057.343-.083 11.656 68.065.362zM365.59 181.299l1.986.011.277-47.397-22.543-.183v-7.089l21.631.088.008-1.994-23.624-.096v11.069l22.531.183z"/>
            <path d="M334.64 126.022l-50.874 26.15.905 1.775 47.963-24.654-.177 28.149 21.996.183-.176 34.862 1.985.01.186-36.85-21.993-.183zM352.648 134.81v14.765h1.985V134.81zM256.975 104.908l.361-68.097-6.556-6.257L249.412 32l5.934 5.663-.363 68.36 21.205 13.04.512.146 61.095.367.012-1.994-60.818-.365z"/>
            <path d="M271.004 95.286l54.012.262 12.209 11.115 1.333-1.478-12.49-11.371-.662-.259-59.29-.287 17.876 17.594 41.405.186.008-1.995-40.598-.181z"/>
            <path d="M302.233 102.152l-.09 7.795 1.985.023.09-7.795zM266.928 58.424l-1.985-.006-.094 29.79 60.636.372.013-1.994-58.657-.361z"/>
            <path d="M316.887 62.904l.199-47.03L306.91 32.12l1.68 1.062 6.48-10.346-.163 38.621-8.327 2.75-.094 17.592 1.985.01.087-16.155z"/>
            <path d="M308.558 54.93l.104-12.357-17.175-.088 17.183-26.157-1.657-1.099-19.202 29.232 18.849.096-.078 9.286-11.768 7.704-.093 17.41 1.985.011.088-16.337z"/>
            <path d="M278.057 55.292h10.036l-4.344 10.92 1.844.74 5.431-13.655H276.08l-.098 26.571h8.6v-1.994h-6.607zM308.933-15.096l-11.042 3.356-.092 23.659-15.241 24.98 1.692 1.043 15.387-25.219.146-.517.088-22.464 7.06-2.146-.093 15.969 19.67-13.652-1.128-1.64L308.846-.254zM304.536-63.371l34.165.18.01-1.994-35.166-.186-26.82 36.076-.197.592-.181 33.747 1.985.01.18-33.418z"/>
            <path d="M271.42 36.816l1.703 1.026 17.559-29.437.14-.508.182-33.747-1.985-.01-.18 33.474zM265.033 47.136l1.986.011.09-15.773-.219-.63-14.531-18.172 24.883.169.014-1.995-29.061-.197 16.927 21.168z"/>
            <path d="M263.116 12.408l8.598 7.428 1.295-1.512-8.599-7.428zM249.376-18.017l-.096 24.65 18.863-.679-.071-1.993-16.798.605.085-21.752 34.556-34.65.198-.282 9.309-19.94 17.297-4.74-.522-1.924-18.183 4.982-9.625 20.617z"/>
            <path d="M259.06-14.03l-.091 18.983 1.985.01.09-18.983zM277.694 128.386l29.146.177.012-1.994-31.133-.19-.105 20.338 16.61-9.574-.987-1.73-13.62 7.85zM342.963 205.05l1.985.011.187-34.011-19.097-.092.175-25.778-1.986-.014-.188 27.777 19.1.092zM316.347 160.584l-1.985-.01-.186 38.322 23.259.096.008-1.995-21.272-.087z"/>
            <path d="M315.258 185.511l15.93.09.011-1.993-15.93-.091zM289.742 210.845l.263-46.28 25.918-14.3-.956-1.748-26.94 14.864-.281 49.458h15.2l.186-41.067-1.985-.01-.177 39.083zM288.657 222.766l-.007 1.995 27.425.095v-11.92l18.282.087.01-1.995-20.277-.096v11.923zM242.31 118.033l-.182-.578-8.87-12.656-1.623 1.149 8.687 12.395-.093 22.503 18.64.095 20.463 24.04-.36 69.965 1.985.01.362-70.336-.238-.654-21.294-25.015-17.564-.089z"/>
            <path d="M267.479 126.292l-17.83-.09-.01 1.994 17.83.09z"/>
            <path d="M239.865 58.242l-1.985-.009-.181 40.075.176.57 19.912 28.98 1.634-1.134-19.735-28.72zM240.046 18.902l-1.985-.01-.09 18.249.195.599 9.76 13.214-.09 27.73 1.985.007.091-28.062-.195-.597-9.76-13.214zM188.554-62.647l-.186 41.12 18.01 10.637-.267 35.281 1.985.015.276-36.431-18.014-10.64.177-39.027 14.662-11.921.093-16.613-1.985-.011-.088 15.668z"/>
            <path d="M197.066 35.96l-.09 13.023-20.82-.092-.278 60.723 11.766 12.746-.27 37.57 1.986.015.275-38.361-11.768-12.748.265-57.942 20.815.092.091-13.022 19.462.092.186-42.448L216.7-4.4l-.176 40.453z"/>
            <path d="M240.04 1.72l-1.791-.862-13.305 27.878-.098.428-.087 23.853-17.741-.087-.01 1.995 19.73.096.093-25.625zM209.185 102.147l12.49 11.28-.093 14.678h10.683v-1.995h-8.685l.087-13.567-12.49-11.28.275-40.625-22.537-.096-.009 1.994 20.547.088zM223.935 61.73l-1.985-.015-.184 25.754 8.02 7.361 1.339-1.472-7.367-6.762z"/>
            <path d="M189.725 104.475l.088-30.095-1.986-.005-.093 32.08 14.476.106.093-32.18-1.985-.006-.088 30.177zM198.4 158.305l-.43-39.462h12.482v-1.995h-14.49l.475 43.438 14.821.106.187-33.37-1.985-.012-.176 31.373zM242.317 179.886l-13.303 3.393-.185 34.152 1.985.01.177-32.609 13.307-3.393.093-28.56-.209-.615-13.124-16.965-1.568 1.224 12.914 16.694zM257.06 184.81l.168-32.437 14.592 19.632-.266 61.943-12.762-.085-.014 1.994 14.753.098.276-64.275-.197-.601-18.337-24.669-.193 37.258-12.852 7.61-.185 26.243 1.986.014.177-25.112z"/>
            <path d="M264.295 187.432l-.163 37.994h-8.243v1.994h10.22l.2-46.374-11.054 15.92-.178.564-.09 14.122 1.985.013.088-13.813zM231.092 173.606l-11.554-.076 3.818-13.877-1.913-.531-4.509 16.385 16.143.107v-16.135l-.092-.419-9.594-20.817-1.802.838 9.503 20.618zM221.31 185.047l-.175 26.422 1.986.013.187-28.418-18.012-.103v8.706h1.985v-6.7z"/>
            <path d="M193.729 206.816L180.1 245.347l1.87.668 13.164-37.217 21.469-.186v-11.26h-1.985v9.283zM189.354 170.755l20.818.175.017-1.994-22.808-.192-.207 31.907 14.399-20.047-1.61-1.167-10.763 14.985zM201.031 19.719L201.13.476 174.34-12.27 174.42-25l8.96-.458.276-45.984 10.372-18.39-1.727-.984-10.5 18.616-.128.486-.266 44.36-8.96.458-.1 15.883 26.791 12.747-.082 15.973-10.86-.092-.188 25.3 1.986.014.173-23.303zM175.564 225.233l-.318.726.003-.432.315-.294zm-7.474 37.233l-1.985-.007.092-28.494 9.052-8.438.356-68.425-12.412-3.729.569-1.91 13.836 4.157-.368 70.782-9.05 8.436-.09 27.628zM175.785 125.713l-.086 18.722 1.985.01.095-20.712-15.2-.106-.095 20.716 1.986.01.086-18.717z"/>
            <path d="M151.718 245.072l-.082.584 4.978 30.996 1.96-.317-4.93-30.692 10.369-22.096.095-.42.271-56.949-1.985-.01-.27 56.728zM110.795 1.645l.514-.142 9.775-5.869-1.018-1.712-9.538 5.727-54.304-.276-9.049 10.452-51.585-.546-.02 1.995 52.501.555 9.054-10.457z"/>
            <path d="M102.824-11.005l.09-11.28 36.846.174-.173 28.881-6.713 7.42 1.47 1.342 6.968-7.703.259-.665.187-31.26-40.813-.193-.09 11.279-48.744-.273-11.2 14.825L5.422-.898l-.135 1.99 36.558 2.513 11.247-14.888z"/>
            <path d="M114.613 10.898l24.88 24.736-.089 22.141 1.985.008.093-22.978-23.453-23.316 13.853-6.538.185-28.048-1.985-.014-.177 26.791zM196.175-.347l-1.314-1.495-18.527 16.436-.092 28.234 1.985.007.09-27.339zM157.692 73.19l-.19 42.626h11.334l-.565-26.054-1.985.044.521 24.016h-7.31l.171-38.623 11.765.092.187-32.454-1.985-.011-.175 30.455zM177.406-.19l.02-1.994-10.137-.102-.186 25.999-7.325 7.494.527-87.706 18.432-33.433-1.737-.966-18.555 33.655-.124.478-.558 92.88 11.32-11.58.177-24.806z"/>
            <path d="M105.256 72.924L84.069 56.62l-1.207 1.583 21.45 16.507.598.205 45.344.281.277-54.553-1.985-.01-.267 52.557z"/>
            <path d="M107.402 64.67L87.686 45.508l-.655-.28-35.151-1.25.082-15.215 11.093-8.042.775-9.158 39.985.627.031-1.994-41.837-.656-.855 10.1-11.172 8.098-.098 18.165 36.695 1.304 20.016 19.454 21.579.094.008-1.995z"/>
            <path d="M90.009 22.806l-33.439.412.027 1.995 33.127-.459 15.076 4.814.625.198 7.395-8.661-1.507-1.299-6.542 7.663zM133.54 35.58l-82.546-1.816-.044 1.994 82.546 1.817z"/>
            <path d="M127.193 56.685l-14.677-.083-10.05-21.35-1.796.853 10.586 22.484 17.907.101.105-14.28-12.758-.1-.016 1.995 10.774.083zM39.487 41.005l-46.53-4.31.08-15.895a2799.284 2799.284 0 0 1 8.656-.08c5.047-.04 10.014-.068 14.662-.081 6.83-.02 12.52-.003 16.69.056 2.364.033 4.205.08 5.473.141.656.032 1.153.067 1.476.104-.668-.077-.333.007-.333-.851h1.986c0-1.509-.449-1.515-25.298-1.445-4.652.014-9.622.043-14.671.083a3524.961 3524.961 0 0 0-9.64.09l-.976.01-.1 19.686 50.496 4.677.105-15.993-33.004 1.8.108 1.991 30.897-1.684-.077 11.7zM20.114 93.99l-.012-1.994-29.403.19-.09 23.555-12.22-.085-.013 1.994 14.21.099.09-23.581z"/>
            <path d="M15.314 159.015l1.985.011.097-16.402-24.98-.183.174-25.69-1.986-.013-.187 27.683 24.981.183zM12.23 81.237l43.483.278 6.484 12.274-.264 38.503-38.606 1.522.078 1.993 40.5-1.596.279-40.66-.116-.475-7.157-13.548-42.683-.272.181-27.426H-.438v1.994h12.849z"/>
            <path d="M30.65 125.008l-39.139-.182-.01 1.995 39.968.185 9.643-9.672-.009-.426-.03-1.675c-.023-1.324-.046-2.784-.067-4.335a1033.21 1033.21 0 0 1-.091-9.608c-.036-8.179.073-13.734.349-15.062l-1.944-.408c-.32 1.542-.428 7.033-.39 15.48.013 3.052.045 6.316.09 9.625a1244.182 1244.182 0 0 0 .09 5.598l-8.46 8.485z"/>
            <path d="M52.333 124.077l1.985.008.094-24.195-13.932-.099-.014 1.995 11.953.084zM40.027 111.435l-28.33-.18-.013 1.994 28.33.18zM3.366 65.11l-.18 28.61 1.985.013.18-28.611z"/>
            <path d="M4.222 78.425l-15.297.724.094 1.993 15.296-.725zM71.254 147.105l-45.529-.27-.011 1.995 47.516.28.372-78.293-39.04-.186-13.557-14.185-1.432 1.382 14.14 14.794 37.894.18z"/>
            <path d="M100.03 81.474l1.265-1.537-33.127-27.512-.554-.225-47.156-3.76-.157 1.988 46.844 3.735z"/>
            <path d="M78.583 61.365l-37.924-.181-.01 1.994 37.924.181zM77.408 97.22l-.094 26.95 1.985.006.087-24.954 21.612.09L112.22 87.39l34.959.181.01-1.994-35.82-.186-11.224 11.922z"/>
            <path d="M108.206 100.892l-.062 1.994 42.025 1.315V93.635h-1.985v8.509zM78.224 136.931l-.016 1.995 11.949.1.09-25.314 56.752.27.01-1.994-58.74-.28-.09 25.307z"/>
            <path d="M152.086 143.254l-50.698-.265.082-17.63 51.684.27.01-1.995-53.67-.28-.1 21.619 54.657.285.11-10.655-34.253-1.98-.114 1.991 32.362 1.871zM138.97 229.478l1.405 1.41 13.322-13.404.364-65.06-1.985-.012-.36 64.242zM62.292 265.134l-.012 1.994 78.017.465.095-14.888 8.949-18.042-1.777-.89-9.051 18.25-.104.438-.085 13.125zM57.674 257.015l1.983-.109-1.767-32.499-54.256-4.938-.18 1.986 52.547 4.783z"/>
            <path d="M48.896 249.369l-9.795 6.674 1.115 1.651 10.66-7.264.099-17.663-35.75-.188-.01 1.994 33.763.178z"/>
            <path d="M39.755 243.949l-14.572-.09-.013 1.994 14.573.09zM-18.1 178.364l.75 1.847 22.789-9.33.094-19.284-1.986-.01-.087 17.95z"/>
            <path d="M3.823 160.773l-12.49-.09-.015 1.994 12.49.09zM34.677 166.247v-10.62h-1.985V165l-34.847 17.057v13.659l-10.054 6.674 1.095 1.664 10.945-7.265v-13.485zM45.006 161.045l-.095 21.906 1.985.009.086-19.912 40.197.183 2.873-14.841-1.95-.38-2.558 13.22z"/>
            <path d="M59.033 172.696l-.011 1.994 47.697.281.095-18.972-1.985-.01-.085 16.976zM141.386 203.762l-9.767 21.607 1.807.824 9.866-21.825.088-.458-2.397-52.574-25.017-.19-.015 1.994 23.135.176zM68.078 244.9l.184-35.24-28.688-.19-.013 1.994 26.705.177-.178 34.27 16.43 12.039.582.191 45.617.183.008-1.994-45.296-.182zM16.39 197.095l.09-10.735 17.513-7.719-.798-1.826-18.69 8.238-.092 11.09-18.439 15.128 29.38.101.007-1.994-23.84-.083z"/>
            <path d="M91.515 184.32l.012-1.995-33.234-.188-3.35 11.096-26.954-.179-.013 1.995 28.438.188 3.349-11.097zM76.68 241.641l1.985.01.186-38.962-16.288-.098-.011 1.995 14.304.086z"/>
            <path d="M128.991 238.28l-51.048-9.445-.36 1.962 51.049 9.445zM70.257 189.845l-.013 1.994 57.2.373.188-26.215-1.985-.014-.174 24.222z"/>
            <path d="M85.278 191.203l-.18 29.712 1.985.012.18-29.712z"/>
            <path d="M85.638 211.576l29.325 19.258 1.087-1.67-29.326-19.257zM132.71 202.955l-46.523-.272-.012 1.995 46.523.271z"/>
            <path d="M112.293 210.106l-1.357 1.455 11.886 11.19.103-18.148-1.985-.011-.078 13.581zM92.157 249.092l.085-16.795-1.985-.01-.096 18.786 32.215.211-14.625-10.361-1.144 1.63 9.451 6.695zM148.267 277.399l.009-1.994-21.448-.097-.186 35.478 1.985.01.176-33.484zM108.353 266.411l-1.985-.01-.094 18.217 11.766 4.31-.177 37.998 1.985.01.184-39.401-11.766-4.31zM84.738 292.857l-.364 76.07 1.985.009.36-75.06 13.914-10.16.93-17.348-1.982-.107-.88 16.4zM72.509 290.449l12.15-13.658-1.481-1.329-12.4 13.94-.253.658-.367 64.264 7.229.106.029-1.994-5.262-.077z"/>
            <path d="M98.583 341.248l.176-36.23-1.985-.01-.186 38.235h8.204l6.791-28.09-1.929-.47-6.423 26.565zM66.91 275.037l-10.227-.091-.017 1.994 10.227.09z"/>
        </g>
        <g fill="#F1F3F5" transform="translate(-38 -95)">
            <ellipse cx="448.753" cy="91.154" rx="3.982" ry="4.035"/>
            <ellipse cx="417.164" cy="174.971" rx="3.982" ry="4.035"/>
            <ellipse cx="440.064" cy="173.871" rx="3.982" ry="4.035"/>
            <ellipse cx="437.891" cy="157.639" rx="3.982" ry="4.035"/>
            <path d="M448.481 141.866c0 2.201 1.81 4.035 3.983 4.035 2.172 0 3.982-1.834 3.982-4.035 0-2.2-1.81-4.035-3.982-4.035-2.173 0-3.983 1.834-3.983 4.035z"/>
            <ellipse cx="441.964" cy="141.866" rx="3.982" ry="4.035"/>
            <path d="M462.6 107.844c0 2.201 1.811 4.035 3.983 4.035 2.173 0 3.983-1.834 3.983-4.035 0-2.2-1.81-4.035-3.983-4.035-2.172 0-3.982 1.834-3.982 4.035z"/>
            <ellipse cx="481.789" cy="120.591" rx="3.982" ry="4.035"/>
            <ellipse cx="488.487" cy="129.486" rx="3.982" ry="4.035"/>
            <ellipse cx="478.078" cy="166.26" rx="3.982" ry="4.035"/>
            <ellipse cx="431.194" cy="183.133" rx="3.982" ry="4.035"/>
            <path d="M423.953 205.417c0 2.201 1.81 4.035 3.982 4.035s3.983-1.834 3.983-4.035c0-2.2-1.81-4.035-3.983-4.035-2.172-.091-3.982 1.743-3.982 4.035z"/>
            <ellipse cx="450.834" cy="213.946" rx="3.982" ry="4.035"/>
            <ellipse cx="450.653" cy="237.514" rx="3.982" ry="4.035"/>
            <ellipse cx="418.16" cy="289.327" rx="3.982" ry="4.035"/>
            <path d="M399.967 276.213c0 2.2 1.81 4.035 3.983 4.035 2.172 0 3.982-1.834 3.982-4.035s-1.81-4.035-3.982-4.035-3.983 1.834-3.983 4.035z"/>
            <ellipse cx="391.007" cy="244.942" rx="3.982" ry="4.035"/>
            <ellipse cx="404.855" cy="220.732" rx="3.982" ry="4.035"/>
            <ellipse cx="450.563" cy="256.13" rx="3.982" ry="4.035"/>
            <ellipse cx="469.299" cy="267.501" rx="3.982" ry="4.035"/>
            <ellipse cx="484.142" cy="245.4" rx="3.982" ry="4.035"/>
            <ellipse cx="506.227" cy="234.946" rx="3.982" ry="4.035"/>
            <ellipse cx="477.897" cy="214.129" rx="3.982" ry="4.035"/>
            <ellipse cx="506.318" cy="215.505" rx="3.982" ry="4.035"/>
            <ellipse cx="507.766" cy="202.299" rx="3.982" ry="4.035"/>
            <ellipse cx="400.872" cy="205.234" rx="3.982" ry="4.035"/>
            <ellipse cx="375.348" cy="182.858" rx="3.982" ry="4.035"/>
            <ellipse cx="353.173" cy="171.212" rx="3.982" ry="4.035"/>
            <ellipse cx="364.397" cy="157.273" rx="3.982" ry="4.035"/>
            <ellipse cx="345.118" cy="128.661" rx="3.982" ry="4.035"/>
            <ellipse cx="411.643" cy="146.268" rx="3.982" ry="4.035"/>
            <path d="M314.344 134.163c0 2.201 1.81 4.035 3.983 4.035 2.172 0 3.982-1.834 3.982-4.035 0-2.2-1.81-4.035-3.982-4.035-2.173 0-3.983 1.743-3.983 4.035zM318.055 161.583c0 2.2 1.81 4.035 3.982 4.035 2.173 0 3.983-1.834 3.983-4.035s-1.81-4.035-3.983-4.035c-2.172 0-3.982 1.834-3.982 4.035z"/>
            <ellipse cx="333.08" cy="174.513" rx="3.982" ry="4.035"/>
            <path d="M371.909 202.666c0 2.201 1.81 4.035 3.982 4.035 2.173 0 3.983-1.834 3.983-4.035 0-2.2-1.81-4.035-3.983-4.035-2.172 0-3.892 1.743-3.982 4.035z"/>
            <ellipse cx="344.575" cy="222.566" rx="3.982" ry="4.035"/>
            <ellipse cx="328.735" cy="232.837" rx="3.982" ry="4.035"/>
            <path d="M348.829 244.392c0 2.2 1.81 4.034 3.982 4.034s3.983-1.834 3.983-4.034c0-2.201-1.81-4.035-3.983-4.035-2.172-.092-3.982 1.742-3.982 4.035z"/>
            <ellipse cx="362.586" cy="238.247" rx="3.982" ry="4.035"/>
            <path d="M377.34 300.698c0 2.2 1.81 4.035 3.982 4.035s3.983-1.834 3.983-4.035-1.81-4.035-3.983-4.035c-2.172 0-3.982 1.834-3.982 4.035zM363.763 280.156c0 2.201 1.81 4.035 3.982 4.035 2.173 0 3.983-1.834 3.983-4.035 0-2.2-1.81-4.035-3.983-4.035-2.172-.092-3.982 1.743-3.982 4.035z"/>
            <ellipse cx="371.818" cy="292.995" rx="3.982" ry="4.035"/>
            <ellipse cx="370.642" cy="308.676" rx="3.982" ry="4.035"/>
            <ellipse cx="340.23" cy="266.767" rx="3.982" ry="4.035"/>
            <ellipse cx="326.11" cy="318.764" rx="3.982" ry="4.035"/>
            <ellipse cx="293.346" cy="308.218" rx="3.982" ry="4.035"/>
            <path d="M291.083 330.318c0 2.201 1.81 4.035 3.982 4.035 2.173 0 3.983-1.834 3.983-4.035 0-2.2-1.81-4.035-3.983-4.035-2.172 0-3.892 1.834-3.982 4.035z"/>
            <ellipse cx="280.403" cy="316.104" rx="3.982" ry="4.035"/>
            <path d="M263.658 230.911c0 2.2 1.81 4.035 3.982 4.035 2.173 0 3.983-1.834 3.983-4.035 0-2.2-1.81-4.035-3.983-4.035-2.172 0-3.982 1.742-3.982 4.035zM301.763 222.29c0 2.202 1.81 4.036 3.983 4.036 2.172 0 3.982-1.834 3.982-4.035s-1.81-4.035-3.982-4.035c-2.173 0-3.983 1.834-3.983 4.035z"/>
            <ellipse cx="260.309" cy="157.181" rx="3.982" ry="4.035"/>
            <ellipse cx="277.235" cy="152.779" rx="3.982" ry="4.035"/>
            <ellipse cx="285.2" cy="175.705" rx="3.982" ry="4.035"/>
            <ellipse cx="287.553" cy="126.277" rx="3.982" ry="4.035"/>
            <ellipse cx="276.511" cy="113.897" rx="3.982" ry="4.035"/>
            <ellipse cx="303.302" cy="153.421" rx="3.982" ry="4.035"/>
            <path d="M310.633 107.019c0 2.2 1.81 4.035 3.983 4.035 2.172 0 3.982-1.834 3.982-4.035s-1.81-4.035-3.982-4.035c-2.173 0-3.983 1.834-3.983 4.035zM210.8 95.097c0 2.201 1.81 4.035 3.982 4.035s3.983-1.834 3.983-4.035c0-2.2-1.81-4.035-3.983-4.035-2.172 0-3.982 1.834-3.982 4.035zM182.922 117.473c0 2.2 1.81 4.035 3.983 4.035 2.172 0 3.982-1.834 3.982-4.035 0-2.2-1.81-4.035-3.982-4.035s-3.983 1.834-3.983 4.035z"/>
            <ellipse cx="205.188" cy="185.976" rx="3.982" ry="4.035"/>
            <path d="M182.56 189.552c0 2.201 1.81 4.035 3.983 4.035 2.172 0 3.982-1.834 3.982-4.035 0-2.2-1.81-4.035-3.982-4.035-2.172-.091-3.983 1.743-3.983 4.035zM210.076 240.265c0 2.2 1.81 4.035 3.982 4.035s3.983-1.834 3.983-4.035-1.81-4.035-3.983-4.035c-2.172 0-3.982 1.834-3.982 4.035zM196.861 240.265c0 2.2 1.81 4.035 3.983 4.035 2.172 0 3.982-1.834 3.982-4.035s-1.81-4.035-3.982-4.035c-2.173-.092-3.983 1.742-3.983 4.035z"/>
            <ellipse cx="190.616" cy="220.64" rx="3.982" ry="4.035"/>
            <ellipse cx="184.099" cy="208.535" rx="3.982" ry="4.035"/>
            <path d="M162.286 160.207c0 2.201 1.81 4.035 3.982 4.035 2.173 0 3.983-1.834 3.983-4.035 0-2.2-1.81-4.035-3.983-4.035-2.172 0-3.982 1.834-3.982 4.035z"/>
            <ellipse cx="154.955" cy="140.858" rx="3.982" ry="4.035"/>
            <ellipse cx="149.976" cy="115.456" rx="3.982" ry="4.035"/>
            <path d="M166.992 110.32c0 2.201 1.81 4.035 3.983 4.035 2.172 0 3.982-1.834 3.982-4.035 0-2.2-1.81-4.035-3.982-4.035s-3.983 1.834-3.983 4.035zM137.848 106.102c0 2.2 1.81 4.035 3.982 4.035 2.173 0 3.983-1.834 3.983-4.035s-1.81-4.035-3.983-4.035c-2.172 0-3.982 1.834-3.982 4.035z"/>
            <ellipse cx="45.527" cy="124.993" rx="3.982" ry="4.035"/>
            <path d="M53.763 144.434c0 2.2 1.81 4.035 3.983 4.035 2.172 0 3.982-1.834 3.982-4.035 0-2.2-1.81-4.035-3.982-4.035s-3.983 1.834-3.983 4.035zM111.6 232.928c0 2.201 1.81 4.035 3.982 4.035 2.173 0 3.983-1.834 3.983-4.035 0-2.2-1.81-4.034-3.983-4.034-2.172 0-3.982 1.742-3.982 4.034z"/>
            <ellipse cx="125.086" cy="243.933" rx="3.982" ry="4.035"/>
            <path d="M153.235 228.527c0 2.2 1.81 4.035 3.982 4.035 2.173 0 3.983-1.834 3.983-4.035s-1.81-4.035-3.983-4.035c-2.172 0-3.982 1.834-3.982 4.035z"/>
            <ellipse cx="147.352" cy="197.898" rx="3.982" ry="4.035"/>
            <ellipse cx="78.02" cy="114.862" rx="3.982" ry="4.035"/>
            <ellipse cx="90.692" cy="220.182" rx="3.982" ry="4.035"/>
            <path d="M44.712 207.251c0 2.201 1.81 4.035 3.983 4.035 2.172 0 3.982-1.834 3.982-4.035 0-2.2-1.81-4.035-3.982-4.035s-3.983 1.743-3.983 4.035zM72.662 305.281c0 2.201 1.81 4.035 3.983 4.035 2.172 0 3.982-1.834 3.982-4.035 0-2.2-1.81-4.035-3.982-4.035s-3.983 1.835-3.983 4.035z"/>
            <ellipse cx="71.051" cy="252.92" rx="3.982" ry="4.035"/>
            <path d="M124.905 278.322c0 2.2 1.81 4.035 3.982 4.035 2.173 0 3.983-1.834 3.983-4.035 0-2.2-1.81-4.035-3.983-4.035-2.172 0-3.982 1.834-3.982 4.035zM160.023 261.815c0 2.201 1.81 4.035 3.983 4.035 2.172 0 3.982-1.834 3.982-4.035 0-2.2-1.81-4.035-3.982-4.035-2.173 0-3.983 1.743-3.983 4.035z"/>
            <ellipse cx="148.528" cy="305.833" rx="3.982" ry="4.035"/>
            <path d="M165.906 320.69c0 2.2 1.81 4.034 3.983 4.034 2.172 0 3.982-1.834 3.982-4.035 0-2.2-1.81-4.035-3.982-4.035s-3.983 1.834-3.983 4.035z"/>
            <ellipse cx="144.817" cy="250.994" rx="3.982" ry="4.035"/>
            <ellipse cx="65.349" cy="289.968" rx="3.982" ry="4.035"/>
            <path d="M111.057 336.554c0 2.201 1.81 4.035 3.982 4.035 2.173 0 3.983-1.834 3.983-4.035 0-2.2-1.81-4.035-3.983-4.035-2.172 0-3.982 1.834-3.982 4.035zM36.928 316.012c0 2.201 1.81 4.035 3.983 4.035 2.172 0 3.982-1.834 3.982-4.035 0-2.2-1.81-4.035-3.982-4.035s-3.983 1.743-3.983 4.035zM49.69 254.57c0 2.202 1.81 4.036 3.983 4.036 2.172 0 3.982-1.834 3.982-4.035s-1.81-4.035-3.982-4.035-3.983 1.742-3.983 4.035zM57.293 230.27c0 2.2 1.81 4.034 3.983 4.034 2.172 0 3.982-1.834 3.982-4.035 0-2.2-1.81-4.035-3.982-4.035s-3.983 1.742-3.983 4.035z"/>
            <ellipse cx="94.584" cy="268.693" rx="3.982" ry="4.035"/>
            <path d="M163.553 352.327c0 2.201 1.81 4.035 3.983 4.035 2.172 0 3.982-1.834 3.982-4.035 0-2.2-1.81-4.035-3.982-4.035-2.173 0-3.983 1.834-3.983 4.035zM140.835 336.738c0 2.2 1.81 4.035 3.982 4.035 2.173 0 3.983-1.835 3.983-4.035 0-2.201-1.81-4.035-3.983-4.035-2.172 0-3.982 1.834-3.982 4.035z"/>
            <ellipse cx="123.457" cy="317.663" rx="3.982" ry="4.035"/>
            <path d="M181.836 330.593c0 2.201 1.81 4.035 3.983 4.035 2.172 0 3.982-1.834 3.982-4.035 0-2.2-1.81-4.035-3.982-4.035-2.173 0-3.983 1.835-3.983 4.035zM181.655 371.402c0 2.2 1.81 4.035 3.983 4.035 2.172 0 3.982-1.834 3.982-4.035s-1.81-4.035-3.982-4.035c-2.173 0-3.983 1.834-3.983 4.035zM144.003 409.917c0 2.201 1.81 4.035 3.982 4.035s3.983-1.834 3.983-4.035c0-2.2-1.81-4.035-3.983-4.035-2.172-.091-3.982 1.743-3.982 4.035zM118.75 463.84c0 2.2 1.81 4.034 3.983 4.034 2.172 0 3.982-1.834 3.982-4.034 0-2.201-1.81-4.035-3.982-4.035-2.173 0-3.983 1.834-3.983 4.035zM110.695 448.342c0 2.2 1.81 4.034 3.982 4.034s3.983-1.834 3.983-4.034c0-2.201-1.81-4.035-3.983-4.035-2.082 0-3.892 1.834-3.982 4.035z"/>
            <ellipse cx="204.283" cy="357.463" rx="3.982" ry="4.035"/>
            <ellipse cx="190.435" cy="249.435" rx="3.982" ry="4.035"/>
            <path d="M111.871 220.273c0 2.201 1.81 4.035 3.983 4.035 2.172 0 3.982-1.834 3.982-4.035 0-2.2-1.81-4.035-3.982-4.035s-3.892 1.743-3.983 4.035z"/>
            <ellipse cx="77.93" cy="184.142" rx="3.982" ry="4.035"/>
            <ellipse cx="58.017" cy="188.36" rx="3.982" ry="4.035"/>
            <ellipse cx="34.123" cy="148.377" rx="3.982" ry="4.035"/>
            <path d="M136.58 177.447c0 2.201 1.811 4.035 3.983 4.035 2.173 0 3.983-1.834 3.983-4.035 0-2.2-1.81-4.034-3.983-4.034-2.172 0-3.982 1.834-3.982 4.034zM204.011 137.74c0 2.2 1.81 4.035 3.983 4.035 2.172 0 3.982-1.834 3.982-4.035s-1.81-4.035-3.982-4.035-3.983 1.834-3.983 4.035z"/>
            <ellipse cx="267.188" cy="312.436" rx="3.982" ry="4.035"/>
            <path d="M317.602 247.876c0 2.201 1.81 4.035 3.983 4.035 2.172 0 3.982-1.834 3.982-4.035 0-2.2-1.81-4.035-3.982-4.035s-3.983 1.743-3.983 4.035z"/>
            <ellipse cx="375.62" cy="130.403" rx="3.982" ry="4.035"/>
            <ellipse cx="417.074" cy="205.142" rx="3.982" ry="4.035"/>
            <path d="M420.423 107.66c0 2.202 1.81 4.036 3.982 4.036s3.983-1.834 3.983-4.035-1.81-4.035-3.983-4.035c-2.172 0-3.982 1.742-3.982 4.035z"/>
            <ellipse cx="506.499" cy="174.146" rx="3.982" ry="4.035"/>
            <path d="M458.075 244.758c0 2.201 1.81 4.035 3.983 4.035 2.172 0 3.982-1.834 3.982-4.035 0-2.2-1.81-4.035-3.982-4.035-2.173 0-3.983 1.834-3.983 4.035zM166.902 131.779c0 2.2 1.81 4.035 3.982 4.035 2.173 0 3.983-1.834 3.983-4.035s-1.81-4.035-3.983-4.035c-2.172 0-3.982 1.834-3.982 4.035zM49.328 329.86c0 2.2 1.81 4.035 3.983 4.035 2.172 0 3.982-1.834 3.982-4.035s-1.81-4.035-3.982-4.035-3.983 1.834-3.983 4.035z"/>
            <ellipse cx="100.92" cy="361.131" rx="3.982" ry="4.035"/>
            <path d="M166.087 298.955c0 2.201 1.81 4.035 3.983 4.035 2.172 0 3.982-1.834 3.982-4.035 0-2.2-1.81-4.035-3.982-4.035-2.172-.091-3.983 1.743-3.983 4.035zM94.403 298.589c0 2.2 1.81 4.035 3.982 4.035 2.173 0 3.983-1.834 3.983-4.035s-1.81-4.035-3.983-4.035c-2.172-.092-3.982 1.742-3.982 4.035zM239.763 264.566c0 2.201 1.81 4.035 3.983 4.035 2.172 0 3.982-1.834 3.982-4.035 0-2.2-1.81-4.035-3.982-4.035-2.173-.091-3.983 1.743-3.983 4.035zM192.154 371.493c0 2.201 1.81 4.035 3.983 4.035 2.172 0 3.982-1.834 3.982-4.035 0-2.2-1.81-4.035-3.982-4.035s-3.983 1.743-3.983 4.035z"/>
            <ellipse cx="167.264" cy="405.791" rx="3.982" ry="4.035"/>
            <ellipse cx="156.222" cy="421.931" rx="3.982" ry="4.035"/>
            <path d="M131.15 400.013c0 2.201 1.81 4.035 3.983 4.035 2.172 0 3.982-1.834 3.982-4.035 0-2.2-1.81-4.035-3.982-4.035-2.173-.091-3.983 1.743-3.983 4.035zM116.397 371.035c0 2.2 1.81 4.035 3.982 4.035 2.173 0 3.983-1.834 3.983-4.035s-1.81-4.035-3.983-4.035c-2.172 0-3.982 1.834-3.982 4.035zM87.705 370.943c0 2.201 1.81 4.035 3.982 4.035 2.173 0 3.983-1.834 3.983-4.035 0-2.2-1.81-4.035-3.983-4.035-2.172 0-3.982 1.743-3.982 4.035z"/>
            <ellipse cx="77.115" cy="340.314" rx="3.982" ry="4.035"/>
            <ellipse cx="95.851" cy="351.96" rx="3.982" ry="4.035"/>
            <ellipse cx="167.626" cy="334.537" rx="3.982" ry="4.035"/>
            <ellipse cx="244.47" cy="121.966" rx="3.982" ry="4.035"/>
            <path d="M222.385 136.64c0 2.2 1.81 4.034 3.983 4.034 2.172 0 3.982-1.834 3.982-4.035 0-2.2-1.81-4.035-3.982-4.035-2.173 0-3.983 1.834-3.983 4.035z"/>
            <ellipse cx="223.743" cy="157.089" rx="3.982" ry="4.035"/>
            <path d="M234.966 169.378c0 2.2 1.81 4.035 3.983 4.035 2.172 0 3.982-1.835 3.982-4.035 0-2.201-1.81-4.035-3.982-4.035-2.173 0-3.983 1.834-3.983 4.035zM221.752 257.78c0 2.201 1.81 4.035 3.982 4.035s3.982-1.834 3.982-4.035c0-2.2-1.81-4.035-3.982-4.035-2.172-.091-3.982 1.743-3.982 4.035z"/>
            <ellipse cx="259.766" cy="255.121" rx="3.982" ry="4.035"/>
            <ellipse cx="243.655" cy="286.851" rx="3.982" ry="4.035"/>
            <path d="M244.017 212.845c0 2.201 1.81 4.035 3.983 4.035 2.172 0 3.982-1.834 3.982-4.035 0-2.2-1.81-4.035-3.982-4.035-2.173 0-3.983 1.834-3.983 4.035z"/>
            <ellipse cx="340.773" cy="197.164" rx="3.982" ry="4.035"/>
        </g>
        <g fill="#FFF" transform="translate(206.905 -14.111)">
            <ellipse cx="10.154" cy="10.448" fill-opacity=".25" rx="9.85" ry="9.98"/>
            <ellipse cx="10.154" cy="10.448" rx="4.493" ry="4.552"/>
        </g>
        <g fill="#FFF">
            <path fill-opacity=".25" d="M221.894 105.465c0 5.432 4.467 9.958 9.828 9.958s9.829-4.526 9.829-9.958c0-5.431-4.468-9.958-9.829-9.958-5.36 0-9.605 4.527-9.828 9.958z"/>
            <path d="M227.162 105.465c0 2.52 2.073 4.621 4.56 4.621 2.488 0 4.56-2.1 4.56-4.62 0-2.521-2.072-4.622-4.56-4.622-2.487 0-4.457 2.1-4.56 4.621z"/>
        </g>
        <g fill="#FFF" fill-opacity=".25">
            <path d="M170.652 246.05c0 5.389 4.432 9.88 9.75 9.88 5.32 0 9.751-4.491 9.751-9.88 0-5.389-4.432-9.88-9.75-9.88-5.319-.224-9.751 4.267-9.751 9.88z"/>
            <path d="M175.815 246.048c0 2.535 2.085 4.648 4.588 4.648 2.502 0 4.587-2.113 4.587-4.648 0-2.535-2.085-4.648-4.587-4.648-2.503-.106-4.588 2.007-4.588 4.648z"/>
        </g>
        <g fill="#FFF">
            <path fill-opacity=".25" d="M152.235 166.265c0 5.813 4.78 10.657 10.518 10.657 5.737 0 10.518-4.844 10.518-10.657s-4.78-10.657-10.518-10.657c-5.737 0-10.518 4.844-10.518 10.657z"/>
            <path d="M158.077 166.265c0 2.584 2.126 4.737 4.676 4.737 2.55 0 4.676-2.153 4.676-4.737s-2.126-4.737-4.676-4.737c-2.55 0-4.676 2.153-4.676 4.737z"/>
        </g>
        <g fill="#FFF" fill-opacity=".25" transform="translate(72.125 46.968)">
            <ellipse cx="9.946" cy="10.031" rx="9.722" ry="9.766"/>
            <ellipse cx="9.946" cy="10.045" rx="4.861" ry="4.883"/>
        </g>
        <g fill="#FFF" fill-opacity=".25" transform="translate(25.28 167.476)">
            <ellipse cx="10.349" cy="10.437" rx="9.802" ry="9.931"/>
            <ellipse cx="10.349" cy="10.437" rx="4.382" ry="4.439"/>
        </g>
    </g>
</svg>
