<svg xmlns="http://www.w3.org/2000/svg" width="258" height="93" viewBox="0 0 258 93">
    <g fill="none" fill-rule="nonzero">
        <path fill="#E2E5E7" d="M7.929 51c-1.454 0-2.643 1.181-2.643 2.625v36.75C5.286 91.819 6.475 93 7.929 93h26.428C35.811 93 37 91.819 37 90.375V61.5L26.429 51h-18.5z"/>
        <path fill="#B0B7BD" d="M29.071 61.5H37L26.429 51v7.875c0 1.444 1.189 2.625 2.642 2.625z"/>
        <path fill="#CAD1D8" d="M37 69.375L29.071 61.5H37z"/>
        <path fill="#314CB6" d="M31.714 85.125a1.32 1.32 0 0 1-1.321 1.313H1.32A1.32 1.32 0 0 1 0 85.124V72a1.32 1.32 0 0 1 1.321-1.313h29.072c.727 0 1.321.591 1.321 1.313v13.125z"/>
        <g fill="#FFF">
            <path d="M5.76 75.868c0-.347.275-.725.718-.725h2.44c1.375 0 2.611.914 2.611 2.665 0 1.659-1.236 2.583-2.61 2.583H7.153v1.386c0 .462-.296.723-.676.723a.71.71 0 0 1-.718-.723v-5.91zm1.394.597v2.615h1.764c.709 0 1.269-.621 1.269-1.272 0-.734-.56-1.343-1.269-1.343H7.154zM13.599 82.5c-.349 0-.73-.189-.73-.65V75.89c0-.377.381-.651.73-.651h2.42c4.828 0 4.722 7.262.095 7.262h-2.515zm.666-5.981v4.701h1.753c2.853 0 2.98-4.701 0-4.701h-1.753zM22.454 76.603v1.668h2.694c.38 0 .761.378.761.744 0 .347-.38.63-.76.63h-2.695v2.204c0 .368-.263.65-.633.65-.465 0-.75-.282-.75-.65v-5.961c0-.377.286-.651.75-.651h3.709c.465 0 .74.274.74.65a.728.728 0 0 1-.74.715h-3.076z"/>
        </g>
        <path fill="#CAD1D8" d="M30.393 86.438H5.286v1.312h25.107a1.32 1.32 0 0 0 1.321-1.313v-1.312a1.32 1.32 0 0 1-1.321 1.313z"/>
        <path fill="#E2E5E7" d="M228.929 0c-1.454 0-2.643 1.181-2.643 2.625v36.75c0 1.444 1.189 2.625 2.643 2.625h26.428c1.454 0 2.643-1.181 2.643-2.625V10.5L247.429 0h-18.5z"/>
        <path fill="#B0B7BD" d="M250.071 10.5H258L247.429 0v7.875c0 1.444 1.189 2.625 2.642 2.625z"/>
        <path fill="#CAD1D8" d="M258 18.375l-7.929-7.875H258z"/>
        <path fill="#00AEEF" d="M252.714 34.125a1.32 1.32 0 0 1-1.321 1.313H222.32A1.32 1.32 0 0 1 221 34.124V21a1.32 1.32 0 0 1 1.321-1.313h29.072c.727 0 1.321.591 1.321 1.313v13.125z"/>
        <g fill="#FFF">
            <path d="M226.003 31.5c-.349 0-.73-.19-.73-.651v-5.96c0-.378.381-.651.73-.651h2.42c4.828 0 4.72 7.262.093 7.262h-2.513zm.666-5.982v4.701h1.753c2.853 0 2.979-4.701 0-4.701h-1.753zM237.188 31.605c-1.955.084-3.985-1.208-3.985-3.779 0-2.581 2.029-3.85 3.985-3.85 1.848.093 3.781 1.363 3.781 3.85 0 2.489-1.933 3.779-3.781 3.779zm-.117-6.265c-1.184 0-2.472.83-2.472 2.488 0 1.648 1.29 2.488 2.472 2.488 1.216 0 2.515-.84 2.515-2.488 0-1.66-1.3-2.488-2.515-2.488zM242.213 27.816c0-2.025 1.279-3.767 3.71-3.767.919 0 1.648.273 2.419.934a.711.711 0 0 1 .031 1.018.721.721 0 0 1-.972-.032c-.432-.451-.876-.576-1.479-.576-1.627 0-2.407 1.144-2.407 2.424 0 1.302.77 2.498 2.407 2.498.603 0 1.163-.243 1.65-.672.326-.252.78-.128.97.126.17.23.253.62-.116.986-.74.683-1.626.82-2.505.82-2.556 0-3.708-1.734-3.708-3.76z"/>
        </g>
        <path fill="#CAD1D8" d="M251.393 35.438h-25.107v1.312h25.107a1.32 1.32 0 0 0 1.321-1.313v-1.312a1.32 1.32 0 0 1-1.321 1.313z"/>
        <g>
            <path fill="#E2E5E7" d="M140.529 51c-1.454 0-2.643 1.181-2.643 2.625v36.75c0 1.444 1.189 2.625 2.643 2.625h26.428c1.454 0 2.643-1.181 2.643-2.625V61.5L159.029 51h-18.5z"/>
            <path fill="#B0B7BD" d="M161.671 61.5h7.929L159.029 51v7.875c0 1.444 1.189 2.625 2.642 2.625z"/>
            <path fill="#CAD1D8" d="M169.6 69.375l-7.929-7.875h7.929z"/>
            <path fill="#6BE997" d="M164.314 85.125a1.32 1.32 0 0 1-1.321 1.313H133.92a1.32 1.32 0 0 1-1.321-1.313V72a1.32 1.32 0 0 1 1.321-1.313h29.072c.727 0 1.321.591 1.321 1.313v13.125z"/>
            <g fill="#FFF">
                <path d="M141.878 77.758l1.838-2.288c.55-.714 1.617.198 1.015.88a61.417 61.417 0 0 0-1.934 2.383l2.156 2.666c.581.787-.58 1.542-1.151.765l-1.945-2.477-1.912 2.53c-.54.766-1.734-.094-1.132-.808l2.124-2.676c-.666-.83-1.311-1.637-1.954-2.382-.665-.788.57-1.595 1.057-.858l1.838 2.265zM146.257 75.868c0-.347.296-.64.666-.64.338 0 .624.295.624.64v5.258h2.874c1.034 0 1.057 1.374 0 1.374h-3.497c-.37 0-.666-.261-.666-.64v-5.992h-.001zM152.424 76.813c.243-2.037 3.338-2.403 4.797-1.29.719.576-.042 1.49-.677 1.027-.782-.492-2.557-.723-2.779.367-.285 1.722 4.31.736 4.237 3.528-.074 2.665-3.962 2.727-5.42 1.531-.35-.283-.339-.744-.149-1.029.275-.271.58-.366.941-.072.866.587 3.096 1.028 3.254-.463-.137-1.552-4.532-.618-4.204-3.6z"/>
            </g>
            <path fill="#CAD1D8" d="M162.993 86.438h-25.107v1.312h25.107a1.32 1.32 0 0 0 1.321-1.313v-1.312a1.32 1.32 0 0 1-1.321 1.313z"/>
        </g>
        <g>
            <path fill="#E2E5E7" d="M184.729 51c-1.454 0-2.643 1.181-2.643 2.625v36.75c0 1.444 1.189 2.625 2.643 2.625h26.428c1.454 0 2.643-1.181 2.643-2.625V61.5L203.229 51h-18.5z"/>
            <path fill="#B0B7BD" d="M205.871 61.5h7.929L203.229 51v7.875c0 1.444 1.189 2.625 2.642 2.625z"/>
            <path fill="#CAD1D8" d="M213.8 69.375l-7.929-7.875h7.929z"/>
            <path fill="#314CB6" d="M208.514 85.125a1.32 1.32 0 0 1-1.321 1.313H178.12a1.32 1.32 0 0 1-1.321-1.313V72a1.32 1.32 0 0 1 1.321-1.313h29.072c.727 0 1.321.591 1.321 1.313v13.125z"/>
            <g fill="#FFF">
                <path d="M182.867 75.868c0-.347.275-.725.717-.725h2.44c1.375 0 2.612.914 2.612 2.665 0 1.659-1.237 2.583-2.611 2.583h-1.764v1.386c0 .462-.295.723-.675.723a.71.71 0 0 1-.718-.723v-5.91h-.001zm1.394.597v2.615h1.764c.708 0 1.268-.621 1.268-1.272 0-.734-.56-1.343-1.268-1.343h-1.764zM189.983 75.868c0-.347.274-.725.718-.725h2.441c1.374 0 2.611.914 2.611 2.665 0 1.659-1.237 2.583-2.61 2.583h-1.765v1.386c0 .462-.296.723-.677.723a.71.71 0 0 1-.718-.723v-5.91zm1.394.597v2.615h1.764c.708 0 1.268-.621 1.268-1.272 0-.734-.56-1.343-1.268-1.343h-1.764zM199.073 76.55h-1.848c-.92 0-.92-1.342 0-1.342h4.997c.94 0 .94 1.342 0 1.342h-1.754v5.3c0 .913-1.395.935-1.395 0v-5.3z"/>
            </g>
            <path fill="#CAD1D8" d="M207.193 86.438h-25.107v1.312h25.107a1.32 1.32 0 0 0 1.321-1.313v-1.312a1.32 1.32 0 0 1-1.321 1.313z"/>
        </g>
        <g>
            <path fill="#E2E5E7" d="M228.929 51c-1.454 0-2.643 1.181-2.643 2.625v36.75c0 1.444 1.189 2.625 2.643 2.625h26.428c1.454 0 2.643-1.181 2.643-2.625V61.5L247.429 51h-18.5z"/>
            <path fill="#B0B7BD" d="M250.071 61.5H258L247.429 51v7.875c0 1.444 1.189 2.625 2.642 2.625z"/>
            <path fill="#CAD1D8" d="M258 69.375l-7.929-7.875H258z"/>
            <path fill="#00AEEF" d="M252.714 85.125a1.32 1.32 0 0 1-1.321 1.313H222.32A1.32 1.32 0 0 1 221 85.124V72a1.32 1.32 0 0 1 1.321-1.313h29.072c.727 0 1.321.591 1.321 1.313v13.125z"/>
            <g fill="#FFF">
                <path d="M230.082 75.868c0-.882 1.396-.882 1.396 0v4.145c0 1.648-.793 2.646-2.62 2.646-.9 0-1.649-.243-2.304-1.082-.54-.64.476-1.563 1.025-.892.444.546.92.672 1.384.65.59-.02 1.11-.284 1.12-1.322v-4.145zM233.334 75.868c0-.347.275-.725.72-.725h2.44c1.374 0 2.61.914 2.61 2.665 0 1.659-1.236 2.583-2.61 2.583h-1.764v1.386c0 .462-.296.723-.677.723a.71.71 0 0 1-.719-.723v-5.91zm1.396.597v2.615h1.764c.708 0 1.268-.621 1.268-1.272 0-.734-.56-1.343-1.268-1.343h-1.764zM246.65 81.693c-.75.62-1.67.882-2.599.882-2.22 0-3.794-1.259-3.794-3.758 0-2.118 1.66-3.765 3.888-3.765.835 0 1.753.282 2.409.922.643.629-.286 1.563-.919 1.008-.39-.378-.94-.661-1.49-.661-1.278 0-2.514 1.017-2.514 2.496 0 1.554 1.035 2.5 2.42 2.5.644 0 1.193-.191 1.584-.473v-1.29h-1.584c-.94 0-.846-1.282 0-1.282h2.113c.391 0 .75.294.75.62v2.235c0 .19-.084.365-.264.566z"/>
            </g>
            <path fill="#CAD1D8" d="M251.393 86.438h-25.107v1.312h25.107a1.32 1.32 0 0 0 1.321-1.313v-1.312a1.32 1.32 0 0 1-1.321 1.313z"/>
        </g>
        <g>
            <path fill="#E2E5E7" d="M184.929 0c-1.454 0-2.643 1.181-2.643 2.625v36.75c0 1.444 1.189 2.625 2.643 2.625h26.428c1.454 0 2.643-1.181 2.643-2.625V10.5L203.429 0h-18.5z"/>
            <path fill="#B0B7BD" d="M206.071 10.5H214L203.429 0v7.875c0 1.444 1.189 2.625 2.642 2.625z"/>
            <path fill="#CAD1D8" d="M214 18.375l-7.929-7.875H214z"/>
            <path fill="#6BE997" d="M208.714 34.125a1.32 1.32 0 0 1-1.321 1.313H178.32A1.32 1.32 0 0 1 177 34.124V21a1.32 1.32 0 0 1 1.321-1.313h29.072c.727 0 1.321.591 1.321 1.313v13.125z"/>
            <g fill="#FFF">
                <path d="M185.312 31.5c-.666 0-.93-.64-.55-1.09l3.762-4.965h-3.118c-.919 0-.845-1.288 0-1.288h4.259c.802 0 1.034.753.465 1.363l-3.604 4.648h3.435c.845 0 .951 1.333-.084 1.333h-4.565V31.5zM191.87 24.868c0-.861 1.395-.893 1.395 0v5.992c0 .87-1.395.892-1.395 0v-5.992zM195.138 24.868c0-.347.275-.725.719-.725h2.44c1.375 0 2.612.914 2.612 2.665 0 1.659-1.237 2.583-2.612 2.583h-1.764v1.386c0 .462-.296.723-.676.723a.71.71 0 0 1-.72-.723v-5.91zm1.394.597v2.615h1.764c.708 0 1.269-.621 1.269-1.272 0-.734-.56-1.343-1.269-1.343h-1.764z"/>
            </g>
            <path fill="#CAD1D8" d="M207.393 35.438h-25.107v1.312h25.107a1.32 1.32 0 0 0 1.321-1.313v-1.312a1.32 1.32 0 0 1-1.321 1.313z"/>
        </g>
        <g>
            <path fill="#E2E5E7" d="M96.329 51c-1.454 0-2.643 1.181-2.643 2.625v36.75c0 1.444 1.189 2.625 2.643 2.625h26.428c1.454 0 2.643-1.181 2.643-2.625V61.5L114.829 51h-18.5z"/>
            <path fill="#B0B7BD" d="M117.471 61.5h7.929L114.829 51v7.875c0 1.444 1.189 2.625 2.642 2.625z"/>
            <path fill="#CAD1D8" d="M125.4 69.375l-7.929-7.875h7.929z"/>
            <path fill="#FACC6B" d="M120.114 85.125a1.32 1.32 0 0 1-1.321 1.313H89.72a1.32 1.32 0 0 1-1.321-1.313V72a1.32 1.32 0 0 1 1.321-1.313h29.072c.727 0 1.321.591 1.321 1.313v13.125z"/>
            <g fill="#FFF">
                <path d="M93.423 75.868c0-.347.273-.726.717-.726h2.442c1.373 0 2.61.914 2.61 2.666 0 1.659-1.237 2.581-2.61 2.581h-1.766v1.386c0 .464-.294.725-.676.725a.71.71 0 0 1-.717-.725v-5.907zm1.393.597v2.613h1.765c.707 0 1.267-.62 1.267-1.27 0-.735-.56-1.343-1.267-1.343h-1.765zM100.539 75.973c0-.38.084-.746.634-.746.38 0 .465.095.75.367l3.496 4.345v-4.071c0-.347.305-.726.666-.726.38 0 .749.38.749.726v5.907c0 .464-.286.64-.56.725-.369 0-.55-.084-.855-.366l-3.497-4.409v4.052c0 .463-.285.724-.666.724-.38 0-.719-.26-.719-.724v-5.804h.002zM114.782 81.693c-.75.618-1.67.882-2.599.882-2.22 0-3.794-1.26-3.794-3.758 0-2.12 1.66-3.767 3.888-3.767.835 0 1.753.284 2.409.924.645.629-.286 1.563-.919 1.008-.39-.38-.94-.661-1.49-.661-1.278 0-2.513 1.017-2.513 2.496 0 1.554 1.034 2.498 2.42 2.498.643 0 1.192-.19 1.583-.473v-1.289h-1.584c-.94 0-.846-1.282 0-1.282h2.113c.391 0 .75.295.75.62v2.236c0 .188-.084.365-.264.566z"/>
            </g>
            <path fill="#CAD1D8" d="M118.793 86.438H93.686v1.312h25.107a1.32 1.32 0 0 0 1.321-1.313v-1.312a1.32 1.32 0 0 1-1.321 1.313z"/>
        </g>
        <g>
            <path fill="#E2E5E7" d="M52.129 51c-1.454 0-2.643 1.181-2.643 2.625v36.75c0 1.444 1.189 2.625 2.643 2.625h26.428c1.454 0 2.643-1.181 2.643-2.625V61.5L70.629 51h-18.5z"/>
            <path fill="#B0B7BD" d="M73.271 61.5H81.2L70.629 51v7.875c0 1.444 1.189 2.625 2.642 2.625z"/>
            <path fill="#CAD1D8" d="M81.2 69.375L73.271 61.5H81.2z"/>
            <path fill="#00AEEF" d="M75.914 85.125a1.32 1.32 0 0 1-1.321 1.313H45.52a1.32 1.32 0 0 1-1.321-1.313V72a1.32 1.32 0 0 1 1.321-1.313h29.072c.727 0 1.321.591 1.321 1.313v13.125z"/>
            <g fill="#FFF">
                <path d="M52.524 76.55h-1.849c-.92 0-.92-1.342 0-1.342h4.998c.94 0 .94 1.342 0 1.342h-1.755v5.299c0 .912-1.396.935-1.396 0V76.55h.002zM60.092 77.757l1.839-2.288c.55-.713 1.616.2 1.015.882a62.372 62.372 0 0 0-1.935 2.38l2.157 2.667c.58.787-.582 1.543-1.153.766l-1.943-2.477-1.912 2.53c-.54.765-1.734-.095-1.13-.809l2.122-2.676c-.665-.828-1.31-1.636-1.954-2.381-.666-.788.57-1.595 1.055-.86l1.839 2.266zM66.193 76.55h-1.848c-.92 0-.92-1.342 0-1.342h4.997c.94 0 .94 1.342 0 1.342h-1.754v5.299c0 .912-1.395.935-1.395 0V76.55z"/>
            </g>
            <path fill="#CAD1D8" d="M74.593 86.438H49.486v1.312h25.107a1.32 1.32 0 0 0 1.321-1.313v-1.312a1.32 1.32 0 0 1-1.321 1.313z"/>
        </g>
        <g>
            <path fill="#E2E5E7" d="M140.929 0c-1.454 0-2.643 1.181-2.643 2.625v36.75c0 1.444 1.189 2.625 2.643 2.625h26.428c1.454 0 2.643-1.181 2.643-2.625V10.5L159.429 0h-18.5z"/>
            <path fill="#B0B7BD" d="M162.071 10.5H170L159.429 0v7.875c0 1.444 1.189 2.625 2.642 2.625z"/>
            <path fill="#CAD1D8" d="M170 18.375l-7.929-7.875H170z"/>
            <path fill="#FACC6B" d="M164.714 34.125a1.32 1.32 0 0 1-1.321 1.313H134.32A1.32 1.32 0 0 1 133 34.124V21a1.32 1.32 0 0 1 1.321-1.313h29.072c.727 0 1.321.591 1.321 1.313v13.125z"/>
            <g fill="#FFF">
                <path d="M143.227 25.55h-1.85c-.918 0-.918-1.342 0-1.342h4.999c.939 0 .939 1.342 0 1.342h-1.754v5.299c0 .912-1.395.935-1.395 0V25.55zM148.323 24.868c0-.861 1.396-.893 1.396 0v5.99c0 .872-1.396.893-1.396 0v-5.99zM152.963 25.602v1.668h2.693c.38 0 .761.378.761.745 0 .347-.38.629-.761.629h-2.693v2.204c0 .367-.264.65-.634.65-.466 0-.75-.283-.75-.65v-5.96c0-.378.286-.651.75-.651h3.709c.465 0 .74.273.74.65a.727.727 0 0 1-.74.713h-3.075v.002z"/>
            </g>
            <path fill="#CAD1D8" d="M163.393 35.438h-25.107v1.312h25.107a1.32 1.32 0 0 0 1.321-1.313v-1.312a1.32 1.32 0 0 1-1.321 1.313z"/>
        </g>
        <g>
            <path fill="#E2E5E7" d="M95.929 0c-1.454 0-2.643 1.181-2.643 2.625v36.75c0 1.444 1.189 2.625 2.643 2.625h26.428c1.454 0 2.643-1.181 2.643-2.625V10.5L114.429 0h-18.5z"/>
            <path fill="#B0B7BD" d="M117.071 10.5H125L114.429 0v7.875c0 1.444 1.189 2.625 2.642 2.625z"/>
            <path fill="#CAD1D8" d="M125 18.375l-7.929-7.875H125z"/>
            <path fill="#00AEEF" d="M119.714 34.125a1.32 1.32 0 0 1-1.321 1.313H89.32A1.32 1.32 0 0 1 88 34.124V21a1.32 1.32 0 0 1 1.321-1.313h29.072c.727 0 1.321.591 1.321 1.313v13.125z"/>
            <g fill="#FFF">
                <path d="M93.616 24.868c0-.347.275-.726.718-.726h2.44c1.375 0 2.611.914 2.611 2.666 0 1.659-1.236 2.582-2.61 2.582H95.01v1.386c0 .463-.296.724-.676.724a.71.71 0 0 1-.718-.724v-5.908zm1.394.597v2.613h1.764c.709 0 1.269-.62 1.269-1.27 0-.735-.56-1.343-1.269-1.343H95.01zM100.58 25.812c.243-2.036 3.338-2.402 4.797-1.29.719.577-.043 1.49-.677 1.028-.782-.493-2.557-.724-2.779.367-.285 1.722 4.31.736 4.237 3.526-.074 2.666-3.962 2.729-5.42 1.532-.35-.282-.339-.743-.149-1.028.275-.271.58-.366.941-.073.866.588 3.096 1.029 3.253-.463-.136-1.552-4.532-.617-4.203-3.6zM108.337 31.5c-.35 0-.73-.19-.73-.651v-5.96c0-.378.38-.651.73-.651h2.42c4.828 0 4.722 7.262.094 7.262h-2.514zm.666-5.982v4.701h1.753c2.853 0 2.98-4.701 0-4.701h-1.753z"/>
            </g>
            <path fill="#CAD1D8" d="M118.393 35.438H93.286v1.312h25.107a1.32 1.32 0 0 0 1.321-1.313v-1.312a1.32 1.32 0 0 1-1.321 1.313z"/>
        </g>
        <g>
            <path fill="#E2E5E7" d="M51.929 0c-1.454 0-2.643 1.181-2.643 2.625v36.75c0 1.444 1.189 2.625 2.643 2.625h26.428C79.811 42 81 40.819 81 39.375V10.5L70.429 0h-18.5z"/>
            <path fill="#B0B7BD" d="M73.071 10.5H81L70.429 0v7.875c0 1.444 1.189 2.625 2.642 2.625z"/>
            <path fill="#CAD1D8" d="M81 18.375L73.071 10.5H81z"/>
            <path fill="#FACC6B" d="M75.714 34.125a1.32 1.32 0 0 1-1.321 1.313H45.32A1.32 1.32 0 0 1 44 34.124V21a1.32 1.32 0 0 1 1.321-1.313h29.072c.727 0 1.321.591 1.321 1.313v13.125z"/>
            <g fill="#FFF">
                <path d="M51.384 31.501c-.338-.19-.55-.567-.338-1.008l3.033-5.886c.285-.557 1.045-.578 1.31 0l2.979 5.886c.433.818-.846 1.469-1.226.65l-.466-.923h-3.898l-.453.924c-.17.357-.56.43-.94.357zm4.543-2.665l-1.194-2.593-1.3 2.593h2.494zM61.31 31.029l-2.789-5.803c-.412-.83.835-1.51 1.3-.64l.94 2.109 1.214 2.77 1.194-2.77.94-2.11c.423-.796 1.648-.293 1.29.578l-2.694 5.866c-.243.661-.994.819-1.394 0zM66.702 24.868c0-.86 1.396-.893 1.396 0v5.992c0 .871-1.396.892-1.396 0v-5.992z"/>
            </g>
            <path fill="#CAD1D8" d="M74.393 35.438H49.286v1.312h25.107a1.32 1.32 0 0 0 1.321-1.313v-1.312a1.32 1.32 0 0 1-1.321 1.313z"/>
        </g>
        <g>
            <path fill="#E2E5E7" d="M7.929 0C6.475 0 5.286 1.181 5.286 2.625v36.75C5.286 40.819 6.475 42 7.929 42h26.428C35.811 42 37 40.819 37 39.375V10.5L26.429 0h-18.5z"/>
            <path fill="#B0B7BD" d="M29.071 10.5H37L26.429 0v7.875c0 1.444 1.189 2.625 2.642 2.625z"/>
            <path fill="#CAD1D8" d="M37 18.375L29.071 10.5H37z"/>
            <path fill="#6BE997" d="M31.714 34.125a1.32 1.32 0 0 1-1.321 1.313H1.32A1.32 1.32 0 0 1 0 34.124V21a1.32 1.32 0 0 1 1.321-1.313h29.072c.727 0 1.321.591 1.321 1.313v13.125z"/>
            <g fill="#FFF">
                <path d="M1.956 30.849v-5.96c0-.378.275-.651.749-.651.37 0 .645.273.645.65v2.289h3.443v-2.288c0-.378.339-.651.72-.651.37 0 .655.273.655.65v5.961a.643.643 0 0 1-.656.651c-.38 0-.719-.283-.719-.651v-2.297H3.35v2.297a.634.634 0 0 1-.645.651c-.474 0-.75-.283-.75-.651zM11.627 25.55H9.78c-.92 0-.92-1.342 0-1.342h4.996c.94 0 .94 1.342 0 1.342H13.02v5.299c0 .912-1.395.935-1.395 0V25.55h.001zM17.896 26.893v3.883c0 .463-.38.724-.76.724-.338 0-.634-.261-.634-.724v-5.908c0-.546.466-.726.634-.726.306 0 .485.18.665.38l2.326 3.115 2.407-3.232c.35-.43 1.205-.263 1.205.463v5.908c0 .463-.297.724-.634.724-.38 0-.676-.261-.676-.724v-3.883l-1.754 2.204c-.38.463-.855.463-1.204 0l-1.575-2.204zM25.212 24.868c0-.347.296-.64.666-.64.338 0 .623.295.623.64v5.258h2.874c1.035 0 1.058 1.374 0 1.374H25.88c-.37 0-.666-.261-.666-.64v-5.992h-.001z"/>
            </g>
            <path fill="#CAD1D8" d="M30.393 35.438H5.286v1.312h25.107a1.32 1.32 0 0 0 1.321-1.313v-1.312a1.32 1.32 0 0 1-1.321 1.313z"/>
        </g>
    </g>
</svg>
