<?xml version="1.0"?>
<svg width="375" height="375" xmlns="http://www.w3.org/2000/svg" xmlns:svg="http://www.w3.org/2000/svg" enable-background="new 0 0 662.8 662.8" version="1.1" xml:space="preserve">
 <style type="text/css">.st0{fill:#B2FCE4;}</style>

 <g class="layer">
  <title>Layer 1</title>
  <g id="Sticker" transform="matrix(1, 0, 0, 1, 0, 0)">
   <g id="svg_1">
    <circle class="st0" cx="187.4" cy="187.4" id="svg_2" r="187.4"/>
   </g>
  </g>
  <g id="Loop">
   <g id="svg_3">
    <path d="m294.27,121.57l-34.6,-19.8l-35.1,-20.1c-23.2,-13.3 -52.2,3.4 -52.2,30.2l0,4.5c0,2.5 1.3,4.8 3.5,6l16.3,9.3c4.5,2.6 10.1,-0.7 10.1,-5.9l0,-10.7c0,-5.3 5.7,-8.6 10.3,-6l32,18.4l31.9,18.3c4.6,2.6 4.6,9.3 0,11.9l-31.9,18.3l-32,18.4c-4.6,2.6 -10.3,-0.7 -10.3,-6l0,-5.3c0,-26.8 -29,-43.6 -52.2,-30.2l-35,20.2l-34.6,19.8c-23.3,13.4 -23.3,47.1 0,60.5l34.6,19.8l35.1,20.1c23.2,13.3 52.2,-3.4 52.2,-30.2l0,-4.5c0,-2.5 -1.3,-4.8 -3.5,-6l-16.3,-9.3c-4.5,-2.6 -10.1,0.7 -10.1,5.9l0,10.7c0,5.3 -5.7,8.6 -10.3,6l-32,-18.4l-31.9,-18.3c-4.6,-2.6 -4.6,-9.3 0,-11.9l31.9,-18.3l32,-18.4c4.6,-2.6 10.3,0.7 10.3,6l0,5.3c0,26.8 29,43.6 52.2,30.2l35.1,-20.1l34.6,-19.8c23.2,-13.5 23.2,-47.2 -0.1,-60.6z" id="svg_4"/>
   </g>
  </g>
 </g>
</svg>