<svg width="41" height="25" viewBox="0 0 41 25" fill="none" xmlns="http://www.w3.org/2000/svg">
<rect width="41" height="25" rx="6" fill="#0742A6"/>
<path d="M16.872 8.55883L13.4686 16.628H11.2472L9.57359 10.189C9.47056 9.79192 9.3825 9.64742 9.07355 9.47879C8.56746 9.20694 7.73501 8.95193 7 8.7931L7.05144 8.55888H10.6254C11.0812 8.55888 11.491 8.86096 11.594 9.38172L12.479 14.052L14.6648 8.55888L16.872 8.55883ZM25.5732 13.9923C25.583 11.8638 22.6089 11.7479 22.6303 10.7957C22.6361 10.505 22.9134 10.1974 23.5206 10.1198C23.8222 10.0799 24.652 10.0507 25.5925 10.4797L25.9611 8.76939C25.4551 8.58689 24.8046 8.41211 23.9962 8.41211C21.9198 8.41211 20.458 9.50947 20.4457 11.0796C20.4321 12.2407 21.4886 12.8886 22.2855 13.2753C23.1038 13.671 23.3774 13.9236 23.3745 14.2785C23.3692 14.8201 22.7216 15.0568 22.1176 15.0674C21.0611 15.0838 20.4483 14.7838 19.959 14.5573L19.5786 16.3264C20.0688 16.5501 20.9764 16.7442 21.9156 16.7557C24.1225 16.7556 25.5662 15.6699 25.5732 13.9923ZM31.0565 16.6281H33L31.3042 8.55888H29.51C29.1069 8.55888 28.767 8.7925 28.6155 9.15038L25.465 16.6281H27.6702L28.1079 15.423H30.8035L31.0565 16.6281ZM28.7122 13.7691L29.8186 10.7392L30.455 13.7691H28.7122ZM19.8743 8.55883L18.1361 16.628H16.0348L17.7734 8.55883H19.8743Z" fill="white"/>
</svg>
