<svg width="501" height="346" xmlns="http://www.w3.org/2000/svg" version="1.1" xml:space="preserve">
 <g>
  <rect stroke="null" x="0" y="63.333" width="502" height="85.333" fill="#455A64" id="svg_2"/>
  <g fill="#455A64" id="svg_3">
   <path d="m161,248l-85.333,0c-5.891,0 -10.667,-4.776 -10.667,-10.667s4.776,-10.667 10.667,-10.667l85.333,0c5.891,0 10.667,4.776 10.667,10.667s-4.776,10.667 -10.667,10.667z" fill="#33666C" id="svg_4"/>
   <path d="m225,290.667l-149.333,0c-5.891,0 -10.667,-4.776 -10.667,-10.667c0,-5.891 4.776,-10.667 10.667,-10.667l149.333,0c5.891,0 10.667,4.776 10.667,10.667c0,5.891 -4.776,10.667 -10.667,10.667z" fill="#33666C" id="svg_5"/>
  </g>
 </g>
</svg>