<svg width="41" height="25" viewBox="0 0 41 25" fill="none" xmlns="http://www.w3.org/2000/svg">
<rect width="41" height="25" rx="6" fill="#92DBEF"/>
<path d="M25.2504 6.85666C24.6264 6.14346 23.4677 5.78711 21.8634 5.78711H17.4066C17.1391 5.78711 16.8719 6.05471 16.7827 6.32169L15 17.998C15 18.2658 15.1783 18.4437 15.3563 18.4437H18.1194L18.8325 14.0764V14.2547C18.9218 13.987 19.1889 13.72 19.4566 13.72H20.7937C23.3784 13.72 25.3389 12.6504 25.963 9.7087V9.44132C25.8739 9.44132 25.8739 9.44132 25.963 9.44132C26.0522 8.2829 25.8739 7.5697 25.2504 6.85666Z" fill="#263B80"/>
<path d="M25.9625 9.7096V9.44222C25.9631 9.43338 25.9635 9.42515 25.9641 9.41636C25.8056 9.3062 25.6571 9.22935 25.5436 9.17952C25.0024 8.95591 24.449 8.91376 24.1935 8.90736L24.1921 8.90625H22.8923C22.8923 8.90625 22.8934 8.90692 22.894 8.90731H20.1674C19.7038 8.92416 19.576 9.29791 19.5426 9.46052L18.832 14.0773V14.1869V14.2556C18.9213 13.9879 19.1884 13.7209 19.4561 13.7209H20.7932C23.378 13.7209 25.3384 12.6513 25.9625 9.7096Z" fill="#232C65"/>
<path d="M26.8385 10.5467C26.6371 9.99097 26.2807 9.6359 25.9645 9.41602C25.9639 9.4248 25.9635 9.43303 25.9629 9.44188V9.70925C25.3389 12.6509 23.3784 13.7205 20.7937 13.7205H19.4565C19.1889 13.7205 18.9218 13.9875 18.8325 14.2552V14.1865C18.8223 14.2093 18.8129 14.2323 18.8052 14.2552L18.3017 17.3275L18.1193 18.4443H18.1187L17.9141 19.6923C17.9141 19.8705 18.0033 20.0484 18.2704 20.0484H20.4922C20.9392 20.0484 21.0796 19.7006 21.1228 19.5133L21.1416 19.3969V19.3968L21.5683 16.7507C21.5683 16.7507 21.6239 16.1268 22.2325 16.1268H22.4599C24.6882 16.1268 26.4709 15.2356 26.9165 12.5618C27.0404 11.8163 27.0343 11.1149 26.8385 10.5467Z" fill="#139AD6"/>
</svg>
