<svg width="41" height="25" viewBox="0 0 41 25" fill="none" xmlns="http://www.w3.org/2000/svg">
<rect width="41" height="25" rx="6" fill="#635BFF"/>
<path fill-rule="evenodd" clip-rule="evenodd" d="M33.787 13.3288C33.787 11.5664 32.9333 10.1758 31.3017 10.1758C29.6632 10.1758 28.6719 11.5664 28.6719 13.3151C28.6719 15.3873 29.8422 16.4337 31.522 16.4337C32.3413 16.4337 32.9609 16.2478 33.429 15.9862V14.6093C32.9608 14.8434 32.4239 14.988 31.7423 14.988C31.0745 14.988 30.4824 14.7539 30.4067 13.9415H33.7732C33.7732 13.852 33.787 13.494 33.787 13.3288ZM30.3861 12.6748C30.3861 11.8968 30.8611 11.5733 31.2948 11.5733C31.7148 11.5733 32.1623 11.8968 32.1623 12.6748H30.3861Z" fill="white"/>
<path fill-rule="evenodd" clip-rule="evenodd" d="M26.012 10.1758C25.3374 10.1758 24.9036 10.4924 24.6627 10.7128L24.5732 10.2859H23.0586V18.3132L24.7797 17.9483L24.7866 16.0001C25.0344 16.1791 25.3993 16.4338 26.0051 16.4338C27.2374 16.4338 28.3596 15.4424 28.3596 13.26C28.3528 11.2635 27.2168 10.1758 26.012 10.1758ZM25.5989 14.9191C25.1927 14.9191 24.9518 14.7746 24.7866 14.5956L24.7797 12.0414C24.9587 11.8418 25.2065 11.7041 25.5989 11.7041C26.2254 11.7041 26.6591 12.4063 26.6591 13.3082C26.6592 14.2307 26.2323 14.9191 25.5989 14.9191Z" fill="white"/>
<path fill-rule="evenodd" clip-rule="evenodd" d="M20.6914 9.76927L22.4194 9.39753V8L20.6914 8.36487V9.76927Z" fill="white"/>
<path d="M22.4194 10.293H20.6914V16.3168H22.4194V10.293Z" fill="white"/>
<path fill-rule="evenodd" clip-rule="evenodd" d="M18.8355 10.8013L18.7253 10.2918H17.2383V16.3157H18.9594V12.2332C19.3655 11.7031 20.054 11.7995 20.2674 11.8752V10.2918C20.0471 10.2093 19.2416 10.0578 18.8355 10.8013Z" fill="white"/>
<path fill-rule="evenodd" clip-rule="evenodd" d="M15.3937 8.79883L13.7139 9.15683L13.707 14.6712C13.707 15.6901 14.4712 16.4405 15.4901 16.4405C16.0546 16.4405 16.4677 16.3372 16.6949 16.2133V14.8158C16.4746 14.9053 15.3869 15.222 15.3869 14.2031V11.7591H16.6949V10.2928H15.3869L15.3937 8.79883Z" fill="white"/>
<path fill-rule="evenodd" clip-rule="evenodd" d="M10.7418 12.0414C10.7418 11.7729 10.9621 11.6697 11.3269 11.6697C11.8501 11.6697 12.511 11.828 13.0343 12.1103V10.4924C12.4629 10.2653 11.8983 10.1758 11.3269 10.1758C9.92941 10.1758 9 10.9055 9 12.124C9 14.0242 11.6161 13.7212 11.6161 14.5405C11.6161 14.8572 11.3407 14.9604 10.9552 14.9604C10.3838 14.9604 9.65404 14.7264 9.07575 14.4097V16.0482C9.71599 16.3235 10.3632 16.4406 10.9552 16.4406C12.3871 16.4406 13.3716 15.7315 13.3716 14.4992C13.3648 12.4476 10.7418 12.8125 10.7418 12.0414Z" fill="white"/>
</svg>
