<svg xmlns="http://www.w3.org/2000/svg" width="24" height="31">
    <path fill="#0D82C1" fill-rule="evenodd" d="M23.02 30.952c-.027.007-.052.017-.08.022a1.273 1.273 0 0 1-.254.026H1.314c-.086 0-.171-.009-.254-.026-.027-.005-.053-.015-.08-.022-.531-.138-.98-.574-.98-1.021V1.564C0 .489.681 0 1.314 0h15.478c.264 0 .522.107.708.294l.412.412 5.383 5.396.412.412c.244.244.293.547.293.957v22.46c0 .447-.449.883-.98 1.021zM17.6 1.905v4.509h4.499L17.6 1.905zm5.333 5.566v-.019a.843.843 0 0 1-.208.031h-6.192V1.278c0-.072.014-.142.031-.209H1.314c-.23 0-.247.379-.247.495v19.281h21.866V7.471zm0 14.443H1.067v7.769c0 .099.058.182.141.222.034.012.068.026.106.026h21.372c.038 0 .072-.014.106-.026a.246.246 0 0 0 .141-.222v-7.769zm-5.582 5.798c.124.163.265.282.423.358.158.076.325.113.5.113s.339-.032.492-.095c.154-.063.293-.165.419-.307l.606.534c-.2.194-.425.34-.678.438a2.262 2.262 0 0 1-.817.146c-.32 0-.616-.058-.885-.175a1.992 1.992 0 0 1-.708-.519 2.441 2.441 0 0 1-.474-.863 3.822 3.822 0 0 1-.171-1.198c0-.453.057-.851.171-1.194.114-.344.273-.63.474-.859.202-.229.439-.403.711-.522.272-.12.566-.18.882-.18.292 0 .564.048.817.146.252.098.478.244.678.439l-.606.541a1.096 1.096 0 0 0-.867-.402 1.3 1.3 0 0 0-.514.102 1.102 1.102 0 0 0-.438.346c-.129.164-.23.375-.302.633a3.641 3.641 0 0 0-.117.95c.004.366.042.677.112.936.071.258.169.468.292.632zm-3.076.491c-.202.23-.438.403-.708.519a2.182 2.182 0 0 1-.885.176c-.321 0-.617-.058-.886-.176a1.956 1.956 0 0 1-.707-.519 2.414 2.414 0 0 1-.475-.862 3.822 3.822 0 0 1-.171-1.198c0-.453.057-.851.171-1.194.114-.344.273-.63.475-.859.201-.229.437-.403.707-.523.269-.119.565-.179.886-.179.32 0 .616.06.885.179.27.12.506.294.708.523.201.229.359.515.474.859.114.343.171.741.171 1.194 0 .453-.057.853-.171 1.198a2.468 2.468 0 0 1-.474.862zm-.358-2.991a1.88 1.88 0 0 0-.291-.632 1.124 1.124 0 0 0-.423-.358 1.168 1.168 0 0 0-.5-.11c-.18 0-.352.034-.514.102a1.105 1.105 0 0 0-.438.347 1.815 1.815 0 0 0-.302.632 3.723 3.723 0 0 0-.117.95c.005.366.043.677.113.935.071.259.168.469.292.633.124.163.265.282.423.358.158.076.325.113.5.113.179 0 .351-.035.514-.106.162-.07.308-.186.437-.347.128-.161.229-.372.303-.632.073-.26.111-.578.116-.953a3.675 3.675 0 0 0-.113-.932zm-4.821 2.732a1.851 1.851 0 0 1-.492.501 2.43 2.43 0 0 1-.528.274c-.17.062-.326.1-.467.117a2.939 2.939 0 0 1-.314.026H5.261v-5.386H6.88c.452 0 .849.073 1.192.216a2.357 2.357 0 0 1 1.36 1.387c.112.305.168.618.168.94 0 .443-.047.822-.143 1.136a2.776 2.776 0 0 1-.361.789zm-.495-2.612a1.426 1.426 0 0 0-.31-.595 1.642 1.642 0 0 0-.623-.432c-.263-.109-.603-.164-1.021-.164h-.511v4.078h.868c.593 0 1.021-.19 1.283-.57.263-.38.394-.931.394-1.652a2.82 2.82 0 0 0-.08-.665zM3.733 6.414h3.2a.534.534 0 1 1 0 1.069h-3.2a.535.535 0 0 1 0-1.069zm0 2.672h4.8a.534.534 0 0 1 0 1.069h-4.8a.534.534 0 0 1 0-1.069zm0 2.673h11.734a.534.534 0 0 1 0 1.068H3.733a.534.534 0 0 1 0-1.068zm0 2.672h2.134a.534.534 0 0 1 0 1.069H3.733a.535.535 0 0 1 0-1.069zm.379 2.827a.554.554 0 0 1 .155.38.56.56 0 0 1-.155.379.558.558 0 0 1-.379.155.556.556 0 0 1-.378-.155.556.556 0 0 1-.155-.379.56.56 0 0 1 .155-.38.559.559 0 0 1 .757 0zm1.755-.155h4.266a.535.535 0 0 1 0 1.069H5.867a.534.534 0 1 1 0-1.069zm1.6-2.138c0-.295.239-.534.533-.534h5.333a.534.534 0 1 1 0 1.069H8a.535.535 0 0 1-.533-.535zm8-.534h4.8a.534.534 0 0 1 0 1.069h-4.8a.535.535 0 0 1 0-1.069zm4.8-1.604h-3.2a.534.534 0 1 1 0-1.068h3.2a.534.534 0 0 1 0 1.068zm0-2.672H19.2a.534.534 0 0 1 0-1.069h1.067a.535.535 0 0 1 0 1.069zm-3.2 0H12.8a.534.534 0 0 1 0-1.069h4.267a.535.535 0 0 1 0 1.069zm-6.4 0a.56.56 0 0 1-.379-.155.563.563 0 0 1-.155-.379c0-.139.059-.278.155-.38a.557.557 0 0 1 .757 0 .565.565 0 0 1 .155.38.563.563 0 0 1-.155.379.56.56 0 0 1-.378.155z"/>
</svg>
