<svg xmlns="http://www.w3.org/2000/svg" width="25" height="32">
    <path fill="#CC4B4C" fill-rule="evenodd" d="M23.979 31.95c-.028.007-.055.018-.084.024a1.358 1.358 0 0 1-.264.026H1.368c-.088 0-.177-.009-.264-.026-.028-.006-.055-.017-.083-.024C.468 31.808 0 31.358 0 30.896V1.614C0 .505.709 0 1.368 0h16.124c.275 0 .544.111.737.303l.429.426 5.608 5.569.428.426c.255.252.306.565.306.988v23.184c0 .462-.468.912-1.021 1.054zM18.333 1.967v4.654h4.686l-4.686-4.654zm5.556 5.745l-.001-.02a.86.86 0 0 1-.216.032h-6.45V1.319c0-.074.014-.146.032-.216H1.368c-.239 0-.257.392-.257.511v19.903h22.778V7.712zm0 14.909H1.111v8.02c0 .102.061.188.147.228.035.013.071.027.11.027h22.263c.04 0 .076-.014.111-.027a.253.253 0 0 0 .147-.228v-8.02zm-6.797 4.049h2.339v.619h-2.339v2.504h-.926v-5.559h3.501v.686h-2.575v1.75zm-2.773 2.176a1.923 1.923 0 0 1-.512.517c-.19.125-.374.22-.551.283a2.294 2.294 0 0 1-.486.121 3.184 3.184 0 0 1-.327.026h-2.119v-5.559h1.687c.47 0 .884.074 1.241.222.357.148.653.346.889.592.236.247.411.527.528.84.116.314.175.638.175.97 0 .457-.049.848-.148 1.173a2.894 2.894 0 0 1-.377.815zm-.516-2.696a1.456 1.456 0 0 0-.323-.615 1.697 1.697 0 0 0-.649-.445c-.273-.114-.628-.17-1.063-.17h-.532v4.209h.904c.618 0 1.063-.196 1.336-.588.274-.392.411-.961.411-1.705 0-.231-.028-.46-.084-.686zm-5.096 1.146a1.8 1.8 0 0 1-.623.362 2.393 2.393 0 0 1-.805.128h-.676v2.007h-.911v-5.559h1.609c.238 0 .474.037.707.113.233.075.441.189.626.339.185.151.335.333.449.547.114.214.172.454.172.721 0 .281-.049.536-.145.765a1.609 1.609 0 0 1-.403.577zm-.372-1.656a.912.912 0 0 0-.156-.339.923.923 0 0 0-.331-.272 1.246 1.246 0 0 0-.562-.109h-.683v2.203h.835c.111 0 .222-.02.331-.057a.846.846 0 0 0 .3-.185.915.915 0 0 0 .22-.358 1.7 1.7 0 0 0 .046-.883zm1.619-10.917c.835-1.818 1.63-4.059 2.104-5.931-.554-1.198-1.093-2.753-.7-3.665.137-.319.31-.564.63-.67.127-.042.447-.095.564-.095.28 0 .526.358.701.579.164.207.535.647-.207 3.752.748 1.536 1.81 3.101 2.826 4.173.728-.132 1.355-.198 1.866-.198.87 0 1.397.202 1.611.615.178.344.105.744-.217 1.192-.309.43-.735.657-1.233.657-.676 0-1.462-.424-2.34-1.261a26.825 26.825 0 0 0-4.904 1.557c-.465.979-.91 1.767-1.324 2.346-.568.793-1.059 1.162-1.546 1.162a.894.894 0 0 1-.537-.18c-.578-.431-.656-.91-.619-1.237.101-.897 1.219-1.838 3.325-2.796zm7.746-.544c.13 0 .501-.005.672-.243a.822.822 0 0 0 .127-.229c-.068-.036-.159-.108-.652-.108-.281 0-.633.012-1.007.059.453.346.564.521.86.521zm-5.346-8.821c-.055.018-.74.97.053 1.774.527-1.166-.03-1.781-.053-1.774zm2.46 7.728c-.75-.865-1.5-1.946-2.124-3.059a39.02 39.02 0 0 1-1.485 4.173 27.723 27.723 0 0 1 3.609-1.114zm-7.016 4.919c.083-.026.566-.245 1.466-1.896-1.187.663-1.671 1.207-1.706 1.514-.005.05-.02.184.24.382z"/>
</svg>
