<svg xmlns="http://www.w3.org/2000/svg" width="25" height="32">
    <path fill="#56BE70" fill-rule="evenodd" d="M23.979 31.95c-.028.008-.055.018-.084.023a1.285 1.285 0 0 1-.264.027H1.368c-.088 0-.177-.009-.264-.027-.028-.005-.055-.015-.083-.023C.468 31.808 0 31.358 0 30.896V1.614C0 .505.709 0 1.368 0h16.124c.275 0 .544.111.737.303l.429.426 5.608 5.569.428.426c.255.252.306.565.306.988v23.184c0 .462-.468.912-1.021 1.054zM18.333 1.967v4.654h4.686l-4.686-4.654zm5.556 5.745l-.001-.02a.86.86 0 0 1-.216.032h-6.45V1.319c0-.074.014-.146.032-.216H1.368c-.239 0-.257.392-.257.511v19.903h22.778V7.712zm0 14.909H1.111v8.02c0 .101.061.188.147.228.035.013.071.027.11.027h22.263c.04 0 .076-.014.111-.027a.254.254 0 0 0 .147-.228v-8.02zm-5.732 6.73c-.153.144-.34.258-.562.343a2.103 2.103 0 0 1-.76.128c-.122 0-.247-.006-.376-.018a3.183 3.183 0 0 1-.391-.064 2.074 2.074 0 0 1-.376-.125 1.179 1.179 0 0 1-.308-.193l.159-.648c.071.04.161.079.27.116.108.038.221.073.337.106.117.033.233.059.35.079.117.02.225.031.327.031.308 0 .545-.072.71-.216.164-.142.246-.355.246-.637a.606.606 0 0 0-.174-.437 1.907 1.907 0 0 0-.437-.329 11.724 11.724 0 0 0-.566-.294 3.46 3.46 0 0 1-.569-.347 1.809 1.809 0 0 1-.441-.471c-.117-.181-.174-.407-.174-.679 0-.246.045-.464.136-.655.092-.192.214-.354.369-.487.154-.133.334-.235.539-.306a2 2 0 0 1 .65-.105c.232 0 .467.021.706.064.238.042.43.112.577.207-.03.066-.066.137-.106.215l-.114.219-.091.17a.731.731 0 0 1-.046.075.743.743 0 0 1-.103-.06.745.745 0 0 0-.163-.075 1.124 1.124 0 0 0-.281-.053 2.779 2.779 0 0 0-.448.008.756.756 0 0 0-.289.086 1.01 1.01 0 0 0-.244.177.827.827 0 0 0-.167.238.595.595 0 0 0-.06.253c0 .201.057.363.174.486.116.124.26.232.433.325.172.093.359.183.562.271.203.088.392.195.566.321.175.125.321.283.439.471.116.188.175.431.175.728 0 .201-.042.396-.126.584a1.529 1.529 0 0 1-.353.498zm-7.119-5.117h.927v4.873h2.575v.686h-3.502v-5.559zm-1.351 5.559H8.631l-.889-2.097h-.076l-.957 2.097H5.653l1.42-2.701-1.511-2.858h1.041l.987 2.262h.076l1.071-2.262h1.041l-1.512 2.858 1.421 2.701zM10 9.379h11.667v9.931H3.333V7.172H10v2.207zm0 8.828h10.555v-1.104H10v1.104zM10 16h10.555v-1.103H10V16zm0-2.207h10.555V12.69H10v1.103zm0-2.207h10.555v-1.103H10v1.103zm-1.111-3.31H4.444v1.103h4.445V8.276zm0 2.207H4.444v1.103h4.445v-1.103zm0 2.207H4.444v1.103h4.445V12.69zm0 2.207H4.444V16h4.445v-1.103zm0 2.206H4.444v1.104h4.445v-1.104z"/>
</svg>
