<?xml version="1.0" encoding="UTF-8"?>
<svg version="1.1" xmlns="http://www.w3.org/2000/svg" width="48" height="32">
<path d="M0 0 C15.84 0 31.68 0 48 0 C48 10.56 48 21.12 48 32 C32.16 32 16.32 32 0 32 C0 21.44 0 10.88 0 0 Z " fill="#E21F21" transform="translate(0,0)"/>
<path d="M0 0 C0.99 0 1.98 0 3 0 C3 0.66 3 1.32 3 2 C3.66 2 4.32 2 5 2 C5 1.34 5 0.68 5 0 C6.32 0.33 7.64 0.66 9 1 C8.67 1.33 8.34 1.66 8 2 C8.66 2 9.32 2 10 2 C10 4.64 10 7.28 10 10 C9.01 10.33 8.02 10.66 7 11 C7 11.99 7 12.98 7 14 C6.67 14 6.34 14 6 14 C5.67 15.98 5.34 17.96 5 20 C4.34 20 3.68 20 3 20 C2.67 17.69 2.34 15.38 2 13 C1.01 13.495 1.01 13.495 0 14 C-2.60018816 10.09971775 -2.15085514 6.52565431 -2 2 C-1.01 2 -0.02 2 1 2 C0.67 1.34 0.34 0.68 0 0 Z " fill="#110202" transform="translate(20,7)"/>
<path d="M0 0 C-0.33 1.32 -0.66 2.64 -1 4 C-1.99 3.34 -2.98 2.68 -4 2 C-3.814375 3.918125 -3.814375 3.918125 -3.625 5.875 C-3.55539063 6.59429688 -3.48578125 7.31359375 -3.4140625 8.0546875 C-3.13625251 10.22668245 -3.13625251 10.22668245 -1 12 C-0.34 12 0.32 12 1 12 C1 13.98 1 15.96 1 18 C0.13375 17.5359375 0.13375 17.5359375 -0.75 17.0625 C-3.21905868 15.80714968 -3.21905868 15.80714968 -7 15 C-7 10.05 -7 5.1 -7 0 C-3 -1 -3 -1 0 0 Z " fill="#851113" transform="translate(22,7)"/>
<path d="M0 0 C0 5.28 0 10.56 0 16 C-1.65 15.67 -3.3 15.34 -5 15 C-5.33 15.99 -5.66 16.98 -6 18 C-6.66 18 -7.32 18 -8 18 C-8 16.02 -8 14.04 -8 12 C-7.34 12 -6.68 12 -6 12 C-6.33 11.34 -6.66 10.68 -7 10 C-5.68 10 -4.36 10 -3 10 C-3 7.03 -3 4.06 -3 1 C-1 0 -1 0 0 0 Z " fill="#6B0E0F" transform="translate(33,7)"/>
<path d="M0 0 C4.75 0.75 4.75 0.75 7 3 C6.67 3.99 6.34 4.98 6 6 C4.68 5.67 3.36 5.34 2 5 C1.67 5.99 1.34 6.98 1 8 C0.34 8 -0.32 8 -1 8 C-1 6.02 -1 4.04 -1 2 C-0.34 2 0.32 2 1 2 C0.67 1.34 0.34 0.68 0 0 Z " fill="#891113" transform="translate(26,17)"/>
</svg>
