<?xml version="1.0" encoding="UTF-8"?>
<svg xmlns="http://www.w3.org/2000/svg" xmlns:xlink="http://www.w3.org/1999/xlink" width="50px" height="38px" viewBox="0 0 50 38" version="1.1">
<g id="surface1">
<rect x="0" y="0" width="50" height="38" style="fill:rgb(100%,100%,100%);fill-opacity:1;stroke:none;"/>
<path style=" stroke:none;fill-rule:nonzero;fill:rgb(86.27451%,9.019608%,11.372549%);fill-opacity:1;" d="M 19.445312 0 L 30.554688 0 L 30.554688 38 L 19.445312 38 Z M 19.445312 0 "/>
<path style=" stroke:none;fill-rule:nonzero;fill:rgb(0.392157%,16.470588%,52.941176%);fill-opacity:1;" d="M 0 12.667969 L 50 12.667969 L 50 25.332031 L 0 25.332031 Z M 0 12.667969 "/>
<path style=" stroke:none;fill-rule:nonzero;fill:rgb(100%,100%,100%);fill-opacity:1;" d="M 25 13.195312 L 24.570312 14.699219 L 25.230469 14.945312 Z M 25 13.195312 "/>
<path style=" stroke:none;fill-rule:nonzero;fill:rgb(100%,100%,100%);fill-opacity:1;" d="M 25 13.195312 L 25.429688 14.699219 L 24.769531 14.945312 Z M 25 13.195312 "/>
<path style=" stroke:none;fill-rule:nonzero;fill:rgb(100%,100%,100%);fill-opacity:1;" d="M 26.320312 14.289062 L 24.933594 14.289062 L 24.933594 15.082031 Z M 26.320312 14.289062 "/>
<path style=" stroke:none;fill-rule:nonzero;fill:rgb(100%,100%,100%);fill-opacity:1;" d="M 26.320312 14.289062 L 25.199219 15.21875 L 24.789062 14.578125 Z M 26.320312 14.289062 "/>
<path style=" stroke:none;fill-rule:nonzero;fill:rgb(100%,100%,100%);fill-opacity:1;" d="M 23.679688 14.289062 L 24.800781 15.21875 L 25.210938 14.578125 Z M 23.679688 14.289062 "/>
<path style=" stroke:none;fill-rule:nonzero;fill:rgb(100%,100%,100%);fill-opacity:1;" d="M 23.679688 14.289062 L 25.066406 14.289062 L 25.066406 15.082031 Z M 23.679688 14.289062 "/>
<path style=" stroke:none;fill-rule:nonzero;fill:rgb(100%,100%,100%);fill-opacity:1;" d="M 25.816406 16.058594 L 25.386719 14.554688 L 24.726562 14.796875 Z M 25.816406 16.058594 "/>
<path style=" stroke:none;fill-rule:nonzero;fill:rgb(100%,100%,100%);fill-opacity:1;" d="M 25.816406 16.058594 L 24.691406 15.128906 L 25.101562 14.488281 Z M 25.816406 16.058594 "/>
<path style=" stroke:none;fill-rule:nonzero;fill:rgb(100%,100%,100%);fill-opacity:1;" d="M 24.183594 16.058594 L 25.308594 15.128906 L 24.898438 14.488281 Z M 24.183594 16.058594 "/>
<path style=" stroke:none;fill-rule:nonzero;fill:rgb(100%,100%,100%);fill-opacity:1;" d="M 24.183594 16.058594 L 24.613281 14.554688 L 25.273438 14.796875 Z M 24.183594 16.058594 "/>
<path style=" stroke:none;fill-rule:nonzero;fill:rgb(100%,100%,100%);fill-opacity:1;" d="M 32.40625 16.691406 L 31.976562 18.199219 L 32.640625 18.441406 Z M 32.40625 16.691406 "/>
<path style=" stroke:none;fill-rule:nonzero;fill:rgb(100%,100%,100%);fill-opacity:1;" d="M 32.40625 16.691406 L 32.835938 18.199219 L 32.175781 18.441406 Z M 32.40625 16.691406 "/>
<path style=" stroke:none;fill-rule:nonzero;fill:rgb(100%,100%,100%);fill-opacity:1;" d="M 33.726562 17.785156 L 32.339844 17.785156 L 32.339844 18.578125 Z M 33.726562 17.785156 "/>
<path style=" stroke:none;fill-rule:nonzero;fill:rgb(100%,100%,100%);fill-opacity:1;" d="M 33.726562 17.785156 L 32.605469 18.71875 L 32.195312 18.078125 Z M 33.726562 17.785156 "/>
<path style=" stroke:none;fill-rule:nonzero;fill:rgb(100%,100%,100%);fill-opacity:1;" d="M 31.085938 17.785156 L 32.210938 18.71875 L 32.617188 18.078125 Z M 31.085938 17.785156 "/>
<path style=" stroke:none;fill-rule:nonzero;fill:rgb(100%,100%,100%);fill-opacity:1;" d="M 31.085938 17.785156 L 32.476562 17.785156 L 32.476562 18.578125 Z M 31.085938 17.785156 "/>
<path style=" stroke:none;fill-rule:nonzero;fill:rgb(100%,100%,100%);fill-opacity:1;" d="M 33.222656 19.554688 L 32.792969 18.050781 L 32.132812 18.296875 Z M 33.222656 19.554688 "/>
<path style=" stroke:none;fill-rule:nonzero;fill:rgb(100%,100%,100%);fill-opacity:1;" d="M 33.222656 19.554688 L 32.101562 18.625 L 32.507812 17.984375 Z M 33.222656 19.554688 "/>
<path style=" stroke:none;fill-rule:nonzero;fill:rgb(100%,100%,100%);fill-opacity:1;" d="M 31.589844 19.554688 L 32.714844 18.625 L 32.304688 17.984375 Z M 31.589844 19.554688 "/>
<path style=" stroke:none;fill-rule:nonzero;fill:rgb(100%,100%,100%);fill-opacity:1;" d="M 31.589844 19.554688 L 32.019531 18.050781 L 32.679688 18.296875 Z M 31.589844 19.554688 "/>
<path style=" stroke:none;fill-rule:nonzero;fill:rgb(100%,100%,100%);fill-opacity:1;" d="M 28.066406 21.640625 L 27.640625 23.144531 L 28.300781 23.390625 Z M 28.066406 21.640625 "/>
<path style=" stroke:none;fill-rule:nonzero;fill:rgb(100%,100%,100%);fill-opacity:1;" d="M 28.066406 21.640625 L 28.496094 23.144531 L 27.835938 23.390625 Z M 28.066406 21.640625 "/>
<path style=" stroke:none;fill-rule:nonzero;fill:rgb(100%,100%,100%);fill-opacity:1;" d="M 29.390625 22.734375 L 28 22.734375 L 28 23.523438 Z M 29.390625 22.734375 "/>
<path style=" stroke:none;fill-rule:nonzero;fill:rgb(100%,100%,100%);fill-opacity:1;" d="M 29.390625 22.734375 L 28.265625 23.664062 L 27.855469 23.023438 Z M 29.390625 22.734375 "/>
<path style=" stroke:none;fill-rule:nonzero;fill:rgb(100%,100%,100%);fill-opacity:1;" d="M 26.746094 22.734375 L 27.871094 23.664062 L 28.277344 23.023438 Z M 26.746094 22.734375 "/>
<path style=" stroke:none;fill-rule:nonzero;fill:rgb(100%,100%,100%);fill-opacity:1;" d="M 26.746094 22.734375 L 28.136719 22.734375 L 28.136719 23.523438 Z M 26.746094 22.734375 "/>
<path style=" stroke:none;fill-rule:nonzero;fill:rgb(100%,100%,100%);fill-opacity:1;" d="M 28.882812 24.503906 L 28.457031 22.996094 L 27.796875 23.242188 Z M 28.882812 24.503906 "/>
<path style=" stroke:none;fill-rule:nonzero;fill:rgb(100%,100%,100%);fill-opacity:1;" d="M 28.882812 24.503906 L 27.761719 23.574219 L 28.167969 22.933594 Z M 28.882812 24.503906 "/>
<path style=" stroke:none;fill-rule:nonzero;fill:rgb(100%,100%,100%);fill-opacity:1;" d="M 27.25 24.503906 L 28.375 23.574219 L 27.96875 22.933594 Z M 27.25 24.503906 "/>
<path style=" stroke:none;fill-rule:nonzero;fill:rgb(100%,100%,100%);fill-opacity:1;" d="M 27.25 24.503906 L 27.679688 22.996094 L 28.339844 23.242188 Z M 27.25 24.503906 "/>
<path style=" stroke:none;fill-rule:nonzero;fill:rgb(100%,100%,100%);fill-opacity:1;" d="M 17.59375 16.691406 L 18.023438 18.199219 L 17.359375 18.441406 Z M 17.59375 16.691406 "/>
<path style=" stroke:none;fill-rule:nonzero;fill:rgb(100%,100%,100%);fill-opacity:1;" d="M 17.59375 16.691406 L 17.164062 18.199219 L 17.824219 18.441406 Z M 17.59375 16.691406 "/>
<path style=" stroke:none;fill-rule:nonzero;fill:rgb(100%,100%,100%);fill-opacity:1;" d="M 16.273438 17.785156 L 17.660156 17.785156 L 17.660156 18.578125 Z M 16.273438 17.785156 "/>
<path style=" stroke:none;fill-rule:nonzero;fill:rgb(100%,100%,100%);fill-opacity:1;" d="M 16.273438 17.785156 L 17.394531 18.71875 L 17.804688 18.078125 Z M 16.273438 17.785156 "/>
<path style=" stroke:none;fill-rule:nonzero;fill:rgb(100%,100%,100%);fill-opacity:1;" d="M 18.914062 17.785156 L 17.789062 18.71875 L 17.382812 18.078125 Z M 18.914062 17.785156 "/>
<path style=" stroke:none;fill-rule:nonzero;fill:rgb(100%,100%,100%);fill-opacity:1;" d="M 18.914062 17.785156 L 17.523438 17.785156 L 17.523438 18.578125 Z M 18.914062 17.785156 "/>
<path style=" stroke:none;fill-rule:nonzero;fill:rgb(100%,100%,100%);fill-opacity:1;" d="M 16.777344 19.554688 L 17.207031 18.050781 L 17.867188 18.296875 Z M 16.777344 19.554688 "/>
<path style=" stroke:none;fill-rule:nonzero;fill:rgb(100%,100%,100%);fill-opacity:1;" d="M 16.777344 19.554688 L 17.898438 18.625 L 17.492188 17.984375 Z M 16.777344 19.554688 "/>
<path style=" stroke:none;fill-rule:nonzero;fill:rgb(100%,100%,100%);fill-opacity:1;" d="M 18.410156 19.554688 L 17.285156 18.625 L 17.695312 17.984375 Z M 18.410156 19.554688 "/>
<path style=" stroke:none;fill-rule:nonzero;fill:rgb(100%,100%,100%);fill-opacity:1;" d="M 18.410156 19.554688 L 17.980469 18.050781 L 17.320312 18.296875 Z M 18.410156 19.554688 "/>
<path style=" stroke:none;fill-rule:nonzero;fill:rgb(100%,100%,100%);fill-opacity:1;" d="M 21.933594 21.640625 L 22.359375 23.144531 L 21.699219 23.390625 Z M 21.933594 21.640625 "/>
<path style=" stroke:none;fill-rule:nonzero;fill:rgb(100%,100%,100%);fill-opacity:1;" d="M 21.933594 21.640625 L 21.503906 23.144531 L 22.164062 23.390625 Z M 21.933594 21.640625 "/>
<path style=" stroke:none;fill-rule:nonzero;fill:rgb(100%,100%,100%);fill-opacity:1;" d="M 20.609375 22.734375 L 22 22.734375 L 22 23.523438 Z M 20.609375 22.734375 "/>
<path style=" stroke:none;fill-rule:nonzero;fill:rgb(100%,100%,100%);fill-opacity:1;" d="M 20.609375 22.734375 L 21.734375 23.664062 L 22.144531 23.023438 Z M 20.609375 22.734375 "/>
<path style=" stroke:none;fill-rule:nonzero;fill:rgb(100%,100%,100%);fill-opacity:1;" d="M 23.253906 22.734375 L 22.128906 23.664062 L 21.722656 23.023438 Z M 23.253906 22.734375 "/>
<path style=" stroke:none;fill-rule:nonzero;fill:rgb(100%,100%,100%);fill-opacity:1;" d="M 23.253906 22.734375 L 21.863281 22.734375 L 21.863281 23.523438 Z M 23.253906 22.734375 "/>
<path style=" stroke:none;fill-rule:nonzero;fill:rgb(100%,100%,100%);fill-opacity:1;" d="M 21.117188 24.503906 L 21.542969 22.996094 L 22.203125 23.242188 Z M 21.117188 24.503906 "/>
<path style=" stroke:none;fill-rule:nonzero;fill:rgb(100%,100%,100%);fill-opacity:1;" d="M 21.117188 24.503906 L 22.238281 23.574219 L 21.832031 22.933594 Z M 21.117188 24.503906 "/>
<path style=" stroke:none;fill-rule:nonzero;fill:rgb(100%,100%,100%);fill-opacity:1;" d="M 22.75 24.503906 L 21.625 23.574219 L 22.03125 22.933594 Z M 22.75 24.503906 "/>
<path style=" stroke:none;fill-rule:nonzero;fill:rgb(100%,100%,100%);fill-opacity:1;" d="M 22.75 24.503906 L 22.320312 22.996094 L 21.660156 23.242188 Z M 22.75 24.503906 "/>
</g>
</svg>
