<?xml version="1.0" encoding="UTF-8"?>
<svg xmlns="http://www.w3.org/2000/svg" xmlns:xlink="http://www.w3.org/1999/xlink" width="50px" height="38px" viewBox="0 0 50 38" version="1.1">
<g id="surface1">
<rect x="0" y="0" width="50" height="38" style="fill:rgb(86.666667%,0%,0%);fill-opacity:1;stroke:none;"/>
<path style=" stroke:none;fill-rule:nonzero;fill:rgb(100%,100%,100%);fill-opacity:1;" d="M 0 0 L 50 0 L 50 25.332031 L 0 25.332031 "/>
<path style=" stroke:none;fill-rule:nonzero;fill:rgb(0%,21.960784%,57.647059%);fill-opacity:1;" d="M 0 0 L 50 0 L 50 12.667969 L 0 12.667969 "/>
<path style="fill-rule:nonzero;fill:rgb(86.27451%,0%,0%);fill-opacity:1;stroke-width:2.44054;stroke-linecap:butt;stroke-linejoin:miter;stroke:rgb(0%,0%,0%);stroke-opacity:1;stroke-miterlimit:4;" d="M 166.33888 394.808861 C 154.62013 380.808038 140.27638 370.384519 119.55763 369.212644 C 109.05763 368.965933 88.99513 367.48567 82.99513 365.758696 C 63.02638 360.392742 48.02638 353.669881 30.02638 334.549815 C 14.55763 316.539946 4.52638 289.155078 1.24513 252.395209 L 1.24513 1.243894 C 117.96388 1.120538 232.52638 1.367249 340.99513 1.243894 L 340.99513 252.395209 C 337.71388 289.155078 327.68263 316.539946 312.21388 334.549815 C 294.21388 353.669881 279.21388 360.392742 259.24513 365.758696 C 253.24513 367.48567 233.18263 368.965933 222.68263 369.212644 C 201.96388 370.384519 187.62013 380.808038 175.90138 394.808861 L 171.12013 400.853269 Z M 166.33888 394.808861 " transform="matrix(0.0416667,0,0,0.0633333,17.869995,7.600908)"/>
<path style="fill-rule:nonzero;fill:rgb(100%,100%,100%);fill-opacity:1;stroke-width:1.67421;stroke-linecap:butt;stroke-linejoin:miter;stroke:rgb(0%,0%,0%);stroke-opacity:1;stroke-miterlimit:4;" d="M 170.93263 54.903433 C 166.24513 43.616427 157.80763 33.007874 148.05763 22.707709 C 139.15138 15.183038 131.27638 12.900966 123.87013 12.900966 C 119.46388 12.900966 115.15138 13.702775 110.93263 14.751295 C 119.46388 22.831065 127.33888 33.809683 119.74513 47.193729 C 132.87013 47.193729 145.62013 64.278433 134.08888 75.688795 C 136.71388 75.997183 139.15138 75.935506 141.30763 75.257052 C 141.96388 89.319552 140.18263 103.443729 129.77638 117.506229 C 129.68263 112.633696 122.65138 108.316262 110.93263 104.368894 C 96.77638 99.558038 90.30763 88.456065 88.99513 72.17317 C 86.37013 42.814617 74.55763 30.417413 55.52638 32.021032 C 43.52638 32.637808 33.77638 37.818729 23.55763 56.568729 C 16.52638 69.521032 9.30763 71.248006 6.58888 71.494716 C 9.58888 74.270209 14.65138 74.146854 20.46388 73.22169 C 3.02638 101.099979 6.49513 126.264453 12.68263 134.775966 C 6.77638 155.314617 6.96388 176.285012 14.37013 197.748828 C 7.99513 233.830242 10.33888 273.118894 18.12013 273.303927 C 13.43263 292.053927 17.27638 306.609848 28.52638 319.870538 C 28.62013 309.200308 31.80763 299.763631 39.02638 291.868894 C 50.74513 291.807216 56.74513 284.590933 55.15138 267.259519 C 61.05763 258.933038 67.52638 251.285012 76.15138 247.584354 C 84.68263 248.694552 90.77638 244.56215 94.05763 234.755407 C 100.43263 233.521854 105.58888 225.627117 110.18263 217.115604 C 109.24513 231.116427 106.43263 246.165769 101.93263 261.091756 C 108.40138 261.893565 114.30763 251.099979 118.99513 240.92317 C 113.46388 258.562973 118.24513 279.7184 128.74513 291.868894 C 141.77638 280.828598 150.02638 265.964288 154.99513 252.210177 C 149.08888 300.750473 133.80763 336.030078 99.12013 342.136163 C 106.90138 355.581887 119.65138 365.265275 142.99513 358.295703 C 142.71388 362.674815 142.33888 367.177282 143.65138 371.062973 C 147.68263 371.864782 152.46388 369.582709 157.43263 366.560506 C 160.62013 374.640275 163.99513 382.288302 169.15138 388.332709 L 171.12013 390.614782 L 173.08888 388.332709 C 178.24513 382.288302 181.62013 374.640275 184.80763 366.560506 C 189.77638 369.582709 194.55763 371.864782 198.58888 371.062973 C 199.90138 367.177282 199.52638 362.674815 199.24513 358.295703 C 222.58888 365.265275 235.33888 355.581887 243.12013 342.136163 C 208.43263 336.030078 193.15138 300.750473 187.24513 252.210177 C 192.21388 265.964288 200.46388 280.828598 213.49513 291.868894 C 223.99513 279.7184 228.77638 258.562973 223.24513 240.92317 C 227.83888 251.099979 233.83888 261.893565 240.30763 261.091756 C 235.80763 246.165769 232.99513 231.116427 232.05763 217.115604 C 236.65138 225.627117 241.80763 233.521854 248.18263 234.755407 C 251.46388 244.56215 257.55763 248.694552 266.08888 247.584354 C 274.71388 251.285012 281.18263 258.933038 287.08888 267.259519 C 285.49513 284.590933 291.49513 291.807216 303.21388 291.868894 C 310.43263 299.763631 313.62013 309.200308 313.71388 319.870538 C 324.96388 306.609848 328.80763 292.053927 324.12013 273.303927 C 331.90138 273.118894 334.24513 233.830242 327.87013 197.748828 C 335.27638 176.285012 335.46388 155.314617 329.55763 134.775966 C 335.74513 126.264453 339.21388 101.099979 321.77638 73.22169 C 327.58888 74.146854 332.65138 74.270209 335.65138 71.494716 C 332.93263 71.248006 325.71388 69.521032 318.68263 56.568729 C 308.46388 37.818729 298.71388 32.637808 286.71388 32.021032 C 267.68263 30.417413 255.87013 42.814617 253.24513 72.17317 C 251.93263 88.456065 245.46388 99.558038 231.30763 104.368894 C 219.58888 108.316262 212.55763 112.633696 212.46388 117.506229 C 202.05763 103.443729 200.27638 89.319552 200.93263 75.257052 C 203.08888 75.935506 205.52638 75.997183 208.15138 75.688795 C 196.62013 64.278433 209.46388 46.823663 222.49513 47.193729 C 214.90138 33.809683 222.77638 22.831065 231.30763 14.751295 C 227.08888 13.702775 222.77638 12.900966 218.37013 12.900966 C 210.96388 12.900966 203.08888 15.183038 194.18263 22.707709 C 184.43263 33.007874 175.99513 43.616427 171.30763 54.903433 L 171.12013 55.088466 Z M 170.93263 54.903433 " transform="matrix(0.0416667,0,0,0.0633333,17.869995,7.600908)"/>
<path style="fill-rule:nonzero;fill:rgb(100%,100%,100%);fill-opacity:1;stroke-width:1.67402;stroke-linecap:butt;stroke-linejoin:miter;stroke:rgb(0%,0%,0%);stroke-opacity:1;stroke-miterlimit:4;" d="M 110.55763 15.183038 C 108.21388 12.160834 112.24513 8.090111 120.68263 7.411657 C 125.74513 7.041591 130.24513 7.535012 134.27638 9.323663 C 138.40138 10.865604 142.80763 11.420703 148.24513 11.729091 C 153.87013 11.975802 158.55763 11.420703 162.40138 9.817084 C 158.83888 17.588466 153.30763 21.844223 145.80763 22.769387 C 140.55763 23.139453 134.18263 20.61067 131.08888 17.958532 C 126.40138 14.011163 119.74513 12.777611 110.55763 15.183038 Z M 110.55763 15.183038 " transform="matrix(0.0416667,0,0,0.0633333,17.869995,7.600908)"/>
<path style="fill-rule:nonzero;fill:rgb(100%,100%,100%);fill-opacity:1;stroke-width:1.67402;stroke-linecap:butt;stroke-linejoin:miter;stroke:rgb(0%,0%,0%);stroke-opacity:1;stroke-miterlimit:4;" d="M 124.33888 14.936328 C 126.02638 14.936328 127.43263 16.354913 127.43263 18.020209 C 127.43263 19.747183 126.02638 21.104091 124.33888 21.104091 C 122.65138 21.104091 121.24513 19.747183 121.24513 18.020209 C 121.24513 16.354913 122.65138 14.936328 124.33888 14.936328 Z M 124.33888 14.936328 " transform="matrix(0.0416667,0,0,0.0633333,17.869995,7.600908)"/>
<path style="fill-rule:nonzero;fill:rgb(96.078431%,74.117647%,12.941176%);fill-opacity:1;stroke-width:1.67421;stroke-linecap:butt;stroke-linejoin:miter;stroke:rgb(0%,0%,0%);stroke-opacity:1;stroke-miterlimit:40;" d="M 111.68263 15.553104 C 111.30763 15.553104 84.30763 16.231558 89.65138 32.32942 C 89.65138 32.32942 107.46388 23.324486 122.46388 33.686328 C 121.62013 26.408367 117.02638 20.734025 111.68263 15.553104 Z M 111.68263 15.553104 " transform="matrix(0.0416667,0,0,0.0633333,17.869995,7.600908)"/>
<path style="fill-rule:nonzero;fill:rgb(96.078431%,74.117647%,12.941176%);fill-opacity:1;stroke-width:1.67421;stroke-linecap:butt;stroke-linejoin:miter;stroke:rgb(0%,0%,0%);stroke-opacity:1;stroke-miterlimit:40;" d="M 93.12013 36.893565 C 87.12013 38.990604 80.46388 36.585177 80.46388 36.585177 C 84.30763 43.739782 96.58888 43.616427 103.05763 41.272677 C 108.49513 39.298992 115.33888 41.334354 117.21388 41.766098 C 120.49513 43.184683 121.52638 43.308038 121.52638 43.308038 C 121.90138 42.506229 122.46388 40.224157 122.65138 38.805571 C 122.46388 38.682216 122.37013 38.620538 122.18263 38.497183 C 117.02638 34.858203 111.96388 33.686328 106.71388 33.748006 C 101.46388 33.748006 96.49513 35.660012 93.12013 36.893565 Z M 93.12013 36.893565 " transform="matrix(0.0416667,0,0,0.0633333,17.869995,7.600908)"/>
<path style="fill-rule:nonzero;fill:rgb(96.078431%,74.117647%,12.941176%);fill-opacity:1;stroke-width:1.67421;stroke-linecap:butt;stroke-linejoin:miter;stroke:rgb(0%,0%,0%);stroke-opacity:1;stroke-miterlimit:40;" d="M 101.27638 47.193729 L 119.74513 47.193729 C 119.74513 47.193729 121.43263 43.431394 121.52638 43.308038 C 120.02638 42.506229 116.74513 41.210999 113.08888 41.334354 C 109.33888 41.396032 105.12013 42.814617 101.27638 47.193729 Z M 101.27638 47.193729 " transform="matrix(0.0416667,0,0,0.0633333,17.869995,7.600908)"/>
<path style="fill-rule:nonzero;fill:rgb(96.078431%,74.117647%,12.941176%);fill-opacity:1;stroke-width:1.67421;stroke-linecap:butt;stroke-linejoin:miter;stroke:rgb(0%,0%,0%);stroke-opacity:1;stroke-miterlimit:4;" d="M 116.93263 262.325308 C 116.93263 262.325308 97.52638 294.027611 73.33888 311.359025 C 73.33888 311.359025 62.08888 303.834354 50.08888 309.138631 C 37.99513 314.442907 35.83888 321.597512 42.12013 334.67317 C 42.12013 334.67317 45.49513 316.97169 59.08888 319.808861 C 59.08888 319.808861 39.96388 340.039124 61.52638 350.832709 C 61.52638 350.832709 58.62013 333.62465 69.49513 330.540769 C 69.49513 330.540769 66.49513 357.617249 89.18263 357.308861 C 89.18263 357.308861 79.52638 343.616427 80.93263 331.2809 C 82.33888 318.945374 89.27638 318.883696 91.52638 319.623828 C 93.77638 320.302282 98.27638 324.373006 99.30763 330.047348 C 99.30763 330.047348 107.08888 314.812973 94.43263 308.090111 C 94.43263 308.090111 107.46388 290.265275 123.30763 283.789124 C 119.93263 277.498006 117.68263 270.035012 116.93263 262.325308 Z M 116.93263 262.325308 " transform="matrix(0.0416667,0,0,0.0633333,17.869995,7.600908)"/>
<path style="fill-rule:nonzero;fill:rgb(100%,100%,100%);fill-opacity:1;stroke-width:1.67402;stroke-linecap:butt;stroke-linejoin:miter;stroke:rgb(0%,0%,0%);stroke-opacity:1;stroke-miterlimit:4;" d="M 217.90138 14.936328 C 216.21388 14.936328 214.80763 16.354913 214.80763 18.020209 C 214.80763 19.747183 216.21388 21.104091 217.90138 21.104091 C 219.58888 21.104091 220.99513 19.747183 220.99513 18.020209 C 220.99513 16.354913 219.58888 14.936328 217.90138 14.936328 Z M 217.90138 14.936328 " transform="matrix(0.0416667,0,0,0.0633333,17.869995,7.600908)"/>
<path style="fill-rule:nonzero;fill:rgb(96.078431%,74.117647%,12.941176%);fill-opacity:1;stroke-width:1.67421;stroke-linecap:butt;stroke-linejoin:miter;stroke:rgb(0%,0%,0%);stroke-opacity:1;stroke-miterlimit:4;" d="M 225.30763 262.325308 C 225.30763 262.325308 244.71388 294.027611 268.90138 311.359025 C 268.90138 311.359025 280.15138 303.834354 292.24513 309.138631 C 304.24513 314.442907 306.40138 321.597512 300.21388 334.67317 C 300.21388 334.67317 296.74513 316.97169 283.15138 319.808861 C 283.15138 319.808861 302.27638 340.039124 280.80763 350.832709 C 280.80763 350.832709 283.62013 333.62465 272.74513 330.540769 C 272.74513 330.540769 275.83888 357.617249 253.05763 357.308861 C 253.05763 357.308861 262.71388 343.616427 261.30763 331.2809 C 259.99513 318.945374 253.05763 318.883696 250.71388 319.623828 C 248.46388 320.302282 243.96388 324.373006 242.93263 330.047348 C 242.93263 330.047348 235.15138 314.812973 247.80763 308.090111 C 247.80763 308.090111 234.77638 290.265275 218.93263 283.789124 C 222.30763 277.498006 224.55763 270.035012 225.30763 262.325308 Z M 225.30763 262.325308 " transform="matrix(0.0416667,0,0,0.0633333,17.869995,7.600908)"/>
<path style="fill:none;stroke-width:3.4296;stroke-linecap:butt;stroke-linejoin:miter;stroke:rgb(0%,0%,0%);stroke-opacity:1;stroke-miterlimit:4;" d="M 280.858348 508.770565 C 271.062886 524.691982 263.188102 560.831072 263.956374 598.865568 " transform="matrix(0.0203379,0,0,0.0309135,17.869973,7.600221)"/>
<path style="fill:none;stroke-width:3.4296;stroke-linecap:butt;stroke-linejoin:miter;stroke:rgb(0%,0%,0%);stroke-opacity:1;stroke-miterlimit:4;" d="M 292.190353 733.818532 C 314.662296 723.204254 334.445289 696.92128 350.194856 652.947842 " transform="matrix(0.0203379,0,0,0.0309135,17.869973,7.600221)"/>
<path style="fill:none;stroke-width:3.4296;stroke-linecap:butt;stroke-linejoin:miter;stroke:rgb(0%,0%,0%);stroke-opacity:1;stroke-miterlimit:4;" d="M 350.578992 653.074203 L 350.578992 800.536852 " transform="matrix(0.0203379,0,0,0.0309135,17.869973,7.600221)"/>
<path style="fill:none;stroke-width:3.4296;stroke-linecap:butt;stroke-linejoin:miter;stroke:rgb(0%,0%,0%);stroke-opacity:1;stroke-miterlimit:4;" d="M 350.194856 113.641427 C 338.862851 130.068286 325.418098 145.736982 289.693471 154.203133 " transform="matrix(0.0203379,0,0,0.0309135,17.869973,7.600221)"/>
<path style="fill:none;stroke-width:3.4296;stroke-linecap:butt;stroke-linejoin:miter;stroke:rgb(0%,0%,0%);stroke-opacity:1;stroke-miterlimit:4;" d="M 336.1739 130.826449 C 314.086093 160.015714 296.415847 196.028443 325.802234 227.365835 " transform="matrix(0.0203379,0,0,0.0309135,17.869973,7.600221)"/>
<path style="fill:none;stroke-width:3.43;stroke-linecap:butt;stroke-linejoin:miter;stroke:rgb(0%,0%,0%);stroke-opacity:1;stroke-miterlimit:4;" d="M 129.700919 153.697691 C 78.034657 229.766684 98.777989 381.399228 226.503135 381.399228 " transform="matrix(0.0203379,0,0,0.0309135,17.869973,7.600221)"/>
<path style="fill:none;stroke-width:3.4296;stroke-linecap:butt;stroke-linejoin:miter;stroke:rgb(0%,0%,0%);stroke-opacity:1;stroke-miterlimit:4;" d="M 41.733826 149.906877 C 51.721356 147.253308 61.516819 139.41896 70.544009 126.530194 C 84.949101 103.532591 101.46694 92.665592 127.011969 92.412871 " transform="matrix(0.0203379,0,0,0.0309135,17.869973,7.600221)"/>
<path style="fill:none;stroke-width:3.4296;stroke-linecap:butt;stroke-linejoin:miter;stroke:rgb(0%,0%,0%);stroke-opacity:1;stroke-miterlimit:4;" d="M 25.984259 276.14097 C 53.449967 179.475223 83.604626 130.826449 125.667494 121.728496 " transform="matrix(0.0203379,0,0,0.0309135,17.869973,7.600221)"/>
<path style="fill:none;stroke-width:3.4296;stroke-linecap:butt;stroke-linejoin:miter;stroke:rgb(0%,0%,0%);stroke-opacity:1;stroke-miterlimit:4;" d="M 29.441481 405.534075 C 34.627314 393.908913 38.468672 382.157391 42.117962 363.961485 C 55.370646 296.105922 77.266386 242.150008 107.421044 207.527244 " transform="matrix(0.0203379,0,0,0.0309135,17.869973,7.600221)"/>
<path style="fill:none;stroke-width:3.4296;stroke-linecap:butt;stroke-linejoin:miter;stroke:rgb(0%,0%,0%);stroke-opacity:1;stroke-miterlimit:4;" d="M 110.109995 293.957794 C 65.166108 367.625939 53.449967 541.497922 80.147404 597.981045 " transform="matrix(0.0203379,0,0,0.0309135,17.869973,7.600221)"/>
<path style="fill:none;stroke-width:3.4296;stroke-linecap:butt;stroke-linejoin:miter;stroke:rgb(0%,0%,0%);stroke-opacity:1;stroke-miterlimit:4;" d="M 167.922429 367.625939 C 149.483912 403.006866 142.953604 466.945255 156.398356 507.25424 " transform="matrix(0.0203379,0,0,0.0309135,17.869973,7.600221)"/>
<path style="fill:none;stroke-width:3.4296;stroke-linecap:butt;stroke-linejoin:miter;stroke:rgb(0%,0%,0%);stroke-opacity:1;stroke-miterlimit:4;" d="M 201.53431 378.872019 C 188.665761 411.725737 185.208539 446.474862 192.315051 481.097626 " transform="matrix(0.0203379,0,0,0.0309135,17.869973,7.600221)"/>
<path style="fill:none;stroke-width:3.4296;stroke-linecap:butt;stroke-linejoin:miter;stroke:rgb(0%,0%,0%);stroke-opacity:1;stroke-miterlimit:4;" d="M 112.991013 477.559533 C 124.323018 470.988789 134.502616 462.77536 149.483912 441.167722 " transform="matrix(0.0203379,0,0,0.0309135,17.869973,7.600221)"/>
<path style="fill:none;stroke-width:3.4296;stroke-linecap:butt;stroke-linejoin:miter;stroke:rgb(0%,0%,0%);stroke-opacity:1;stroke-miterlimit:4;" d="M 136.615363 343.112011 C 121.442 368.636822 115.487895 395.93068 112.991013 436.113304 " transform="matrix(0.0203379,0,0,0.0309135,17.869973,7.600221)"/>
<path style="fill:none;stroke-width:3.4296;stroke-linecap:butt;stroke-linejoin:miter;stroke:rgb(0%,0%,0%);stroke-opacity:1;stroke-miterlimit:4;" d="M 112.991013 436.113304 L 113.183081 547.436864 " transform="matrix(0.0203379,0,0,0.0309135,17.869973,7.600221)"/>
<path style="fill:none;stroke-width:3.43;stroke-linecap:butt;stroke-linejoin:miter;stroke:rgb(0%,0%,0%);stroke-opacity:1;stroke-miterlimit:40;" d="M 129.892987 65.877176 C 129.892987 65.877176 118.75305 117.30588 131.045394 160.647516 C 143.337739 203.989151 178.870299 239.622799 223.237981 239.622799 " transform="matrix(0.0203379,0,0,0.0309135,17.869973,7.600221)"/>
<path style="fill:none;stroke-width:3.43;stroke-linecap:butt;stroke-linejoin:miter;stroke:rgb(0%,0%,0%);stroke-opacity:1;stroke-miterlimit:40;" d="M 37.124197 559.946549 C 37.124197 559.946549 43.078301 547.057782 50.953085 539.223434 C 59.019936 531.262726 64.974041 516.857634 65.93438 509.149646 " transform="matrix(0.0203379,0,0,0.0309135,17.869973,7.600221)"/>
<path style="fill:none;stroke-width:3.43;stroke-linecap:butt;stroke-linejoin:miter;stroke:rgb(0%,0%,0%);stroke-opacity:1;stroke-miterlimit:4;" d="M 193.467458 631.340205 C 193.467458 631.340205 185.976811 640.311797 185.016471 653.579645 " transform="matrix(0.0203379,0,0,0.0309135,17.869973,7.600221)"/>
<path style="fill:none;stroke-width:3.43;stroke-linecap:butt;stroke-linejoin:miter;stroke:rgb(0%,0%,0%);stroke-opacity:1;stroke-miterlimit:4;" d="M 146.218758 706.145593 C 146.218758 706.145593 149.291844 698.311245 156.590424 697.047641 C 163.889004 695.784036 168.306565 702.102059 168.306565 702.102059 " transform="matrix(0.0203379,0,0,0.0309135,17.869973,7.600221)"/>
<path style="fill:none;stroke-width:3.43;stroke-linecap:butt;stroke-linejoin:miter;stroke:rgb(0%,0%,0%);stroke-opacity:1;stroke-miterlimit:4;" d="M 107.421044 677.588131 C 107.421044 677.588131 126.819901 668.616539 130.277123 686.180642 " transform="matrix(0.0203379,0,0,0.0309135,17.869973,7.600221)"/>
<path style="fill:none;stroke-width:3.43;stroke-linecap:butt;stroke-linejoin:miter;stroke:rgb(0%,0%,0%);stroke-opacity:1;stroke-miterlimit:4;" d="M 87.253916 642.712646 C 87.253916 642.712646 97.625582 641.575402 99.930396 646.503459 C 102.235211 651.431517 101.082804 659.771307 101.082804 659.771307 " transform="matrix(0.0203379,0,0,0.0309135,17.869973,7.600221)"/>
<path style="fill:none;stroke-width:3.43;stroke-linecap:butt;stroke-linejoin:miter;stroke:rgb(0%,0%,0%);stroke-opacity:1;stroke-miterlimit:4;" d="M 317.927451 515.467669 C 317.927451 515.467669 326.570506 605.436312 350.578992 653.074203 C 374.587478 605.436312 383.230533 515.467669 383.230533 515.467669 " transform="matrix(0.0203379,0,0,0.0309135,17.869973,7.600221)"/>
<path style="fill:none;stroke-width:3.43;stroke-linecap:butt;stroke-linejoin:miter;stroke:rgb(0%,0%,0%);stroke-opacity:1;stroke-miterlimit:4;" d="M 203.070853 700.964815 C 203.070853 700.964815 302.562019 742.411043 335.789764 614.786985 " transform="matrix(0.0203379,0,0,0.0309135,17.869973,7.600221)"/>
<path style="fill:none;stroke-width:3.43;stroke-linecap:butt;stroke-linejoin:miter;stroke:rgb(0%,0%,0%);stroke-opacity:1;stroke-miterlimit:4;" d="M 322.53708 751.003554 C 322.53708 751.003554 317.927451 734.450335 320.040197 710.189128 " transform="matrix(0.0203379,0,0,0.0309135,17.869973,7.600221)"/>
<path style="fill:none;stroke-width:3.43;stroke-linecap:butt;stroke-linejoin:miter;stroke:rgb(0%,0%,0%);stroke-opacity:1;stroke-miterlimit:4;" d="M 268.950139 239.243718 C 268.950139 239.243718 329.451524 238.485555 352.307603 205.505477 C 375.163682 172.399038 363.831676 126.656554 350.578992 113.641427 C 337.326307 126.656554 325.994302 172.399038 348.850381 205.505477 C 371.70646 238.485555 432.207845 239.243718 432.207845 239.243718 " transform="matrix(0.0203379,0,0,0.0309135,17.869973,7.600221)"/>
<path style="fill:none;stroke-width:3.4296;stroke-linecap:butt;stroke-linejoin:miter;stroke:rgb(0%,0%,0%);stroke-opacity:1;stroke-miterlimit:4;" d="M 420.299636 508.770565 C 430.095098 524.691982 437.969881 560.831072 437.20161 598.865568 " transform="matrix(0.0203379,0,0,0.0309135,17.869973,7.600221)"/>
<path style="fill:none;stroke-width:3.4296;stroke-linecap:butt;stroke-linejoin:miter;stroke:rgb(0%,0%,0%);stroke-opacity:1;stroke-miterlimit:4;" d="M 408.96763 733.818532 C 386.495687 723.204254 366.712694 696.92128 351.155195 652.947842 " transform="matrix(0.0203379,0,0,0.0309135,17.869973,7.600221)"/>
<path style="fill:none;stroke-width:3.4296;stroke-linecap:butt;stroke-linejoin:miter;stroke:rgb(0%,0%,0%);stroke-opacity:1;stroke-miterlimit:4;" d="M 350.963128 113.641427 C 362.295133 130.068286 375.739885 145.736982 411.464513 154.203133 " transform="matrix(0.0203379,0,0,0.0309135,17.869973,7.600221)"/>
<path style="fill:none;stroke-width:3.4296;stroke-linecap:butt;stroke-linejoin:miter;stroke:rgb(0%,0%,0%);stroke-opacity:1;stroke-miterlimit:4;" d="M 364.984083 130.826449 C 387.071891 160.015714 404.742136 196.028443 375.355749 227.365835 " transform="matrix(0.0203379,0,0,0.0309135,17.869973,7.600221)"/>
<path style="fill:none;stroke-width:3.43;stroke-linecap:butt;stroke-linejoin:miter;stroke:rgb(0%,0%,0%);stroke-opacity:1;stroke-miterlimit:4;" d="M 571.457064 153.697691 C 623.123326 229.766684 602.379994 381.399228 474.654848 381.399228 " transform="matrix(0.0203379,0,0,0.0309135,17.869973,7.600221)"/>
<path style="fill:none;stroke-width:3.4296;stroke-linecap:butt;stroke-linejoin:miter;stroke:rgb(0%,0%,0%);stroke-opacity:1;stroke-miterlimit:4;" d="M 659.424158 149.906877 C 649.436627 147.253308 639.641165 139.41896 630.613974 126.530194 C 616.208882 103.532591 599.883112 92.665592 574.146015 92.412871 " transform="matrix(0.0203379,0,0,0.0309135,17.869973,7.600221)"/>
<path style="fill:none;stroke-width:3.4296;stroke-linecap:butt;stroke-linejoin:miter;stroke:rgb(0%,0%,0%);stroke-opacity:1;stroke-miterlimit:4;" d="M 675.173724 276.14097 C 647.708016 179.475223 617.553358 130.826449 575.49049 121.728496 " transform="matrix(0.0203379,0,0,0.0309135,17.869973,7.600221)"/>
<path style="fill:none;stroke-width:3.4296;stroke-linecap:butt;stroke-linejoin:miter;stroke:rgb(0%,0%,0%);stroke-opacity:1;stroke-miterlimit:4;" d="M 671.90857 405.534075 C 666.530669 393.908913 662.689312 382.157391 659.040022 363.961485 C 645.787337 296.105922 623.891598 242.150008 593.929007 207.527244 " transform="matrix(0.0203379,0,0,0.0309135,17.869973,7.600221)"/>
<path style="fill:none;stroke-width:3.4296;stroke-linecap:butt;stroke-linejoin:miter;stroke:rgb(0%,0%,0%);stroke-opacity:1;stroke-miterlimit:4;" d="M 591.047989 293.957794 C 635.991875 367.625939 647.708016 541.497922 621.01058 597.981045 " transform="matrix(0.0203379,0,0,0.0309135,17.869973,7.600221)"/>
<path style="fill:none;stroke-width:3.4296;stroke-linecap:butt;stroke-linejoin:miter;stroke:rgb(0%,0%,0%);stroke-opacity:1;stroke-miterlimit:4;" d="M 533.235554 367.625939 C 551.674072 403.006866 558.396448 466.945255 544.759628 507.25424 " transform="matrix(0.0203379,0,0,0.0309135,17.869973,7.600221)"/>
<path style="fill:none;stroke-width:3.4296;stroke-linecap:butt;stroke-linejoin:miter;stroke:rgb(0%,0%,0%);stroke-opacity:1;stroke-miterlimit:4;" d="M 499.623674 378.872019 C 512.492222 411.725737 515.949444 446.474862 508.842932 481.097626 " transform="matrix(0.0203379,0,0,0.0309135,17.869973,7.600221)"/>
<path style="fill:none;stroke-width:3.4296;stroke-linecap:butt;stroke-linejoin:miter;stroke:rgb(0%,0%,0%);stroke-opacity:1;stroke-miterlimit:4;" d="M 588.166971 477.559533 C 576.834965 470.988789 566.655367 462.77536 551.674072 441.167722 " transform="matrix(0.0203379,0,0,0.0309135,17.869973,7.600221)"/>
<path style="fill:none;stroke-width:3.4296;stroke-linecap:butt;stroke-linejoin:miter;stroke:rgb(0%,0%,0%);stroke-opacity:1;stroke-miterlimit:4;" d="M 564.54262 343.112011 C 579.715984 368.636822 585.670088 395.93068 588.166971 436.113304 " transform="matrix(0.0203379,0,0,0.0309135,17.869973,7.600221)"/>
<path style="fill:none;stroke-width:3.4296;stroke-linecap:butt;stroke-linejoin:miter;stroke:rgb(0%,0%,0%);stroke-opacity:1;stroke-miterlimit:4;" d="M 588.166971 436.113304 L 587.974903 547.436864 " transform="matrix(0.0203379,0,0,0.0309135,17.869973,7.600221)"/>
<path style="fill:none;stroke-width:3.43;stroke-linecap:butt;stroke-linejoin:miter;stroke:rgb(0%,0%,0%);stroke-opacity:1;stroke-miterlimit:40;" d="M 571.264996 65.877176 C 571.264996 65.877176 582.404934 117.30588 570.112589 160.647516 C 557.820244 203.989151 522.479753 239.622799 477.920002 239.622799 " transform="matrix(0.0203379,0,0,0.0309135,17.869973,7.600221)"/>
<path style="fill:none;stroke-width:3.43;stroke-linecap:butt;stroke-linejoin:miter;stroke:rgb(0%,0%,0%);stroke-opacity:1;stroke-miterlimit:40;" d="M 664.033787 559.946549 C 664.033787 559.946549 658.079682 547.057782 650.204899 539.223434 C 642.138047 531.262726 636.183943 516.857634 635.223603 509.149646 " transform="matrix(0.0203379,0,0,0.0309135,17.869973,7.600221)"/>
<path style="fill:none;stroke-width:3.43;stroke-linecap:butt;stroke-linejoin:miter;stroke:rgb(0%,0%,0%);stroke-opacity:1;stroke-miterlimit:4;" d="M 507.690525 631.340205 C 507.690525 631.340205 515.181173 640.311797 516.141512 653.579645 " transform="matrix(0.0203379,0,0,0.0309135,17.869973,7.600221)"/>
<path style="fill:none;stroke-width:3.43;stroke-linecap:butt;stroke-linejoin:miter;stroke:rgb(0%,0%,0%);stroke-opacity:1;stroke-miterlimit:4;" d="M 554.939226 706.145593 C 554.939226 706.145593 551.86614 698.311245 544.56756 697.047641 C 537.26898 695.784036 532.851419 702.102059 532.851419 702.102059 " transform="matrix(0.0203379,0,0,0.0309135,17.869973,7.600221)"/>
<path style="fill:none;stroke-width:3.43;stroke-linecap:butt;stroke-linejoin:miter;stroke:rgb(0%,0%,0%);stroke-opacity:1;stroke-miterlimit:4;" d="M 593.736939 677.588131 C 593.736939 677.588131 574.338083 668.616539 570.880861 686.180642 " transform="matrix(0.0203379,0,0,0.0309135,17.869973,7.600221)"/>
<path style="fill:none;stroke-width:3.43;stroke-linecap:butt;stroke-linejoin:miter;stroke:rgb(0%,0%,0%);stroke-opacity:1;stroke-miterlimit:4;" d="M 613.904068 642.712646 C 613.904068 642.712646 603.532402 641.575402 601.227587 646.503459 C 598.922772 651.431517 600.07518 659.771307 600.07518 659.771307 " transform="matrix(0.0203379,0,0,0.0309135,17.869973,7.600221)"/>
<path style="fill:none;stroke-width:3.43;stroke-linecap:butt;stroke-linejoin:miter;stroke:rgb(0%,0%,0%);stroke-opacity:1;stroke-miterlimit:4;" d="M 498.087131 700.964815 C 498.087131 700.964815 398.788032 742.411043 365.368219 614.786985 " transform="matrix(0.0203379,0,0,0.0309135,17.869973,7.600221)"/>
<path style="fill:none;stroke-width:3.43;stroke-linecap:butt;stroke-linejoin:miter;stroke:rgb(0%,0%,0%);stroke-opacity:1;stroke-miterlimit:4;" d="M 378.620904 751.003554 C 378.620904 751.003554 383.230533 734.450335 381.117786 710.189128 " transform="matrix(0.0203379,0,0,0.0309135,17.869973,7.600221)"/>
<path style="fill-rule:nonzero;fill:rgb(86.27451%,0%,0%);fill-opacity:1;stroke-width:1.67421;stroke-linecap:butt;stroke-linejoin:miter;stroke:rgb(0%,0%,0%);stroke-opacity:1;stroke-miterlimit:4;" d="M 233.27638 116.951131 L 233.27638 209.837644 C 232.80763 223.22169 232.24513 229.574486 223.71388 240.183038 C 223.71388 240.183038 216.02638 249.311328 201.21388 249.311328 C 185.65138 249.311328 175.15138 255.972512 171.12013 264.669058 C 167.08888 255.972512 156.58888 249.311328 141.02638 249.311328 C 126.21388 249.311328 118.52638 240.183038 118.52638 240.183038 C 109.99513 229.574486 109.43263 223.22169 108.96388 209.837644 L 108.96388 116.951131 C 151.80763 116.951131 192.12013 117.012808 233.27638 116.951131 Z M 233.27638 116.951131 " transform="matrix(0.0416667,0,0,0.0633333,17.869995,7.600908)"/>
<path style="fill-rule:nonzero;fill:rgb(100%,100%,100%);fill-opacity:1;stroke-width:0.600374;stroke-linecap:butt;stroke-linejoin:miter;stroke:rgb(0%,0%,0%);stroke-opacity:1;stroke-miterlimit:4;" d="M 136.62013 116.951131 L 136.62013 148.098334 L 108.96388 148.098334 L 108.96388 154.882874 L 136.62013 154.882874 L 136.62013 186.153433 L 143.46388 186.153433 L 143.46388 154.882874 L 171.12013 154.882874 L 171.12013 148.098334 L 143.46388 148.098334 L 143.46388 116.951131 C 141.21388 117.012808 138.87013 116.951131 136.62013 116.951131 Z M 136.62013 116.951131 " transform="matrix(0.0416667,0,0,0.0633333,17.869995,7.600908)"/>
<path style="fill-rule:nonzero;fill:rgb(100%,100%,100%);fill-opacity:1;stroke-width:1.23;stroke-linecap:butt;stroke-linejoin:miter;stroke:rgb(0%,0%,0%);stroke-opacity:1;stroke-miterlimit:4;" d="M 272.023225 291.430585 C 272.023225 291.430585 268.758071 292.062387 265.877053 293.452352 C 262.996034 294.968678 255.121251 297.243166 249.551282 293.199632 C 243.981313 289.282457 246.670264 282.711714 250.703689 282.332633 C 250.703689 282.332633 250.511622 287.892493 255.313319 288.777016 C 259.73088 289.408818 262.803966 286.755248 262.803966 283.217156 C 262.996034 279.552703 259.922948 277.151854 256.657794 276.01461 C 259.922948 274.751005 262.996034 272.350157 262.803966 268.685704 C 262.803966 265.147611 259.73088 262.494041 255.313319 263.125844 C 250.511622 264.010367 250.703689 269.570227 250.703689 269.570227 C 246.670264 269.191145 243.981313 262.620402 249.551282 258.703228 C 255.121251 254.659693 262.996034 256.934181 265.877053 258.450507 C 268.758071 259.840472 272.023225 260.472274 272.023225 260.472274 Z M 272.023225 291.430585 " transform="matrix(0.0203379,0,0,0.0309135,17.869973,7.600221)"/>
<path style="fill-rule:nonzero;fill:rgb(100%,100%,100%);fill-opacity:1;stroke-width:1.23;stroke-linecap:butt;stroke-linejoin:miter;stroke:rgb(0%,0%,0%);stroke-opacity:1;stroke-miterlimit:4;" d="M 272.006252 291.430585 C 272.006252 291.430585 268.933166 292.062387 265.86008 293.452352 C 262.979061 294.968678 255.104278 297.243166 249.534309 293.199632 C 243.96434 289.282457 246.653291 282.711714 250.686716 282.332633 C 250.686716 282.332633 250.494649 287.892493 255.488414 288.777016 C 259.713907 289.408818 262.786993 286.755248 262.786993 283.217156 C 262.979061 279.552703 259.905975 277.151854 256.640821 276.01461 C 259.905975 274.751005 262.979061 272.350157 262.786993 268.685704 C 262.786993 265.147611 259.713907 262.494041 255.488414 263.125844 C 250.494649 264.010367 250.686716 269.570227 250.686716 269.570227 C 246.653291 269.191145 243.96434 262.620402 249.534309 258.703228 C 255.104278 254.659693 262.979061 256.934181 265.86008 258.450507 C 268.933166 259.840472 272.006252 260.472274 272.006252 260.472274 Z M 272.006252 291.430585 " transform="matrix(-0.0203379,0,0,0.0309135,29.539838,7.600221)"/>
<path style="fill-rule:nonzero;fill:rgb(100%,100%,100%);fill-opacity:1;stroke-width:1.23;stroke-linecap:butt;stroke-linejoin:miter;stroke:rgb(0%,0%,0%);stroke-opacity:1;stroke-miterlimit:4;" d="M 272.023225 291.442814 C 272.023225 291.442814 268.758071 292.074616 265.877053 293.464581 C 262.996034 294.980906 255.121251 297.255395 249.551282 293.21186 C 243.981313 289.294686 246.670264 282.723942 250.703689 282.344861 C 250.703689 282.344861 250.511622 287.904721 255.313319 288.789244 C 259.73088 289.421046 262.803966 286.767477 262.803966 283.229384 C 262.996034 279.564931 259.922948 277.164082 256.657794 275.900478 C 259.922948 274.763234 262.996034 272.362385 262.803966 268.697932 C 262.803966 265.159839 259.73088 262.50627 255.313319 263.138072 C 250.511622 264.022595 250.703689 269.582455 250.703689 269.582455 C 246.670264 269.203374 243.981313 262.63263 249.551282 258.715456 C 255.121251 254.671922 262.996034 256.94641 265.877053 258.462735 C 268.758071 259.8527 272.023225 260.484503 272.023225 260.484503 Z M 272.023225 291.442814 " transform="matrix(0.0203379,0,0,0.0309135,17.869973,9.740468)"/>
<path style="fill-rule:nonzero;fill:rgb(100%,100%,100%);fill-opacity:1;stroke-width:1.23;stroke-linecap:butt;stroke-linejoin:miter;stroke:rgb(0%,0%,0%);stroke-opacity:1;stroke-miterlimit:4;" d="M 272.006252 291.442814 C 272.006252 291.442814 268.933166 292.074616 265.86008 293.464581 C 262.979061 294.980906 255.104278 297.255395 249.534309 293.21186 C 243.96434 289.294686 246.653291 282.723942 250.686716 282.344861 C 250.686716 282.344861 250.494649 287.904721 255.488414 288.789244 C 259.713907 289.421046 262.786993 286.767477 262.786993 283.229384 C 262.979061 279.564931 259.905975 277.164082 256.640821 275.900478 C 259.905975 274.763234 262.979061 272.362385 262.786993 268.697932 C 262.786993 265.159839 259.713907 262.50627 255.488414 263.138072 C 250.494649 264.022595 250.686716 269.582455 250.686716 269.582455 C 246.653291 269.203374 243.96434 262.63263 249.534309 258.715456 C 255.104278 254.671922 262.979061 256.94641 265.86008 258.462735 C 268.933166 259.8527 272.006252 260.484503 272.006252 260.484503 Z M 272.006252 291.442814 " transform="matrix(-0.0203379,0,0,0.0309135,29.539838,9.740468)"/>
<path style="fill:none;stroke-width:1.23;stroke-linecap:butt;stroke-linejoin:miter;stroke:rgb(0%,0%,0%);stroke-opacity:1;stroke-miterlimit:4;" d="M 400.132507 260.219553 C 400.132507 260.219553 398.403896 256.807821 403.781797 255.291496 C 409.159698 253.64881 412.61692 254.154251 417.802753 258.703228 C 422.796518 263.252204 422.796518 264.515809 428.366487 264.515809 C 428.366487 264.515809 422.220314 279.047261 409.735902 269.317506 Z M 400.132507 260.219553 " transform="matrix(0.0203379,0,0,0.0309135,17.869973,7.600221)"/>
<path style="fill-rule:nonzero;fill:rgb(96.078431%,74.117647%,12.941176%);fill-opacity:1;stroke-width:1.23;stroke-linecap:butt;stroke-linejoin:miter;stroke:rgb(0%,0%,0%);stroke-opacity:1;stroke-miterlimit:4;" d="M 437.969881 335.277663 C 432.59198 328.706919 438.738153 324.284303 438.738153 324.284303 C 445.652597 329.338721 457.17667 327.190594 457.17667 327.190594 L 459.289417 333.634977 C 459.289417 333.634977 452.182905 330.223244 444.308122 337.173069 C 444.308122 337.173069 447.573276 338.689395 450.646362 338.436674 C 450.646362 338.436674 446.997072 341.090243 445.844665 343.617452 C 445.844665 343.617452 447.18914 345.386499 453.52738 343.112011 C 453.52738 343.112011 450.646362 346.902824 450.454294 348.671871 C 450.454294 348.671871 453.719448 347.281906 457.560806 346.776464 C 461.402164 346.271022 465.051454 344.881057 466.395929 340.963883 C 466.395929 340.963883 468.316608 344.754697 469.084879 345.512859 C 469.084879 345.512859 473.310373 341.469325 471.005558 336.667628 C 468.892811 331.86593 468.700744 329.970523 469.853151 327.443314 C 464.667318 325.674268 464.283182 318.598083 464.283182 318.598083 C 448.149479 316.702676 448.917751 304.951154 448.917751 304.951154 C 455.640127 304.066631 462.170435 298.001329 461.978367 291.936027 C 461.7863 285.870725 454.871856 280.689947 446.997072 277.404575 C 439.314357 273.992843 438.354017 269.949308 441.811239 267.043018 C 445.268461 264.010367 450.262226 267.169378 450.262226 267.169378 L 452.759109 266.284855 L 452.374973 263.631285 C 448.725683 261.483158 445.844665 260.724995 444.116054 260.724995 C 442.195375 260.851355 441.427103 260.977716 440.466764 261.104076 C 437.009542 261.862239 431.823709 266.411215 433.744388 273.23468 C 435.857135 279.931784 447.381208 283.090795 451.990837 287.513411 C 456.408399 292.062387 453.143245 295.726841 450.070158 296.358643 C 447.18914 296.990445 444.116054 298.759491 444.116054 298.759491 C 439.122289 298.001329 432.784048 299.644015 432.784048 299.644015 C 425.677536 299.391294 416.650346 293.957794 416.650346 292.69419 C 424.525129 290.293341 425.293401 287.13433 426.061672 286.123446 C 426.061672 286.123446 427.598215 284.859842 426.061672 281.70083 C 424.525129 278.79454 418.763092 273.23468 418.186889 272.602878 C 413.001056 272.981959 411.656581 268.812064 407.431087 268.685704 L 401.66905 279.552703 L 394.178403 280.689947 C 391.489452 283.975318 390.721181 287.639772 388.608434 291.051504 C 386.687755 290.04062 376.892293 283.722598 376.892293 283.722598 C 377.276428 267.043018 367.480966 266.158495 367.480966 266.158495 C 369.401645 268.685704 369.017509 272.097436 369.017509 272.097436 C 365.752355 269.317506 361.334794 270.58111 361.334794 270.58111 C 364.40788 272.729238 365.752355 276.14097 365.752355 276.14097 C 361.526861 274.498284 357.301368 276.646412 357.301368 276.646412 C 363.255472 278.668179 364.023744 284.3544 364.023744 284.3544 C 361.718929 284.986202 359.414115 283.975318 359.414115 283.975318 C 362.103065 291.304225 369.785781 289.661539 369.785781 289.661539 C 374.39541 293.325992 375.163682 299.264933 375.163682 299.264933 C 380.349515 297.874968 383.230533 302.044863 383.230533 302.044863 C 381.69399 304.192991 375.547817 310.890095 375.547817 310.890095 C 378.428836 315.439071 381.501922 318.850804 385.727415 322.894338 C 384.38294 327.443314 377.660564 332.118651 377.660564 332.118651 C 377.660564 332.118651 369.209577 330.223244 362.295133 335.530383 C 362.295133 335.530383 363.831676 337.29943 368.441305 337.42579 C 366.712694 338.436674 364.792016 339.068476 362.871337 343.364732 C 362.871337 343.364732 367.865102 343.491092 370.74612 342.98565 C 369.209577 344.122894 367.480966 345.512859 366.904762 348.798231 C 366.904762 348.798231 376.316089 347.787347 380.541582 343.364732 C 380.541582 343.364732 380.73365 346.144662 381.309854 347.155545 C 381.309854 347.155545 385.535348 345.891941 386.111551 338.563034 C 386.879823 331.234128 393.602199 330.602326 395.907014 331.86593 C 397.443557 326.17971 399.940439 323.39978 399.940439 323.39978 C 404.934204 325.800629 422.028247 323.273419 422.028247 323.273419 C 421.836179 327.064233 427.406147 330.981407 427.406147 330.981407 L 424.140993 335.151302 C 424.140993 335.151302 417.418617 330.223244 411.080377 335.151302 C 411.080377 335.151302 414.345531 336.414907 415.882074 337.552151 C 415.882074 337.552151 411.272445 337.173069 408.775562 341.090243 C 408.775562 341.090243 412.808988 342.480208 416.074142 342.606569 C 414.729667 343.238371 411.656581 344.375615 411.080377 348.166429 C 411.080377 348.166429 417.802753 348.292789 422.220314 345.386499 C 422.220314 345.386499 421.259975 347.660987 421.259975 349.050952 C 421.259975 349.050952 426.061672 347.787347 427.406147 345.512859 C 428.750623 343.364732 432.399913 343.112011 433.168184 343.617452 C 431.823709 336.541267 437.969881 335.277663 437.969881 335.277663 Z M 437.969881 335.277663 " transform="matrix(0.0203379,0,0,0.0309135,17.869973,7.600221)"/>
<path style="fill:none;stroke-width:1.23;stroke-linecap:butt;stroke-linejoin:miter;stroke:rgb(0%,0%,0%);stroke-opacity:1;stroke-miterlimit:4;" d="M 433.360252 318.850804 C 433.360252 318.850804 423.756858 323.147059 422.028247 323.273419 M 414.729667 323.905222 C 414.729667 323.905222 428.942691 317.71356 431.247505 313.290944 M 444.116054 298.759491 C 444.116054 298.759491 448.725683 300.149456 448.917751 304.951154 M 438.738153 324.284303 C 438.738153 324.284303 426.061672 316.197234 432.784048 299.644015 M 385.727415 322.894338 C 385.727415 322.894338 387.648094 316.576315 392.449792 312.532781 M 398.01976 280.058144 C 397.827692 280.563586 393.794267 288.524295 392.641859 294.463236 C 391.489452 300.907619 385.34328 313.290944 379.965379 316.702676 M 399.940439 323.39978 C 399.940439 323.39978 403.397661 317.587199 411.848648 317.587199 C 420.299636 317.587199 425.293401 305.582956 416.650346 292.69419 C 416.650346 292.69419 411.848648 310.890095 402.437322 313.543665 C 392.833927 316.197234 387.263959 307.731084 387.263959 307.731084 M 402.821458 279.299982 C 402.821458 279.299982 391.68152 310.511014 407.623155 318.219001 M 406.662815 294.842317 C 411.656581 283.469877 407.815223 269.064785 407.815223 269.064785 C 410.504173 269.443866 412.808988 271.718354 412.808988 271.718354 C 412.808988 271.718354 418.186889 282.585353 416.650346 292.69419 C 416.650346 292.69419 407.815223 296.232282 398.9801 294.715957 " transform="matrix(0.0203379,0,0,0.0309135,17.869973,7.600221)"/>
<path style="fill-rule:nonzero;fill:rgb(96.078431%,74.117647%,12.941176%);fill-opacity:1;stroke-width:1.23;stroke-linecap:butt;stroke-linejoin:miter;stroke:rgb(0%,0%,0%);stroke-opacity:1;stroke-miterlimit:4;" d="M 400.132507 260.219553 C 400.132507 260.219553 398.403896 256.807821 403.781797 255.291496 C 409.159698 253.64881 412.61692 254.154251 417.802753 258.703228 C 422.796518 263.252204 422.796518 264.515809 428.366487 264.515809 C 428.366487 264.515809 422.220314 279.047261 409.735902 269.317506 Z M 400.132507 260.219553 " transform="matrix(0.0203379,0,0,0.0309135,17.869973,7.600221)"/>
<path style="fill-rule:nonzero;fill:rgb(96.078431%,74.117647%,12.941176%);fill-opacity:1;stroke-width:1.23;stroke-linecap:butt;stroke-linejoin:miter;stroke:rgb(0%,0%,0%);stroke-opacity:1;stroke-miterlimit:4;" d="M 390.721181 269.570227 C 390.721181 269.570227 383.998804 271.971075 378.0447 268.559343 C 378.0447 268.559343 381.501922 276.14097 389.184637 275.635529 C 395.907014 275.256447 395.522878 272.223796 395.138742 271.086552 C 393.218063 268.685704 393.218063 267.80118 390.721181 269.570227 Z M 390.721181 269.570227 " transform="matrix(0.0203379,0,0,0.0309135,17.869973,7.600221)"/>
<path style="fill-rule:nonzero;fill:rgb(96.078431%,74.117647%,12.941176%);fill-opacity:1;stroke-width:1.23;stroke-linecap:butt;stroke-linejoin:miter;stroke:rgb(0%,0%,0%);stroke-opacity:1;stroke-miterlimit:4;" d="M 400.324575 259.840472 C 398.595964 260.345914 386.111551 264.263088 386.111551 264.263088 C 386.303619 267.169378 386.879823 268.432983 387.263959 270.328389 C 389.376705 270.075669 390.721181 269.570227 390.721181 269.570227 C 393.218063 268.812064 394.754606 270.075669 395.138742 271.086552 C 395.522878 272.223796 396.099081 275.256447 389.184637 275.635529 C 388.608434 275.761889 388.03223 275.635529 387.648094 275.635529 C 387.648094 276.772773 387.840162 278.162738 387.840162 278.541819 C 391.873588 280.437226 397.443557 280.942668 401.861118 281.57447 L 407.431087 268.685704 C 407.431087 268.685704 409.92797 268.812064 410.504173 268.685704 C 411.080377 268.685704 412.232784 267.927541 412.232784 267.927541 C 414.537599 265.653053 414.921735 263.631285 414.345531 262.11496 C 413.193124 259.966832 410.696241 259.840472 409.351766 260.345914 C 408.199359 260.851355 407.046951 262.24132 407.046951 262.24132 C 406.662815 259.966832 404.934204 259.46139 403.397661 259.46139 C 402.053186 259.46139 400.900779 259.714111 400.324575 259.840472 Z M 400.324575 259.840472 " transform="matrix(0.0203379,0,0,0.0309135,17.869973,7.600221)"/>
<path style="fill:none;stroke-width:1.23;stroke-linecap:butt;stroke-linejoin:miter;stroke:rgb(0%,0%,0%);stroke-opacity:1;stroke-miterlimit:4;" d="M 400.900779 264.389448 C 400.900779 265.147611 400.132507 265.905774 399.364236 265.905774 C 398.403896 265.905774 397.827692 265.147611 397.827692 264.389448 C 397.827692 263.504925 398.403896 262.746762 399.364236 262.746762 C 400.132507 262.746762 400.900779 263.504925 400.900779 264.389448 Z M 400.900779 264.389448 " transform="matrix(0.0203379,0,0,0.0309135,17.869973,7.600221)"/>
<path style="fill-rule:nonzero;fill:rgb(96.078431%,74.117647%,12.941176%);fill-opacity:1;stroke-width:1.23;stroke-linecap:butt;stroke-linejoin:miter;stroke:rgb(0%,0%,0%);stroke-opacity:1;stroke-miterlimit:4;" d="M 459.865621 261.9886 C 466.011793 262.999483 469.469015 262.494041 471.77383 261.609518 C 471.77383 261.609518 468.700744 270.45475 462.170435 271.339273 C 455.640127 272.350157 451.798769 268.432983 450.646362 267.422099 C 449.686023 266.537576 451.990837 263.631285 451.990837 263.631285 C 451.990837 263.631285 453.911516 260.977716 459.865621 261.9886 Z M 459.865621 261.9886 " transform="matrix(0.0203379,0,0,0.0309135,17.869973,7.600221)"/>
<path style="fill:none;stroke-width:1.23;stroke-linecap:butt;stroke-linejoin:miter;stroke:rgb(0%,0%,0%);stroke-opacity:1;stroke-miterlimit:4;" d="M 383.230533 302.044863 C 383.230533 302.044863 385.151212 299.138573 388.608434 291.051504 " transform="matrix(0.0203379,0,0,0.0309135,17.869973,7.600221)"/>
<path style="fill-rule:nonzero;fill:rgb(100%,100%,100%);fill-opacity:1;stroke-width:0.600374;stroke-linecap:butt;stroke-linejoin:miter;stroke:rgb(0%,0%,0%);stroke-opacity:1;stroke-miterlimit:4;" d="M 197.74513 186.215111 L 197.74513 212.119716 L 171.12013 212.119716 L 171.12013 218.904256 L 197.74513 218.904256 L 197.74513 248.694552 C 198.87013 248.571196 199.99513 248.571196 201.21388 248.571196 C 202.33888 248.571196 203.46388 248.509519 204.58888 248.386163 L 204.58888 218.904256 L 232.62013 218.904256 C 232.90138 216.868894 232.99513 214.586821 233.18263 212.119716 L 204.58888 212.119716 L 204.58888 186.215111 Z M 197.74513 186.215111 " transform="matrix(0.0416667,0,0,0.0633333,17.869995,7.600908)"/>
<path style="fill:none;stroke-width:1.69315;stroke-linecap:butt;stroke-linejoin:miter;stroke:rgb(0%,0%,0%);stroke-opacity:1;stroke-miterlimit:4;" d="M 109.43263 186.153433 L 233.27638 186.153433 " transform="matrix(0.0416667,0,0,0.0633333,17.869995,7.600908)"/>
<path style="fill:none;stroke-width:1.69315;stroke-linecap:butt;stroke-linejoin:miter;stroke:rgb(0%,0%,0%);stroke-opacity:1;stroke-miterlimit:4;" d="M 171.12013 116.642742 L 171.12013 264.669058 " transform="matrix(0.0416667,0,0,0.0633333,17.869995,7.600908)"/>
<path style="fill:none;stroke-width:1.67421;stroke-linecap:butt;stroke-linejoin:miter;stroke:rgb(0%,0%,0%);stroke-opacity:1;stroke-miterlimit:4;" d="M 233.27638 116.951131 L 233.27638 209.837644 C 232.80763 223.22169 232.24513 229.574486 223.71388 240.183038 C 223.71388 240.183038 216.02638 249.311328 201.21388 249.311328 C 185.65138 249.311328 175.15138 255.972512 171.12013 264.669058 C 167.08888 255.972512 156.58888 249.311328 141.02638 249.311328 C 126.21388 249.311328 118.52638 240.183038 118.52638 240.183038 C 109.99513 229.574486 109.43263 223.22169 108.96388 209.837644 L 108.96388 116.951131 C 151.71388 116.951131 193.62013 117.012808 233.27638 116.951131 Z M 233.27638 116.951131 " transform="matrix(0.0416667,0,0,0.0633333,17.869995,7.600908)"/>
<path style="fill-rule:nonzero;fill:rgb(100%,100%,100%);fill-opacity:1;stroke-width:1.67402;stroke-linecap:butt;stroke-linejoin:miter;stroke:rgb(0%,0%,0%);stroke-opacity:1;stroke-miterlimit:4;" d="M 231.68263 15.183038 C 234.02638 12.160834 229.99513 8.090111 221.55763 7.411657 C 216.49513 7.041591 211.99513 7.535012 207.96388 9.323663 C 203.83888 10.865604 199.43263 11.420703 193.99513 11.729091 C 188.37013 11.975802 183.68263 11.420703 179.83888 9.817084 C 183.40138 17.588466 188.93263 21.844223 196.43263 22.769387 C 201.68263 23.139453 208.05763 20.61067 211.15138 17.958532 C 215.83888 14.011163 222.49513 12.777611 231.68263 15.183038 Z M 231.68263 15.183038 " transform="matrix(0.0416667,0,0,0.0633333,17.869995,7.600908)"/>
<path style="fill-rule:nonzero;fill:rgb(96.078431%,74.117647%,12.941176%);fill-opacity:1;stroke-width:1.67421;stroke-linecap:butt;stroke-linejoin:miter;stroke:rgb(0%,0%,0%);stroke-opacity:1;stroke-miterlimit:40;" d="M 230.55763 15.553104 C 230.93263 15.553104 257.93263 16.231558 252.58888 32.32942 C 252.58888 32.32942 234.77638 23.324486 219.77638 33.686328 C 220.62013 26.408367 225.21388 20.734025 230.55763 15.553104 Z M 230.55763 15.553104 " transform="matrix(0.0416667,0,0,0.0633333,17.869995,7.600908)"/>
<path style="fill-rule:nonzero;fill:rgb(96.078431%,74.117647%,12.941176%);fill-opacity:1;stroke-width:1.67421;stroke-linecap:butt;stroke-linejoin:miter;stroke:rgb(0%,0%,0%);stroke-opacity:1;stroke-miterlimit:40;" d="M 249.12013 36.893565 C 255.12013 38.990604 261.77638 36.585177 261.77638 36.585177 C 257.93263 43.739782 245.65138 43.616427 239.18263 41.272677 C 233.74513 39.298992 226.90138 41.334354 225.02638 41.766098 C 221.74513 43.184683 220.71388 43.308038 220.71388 43.308038 C 220.33888 42.506229 219.77638 40.224157 219.58888 38.805571 C 219.77638 38.682216 219.87013 38.620538 220.05763 38.497183 C 225.21388 34.858203 230.27638 33.686328 235.52638 33.748006 C 240.77638 33.748006 245.74513 35.660012 249.12013 36.893565 Z M 249.12013 36.893565 " transform="matrix(0.0416667,0,0,0.0633333,17.869995,7.600908)"/>
<path style="fill-rule:nonzero;fill:rgb(96.078431%,74.117647%,12.941176%);fill-opacity:1;stroke-width:1.67421;stroke-linecap:butt;stroke-linejoin:miter;stroke:rgb(0%,0%,0%);stroke-opacity:1;stroke-miterlimit:40;" d="M 240.96388 47.193729 L 222.49513 47.193729 C 222.49513 47.193729 220.80763 43.431394 220.71388 43.308038 C 222.21388 42.506229 225.49513 41.210999 229.15138 41.334354 C 232.90138 41.396032 237.12013 42.814617 240.96388 47.193729 Z M 240.96388 47.193729 " transform="matrix(0.0416667,0,0,0.0633333,17.869995,7.600908)"/>
<path style="fill-rule:nonzero;fill:rgb(100%,100%,100%);fill-opacity:1;stroke-width:1.23;stroke-linecap:butt;stroke-linejoin:miter;stroke:rgb(0%,0%,0%);stroke-opacity:1;stroke-miterlimit:4;" d="M 272.103558 291.452737 C 272.103558 291.452737 268.838404 292.08454 265.957385 293.474505 C 262.884299 294.99083 255.201584 297.265318 249.439547 293.221784 C 243.869578 289.30461 246.558529 282.607506 250.591954 282.354785 C 250.591954 282.354785 250.399886 287.914645 255.393651 288.799168 C 259.619145 289.43097 262.692231 286.777401 262.884299 283.112947 C 263.076367 279.574855 259.811213 277.174006 256.738127 275.910402 C 259.811213 274.773157 263.076367 272.372309 262.884299 268.707856 C 262.692231 265.169763 259.619145 262.516193 255.393651 263.147996 C 250.399886 263.906158 250.591954 269.592379 250.591954 269.592379 C 246.558529 269.213297 243.869578 262.642554 249.439547 258.599019 C 255.201584 254.681845 262.884299 256.956334 265.957385 258.346299 C 268.838404 259.862624 272.103558 260.494426 272.103558 260.494426 Z M 272.103558 291.452737 " transform="matrix(0.0203379,0,0,0.0309135,20.419121,11.654224)"/>
<path style="fill-rule:nonzero;fill:rgb(100%,100%,100%);fill-opacity:1;stroke-width:1.23;stroke-linecap:butt;stroke-linejoin:miter;stroke:rgb(0%,0%,0%);stroke-opacity:1;stroke-miterlimit:4;" d="M 272.117987 291.452737 C 272.117987 291.452737 268.852833 292.08454 265.971815 293.474505 C 262.898729 294.99083 255.023945 297.265318 249.453976 293.221784 C 243.884008 289.30461 246.572958 282.607506 250.606384 282.354785 C 250.606384 282.354785 250.414316 287.914645 255.408081 288.799168 C 259.633574 289.43097 262.706661 286.777401 262.898729 283.112947 C 262.898729 279.574855 259.825642 277.174006 256.752556 275.910402 C 259.825642 274.773157 262.898729 272.372309 262.898729 268.707856 C 262.706661 265.169763 259.633574 262.516193 255.408081 263.147996 C 250.414316 263.906158 250.606384 269.592379 250.606384 269.592379 C 246.572958 269.213297 243.884008 262.642554 249.453976 258.599019 C 255.023945 254.681845 262.898729 256.956334 265.971815 258.346299 C 268.852833 259.862624 272.117987 260.494426 272.117987 260.494426 Z M 272.117987 291.452737 " transform="matrix(-0.0203379,0,0,0.0309135,32.088985,11.654224)"/>
<path style="fill-rule:nonzero;fill:rgb(100%,100%,100%);fill-opacity:1;stroke-width:1.23;stroke-linecap:butt;stroke-linejoin:miter;stroke:rgb(0%,0%,0%);stroke-opacity:1;stroke-miterlimit:4;" d="M 272.103558 291.464966 C 272.103558 291.464966 268.838404 291.970408 265.957385 293.486733 C 262.884299 295.003058 255.201584 297.277547 249.439547 293.234012 C 243.869578 289.316838 246.558529 282.619734 250.591954 282.367013 C 250.591954 282.367013 250.399886 287.926873 255.393651 288.685036 C 259.619145 289.443198 262.692231 286.789629 262.884299 283.125176 C 263.076367 279.587083 259.811213 277.186235 256.738127 275.92263 C 259.811213 274.785386 263.076367 272.384537 262.884299 268.720084 C 262.692231 265.181991 259.619145 262.528422 255.393651 263.160224 C 250.399886 263.918387 250.591954 269.478247 250.591954 269.478247 C 246.558529 269.225526 243.869578 262.654782 249.439547 258.611248 C 255.201584 254.694074 262.884299 256.968562 265.957385 258.358527 C 268.838404 259.874852 272.103558 260.506655 272.103558 260.506655 Z M 272.103558 291.464966 " transform="matrix(0.0203379,0,0,0.0309135,20.419121,13.794471)"/>
<path style="fill-rule:nonzero;fill:rgb(100%,100%,100%);fill-opacity:1;stroke-width:1.23;stroke-linecap:butt;stroke-linejoin:miter;stroke:rgb(0%,0%,0%);stroke-opacity:1;stroke-miterlimit:4;" d="M 272.117987 291.464966 C 272.117987 291.464966 268.852833 291.970408 265.971815 293.486733 C 262.898729 295.003058 255.023945 297.277547 249.453976 293.234012 C 243.884008 289.316838 246.572958 282.619734 250.606384 282.367013 C 250.606384 282.367013 250.414316 287.926873 255.408081 288.685036 C 259.633574 289.443198 262.706661 286.789629 262.898729 283.125176 C 262.898729 279.587083 259.825642 277.186235 256.752556 275.92263 C 259.825642 274.785386 262.898729 272.384537 262.898729 268.720084 C 262.706661 265.181991 259.633574 262.528422 255.408081 263.160224 C 250.414316 263.918387 250.606384 269.478247 250.606384 269.478247 C 246.572958 269.225526 243.884008 262.654782 249.453976 258.611248 C 255.023945 254.694074 262.898729 256.968562 265.971815 258.358527 C 268.852833 259.874852 272.117987 260.506655 272.117987 260.506655 Z M 272.117987 291.464966 " transform="matrix(-0.0203379,0,0,0.0309135,32.088985,13.794471)"/>
<path style="fill:none;stroke-width:1.23;stroke-linecap:butt;stroke-linejoin:miter;stroke:rgb(0%,0%,0%);stroke-opacity:1;stroke-miterlimit:4;" d="M 400.150446 260.113367 C 400.150446 260.113367 398.421835 256.827995 403.799736 255.31167 C 409.177637 253.668984 412.634859 254.174426 417.820692 258.723402 C 422.814457 263.272378 422.814457 264.535983 428.384425 264.535983 C 428.384425 264.535983 422.046185 279.067435 409.75384 269.33768 Z M 400.150446 260.113367 " transform="matrix(0.0203379,0,0,0.0309135,15.334452,11.849598)"/>
<path style="fill-rule:nonzero;fill:rgb(96.078431%,74.117647%,12.941176%);fill-opacity:1;stroke-width:1.23;stroke-linecap:butt;stroke-linejoin:miter;stroke:rgb(0%,0%,0%);stroke-opacity:1;stroke-miterlimit:4;" d="M 437.98782 335.297837 C 432.609919 328.727093 438.756092 324.304477 438.756092 324.304477 C 445.670536 329.232535 457.194609 327.210768 457.194609 327.210768 L 459.307356 333.655151 C 459.307356 333.655151 452.200844 330.243418 444.32606 337.193243 C 444.32606 337.193243 447.591214 338.709569 450.664301 338.456848 C 450.664301 338.456848 447.015011 341.110417 445.862603 343.637627 C 445.862603 343.637627 447.207079 345.406673 453.353251 343.132185 C 453.353251 343.132185 450.472233 346.922998 450.472233 348.692045 C 450.472233 348.692045 453.737387 347.30208 457.578745 346.796638 C 461.420102 346.164836 465.069392 344.901231 466.413868 340.984057 C 466.413868 340.984057 468.334546 344.774871 469.102818 345.533033 C 469.102818 345.533033 473.136244 341.489499 471.023497 336.687802 C 468.718682 331.886104 468.718682 329.990698 469.87109 327.463489 C 464.685257 325.568082 464.301121 318.618257 464.301121 318.618257 C 448.167418 316.59649 448.93569 304.844967 448.93569 304.844967 C 455.658066 304.086805 462.188374 298.021503 461.996306 291.956201 C 461.804238 285.890899 454.697726 280.710121 447.015011 277.298389 C 439.332295 274.013017 438.371956 269.843122 441.829178 266.936831 C 445.2864 264.030541 450.280165 267.189552 450.280165 267.189552 L 452.777047 266.305029 L 452.392912 263.65146 C 448.743622 261.376971 445.862603 260.745169 443.941925 260.745169 C 442.213314 260.87153 441.445042 260.87153 440.484703 261.12425 C 437.027481 261.882413 431.841647 266.43139 433.762326 273.254854 C 435.875073 279.951958 447.399147 283.110969 452.008776 287.533585 C 456.426337 292.082562 453.161183 295.747015 450.088097 296.378817 C 447.015011 297.010619 444.133992 298.779666 444.133992 298.779666 C 439.140227 298.021503 432.801987 299.664189 432.801987 299.664189 C 425.695475 299.411468 416.668284 293.977968 416.668284 292.714364 C 424.543068 290.313515 425.311339 287.154504 426.079611 286.14362 C 426.079611 286.14362 427.616154 284.880016 426.079611 281.721004 C 424.543068 278.814714 418.781031 273.254854 418.204827 272.623052 C 413.018994 272.875773 411.674519 268.832238 407.449026 268.705878 L 401.686989 279.572877 L 394.196341 280.58376 C 391.507391 283.995493 390.739119 287.659946 388.626372 291.071678 C 386.705694 290.060794 376.910231 283.742772 376.910231 283.742772 C 377.294367 267.063192 367.498905 266.178669 367.498905 266.178669 C 369.419584 268.705878 369.035448 272.11761 369.035448 272.11761 C 365.770294 269.33768 361.352732 270.601284 361.352732 270.601284 C 364.425818 272.749412 365.578226 276.161144 365.578226 276.161144 C 361.5448 274.518459 357.319307 276.666586 357.319307 276.666586 C 363.273411 278.688354 364.041683 284.374574 364.041683 284.374574 C 361.736868 285.006376 359.432053 283.869132 359.432053 283.869132 C 362.121004 291.324399 369.803719 289.681713 369.803719 289.681713 C 374.413349 293.346166 375.18162 299.285107 375.18162 299.285107 C 380.367453 297.895142 383.248472 302.065037 383.248472 302.065037 C 381.711928 304.213165 375.565756 310.910269 375.565756 310.910269 C 378.446774 315.332885 381.519861 318.870978 385.745354 322.914512 C 384.400879 327.463489 377.678503 332.138825 377.678503 332.138825 C 377.678503 332.138825 369.227516 330.243418 362.313072 335.424197 C 362.313072 335.424197 363.849615 337.319604 368.459244 337.319604 C 366.730633 338.456848 364.617886 339.08865 362.889275 343.384906 C 362.889275 343.384906 367.88304 343.511266 370.764059 343.005824 C 369.227516 344.143068 367.498905 345.533033 366.922701 348.818405 C 366.922701 348.818405 376.334028 347.807522 380.559521 343.384906 C 380.559521 343.384906 380.751589 346.164836 381.327793 347.049359 C 381.327793 347.049359 385.553286 345.912115 386.12949 338.583208 C 386.897761 331.254302 393.620138 330.6225 395.924952 331.886104 C 397.461495 326.199884 399.76631 323.419954 399.76631 323.419954 C 404.952143 325.820803 422.046185 323.167233 422.046185 323.167233 C 421.854117 327.084407 427.232018 331.001581 427.232018 331.001581 L 424.158932 335.171476 C 424.158932 335.171476 417.436556 330.243418 411.098315 335.171476 C 411.098315 335.171476 414.36347 336.30872 415.707945 337.572325 C 415.707945 337.572325 411.290383 337.193243 408.793501 340.984057 C 408.793501 340.984057 412.826926 342.500382 415.900013 342.500382 C 414.747605 343.258545 411.674519 344.395789 411.098315 348.186603 C 411.098315 348.186603 417.820692 348.312963 422.238253 345.406673 C 422.238253 345.406673 421.085846 347.681161 421.277914 349.071126 C 421.277914 349.071126 426.079611 347.681161 427.424086 345.533033 C 428.768561 343.384906 432.417851 343.005824 433.186123 343.511266 C 431.841647 336.561441 437.98782 335.297837 437.98782 335.297837 Z M 437.98782 335.297837 " transform="matrix(0.0203379,0,0,0.0309135,15.334452,11.849598)"/>
<path style="fill:none;stroke-width:1.23;stroke-linecap:butt;stroke-linejoin:miter;stroke:rgb(0%,0%,0%);stroke-opacity:1;stroke-miterlimit:4;" d="M 433.378191 318.870978 C 433.378191 318.870978 423.774796 323.040873 422.046185 323.167233 M 414.747605 323.925396 C 414.747605 323.925396 428.768561 317.733734 431.265444 313.184757 M 444.133992 298.779666 C 444.133992 298.779666 448.743622 300.169631 448.93569 304.844967 M 438.756092 324.304477 C 438.756092 324.304477 425.887543 316.217408 432.801987 299.664189 M 385.745354 322.914512 C 385.745354 322.914512 387.666033 316.59649 392.46773 312.552955 M 398.037699 280.078319 C 397.845631 280.58376 393.812205 288.544469 392.659798 294.48341 C 391.507391 300.927793 385.16915 313.311118 379.983317 316.72285 M 399.958378 323.419954 C 399.958378 323.419954 403.4156 317.607373 411.866587 317.607373 C 420.317574 317.607373 425.311339 305.60313 416.668284 292.714364 C 416.668284 292.714364 411.866587 310.910269 402.263193 313.563839 C 392.851866 316.217408 387.281897 307.751258 387.281897 307.751258 M 402.839396 279.193795 C 402.839396 279.193795 391.507391 310.531188 407.641093 318.239175 M 406.680754 294.862492 C 411.674519 283.490051 407.833161 269.084959 407.833161 269.084959 C 410.522112 269.46404 412.826926 271.738529 412.826926 271.738529 C 412.826926 271.738529 418.204827 282.605528 416.668284 292.714364 C 416.668284 292.714364 407.833161 296.126096 398.805971 294.736131 " transform="matrix(0.0203379,0,0,0.0309135,15.334452,11.849598)"/>
<path style="fill-rule:nonzero;fill:rgb(96.078431%,74.117647%,12.941176%);fill-opacity:1;stroke-width:1.23;stroke-linecap:butt;stroke-linejoin:miter;stroke:rgb(0%,0%,0%);stroke-opacity:1;stroke-miterlimit:4;" d="M 400.150446 260.113367 C 400.150446 260.113367 398.421835 256.827995 403.799736 255.31167 C 409.177637 253.668984 412.634859 254.174426 417.820692 258.723402 C 422.814457 263.272378 422.814457 264.535983 428.384425 264.535983 C 428.384425 264.535983 422.046185 279.067435 409.75384 269.33768 Z M 400.150446 260.113367 " transform="matrix(0.0203379,0,0,0.0309135,15.334452,11.849598)"/>
<path style="fill-rule:nonzero;fill:rgb(96.078431%,74.117647%,12.941176%);fill-opacity:1;stroke-width:1.23;stroke-linecap:butt;stroke-linejoin:miter;stroke:rgb(0%,0%,0%);stroke-opacity:1;stroke-miterlimit:4;" d="M 390.739119 269.590401 C 390.739119 269.590401 384.016743 271.991249 378.062639 268.579517 C 378.062639 268.579517 381.519861 276.161144 389.202576 275.655703 C 395.924952 275.276621 395.540816 272.24397 395.156681 271.106726 C 393.236002 268.579517 393.236002 267.821355 390.739119 269.590401 Z M 390.739119 269.590401 " transform="matrix(0.0203379,0,0,0.0309135,15.334452,11.849598)"/>
<path style="fill-rule:nonzero;fill:rgb(96.078431%,74.117647%,12.941176%);fill-opacity:1;stroke-width:1.23;stroke-linecap:butt;stroke-linejoin:miter;stroke:rgb(0%,0%,0%);stroke-opacity:1;stroke-miterlimit:4;" d="M 400.342514 259.860646 C 398.613903 260.366088 386.12949 264.283262 386.12949 264.283262 C 386.321558 267.189552 386.897761 268.453157 387.281897 270.222203 C 389.202576 270.095843 390.739119 269.590401 390.739119 269.590401 C 393.236002 268.705878 394.772545 270.095843 395.156681 271.106726 C 395.540816 272.24397 395.924952 275.276621 389.202576 275.655703 C 388.626372 275.655703 388.050169 275.655703 387.666033 275.655703 C 387.666033 276.792947 387.858101 278.182912 387.858101 278.435633 C 391.891527 280.4574 397.461495 280.962842 401.879057 281.468283 L 407.449026 268.705878 C 407.449026 268.705878 409.945908 268.832238 410.522112 268.705878 C 411.098315 268.705878 412.250723 267.947715 412.250723 267.947715 C 414.36347 265.673227 414.939673 263.525099 414.36347 262.008774 C 413.211062 259.987006 410.71418 259.860646 409.177637 260.366088 C 408.217297 260.87153 406.872822 262.261495 406.872822 262.261495 C 406.680754 259.987006 404.760075 259.481565 403.4156 259.481565 C 401.879057 259.481565 400.918717 259.607925 400.342514 259.860646 Z M 400.342514 259.860646 " transform="matrix(0.0203379,0,0,0.0309135,15.334452,11.849598)"/>
<path style="fill:none;stroke-width:1.23;stroke-linecap:butt;stroke-linejoin:miter;stroke:rgb(0%,0%,0%);stroke-opacity:1;stroke-miterlimit:4;" d="M 400.918717 264.283262 C 400.918717 265.167785 400.150446 265.799587 399.382174 265.799587 C 398.421835 265.799587 397.845631 265.167785 397.845631 264.283262 C 397.845631 263.525099 398.421835 262.766936 399.382174 262.766936 C 400.150446 262.766936 400.918717 263.525099 400.918717 264.283262 Z M 400.918717 264.283262 " transform="matrix(0.0203379,0,0,0.0309135,15.334452,11.849598)"/>
<path style="fill-rule:nonzero;fill:rgb(96.078431%,74.117647%,12.941176%);fill-opacity:1;stroke-width:1.23;stroke-linecap:butt;stroke-linejoin:miter;stroke:rgb(0%,0%,0%);stroke-opacity:1;stroke-miterlimit:4;" d="M 459.883559 262.008774 C 466.029732 263.019657 469.486954 262.514215 471.791768 261.629692 C 471.791768 261.629692 468.718682 270.348564 462.188374 271.359447 C 455.658066 272.370331 451.62464 268.453157 450.664301 267.442273 C 449.703961 266.55775 452.008776 263.65146 452.008776 263.65146 C 452.008776 263.65146 453.929455 260.87153 459.883559 262.008774 Z M 459.883559 262.008774 " transform="matrix(0.0203379,0,0,0.0309135,15.334452,11.849598)"/>
<path style="fill:none;stroke-width:1.23;stroke-linecap:butt;stroke-linejoin:miter;stroke:rgb(0%,0%,0%);stroke-opacity:1;stroke-miterlimit:4;" d="M 383.248472 302.065037 C 383.248472 302.065037 385.16915 299.158747 388.626372 291.071678 " transform="matrix(0.0203379,0,0,0.0309135,15.334452,11.849598)"/>
</g>
</svg>
