<?xml version="1.0" encoding="UTF-8"?>
<svg version="1.1" xmlns="http://www.w3.org/2000/svg" width="48" height="32">
<path d="M0 0 C15.84 0 31.68 0 48 0 C48 10.56 48 21.12 48 32 C32.16 32 16.32 32 0 32 C0 21.44 0 10.88 0 0 Z " fill="#160A98" transform="translate(0,0)"/>
<path d="M0 0 C15.84 0 31.68 0 48 0 C48 3.3 48 6.6 48 10 C42.06 10 36.12 10 30 10 C30 8.68 30 7.36 30 6 C28.39679026 5.80448662 26.79237014 5.61888017 25.1875 5.4375 C23.84751953 5.28087891 23.84751953 5.28087891 22.48046875 5.12109375 C19.86624428 4.84341291 19.86624428 4.84341291 17 6 C17 7.32 17 8.64 17 10 C11.39 10 5.78 10 0 10 C0 6.7 0 3.4 0 0 Z " fill="#FE0101" transform="translate(0,0)"/>
<path d="M0 0 C5.94 0 11.88 0 18 0 C18 3.96 18 7.92 18 12 C11.4 12 4.8 12 -2 12 C-2.33 11.01 -2.66 10.02 -3 9 C-2.34 9 -1.68 9 -1 9 C-0.67 8.01 -0.34 7.02 0 6 C-0.99 6 -1.98 6 -3 6 C-3 5.01 -3 4.02 -3 3 C-2.01 3 -1.02 3 0 3 C0 2.01 0 1.02 0 0 Z " fill="#FFFCFC" transform="translate(30,10)"/>
<path d="M0 0 C5.61 0 11.22 0 17 0 C17 0.99 17 1.98 17 3 C17.99 3 18.98 3 20 3 C20 3.99 20 4.98 20 6 C19.01 6 18.02 6 17 6 C17.33 6.99 17.66 7.98 18 9 C18.66 9 19.32 9 20 9 C19.67 9.99 19.34 10.98 19 12 C12.73 12 6.46 12 0 12 C0 8.04 0 4.08 0 0 Z " fill="#FFFBFB" transform="translate(0,10)"/>
<path d="M0 0 C0.89203125 0.11085938 1.7840625 0.22171875 2.703125 0.3359375 C3.37859375 0.43132813 4.0540625 0.52671875 4.75 0.625 C5.84658936 3.91476808 5.54953138 5.33803767 4.75 8.625 C3.76 8.625 2.77 8.625 1.75 8.625 C1.75 9.615 1.75 10.605 1.75 11.625 C2.74 11.625 3.73 11.625 4.75 11.625 C4.42 12.945 4.09 14.265 3.75 15.625 C3.09 15.295 2.43 14.965 1.75 14.625 C1.42 16.275 1.09 17.925 0.75 19.625 C-0.9 19.625 -2.55 19.625 -4.25 19.625 C-4.58 17.975 -4.91 16.325 -5.25 14.625 C-6.24 14.955 -7.23 15.285 -8.25 15.625 C-8.25 14.305 -8.25 12.985 -8.25 11.625 C-7.26 11.625 -6.27 11.625 -5.25 11.625 C-5.25 10.635 -5.25 9.645 -5.25 8.625 C-6.24 8.625 -7.23 8.625 -8.25 8.625 C-8.58 6.315 -8.91 4.005 -9.25 1.625 C-5.9353333 -0.40407167 -3.8184021 -0.50242133 0 0 Z " fill="#FFAAAA" transform="translate(25.25,4.375)"/>
<path d="M0 0 C0.89203125 0.11085938 1.7840625 0.22171875 2.703125 0.3359375 C3.37859375 0.43132813 4.0540625 0.52671875 4.75 0.625 C5.08 1.615 5.41 2.605 5.75 3.625 C5.42 4.285 5.09 4.945 4.75 5.625 C0.46 5.625 -3.83 5.625 -8.25 5.625 C-8.58 4.305 -8.91 2.985 -9.25 1.625 C-5.9353333 -0.40407167 -3.8184021 -0.50242133 0 0 Z " fill="#3171C1" transform="translate(25.25,4.375)"/>
<path d="M0 0 C0.66 0 1.32 0 2 0 C2 0.99 2 1.98 2 3 C2.99 3 3.98 3 5 3 C5 3.66 5 4.32 5 5 C4.01 5 3.02 5 2 5 C2 5.99 2 6.98 2 8 C2.99 8 3.98 8 5 8 C5.33 8.99 5.66 9.98 6 11 C4.35 11 2.7 11 1 11 C0.67 9.35 0.34 7.7 0 6 C-0.99 6.33 -1.98 6.66 -3 7 C-3 5.68 -3 4.36 -3 3 C-2.01 3 -1.02 3 0 3 C0 2.01 0 1.02 0 0 Z " fill="#FA6063" transform="translate(20,13)"/>
<path d="M0 0 C0.66 0 1.32 0 2 0 C2 0.99 2 1.98 2 3 C2.99 3 3.98 3 5 3 C4.67 4.32 4.34 5.64 4 7 C3.34 6.67 2.68 6.34 2 6 C2 7.32 2 8.64 2 10 C1.34 10 0.68 10 0 10 C0 9.34 0 8.68 0 8 C-0.99 8 -1.98 8 -3 8 C-3 7.01 -3 6.02 -3 5 C-2.01 5 -1.02 5 0 5 C0 3.35 0 1.7 0 0 Z " fill="#FE8080" transform="translate(25,13)"/>
<path d="M0 0 C1.19109375 -0.00386719 1.19109375 -0.00386719 2.40625 -0.0078125 C4.5 0.125 4.5 0.125 6.5 1.125 C6.5 2.115 6.5 3.105 6.5 4.125 C5.51 4.125 4.52 4.125 3.5 4.125 C3.5 3.135 3.5 2.145 3.5 1.125 C1.19 1.125 -1.12 1.125 -3.5 1.125 C-3.5 2.115 -3.5 3.105 -3.5 4.125 C-4.49 4.125 -5.48 4.125 -6.5 4.125 C-6.5 3.135 -6.5 2.145 -6.5 1.125 C-4.13386544 -0.05806728 -2.63219264 -0.00854608 0 0 Z " fill="#F73B3E" transform="translate(23.5,8.875)"/>
</svg>
