<?xml version="1.0" encoding="UTF-8"?>
<svg version="1.1" xmlns="http://www.w3.org/2000/svg" width="48" height="32">
<path d="M0 0 C15.84 0 31.68 0 48 0 C48 10.56 48 21.12 48 32 C32.16 32 16.32 32 0 32 C0 21.44 0 10.88 0 0 Z " fill="#EACD04" transform="translate(0,0)"/>
<path d="M0 0 C15.84 0 31.68 0 48 0 C48 2.97 48 5.94 48 9 C42.28934852 9.19848531 36.5807236 9.34326166 30.86743164 9.43945312 C28.9263205 9.47956608 26.98544932 9.53407356 25.04516602 9.60351562 C8.88122493 10.16732583 8.88122493 10.16732583 4.12939453 7.21875 C0 2.55770503 0 2.55770503 0 0 Z " fill="#32AC2A" transform="translate(0,0)"/>
<path d="M0 0 C1.68216214 0.00031737 3.36434441 0.01165683 5.04638672 0.03173828 C6.37390457 0.03598312 6.37390457 0.03598312 7.72824097 0.04031372 C10.56098834 0.05152838 13.39342206 0.07663508 16.22607422 0.10205078 C18.14403841 0.11207893 20.06200755 0.12120507 21.97998047 0.12939453 C26.68713298 0.15147189 31.39405038 0.18601033 36.10107422 0.22705078 C36.10107422 3.19705078 36.10107422 6.16705078 36.10107422 9.22705078 C20.26107422 9.22705078 4.42107422 9.22705078 -11.89892578 9.22705078 C-4.19965076 0.24456326 -4.19965076 0.24456326 0 0 Z " fill="#32AD2A" transform="translate(11.89892578125,22.77294921875)"/>
<path d="M0 0 C2.31 1.98 4.62 3.96 7 6 C7 6.66 7 7.32 7 8 C7.66 8 8.32 8 9 8 C10.7143618 9.95927063 12.38405168 11.95880212 14 14 C12.33652892 18.10389271 9.41489664 21.06292754 6.4375 24.25 C5.93025391 24.80429687 5.42300781 25.35859375 4.90039062 25.9296875 C3.6244675 27.30924752 2.31496202 28.65759897 1 30 C0.67 30 0.34 30 0 30 C0 20.1 0 10.2 0 0 Z " fill="#D21133" transform="translate(0,1)"/>
<path d="M0 0 C2.29160319 -0.02692484 4.58329546 -0.04636124 6.875 -0.0625 C8.15117187 -0.07410156 9.42734375 -0.08570313 10.7421875 -0.09765625 C14 0 14 0 16 1 C16 1.99 16 2.98 16 4 C16.66 4 17.32 4 18 4 C17.67 5.65 17.34 7.3 17 9 C16.01 8.67 15.02 8.34 14 8 C13.67 8.99 13.34 9.98 13 11 C12 12 12 12 9.49609375 12.09765625 C7.98208984 12.08025391 7.98208984 12.08025391 6.4375 12.0625 C5.42558594 12.05347656 4.41367187 12.04445313 3.37109375 12.03515625 C2.19740234 12.01775391 2.19740234 12.01775391 1 12 C1 11.01 1 10.02 1 9 C0.01 8.67 -0.98 8.34 -2 8 C-1.67 7.34 -1.34 6.68 -1 6 C-1.66 6 -2.32 6 -3 6 C-3 5.34 -3 4.68 -3 4 C-2.01 4 -1.02 4 0 4 C0 2.68 0 1.36 0 0 Z " fill="#F3CD01" transform="translate(22,10)"/>
<path d="M0 0 C3.96 0 7.92 0 12 0 C12 3.96 12 7.92 12 12 C7.38 12 2.76 12 -2 12 C-1.34 10.68 -0.68 9.36 0 8 C0.66 8 1.32 8 2 8 C2.66 6.68 3.32 5.36 4 4 C3.34 4 2.68 4 2 4 C2 3.01 2 2.02 2 1 C1.34 0.67 0.68 0.34 0 0 Z " fill="#F8CF01" transform="translate(36,10)"/>
<path d="M0 0 C0.33 0.66 0.66 1.32 1 2 C1.99 2 2.98 2 4 2 C4 2.66 4 3.32 4 4 C3.34 4 2.68 4 2 4 C2.33 4.99 2.66 5.98 3 7 C1.35 7 -0.3 7 -2 7 C-1.67 6.01 -1.34 5.02 -1 4 C-1.66 4 -2.32 4 -3 4 C-3 3.34 -3 2.68 -3 2 C-2.01 2 -1.02 2 0 2 C0 1.34 0 0.68 0 0 Z " fill="#362D01" transform="translate(22,12)"/>
<path d="M0 0 C-0.33 1.65 -0.66 3.3 -1 5 C-2.32 5 -3.64 5 -5 5 C-5 4.01 -5 3.02 -5 2 C-5.66 2 -6.32 2 -7 2 C-7 1.34 -7 0.68 -7 0 C-3.86650268 -1.04449911 -3.01031744 -0.93423645 0 0 Z " fill="#382E00" transform="translate(40,14)"/>
</svg>
