<svg xmlns="http://www.w3.org/2000/svg" viewBox="0 0 375.55 60.74"><defs><style>.cls-1{fill:none;stroke:#000;stroke-miterlimit:10;stroke-width:6px;}</style></defs><title>logo-black</title><g id="Слой_2" data-name="Слой 2"><g id="Layer_1" data-name="Layer 1"><path d="M0,.91H14.87V32.69H35.78V45.4H0Z"/><path d="M39,.91H77v12.2H53.64v4.51H75.38V28.37H53.64V33.2H77.28V45.4H39Z"/><path d="M81.29.91H95.21L111,20.55V.91h14.74V45.4H112.56L96,24.87V45.4H81.29Z"/><path d="M130.87.91h17c17.67,0,26.5,8.71,26.5,21.86v.13c0,13.16-9,22.5-27,22.5H130.87Zm17.35,31.52c6.8,0,11.19-2.8,11.19-9.21v-.13c0-6.42-4.38-9.22-11.19-9.22h-2.48V32.43Z"/><path d="M201.14,8.94a7.74,7.74,0,0,0-3.5-3.1,11.16,11.16,0,0,0-4.56-1,13.69,13.69,0,0,0-3.44.44,10.2,10.2,0,0,0-3,1.31,6.56,6.56,0,0,0-2.16,2.31,6.75,6.75,0,0,0-.81,3.38A7,7,0,0,0,184.1,15a5.59,5.59,0,0,0,1.53,2.09,11.36,11.36,0,0,0,2.88,1.75,39.68,39.68,0,0,0,4.44,1.63q2.56.81,5,1.75a16.81,16.81,0,0,1,4.25,2.38,10.55,10.55,0,0,1,2.94,3.59,11.9,11.9,0,0,1,1.09,5.41,11.66,11.66,0,0,1-4.78,9.79,15,15,0,0,1-5,2.38,21.65,21.65,0,0,1-5.82.78,22.13,22.13,0,0,1-3.88-.34A18.66,18.66,0,0,1,183,45.12a15,15,0,0,1-3.34-1.88A11.29,11.29,0,0,1,177,40.4l4.5-3.69a9.27,9.27,0,0,0,4,3.69,12.23,12.23,0,0,0,8.85.75,10.33,10.33,0,0,0,3.09-1.47,8,8,0,0,0,2.25-2.41,6.24,6.24,0,0,0,.88-3.31,7.07,7.07,0,0,0-.69-3.34,6.16,6.16,0,0,0-2.13-2.22,16.39,16.39,0,0,0-3.63-1.69L189,25a32.33,32.33,0,0,1-4.38-1.72,13.43,13.43,0,0,1-3.47-2.38,10.15,10.15,0,0,1-2.31-3.38,12,12,0,0,1-.84-4.72,11.78,11.78,0,0,1,1.25-5.57,11.73,11.73,0,0,1,3.38-4A15.36,15.36,0,0,1,187.44.81a20.39,20.39,0,0,1,12.48.34,13.41,13.41,0,0,1,5.53,4Z"/><path d="M214.9,1.13H228a28,28,0,0,1,5.85.59,14.52,14.52,0,0,1,4.94,2,10.29,10.29,0,0,1,3.44,3.75,11.93,11.93,0,0,1,1.28,5.78,11.85,11.85,0,0,1-1.38,6A10.73,10.73,0,0,1,238.63,23,14.49,14.49,0,0,1,233.9,25a22.78,22.78,0,0,1-4.88.56h-8.88V45.4H214.9Zm5.25,19.51H229a10.7,10.7,0,0,0,6.41-1.78,6.37,6.37,0,0,0,2.47-5.53,6.37,6.37,0,0,0-2.47-5.53A10.7,10.7,0,0,0,229,6h-8.88Z"/><path d="M261.73,1.13h4.94L285.49,45.4h-6.13l-4.5-10.88H252.73L248.16,45.4h-5.94Zm2.38,6.75H264l-9.19,21.76h18.07Z"/><path d="M322.39,10.26a12.66,12.66,0,0,0-4.94-4,14.57,14.57,0,0,0-6.13-1.34,15.33,15.33,0,0,0-6.79,1.5,17,17,0,0,0-5.35,4,18.48,18.48,0,0,0-3.5,5.88,19.72,19.72,0,0,0-1.25,7,20.44,20.44,0,0,0,1.25,7.22,18,18,0,0,0,3.47,5.81,16.25,16.25,0,0,0,5.31,3.91,17.16,17.16,0,0,0,14.1-.16,16.45,16.45,0,0,0,5.57-4.6l3.94,3.31a18.22,18.22,0,0,1-7.22,5.88,23.25,23.25,0,0,1-9.54,1.88,22.52,22.52,0,0,1-8.88-1.75,21.85,21.85,0,0,1-7.16-4.85,22.32,22.32,0,0,1-4.75-7.35,24.63,24.63,0,0,1-1.72-9.32,24.93,24.93,0,0,1,1.66-9.13A21.82,21.82,0,0,1,302.25,1.81,22.31,22.31,0,0,1,311.32,0,23.6,23.6,0,0,1,320,1.63a16,16,0,0,1,7,5.32Z"/><path d="M335.39,1.13h27.83V6H340.64V19.88h21.07v4.88H340.64V40.52h23.7V45.4h-29Z"/><polyline class="cls-1" points="172.02 43.83 172.02 57.74 372.55 57.74 372.55 45.4"/></g></g></svg>