<svg xmlns="http://www.w3.org/2000/svg" xmlns:xlink="http://www.w3.org/1999/xlink" width="99" height="38" viewBox="0 0 99 38">
    <defs>
        <path id="a" d="M0 0h28.892v38H0z"/>
    </defs>
    <g fill="none" fill-rule="evenodd">
        <g fill="#000">
            <text font-family="Poppins-Bold, Poppins" font-size="11.2" font-weight="bold" transform="translate(41 5)">
                <tspan x="0" y="12">TLS </tspan> <tspan x="22.781" y="12" font-size="6.2">/</tspan> <tspan x="25.589" y="12"> SSL</tspan>
            </text>
            <text font-family="Poppins-Regular, Poppins" font-size="16" transform="translate(41 5)">
                <tspan x="0" y="28">SECURE</tspan>
            </text>
        </g>
        <g>
            <mask id="b" fill="#fff">
                <use xlink:href="#a"/>
            </mask>
            <path fill="#000" d="M28.892 7.736V7.53l-1.211-.204c-4.637-.777-8.86-2.958-12.212-6.305L14.447 0l-1.024 1.022C10.071 4.369 5.85 6.55 1.214 7.327L0 7.531v16.072c0 8.083 13.307 13.906 13.875 14.15l.572.247.57-.247c.568-.244 13.875-6.067 13.875-14.15v-11.55l-2.903 3.18v8.37c0 4.85-7.852 9.5-11.542 11.21-3.692-1.71-11.544-6.36-11.544-11.21V9.973a25.31 25.31 0 0 0 11.544-5.911 25.29 25.29 0 0 0 11.542 5.91v.945l2.903-3.181z" mask="url(#b)"/>
        </g>
        <path fill="#000" d="M14.371 26.235L6.538 16.184l2.285-1.8 5.723 7.343L28.78 6.131l2.14 1.973z"/>
    </g>
</svg>