<svg width="25" height="24" viewBox="0 0 25 24" fill="none" xmlns="http://www.w3.org/2000/svg">
<g clip-path="url(#clip0_1304_6814)">
<path d="M21.4314 0.223633V22.7765H3.56641V0.223633H17.7886H21.4314Z" fill="#BEDBB9"/>
<path d="M20.2479 5.09014V24.0001H2.38281V1.44727H16.605L20.2479 5.09014Z" fill="#CEE6CA"/>
<path d="M20.2483 5.09014H16.6055V1.44727" fill="#95B98F"/>
<path d="M18.1128 9.5457H15.1864C14.9755 9.5457 14.8047 9.3748 14.8047 9.16396C14.8047 8.95312 14.9755 8.78223 15.1864 8.78223H18.1128C18.3237 8.78223 18.4945 8.95312 18.4945 9.16396C18.4945 9.3748 18.3237 9.5457 18.1128 9.5457Z" fill="#A0C39A"/>
<path d="M13.9127 9.5457H4.52236C4.31147 9.5457 4.14062 9.3748 4.14062 9.16396C4.14062 8.95312 4.31147 8.78223 4.52236 8.78223H13.9127C14.1236 8.78223 14.2945 8.95312 14.2945 9.16396C14.2945 9.3748 14.1236 9.5457 13.9127 9.5457Z" fill="#A0C39A"/>
<path d="M18.1117 11.5633H4.52236C4.31147 11.5633 4.14062 11.3924 4.14062 11.1815C4.14062 10.9707 4.31147 10.7998 4.52236 10.7998H18.1117C18.3226 10.7998 18.4935 10.9707 18.4935 11.1815C18.4935 11.3924 18.3226 11.5633 18.1117 11.5633Z" fill="#A0C39A"/>
<path d="M18.1117 13.5809H4.52236C4.31147 13.5809 4.14062 13.41 4.14062 13.1991C4.14062 12.9883 4.31147 12.8174 4.52236 12.8174H18.1117C18.3226 12.8174 18.4935 12.9883 18.4935 13.1991C18.4935 13.41 18.3226 13.5809 18.1117 13.5809Z" fill="#A0C39A"/>
<path d="M18.1104 15.5984H9.38174C9.17085 15.5984 9 15.4275 9 15.2167C9 15.0059 9.17085 14.835 9.38174 14.835H18.1104C18.3212 14.835 18.4921 15.0059 18.4921 15.2167C18.4921 15.4275 18.3212 15.5984 18.1104 15.5984Z" fill="#A0C39A"/>
<path d="M8.11055 15.5984H4.52236C4.31147 15.5984 4.14062 15.4275 4.14062 15.2167C4.14062 15.0059 4.31147 14.835 4.52236 14.835H8.11055C8.32144 14.835 8.49228 15.0059 8.49228 15.2167C8.49233 15.4275 8.32144 15.5984 8.11055 15.5984Z" fill="#A0C39A"/>
<path d="M18.1117 17.616H4.52236C4.31147 17.616 4.14062 17.4451 4.14062 17.2343C4.14062 17.0234 4.31147 16.8525 4.52236 16.8525H18.1117C18.3226 16.8525 18.4935 17.0234 18.4935 17.2343C18.4935 17.4451 18.3226 17.616 18.1117 17.616Z" fill="#A0C39A"/>
</g>
<defs>
<clipPath id="clip0_1304_6814">
<rect width="25" height="24" fill="white"/>
</clipPath>
</defs>
</svg>
