<svg width="47" height="47" viewBox="0 0 47 47" fill="none" xmlns="http://www.w3.org/2000/svg">
<circle opacity="0.5" cx="23.5" cy="23.5" r="23" stroke="#E6EDF2"/>
<g clip-path="url(#clip0_1300_5647)">
<path d="M33.4314 11.2236V33.7765H15.5664V11.2236H29.7886H33.4314Z" fill="#BEDBB9"/>
<path d="M32.2479 16.0901V35.0001H14.3828V12.4473H28.605L32.2479 16.0901Z" fill="#CEE6CA"/>
<path d="M32.2483 16.0901H28.6055V12.4473" fill="#95B98F"/>
<path d="M30.1128 20.5457H27.1864C26.9755 20.5457 26.8047 20.3748 26.8047 20.164C26.8047 19.9531 26.9755 19.7822 27.1864 19.7822H30.1128C30.3237 19.7822 30.4945 19.9531 30.4945 20.164C30.4945 20.3748 30.3237 20.5457 30.1128 20.5457Z" fill="#A0C39A"/>
<path d="M25.9127 20.5457H16.5224C16.3115 20.5457 16.1406 20.3748 16.1406 20.164C16.1406 19.9531 16.3115 19.7822 16.5224 19.7822H25.9127C26.1236 19.7822 26.2945 19.9531 26.2945 20.164C26.2945 20.3748 26.1236 20.5457 25.9127 20.5457Z" fill="#A0C39A"/>
<path d="M30.1117 22.5633H16.5224C16.3115 22.5633 16.1406 22.3924 16.1406 22.1815C16.1406 21.9707 16.3115 21.7998 16.5224 21.7998H30.1117C30.3226 21.7998 30.4935 21.9707 30.4935 22.1815C30.4935 22.3924 30.3226 22.5633 30.1117 22.5633Z" fill="#A0C39A"/>
<path d="M30.1117 24.5809H16.5224C16.3115 24.5809 16.1406 24.41 16.1406 24.1991C16.1406 23.9883 16.3115 23.8174 16.5224 23.8174H30.1117C30.3226 23.8174 30.4935 23.9883 30.4935 24.1991C30.4935 24.41 30.3226 24.5809 30.1117 24.5809Z" fill="#A0C39A"/>
<path d="M30.1104 26.5984H21.3817C21.1708 26.5984 21 26.4275 21 26.2167C21 26.0059 21.1708 25.835 21.3817 25.835H30.1104C30.3212 25.835 30.4921 26.0059 30.4921 26.2167C30.4921 26.4275 30.3212 26.5984 30.1104 26.5984Z" fill="#A0C39A"/>
<path d="M20.1105 26.5984H16.5224C16.3115 26.5984 16.1406 26.4275 16.1406 26.2167C16.1406 26.0059 16.3115 25.835 16.5224 25.835H20.1105C20.3214 25.835 20.4923 26.0059 20.4923 26.2167C20.4923 26.4275 20.3214 26.5984 20.1105 26.5984Z" fill="#A0C39A"/>
<path d="M30.1117 28.616H16.5224C16.3115 28.616 16.1406 28.4451 16.1406 28.2343C16.1406 28.0234 16.3115 27.8525 16.5224 27.8525H30.1117C30.3226 27.8525 30.4935 28.0234 30.4935 28.2343C30.4935 28.4451 30.3226 28.616 30.1117 28.616Z" fill="#A0C39A"/>
</g>
<defs>
<clipPath id="clip0_1300_5647">
<rect width="25" height="24" fill="white" transform="translate(12 11)"/>
</clipPath>
</defs>
</svg>
