<svg width="47" height="47" viewBox="0 0 47 47" fill="none" xmlns="http://www.w3.org/2000/svg">
<circle opacity="0.5" cx="23.5" cy="23.5" r="23" stroke="#E6EDF2"/>
<g clip-path="url(#clip0_1304_6768)" transform="translate(11 10)">
<path d="M13.1789 23.7707V20.3105H9.50391V23.7707C9.50391 24.4496 10.0542 24.9999 10.7332 24.9999H12.1857C12.7225 24.8319 13.1789 24.3246 13.1789 23.7707Z" fill="#7FB376"/>
<path d="M13.8686 22.3175C13.8686 22.9258 13.3754 23.4189 12.7671 23.4189H12.7332V23.7707C12.7332 24.4496 12.1828 24.9999 11.5039 24.9999H14.2703C14.9492 24.9999 15.4995 24.4496 15.4995 23.7707V20.3105H13.8685L13.8686 22.3175Z" fill="#7FB376"/>
<path d="M8.36719 22.3169C8.36719 22.9252 8.8603 23.4184 9.46855 23.4184H13.1775H13.2115C13.8198 23.4184 14.3129 22.9252 14.3129 22.3169V20.3099V16.9531H8.36719V22.3169Z" fill="#BEDBB9"/>
<path d="M14.3127 19.2493C14.6817 19.124 14.9686 18.8094 15.043 18.409C15.1187 18.0017 15.231 17.5674 15.3731 17.1485C15.3756 17.1409 15.3781 17.1334 15.3807 17.1259C15.7277 16.1114 16.2534 15.1591 16.9447 14.3194C18.1898 12.807 18.9375 10.8698 18.9375 8.75788C18.9375 4.51164 15.6593 0.908324 11.6348 0.103343C11.4992 0.0762437 11.36 0.0728745 11.2232 0.0929429C7.02149 0.710667 3.78102 4.33572 3.74254 8.67859C3.72355 10.822 4.47481 12.7893 5.73619 14.3208C6.71236 15.5061 7.35948 16.9156 7.63673 18.4088C7.7337 18.9311 8.19137 19.3087 8.72262 19.3087H14.3126L14.3127 19.2493Z" fill="#CEE6CA"/>
<path d="M14.5974 18.4094C14.5229 18.8099 14.2361 19.1245 13.867 19.2498V22.3179C13.867 22.9262 13.3739 23.4193 12.7656 23.4193H15.532C16.1403 23.4193 16.6334 22.9262 16.6334 22.3179V16.9541H14.9959C14.8235 17.4267 14.6895 17.9132 14.5974 18.4094Z" fill="#A6C6A0"/>
<path d="M12.2495 0.00346749C11.8653 0.0141609 11.4875 0.0502448 11.1172 0.109327C15.2962 0.773145 18.4907 4.39243 18.4907 8.7582C18.4907 10.8702 17.743 12.8072 16.4979 14.3197C15.5216 15.5057 14.8738 16.9156 14.5963 18.4092C14.5219 18.8097 14.2351 19.1243 13.866 19.2496V19.3089H16.2768C16.808 19.3089 17.2656 18.9314 17.3626 18.4092C17.6402 16.9156 18.288 15.5057 19.2643 14.3197C20.5094 12.8073 21.2571 10.8702 21.2571 8.7582C21.2571 3.83833 17.2004 -0.134081 12.2495 0.00346749Z" fill="#BEDBB9"/>
<path d="M13.2115 23.4188C13.8198 23.4188 14.3129 22.9257 14.3129 22.3174V21.3311H8.36719V22.3174C8.36719 22.9257 8.8603 23.4188 9.4686 23.4188H13.1775H13.2115Z" fill="#107500"/>
<path d="M16.6334 22.3174V21.3311H13.867V22.3174C13.867 22.9257 13.3739 23.4188 12.7656 23.4188H15.532C16.1403 23.4188 16.6334 22.9257 16.6334 22.3174Z" fill="#107500"/>
<path d="M17.3558 12.3998C17.3558 11.4464 16.5803 10.6709 15.627 10.6709C14.4615 10.6709 13.4966 11.5823 13.4302 12.7458L13.3943 13.3741H11.6099L11.5741 12.7458C11.5076 11.5823 10.5427 10.6709 9.37734 10.6709C8.42402 10.6709 7.64844 11.4465 7.64844 12.3998C7.64839 12.8615 7.82827 13.2957 8.15478 13.6223C8.48135 13.9488 8.91548 14.1287 9.37729 14.1287H10.8973L11.193 19.3087H11.9477C11.9477 19.3015 11.9479 19.2944 11.9475 19.2872L11.6531 14.1287H13.3514L13.0569 19.2872C13.0565 19.2944 13.0568 19.3016 13.0568 19.3087H13.8115L14.1071 14.1287H15.6271C16.5803 14.1287 17.3558 13.3531 17.3558 12.3998ZM9.3772 13.3741C9.11694 13.3741 8.87227 13.2728 8.68823 13.0887C8.5042 12.9047 8.40288 12.66 8.40288 12.3998C8.40293 11.8625 8.84004 11.4254 9.37729 11.4254C10.1431 11.4254 10.7771 12.0243 10.8208 12.7888L10.8542 13.3741H9.3772ZM15.627 13.3741H14.1501L14.1835 12.7888C14.2271 12.0243 14.8612 11.4254 15.627 11.4254C16.1642 11.4254 16.6013 11.8625 16.6013 12.3998C16.6013 12.937 16.1642 13.3741 15.627 13.3741Z" fill="white"/>
</g>
<defs>
<clipPath id="clip0_1304_6768">
<rect width="47" height="47" fill="white" />
</clipPath>
</defs>
</svg>
