<svg xmlns="http://www.w3.org/2000/svg" width="16" height="16" viewBox="0 0 16 16">
    <g fill="#677380" fill-rule="evenodd">
        <path d="M8.5 14h-6c-.276 0-.5-.224-.5-.5v-3c0-.277.224-.5.5-.5h6c.277 0 .5.223.5.5v3c0 .276-.223.5-.5.5zM3 13h5v-2H3v2zm14.5-5h-6c-.276 0-.5-.223-.5-.5v-3c0-.276.224-.5.5-.5h6c.277 0 .5.224.5.5v3c0 .277-.223.5-.5.5zM12 7h5V5h-5v2zM5.5 8c-.276 0-.5-.223-.5-.5v-6c0-.276.224-.5.5-.5s.5.224.5.5v6c0 .277-.224.5-.5.5zM14.5 17c-.276 0-.5-.224-.5-.5v-6c0-.277.224-.5.5-.5.277 0 .5.223.5.5v6c0 .276-.223.5-.5.5z" transform="translate(-2 -1)"/>
        <path d="M5.5 17c-.276 0-.5-.224-.5-.5v-3c0-.277.224-.5.5-.5s.5.223.5.5v3c0 .276-.224.5-.5.5zM14.5 5c-.276 0-.5-.224-.5-.5v-3c0-.276.224-.5.5-.5.277 0 .5.224.5.5v3c0 .276-.223.5-.5.5z" transform="translate(-2 -1)"/>
    </g>
</svg>
