<svg xmlns="http://www.w3.org/2000/svg" width="16" height="16">
    <path fill="#686F76" fill-opacity=".702" fill-rule="evenodd" d="M14.5 15.998h-13a1.5 1.5 0 0 1-1.5-1.5v-13A1.5 1.5 0 0 1 1.5-.001h13A1.5 1.5 0 0 1 16 1.498v13a1.5 1.5 0 0 1-1.5 1.5zm.5-14.5a.5.5 0 0 0-.5-.499h-13a.5.5 0 0 0-.5.499v13a.5.5 0 0 0 .5.5h13a.5.5 0 0 0 .5-.5v-13zm-2 11.5H5v1H4v-1H3a.5.5 0 1 1 0-1h1v-1h1v1h8a.5.5 0 0 1 0 1zm0-3.999h-1v.999h-1v-.999H3a.5.5 0 0 1 0-1.001h8v-1h1v1h1a.5.5 0 0 1 0 1.001zm0-4.001H8v1H7v-1H3a.5.5 0 1 1 0-.999h4V2.998h1v1.001h5a.5.5 0 1 1 0 .999z"/>
</svg>
