<svg xmlns="http://www.w3.org/2000/svg" width="16" height="16" viewBox="0 0 16 16">
    <path fill="#677380" fill-rule="evenodd" d="M15.5 11c.277 0 .5.223.5.5v4c0 .276-.223.5-.5.5h-9c-.277 0-.5-.224-.5-.5v-4c0-.277.223-.5.5-.5h9zm-.5 1H7v3h8v-3zM.5 0c.276 0 .5.224.5.5L.999 5H3.5c.276 0 .5.224.5.5 0 .277-.224.5-.5.5H1v7H3.5c.276 0 .5.224.5.5s-.224.5-.5.5h-3c-.276 0-.5-.224-.5-.5V.5C0 .224.224 0 .5 0zm15 3c.277 0 .5.224.5.5v4c0 .277-.223.5-.5.5h-9c-.277 0-.5-.223-.5-.5v-4c0-.276.223-.5.5-.5h9zM15 4H7v3h8V4z"/>
</svg>
