<svg width="49" height="73" viewBox="0 0 49 73" fill="none" xmlns="http://www.w3.org/2000/svg">
<rect x="3" width="44" height="44" rx="10" fill="#0DD99C"/>
<path d="M34.97 28.33C34.97 28.69 34.89 29.06 34.72 29.42C34.55 29.78 34.33 30.12 34.04 30.44C33.55 30.98 33.01 31.37 32.4 31.62C31.8 31.87 31.15 32 30.45 32C29.43 32 28.34 31.76 27.19 31.27C26.04 30.78 24.89 30.12 23.75 29.29C22.6 28.45 21.51 27.52 20.47 26.49C19.44 25.45 18.51 24.36 17.68 23.22C16.86 22.08 16.2 20.94 15.72 19.81C15.24 18.67 15 17.58 15 16.54C15 15.86 15.12 15.21 15.36 14.61C15.6 14 15.98 13.44 16.51 12.94C17.15 12.31 17.85 12 18.59 12C18.87 12 19.15 12.06 19.4 12.18C19.66 12.3 19.89 12.48 20.07 12.74L22.39 16.01C22.57 16.26 22.7 16.49 22.79 16.71C22.88 16.92 22.93 17.13 22.93 17.32C22.93 17.56 22.86 17.8 22.72 18.03C22.59 18.26 22.4 18.5 22.16 18.74L21.4 19.53C21.29 19.64 21.24 19.77 21.24 19.93C21.24 20.01 21.25 20.08 21.27 20.16C21.3 20.24 21.33 20.3 21.35 20.36C21.53 20.69 21.84 21.12 22.28 21.64C22.73 22.16 23.21 22.69 23.73 23.22C24.27 23.75 24.79 24.24 25.32 24.69C25.84 25.13 26.27 25.43 26.61 25.61C26.66 25.63 26.72 25.66 26.79 25.69C26.87 25.72 26.95 25.73 27.04 25.73C27.21 25.73 27.34 25.67 27.45 25.56L28.21 24.81C28.46 24.56 28.7 24.37 28.93 24.25C29.16 24.11 29.39 24.04 29.64 24.04C29.83 24.04 30.03 24.08 30.25 24.17C30.47 24.26 30.7 24.39 30.95 24.56L34.26 26.91C34.52 27.09 34.7 27.3 34.81 27.55C34.91 27.8 34.97 28.05 34.97 28.33Z" stroke="white" stroke-width="1.3" stroke-miterlimit="10"/>
<path d="M5.98267 65.156C5.298 65.156 4.66533 65.0347 4.08467 64.792C3.51267 64.5407 3.01 64.1897 2.57667 63.739C2.152 63.2883 1.82267 62.7597 1.58867 62.153C1.35467 61.5463 1.23767 60.8833 1.23767 60.164C1.23767 59.436 1.35467 58.7687 1.58867 58.162C1.82267 57.5553 2.152 57.0267 2.57667 56.576C3.00133 56.1253 3.504 55.7787 4.08467 55.536C4.66533 55.2847 5.298 55.159 5.98267 55.159C6.65 55.159 7.248 55.276 7.77667 55.51C8.314 55.744 8.76467 56.0473 9.12867 56.42C9.50133 56.7927 9.76567 57.1913 9.92167 57.616L8.75167 58.149C8.52634 57.6117 8.17533 57.1783 7.69867 56.849C7.222 56.511 6.65 56.342 5.98267 56.342C5.30667 56.342 4.70433 56.5023 4.17567 56.823C3.65567 57.1437 3.24833 57.59 2.95367 58.162C2.659 58.734 2.51167 59.4013 2.51167 60.164C2.51167 60.918 2.659 61.581 2.95367 62.153C3.24833 62.725 3.65567 63.1713 4.17567 63.492C4.70433 63.8127 5.30667 63.973 5.98267 63.973C6.65 63.973 7.222 63.8083 7.69867 63.479C8.17533 63.141 8.52634 62.7033 8.75167 62.166L9.92167 62.699C9.76567 63.1237 9.50133 63.5223 9.12867 63.895C8.76467 64.2677 8.314 64.571 7.77667 64.805C7.248 65.039 6.65 65.156 5.98267 65.156ZM13.1786 65.156C12.7192 65.156 12.3119 65.0737 11.9566 64.909C11.6099 64.7357 11.3369 64.5017 11.1376 64.207C10.9382 63.9037 10.8386 63.557 10.8386 63.167C10.8386 62.7943 10.9166 62.4607 11.0726 62.166C11.2372 61.8627 11.4886 61.607 11.8266 61.399C12.1732 61.191 12.6066 61.0437 13.1266 60.957L15.7266 60.528V61.542L13.3996 61.932C12.9489 62.01 12.6196 62.153 12.4116 62.361C12.2122 62.569 12.1126 62.8247 12.1126 63.128C12.1126 63.414 12.2252 63.6523 12.4506 63.843C12.6846 64.0337 12.9749 64.129 13.3216 64.129C13.7636 64.129 14.1449 64.038 14.4656 63.856C14.7949 63.6653 15.0506 63.4097 15.2326 63.089C15.4232 62.7683 15.5186 62.413 15.5186 62.023V60.242C15.5186 59.8607 15.3756 59.553 15.0896 59.319C14.8122 59.0763 14.4439 58.955 13.9846 58.955C13.5859 58.955 13.2306 59.059 12.9186 59.267C12.6152 59.4663 12.3899 59.735 12.2426 60.073L11.1896 59.527C11.3196 59.2063 11.5276 58.9203 11.8136 58.669C12.0996 58.409 12.4332 58.2053 12.8146 58.058C13.1959 57.9107 13.5946 57.837 14.0106 57.837C14.5479 57.837 15.0202 57.941 15.4276 58.149C15.8349 58.3483 16.1512 58.63 16.3766 58.994C16.6106 59.3493 16.7276 59.7653 16.7276 60.242V65H15.5446V63.674L15.7656 63.752C15.6182 64.0293 15.4189 64.272 15.1676 64.48C14.9162 64.688 14.6216 64.8527 14.2836 64.974C13.9456 65.0953 13.5772 65.156 13.1786 65.156ZM18.3421 65V55.159H19.5511V65H18.3421ZM21.1671 65V55.159H22.3761V65H21.1671ZM26.1221 65V55.315H27.3961V63.83H31.6471V65H26.1221ZM36.0041 65.156C35.3281 65.156 34.7171 65 34.1711 64.688C33.6251 64.3673 33.1918 63.9297 32.8711 63.375C32.5505 62.8203 32.3901 62.192 32.3901 61.49C32.3901 60.788 32.5461 60.164 32.8581 59.618C33.1788 59.072 33.6121 58.6387 34.1581 58.318C34.7041 57.9973 35.3195 57.837 36.0041 57.837C36.6801 57.837 37.2911 57.9973 37.8371 58.318C38.3831 58.63 38.8121 59.059 39.1241 59.605C39.4448 60.151 39.6051 60.7793 39.6051 61.49C39.6051 62.2007 39.4405 62.8333 39.1111 63.388C38.7818 63.934 38.3441 64.3673 37.7981 64.688C37.2608 65 36.6628 65.156 36.0041 65.156ZM36.0041 63.986C36.4375 63.986 36.8275 63.8777 37.1741 63.661C37.5295 63.4443 37.8068 63.1453 38.0061 62.764C38.2141 62.3827 38.3181 61.958 38.3181 61.49C38.3181 61.0133 38.2141 60.593 38.0061 60.229C37.8068 59.8563 37.5295 59.5617 37.1741 59.345C36.8275 59.1197 36.4375 59.007 36.0041 59.007C35.5621 59.007 35.1635 59.1197 34.8081 59.345C34.4615 59.5617 34.1841 59.8563 33.9761 60.229C33.7681 60.593 33.6641 61.0133 33.6641 61.49C33.6641 61.958 33.7681 62.3827 33.9761 62.764C34.1841 63.1453 34.4615 63.4443 34.8081 63.661C35.1635 63.8777 35.5621 63.986 36.0041 63.986ZM44.263 67.86C43.769 67.86 43.3097 67.782 42.885 67.626C42.469 67.47 42.1093 67.2533 41.806 66.976C41.5113 66.7073 41.286 66.391 41.13 66.027L42.261 65.507C42.3823 65.8363 42.612 66.1137 42.95 66.339C43.2967 66.573 43.73 66.69 44.25 66.69C44.6487 66.69 45.0083 66.612 45.329 66.456C45.6583 66.3087 45.9183 66.0833 46.109 65.78C46.2997 65.4853 46.395 65.1257 46.395 64.701V63.128L46.616 63.362C46.3733 63.8387 46.0223 64.2027 45.563 64.454C45.1123 64.7053 44.614 64.831 44.068 64.831C43.4093 64.831 42.82 64.6793 42.3 64.376C41.78 64.064 41.3727 63.6437 41.078 63.115C40.7833 62.5777 40.636 61.984 40.636 61.334C40.636 60.6753 40.7833 60.0817 41.078 59.553C41.3727 59.0243 41.7757 58.6083 42.287 58.305C42.807 57.993 43.3963 57.837 44.055 57.837C44.601 57.837 45.095 57.9627 45.537 58.214C45.9877 58.4567 46.3473 58.7947 46.616 59.228L46.434 59.553V57.993H47.617V64.701C47.617 65.3077 47.474 65.8493 47.188 66.326C46.902 66.8027 46.5033 67.1753 45.992 67.444C45.4893 67.7213 44.913 67.86 44.263 67.86ZM44.172 63.661C44.588 63.661 44.9607 63.557 45.29 63.349C45.628 63.141 45.8967 62.8637 46.096 62.517C46.2953 62.1617 46.395 61.7673 46.395 61.334C46.395 60.9093 46.2953 60.5193 46.096 60.164C45.8967 59.8087 45.628 59.527 45.29 59.319C44.9607 59.111 44.588 59.007 44.172 59.007C43.7473 59.007 43.3617 59.111 43.015 59.319C42.6683 59.527 42.3953 59.8087 42.196 60.164C42.0053 60.5107 41.91 60.9007 41.91 61.334C41.91 61.7673 42.0053 62.1617 42.196 62.517C42.3953 62.8637 42.664 63.141 43.002 63.349C43.3487 63.557 43.7387 63.661 44.172 63.661Z" fill="#10213A"/>
</svg>
