<svg width="49" height="43" viewBox="0 0 49 43" fill="none" xmlns="http://www.w3.org/2000/svg">
<rect x="3" width="44" height="44" rx="10" fill="#0DD99C"/>
<path d="M34.97 28.33C34.97 28.69 34.89 29.06 34.72 29.42C34.55 29.78 34.33 30.12 34.04 30.44C33.55 30.98 33.01 31.37 32.4 31.62C31.8 31.87 31.15 32 30.45 32C29.43 32 28.34 31.76 27.19 31.27C26.04 30.78 24.89 30.12 23.75 29.29C22.6 28.45 21.51 27.52 20.47 26.49C19.44 25.45 18.51 24.36 17.68 23.22C16.86 22.08 16.2 20.94 15.72 19.81C15.24 18.67 15 17.58 15 16.54C15 15.86 15.12 15.21 15.36 14.61C15.6 14 15.98 13.44 16.51 12.94C17.15 12.31 17.85 12 18.59 12C18.87 12 19.15 12.06 19.4 12.18C19.66 12.3 19.89 12.48 20.07 12.74L22.39 16.01C22.57 16.26 22.7 16.49 22.79 16.71C22.88 16.92 22.93 17.13 22.93 17.32C22.93 17.56 22.86 17.8 22.72 18.03C22.59 18.26 22.4 18.5 22.16 18.74L21.4 19.53C21.29 19.64 21.24 19.77 21.24 19.93C21.24 20.01 21.25 20.08 21.27 20.16C21.3 20.24 21.33 20.3 21.35 20.36C21.53 20.69 21.84 21.12 22.28 21.64C22.73 22.16 23.21 22.69 23.73 23.22C24.27 23.75 24.79 24.24 25.32 24.69C25.84 25.13 26.27 25.43 26.61 25.61C26.66 25.63 26.72 25.66 26.79 25.69C26.87 25.72 26.95 25.73 27.04 25.73C27.21 25.73 27.34 25.67 27.45 25.56L28.21 24.81C28.46 24.56 28.7 24.37 28.93 24.25C29.16 24.11 29.39 24.04 29.64 24.04C29.83 24.04 30.03 24.08 30.25 24.17C30.47 24.26 30.7 24.39 30.95 24.56L34.26 26.91C34.52 27.09 34.7 27.3 34.81 27.55C34.91 27.8 34.97 28.05 34.97 28.33Z" stroke="white" stroke-width="1.3" stroke-miterlimit="10"/>
</svg>
