<svg width="18" height="18" viewBox="0 0 18 18" fill="none" xmlns="http://www.w3.org/2000/svg">
<path d="M17.3083 14.275C17.3083 14.575 17.2417 14.8834 17.1 15.1834C16.9583 15.4834 16.775 15.7667 16.5333 16.0334C16.125 16.4834 15.675 16.8084 15.1667 17.0167C14.6667 17.225 14.125 17.3334 13.5417 17.3334C12.6917 17.3334 11.7833 17.1334 10.825 16.725C9.86666 16.3167 8.90832 15.7667 7.95832 15.075C6.99999 14.375 6.09166 13.6 5.22499 12.7417C4.36666 11.875 3.59166 10.9667 2.89999 10.0167C2.21666 9.06669 1.66666 8.11669 1.26666 7.17502C0.866657 6.22502 0.666656 5.31669 0.666656 4.45002C0.666656 3.88335 0.766656 3.34169 0.966656 2.84169C1.16666 2.33335 1.48332 1.86669 1.92499 1.45002C2.45832 0.92502 3.04166 0.666687 3.65832 0.666687C3.89166 0.666687 4.12499 0.716687 4.33332 0.816687C4.54999 0.916687 4.74166 1.06669 4.89166 1.28335L6.82499 4.00835C6.97499 4.21669 7.08332 4.40835 7.15832 4.59169C7.23332 4.76669 7.27499 4.94169 7.27499 5.10002C7.27499 5.30002 7.21666 5.50002 7.09999 5.69169C6.99166 5.88335 6.83332 6.08335 6.63332 6.28335L5.99999 6.94169C5.90832 7.03335 5.86666 7.14169 5.86666 7.27502C5.86666 7.34169 5.87499 7.40002 5.89166 7.46669C5.91666 7.53335 5.94166 7.58335 5.95832 7.63335C6.10832 7.90835 6.36666 8.26669 6.73332 8.70002C7.10832 9.13335 7.50832 9.57502 7.94166 10.0167C8.39166 10.4584 8.82499 10.8667 9.26666 11.2417C9.69999 11.6084 10.0583 11.8584 10.3417 12.0084C10.3833 12.025 10.4333 12.05 10.4917 12.075C10.5583 12.1 10.625 12.1084 10.7 12.1084C10.8417 12.1084 10.95 12.0584 11.0417 11.9667L11.675 11.3417C11.8833 11.1334 12.0833 10.975 12.275 10.875C12.4667 10.7584 12.6583 10.7 12.8667 10.7C13.025 10.7 13.1917 10.7334 13.375 10.8084C13.5583 10.8834 13.75 10.9917 13.9583 11.1334L16.7167 13.0917C16.9333 13.2417 17.0833 13.4167 17.175 13.625C17.2583 13.8334 17.3083 14.0417 17.3083 14.275Z" stroke="#08295B" stroke-width="1.3" stroke-miterlimit="10"/>
</svg>