<svg width="53" height="43" viewBox="0 0 53 43" fill="none" xmlns="http://www.w3.org/2000/svg">
<rect x="6" width="44" height="44" rx="10" fill="#595FED"/>
<path d="M28.1187 22.7814C28.0487 22.7714 27.9587 22.7714 27.8787 22.7814C26.1187 22.7214 24.7188 21.2814 24.7188 19.5114C24.7188 17.7014 26.1787 16.2314 27.9987 16.2314C29.8087 16.2314 31.2787 17.7014 31.2787 19.5114C31.2687 21.2814 29.8787 22.7214 28.1187 22.7814Z" stroke="white" stroke-width="1.3" stroke-linecap="round" stroke-linejoin="round"/>
<path d="M34.7378 29.3796C32.9578 31.0096 30.5978 31.9996 27.9978 31.9996C25.3978 31.9996 23.0378 31.0096 21.2578 29.3796C21.3578 28.4396 21.9578 27.5196 23.0278 26.7996C25.7678 24.9796 30.2478 24.9796 32.9678 26.7996C34.0378 27.5196 34.6378 28.4396 34.7378 29.3796Z" stroke="white" stroke-width="1.3" stroke-linecap="round" stroke-linejoin="round"/>
<path d="M27.9961 31.999C33.5189 31.999 37.9961 27.5219 37.9961 21.999C37.9961 16.4762 33.5189 11.999 27.9961 11.999C22.4732 11.999 17.9961 16.4762 17.9961 21.999C17.9961 27.5219 22.4732 31.999 27.9961 31.999Z" stroke="white" stroke-width="1.3" stroke-linecap="round" stroke-linejoin="round"/>
</svg>
