<svg width="57" height="72" viewBox="0 0 57 72" fill="none" xmlns="http://www.w3.org/2000/svg">
<rect x="6" width="44" height="44" rx="10" fill="#595FED"/>
<path d="M28.1187 22.7814C28.0487 22.7714 27.9587 22.7714 27.8787 22.7814C26.1187 22.7214 24.7188 21.2814 24.7188 19.5114C24.7188 17.7014 26.1787 16.2314 27.9987 16.2314C29.8087 16.2314 31.2787 17.7014 31.2787 19.5114C31.2687 21.2814 29.8787 22.7214 28.1187 22.7814Z" stroke="white" stroke-width="1.3" stroke-linecap="round" stroke-linejoin="round"/>
<path d="M34.7378 29.3796C32.9578 31.0096 30.5978 31.9996 27.9978 31.9996C25.3978 31.9996 23.0378 31.0096 21.2578 29.3796C21.3578 28.4396 21.9578 27.5196 23.0278 26.7996C25.7678 24.9796 30.2478 24.9796 32.9678 26.7996C34.0378 27.5196 34.6378 28.4396 34.7378 29.3796Z" stroke="white" stroke-width="1.3" stroke-linecap="round" stroke-linejoin="round"/>
<path d="M27.9961 31.999C33.5189 31.999 37.9961 27.5219 37.9961 21.999C37.9961 16.4762 33.5189 11.999 27.9961 11.999C22.4732 11.999 17.9961 16.4762 17.9961 21.999C17.9961 27.5219 22.4732 31.999 27.9961 31.999Z" stroke="white" stroke-width="1.3" stroke-linecap="round" stroke-linejoin="round"/>
<path d="M5.83765 64.156C5.15298 64.156 4.52031 64.0347 3.93965 63.792C3.36765 63.5407 2.86498 63.1897 2.43165 62.739C2.00698 62.2883 1.67765 61.7597 1.44365 61.153C1.20965 60.5463 1.09265 59.8833 1.09265 59.164C1.09265 58.436 1.20965 57.7687 1.44365 57.162C1.67765 56.5553 2.00698 56.0267 2.43165 55.576C2.85632 55.1253 3.35898 54.7787 3.93965 54.536C4.52031 54.2847 5.15298 54.159 5.83765 54.159C6.50498 54.159 7.10298 54.276 7.63165 54.51C8.16898 54.744 8.61965 55.0473 8.98365 55.42C9.35632 55.7927 9.62065 56.1913 9.77665 56.616L8.60665 57.149C8.38132 56.6117 8.03032 56.1783 7.55365 55.849C7.07698 55.511 6.50498 55.342 5.83765 55.342C5.16165 55.342 4.55932 55.5023 4.03065 55.823C3.51065 56.1437 3.10332 56.59 2.80865 57.162C2.51398 57.734 2.36665 58.4013 2.36665 59.164C2.36665 59.918 2.51398 60.581 2.80865 61.153C3.10332 61.725 3.51065 62.1713 4.03065 62.492C4.55932 62.8127 5.16165 62.973 5.83765 62.973C6.50498 62.973 7.07698 62.8083 7.55365 62.479C8.03032 62.141 8.38132 61.7033 8.60665 61.166L9.77665 61.699C9.62065 62.1237 9.35632 62.5223 8.98365 62.895C8.61965 63.2677 8.16898 63.571 7.63165 63.805C7.10298 64.039 6.50498 64.156 5.83765 64.156ZM14.3076 64.156C13.6316 64.156 13.0206 64 12.4746 63.688C11.9286 63.3673 11.4952 62.9297 11.1746 62.375C10.8539 61.8203 10.6936 61.192 10.6936 60.49C10.6936 59.788 10.8496 59.164 11.1616 58.618C11.4822 58.072 11.9156 57.6387 12.4616 57.318C13.0076 56.9973 13.6229 56.837 14.3076 56.837C14.9836 56.837 15.5946 56.9973 16.1406 57.318C16.6866 57.63 17.1156 58.059 17.4276 58.605C17.7482 59.151 17.9086 59.7793 17.9086 60.49C17.9086 61.2007 17.7439 61.8333 17.4146 62.388C17.0852 62.934 16.6476 63.3673 16.1016 63.688C15.5642 64 14.9662 64.156 14.3076 64.156ZM14.3076 62.986C14.7409 62.986 15.1309 62.8777 15.4776 62.661C15.8329 62.4443 16.1102 62.1453 16.3096 61.764C16.5176 61.3827 16.6216 60.958 16.6216 60.49C16.6216 60.0133 16.5176 59.593 16.3096 59.229C16.1102 58.8563 15.8329 58.5617 15.4776 58.345C15.1309 58.1197 14.7409 58.007 14.3076 58.007C13.8656 58.007 13.4669 58.1197 13.1116 58.345C12.7649 58.5617 12.4876 58.8563 12.2796 59.229C12.0716 59.593 11.9676 60.0133 11.9676 60.49C11.9676 60.958 12.0716 61.3827 12.2796 61.764C12.4876 62.1453 12.7649 62.4443 13.1116 62.661C13.4669 62.8777 13.8656 62.986 14.3076 62.986ZM19.2254 64V56.993H20.4084V58.358L20.2134 58.241C20.3867 57.799 20.6641 57.4567 21.0454 57.214C21.4354 56.9627 21.8904 56.837 22.4104 56.837C22.9131 56.837 23.3594 56.9497 23.7494 57.175C24.1481 57.4003 24.4601 57.7123 24.6854 58.111C24.9194 58.5097 25.0364 58.9603 25.0364 59.463V64H23.8144V59.853C23.8144 59.463 23.7451 59.1337 23.6064 58.865C23.4677 58.5963 23.2684 58.3883 23.0084 58.241C22.7571 58.085 22.4667 58.007 22.1374 58.007C21.8081 58.007 21.5134 58.085 21.2534 58.241C21.0021 58.3883 20.8027 58.6007 20.6554 58.878C20.5081 59.1467 20.4344 59.4717 20.4344 59.853V64H19.2254ZM29.3534 64.078C28.6688 64.078 28.1401 63.883 27.7674 63.493C27.4034 63.103 27.2214 62.5527 27.2214 61.842V58.15H25.9474V56.993H26.2074C26.5194 56.993 26.7664 56.8977 26.9484 56.707C27.1304 56.5163 27.2214 56.265 27.2214 55.953V55.381H28.4304V56.993H30.0034V58.15H28.4304V61.803C28.4304 62.037 28.4651 62.2407 28.5344 62.414C28.6124 62.5873 28.7381 62.726 28.9114 62.83C29.0848 62.9253 29.3144 62.973 29.6004 62.973C29.6611 62.973 29.7348 62.9687 29.8214 62.96C29.9168 62.9513 30.0034 62.9427 30.0814 62.934V64C29.9688 64.026 29.8431 64.0433 29.7044 64.052C29.5658 64.0693 29.4488 64.078 29.3534 64.078ZM33.3659 64.156C32.9065 64.156 32.4992 64.0737 32.1439 63.909C31.7972 63.7357 31.5242 63.5017 31.3249 63.207C31.1255 62.9037 31.0259 62.557 31.0259 62.167C31.0259 61.7943 31.1039 61.4607 31.2599 61.166C31.4245 60.8627 31.6759 60.607 32.0139 60.399C32.3605 60.191 32.7939 60.0437 33.3139 59.957L35.9139 59.528V60.542L33.5869 60.932C33.1362 61.01 32.8069 61.153 32.5989 61.361C32.3995 61.569 32.2999 61.8247 32.2999 62.128C32.2999 62.414 32.4125 62.6523 32.6379 62.843C32.8719 63.0337 33.1622 63.129 33.5089 63.129C33.9509 63.129 34.3322 63.038 34.6529 62.856C34.9822 62.6653 35.2379 62.4097 35.4199 62.089C35.6105 61.7683 35.7059 61.413 35.7059 61.023V59.242C35.7059 58.8607 35.5629 58.553 35.2769 58.319C34.9995 58.0763 34.6312 57.955 34.1719 57.955C33.7732 57.955 33.4179 58.059 33.1059 58.267C32.8025 58.4663 32.5772 58.735 32.4299 59.073L31.3769 58.527C31.5069 58.2063 31.7149 57.9203 32.0009 57.669C32.2869 57.409 32.6205 57.2053 33.0019 57.058C33.3832 56.9107 33.7819 56.837 34.1979 56.837C34.7352 56.837 35.2075 56.941 35.6149 57.149C36.0222 57.3483 36.3385 57.63 36.5639 57.994C36.7979 58.3493 36.9149 58.7653 36.9149 59.242V64H35.7319V62.674L35.9529 62.752C35.8055 63.0293 35.6062 63.272 35.3549 63.48C35.1035 63.688 34.8089 63.8527 34.4709 63.974C34.1329 64.0953 33.7645 64.156 33.3659 64.156ZM41.7794 64.156C41.0947 64.156 40.4837 63.9957 39.9464 63.675C39.4177 63.3543 39.0017 62.9167 38.6984 62.362C38.3951 61.8073 38.2434 61.1833 38.2434 60.49C38.2434 59.788 38.3951 59.164 38.6984 58.618C39.0017 58.072 39.4177 57.6387 39.9464 57.318C40.4837 56.9973 41.0947 56.837 41.7794 56.837C42.2387 56.837 42.6677 56.9193 43.0664 57.084C43.4651 57.2487 43.8161 57.4697 44.1194 57.747C44.4227 58.0243 44.6437 58.3493 44.7824 58.722L43.7034 59.242C43.5387 58.878 43.2874 58.5833 42.9494 58.358C42.6114 58.124 42.2214 58.007 41.7794 58.007C41.3547 58.007 40.9691 58.1153 40.6224 58.332C40.2844 58.5487 40.0157 58.8433 39.8164 59.216C39.6171 59.5887 39.5174 60.0177 39.5174 60.503C39.5174 60.971 39.6171 61.3957 39.8164 61.777C40.0157 62.1497 40.2844 62.4443 40.6224 62.661C40.9691 62.8777 41.3547 62.986 41.7794 62.986C42.2214 62.986 42.6114 62.8733 42.9494 62.648C43.2874 62.414 43.5387 62.1063 43.7034 61.725L44.7824 62.271C44.6437 62.635 44.4227 62.96 44.1194 63.246C43.8161 63.5233 43.4651 63.7443 43.0664 63.909C42.6677 64.0737 42.2387 64.156 41.7794 64.156ZM48.9494 64.078C48.2647 64.078 47.7361 63.883 47.3634 63.493C46.9994 63.103 46.8174 62.5527 46.8174 61.842V58.15H45.5434V56.993H45.8034C46.1154 56.993 46.3624 56.8977 46.5444 56.707C46.7264 56.5163 46.8174 56.265 46.8174 55.953V55.381H48.0264V56.993H49.5994V58.15H48.0264V61.803C48.0264 62.037 48.0611 62.2407 48.1304 62.414C48.2084 62.5873 48.3341 62.726 48.5074 62.83C48.6807 62.9253 48.9104 62.973 49.1964 62.973C49.2571 62.973 49.3307 62.9687 49.4174 62.96C49.5127 62.9513 49.5994 62.9427 49.6774 62.934V64C49.5647 64.026 49.4391 64.0433 49.3004 64.052C49.1617 64.0693 49.0447 64.078 48.9494 64.078ZM53.5057 64.156C52.8037 64.156 52.1927 63.9827 51.6727 63.636C51.1527 63.2893 50.7844 62.8213 50.5677 62.232L51.5297 61.764C51.729 62.18 52.002 62.5093 52.3487 62.752C52.6954 62.9947 53.081 63.116 53.5057 63.116C53.887 63.116 54.2034 63.025 54.4547 62.843C54.706 62.661 54.8317 62.4227 54.8317 62.128C54.8317 61.92 54.771 61.7553 54.6497 61.634C54.537 61.504 54.3984 61.4043 54.2337 61.335C54.069 61.257 53.9174 61.2007 53.7787 61.166L52.7257 60.867C52.093 60.685 51.6294 60.425 51.3347 60.087C51.0487 59.749 50.9057 59.3547 50.9057 58.904C50.9057 58.488 51.0097 58.1283 51.2177 57.825C51.4344 57.513 51.7247 57.2703 52.0887 57.097C52.4614 56.9237 52.8774 56.837 53.3367 56.837C53.952 56.837 54.5024 56.993 54.9877 57.305C55.4817 57.617 55.8327 58.0547 56.0407 58.618L55.0527 59.073C54.8967 58.709 54.6627 58.423 54.3507 58.215C54.0387 57.9983 53.6877 57.89 53.2977 57.89C52.9424 57.89 52.6607 57.981 52.4527 58.163C52.2447 58.3363 52.1407 58.5573 52.1407 58.826C52.1407 59.0253 52.1927 59.19 52.2967 59.32C52.4007 59.4413 52.5264 59.5367 52.6737 59.606C52.821 59.6667 52.964 59.7187 53.1027 59.762L54.2467 60.1C54.8187 60.2647 55.2607 60.5203 55.5727 60.867C55.8934 61.2137 56.0537 61.6297 56.0537 62.115C56.0537 62.505 55.9454 62.856 55.7287 63.168C55.512 63.48 55.213 63.7227 54.8317 63.896C54.4504 64.0693 54.0084 64.156 53.5057 64.156Z" fill="#10213A"/>
</svg>
