<svg width="44" height="72" viewBox="0 0 44 72" fill="none" xmlns="http://www.w3.org/2000/svg">
<rect width="44" height="44" rx="10" fill="#ED63DF"/>
<path d="M19 32H25C30 32 32 30 32 25V19C32 14 30 12 25 12H19C14 12 12 14 12 19V25C12 30 14 32 19 32Z" stroke="white" stroke-width="1.5" stroke-linecap="round" stroke-linejoin="round"/>
<path d="M12 23.0002H15.76C16.52 23.0002 17.21 23.4302 17.55 24.1102L18.44 25.9002C19 27.0002 20 27.0002 20.24 27.0002H23.77C24.53 27.0002 25.22 26.5702 25.56 25.8902L26.45 24.1002C26.79 23.4202 27.48 22.9902 28.24 22.9902H31.98" stroke="white" stroke-width="1.5" stroke-linecap="round" stroke-linejoin="round"/>
<path d="M13.1018 64V54.315H19.2378V55.485H14.3758V58.618H18.7828V59.788H14.3758V64H13.1018ZM20.2779 64V56.993H21.4869V64H20.2779ZM20.2779 55.875V54.315H21.4869V55.875H20.2779ZM23.1029 64V54.159H24.3119V64H23.1029ZM29.1518 64.156C28.4758 64.156 27.8735 63.9957 27.3448 63.675C26.8162 63.3543 26.4002 62.9167 26.0968 62.362C25.7935 61.7987 25.6418 61.1703 25.6418 60.477C25.6418 59.775 25.7892 59.151 26.0838 58.605C26.3872 58.059 26.7945 57.63 27.3058 57.318C27.8258 56.9973 28.4065 56.837 29.0478 56.837C29.5678 56.837 30.0272 56.9323 30.4258 57.123C30.8332 57.305 31.1755 57.5563 31.4528 57.877C31.7388 58.189 31.9555 58.5487 32.1028 58.956C32.2588 59.3547 32.3368 59.7707 32.3368 60.204C32.3368 60.2993 32.3282 60.4077 32.3108 60.529C32.3022 60.6417 32.2892 60.75 32.2718 60.854H26.5258V59.814H31.5698L30.9978 60.282C31.0758 59.8313 31.0325 59.4283 30.8678 59.073C30.7032 58.7177 30.4605 58.436 30.1398 58.228C29.8192 58.02 29.4552 57.916 29.0478 57.916C28.6405 57.916 28.2678 58.02 27.9298 58.228C27.5918 58.436 27.3275 58.735 27.1368 59.125C26.9548 59.5063 26.8812 59.9613 26.9158 60.49C26.8812 61.0013 26.9592 61.452 27.1498 61.842C27.3492 62.2233 27.6265 62.5223 27.9818 62.739C28.3458 62.947 28.7402 63.051 29.1648 63.051C29.6328 63.051 30.0272 62.9427 30.3478 62.726C30.6685 62.5093 30.9285 62.232 31.1278 61.894L32.1418 62.414C32.0032 62.7347 31.7865 63.0293 31.4918 63.298C31.2058 63.558 30.8635 63.766 30.4648 63.922C30.0748 64.078 29.6372 64.156 29.1518 64.156Z" fill="#10213A"/>
</svg>
