<svg width="44" height="43" viewBox="0 0 44 43" fill="none" xmlns="http://www.w3.org/2000/svg">
<rect width="44" height="44" rx="10" fill="#ED63DF"/>
<path d="M19 32H25C30 32 32 30 32 25V19C32 14 30 12 25 12H19C14 12 12 14 12 19V25C12 30 14 32 19 32Z" stroke="white" stroke-width="1.5" stroke-linecap="round" stroke-linejoin="round"/>
<path d="M12 23.0002H15.76C16.52 23.0002 17.21 23.4302 17.55 24.1102L18.44 25.9002C19 27.0002 20 27.0002 20.24 27.0002H23.77C24.53 27.0002 25.22 26.5702 25.56 25.8902L26.45 24.1002C26.79 23.4202 27.48 22.9902 28.24 22.9902H31.98" stroke="white" stroke-width="1.5" stroke-linecap="round" stroke-linejoin="round"/>
</svg>
