<svg width="50" height="43" viewBox="0 0 50 43" fill="none" xmlns="http://www.w3.org/2000/svg">
<rect x="3" width="44" height="44" rx="10" fill="#1CCEE6"/>
<path d="M21 12V15" stroke="white" stroke-width="1.5" stroke-miterlimit="10" stroke-linecap="round" stroke-linejoin="round"/>
<path d="M29 12V15" stroke="white" stroke-width="1.5" stroke-miterlimit="10" stroke-linecap="round" stroke-linejoin="round"/>
<path d="M16.5 19.0898H33.5" stroke="white" stroke-width="1.5" stroke-miterlimit="10" stroke-linecap="round" stroke-linejoin="round"/>
<path d="M34 18.5V27C34 30 32.5 32 29 32H21C17.5 32 16 30 16 27V18.5C16 15.5 17.5 13.5 21 13.5H29C32.5 13.5 34 15.5 34 18.5Z" stroke="white" stroke-width="1.5" stroke-miterlimit="10" stroke-linecap="round" stroke-linejoin="round"/>
<path d="M28.6937 23.7002H28.7027" stroke="white" stroke-width="2" stroke-linecap="round" stroke-linejoin="round"/>
<path d="M28.6937 26.7002H28.7027" stroke="white" stroke-width="2" stroke-linecap="round" stroke-linejoin="round"/>
<path d="M24.9945 23.7002H25.0035" stroke="white" stroke-width="2" stroke-linecap="round" stroke-linejoin="round"/>
<path d="M24.9945 26.7002H25.0035" stroke="white" stroke-width="2" stroke-linecap="round" stroke-linejoin="round"/>
<path d="M21.2953 23.7002H21.3043" stroke="white" stroke-width="2" stroke-linecap="round" stroke-linejoin="round"/>
<path d="M21.2953 26.7002H21.3043" stroke="white" stroke-width="2" stroke-linecap="round" stroke-linejoin="round"/>
</svg>
