<svg width="44" height="44" viewBox="0 0 44 44" fill="none" xmlns="http://www.w3.org/2000/svg">
<rect width="44" height="44" rx="10" fill="#595FED"/>
<path d="M22.1187 22.7813C22.0487 22.7713 21.9587 22.7713 21.8787 22.7813C20.1187 22.7213 18.7188 21.2813 18.7188 19.5113C18.7188 17.7013 20.1787 16.2313 21.9987 16.2313C23.8087 16.2313 25.2787 17.7013 25.2787 19.5113C25.2687 21.2813 23.8787 22.7213 22.1187 22.7813Z" stroke="white" stroke-width="1.3" stroke-linecap="round" stroke-linejoin="round"/>
<path d="M28.7381 29.3791C26.9581 31.0091 24.5981 31.9991 21.9981 31.9991C19.3981 31.9991 17.0381 31.0091 15.2581 29.3791C15.3581 28.4391 15.9581 27.5191 17.0281 26.7991C19.7681 24.9791 24.2481 24.9791 26.9681 26.7991C28.0381 27.5191 28.6381 28.4391 28.7381 29.3791Z" stroke="white" stroke-width="1.3" stroke-linecap="round" stroke-linejoin="round"/>
<path d="M21.9973 31.9993C27.5201 31.9993 31.9973 27.5222 31.9973 21.9993C31.9973 16.4765 27.5201 11.9993 21.9973 11.9993C16.4744 11.9993 11.9973 16.4765 11.9973 21.9993C11.9973 27.5222 16.4744 31.9993 21.9973 31.9993Z" stroke="white" stroke-width="1.3" stroke-linecap="round" stroke-linejoin="round"/>
</svg>
