<svg width="44" height="44" viewBox="0 0 44 44" fill="none" xmlns="http://www.w3.org/2000/svg">
<rect width="44" height="44" rx="10" fill="#EF582B"/>
<path d="M19 32H25C30 32 32 30 32 25V19C32 14 30 12 25 12H19C14 12 12 14 12 19V25C12 30 14 32 19 32Z" stroke="white" stroke-width="1.5" stroke-linecap="round" stroke-linejoin="round"/>
<path d="M27 12.44V22.42C27 24.39 25.59 25.16 23.86 24.12L22.54 23.33C22.24 23.15 21.76 23.15 21.46 23.33L20.14 24.12C18.41 25.15 17 24.39 17 22.42V12.44" stroke="white" stroke-width="1.5" stroke-linecap="round" stroke-linejoin="round"/>
<path d="M19 32H25C30 32 32 30 32 25V19C32 14 30 12 25 12H19C14 12 12 14 12 19V25C12 30 14 32 19 32Z" stroke="white" stroke-width="1.5" stroke-linecap="round" stroke-linejoin="round"/>
<path d="M27 12.44V22.42C27 24.39 25.59 25.16 23.86 24.12L22.54 23.33C22.24 23.15 21.76 23.15 21.46 23.33L20.14 24.12C18.41 25.15 17 24.39 17 22.42V12.44" stroke="white" stroke-width="1.5" stroke-linecap="round" stroke-linejoin="round"/>
</svg>
