<svg width="44" height="43" viewBox="0 0 44 43" fill="none" xmlns="http://www.w3.org/2000/svg">
<rect width="44" height="44" rx="10" fill="#EF582B"/>
<path d="M19 32H25C30 32 32 30 32 25V19C32 14 30 12 25 12H19C14 12 12 14 12 19V25C12 30 14 32 19 32Z" stroke="white" stroke-width="1.5" stroke-linecap="round" stroke-linejoin="round"/>
<path d="M27 12.4404V22.4204C27 24.3904 25.59 25.1604 23.86 24.1204L22.54 23.3304C22.24 23.1504 21.76 23.1504 21.46 23.3304L20.14 24.1204C18.41 25.1504 17 24.3904 17 22.4204V12.4404" stroke="white" stroke-width="1.5" stroke-linecap="round" stroke-linejoin="round"/>
<path d="M19 32H25C30 32 32 30 32 25V19C32 14 30 12 25 12H19C14 12 12 14 12 19V25C12 30 14 32 19 32Z" stroke="white" stroke-width="1.5" stroke-linecap="round" stroke-linejoin="round"/>
<path d="M27 12.4404V22.4204C27 24.3904 25.59 25.1604 23.86 24.1204L22.54 23.3304C22.24 23.1504 21.76 23.1504 21.46 23.3304L20.14 24.1204C18.41 25.1504 17 24.3904 17 22.4204V12.4404" stroke="white" stroke-width="1.5" stroke-linecap="round" stroke-linejoin="round"/>
</svg>
