<svg width="44" height="72" viewBox="0 0 44 72" fill="none" xmlns="http://www.w3.org/2000/svg">
<rect width="44" height="44" rx="10" fill="#EF582B"/>
<path d="M19 32H25C30 32 32 30 32 25V19C32 14 30 12 25 12H19C14 12 12 14 12 19V25C12 30 14 32 19 32Z" stroke="white" stroke-width="1.5" stroke-linecap="round" stroke-linejoin="round"/>
<path d="M27 12.4404V22.4204C27 24.3904 25.59 25.1604 23.86 24.1204L22.54 23.3304C22.24 23.1504 21.76 23.1504 21.46 23.3304L20.14 24.1204C18.41 25.1504 17 24.3904 17 22.4204V12.4404" stroke="white" stroke-width="1.5" stroke-linecap="round" stroke-linejoin="round"/>
<path d="M19 32H25C30 32 32 30 32 25V19C32 14 30 12 25 12H19C14 12 12 14 12 19V25C12 30 14 32 19 32Z" stroke="white" stroke-width="1.5" stroke-linecap="round" stroke-linejoin="round"/>
<path d="M27 12.4404V22.4204C27 24.3904 25.59 25.1604 23.86 24.1204L22.54 23.3304C22.24 23.1504 21.76 23.1504 21.46 23.3304L20.14 24.1204C18.41 25.1504 17 24.3904 17 22.4204V12.4404" stroke="white" stroke-width="1.5" stroke-linecap="round" stroke-linejoin="round"/>
<path d="M7.50611 64V54.315H8.57211L14.1361 62.141L13.6551 62.193V54.315H14.9421V64H13.8761L8.33811 56.122L8.78011 56.07V64H7.50611ZM20.0288 64.156C19.3528 64.156 18.7418 64 18.1958 63.688C17.6498 63.3673 17.2164 62.9297 16.8958 62.375C16.5751 61.8203 16.4148 61.192 16.4148 60.49C16.4148 59.788 16.5708 59.164 16.8828 58.618C17.2034 58.072 17.6368 57.6387 18.1828 57.318C18.7288 56.9973 19.3441 56.837 20.0288 56.837C20.7048 56.837 21.3158 56.9973 21.8618 57.318C22.4078 57.63 22.8368 58.059 23.1488 58.605C23.4694 59.151 23.6298 59.7793 23.6298 60.49C23.6298 61.2007 23.4651 61.8333 23.1358 62.388C22.8064 62.934 22.3688 63.3673 21.8228 63.688C21.2854 64 20.6874 64.156 20.0288 64.156ZM20.0288 62.986C20.4621 62.986 20.8521 62.8777 21.1988 62.661C21.5541 62.4443 21.8314 62.1453 22.0308 61.764C22.2388 61.3827 22.3428 60.958 22.3428 60.49C22.3428 60.0133 22.2388 59.593 22.0308 59.229C21.8314 58.8563 21.5541 58.5617 21.1988 58.345C20.8521 58.1197 20.4621 58.007 20.0288 58.007C19.5868 58.007 19.1881 58.1197 18.8328 58.345C18.4861 58.5617 18.2088 58.8563 18.0008 59.229C17.7928 59.593 17.6888 60.0133 17.6888 60.49C17.6888 60.958 17.7928 61.3827 18.0008 61.764C18.2088 62.1453 18.4861 62.4443 18.8328 62.661C19.1881 62.8777 19.5868 62.986 20.0288 62.986ZM27.6667 64.078C26.982 64.078 26.4533 63.883 26.0807 63.493C25.7167 63.103 25.5347 62.5527 25.5347 61.842V58.15H24.2607V56.993H24.5207C24.8327 56.993 25.0797 56.8977 25.2617 56.707C25.4437 56.5163 25.5347 56.265 25.5347 55.953V55.381H26.7437V56.993H28.3167V58.15H26.7437V61.803C26.7437 62.037 26.7783 62.2407 26.8477 62.414C26.9257 62.5873 27.0513 62.726 27.2247 62.83C27.398 62.9253 27.6277 62.973 27.9137 62.973C27.9743 62.973 28.048 62.9687 28.1347 62.96C28.23 62.9513 28.3167 62.9427 28.3947 62.934V64C28.282 64.026 28.1563 64.0433 28.0177 64.052C27.879 64.0693 27.762 64.078 27.6667 64.078ZM32.7475 64.156C32.0715 64.156 31.4692 63.9957 30.9405 63.675C30.4119 63.3543 29.9959 62.9167 29.6925 62.362C29.3892 61.7987 29.2375 61.1703 29.2375 60.477C29.2375 59.775 29.3849 59.151 29.6795 58.605C29.9829 58.059 30.3902 57.63 30.9015 57.318C31.4215 56.9973 32.0022 56.837 32.6435 56.837C33.1635 56.837 33.6229 56.9323 34.0215 57.123C34.4289 57.305 34.7712 57.5563 35.0485 57.877C35.3345 58.189 35.5512 58.5487 35.6985 58.956C35.8545 59.3547 35.9325 59.7707 35.9325 60.204C35.9325 60.2993 35.9239 60.4077 35.9065 60.529C35.8979 60.6417 35.8849 60.75 35.8675 60.854H30.1215V59.814H35.1655L34.5935 60.282C34.6715 59.8313 34.6282 59.4283 34.4635 59.073C34.2989 58.7177 34.0562 58.436 33.7355 58.228C33.4149 58.02 33.0509 57.916 32.6435 57.916C32.2362 57.916 31.8635 58.02 31.5255 58.228C31.1875 58.436 30.9232 58.735 30.7325 59.125C30.5505 59.5063 30.4769 59.9613 30.5115 60.49C30.4769 61.0013 30.5549 61.452 30.7455 61.842C30.9449 62.2233 31.2222 62.5223 31.5775 62.739C31.9415 62.947 32.3359 63.051 32.7605 63.051C33.2285 63.051 33.6229 62.9427 33.9435 62.726C34.2642 62.5093 34.5242 62.232 34.7235 61.894L35.7375 62.414C35.5989 62.7347 35.3822 63.0293 35.0875 63.298C34.8015 63.558 34.4592 63.766 34.0605 63.922C33.6705 64.078 33.2329 64.156 32.7475 64.156Z" fill="#10213A"/>
</svg>
