<svg width="75" height="30" viewBox="0 0 75 30" fill="none" xmlns="http://www.w3.org/2000/svg">
<rect width="75" height="30" rx="8" fill="#ECF3FA"/>
<path d="M33.9232 20.21C33.2092 20.21 32.5652 20.0887 31.9912 19.846C31.4219 19.6033 30.9506 19.258 30.5772 18.81C30.2086 18.3573 29.9682 17.823 29.8562 17.207L31.1442 17.004C31.3076 17.6387 31.6459 18.1357 32.1592 18.495C32.6772 18.8497 33.2862 19.027 33.9862 19.027C34.4389 19.027 34.8472 18.957 35.2112 18.817C35.5799 18.6723 35.8716 18.467 36.0862 18.201C36.3009 17.935 36.4082 17.62 36.4082 17.256C36.4082 17.032 36.3686 16.8407 36.2892 16.682C36.2146 16.5187 36.1096 16.381 35.9742 16.269C35.8436 16.1523 35.6942 16.0543 35.5262 15.975C35.3582 15.8957 35.1832 15.8303 35.0012 15.779L32.4322 15.016C32.1522 14.932 31.8816 14.827 31.6202 14.701C31.3589 14.5703 31.1256 14.4093 30.9202 14.218C30.7149 14.022 30.5516 13.7887 30.4302 13.518C30.3089 13.2427 30.2482 12.9183 30.2482 12.545C30.2482 11.9477 30.4022 11.439 30.7102 11.019C31.0229 10.5943 31.4452 10.27 31.9772 10.046C32.5092 9.822 33.1089 9.71233 33.7762 9.717C34.4529 9.72167 35.0572 9.843 35.5892 10.081C36.1259 10.3143 36.5692 10.6503 36.9192 11.089C37.2739 11.5277 37.5119 12.0527 37.6332 12.664L36.3102 12.895C36.2402 12.4843 36.0839 12.132 35.8412 11.838C35.6032 11.5393 35.3046 11.3107 34.9452 11.152C34.5859 10.9887 34.1916 10.9047 33.7622 10.9C33.3516 10.8953 32.9806 10.9607 32.6492 11.096C32.3179 11.2313 32.0542 11.4203 31.8582 11.663C31.6622 11.901 31.5642 12.1763 31.5642 12.489C31.5642 12.797 31.6529 13.0467 31.8302 13.238C32.0076 13.4247 32.2246 13.574 32.4812 13.686C32.7426 13.7933 32.9969 13.882 33.2442 13.952L35.1622 14.505C35.3816 14.5657 35.6336 14.6497 35.9182 14.757C36.2076 14.8643 36.4876 15.016 36.7582 15.212C37.0289 15.4033 37.2529 15.66 37.4302 15.982C37.6076 16.2993 37.6962 16.7007 37.6962 17.186C37.6962 17.6713 37.5982 18.103 37.4022 18.481C37.2109 18.859 36.9426 19.1763 36.5972 19.433C36.2519 19.685 35.8506 19.8763 35.3932 20.007C34.9359 20.1423 34.4459 20.21 33.9232 20.21ZM42.3006 20.21C41.5586 20.21 40.9099 20.0467 40.3546 19.72C39.8039 19.3887 39.3746 18.929 39.0666 18.341C38.7586 17.7483 38.6046 17.0577 38.6046 16.269C38.6046 15.443 38.7563 14.729 39.0596 14.127C39.3629 13.5203 39.7853 13.0537 40.3266 12.727C40.8726 12.3957 41.5119 12.23 42.2446 12.23C43.0053 12.23 43.6516 12.405 44.1836 12.755C44.7203 13.105 45.1216 13.6043 45.3876 14.253C45.6583 14.9017 45.7749 15.674 45.7376 16.57H44.4776V16.122C44.4636 15.1933 44.2746 14.5003 43.9106 14.043C43.5466 13.581 43.0053 13.35 42.2866 13.35C41.5166 13.35 40.9309 13.5973 40.5296 14.092C40.1283 14.5867 39.9276 15.296 39.9276 16.22C39.9276 17.1113 40.1283 17.802 40.5296 18.292C40.9309 18.782 41.5026 19.027 42.2446 19.027C42.7439 19.027 43.1779 18.9127 43.5466 18.684C43.9153 18.4553 44.2046 18.1263 44.4146 17.697L45.6116 18.11C45.3176 18.7773 44.8743 19.2953 44.2816 19.664C43.6936 20.028 43.0333 20.21 42.3006 20.21ZM39.5076 16.57V15.569H45.0936V16.57H39.5076ZM52.334 20V16.213C52.334 15.8537 52.3013 15.5083 52.236 15.177C52.1753 14.8457 52.0657 14.5493 51.907 14.288C51.753 14.022 51.543 13.812 51.277 13.658C51.0157 13.504 50.6843 13.427 50.283 13.427C49.9703 13.427 49.6857 13.4807 49.429 13.588C49.177 13.6907 48.96 13.8493 48.778 14.064C48.596 14.2787 48.4537 14.5493 48.351 14.876C48.253 15.198 48.204 15.5783 48.204 16.017L47.385 15.765C47.385 15.0323 47.5157 14.4047 47.777 13.882C48.043 13.3547 48.414 12.951 48.89 12.671C49.3707 12.3863 49.9353 12.244 50.584 12.244C51.074 12.244 51.4917 12.321 51.837 12.475C52.1823 12.629 52.4693 12.8343 52.698 13.091C52.9267 13.343 53.1063 13.6277 53.237 13.945C53.3677 14.2577 53.4587 14.5773 53.51 14.904C53.566 15.226 53.594 15.5317 53.594 15.821V20H52.334ZM46.944 20V12.44H48.064V14.463H48.204V20H46.944ZM58.1735 20.21C57.4689 20.21 56.8645 20.035 56.3605 19.685C55.8565 19.3303 55.4669 18.852 55.1915 18.25C54.9209 17.648 54.7855 16.969 54.7855 16.213C54.7855 15.457 54.9209 14.778 55.1915 14.176C55.4669 13.574 55.8565 13.1003 56.3605 12.755C56.8645 12.405 57.4665 12.23 58.1665 12.23C58.8805 12.23 59.4802 12.4027 59.9655 12.748C60.4509 13.0933 60.8172 13.567 61.0645 14.169C61.3165 14.771 61.4425 15.4523 61.4425 16.213C61.4425 16.9643 61.3165 17.6433 61.0645 18.25C60.8172 18.852 60.4509 19.3303 59.9655 19.685C59.4802 20.035 58.8829 20.21 58.1735 20.21ZM58.3275 19.069C58.8362 19.069 59.2539 18.9477 59.5805 18.705C59.9072 18.4577 60.1475 18.1193 60.3015 17.69C60.4602 17.256 60.5395 16.7637 60.5395 16.213C60.5395 15.653 60.4602 15.1607 60.3015 14.736C60.1475 14.3067 59.9095 13.973 59.5875 13.735C59.2655 13.4923 58.8572 13.371 58.3625 13.371C57.8492 13.371 57.4245 13.497 57.0885 13.749C56.7572 14.001 56.5099 14.3417 56.3465 14.771C56.1879 15.2003 56.1085 15.681 56.1085 16.213C56.1085 16.7497 56.1902 17.235 56.3535 17.669C56.5169 18.0983 56.7619 18.439 57.0885 18.691C57.4199 18.943 57.8329 19.069 58.3275 19.069ZM60.5395 20V14.435H60.3995V9.92H61.6525V20H60.5395Z" fill="#10213A"/>
<path d="M14.5479 10.4677L19.5412 12.9644C21.7812 14.0844 21.7812 15.916 19.5412 17.036L14.5479 19.5327C11.1879 21.2127 9.81706 19.836 11.4971 16.4819L12.0046 15.4727C12.1329 15.216 12.1329 14.7902 12.0046 14.5335L11.4971 13.5185C9.81706 10.1644 11.1937 8.7877 14.5479 10.4677Z" stroke="#10213A" stroke-width="1.3" stroke-linecap="round" stroke-linejoin="round"/>
<path d="M12.1729 15H15.3229" stroke="#10213A" stroke-width="1.3" stroke-linecap="round" stroke-linejoin="round"/>
</svg>