<svg width="44" height="73" viewBox="0 0 44 73" fill="none" xmlns="http://www.w3.org/2000/svg">
<rect width="44" height="44" rx="10" fill="#9660F0"/>
<path d="M18.5 29H18C14 29 12 28 12 23V18C12 14 14 12 18 12H26C30 12 32 14 32 18V23C32 27 30 29 26 29H25.5C25.19 29 24.89 29.15 24.7 29.4L23.2 31.4C22.54 32.28 21.46 32.28 20.8 31.4L19.3 29.4C19.14 29.18 18.77 29 18.5 29Z" stroke="white" stroke-width="1.5" stroke-miterlimit="10" stroke-linecap="round" stroke-linejoin="round"/>
<path d="M25.9945 21H26.0035" stroke="white" stroke-width="2" stroke-linecap="round" stroke-linejoin="round"/>
<path d="M21.9945 21H22.0035" stroke="white" stroke-width="2" stroke-linecap="round" stroke-linejoin="round"/>
<path d="M17.9945 21H18.0035" stroke="white" stroke-width="2" stroke-linecap="round" stroke-linejoin="round"/>
<path d="M12.7022 65.156C12.0868 65.156 11.5235 65.0433 11.0122 64.818C10.5008 64.584 10.0675 64.2677 9.71216 63.869C9.35682 63.4703 9.10116 63.024 8.94516 62.53L10.0502 62.075C10.2842 62.699 10.6308 63.18 11.0902 63.518C11.5582 63.8473 12.1042 64.012 12.7282 64.012C13.1095 64.012 13.4432 63.9513 13.7292 63.83C14.0152 63.7087 14.2362 63.5397 14.3922 63.323C14.5568 63.0977 14.6392 62.8377 14.6392 62.543C14.6392 62.1357 14.5222 61.815 14.2882 61.581C14.0628 61.3383 13.7292 61.1563 13.2872 61.035L11.5062 60.489C10.8042 60.2723 10.2668 59.93 9.89416 59.462C9.52149 58.994 9.33516 58.4567 9.33516 57.85C9.33516 57.3213 9.46082 56.8577 9.71216 56.459C9.97216 56.0517 10.3275 55.7353 10.7782 55.51C11.2375 55.276 11.7575 55.159 12.3382 55.159C12.9188 55.159 13.4432 55.263 13.9112 55.471C14.3878 55.679 14.7908 55.9607 15.1202 56.316C15.4495 56.6627 15.6922 57.0613 15.8482 57.512L14.7562 57.967C14.5482 57.421 14.2362 57.0093 13.8202 56.732C13.4042 56.446 12.9145 56.303 12.3512 56.303C12.0045 56.303 11.6968 56.3637 11.4282 56.485C11.1682 56.5977 10.9645 56.7667 10.8172 56.992C10.6785 57.2087 10.6092 57.4687 10.6092 57.772C10.6092 58.1273 10.7218 58.4437 10.9472 58.721C11.1725 58.9983 11.5148 59.2107 11.9742 59.358L13.5992 59.839C14.3618 60.073 14.9382 60.4067 15.3282 60.84C15.7182 61.2733 15.9132 61.8107 15.9132 62.452C15.9132 62.9807 15.7745 63.4487 15.4972 63.856C15.2285 64.2633 14.8515 64.584 14.3662 64.818C13.8895 65.0433 13.3348 65.156 12.7022 65.156ZM17.5185 65V55.315H18.6885L22.3155 60.476H21.7175L25.3185 55.315H26.4885V65H25.2015V56.927L25.6565 57.07L22.0555 62.14H21.9515L18.3895 57.07L18.7925 56.927V65H17.5185ZM31.7075 65.156C31.0922 65.156 30.5289 65.0433 30.0175 64.818C29.5062 64.584 29.0729 64.2677 28.7175 63.869C28.3622 63.4703 28.1065 63.024 27.9505 62.53L29.0555 62.075C29.2895 62.699 29.6362 63.18 30.0955 63.518C30.5635 63.8473 31.1095 64.012 31.7335 64.012C32.1149 64.012 32.4485 63.9513 32.7345 63.83C33.0205 63.7087 33.2415 63.5397 33.3975 63.323C33.5622 63.0977 33.6445 62.8377 33.6445 62.543C33.6445 62.1357 33.5275 61.815 33.2935 61.581C33.0682 61.3383 32.7345 61.1563 32.2925 61.035L30.5115 60.489C29.8095 60.2723 29.2722 59.93 28.8995 59.462C28.5269 58.994 28.3405 58.4567 28.3405 57.85C28.3405 57.3213 28.4662 56.8577 28.7175 56.459C28.9775 56.0517 29.3329 55.7353 29.7835 55.51C30.2429 55.276 30.7629 55.159 31.3435 55.159C31.9242 55.159 32.4485 55.263 32.9165 55.471C33.3932 55.679 33.7962 55.9607 34.1255 56.316C34.4549 56.6627 34.6975 57.0613 34.8535 57.512L33.7615 57.967C33.5535 57.421 33.2415 57.0093 32.8255 56.732C32.4095 56.446 31.9199 56.303 31.3565 56.303C31.0099 56.303 30.7022 56.3637 30.4335 56.485C30.1735 56.5977 29.9699 56.7667 29.8225 56.992C29.6839 57.2087 29.6145 57.4687 29.6145 57.772C29.6145 58.1273 29.7272 58.4437 29.9525 58.721C30.1779 58.9983 30.5202 59.2107 30.9795 59.358L32.6045 59.839C33.3672 60.073 33.9435 60.4067 34.3335 60.84C34.7235 61.2733 34.9185 61.8107 34.9185 62.452C34.9185 62.9807 34.7799 63.4487 34.5025 63.856C34.2339 64.2633 33.8569 64.584 33.3715 64.818C32.8949 65.0433 32.3402 65.156 31.7075 65.156Z" fill="#10213A"/>
</svg>
