<svg width="44" height="72" viewBox="0 0 44 72" fill="none" xmlns="http://www.w3.org/2000/svg">
<rect width="44" height="44" rx="10" fill="#EFAC2B"/>
<path d="M18 22.2002H25" stroke="white" stroke-width="1.3" stroke-miterlimit="10" stroke-linecap="round" stroke-linejoin="round"/>
<path d="M18 26.2002H22.38" stroke="white" stroke-width="1.3" stroke-miterlimit="10" stroke-linecap="round" stroke-linejoin="round"/>
<path d="M20 16H24C26 16 26 15 26 14C26 12 25 12 24 12H20C19 12 18 12 18 14C18 16 19 16 20 16Z" stroke="white" stroke-width="1.3" stroke-miterlimit="10" stroke-linecap="round" stroke-linejoin="round"/>
<path d="M26 14.0195C29.33 14.1995 31 15.4295 31 19.9995V25.9995C31 29.9995 30 31.9995 25 31.9995H19C14 31.9995 13 29.9995 13 25.9995V19.9995C13 15.4395 14.67 14.1995 18 14.0195" stroke="white" stroke-width="1.3" stroke-miterlimit="10" stroke-linecap="round" stroke-linejoin="round"/>
<path d="M7.77728 64V55.485H5.15128V54.315H11.6513V55.485H9.06428V64H7.77728ZM13.7559 64.156C13.2965 64.156 12.8892 64.0737 12.5339 63.909C12.1872 63.7357 11.9142 63.5017 11.7149 63.207C11.5155 62.9037 11.4159 62.557 11.4159 62.167C11.4159 61.7943 11.4939 61.4607 11.6499 61.166C11.8145 60.8627 12.0659 60.607 12.4039 60.399C12.7505 60.191 13.1839 60.0437 13.7039 59.957L16.3039 59.528V60.542L13.9769 60.932C13.5262 61.01 13.1969 61.153 12.9889 61.361C12.7895 61.569 12.6899 61.8247 12.6899 62.128C12.6899 62.414 12.8025 62.6523 13.0279 62.843C13.2619 63.0337 13.5522 63.129 13.8989 63.129C14.3409 63.129 14.7222 63.038 15.0429 62.856C15.3722 62.6653 15.6279 62.4097 15.8099 62.089C16.0005 61.7683 16.0959 61.413 16.0959 61.023V59.242C16.0959 58.8607 15.9529 58.553 15.6669 58.319C15.3895 58.0763 15.0212 57.955 14.5619 57.955C14.1632 57.955 13.8079 58.059 13.4959 58.267C13.1925 58.4663 12.9672 58.735 12.8199 59.073L11.7669 58.527C11.8969 58.2063 12.1049 57.9203 12.3909 57.669C12.6769 57.409 13.0105 57.2053 13.3919 57.058C13.7732 56.9107 14.1719 56.837 14.5879 56.837C15.1252 56.837 15.5975 56.941 16.0049 57.149C16.4122 57.3483 16.7285 57.63 16.9539 57.994C17.1879 58.3493 17.3049 58.7653 17.3049 59.242V64H16.1219V62.674L16.3429 62.752C16.1955 63.0293 15.9962 63.272 15.7449 63.48C15.4935 63.688 15.1989 63.8527 14.8609 63.974C14.5229 64.0953 14.1545 64.156 13.7559 64.156ZM21.4284 64.156C20.7264 64.156 20.1154 63.9827 19.5954 63.636C19.0754 63.2893 18.7071 62.8213 18.4904 62.232L19.4524 61.764C19.6517 62.18 19.9247 62.5093 20.2714 62.752C20.6181 62.9947 21.0037 63.116 21.4284 63.116C21.8097 63.116 22.1261 63.025 22.3774 62.843C22.6287 62.661 22.7544 62.4227 22.7544 62.128C22.7544 61.92 22.6937 61.7553 22.5724 61.634C22.4597 61.504 22.3211 61.4043 22.1564 61.335C21.9917 61.257 21.8401 61.2007 21.7014 61.166L20.6484 60.867C20.0157 60.685 19.5521 60.425 19.2574 60.087C18.9714 59.749 18.8284 59.3547 18.8284 58.904C18.8284 58.488 18.9324 58.1283 19.1404 57.825C19.3571 57.513 19.6474 57.2703 20.0114 57.097C20.3841 56.9237 20.8001 56.837 21.2594 56.837C21.8747 56.837 22.4251 56.993 22.9104 57.305C23.4044 57.617 23.7554 58.0547 23.9634 58.618L22.9754 59.073C22.8194 58.709 22.5854 58.423 22.2734 58.215C21.9614 57.9983 21.6104 57.89 21.2204 57.89C20.8651 57.89 20.5834 57.981 20.3754 58.163C20.1674 58.3363 20.0634 58.5573 20.0634 58.826C20.0634 59.0253 20.1154 59.19 20.2194 59.32C20.3234 59.4413 20.4491 59.5367 20.5964 59.606C20.7437 59.6667 20.8867 59.7187 21.0254 59.762L22.1694 60.1C22.7414 60.2647 23.1834 60.5203 23.4954 60.867C23.8161 61.2137 23.9764 61.6297 23.9764 62.115C23.9764 62.505 23.8681 62.856 23.6514 63.168C23.4347 63.48 23.1357 63.7227 22.7544 63.896C22.3731 64.0693 21.9311 64.156 21.4284 64.156ZM25.299 64V54.159H26.508V60.906L26.014 60.789L29.732 56.993H31.279L28.588 59.814L31.461 64H30.031L27.405 60.204L28.159 60.165L26.118 62.297L26.508 61.413V64H25.299ZM34.7971 64.156C34.0951 64.156 33.4841 63.9827 32.9641 63.636C32.4441 63.2893 32.0757 62.8213 31.8591 62.232L32.8211 61.764C33.0204 62.18 33.2934 62.5093 33.6401 62.752C33.9867 62.9947 34.3724 63.116 34.7971 63.116C35.1784 63.116 35.4947 63.025 35.7461 62.843C35.9974 62.661 36.1231 62.4227 36.1231 62.128C36.1231 61.92 36.0624 61.7553 35.9411 61.634C35.8284 61.504 35.6897 61.4043 35.5251 61.335C35.3604 61.257 35.2087 61.2007 35.0701 61.166L34.0171 60.867C33.3844 60.685 32.9207 60.425 32.6261 60.087C32.3401 59.749 32.1971 59.3547 32.1971 58.904C32.1971 58.488 32.3011 58.1283 32.5091 57.825C32.7257 57.513 33.0161 57.2703 33.3801 57.097C33.7527 56.9237 34.1687 56.837 34.6281 56.837C35.2434 56.837 35.7937 56.993 36.2791 57.305C36.7731 57.617 37.1241 58.0547 37.3321 58.618L36.3441 59.073C36.1881 58.709 35.9541 58.423 35.6421 58.215C35.3301 57.9983 34.9791 57.89 34.5891 57.89C34.2337 57.89 33.9521 57.981 33.7441 58.163C33.5361 58.3363 33.4321 58.5573 33.4321 58.826C33.4321 59.0253 33.4841 59.19 33.5881 59.32C33.6921 59.4413 33.8177 59.5367 33.9651 59.606C34.1124 59.6667 34.2554 59.7187 34.3941 59.762L35.5381 60.1C36.1101 60.2647 36.5521 60.5203 36.8641 60.867C37.1847 61.2137 37.3451 61.6297 37.3451 62.115C37.3451 62.505 37.2367 62.856 37.0201 63.168C36.8034 63.48 36.5044 63.7227 36.1231 63.896C35.7417 64.0693 35.2997 64.156 34.7971 64.156Z" fill="#10213A"/>
</svg>
