<svg width="44" height="43" viewBox="0 0 44 43" fill="none" xmlns="http://www.w3.org/2000/svg">
<rect width="44" height="44" rx="10" fill="#EFAC2B"/>
<path d="M18 22.2002H25" stroke="white" stroke-width="1.3" stroke-miterlimit="10" stroke-linecap="round" stroke-linejoin="round"/>
<path d="M18 26.2002H22.38" stroke="white" stroke-width="1.3" stroke-miterlimit="10" stroke-linecap="round" stroke-linejoin="round"/>
<path d="M20 16H24C26 16 26 15 26 14C26 12 25 12 24 12H20C19 12 18 12 18 14C18 16 19 16 20 16Z" stroke="white" stroke-width="1.3" stroke-miterlimit="10" stroke-linecap="round" stroke-linejoin="round"/>
<path d="M26 14.0195C29.33 14.1995 31 15.4295 31 19.9995V25.9995C31 29.9995 30 31.9995 25 31.9995H19C14 31.9995 13 29.9995 13 25.9995V19.9995C13 15.4395 14.67 14.1995 18 14.0195" stroke="white" stroke-width="1.3" stroke-miterlimit="10" stroke-linecap="round" stroke-linejoin="round"/>
</svg>
