<svg width="44" height="44" viewBox="0 0 44 44" fill="none" xmlns="http://www.w3.org/2000/svg">
<rect width="44" height="44" rx="10" fill="#EFAC2B"/>
<path d="M18 22.2H25" stroke="white" stroke-width="1.3" stroke-miterlimit="10" stroke-linecap="round" stroke-linejoin="round"/>
<path d="M18 26.2H22.38" stroke="white" stroke-width="1.3" stroke-miterlimit="10" stroke-linecap="round" stroke-linejoin="round"/>
<path d="M20 16H24C26 16 26 15 26 14C26 12 25 12 24 12H20C19 12 18 12 18 14C18 16 19 16 20 16Z" stroke="white" stroke-width="1.3" stroke-miterlimit="10" stroke-linecap="round" stroke-linejoin="round"/>
<path d="M26 14.02C29.33 14.2 31 15.43 31 20V26C31 30 30 32 25 32H19C14 32 13 30 13 26V20C13 15.44 14.67 14.2 18 14.02" stroke="white" stroke-width="1.3" stroke-miterlimit="10" stroke-linecap="round" stroke-linejoin="round"/>
</svg>
