<svg width="12" height="12" viewBox="0 0 12 12" fill="none" xmlns="http://www.w3.org/2000/svg">
<g clip-path="url(#clip0_19_3901)">
<path d="M11.2574 3.00879C10.5725 3.00879 9.94064 2.78191 9.43322 2.39918C8.85126 1.96043 8.43314 1.31684 8.28548 0.575039C8.24892 0.391758 8.22923 0.202617 8.22736 0.00878906H6.27103V5.35441L6.26869 8.28246C6.26869 9.06527 5.75892 9.72902 5.05228 9.96246C4.8472 10.0302 4.62572 10.0623 4.39509 10.0496C4.10072 10.0335 3.82486 9.94465 3.58509 9.80121C3.07486 9.49606 2.72892 8.94246 2.71955 8.30918C2.70478 7.31941 3.50494 6.51246 4.494 6.51246C4.68923 6.51246 4.87673 6.54434 5.05228 6.60223V5.14113V4.6159C4.86712 4.58848 4.67869 4.57418 4.48814 4.57418C3.40556 4.57418 2.39306 5.02418 1.66931 5.83488C1.12228 6.44754 0.794155 7.22918 0.74353 8.04879C0.677202 9.12551 1.07119 10.149 1.83525 10.9042C1.94751 11.015 2.06541 11.1179 2.18869 11.2129C2.84376 11.717 3.64462 11.9903 4.48814 11.9903C4.67869 11.9903 4.86712 11.9762 5.05228 11.9488C5.84025 11.8321 6.56728 11.4714 7.14103 10.9042C7.84603 10.2074 8.23556 9.2823 8.23978 8.2977L8.2297 3.9252C8.56603 4.18465 8.93377 4.39934 9.32845 4.56598C9.94228 4.82496 10.5931 4.95621 11.263 4.95598V3.53543V3.00832C11.2635 3.00879 11.2578 3.00879 11.2574 3.00879Z" fill="#08295B" fill-opacity="0.41"/>
</g>
<defs>
<clipPath id="clip0_19_3901">
<rect width="12" height="12" fill="white"/>
</clipPath>
</defs>
</svg>