<svg width="12" height="12" viewBox="0 0 12 12" fill="none" xmlns="http://www.w3.org/2000/svg">
<path d="M11.3873 3.18858C11.2577 2.70663 10.8777 2.32671 10.3958 2.19693C9.51546 1.95605 5.994 1.95605 5.994 1.95605C5.994 1.95605 2.47268 1.95605 1.59233 2.1878C1.11971 2.31744 0.730454 2.7067 0.600815 3.18858C0.369141 4.06886 0.369141 5.89445 0.369141 5.89445C0.369141 5.89445 0.369141 7.72923 0.600815 8.60031C0.730591 9.0822 1.11044 9.46212 1.5924 9.5919C2.48195 9.83284 5.99414 9.83284 5.99414 9.83284C5.99414 9.83284 9.51546 9.83284 10.3958 9.6011C10.8778 9.47139 11.2577 9.09147 11.3875 8.60958C11.6191 7.72923 11.6191 5.90372 11.6191 5.90372C11.6191 5.90372 11.6283 4.06886 11.3873 3.18858ZM4.87285 7.58099V4.20791L7.80112 5.89445L4.87285 7.58099Z" fill="#08295B" fill-opacity="0.41"/>
</svg>