<svg width="687" height="110" xmlns="http://www.w3.org/2000/svg">
 <!-- Created with Method Draw - http://github.com/duopixel/Method-Draw/ -->

 <g>
  <title>background</title>
  <rect fill="none" id="canvas_background" height="112" width="689" y="-1" x="-1"/>
 </g>
 <g>
  <title>Layer 1</title>
  <g stroke="null" id="svg_17">
   <g stroke="null" transform="matrix(5.505826904127258,0,0,5.505826904127258,293.7841950787298,462.9883119665792) " id="svg_13" fill-rule="evenodd" fill="none">
    <path stroke="null" id="svg_14" d="m-53.421714,-79.947669l27,0l0,11.176l-27,0l0,-11.176z" fill="#E6E6E6"/>
    <path stroke="null" id="svg_15" d="m-51.661714,-64.065669l23.48,0c0.972,0 1.76,-0.79 1.76,-1.765l0,-2.94l-27,0l0,2.94c0,0.975 0.788,1.765 1.76,1.765z" fill="#E79800"/>
    <path stroke="null" id="svg_16" d="m-28.181714,-84.065669l-23.48,0c-0.971,0 -1.76,0.79 -1.76,1.765l0,2.94l27,0l0,-2.94c0,-0.975 -0.788,-1.765 -1.76,-1.765zm-14.535,12.824l1.531,0l0.959,-5.633l-1.532,0l-0.958,5.633zm5.579,-3.372c-0.535,-0.26 -0.863,-0.434 -0.86,-0.698c0,-0.234 0.278,-0.485 0.878,-0.485c0.49,-0.007 0.886,0.093 1.284,0.281l0.208,-1.221a3.948,3.948 0 0 0 -1.373,-0.237c-1.514,0 -2.58,0.764 -2.59,1.86c-0.008,0.809 0.762,1.26 1.343,1.53c0.596,0.276 0.797,0.452 0.794,0.699c-0.003,0.377 -0.476,0.55 -0.917,0.55c-0.68,0 -1.022,-0.106 -1.639,-0.386l-0.215,1.261c0.358,0.158 1.02,0.294 1.707,0.301c1.61,0 2.656,-0.755 2.668,-1.925c0.004,-0.64 -0.404,-1.128 -1.288,-1.53zm5.437,-2.256l-1.183,0c-0.367,0 -0.641,0.1 -0.803,0.467l-2.275,5.162l1.609,0s0.263,-0.694 0.323,-0.846l1.962,0.002c0.046,0.197 0.187,0.844 0.187,0.844l1.421,0l-1.24,-5.63l-0.001,0.001zm-1.887,3.63c0.063,-0.162 0.688,-1.771 0.813,-2.112c0.207,0.97 0.005,0.029 0.459,2.112l-1.272,0zm-10.414,-3.631l-1.5,3.84l-0.16,-0.78l-0.537,-2.589c-0.093,-0.356 -0.361,-0.462 -0.694,-0.475l-2.471,0l-0.02,0.117a6.449,6.449 0 0 1 1.61,0.618l1.362,4.892l1.621,-0.002l2.412,-5.622l-1.623,0l0,0.001z" fill="#1A1876"/>
   </g>
  </g>
  <g stroke="null" id="svg_26">
   <g stroke="null" transform="matrix(5.5613159433269805,0,0,5.5613159433269805,104.904039254081,81.7313689197781) " id="svg_21" fill-rule="evenodd" fill="none">
    <path stroke="null" id="svg_22" d="m36.772959,-14.77912l-23.48,0c-0.971,0 -1.76,0.79 -1.76,1.765l0,16.47c0,0.975 0.788,1.765 1.76,1.765l23.48,0c0.972,0 1.76,-0.79 1.76,-1.765l0,-16.47c0,-0.975 -0.788,-1.765 -1.76,-1.765z" fill="#003564"/>
    <path stroke="null" id="svg_23" d="m25.418959,-8.10712a4.713,4.713 0 0 1 0,6.656a4.688,4.688 0 0 1 -6.641,0a4.713,4.713 0 0 1 0,-6.656a4.688,4.688 0 0 1 6.64,0" fill="#2285DD"/>
    <path stroke="null" id="svg_24" d="m25.032959,-1.10912c0.055,-0.044 0.104,-0.094 0.157,-0.14l-0.314,0c0.053,0.046 0.102,0.096 0.157,0.14z" fill="#376BD1"/>
    <path stroke="null" id="svg_25" d="m27.967959,-9.48512c-1.482,0 -2.802,0.69 -3.663,1.765l1.456,0c0.147,0.184 0.276,0.383 0.395,0.588l-2.251,0c-0.11,0.189 -0.207,0.384 -0.289,0.588l2.828,0c0.078,0.19 0.144,0.386 0.197,0.589l-3.215,0c-0.05,0.191 -0.089,0.387 -0.113,0.588l3.442,0c0.024,0.193 0.039,0.389 0.039,0.588l-3.522,0c0,0.2 0.017,0.395 0.04,0.588l3.443,0c-0.025,0.2 -0.065,0.397 -0.114,0.588l-3.215,0c0.052,0.202 0.114,0.399 0.19,0.589l2.83,0c-0.083,0.203 -0.18,0.4 -0.289,0.588l-2.251,0c0.12,0.206 0.252,0.403 0.4,0.588l1.456,0a4.739,4.739 0 0 1 -0.571,0.588l-0.321,0a4.667,4.667 0 0 0 3.098,1.177a4.701,4.701 0 0 0 4.695,-4.706a4.7,4.7 0 0 0 -4.695,-4.706z" fill="#F01524"/>
   </g>
  </g>
  <g stroke="null" id="svg_33">
   <g stroke="null" transform="matrix(5.538167068173027,0,0,5.538167068173027,247.71303853084038,104.44555958786428) " id="svg_30" fill-rule="evenodd" fill="none">
    <path stroke="null" id="svg_31" d="m77.547545,-18.978231l-23.48,0c-0.971,0 -1.76,0.79 -1.76,1.765l0,16.47c0,0.975 0.788,1.765 1.76,1.765l23.48,0c0.972,0 1.76,-0.79 1.76,-1.765l0,-16.47c0,-0.975 -0.788,-1.765 -1.76,-1.765z" fill="#007AC6"/>
    <path stroke="null" id="svg_32" d="m57.902545,-8.726231l1.368,0l-0.684,-1.68l-0.684,1.68zm19.057,-3.192l-3.502,0l-0.855,0.924l-0.77,-0.924l-7.435,0l-0.684,1.512l-0.683,-1.512l-2.993,0l0,0.672l-0.34,-0.672l-2.564,0l-2.478,5.88l2.991,0l0.342,-0.924l0.854,0l0.342,0.924l3.333,0l0,-0.672l0.256,0.672l1.71,0l0.256,-0.756l0,0.756l6.837,0l0.854,-0.924l0.77,0.924l3.503,0l-2.222,-2.94l2.478,-2.941l0,0.001zm-10.34,5.04l-0.94,0l0,-3.276l-1.454,3.276l-0.855,0l-1.452,-3.276l0,3.276l-1.965,0l-0.342,-0.925l-2.05,0l-0.342,0.925l-1.112,0l1.794,-4.202l1.453,0l1.623,3.95l0,-3.95l1.624,0l1.282,2.857l1.196,-2.857l1.623,0l0,4.202l-0.084,0l0.001,0zm8.459,0l-1.281,0l-1.11,-1.43l-1.283,1.43l-3.846,0l0,-4.201l3.931,0l1.197,1.345l1.281,-1.345l1.197,0l-1.88,2.101l1.795,2.1l-0.001,0zm-6.58,-3.362l0,0.757l2.136,0l0,0.84l-2.136,0l0,0.84l2.393,0l1.11,-1.26l-1.024,-1.177l-2.48,0l0.001,0z" fill="#FFF"/>
   </g>
  </g>
  <g stroke="null" id="svg_106">
   <g stroke="null" transform="matrix(0.3679862501578196,0,0,0.3679862501578196,-782.4157044199617,-555.5965575537866) " id="svg_62">
    <g stroke="null" id="svg_63">
     <linearGradient stroke="null" transform="translate(18.11650276184082,0) translate(18.11650276184082,0) translate(18.11650276184082,0) translate(-1.811650276184082,0) translate(-1.811650276184082,0) translate(1.811650276184082,0) translate(1.811650276184082,0) translate(1.811650276184082,0) translate(-18.11650276184082,0) translate(-18.11650276184082,0) translate(-18.11650276184082,0) translate(-3.623300552368164,0) translate(18.11650276184082,0) translate(18.11650276184082,0) translate(18.11650276184082,0) translate(18.11650276184082,0) translate(-1.811650276184082,0) translate(1.811650276184082,0) translate(1.811650276184082,0) translate(1.811650276184082,0) translate(1.811650276184082,0) translate(1.811650276184082,0) translate(-18.11650276184082,0) translate(-18.11650276184082,0) translate(4.547473508864641e-13,-1.811650276184082) translate(4.547473508864641e-13,1.811650276184082) translate(4.547473508864641e-13,-1.811650276184082) translate(4.547473508864641e-13,1.811650276184082) translate(4.547473508864641e-13,1.811650276184082) translate(4.547473508864641e-13,1.811650276184082) translate(4.547473508864641e-13,1.811650276184082) translate(4.547473508864641e-13,1.811650276184082) translate(4.547473508864641e-13,1.811650276184082) translate(112.32231903076172,-644.947509765625) translate(4.940944671630859,-96.34842681884766) translate(-153.16929626464844,570.6791381835938) translate(-4.547473508864641e-13,-2.3044259548187256) translate(-4.547473508864641e-13,-2.3044259548187256) translate(177.4407958984375,-315.70635986328125) translate(2866.177001953125,0) translate(0,1992.1910400390625) " y2="0.989651" x2="0.499999" y1="0.003333" x1="0.499999" id="svg_60">
      <stop stroke="null" stop-color="#FFFFFF" offset="0"/>
      <stop stroke="null" stop-color="#CFD0D0" offset="1"/>
     </linearGradient>
     <path stroke="null" id="svg_64" d="m3529.379722,1780.317281c0,16.5 -13.5,30 -30,30l-420,0c-16.5,0 -30,-13.5 -30,-30l0,-240c0,-16.5 13.5,-30 30,-30l420,0c16.5,0 30,13.5 30,30l0,240z" fill="url(#svg_60)"/>
    </g>
    <linearGradient stroke="null" transform="translate(18.11650276184082,0) translate(18.11650276184082,0) translate(18.11650276184082,0) translate(-1.811650276184082,0) translate(-1.811650276184082,0) translate(1.811650276184082,0) translate(1.811650276184082,0) translate(1.811650276184082,0) translate(-18.11650276184082,0) translate(-18.11650276184082,0) translate(-18.11650276184082,0) translate(-3.623300552368164,0) translate(18.11650276184082,0) translate(18.11650276184082,0) translate(18.11650276184082,0) translate(18.11650276184082,0) translate(-1.811650276184082,0) translate(1.811650276184082,0) translate(1.811650276184082,0) translate(1.811650276184082,0) translate(1.811650276184082,0) translate(1.811650276184082,0) translate(-18.11650276184082,0) translate(-18.11650276184082,0) translate(4.547473508864641e-13,-1.811650276184082) translate(4.547473508864641e-13,1.811650276184082) translate(4.547473508864641e-13,-1.811650276184082) translate(4.547473508864641e-13,1.811650276184082) translate(4.547473508864641e-13,1.811650276184082) translate(4.547473508864641e-13,1.811650276184082) translate(4.547473508864641e-13,1.811650276184082) translate(4.547473508864641e-13,1.811650276184082) translate(4.547473508864641e-13,1.811650276184082) translate(112.32231903076172,-644.947509765625) translate(4.940944671630859,-96.34842681884766) translate(-153.16929626464844,570.6791381835938) translate(-4.547473508864641e-13,-2.3044259548187256) translate(-4.547473508864641e-13,-2.3044259548187256) translate(177.4407958984375,-315.70635986328125) translate(2866.177001953125,0) translate(0,1992.1910400390625) " y2="-0.040462" x2="0.499999" y1="1.047913" x1="0.499999" id="svg_59">
     <stop stroke="null" stop-color="#F26722" offset="0"/>
     <stop stroke="null" stop-color="#EC8023" offset="1"/>
    </linearGradient>
    <path stroke="null" id="svg_65" d="m3103.247722,1810.317281l396.132,0c16.5,0 30,-13.5 30,-30l0,-165.115c-48.158,61.514 -177.593,180.985 -426.132,195.115z" fill="url(#svg_59)"/>
    <g stroke="null" id="svg_66">
     <g stroke="null" id="svg_67">
      <path stroke="null" id="svg_68" d="m3499.379722,1511.317281c15.99,0 29,13.009 29,29l0,240c0,15.99 -13.01,29 -29,29l-420,0c-15.991,0 -29,-13.01 -29,-29l0,-240c0,-15.991 13.009,-29 29,-29l420,0m0,-1l-420,0c-16.5,0 -30,13.5 -30,30l0,240c0,16.5 13.5,30 30,30l420,0c16.5,0 30,-13.5 30,-30l0,-240c0,-16.5 -13.5,-30 -30,-30l0,0z" fill="#CFD0D0"/>
     </g>
    </g>
    <path stroke="null" id="svg_69" d="m3079.379722,1512.317281l418,0c16.5,0 30,13.5 30,30l0,-1c0,-16.5 -13.5,-30 -30,-30l-418,0c-16.5,0 -30,13.5 -30,30l0,1c0,-16.5 13.5,-30 30,-30z" fill="#FFFFFF" opacity="0.5"/>
    <path stroke="null" id="svg_70" d="m3498.379722,1808.317281l-418,0c-16.5,0 -30,-13.5 -30,-30l0,1c0,16.5 13.5,30 30,30l418,0c16.5,0 30,-13.5 30,-30l0,-1c0,16.5 -13.5,30 -30,30z" fill="#FFFFFF" opacity="0.5"/>
   </g>
   <g stroke="null" transform="matrix(0.3679862501578196,0,0,0.3679862501578196,-782.4157044199617,-555.5965575537866) " id="svg_71">
    <circle stroke="null" id="svg_72" r="31.667" cy="1625.650281" cx="3303.108722" fill="#FFFFFF"/>
    <path stroke="null" id="svg_73" d="m3132.573722,1640.818281c-3.735,3.345 -8.545,4.788 -16.189,4.788l-3.176,0l0,-39.754l3.176,0c7.644,0 12.271,1.353 16.189,4.864c4.09,3.606 6.528,9.189 6.528,14.955c0,5.777 -2.438,11.554 -6.528,15.147l0,0zm-13.818,-45.146l-17.376,0l0,60.11l17.285,0c9.171,0 15.804,-2.154 21.623,-6.936c6.903,-5.678 10.998,-14.241 10.998,-23.09c-0.001,-17.746 -13.368,-30.084 -32.53,-30.084" fill="#FFFFFF"/>
    <polyline stroke="null" id="svg_74" points="3156.741502761841,1655.7823486328125 3168.549119949341,1655.7823486328125 3168.549119949341,1595.6724853515625 3156.741502761841,1595.6724853515625 3156.741502761841,1655.7823486328125 " fill="#FFFFFF"/>
    <path stroke="null" id="svg_75" d="m3197.461722,1618.730281c-7.097,-2.608 -9.187,-4.328 -9.187,-7.562c0,-3.788 3.719,-6.668 8.817,-6.668c3.544,0 6.452,1.44 9.551,4.854l6.171,-8.009c-5.088,-4.427 -11.175,-6.676 -17.816,-6.676c-10.713,0 -18.897,7.393 -18.897,17.208c0,8.299 3.813,12.533 14.905,16.508c4.637,1.615 6.994,2.691 8.178,3.426c2.363,1.533 3.549,3.688 3.549,6.212c0,4.873 -3.912,8.474 -9.19,8.474c-5.634,0 -10.174,-2.791 -12.902,-8.018l-7.624,7.308c5.44,7.921 11.985,11.448 20.992,11.448c12.268,0 20.896,-8.123 20.896,-19.748c-0.001,-9.554 -3.99,-13.884 -17.443,-18.757" fill="#FFFFFF"/>
    <path stroke="null" id="svg_76" d="m3218.628722,1625.756281c0,17.684 13.999,31.381 31.998,31.381c5.088,0 9.45,-0.996 14.817,-3.51l0,-13.799c-4.732,4.691 -8.914,6.579 -14.277,6.579c-11.903,0 -20.36,-8.564 -20.36,-20.737c0,-11.531 8.722,-20.637 19.82,-20.637c5.625,0 9.904,1.982 14.817,6.76l0,-13.797c-5.18,-2.604 -9.458,-3.679 -14.548,-3.679c-17.907,0 -32.267,13.972 -32.267,31.439" fill="#FFFFFF"/>
    <polyline stroke="null" id="svg_77" points="3361.225389480591,1636.0494384765625 3345.048143386841,1595.6724853515625 3332.143358230591,1595.6724853515625 3357.870409011841,1657.3172607421875 3364.228319168091,1657.3172607421875 3390.405321121216,1595.6724853515625 3377.594530105591,1595.6724853515625 3361.225389480591,1636.0494384765625 " fill="#FFFFFF"/>
    <polyline stroke="null" id="svg_78" points="3395.778367996216,1655.7823486328125 3429.310350418091,1655.7823486328125 3429.310350418091,1645.6063232421875 3407.592088699341,1645.6063232421875 3407.592088699341,1629.3704833984375 3428.479051589966,1629.3704833984375 3428.479051589966,1619.1922607421875 3407.592088699341,1619.1922607421875 3407.592088699341,1605.8524169921875 3429.310350418091,1605.8524169921875 3429.310350418091,1595.6724853515625 3395.778367996216,1595.6724853515625 3395.778367996216,1655.7823486328125 " fill="#FFFFFF"/>
    <path stroke="null" id="svg_79" d="m3452.379722,1623.340281l-3.44,0l0,-18.216l3.628,0c7.379,0 11.376,3.075 11.376,8.923c-0.001,6.036 -3.998,9.293 -11.564,9.293l0,0zm23.722,-9.927c0,-11.263 -7.805,-17.741 -21.446,-17.741l-17.542,0l0,60.11l11.826,0l0,-24.16l1.548,0l16.35,24.16l14.542,0l-19.098,-25.32c8.92,-1.807 13.82,-7.85 13.82,-17.049" fill="#FFFFFF"/>
   </g>
   <g stroke="null" transform="matrix(0.3679862501578196,0,0,0.3679862501578196,-782.4157044199617,-555.5965575537866) " id="svg_80">
    <radialGradient stroke="null" transform="translate(18.11650276184082,0) translate(18.11650276184082,0) translate(18.11650276184082,0) translate(-1.811650276184082,0) translate(-1.811650276184082,0) translate(1.811650276184082,0) translate(1.811650276184082,0) translate(1.811650276184082,0) translate(-18.11650276184082,0) translate(-18.11650276184082,0) translate(-18.11650276184082,0) translate(-3.623300552368164,0) translate(18.11650276184082,0) translate(18.11650276184082,0) translate(18.11650276184082,0) translate(18.11650276184082,0) translate(-1.811650276184082,0) translate(1.811650276184082,0) translate(1.811650276184082,0) translate(1.811650276184082,0) translate(1.811650276184082,0) translate(1.811650276184082,0) translate(-18.11650276184082,0) translate(-18.11650276184082,0) translate(4.547473508864641e-13,-1.811650276184082) translate(4.547473508864641e-13,1.811650276184082) translate(4.547473508864641e-13,-1.811650276184082) translate(4.547473508864641e-13,1.811650276184082) translate(4.547473508864641e-13,1.811650276184082) translate(4.547473508864641e-13,1.811650276184082) translate(4.547473508864641e-13,1.811650276184082) translate(4.547473508864641e-13,1.811650276184082) translate(4.547473508864641e-13,1.811650276184082) translate(112.32231903076172,-644.947509765625) translate(4.940944671630859,-96.34842681884766) translate(-153.16929626464844,570.6791381835938) translate(-4.547473508864641e-13,-2.3044259548187256) translate(-4.547473508864641e-13,-2.3044259548187256) translate(177.4407958984375,-315.70635986328125) translate(2866.177001953125,0) translate(0,1992.1910400390625) " gradientUnits="userSpaceOnUse" r="38.0894" cy="114" cx="253.7285" id="svg_58">
     <stop stroke="null" stop-color="#FFFFFF" offset="0"/>
     <stop stroke="null" stop-color="#F26722" offset="1"/>
    </radialGradient>
    <circle stroke="null" id="svg_81" r="31.667" cy="1624.317281" cx="3303.108722" fill="url(#svg_58)"/>
    <path stroke="null" id="svg_82" d="m3132.573722,1639.485281c-3.735,3.345 -8.545,4.788 -16.189,4.788l-3.176,0l0,-39.754l3.176,0c7.644,0 12.271,1.353 16.189,4.864c4.09,3.606 6.528,9.189 6.528,14.955c0,5.777 -2.438,11.554 -6.528,15.147l0,0zm-13.818,-45.146l-17.376,0l0,60.11l17.285,0c9.171,0 15.804,-2.154 21.623,-6.936c6.903,-5.678 10.998,-14.241 10.998,-23.09c-0.001,-17.746 -13.368,-30.084 -32.53,-30.084" fill="#0B1720"/>
    <polyline stroke="null" id="svg_83" points="3156.741502761841,1654.4490966796875 3168.549119949341,1654.4490966796875 3168.549119949341,1594.3392333984375 3156.741502761841,1594.3392333984375 3156.741502761841,1654.4490966796875 " fill="#0B1720"/>
    <path stroke="null" id="svg_84" d="m3197.461722,1617.397281c-7.097,-2.608 -9.187,-4.328 -9.187,-7.562c0,-3.788 3.719,-6.668 8.817,-6.668c3.544,0 6.452,1.44 9.551,4.854l6.171,-8.009c-5.088,-4.427 -11.175,-6.676 -17.816,-6.676c-10.713,0 -18.897,7.393 -18.897,17.208c0,8.299 3.813,12.533 14.905,16.508c4.637,1.615 6.994,2.691 8.178,3.426c2.363,1.533 3.549,3.688 3.549,6.212c0,4.873 -3.912,8.474 -9.19,8.474c-5.634,0 -10.174,-2.791 -12.902,-8.018l-7.624,7.308c5.44,7.921 11.985,11.448 20.992,11.448c12.268,0 20.896,-8.123 20.896,-19.748c-0.001,-9.554 -3.99,-13.884 -17.443,-18.757" fill="#0B1720"/>
    <path stroke="null" id="svg_85" d="m3218.628722,1624.423281c0,17.684 13.999,31.381 31.998,31.381c5.088,0 9.45,-0.996 14.817,-3.51l0,-13.799c-4.732,4.691 -8.914,6.579 -14.277,6.579c-11.903,0 -20.36,-8.564 -20.36,-20.737c0,-11.531 8.722,-20.637 19.82,-20.637c5.625,0 9.904,1.982 14.817,6.76l0,-13.797c-5.18,-2.604 -9.458,-3.679 -14.548,-3.679c-17.907,0 -32.267,13.972 -32.267,31.439" fill="#0B1720"/>
    <polyline stroke="null" id="svg_86" points="3361.225389480591,1634.7164306640625 3345.048143386841,1594.3392333984375 3332.143358230591,1594.3392333984375 3357.870409011841,1655.9844970703125 3364.228319168091,1655.9844970703125 3390.405321121216,1594.3392333984375 3377.594530105591,1594.3392333984375 3361.225389480591,1634.7164306640625 " fill="#0B1720"/>
    <polyline stroke="null" id="svg_87" points="3395.778367996216,1654.4490966796875 3429.310350418091,1654.4490966796875 3429.310350418091,1644.2733154296875 3407.592088699341,1644.2733154296875 3407.592088699341,1628.0374755859375 3428.479051589966,1628.0374755859375 3428.479051589966,1617.8594970703125 3407.592088699341,1617.8594970703125 3407.592088699341,1604.5194091796875 3429.310350418091,1604.5194091796875 3429.310350418091,1594.3392333984375 3395.778367996216,1594.3392333984375 3395.778367996216,1654.4490966796875 " fill="#0B1720"/>
    <path stroke="null" id="svg_88" d="m3452.379722,1622.007281l-3.44,0l0,-18.216l3.628,0c7.379,0 11.376,3.075 11.376,8.923c-0.001,6.036 -3.998,9.293 -11.564,9.293l0,0zm23.722,-9.927c0,-11.263 -7.805,-17.741 -21.446,-17.741l-17.542,0l0,60.11l11.826,0l0,-24.16l1.548,0l16.35,24.16l14.542,0l-19.098,-25.32c8.92,-1.807 13.82,-7.85 13.82,-17.049" fill="#0B1720"/>
   </g>
   <g stroke="null" transform="matrix(0.3679862501578196,0,0,0.3679862501578196,-782.4157044199617,-555.5965575537866) " id="svg_89">
    <g stroke="null" id="svg_90">
     <path stroke="null" id="svg_91" d="m3187.620722,1711.317281l0,-33.817l23.092,24.158l0,-22.005l4.778,0l0,33.592l-23.092,-24.097l0,22.169l-4.778,0z" fill="#FFFFFF"/>
     <path stroke="null" id="svg_92" d="m3240.550722,1684.144281l-12.694,0l0,7.608l12.325,0l0,4.491l-12.325,0l0,10.582l12.694,0l0,4.492l-17.473,0l0,-31.664l17.473,0l0,4.491z" fill="#FFFFFF"/>
     <path stroke="null" id="svg_93" d="m3255.562722,1684.144281l0,27.173l-4.778,0l0,-27.173l-7.28,0l0,-4.491l19.318,0l0,4.491l-7.26,0z" fill="#FFFFFF"/>
     <path stroke="null" id="svg_94" d="m3270.533722,1679.653281l8.244,21.164l8.613,-22.702l8.245,22.702l8.756,-21.164l5.189,0l-14.15,33.674l-8.142,-22.436l-8.49,22.456l-13.453,-33.694l5.188,0z" fill="#FFFFFF"/>
     <path stroke="null" id="svg_95" d="m3310.502722,1695.341281c0,-4.457 1.635,-8.285 4.902,-11.484c3.254,-3.199 7.164,-4.799 11.73,-4.799c4.512,0 8.381,1.613 11.607,4.84c3.24,3.227 4.859,7.103 4.859,11.628c0,4.553 -1.627,8.415 -4.881,11.587c-3.268,3.186 -7.211,4.778 -11.832,4.778c-4.088,0 -7.76,-1.415 -11.014,-4.245c-3.58,-3.131 -5.371,-7.232 -5.371,-12.305zm4.82,0.052c0,3.497 1.176,6.372 3.527,8.626c2.338,2.254 5.037,3.381 8.1,3.381c3.322,0 6.125,-1.147 8.408,-3.442c2.283,-2.322 3.426,-5.149 3.426,-8.482c0,-3.374 -1.129,-6.202 -3.385,-8.483c-2.242,-2.295 -5.018,-3.442 -8.326,-3.442c-3.295,0 -6.076,1.147 -8.346,3.442c-2.269,2.266 -3.404,5.067 -3.404,8.4z" fill="#FFFFFF"/>
     <path stroke="null" id="svg_96" d="m3360.336722,1697.823281l9.803,13.494l-5.844,0l-9.045,-12.961l-0.861,0l0,12.961l-4.777,0l0,-31.664l5.598,0c4.184,0 7.205,0.786 9.064,2.358c2.051,1.75 3.076,4.061 3.076,6.932c0,2.242 -0.643,4.17 -1.928,5.783s-2.981,2.646 -5.086,3.097zm-5.947,-3.63l1.518,0c4.525,0 6.789,-1.729 6.789,-5.188c0,-3.24 -2.201,-4.86 -6.604,-4.86l-1.703,0l0,10.048z" fill="#FFFFFF"/>
     <path stroke="null" id="svg_97" d="m3379.676722,1692.286281l12.324,-12.633l6.379,0l-14.314,14.335l14.396,17.329l-6.398,0l-11.402,-14.089l-0.984,0.984l0,13.105l-4.779,0l0,-31.664l4.779,0l0,12.633l-0.001,0z" fill="#FFFFFF"/>
    </g>
    <g stroke="null" id="svg_98">
     <path stroke="null" id="svg_99" d="m3187.620722,1710.317281l0,-33.817l23.092,24.158l0,-22.005l4.778,0l0,33.592l-23.092,-24.097l0,22.169l-4.778,0z" fill="#010101"/>
     <path stroke="null" id="svg_100" d="m3240.550722,1683.144281l-12.694,0l0,7.608l12.325,0l0,4.491l-12.325,0l0,10.582l12.694,0l0,4.492l-17.473,0l0,-31.664l17.473,0l0,4.491z" fill="#010101"/>
     <path stroke="null" id="svg_101" d="m3255.562722,1683.144281l0,27.173l-4.778,0l0,-27.173l-7.28,0l0,-4.491l19.318,0l0,4.491l-7.26,0z" fill="#010101"/>
     <path stroke="null" id="svg_102" d="m3270.533722,1678.653281l8.244,21.164l8.613,-22.702l8.245,22.702l8.756,-21.164l5.189,0l-14.15,33.674l-8.142,-22.436l-8.49,22.456l-13.453,-33.694l5.188,0z" fill="#010101"/>
     <path stroke="null" id="svg_103" d="m3310.502722,1694.341281c0,-4.457 1.635,-8.285 4.902,-11.484c3.254,-3.199 7.164,-4.799 11.73,-4.799c4.512,0 8.381,1.613 11.607,4.84c3.24,3.227 4.859,7.103 4.859,11.628c0,4.553 -1.627,8.415 -4.881,11.587c-3.268,3.186 -7.211,4.778 -11.832,4.778c-4.088,0 -7.76,-1.415 -11.014,-4.245c-3.58,-3.131 -5.371,-7.232 -5.371,-12.305zm4.82,0.052c0,3.497 1.176,6.372 3.527,8.626c2.338,2.254 5.037,3.381 8.1,3.381c3.322,0 6.125,-1.147 8.408,-3.442c2.283,-2.322 3.426,-5.149 3.426,-8.482c0,-3.374 -1.129,-6.202 -3.385,-8.483c-2.242,-2.295 -5.018,-3.442 -8.326,-3.442c-3.295,0 -6.076,1.147 -8.346,3.442c-2.269,2.266 -3.404,5.067 -3.404,8.4z" fill="#010101"/>
     <path stroke="null" id="svg_104" d="m3360.336722,1696.823281l9.803,13.494l-5.844,0l-9.045,-12.961l-0.861,0l0,12.961l-4.777,0l0,-31.664l5.598,0c4.184,0 7.205,0.786 9.064,2.358c2.051,1.75 3.076,4.061 3.076,6.932c0,2.242 -0.643,4.17 -1.928,5.783s-2.981,2.646 -5.086,3.097zm-5.947,-3.63l1.518,0c4.525,0 6.789,-1.729 6.789,-5.188c0,-3.24 -2.201,-4.86 -6.604,-4.86l-1.703,0l0,10.048z" fill="#010101"/>
     <path stroke="null" id="svg_105" d="m3379.676722,1691.286281l12.324,-12.633l6.379,0l-14.314,14.335l14.396,17.329l-6.398,0l-11.402,-14.089l-0.984,0.984l0,13.105l-4.779,0l0,-31.664l4.779,0l0,12.633l-0.001,0z" fill="#010101"/>
    </g>
   </g>
  </g>
 </g>
</svg>