<svg xmlns="http://www.w3.org/2000/svg" width="173" height="40" viewBox="0 0 173 40">
    <g fill="none" fill-rule="evenodd">
        <path fill="#48DC8E" d="M94.323 21.17h4.34v-2.179h-4.34v-3.247h4.664v-2.188h-7.333v12.597h2.669V21.17zm14.662-7.616v7.694a3.21 3.21 0 0 1-.6 2.15c-.507.499-1.214.75-1.928.685a2.496 2.496 0 0 1-1.97-.68 3.195 3.195 0 0 1-.594-2.137v-7.712h-2.704v8.117a4.383 4.383 0 0 0 1.362 3.408 5.484 5.484 0 0 0 3.833 1.245 6.641 6.641 0 0 0 2.835-.56 4.107 4.107 0 0 0 1.832-1.61c.436-.744.656-1.59.638-2.448v-8.152h-2.704zm17.225 0h-2.442v5.964c0 .677.044 1.835.131 3.472h-.06l-5.557-9.436h-3.421v12.599h2.424v-5.93c0-.718-.056-1.918-.167-3.6h.08l5.564 9.53h3.448v-12.6zm12.248 1.628a6.83 6.83 0 0 0-4.865-1.628h-4.014v12.599h3.623c2.263 0 3.994-.552 5.193-1.655 1.2-1.103 1.798-2.69 1.798-4.764a5.938 5.938 0 0 0-1.735-4.552zm-5.004 8.764h-1.165v-8.203h1.445c2.426 0 3.64 1.352 3.64 4.058 0 2.763-1.307 4.145-3.92 4.145zm11.854 2.207v-12.6h-2.712v12.6h2.712zm14.296-12.598h-2.44v5.963c0 .677.043 1.835.13 3.472h-.064l-5.556-9.436h-3.421v12.599h2.424v-5.93c0-.718-.056-1.918-.167-3.6h.08l5.565 9.53h3.448v-12.6l.001.002zm8.224 7.746h2.424v2.628a8.9 8.9 0 0 1-1.72.173 2.971 2.971 0 0 1-2.481-1.082 4.964 4.964 0 0 1-.853-3.132 4.467 4.467 0 0 1 1.058-3.128 3.625 3.625 0 0 1 2.817-1.163c1.013.001 2.012.237 2.914.69l.902-2.137a9.634 9.634 0 0 0-3.8-.776 6.79 6.79 0 0 0-4.912 1.706 6.291 6.291 0 0 0-1.772 4.756c0 2.09.509 3.695 1.527 4.813a5.682 5.682 0 0 0 4.422 1.675c.746.001 1.49-.052 2.228-.16a14.48 14.48 0 0 0 2.323-.555v-6.532h-5.075V21.3l-.002.001z"/>
        <path fill="#161B1D" d="M62.821 21.3h2.424v2.628a8.895 8.895 0 0 1-1.72.172 2.972 2.972 0 0 1-2.482-1.081 4.966 4.966 0 0 1-.853-3.132 4.468 4.468 0 0 1 1.06-3.128 3.626 3.626 0 0 1 2.816-1.163c1.013 0 2.011.237 2.914.69l.902-2.137a9.634 9.634 0 0 0-3.8-.777 6.791 6.791 0 0 0-4.912 1.706 6.291 6.291 0 0 0-1.772 4.757c0 2.09.509 3.695 1.527 4.812a5.682 5.682 0 0 0 4.422 1.676c.746 0 1.49-.052 2.227-.16a14.48 14.48 0 0 0 2.323-.555v-6.53h-5.076V21.3zm15.53 2.646h-4.655v-3.247h4.328V18.51h-4.331v-2.767h4.655v-2.189h-7.365v12.599h7.367v-2.207zm7.755-8.17h3.474v-2.222h-9.66v2.222h3.474v10.377h2.712V15.776z"/>
        <g>
            <path fill="#48DC8E" d="M16.93 8.707h13.598L35.803 0H11.657z"/>
            <path fill="#34BE75" d="M0 20.136h10.546l6.661-11.428L11.657 0zM30.53 31.292L35.526 40h.277l4.996-8.707H30.53z"/>
            <path fill="#161B1D" d="M19.428 15.786v8.704h14.987l-3.885 7.071H40.8l6.94-11.428-6.108-10.337h-9.714l2.497 5.99z"/>
            <path fill="#48DC8E" d="M10.546 37.279V20.136H0zM19.15 31.292V40h16.653l-5.273-8.707H19.15z"/>
        </g>
    </g>
</svg>
