<svg xmlns="http://www.w3.org/2000/svg" width="24" height="22" viewBox="0 0 24 22">
    <g fill="none" fill-rule="evenodd">
        <path fill="#8A969B" d="M22 2V1c0-.6-.4-1-1-1H3c-.6 0-1 .4-1 1v1h20z"/>
        <path stroke="#8A969B" stroke-linecap="square" stroke-width="2" d="M1 5h22v16H1z"/>
        <path stroke="#8A969B" stroke-linecap="square" stroke-width="2" d="M13.414 11.586a2 2 0 1 1-2.828 2.828 2 2 0 0 1 2.828-2.828"/>
        <path stroke="#8A969B" stroke-linecap="square" stroke-width="2" d="M17 8H7c0 1.7-1.3 3-3 3v4c1.7 0 3 1.3 3 3h10c0-1.7 1.3-3 3-3v-4c-1.7 0-3-1.3-3-3z"/>
    </g>
</svg>
