<svg xmlns="http://www.w3.org/2000/svg" width="22" height="22" viewBox="0 0 22 22">
    <path fill="#0DC1C3" fill-rule="nonzero" d="M21.99 17.362c.046.358-.063.668-.327.932l-3.097 3.077c-.14.155-.322.287-.547.396a2.26 2.26 0 0 1-.664.21c-.016 0-.062.004-.14.011a3.17 3.17 0 0 1-.303.012c-.295 0-.772-.05-1.432-.152-.66-.1-1.467-.35-2.422-.745-.955-.396-2.038-.99-3.249-1.783-1.211-.792-2.5-1.88-3.866-3.263-1.087-1.072-1.988-2.097-2.702-3.076-.714-.979-1.288-1.884-1.723-2.715C1.083 9.435.757 8.68.54 8.006a12 12 0 0 1-.443-1.749c-.078-.489-.109-.874-.093-1.153.015-.28.023-.435.023-.466.031-.218.101-.44.21-.664.108-.226.24-.408.396-.548L3.73.326C3.948.11 4.196 0 4.476 0c.201 0 .38.058.535.175.155.116.287.26.396.43L7.9 5.338c.14.248.179.52.117.816a1.453 1.453 0 0 1-.396.745L6.478 8.04a.389.389 0 0 0-.081.152.575.575 0 0 0-.035.175c.062.326.202.699.42 1.118.186.373.473.827.861 1.363.388.537.94 1.154 1.654 1.853.698.715 1.32 1.27 1.863 1.667.543.396.997.687 1.362.873.365.187.645.3.839.338l.29.059a.555.555 0 0 0 .152-.035c.07-.024.12-.05.152-.082l1.327-1.352c.28-.248.606-.372.978-.372.264 0 .474.046.629.14h.023l4.495 2.656c.326.202.52.459.583.77z"/>
</svg>
