<svg width="25" height="25" viewBox="0 0 25 25" fill="none" xmlns="http://www.w3.org/2000/svg">
<g clip-path="url(#clip0_2262_205)">
<mask id="mask0_2262_205" style="mask-type:alpha" maskUnits="userSpaceOnUse" x="0" y="0" width="25" height="25">
<path d="M25 12.5C25 5.59644 19.4036 0 12.5 0C5.59644 0 0 5.59644 0 12.5C0 19.4036 5.59644 25 12.5 25C19.4036 25 25 19.4036 25 12.5Z" fill="url(#paint0_linear_2262_205)"/>
</mask>
<g mask="url(#mask0_2262_205)">
<path d="M25 12.5C25 5.59644 19.4036 0 12.5 0C5.59644 0 0 5.59644 0 12.5C0 19.4036 5.59644 25 12.5 25C19.4036 25 25 19.4036 25 12.5Z" fill="url(#paint1_linear_2262_205)"/>
<g filter="url(#filter0_f_2262_205)">
<path d="M29.142 6C28.9754 8.33334 26.942 13.2 20.142 14C11.642 15 9.64204 10 9.64204 8C9.64204 6 11.642 3.00001 14.142 2.00001C16.0372 1.24195 14.1971 -3.25137 11.0176 -4.29217C7.75431 -3.46712 5.9606 -3.15927 7.64204 -3.99999C8.85174 -4.60485 10.0029 -4.62435 11.0176 -4.29217C15.5175 -5.42983 22.8117 -7.5509 27.642 -9L29.142 6Z" fill="url(#paint2_linear_2262_205)"/>
</g>
<path d="M15.9852 7.30501C16.2564 7.45191 16.392 7.6779 16.392 7.98298C16.392 8.18637 16.3242 8.37281 16.1886 8.5423C16.053 8.72309 15.8666 8.81349 15.6293 8.81349C15.4711 8.81349 15.3185 8.77394 15.1716 8.69484C14.4711 8.29936 13.714 8.10162 12.9005 8.10162C12.053 8.10162 11.3016 8.28806 10.6462 8.66095C10.0022 9.03383 9.49933 9.55925 9.13775 10.2372C8.77616 10.9039 8.59537 11.6722 8.59537 12.5423C8.59537 13.4802 8.78181 14.2881 9.15469 14.966C9.52758 15.644 10.0417 16.1638 10.6971 16.5254C11.3524 16.8756 12.0869 17.0508 12.9005 17.0508C13.7366 17.0508 14.4937 16.8474 15.1716 16.4406C15.3072 16.3728 15.4541 16.3389 15.6123 16.3389C15.8609 16.3389 16.0586 16.435 16.2055 16.627C16.3411 16.7965 16.4089 16.9773 16.4089 17.1694C16.4089 17.305 16.3694 17.435 16.2903 17.5593C16.2225 17.6722 16.1264 17.7626 16.0022 17.8304C15.5615 18.079 15.0643 18.2768 14.5106 18.4237C13.9683 18.5706 13.4315 18.644 12.9005 18.644C11.8044 18.644 10.7931 18.4011 9.86656 17.9152C8.9513 17.4293 8.21684 16.7231 7.66317 15.7965C7.1208 14.87 6.84961 13.7852 6.84961 12.5423C6.84961 11.4011 7.1095 10.3728 7.62927 9.45756C8.16034 8.531 8.88351 7.80784 9.79876 7.28807C10.7253 6.75699 11.7592 6.49146 12.9005 6.49146C13.9965 6.49146 15.0248 6.76264 15.9852 7.30501Z" fill="white"/>
</g>
</g>
<defs>
<filter id="filter0_f_2262_205" x="5" y="-11" width="26.1416" height="27.1309" filterUnits="userSpaceOnUse" color-interpolation-filters="sRGB">
<feFlood flood-opacity="0" result="BackgroundImageFix"/>
<feBlend mode="normal" in="SourceGraphic" in2="BackgroundImageFix" result="shape"/>
<feGaussianBlur stdDeviation="1" result="effect1_foregroundBlur_2262_205"/>
</filter>
<linearGradient id="paint0_linear_2262_205" x1="0" y1="0" x2="22.5" y2="28" gradientUnits="userSpaceOnUse">
<stop stop-color="#D62927"/>
<stop offset="0.445" stop-color="#E22C23"/>
<stop offset="1" stop-color="#E2433C"/>
</linearGradient>
<linearGradient id="paint1_linear_2262_205" x1="19" y1="-0.5" x2="5" y2="24.5" gradientUnits="userSpaceOnUse">
<stop stop-color="#6CE9F4"/>
<stop offset="1" stop-color="#026FE7"/>
</linearGradient>
<linearGradient id="paint2_linear_2262_205" x1="18.071" y1="-9" x2="15.5" y2="14" gradientUnits="userSpaceOnUse">
<stop stop-color="#42ECF5" stop-opacity="0"/>
<stop offset="1" stop-color="#35EBF4"/>
</linearGradient>
<clipPath id="clip0_2262_205">
<rect width="25" height="25" fill="white"/>
</clipPath>
</defs>
</svg>
