<svg width="25" height="25" viewBox="0 0 25 25" fill="none" xmlns="http://www.w3.org/2000/svg">
<g clip-path="url(#clip0_2262_195)">
<mask id="mask0_2262_195" style="mask-type:alpha" maskUnits="userSpaceOnUse" x="0" y="0" width="25" height="25">
<path d="M25 12.5C25 5.59644 19.4036 0 12.5 0C5.59644 0 0 5.59644 0 12.5C0 19.4036 5.59644 25 12.5 25C19.4036 25 25 19.4036 25 12.5Z" fill="url(#paint0_linear_2262_195)"/>
</mask>
<g mask="url(#mask0_2262_195)">
<path d="M25 12.5C25 5.59644 19.4036 0 12.5 0C5.59644 0 0 5.59644 0 12.5C0 19.4036 5.59644 25 12.5 25C19.4036 25 25 19.4036 25 12.5Z" fill="url(#paint1_linear_2262_195)"/>
<path d="M15.5 16.4999C12.7 18.4999 0 11.9998 -6 17.9999L-1 -2.0001C6.66667 -5.83343 21.8 -9.00001 21 0.999987C20 13.5 19 13.9999 15.5 16.4999Z" fill="url(#paint2_linear_2262_195)"/>
<path d="M16.3898 11.7966C16.6158 11.7966 16.8023 11.8757 16.9492 12.0339C17.1073 12.1921 17.1864 12.3842 17.1864 12.6102V16.4237C17.1864 16.7288 17.0508 16.9661 16.7797 17.1356C16.2599 17.4746 15.6893 17.7401 15.0678 17.9322C14.4463 18.113 13.8079 18.2034 13.1525 18.2034C12.0226 18.2034 10.9831 17.9322 10.0339 17.3898C9.09605 16.8475 8.35593 16.113 7.81356 15.1864C7.27119 14.2486 7 13.2203 7 12.1017C7 10.9831 7.27119 9.96045 7.81356 9.0339C8.35593 8.09605 9.09605 7.35593 10.0339 6.81356C10.9831 6.27119 12.0226 6 13.1525 6C13.7175 6 14.2599 6.06215 14.7797 6.18644C15.3107 6.31073 15.7853 6.49718 16.2034 6.74576C16.339 6.82486 16.4407 6.9209 16.5085 7.0339C16.5763 7.14689 16.6102 7.27119 16.6102 7.40678C16.6102 7.63277 16.5311 7.83051 16.3729 8C16.226 8.15819 16.0452 8.23729 15.8305 8.23729C15.661 8.23729 15.5141 8.19774 15.3898 8.11864C14.6554 7.77966 13.9096 7.61017 13.1525 7.61017C12.339 7.61017 11.5932 7.80791 10.9153 8.20339C10.2486 8.59887 9.71751 9.14124 9.32203 9.83051C8.93785 10.5198 8.74576 11.2768 8.74576 12.1017C8.74576 12.9266 8.93785 13.6836 9.32203 14.3729C9.71751 15.0508 10.2486 15.5932 10.9153 16C11.5932 16.3955 12.339 16.5932 13.1525 16.5932C13.5367 16.5932 13.9379 16.548 14.3559 16.4576C14.7853 16.3672 15.1525 16.2486 15.4576 16.1017V13.4068H13.4068C13.1808 13.4068 12.9887 13.3333 12.8305 13.1864C12.6723 13.0282 12.5932 12.8362 12.5932 12.6102C12.5932 12.3729 12.6723 12.1808 12.8305 12.0339C12.9887 11.8757 13.1808 11.7966 13.4068 11.7966H16.3898Z" fill="white"/>
</g>
</g>
<defs>
<linearGradient id="paint0_linear_2262_195" x1="0" y1="0" x2="22.5" y2="28" gradientUnits="userSpaceOnUse">
<stop stop-color="#D62927"/>
<stop offset="0.445" stop-color="#E22C23"/>
<stop offset="1" stop-color="#E2433C"/>
</linearGradient>
<linearGradient id="paint1_linear_2262_195" x1="0" y1="0" x2="22.5" y2="28" gradientUnits="userSpaceOnUse">
<stop stop-color="#D62927"/>
<stop offset="0.445" stop-color="#E22C23"/>
<stop offset="1" stop-color="#E2433C"/>
</linearGradient>
<linearGradient id="paint2_linear_2262_195" x1="3" y1="3.49999" x2="18" y2="15.5" gradientUnits="userSpaceOnUse">
<stop stop-color="#E33931" stop-opacity="0"/>
<stop offset="1" stop-color="#FB5316"/>
</linearGradient>
<clipPath id="clip0_2262_195">
<rect width="25" height="25" fill="white"/>
</clipPath>
</defs>
</svg>
