<svg width="25" height="25" viewBox="0 0 25 25" fill="none" xmlns="http://www.w3.org/2000/svg">
<g clip-path="url(#clip0_2262_264)">
<mask id="mask0_2262_264" style="mask-type:alpha" maskUnits="userSpaceOnUse" x="0" y="0" width="25" height="25">
<path d="M25 12.5C25 5.59644 19.4036 0 12.5 0C5.59644 0 0 5.59644 0 12.5C0 19.4036 5.59644 25 12.5 25C19.4036 25 25 19.4036 25 12.5Z" fill="url(#paint0_linear_2262_264)"/>
</mask>
<g mask="url(#mask0_2262_264)">
<path d="M25 12.5C25 5.59644 19.4036 0 12.5 0C5.59644 0 0 5.59644 0 12.5C0 19.4036 5.59644 25 12.5 25C19.4036 25 25 19.4036 25 12.5Z" fill="url(#paint1_linear_2262_264)"/>
<g filter="url(#filter0_f_2262_264)">
<path d="M3.8308 -1.45471C0.445664 -6.29422 1.09642 -9.73594 1.84494 -10.8519L-3.07686 -9.97133C-5.09438 -8.18818 -9.30932 -4.26463 -10.0289 -2.83557C-10.9284 -1.04926 -11.8406 5.20917 -11.1786 8.34156C-10.649 10.8475 -5.60956 15.8109 -3.15602 17.9794C-1.8881 17.6848 1.81329 16.1151 6.47544 12.1929C12.3031 7.28999 8.06221 4.59468 3.8308 -1.45471Z" fill="url(#paint2_linear_2262_264)"/>
</g>
<g filter="url(#filter1_f_2262_264)">
<path d="M14.6066 21.8615C12.4729 27.3686 9.25203 28.7452 7.90832 28.7451L11.3811 32.3422C13.9858 33.0246 19.5921 34.3396 21.1797 34.1413C23.1643 33.8933 28.87 31.1649 31.1028 28.8704C32.889 27.0348 34.2042 20.0848 34.6385 16.8392C33.6876 15.9503 30.3223 13.7506 24.4679 12.0634C17.15 9.95435 17.2737 14.9778 14.6066 21.8615Z" fill="url(#paint3_linear_2262_264)"/>
</g>
</g>
<path d="M16.7239 15.2882C16.7239 16.1356 16.4189 16.8531 15.8087 17.4407C15.2098 18.0283 14.4415 18.4068 13.5036 18.5763V19.9492C13.5036 20.1865 13.4245 20.3786 13.2663 20.5254C13.1194 20.6836 12.9273 20.7627 12.69 20.7627C12.4641 20.7627 12.272 20.6836 12.1138 20.5254C11.9669 20.3786 11.8934 20.1865 11.8934 19.9492V18.6102C11.2381 18.5537 10.6449 18.4125 10.1138 18.1865C9.5827 17.9605 9.07423 17.6215 8.58835 17.1695C8.35107 16.9661 8.23242 16.7345 8.23242 16.4746C8.23242 16.2712 8.31152 16.0904 8.46971 15.9322C8.6279 15.7627 8.81434 15.678 9.02903 15.678C9.22112 15.678 9.38496 15.7401 9.52056 15.8644C9.88214 16.2034 10.255 16.4689 10.6392 16.661C11.0234 16.8531 11.4415 16.9831 11.8934 17.0509V13.1356C10.8087 12.887 9.97818 12.4972 9.40191 11.9661C8.82564 11.4238 8.53751 10.6893 8.53751 9.76273C8.53751 8.87008 8.84259 8.13561 9.45276 7.55934C10.0742 6.97177 10.8878 6.61584 11.8934 6.49155V5.61019C11.8934 5.3729 11.9725 5.18081 12.1307 5.03392C12.2889 4.87573 12.4867 4.79663 12.7239 4.79663C12.9499 4.79663 13.1364 4.87573 13.2833 5.03392C13.4302 5.18081 13.5036 5.3729 13.5036 5.61019V6.5085C14.0347 6.58759 14.5262 6.72883 14.9782 6.93222C15.4302 7.13561 15.8087 7.3842 16.1138 7.67799C16.3737 7.90398 16.5036 8.14691 16.5036 8.4068C16.5036 8.61019 16.4245 8.79098 16.2663 8.94917C16.1194 9.10737 15.9386 9.18646 15.7239 9.18646C15.5658 9.18646 15.4358 9.14126 15.3341 9.05087C15.1307 8.84748 14.8652 8.66104 14.5375 8.49155C14.2098 8.32205 13.8652 8.19776 13.5036 8.11867V11.8814C14.5884 12.1639 15.3963 12.5593 15.9273 13.0678C16.4584 13.565 16.7239 14.3051 16.7239 15.2882ZM10.1477 9.69494C10.1477 10.1469 10.2946 10.5141 10.5884 10.7966C10.8934 11.0678 11.3285 11.2938 11.8934 11.4746V8.05087C11.3511 8.14126 10.9217 8.33335 10.6053 8.62714C10.3002 8.92093 10.1477 9.27686 10.1477 9.69494ZM13.5036 16.9661C13.9782 16.8418 14.3624 16.6384 14.6562 16.356C14.9499 16.0735 15.0968 15.7401 15.0968 15.356C15.0855 14.9266 14.9443 14.5706 14.6731 14.2882C14.4132 13.9944 14.0234 13.7514 13.5036 13.5593V16.9661Z" fill="white"/>
</g>
<defs>
<filter id="filter0_f_2262_264" x="-12.4053" y="-11.8518" width="22.7314" height="30.8313" filterUnits="userSpaceOnUse" color-interpolation-filters="sRGB">
<feFlood flood-opacity="0" result="BackgroundImageFix"/>
<feBlend mode="normal" in="SourceGraphic" in2="BackgroundImageFix" result="shape"/>
<feGaussianBlur stdDeviation="0.5" result="effect1_foregroundBlur_2262_264"/>
</filter>
<filter id="filter1_f_2262_264" x="6.9082" y="10.5771" width="28.7305" height="24.5842" filterUnits="userSpaceOnUse" color-interpolation-filters="sRGB">
<feFlood flood-opacity="0" result="BackgroundImageFix"/>
<feBlend mode="normal" in="SourceGraphic" in2="BackgroundImageFix" result="shape"/>
<feGaussianBlur stdDeviation="0.5" result="effect1_foregroundBlur_2262_264"/>
</filter>
<linearGradient id="paint0_linear_2262_264" x1="0" y1="0" x2="22.5" y2="28" gradientUnits="userSpaceOnUse">
<stop stop-color="#D62927"/>
<stop offset="0.445" stop-color="#E22C23"/>
<stop offset="1" stop-color="#E2433C"/>
</linearGradient>
<linearGradient id="paint1_linear_2262_264" x1="7" y1="-1" x2="17.5" y2="25" gradientUnits="userSpaceOnUse">
<stop stop-color="#171717"/>
<stop offset="1" stop-color="#121212"/>
</linearGradient>
<linearGradient id="paint2_linear_2262_264" x1="9.29635" y1="8.575" x2="-10.7035" y2="-1.49584" gradientUnits="userSpaceOnUse">
<stop stop-color="#303030"/>
<stop offset="1" stop-color="#474747" stop-opacity="0.24"/>
</linearGradient>
<linearGradient id="paint3_linear_2262_264" x1="19.892" y1="11.7357" x2="22.6682" y2="33.9553" gradientUnits="userSpaceOnUse">
<stop stop-color="#303030"/>
<stop offset="1" stop-color="#474747" stop-opacity="0.24"/>
</linearGradient>
<clipPath id="clip0_2262_264">
<rect width="25" height="25" fill="white"/>
</clipPath>
</defs>
</svg>
