<?xml version="1.0" standalone="no"?>
<!DOCTYPE svg PUBLIC "-//W3C//DTD SVG 20010904//EN"
 "http://www.w3.org/TR/2001/REC-SVG-20010904/DTD/svg10.dtd">
<svg version="1.0" xmlns="http://www.w3.org/2000/svg"
 width="16.000000pt" height="16.000000pt" viewBox="0 0 16.000000 16.000000"
 preserveAspectRatio="xMidYMid meet">
<metadata>
Created by potrace 1.11, written by Peter Selinger 2001-2013
</metadata>
<g transform="translate(0.000000,16.000000) scale(0.003653,-0.003653)"
fill="#000000" stroke="none">
<path d="M2028 4376 c-1 -2 -32 -6 -68 -10 -295 -28 -631 -138 -879 -288 -34
-21 -67 -38 -71 -38 -5 0 -10 -3 -12 -7 -2 -5 -23 -21 -48 -38 -52 -35 -54
-36 -140 -106 -72 -58 -82 -67 -158 -142 -75 -74 -137 -144 -185 -207 -23 -30
-50 -64 -59 -74 -10 -11 -18 -24 -18 -28 0 -5 -9 -18 -20 -30 -11 -12 -20 -28
-20 -35 0 -7 -4 -13 -10 -13 -5 0 -10 -7 -10 -15 0 -8 -3 -15 -7 -15 -5 0 -13
-10 -19 -23 -6 -12 -34 -67 -63 -121 -84 -164 -175 -419 -195 -552 -4 -22 -9
-47 -12 -56 -3 -9 -7 -32 -9 -50 -1 -18 -7 -62 -11 -98 -16 -121 -10 -445 10
-560 3 -14 7 -41 10 -60 56 -353 260 -786 493 -1045 10 -11 30 -34 44 -52 15
-18 30 -29 33 -26 3 4 6 2 6 -4 0 -6 23 -33 51 -60 29 -26 59 -55 68 -64 9 -8
45 -39 81 -68 36 -28 71 -57 79 -63 32 -27 111 -78 120 -78 5 0 11 -4 13 -8 8
-19 274 -158 363 -189 265 -92 359 -114 595 -143 66 -8 428 -6 465 3 11 3 43
8 70 11 28 4 68 11 90 16 22 5 55 11 72 15 153 26 527 177 629 252 17 13 34
23 37 23 10 0 141 92 149 104 5 7 8 7 8 1 0 -6 3 -6 8 0 4 6 34 33 67 59 79
63 185 165 185 177 0 6 5 7 10 4 6 -3 10 -2 10 2 0 5 17 27 38 48 115 122 245
315 333 495 23 47 45 93 51 103 21 41 71 188 98 287 59 219 75 338 75 575 0
149 -7 267 -20 332 -2 11 -6 37 -9 57 -3 19 -11 57 -17 83 -6 27 -12 57 -15
67 -9 45 -68 224 -85 260 -10 22 -19 44 -19 49 0 37 -205 403 -232 415 -5 2
-8 10 -8 17 0 7 -3 15 -7 17 -5 2 -21 21 -38 43 -73 99 -265 294 -370 377 -86
68 -231 165 -305 203 -30 16 -63 36 -72 44 -10 8 -18 11 -18 8 0 -4 -26 6 -57
22 -102 51 -339 132 -428 146 -11 2 -40 8 -65 14 -25 5 -65 13 -90 16 -25 3
-61 8 -80 11 -38 6 -406 15 -412 10z"/>
</g>
</svg>
