<?xml version="1.0" encoding="utf-8"?>
<!-- Generator: Adobe Illustrator 22.1.0, SVG Export Plug-In . SVG Version: 6.00 Build 0)  -->
<svg version="1.1" id="Capa_1" xmlns="http://www.w3.org/2000/svg" xmlns:xlink="http://www.w3.org/1999/xlink" x="0px" y="0px"
	 viewBox="0 0 496 379" style="enable-background:new 0 0 496 379;" xml:space="preserve">
<style type="text/css">
	.st0{fill:#005E88;}
	.st1{fill:#0D769B;}
	.st2{fill:#004760;}
</style>
<g>
	<polygon class="st0" points="319.2,237.5 176,237.5 170.4,254.3 208.8,254.3 216,278.3 279.2,278.3 286.4,254.3 324.8,254.3 	"/>
	<path class="st1" d="M199.2,140.7c-5.6,7.2-7.2,16-6.4,25.6c1.6,8.8,6.4,16.8,13.6,22.4l34.4,24.8c1.6,1.6,3.2,3.2,3.2,5.6
		c0,2.4,0,4.8-1.6,6.4l4.8,4l18.4-24.8c4-5.6,6.4-12.8,6.4-20c0-1.6,0-4-0.8-5.6c-1.6-8.8-6.4-16.8-13.6-22.4l-34.4-24.8
		c-1.6-1.6-3.2-3.2-3.2-5.6c0-0.8,0-0.8,0-1.6c0-1.6,0.8-3.2,1.6-4.8l0,0l-4.8-4L199.2,140.7z"/>
	<path class="st0" d="M224,131.1c-1.6-1.6-3.2-3.2-3.2-5.6c0-0.8,0-0.8,0-1.6c0-1.6,0.8-3.2,1.6-4.8l0,0l-4.8-4l-18.4,24.8
		c-5.6,7.2-7.2,16-6.4,25.6c1.6,8.8,6.4,16.8,13.6,22.4l34.4,24.8c1.6,1.6,3.2,3.2,3.2,5.6c0,2.4,0,4.8-1.6,6.4l4.8,4l18.4-24.8"/>
	<path class="st1" d="M220,40.7c-6.4,8.8-9.6,18.4-9.6,28.8c0,2.4,0,5.6,0.8,8c2.4,12.8,8.8,24,20,32l43.2,31.2
		c5.6,4,9.6,10.4,10.4,16.8c0,1.6,0,3.2,0,4c0,5.6-1.6,11.2-4.8,15.2l0,0l4,3.2l34.4-47.2c8-10.4,11.2-24,8.8-36.8
		c-2.4-12.8-8.8-24-20-32l-52-37.6c-3.2-2.4-5.6-5.6-6.4-9.6s0-8,2.4-11.2l-4-3.2L220,40.7z"/>
	<path class="st0" d="M255.2,26.3c-3.2-2.4-5.6-5.6-6.4-9.6s0-8,2.4-11.2l-4-3.2L220,40.7c-6.4,8.8-9.6,18.4-9.6,28.8
		c0,2.4,0,5.6,0.8,8c2.4,12.8,8.8,24,20,32l43.2,31.2c5.6,4,9.6,10.4,10.4,16.8c0,1.6,0,3.2,0,4c0,5.6-1.6,11.2-4.8,15.2l0,0l4,3.2
		l34.4-47.2"/>
	<g>
		<path class="st2" d="M244,226.3c4-5.6,6.4-12,6.4-19.2c0-1.6,0-4-0.8-5.6c-1.6-8.8-6.4-16.8-13.6-22.4l-34.4-24.8
			c-1.6-1.6-3.2-3.2-3.2-5.6c0-0.8,0-0.8,0-1.6c0-1.6,0.8-3.2,1.6-4.8l0,0l-0.8-0.8c-4.8,7.2-7.2,16-5.6,24.8
			c1.6,8.8,6.4,16.8,13.6,22.4l34.4,24.8c1.6,1.6,3.2,3.2,3.2,5.6c0,2.4,0,4.8-1.6,6.4L244,226.3z"/>
		<path class="st2" d="M304,119.1c-2.4-12.8-8.8-24-20-32l-52-37.6c-3.2-2.4-5.6-5.6-6.4-9.6c-0.8-4,0-8,2.4-11.2l0,0l-8.8,12
			c-6.4,8.8-9.6,18.4-9.6,28.8c0,2.4,0,5.6,0.8,8c2.4,12.8,8.8,24,20,32l43.2,31.2c5.6,4,9.6,10.4,10.4,16.8c0,1.6,0,3.2,0,4
			c0,5.6-1.6,11.2-4.8,15.2l0,0l15.2-21.6C303.2,145.5,306.4,132.7,304,119.1z"/>
		<path class="st2" d="M132,292.7h39.2c9.6,0,17.6,2.4,22.4,7.2c4,4,5.6,8.8,5.6,14.4l0,0c0,9.6-4.8,15.2-11.2,18.4
			c9.6,4,16,9.6,16,20.8l0,0c0,15.2-12.8,23.2-32,23.2h-40V292.7z M167.2,327.1c8,0,13.6-2.4,13.6-8.8l0,0c0-5.6-4-8.8-12-8.8h-19.2
			v17.6L167.2,327.1L167.2,327.1z M172,360.7c8,0,13.6-3.2,13.6-8.8l0,0c0-5.6-4-9.6-13.6-9.6h-22.4v18.4H172z"/>
	</g>
	<path class="st0" d="M212,292.7h39.2c9.6,0,17.6,2.4,22.4,7.2c4,4,5.6,8.8,5.6,14.4l0,0c0,9.6-4.8,15.2-11.2,18.4
		c9.6,4,16,9.6,16,20.8l0,0c0,15.2-12.8,23.2-32,23.2h-40V292.7z M247.2,327.1c8,0,13.6-2.4,13.6-8.8l0,0c0-5.6-4-8.8-12-8.8h-19.2
		v17.6L247.2,327.1L247.2,327.1z M252,360.7c8,0,13.6-3.2,13.6-8.8l0,0c0-5.6-4-9.6-13.6-9.6h-22.4v18.4H252z"/>
	<path class="st1" d="M292,292.7h39.2c9.6,0,17.6,2.4,22.4,7.2c4,4,5.6,8.8,5.6,14.4l0,0c0,9.6-4.8,15.2-11.2,18.4
		c9.6,4,16,9.6,16,20.8l0,0c0,15.2-12.8,23.2-32,23.2h-40V292.7z M327.2,327.1c8,0,13.6-2.4,13.6-8.8l0,0c0-5.6-4-8.8-12-8.8h-18.4
		v17.6L327.2,327.1L327.2,327.1z M332,360.7c8,0,12.8-3.2,12.8-8.8l0,0c0-5.6-4-9.6-13.6-9.6h-21.6v18.4H332z"/>
	<polygon class="st2" points="172.8,246.3 170.4,254.3 208.8,254.3 216,278.3 279.2,278.3 286.4,254.3 324.8,254.3 322.4,246.3 	"/>
</g>
</svg>
