<?xml version="1.0" encoding="iso-8859-1"?>
<!-- Generator: Adobe Illustrator 19.0.0, SVG Export Plug-In . SVG Version: 6.00 Build 0)  -->
<svg version="1.1" id="Capa_1" xmlns="http://www.w3.org/2000/svg" xmlns:xlink="http://www.w3.org/1999/xlink" x="0px" y="0px"
	 viewBox="0 0 512 512" style="enable-background:new 0 0 512 512;" xml:space="preserve">
<circle style="fill:#8BD7F8;" cx="256" cy="256" r="245.333"/>
<g>
	<ellipse style="fill:#57C0EC;" cx="256" cy="256" rx="128" ry="245.333"/>
</g>
<path style="fill:#354B5E;" d="M256,0C115.2,0,0,115.2,0,256s115.2,256,256,256s256-115.2,256-256S396.8,0,256,0z M22.4,266.667
	h94.933c1.067,35.2,5.333,69.333,12.8,99.2h-80C34.133,336,24.533,302.933,22.4,266.667z M266.667,123.733V23.467
	c34.133,6.4,65.067,45.867,84.267,100.267L266.667,123.733L266.667,123.733z M358.4,146.133c8.533,29.867,12.8,64,13.867,99.2
	h-105.6v-99.2H358.4z M245.333,23.467v100.267h-84.267C180.267,68.267,210.133,29.867,245.333,23.467z M245.333,146.133v99.2h-105.6
	c1.067-35.2,6.4-69.333,13.867-99.2H245.333z M117.333,245.333H22.4c2.133-35.2,11.733-69.333,27.733-99.2H131.2
	C122.667,176,118.4,209.067,117.333,245.333z M139.733,266.667h105.6v99.2h-90.667C146.133,336,140.8,302.933,139.733,266.667z
	 M245.333,388.267v100.267c-34.133-6.4-65.067-45.867-84.267-100.267H245.333z M266.667,488.533V388.267h84.267
	C331.733,443.733,301.867,482.133,266.667,488.533z M266.667,365.867v-99.2h105.6c-1.067,35.2-6.4,69.333-13.867,99.2H266.667z
	 M394.667,266.667H489.6c-2.133,35.2-11.733,69.333-27.733,99.2h-80C389.333,336,393.6,302.933,394.667,266.667z M394.667,245.333
	c-1.067-35.2-5.333-69.333-12.8-99.2h80c16,29.867,25.6,62.933,27.733,99.2H394.667z M449.067,123.733h-73.6
	c-12.8-38.4-29.867-69.333-51.2-90.667C375.467,48,419.2,81.067,449.067,123.733z M187.733,33.067
	C166.4,54.4,149.333,86.4,136.533,124.8h-73.6C92.8,81.067,136.533,48,187.733,33.067z M62.933,388.267h73.6
	c11.733,38.4,29.867,69.333,51.2,91.733C136.533,464,92.8,430.933,62.933,388.267z M324.267,478.933
	c21.333-21.333,38.4-53.333,51.2-91.733h73.6C419.2,430.933,375.467,464,324.267,478.933z"/>
<path style="fill:#F15741;" d="M365.867,182.4c-38.4,0-70.4,32-70.4,70.4s70.4,125.867,70.4,125.867s70.4-86.4,70.4-125.867
	S404.267,182.4,365.867,182.4z"/>
<circle style="fill:#FFFFFF;" cx="365.867" cy="252.8" r="44.8"/>
<path style="fill:#F15741;" d="M128,17.067c-46.933,0-85.333,38.4-85.333,85.333C42.667,150.4,128,256,128,256
	s85.333-105.6,85.333-152.533C214.4,55.467,176,17.067,128,17.067z"/>
<circle style="fill:#FFFFFF;" cx="128" cy="103.467" r="54.4"/>
<g>
</g>
<g>
</g>
<g>
</g>
<g>
</g>
<g>
</g>
<g>
</g>
<g>
</g>
<g>
</g>
<g>
</g>
<g>
</g>
<g>
</g>
<g>
</g>
<g>
</g>
<g>
</g>
<g>
</g>
</svg>
