<svg width="17" height="17" viewBox="0 0 17 17" fill="none" xmlns="http://www.w3.org/2000/svg">
<path d="M5.1188 5.59279C4.18157 4.24419 4.5482 2.4135 5.93773 1.50386C7.32725 0.594205 9.21347 0.950059 10.1507 2.29867L16.4809 11.4072C17.4181 12.7557 17.0515 14.5864 15.6619 15.496C14.2724 16.4058 12.3862 16.0499 11.4489 14.7012L8.7045 10.7523C8.3517 10.3208 7.63351 10.3879 7.20228 10.8065C6.84468 11.1535 6.7276 12.0414 6.62623 12.8102C6.61137 12.923 6.59684 13.0331 6.58194 13.1387C6.52694 13.6418 6.34791 14.1395 6.03609 14.5883C5.0171 16.0545 2.96585 16.4411 1.45513 15.4521C-0.0555814 14.4631 -0.454736 12.4724 0.564251 11.0062C1.09273 10.2457 1.89886 9.77572 2.76323 9.63739L2.76202 9.63618C5.2595 9.28463 5.72255 6.54903 5.26548 5.80383L5.1188 5.59279Z" fill="#9196A2"/>
</svg>
