<svg width="17" height="17" viewBox="0 0 17 17" fill="none" xmlns="http://www.w3.org/2000/svg">
<path d="M12.0132 4.37042C13.4299 5.35501 14.4074 6.92042 14.6057 8.72667" stroke="#9196A2" stroke-width="1.3" stroke-linecap="round" stroke-linejoin="round"/>
<path d="M2.47217 8.76209C2.65633 6.96292 3.61967 5.3975 5.02217 4.40584" stroke="#9196A2" stroke-width="1.3" stroke-linecap="round" stroke-linejoin="round"/>
<path d="M5.80127 14.8325C6.62294 15.2504 7.55794 15.4842 8.54252 15.4842C9.49169 15.4842 10.3842 15.2717 11.1846 14.8821" stroke="#9196A2" stroke-width="1.3" stroke-linecap="round" stroke-linejoin="round"/>
<path d="M8.54241 5.45417C9.62995 5.45417 10.5116 4.57255 10.5116 3.48501C10.5116 2.39746 9.62995 1.51584 8.54241 1.51584C7.45487 1.51584 6.57324 2.39746 6.57324 3.48501C6.57324 4.57255 7.45487 5.45417 8.54241 5.45417Z" stroke="#9196A2" stroke-width="1.3" stroke-linecap="round" stroke-linejoin="round"/>
<path d="M3.42132 14.11C4.50886 14.11 5.39048 13.2284 5.39048 12.1408C5.39048 11.0533 4.50886 10.1717 3.42132 10.1717C2.33377 10.1717 1.45215 11.0533 1.45215 12.1408C1.45215 13.2284 2.33377 14.11 3.42132 14.11Z" stroke="#9196A2" stroke-width="1.3" stroke-linecap="round" stroke-linejoin="round"/>
<path d="M13.5785 14.11C14.6661 14.11 15.5477 13.2284 15.5477 12.1408C15.5477 11.0533 14.6661 10.1717 13.5785 10.1717C12.491 10.1717 11.6094 11.0533 11.6094 12.1408C11.6094 13.2284 12.491 14.11 13.5785 14.11Z" stroke="#9196A2" stroke-width="1.3" stroke-linecap="round" stroke-linejoin="round"/>
</svg>
