<svg width="17" height="17" viewBox="0 0 17 17" fill="none" xmlns="http://www.w3.org/2000/svg">
<mask id="mask0_27_301" style="mask-type:luminance" maskUnits="userSpaceOnUse" x="2" y="2" width="14" height="14">
<path d="M2 2H15.4925V15.3409H2V2Z" fill="white"/>
</mask>
<g mask="url(#mask0_27_301)">
<path d="M6.09978 8.25805C6.09978 8.92604 6.32718 9.48979 6.78198 9.9589C7.24153 10.4279 7.80053 10.6601 8.4543 10.6601C9.11282 10.6601 9.67185 10.4279 10.1314 9.9589C10.5862 9.48989 10.8136 8.92611 10.8136 8.25805C10.8136 7.5948 10.5862 7.02634 10.1314 6.55735C9.67184 6.08833 9.11281 5.85619 8.4543 5.85619C7.80052 5.85619 7.24152 6.08833 6.78198 6.55735C6.32718 7.02637 6.09978 7.59485 6.09978 8.25805ZM10.7616 13.5357V13.3368C10.3778 13.7016 9.95143 13.9763 9.47294 14.1611C8.99445 14.3411 8.4686 14.4359 7.90952 14.4359C6.24191 14.4359 4.83964 13.8389 3.70251 12.645C2.5655 11.4559 1.99707 9.99201 1.99707 8.25805C1.99707 6.5241 2.56556 5.06498 3.70251 3.87109C4.83952 2.67724 6.24191 2.08511 7.90952 2.08511C8.46855 2.08511 8.99441 2.17511 9.47294 2.35515C9.95143 2.53992 10.3778 2.80995 10.7616 3.17001V2.96156C10.7616 2.80048 10.8137 2.66783 10.9132 2.5636C11.0173 2.46415 11.15 2.412 11.3064 2.412H14.291C14.4521 2.412 14.5847 2.46415 14.6889 2.5636C14.7884 2.66779 14.8405 2.80048 14.8405 2.96156V13.5358C14.8405 13.6874 14.7884 13.8201 14.6795 13.929C14.5753 14.0381 14.4521 14.0948 14.3052 14.0948H11.3301C11.1785 14.0948 11.0458 14.038 10.9321 13.929C10.8185 13.8201 10.7616 13.6873 10.7616 13.5357Z" fill="#9196A2"/>
</g>
</svg>
