<svg width="17" height="17" viewBox="0 0 17 17" fill="none" xmlns="http://www.w3.org/2000/svg">
<path d="M1.41406 6.02083H8.14323" stroke="#9196A2" stroke-width="1.3" stroke-miterlimit="10" stroke-linecap="round" stroke-linejoin="round"/>
<path d="M4.24707 11.6875H5.66374" stroke="#9196A2" stroke-width="1.3" stroke-miterlimit="10" stroke-linecap="round" stroke-linejoin="round"/>
<path d="M7.43457 11.6875H10.2679" stroke="#9196A2" stroke-width="1.3" stroke-miterlimit="10" stroke-linecap="round" stroke-linejoin="round"/>
<path d="M15.5807 8.52126V11.4113C15.5807 13.8975 14.9503 14.5208 12.4357 14.5208H4.55906C2.04448 14.5208 1.41406 13.8975 1.41406 11.4113V5.58876C1.41406 3.10251 2.04448 2.47917 4.55906 2.47917H10.2682" stroke="#9196A2" stroke-width="1.3" stroke-linecap="round" stroke-linejoin="round"/>
<path d="M13.5124 2.92541L10.8845 5.55333C10.7853 5.6525 10.6862 5.85083 10.6649 5.9925L10.5233 6.99833C10.4737 7.35958 10.7287 7.61458 11.0899 7.565L12.0958 7.42333C12.2374 7.40208 12.4358 7.30291 12.5349 7.20375L15.1628 4.57583C15.6162 4.1225 15.8287 3.59833 15.1628 2.9325C14.4899 2.25958 13.9658 2.47208 13.5124 2.92541Z" stroke="#9196A2" stroke-width="1.3" stroke-miterlimit="10" stroke-linecap="round" stroke-linejoin="round"/>
<path d="M13.1367 3.30083C13.3634 4.10124 13.9867 4.72458 14.7801 4.94416" stroke="#9196A2" stroke-width="1.3" stroke-miterlimit="10" stroke-linecap="round" stroke-linejoin="round"/>
</svg>
