<svg width="17" height="17" viewBox="0 0 17 17" fill="none" xmlns="http://www.w3.org/2000/svg">
<path d="M8.49984 12.0417V13.7275C8.49984 15.0521 7.96859 15.5833 6.63692 15.5833H3.27234C1.94775 15.5833 1.4165 15.0521 1.4165 13.7275V10.3629C1.4165 9.03125 1.94775 8.5 3.27234 8.5H4.95817V10.1788C4.95817 11.5104 5.48942 12.0417 6.814 12.0417H8.49984Z" stroke="#9196A2" stroke-width="1.3" stroke-linecap="round" stroke-linejoin="round"/>
<path d="M12.0418 8.50001V10.1788C12.0418 11.5104 11.5106 12.0417 10.1789 12.0417H6.81433C5.48975 12.0417 4.9585 11.5104 4.9585 10.1788V6.81418C4.9585 5.48959 5.48975 4.95834 6.81433 4.95834H8.50016V6.63709C8.50016 7.96876 9.03141 8.50001 10.356 8.50001H12.0418Z" stroke="#9196A2" stroke-width="1.3" stroke-linecap="round" stroke-linejoin="round"/>
<path d="M15.5833 3.27249V6.63707C15.5833 7.96874 15.0521 8.49999 13.7204 8.49999H10.3558C9.03125 8.49999 8.5 7.96874 8.5 6.63707V3.27249C8.5 1.94791 9.03125 1.41666 10.3558 1.41666H13.7204C15.0521 1.41666 15.5833 1.94791 15.5833 3.27249Z" stroke="#9196A2" stroke-width="1.3" stroke-linecap="round" stroke-linejoin="round"/>
</svg>
