<svg width="17" height="17" viewBox="0 0 17 17" fill="none" xmlns="http://www.w3.org/2000/svg">
<g clip-path="url(#clip0_27_332)">
<path d="M8.5 16C12.6421 16 16 12.6421 16 8.5C16 4.35786 12.6421 1 8.5 1C4.35786 1 1 4.35786 1 8.5C1 12.6421 4.35786 16 8.5 16Z" fill="#9196A2"/>
<path d="M8.56299 6.30024C9.446 6.30024 10.1465 6.84487 10.4125 7.65478H12.1914C11.8691 5.92319 10.4405 4.75 8.5772 4.75C6.46123 4.75 4.80859 6.3562 4.80859 8.50718C4.80859 10.6582 6.41992 12.25 8.5772 12.25C10.3987 12.25 11.8558 11.0768 12.1784 9.33086H10.4124C10.1601 10.1409 9.4602 10.6998 8.57661 10.6998C7.35742 10.6998 6.50298 9.76387 6.50298 8.50718C6.50356 7.23613 7.34424 6.30024 8.56299 6.30024Z" fill="#1B1F2B"/>
</g>
<defs>
<clipPath id="clip0_27_332">
<rect width="15" height="15" fill="white" transform="translate(1 1)"/>
</clipPath>
</defs>
</svg>
