<svg width="17" height="17" viewBox="0 0 17 17" fill="none" xmlns="http://www.w3.org/2000/svg">
<path d="M6.42368 6.99823C5.55629 6.99823 4.85059 7.77568 4.85059 8.73128C4.85059 9.68689 5.55629 10.4643 6.42368 10.4643C7.2911 10.4643 7.99683 9.68689 7.99683 8.73128C7.99683 7.77568 7.2911 6.99823 6.42368 6.99823ZM6.42368 9.58543C6.04092 9.58543 5.72949 9.20226 5.72949 8.73128C5.72949 8.26031 6.04092 7.87714 6.42368 7.87714C6.80647 7.87714 7.11793 8.26031 7.11793 8.73128C7.11793 9.20226 6.80647 9.58543 6.42368 9.58543Z" fill="#9196A2"/>
<path d="M10.5761 6.99823C9.70866 6.99823 9.00293 7.77568 9.00293 8.73128C9.00293 9.68689 9.70866 10.4643 10.5761 10.4643C11.4435 10.4643 12.1492 9.68689 12.1492 8.73128C12.1492 7.77568 11.4435 6.99823 10.5761 6.99823ZM10.5761 9.58543C10.1933 9.58543 9.88184 9.20226 9.88184 8.73128C9.88184 8.26031 10.1933 7.87714 10.5761 7.87714C10.9588 7.87714 11.2703 8.26031 11.2703 8.73128C11.2703 9.20226 10.9588 9.58543 10.5761 9.58543Z" fill="#9196A2"/>
<path d="M15.9993 11.6691C15.9889 11.4833 15.7262 7.08832 14.0572 4.45925C14.0231 4.40549 13.9776 4.35975 13.9241 4.3253C11.8604 2.99643 10.4547 3.00023 10.3959 3C10.2255 3.00226 10.0787 3.1014 10.0077 3.24466L9.29878 4.60327C9.0347 4.58599 8.76807 4.57702 8.5 4.57702C8.232 4.57702 7.96534 4.58599 7.70125 4.60327L6.99309 3.24624C6.92246 3.10216 6.77518 3.00229 6.60406 3.00003C6.54491 2.99968 5.13939 2.99657 3.07596 4.32533C3.02243 4.35981 2.97699 4.40552 2.94286 4.45928C1.27388 7.08832 1.01106 11.4833 1.00068 11.6691C0.99418 11.7856 1.03426 11.8999 1.1121 11.9868C1.1895 12.0732 3.02814 14.0935 5.56956 14.0935C5.58092 14.0935 5.59261 14.0935 5.60401 14.0934C5.73757 14.0924 5.8634 14.0308 5.94605 13.9259L7.11831 12.4383C7.56854 12.4897 8.03099 12.5165 8.5 12.5165C8.96905 12.5165 9.4315 12.4897 9.8817 12.4383L11.054 13.9259C11.1366 14.0308 11.2624 14.0924 11.396 14.0934C11.4076 14.0935 11.4189 14.0935 11.4304 14.0935C13.9716 14.0935 15.8106 12.0732 15.8879 11.9868C15.9657 11.8999 16.0058 11.7856 15.9993 11.6691ZM11.6092 13.2105L10.8763 12.2804C11.9919 12.0509 12.9933 11.6603 13.7748 11.1359C13.9764 11.0007 14.0302 10.7277 13.895 10.5262C13.7598 10.3246 13.4867 10.2708 13.2852 10.4061C12.1187 11.1887 10.3745 11.6376 8.5 11.6376C6.62559 11.6376 4.88143 11.1887 3.7148 10.4062C3.51321 10.271 3.24025 10.3248 3.10505 10.5263C2.96984 10.7279 3.02363 11.0009 3.22519 11.1361C4.00683 11.6604 5.00814 12.0509 6.12374 12.2804L5.39088 13.2104C3.67018 13.1306 2.30085 11.9273 1.89195 11.528C1.96021 10.6765 2.31441 7.16458 3.63403 5.01181C4.92986 4.19385 5.90776 3.96636 6.34452 3.90313L6.76147 4.70209C5.78117 4.84523 4.86274 5.10829 4.08043 5.47661C3.86085 5.57997 3.76666 5.84179 3.87002 6.0614C3.97341 6.28095 4.23523 6.37511 4.45478 6.27181C5.57234 5.74567 7.00897 5.45593 8.5 5.45593C9.99112 5.45593 11.4278 5.74573 12.5453 6.27193C12.6058 6.30041 12.6694 6.31391 12.7322 6.31391C12.8971 6.31391 13.0552 6.2206 13.1301 6.06155C13.2334 5.842 13.1392 5.58014 12.9197 5.47676C12.1373 5.10841 11.2189 4.84529 10.2385 4.70215L10.6555 3.90319C11.0922 3.96642 12.0701 4.19391 13.366 5.01187C14.6841 7.16238 15.0395 10.6779 15.108 11.5288C14.7002 11.9289 13.3369 13.1313 11.6092 13.2105Z" fill="#9196A2"/>
</svg>
