<svg width="17" height="17" viewBox="0 0 17 17" fill="none" xmlns="http://www.w3.org/2000/svg">
<path d="M15.3495 10.1292L15.0661 13.6708C14.9599 14.7546 14.8749 15.5833 12.9553 15.5833H4.04446C2.12488 15.5833 2.03988 14.7546 1.93363 13.6708L1.65029 10.1292C1.59363 9.54124 1.77779 8.99582 2.11071 8.57791C2.11779 8.57082 2.11779 8.57082 2.12488 8.56374C2.51446 8.08916 3.10238 7.79166 3.76113 7.79166H13.2386C13.8974 7.79166 14.4782 8.08916 14.8607 8.54957C14.8678 8.55666 14.8749 8.56374 14.8749 8.57082C15.222 8.98874 15.4132 9.53416 15.3495 10.1292Z" stroke="#9196A2" stroke-width="1.3" stroke-miterlimit="10"/>
<path d="M2.479 8.09626V4.44834C2.479 2.04001 3.08109 1.43793 5.48942 1.43793H6.389C7.28859 1.43793 7.494 1.70709 7.834 2.16043L8.73359 3.36459C8.96025 3.66209 9.09484 3.84626 9.69692 3.84626H11.5032C13.9115 3.84626 14.5136 4.44834 14.5136 6.85668V8.12459" stroke="#9196A2" stroke-width="1.3" stroke-miterlimit="10" stroke-linecap="round" stroke-linejoin="round"/>
<path d="M6.67969 12.0417H10.3205" stroke="#9196A2" stroke-width="1.3" stroke-miterlimit="10" stroke-linecap="round" stroke-linejoin="round"/>
</svg>
