<svg width="17" height="17" viewBox="0 0 17 17" fill="none" xmlns="http://www.w3.org/2000/svg">
<g clip-path="url(#clip0_28_705)">
<path d="M8.5001 16C4.36623 16 1.0001 12.634 1.0001 8.50002C1.0001 4.36616 4.36623 1.00003 8.5001 1.00003C10.4903 0.994541 12.4001 1.78542 13.8037 3.19651L14.0581 3.4509L11.5314 5.9733L11.2769 5.71878C10.0728 4.51683 8.23198 4.22648 6.71639 4.99944C5.2008 5.77241 4.35498 7.43317 4.62114 9.11355C4.88717 10.7939 6.20474 12.112 7.88499 12.379C9.56525 12.6459 11.2264 11.801 12.0002 10.2858H8.14291V6.71435H15.7903L15.8484 7C15.949 7.49373 15.9998 7.99622 16.0001 8.50002C16.0001 12.634 12.6341 16 8.5001 16ZM8.5001 1.71441C4.75899 1.71441 1.71434 4.75892 1.71434 8.50002C1.71434 12.2411 4.75899 15.2858 8.5001 15.2858C12.2412 15.2858 15.2859 12.2411 15.2859 8.50002C15.2856 8.14127 15.2572 7.78303 15.201 7.42859H8.85728V9.57145H13.0448L12.8751 10.0491C12.195 11.9666 10.3457 13.218 8.31268 13.1361C6.27981 13.0544 4.53704 11.6586 4.0131 9.69256C3.48916 7.72666 4.30633 5.64868 6.02883 4.56614C7.75146 3.48346 9.97828 3.64852 11.5224 4.97328L13.0403 3.45547C11.7964 2.33003 10.1775 1.70917 8.5001 1.71441Z" fill="#9196A2"/>
<path fill-rule="evenodd" clip-rule="evenodd" d="M13.6974 3.3023C12.322 1.91962 10.4507 1.14465 8.50051 1.15003C4.44949 1.15003 1.1501 4.449 1.1501 8.50002C1.1501 12.5512 4.44907 15.85 8.5001 15.85C12.5512 15.85 15.8501 12.5512 15.8501 8.5001C15.8498 8.00635 15.8 7.51386 15.7014 7.02994L15.6677 6.86435H8.29291V10.1358H12.2452L12.1337 10.354C11.3305 11.9271 9.60586 12.8042 7.86146 12.5271C6.11706 12.25 4.74917 10.8816 4.47298 9.13701C4.19667 7.39247 5.07478 5.66829 6.64824 4.86582C8.22169 4.06334 10.1328 4.36478 11.3829 5.61263L11.5315 5.76126L13.8459 3.45081L13.6974 3.3023ZM13.91 3.09059C12.4781 1.65123 10.53 0.844486 8.49989 0.850035C4.28328 0.850148 0.850098 4.28339 0.850098 8.50002C0.850098 12.7169 4.28339 16.15 8.5001 16.15C12.7169 16.15 16.1501 12.7169 16.1501 8.50002C16.1498 7.98617 16.0979 7.4736 15.9954 6.97006L15.9129 6.56435H7.99291V10.4358H11.746C10.9591 11.7552 9.44208 12.4745 7.90853 12.2308C6.29242 11.9741 5.02516 10.7063 4.76929 9.0901C4.5133 7.47388 5.32682 5.87652 6.78454 5.13307C8.24223 4.38963 10.0127 4.66887 11.1708 5.82485M11.1708 5.82485L11.5313 6.18534L14.2704 3.45099L13.91 3.09059C13.9099 3.09054 13.91 3.09064 13.91 3.09059M8.49986 1.56441C10.2145 1.55912 11.8694 2.1938 13.141 3.34424L13.2579 3.45004L11.5302 5.17761L11.4247 5.08713C9.9305 3.80517 7.77562 3.64544 6.10865 4.69314C4.4418 5.74071 3.65103 7.75155 4.15804 9.65393C4.66506 11.5564 6.35152 12.9071 8.31871 12.9862C10.286 13.0655 12.0756 11.8545 12.7338 9.99895L12.8323 9.72145H8.70728V7.27859H15.329L15.3491 7.40509C15.4066 7.76726 15.4356 8.13332 15.4359 8.49991C15.4359 12.3239 12.324 15.4358 8.5001 15.4358C4.67615 15.4358 1.56434 12.324 1.56434 8.50002C1.56434 4.67615 4.67602 1.56454 8.49986 1.56441ZM12.8214 3.46224C11.6217 2.42797 10.0879 1.85945 8.50057 1.86441C4.8423 1.86441 1.86434 4.84177 1.86434 8.50002C1.86434 12.1583 4.84183 15.1358 8.5001 15.1358C12.1583 15.1358 15.1358 12.1583 15.1359 8.50013C15.1356 8.19184 15.1142 7.88393 15.0717 7.57859H9.00728V9.42145H13.2572L13.0165 10.0992C13.0165 10.0993 13.0165 10.0992 13.0165 10.0992C12.3144 12.0787 10.4053 13.3705 8.30665 13.286C6.2081 13.2016 4.40903 11.7607 3.86816 9.73119C3.32728 7.70177 4.17086 5.55665 5.94901 4.43914C7.68792 3.34623 9.92454 3.48496 11.5132 4.77038L12.8214 3.46224Z" fill="#9196A2"/>
</g>
<defs>
<clipPath id="clip0_28_705">
<rect width="17" height="17" fill="white"/>
</clipPath>
</defs>
</svg>
