<svg width="17" height="17" viewBox="0 0 17 17" fill="none" xmlns="http://www.w3.org/2000/svg">
<path d="M3.92424 7.87668C0.609238 8.11043 0.609238 12.9342 3.92424 13.1679H5.28427" stroke="#9196A2" stroke-width="1.3" stroke-miterlimit="10" stroke-linecap="round" stroke-linejoin="round"/>
<path d="M3.95969 7.87666C1.68594 1.55125 11.2767 -0.977498 12.3746 5.66667C15.4417 6.05625 16.6813 10.1433 14.358 12.1763C13.6497 12.8208 12.7359 13.175 11.7797 13.1679H11.7159" stroke="#9196A2" stroke-width="1.3" stroke-miterlimit="10" stroke-linecap="round" stroke-linejoin="round"/>
<path d="M12.0418 11.7088C12.0418 12.2329 11.9285 12.7287 11.716 13.1679C11.6593 13.2954 11.5956 13.4158 11.5248 13.5292C10.9156 14.5563 9.78933 15.2504 8.50016 15.2504C7.211 15.2504 6.08473 14.5563 5.47557 13.5292C5.40473 13.4158 5.34101 13.2954 5.28435 13.1679C5.07184 12.7287 4.9585 12.2329 4.9585 11.7088C4.9585 9.75375 6.54516 8.16708 8.50016 8.16708C10.4552 8.16708 12.0418 9.75375 12.0418 11.7088Z" stroke="#9196A2" stroke-width="1.3" stroke-miterlimit="10" stroke-linecap="round" stroke-linejoin="round"/>
<path d="M7.39502 11.7088L8.09626 12.41L9.60502 11.0146" stroke="#9196A2" stroke-width="1.3" stroke-linecap="round" stroke-linejoin="round"/>
</svg>
