<svg width="17" height="17" viewBox="0 0 17 17" fill="none" xmlns="http://www.w3.org/2000/svg">
<path d="M13.5207 8.00416V4.98667C13.5207 2.13209 12.8548 1.41666 10.1773 1.41666H4.82234C2.14484 1.41666 1.479 2.13209 1.479 4.98667V12.9625C1.479 14.8467 2.51318 15.2929 3.76693 13.9471L3.774 13.94C4.35483 13.3237 5.24025 13.3733 5.74316 14.0462L6.45859 15.0025" stroke="white" stroke-width="1.3" stroke-linecap="round" stroke-linejoin="round"/>
<path d="M4.6665 4.95834H10.3332" stroke="white" stroke-width="1.3" stroke-linecap="round" stroke-linejoin="round"/>
<path d="M5.375 7.79166H9.625" stroke="white" stroke-width="1.3" stroke-linecap="round" stroke-linejoin="round"/>
<path d="M12.5 14.375C12.9832 14.375 13.375 13.9832 13.375 13.5C13.375 13.0168 12.9832 12.625 12.5 12.625C12.0168 12.625 11.625 13.0168 11.625 13.5C11.625 13.9832 12.0168 14.375 12.5 14.375Z" stroke="white" stroke-miterlimit="10" stroke-linecap="round" stroke-linejoin="round"/>
<path d="M9.5835 13.7567V13.2433C9.5835 12.94 9.83141 12.6892 10.1377 12.6892C10.6656 12.6892 10.8814 12.3158 10.616 11.8579C10.4643 11.5954 10.5547 11.2542 10.8202 11.1025L11.3247 10.8137C11.5552 10.6767 11.8527 10.7583 11.9897 10.9887L12.0218 11.0442C12.2843 11.5021 12.716 11.5021 12.9814 11.0442L13.0135 10.9887C13.1506 10.7583 13.4481 10.6767 13.6785 10.8137L14.1831 11.1025C14.4485 11.2542 14.5389 11.5954 14.3872 11.8579C14.1218 12.3158 14.3377 12.6892 14.8656 12.6892C15.1689 12.6892 15.4197 12.9371 15.4197 13.2433V13.7567C15.4197 14.06 15.1718 14.3108 14.8656 14.3108C14.3377 14.3108 14.1218 14.6842 14.3872 15.1421C14.5389 15.4075 14.4485 15.7458 14.1831 15.8975L13.6785 16.1862C13.4481 16.3233 13.1506 16.2417 13.0135 16.0112L12.9814 15.9558C12.7189 15.4979 12.2872 15.4979 12.0218 15.9558L11.9897 16.0112C11.8527 16.2417 11.5552 16.3233 11.3247 16.1862L10.8202 15.8975C10.5547 15.7458 10.4643 15.4046 10.616 15.1421C10.8814 14.6842 10.6656 14.3108 10.1377 14.3108C9.83141 14.3108 9.5835 14.06 9.5835 13.7567Z" stroke="white" stroke-miterlimit="10" stroke-linecap="round" stroke-linejoin="round"/>
</svg>
