<svg width="17" height="17" viewBox="0 0 17 17" fill="none" xmlns="http://www.w3.org/2000/svg">
<path d="M7.43734 14.0958V2.90416C7.43734 1.84166 6.98401 1.41666 5.85775 1.41666H2.99609C1.86984 1.41666 1.4165 1.84166 1.4165 2.90416V14.0958C1.4165 15.1583 1.86984 15.5833 2.99609 15.5833H5.85775C6.98401 15.5833 7.43734 15.1583 7.43734 14.0958Z" stroke="white" stroke-width="1.3" stroke-linecap="round" stroke-linejoin="round"/>
<path d="M15.5833 6.035V2.81916C15.5833 1.82041 15.13 1.41666 14.0038 1.41666H11.1421C10.0158 1.41666 9.5625 1.82041 9.5625 2.81916V6.02791C9.5625 7.03375 10.0158 7.43041 11.1421 7.43041H14.0038C15.13 7.4375 15.5833 7.03375 15.5833 6.035Z" stroke="white" stroke-width="1.3" stroke-linecap="round" stroke-linejoin="round"/>
<path d="M15.5833 14.0038V11.1421C15.5833 10.0158 15.13 9.5625 14.0038 9.5625H11.1421C10.0158 9.5625 9.5625 10.0158 9.5625 11.1421V14.0038C9.5625 15.13 10.0158 15.5833 11.1421 15.5833H14.0038C15.13 15.5833 15.5833 15.13 15.5833 14.0038Z" stroke="white" stroke-width="1.3" stroke-linecap="round" stroke-linejoin="round"/>
</svg>
