<svg width="17" height="17" viewBox="0 0 17 17" fill="none" xmlns="http://www.w3.org/2000/svg">
<path d="M12.7502 15.5833V10.625C12.7502 9.84259 12.1159 9.20834 11.3335 9.20834C10.5511 9.20834 9.91683 9.84259 9.91683 10.625V15.5833H7.0835" stroke="#9196A2" stroke-width="1.3" stroke-linecap="round" stroke-linejoin="round"/>
<path d="M7.0835 15.5833V10.625C7.0835 8.2778 8.98629 6.375 11.3335 6.375C13.6807 6.375 15.5835 8.2778 15.5835 10.625V15.5833H12.7502" stroke="#9196A2" stroke-width="1.3" stroke-linecap="round" stroke-linejoin="round"/>
<path d="M4.95833 6.375H2.125V15.5833H4.95833V6.375Z" stroke="#9196A2" stroke-width="1.3" stroke-linecap="round" stroke-linejoin="round"/>
<path d="M3.54167 4.24999C4.32407 4.24999 4.95833 3.61573 4.95833 2.83332C4.95833 2.05092 4.32407 1.41666 3.54167 1.41666C2.75926 1.41666 2.125 2.05092 2.125 2.83332C2.125 3.61573 2.75926 4.24999 3.54167 4.24999Z" stroke="#9196A2" stroke-width="1.3" stroke-linecap="round" stroke-linejoin="round"/>
</svg>
