<svg width="17" height="17" viewBox="0 0 17 17" fill="none" xmlns="http://www.w3.org/2000/svg">
<path d="M12.2832 8.06289C12.3994 8.04899 12.5107 8.04843 12.613 8.06292C12.6722 7.92711 12.6824 7.69304 12.6292 7.43816C12.55 7.05929 12.4429 6.83001 12.2215 6.8657C12.0001 6.9014 11.9919 7.17586 12.0711 7.55473C12.1156 7.76785 12.1949 7.95002 12.2832 8.06289Z" fill="white"/>
<path d="M10.3827 8.36273C10.5411 8.43222 10.6384 8.4783 10.6765 8.43803C10.701 8.41288 10.6937 8.365 10.6559 8.30321C10.5777 8.17561 10.4169 8.04616 10.2463 7.9735C9.89735 7.82332 9.48126 7.87325 9.16025 8.10394C9.05428 8.18158 8.95376 8.28913 8.96818 8.35445C8.97285 8.37557 8.98867 8.39146 9.02589 8.39668C9.11326 8.40669 9.41863 8.25231 9.7703 8.23076C10.0186 8.21556 10.2243 8.2932 10.3827 8.36273Z" fill="white"/>
<path d="M10.064 8.5445C9.85774 8.57708 9.74391 8.64509 9.6709 8.70836C9.60853 8.76287 9.57 8.82307 9.57031 8.86545C9.57047 8.88559 9.57921 8.89719 9.58608 8.90304C9.59547 8.91134 9.60663 8.91594 9.62 8.91594C9.66661 8.91594 9.77096 8.87409 9.77096 8.87409C10.0581 8.77133 10.2475 8.78373 10.4352 8.80515C10.5389 8.81678 10.5879 8.82325 10.6106 8.78768C10.6173 8.77751 10.6255 8.75537 10.6047 8.72173C10.5565 8.64328 10.3481 8.51079 10.064 8.5445Z" fill="white"/>
<path d="M11.6415 9.21195C11.7816 9.28079 11.9359 9.25377 11.9861 9.1516C12.0363 9.04942 11.9634 8.91084 11.8233 8.842C11.6832 8.77319 11.529 8.80018 11.4787 8.90235C11.4286 9.00449 11.5014 9.14311 11.6415 9.21195Z" fill="white"/>
<path d="M12.5424 8.42499C12.4286 8.42307 12.3342 8.54803 12.3316 8.70409C12.329 8.86012 12.4191 8.98822 12.5329 8.99015C12.6467 8.99208 12.7411 8.86711 12.7437 8.71108C12.7464 8.555 12.6562 8.42692 12.5424 8.42499Z" fill="white"/>
<path d="M4.89839 11.239C4.87009 11.2035 4.82354 11.2143 4.77855 11.2248C4.74708 11.2321 4.71145 11.2404 4.6724 11.2397C4.5887 11.2381 4.5178 11.2023 4.478 11.1412C4.42617 11.0616 4.42915 10.9429 4.4864 10.8069C4.49411 10.7887 4.50319 10.7683 4.51308 10.7461C4.60437 10.5413 4.75713 10.1986 4.58562 9.87203C4.45652 9.62623 4.24601 9.47316 3.99288 9.44101C3.74986 9.41023 3.49968 9.50034 3.34014 9.67639C3.08838 9.95415 3.04904 10.3321 3.0977 10.4656C3.11555 10.5145 3.14344 10.528 3.16372 10.5308C3.20653 10.5366 3.26987 10.5054 3.30957 10.3987C3.31243 10.391 3.31623 10.3791 3.32095 10.364C3.33862 10.3075 3.37154 10.2025 3.42546 10.1182C3.49048 10.0166 3.59175 9.94668 3.71062 9.92122C3.83169 9.89532 3.95548 9.91839 4.05908 9.98623C4.23541 10.1017 4.30335 10.3178 4.22804 10.524C4.18911 10.6306 4.1259 10.8345 4.13983 11.002C4.16803 11.3411 4.37658 11.4773 4.56398 11.4918C4.74618 11.4986 4.87351 11.3964 4.90575 11.3216C4.92475 11.2774 4.90874 11.2505 4.89839 11.239Z" fill="white"/>
<path d="M15.4135 10.6188C15.4065 10.5943 15.3614 10.4291 15.2993 10.2301C15.2372 10.0311 15.1729 9.89103 15.1729 9.89103C15.4219 9.51825 15.4264 9.18486 15.3933 8.99613C15.3579 8.76206 15.2605 8.56262 15.0641 8.35644C14.8677 8.15029 14.4661 7.93914 13.9016 7.78065C13.837 7.76253 13.6242 7.70413 13.6054 7.69841C13.604 7.68616 13.5899 7.00015 13.577 6.70569C13.5676 6.49283 13.5494 6.1605 13.4462 5.83309C13.3233 5.39004 13.1092 5.0023 12.8419 4.75427C13.5795 3.98968 14.0399 3.14746 14.0388 2.42488C14.0367 1.03538 12.3302 0.614931 10.2273 1.48573C10.2251 1.48667 9.78489 1.67332 9.78169 1.6749C9.77973 1.67298 8.97619 0.884542 8.96409 0.874001C6.56645 -1.21731 -0.930111 7.11532 1.46666 9.13906L1.99049 9.5828C1.85461 9.93477 1.80123 10.338 1.84485 10.7717C1.90085 11.3286 2.18815 11.8625 2.65378 12.2751C3.09583 12.6667 3.67703 12.9146 4.24103 12.9141C5.17374 15.0635 7.30479 16.3821 9.80355 16.4563C12.4839 16.5359 14.7339 15.2782 15.6766 13.0189C15.7383 12.8604 16 12.1459 16 11.5153C16 10.8814 15.6416 10.6188 15.4135 10.6188ZM4.44709 12.3104C4.36569 12.3243 4.28257 12.3298 4.19884 12.3278C3.38929 12.3061 2.51485 11.5773 2.42795 10.713C2.3319 9.75764 2.82003 9.02237 3.68434 8.84806C3.78766 8.82726 3.9125 8.81523 4.04717 8.82219C4.53141 8.84871 5.24501 9.22056 5.40803 10.2755C5.5524 11.2098 5.32308 12.1611 4.44709 12.3104ZM3.54302 8.27659C3.00498 8.38119 2.53077 8.68613 2.24079 9.10738C2.06745 8.96283 1.74457 8.68299 1.68755 8.57394C1.2246 7.69487 2.19282 5.98573 2.86916 5.02056C4.54068 2.63516 7.15865 0.829693 8.37061 1.15723C8.56759 1.21298 9.22011 1.96958 9.22011 1.96958C9.22011 1.96958 8.00868 2.64172 6.88525 3.57866C5.3715 4.74426 4.22804 6.43829 3.54302 8.27659ZM6.63022 5.01079C7.22445 4.32409 7.95601 3.72707 8.6113 3.39185C8.63397 3.38025 8.65804 3.40485 8.64573 3.42714C8.59371 3.52139 8.49352 3.72312 8.46175 3.87619C8.4568 3.90004 8.4828 3.91798 8.50288 3.90427C8.91058 3.62636 9.61976 3.32861 10.2418 3.29033C10.2686 3.28868 10.2815 3.32295 10.2602 3.33927C10.1656 3.41181 10.0621 3.51221 9.98657 3.61383C9.97372 3.63112 9.98579 3.65599 10.0073 3.65615C10.4441 3.65922 11.0599 3.81211 11.4612 4.0372C11.4884 4.05243 11.4691 4.10504 11.4387 4.09808C10.8315 3.95887 9.83744 3.85331 8.80489 4.10513C7.8831 4.32997 7.17955 4.67713 6.66626 5.05044C6.64039 5.06931 6.60923 5.03505 6.63022 5.01079ZM15.4408 11.7288C15.3245 12.434 15.0247 13.0063 14.5209 13.5328C14.2143 13.8629 13.842 14.1499 13.4161 14.3586C13.1899 14.4774 12.949 14.5802 12.6946 14.6633C10.7955 15.2836 8.85163 14.6016 8.225 13.1373C8.175 13.0272 8.13272 12.912 8.09935 12.7915C7.83229 11.8265 8.05902 10.6687 8.76767 9.94003C8.76774 9.93997 8.76758 9.93975 8.76761 9.93966C8.81133 9.89323 8.85589 9.8386 8.85589 9.76982C8.85589 9.7123 8.81932 9.65164 8.78764 9.60864C8.53973 9.24904 7.68093 8.63625 7.85331 7.45038C7.97709 6.59848 8.72215 5.99847 9.41681 6.03405C9.47548 6.03706 9.53425 6.0407 9.59283 6.04415C9.89388 6.06197 10.1565 6.10055 10.4043 6.11094C10.819 6.12885 11.192 6.06856 11.6337 5.70048C11.7828 5.57629 11.9022 5.46864 12.1044 5.43438C12.1256 5.43077 12.1785 5.4118 12.2841 5.41681C12.392 5.42256 12.4946 5.45219 12.5869 5.51357C12.941 5.74923 12.9912 6.31998 13.0096 6.7375C13.02 6.97583 13.0489 7.55246 13.0588 7.71797C13.0813 8.09647 13.1808 8.14986 13.3821 8.21612C13.4953 8.25337 13.6004 8.28117 13.7552 8.32463C14.224 8.45625 14.5019 8.58977 14.6771 8.76131C14.7816 8.86849 14.8302 8.98235 14.8452 9.09102C14.9005 9.49427 14.5321 9.99242 13.557 10.445C12.491 10.9398 11.1979 11.0651 10.3045 10.9655C10.2359 10.9579 9.99229 10.9303 9.99145 10.9302C9.27677 10.8339 8.86907 11.7575 9.298 12.3903C9.57445 12.7981 10.3274 13.0635 11.0808 13.0637C12.8081 13.0639 14.1358 12.3263 14.6296 11.6892C14.6444 11.6702 14.6459 11.6681 14.6691 11.6329C14.6934 11.5963 14.6734 11.5761 14.6431 11.5968C14.2396 11.8729 12.4474 12.969 10.5304 12.6392C10.5304 12.6392 10.2974 12.6009 10.0848 12.5182C9.9158 12.4525 9.56217 12.2898 9.51917 11.9269C11.0663 12.4054 12.0404 11.9531 12.0404 11.9531C12.0579 11.9457 12.0701 11.9256 12.0681 11.9056C12.0656 11.8811 12.0437 11.8632 12.0192 11.8657C12.0192 11.8657 10.751 12.0534 9.55297 11.6148C9.68344 11.1907 10.0304 11.3439 10.5549 11.3862C11.5002 11.4426 12.3474 11.3045 12.9736 11.1248C13.5161 10.969 14.2288 10.662 14.7823 10.2252C14.969 10.6352 15.0349 11.0866 15.0349 11.0866C15.0349 11.0866 15.1794 11.0607 15.3002 11.1351C15.4143 11.2054 15.498 11.3514 15.4408 11.7288Z" fill="white"/>
</svg>
