<svg width="17" height="17" viewBox="0 0 17 17" fill="none" xmlns="http://www.w3.org/2000/svg">
<g clip-path="url(#clip0_27_163)">
<path d="M3.80443 12.4716L2.36227 13.3273C2.32735 13.3471 2.2983 13.3757 2.27809 13.4104C2.25788 13.445 2.24723 13.4844 2.24723 13.5246C2.24723 13.5647 2.25788 13.6041 2.27809 13.6387C2.2983 13.6734 2.32735 13.7021 2.36227 13.7218L7.96518 16.8612C8.12868 16.9524 8.31277 17.0002 8.49998 17.0002C8.68718 17.0002 8.87127 16.9524 9.03477 16.8612L14.7113 13.68C14.8835 13.578 14.8551 13.3712 14.7113 13.3011L13.1863 12.4773C13.0574 12.3923 12.7705 12.4206 12.6692 12.4893L9.03477 14.5258C8.87127 14.617 8.68718 14.6648 8.49998 14.6648C8.31277 14.6648 8.12868 14.617 7.96518 14.5258L4.29885 12.4716C4.16214 12.3873 3.94539 12.3923 3.80443 12.4716ZM7.96518 0.139542C8.12868 0.0483554 8.31277 0.000488281 8.49998 0.000488281C8.68718 0.000488281 8.87127 0.0483554 9.03477 0.139542L13.5468 2.66688C13.7268 2.75825 13.7431 3.00262 13.5468 3.11313L12.5198 3.68688C12.3294 3.79288 12.1151 3.84835 11.8972 3.84798C11.6793 3.8476 11.4652 3.79141 11.2752 3.68475L9.03477 2.42958C8.87127 2.3384 8.68718 2.29053 8.49998 2.29053C8.31277 2.29053 8.12868 2.3384 7.96518 2.42958L5.72189 3.68617C5.53185 3.79272 5.31768 3.84879 5.09981 3.84904C4.88193 3.84929 4.66763 3.7937 4.47735 3.68758L3.41485 3.09542C3.24768 3.02458 3.21298 2.81138 3.41485 2.68883L7.96518 0.139542ZM15.5614 3.944C15.8921 4.12958 16.0961 4.47242 16.0961 4.84358V12.1571C16.0961 12.5184 15.8695 12.5864 15.6279 12.4603L13.9563 11.5586V6.64133L9.03477 9.39888C8.87127 9.49006 8.68718 9.53793 8.49998 9.53793C8.31277 9.53793 8.12868 9.49006 7.96518 9.39888L3.04298 6.64133V11.5572L1.52502 12.4596C1.34368 12.575 0.903809 12.6112 0.903809 12.1578V4.84358C0.903809 4.47242 1.10781 4.12958 1.4386 3.944C1.97127 3.66562 2.52164 3.944 2.52164 3.944L8.49998 7.3015L14.4691 3.944C14.4691 3.944 14.9996 3.62525 15.5614 3.944Z" fill="#9196A2"/>
</g>
<defs>
<clipPath id="clip0_27_163">
<rect width="17" height="17" fill="white"/>
</clipPath>
</defs>
</svg>
