<svg width="17" height="17" viewBox="0 0 17 17" fill="none" xmlns="http://www.w3.org/2000/svg">
<g clip-path="url(#clip0_55_12)">
<path fill-rule="evenodd" clip-rule="evenodd" d="M7.83878 0.0257583C9.00718 -0.0654092 10.1818 0.0860255 11.2889 0.47055C12.396 0.855075 13.4116 1.46438 14.2719 2.26019C15.1322 3.05601 15.8187 4.02113 16.2882 5.09494C16.7576 6.16875 17 7.32805 17 8.5C17 9.67196 16.7576 10.8313 16.2882 11.9051C15.8187 12.9789 15.1322 13.944 14.2719 14.7398C13.4116 15.5356 12.396 16.1449 11.2889 16.5295C10.1818 16.914 9.00718 17.0654 7.83878 16.9742C5.70538 16.8078 3.71327 15.8428 2.26019 14.2719C0.807115 12.701 0 10.6399 0 8.5C0 6.36012 0.807115 4.29898 2.26019 2.7281C3.71327 1.15723 5.70538 0.192221 7.83878 0.0257583ZM8.9206 13.5227H6.75696V10.2258C6.80847 9.35 6.29332 8.62879 5.36605 8.57727C4.8509 8.57727 3.97514 9.04091 3.97514 10.1742C4.07817 10.5864 4.33575 10.9985 4.64484 11.2045C4.87365 11.3001 5.11817 11.3525 5.36605 11.3591V13.5227C3.04787 13.4712 1.8115 11.6167 1.8115 9.86515V9.65909C1.81177 9.21263 1.81177 8.76616 1.8115 8.3197V6.87727C1.79101 5.93455 2.14585 5.0223 2.79797 4.3412C3.45008 3.6601 4.34605 3.26595 5.28878 3.24546C6.2315 3.22496 7.14376 3.5798 7.82485 4.23192C8.50595 4.88403 8.9001 5.78 8.9206 6.72273C9.33272 6.51667 9.79635 6.41364 10.3115 6.41364C12.2691 6.46515 13.866 8.01061 13.866 9.96818V13.5227H11.7024V9.96818C11.6509 9.24697 11.1357 8.6803 10.4145 8.62879H10.2085C10.0322 8.63446 9.85817 8.66927 9.69332 8.73182C9.46273 8.84622 9.26841 9.02236 9.13198 9.24064C8.99556 9.45892 8.92238 9.71078 8.9206 9.96818V13.5227ZM3.97514 7.59849C4.11177 7.59849 4.2428 7.65276 4.33941 7.74937C4.43602 7.84598 4.49029 7.97701 4.49029 8.11364C4.49029 8.25026 4.43602 8.38129 4.33941 8.4779C4.2428 8.57451 4.11177 8.62879 3.97514 8.62879C3.83851 8.62879 3.70748 8.57451 3.61087 8.4779C3.51426 8.38129 3.45999 8.25026 3.45999 8.11364C3.45999 7.97701 3.51426 7.84598 3.61087 7.74937C3.70748 7.65276 3.83851 7.59849 3.97514 7.59849Z" fill="#9196A2"/>
</g>
<defs>
<clipPath id="clip0_55_12">
<rect width="17" height="17" fill="white"/>
</clipPath>
</defs>
</svg>
