<svg width="17" height="17" viewBox="0 0 17 17" fill="none" xmlns="http://www.w3.org/2000/svg">
<path fill-rule="evenodd" clip-rule="evenodd" d="M12.046 4.01445C11.9205 4 11.795 4 11.6695 4C10.4613 4 9.3159 4.44783 8.5 5.25682C7.6841 4.46228 6.5387 4 5.34623 4C2.94561 4 1 5.79133 1 7.97271V12.9856H3.33787V8.04494C3.33787 7.13483 4.15377 6.29695 5.11088 6.21027C5.17364 6.21027 5.25209 6.19583 5.31485 6.19583C6.39749 6.19583 7.27615 7.00482 7.27615 8.00161V13H9.66109V8.0305C9.66109 7.12039 10.477 6.2825 11.4341 6.19583C11.4969 6.19583 11.5753 6.18138 11.6381 6.18138C12.7207 6.18138 13.5994 6.99037 13.6151 7.97271V12.9856H16V8.04494C16 7.03371 15.5921 6.08026 14.8703 5.32905C14.1328 4.5634 13.1287 4.10112 12.046 4.01445Z" fill="#9196A2"/>
</svg>
