<svg width="17" height="17" viewBox="0 0 17 17" fill="none" xmlns="http://www.w3.org/2000/svg">
<path d="M3.5415 5.66666C4.71511 5.66666 5.6665 4.71526 5.6665 3.54166C5.6665 2.36805 4.71511 1.41666 3.5415 1.41666C2.3679 1.41666 1.4165 2.36805 1.4165 3.54166C1.4165 4.71526 2.3679 5.66666 3.5415 5.66666Z" stroke="#9196A2" stroke-width="1.3" stroke-linecap="round" stroke-linejoin="round"/>
<path d="M13.4585 10.625C14.6321 10.625 15.5835 9.6736 15.5835 8.5C15.5835 7.32639 14.6321 6.375 13.4585 6.375C12.2849 6.375 11.3335 7.32639 11.3335 8.5C11.3335 9.6736 12.2849 10.625 13.4585 10.625Z" stroke="#9196A2" stroke-width="1.3" stroke-linecap="round" stroke-linejoin="round"/>
<path d="M3.5415 15.5833C4.71511 15.5833 5.6665 14.6319 5.6665 13.4583C5.6665 12.2847 4.71511 11.3333 3.5415 11.3333C2.3679 11.3333 1.4165 12.2847 1.4165 13.4583C1.4165 14.6319 2.3679 15.5833 3.5415 15.5833Z" stroke="#9196A2" stroke-width="1.3" stroke-linecap="round" stroke-linejoin="round"/>
<path d="M11.3332 8.49999H6.37484C4.8165 8.49999 3.5415 7.79166 3.5415 5.66666V11.3333" stroke="#9196A2" stroke-width="1.3" stroke-linecap="round" stroke-linejoin="round"/>
</svg>
