<svg width="17" height="17" viewBox="0 0 17 17" fill="none" xmlns="http://www.w3.org/2000/svg">
<path d="M8.58509 9.05249C8.53551 9.0454 8.47176 9.0454 8.41509 9.05249C7.16842 9.00999 6.17676 7.98999 6.17676 6.73624C6.17676 5.45415 7.21092 4.4129 8.50009 4.4129C9.78217 4.4129 10.8234 5.45415 10.8234 6.73624C10.8163 7.98999 9.83176 9.00999 8.58509 9.05249Z" stroke="#9196A2" stroke-width="1.3" stroke-linecap="round" stroke-linejoin="round"/>
<path d="M13.2744 13.7275C12.0136 14.8821 10.3419 15.5833 8.50024 15.5833C6.65857 15.5833 4.98691 14.8821 3.72607 13.7275C3.79691 13.0616 4.22191 12.41 4.97982 11.9C6.92066 10.6108 10.094 10.6108 12.0207 11.9C12.7786 12.41 13.2036 13.0616 13.2744 13.7275Z" stroke="#9196A2" stroke-width="1.3" stroke-linecap="round" stroke-linejoin="round"/>
<path d="M8.49984 15.5834C12.4119 15.5834 15.5832 12.412 15.5832 8.50002C15.5832 4.588 12.4119 1.41669 8.49984 1.41669C4.58782 1.41669 1.4165 4.588 1.4165 8.50002C1.4165 12.412 4.58782 15.5834 8.49984 15.5834Z" stroke="#9196A2" stroke-width="1.3" stroke-linecap="round" stroke-linejoin="round"/>
</svg>
