<svg width="17" height="17" viewBox="0 0 17 17" fill="none" xmlns="http://www.w3.org/2000/svg">
<g clip-path="url(#clip0_23_19)">
<path d="M15.8833 6.94403C16.2731 5.78812 16.1382 4.52287 15.513 3.47192C14.573 1.86077 12.6836 1.03201 10.8384 1.42143C9.79851 0.282557 8.22076 -0.223876 6.699 0.0927637C5.17724 0.409403 3.94247 1.50105 3.4595 2.95678C2.24743 3.20152 1.2013 3.94876 0.588806 5.00727C-0.361482 6.61581 -0.145791 8.64484 1.12218 10.0248C0.730873 11.1802 0.864591 12.4456 1.48908 13.4969C2.43031 15.1086 4.32092 15.9373 6.16712 15.5474C6.9883 16.4578 8.16804 16.9759 9.40472 16.9691C11.2961 16.9707 12.9716 15.7685 13.5494 13.9953C14.7613 13.7501 15.8072 13.003 16.4201 11.9448C17.3589 10.3391 17.1423 8.32103 15.8833 6.94403ZM9.40472 15.8585C8.64979 15.8596 7.91854 15.5991 7.33918 15.1226L7.4411 15.0657L10.8723 13.1156C11.0461 13.0152 11.1532 12.8322 11.1543 12.6339V7.87059L12.6049 8.69681C12.6195 8.70409 12.6296 8.71777 12.6321 8.7336V12.6807C12.6284 14.4342 11.1856 15.8548 9.40472 15.8585ZM2.4675 12.9416C2.08891 12.298 1.95297 11.5435 2.0836 10.8109L2.18552 10.8711L5.62016 12.8212C5.79321 12.9212 6.00766 12.9212 6.18071 12.8212L10.3763 10.4396V12.0886C10.3755 12.1059 10.3668 12.122 10.3526 12.1321L6.87715 14.1057C5.33279 14.9817 3.35966 14.4608 2.4675 12.9416ZM1.56382 5.58261C1.94504 4.93479 2.54676 4.44068 3.26246 4.18775V8.20175C3.25983 8.39927 3.36657 8.58255 3.54103 8.68008L7.71627 11.0517L6.26564 11.8779C6.24971 11.8862 6.23062 11.8862 6.21468 11.8779L2.74607 9.9077C1.20474 9.02805 0.676133 7.08675 1.56382 5.56589V5.58261ZM13.4814 8.30879L9.29261 5.91377L10.7398 5.0909C10.7558 5.08257 10.7749 5.08257 10.7908 5.0909L14.2594 7.06445C15.342 7.67954 15.9665 8.85478 15.8626 10.0812C15.7586 11.3076 14.9448 12.3646 13.7736 12.7944V8.78043C13.7675 8.58349 13.6565 8.40427 13.4814 8.30879ZM14.9253 6.17133L14.8234 6.11112L11.3955 4.14426C11.2214 4.04367 11.0057 4.04367 10.8316 4.14426L6.63934 6.5259V4.87682C6.63752 4.85974 6.64535 4.84305 6.65972 4.83333L10.1283 2.86313C11.2136 2.24755 12.5624 2.305 13.5895 3.01054C14.6167 3.71607 15.1373 4.94258 14.9253 6.15795V6.17133ZM5.84778 9.09486L4.39714 8.27199C4.38248 8.26325 4.37253 8.24854 4.36997 8.23185V4.29479C4.37162 3.06187 5.09668 1.94092 6.23071 1.41808C7.36473 0.895247 8.70346 1.06469 9.66631 1.85293L9.56439 1.9098L6.13315 3.85994C5.95943 3.96026 5.85227 4.14332 5.85117 4.34162L5.84778 9.09486ZM6.63594 7.42236L8.50444 6.362L10.3763 7.42236V9.54309L8.51124 10.6035L6.63934 9.54309L6.63594 7.42236Z" fill="currentColor"/>
</g>
<defs>
<clipPath id="clip0_23_19">
<rect width="17" height="17" fill="white"/>
</clipPath>
</defs>
</svg>
