<svg width="17" height="17" viewBox="0 0 17 17" fill="none" xmlns="http://www.w3.org/2000/svg">
<path d="M6.37484 15.5834H10.6248C14.1665 15.5834 15.5832 14.1667 15.5832 10.625V6.37502C15.5832 2.83335 14.1665 1.41669 10.6248 1.41669H6.37484C2.83317 1.41669 1.4165 2.83335 1.4165 6.37502V10.625C1.4165 14.1667 2.83317 15.5834 6.37484 15.5834Z" stroke="#9196A2" stroke-width="1.3" stroke-linecap="round" stroke-linejoin="round"/>
<path d="M1.4165 9.20832H4.07984C4.61817 9.20832 5.10692 9.5129 5.34775 9.99457L5.97817 11.2625C6.37484 12.0416 7.08317 12.0416 7.25317 12.0416H9.75359C10.2919 12.0416 10.7807 11.7371 11.0215 11.2554L11.6519 9.98748C11.8928 9.50582 12.3815 9.20123 12.9198 9.20123H15.569" stroke="#9196A2" stroke-width="1.3" stroke-linecap="round" stroke-linejoin="round"/>
<path d="M7.32422 4.95831H9.68297" stroke="#9196A2" stroke-width="1.3" stroke-linecap="round" stroke-linejoin="round"/>
<path d="M6.729 7.08331H10.2707" stroke="#9196A2" stroke-width="1.3" stroke-linecap="round" stroke-linejoin="round"/>
</svg>
