<svg width="17" height="17" viewBox="0 0 17 17" fill="none" xmlns="http://www.w3.org/2000/svg">
<path d="M6.37484 15.5833H10.6248C14.1665 15.5833 15.5832 14.1667 15.5832 10.625V6.37499C15.5832 2.83332 14.1665 1.41666 10.6248 1.41666H6.37484C2.83317 1.41666 1.4165 2.83332 1.4165 6.37499V10.625C1.4165 14.1667 2.83317 15.5833 6.37484 15.5833Z" stroke="#9196A2" stroke-width="1.3" stroke-linecap="round" stroke-linejoin="round"/>
<path d="M1.4165 9.20835H4.07984C4.61817 9.20835 5.10692 9.51293 5.34775 9.9946L5.97817 11.2625C6.37484 12.0417 7.08317 12.0417 7.25317 12.0417H9.75359C10.2919 12.0417 10.7807 11.7371 11.0215 11.2554L11.6519 9.98751C11.8928 9.50585 12.3815 9.20126 12.9198 9.20126H15.569" stroke="#9196A2" stroke-width="1.3" stroke-linecap="round" stroke-linejoin="round"/>
<path d="M7.32422 4.95834H9.68297" stroke="#9196A2" stroke-width="1.3" stroke-linecap="round" stroke-linejoin="round"/>
<path d="M6.729 7.08334H10.2707" stroke="#9196A2" stroke-width="1.3" stroke-linecap="round" stroke-linejoin="round"/>
</svg>
