<svg width="17" height="17" viewBox="0 0 17 17" fill="none" xmlns="http://www.w3.org/2000/svg">
<path d="M7.48182 5.0619H1.40511C1.18138 5.0619 1 5.24328 1 5.46702V11.5437C1 11.7675 1.18138 11.9488 1.40511 11.9488H7.48182C7.70556 11.9488 7.88693 11.7675 7.88693 11.5437V5.46702C7.88693 5.24328 7.70556 5.0619 7.48182 5.0619Z" stroke="#9196A2" stroke-width="1.3" stroke-linejoin="round"/>
<path fill-rule="evenodd" clip-rule="evenodd" d="M3.83643 11.9488V14.9872C3.83643 15.5466 4.28985 16 4.84921 16H15.5847C16.1441 16 16.5975 15.5466 16.5975 14.9872V8.91049C16.5975 8.80445 16.5698 8.70025 16.517 8.60825C16.4643 8.51625 16.3884 8.43966 16.2968 8.38608C16.2053 8.33251 16.1014 8.30381 15.9953 8.30285C15.8893 8.30189 15.7849 8.3287 15.6924 8.38061L10.217 11.4546L7.88756 10.1469V11.5407L9.91951 12.6814L13.6661 14.7846H5.05177V11.9488H3.83643ZM15.3822 14.3543L11.4583 12.1514L15.3822 9.9485V14.3543Z" fill="#9196A2"/>
<path d="M14.7742 9.31561V1.82101C14.7742 1.71356 14.7316 1.61052 14.6556 1.53455C14.5796 1.45858 14.4766 1.41589 14.3691 1.41589H6.06429C5.95685 1.41589 5.85381 1.45858 5.77783 1.53455C5.70186 1.61052 5.65918 1.71356 5.65918 1.82101V5.11256" stroke="#9196A2" stroke-width="1.3" stroke-linejoin="round"/>
<path d="M4.44378 9.92331C5.22686 9.92331 5.86168 9.28849 5.86168 8.50541C5.86168 7.72232 5.22686 7.08751 4.44378 7.08751C3.66069 7.08751 3.02588 7.72232 3.02588 8.50541C3.02588 9.28849 3.66069 9.92331 4.44378 9.92331Z" stroke="#9196A2" stroke-width="1.3"/>
</svg>
