<svg width="17" height="17" viewBox="0 0 17 17" fill="none" xmlns="http://www.w3.org/2000/svg">
<path d="M5.78329 9.83823C5.66731 10.4666 5.1937 13.4302 5.05838 14.2649C5.05838 14.3306 5.05838 14.3494 4.95206 14.3494H2.41969C2.35987 14.3499 2.30062 14.3379 2.24601 14.3142C2.19139 14.2906 2.14268 14.2557 2.10323 14.2121C2.06376 14.1684 2.03448 14.117 2.01737 14.0614C2.00025 14.0058 1.99572 13.9472 2.00407 13.8898L3.99517 1.58498C4.02168 1.42979 4.10246 1.28819 4.22391 1.184C4.34538 1.0798 4.50011 1.01938 4.66209 1.01288C9.83315 1.01288 10.2681 0.890955 11.5923 1.3974C13.6317 2.16645 13.825 4.02342 13.0904 6.03983C12.3559 8.05628 10.6257 8.99415 8.32533 9.02228C6.85617 9.02228 5.96694 8.79719 5.76396 9.82885L5.78329 9.83823ZM14.1343 5.07383C14.0763 5.02694 14.057 5.01756 14.0377 5.07383C13.9675 5.45276 13.8673 5.82588 13.738 6.18989C12.3849 9.94139 8.62496 9.6319 6.78851 9.6319C6.7425 9.62664 6.69591 9.63068 6.65164 9.64371C6.60728 9.65665 6.56623 9.67832 6.53089 9.7073C6.49556 9.73637 6.46673 9.77211 6.44621 9.81234C6.42568 9.85257 6.41388 9.89647 6.41155 9.94139C5.64798 14.6307 5.445 15.5686 5.445 15.5686C5.43349 15.6204 5.43406 15.6741 5.44666 15.7258C5.45927 15.7774 5.48358 15.8257 5.51786 15.8669C5.55212 15.9083 5.59547 15.9417 5.64474 15.9647C5.694 15.9877 5.74795 15.9997 5.80262 16H7.9677C8.11046 15.9973 8.24771 15.9461 8.35548 15.8552C8.46326 15.7644 8.53468 15.6397 8.5573 15.5029C8.5573 15.3247 8.5573 15.7093 9.05024 12.483C9.20489 11.7608 9.53352 11.8359 10.0168 11.8359C12.4235 11.8359 14.3083 10.898 14.8496 8.08442C15.0293 7.55124 15.0484 6.97943 14.9046 6.43608C14.7607 5.89278 14.4599 5.40064 14.0377 5.01756L14.1343 5.07383Z" fill="white"/>
</svg>
