<svg width="17" height="17" viewBox="0 0 17 17" fill="none" xmlns="http://www.w3.org/2000/svg">
<path d="M13.6369 2H2.68132C2.31341 2 2 2.31473 2 2.69789V3.94316C2 4.32631 2.31341 4.64105 2.68132 4.64105H13.6369C14.0185 4.64105 14.3183 4.32631 14.3319 3.94316V2.71158C14.3319 2.31473 14.0185 2 13.6369 2ZM13.6369 8.91053H2.68132C2.50418 8.91053 2.32703 8.97895 2.2044 9.11579C2.06813 9.25263 2 9.41684 2 9.60842V10.8537C2 11.2368 2.31341 11.5516 2.68132 11.5516H13.6369C14.0185 11.5516 14.3183 11.2505 14.3319 10.8537V9.60842C14.3183 9.21158 14.0185 8.91053 13.6369 8.91053ZM8.85407 12.3589H2.68132C2.50418 12.3589 2.32703 12.4274 2.2044 12.5642C2.08176 12.701 2 12.8653 2 13.0568V14.3021C2 14.6853 2.31341 15 2.68132 15H8.84044C9.22198 15 9.52176 14.6853 9.52176 14.3158V13.0705C9.53539 12.66 9.23561 12.3589 8.85407 12.3589ZM14.3319 5.44842H2.68132C2.50418 5.44842 2.32703 5.51684 2.2044 5.65368C2.08176 5.79052 2 5.95474 2 6.14631V7.39158C2 7.77474 2.31341 8.08947 2.68132 8.08947H14.3183C14.6998 8.08947 14.9996 7.77474 14.9996 7.39158V6.14631C15.0132 5.77684 14.6998 5.4621 14.3319 5.44842Z" fill="#9196A2"/>
</svg>
