<svg width="17" height="17" viewBox="0 0 17 17" fill="none" xmlns="http://www.w3.org/2000/svg">
<g clip-path="url(#clip0_23_133)">
<path d="M14.1677 13.419C13.1177 14.6268 11.709 15.4673 10.1475 15.8178C8.58588 16.1683 6.95316 16.0104 5.4877 15.3671C4.02225 14.7237 2.80088 13.6287 2.00194 12.2419C1.20299 10.8551 0.868333 9.24922 1.04682 7.65873C1.22518 6.0681 1.90742 4.57616 2.99392 3.40081C4.08041 2.22546 5.51424 1.42828 7.08598 1.1257M9.92858 1.13179C10.9841 1.33506 11.9835 1.76268 12.8594 2.38573C13.7353 3.00878 14.4671 3.81271 15.0053 4.74311C15.5436 5.67352 15.8757 6.70871 15.9792 7.77862C16.0827 8.84853 15.9552 9.92818 15.6052 10.9445" stroke="#9196A2" stroke-width="1.3" stroke-linecap="round"/>
<path d="M6.8859 8.09482V6.64461C6.8859 5.76526 7.61233 5.05243 8.50851 5.05243C9.4047 5.05243 10.1311 5.76526 10.1311 6.64461V8.09482M6.48025 8.09482H10.5368C10.9862 8.09482 11.3481 8.45666 11.3481 8.90613V11.1372C11.3481 11.5867 10.9862 11.9485 10.5368 11.9485H6.48025C6.03079 11.9485 5.66895 11.5867 5.66895 11.1372V8.90613C5.66895 8.45666 6.03079 8.09482 6.48025 8.09482Z" stroke="#9196A2" stroke-width="1.3"/>
</g>
<defs>
<clipPath id="clip0_23_133">
<rect width="17" height="17" fill="white"/>
</clipPath>
</defs>
</svg>
