<svg width="17" height="17" viewBox="0 0 17 17" fill="none" xmlns="http://www.w3.org/2000/svg">
<path d="M11.2792 7.58695H4.55895V5.76447C5.24074 3.3264 7.91889 3.29288 7.91889 3.29288C7.91889 3.29288 10.597 3.3264 11.279 5.76412L11.2792 7.58695ZM7.91889 1.00046C7.91889 1.00046 3.01205 0.854984 2 5.7643V9.10766C2 9.10766 2.0419 9.46566 3.15781 10.1925C4.27373 10.9193 7.16275 12.9657 7.91909 12.9657C8.67542 12.9657 11.5644 10.9193 12.6804 10.1925C13.7963 9.46566 13.8382 9.10766 13.8382 9.10766V5.76447C12.8259 0.855161 7.91928 1.00046 7.91928 1.00046" fill="#9196A2"/>
<path d="M7.91909 13.7188C7.91909 13.7188 7.15862 13.6515 6.56339 13.2788C5.96816 12.9063 2 10.349 2 10.349V15.411C2 15.411 2.03344 16 2.75279 16H13.0854C13.8045 16 13.8382 15.411 13.8382 15.411V10.349C13.8382 10.349 9.86982 12.9061 9.27459 13.2788C8.67955 13.6515 7.91909 13.7188 7.91909 13.7188Z" fill="#9196A2"/>
</svg>
