<svg width="17" height="17" viewBox="0 0 17 17" fill="none" xmlns="http://www.w3.org/2000/svg">
<g clip-path="url(#clip0_28_816)">
<path d="M8.5 17C13.1944 17 17 13.1944 17 8.5C17 3.80558 13.1944 0 8.5 0C3.80558 0 0 3.80558 0 8.5C0 13.1944 3.80558 17 8.5 17Z" fill="#9196A2"/>
<path d="M4 10.1196H6.88041V13H4V10.1196ZM9.9402 10.1196H7.0598V13H9.9402V10.1196ZM4 9.9402H6.88041V7.0598H4V9.9402ZM7.0598 9.9402H9.9402V7.0598H7.0598V9.9402ZM10.1196 6.88041H13V4H10.1196V6.88041ZM13 7.05959H10.1196V9.9402H13V7.05959ZM7.0598 6.88041H9.9402V4H7.0598V6.88041Z" fill="#1B1F2B"/>
</g>
<defs>
<clipPath id="clip0_28_816">
<rect width="17" height="17" fill="white"/>
</clipPath>
</defs>
</svg>
