<svg width="17" height="17" viewBox="0 0 17 17" fill="none" xmlns="http://www.w3.org/2000/svg">
<path d="M6.98425 6.16923C6.98425 5.56923 7.48819 5.33846 8.32283 5.33846C9.51968 5.33846 11.0315 5.69231 12.2283 6.32308V2.70769C10.9213 2.2 9.62992 2 8.32283 2C5.12598 2 3 3.63077 3 6.35385C3 10.6 8.98425 9.92308 8.98425 11.7538C8.98425 12.4615 8.35433 12.6923 7.47244 12.6923C6.16535 12.6923 4.49606 12.1692 3.17323 11.4615V15.1231C4.6378 15.7385 6.11811 16 7.47244 16C10.748 16 13 14.4154 13 11.6615C12.9843 7.07692 6.98425 7.89231 6.98425 6.16923Z" fill="#9196A2"/>
</svg>
