<svg width="17" height="17" viewBox="0 0 17 17" fill="none" xmlns="http://www.w3.org/2000/svg">
<path d="M8.49984 15.5833H12.0415C14.1665 15.5833 15.5832 14.1667 15.5832 12.0417V8.49999C15.5832 6.58749 14.379 5.17083 12.6082 4.95833C12.4665 4.95833 12.254 4.95833 12.0415 4.95833H4.95817C4.74567 4.95833 4.604 4.95831 4.3915 5.02914C2.54984 5.24164 1.4165 6.58749 1.4165 8.49999C1.4165 8.71249 1.4165 8.99583 1.4165 9.20833" stroke="#9196A2" stroke-width="1.3" stroke-linecap="round" stroke-linejoin="round"/>
<path d="M12.6083 4.95834C12.4666 4.95834 12.2541 4.95834 12.0416 4.95834H4.95827C4.74577 4.95834 4.6041 4.95832 4.3916 5.02916C4.46243 4.81666 4.60411 4.675 4.81661 4.4625L7.08327 2.12501C8.07494 1.13334 9.63327 1.13334 10.6249 2.12501L11.8999 3.4C12.3249 3.825 12.5374 4.39167 12.6083 4.95834Z" stroke="#9196A2" stroke-width="1.3" stroke-linecap="round" stroke-linejoin="round"/>
<path d="M2.15824 11.8433L4.63449 11.0179C5.74574 10.6475 6.34949 11.2542 5.98199 12.3654L5.15658 14.8417C4.60241 16.5071 3.69241 16.5071 3.13824 14.8417L2.89324 14.1067L2.15824 13.8617C0.492826 13.3075 0.492826 12.4004 2.15824 11.8433Z" stroke="#9196A2" stroke-width="1.3" stroke-linecap="round" stroke-linejoin="round"/>
<path d="M2.94873 13.9813L3.9929 12.9342" stroke="#9196A2" stroke-width="1.3" stroke-linecap="round" stroke-linejoin="round"/>
<path d="M15.5832 8.85417H13.4582C12.679 8.85417 12.0415 9.49167 12.0415 10.2708C12.0415 11.05 12.679 11.6875 13.4582 11.6875H15.5832" stroke="#9196A2" stroke-width="1.3" stroke-linecap="round" stroke-linejoin="round"/>
</svg>
