<svg width="17" height="17" viewBox="0 0 17 17" fill="none" xmlns="http://www.w3.org/2000/svg">
<path d="M5.66675 15.5833H11.3334C14.1809 15.5833 14.6909 14.4429 14.8397 13.0546L15.3709 7.38792C15.5622 5.65958 15.0663 4.25 12.0417 4.25H4.95841C1.93383 4.25 1.438 5.65958 1.62925 7.38792L2.1605 13.0546C2.30925 14.4429 2.81925 15.5833 5.66675 15.5833Z" stroke="white" stroke-width="1.3" stroke-miterlimit="10" stroke-linecap="round" stroke-linejoin="round"/>
<path d="M5.6665 4.25V3.68333C5.6665 2.42958 5.6665 1.41666 7.93317 1.41666H9.0665C11.3332 1.41666 11.3332 2.42958 11.3332 3.68333V4.25" stroke="white" stroke-width="1.3" stroke-miterlimit="10" stroke-linecap="round" stroke-linejoin="round"/>
<path d="M9.91683 9.20833V9.91667C9.91683 9.92375 9.91683 9.92375 9.91683 9.93083C9.91683 10.7029 9.90975 11.3333 8.50016 11.3333C7.09766 11.3333 7.0835 10.71 7.0835 9.93792V9.20833C7.0835 8.5 7.0835 8.5 7.79183 8.5H9.2085C9.91683 8.5 9.91683 8.5 9.91683 9.20833Z" stroke="white" stroke-width="1.3" stroke-miterlimit="10" stroke-linecap="round" stroke-linejoin="round"/>
<path d="M15.3353 7.79166C13.699 8.98166 11.829 9.69 9.9165 9.93083" stroke="white" stroke-width="1.3" stroke-miterlimit="10" stroke-linecap="round" stroke-linejoin="round"/>
<path d="M1.85596 7.98292C3.44971 9.07375 5.24887 9.7325 7.08346 9.93792" stroke="white" stroke-width="1.3" stroke-miterlimit="10" stroke-linecap="round" stroke-linejoin="round"/>
</svg>
