<svg width="17" height="17" viewBox="0 0 17 17" fill="none" xmlns="http://www.w3.org/2000/svg">
<path d="M6.48831 7.69959C6.41748 7.6925 6.33248 7.6925 6.25456 7.69959C4.56873 7.64292 3.22998 6.26167 3.22998 4.56167C3.22998 2.82626 4.63248 1.41667 6.37498 1.41667C8.1104 1.41667 9.51998 2.82626 9.51998 4.56167C9.5129 6.26167 8.17415 7.64292 6.48831 7.69959Z" stroke="#9196A2" stroke-width="1.3" stroke-linecap="round" stroke-linejoin="round"/>
<path d="M11.6238 2.83333C12.998 2.83333 14.103 3.94541 14.103 5.3125C14.103 6.65125 13.0405 7.74208 11.7159 7.79166C11.6592 7.78458 11.5955 7.78458 11.5317 7.79166" stroke="#9196A2" stroke-width="1.3" stroke-linecap="round" stroke-linejoin="round"/>
<path d="M2.94676 10.3133C1.23259 11.4608 1.23259 13.3308 2.94676 14.4712C4.89467 15.7746 8.08926 15.7746 10.0372 14.4712C11.7513 13.3237 11.7513 11.4537 10.0372 10.3133C8.09634 9.01708 4.90176 9.01708 2.94676 10.3133Z" stroke="#9196A2" stroke-width="1.3" stroke-linecap="round" stroke-linejoin="round"/>
<path d="M12.9907 14.1667C13.5007 14.0604 13.9824 13.855 14.3791 13.5504C15.4841 12.7217 15.4841 11.3546 14.3791 10.5258C13.9895 10.2283 13.5149 10.03 13.012 9.91667" stroke="#9196A2" stroke-width="1.3" stroke-linecap="round" stroke-linejoin="round"/>
</svg>
