<svg width="17" height="17" viewBox="0 0 17 17" fill="none" xmlns="http://www.w3.org/2000/svg">
<path d="M13.1043 8.96042V11.5813C13.1043 13.7913 11.0431 15.5833 8.50016 15.5833C5.95725 15.5833 3.896 13.7913 3.896 11.5813V8.96042C3.896 11.1704 5.95725 12.75 8.50016 12.75C11.0431 12.75 13.1043 11.1704 13.1043 8.96042Z" stroke="#9196A2" stroke-width="1.3" stroke-linecap="round" stroke-linejoin="round"/>
<path d="M13.1043 5.41874C13.1043 6.06332 12.9272 6.65832 12.6156 7.16832C11.8577 8.41499 10.2993 9.20832 8.50016 9.20832C6.701 9.20832 5.14266 8.41499 4.38475 7.16832C4.07308 6.65832 3.896 6.06332 3.896 5.41874C3.896 4.31374 4.41308 3.31499 5.24183 2.59249C6.07766 1.86291 7.22516 1.41666 8.50016 1.41666C9.77516 1.41666 10.9227 1.86291 11.7585 2.58541C12.5873 3.31499 13.1043 4.31374 13.1043 5.41874Z" stroke="#9196A2" stroke-width="1.3" stroke-linecap="round" stroke-linejoin="round"/>
<path d="M13.1043 5.41874V8.96041C13.1043 11.1704 11.0431 12.75 8.50016 12.75C5.95725 12.75 3.896 11.1704 3.896 8.96041V5.41874C3.896 3.20874 5.95725 1.41666 8.50016 1.41666C9.77516 1.41666 10.9227 1.86291 11.7585 2.58541C12.5873 3.31499 13.1043 4.31374 13.1043 5.41874Z" stroke="#9196A2" stroke-width="1.3" stroke-linecap="round" stroke-linejoin="round"/>
</svg>
