<svg width="17" height="17" viewBox="0 0 17 17" fill="none" xmlns="http://www.w3.org/2000/svg">
<path d="M8.5 3.93835H15.5833" stroke="#9196A2" stroke-width="1.5" stroke-miterlimit="10" stroke-linecap="round" stroke-linejoin="round"/>
<path d="M10.0725 1.41669H14.0108C15.2717 1.41669 15.5833 1.72835 15.5833 2.97502V5.88627C15.5833 7.13294 15.2717 7.4446 14.0108 7.4446H10.0725C8.81167 7.4446 8.5 7.13294 8.5 5.88627V2.97502C8.5 1.72835 8.81167 1.41669 10.0725 1.41669Z" stroke="#9196A2" stroke-width="1.5" stroke-linecap="round" stroke-linejoin="round"/>
<path d="M1.4165 12.0842H8.49984" stroke="#9196A2" stroke-width="1.5" stroke-miterlimit="10" stroke-linecap="round" stroke-linejoin="round"/>
<path d="M2.989 9.5625H6.92734C8.18817 9.5625 8.49984 9.87417 8.49984 11.1208V14.0321C8.49984 15.2788 8.18817 15.5904 6.92734 15.5904H2.989C1.72817 15.5904 1.4165 15.2788 1.4165 14.0321V11.1208C1.4165 9.87417 1.72817 9.5625 2.989 9.5625Z" stroke="#9196A2" stroke-width="1.5" stroke-linecap="round" stroke-linejoin="round"/>
<path d="M15.5833 10.625C15.5833 13.3663 13.3663 15.5833 10.625 15.5833L11.3687 14.3438" stroke="#9196A2" stroke-width="1.5" stroke-linecap="round" stroke-linejoin="round"/>
<path d="M1.4165 6.37502C1.4165 3.63377 3.63359 1.41669 6.37484 1.41669L5.6311 2.65627" stroke="#9196A2" stroke-width="1.5" stroke-linecap="round" stroke-linejoin="round"/>
</svg>
