<svg width="17" height="18" viewBox="0 0 17 18" fill="none" xmlns="http://www.w3.org/2000/svg">
<path fill-rule="evenodd" clip-rule="evenodd" d="M16.4894 5.86284L14.5534 6.27536C14.2656 6.35684 13.483 6.93321 12.1243 8.04568C10.6826 9.19906 9.94108 9.93989 9.8178 10.3112L9.73546 11.3404L9.69395 11.9589L9.85874 13.523L12.412 13.5638L12.3708 14.3462H8.21163L4.505 14.388L4.62918 13.6463L5.823 13.6054C6.44117 13.5639 6.81219 13.4821 6.93547 13.3576C7.01725 13.2765 7.05875 12.7821 7.05875 11.9168V11.3822L7.01725 10.3112C6.93547 10.0637 6.27566 9.15812 4.99963 7.59286C3.68206 5.98729 2.81675 5.03927 2.40513 4.7094L0.0166016 4.38022V3.67967C0.139852 3.59789 1.45802 3.59789 3.88772 3.63906C5.57583 3.59786 6.97621 3.59786 8.08821 3.67967L8.00584 4.25757L5.49405 4.50414C6.27566 5.65688 7.47067 7.26398 9.07637 9.28114C11.1772 7.67437 12.2881 6.64551 12.3296 6.19298L10.1882 5.86287L10.0235 5.12201H13.6062L16.9834 5.16319L16.4894 5.86284Z" fill="#9196A2"/>
</svg>
