<svg width="17" height="17" viewBox="0 0 17 17" fill="none" xmlns="http://www.w3.org/2000/svg">
<g clip-path="url(#clip0_55_42)">
<path d="M7.50469 1C7.92838 1.00078 8.34507 1.03658 8.75014 1.1043V5.4707L11.8457 2.38309C12.1876 2.62592 12.5075 2.896 12.8032 3.19099C13.0991 3.48598 13.3706 3.80587 13.6141 4.14678L10.5183 7.23439H14.8962C14.9641 7.63834 15 8.05242 15 8.47583V8.48594C15 8.90935 14.9641 9.3242 14.8962 9.72815H10.5176L13.6141 12.815C13.3706 13.1559 13.0991 13.4758 12.8041 13.7708H12.8032C12.5075 14.0658 12.1876 14.3366 11.8466 14.5787L8.75014 11.4911V15.8575C8.34581 15.9252 7.92913 15.9609 7.50544 15.9618H7.49456C7.07072 15.9609 6.65568 15.9252 6.25061 15.8575V11.4911L3.15503 14.5787C2.47137 14.0938 1.87368 13.4968 1.38667 12.815L4.48241 9.72815H0.104582C0.0359033 9.32341 0 8.90701 0 8.4836V8.46187C0.00071165 8.35199 0.00790663 8.21776 0.0182409 8.07889L0.021432 8.03711C0.052031 7.64621 0.104582 7.23439 0.104582 7.23439H4.48241L1.38667 4.14678C1.62936 3.80587 1.9002 3.48675 2.19591 3.19255L2.1974 3.19099C2.49253 2.896 2.81312 2.62592 3.15503 2.38309L6.25061 5.4707V1.1043C6.65568 1.03658 7.07162 1.00078 7.49605 1H7.50469ZM7.50395 6.61095H7.4968C6.93962 6.61095 6.40599 6.71291 5.91273 6.89815C5.72785 7.38928 5.6255 7.92165 5.62476 8.47737V8.48438C5.6255 9.0401 5.72785 9.57249 5.91347 10.0636C6.40599 10.2489 6.93962 10.3508 7.4968 10.3508H7.50395C8.06112 10.3508 8.59475 10.2489 9.08727 10.0636C9.2729 9.57171 9.37524 9.0401 9.37524 8.48438V8.47737C9.37524 7.92165 9.2729 7.38928 9.08727 6.89815C8.59475 6.71291 8.06112 6.61095 7.50395 6.61095Z" fill="white"/>
</g>
<defs>
<clipPath id="clip0_55_42">
<rect width="15" height="15" fill="white" transform="translate(0 1)"/>
</clipPath>
</defs>
</svg>
