<svg xmlns="http://www.w3.org/2000/svg" xmlns:xlink="http://www.w3.org/1999/xlink" width="900" height="650" viewBox="0 0 900 650">
    <defs>
        <path id="a" d="M15 0h870c8.284 0 15 6.716 15 15v620c0 8.284-6.716 15-15 15H15c-8.284 0-15-6.716-15-15V15C0 6.716 6.716 0 15 0z"/>
    </defs>
    <g fill="none" fill-rule="evenodd">
        <mask id="b" fill="#fff">
            <use xlink:href="#a"/>
        </mask>
        <use fill="#FFF" xlink:href="#a"/>
        <g mask="url(#b)">
            <path fill="#FC0" d="M-366.271 399.202c86.09 48.054 178.329 57.976 276.717 29.765C58.03 386.65 77.86 314.594 193.313 281.49c115.453-33.104 210.497 61.99 409.222 5.009 198.725-56.98 145.022-124.124 338.434-179.581 193.41-55.457 186.268 44.605 431.574-17.267s208.123-148.689 422.506-201.057c214.382-52.369 288.769 84.41 566.23 4.853 184.973-53.037 234.787-63.335 149.44-30.893l-242.738-846.487L-591-164.176l224.729 563.378z"/>
            <path fill="#000" d="M-299.755 323.636c86.09 48.055 178.33 57.976 276.718 29.765 147.582-42.316 167.413-114.372 282.866-147.476 115.453-33.104 210.497 61.989 409.222 5.008 198.725-56.98 145.023-124.124 338.434-179.58 193.411-55.458 186.268 44.605 431.574-17.268 245.306-61.872 208.124-148.688 422.506-201.057 214.383-52.368 288.77 84.41 566.23 4.854 184.974-53.038 234.788-63.336 149.441-30.894l-242.738-846.487L-524.484-239.74l224.729 563.377z"/>
        </g>
    </g>
</svg>
