<svg width="75" height="75" viewBox="0 0 75 75" fill="none" xmlns="http://www.w3.org/2000/svg">
<g clip-path="url(#clip0_4495_2237)">
<path d="M17 18L56.5 57.5" stroke="#A2B7C1" stroke-linecap="round" stroke-dasharray="2 2"/>
<path d="M56.5 18L17 57.5" stroke="#A2B7C1" stroke-linecap="round" stroke-dasharray="2 2"/>
<path d="M37.5 57C48.2696 57 57 48.2696 57 37.5C57 26.7304 48.2696 18 37.5 18C26.7304 18 18 26.7304 18 37.5C18 48.2696 26.7304 57 37.5 57Z" fill="white"/>
<path d="M29.0539 44.631C28.8328 45.6155 29.3079 46.6204 30.1909 47.1088C32.3722 48.3153 34.8806 49.0024 37.5496 49.0024C40.2192 49.0024 42.7281 48.3152 44.9096 47.1085C45.7926 46.6201 46.2677 45.6151 46.0465 44.6306C45.1731 40.7427 41.7018 37.8379 37.5502 37.8379C33.3985 37.8379 29.9272 40.743 29.0539 44.631Z" fill="#00A8ED"/>
<path d="M46.047 44.6306C45.1736 40.7427 41.7024 37.8379 37.5508 37.8379C37.0105 37.8379 36.4822 37.8881 35.9693 37.9822C39.3984 38.6115 42.1243 41.2486 42.884 44.6306C43.1052 45.6151 42.63 46.6201 41.7471 47.1084C40.0021 48.0736 38.0473 48.7052 35.9688 48.9199C36.4887 48.9736 37.0161 49.0023 37.5502 49.0023C40.2198 49.0023 42.7287 48.3151 44.9102 47.1084C45.793 46.6201 46.2681 45.6151 46.047 44.6306Z" fill="#009FE0"/>
<path d="M37.5508 39.0453C34.9836 39.0453 32.9023 36.964 32.9023 34.3968V28.7252C32.9023 27.2202 34.1224 26 35.6275 26H39.4742C40.9792 26 42.1994 27.2201 42.1994 28.7252V34.3968C42.1993 36.964 40.1181 39.0453 37.5508 39.0453Z" fill="white"/>
<path d="M39.4737 26H36.3106C37.8156 26 39.0357 27.2201 39.0357 28.7251V34.3967C39.0357 36.4086 37.7574 38.1216 35.9688 38.7688C36.4624 38.9474 36.995 39.0452 37.5502 39.0452C40.1175 39.0452 42.1987 36.9639 42.1987 34.3967V28.7251C42.1987 27.2201 40.9787 26 39.4737 26Z" fill="#F7F7F7"/>
<path d="M39.4742 26H35.6275C34.1225 26 32.9023 27.2201 32.9023 28.7251V32.1924L36.8415 30.8947C38.2941 30.4161 39.8864 30.6357 41.1553 31.4897L42.1994 32.1924V28.7251C42.1993 27.2201 40.9792 26 39.4742 26Z" fill="#08295B"/>
<path d="M39.4756 26H36.3125C37.8175 26 39.0377 27.2201 39.0377 28.7251V30.6891C39.7869 30.7877 40.5133 31.0568 41.1567 31.4897L42.2007 32.1924V28.7251C42.2006 27.2201 40.9806 26 39.4756 26Z" fill="#08295B"/>
<path d="M64.1145 17.313C67.664 17.313 70.5415 14.4355 70.5415 10.886C70.5415 7.33645 67.664 4.45898 64.1145 4.45898C60.565 4.45898 57.6875 7.33645 57.6875 10.886C57.6875 14.4355 60.565 17.313 64.1145 17.313Z" fill="#DF5430"/>
<path d="M64.116 4.45898C63.3172 4.45898 62.5531 4.60576 61.8477 4.87207C64.2775 5.78906 66.0064 8.13516 66.0064 10.886C66.0064 13.6368 64.2775 15.9829 61.8477 16.8999C62.5531 17.1662 63.3173 17.313 64.116 17.313C67.6656 17.313 70.543 14.4354 70.543 10.886C70.543 7.33652 67.6656 4.45898 64.116 4.45898Z" fill="#D64823"/>
<path d="M10.884 17.313C14.4336 17.313 17.311 14.4355 17.311 10.886C17.311 7.33645 14.4336 4.45898 10.884 4.45898C7.3345 4.45898 4.45703 7.33645 4.45703 10.886C4.45703 14.4355 7.3345 17.313 10.884 17.313Z" fill="#FFC269"/>
<path d="M10.8855 4.45898C10.0867 4.45898 9.32266 4.60576 8.61719 4.87207C11.0471 5.78906 12.7759 8.13516 12.7759 10.886C12.7759 13.6368 11.0471 15.9829 8.61719 16.8999C9.32266 17.1662 10.0869 17.313 10.8855 17.313C14.4351 17.313 17.3125 14.4354 17.3125 10.886C17.3125 7.33652 14.4351 4.45898 10.8855 4.45898Z" fill="#FFA95F"/>
<path d="M64.1145 70.5435C67.664 70.5435 70.5415 67.666 70.5415 64.1165C70.5415 60.5669 67.664 57.6895 64.1145 57.6895C60.565 57.6895 57.6875 60.5669 57.6875 64.1165C57.6875 67.666 60.565 70.5435 64.1145 70.5435Z" fill="#B3E59F"/>
<path d="M64.116 57.6895C63.3172 57.6895 62.5531 57.8362 61.8477 58.1025C64.2775 59.0195 66.0064 61.3656 66.0064 64.1166C66.0064 66.8676 64.2775 69.2135 61.8477 70.1305C62.5531 70.3968 63.3173 70.5436 64.116 70.5436C67.6656 70.5436 70.543 67.6661 70.543 64.1166C70.543 60.5671 67.6656 57.6895 64.116 57.6895Z" fill="#95D6A4"/>
<path d="M10.884 70.5435C14.4336 70.5435 17.311 67.666 17.311 64.1165C17.311 60.5669 14.4336 57.6895 10.884 57.6895C7.3345 57.6895 4.45703 60.5669 4.45703 64.1165C4.45703 67.666 7.3345 70.5435 10.884 70.5435Z" fill="#A5C5EE"/>
<path d="M10.8855 57.6895C10.0867 57.6895 9.32266 57.8362 8.61719 58.1025C11.0471 59.0195 12.7759 61.3656 12.7759 64.1166C12.7759 66.8676 11.0471 69.2135 8.61719 70.1305C9.32266 70.3968 10.0869 70.5436 10.8855 70.5436C14.4351 70.5436 17.3125 67.6661 17.3125 64.1166C17.3125 60.5671 14.4351 57.6895 10.8855 57.6895Z" fill="#97B9E3"/>
</g>
<defs>
<clipPath id="clip0_4495_2237">
<rect width="75" height="75" fill="white"/>
</clipPath>
</defs>
</svg>
