<svg width="24" height="24" viewBox="0 0 24 24" fill="none" xmlns="http://www.w3.org/2000/svg">
<rect width="24" height="24" rx="5" fill="#006DED"/>
<g clip-path="url(#clip0_4495_2343)">
<path fill-rule="evenodd" clip-rule="evenodd" d="M12.0142 4.66602C7.96561 4.66602 4.66407 7.96235 4.66406 12.0109C4.66405 16.0595 7.9656 19.3597 12.0142 19.3597C16.0627 19.3597 19.3577 16.0595 19.3577 12.0109C19.3577 7.96235 16.0627 4.66602 12.0142 4.66602ZM12.0142 6.00145C15.341 6.00145 18.0223 8.68407 18.0223 12.0109C18.0223 15.3377 15.341 18.0243 12.0142 18.0243C8.68732 18.0243 5.99949 15.3377 5.9995 12.0109C5.9995 8.68407 8.68733 6.00145 12.0142 6.00145ZM12.0037 8.66319C11.9155 8.66404 11.8283 8.68237 11.7472 8.71713C11.6661 8.75189 11.5926 8.80237 11.5312 8.86568C11.4697 8.92898 11.4214 9.00384 11.389 9.08593C11.3566 9.16802 11.3408 9.25571 11.3425 9.34394V11.3445H9.34199C9.31897 11.3433 9.2959 11.3433 9.27287 11.3445C9.09561 11.3537 8.92925 11.4329 8.81039 11.5647C8.69152 11.6965 8.6299 11.8702 8.63906 12.0474C8.64823 12.2247 8.72744 12.391 8.85926 12.5099C8.99109 12.6288 9.16473 12.6904 9.34199 12.6812H11.3425V14.6818C11.3425 14.859 11.4129 15.029 11.5383 15.1544C11.6636 15.2797 11.8336 15.3501 12.0109 15.3501C12.1882 15.3501 12.3582 15.2797 12.4835 15.1544C12.6089 15.029 12.6793 14.859 12.6793 14.6818V12.6812H14.6798C14.8571 12.6812 15.0271 12.6108 15.1524 12.4855C15.2778 12.3601 15.3482 12.1901 15.3482 12.0129C15.3482 11.8356 15.2778 11.6656 15.1524 11.5402C15.0271 11.4149 14.8571 11.3445 14.6798 11.3445H12.6793V9.34394C12.681 9.25451 12.6648 9.16563 12.6315 9.08259C12.5982 8.99955 12.5486 8.92404 12.4856 8.86055C12.4226 8.79705 12.3475 8.74686 12.2647 8.71296C12.1819 8.67906 12.0932 8.66213 12.0037 8.66319Z" fill="white"/>
</g>
<defs>
<clipPath id="clip0_4495_2343">
<rect width="16" height="16" fill="white" transform="translate(4 4)"/>
</clipPath>
</defs>
</svg>
