<svg width="81" height="73" viewBox="0 0 81 73" fill="none" xmlns="http://www.w3.org/2000/svg">
<g clip-path="url(#clip0_4495_2148)">
<path d="M28.4994 51.7996L25.8131 47.1467C25.5001 46.6047 24.8071 46.419 24.2651 46.7319C23.7229 47.0452 23.5373 47.7382 23.8502 48.2803L24.6667 49.6945C17.0812 48.0564 13.56 41.7273 14.8949 36.5648C14.9433 36.3782 14.6919 36.2703 14.588 36.4259C11.3458 41.2958 12.8315 48.9015 21.0984 52.4199C21.9016 52.7512 22.7213 53.0591 23.5537 53.3459L22.2978 54.071C21.7558 54.3839 21.57 55.0773 21.883 55.6189C22.196 56.161 22.8889 56.347 23.431 56.0337L28.0839 53.3474C28.6266 53.035 28.8123 52.342 28.4994 51.7996Z" fill="#88C057"/>
</g>
<g clip-path="url(#clip1_4495_2148)">
<path d="M47.4539 18.9389L42.801 16.2525C42.259 15.9396 42.0733 15.2466 42.3862 14.7045C42.6995 14.1624 43.3925 13.9767 43.9346 14.2897L45.3488 15.1061C43.7107 7.52066 37.3816 3.99944 32.2191 5.33431C32.0325 5.38274 31.9246 5.13139 32.0802 5.0275C36.9501 1.78521 44.5558 3.27097 48.0742 11.5378C48.4055 12.341 48.7134 13.1607 49.0002 13.9931L49.7253 12.7373C50.0382 12.1952 50.7316 12.0094 51.2732 12.3225C51.8153 12.6354 52.0013 13.3283 51.688 13.8705L49.0017 18.5234C48.6893 19.066 47.9963 19.2517 47.4539 18.9389Z" fill="#88C057"/>
</g>
<g clip-path="url(#clip2_4495_2148)">
<path d="M76.0895 35.3648L73.5741 36.1508L72.0859 31.7358L73.5741 27.6934L76.0895 28.4794C76.5097 28.6107 76.7959 29 76.7959 29.4404V34.4037C76.796 34.8442 76.5098 35.2335 76.0895 35.3648Z" fill="#37B2E6"/>
<path d="M76.0927 43.8217L73.5773 44.6077L72.5977 40.3791L73.5773 36.1504L76.0927 36.9364C76.5129 37.0678 76.7991 37.457 76.7991 37.8974V42.8607C76.7992 43.3011 76.513 43.6903 76.0927 43.8217Z" fill="#812D7B"/>
<path d="M76.0895 52.2788L73.5742 53.0647L72.4492 48.8361L73.5742 44.6074L76.0895 45.3934C76.5098 45.5248 76.796 45.914 76.796 46.3544V51.3177C76.7961 51.7581 76.5099 52.1474 76.0895 52.2788Z" fill="#9D3615"/>
<path d="M71.5975 37.7108L71.7428 24.6896L69.7088 23.7997L68.0766 23.4648H67.535H66.5282L64.9172 23.4648L63.3064 23.4648H38.5383C36.7589 23.4648 35.3164 24.9073 35.3164 26.6867V69.7791C35.3164 71.5584 36.7589 73.001 38.5383 73.001H63.3064H64.9172H66.5282H70.3542C72.1336 73.001 73.5761 71.5585 73.5761 69.7791V53.0657L71.5975 37.7108Z" fill="#B8D3F5"/>
<g clip-path="url(#clip3_4495_2148)">
<path d="M60.4918 42.2816C60.1986 41.5811 59.7341 40.9516 59.1344 40.4851C58.4833 39.9787 57.5518 39.4073 56.7024 39.7797C56.468 39.8825 56.2775 40.0473 56.1298 40.2506C56.0284 40.3887 55.947 40.5456 55.8838 40.7186C55.8703 40.7553 55.3166 42.5093 55.1112 43.3635C54.9738 43.9354 55.0778 44.33 55.4434 44.6419C55.5577 44.7395 55.6973 44.829 55.8635 44.9133C56.2568 45.1128 56.6653 45.2802 57.0753 45.4456C57.1324 45.4687 57.1896 45.4917 57.2467 45.5148L57.7284 45.6974L57.5513 46.2029C56.602 48.8609 55.1133 51.1693 53.0756 53.1219L52.7422 53.4793L52.3201 53.0783C52.001 52.7399 51.6905 52.3843 51.3272 52.0987C50.6865 51.595 50.1826 51.5656 49.5345 52.0555C48.7729 52.6311 48.0215 53.235 47.3496 53.9101C46.6072 54.6562 46.659 55.3704 47.387 56.1333C48.0174 56.794 48.7988 57.1747 49.6925 57.3364C50.8454 57.545 52.1541 57.1527 53.1623 56.5657C54.0356 56.0572 54.8286 55.4861 55.5467 54.8572L56.5527 53.888C58.3485 51.9848 59.5857 49.6544 60.3816 47.0037C60.8243 45.529 61.1009 43.7368 60.4918 42.2816Z" fill="white"/>
<path d="M57.7301 45.6982C58.3019 44.0443 58.8109 42.3062 59.2436 40.5724C59.2085 40.5428 59.1723 40.5141 59.1362 40.4861C58.5502 40.0331 57.7628 39.5425 56.9905 39.6912C56.3944 39.8056 56.0198 40.2757 55.8476 40.831C55.5875 41.6711 55.3183 42.5102 55.1129 43.3644C54.9326 44.1151 55.1676 44.5605 55.8651 44.914C56.313 45.1415 56.7821 45.3278 57.2485 45.5156L57.7301 45.6982Z" fill="white"/>
<path d="M52.7421 53.4803C52.1554 54.0795 51.5377 54.665 50.8961 55.2443C50.1866 55.8845 49.5122 56.4625 48.6897 57.04C48.2056 56.8316 47.7687 56.5343 47.3871 56.1341C46.659 55.3714 46.6073 54.6573 47.3494 53.9111C48.0213 53.2357 48.773 52.6321 49.5343 52.0566C50.1826 51.5665 50.6862 51.5962 51.327 52.0998C51.6905 52.3855 52.0008 52.7411 52.3202 53.079L52.7421 53.4803Z" fill="white"/>
<path d="M60.3828 47.0035C59.1597 51.0764 56.8951 54.3929 53.1634 56.5655C52.1553 57.1528 50.8467 57.5449 49.6937 57.3363C48.7998 57.1747 48.0187 56.7941 47.3881 56.1331C47.0863 55.8166 46.9003 55.5085 46.8398 55.2031C46.8562 55.221 46.8733 55.2393 46.8904 55.2572C47.5211 55.9182 48.3022 56.2988 49.196 56.4604C50.349 56.669 51.6577 56.2769 52.6658 55.6896C56.3975 53.517 58.6621 50.2006 59.8852 46.1276C60.3279 44.6529 60.6046 42.8609 59.9955 41.4058C59.9875 41.3871 59.9795 41.3683 59.9712 41.3496C60.1746 41.6279 60.3494 41.9381 60.4931 42.2817C61.1023 43.7368 60.8255 45.5289 60.3828 47.0035Z" fill="white"/>
<path d="M49.196 56.4604C48.3022 56.2988 47.5211 55.9182 46.8904 55.2573C46.8733 55.2393 46.8562 55.221 46.8398 55.2031C46.8403 55.2047 46.8406 55.2063 46.841 55.2079C46.8438 55.2218 46.8466 55.2362 46.8502 55.2501C46.8661 55.3121 46.887 55.3727 46.9108 55.4321C46.9587 55.5512 47.0178 55.6617 47.0899 55.7681C47.1595 55.8709 47.237 55.9683 47.32 56.0607C47.4076 56.1583 47.5009 56.2508 47.5984 56.3385C47.7757 56.498 47.9634 56.6409 48.1664 56.7662C48.3001 56.8488 48.4388 56.9236 48.5817 56.99C48.6099 57.0031 48.6382 57.0162 48.6669 57.0282C48.6748 57.0322 48.6828 57.0353 48.6908 57.0389C48.9488 56.8578 49.192 56.677 49.4261 56.4939C49.3489 56.4855 49.2721 56.4744 49.196 56.4604Z" fill="white"/>
</g>
<path d="M70.3543 23.4648H67.5352C69.3146 23.4648 70.757 24.9073 70.757 26.6867V69.7791C70.757 71.5585 69.3146 73.001 67.5352 73.001H70.3543C72.1337 73.001 73.5761 71.5585 73.5761 69.7791V26.6867C73.5761 24.9073 72.1337 23.4648 70.3543 23.4648Z" fill="#B8D3F5"/>
</g>
<g clip-path="url(#clip4_4495_2148)">
<path d="M25.4506 8.97802V28.4842C25.4506 29.5346 24.6023 30.3829 23.5519 30.3829H5.99634C4.946 30.3829 4.09766 29.5346 4.09766 28.4842V2.80298C4.09766 1.75264 4.946 0.904297 5.99634 0.904297H17.3769L25.4506 8.97802Z" fill="#23A566"/>
<path d="M19.4436 15.5801H10.106C9.77124 15.5801 9.5 15.8513 9.5 16.186V24.3175C9.5 24.6522 9.77124 24.9234 10.106 24.9234H19.4493C19.784 24.9234 20.0553 24.6522 20.0553 24.3175V16.1918C20.0495 15.8571 19.7783 15.5801 19.4436 15.5801ZM10.7119 19.4813H14.1688V21.0222H10.7119V19.4813ZM15.3807 19.4813H18.8376V21.0222H15.3807V19.4813ZM18.8376 18.2694H15.3807V16.7978H18.8376V18.2694ZM14.1688 16.7978V18.2694H10.7119V16.7978H14.1688ZM10.7119 22.2399H14.1688V23.7115H10.7119V22.2399ZM15.3807 23.7115V22.2399H18.8376V23.7115H15.3807Z" fill="white"/>
<path opacity="0.19" d="M18.4609 8.68295L25.4497 14.3444V9.02922L21.485 6.72656L18.4609 8.68295Z" fill="black"/>
<path d="M25.4487 8.97802H19.2737C18.2233 8.97802 17.375 8.12967 17.375 7.07934V0.904297L25.4487 8.97802Z" fill="#8ED1B1"/>
</g>
<defs>
<clipPath id="clip0_4495_2148">
<rect width="18.2502" height="18.2502" fill="white" transform="matrix(0.258819 -0.965926 -0.965926 -0.258819 27.1875 57.9824)"/>
</clipPath>
<clipPath id="clip1_4495_2148">
<rect width="18.2502" height="18.2502" fill="white" transform="translate(53.6367 17.6289) rotate(165)"/>
</clipPath>
<clipPath id="clip2_4495_2148">
<rect width="49.5361" height="49.5361" fill="white" transform="translate(31.2891 23.4648)"/>
</clipPath>
<clipPath id="clip3_4495_2148">
<rect width="19.0002" height="19.0002" fill="white" transform="translate(42.1484 38.3926)"/>
</clipPath>
<clipPath id="clip4_4495_2148">
<rect width="29.5479" height="29.5479" fill="white" transform="translate(0 0.869141)"/>
</clipPath>
</defs>
</svg>
