<svg width="78" height="78" viewBox="0 0 78 78" fill="none" xmlns="http://www.w3.org/2000/svg">
<path fill-rule="evenodd" clip-rule="evenodd" d="M39.3835 75.3636H38.6216C36.1989 75.3636 34.2272 73.392 34.2272 70.9683V69.8349C32.5307 69.3948 30.911 68.7234 29.3978 67.8322C28.2602 68.9697 27.4028 69.9185 25.4869 69.9185C21.9568 69.9185 18.6351 65.0886 21.8407 61.8821L22.6437 61.079C21.7521 59.5644 21.0802 57.9456 20.6406 56.2496H19.5071C13.6283 56.2496 13.6274 46.6985 19.5071 46.6985H20.6406C21.0798 45.002 21.7511 43.3827 22.6433 41.8681C21.5057 40.7306 20.5578 39.8732 20.5578 37.9577C20.5578 34.4285 25.3859 31.1055 28.5934 34.3115L29.3968 35.1145C30.9115 34.2229 32.5303 33.551 34.2272 33.1118V31.9775C34.2272 26.0987 43.7774 26.0987 43.7774 31.9775V33.1118C45.4739 33.551 47.0927 34.2224 48.6069 35.1145C49.7444 33.977 50.6023 33.0282 52.5181 33.0282C56.0332 33.0282 59.3704 37.859 56.1648 41.0637L55.3614 41.8668C56.2526 43.3814 56.9239 45.0002 57.3641 46.6971H58.4975C64.3772 46.6971 64.3772 56.2482 58.4975 56.2482H57.3632C56.923 57.9447 56.2517 59.564 55.3604 61.0777L56.1644 61.8811C60.3238 66.0401 53.5721 72.7942 49.4103 68.6343L48.6073 67.8313C47.0927 68.7225 45.4739 69.3938 43.7774 69.834V70.967C43.7769 73.3915 41.8053 75.3632 39.383 75.3632L39.3835 75.3636ZM29.262 65.7613C29.9704 65.7613 31.5198 67.3866 35.3365 68.2206C36.3118 68.4341 36.0558 69.6868 36.0558 70.9692C36.0558 74.4258 41.9502 74.4258 41.9502 70.9692C41.9502 66.2746 42.0452 69.8952 48.2513 65.9071C49.6105 65.0338 50.2179 68.0904 52.5195 68.0904C54.4473 68.0904 56.8869 65.1891 54.8723 63.1755C51.5502 59.8542 54.1744 62.3446 55.7498 55.1404C55.9633 54.1646 57.2155 54.4205 58.4989 54.4205C61.955 54.4201 61.955 48.5271 58.4989 48.5271C53.8084 48.5271 57.4249 48.4421 53.4359 42.226C52.8966 41.385 53.9665 40.6771 54.8719 39.7722C57.3115 37.3325 53.1575 33.1493 50.7046 35.6049C47.3866 38.9271 49.8733 36.3037 42.6695 34.7279C41.6933 34.5145 41.9497 33.2608 41.9497 31.9788C41.9497 28.5228 36.0563 28.5223 36.0563 31.9788C36.0563 33.2604 36.3127 34.5154 35.3369 34.7279C30.4997 35.7809 29.64 37.9431 28.6162 36.9189C26.6994 35.0012 25.5701 33.711 23.1346 36.1442C22.1369 37.141 22.1364 38.7754 23.1346 39.7731C26.4549 43.0907 23.8325 40.6031 22.2566 47.8082C22.0432 48.7839 20.79 48.528 19.5085 48.528C16.0519 48.528 16.0519 54.421 19.5085 54.421C24.1999 54.4214 20.5843 54.5129 24.5706 60.7216C25.444 62.0827 22.3869 62.6869 22.3869 64.9899C22.3869 66.9231 25.2836 69.3609 27.3023 67.3422C27.9458 66.6987 28.6606 65.7613 29.2625 65.7613H29.262Z" fill="#00A8ED"/>
<path fill-rule="evenodd" clip-rule="evenodd" d="M39.0033 65.0182C31.5358 65.0182 25.4609 58.9424 25.4609 51.4749C25.4609 44.0065 31.5358 37.9316 39.0037 37.9316C46.4717 37.9316 52.547 44.0065 52.547 51.4749C52.547 58.9424 46.4712 65.0182 39.0037 65.0182H39.0033ZM39.0033 39.7598C32.5436 39.7598 27.2891 45.0157 27.2891 51.4749C27.2891 57.9341 32.544 63.1896 39.0033 63.1896C45.463 63.1896 50.718 57.9346 50.718 51.4754C50.718 45.0161 45.463 39.7598 39.0033 39.7598Z" fill="#00A8ED"/>
<path fill-rule="evenodd" clip-rule="evenodd" d="M39.0012 37.9309C46.4691 37.9309 52.5445 44.0058 52.5445 51.4742C52.5445 58.9416 46.4687 65.0174 39.0012 65.0174C31.5337 65.0174 25.4589 58.9416 25.4589 51.4742C25.4589 44.0058 31.5337 37.9309 39.0017 37.9309H39.0012ZM35.3349 34.728C30.4977 35.781 29.638 37.9432 28.6142 36.919C26.6974 35.0013 25.5681 33.7111 23.1326 36.1444C22.1349 37.1411 22.1344 38.7755 23.1326 39.7732C26.4529 43.0908 23.8305 40.6032 22.2546 47.8083C22.0412 48.7841 20.788 48.5281 19.5065 48.5281C16.0499 48.5281 16.0499 54.4211 19.5065 54.4211C24.1979 54.4216 20.5823 54.513 24.5686 60.7218C25.442 62.0828 22.3849 62.687 22.3849 64.99C22.3849 66.9232 25.2815 69.3611 27.3003 67.3423C27.9438 66.6988 28.6586 65.7615 29.2605 65.7615C29.9689 65.7615 31.5182 67.3867 35.3349 68.2208C36.3102 68.4342 36.0543 69.6869 36.0543 70.9694C36.0543 74.4259 41.9486 74.4259 41.9486 70.9694C41.9486 66.2747 42.0437 69.8953 48.2497 65.9073C49.6089 65.0339 50.2163 68.0905 52.518 68.0905C54.4457 68.0905 56.8854 65.1893 54.8708 63.1756C51.5486 59.8543 54.1729 62.3447 55.7483 55.1405C55.9617 54.1647 57.214 54.4206 58.4973 54.4206C61.9534 54.4202 61.9534 48.5272 58.4973 48.5272C53.8068 48.5272 57.4233 48.4422 53.4343 42.2261C52.895 41.3852 53.9649 40.6772 54.8703 39.7723C57.31 37.3326 53.156 33.1494 50.7031 35.6051C47.385 38.9272 49.8717 36.3039 42.668 34.728C41.6918 34.5146 41.9482 33.2609 41.9482 31.979C41.9482 28.5229 36.0547 28.5224 36.0547 31.979C36.0547 33.2605 36.3111 34.5155 35.3354 34.728H35.3349Z" fill="#00A8ED"/>
<path fill-rule="evenodd" clip-rule="evenodd" d="M63.8103 33.4298C61.8803 33.4298 60.8855 32.4744 60.8855 30.5301C60.1373 30.3184 59.4187 30.0207 58.7389 29.6397C55.8317 32.5468 52.3558 28.3017 54.6199 26.038L54.8785 25.7793C54.4982 25.0995 54.199 24.3806 53.9873 23.6324C49.8897 23.6324 50.4288 18.1735 53.6228 18.1724H53.9869C54.1987 17.4238 54.4967 16.7057 54.8774 16.0254C51.971 13.119 56.218 9.64234 58.4795 11.9061L58.7381 12.1655C59.418 11.7848 60.1369 11.4867 60.8847 11.275C60.8847 7.17477 66.3447 7.71799 66.3447 10.9093V11.275C67.0929 11.4867 67.8114 11.7844 68.4905 12.1647C70.9205 9.73995 73.3513 12.2574 73.3513 13.9738C73.3513 14.9259 72.9436 15.433 72.352 16.0247C72.7323 16.7045 73.0307 17.4231 73.2425 18.1716C75.1875 18.1728 76.1417 19.1672 76.1417 21.0972C76.1417 22.6995 74.9419 23.632 73.2421 23.632C73.0303 24.3806 72.7323 25.0987 72.3524 25.7786C74.7764 28.2082 72.26 30.6386 70.5433 30.6386C69.5908 30.6386 69.0833 30.2317 68.4916 29.6397C67.811 30.0203 67.0929 30.3184 66.345 30.5301C66.345 32.2296 65.4129 33.4294 63.8107 33.4294L63.8103 33.4298ZM58.6221 27.9436C59.1548 27.9436 59.7619 28.7657 61.7962 29.2102C63.2483 29.5274 61.2312 31.9278 63.8107 31.9278C65.0108 31.9278 64.8434 30.6244 64.8434 29.9445C64.8434 28.9065 66.056 29.4426 68.203 28.0629C69.4411 27.2671 69.7421 30.3713 71.5497 28.5615C72.8246 27.2855 70.074 26.5812 70.7756 25.4903C72.7563 22.4104 70.9581 22.1311 73.6081 22.1318C75.0046 22.1318 75.005 19.6744 73.6081 19.6744C70.963 19.6744 72.7552 19.4004 70.776 16.3152C69.9715 15.0614 73.1009 14.7971 71.2738 12.9688C70.4284 12.1227 69.5867 13.1948 69.1388 13.6423C68.4042 14.377 67.924 13.1374 65.4343 12.5949C63.9822 12.2785 66 9.87659 63.4195 9.87734C62.2197 9.87772 62.3871 11.1811 62.3871 11.8614C62.3871 12.9016 61.1693 12.3626 59.0276 13.7426C57.7895 14.5403 57.4903 11.4345 55.6804 13.244C54.4055 14.5189 57.1558 15.2232 56.4541 16.3145C54.4735 19.3966 56.2691 19.6737 53.6224 19.6733C52.2248 19.6733 52.2255 22.13 53.6224 22.13C56.2664 22.13 54.4746 22.404 56.4545 25.4891C57.2586 26.7426 54.13 27.0084 55.9563 28.8374C56.8014 29.6836 57.6464 28.6069 58.0902 28.1632C58.2358 28.0175 58.428 27.9424 58.6214 27.9424L58.6221 27.9436Z" fill="#A5C5EE"/>
<path fill-rule="evenodd" clip-rule="evenodd" d="M63.6146 28.1273C59.6308 28.1273 56.3906 24.8864 56.3906 20.9033C56.3906 16.9198 59.6315 13.6797 63.6146 13.6797C67.5977 13.6797 70.839 16.9198 70.839 20.9033C70.839 24.8864 67.5985 28.1273 63.6146 28.1273ZM63.6146 15.1813C60.4593 15.1813 57.8919 17.7484 57.8919 20.9041C57.8919 24.0594 60.4593 26.6268 63.6146 26.6268C66.77 26.6268 69.3374 24.0594 69.3374 20.9041C69.3374 17.7484 66.77 15.1813 63.6146 15.1813Z" fill="#A5C5EE"/>
<path fill-rule="evenodd" clip-rule="evenodd" d="M61.796 29.2098C63.2481 29.527 61.231 31.9274 63.8104 31.9274C65.0106 31.9274 64.8432 30.624 64.8432 29.9441C64.8432 28.9061 66.0557 29.4422 68.2027 28.0626C69.4408 27.2667 69.7419 30.3709 71.5495 28.5611C72.8244 27.2851 70.0738 26.5808 70.7754 25.4899C72.7561 22.41 70.9578 22.1307 73.6079 22.1315C75.0044 22.1315 75.0048 19.674 73.6079 19.674C70.9627 19.674 72.7549 19.4 70.7758 16.3149C69.9713 15.061 73.1007 14.7967 71.2736 12.9685C70.4281 12.1223 69.5865 13.1944 69.1386 13.6419C68.4039 14.3766 67.9238 13.137 65.4341 12.5945C63.982 12.2781 65.9998 9.8762 63.4192 9.87695C62.2194 9.87733 62.3869 11.1808 62.3869 11.861C62.3869 12.9013 61.169 12.3622 59.0273 13.7422C57.7892 14.5399 57.49 11.4342 55.6802 13.2436C54.4053 14.5185 57.1555 15.2228 56.4539 16.3141C54.4732 19.3962 56.2688 19.6733 53.6222 19.6729C52.2245 19.6729 52.2253 22.1296 53.6222 22.1296C56.2662 22.1296 54.4744 22.4036 56.4543 25.4887C57.2584 26.7422 54.1297 27.008 55.9561 28.837C56.8011 29.6832 57.6462 28.6065 58.0899 28.1628C58.2356 28.0171 58.4278 27.942 58.6211 27.942C59.1538 27.942 59.7609 28.7642 61.7952 29.2087L61.796 29.2098ZM63.6152 28.126C59.6314 28.126 56.3912 24.8851 56.3912 20.902C56.3912 16.9185 59.6321 13.6784 63.6152 13.6784C67.5983 13.6784 70.8396 16.9185 70.8396 20.902C70.8396 24.8851 67.5991 28.126 63.6152 28.126Z" fill="#A5C5EE"/>
<path fill-rule="evenodd" clip-rule="evenodd" d="M15.5108 33.3093C13.1612 33.3093 11.9491 32.1457 11.9491 29.7783C11.0382 29.521 10.1635 29.1581 9.33579 28.6951C5.77368 32.2573 1.60097 27.0329 4.32031 24.3108L4.63521 23.9955C4.17178 23.1678 3.80935 22.2926 3.55113 21.3817C-1.43922 21.3817 -0.778805 14.7346 3.10689 14.7346H3.55158C3.80935 13.8233 4.17178 12.949 4.63475 12.1208C1.71248 9.19857 4.70788 6.20455 6.83719 6.20455C7.9976 6.20455 8.61322 6.70043 9.33488 7.42071C10.1626 6.95728 11.0378 6.59485 11.9486 6.33754C11.9486 1.34491 18.5957 2.0067 18.5957 5.89285V6.338C19.5071 6.59577 20.3814 6.95819 21.2091 7.42208C24.7725 3.8586 28.943 9.08705 26.2245 11.8064L25.9092 12.1222C26.3722 12.9499 26.7355 13.8242 26.9933 14.736C31.9822 14.7332 31.3264 21.3826 27.4375 21.3826H26.9928C26.735 22.2935 26.3726 23.1682 25.9096 23.9959C28.8337 26.92 25.8351 29.9122 23.7072 29.9122C22.5468 29.9122 21.9307 29.4163 21.2095 28.6961C20.3818 29.1595 19.5071 29.5228 18.5957 29.7801C18.5957 31.8491 17.4614 33.3107 15.5108 33.3107V33.3093ZM9.19457 26.6298C9.84401 26.6298 10.5913 27.6348 13.0583 28.1723C14.8257 28.5571 12.3696 31.4826 15.5112 31.4817C16.9728 31.4812 16.7685 29.8949 16.7685 29.0658C16.7685 27.8021 18.2402 28.4561 20.8581 26.7751C22.3653 25.8071 22.7301 29.5836 24.9325 27.3812C25.9659 26.3478 24.6985 25.3679 24.113 24.782C23.2177 23.8862 24.7273 23.3049 25.3877 20.2716C25.7725 18.5042 28.6966 20.9603 28.6966 17.8187C28.6966 16.358 27.1103 16.5609 26.2817 16.5609C25.018 16.5605 25.6711 15.0884 23.9906 12.4714C23.0134 10.9495 26.8178 10.6154 24.598 8.39693C23.5669 7.36632 22.5454 8.67024 21.9988 9.21685C21.103 10.1126 20.523 8.60214 17.4888 7.94173C15.7219 7.55691 18.1771 4.63235 15.0364 4.63281C13.5748 4.63327 13.7791 6.21963 13.7791 7.04869C13.7791 8.31421 12.3015 7.65928 9.68954 9.33934C8.18224 10.3092 7.8189 6.52995 5.61417 8.73331C4.58036 9.76666 5.84955 10.747 6.43409 11.332C7.32896 12.2269 5.81984 12.8096 5.15988 15.842C4.77506 17.6093 1.85142 15.1523 1.85142 18.2944C1.85142 19.7551 3.43778 19.5522 4.26638 19.5522C5.53099 19.5522 4.87789 21.0289 6.55749 23.6426C7.53463 25.1636 3.73028 25.4982 5.95146 27.7176C6.97933 28.7445 8.0008 27.4493 8.5497 26.8976C8.72565 26.7203 8.9592 26.6298 9.19548 26.6298H9.19457Z" fill="#A5C5EE"/>
<path fill-rule="evenodd" clip-rule="evenodd" d="M15.2717 26.853C10.4221 26.853 6.47656 22.9075 6.47656 18.0579C6.47656 13.2088 10.4221 9.26367 15.2717 9.26367C20.1208 9.26367 24.0659 13.2083 24.0659 18.0579C24.0659 22.9075 20.1213 26.853 15.2717 26.853ZM15.2717 11.0918C11.4299 11.0918 8.30469 14.2175 8.30469 18.0588C8.30469 21.9006 11.4299 25.0258 15.2717 25.0258C19.1131 25.0258 22.2387 21.9006 22.2387 18.0588C22.2378 14.2175 19.1131 11.0918 15.2717 11.0918Z" fill="#A5C5EE"/>
<path fill-rule="evenodd" clip-rule="evenodd" d="M25.3878 20.2716C25.7727 18.5042 28.6968 20.9603 28.6968 17.8187C28.6968 16.358 27.1104 16.5609 26.2818 16.5609C25.0181 16.5605 25.6712 15.0884 23.9907 12.4714C23.0136 10.9495 26.8179 10.6154 24.5981 8.39694C23.567 7.36633 22.5456 8.67024 21.999 9.21685C21.1032 10.1126 20.5232 8.60214 17.4889 7.94173C15.7221 7.55691 18.1772 4.63236 15.0365 4.63281C13.5749 4.63327 13.7792 6.21963 13.7792 7.04869C13.7792 8.31421 12.3016 7.65929 9.68968 9.33934C8.18238 10.3092 7.81904 6.52996 5.61432 8.73331C4.58051 9.76666 5.84969 10.747 6.43423 11.332C7.3291 12.2269 5.81998 12.8096 5.16002 15.842C4.7752 17.6094 1.85156 15.1523 1.85156 18.2944C1.85156 19.7551 3.43792 19.5522 4.26653 19.5522C5.53114 19.5522 4.87804 21.0289 6.55763 23.6426C7.53477 25.1637 3.73043 25.4982 5.95161 27.7176C6.97947 28.7445 8.00094 27.4493 8.54984 26.8976C8.7258 26.7203 8.95934 26.6298 9.19563 26.6298C9.84507 26.6298 10.5923 27.6348 13.0594 28.1723C14.8267 28.5571 12.3706 31.4826 15.5123 31.4817C16.9739 31.4812 16.7696 29.8949 16.7696 29.0658C16.7696 27.8021 18.2412 28.4561 20.8591 26.7751C22.3664 25.8072 22.7311 29.5836 24.9336 27.3812C25.9669 26.3478 24.6996 25.3679 24.1141 24.782C23.2188 23.8862 24.7284 23.3049 25.3888 20.2716H25.3878ZM15.2742 9.26256C20.1233 9.26256 24.0684 13.2072 24.0684 18.0568C24.0684 22.9064 20.1237 26.8519 15.2742 26.8519C10.4246 26.8519 6.47902 22.9064 6.47902 18.0568C6.47902 13.2077 10.4246 9.26256 15.2742 9.26256Z" fill="#A5C5EE"/>
</svg>
