<svg width="70" height="72" viewBox="0 0 70 72" fill="none" xmlns="http://www.w3.org/2000/svg">
<path d="M57.7111 7.70043C60.1516 10.1387 61.5228 13.4471 61.5228 16.8969V51.3603C61.5228 58.54 55.7025 64.3603 48.5228 64.3603H25.4766C18.2969 64.3603 12.4766 58.54 12.4766 51.3603V13C12.4766 5.82029 18.2969 0 25.4766 0H44.6224C48.0682 0 51.373 1.36804 53.8107 3.8035L57.7111 7.70043Z" fill="#F1F3F7"/>
<path d="M60.35 10.337C61.1009 11.0872 61.5228 12.1052 61.5228 13.1667V60.3603C61.5228 62.5695 59.7319 64.3603 57.5228 64.3603H16.4766C14.2674 64.3603 12.4766 62.5695 12.4766 60.3603V4C12.4766 1.79086 14.2674 0 16.4766 0H48.3479C49.4082 0 50.4251 0.420936 51.1751 1.17031L60.35 10.337Z" fill="white"/>
<path d="M22.1952 21.9568C21.8435 21.9568 21.5586 21.6717 21.5586 21.3201V16.5909C21.5586 16.3123 21.7398 16.066 22.0058 15.9831C22.2721 15.9003 22.5608 15.9999 22.7192 16.2292L24.861 19.3308L24.8345 16.5882C24.8311 16.2366 25.1133 15.9488 25.465 15.9454C25.4671 15.9453 25.4691 15.9453 25.4713 15.9453C25.82 15.9453 26.1043 16.2263 26.1077 16.5758L26.152 21.1542C26.152 21.4994 25.9582 21.7791 25.6584 21.8727C25.3637 21.9647 25.0543 21.8508 24.8691 21.5832L22.8318 18.6331V21.3201C22.8318 21.6717 22.5469 21.9568 22.1952 21.9568Z" fill="#08295B"/>
<path d="M39.1561 21.9567C38.8045 21.9567 38.5195 21.6717 38.5195 21.3201V16.5819C38.5195 16.2303 38.8045 15.9453 39.1561 15.9453C39.5077 15.9453 39.7927 16.2303 39.7927 16.5819V21.3201C39.7928 21.6717 39.5078 21.9567 39.1561 21.9567Z" fill="#08295B"/>
<path d="M19.6366 21.9567C19.2849 21.9567 19 21.6717 19 21.3201V16.5819C19 16.2303 19.285 15.9453 19.6366 15.9453C19.9882 15.9453 20.2732 16.2303 20.2732 16.5819V21.3201C20.2732 21.6717 19.9882 21.9567 19.6366 21.9567Z" fill="#08295B"/>
<path d="M49.3648 20.6831H48.0232V19.6089H49.219C49.5707 19.6089 49.8556 19.3239 49.8556 18.9723C49.8556 18.6206 49.5706 18.3356 49.219 18.3356H48.0232V17.2616H49.3648C49.7165 17.2616 50.0014 16.9766 50.0014 16.625C50.0014 16.2734 49.7164 15.9883 49.3648 15.9883H47.3866C47.0349 15.9883 46.75 16.2733 46.75 16.625V21.3198C46.75 21.6714 47.035 21.9564 47.3866 21.9564H49.3648C49.7165 21.9564 50.0014 21.6714 50.0014 21.3198C50.0014 20.9682 49.7165 20.6831 49.3648 20.6831Z" fill="#08295B"/>
<path d="M43.5682 21.9567C41.9109 21.9567 40.5625 20.6083 40.5625 18.951C40.5625 17.2937 41.9109 15.9453 43.5682 15.9453C44.1704 15.9453 44.7516 16.123 45.2491 16.459C45.5405 16.6557 45.6171 17.0515 45.4203 17.3429C45.2235 17.6341 44.8278 17.7109 44.5364 17.514C44.2501 17.3207 43.9154 17.2184 43.5681 17.2184C42.6128 17.2184 41.8357 17.9956 41.8357 18.9509C41.8357 19.9061 42.6129 20.6833 43.5681 20.6833C43.9197 20.6833 44.2146 20.5792 44.4449 20.3741C44.4898 20.3342 44.5328 20.2897 44.5728 20.242C44.7988 19.9725 45.2004 19.9373 45.4697 20.1634C45.7391 20.3893 45.7743 20.7909 45.5483 21.0603C45.4688 21.155 45.3825 21.2441 45.2917 21.3249C44.8278 21.7383 44.2319 21.9567 43.5682 21.9567Z" fill="#08295B"/>
<path d="M29.1778 21.957C28.8636 21.957 28.5824 21.7586 28.4771 21.4621L26.8557 16.7909C26.7404 16.4588 26.9162 16.096 27.2483 15.9807C27.5805 15.8654 27.9433 16.0412 28.0585 16.3734L29.167 19.5664L30.2221 16.3902C30.3329 16.0564 30.6934 15.8758 31.0269 15.9867C31.3606 16.0976 31.5413 16.458 31.4303 16.7916L29.8833 21.4485C29.78 21.7523 29.499 21.9548 29.1828 21.957C29.181 21.957 29.1795 21.957 29.1778 21.957Z" fill="#08295B"/>
<path d="M34.5408 21.9567C32.8834 21.9567 31.5352 20.6083 31.5352 18.951C31.5352 17.2937 32.8834 15.9453 34.5408 15.9453C36.1982 15.9453 37.5465 17.2937 37.5465 18.951C37.5465 20.6083 36.1982 21.9567 34.5408 21.9567ZM34.5408 17.2185C33.5856 17.2185 32.8085 17.9957 32.8085 18.951C32.8085 19.9062 33.5856 20.6834 34.5408 20.6834C35.4961 20.6834 36.2732 19.9062 36.2732 18.951C36.2732 17.9957 35.4961 17.2185 34.5408 17.2185Z" fill="#08295B"/>
<path d="M61.523 11.5087H50.0039V0L61.523 11.5087Z" fill="#37B2E6"/>
<path d="M18.3047 29.4004H33.8972V30.7616H18.3047V29.4004Z" fill="#B9C4D6"/>
<path d="M18.3047 35.082H55.6875V36.4433H18.3047V35.082Z" fill="#B9C4D6"/>
<path d="M18.3047 40.7539H55.6875V42.1152H18.3047V40.7539Z" fill="#B9C4D6"/>
<path d="M18.3047 46.4375H55.6875V47.7987H18.3047V46.4375Z" fill="#B9C4D6"/>
<path d="M18.3047 52.1191H55.6875V53.4804H18.3047V52.1191Z" fill="#B9C4D6"/>
<rect y="46" width="26" height="26" rx="5" fill="#00A8ED"/>
<path d="M17.3333 60.3327C18.0697 60.3327 18.6667 59.7357 18.6667 58.9993C18.6667 58.263 18.0697 57.666 17.3333 57.666C16.597 57.666 16 58.263 16 58.9993C16 59.7357 16.597 60.3327 17.3333 60.3327Z" stroke="white" stroke-width="1.2" stroke-linecap="round" stroke-linejoin="round"/>
<path d="M17.3333 55.0007C18.0697 55.0007 18.6667 54.4037 18.6667 53.6673C18.6667 52.9309 18.0697 52.334 17.3333 52.334C16.597 52.334 16 52.9309 16 53.6673C16 54.4037 16.597 55.0007 17.3333 55.0007Z" stroke="white" stroke-width="1.2" stroke-linecap="round" stroke-linejoin="round"/>
<path d="M17.3333 65.6667C18.0697 65.6667 18.6667 65.0697 18.6667 64.3333C18.6667 63.597 18.0697 63 17.3333 63C16.597 63 16 63.597 16 64.3333C16 65.0697 16.597 65.6667 17.3333 65.6667Z" stroke="white" stroke-width="1.2" stroke-linecap="round" stroke-linejoin="round"/>
<path d="M6.66536 60.3327C7.40174 60.3327 7.9987 59.7357 7.9987 58.9993C7.9987 58.263 7.40174 57.666 6.66536 57.666C5.92898 57.666 5.33203 58.263 5.33203 58.9993C5.33203 59.7357 5.92898 60.3327 6.66536 60.3327Z" stroke="white" stroke-width="1.2" stroke-linecap="round" stroke-linejoin="round"/>
<path d="M8 59H16" stroke="white" stroke-width="1.2" stroke-linecap="round" stroke-linejoin="round"/>
<path d="M15.9987 53.666H13.332C11.9987 53.666 11.332 54.3327 11.332 55.666V62.3327C11.332 63.666 11.9987 64.3327 13.332 64.3327H15.9987" stroke="white" stroke-width="1.2" stroke-linecap="round" stroke-linejoin="round"/>
</svg>
