<svg width="93" height="69" viewBox="0 0 93 69" fill="none" xmlns="http://www.w3.org/2000/svg">
<rect x="1.5" y="7.5" width="84" height="60" rx="7.5" fill="white" fill-opacity="0.21" stroke="white" stroke-width="3"/>
<rect x="47" y="32" width="25" height="1" fill="#B9C4D6"/>
<rect x="47" y="26" width="14" height="1" fill="#08295B"/>
<rect x="47" y="23" width="17" height="1" fill="#08295B"/>
<rect x="47" y="36" width="25" height="1" fill="#B9C4D6"/>
<rect x="47" y="40" width="13" height="1" fill="#B9C4D6"/>
<rect x="65" y="40" width="7" height="1" fill="#B9C4D6"/>
<circle cx="48.5" cy="48.5" r="1.5" fill="#B9C4D6"/>
<circle cx="52.5" cy="48.5" r="1.5" fill="#B9C4D6"/>
<circle cx="56.5" cy="48.5" r="1.5" fill="#B9C4D6"/>
<rect x="69" width="24" height="24" rx="5" fill="#006DED"/>
<g clip-path="url(#clip0_4533_2185)">
<path fill-rule="evenodd" clip-rule="evenodd" d="M81.0142 4.66602C76.9656 4.66602 73.6641 7.96235 73.6641 12.0109C73.6641 16.0595 76.9656 19.3597 81.0142 19.3597C85.0627 19.3597 88.3577 16.0595 88.3577 12.0109C88.3577 7.96235 85.0627 4.66602 81.0142 4.66602ZM81.0142 6.00145C84.341 6.00145 87.0223 8.68407 87.0223 12.0109C87.0223 15.3377 84.341 18.0243 81.0142 18.0243C77.6873 18.0243 74.9995 15.3377 74.9995 12.0109C74.9995 8.68407 77.6873 6.00145 81.0142 6.00145ZM81.0037 8.66319C80.9155 8.66404 80.8283 8.68237 80.7472 8.71713C80.6661 8.75189 80.5926 8.80237 80.5312 8.86568C80.4697 8.92898 80.4214 9.00384 80.389 9.08593C80.3566 9.16802 80.3408 9.25571 80.3425 9.34394V11.3445H78.342C78.319 11.3433 78.2959 11.3433 78.2729 11.3445C78.0956 11.3537 77.9292 11.4329 77.8104 11.5647C77.6915 11.6965 77.6299 11.8702 77.6391 12.0474C77.6482 12.2247 77.7274 12.391 77.8593 12.5099C77.9911 12.6288 78.1647 12.6904 78.342 12.6812H80.3425V14.6818C80.3425 14.859 80.4129 15.029 80.5383 15.1544C80.6636 15.2797 80.8336 15.3501 81.0109 15.3501C81.1882 15.3501 81.3582 15.2797 81.4835 15.1544C81.6089 15.029 81.6793 14.859 81.6793 14.6818V12.6812H83.6798C83.8571 12.6812 84.0271 12.6108 84.1524 12.4855C84.2778 12.3601 84.3482 12.1901 84.3482 12.0129C84.3482 11.8356 84.2778 11.6656 84.1524 11.5402C84.0271 11.4149 83.8571 11.3445 83.6798 11.3445H81.6793V9.34394C81.681 9.25451 81.6648 9.16563 81.6315 9.08259C81.5982 8.99955 81.5486 8.92404 81.4856 8.86055C81.4226 8.79705 81.3475 8.74686 81.2647 8.71296C81.1819 8.67906 81.0932 8.66213 81.0037 8.66319Z" fill="white"/>
</g>
<path d="M31.3454 41.7931V38.4141H22.6562V41.7931L27.0008 45.655L31.3454 41.7931Z" fill="#E6AF78"/>
<path d="M38.0627 43.3734L32.0892 41.9679C31.999 41.9467 31.916 41.9107 31.8384 41.867L27.0003 44.6892L22.3508 41.7305C22.2304 41.8438 22.081 41.928 21.9113 41.968L15.9379 43.3735C15.0657 43.5787 14.4492 44.357 14.4492 45.2531V49.0338C14.4492 49.5671 14.8815 49.9993 15.4147 49.9993H38.5857C39.119 49.9993 39.5512 49.567 39.5512 49.0338V45.2531C39.5513 44.357 38.9349 43.5786 38.0627 43.3734Z" fill="#EFF2FA"/>
<path d="M22.6562 38.4141V41.9793C28.1292 43.9512 31.3454 39.0161 31.3454 39.0161V38.4141H22.6562V38.4141Z" fill="#D29B6E"/>
<path d="M20.7227 27.3125L21.1433 36.5671C21.1826 37.4317 21.6065 38.2334 22.2989 38.7527L24.2948 40.2497C24.7962 40.6257 25.406 40.829 26.0327 40.829H27.9636C28.5903 40.829 29.2001 40.6257 29.7015 40.2497L31.6974 38.7527C32.3898 38.2334 32.8137 37.4317 32.853 36.5671L33.2736 27.3125H20.7227Z" fill="#F0C087"/>
<path d="M25.55 29.2434C27.481 29.2434 30.3773 28.7607 31.0643 27.3125H20.7227L21.1433 36.5671C21.1826 37.4317 21.6065 38.2334 22.2989 38.7527L24.2949 40.2497C24.7963 40.6257 25.406 40.829 26.0327 40.829H26.9982C26.0327 40.829 24.1018 38.898 24.1018 36.4844C24.1018 35.3039 24.1018 32.1398 24.1018 30.6916C24.1018 30.2089 24.5845 29.2434 25.55 29.2434Z" fill="#E6AF78"/>
<path d="M17.9931 46.8666L14.865 44.0566C14.6029 44.3885 14.4492 44.8062 14.4492 45.2533V49.034C14.4492 49.5673 14.8815 49.9995 15.4147 49.9995H18.7938V48.6622C18.7937 47.9771 18.5026 47.3243 17.9931 46.8666Z" fill="#E4EAF6"/>
<path d="M36.0078 46.8666L39.1358 44.0566C39.3979 44.3885 39.5516 44.8062 39.5516 45.2533V49.034C39.5516 49.5673 39.1194 49.9995 38.5862 49.9995H35.207V48.6622C35.207 47.9771 35.4981 47.3243 36.0078 46.8666Z" fill="#E4EAF6"/>
<path d="M28.2066 49.9989H25.793L26.0947 45.6543H27.9049L28.2066 49.9989Z" fill="#5B5D6E"/>
<path d="M28.2066 44.6895H25.793V45.598C25.793 45.8961 26.0346 46.1377 26.3327 46.1377H27.6669C27.965 46.1377 28.2066 45.8961 28.2066 45.598V44.6895H28.2066Z" fill="#515262"/>
<path d="M22.5874 40.7196L26.9998 44.6908C26.9998 44.6908 25.7641 45.3146 24.2392 46.5719C23.9246 46.8312 23.4488 46.7262 23.2801 46.355L21.207 41.7944L21.8628 40.8108C22.026 40.5658 22.3686 40.5228 22.5874 40.7196Z" fill="#E4EAF6"/>
<path d="M31.4124 40.7196L27 44.6908C27 44.6908 28.2357 45.3146 29.7606 46.5719C30.0752 46.8312 30.551 46.7262 30.7197 46.355L32.7927 41.7944L32.1369 40.8108C31.9737 40.5658 31.6311 40.5228 31.4124 40.7196Z" fill="#E4EAF6"/>
<path d="M29.9258 24.1143L30.3783 27.3125C32.4441 27.7256 32.7418 30.9676 32.7847 31.8935C32.7925 32.0616 32.8461 32.2239 32.9373 32.3652L33.7255 33.5879C33.7255 33.5879 33.4557 31.5665 34.6909 30.2088C34.6909 30.2088 35.1152 22.1834 29.9258 24.1143Z" fill="#785550"/>
<path d="M34.2088 33.3811L33.6639 35.5609C33.5993 35.8193 33.3672 36.0005 33.1008 36.0005C32.8081 36.0005 32.5612 35.7826 32.5249 35.4921L32.2461 33.2625C32.1716 32.6657 32.6368 32.1387 33.2383 32.1387H33.2387C33.8893 32.1387 34.3666 32.75 34.2088 33.3811Z" fill="#F0C087"/>
<path d="M21.186 23.2485L21.9 23.7363C18.6718 26.1198 19.2751 30.2079 19.2751 30.2079C20.2406 31.1733 20.2406 33.587 20.2406 33.587L21.206 32.6216C21.206 32.6216 20.8335 29.8326 22.6542 28.7597C24.3438 27.7641 25.8221 28.277 27.3307 28.277C31.3735 28.277 32.505 26.7534 32.3088 24.8979C32.2073 23.9378 30.7394 21.9379 26.9988 22.0015C25.4892 22.0271 22.6543 22.4842 21.186 23.2485Z" fill="#694B4B"/>
<path d="M20.9044 27.8546C20.9044 27.8546 20.3915 25.8331 21.9 23.7363C18.6718 26.1198 19.2751 30.208 19.2751 30.208C20.2406 31.1734 20.2406 33.5871 20.2406 33.5871L21.206 32.6216C21.206 32.6216 20.8335 29.8327 22.6542 28.7598C24.3438 27.7641 25.8221 28.2771 27.3307 28.2771C27.9882 28.2771 28.5611 28.233 29.0715 28.1576C25.958 28.2619 24.1227 25.9035 20.9044 27.8546Z" fill="#5A4146"/>
<path d="M19.7882 33.3811L20.3331 35.5609C20.3977 35.8193 20.6298 36.0005 20.8962 36.0005C21.1889 36.0005 21.4358 35.7826 21.4721 35.4921L21.7508 33.2625C21.8254 32.6657 21.3601 32.1387 20.7587 32.1387H20.7583C20.1077 32.1387 19.6304 32.75 19.7882 33.3811Z" fill="#E6AF78"/>
<path d="M33.2759 49.0352H29.8968C29.6302 49.0352 29.4141 49.2513 29.4141 49.5179V50.0006H33.7586V49.5179C33.7586 49.2513 33.5425 49.0352 33.2759 49.0352Z" fill="#E4EAF6"/>
<defs>
<clipPath id="clip0_4533_2185">
<rect width="16" height="16" fill="white" transform="translate(73 4)"/>
</clipPath>
</defs>
</svg>
