<svg width="72" height="72" viewBox="0 0 72 72" fill="none" xmlns="http://www.w3.org/2000/svg">
<path d="M51.4094 10.6309L34.2812 27.759L41.0013 34.4792C40.2512 34.5732 39.5425 34.8759 38.9559 35.3528C38.3693 35.8297 37.9283 36.4616 37.6831 37.1767C37.4379 37.8918 37.3983 38.6614 37.5688 39.3979C37.7394 40.1344 38.1132 40.8083 38.6477 41.3429C39.1823 41.8774 39.8562 42.2512 40.5927 42.4218C41.3292 42.5923 42.0988 42.5527 42.8139 42.3075C43.529 42.0623 44.1609 41.6213 44.6378 41.0347C45.1147 40.4481 45.4174 39.7394 45.5114 38.9893L51.6025 45.0803L58.2477 38.4344C58.3407 39.1761 58.64 39.8767 59.1116 40.4567C59.5831 41.0367 60.208 41.4727 60.9151 41.7151C61.6221 41.9576 62.3831 41.9967 63.1113 41.8281C63.8395 41.6595 64.5058 41.2899 65.0343 40.7613C65.5629 40.2328 65.9325 39.5665 66.1012 38.8383C66.2698 38.1101 66.2307 37.3492 65.9883 36.6421C65.7459 35.935 65.3099 35.3101 64.7299 34.8386C64.1499 34.367 63.4493 34.0677 62.7076 33.9746L68.7306 27.9518L51.4094 10.6309Z" fill="#812D7B"/>
<path d="M62.8688 1.125L59.1113 4.88306L50.1832 7.00312L45.4933 11.6937L43.3477 18.691L51.4076 10.6312L62.4084 21.6322L64.5075 19.521C66.8873 17.1422 66.8746 13.1289 66.8746 13.1289L70.874 9.12895V1.125H62.8688Z" fill="#F9DED4"/>
<path d="M51.5036 10.6309L47.1094 24.2574C47.1094 24.2574 49.7656 25.4915 51.3731 23.8637C52.9806 22.2358 55.5356 16.5512 55.5356 16.5512C55.5356 16.5512 60.2132 16.6596 62.3236 13.4972L51.5036 10.6309Z" fill="#FCD3C4"/>
<path d="M62.3268 13.4961L61.354 13.8204C59.9938 15.2754 57.9545 15.7545 56.6914 15.9116L57.8878 17.108C59.5039 16.7887 61.7151 15.9101 62.3268 13.4961Z" fill="#FFC7B5"/>
<path d="M55.5495 15.9879L55.1773 15.9802L55.024 16.3198C54.999 16.376 52.4927 21.9307 50.974 23.4682C50.532 23.9161 49.9334 24.1432 49.193 24.1432C48.8175 24.1392 48.444 24.0889 48.0809 23.9934L47.9766 24.3168C47.9766 24.3168 50.6328 25.551 52.2403 23.9224C53.8478 22.2938 56.0884 17.2897 56.0884 17.2897C56.692 17.289 57.294 17.2283 57.8856 17.1085L56.6891 15.9121C56.3253 15.9592 55.9591 15.9847 55.5923 15.9885L55.5495 15.9879Z" fill="#75226F"/>
<path d="M51.5036 10.6309L47.1094 24.2574C47.1094 24.2574 49.7656 25.4915 51.3731 23.8637C52.9806 22.2358 55.5356 16.5512 55.5356 16.5512C55.5356 16.5512 60.2132 16.6596 62.3236 13.4972L51.5036 10.6309Z" fill="#F9DED4"/>
<path d="M1.125 62.87L4.88306 59.1125L7.00312 50.1844L11.6937 45.4946L16.0192 44.123L18.7305 44.4324L11.4061 51.8223L21.8914 62.2204L19.5211 64.5093C17.1422 66.8885 13.1289 66.8759 13.1289 66.8759L9.12895 70.8753H1.125V62.87Z" fill="#F9DED4"/>
<path d="M31.801 41.9825C32.4417 41.3465 33.2808 40.9488 34.1788 40.8555L28.042 34.7188L22.0192 40.7416C21.9262 39.9999 21.6269 39.2992 21.1553 38.7192C20.6838 38.1392 20.0589 37.7032 19.3518 37.4608C18.6447 37.2184 17.8838 37.1792 17.1556 37.3479C16.4274 37.5165 15.7611 37.8861 15.2325 38.4147C14.704 38.9432 14.3343 39.6095 14.1657 40.3377C13.9971 41.0659 14.0362 41.8269 14.2787 42.534C14.5211 43.241 14.9571 43.8659 15.5371 44.3375C16.1171 44.809 16.8178 45.1083 17.5594 45.2014L10.9141 51.8467L28.2354 69.1679L34.8808 62.5227C34.1391 62.4297 33.4384 62.1304 32.8584 61.6589C32.2784 61.1873 31.8424 60.5625 31.5999 59.8554C31.3574 59.1483 31.3183 58.3874 31.4869 57.6591C31.6555 56.9309 32.0251 56.2646 32.5537 55.736C33.0822 55.2075 33.7485 54.8378 34.4767 54.6692C35.205 54.5006 35.9659 54.5397 36.673 54.7821C37.3801 55.0245 38.005 55.4606 38.4765 56.0406C38.9481 56.6205 39.2474 57.3212 39.3404 58.0629L45.3634 52.0401L38.576 45.2528C38.5047 45.8858 38.2827 46.4925 37.9288 47.022C37.5748 47.5516 37.099 47.9886 36.5414 48.2965C35.9838 48.6044 35.3605 48.7741 34.7237 48.7916C34.087 48.809 33.4553 48.6736 32.8817 48.3967C32.3081 48.1198 31.8091 47.7095 31.4267 47.2001C31.0442 46.6907 30.7894 46.0971 30.6836 45.469C30.5777 44.8408 30.624 44.1965 30.8184 43.5899C31.0128 42.9833 31.3497 42.432 31.801 41.9825Z" fill="#37B2E6"/>
<path d="M13.8319 61.3413L13.4961 62.3256C14.3487 61.8742 15.1014 61.2555 15.7094 60.5065C16.3173 59.7574 16.7679 58.8935 17.0342 57.9663L15.8905 56.8223C15.7152 58.0897 15.2207 60.0308 13.8319 61.3413Z" fill="#FFC7B5"/>
<path d="M17.3551 56.0423C17.3551 56.0423 22.4317 53.7677 24.0605 52.1602C25.6894 50.5528 24.4543 47.8965 24.4543 47.8965L23.9878 48.0635C24.1914 48.853 24.3298 50.1231 23.4675 50.9735C21.9296 52.4923 16.3748 54.9979 16.319 55.0235L15.9785 55.1765L15.9871 55.5496C15.9846 55.9752 15.9523 56.4001 15.8906 56.8212L17.0338 57.9644C17.2285 57.3415 17.3366 56.6947 17.3551 56.0423Z" fill="#2996C5"/>
<path d="M24.2566 47.1113L10.9141 51.8879L13.495 62.3254C16.6573 60.215 16.5489 55.5374 16.5489 55.5374C16.5489 55.5374 22.2334 52.9827 23.8614 51.3749C25.4894 49.7672 24.2566 47.1113 24.2566 47.1113Z" fill="#F9DED4"/>
</svg>
