<svg width="98" height="90" viewBox="0 0 98 90" fill="none" xmlns="http://www.w3.org/2000/svg">
<path d="M15.2578 83.8808V30.1712C15.2578 27.7662 17.2076 25.8164 19.6126 25.8164H86.3868C88.7918 25.8164 90.7416 27.7662 90.7416 30.1712V83.8808" fill="#6F6571"/>
<path d="M85.8298 78.8885H20.1734C18.3603 78.8885 16.8906 77.3628 16.8906 75.4811V31.1847C16.8906 29.3028 18.3605 27.7773 20.1734 27.7773H85.83C87.6432 27.7773 89.1128 29.303 89.1128 31.1847V75.4811C89.1126 77.363 87.643 78.8885 85.8298 78.8885Z" fill="#DBEAFF"/>
<path d="M9.45312 82.4301V85.6016H95.0983L98.0015 83.8817V82.4301C98.0015 81.6284 97.3517 80.9785 96.5499 80.9785H10.9047C10.103 80.9785 9.45312 81.6286 9.45312 82.4301Z" fill="#D8E8FD"/>
<path d="M10.9032 80.9785H9.4516C8.64986 80.9785 8 81.6284 8 82.4301V83.8817C8 85.485 9.2999 86.7849 10.9032 86.7849H95.0968C96.7001 86.7849 98 85.485 98 83.8817H13.8064C12.2031 83.8817 10.9032 82.582 10.9032 80.9785Z" fill="#B8D2F5"/>
<rect x="16.8906" y="27.7773" width="72.2222" height="51.1111" rx="2" fill="white"/>
<g clip-path="url(#clip0_4533_2186)">
<path d="M44.157 63.7169L44.7114 64.8182L44.157 65.9195H42.2726C41.9259 65.9195 41.6445 65.6376 41.6445 65.2902V64.3462C41.6445 63.9988 41.9259 63.7168 42.2726 63.7168H44.157V63.7169Z" fill="#FCE698"/>
<path d="M46.6687 63.7168L47.1226 64.8181L46.6687 65.9195H44.1562V63.7168H46.6687Z" fill="#FBD166"/>
<path d="M49.1804 64.3461V65.2901C49.1804 65.6375 48.899 65.9195 48.5523 65.9195H46.668V63.7168H48.5523C48.899 63.7168 49.1804 63.9987 49.1804 64.3461Z" fill="#F5B742"/>
<path d="M63.6257 54.9063L64.1802 56.0076L63.6257 57.109L62.6467 57.537L61.7414 57.109C61.3947 57.109 61.1133 56.827 61.1133 56.4796V55.5356C61.1133 55.1882 61.3947 54.9062 61.7414 54.9062L63.6257 54.9063Z" fill="#FCE698"/>
<path d="M66.1375 54.9062L66.5913 56.0076L66.1375 57.1089L64.8807 57.5369L63.625 57.1089V54.9062H66.1375Z" fill="#FBD166"/>
<path d="M68.6492 55.5356V56.4795C68.6492 56.827 68.3678 57.1089 68.0211 57.1089L67.0163 57.6317L66.1367 57.1089V54.9063H68.0211C68.3678 54.9062 68.6492 55.1881 68.6492 55.5356Z" fill="#F5B742"/>
<path d="M68.6524 57.7387V58.6827C68.6524 59.0301 68.371 59.312 68.0243 59.312L66.3478 59.8164L64.8838 59.312L64.3711 58.2107L64.8838 57.1094H68.0243C68.371 57.1093 68.6524 57.3913 68.6524 57.7387Z" fill="#F4A93A"/>
<path d="M64.882 57.1094V59.3121L63.116 59.8165L61.7414 59.3121C61.3947 59.3121 61.1133 59.0301 61.1133 58.6827V57.7387C61.1133 57.3913 61.3947 57.1094 61.7414 57.1094H64.882V57.1094Z" fill="#F5B742"/>
<path d="M63.6257 59.3126L64.1802 60.4139L63.6257 61.5152L62.6467 61.9432L61.7414 61.5152C61.3947 61.5152 61.1133 61.2333 61.1133 60.8859V59.9419C61.1133 59.5945 61.3947 59.3125 61.7414 59.3125H63.6257V59.3126Z" fill="#FCE698"/>
<path d="M66.1375 59.3125L66.5913 60.4138L66.1375 61.5152L64.8807 61.9432L63.625 61.5152V59.3125H66.1375Z" fill="#FBD166"/>
<path d="M68.6492 59.9418V60.8858C68.6492 61.2332 68.3678 61.5152 68.0211 61.5152L67.0163 62.0379L66.1367 61.5152V59.3125H68.0211C68.3678 59.3125 68.6492 59.5945 68.6492 59.9418Z" fill="#F5B742"/>
<path d="M68.6498 62.143V63.087C68.6498 63.4344 68.3684 63.7163 68.0216 63.7163L66.5912 64.1939L64.8811 63.7163L64.0664 62.615L64.8811 61.5137H68.0216C68.3684 61.5136 68.6498 61.7956 68.6498 62.143Z" fill="#F4A93A"/>
<path d="M64.882 61.5137V63.7164L63.3289 64.3124L61.7414 63.7164C61.3947 63.7164 61.1133 63.4344 61.1133 63.087V62.143C61.1133 61.7956 61.3947 61.5137 61.7414 61.5137H64.882V61.5137Z" fill="#F5B742"/>
<path d="M63.6257 63.7169L64.1802 64.8182L63.6257 65.9195H61.7414C61.3947 65.9195 61.1133 65.6376 61.1133 65.2902V64.3462C61.1133 63.9988 61.3947 63.7168 61.7414 63.7168H63.6257V63.7169Z" fill="#FCE698"/>
<path d="M66.1375 63.7168L66.5913 64.8181L66.1375 65.9195H63.625V63.7168H66.1375Z" fill="#FBD166"/>
<path d="M68.6492 64.3461V65.2901C68.6492 65.6375 68.3678 65.9195 68.0211 65.9195H66.1367V63.7168H68.0211C68.3678 63.7168 68.6492 63.9987 68.6492 64.3461Z" fill="#F5B742"/>
<path d="M53.8914 57.1074L54.4458 58.2088L53.8914 59.3101L52.9124 59.7381L52.007 59.3102C51.6603 59.3102 51.3789 59.0282 51.3789 58.6808V57.7368C51.3789 57.3894 51.6603 57.1074 52.007 57.1074H53.8914Z" fill="#FCE698"/>
<path d="M56.4031 57.1074L56.857 58.2088L56.4031 59.3102L55.1462 59.7381L53.8906 59.3102V57.1074H56.4031Z" fill="#FBD166"/>
<path d="M58.9148 57.7367V58.6807C58.9148 59.0281 58.6334 59.3101 58.2867 59.3101L57.2819 59.8329L56.4023 59.3101V57.1074H58.2867C58.6334 57.1074 58.9148 57.3893 58.9148 57.7367Z" fill="#F5B742"/>
<path d="M58.9181 59.9399V60.8838C58.9181 61.2313 58.6367 61.5132 58.29 61.5132L56.6135 62.0176L55.1494 61.5132L54.6367 60.4119L55.1494 59.3105H58.29C58.6367 59.3105 58.9181 59.5925 58.9181 59.9399Z" fill="#F4A93A"/>
<path d="M55.1477 59.3106V61.5133L53.3817 62.0177L52.007 61.5133C51.6603 61.5133 51.3789 61.2313 51.3789 60.8839V59.9399C51.3789 59.5925 51.6603 59.3105 52.007 59.3105H55.1477V59.3106Z" fill="#F5B742"/>
<path d="M53.8914 61.5137L54.4458 62.615L53.8914 63.7163L52.9124 64.1443L52.007 63.7164C51.6603 63.7164 51.3789 63.4344 51.3789 63.087V62.143C51.3789 61.7956 51.6603 61.5137 52.007 61.5137H53.8914Z" fill="#FCE698"/>
<path d="M56.4031 61.5137L56.857 62.615L56.4031 63.7164L55.1462 64.1443L53.8906 63.7164V61.5137H56.4031Z" fill="#FBD166"/>
<path d="M58.9148 62.143V63.087C58.9148 63.4344 58.6334 63.7163 58.2867 63.7163L57.2819 64.2391L56.4023 63.7163V61.5137H58.2867C58.6334 61.5136 58.9148 61.7956 58.9148 62.143Z" fill="#F5B742"/>
<path d="M58.9154 64.3442V65.2881C58.9154 65.6356 58.634 65.9175 58.2873 65.9175H55.1467L54.332 64.8162L55.1467 63.7148H58.2873C58.634 63.7148 58.9154 63.9967 58.9154 64.3442Z" fill="#F4A93A"/>
<path d="M55.1476 63.7149V65.9176H52.007C51.6603 65.9176 51.3789 65.6356 51.3789 65.2882V64.3442C51.3789 63.9968 51.6603 63.7148 52.007 63.7148H55.1476V63.7149Z" fill="#F5B742"/>
<path d="M65.3434 43.1608C65.2871 42.9063 65.0358 42.746 64.7814 42.8023C59.2334 44.0359 55.8614 47.4284 54.7509 52.8852C50.8274 53.5359 47.5546 55.8096 45.0197 59.6487C44.8761 59.8662 44.9356 60.159 45.1526 60.3028C45.2327 60.3558 45.3229 60.3813 45.4121 60.3813C45.5649 60.3813 45.7148 60.3069 45.8054 60.1697C47.0218 58.3274 48.4196 56.8571 49.9598 55.7998C51.5283 54.7229 53.296 54.0395 55.2141 53.7686C55.3946 53.734 55.5648 53.6223 55.6116 53.3867C56.0895 50.7895 57.0985 48.6676 58.6108 47.08C60.1653 45.448 62.3101 44.3188 64.9856 43.724C65.2396 43.6674 65.3998 43.4152 65.3434 43.1608Z" fill="#E2E8F5"/>
<path d="M68.3686 51.1184C68.3686 53.2039 66.9696 54.5746 64.8882 54.5746C63.402 54.5746 62.4894 53.9527 61.4969 52.7913C61.2512 52.2899 61.1133 51.7259 61.1133 51.1295C61.1133 49.0441 62.8006 47.3535 64.882 47.3535C65.4771 47.3535 66.0399 47.4921 66.5404 47.7383C67.6146 48.8265 68.3686 49.6293 68.3686 51.1184Z" fill="#F5B742"/>
<path d="M68.653 51.1296C68.653 53.2152 66.9658 54.9056 64.8843 54.9056C63.3975 54.9056 62.1124 54.0434 61.5 52.791C62 53.0377 62.5634 53.1762 63.1582 53.1762C65.2392 53.1762 66.9269 51.4851 66.9269 49.4001C66.9269 48.8042 66.7889 48.2393 66.5427 47.7383C67.7926 48.3519 68.653 49.64 68.653 51.1296Z" fill="#F4A93A"/>
<path d="M65.4073 50.696C65.2595 50.6323 65.1323 50.5887 65.02 50.5502C64.8381 50.4879 64.7483 50.4554 64.6981 50.3995C64.648 50.3439 64.6308 50.2839 64.6466 50.2212C64.6641 50.152 64.7163 50.0959 64.7864 50.071C65.0023 49.9942 65.253 50.1406 65.2648 50.1475C65.4817 50.287 65.7711 50.2259 65.9129 50.0094C66.0558 49.7915 65.9954 49.4989 65.7778 49.3557C65.7459 49.3347 65.5864 49.2347 65.3539 49.1672V48.9935C65.3539 48.7328 65.143 48.5215 64.8828 48.5215C64.6227 48.5215 64.4118 48.7328 64.4118 48.9935V49.2046C64.0745 49.3454 63.8231 49.6344 63.7333 49.9891C63.6395 50.36 63.736 50.7399 63.998 51.0314C64.2141 51.2718 64.4688 51.3591 64.7151 51.4435C64.816 51.4781 64.9204 51.5138 65.035 51.5632C65.2591 51.6599 65.261 51.8307 65.2422 51.9239C65.2326 51.9711 65.1703 52.2065 64.8798 52.2084C64.6227 52.2121 64.4903 52.1591 64.3036 52.0517C64.078 51.9217 63.79 51.9997 63.6604 52.2256C63.5308 52.4516 63.6085 52.7401 63.834 52.87C63.9456 52.9343 64.0565 52.9904 64.1757 53.0353C64.2504 53.0634 64.447 53.0641 64.5305 53.0827V53.25C64.5305 53.5107 64.6227 53.6054 64.8829 53.6054C65.1431 53.6054 65.2576 53.4249 65.2576 53.1641V52.9568C65.6675 52.8021 65.9825 52.5622 66.0734 52.1127C66.1036 51.963 66.1996 51.8137 66.179 51.6722C66.1174 51.2481 65.8382 50.8817 65.4073 50.696Z" fill="#FCE698"/>
<path d="M66.1656 52.112C66.0752 52.5613 65.7643 52.9119 65.3541 53.0667V53.2738C65.3541 53.5343 65.1431 53.7458 64.883 53.7458C64.623 53.7458 64.412 53.5343 64.412 53.2738V53.1064C64.3284 53.0881 64.2505 53.0642 64.1758 53.0365C64.986 52.8094 65.6858 52.3179 66.177 51.6602C66.1996 51.8055 66.1971 51.9578 66.1656 52.112Z" fill="#FBD166"/>
<path d="M45.4101 61.4827C46.2774 61.4827 46.9804 60.7782 46.9804 59.9093C46.9804 59.0404 46.2774 58.3359 45.4101 58.3359C44.5429 58.3359 43.8398 59.0404 43.8398 59.9093C43.8398 60.7782 44.5429 61.4827 45.4101 61.4827Z" fill="#B7E261"/>
<path d="M55.1445 54.8733C56.0117 54.8733 56.7148 54.1689 56.7148 53.2999C56.7148 52.431 56.0117 51.7266 55.1445 51.7266C54.2773 51.7266 53.5742 52.431 53.5742 53.2999C53.5742 54.1689 54.2773 54.8733 55.1445 54.8733Z" fill="#B7E261"/>
<path d="M64.8828 44.8362C65.75 44.8362 66.4531 44.1318 66.4531 43.2628C66.4531 42.3939 65.75 41.6895 64.8828 41.6895C64.0155 41.6895 63.3125 42.3939 63.3125 43.2628C63.3125 44.1318 64.0155 44.8362 64.8828 44.8362Z" fill="#B7E261"/>
<path d="M41.0164 53.7722H39.7601C39.5 53.7722 39.2891 53.5609 39.2891 53.3002C39.2891 53.0394 39.5 52.8281 39.7601 52.8281H41.0164C41.2765 52.8281 41.4875 53.0394 41.4875 53.3002C41.4875 53.5609 41.2765 53.7722 41.0164 53.7722Z" fill="#B7E261"/>
<path d="M45.4148 53.7722H44.1586C43.8984 53.7722 43.6875 53.5609 43.6875 53.3002C43.6875 53.0394 43.8984 52.8281 44.1586 52.8281H45.4148C45.675 52.8281 45.8859 53.0394 45.8859 53.3002C45.8859 53.5609 45.675 53.7722 45.4148 53.7722Z" fill="#B7E261"/>
<path d="M41.0164 60.3816H39.7601C39.5 60.3816 39.2891 60.1703 39.2891 59.9095C39.2891 59.6488 39.5 59.4375 39.7601 59.4375H41.0164C41.2765 59.4375 41.4875 59.6488 41.4875 59.9095C41.4875 60.1703 41.2765 60.3816 41.0164 60.3816Z" fill="#B7E261"/>
<path d="M41.0164 43.7351H39.7601C39.5 43.7351 39.2891 43.5238 39.2891 43.263C39.2891 43.0023 39.5 42.791 39.7601 42.791H41.0164C41.2765 42.791 41.4875 43.0023 41.4875 43.263C41.4875 43.5238 41.2765 43.7351 41.0164 43.7351Z" fill="#B7E261"/>
<path d="M45.4148 43.7351H44.1586C43.8984 43.7351 43.6875 43.5238 43.6875 43.263C43.6875 43.0023 43.8984 42.791 44.1586 42.791H45.4148C45.675 42.791 45.8859 43.0023 45.8859 43.263C45.8859 43.5238 45.675 43.7351 45.4148 43.7351Z" fill="#B7E261"/>
<path d="M49.8093 43.7351H48.5531C48.293 43.7351 48.082 43.5238 48.082 43.263C48.082 43.0023 48.293 42.791 48.5531 42.791H49.8093C50.0695 42.791 50.2804 43.0023 50.2804 43.263C50.2804 43.5238 50.0696 43.7351 49.8093 43.7351Z" fill="#B7E261"/>
<path d="M49.8093 53.7722H48.5531C48.293 53.7722 48.082 53.5609 48.082 53.3002C48.082 53.0394 48.293 52.8281 48.5531 52.8281H49.8093C50.0695 52.8281 50.2804 53.0394 50.2804 53.3002C50.2804 53.5609 50.0696 53.7722 49.8093 53.7722Z" fill="#B7E261"/>
<path d="M54.2078 43.7351H52.9516C52.6914 43.7351 52.4805 43.5238 52.4805 43.263C52.4805 43.0023 52.6914 42.791 52.9516 42.791H54.2078C54.4679 42.791 54.6789 43.0023 54.6789 43.263C54.6789 43.5238 54.4679 43.7351 54.2078 43.7351Z" fill="#B7E261"/>
<path d="M58.6023 43.7351H57.3461C57.0859 43.7351 56.875 43.5238 56.875 43.263C56.875 43.0023 57.0859 42.791 57.3461 42.791H58.6023C58.8625 42.791 59.0734 43.0023 59.0734 43.263C59.0734 43.5238 58.8625 43.7351 58.6023 43.7351Z" fill="#B7E261"/>
<path d="M70.0839 69.6794C70.0884 69.674 70.0923 69.6682 70.0965 69.6626C70.1015 69.6559 70.1067 69.6493 70.1114 69.6423C70.1159 69.6356 70.1198 69.6286 70.1239 69.6218C70.1277 69.6154 70.1316 69.6093 70.1351 69.6027C70.1388 69.5956 70.1421 69.5883 70.1455 69.5811C70.1486 69.5743 70.152 69.5678 70.1549 69.5609C70.1578 69.5538 70.1601 69.5466 70.1627 69.5394C70.1653 69.532 70.1681 69.5248 70.1704 69.5173C70.1726 69.5101 70.1742 69.5027 70.176 69.4954C70.1779 69.4878 70.18 69.4803 70.1816 69.4725C70.1833 69.464 70.1843 69.4554 70.1855 69.4468C70.1865 69.4402 70.1877 69.4336 70.1884 69.4269C70.1915 69.3959 70.1915 69.3647 70.1884 69.3336C70.1878 69.3269 70.1865 69.3204 70.1855 69.3137C70.1843 69.3051 70.1833 69.2965 70.1816 69.288C70.1801 69.2803 70.178 69.2728 70.176 69.2651C70.1742 69.2578 70.1726 69.2505 70.1704 69.2433C70.1682 69.2357 70.1653 69.2285 70.1627 69.2211C70.1601 69.214 70.1578 69.2067 70.1549 69.1997C70.152 69.1928 70.1486 69.1862 70.1455 69.1794C70.1421 69.1722 70.1389 69.1649 70.1351 69.1578C70.1317 69.1513 70.1277 69.1451 70.124 69.1388C70.1199 69.1319 70.116 69.1249 70.1115 69.1183C70.1068 69.1113 70.1016 69.1047 70.0966 69.098C70.0924 69.0924 70.0885 69.0866 70.084 69.0811C70.0747 69.0698 70.0648 69.0589 70.0546 69.0485C70.0539 69.0479 70.0534 69.0472 70.0528 69.0465L68.7966 67.7879C68.6126 67.6036 68.3143 67.6036 68.1304 67.7879C67.9464 67.9722 67.9464 68.2711 68.1304 68.4554L68.5824 68.9083H65.3538V68.1216C65.3538 67.8609 65.1428 67.6496 64.8827 67.6496C64.6225 67.6496 64.4116 67.8609 64.4116 68.1216V68.9083H55.6185V68.1216C55.6185 67.8609 55.4076 67.6496 55.1474 67.6496C54.8872 67.6496 54.6763 67.8609 54.6763 68.1216V68.9083H45.8827V68.1216C45.8827 67.8609 45.6718 67.6496 45.4116 67.6496C45.1515 67.6496 44.9406 67.8609 44.9406 68.1216V68.9083H40.2297V40.5002L40.6818 40.9532C40.7737 41.0453 40.8943 41.0914 41.0149 41.0914C41.1354 41.0914 41.256 41.0453 41.3479 40.9532C41.5319 40.7688 41.5319 40.4699 41.3479 40.2856L40.0917 39.0269C40.091 39.0262 40.0902 39.0256 40.0895 39.0249C40.0792 39.0147 40.0685 39.0049 40.0572 38.9956C40.0518 38.9912 40.0461 38.9873 40.0405 38.9831C40.0338 38.9781 40.0272 38.9728 40.0202 38.9682C40.0137 38.9638 40.0069 38.96 40.0003 38.956C39.9937 38.9521 39.9873 38.948 39.9806 38.9444C39.9739 38.9408 39.9671 38.9378 39.9603 38.9346C39.9532 38.9312 39.9461 38.9276 39.9387 38.9245C39.9322 38.9218 39.9256 38.9197 39.9191 38.9174C39.9111 38.9145 39.9033 38.9115 39.8952 38.909C39.8888 38.907 39.8824 38.9056 39.8759 38.904C39.8674 38.9018 39.8591 38.8995 39.8504 38.8978C39.8434 38.8964 39.8363 38.8956 39.8293 38.8946C39.8211 38.8933 39.8131 38.8919 39.8048 38.8911C39.7932 38.8899 39.7815 38.8896 39.7698 38.8893C39.766 38.8892 39.7623 38.8887 39.7586 38.8887C39.7548 38.8887 39.7512 38.8892 39.7474 38.8892C39.7357 38.8895 39.724 38.8899 39.7124 38.891C39.7041 38.8918 39.6961 38.8933 39.6879 38.8945C39.6809 38.8956 39.6738 38.8963 39.6668 38.8977C39.6581 38.8994 39.6498 38.9018 39.6413 38.9039C39.6349 38.9056 39.6284 38.9069 39.6221 38.9089C39.6139 38.9113 39.6061 38.9144 39.5981 38.9173C39.5916 38.9197 39.585 38.9218 39.5785 38.9245C39.5712 38.9276 39.5641 38.9311 39.5569 38.9345C39.5502 38.9377 39.5433 38.9407 39.5366 38.9443C39.5299 38.948 39.5235 38.952 39.5169 38.956C39.5103 38.96 39.5035 38.9638 39.497 38.9681C39.49 38.9728 39.4833 38.9781 39.4766 38.9831C39.4711 38.9873 39.4654 38.9912 39.46 38.9956C39.4487 39.0048 39.438 39.0146 39.4277 39.0248C39.427 39.0255 39.4262 39.0262 39.4255 39.0269L38.1692 40.2855C37.9853 40.4699 37.9853 40.7687 38.1692 40.9531C38.3532 41.1373 38.6515 41.1373 38.8354 40.9531L39.2875 40.5002V68.9082H38.5023C38.2422 68.9082 38.0312 69.1195 38.0312 69.3802C38.0312 69.6409 38.2422 69.8522 38.5023 69.8522H39.2875V70.6389C39.2875 70.8996 39.4984 71.1109 39.7586 71.1109C40.0187 71.1109 40.2296 70.8996 40.2296 70.6389V69.8522H68.5823L68.1303 70.3051C67.9463 70.4894 67.9463 70.7883 68.1303 70.9726C68.2222 71.0648 68.3428 71.1109 68.4634 71.1109C68.5839 71.1109 68.7045 71.0648 68.7964 70.9726L70.0527 69.714C70.0533 69.7133 70.0538 69.7126 70.0544 69.712C70.0648 69.7016 70.0746 69.6907 70.0839 69.6794Z" fill="#E2E8F5"/>
</g>
<path d="M29.5 42H1.49999C0.671586 42 0 42.6716 0 43.5V67.5C0 68.3284 0.671586 69 1.49999 69H29.5C30.3284 69 31 68.3284 31 67.5V43.5C31 42.6716 30.3284 42 29.5 42Z" fill="#EDEBED"/>
<path d="M29.5 68H1.5C1.22384 68 1 67.7762 1 67.5V47.5C1 47.2238 1.22384 47 1.5 47H29.5C29.7762 47 30 47.2238 30 47.5V67.5C30 67.7761 29.7762 68 29.5 68Z" fill="white"/>
<path d="M11 65.5C11.5523 65.5 12 65.0523 12 64.5C12 63.9477 11.5523 63.5 11 63.5C10.4477 63.5 10 63.9477 10 64.5C10 65.0523 10.4477 65.5 11 65.5Z" fill="#5D5360"/>
<path d="M20 65.5C20.5523 65.5 21 65.0523 21 64.5C21 63.9477 20.5523 63.5 20 63.5C19.4477 63.5 19 63.9477 19 64.5C19 65.0523 19.4477 65.5 20 65.5Z" fill="#5D5360"/>
<path d="M21.4994 64.0004H9.86125C9.50039 64.0004 9.17719 63.8141 8.99603 63.5021C8.81488 63.1903 8.81391 62.8173 8.99264 62.5042L10.5654 59.7523C10.7021 59.5123 11.0073 59.4288 11.2475 59.5662C11.4873 59.7032 11.5708 60.0086 11.4336 60.2483L9.86082 63.0003H21.4995C21.7759 63.0003 21.9995 63.2242 21.9995 63.5003C21.9995 63.7764 21.7758 64.0004 21.4994 64.0004Z" fill="#C0BCC1"/>
<path d="M22.4865 54.9998C22.4909 55.0001 22.4958 55.0001 22.5007 55.0001C22.7702 55.0001 22.9924 54.7853 23.0002 54.514C23.0075 54.2379 22.7902 54.0079 22.5139 54.0003L19.9888 53.9302L20.1447 52.0202C20.1672 51.7448 19.9621 51.5036 19.6867 51.4811C19.4162 51.4562 19.1701 51.6635 19.1477 51.9386L18.9873 53.9024L16.4792 53.8327V51.8126C16.4792 51.5365 16.2555 51.3126 15.9792 51.3126C15.7028 51.3126 15.4792 51.5365 15.4792 51.8126V53.805L12.7236 53.7284L12.3049 51.3509C12.2571 51.079 11.9977 50.8973 11.7258 50.9451C11.4538 50.993 11.2721 51.2523 11.3205 51.5243L11.7037 53.7L9.01386 53.6253C8.76338 53.6173 8.50799 53.835 8.50018 54.1111C8.49285 54.3872 8.71016 54.6173 8.98649 54.6248L11.8808 54.7052L12.2012 56.5246L9.69695 56.5836C9.4211 56.5899 9.20234 56.8189 9.20864 57.0951C9.215 57.3673 9.43763 57.5834 9.70863 57.5834C9.71257 57.5834 9.71645 57.5834 9.72038 57.5831L12.3767 57.5206L12.737 59.566C12.7795 59.8087 12.9904 59.9794 13.2287 59.9794C13.2575 59.9794 13.2868 59.977 13.3161 59.9718C13.5881 59.924 13.7698 59.6647 13.7214 59.3927L13.3875 57.4967L15.4792 57.4475V59.2501C15.4792 59.5262 15.7029 59.7501 15.9792 59.7501C16.2556 59.7501 16.4792 59.5262 16.4792 59.2501V57.4239L18.704 57.3715L18.5642 59.0843C18.5417 59.3597 18.7468 59.6009 19.0222 59.6234C19.0359 59.6246 19.0496 59.6251 19.0632 59.6251C19.321 59.6251 19.5398 59.4271 19.5612 59.1658L19.7097 57.3477L22.0954 57.2915C22.3713 57.2852 22.59 57.0562 22.5837 56.78C22.5769 56.504 22.3513 56.2761 22.072 56.292L19.7916 56.3457L19.9073 54.9282L22.4865 54.9998ZM13.212 56.5008L12.9007 54.7336L15.4792 54.8052V56.4473L13.212 56.5008ZM18.7858 56.3695L16.4792 56.4238V54.833L18.9058 54.9004L18.7858 56.3695Z" fill="#C0BCC1"/>
<path d="M29.5 42H1.49999C0.671586 42 0 42.6716 0 43.5V46H31V43.5C31 42.6716 30.3284 42 29.5 42Z" fill="#E6646E"/>
<path d="M2 42V43.5C2 44.3271 2.67286 45 3.49999 45H4.49998C5.32711 45 5.99997 44.3271 5.99997 43.5V42H2Z" fill="#DC4655"/>
<path d="M25 42V43.5C25 44.3271 25.6729 45 26.5 45H27.5C28.3271 45 29 44.3271 29 43.5V42H25Z" fill="#DC4655"/>
<path d="M4.50005 44H3.5C3.22384 44 3 43.7762 3 43.5V40.5C3 40.2238 3.22384 40 3.5 40H4.49999C4.77614 40 4.99998 40.2238 4.99998 40.5V43.5C5.00005 43.7761 4.77614 44 4.50005 44Z" fill="#FFD164"/>
<path d="M4.5 44C4.22384 44 4 43.7762 4 43.5V40.5C4 40.2238 4.22384 40 4.5 40C4.77615 40 4.99999 40.2238 4.99999 40.5V43.5C4.99999 43.7761 4.77609 44 4.5 44Z" fill="#FFE17D"/>
<path d="M27.5 44H26.5C26.2238 44 26 43.7762 26 43.5V40.5C26 40.2238 26.2238 40 26.5 40H27.5C27.7761 40 28 40.2238 28 40.5V43.5C28 43.7761 27.7761 44 27.5 44Z" fill="#FFD164"/>
<path d="M27.5 44C27.2238 44 27 43.7762 27 43.5V40.5C27 40.2238 27.2238 40 27.5 40C27.7762 40 28 40.2238 28 40.5V43.5C28 43.7761 27.7761 44 27.5 44Z" fill="#FFE17D"/>
<path d="M11.6099 60.3976C10.7202 60.3976 9.92631 59.8049 9.68413 58.9345L7.64509 51.6154C7.58599 51.4038 7.45661 51.2148 7.28084 51.0832L5.70026 49.9004C5.47957 49.7348 5.43416 49.4214 5.59969 49.2005C5.76475 48.9793 6.07868 48.9344 6.29992 49.0996L7.8805 50.2827C8.04603 50.4067 8.19056 50.5562 8.3102 50.7236L23.0265 51.5008C23.1666 51.5081 23.297 51.574 23.3864 51.6824C23.4757 51.7908 23.5148 51.9319 23.4952 52.0708L22.6076 58.2847C22.508 58.979 21.9508 59.5063 21.2526 59.5669L11.7843 60.3901C11.7256 60.3952 11.6675 60.3976 11.6099 60.3976ZM8.71925 51.7468L10.647 58.6659C10.7764 59.1293 11.2246 59.4343 11.6973 59.3939L21.1656 58.5707C21.3985 58.5504 21.584 58.3744 21.6172 58.1429L22.4278 52.4704L8.71925 51.7468Z" fill="#C9C6CA"/>
<path d="M7.58018 51.1831C7.47616 51.1831 7.37069 51.1506 7.28084 51.0835L5.70026 49.9004C5.47957 49.7348 5.43416 49.4214 5.59969 49.2005C5.76475 48.9793 6.07868 48.9344 6.29992 49.0996L7.8805 50.2827C8.10119 50.4483 8.1466 50.7617 7.98106 50.9827C7.88292 51.114 7.73252 51.1831 7.58018 51.1831Z" fill="#E6646E"/>
<defs>
<clipPath id="clip0_4533_2186">
<rect width="32.2222" height="32.2222" fill="white" transform="translate(38 38.8887)"/>
</clipPath>
</defs>
</svg>
