<svg width="92" height="85" viewBox="0 0 92 85" fill="none" xmlns="http://www.w3.org/2000/svg">
<circle cx="46" cy="37" r="36.5" stroke="#E5EFF4"/>
<circle cx="46.5" cy="72.5" r="12.5" fill="#F5FCFF"/>
<circle cx="14.5" cy="17.5" r="14.5" fill="#F5FCFF"/>
<circle cx="77.5" cy="18.5" r="14.5" fill="#F5FCFF"/>
<g clip-path="url(#clip0_4495_2311)">
<path d="M44.441 73.3086C43.4267 73.3086 42.6016 74.1338 42.6016 75.148V79.7447C42.6016 80.759 43.4267 81.5842 44.441 81.5842C45.4553 81.5842 46.2805 80.7591 46.2805 79.7448V75.148C46.2805 74.1338 45.4553 73.3086 44.441 73.3086Z" fill="#FF4340"/>
<path d="M41.5733 73.3086H39.7925C38.8106 73.3086 38.0117 74.1075 38.0117 75.0894C38.0117 76.0713 38.8106 76.8702 39.7925 76.8702C40.7744 76.8702 41.5733 76.0713 41.5733 75.0894V73.3086Z" fill="#FF4340"/>
<path d="M38.0039 70.4371C38.0039 71.4514 38.8291 72.2766 39.8434 72.2766H44.44C45.4544 72.2766 46.2795 71.4514 46.2795 70.4371C46.2795 69.4228 45.4544 68.5977 44.4401 68.5977H39.8434C38.8291 68.5976 38.0039 69.4228 38.0039 70.4371Z" fill="#36C6FF"/>
<path d="M44.4956 67.5694H46.2764V65.7886C46.2764 64.8067 45.4776 64.0078 44.4956 64.0078C43.5137 64.0078 42.7148 64.8067 42.7148 65.7886C42.7148 66.7705 43.5137 67.5694 44.4956 67.5694Z" fill="#36C6FF"/>
<path d="M49.152 72.2776C50.1662 72.2776 50.9914 71.4524 50.9914 70.4381V65.8414C50.9914 64.8271 50.1662 64.002 49.152 64.002C48.1377 64.002 47.3125 64.8271 47.3125 65.8414V70.4381C47.3125 71.4524 48.1377 72.2776 49.152 72.2776Z" fill="#0DC46E"/>
<path d="M52.0156 72.2784H53.7964C54.7784 72.2784 55.5772 71.4795 55.5772 70.4976C55.5772 69.5157 54.7783 68.7168 53.7964 68.7168C52.8145 68.7168 52.0156 69.5157 52.0156 70.4976V72.2784Z" fill="#0DC46E"/>
<path d="M55.5881 75.148C55.5881 74.1338 54.763 73.3086 53.7487 73.3086H49.152C48.1377 73.3086 47.3125 74.1338 47.3125 75.148C47.3125 76.1623 48.1377 76.9875 49.152 76.9875H53.7486C54.763 76.9875 55.5881 76.1623 55.5881 75.148Z" fill="#FDCB02"/>
<path d="M49.0933 78.0176H47.3125V79.7984C47.3125 80.7803 48.1114 81.5792 49.0933 81.5792C50.0753 81.5792 50.8741 80.7803 50.8741 79.7984C50.8741 78.8165 50.0753 78.0176 49.0933 78.0176Z" fill="#FDCB02"/>
</g>
<g clip-path="url(#clip1_4495_2311)">
<path d="M76.9311 9H76.9263C71.6177 9 67.3008 13.3181 67.3008 18.6279C67.3008 20.734 67.9795 22.6861 69.1337 24.2711L67.9338 27.8478L71.6345 26.6648C73.157 27.6733 74.973 28.2558 76.9311 28.2558C82.2397 28.2558 86.5566 23.9365 86.5566 18.6279C86.5566 13.3193 82.2397 9 76.9311 9Z" fill="#4CAF50"/>
<path d="M82.5383 22.5965C82.306 23.2524 81.3842 23.7964 80.6488 23.9553C80.1458 24.0624 79.4887 24.1478 77.2767 23.2308C74.4473 22.0586 72.6252 19.1834 72.4832 18.9969C72.3472 18.8104 71.3398 17.4745 71.3398 16.0929C71.3398 14.7113 72.0415 14.0385 72.3243 13.7497C72.5566 13.5126 72.9405 13.4043 73.3088 13.4043C73.4279 13.4043 73.535 13.4103 73.6313 13.4151C73.9141 13.4272 74.0561 13.444 74.2427 13.8905C74.4749 14.4501 75.0406 15.8317 75.108 15.9737C75.1766 16.1158 75.2452 16.3083 75.1489 16.4949C75.0586 16.6874 74.9792 16.7729 74.8372 16.9365C74.6952 17.1002 74.5604 17.2254 74.4184 17.4011C74.2884 17.5539 74.1416 17.7176 74.3052 18.0004C74.4689 18.2772 75.0346 19.2003 75.8674 19.9416C76.9421 20.8984 77.8134 21.2041 78.1251 21.3341C78.3574 21.4304 78.6342 21.4075 78.8039 21.227C79.0193 20.9947 79.2853 20.6096 79.5561 20.2305C79.7486 19.9585 79.9917 19.9248 80.2469 20.0211C80.5068 20.1113 81.8824 20.7913 82.1652 20.9321C82.448 21.0741 82.6346 21.1415 82.7032 21.2607C82.7706 21.3798 82.7706 21.9394 82.5383 22.5965Z" fill="#FAFAFA"/>
</g>
<g clip-path="url(#clip2_4495_2311)">
<path d="M15.0465 28.093C20.595 28.093 25.093 23.595 25.093 18.0465C25.093 12.498 20.595 8 15.0465 8C9.49798 8 5 12.498 5 18.0465C5 23.595 9.49798 28.093 15.0465 28.093Z" fill="#039BE5"/>
<path d="M9.59843 17.8293L19.2849 14.0945C19.7345 13.9321 20.1272 14.2042 19.9815 14.884L19.9823 14.8832L18.333 22.6533C18.2108 23.2042 17.8834 23.3382 17.4255 23.0786L14.9139 21.2276L13.7024 22.3946C13.5685 22.5286 13.4554 22.6416 13.1959 22.6416L13.3742 20.0856L18.0291 15.8803C18.2317 15.702 17.9839 15.6015 17.7168 15.779L11.9644 19.4008L9.48457 18.6272C8.94624 18.4564 8.93452 18.0889 9.59843 17.8293Z" fill="white"/>
</g>
<g clip-path="url(#clip3_4495_2311)">
<path d="M59.7519 26.2109C57.244 25.0601 54.5546 24.2123 51.7426 23.7266C51.6914 23.7173 51.6402 23.7407 51.6139 23.7875C51.268 24.4027 50.8849 25.2052 50.6166 25.836C47.5922 25.3832 44.5832 25.3832 41.6208 25.836C41.3524 25.1912 40.9554 24.4027 40.608 23.7875C40.5816 23.7422 40.5304 23.7188 40.4792 23.7266C37.6689 24.2107 34.9795 25.0585 32.4699 26.2109C32.4482 26.2202 32.4296 26.2358 32.4172 26.2561C27.316 33.8773 25.9185 41.3111 26.604 48.6528C26.6071 48.6886 26.6273 48.723 26.6552 48.7449C30.0208 51.2166 33.2811 52.7171 36.4807 53.7117C36.5319 53.7273 36.5862 53.7086 36.6187 53.6664C37.3756 52.6328 38.0503 51.543 38.6288 50.3969C38.6629 50.3298 38.6303 50.2501 38.5605 50.2236C37.4903 49.8176 36.4713 49.3226 35.4911 48.7606C35.4135 48.7153 35.4073 48.6044 35.4787 48.5513C35.685 48.3968 35.8913 48.2359 36.0883 48.0735C36.124 48.0438 36.1736 48.0376 36.2155 48.0563C42.6552 50.9965 49.6269 50.9965 55.9906 48.0563C56.0325 48.036 56.0821 48.0423 56.1193 48.0719C56.3164 48.2343 56.5226 48.3967 56.7305 48.5512C56.8018 48.6043 56.7971 48.7152 56.7196 48.7605C55.7394 49.3335 54.7204 49.8175 53.6486 50.2219C53.5789 50.2485 53.5478 50.3297 53.582 50.3968C54.1729 51.5413 54.8476 52.6311 55.5905 53.6648C55.6215 53.7085 55.6773 53.7273 55.7285 53.7116C58.9437 52.7171 62.2039 51.2165 65.5696 48.7448C65.5991 48.723 65.6177 48.6902 65.6208 48.6543C66.4412 40.1665 64.2465 32.7936 59.803 26.2577C59.7922 26.2358 59.7736 26.2202 59.7519 26.2109ZM39.5906 44.1824C37.6518 44.1824 36.0543 42.4025 36.0543 40.2165C36.0543 38.0306 37.6208 36.2506 39.5906 36.2506C41.5758 36.2506 43.1579 38.0462 43.1268 40.2165C43.1268 42.4025 41.5603 44.1824 39.5906 44.1824ZM52.6654 44.1824C50.7267 44.1824 49.1291 42.4025 49.1291 40.2165C49.1291 38.0306 50.6956 36.2506 52.6654 36.2506C54.6507 36.2506 56.2327 38.0462 56.2017 40.2165C56.2017 42.4025 54.6507 44.1824 52.6654 44.1824Z" fill="#5865F2"/>
</g>
<defs>
<clipPath id="clip0_4495_2311">
<rect width="17.5814" height="17.5814" fill="white" transform="translate(38 64)"/>
</clipPath>
<clipPath id="clip1_4495_2311">
<rect width="19.2558" height="19.2558" fill="white" transform="translate(67.3008 9)"/>
</clipPath>
<clipPath id="clip2_4495_2311">
<rect width="20.093" height="20.093" fill="white" transform="translate(5 8)"/>
</clipPath>
<clipPath id="clip3_4495_2311">
<rect width="39.3488" height="39.3488" fill="white" transform="translate(26.4414 19.0469)"/>
</clipPath>
</defs>
</svg>
