<svg width="93" height="39" viewBox="0 0 93 39" fill="none" xmlns="http://www.w3.org/2000/svg">
<g clip-path="url(#clip0_4495_2284)">
<path d="M6.53579 15.2152C6.53579 14.2045 7.36244 13.8157 8.73183 13.8157C10.695 13.8157 13.1749 14.4119 15.1383 15.4745V9.38385C12.9942 8.52865 10.8759 8.1917 8.73183 8.1917C3.4875 8.1917 0 10.939 0 15.5264C0 22.6793 9.81659 21.5391 9.81659 24.6233C9.81659 25.8153 8.78341 26.2042 7.33665 26.2042C5.19256 26.2042 2.45415 25.3229 0.284086 24.1308V30.299C2.68665 31.3357 5.115 31.7762 7.33665 31.7762C12.7099 31.7762 16.4041 29.1069 16.4041 24.4677C16.3784 16.7445 6.53579 18.1179 6.53579 15.2152ZM23.9991 3.00837L17.6958 4.35596L17.67 25.1155C17.67 28.9515 20.5376 31.7762 24.3609 31.7762C26.4792 31.7762 28.0291 31.3875 28.8816 30.921V25.6598C28.0551 25.9968 23.9733 27.1889 23.9733 23.3532V14.1526H28.8816V8.63234H23.9733L23.9991 3.00837ZM36.9159 10.5501L36.5025 8.63234H30.9225V31.3097H37.3809V15.941C38.9049 13.9454 41.4884 14.3082 42.2892 14.5932V8.63234C41.4626 8.32127 38.4401 7.75107 36.9159 10.5501ZM43.8649 8.63234H50.3491V31.3097H43.8649V8.63234ZM43.8649 6.66262L50.3491 5.2631V0.00195312L43.8649 1.3756V6.66262ZM63.8341 8.1917C61.3024 8.1917 59.6749 9.38385 58.7709 10.2134L58.4349 8.60646H52.7517V38.8256L59.2099 37.4521L59.2359 30.1175C60.1659 30.7914 61.5349 31.7503 63.8084 31.7503C68.4326 31.7503 72.6433 28.0183 72.6433 19.8026C72.6176 12.2866 68.355 8.1917 63.8341 8.1917ZM62.2842 26.0485C60.7601 26.0485 59.8557 25.5044 59.2359 24.8305L59.2099 15.2152C59.8816 14.4637 60.8116 13.9454 62.2842 13.9454C64.635 13.9454 66.2625 16.5888 66.2625 19.9839C66.2625 23.4569 64.6608 26.0485 62.2842 26.0485ZM93 20.0618C93 13.427 89.7966 8.1917 83.6742 8.1917C77.5257 8.1917 73.8057 13.4272 73.8057 20.01C73.8057 27.8109 78.1976 31.7503 84.5007 31.7503C87.5749 31.7503 89.8999 31.0506 91.6566 30.0658V24.8823C89.9001 25.7635 87.885 26.3079 85.3275 26.3079C82.8216 26.3079 80.5999 25.4266 80.3159 22.3684H92.9484C92.9484 22.0313 93 20.6837 93 20.0618ZM80.2383 17.5997C80.2383 14.6711 82.0209 13.4528 83.6484 13.4528C85.2241 13.4528 86.9034 14.6711 86.9034 17.5997H80.2383Z" fill="#6772E5"/>
</g>
<defs>
<clipPath id="clip0_4495_2284">
<rect width="93" height="39" fill="white"/>
</clipPath>
</defs>
</svg>
