<svg width="23" height="23" viewBox="0 0 23 23" fill="none" xmlns="http://www.w3.org/2000/svg">
<g clip-path="url(#clip0_1304_7404)">
<path d="M22.1541 7.85915L13.0915 0.561501C12.1618 -0.187167 10.8362 -0.187167 9.90642 0.561501L0.84375 7.85915V20.5001C0.84375 21.8806 1.96289 22.9998 3.34343 22.9998H19.6545C21.035 22.9998 22.1541 21.8806 22.1541 20.5001V7.85915Z" fill="#D1DFF9"/>
<path d="M5.31137 23H3.3432C1.96275 23 0.84375 21.881 0.84375 20.5005V7.85938H2.81191V20.5005C2.81191 21.881 3.93092 23 5.31137 23Z" fill="#BBCBEB"/>
<path d="M22.154 7.85941L20.2506 9.3921L19.6981 8.56459L13.0915 13.8842C12.1618 14.633 10.8359 14.633 9.9062 13.8842L3.29967 8.56464L2.74758 9.39264L0.84375 7.85945L2.74758 6.32627L8.96262 1.32179L9.9062 0.561939C10.8359 -0.187313 12.1618 -0.187313 13.0915 0.561939L14.0351 1.32179L19.9868 6.11433L22.154 7.85941Z" fill="#BECCE6"/>
<path d="M20.1322 6.9875V9.4865L19.6968 9.8373L17.3158 11.7546L16.4536 12.4487L15.2578 13.4118L14.3957 14.106L13.0906 15.1569C12.1609 15.9057 10.8346 15.9057 9.90492 15.1569L8.59989 14.106L7.73771 13.4118L6.54189 12.4487L5.67975 11.7546L3.29875 9.8373L2.86328 9.4865V6.9875C2.86328 6.01889 3.64861 5.23402 4.61721 5.23402H18.3784C18.4089 5.23402 18.439 5.23262 18.4686 5.23402C19.395 5.28123 20.1322 6.04944 20.1322 6.9875Z" fill="#E5EDFC"/>
<path d="M20.1322 3.05231V6.98728H2.86328V3.05231C2.86328 2.0837 3.64861 1.29883 4.61721 1.29883H18.3784C18.4089 1.29883 18.439 1.29977 18.4686 1.30112C19.395 1.34833 20.1322 2.11425 20.1322 3.05231Z" fill="#0051AA"/>
<path d="M20.1322 8.21387V9.4865L19.6968 9.8373L13.0906 15.1569C12.1609 15.9057 10.8346 15.9057 9.90487 15.1569L3.29875 9.8373L2.86328 9.4865V8.21387L3.29875 8.56466L9.90487 13.8843C10.8346 14.633 12.1609 14.633 13.0906 13.8843L19.6968 8.56466L20.1322 8.21387Z" fill="#E5EDFC"/>
<path d="M16.9692 21.1036C16.8928 21.1036 16.8159 21.0785 16.7517 21.0268L13.4419 18.3616C13.2926 18.2414 13.269 18.0229 13.3892 17.8736C13.5094 17.7243 13.7279 17.7007 13.8773 17.8209L17.1871 20.4861C17.3364 20.6063 17.36 20.8248 17.2398 20.9742C17.1712 21.0593 17.0706 21.1036 16.9692 21.1036Z" fill="#A9BBDB"/>
<path d="M6.02703 21.1036C5.92555 21.1036 5.82506 21.0593 5.75647 20.9742C5.63621 20.8249 5.6598 20.6064 5.80912 20.4861L9.11896 17.8209C9.26833 17.7007 9.48683 17.7243 9.60699 17.8736C9.72725 18.0228 9.70366 18.2413 9.55434 18.3616L6.2445 21.0268C6.18035 21.0785 6.10345 21.1036 6.02703 21.1036Z" fill="#A9BBDB"/>
<path d="M7.6353 3.0968C7.63409 3.09365 7.63288 3.09051 7.63157 3.08736C7.56972 2.93696 7.4248 2.83984 7.26223 2.83984C7.26209 2.83984 7.26191 2.83984 7.26178 2.83984C7.09902 2.84002 6.95406 2.9375 6.89252 3.08813C6.89148 3.09069 6.89045 3.09329 6.88946 3.0959L6.02283 5.37137C5.95459 5.55052 6.04448 5.75105 6.22363 5.81924C6.40273 5.88752 6.60331 5.79755 6.6715 5.61844L6.80218 5.27528H7.71544L7.84455 5.61745C7.89702 5.75644 8.02909 5.84211 8.16933 5.84206C8.21003 5.84206 8.25145 5.83483 8.29179 5.8196C8.47112 5.7519 8.56168 5.55169 8.49398 5.37231L7.6353 3.0968ZM7.06659 4.58111L7.26092 4.07084L7.4535 4.58111H7.06659Z" fill="white"/>
<path d="M14.5932 2.83984C14.4014 2.83984 14.2461 2.99523 14.2461 3.18691V5.49486C14.2461 5.68654 14.4015 5.84193 14.5932 5.84193C14.7848 5.84193 14.9402 5.68654 14.9402 5.49486V3.18691C14.9403 2.99523 14.7849 2.83984 14.5932 2.83984Z" fill="white"/>
<path d="M12.5671 2.83984H11.9135C11.8213 2.83984 11.7329 2.8765 11.6678 2.94173C11.6027 3.00695 11.5662 3.0954 11.5664 3.18758C11.5664 3.18763 11.5711 5.49612 11.5711 5.49612C11.5714 5.58821 11.6083 5.67635 11.6736 5.74121C11.7387 5.80577 11.8265 5.84197 11.9181 5.84197H11.9194C11.9392 5.84188 12.4057 5.84009 12.5923 5.83685C13.3189 5.82418 13.8462 5.19505 13.8462 4.34091C13.8462 3.44305 13.3322 2.83984 12.5671 2.83984ZM12.5802 5.14276C12.5064 5.14407 12.3838 5.1451 12.264 5.14595C12.2632 4.87786 12.2616 3.81335 12.2612 3.53402H12.5671C13.1099 3.53402 13.1521 4.15161 13.1521 4.34091C13.1521 4.73505 12.9752 5.13585 12.5802 5.14276Z" fill="white"/>
<path d="M10.7593 2.83984C10.5676 2.83984 10.4123 2.99523 10.4123 3.18691V4.77337C10.4123 4.87296 10.3833 4.98936 10.1683 5.09762C10.101 5.13149 10.0253 5.14762 9.94359 5.14779C9.85316 5.14766 9.775 5.12574 9.70456 5.08073C9.53646 4.97332 9.50273 4.88415 9.50273 4.77503V3.18691C9.50273 2.99523 9.34734 2.83984 9.15566 2.83984C8.96398 2.83984 8.80859 2.99523 8.80859 3.18691V4.77503C8.80859 5.14461 8.98428 5.44428 9.33086 5.66565C9.51342 5.78232 9.71929 5.84161 9.94269 5.84193H9.94449C10.1363 5.84193 10.3167 5.80011 10.4805 5.71758C10.8842 5.51431 11.1065 5.17897 11.1065 4.77333V3.18691C11.1064 2.99523 10.951 2.83984 10.7593 2.83984Z" fill="white"/>
<path d="M17.0904 2.83984H15.8158C15.6241 2.83984 15.4688 2.99523 15.4688 3.18691C15.4688 3.37859 15.6241 3.53398 15.8158 3.53398H16.1035V5.49486C16.1035 5.68654 16.2588 5.84193 16.4505 5.84193C16.6422 5.84193 16.7976 5.68654 16.7976 5.49486V3.53398H17.0903C17.2821 3.53398 17.4374 3.37859 17.4374 3.18691C17.4375 2.99523 17.2821 2.83984 17.0904 2.83984Z" fill="white"/>
<path d="M14.7689 9.13456H8.22988C8.0382 9.13456 7.88281 8.97918 7.88281 8.7875C7.88281 8.59581 8.0382 8.44043 8.22988 8.44043H14.7688C14.9606 8.44043 15.1159 8.59581 15.1159 8.7875C15.116 8.97913 14.9606 9.13456 14.7689 9.13456Z" fill="#AABBDB"/>
<path d="M16.9861 10.7918H6.01504C5.82335 10.7918 5.66797 10.6364 5.66797 10.4447C5.66797 10.253 5.82335 10.0977 6.01504 10.0977H16.9861C17.1779 10.0977 17.3332 10.253 17.3332 10.4447C17.3332 10.6364 17.1778 10.7918 16.9861 10.7918Z" fill="#AABBDB"/>
<path d="M17.3196 11.7539L16.4575 12.4481H6.54573L5.68359 11.7539H17.3196Z" fill="#AABBDB"/>
<path d="M15.2623 13.4111L14.4001 14.1053H8.60433L7.74219 13.4111H15.2623Z" fill="#AABBDB"/>
</g>
<defs>
<clipPath id="clip0_1304_7404">
<rect width="23" height="23" fill="white"/>
</clipPath>
</defs>
</svg>
