<svg width="47" height="47" viewBox="0 0 47 47" fill="none" xmlns="http://www.w3.org/2000/svg">
<circle opacity="0.5" cx="23.5" cy="23.5" r="23" stroke="#E6EDF2"/>
<g clip-path="url(#clip0_1300_6671)">
<path d="M34.1541 19.8591L25.0915 12.5615C24.1618 11.8128 22.8362 11.8128 21.9064 12.5615L12.8438 19.8591V32.5001C12.8438 33.8806 13.9629 34.9998 15.3434 34.9998H31.6545C33.035 34.9998 34.1541 33.8806 34.1541 32.5001V19.8591Z" fill="#D1DFF9"/>
<path d="M17.3114 35H15.3432C13.9628 35 12.8438 33.881 12.8438 32.5005V19.8594H14.8119V32.5005C14.8119 33.881 15.9309 35 17.3114 35Z" fill="#BBCBEB"/>
<path d="M34.154 19.8594L32.2506 21.3921L31.6981 20.5646L25.0915 25.8842C24.1618 26.633 22.8359 26.633 21.9062 25.8842L15.2997 20.5646L14.7476 21.3926L12.8438 19.8595L14.7476 18.3263L20.9626 13.3218L21.9062 12.5619C22.8359 11.8127 24.1618 11.8127 25.0915 12.5619L26.0351 13.3218L31.9868 18.1143L34.154 19.8594Z" fill="#BECCE6"/>
<path d="M32.1322 18.9875V21.4865L31.6968 21.8373L29.3158 23.7546L28.4536 24.4487L27.2578 25.4118L26.3957 26.106L25.0906 27.1569C24.1609 27.9057 22.8346 27.9057 21.9049 27.1569L20.5999 26.106L19.7377 25.4118L18.5419 24.4487L17.6797 23.7546L15.2988 21.8373L14.8633 21.4865V18.9875C14.8633 18.0189 15.6486 17.234 16.6172 17.234H30.3784C30.4089 17.234 30.439 17.2326 30.4686 17.234C31.395 17.2812 32.1322 18.0494 32.1322 18.9875Z" fill="#E5EDFC"/>
<path d="M32.1322 15.0523V18.9873H14.8633V15.0523C14.8633 14.0837 15.6486 13.2988 16.6172 13.2988H30.3784C30.4089 13.2988 30.439 13.2998 30.4686 13.3011C31.395 13.3483 32.1322 14.1142 32.1322 15.0523Z" fill="#0051AA"/>
<path d="M32.1322 20.2139V21.4865L31.6968 21.8373L25.0906 27.1569C24.1609 27.9057 22.8346 27.9057 21.9049 27.1569L15.2988 21.8373L14.8633 21.4865V20.2139L15.2988 20.5647L21.9049 25.8843C22.8346 26.633 24.1609 26.633 25.0906 25.8843L31.6968 20.5647L32.1322 20.2139Z" fill="#E5EDFC"/>
<path d="M28.9692 33.1036C28.8928 33.1036 28.8159 33.0785 28.7517 33.0268L25.4419 30.3616C25.2926 30.2414 25.269 30.0229 25.3892 29.8736C25.5094 29.7243 25.7279 29.7007 25.8773 29.8209L29.1871 32.4861C29.3364 32.6063 29.36 32.8248 29.2398 32.9742C29.1712 33.0593 29.0706 33.1036 28.9692 33.1036Z" fill="#A9BBDB"/>
<path d="M18.027 33.1036C17.9256 33.1036 17.8251 33.0593 17.7565 32.9742C17.6362 32.8249 17.6598 32.6064 17.8091 32.4861L21.119 29.8209C21.2683 29.7007 21.4868 29.7243 21.607 29.8736C21.7272 30.0228 21.7037 30.2413 21.5543 30.3616L18.2445 33.0268C18.1804 33.0785 18.1034 33.1036 18.027 33.1036Z" fill="#A9BBDB"/>
<path d="M19.6353 15.0968C19.6341 15.0937 19.6329 15.0905 19.6316 15.0874C19.5697 14.937 19.4248 14.8398 19.2622 14.8398C19.2621 14.8398 19.2619 14.8398 19.2618 14.8398C19.099 14.84 18.9541 14.9375 18.8925 15.0881C18.8915 15.0907 18.8905 15.0933 18.8895 15.0959L18.0228 17.3714C17.9546 17.5505 18.0445 17.7511 18.2236 17.8192C18.4027 17.8875 18.6033 17.7975 18.6715 17.6184L18.8022 17.2753H19.7154L19.8445 17.6175C19.897 17.7564 20.0291 17.8421 20.1693 17.8421C20.21 17.8421 20.2514 17.8348 20.2918 17.8196C20.4711 17.7519 20.5617 17.5517 20.494 17.3723L19.6353 15.0968ZM19.0666 16.5811L19.2609 16.0708L19.4535 16.5811H19.0666Z" fill="white"/>
<path d="M26.5932 14.8398C26.4014 14.8398 26.2461 14.9952 26.2461 15.1869V17.4949C26.2461 17.6865 26.4015 17.8419 26.5932 17.8419C26.7848 17.8419 26.9402 17.6865 26.9402 17.4949V15.1869C26.9403 14.9952 26.7849 14.8398 26.5932 14.8398Z" fill="white"/>
<path d="M24.5671 14.8398H23.9135C23.8213 14.8398 23.7329 14.8765 23.6678 14.9417C23.6027 15.007 23.5662 15.0954 23.5664 15.1876C23.5664 15.1876 23.5711 17.4961 23.5711 17.4961C23.5714 17.5882 23.6083 17.6763 23.6736 17.7412C23.7387 17.8058 23.8265 17.842 23.9181 17.842H23.9194C23.9392 17.8419 24.4057 17.8401 24.5923 17.8369C25.3189 17.8242 25.8462 17.1951 25.8462 16.3409C25.8462 15.4431 25.3322 14.8398 24.5671 14.8398ZM24.5802 17.1428C24.5064 17.1441 24.3838 17.1451 24.264 17.146C24.2632 16.8779 24.2616 15.8133 24.2612 15.534H24.5671C25.1099 15.534 25.1521 16.1516 25.1521 16.3409C25.1521 16.7351 24.9752 17.1358 24.5802 17.1428Z" fill="white"/>
<path d="M22.7593 14.8398C22.5676 14.8398 22.4123 14.9952 22.4123 15.1869V16.7734C22.4123 16.873 22.3833 16.9894 22.1683 17.0976C22.101 17.1315 22.0253 17.1476 21.9436 17.1478C21.8532 17.1477 21.775 17.1257 21.7046 17.0807C21.5365 16.9733 21.5027 16.8841 21.5027 16.775V15.1869C21.5027 14.9952 21.3473 14.8398 21.1557 14.8398C20.964 14.8398 20.8086 14.9952 20.8086 15.1869V16.775C20.8086 17.1446 20.9843 17.4443 21.3309 17.6657C21.5134 17.7823 21.7193 17.8416 21.9427 17.8419H21.9445C22.1363 17.8419 22.3167 17.8001 22.4805 17.7176C22.8842 17.5143 23.1065 17.179 23.1065 16.7733V15.1869C23.1064 14.9952 22.951 14.8398 22.7593 14.8398Z" fill="white"/>
<path d="M29.0904 14.8398H27.8158C27.6241 14.8398 27.4688 14.9952 27.4688 15.1869C27.4688 15.3786 27.6241 15.534 27.8158 15.534H28.1035V17.4949C28.1035 17.6865 28.2588 17.8419 28.4505 17.8419C28.6422 17.8419 28.7976 17.6865 28.7976 17.4949V15.534H29.0903C29.2821 15.534 29.4374 15.3786 29.4374 15.1869C29.4375 14.9952 29.2821 14.8398 29.0904 14.8398Z" fill="white"/>
<path d="M26.7689 21.1346H20.2299C20.0382 21.1346 19.8828 20.9792 19.8828 20.7875C19.8828 20.5958 20.0382 20.4404 20.2299 20.4404H26.7688C26.9606 20.4404 27.1159 20.5958 27.1159 20.7875C27.116 20.9791 26.9606 21.1346 26.7689 21.1346Z" fill="#AABBDB"/>
<path d="M28.9861 22.7918H18.015C17.8234 22.7918 17.668 22.6364 17.668 22.4447C17.668 22.253 17.8234 22.0977 18.015 22.0977H28.9861C29.1779 22.0977 29.3332 22.253 29.3332 22.4447C29.3332 22.6364 29.1778 22.7918 28.9861 22.7918Z" fill="#AABBDB"/>
<path d="M29.3196 23.7539L28.4575 24.4481H18.5457L17.6836 23.7539H29.3196Z" fill="#AABBDB"/>
<path d="M27.2623 25.4111L26.4001 26.1053H20.6043L19.7422 25.4111H27.2623Z" fill="#AABBDB"/>
</g>
<defs>
<clipPath id="clip0_1300_6671">
<rect width="23" height="23" fill="white" transform="translate(12 12)"/>
</clipPath>
</defs>
</svg>
