<svg width="28" height="28" viewBox="0 0 28 28" fill="none" xmlns="http://www.w3.org/2000/svg">
<g clip-path="url(#clip0_1300_6487)">
<path d="M6.73348 24.8145H2.71094V20.8351C2.71094 20.5324 2.95627 20.2871 3.25891 20.2871H6.18562C6.48826 20.2871 6.73359 20.5324 6.73359 20.8351V24.8145H6.73348Z" fill="#C2D1F0"/>
<path d="M12.9171 24.8141H8.89453V17.8439C8.89453 17.5412 9.13986 17.2959 9.4425 17.2959H12.3692C12.6718 17.2959 12.9171 17.5412 12.9171 17.8439V24.8141Z" fill="#C2D1F0"/>
<path d="M19.1046 24.8137H15.082V14.8527C15.082 14.55 15.3274 14.3047 15.63 14.3047H18.5567C18.8594 14.3047 19.1047 14.55 19.1047 14.8527V24.8137H19.1046Z" fill="#C2D1F0"/>
<path d="M25.2882 24.8142H21.2656V11.8624C21.2656 11.5598 21.511 11.3145 21.8136 11.3145H24.7403C25.0429 11.3145 25.2883 11.5598 25.2883 11.8624L25.2882 24.8142Z" fill="#C2D1F0"/>
<path fill-rule="evenodd" clip-rule="evenodd" d="M22.5925 1.62369L23.0752 6.43209C23.0986 6.66484 22.8383 6.81791 22.6462 6.68436L21.4238 5.83444C16.4639 12.6207 8.97087 14.2417 4.43152 14.5575C3.82554 14.5997 3.66317 13.739 4.24219 13.556V13.5555C15.5707 10.0594 18.7061 3.94484 18.7061 3.94484L17.4836 3.09484C17.2914 2.96123 17.3444 2.66379 17.5709 2.60478L22.2509 1.38591C22.4136 1.34352 22.5757 1.4564 22.5925 1.62369Z" fill="#0051AA"/>
<path d="M27.589 27.6227H0.410977C0.184023 27.6227 0 27.4387 0 27.2118C0 26.9848 0.183969 26.8008 0.410977 26.8008H27.5891C27.816 26.8008 28.0001 26.9848 28.0001 27.2118C28 27.4387 27.816 27.6227 27.589 27.6227Z" fill="#C2D1F0"/>
</g>
<defs>
<clipPath id="clip0_1300_6487">
<rect width="28" height="28" fill="white"/>
</clipPath>
</defs>
</svg>
