<svg width="47" height="47" viewBox="0 0 47 47" fill="none" xmlns="http://www.w3.org/2000/svg">
<circle opacity="0.5" cx="23.5" cy="23.5" r="23" stroke="#E6EDF2"/>
<g clip-path="url(#clip0_1300_6485)">
<path d="M15.7335 32.8145H11.7109V28.8351C11.7109 28.5324 11.9563 28.2871 12.2589 28.2871H15.1856C15.4883 28.2871 15.7336 28.5324 15.7336 28.8351V32.8145H15.7335Z" fill="#C2D1F0"/>
<path d="M21.9171 32.8141H17.8945V25.8439C17.8945 25.5412 18.1399 25.2959 18.4425 25.2959H21.3692C21.6718 25.2959 21.9171 25.5412 21.9171 25.8439V32.8141Z" fill="#C2D1F0"/>
<path d="M28.1046 32.8137H24.082V22.8527C24.082 22.55 24.3274 22.3047 24.63 22.3047H27.5567C27.8594 22.3047 28.1047 22.55 28.1047 22.8527V32.8137H28.1046Z" fill="#C2D1F0"/>
<path d="M34.2882 32.8142H30.2656V19.8624C30.2656 19.5598 30.511 19.3145 30.8136 19.3145H33.7403C34.0429 19.3145 34.2883 19.5598 34.2883 19.8624L34.2882 32.8142Z" fill="#C2D1F0"/>
<path fill-rule="evenodd" clip-rule="evenodd" d="M31.5925 9.62369L32.0752 14.4321C32.0986 14.6648 31.8383 14.8179 31.6462 14.6844L30.4238 13.8344C25.4639 20.6207 17.9709 22.2417 13.4315 22.5575C12.8255 22.5997 12.6632 21.739 13.2422 21.556V21.5555C24.5707 18.0594 27.7061 11.9448 27.7061 11.9448L26.4836 11.0948C26.2914 10.9612 26.3444 10.6638 26.5709 10.6048L31.2509 9.38591C31.4136 9.34352 31.5757 9.4564 31.5925 9.62369Z" fill="#0051AA"/>
<path d="M36.589 35.6227H9.41098C9.18402 35.6227 9 35.4387 9 35.2118C9 34.9848 9.18397 34.8008 9.41098 34.8008H36.5891C36.816 34.8008 37.0001 34.9848 37.0001 35.2118C37 35.4387 36.816 35.6227 36.589 35.6227Z" fill="#C2D1F0"/>
</g>
<defs>
<clipPath id="clip0_1300_6485">
<rect width="28" height="28" fill="white" transform="translate(9 8)"/>
</clipPath>
</defs>
</svg>
