<svg width="47" height="47" viewBox="0 0 47 47" fill="none" xmlns="http://www.w3.org/2000/svg">
<circle opacity="0.5" cx="23.5" cy="23.5" r="23" stroke="#E6EDF2"/>
<path d="M33.017 33.1874H13.9831C13.4401 33.1874 13 32.7472 13 32.2043V17.7546C13 17.2116 13.4401 16.7715 13.9831 16.7715L23.2559 19.1428L33.0169 16.7715C33.5599 16.7715 34 17.2116 34 17.7546V32.2043C34 32.7472 33.5599 33.1874 33.017 33.1874Z" fill="#D1DFF9"/>
<path d="M27.7309 18.0831C27.229 18.0831 26.8222 17.6763 26.8222 17.1745V17.143C26.8222 15.3098 25.3308 13.8183 23.4975 13.8183C21.6642 13.8183 20.1728 15.3098 20.1728 17.143V17.1745C20.1728 17.6763 19.766 18.0831 19.2641 18.0831C18.7623 18.0831 18.3555 17.6763 18.3555 17.1745V17.143C18.3555 14.3077 20.6622 12.001 23.4975 12.001C26.3329 12.001 28.6396 14.3077 28.6396 17.143V17.1745C28.6396 17.6762 28.2327 18.0831 27.7309 18.0831Z" fill="#206BBD"/>
<path d="M22.4043 13.8184C22.5906 13.8184 22.7739 13.834 22.952 13.8637C21.3787 14.1256 20.175 15.4964 20.175 17.1431V17.1744C20.175 17.6762 19.7684 18.0834 19.2665 18.0834C19.0608 18.0834 18.8708 18.0146 18.7188 17.8996C18.9379 17.7335 19.0795 17.4706 19.0795 17.1744V17.1431C19.0796 15.3099 20.5711 13.8184 22.4043 13.8184Z" fill="#0051AA"/>
<path d="M28.6392 17.1422V17.1735C28.6392 17.6754 28.2326 18.0825 27.7307 18.0825C27.525 18.0825 27.3355 18.0138 27.183 17.8987C27.4021 17.7326 27.5437 17.4697 27.5437 17.1735V17.1422C27.5437 14.4917 25.5284 12.303 22.9492 12.0292C23.1288 12.0099 23.3121 12 23.4969 12C26.3323 12.0001 28.6392 14.3069 28.6392 17.1422Z" fill="#0051AA"/>
<path d="M33.9968 17.7544V32.2043C33.9968 32.7473 33.5569 33.1873 33.0139 33.1873H31.9727C32.5156 33.1873 32.9556 32.7473 32.9556 32.2043V17.7544C32.9556 17.2114 32.5156 16.7715 31.9727 16.7715H33.0139C33.5569 16.7715 33.9968 17.2114 33.9968 17.7544Z" fill="#BED0F0"/>
<path d="M23.5001 16.7715H13.9831C13.4401 16.7715 13 17.2116 13 17.7546V23.2601C13 23.2601 15.7544 23.872 19.4592 24.4403C22.1374 24.8512 24.8627 24.8512 27.5408 24.4403C31.2456 23.872 34 23.2601 34 23.2601V17.7546C34 17.2117 33.5599 16.7715 33.0169 16.7715L23.5001 16.7715Z" fill="#B8CBED"/>
<path d="M33.9968 17.7544V23.26C33.9968 23.26 33.6193 23.3438 32.9556 23.4781V17.7544C32.9556 17.2114 32.5156 16.7715 31.9727 16.7715H33.0139C33.5569 16.7715 33.9968 17.2114 33.9968 17.7544Z" fill="#A4BAE1"/>
<path d="M18.2254 25.8572H17.5555C17.0783 25.8572 16.6914 25.4703 16.6914 24.9931V23.3035C16.6914 22.8263 17.0783 22.4395 17.5555 22.4395H18.2254C18.7026 22.4395 19.0895 22.8263 19.0895 23.3035V24.9931C19.0895 25.4703 18.7026 25.8572 18.2254 25.8572Z" fill="#206BBD"/>
<path d="M29.452 25.8572H28.7821C28.3048 25.8572 27.918 25.4703 27.918 24.9931V23.3035C27.918 22.8263 28.3048 22.4395 28.7821 22.4395H29.452C29.9292 22.4395 30.316 22.8263 30.316 23.3035V24.9931C30.316 25.4703 29.9292 25.8572 29.452 25.8572Z" fill="#206BBD"/>
<path d="M19.0868 23.3037V24.9931C19.0868 25.4705 18.7 25.8574 18.2226 25.8574H17.5525C17.489 25.8574 17.4271 25.8506 17.3672 25.8371C17.7551 25.7522 18.0456 25.4065 18.0456 24.9931V23.3037C18.0456 22.8903 17.7551 22.5446 17.3672 22.4597C17.4271 22.4462 17.489 22.4395 17.5525 22.4395H18.2226C18.7 22.4395 19.0868 22.8263 19.0868 23.3037Z" fill="#0051AA"/>
<path d="M30.3134 23.3037V24.9931C30.3134 25.4705 29.9266 25.8574 29.4492 25.8574H28.7791C28.7156 25.8574 28.6536 25.8506 28.5938 25.8371C28.9821 25.7522 29.2721 25.4065 29.2721 24.9931V23.3037C29.2721 22.8903 28.9821 22.5446 28.5938 22.4597C28.6536 22.4462 28.7156 22.4395 28.7791 22.4395H29.4492C29.9266 22.4395 30.3134 22.8263 30.3134 23.3037Z" fill="#0051AA"/>
</svg>
