<svg width="21" height="22" viewBox="0 0 21 22" fill="none" xmlns="http://www.w3.org/2000/svg">
<path d="M20.017 21.1874H0.983081C0.440139 21.1874 0 20.7472 0 20.2043V5.75457C0 5.21162 0.440139 4.77148 0.983081 4.77148L10.2559 7.14282L20.0169 4.77148C20.5599 4.77148 21 5.21162 21 5.75457V20.2043C21 20.7472 20.5599 21.1874 20.017 21.1874Z" fill="#D1DFF9"/>
<path d="M14.7309 6.0831C14.229 6.0831 13.8222 5.6763 13.8222 5.17446V5.14305C13.8222 3.30978 12.3308 1.81831 10.4975 1.81831C8.66422 1.81831 7.17275 3.30978 7.17275 5.14305V5.17446C7.17275 5.6763 6.76595 6.0831 6.26411 6.0831C5.76227 6.0831 5.35547 5.6763 5.35547 5.17446V5.14305C5.35547 2.30767 7.66221 0.000976562 10.4975 0.000976562C13.3329 0.000976562 15.6396 2.30767 15.6396 5.14305V5.17446C15.6396 5.67625 15.2327 6.0831 14.7309 6.0831Z" fill="#206BBD"/>
<path d="M9.40426 1.81836C9.59064 1.81836 9.77392 1.83399 9.95198 1.86367C8.37866 2.12555 7.17495 3.49636 7.17495 5.1431V5.17435C7.17495 5.67624 6.76835 6.08335 6.26646 6.08335C6.0608 6.08335 5.87077 6.01465 5.71875 5.89956C5.93791 5.73348 6.07953 5.47059 6.07953 5.17435V5.1431C6.07958 3.30993 7.57115 1.81836 9.40426 1.81836Z" fill="#0051AA"/>
<path d="M15.6392 5.14222V5.17348C15.6392 5.67537 15.2326 6.08248 14.7307 6.08248C14.525 6.08248 14.3355 6.01377 14.183 5.89869C14.4021 5.73261 14.5437 5.46971 14.5437 5.17348V5.14222C14.5437 2.4917 12.5284 0.303033 9.94922 0.0291767C10.1288 0.00989459 10.3121 0 10.4969 0C13.3323 5.07423e-05 15.6392 2.30695 15.6392 5.14222Z" fill="#0051AA"/>
<path d="M20.9968 5.75441V20.2043C20.9968 20.7473 20.5569 21.1873 20.0139 21.1873H18.9727C19.5156 21.1873 19.9556 20.7473 19.9556 20.2043V5.75441C19.9556 5.21142 19.5156 4.77148 18.9727 4.77148H20.0139C20.5569 4.77148 20.9968 5.21142 20.9968 5.75441Z" fill="#BED0F0"/>
<path d="M10.5001 4.77148H0.983081C0.440139 4.77148 0 5.21162 0 5.75462V11.2601C0 11.2601 2.75444 11.872 6.45919 12.4403C9.13737 12.8512 11.8627 12.8512 14.5408 12.4403C18.2456 11.872 21 11.2601 21 11.2601V5.75462C21 5.21167 20.5599 4.77153 20.0169 4.77153L10.5001 4.77148Z" fill="#B8CBED"/>
<path d="M20.9968 5.75441V11.26C20.9968 11.26 20.6193 11.3438 19.9556 11.4781V5.75441C19.9556 5.21142 19.5156 4.77148 18.9727 4.77148H20.0139C20.5569 4.77148 20.9968 5.21142 20.9968 5.75441Z" fill="#A4BAE1"/>
<path d="M5.2254 13.8572H4.5555C4.07827 13.8572 3.69141 13.4703 3.69141 12.9931V11.3035C3.69141 10.8263 4.07827 10.4395 4.5555 10.4395H5.2254C5.70263 10.4395 6.08949 10.8263 6.08949 11.3035V12.9931C6.08949 13.4703 5.70263 13.8572 5.2254 13.8572Z" fill="#206BBD"/>
<path d="M16.452 13.8572H15.7821C15.3048 13.8572 14.918 13.4703 14.918 12.9931V11.3035C14.918 10.8263 15.3048 10.4395 15.7821 10.4395H16.452C16.9292 10.4395 17.316 10.8263 17.316 11.3035V12.9931C17.316 13.4703 16.9292 13.8572 16.452 13.8572Z" fill="#206BBD"/>
<path d="M6.08679 11.3037V12.9931C6.08679 13.4705 5.69998 13.8574 5.22255 13.8574H4.55255C4.48902 13.8574 4.42706 13.8506 4.36719 13.8371C4.75506 13.7522 5.04556 13.4065 5.04556 12.9931V11.3037C5.04556 10.8903 4.75506 10.5446 4.36719 10.4597C4.42706 10.4462 4.48902 10.4395 4.55255 10.4395H5.2226C5.69998 10.4395 6.08679 10.8263 6.08679 11.3037Z" fill="#0051AA"/>
<path d="M17.3134 11.3037V12.9931C17.3134 13.4705 16.9266 13.8574 16.4492 13.8574H15.7791C15.7156 13.8574 15.6536 13.8506 15.5938 13.8371C15.9821 13.7522 16.2721 13.4065 16.2721 12.9931V11.3037C16.2721 10.8903 15.9821 10.5446 15.5938 10.4597C15.6536 10.4462 15.7156 10.4395 15.7791 10.4395H16.4492C16.9266 10.4395 17.3134 10.8263 17.3134 11.3037Z" fill="#0051AA"/>
</svg>
