<svg width="47" height="47" viewBox="0 0 47 47" fill="none" xmlns="http://www.w3.org/2000/svg">
<circle opacity="0.5" cx="23.5" cy="23.5" r="23" stroke="#E6EDF2"/>
<g clip-path="url(#clip0_1300_6624)">
<path d="M23.4982 34.6624C29.6629 34.6624 34.6604 29.6649 34.6604 23.5001C34.6604 17.3354 29.6629 12.3379 23.4982 12.3379C17.3334 12.3379 12.3359 17.3354 12.3359 23.5001C12.3359 29.6649 17.3334 34.6624 23.4982 34.6624Z" fill="#D1DFF9"/>
<path d="M29.9685 14.4014C31.2679 16.226 32.0322 18.4582 32.0322 20.8689C32.0322 27.0337 27.0346 32.0312 20.8699 32.0312C18.4592 32.0312 16.227 31.2669 14.4023 29.9675C16.4258 32.8089 19.7469 34.6622 23.5009 34.6622C29.6656 34.6622 34.6631 29.6647 34.6631 23.4999C34.6631 19.7459 32.8099 16.4248 29.9685 14.4014Z" fill="#D1DFF9"/>
<path d="M31.6318 15.3682C29.4597 13.1962 26.5718 12 23.5 12C20.4282 12 17.5403 13.1962 15.3683 15.3682C13.1962 17.5403 12 20.4282 12 23.5C12 26.5718 13.1962 29.4597 15.3682 31.6317C17.5403 33.8038 20.4282 35 23.5 35C26.5718 35 29.4597 33.8038 31.6318 31.6317C33.8038 29.4597 35 26.5717 35 23.5C35 20.4283 33.8038 17.5403 31.6318 15.3682ZM34.3187 23.1622H30.2395C30.1909 20.2488 29.5145 17.5174 28.3219 15.439C27.7443 14.4323 27.0759 13.6311 26.3465 13.0561C30.8344 14.2806 34.1697 18.327 34.3187 23.1622ZM23.5 28.5495C23.3134 28.5495 23.1622 28.7007 23.1622 28.8873V34.3071C21.7025 34.1623 20.3291 33.0811 19.2639 31.2248C18.0831 29.1669 17.4328 26.4235 17.4328 23.5C17.4328 20.5765 18.0831 17.8332 19.264 15.7752C20.3291 13.9189 21.7026 12.8378 23.1623 12.6929V18.0388C23.1623 18.2254 23.3135 18.3766 23.5 18.3766C23.6866 18.3766 23.8378 18.2254 23.8378 18.0388V12.6929C25.2975 12.8378 26.6709 13.9189 27.7361 15.7752C28.9169 17.8331 29.5672 20.5765 29.5672 23.5C29.5672 26.4235 28.9169 29.1668 27.736 31.2248C26.6709 33.0811 25.2974 34.1623 23.8377 34.3071V28.8873C23.8378 28.7007 23.6866 28.5495 23.5 28.5495ZM20.6537 13.056C19.9242 13.6311 19.2558 14.4323 18.6781 15.439C17.4855 17.5175 16.809 20.2489 16.7605 23.1623C16.7603 23.1623 16.7602 23.1623 16.76 23.1623H12.6813C12.8303 18.3269 16.1657 14.2805 20.6537 13.056ZM12.6813 23.8377H16.76H16.7605C16.8091 26.7511 17.4855 29.4825 18.6781 31.561C19.2556 32.5675 19.9238 33.3688 20.6532 33.9438C16.1654 32.7192 12.8303 28.6729 12.6813 23.8377ZM26.3448 33.9444C27.0748 33.3693 27.7439 32.5684 28.322 31.561C29.5146 29.4825 30.191 26.7511 30.2396 23.8377H34.3187C34.1697 28.6736 30.8335 32.7204 26.3448 33.9444Z" fill="#B3C4E4"/>
<path d="M28.6561 29.0995H18.3429C16.8225 29.0995 15.5898 27.8669 15.5898 26.3464V20.5793C15.5898 19.0588 16.8225 17.8262 18.3429 17.8262H28.6561C30.1766 17.8262 31.4092 19.0588 31.4092 20.5793V26.3464C31.4092 27.8669 30.1766 29.0995 28.6561 29.0995Z" fill="white"/>
<path d="M29.925 18.1396C30.1245 18.5214 30.2379 18.9552 30.2379 19.4158V26.1901C30.2379 27.1506 29.4593 27.9292 28.4988 27.9292H17.1785C16.7179 27.9292 16.2841 27.8158 15.9023 27.6163C16.3631 28.4979 17.2856 29.1 18.3493 29.1H28.6488C30.173 29.1 31.4087 27.8643 31.4087 26.3401V20.5865C31.4087 19.5229 30.8066 18.6004 29.925 18.1396Z" fill="white"/>
<path d="M29.4071 20.8653H26.6872V19.578C26.6872 19.3914 26.5359 19.2402 26.3494 19.2402C26.1628 19.2402 26.0116 19.3914 26.0116 19.578V20.8653H23.4081C23.2215 20.8653 23.0703 21.0165 23.0703 21.2031C23.0703 21.3896 23.2215 21.5408 23.4081 21.5408H27.938C27.5813 22.2387 27.0676 22.9939 26.4607 23.7071C26.4041 23.7736 26.3469 23.8391 26.2894 23.9041C26.0208 23.5831 25.7938 23.2603 25.627 22.9583C25.5369 22.7951 25.3314 22.7357 25.1681 22.826C25.0048 22.9162 24.9456 23.1217 25.0358 23.285C25.2339 23.6437 25.5055 24.026 25.8256 24.4014C25.288 24.9486 24.7314 25.416 24.2093 25.7542C24.0527 25.8556 24.0079 26.0647 24.1093 26.2213C24.174 26.3211 24.2824 26.3755 24.3931 26.3755C24.456 26.3755 24.5197 26.3579 24.5764 26.3212C25.1307 25.9623 25.7179 25.4714 26.2832 24.8993C26.3173 24.9337 26.3518 24.968 26.3865 25.002C26.9518 25.5557 27.5714 26.0226 28.1313 26.317C28.1814 26.3433 28.2351 26.3558 28.2881 26.3558C28.4095 26.3558 28.5269 26.2901 28.5873 26.1751C28.6741 26.01 28.6107 25.8058 28.4455 25.719C27.9422 25.4544 27.3789 25.0284 26.8592 24.5195C26.8211 24.4821 26.7835 24.4444 26.7463 24.4066C26.8233 24.3205 26.8998 24.2335 26.9752 24.1448C27.7036 23.2889 28.3081 22.3692 28.6888 21.5408H29.4071C29.5936 21.5408 29.7448 21.3896 29.7448 21.2031C29.7448 21.0165 29.5937 20.8653 29.4071 20.8653Z" fill="#0051AA"/>
<path d="M22.4902 26.2635L20.4521 20.8628C20.4509 20.8597 20.4498 20.8567 20.4485 20.8536C20.377 20.6797 20.2093 20.5674 20.0213 20.5674C20.0212 20.5674 20.0211 20.5674 20.0209 20.5674C19.8328 20.5675 19.6651 20.6802 19.5938 20.8543C19.5927 20.8569 19.5917 20.8595 19.5907 20.8621L17.5339 26.2625C17.4675 26.4368 17.555 26.6319 17.7294 26.6984C17.8991 26.7644 18.099 26.679 18.1652 26.5029L18.5946 25.3755H21.4331L21.8583 26.502C21.9241 26.6765 22.1191 26.7646 22.2935 26.6987C22.4681 26.6329 22.5561 26.438 22.4902 26.2635ZM18.8519 24.7L20.0204 21.6319L21.1783 24.7H18.8519Z" fill="#0051AA"/>
</g>
<defs>
<clipPath id="clip0_1300_6624">
<rect width="23" height="23" fill="white" transform="translate(12 12)"/>
</clipPath>
</defs>
</svg>
