<svg width="23" height="23" viewBox="0 0 23 23" fill="none" xmlns="http://www.w3.org/2000/svg">
<g clip-path="url(#clip0_1304_7390)">
<path d="M11.4982 22.6624C17.6629 22.6624 22.6604 17.6649 22.6604 11.5001C22.6604 5.33539 17.6629 0.337891 11.4982 0.337891C5.33344 0.337891 0.335938 5.33539 0.335938 11.5001C0.335938 17.6649 5.33344 22.6624 11.4982 22.6624Z" fill="#D1DFF9"/>
<path d="M17.9685 2.40137C19.2679 4.22605 20.0322 6.45822 20.0322 8.86895C20.0322 15.0337 15.0346 20.0312 8.86993 20.0312C6.45919 20.0312 4.22703 19.2669 2.40234 17.9675C4.42576 20.8089 7.74688 22.6622 11.5009 22.6622C17.6656 22.6622 22.6631 17.6647 22.6631 11.4999C22.6631 7.7459 20.8099 4.42478 17.9685 2.40137Z" fill="#D1DFF9"/>
<path d="M19.6318 3.36824C17.4597 1.19618 14.5718 0 11.5 0C8.42824 0 5.54035 1.19618 3.36829 3.36824C1.19622 5.5403 0 8.42824 0 11.5C0 14.5718 1.19618 17.4597 3.36824 19.6317C5.54035 21.8038 8.42824 23 11.5 23C14.5718 23 17.4597 21.8038 19.6318 19.6317C21.8038 17.4597 23 14.5717 23 11.5C23 8.42829 21.8038 5.5403 19.6318 3.36824ZM22.3187 11.1622H18.2395C18.1909 8.24882 17.5145 5.51744 16.3219 3.43899C15.7443 2.43229 15.0759 1.63107 14.3465 1.05607C18.8344 2.28059 22.1697 6.32698 22.3187 11.1622ZM11.5 16.5495C11.3134 16.5495 11.1622 16.7007 11.1622 16.8873V22.3071C9.70254 22.1623 8.3291 21.0811 7.26391 19.2248C6.0831 17.1669 5.43281 14.4235 5.43281 11.5C5.43281 8.57653 6.0831 5.83315 7.26396 3.77519C8.3291 1.91893 9.70259 0.837793 11.1623 0.692875V6.03885C11.1623 6.22541 11.3135 6.37662 11.5 6.37662C11.6866 6.37662 11.8378 6.22541 11.8378 6.03885V0.692875C13.2975 0.837793 14.6709 1.91888 15.7361 3.77519C16.9169 5.83311 17.5672 8.57648 17.5672 11.5C17.5672 14.4235 16.9169 17.1668 15.736 19.2248C14.6709 21.0811 13.2974 22.1623 11.8377 22.3071V16.8873C11.8378 16.7007 11.6866 16.5495 11.5 16.5495ZM8.65371 1.05602C7.92417 1.63107 7.25578 2.43225 6.67809 3.43904C5.48546 5.51748 4.80902 8.24887 4.76046 11.1623C4.76033 11.1623 4.76019 11.1623 4.76001 11.1623H0.68133C0.830291 6.32689 4.16565 2.28046 8.65371 1.05602ZM0.68133 11.8377H4.76001H4.76046C4.80907 14.7511 5.48546 17.4825 6.67809 19.561C7.25565 20.5675 7.92381 21.3688 8.65317 21.9438C4.16543 20.7192 0.830291 16.6729 0.68133 11.8377ZM14.3448 21.9444C15.0748 21.3693 15.7439 20.5684 16.322 19.561C17.5146 17.4825 18.191 14.7511 18.2396 11.8377H22.3187C22.1697 16.6736 18.8335 20.7204 14.3448 21.9444Z" fill="#B3C4E4"/>
<path d="M16.6561 17.0995H6.34293C4.82246 17.0995 3.58984 15.8669 3.58984 14.3464V8.57925C3.58984 7.05878 4.82246 5.82617 6.34293 5.82617H16.6561C18.1766 5.82617 19.4092 7.05878 19.4092 8.57925V14.3464C19.4092 15.8669 18.1766 17.0995 16.6561 17.0995Z" fill="white"/>
<path d="M17.925 6.13965C18.1245 6.52139 18.2379 6.95525 18.2379 7.41583V14.1901C18.2379 15.1506 17.4593 15.9292 16.4988 15.9292H5.17853C4.71795 15.9292 4.28409 15.8158 3.90234 15.6163C4.36311 16.4979 5.28562 17.1 6.34928 17.1H16.6488C18.173 17.1 19.4087 15.8643 19.4087 14.3401V8.58654C19.4087 7.52288 18.8066 6.60037 17.925 6.13965Z" fill="white"/>
<path d="M17.4071 8.86528H14.6872V7.578C14.6872 7.39144 14.5359 7.24023 14.3494 7.24023C14.1628 7.24023 14.0116 7.39144 14.0116 7.578V8.86528H11.4081C11.2215 8.86528 11.0703 9.01649 11.0703 9.20305C11.0703 9.38961 11.2215 9.54082 11.4081 9.54082H15.938C15.5813 10.2387 15.0676 10.9939 14.4607 11.7071C14.4041 11.7736 14.3469 11.8391 14.2894 11.9041C14.0208 11.5831 13.7938 11.2603 13.627 10.9583C13.5369 10.7951 13.3314 10.7357 13.1681 10.826C13.0048 10.9162 12.9456 11.1217 13.0358 11.285C13.2339 11.6437 13.5055 12.026 13.8256 12.4014C13.288 12.9486 12.7314 13.416 12.2093 13.7542C12.0527 13.8556 12.0079 14.0647 12.1093 14.2213C12.174 14.3211 12.2824 14.3755 12.3931 14.3755C12.456 14.3755 12.5197 14.3579 12.5764 14.3212C13.1307 13.9623 13.7179 13.4714 14.2832 12.8993C14.3173 12.9337 14.3518 12.968 14.3865 13.002C14.9518 13.5557 15.5714 14.0226 16.1313 14.317C16.1814 14.3433 16.2351 14.3558 16.2881 14.3558C16.4095 14.3558 16.5269 14.2901 16.5873 14.1751C16.6741 14.01 16.6107 13.8058 16.4455 13.719C15.9422 13.4544 15.3789 13.0284 14.8592 12.5195C14.8211 12.4821 14.7835 12.4444 14.7463 12.4066C14.8233 12.3205 14.8998 12.2335 14.9752 12.1448C15.7036 11.2889 16.3081 10.3692 16.6888 9.54082H17.4071C17.5936 9.54082 17.7448 9.38961 17.7448 9.20305C17.7448 9.01649 17.5937 8.86528 17.4071 8.86528Z" fill="#0051AA"/>
<path d="M10.4902 14.2635L8.4521 8.86279C8.45093 8.85969 8.44976 8.85668 8.4485 8.85363C8.37699 8.67969 8.20934 8.56738 8.02134 8.56738C8.02121 8.56738 8.02107 8.56738 8.02094 8.56738C7.83276 8.56752 7.66507 8.68018 7.59377 8.85434C7.5927 8.8569 7.59171 8.85951 7.59072 8.86207L5.53393 14.2625C5.46753 14.4368 5.55504 14.6319 5.72938 14.6984C5.89914 14.7644 6.09895 14.679 6.16521 14.5029L6.59462 13.3755H9.43315L9.85829 14.502C9.9241 14.6765 10.1191 14.7646 10.2935 14.6987C10.4681 14.6329 10.5561 14.438 10.4902 14.2635ZM6.85189 12.7L8.0204 9.63194L9.17826 12.7H6.85189Z" fill="#0051AA"/>
</g>
<defs>
<clipPath id="clip0_1304_7390">
<rect width="23" height="23" fill="white"/>
</clipPath>
</defs>
</svg>
