<svg width="19" height="19" viewBox="0 0 19 19" fill="none" xmlns="http://www.w3.org/2000/svg">
<g clip-path="url(#clip0_1304_7428)">
<path d="M4.25781 12.8945L12.8937 4.25866L14.7395 6.10446L6.10362 14.7403L4.25781 12.8945Z" fill="#BBCBEB"/>
<path d="M5.28125 13.9189L13.9171 5.28308L14.7389 6.10488L6.10305 14.7407L5.28125 13.9189Z" fill="#D1DFF9"/>
<path d="M17.9685 5.97728C16.5767 7.36911 14.3129 7.35434 12.953 5.92885C11.658 4.57132 11.6804 2.39819 13.0019 1.05402C13.9432 0.0965585 15.2931 -0.208963 16.4909 0.138975C16.6279 0.178793 16.673 0.349793 16.5717 0.451064L15.0646 1.95819C15.0636 2.37114 15.0631 2.60267 15.0621 3.01562L15.9851 3.93868C16.3981 3.93771 16.6296 3.93716 17.0426 3.93619L18.5497 2.42903C18.6511 2.32765 18.822 2.373 18.8619 2.51015C19.2071 3.69877 18.9087 5.03704 17.9685 5.97728Z" fill="#D1DFF9"/>
<path d="M17.9692 5.97733C18.9095 5.03713 19.2078 3.69885 18.8626 2.5102C18.8228 2.37304 18.6519 2.3277 18.5505 2.42908L18.0747 2.9049C18.0012 3.69284 17.6625 4.46178 17.0581 5.06622C15.8433 6.28107 13.9641 6.42405 12.6016 5.49283C12.7057 5.64531 12.8226 5.79145 12.9537 5.9289C14.3135 7.35442 16.5774 7.36915 17.9692 5.97733Z" fill="#AEC1E5"/>
<path d="M1.03224 13.0226C2.42406 11.6308 4.68792 11.6456 6.04776 13.0711C7.34273 14.4286 7.32039 16.6017 5.99888 17.9459C5.05757 18.9034 3.70772 19.2089 2.50986 18.8609C2.37285 18.8211 2.3278 18.6501 2.42907 18.5489L3.9362 17.0417C3.93716 16.6288 3.93772 16.3973 3.93868 15.9843L3.01562 15.0612C2.60267 15.0622 2.37115 15.0628 1.95819 15.0637L0.451033 16.5709C0.34965 16.6723 0.178725 16.6269 0.138906 16.4898C-0.206285 15.3012 0.0920372 13.9629 1.03224 13.0226Z" fill="#D1DFF9"/>
<path d="M4.71936 13.0708C6.01433 14.4283 5.99199 16.6014 4.67048 17.9456C4.14876 18.4763 3.5015 18.8063 2.82422 18.9362C3.93832 19.1503 5.13851 18.8199 5.99811 17.9456C7.31961 16.6014 7.34195 14.4283 6.04698 13.0708C5.19298 12.1755 3.98244 11.837 2.85524 12.0536C3.5428 12.1854 4.19767 12.5238 4.71936 13.0708Z" fill="#AEC1E5"/>
<path d="M8.61903 7.78715L7.78712 8.61907L0.0574175 0.889298C-0.0191392 0.812742 -0.0191392 0.688574 0.0574175 0.61198L0.612017 0.0574175C0.688574 -0.0191392 0.812742 -0.0191392 0.889335 0.0574175L8.61903 7.78715Z" fill="#D1DFF9"/>
<path d="M13.9499 10.8265L18.6171 15.4937C19.1255 16.0021 19.1255 16.8263 18.6171 17.3347L17.3338 18.6181C16.8254 19.1265 16.0012 19.1265 15.4928 18.6181L10.8256 13.9509C10.5327 13.658 10.2806 13.3271 10.0759 12.967L9.77855 12.4438C9.57389 12.0838 9.32177 11.7528 9.0289 11.4599L7.45312 9.88417L9.8832 7.4541L11.459 9.02988C11.7518 9.32274 12.0827 9.57487 12.4429 9.77952L12.9661 10.0769C13.3261 10.2815 13.6571 10.5337 13.9499 10.8265Z" fill="#0051AA"/>
<path d="M12.9693 10.0769L12.4461 9.77952C12.086 9.5749 11.7551 9.32274 11.4622 9.02988L9.88643 7.4541L9.07422 8.26631L10.65 9.84209C10.9429 10.135 11.2738 10.3871 11.6339 10.5917L12.1571 10.8891C12.5172 11.0937 12.8481 11.3459 13.141 11.6387L17.8082 16.3059C18.3165 16.8143 18.3165 17.6385 17.8082 18.1469L18.6204 17.3347C19.1287 16.8264 19.1287 16.0021 18.6204 15.4937L13.9532 10.8265C13.6603 10.5337 13.3294 10.2815 12.9693 10.0769Z" fill="#00499A"/>
<path d="M15.5987 17.9102C15.3744 18.1345 15.0108 18.1345 14.7865 17.9102L11.3752 14.499C11.151 14.2747 11.151 13.9111 11.3752 13.6868C11.5995 13.4625 11.9632 13.4625 12.1875 13.6868L15.5987 17.098C15.823 17.3223 15.823 17.6859 15.5987 17.9102Z" fill="#518DCE"/>
<path d="M17.9112 15.5977C17.6869 15.822 17.3233 15.822 17.099 15.5977L13.6877 12.1865C13.4635 11.9622 13.4635 11.5986 13.6877 11.3743C13.912 11.15 14.2757 11.15 14.5 11.3743L17.9112 14.7855C18.1355 15.0098 18.1355 15.3734 17.9112 15.5977Z" fill="#518DCE"/>
<path d="M10.1065 7.68111L7.68013 10.1075C7.39417 10.3935 6.92626 10.3935 6.64029 10.1075L6.64025 10.1075C6.35429 9.82151 6.35429 9.35359 6.64025 9.06763L9.06665 6.64123C9.35262 6.35527 9.82053 6.35527 10.1065 6.64123L10.1065 6.64127C10.3925 6.9272 10.3925 7.39515 10.1065 7.68111Z" fill="#D1DFF9"/>
<path d="M10.1087 6.64124C9.82277 6.35527 9.35482 6.35527 9.06886 6.6412L8.32422 7.3858C8.61018 7.09983 9.0781 7.09983 9.36406 7.3858L9.3641 7.38584C9.65006 7.6718 9.65006 8.13971 9.3641 8.42568L10.1087 7.68108C10.3947 7.39515 10.3947 6.9272 10.1087 6.64124Z" fill="#ADC1E5"/>
</g>
<defs>
<clipPath id="clip0_1304_7428">
<rect width="19" height="19" fill="white"/>
</clipPath>
</defs>
</svg>
