<svg width="47" height="47" viewBox="0 0 47 47" fill="none" xmlns="http://www.w3.org/2000/svg">
<circle opacity="0.5" cx="23.5" cy="23.5" r="23" stroke="#E6EDF2"/>
<g clip-path="url(#clip0_1300_6692)">
<path d="M18.2578 25.8945L26.8937 17.2587L28.7395 19.1045L20.1036 27.7403L18.2578 25.8945Z" fill="#BBCBEB"/>
<path d="M19.2812 26.9189L27.9171 18.2831L28.7389 19.1049L20.1031 27.7407L19.2812 26.9189Z" fill="#D1DFF9"/>
<path d="M31.9685 18.9773C30.5767 20.3691 28.3129 20.3543 26.953 18.9289C25.658 17.5713 25.6804 15.3982 27.0019 14.054C27.9432 13.0966 29.2931 12.791 30.4909 13.139C30.6279 13.1788 30.673 13.3498 30.5717 13.4511L29.0646 14.9582C29.0636 15.3711 29.0631 15.6027 29.0621 16.0156L29.9851 16.9387C30.3981 16.9377 30.6296 16.9372 31.0426 16.9362L32.5497 15.429C32.6511 15.3276 32.822 15.373 32.8619 15.5102C33.2071 16.6988 32.9087 18.037 31.9685 18.9773Z" fill="#D1DFF9"/>
<path d="M31.9692 18.9773C32.9095 18.0371 33.2078 16.6989 32.8626 15.5102C32.8228 15.373 32.6519 15.3277 32.5505 15.4291L32.0747 15.9049C32.0012 16.6928 31.6625 17.4618 31.0581 18.0662C29.8433 19.2811 27.9641 19.4241 26.6016 18.4928C26.7057 18.6453 26.8226 18.7914 26.9537 18.9289C28.3135 20.3544 30.5774 20.3692 31.9692 18.9773Z" fill="#AEC1E5"/>
<path d="M15.0322 26.0226C16.4241 24.6308 18.6879 24.6456 20.0478 26.0711C21.3427 27.4286 21.3204 29.6017 19.9989 30.9459C19.0576 31.9034 17.7077 32.2089 16.5099 31.8609C16.3729 31.8211 16.3278 31.6501 16.4291 31.5489L17.9362 30.0417C17.9372 29.6288 17.9377 29.3973 17.9387 28.9843L17.0156 28.0612C16.6027 28.0622 16.3711 28.0628 15.9582 28.0637L14.451 29.5709C14.3497 29.6723 14.1787 29.6269 14.1389 29.4898C13.7937 28.3012 14.092 26.9629 15.0322 26.0226Z" fill="#D1DFF9"/>
<path d="M18.7194 26.0708C20.0143 27.4283 19.992 29.6014 18.6705 30.9456C18.1488 31.4763 17.5015 31.8063 16.8242 31.9362C17.9383 32.1503 19.1385 31.8199 19.9981 30.9456C21.3196 29.6014 21.342 27.4283 20.047 26.0708C19.193 25.1755 17.9824 24.837 16.8552 25.0536C17.5428 25.1854 18.1977 25.5238 18.7194 26.0708Z" fill="#AEC1E5"/>
<path d="M22.619 20.7872L21.7871 21.6191L14.0574 13.8893C13.9809 13.8127 13.9809 13.6886 14.0574 13.612L14.612 13.0574C14.6886 12.9809 14.8127 12.9809 14.8893 13.0574L22.619 20.7872Z" fill="#D1DFF9"/>
<path d="M27.9499 23.8265L32.6171 28.4937C33.1255 29.0021 33.1255 29.8263 32.6171 30.3347L31.3338 31.6181C30.8254 32.1265 30.0012 32.1265 29.4928 31.6181L24.8256 26.9509C24.5327 26.658 24.2806 26.3271 24.0759 25.967L23.7785 25.4438C23.5739 25.0838 23.3218 24.7528 23.0289 24.4599L21.4531 22.8842L23.8832 20.4541L25.459 22.0299C25.7518 22.3227 26.0827 22.5749 26.4429 22.7795L26.9661 23.0769C27.3261 23.2815 27.6571 23.5337 27.9499 23.8265Z" fill="#0051AA"/>
<path d="M26.9693 23.0769L26.4461 22.7795C26.086 22.5749 25.7551 22.3227 25.4622 22.0299L23.8864 20.4541L23.0742 21.2663L24.65 22.8421C24.9429 23.135 25.2738 23.3871 25.6339 23.5917L26.1571 23.8891C26.5172 24.0937 26.8481 24.3459 27.141 24.6387L31.8082 29.3059C32.3165 29.8143 32.3165 30.6385 31.8082 31.1469L32.6204 30.3347C33.1287 29.8264 33.1287 29.0021 32.6204 28.4937L27.9532 23.8265C27.6603 23.5337 27.3294 23.2815 26.9693 23.0769Z" fill="#00499A"/>
<path d="M29.5987 30.9102C29.3744 31.1345 29.0108 31.1345 28.7865 30.9102L25.3752 27.499C25.151 27.2747 25.151 26.9111 25.3752 26.6868C25.5995 26.4625 25.9632 26.4625 26.1875 26.6868L29.5987 30.098C29.823 30.3223 29.823 30.6859 29.5987 30.9102Z" fill="#518DCE"/>
<path d="M31.9112 28.5977C31.6869 28.822 31.3233 28.822 31.099 28.5977L27.6877 25.1865C27.4635 24.9622 27.4635 24.5986 27.6877 24.3743C27.912 24.15 28.2757 24.15 28.5 24.3743L31.9112 27.7855C32.1355 28.0098 32.1355 28.3734 31.9112 28.5977Z" fill="#518DCE"/>
<path d="M24.1065 20.6811L21.6801 23.1075C21.3942 23.3935 20.9263 23.3935 20.6403 23.1075L20.6403 23.1075C20.3543 22.8215 20.3543 22.3536 20.6403 22.0676L23.0667 19.6412C23.3526 19.3553 23.8205 19.3553 24.1065 19.6412L24.1065 19.6413C24.3925 19.9272 24.3925 20.3951 24.1065 20.6811Z" fill="#D1DFF9"/>
<path d="M24.1087 19.6412C23.8228 19.3553 23.3548 19.3553 23.0689 19.6412L22.3242 20.3858C22.6102 20.0998 23.0781 20.0998 23.3641 20.3858L23.3641 20.3858C23.6501 20.6718 23.6501 21.1397 23.3641 21.4257L24.1087 20.6811C24.3947 20.3951 24.3947 19.9272 24.1087 19.6412Z" fill="#ADC1E5"/>
</g>
<defs>
<clipPath id="clip0_1300_6692">
<rect width="19" height="19" fill="white" transform="translate(14 13)"/>
</clipPath>
</defs>
</svg>
