<svg width="47" height="47" viewBox="0 0 47 47" fill="none" xmlns="http://www.w3.org/2000/svg">
<circle opacity="0.5" cx="23.5" cy="23.5" r="23" stroke="#E6EDF2"/>
<g clip-path="url(#clip0_1300_6559)">
<path d="M18.0235 34.9561C17.4604 34.7895 17.1391 34.1979 17.3057 33.6349L18.2619 30.4043L20.3008 31.0078L19.3446 34.2383C19.178 34.8014 18.5865 35.1228 18.0235 34.9561Z" fill="#B6C8DC"/>
<path d="M29.8086 34.9561C30.3716 34.7895 30.693 34.1979 30.5263 33.6349L29.5702 30.4043L27.5312 31.0078L28.4874 34.2383C28.654 34.8014 29.2456 35.1228 29.8086 34.9561Z" fill="#B6C8DC"/>
<path d="M20.3026 31.0073L19.3465 34.2379C19.18 34.8009 18.5881 35.1223 18.0252 34.9553C17.9496 34.9332 17.8789 34.9033 17.8125 34.8663C18.0483 34.7359 18.2345 34.5165 18.3168 34.2379L19.4004 30.7402L20.3026 31.0073Z" fill="#9EB1C5"/>
<path d="M29.8101 34.9558C29.5257 35.04 29.2342 35 28.9936 34.8667C29.4214 34.6314 29.6432 34.1224 29.4983 33.6349L28.625 30.6843L29.572 30.4043L30.5281 33.6349C30.6945 34.1979 30.3736 34.7893 29.8101 34.9558Z" fill="#9EB1C5"/>
<path d="M23.9169 33.5437C29.5448 33.5437 34.1072 28.9813 34.1072 23.3534C34.1072 17.7254 29.5448 13.1631 23.9169 13.1631C18.2889 13.1631 13.7266 17.7254 13.7266 23.3534C13.7266 28.9813 18.2889 33.5437 23.9169 33.5437Z" fill="#0051AA"/>
<path d="M34.1055 23.353C34.1055 28.9808 29.5435 33.5433 23.9152 33.5433C21.5627 33.5433 19.3969 32.7465 17.6719 31.4074C19.1933 32.3115 20.9708 32.8307 22.869 32.8307C28.4969 32.8307 33.0594 28.2682 33.0594 22.6403C33.0594 19.3635 31.5129 16.4481 29.1094 14.584C32.1009 16.36 34.1055 19.6224 34.1055 23.353Z" fill="#0051AA"/>
<path d="M23.9156 31.4484C28.3865 31.4484 32.0109 27.824 32.0109 23.3531C32.0109 18.8822 28.3865 15.2578 23.9156 15.2578C19.4447 15.2578 15.8203 18.8822 15.8203 23.3531C15.8203 27.824 19.4447 31.4484 23.9156 31.4484Z" fill="#F9F8F9"/>
<path d="M32.0122 23.3532C32.0122 27.8243 28.388 31.4485 23.9169 31.4485C22.7491 31.4485 21.6395 31.2012 20.6367 30.7566C21.3734 30.977 22.1539 31.0954 22.9622 31.0954C27.4328 31.0954 31.0575 27.4711 31.0575 23.0001C31.0575 19.6968 29.079 16.8555 26.2424 15.5967C29.5799 16.5961 32.0122 19.691 32.0122 23.3532Z" fill="#EFEDEF"/>
<path d="M23.9167 29.4184C27.2664 29.4184 29.9819 26.7029 29.9819 23.3532C29.9819 20.0035 27.2664 17.2881 23.9167 17.2881C20.567 17.2881 17.8516 20.0035 17.8516 23.3532C17.8516 26.7029 20.567 29.4184 23.9167 29.4184Z" fill="#0051AA"/>
<path d="M29.9821 23.3533C29.9821 26.7033 27.2668 29.4185 23.9168 29.4185C22.789 29.4185 21.7328 29.1105 20.8281 28.5741C21.4729 28.8074 22.1687 28.9349 22.8938 28.9349C26.2437 28.9349 28.9591 26.2197 28.9591 22.8697C28.9591 20.6486 27.7648 18.7061 25.9835 17.6494C28.3158 18.4944 29.9821 20.7294 29.9821 23.3533Z" fill="#0051AA"/>
<path d="M23.9179 27.2596C26.0752 27.2596 27.8241 25.5108 27.8241 23.3535C27.8241 21.1961 26.0752 19.4473 23.9179 19.4473C21.7606 19.4473 20.0117 21.1961 20.0117 23.3535C20.0117 25.5108 21.7606 27.2596 23.9179 27.2596Z" fill="#F9F8F9"/>
<path d="M27.8221 23.3533C27.8221 25.511 26.0735 27.2595 23.9159 27.2595C23.1046 27.2595 22.3511 27.0122 21.7266 26.5893C22.1057 26.712 22.5104 26.7784 22.931 26.7784C25.0881 26.7784 26.8372 25.0298 26.8372 22.8722C26.8372 21.5258 26.1558 20.3383 25.1194 19.6367C26.688 20.1434 27.8221 21.6163 27.8221 23.3533Z" fill="#EFEDEF"/>
<path d="M23.9184 25.1151C24.8916 25.1151 25.6805 24.3261 25.6805 23.3529C25.6805 22.3797 24.8916 21.5908 23.9184 21.5908C22.9452 21.5908 22.1562 22.3797 22.1562 23.3529C22.1562 24.3261 22.9452 25.1151 23.9184 25.1151Z" fill="#0051AA"/>
<path d="M25.6784 23.353C25.6784 24.3264 24.8898 25.1151 23.9164 25.1151C23.5146 25.1151 23.144 24.9804 22.8477 24.7542C22.902 24.7595 22.9569 24.7619 23.0127 24.7619C23.9856 24.7619 24.7748 23.9733 24.7748 22.9998C24.7748 22.4286 24.5029 21.9205 24.0814 21.5986C24.9774 21.6819 25.6784 22.4359 25.6784 23.353Z" fill="#0051AA"/>
<path d="M23.9156 23.7147C23.8232 23.7147 23.7308 23.6794 23.6604 23.609C23.5195 23.468 23.5195 23.2395 23.6604 23.0986L33.2714 13.4875C33.4124 13.3466 33.6409 13.3466 33.7819 13.4875C33.9228 13.6284 33.9228 13.8569 33.7819 13.9979L24.1707 23.609C24.1002 23.6794 24.0079 23.7147 23.9156 23.7147Z" fill="#10213A"/>
<path d="M33.8758 13.3929L33.5944 11.1685C33.5744 11.0098 33.3806 10.9434 33.2675 11.0566L29.861 14.4631C29.8161 14.508 29.7963 14.5723 29.808 14.6347L30.2559 17.0128L33.8758 13.3929Z" fill="#10213A"/>
<path d="M33.877 13.3929L30.2566 17.0128L30.043 15.8767L33.7254 12.1943L33.877 13.3929Z" fill="#10213A"/>
<path d="M33.8778 13.3926L36.1021 13.6739C36.2609 13.694 36.3272 13.8878 36.214 14.0009L32.8076 17.4073C32.7626 17.4523 32.6984 17.4721 32.6359 17.4603L30.2578 17.0125L33.8778 13.3926Z" fill="#10213A"/>
<path d="M36.2118 14.0013L32.8056 17.408C32.7603 17.4528 32.6964 17.4725 32.6338 17.461L31.5742 17.2613L35.1518 13.6837C35.1874 13.6481 35.2052 13.6048 35.2081 13.5615L36.0997 13.6746C36.2585 13.6948 36.3249 13.8882 36.2118 14.0013Z" fill="#10213A"/>
</g>
<defs>
<clipPath id="clip0_1300_6559">
<rect width="24" height="24" fill="white" transform="translate(13 11)"/>
</clipPath>
</defs>
</svg>
