<svg width="24" height="24" viewBox="0 0 24 24" fill="none" xmlns="http://www.w3.org/2000/svg">
<g clip-path="url(#clip0_1304_7164)">
<path d="M5.02346 23.9561C4.46044 23.7895 4.13907 23.1979 4.30571 22.6349L5.26186 19.4043L7.30079 20.0078L6.34463 23.2383C6.17799 23.8014 5.58647 24.1228 5.02346 23.9561Z" fill="#B6C8DC"/>
<path d="M16.8086 23.9561C17.3716 23.7895 17.693 23.1979 17.5263 22.6349L16.5702 19.4043L14.5312 20.0078L15.4874 23.2383C15.654 23.8014 16.2456 24.1228 16.8086 23.9561Z" fill="#B6C8DC"/>
<path d="M7.30259 20.0073L6.34648 23.2379C6.17998 23.8009 5.58814 24.1223 5.02517 23.9553C4.94961 23.9332 4.87887 23.9033 4.8125 23.8663C5.04828 23.7359 5.23452 23.5165 5.31678 23.2379L6.40039 19.7402L7.30259 20.0073Z" fill="#9EB1C5"/>
<path d="M16.8101 23.9558C16.5257 24.04 16.2342 24 15.9936 23.8667C16.4214 23.6314 16.6432 23.1224 16.4983 22.6349L15.625 19.6843L16.572 19.4043L17.5281 22.6349C17.6945 23.1979 17.3736 23.7893 16.8101 23.9558Z" fill="#9EB1C5"/>
<path d="M10.9169 22.5437C16.5448 22.5437 21.1072 17.9813 21.1072 12.3534C21.1072 6.72544 16.5448 2.16309 10.9169 2.16309C5.28891 2.16309 0.726562 6.72544 0.726562 12.3534C0.726562 17.9813 5.28891 22.5437 10.9169 22.5437Z" fill="#0051AA"/>
<path d="M21.1055 12.353C21.1055 17.9808 16.5435 22.5433 10.9152 22.5433C8.56269 22.5433 6.39692 21.7465 4.67188 20.4074C6.19334 21.3115 7.97084 21.8307 9.86905 21.8307C15.4969 21.8307 20.0594 17.2682 20.0594 11.6403C20.0594 8.36355 18.5129 5.44811 16.1094 3.58398C19.1009 5.36003 21.1055 8.62239 21.1055 12.353Z" fill="#0051AA"/>
<path d="M10.9156 20.4484C15.3865 20.4484 19.0109 16.824 19.0109 12.3531C19.0109 7.88221 15.3865 4.25781 10.9156 4.25781C6.44471 4.25781 2.82031 7.88221 2.82031 12.3531C2.82031 16.824 6.44471 20.4484 10.9156 20.4484Z" fill="#F9F8F9"/>
<path d="M19.0122 12.3532C19.0122 16.8243 15.388 20.4485 10.9169 20.4485C9.74909 20.4485 8.63947 20.2012 7.63672 19.7566C8.37341 19.977 9.15387 20.0954 9.96223 20.0954C14.4328 20.0954 18.0575 16.4711 18.0575 12.0001C18.0575 8.69679 16.079 5.85546 13.2424 4.59668C16.5799 5.59605 19.0122 8.69098 19.0122 12.3532Z" fill="#EFEDEF"/>
<path d="M10.9167 18.4184C14.2664 18.4184 16.9819 15.7029 16.9819 12.3532C16.9819 9.00355 14.2664 6.28809 10.9167 6.28809C7.56702 6.28809 4.85156 9.00355 4.85156 12.3532C4.85156 15.7029 7.56702 18.4184 10.9167 18.4184Z" fill="#0051AA"/>
<path d="M16.9821 12.3533C16.9821 15.7033 14.2668 18.4185 10.9168 18.4185C9.78895 18.4185 8.73277 18.1105 7.82812 17.5741C8.47289 17.8074 9.16866 17.9349 9.89381 17.9349C13.2437 17.9349 15.9591 15.2197 15.9591 11.8697C15.9591 9.64857 14.7648 7.70607 12.9835 6.64941C15.3158 7.49438 16.9821 9.72943 16.9821 12.3533Z" fill="#0051AA"/>
<path d="M10.9179 16.2596C13.0752 16.2596 14.8241 14.5108 14.8241 12.3535C14.8241 10.1961 13.0752 8.44727 10.9179 8.44727C8.76058 8.44727 7.01172 10.1961 7.01172 12.3535C7.01172 14.5108 8.76058 16.2596 10.9179 16.2596Z" fill="#F9F8F9"/>
<path d="M14.8221 12.3533C14.8221 14.511 13.0735 16.2595 10.9159 16.2595C10.1046 16.2595 9.35113 16.0122 8.72656 15.5893C9.10573 15.712 9.51041 15.7784 9.93097 15.7784C12.0881 15.7784 13.8372 14.0298 13.8372 11.8722C13.8372 10.5258 13.1558 9.3383 12.1194 8.63672C13.688 9.14339 14.8221 10.6163 14.8221 12.3533Z" fill="#EFEDEF"/>
<path d="M10.9184 14.1151C11.8916 14.1151 12.6805 13.3261 12.6805 12.3529C12.6805 11.3797 11.8916 10.5908 10.9184 10.5908C9.94518 10.5908 9.15625 11.3797 9.15625 12.3529C9.15625 13.3261 9.94518 14.1151 10.9184 14.1151Z" fill="#0051AA"/>
<path d="M12.6784 12.353C12.6784 13.3264 11.8898 14.1151 10.9164 14.1151C10.5146 14.1151 10.144 13.9804 9.84766 13.7542C9.90203 13.7595 9.95687 13.7619 10.0127 13.7619C10.9856 13.7619 11.7748 12.9733 11.7748 11.9998C11.7748 11.4286 11.5029 10.9205 11.0814 10.5986C11.9774 10.6819 12.6784 11.4359 12.6784 12.353Z" fill="#0051AA"/>
<path d="M10.9156 12.7147C10.8232 12.7147 10.7308 12.6794 10.6604 12.609C10.5195 12.468 10.5195 12.2395 10.6604 12.0986L20.2714 2.48752C20.4124 2.34661 20.6409 2.34661 20.7819 2.48752C20.9228 2.62842 20.9228 2.85694 20.7819 2.99789L11.1707 12.609C11.1002 12.6794 11.0079 12.7147 10.9156 12.7147Z" fill="#10213A"/>
<path d="M20.8758 2.3929L20.5944 0.168495C20.5744 0.00977613 20.3806 -0.056552 20.2675 0.0566042L16.861 3.46306C16.8161 3.50801 16.7963 3.57228 16.808 3.63471L17.2559 6.01282L20.8758 2.3929Z" fill="#10213A"/>
<path d="M20.877 2.39293L17.2566 6.0128L17.043 4.87674L20.7254 1.19434L20.877 2.39293Z" fill="#10213A"/>
<path d="M20.8778 2.39258L23.1021 2.67392C23.2609 2.69398 23.3272 2.88777 23.214 3.00088L19.8076 6.40733C19.7626 6.45228 19.6984 6.47211 19.6359 6.46034L17.2578 6.0125L20.8778 2.39258Z" fill="#10213A"/>
<path d="M23.2118 3.0013L19.8056 6.40804C19.7603 6.45281 19.6964 6.47249 19.6338 6.46096L18.5742 6.26127L22.1518 2.68373C22.1874 2.6481 22.2052 2.60484 22.2081 2.56152L23.0997 2.67459C23.2585 2.69479 23.3249 2.88824 23.2118 3.0013Z" fill="#10213A"/>
</g>
<defs>
<clipPath id="clip0_1304_7164">
<rect width="24" height="24" fill="white"/>
</clipPath>
</defs>
</svg>
