<svg width="23" height="23" viewBox="0 0 23 23" fill="none" xmlns="http://www.w3.org/2000/svg">
<g clip-path="url(#clip0_1304_7642)">
<path d="M18.056 13.8149L15.6408 12.4205L14.0918 11.5261C13.1969 11.0094 12.6457 10.0546 12.6457 9.02119V4.76781C12.6457 4.14016 12.1512 3.60968 11.5236 3.59786C11.1993 3.59175 10.9049 3.72108 10.6928 3.93271C10.4859 4.13958 10.3577 4.42559 10.3577 4.74166V9.02124C10.3577 10.0546 9.80645 11.0094 8.91156 11.5262L6.17326 13.1073L4.94738 13.8148C4.39992 14.1305 4.21251 14.8302 4.52858 15.3776C4.74052 15.7446 5.12509 15.9501 5.52032 15.9501C5.71469 15.9501 5.91136 15.9006 6.09141 15.7964L8.13086 14.6187L10.0555 13.5076C10.9504 12.991 12.053 12.991 12.9479 13.5077L14.3279 14.3045L16.9121 15.7965C17.4595 16.1126 18.1592 15.9247 18.4748 15.3777C18.579 15.1972 18.6285 15.0005 18.6285 14.8066C18.6285 14.411 18.423 14.0264 18.056 13.8149Z" fill="#0051AA"/>
<path d="M12.6473 4.74173V6.40168C11.8708 6.08606 11.0859 5.90143 10.3594 5.79914V4.74168C10.3594 4.42561 10.4876 4.13959 10.6944 3.93273C10.9018 3.72586 11.1878 3.59766 11.5034 3.59766C12.135 3.59775 12.6473 4.11004 12.6473 4.74173Z" fill="#206BBD"/>
<path d="M8.13086 14.6188L6.09141 15.7966C5.91136 15.9007 5.71469 15.9502 5.52032 15.9502C5.12509 15.9502 4.74052 15.7447 4.52858 15.3778C4.21251 14.8303 4.39992 14.1306 4.94738 13.815L6.17326 13.1074C6.61295 13.7058 7.23952 14.2482 8.13086 14.6188Z" fill="#206BBD"/>
<path d="M18.6287 14.806C18.6287 14.9999 18.5792 15.1966 18.475 15.3771C18.1594 15.9241 17.4597 16.112 16.9123 15.7959L14.3281 14.3039C14.9283 13.7338 15.3532 13.0951 15.641 12.4199L18.0562 13.8143C18.4232 14.0257 18.6287 14.4103 18.6287 14.806Z" fill="#206BBD"/>
<path d="M22.5664 9.4897L20.5362 9.30179C20.3501 9.28423 20.1789 9.21339 20.0382 9.10234C19.8975 8.99129 19.7883 8.84089 19.7277 8.66408C19.6125 8.32905 19.4774 8.00369 19.3232 7.68856C19.1594 7.35259 19.2048 6.95274 19.4435 6.66488L20.7467 5.09652C20.9041 4.90632 20.8915 4.62772 20.7166 4.45373L18.5462 2.28329C18.3722 2.10836 18.0936 2.09543 17.9034 2.25319L16.3351 3.55638C16.0472 3.79518 15.6474 3.84051 15.3114 3.67668C14.9963 3.52259 14.6705 3.38742 14.3359 3.2722C13.9828 3.15051 13.7324 2.83578 13.6982 2.46419L13.5103 0.433541C13.4872 0.188357 13.2812 0 13.0346 0H9.96547C9.7188 0 9.51288 0.188357 9.48975 0.433631L9.30184 2.46428C9.26761 2.83587 9.01721 3.1506 8.66413 3.27229C8.32955 3.38751 8.00373 3.52264 7.6886 3.67677C7.35263 3.8406 6.95278 3.79522 6.66492 3.55646L5.09657 2.25328C4.90637 2.09547 4.62776 2.10845 4.45378 2.28338L2.28333 4.45378C2.10841 4.62776 2.09592 4.90637 2.25324 5.09657L3.55642 6.66492C3.79522 6.95278 3.84055 7.35259 3.67672 7.6886C3.52264 8.00373 3.38747 8.32955 3.27224 8.66413C3.15055 9.01721 2.83583 9.26761 2.46423 9.30184L0.433586 9.48975C0.188357 9.51284 0 9.71876 0 9.96542V13.0346C0 13.2812 0.188357 13.4872 0.433631 13.5103L2.46428 13.6982C2.83587 13.7324 3.1506 13.9828 3.27229 14.3359C3.38751 14.6705 3.52264 14.9963 3.67677 15.3114C3.8406 15.6474 3.79522 16.0473 3.55646 16.3351L2.25328 17.9035C2.09592 18.0937 2.10845 18.3723 2.28338 18.5463L4.45378 20.7167C4.62776 20.8916 4.90637 20.9041 5.09657 20.7468L6.66492 19.4436C6.95278 19.2048 7.35259 19.1595 7.6886 19.3233C8.00373 19.4774 8.32955 19.6125 8.66458 19.7278C9.01721 19.8494 9.26756 20.1642 9.30184 20.5358L9.32821 20.8208L9.4897 22.5664C9.51284 22.8117 9.71876 23 9.96542 23H13.0345C13.2812 23 13.4871 22.8117 13.5103 22.5664L13.6982 20.5358C13.7324 20.1642 13.9828 19.8494 14.3359 19.7278C14.6705 19.6125 14.9963 19.4774 15.3114 19.3233C15.6474 19.1595 16.0472 19.2048 16.3351 19.4436L17.9034 20.7468C18.0936 20.9041 18.3722 20.8916 18.5462 20.7167L20.7166 18.5463C20.8915 18.3723 20.904 18.0937 20.7467 17.9035L19.4435 16.3351C19.2047 16.0473 19.1594 15.6475 19.3232 15.3114C19.4773 14.9963 19.6125 14.6705 19.7277 14.3359C19.8494 13.9828 20.1641 13.7324 20.5357 13.6982L22.5664 13.5103C22.8116 13.4872 23 13.2812 23 13.0346V9.96542C23 9.71876 22.8116 9.51284 22.5664 9.4897ZM11.5 18.1871C7.80706 18.1871 4.81288 15.1929 4.81288 11.5C4.81288 7.80706 7.80706 4.81288 11.5 4.81288C15.1929 4.81288 18.1871 7.80706 18.1871 11.5C18.1871 15.1929 15.1929 18.1871 11.5 18.1871Z" fill="#D1DFF9"/>
<path d="M22.9997 9.96468V13.0337C22.9997 13.2806 22.8116 13.4865 22.5661 13.5094L20.5356 13.6974C20.164 13.7318 19.849 13.982 19.7274 14.3349C19.6121 14.6698 19.4769 14.9955 19.3232 15.3105C19.1593 15.6464 19.2045 16.0466 19.4434 16.3341L20.7465 17.9027C20.904 18.0928 20.8911 18.3713 20.7164 18.5456L18.5462 20.7157C18.3718 20.8905 18.0934 20.9034 17.9033 20.7458L16.3347 19.4427C16.0472 19.2039 15.647 19.1587 15.3111 19.3226C14.9961 19.4763 14.6704 19.6115 14.3355 19.7268C13.9827 19.8483 13.7324 20.1634 13.698 20.535L13.51 22.5654C13.4871 22.8109 13.2812 22.9991 13.0343 22.9991H9.96521C9.71827 22.9991 9.51244 22.8109 9.48953 22.5654L9.32812 20.8198C17.1931 18.217 19.7368 12.2929 20.5358 9.30078L22.5661 9.48896C22.8116 9.51191 22.9997 9.71775 22.9997 9.96468Z" fill="#B8CBED"/>
<path d="M11.5058 12.2402C11.5035 12.2402 11.5011 12.2402 11.4986 12.2402L11.486 12.2401C11.0259 12.2361 10.6563 11.86 10.6602 11.4C10.6642 10.9424 11.0363 10.5742 11.493 10.5742H11.5003L11.5129 10.5743C11.973 10.5783 12.3426 10.9544 12.3387 11.4144C12.3347 11.872 11.9626 12.2402 11.5058 12.2402Z" fill="#D1D0D8"/>
</g>
<defs>
<clipPath id="clip0_1304_7642">
<rect width="23" height="23" fill="white"/>
</clipPath>
</defs>
</svg>
