<svg width="47" height="47" viewBox="0 0 47 47" fill="none" xmlns="http://www.w3.org/2000/svg">
<circle opacity="0.5" cx="23.5" cy="23.5" r="23" stroke="#E6EDF2"/>
<g clip-path="url(#clip0_1304_7471)">
<path d="M30.056 25.8149L27.6408 24.4205L26.0918 23.5261C25.1969 23.0094 24.6457 22.0546 24.6457 21.0212V16.7678C24.6457 16.1402 24.1512 15.6097 23.5236 15.5979C23.1993 15.5918 22.9049 15.7211 22.6928 15.9327C22.4859 16.1396 22.3577 16.4256 22.3577 16.7417V21.0212C22.3577 22.0546 21.8064 23.0094 20.9116 23.5262L18.1733 25.1073L16.9474 25.8148C16.3999 26.1305 16.2125 26.8302 16.5286 27.3776C16.7405 27.7446 17.1251 27.9501 17.5203 27.9501C17.7147 27.9501 17.9114 27.9006 18.0914 27.7964L20.1309 26.6187L22.0555 25.5076C22.9504 24.991 24.053 24.991 24.9479 25.5077L26.3279 26.3045L28.9121 27.7965C29.4595 28.1126 30.1592 27.9247 30.4748 27.3777C30.579 27.1972 30.6285 27.0005 30.6285 26.8066C30.6285 26.411 30.423 26.0264 30.056 25.8149Z" fill="#0051AA"/>
<path d="M24.6473 16.7417V18.4017C23.8708 18.0861 23.0859 17.9014 22.3594 17.7991V16.7417C22.3594 16.4256 22.4876 16.1396 22.6944 15.9327C22.9018 15.7259 23.1878 15.5977 23.5034 15.5977C24.135 15.5977 24.6473 16.11 24.6473 16.7417Z" fill="#206BBD"/>
<path d="M20.1309 26.6188L18.0914 27.7966C17.9114 27.9007 17.7147 27.9502 17.5203 27.9502C17.1251 27.9502 16.7405 27.7447 16.5286 27.3778C16.2125 26.8303 16.3999 26.1306 16.9474 25.815L18.1733 25.1074C18.613 25.7058 19.2395 26.2482 20.1309 26.6188Z" fill="#206BBD"/>
<path d="M30.6287 26.806C30.6287 26.9999 30.5792 27.1966 30.475 27.3771C30.1594 27.9241 29.4597 28.112 28.9123 27.7959L26.3281 26.3039C26.9283 25.7338 27.3532 25.0951 27.641 24.4199L30.0562 25.8143C30.4232 26.0257 30.6287 26.4103 30.6287 26.806Z" fill="#206BBD"/>
<path d="M34.5664 21.4897L32.5362 21.3018C32.3501 21.2842 32.1789 21.2134 32.0382 21.1023C31.8975 20.9913 31.7883 20.8409 31.7277 20.6641C31.6125 20.3291 31.4774 20.0037 31.3232 19.6886C31.1594 19.3526 31.2048 18.9527 31.4435 18.6649L32.7467 17.0965C32.9041 16.9063 32.8915 16.6277 32.7166 16.4537L30.5462 14.2833C30.3722 14.1084 30.0936 14.0954 29.9034 14.2532L28.3351 15.5564C28.0472 15.7952 27.6474 15.8405 27.3114 15.6767C26.9963 15.5226 26.6705 15.3874 26.3359 15.2722C25.9828 15.1505 25.7324 14.8358 25.6982 14.4642L25.5103 12.4335C25.4872 12.1884 25.2812 12 25.0346 12H21.9655C21.7188 12 21.5129 12.1884 21.4897 12.4336L21.3018 14.4643C21.2676 14.8359 21.0172 15.1506 20.6641 15.2723C20.3295 15.3875 20.0037 15.5226 19.6886 15.6768C19.3526 15.8406 18.9528 15.7952 18.6649 15.5565L17.0966 14.2533C16.9064 14.0955 16.6278 14.1085 16.4538 14.2834L14.2833 16.4538C14.1084 16.6278 14.0959 16.9064 14.2532 17.0966L15.5564 18.6649C15.7952 18.9528 15.8406 19.3526 15.6767 19.6886C15.5226 20.0037 15.3875 20.3295 15.2722 20.6641C15.1506 21.0172 14.8358 21.2676 14.4642 21.3018L12.4336 21.4897C12.1884 21.5128 12 21.7188 12 21.9654V25.0346C12 25.2812 12.1884 25.4872 12.4336 25.5103L14.4643 25.6982C14.8359 25.7324 15.1506 25.9828 15.2723 26.3359C15.3875 26.6705 15.5226 26.9963 15.6768 27.3114C15.8406 27.6474 15.7952 28.0473 15.5565 28.3351L14.2533 29.9035C14.0959 30.0937 14.1085 30.3723 14.2834 30.5463L16.4538 32.7167C16.6278 32.8916 16.9064 32.9041 17.0966 32.7468L18.6649 31.4436C18.9528 31.2048 19.3526 31.1595 19.6886 31.3233C20.0037 31.4774 20.3295 31.6125 20.6646 31.7278C21.0172 31.8494 21.2676 32.1642 21.3018 32.5358L21.3282 32.8208L21.4897 34.5664C21.5128 34.8117 21.7188 35 21.9654 35H25.0345C25.2812 35 25.4871 34.8117 25.5103 34.5664L25.6982 32.5358C25.7324 32.1642 25.9828 31.8494 26.3359 31.7278C26.6705 31.6125 26.9963 31.4774 27.3114 31.3233C27.6474 31.1595 28.0472 31.2048 28.3351 31.4436L29.9034 32.7468C30.0936 32.9041 30.3722 32.8916 30.5462 32.7167L32.7166 30.5463C32.8915 30.3723 32.904 30.0937 32.7467 29.9035L31.4435 28.3351C31.2047 28.0473 31.1594 27.6475 31.3232 27.3114C31.4773 26.9963 31.6125 26.6705 31.7277 26.3359C31.8494 25.9828 32.1641 25.7324 32.5357 25.6982L34.5664 25.5103C34.8116 25.4872 35 25.2812 35 25.0346V21.9654C35 21.7188 34.8116 21.5128 34.5664 21.4897ZM23.5 30.1871C19.8071 30.1871 16.8129 27.1929 16.8129 23.5C16.8129 19.8071 19.8071 16.8129 23.5 16.8129C27.1929 16.8129 30.1871 19.8071 30.1871 23.5C30.1871 27.1929 27.1929 30.1871 23.5 30.1871Z" fill="#D1DFF9"/>
<path d="M34.9997 21.9647V25.0337C34.9997 25.2806 34.8116 25.4865 34.5661 25.5094L32.5356 25.6974C32.164 25.7318 31.849 25.982 31.7274 26.3349C31.6121 26.6698 31.4769 26.9955 31.3232 27.3105C31.1593 27.6464 31.2045 28.0466 31.4434 28.3341L32.7465 29.9027C32.904 30.0928 32.8911 30.3713 32.7164 30.5456L30.5462 32.7157C30.3718 32.8905 30.0934 32.9034 29.9033 32.7458L28.3347 31.4427C28.0472 31.2039 27.647 31.1587 27.3111 31.3226C26.9961 31.4763 26.6704 31.6115 26.3355 31.7268C25.9827 31.8483 25.7324 32.1634 25.698 32.535L25.51 34.5654C25.4871 34.8109 25.2812 34.9991 25.0343 34.9991H21.9652C21.7183 34.9991 21.5124 34.8109 21.4895 34.5654L21.3281 32.8198C29.1931 30.217 31.7368 24.2929 32.5358 21.3008L34.5661 21.489C34.8116 21.5119 34.9997 21.7177 34.9997 21.9647Z" fill="#B8CBED"/>
<path d="M23.5058 24.2402C23.5035 24.2402 23.5011 24.2402 23.4986 24.2402L23.486 24.2401C23.0259 24.2361 22.6563 23.86 22.6602 23.4C22.6642 22.9424 23.0363 22.5742 23.493 22.5742H23.5003L23.5129 22.5743C23.973 22.5783 24.3426 22.9544 24.3387 23.4144C24.3347 23.872 23.9626 24.2402 23.5058 24.2402Z" fill="#D1D0D8"/>
</g>
<defs>
<clipPath id="clip0_1304_7471">
<rect width="23" height="23" fill="white" transform="translate(12 12)"/>
</clipPath>
</defs>
</svg>
