<svg width="27" height="27" viewBox="0 0 27 27" fill="none" xmlns="http://www.w3.org/2000/svg">
<path d="M1.28516 12.4283V12.729C1.28516 13.0975 1.34459 13.4636 1.46108 13.8133L2.1423 15.8569H3.42802V11.1426H2.57087C1.8608 11.1426 1.28516 11.7182 1.28516 12.4283Z" fill="#10213A"/>
<path d="M7.15546 13.3194L6.43025 15.8577L3.00168 12.8577C2.52828 12.8577 2.14453 12.474 2.14453 12.0006C2.14453 11.2905 2.72018 10.7148 3.43025 10.7148H6.43025C6.90365 10.7148 7.2874 11.0986 7.2874 11.572V12.3775C7.2874 12.6961 7.243 13.0131 7.15546 13.3194Z" fill="#1B2B42"/>
<path d="M5.57143 17.1426H3V19.0394H5.57143V17.1426Z" fill="#BDCDEB"/>
<path d="M3 17.9298C3.39751 18.0914 3.83094 18.1823 4.28572 18.1823C4.7405 18.1823 5.17392 18.0914 5.57143 17.9298V17.1426H3V17.9298Z" fill="#BDCDEB"/>
<path d="M7.63889 18.7733L5.57128 18.1827L4.28572 19.0358L3.00001 18.1826L0.932502 18.7733C0.380531 18.931 0 19.4355 0 20.0096V23.143C0 23.3796 0.1919 23.5715 0.428572 23.5715H8.14287C8.37954 23.5715 8.57144 23.3796 8.57144 23.143V20.0096C8.57144 19.4355 8.19086 18.931 7.63889 18.7733Z" fill="#D1DFF9"/>
<path d="M4.71261 23.5708H3.85547L4.06973 19.0391H4.4983L4.71261 23.5708Z" fill="#B8C9E8"/>
<path d="M4.28628 17.5713C2.86609 17.5713 1.71484 16.4201 1.71484 14.9999V14.4978C1.71484 14.2704 1.80513 14.0524 1.96591 13.8917L2.74306 13.1146C2.90764 12.95 3.13266 12.8554 3.36527 12.8627C4.73526 12.9059 5.94788 13.1994 6.61076 13.8468C6.77302 14.0053 6.85771 14.227 6.85771 14.4538V14.9999C6.85771 16.4201 5.70641 17.5713 4.28628 17.5713Z" fill="#D1DFF9"/>
<path d="M3.00056 14.6041C3.00056 14.1098 3.41574 13.7168 3.90912 13.7483C4.77433 13.8035 6.0581 13.9481 6.84579 14.3269C6.82006 14.1461 6.74238 13.9754 6.61076 13.8468C5.94789 13.1994 4.73526 12.9059 3.36527 12.8627C3.13271 12.8554 2.90759 12.95 2.74306 13.1146L1.96591 13.8918C1.80513 14.0525 1.71484 14.2706 1.71484 14.4979V15C1.71484 16.1727 2.50059 17.16 3.57378 17.4692C3.21656 17.0285 3.00056 16.469 3.00056 15.8571V14.6041Z" fill="#C1D1F0"/>
<path d="M1.71429 21.2868C1.71429 20.9458 1.57881 20.6187 1.33771 20.3776L0.23451 19.2744C0.0870645 19.4851 0 19.7389 0 20.0097V23.1431C0 23.3798 0.1919 23.5717 0.428572 23.5717H1.71429V21.2868Z" fill="#B8C9E8"/>
<path d="M4.4983 19.8962H4.06973C3.95139 19.8962 3.85547 19.8003 3.85547 19.6819V19.0391H4.71261V19.6819C4.71261 19.8002 4.61669 19.8962 4.4983 19.8962Z" fill="#B8C9E8"/>
<path d="M4.28704 19.0353L3.56062 19.5902C3.43548 19.6858 3.2546 19.6475 3.17898 19.5093L2.52734 18.3193L2.78964 17.9192C2.84781 17.8305 2.97179 17.8154 3.04957 17.8876L4.28704 19.0353Z" fill="#B8C9E8"/>
<path d="M4.28516 19.0353L5.01157 19.5902C5.13671 19.6858 5.31759 19.6475 5.39321 19.5093L6.04485 18.3193L5.78255 17.9192C5.72438 17.8305 5.6004 17.8154 5.52262 17.8876L4.28516 19.0353Z" fill="#B8C9E8"/>
<path d="M13.7133 18.4287C16.5171 18.4287 19.0344 17.2822 19.8586 16.8644C20.0267 16.7793 20.1195 16.5971 20.0884 16.4113C19.9554 15.6166 19.5974 13.2362 19.2846 9.00015C19.0303 5.55428 16.7903 3.42871 13.7132 3.42871C10.6362 3.42871 8.39616 5.55428 8.14177 9.00015C7.82905 13.2363 7.47104 15.6166 7.33799 16.4113C7.30687 16.5971 7.39974 16.7792 7.5678 16.8644C8.39209 17.2822 10.9094 18.4287 13.7133 18.4287Z" fill="#1B2B42"/>
<path d="M19.8587 16.8644C20.0268 16.7792 20.1196 16.5971 20.0885 16.4113C19.9555 15.6166 19.5975 13.2363 19.2847 9.00015C19.0304 5.55428 16.7903 3.42871 13.7133 3.42871C13.4977 3.42871 13.2862 3.43915 13.0792 3.45977C10.6839 3.69834 10.3242 7.08083 12.6265 7.78367C12.6631 7.79485 12.6834 7.80013 12.6834 7.80013L13.5402 18.4244C13.5413 18.4255 13.5421 18.4262 13.5433 18.4273C16.4149 18.4753 19.0179 17.2906 19.8587 16.8644Z" fill="#10213A"/>
<path d="M6.42969 23.1429V20.8312C6.42969 20.1523 6.83036 19.5374 7.45136 19.263L11.0617 17.6685C11.3722 17.5313 11.5725 17.2239 11.5725 16.8844V15H15.8582V16.8844C15.8582 17.2239 16.0586 17.5314 16.3691 17.6685L19.9794 19.263C20.6004 19.5373 21.001 20.1523 21.001 20.8312V23.1429C21.001 23.3795 20.8091 23.5714 20.5725 23.5714H6.85826C6.62154 23.5714 6.42969 23.3796 6.42969 23.1429Z" fill="#BDCDEB"/>
<path d="M19.9795 19.263L17.3165 18.0869C16.7628 19.5384 15.3615 20.5714 13.7154 20.5714C12.0694 20.5714 10.6681 19.5385 10.1143 18.0869L7.45136 19.263C6.83036 19.5373 6.42969 20.1523 6.42969 20.8312V23.1429C6.42969 23.3795 6.62154 23.5714 6.85826 23.5714H20.5725C20.8092 23.5714 21.0011 23.3795 21.0011 23.1429V20.8312C21.0011 20.1523 20.6005 19.5374 19.9795 19.263Z" fill="#0051AA"/>
<path d="M11.5703 16.2422C12.2233 16.5423 12.9474 16.7143 13.7132 16.7143C14.4789 16.7143 15.203 16.5423 15.856 16.2422V15H11.5703V16.2422Z" fill="#BDCDEB"/>
<path d="M17.569 9.85744C16.8808 9.25896 15.3358 8.20064 12.6855 7.79996C12.3187 7.74448 11.9489 7.92499 11.7857 8.25817C11.5138 8.8133 10.9355 9.7022 9.78723 10.4855C9.55931 10.641 9.42969 10.9055 9.42969 11.1813V11.4246C9.42969 13.7073 11.1522 15.7004 13.4301 15.8479C15.9262 16.0095 18.0011 14.0327 18.0011 11.5714V10.8195C18.0011 10.4512 17.8469 10.0991 17.569 9.85744Z" fill="#D1DFF9"/>
<path d="M17.8091 10.153C17.7432 10.0447 17.6668 9.94251 17.569 9.85744C16.8808 9.25891 15.3357 8.20064 12.6855 7.79996C12.3187 7.74448 11.9489 7.92499 11.7857 8.25812C11.7202 8.39196 11.6325 8.54789 11.5272 8.71448C11.1982 9.23708 10.6617 9.8874 9.79408 10.4807C9.56411 10.638 9.42969 10.9027 9.42969 11.1813V11.4246C9.42969 13.6276 11.0359 15.5557 13.1955 15.8205C12.4573 15.0506 12.0011 14.008 12.0011 12.8571V10.1627C12.0011 9.72176 12.3322 9.35357 12.7709 9.30927C13.8013 9.20528 15.7401 9.19637 17.8091 10.153Z" fill="#C1D1F0"/>
<path d="M7.07067 19.498C6.67269 19.8186 6.42969 20.3045 6.42969 20.8311V23.1428C6.42969 23.3795 6.62159 23.5714 6.85826 23.5714H9.42969V22.3896C9.42969 22.0487 9.29422 21.7216 9.05312 21.4805L7.07067 19.498Z" fill="#004087"/>
<path d="M20.359 19.498C20.757 19.8186 21 20.3045 21 20.8311V23.1428C21 23.3795 20.8081 23.5714 20.5714 23.5714H18V22.3896C18 22.0487 18.1355 21.7216 18.3766 21.4805L20.359 19.498Z" fill="#004087"/>
</svg>
