<svg width="47" height="47" viewBox="0 0 47 47" fill="none" xmlns="http://www.w3.org/2000/svg">
<circle opacity="0.5" cx="23.5" cy="23.5" r="23" stroke="#E6EDF2"/>
<g clip-path="url(#clip0_1300_6501)">
<path d="M27.7594 10C25.5213 10 23.707 11.8178 23.707 14.0603V15.6958C23.978 15.4443 24.4539 15.3076 24.8302 15.3578V15.1555C24.8302 14.9948 24.967 14.8677 25.1261 14.8798C26.6928 14.9926 28.1966 14.4937 29.4023 13.7046C29.5149 13.6311 29.6639 13.6493 29.7553 13.7477C30.7862 14.8577 30.6892 14.8149 30.6892 14.9597V15.357C31.1014 15.2951 31.5579 15.4229 31.812 15.6595V14.0603C31.812 11.8178 29.9977 10 27.7594 10Z" fill="#576574"/>
<path d="M25.2765 14.0603C25.2765 12.0868 26.6817 10.4429 28.5443 10.0768C28.2902 10.0268 28.028 10 27.7594 10C25.5213 10 23.707 11.8178 23.707 14.0603V15.6958C23.978 15.4443 24.4539 15.3076 24.8302 15.3578V15.1555C24.8302 14.9948 24.9672 14.8677 25.1261 14.8798C25.1763 14.8833 25.2265 14.8863 25.2767 14.8887V14.0603H25.2765Z" fill="#3E4B5A"/>
<path d="M24.7788 17.4751V15.1884C24.0754 15.0943 23.3398 15.6353 23.3398 16.3684C23.3398 17.0857 23.9712 17.6717 24.7806 17.5491C24.78 17.5243 24.7788 17.4997 24.7788 17.4751Z" fill="#D1DFF9"/>
<path d="M30.7285 15.1782V17.485C30.7285 17.51 30.7272 17.5348 30.7266 17.5596C31.5414 17.6834 32.1796 17.0934 32.1796 16.369C32.1796 15.6432 31.5408 15.0562 30.7285 15.1782Z" fill="#D1DFF9"/>
<path d="M24.7788 17.2281C24.5499 17.0091 24.4124 16.7031 24.4124 16.3684C24.4124 16.0435 24.5568 15.7567 24.7788 15.5458V15.1884C24.0754 15.0943 23.3398 15.6353 23.3398 16.3684C23.3398 17.0857 23.9712 17.6717 24.7806 17.5491C24.78 17.5243 24.7788 17.4997 24.7788 17.4751V17.2281Z" fill="#B3C2E0"/>
<path d="M31.8011 15.4938C31.5375 15.247 31.1572 15.1139 30.7285 15.1782V17.485C30.7285 17.51 30.7272 17.5347 30.7266 17.5595C31.1566 17.6248 31.5373 17.4913 31.8011 17.2441V15.4938Z" fill="#B3C2E0"/>
<path d="M25.5208 22.1814C26.7506 23.4908 28.7632 23.4906 29.9929 22.1814L30.4485 21.6964L29.7461 21.4239C29.5908 21.3638 29.4884 21.214 29.4884 21.047V19.7188C29.0088 20.0504 28.428 20.245 27.8023 20.245C27.1477 20.245 26.5723 20.0651 26.1018 19.7638V21.0325C26.1018 21.2081 25.994 21.3658 25.8306 21.4292L25.0859 21.7185L25.5208 22.1814Z" fill="#CAD9F4"/>
<path d="M27.6641 20.2429C27.0666 20.2195 26.5388 20.0443 26.1018 19.7646V21.0334C26.1018 21.2089 25.994 21.3666 25.8306 21.4301L25.0859 21.7193L25.5208 22.1823C26.1123 22.8119 26.8847 23.1378 27.6641 23.1618V20.2429Z" fill="#CAD9F4"/>
<path d="M33.9669 23.0623L30.3305 21.6514L29.8619 22.1503C28.7047 23.3821 26.8113 23.3821 25.6543 22.1505L25.205 21.6722L21.6255 23.0623C21.6255 23.0623 19.9688 23.7449 19.9688 25.6373V29.4284C19.9688 29.8462 20.3068 30.1848 20.7237 30.1848H34.8687C35.2856 30.1848 35.6238 29.8462 35.6238 29.4284V25.6373C35.6238 23.7449 33.9669 23.0623 33.9669 23.0623Z" fill="#81ABD9"/>
<path d="M26.966 27.4266C26.9561 27.4224 26.946 27.4185 26.9361 27.4145L24.0217 26.2838C23.8656 26.2233 23.8103 26.0323 23.9075 25.8958C24.1324 25.5796 24.3181 25.2337 24.4573 24.8649C24.4944 24.7665 24.5674 24.6866 24.6605 24.6382C24.8475 24.541 25.0239 24.4226 25.1855 24.2835C25.7023 23.8392 26.0319 23.2241 26.1222 22.5568C25.9566 22.4409 25.7997 22.3056 25.6543 22.1511L25.205 21.6729L21.6257 23.063C21.6257 23.063 19.9688 23.7456 19.9688 25.6379V29.4289C19.9688 29.8468 20.3068 30.1854 20.7239 30.1854H29.4156C28.9622 28.6473 27.7478 27.7485 26.966 27.4266Z" fill="#749DCA"/>
<path d="M29.7543 13.6115C29.6629 13.5131 29.5139 13.4949 29.4012 13.5684C28.1956 14.3575 26.6011 14.8564 25.0342 14.7436C24.8754 14.7315 24.7383 14.8586 24.7383 15.0195V17.4451C24.7383 19.004 25.9574 20.4279 27.8016 20.4279C29.4433 20.4279 30.7789 19.0897 30.7789 17.4451V14.8235C30.7789 14.6787 30.785 14.7215 29.7543 13.6115Z" fill="#D1DFF9"/>
<path d="M26.3077 17.4449V14.7061C25.8868 14.7592 25.4595 14.7739 25.0342 14.7433C24.8754 14.7312 24.7383 14.8584 24.7383 15.0191V17.4447C24.7383 19.0036 25.9574 20.4275 27.8016 20.4275C28.0635 20.4275 28.3176 20.3931 28.5596 20.3293C27.1778 19.9821 26.3077 18.7616 26.3077 17.4449Z" fill="#C1D1F0"/>
<path d="M33.1988 30.1856V26.2576C33.1988 26.0408 33.0232 25.8652 32.8064 25.8652C32.5898 25.8652 32.4141 26.0408 32.4141 26.2576V30.1856H33.1988Z" fill="#15BA8B"/>
<path d="M33.1988 30.1856V26.2576C33.1988 26.0408 33.0232 25.8652 32.8064 25.8652C32.5898 25.8652 32.4141 26.0408 32.4141 26.2576V30.1856H33.1988Z" fill="#749DCA"/>
<path d="M17.9231 27.9969C19.153 29.3063 21.1656 29.3061 22.3952 27.9969L22.8508 27.5119L22.1484 27.2393C21.9931 27.179 21.8908 27.0294 21.8908 26.8624V25.5342C21.4111 25.8656 20.8303 26.0604 20.2047 26.0604C19.5501 26.0604 18.9746 25.8803 18.5041 25.5792V26.8479C18.5041 27.0237 18.3964 27.1812 18.2329 27.2447L17.4883 27.5339L17.9231 27.9969Z" fill="#CAD9F4"/>
<path d="M20.07 26.0578C19.4709 26.0347 18.9421 25.8596 18.5041 25.5791V26.8478C18.5041 27.0236 18.3964 27.1811 18.2329 27.2446L17.4883 27.534L17.9231 27.9968C18.5154 28.6274 19.2894 28.9533 20.07 28.9765V26.0578Z" fill="#CAD9F4"/>
<path d="M26.3692 28.8778L22.7328 27.4668L22.2643 27.9657C21.1072 29.1975 19.2137 29.1975 18.0566 27.9657L17.6073 27.4874L14.028 28.8778C14.028 28.8778 12.3711 29.5601 12.3711 31.4525V35.2437C12.3711 35.6614 12.7093 36.0002 13.1263 36.0002H27.2712C27.6882 36.0002 28.0262 35.6614 28.0262 35.2437V31.4525C28.0262 29.5601 26.3692 28.8778 26.3692 28.8778Z" fill="#0051AA"/>
<path d="M13.9405 35.2437V30.7202C13.9405 29.5593 14.5638 28.8546 15.0458 28.4824L14.028 28.8778C14.028 28.8778 12.3711 29.5603 12.3711 31.4527V35.2437C12.3711 35.6616 12.7093 36.0002 13.1263 36.0002H14.6957C14.2788 36.0002 13.9405 35.6614 13.9405 35.2437Z" fill="#004591"/>
<path d="M15.5816 36.0003V32.0722C15.5816 31.8554 15.4059 31.6797 15.1892 31.6797C14.9724 31.6797 14.7969 31.8554 14.7969 32.0722V36.0003H15.5816Z" fill="#004591"/>
<path d="M25.5972 36.0003V32.0722C25.5972 31.8554 25.4217 31.6797 25.2049 31.6797C24.9883 31.6797 24.8125 31.8554 24.8125 32.0722V36.0003H25.5972Z" fill="#004591"/>
<path d="M20.1618 15.8145C17.9236 15.8145 16.1094 17.6323 16.1094 19.8746V21.5103C16.3801 21.2587 16.8562 21.1221 17.2323 21.1723V20.9699C17.2323 20.8093 17.3694 20.6821 17.5285 20.6942C19.0951 20.8071 20.5989 20.3082 21.8046 19.5191C21.9171 19.4453 22.0662 19.4638 22.1577 19.5621C23.1884 20.6722 23.0914 20.6293 23.0914 20.7741V21.1715C23.5038 21.1096 23.9602 21.2371 24.2143 21.474V19.8748C24.2143 17.6323 22.4001 15.8145 20.1618 15.8145Z" fill="#576574"/>
<path d="M17.6788 19.8746C17.6788 17.9012 19.084 16.2574 20.9467 15.8912C20.6926 15.8412 20.4303 15.8145 20.1618 15.8145C17.9236 15.8145 16.1094 17.6323 16.1094 19.8746V21.5103C16.3801 21.2587 16.8562 21.1221 17.2325 21.1723V20.9699C17.2325 20.8093 17.3696 20.6821 17.5285 20.6942C17.5787 20.6978 17.6288 20.7008 17.6788 20.7031V19.8746Z" fill="#3E4B5A"/>
<path d="M17.1811 23.2905V21.0038C16.4777 20.9098 15.7422 21.4507 15.7422 22.1839C15.7422 22.9011 16.3736 23.4871 17.1829 23.3645C17.1823 23.3397 17.1811 23.3151 17.1811 23.2905Z" fill="#D1DFF9"/>
<path d="M23.127 20.9927V23.2995C23.127 23.3245 23.1256 23.3493 23.125 23.374C23.9399 23.4976 24.578 22.9079 24.578 22.1835C24.5778 21.4577 23.9393 20.8707 23.127 20.9927Z" fill="#D1DFF9"/>
<path d="M17.1811 23.0434C16.9522 22.8246 16.8147 22.5185 16.8147 22.1839C16.8147 21.8589 16.9591 21.5721 17.1811 21.3612V21.0038C16.4777 20.9098 15.7422 21.4507 15.7422 22.1839C15.7422 22.9011 16.3736 23.4871 17.1829 23.3645C17.1823 23.3397 17.1811 23.3151 17.1811 23.2905V23.0434Z" fill="#B3C2E0"/>
<path d="M24.1995 21.3082C23.9359 21.0615 23.5556 20.9284 23.127 20.9926V23.2994C23.127 23.3244 23.1256 23.3492 23.125 23.374C23.5551 23.4393 23.9357 23.3058 24.1995 23.0586V21.3082Z" fill="#B3C2E0"/>
<path d="M22.1567 19.4259C22.0652 19.3276 21.916 19.3093 21.8036 19.3829C20.5979 20.172 19.0035 20.6709 17.4366 20.558C17.2777 20.5459 17.1406 20.6731 17.1406 20.8337V23.2595C17.1406 24.8185 18.3598 26.2423 20.204 26.2423C21.8456 26.2423 23.1812 24.9042 23.1812 23.2595V20.6379C23.1812 20.4931 23.1874 20.536 22.1567 19.4259Z" fill="#D1DFF9"/>
<path d="M18.7101 23.2593V20.5205C18.2892 20.5737 17.8619 20.5883 17.4366 20.5578C17.2777 20.5457 17.1406 20.6727 17.1406 20.8335V23.2591C17.1406 24.8181 18.3598 26.2419 20.204 26.2419C20.4658 26.2419 20.7199 26.2076 20.9619 26.1437C19.5801 25.7964 18.7101 24.5761 18.7101 23.2593Z" fill="#C1D1F0"/>
</g>
<defs>
<clipPath id="clip0_1300_6501">
<rect width="26" height="26" fill="white" transform="translate(11 10)"/>
</clipPath>
</defs>
</svg>
