<svg width="26" height="26" viewBox="0 0 26 26" fill="none" xmlns="http://www.w3.org/2000/svg">
<g clip-path="url(#clip0_1304_6893)">
<path d="M16.7594 0C14.5213 0 12.707 1.81781 12.707 4.06031V5.69582C12.978 5.44429 13.4539 5.30762 13.8302 5.35781V5.15548C13.8302 4.9948 13.967 4.86765 14.1261 4.87975C15.6928 4.99262 17.1966 4.49373 18.4023 3.70464C18.5149 3.63105 18.6639 3.6493 18.7553 3.74769C19.7862 4.85773 19.6892 4.81489 19.6892 4.95969V5.35701C20.1014 5.29513 20.5579 5.42287 20.812 5.65952V4.06031C20.812 1.81781 18.9977 0 16.7594 0Z" fill="#576574"/>
<path d="M14.2765 4.06031C14.2765 2.08679 15.6817 0.442946 17.5443 0.0767668C17.2902 0.0267791 17.028 0 16.7594 0C14.5213 0 12.707 1.81781 12.707 4.06031V5.69582C12.978 5.44429 13.4539 5.30762 13.8302 5.35781V5.15548C13.8302 4.9948 13.9672 4.86765 14.1261 4.87975C14.1763 4.88332 14.2265 4.8863 14.2767 4.88868V4.06031H14.2765Z" fill="#3E4B5A"/>
<path d="M13.7788 7.4751V5.18836C13.0754 5.09434 12.3398 5.63528 12.3398 6.36843C12.3398 7.08571 12.9712 7.67168 13.7806 7.54909C13.78 7.5243 13.7788 7.4997 13.7788 7.4751Z" fill="#D1DFF9"/>
<path d="M19.7285 5.17824V7.48501C19.7285 7.51 19.7272 7.5348 19.7266 7.55959C20.5414 7.68337 21.1796 7.09344 21.1796 6.36902C21.1796 5.6432 20.5408 5.05624 19.7285 5.17824Z" fill="#D1DFF9"/>
<path d="M13.7788 7.22814C13.5499 7.00915 13.4124 6.70307 13.4124 6.36843C13.4124 6.04351 13.5568 5.75668 13.7788 5.54582V5.18836C13.0754 5.09434 12.3398 5.63528 12.3398 6.36843C12.3398 7.08571 12.9712 7.67168 13.7806 7.54909C13.78 7.5243 13.7788 7.4997 13.7788 7.4751V7.22814Z" fill="#B3C2E0"/>
<path d="M20.8011 5.49378C20.5375 5.24702 20.1572 5.11392 19.7285 5.17819V7.48496C19.7285 7.50995 19.7272 7.53475 19.7266 7.55955C20.1566 7.62481 20.5373 7.49131 20.8011 7.24415V5.49378Z" fill="#B3C2E0"/>
<path d="M14.5208 12.1814C15.7506 13.4908 17.7632 13.4906 18.9929 12.1814L19.4485 11.6964L18.7461 11.4239C18.5908 11.3638 18.4884 11.214 18.4884 11.047V9.71875C18.0088 10.0504 17.428 10.245 16.8023 10.245C16.1477 10.245 15.5723 10.0651 15.1018 9.76378V11.0325C15.1018 11.2081 14.994 11.3658 14.8306 11.4292L14.0859 11.7185L14.5208 12.1814Z" fill="#CAD9F4"/>
<path d="M16.6641 10.2429C16.0666 10.2195 15.5388 10.0443 15.1018 9.76465V11.0334C15.1018 11.2089 14.994 11.3666 14.8306 11.4301L14.0859 11.7193L14.5208 12.1823C15.1123 12.8119 15.8847 13.1378 16.6641 13.1618V10.2429Z" fill="#CAD9F4"/>
<path d="M22.9669 13.0623L19.3305 11.6514L18.8619 12.1503C17.7047 13.3821 15.8113 13.3821 14.6543 12.1505L14.205 11.6722L10.6255 13.0623C10.6255 13.0623 8.96875 13.7449 8.96875 15.6373V19.4284C8.96875 19.8462 9.30676 20.1848 9.72372 20.1848H23.8687C24.2856 20.1848 24.6238 19.8462 24.6238 19.4284V15.6373C24.6238 13.7449 22.9669 13.0623 22.9669 13.0623Z" fill="#81ABD9"/>
<path d="M15.966 17.4266C15.9561 17.4224 15.946 17.4185 15.9361 17.4145L13.0217 16.2838C12.8656 16.2233 12.8103 16.0323 12.9075 15.8958C13.1324 15.5796 13.3181 15.2337 13.4573 14.8649C13.4944 14.7665 13.5674 14.6866 13.6605 14.6382C13.8475 14.541 14.0239 14.4226 14.1855 14.2835C14.7023 13.8392 15.0319 13.2241 15.1222 12.5568C14.9566 12.4409 14.7997 12.3056 14.6543 12.1511L14.205 11.6729L10.6257 13.063C10.6257 13.063 8.96875 13.7456 8.96875 15.6379V19.4289C8.96875 19.8468 9.30676 20.1854 9.72392 20.1854H18.4156C17.9622 18.6473 16.7478 17.7485 15.966 17.4266Z" fill="#749DCA"/>
<path d="M18.7543 3.61149C18.6629 3.5131 18.5139 3.49485 18.4012 3.56845C17.1956 4.35754 15.6011 4.85642 14.0342 4.74356C13.8754 4.73146 13.7383 4.85861 13.7383 5.01948V7.44507C13.7383 9.00401 14.9574 10.4279 16.8016 10.4279C18.4433 10.4279 19.7789 9.08971 19.7789 7.44507V4.8235C19.7789 4.67869 19.785 4.72154 18.7543 3.61149Z" fill="#D1DFF9"/>
<path d="M15.3077 7.44486V4.70605C14.8868 4.75922 14.4595 4.7739 14.0342 4.74335C13.8754 4.73125 13.7383 4.8584 13.7383 5.01907V7.44467C13.7383 9.00361 14.9574 10.4275 16.8016 10.4275C17.0635 10.4275 17.3176 10.3931 17.5596 10.3293C16.1778 9.98214 15.3077 8.7616 15.3077 7.44486Z" fill="#C1D1F0"/>
<path d="M22.1988 20.1856V16.2576C22.1988 16.0408 22.0232 15.8652 21.8064 15.8652C21.5898 15.8652 21.4141 16.0408 21.4141 16.2576V20.1856H22.1988Z" fill="#15BA8B"/>
<path d="M22.1988 20.1856V16.2576C22.1988 16.0408 22.0232 15.8652 21.8064 15.8652C21.5898 15.8652 21.4141 16.0408 21.4141 16.2576V20.1856H22.1988Z" fill="#749DCA"/>
<path d="M6.92309 17.9969C8.15295 19.3063 10.1656 19.3061 11.3952 17.9969L11.8508 17.5119L11.1484 17.2393C10.9931 17.179 10.8908 17.0294 10.8908 16.8624V15.5342C10.4111 15.8656 9.83032 16.0604 9.20468 16.0604C8.55008 16.0604 7.97462 15.8803 7.5041 15.5792V16.8479C7.5041 17.0237 7.39639 17.1812 7.23294 17.2447L6.48828 17.5339L6.92309 17.9969Z" fill="#CAD9F4"/>
<path d="M9.06999 16.0578C8.47093 16.0347 7.94209 15.8596 7.5041 15.5791V16.8478C7.5041 17.0236 7.39639 17.1811 7.23294 17.2446L6.48828 17.534L6.92309 17.9968C7.51541 18.6274 8.28943 18.9533 9.06999 18.9765V16.0578Z" fill="#CAD9F4"/>
<path d="M15.3692 18.8778L11.7328 17.4668L11.2643 17.9657C10.1072 19.1975 8.21366 19.1975 7.0566 17.9657L6.6073 17.4874L3.02803 18.8778C3.02803 18.8778 1.37109 19.5601 1.37109 21.4525V25.2437C1.37109 25.6614 1.7093 26.0002 2.12626 26.0002H16.2712C16.6882 26.0002 17.0262 25.6614 17.0262 25.2437V21.4525C17.0262 19.5601 15.3692 18.8778 15.3692 18.8778Z" fill="#0051AA"/>
<path d="M2.94055 25.2437V20.7202C2.94055 19.5593 3.56381 18.8546 4.04583 18.4824L3.02803 18.8778C3.02803 18.8778 1.37109 19.5603 1.37109 21.4527V25.2437C1.37109 25.6616 1.7093 26.0002 2.12627 26.0002H3.69572C3.27876 26.0002 2.94055 25.6614 2.94055 25.2437Z" fill="#004591"/>
<path d="M4.5816 26.0003V22.0722C4.5816 21.8554 4.40585 21.6797 4.18924 21.6797C3.97243 21.6797 3.79688 21.8554 3.79688 22.0722V26.0003H4.5816Z" fill="#004591"/>
<path d="M14.5972 26.0003V22.0722C14.5972 21.8554 14.4217 21.6797 14.2049 21.6797C13.9883 21.6797 13.8125 21.8554 13.8125 22.0722V26.0003H14.5972Z" fill="#004591"/>
<path d="M9.16175 5.81445C6.92361 5.81445 5.10938 7.63226 5.10938 9.87456V11.5103C5.38014 11.2587 5.85622 11.1221 6.23231 11.1723V10.9699C6.23231 10.8093 6.36938 10.6821 6.52847 10.6942C8.09515 10.8071 9.59894 10.3082 10.8046 9.5191C10.9171 9.44531 11.0662 9.46375 11.1577 9.56214C12.1884 10.6722 12.0914 10.6293 12.0914 10.7741V11.1715C12.5038 11.1096 12.9602 11.2371 13.2143 11.474V9.87476C13.2143 7.63226 11.4001 5.81445 9.16175 5.81445Z" fill="#576574"/>
<path d="M6.67883 9.87456C6.67883 7.90124 8.08404 6.2574 9.94668 5.89122C9.69257 5.84123 9.43034 5.81445 9.16175 5.81445C6.92361 5.81445 5.10938 7.63226 5.10938 9.87456V11.5103C5.38014 11.2587 5.85622 11.1221 6.23251 11.1723V10.9699C6.23251 10.8093 6.36958 10.6821 6.52847 10.6942C6.57866 10.6978 6.62884 10.7008 6.67883 10.7031V9.87456Z" fill="#3E4B5A"/>
<path d="M6.18112 13.2905V11.0038C5.47772 10.9098 4.74219 11.4507 4.74219 12.1839C4.74219 12.9011 5.37358 13.4871 6.1829 13.3645C6.18231 13.3397 6.18112 13.3151 6.18112 13.2905Z" fill="#D1DFF9"/>
<path d="M12.127 10.9927V13.2995C12.127 13.3245 12.1256 13.3493 12.125 13.374C12.9399 13.4976 13.578 12.9079 13.578 12.1835C13.5778 11.4577 12.9393 10.8707 12.127 10.9927Z" fill="#D1DFF9"/>
<path d="M6.18112 13.0434C5.95221 12.8246 5.81474 12.5185 5.81474 12.1839C5.81474 11.8589 5.95915 11.5721 6.18112 11.3612V11.0038C5.47772 10.9098 4.74219 11.4507 4.74219 12.1839C4.74219 12.9011 5.37358 13.4871 6.1829 13.3645C6.18231 13.3397 6.18112 13.3151 6.18112 13.2905V13.0434Z" fill="#B3C2E0"/>
<path d="M13.1995 11.3082C12.9359 11.0615 12.5556 10.9284 12.127 10.9926V13.2994C12.127 13.3244 12.1256 13.3492 12.125 13.374C12.5551 13.4393 12.9357 13.3058 13.1995 13.0586V11.3082Z" fill="#B3C2E0"/>
<path d="M11.1567 9.42595C11.0652 9.32756 10.916 9.30931 10.8036 9.3829C9.59791 10.172 8.00346 10.6709 6.43658 10.558C6.27769 10.5459 6.14062 10.6731 6.14062 10.8337V13.2595C6.14062 14.8185 7.35977 16.2423 9.20396 16.2423C10.8456 16.2423 12.1812 14.9042 12.1812 13.2595V10.6379C12.1812 10.4931 12.1874 10.536 11.1567 9.42595Z" fill="#D1DFF9"/>
<path d="M7.71008 13.2593V10.5205C7.28915 10.5737 6.86188 10.5883 6.43658 10.5578C6.27769 10.5457 6.14062 10.6727 6.14062 10.8335V13.2591C6.14062 14.8181 7.35977 16.2419 9.20396 16.2419C9.4658 16.2419 9.7199 16.2076 9.96191 16.1437C8.5801 15.7964 7.71008 14.5761 7.71008 13.2593Z" fill="#C1D1F0"/>
</g>
<defs>
<clipPath id="clip0_1304_6893">
<rect width="26" height="26" fill="white"/>
</clipPath>
</defs>
</svg>
