<svg width="47" height="47" viewBox="0 0 47 47" fill="none" xmlns="http://www.w3.org/2000/svg">
<circle opacity="0.5" cx="23.5" cy="23.5" r="23" stroke="#E6EDF2"/>
<path d="M14.2852 21.4283V21.729C14.2852 22.0975 14.3446 22.4636 14.4611 22.8133L15.1423 24.8569H16.428V20.1426H15.5709C14.8608 20.1426 14.2852 20.7182 14.2852 21.4283Z" fill="#10213A"/>
<path d="M20.1555 22.3194L19.4303 24.8577L16.0017 21.8577C15.5283 21.8577 15.1445 21.474 15.1445 21.0006C15.1445 20.2905 15.7202 19.7148 16.4302 19.7148H19.4303C19.9037 19.7148 20.2874 20.0986 20.2874 20.572V21.3775C20.2874 21.6961 20.243 22.0131 20.1555 22.3194Z" fill="#1B2B42"/>
<path d="M18.5714 26.1426H16V28.0394H18.5714V26.1426Z" fill="#BDCDEB"/>
<path d="M16 26.9298C16.3975 27.0914 16.8309 27.1823 17.2857 27.1823C17.7405 27.1823 18.1739 27.0914 18.5714 26.9298V26.1426H16V26.9298Z" fill="#BDCDEB"/>
<path d="M20.6389 27.7733L18.5713 27.1827L17.2857 28.0358L16 27.1826L13.9325 27.7733C13.3805 27.931 13 28.4355 13 29.0096V32.143C13 32.3796 13.1919 32.5715 13.4286 32.5715H21.1429C21.3795 32.5715 21.5714 32.3796 21.5714 32.143V29.0096C21.5714 28.4355 21.1909 27.931 20.6389 27.7733Z" fill="#D1DFF9"/>
<path d="M17.7126 32.5708H16.8555L17.0697 28.0391H17.4983L17.7126 32.5708Z" fill="#B8C9E8"/>
<path d="M17.2863 26.5713C15.8661 26.5713 14.7148 25.4201 14.7148 23.9999V23.4978C14.7148 23.2704 14.8051 23.0524 14.9659 22.8917L15.7431 22.1146C15.9076 21.95 16.1327 21.8554 16.3653 21.8627C17.7353 21.9059 18.9479 22.1994 19.6108 22.8468C19.773 23.0053 19.8577 23.227 19.8577 23.4538V23.9999C19.8577 25.4201 18.7064 26.5713 17.2863 26.5713Z" fill="#D1DFF9"/>
<path d="M16.0006 23.6041C16.0006 23.1098 16.4157 22.7168 16.9091 22.7483C17.7743 22.8035 19.0581 22.9481 19.8458 23.3269C19.8201 23.1461 19.7424 22.9754 19.6108 22.8468C18.9479 22.1994 17.7353 21.9059 16.3653 21.8627C16.1327 21.8554 15.9076 21.95 15.7431 22.1146L14.9659 22.8918C14.8051 23.0525 14.7148 23.2706 14.7148 23.4979V24C14.7148 25.1727 15.5006 26.16 16.5738 26.4692C16.2166 26.0285 16.0006 25.469 16.0006 24.8571V23.6041Z" fill="#C1D1F0"/>
<path d="M14.7143 30.2868C14.7143 29.9458 14.5788 29.6187 14.3377 29.3776L13.2345 28.2744C13.0871 28.4851 13 28.7389 13 29.0097V32.1431C13 32.3798 13.1919 32.5717 13.4286 32.5717H14.7143V30.2868Z" fill="#B8C9E8"/>
<path d="M17.4983 28.8962H17.0697C16.9514 28.8962 16.8555 28.8003 16.8555 28.6819V28.0391H17.7126V28.6819C17.7126 28.8002 17.6167 28.8962 17.4983 28.8962Z" fill="#B8C9E8"/>
<path d="M17.287 28.0353L16.5606 28.5902C16.4355 28.6858 16.2546 28.6475 16.179 28.5093L15.5273 27.3193L15.7896 26.9192C15.8478 26.8305 15.9718 26.8154 16.0496 26.8876L17.287 28.0353Z" fill="#B8C9E8"/>
<path d="M17.2852 28.0353L18.0116 28.5902C18.1367 28.6858 18.3176 28.6475 18.3932 28.5093L19.0448 27.3193L18.7825 26.9192C18.7244 26.8305 18.6004 26.8154 18.5226 26.8876L17.2852 28.0353Z" fill="#B8C9E8"/>
<path d="M26.7133 27.4287C29.5171 27.4287 32.0344 26.2822 32.8586 25.8644C33.0267 25.7793 33.1195 25.5971 33.0884 25.4113C32.9554 24.6166 32.5974 22.2362 32.2846 18.0002C32.0303 14.5543 29.7903 12.4287 26.7132 12.4287C23.6362 12.4287 21.3962 14.5543 21.1418 18.0002C20.8291 22.2363 20.471 24.6166 20.338 25.4113C20.3069 25.5971 20.3997 25.7792 20.5678 25.8644C21.3921 26.2822 23.9094 27.4287 26.7133 27.4287Z" fill="#1B2B42"/>
<path d="M32.8587 25.8644C33.0268 25.7792 33.1196 25.5971 33.0885 25.4113C32.9555 24.6166 32.5975 22.2363 32.2847 18.0002C32.0304 14.5543 29.7903 12.4287 26.7133 12.4287C26.4977 12.4287 26.2862 12.4392 26.0792 12.4598C23.6839 12.6983 23.3242 16.0808 25.6265 16.7837C25.6631 16.7949 25.6834 16.8001 25.6834 16.8001L26.5402 27.4244C26.5413 27.4255 26.5421 27.4262 26.5433 27.4273C29.4149 27.4753 32.0179 26.2906 32.8587 25.8644Z" fill="#10213A"/>
<path d="M19.4297 32.1429V29.8312C19.4297 29.1523 19.8304 28.5374 20.4514 28.263L24.0617 26.6685C24.3722 26.5313 24.5725 26.2239 24.5725 25.8844V24H28.8582V25.8844C28.8582 26.2239 29.0586 26.5314 29.3691 26.6685L32.9794 28.263C33.6004 28.5373 34.001 29.1523 34.001 29.8312V32.1429C34.001 32.3795 33.8091 32.5714 33.5725 32.5714H19.8583C19.6215 32.5714 19.4297 32.3796 19.4297 32.1429Z" fill="#BDCDEB"/>
<path d="M32.9795 28.263L30.3165 27.0869C29.7628 28.5384 28.3615 29.5714 26.7154 29.5714C25.0694 29.5714 23.6681 28.5385 23.1143 27.0869L20.4514 28.263C19.8304 28.5373 19.4297 29.1523 19.4297 29.8312V32.1429C19.4297 32.3795 19.6215 32.5714 19.8583 32.5714H33.5725C33.8092 32.5714 34.0011 32.3795 34.0011 32.1429V29.8312C34.0011 29.1523 33.6005 28.5374 32.9795 28.263Z" fill="#0051AA"/>
<path d="M24.5703 25.2422C25.2233 25.5423 25.9474 25.7143 26.7132 25.7143C27.4789 25.7143 28.203 25.5423 28.856 25.2422V24H24.5703V25.2422Z" fill="#BDCDEB"/>
<path d="M30.569 18.8574C29.8808 18.259 28.3358 17.2006 25.6855 16.8C25.3187 16.7445 24.9489 16.925 24.7857 17.2582C24.5138 17.8133 23.9355 18.7022 22.7872 19.4855C22.5593 19.641 22.4297 19.9055 22.4297 20.1813V20.4246C22.4297 22.7073 24.1522 24.7004 26.4301 24.8479C28.9262 25.0095 31.0011 23.0327 31.0011 20.5714V19.8195C31.0011 19.4512 30.8469 19.0991 30.569 18.8574Z" fill="#D1DFF9"/>
<path d="M30.8091 19.153C30.7432 19.0447 30.6668 18.9425 30.569 18.8574C29.8808 18.2589 28.3357 17.2006 25.6855 16.8C25.3187 16.7445 24.9489 16.925 24.7857 17.2581C24.7202 17.392 24.6325 17.5479 24.5272 17.7145C24.1982 18.2371 23.6617 18.8874 22.7941 19.4807C22.5641 19.638 22.4297 19.9027 22.4297 20.1813V20.4246C22.4297 22.6276 24.0359 24.5557 26.1955 24.8205C25.4573 24.0506 25.0011 23.008 25.0011 21.8571V19.1627C25.0011 18.7218 25.3322 18.3536 25.7709 18.3093C26.8013 18.2053 28.7401 18.1964 30.8091 19.153Z" fill="#C1D1F0"/>
<path d="M20.0707 28.498C19.6727 28.8186 19.4297 29.3045 19.4297 29.8311V32.1428C19.4297 32.3795 19.6216 32.5714 19.8583 32.5714H22.4297V31.3896C22.4297 31.0487 22.2942 30.7216 22.0531 30.4805L20.0707 28.498Z" fill="#004087"/>
<path d="M33.359 28.498C33.757 28.8186 34 29.3045 34 29.8311V32.1428C34 32.3795 33.8081 32.5714 33.5714 32.5714H31V31.3896C31 31.0487 31.1355 30.7216 31.3766 30.4805L33.359 28.498Z" fill="#004087"/>
</svg>
