<svg width="23" height="23" viewBox="0 0 23 23" fill="none" xmlns="http://www.w3.org/2000/svg">
<g clip-path="url(#clip0_1304_6927)">
<path d="M0.694178 21.5837C0.31077 21.5837 0 21.273 0 20.8896V4.39492L0.462785 2.25961C0.462785 1.87624 0.773555 1.56543 1.15696 1.56543L21.5216 1.70833C21.9049 1.70833 22.5372 2.0191 22.5372 2.21927V19.9261C22.5372 20.4927 21.85 21.4469 21.4667 21.4469L21.0468 21.5837H0.694178Z" fill="#D1DFF9"/>
<g clip-path="url(#clip1_1304_6927)">
<path d="M11.5 19C15.0898 19 18 16.0898 18 12.5C18 8.91014 15.0898 6 11.5 6C7.91014 6 5 8.91014 5 12.5C5 16.0898 7.91014 19 11.5 19Z" fill="#0051AA"/>
<path d="M14.2368 16.2626C10.647 16.2626 7.73682 13.3525 7.73682 9.76263C7.73682 8.67272 8.00833 7.64732 8.48247 6.74512C6.41316 7.83252 5 9.99955 5 12.4995C5 16.0893 7.91017 18.9994 11.5 18.9994C13.9999 18.9994 16.1669 17.5863 17.2543 15.517C16.3522 15.9911 15.3268 16.2626 14.2368 16.2626Z" fill="#0051AA"/>
<path d="M15.1567 9.37034H17.1975C17.1067 9.20538 17.009 9.04471 16.9047 8.88886H15.0014C14.6035 7.77028 14.0262 6.85795 13.3387 6.26546C12.7554 6.09372 12.1388 6 11.5 6C10.8612 6 10.2445 6.09374 9.6613 6.26548C8.9738 6.85797 8.39652 7.77033 7.9986 8.88889H6.09527C5.99094 9.04474 5.89332 9.20541 5.80249 9.37037H7.84331C7.58507 10.2448 7.43168 11.2236 7.41096 12.2593H5.00612C5.00315 12.3393 5 12.4192 5 12.5C5 12.5807 5.00315 12.6607 5.00612 12.7407H7.41101C7.43171 13.7764 7.58509 14.7551 7.84336 15.6296H5.80252C5.89334 15.7946 5.99097 15.9552 6.0953 16.1111H7.99863C8.39655 17.2297 8.97383 18.142 9.66133 18.7345C10.2446 18.9062 10.8612 19 11.5 19C12.1388 19 12.7555 18.9062 13.3387 18.7345C14.0262 18.142 14.6035 17.2296 15.0014 16.1111H16.9047C17.0091 15.9552 17.1067 15.7946 17.1975 15.6296H15.1567C15.4149 14.7551 15.5683 13.7764 15.589 12.7407H17.9939C17.9969 12.6607 18.0001 12.5807 18.0001 12.5C18.0001 12.4192 17.9969 12.3393 17.9939 12.2593H15.589C15.5683 11.2236 15.4149 10.2448 15.1567 9.37034ZM11.2593 18.9839C10.1098 18.8469 9.10563 17.7389 8.49908 16.1111H11.2593V18.9839ZM11.2593 15.6296H8.33617C8.07168 14.7667 7.91352 13.7848 7.89227 12.7407H11.2592L11.2593 15.6296ZM11.2593 12.2592H7.89229C7.91357 11.2152 8.0717 10.2332 8.33619 9.37034H11.2593V12.2592ZM11.2593 8.88886H8.49908C9.10561 7.26105 10.1098 6.153 11.2593 6.01605V8.88886ZM11.7407 6.01605C12.8902 6.153 13.8943 7.26102 14.5009 8.88886H11.7407V6.01605ZM11.7407 18.9839V16.1111H14.5009C13.8944 17.7389 12.8902 18.8469 11.7407 18.9839ZM14.6638 15.6296H11.7407V12.7407H15.1077C15.0865 13.7848 14.9283 14.7667 14.6638 15.6296ZM11.7407 12.2592V9.37034H14.6638C14.9283 10.2332 15.0864 11.2152 15.1077 12.2592H11.7407Z" fill="#76A5DA"/>
<path d="M14.4433 16.2566C13.832 17.8038 12.8552 18.851 11.7407 18.9838V16.111H12.8402C12.283 15.9889 11.7529 15.7953 11.2593 15.5403V15.6295H8.33617C8.07168 14.7666 7.91352 13.7847 7.89227 12.7406H8.45952C8.37839 12.5835 8.30258 12.4234 8.23423 12.2591H7.89229C7.89826 11.9661 7.91758 11.6797 7.94442 11.3978C7.81066 10.8814 7.73898 10.3401 7.73736 9.78223C7.54619 10.5493 7.42858 11.3816 7.41101 12.2591H5.00848C5.00554 12.3394 5 12.4189 5 12.4999C5 12.5806 5.00315 12.6606 5.00612 12.7406H7.41101C7.43171 13.7763 7.58509 14.755 7.84336 15.6295H5.80252C5.89334 15.7945 5.99097 15.9551 6.0953 16.111H7.99863C8.39655 17.2296 8.97383 18.1419 9.66133 18.7344C10.2446 18.9061 10.8612 18.9999 11.5 18.9999C12.139 18.9999 12.7557 18.9064 13.3387 18.7344C14.0032 18.1617 14.5634 17.2886 14.9595 16.2208C14.7894 16.2399 14.6171 16.2511 14.4433 16.2566ZM11.2593 18.9838C10.1098 18.8468 9.10563 17.7388 8.49908 16.111H11.2593V18.9838Z" fill="#76A5DA"/>
<path d="M17.1915 15.6299H17.026C16.5828 15.8413 16.1125 16.0039 15.6211 16.1114H16.8977C17.0022 15.9554 17.1005 15.795 17.1915 15.6299Z" fill="#76A5DA"/>
<path d="M5.80469 9.37015H7.74717C7.75694 9.20781 7.77411 9.04757 7.79571 8.88867H6.09927C5.99451 9.04472 5.89587 9.20496 5.80469 9.37015Z" fill="#76A5DA"/>
<path d="M10.7775 14.9677C10.746 14.9677 10.714 14.9628 10.6823 14.9522C10.5248 14.8998 10.4395 14.7293 10.4921 14.5716L11.9366 10.2382C11.9887 10.0808 12.1583 9.99468 12.3172 10.0481C12.4747 10.1005 12.56 10.2709 12.5074 10.4287L11.0629 14.762C11.0211 14.888 10.9035 14.9677 10.7775 14.9677Z" fill="white"/>
<path d="M9.81565 14.2456C9.73852 14.2456 9.66166 14.2162 9.60291 14.1575L8.15846 12.713C8.04093 12.5955 8.04093 12.4051 8.15846 12.2875L9.60291 10.843C9.72044 10.7255 9.91087 10.7255 10.0285 10.843C10.146 10.9606 10.146 11.151 10.0285 11.2686L8.79676 12.5003L10.0285 13.732C10.146 13.8495 10.146 14.0399 10.0285 14.1575C9.96962 14.2162 9.89277 14.2456 9.81565 14.2456Z" fill="white"/>
<path d="M13.1876 14.2457C13.1105 14.2457 13.0336 14.2163 12.9749 14.1575C12.8573 14.04 12.8573 13.8496 12.9749 13.732L14.2066 12.5003L12.9749 11.2686C12.8573 11.1511 12.8573 10.9606 12.9749 10.8431C13.0924 10.7255 13.2828 10.7255 13.4004 10.8431L14.8449 12.2875C14.9624 12.405 14.9624 12.5955 14.8449 12.713L13.4004 14.1575C13.3416 14.2163 13.2648 14.2457 13.1876 14.2457Z" fill="white"/>
</g>
<path d="M22.8177 2.27868V4.24258L21.5851 4.39015L0 4.39473V2.11117C0 1.72754 0.310994 1.41699 0.694178 1.41699H20.9232L22.0041 1.46506C22.3872 1.46506 22.8177 1.89505 22.8177 2.27868Z" fill="#C1D1F0"/>
<path d="M22.4334 3.98926L23.0001 4.39005V20.8893C23.0001 21.2727 22.6893 21.5835 22.3059 21.5835H21.0469L21.1932 21.4968C21.4362 21.353 21.5852 21.0916 21.5852 20.8092V4.39005L22.4334 3.98926Z" fill="#D1DFF9"/>
<path d="M22.9987 2.11117V4.3901H21.5839V2.31673C21.5839 1.98269 21.4007 1.67556 21.1067 1.51681L20.9219 1.41699H22.3046C22.6878 1.41704 22.9987 1.72754 22.9987 2.11117Z" fill="#C1D1F0"/>
<path d="M1.60097 3.2371C1.79265 3.2371 1.94804 3.08171 1.94804 2.89004C1.94804 2.69836 1.79265 2.54297 1.60097 2.54297C1.40929 2.54297 1.25391 2.69836 1.25391 2.89004C1.25391 3.08171 1.40929 3.2371 1.60097 3.2371Z" fill="#10213A"/>
<path d="M3.1791 3.2371C3.37078 3.2371 3.52616 3.08171 3.52616 2.89004C3.52616 2.69836 3.37078 2.54297 3.1791 2.54297C2.98742 2.54297 2.83203 2.69836 2.83203 2.89004C2.83203 3.08171 2.98742 3.2371 3.1791 3.2371Z" fill="#10213A"/>
<path d="M4.75722 3.2371C4.9489 3.2371 5.10429 3.08171 5.10429 2.89004C5.10429 2.69836 4.9489 2.54297 4.75722 2.54297C4.56554 2.54297 4.41016 2.69836 4.41016 2.89004C4.41016 3.08171 4.56554 3.2371 4.75722 3.2371Z" fill="#10213A"/>
</g>
<defs>
<clipPath id="clip0_1304_6927">
<rect width="23" height="23" fill="white"/>
</clipPath>
<clipPath id="clip1_1304_6927">
<rect width="13" height="13" fill="white" transform="translate(5 6)"/>
</clipPath>
</defs>
</svg>
