<svg width="47" height="47" viewBox="0 0 47 47" fill="none" xmlns="http://www.w3.org/2000/svg">
<circle opacity="0.5" cx="23.5" cy="23.5" r="23" stroke="#E6EDF2"/>
<g clip-path="url(#clip0_1300_6537)">
<path d="M12.6942 33.5837C12.3108 33.5837 12 33.273 12 32.8896V16.3949L12.4628 14.2596C12.4628 13.8762 12.7736 13.5654 13.157 13.5654L33.5216 13.7083C33.9049 13.7083 34.5372 14.0191 34.5372 14.2193V31.9261C34.5372 32.4927 33.85 33.4469 33.4667 33.4469L33.0468 33.5837H12.6942Z" fill="#D1DFF9"/>
<g clip-path="url(#clip1_1300_6537)">
<path d="M23.5 31C27.0898 31 30 28.0898 30 24.5C30 20.9101 27.0898 18 23.5 18C19.9101 18 17 20.9101 17 24.5C17 28.0898 19.9101 31 23.5 31Z" fill="#0051AA"/>
<path d="M26.2368 28.2626C22.647 28.2626 19.7368 25.3525 19.7368 21.7626C19.7368 20.6727 20.0083 19.6473 20.4825 18.7451C18.4132 19.8325 17 21.9996 17 24.4995C17 28.0893 19.9102 30.9994 23.5 30.9994C25.9999 30.9994 28.1669 29.5863 29.2543 27.517C28.3522 27.9911 27.3268 28.2626 26.2368 28.2626Z" fill="#0051AA"/>
<path d="M27.1567 21.3703H29.1975C29.1067 21.2054 29.009 21.0447 28.9047 20.8889H27.0014C26.6035 19.7703 26.0262 18.8579 25.3387 18.2655C24.7554 18.0937 24.1388 18 23.5 18C22.8612 18 22.2445 18.0937 21.6613 18.2655C20.9738 18.858 20.3965 19.7703 19.9986 20.8889H18.0953C17.9909 21.0447 17.8933 21.2054 17.8025 21.3704H19.8433C19.5851 22.2448 19.4317 23.2236 19.411 24.2593H17.0061C17.0031 24.3393 17 24.4192 17 24.5C17 24.5807 17.0031 24.6607 17.0061 24.7407H19.411C19.4317 25.7764 19.5851 26.7551 19.8434 27.6296H17.8025C17.8933 27.7946 17.991 27.9552 18.0953 28.1111H19.9986C20.3965 29.2297 20.9738 30.142 21.6613 30.7345C22.2446 30.9062 22.8612 31 23.5 31C24.1388 31 24.7555 30.9062 25.3387 30.7345C26.0262 30.142 26.6035 29.2296 27.0014 28.1111H28.9047C29.0091 27.9552 29.1067 27.7946 29.1975 27.6296H27.1567C27.4149 26.7551 27.5683 25.7764 27.589 24.7407H29.9939C29.9969 24.6607 30.0001 24.5807 30.0001 24.5C30.0001 24.4192 29.9969 24.3393 29.9939 24.2593H27.589C27.5683 23.2236 27.4149 22.2448 27.1567 21.3703ZM23.2593 30.9839C22.1098 30.8469 21.1056 29.7389 20.4991 28.1111H23.2593V30.9839ZM23.2593 27.6296H20.3362C20.0717 26.7667 19.9135 25.7848 19.8923 24.7407H23.2592L23.2593 27.6296ZM23.2593 24.2592H19.8923C19.9136 23.2152 20.0717 22.2332 20.3362 21.3703H23.2593V24.2592ZM23.2593 20.8889H20.4991C21.1056 19.261 22.1098 18.153 23.2593 18.016V20.8889ZM23.7407 18.016C24.8902 18.153 25.8943 19.261 26.5009 20.8889H23.7407V18.016ZM23.7407 30.9839V28.1111H26.5009C25.8944 29.7389 24.8902 30.8469 23.7407 30.9839ZM26.6638 27.6296H23.7407V24.7407H27.1077C27.0865 25.7848 26.9283 26.7667 26.6638 27.6296ZM23.7407 24.2592V21.3703H26.6638C26.9283 22.2332 27.0864 23.2152 27.1077 24.2592H23.7407Z" fill="#76A5DA"/>
<path d="M26.4433 28.2566C25.832 29.8038 24.8552 30.851 23.7407 30.9838V28.111H24.8402C24.283 27.9889 23.7529 27.7953 23.2593 27.5403V27.6295H20.3362C20.0717 26.7666 19.9135 25.7847 19.8923 24.7406H20.4595C20.3784 24.5835 20.3026 24.4234 20.2342 24.2591H19.8923C19.8983 23.9661 19.9176 23.6797 19.9444 23.3978C19.8107 22.8814 19.739 22.3401 19.7374 21.7822C19.5462 22.5493 19.4286 23.3816 19.411 24.2591H17.0085C17.0055 24.3394 17 24.4189 17 24.4999C17 24.5806 17.0031 24.6606 17.0061 24.7406H19.411C19.4317 25.7763 19.5851 26.755 19.8434 27.6295H17.8025C17.8933 27.7945 17.991 27.9551 18.0953 28.111H19.9986C20.3965 29.2296 20.9738 30.1419 21.6613 30.7344C22.2446 30.9061 22.8612 30.9999 23.5 30.9999C24.139 30.9999 24.7557 30.9064 25.3387 30.7344C26.0032 30.1617 26.5634 29.2886 26.9595 28.2208C26.7894 28.2399 26.6171 28.2511 26.4433 28.2566ZM23.2593 30.9838C22.1098 30.8468 21.1056 29.7388 20.4991 28.111H23.2593V30.9838Z" fill="#76A5DA"/>
<path d="M29.1915 27.6299H29.026C28.5828 27.8413 28.1125 28.0039 27.6211 28.1114H28.8977C29.0022 27.9554 29.1005 27.795 29.1915 27.6299Z" fill="#76A5DA"/>
<path d="M17.8047 21.3702H19.7472C19.7569 21.2078 19.7741 21.0476 19.7957 20.8887H18.0993C17.9945 21.0447 17.8959 21.205 17.8047 21.3702Z" fill="#76A5DA"/>
<path d="M22.7775 26.9677C22.746 26.9677 22.714 26.9628 22.6823 26.9522C22.5248 26.8998 22.4395 26.7293 22.4921 26.5716L23.9366 22.2382C23.9887 22.0808 24.1583 21.9947 24.3172 22.0481C24.4747 22.1005 24.56 22.2709 24.5074 22.4287L23.0629 26.762C23.0211 26.888 22.9035 26.9677 22.7775 26.9677Z" fill="white"/>
<path d="M21.8157 26.2456C21.7385 26.2456 21.6617 26.2162 21.6029 26.1575L20.1585 24.713C20.0409 24.5955 20.0409 24.4051 20.1585 24.2875L21.6029 22.843C21.7204 22.7255 21.9109 22.7255 22.0285 22.843C22.146 22.9606 22.146 23.151 22.0285 23.2686L20.7968 24.5003L22.0285 25.732C22.146 25.8495 22.146 26.0399 22.0285 26.1575C21.9696 26.2162 21.8928 26.2456 21.8157 26.2456Z" fill="white"/>
<path d="M25.1876 26.2457C25.1105 26.2457 25.0336 26.2163 24.9749 26.1575C24.8573 26.04 24.8573 25.8496 24.9749 25.732L26.2066 24.5003L24.9749 23.2686C24.8573 23.1511 24.8573 22.9606 24.9749 22.8431C25.0924 22.7255 25.2828 22.7255 25.4004 22.8431L26.8449 24.2875C26.9624 24.405 26.9624 24.5955 26.8449 24.713L25.4004 26.1575C25.3416 26.2163 25.2648 26.2457 25.1876 26.2457Z" fill="white"/>
</g>
<path d="M34.8177 14.2787V16.2426L33.5851 16.3901L12 16.3947V14.1112C12 13.7275 12.311 13.417 12.6942 13.417H32.9232L34.0041 13.4651C34.3872 13.4651 34.8177 13.8951 34.8177 14.2787Z" fill="#C1D1F0"/>
<path d="M34.4334 15.9893L35.0001 16.3901V32.8893C35.0001 33.2727 34.6893 33.5835 34.3059 33.5835H33.0469L33.1932 33.4968C33.4362 33.353 33.5852 33.0916 33.5852 32.8092V16.3901L34.4334 15.9893Z" fill="#D1DFF9"/>
<path d="M34.9987 14.1112V16.3901H33.5839V14.3167C33.5839 13.9827 33.4007 13.6756 33.1067 13.5168L32.9219 13.417H34.3046C34.6878 13.417 34.9987 13.7275 34.9987 14.1112Z" fill="#C1D1F0"/>
<path d="M13.601 15.2371C13.7927 15.2371 13.948 15.0817 13.948 14.89C13.948 14.6984 13.7927 14.543 13.601 14.543C13.4093 14.543 13.2539 14.6984 13.2539 14.89C13.2539 15.0817 13.4093 15.2371 13.601 15.2371Z" fill="#10213A"/>
<path d="M15.1791 15.2371C15.3708 15.2371 15.5262 15.0817 15.5262 14.89C15.5262 14.6984 15.3708 14.543 15.1791 14.543C14.9874 14.543 14.832 14.6984 14.832 14.89C14.832 15.0817 14.9874 15.2371 15.1791 15.2371Z" fill="#10213A"/>
<path d="M16.7572 15.2371C16.9489 15.2371 17.1043 15.0817 17.1043 14.89C17.1043 14.6984 16.9489 14.543 16.7572 14.543C16.5655 14.543 16.4102 14.6984 16.4102 14.89C16.4102 15.0817 16.5655 15.2371 16.7572 15.2371Z" fill="#10213A"/>
</g>
<defs>
<clipPath id="clip0_1300_6537">
<rect width="23" height="23" fill="white" transform="translate(12 12)"/>
</clipPath>
<clipPath id="clip1_1300_6537">
<rect width="13" height="13" fill="white" transform="translate(17 18)"/>
</clipPath>
</defs>
</svg>
