<?xml version="1.0" standalone="no"?>
<!DOCTYPE svg PUBLIC "-//W3C//DTD SVG 1.1//EN" "http://www.w3.org/Graphics/SVG/1.1/DTD/svg11.dtd" >
<svg xmlns="http://www.w3.org/2000/svg" xmlns:xlink="http://www.w3.org/1999/xlink" version="1.1">
<metadata>
Created by FontForge 20201107 at Mon Jun  1 19:15:52 2015
 By Unknown
Copyright (c) 2015 Monotype Imaging Inc.  All rights reserved.
</metadata>
<defs>
<font id="DaytonaPro-Regular" horiz-adv-x="397" >
  <font-face 
    font-family="DaytonaPro-Regular"
    font-weight="400"
    font-stretch="normal"
    units-per-em="1000"
    panose-1="2 11 6 4 3 5 3 4 2 4"
    ascent="786"
    descent="-214"
    x-height="553"
    cap-height="731"
    bbox="-304 -271 1145 1027"
    underline-thickness="50"
    underline-position="-125"
    unicode-range="U+000D-FB04"
  />
<missing-glyph horiz-adv-x="600" 
d="M550 705h-500v-882h500v882zM494 649v-770h-388v770h388z" />
    <glyph glyph-name="ff" unicode="ff" horiz-adv-x="684" 
d="M134.5 712q41.5 38 113.5 38q26 0 52.5 -5t45.5 -12q25 -10 25 -24q0 -16 -5 -30q-8 -29 -24 -29q-12 0 -27 5q-37 11 -62 11q-30 0 -47 -21t-17 -58v-45h232v47q0 85 41.5 123t113.5 38q26 0 52.5 -5t45.5 -12q25 -10 25 -24q0 -16 -5 -30q-8 -29 -24 -29q-12 0 -27 5
q-37 11 -62 11q-30 0 -47 -21t-17 -58v-45h132q13 0 19 -2.5t8 -8t2 -18.5v-26q0 -19 -5.5 -24.5t-22.5 -5.5h-133v-426q0 -14 -2 -20t-8 -8.5t-19 -2.5h-38q-13 0 -18.5 2t-8 8.5t-2.5 20.5v426h-232v-426q0 -14 -2 -20t-8 -8.5t-19 -2.5h-38q-13 0 -18.5 2t-8 8.5
t-2.5 20.5v426h-42q-16 0 -22 6t-6 19v6q0 14 6.5 19.5t25.5 11.5t28.5 18t9.5 26v26q0 85 41.5 123z" />
    <glyph glyph-name="ffi" unicode="ffi" horiz-adv-x="934" 
d="M134.5 712q41.5 38 113.5 38q26 0 52.5 -5t45.5 -12q25 -10 25 -24q0 -16 -5 -30q-8 -29 -24 -29q-12 0 -27 5q-37 11 -62 11q-30 0 -47 -21t-17 -58v-45h232v49q0 159 144 159q24 0 48.5 -5t42.5 -12q23 -10 23 -24q0 -16 -5 -30q-3 -13 -9.5 -21t-14.5 -8
q-6 0 -11.5 1.5t-10.5 3.5q-12 4 -26.5 7.5t-28.5 3.5q-26 0 -41 -21t-15 -59v-44h112q13 0 19 -2.5t8 -8t2 -18.5v-26q0 -19 -5.5 -24.5t-22.5 -5.5h-113v-426q0 -14 -2 -20t-8 -8.5t-19 -2.5h-38q-13 0 -18.5 2t-8 8.5t-2.5 20.5v426h-232v-426q0 -14 -2 -20t-8 -8.5
t-19 -2.5h-38q-13 0 -18.5 2t-8 8.5t-2.5 20.5v426h-42q-16 0 -22 6t-6 19v6q0 14 6.5 19.5t25.5 11.5t28.5 18t9.5 26v26q0 85 41.5 123zM757 640q-7 2 -10 8t-3 19v42q0 13 2 19t8.5 8t20.5 2h42q15 0 21.5 -2t8.5 -8t2 -19v-42q0 -13 -2.5 -19t-9.5 -8t-22 -2h-37
q-14 0 -21 2zM759 2.5q-6 2.5 -8 8t-2 18.5v495q0 13 2 18.5t7.5 8t17.5 2.5h40q18 0 23 -5.5t5 -22.5v-496q0 -18 -5.5 -23.5t-23.5 -5.5h-37q-13 0 -19 2.5z" />
    <glyph glyph-name="ffl" unicode="ffl" horiz-adv-x="968" 
d="M134.5 712q41.5 38 113.5 38q26 0 52.5 -5t45.5 -12q25 -10 25 -24q0 -16 -5 -30q-8 -29 -24 -29q-12 0 -27 5q-37 11 -62 11q-30 0 -47 -21t-17 -58v-45h232v49q0 159 144 159q24 0 48.5 -5t42.5 -12q23 -10 23 -24q0 -16 -5 -30q-3 -13 -9.5 -21t-14.5 -8
q-6 0 -11.5 1.5t-10.5 3.5q-12 4 -26.5 7.5t-28.5 3.5q-26 0 -41 -21t-15 -59v-44h112q13 0 19 -2.5t8 -8t2 -18.5v-26q0 -19 -5.5 -24.5t-22.5 -5.5h-113v-426q0 -14 -2 -20t-8 -8.5t-19 -2.5h-38q-13 0 -18.5 2t-8 8.5t-2.5 20.5v426h-232v-426q0 -14 -2 -20t-8 -8.5
t-19 -2.5h-38q-13 0 -18.5 2t-8 8.5t-2.5 20.5v426h-42q-16 0 -22 6t-6 19v6q0 14 6.5 19.5t25.5 11.5t28.5 18t9.5 26v26q0 85 41.5 123zM857.5 97q12.5 -17 37.5 -17q14 0 28.5 3.5t19.5 3.5q7 0 11 -4.5t8 -17.5q2 -6 5 -14t5 -15t2 -13q0 -12 -21 -19q-33 -13 -74 -13
q-61 0 -95.5 37t-34.5 117v563q0 18 5.5 23.5t24.5 5.5h37q18 0 23.5 -5.5t5.5 -23.5v-553q0 -41 12.5 -58z" />
    <glyph glyph-name="f_i" unicode="fi" horiz-adv-x="607" 
d="M237 750q24 0 48.5 -5t42.5 -12q23 -10 23 -24q0 -12 -5 -30q-4 -14 -10.5 -21.5t-13.5 -7.5q-6 0 -11.5 1.5t-10.5 3.5q-12 4 -26.5 7.5t-28.5 3.5q-26 0 -41 -21t-15 -59v-44h112q13 0 19 -2.5t8 -8t2 -18.5v-26q0 -19 -5.5 -24.5t-22.5 -5.5h-113v-426q0 -14 -2 -20
t-8 -8.5t-19 -2.5h-38q-13 0 -18.5 2t-8 8.5t-2.5 20.5v426h-42q-16 0 -22 6t-6 19v6q0 14 6.5 19.5t25.5 11.5t28.5 18t9.5 26v28q0 159 144 159zM429 640q-7 2 -10 8t-3 19v42q0 13 2 19t8.5 8t20.5 2h43q15 0 21.5 -2t8.5 -8t2 -19v-42q0 -13 -2.5 -19t-9.5 -8t-22 -2
h-38q-14 0 -21 2zM431 2.5q-6 2.5 -8 8t-2 18.5v495q0 13 2 18.5t7.5 8t17.5 2.5h41q18 0 23 -5.5t5 -22.5v-496q0 -18 -5.5 -23.5t-23.5 -5.5h-38q-13 0 -19 2.5z" />
    <glyph glyph-name="f_l" unicode="fl" horiz-adv-x="640" 
d="M237 750q24 0 48.5 -5t42.5 -12q23 -10 23 -24q0 -12 -5 -30q-4 -14 -10.5 -21.5t-13.5 -7.5q-6 0 -11.5 1.5t-10.5 3.5q-12 4 -26.5 7.5t-28.5 3.5q-26 0 -41 -21t-15 -59v-44h112q13 0 19 -2.5t8 -8t2 -18.5v-26q0 -19 -5.5 -24.5t-22.5 -5.5h-113v-426q0 -14 -2 -20
t-8 -8.5t-19 -2.5h-38q-13 0 -18.5 2t-8 8.5t-2.5 20.5v426h-42q-16 0 -22 6t-6 19v6q0 14 6.5 19.5t25.5 11.5t28.5 18t9.5 26v28q0 159 144 159zM529.5 97q12.5 -17 37.5 -17q14 0 28.5 3.5t19.5 3.5q7 0 11 -4.5t8 -17.5q2 -6 5 -14t5 -15t2 -13q0 -12 -21 -19
q-33 -13 -74 -13q-61 0 -95.5 37t-34.5 117v563q0 18 5.5 23.5t24.5 5.5h37q18 0 23.5 -5.5t5.5 -23.5v-553q0 -41 12.5 -58z" />
    <glyph glyph-name=".notdef" horiz-adv-x="600" 
d="M550 705h-500v-882h500v882zM494 649v-770h-388v770h388z" />
    <glyph glyph-name=".null" horiz-adv-x="0" 
 />
    <glyph glyph-name="nonmarkingreturn" horiz-adv-x="333" 
 />
    <glyph glyph-name="NULL" horiz-adv-x="0" 
 />
    <glyph glyph-name="CR" unicode="&#xd;" horiz-adv-x="319" 
 />
    <glyph glyph-name="space" unicode=" " horiz-adv-x="319" 
 />
    <glyph glyph-name="exclam" unicode="!" horiz-adv-x="283" 
d="M112.5 205q-6.5 2 -8.5 8t-3 20l-14 474q-1 13 1 19.5t8 8.5t20 2h51q14 0 20 -2t8 -8t1 -20l-15 -474q-1 -14 -3 -20t-8 -8t-20 -2h-17q-14 0 -20.5 2zM93 2q-7 2 -9.5 8t-2.5 19v64q0 13 2 19t8 8t21 2h59q15 0 21.5 -2t8.5 -8t2 -19v-64q0 -13 -2.5 -19t-9.5 -8
t-22 -2h-54q-15 0 -22 2z" />
    <glyph glyph-name="quotedbl" unicode="&#x22;" horiz-adv-x="390" 
d="M60 663v52q0 13 2.5 19t9 8.5t19.5 2.5h33q13 0 19.5 -2.5t9 -8.5t2.5 -19v-52q0 -31 -3 -55l-12 -107q-2 -17 -8 -22t-23 -5h-3q-18 0 -24 5t-7 22l-11 107q-4 21 -4 55zM235 663v52q0 13 2.5 19t9 8.5t19.5 2.5h33q13 0 19.5 -2.5t9 -8.5t2.5 -19v-52q0 -31 -3 -55
l-12 -107q-2 -17 -8 -22t-23 -5h-3q-18 0 -24 5t-7 22l-11 107q-4 21 -4 55z" />
    <glyph glyph-name="numbersign" unicode="#" horiz-adv-x="629" 
d="M178 28q-3 -13 -6 -18.5t-8.5 -7.5t-18.5 -2h-28q-15 0 -20.5 3t-5.5 12l2 13l33 161h-86q-13 0 -18.5 3t-5.5 10q0 6 3 15l5 26q5 17 11 22t24 5h84l31 151h-86q-14 0 -19 2.5t-5 11.5q0 8 1 14l6 25q2 18 8 23t24 5h87l33 162q3 17 9.5 22t24.5 5h28q14 0 19 -2.5
t5 -10.5l-2 -14l-33 -162h139l33 162q4 17 10 22t24 5h28q14 0 19.5 -2.5t5.5 -10.5q0 -2 -2 -14l-33 -162h86q14 0 19 -3t5 -12q0 -8 -1 -13l-6 -26q-2 -17 -8 -22t-24 -5h-87l-31 -151h86q14 0 19 -2.5t5 -10.5q0 -3 -2 -15l-6 -25q-3 -13 -6.5 -18.5t-9.5 -7.5t-19 -2
h-84l-33 -162q-3 -13 -6 -18t-8.5 -7t-18.5 -2h-28q-14 0 -19.5 2.5t-5.5 11.5q0 2 2 14l33 161h-139zM397 421h-138l-32 -151h139z" />
    <glyph glyph-name="dollar" unicode="$" horiz-adv-x="616" 
d="M516.5 77q-48.5 -60 -170.5 -73v-64q0 -13 -2 -18.5t-7.5 -7.5t-18.5 -2h-26q-13 0 -18.5 2t-7.5 7.5t-2 18.5v61q-44 1 -85 8.5t-71 16.5q-31 10 -43 19t-12 21q0 15 9 34q6 16 11.5 23t13.5 7q6 0 13.5 -2.5t18.5 -5.5l31.5 -10.5t53.5 -13t60 -4.5v238
q-110 14 -160.5 66t-50.5 131q0 56 18.5 93t51.5 64q25 22 59.5 33.5t81.5 15.5v62q0 13 2 18.5t7.5 7.5t18.5 2h26q13 0 18.5 -2t7.5 -7.5t2 -18.5v-61q44 -2 77 -9t72 -19q20 -6 26.5 -13.5t6.5 -18.5q0 -7 -4 -18t-8 -19q-10 -26 -27 -26q-7 0 -15.5 2.5t-17 5.5t-16.5 6
q-45 12 -94 15v-224q118 -14 168.5 -66.5t50.5 -131.5q0 -83 -48.5 -143zM159 580.5q-9 -20.5 -9 -43.5q0 -31 9.5 -51.5t34.5 -34.5t70 -22v213q-27 -2 -46 -8.5t-33 -18.5q-17 -14 -26 -34.5zM458 264q-10 21 -36 35.5t-76 22.5v-226q64 9 93 37.5t29 76.5q0 33 -10 54z
" />
    <glyph glyph-name="percent" unicode="%" horiz-adv-x="829" 
d="M332.5 426.5q-40.5 -40.5 -112.5 -40.5h-15q-70 0 -110 41t-40 126v23q0 87 40 128t113 41h16q70 0 109.5 -40.5t39.5 -125.5v-23q0 -89 -40.5 -129.5zM719 731q0 -5 -4 -12t-7.5 -11t-4.5 -6l-489 -692q-11 -15 -19 -19.5t-26 -4.5h-20q-20 0 -29 3t-9 10t4 15t10 16
l489 691q11 15 19 19.5t26 4.5h22q38 0 38 -14zM143 503.5q6 -22.5 21.5 -34t45.5 -11.5h7q29 0 45 12t22 34.5t6 58.5v6q0 38 -6.5 60.5t-23 33.5t-46.5 11q-31 0 -48 -11.5t-23 -34t-6 -59.5v-6q0 -37 6 -59.5zM622 -14h-16q-70 0 -109.5 41t-39.5 126v22q0 170 153 170
h16q69 0 108.5 -41t39.5 -126v-22q0 -170 -152 -170zM545 103.5q6 -22.5 21.5 -34t44.5 -11.5h8q29 0 45 11.5t22 34t6 58.5v7q0 37 -6.5 59.5t-23 34t-46.5 11.5q-32 0 -48.5 -11.5t-22.5 -34t-6 -59.5v-7q0 -36 6 -58.5z" />
    <glyph glyph-name="ampersand" unicode="&#x26;" horiz-adv-x="828" 
d="M641.5 266q-23.5 -60 -57.5 -108q17 -21 33 -34.5t44 -23.5t72 -10h14q13 0 17.5 -6.5t4.5 -22.5v-31q0 -17 -6.5 -23.5t-20.5 -6.5h-29q-63 0 -112 21.5t-79 65.5q-49 -48 -101 -73t-119 -25q-72 0 -123 28.5t-77.5 78.5t-26.5 113q0 57 19.5 99.5t53 68t74.5 33.5
q20 4 31 4q-99 56 -99 161q0 45 19.5 83.5t61.5 62.5t106 24q44 0 76 -10.5t59 -24.5q13 -8 16.5 -14.5t3.5 -14.5q0 -10 -9 -30q-12 -25 -25 -25q-5 0 -13 3.5t-15 7t-12 5.5q-37 16 -77 16t-66.5 -22.5t-26.5 -65.5q0 -33 14.5 -57t35.5 -40.5t57 -37.5q27 -16 49 -31
q33 -24 53.5 -44.5t37 -47.5t35.5 -71q22 44 32.5 77.5t16.5 70.5h-65q-17 0 -22 5.5t-5 22.5v34q0 14 6 20t21 6h230q14 0 18 -5.5t4 -20.5v-34q0 -18 -4 -23t-19 -5h-69q-13 -63 -36.5 -123zM470 162q-22 53 -44.5 92t-55.5 65.5t-75 26.5q-36 0 -63.5 -16t-43 -47
t-15.5 -73q0 -37 16 -67.5t45.5 -48.5t69.5 -18q95 0 166 86z" />
    <glyph glyph-name="quotesingle" unicode="'" horiz-adv-x="215" 
d="M60 663v52q0 13 2.5 19t9 8.5t19.5 2.5h33q13 0 19.5 -2.5t9 -8.5t2.5 -19v-52q0 -31 -3 -55l-12 -107q-2 -17 -8 -22t-23 -5h-3q-18 0 -24 5t-7 22l-11 107q-4 21 -4 55z" />
    <glyph glyph-name="parenleft" unicode="(" horiz-adv-x="375" 
d="M303 793.5q5 3.5 9 3.5q8 0 20 -13l24 -23q5 -5 8.5 -10t3.5 -9q0 -7 -12 -19q-185 -185 -185 -421t185 -421q5 -5 8.5 -10t3.5 -9q0 -7 -12 -19l-24 -23q-12 -13 -20 -13q-4 0 -9 3.5t-11 9.5q-104 95 -164.5 216.5t-60.5 267.5q0 143 60.5 263.5t164.5 216.5
q6 6 11 9.5z" />
    <glyph glyph-name="parenright" unicode=")" horiz-adv-x="375" 
d="M63 -193q-4 0 -9 3.5t-11 9.5l-24 23q-5 5 -8.5 10t-3.5 9q0 7 13 19q184 188 184 422q0 236 -185 421q-12 11 -12 18t12 19l24 23q6 6 11 9.5t9 3.5q8 0 20 -13q105 -96 165 -216.5t60 -265.5q0 -144 -60.5 -266t-164.5 -216q-12 -13 -20 -13z" />
    <glyph glyph-name="asterisk" unicode="*" horiz-adv-x="474" 
d="M378 387q0 -5 -4 -9t-13 -9l-35 -21q-12 -6 -18 -6t-9.5 4.5t-8.5 15.5l-51 129h-4l-51 -129q-5 -12 -8.5 -16.5t-9.5 -4.5q-5 0 -19 7l-35 21q-9 5 -13 9t-4 8q0 6 11 19l86 110l-2 3l-137 -18q-5 -1 -12 -1q-10 0 -13.5 6t-3.5 21v36q0 15 3.5 20.5t13.5 5.5q7 0 12 -1
l137 -20l2 4l-86 109q-11 13 -11 20q0 4 4.5 8t13.5 10l35 20q13 7 19 7t9.5 -4.5t7.5 -15.5l51 -129h4l51 129q4 11 7.5 15.5t9.5 4.5t19 -7l36 -20q9 -5 13 -9.5t4 -8.5q0 -8 -10 -19l-87 -110l1 -3l138 20q4 1 10 1q11 0 15 -6t4 -21v-36q0 -15 -3.5 -21t-13.5 -6
q-7 0 -12 1l-137 18l-3 -3l88 -110q9 -12 9 -18z" />
    <glyph glyph-name="plus" unicode="+" horiz-adv-x="635" 
d="M361 147q0 -17 -5 -22.5t-22 -5.5h-33q-12 0 -17.5 2t-7.5 7.5t-2 18.5v179h-180q-17 0 -22 5.5t-5 22.5v32q0 12 2 17.5t7.5 7.5t17.5 2h180v180q0 17 5 22.5t22 5.5h33q17 0 22 -5.5t5 -22.5v-180h180q12 0 17.5 -2t7.5 -7.5t2 -17.5v-32q0 -17 -5.5 -22.5t-21.5 -5.5
h-180v-179z" />
    <glyph glyph-name="comma" unicode="," horiz-adv-x="249" 
d="M69.5 5.5q-5.5 5.5 -5.5 22.5v64q0 14 2 20t8.5 8t21.5 2h57q15 0 21.5 -2t9 -8t2.5 -19v-63q0 -15 -5 -30t-17 -37l-38 -71q-9 -16 -14.5 -21t-11.5 -5q-10 0 -21 7q-6 3 -9.5 6.5t-3.5 10.5q0 6 1.5 11.5t4.5 11.5l33 87h-18q-12 0 -17.5 5.5z" />
    <glyph glyph-name="hyphen" unicode="-" horiz-adv-x="359" 
d="M59.5 258q-5.5 2 -7.5 7.5t-2 17.5v33q0 12 2 17.5t7.5 7.5t17.5 2h205q12 0 17.5 -2t7.5 -7.5t2 -17.5v-33q0 -12 -2 -17.5t-7.5 -7.5t-17.5 -2h-205q-12 0 -17.5 2z" />
    <glyph glyph-name="period" unicode="." horiz-adv-x="249" 
d="M76 2q-7 2 -9.5 8t-2.5 19v64q0 13 2 19t8 8t21 2h59q15 0 21.5 -2t8.5 -8t2 -19v-64q0 -13 -2.5 -19t-9.5 -8t-22 -2h-54q-15 0 -22 2z" />
    <glyph glyph-name="slash" unicode="/" horiz-adv-x="468" 
d="M26.5 -12.5q-7.5 3.5 -7.5 13.5q0 6 4.5 16.5t6.5 14.5l323 688q8 16 15.5 20.5t25.5 4.5h19q16 0 24 -3t8 -13q0 -5 -3.5 -13.5t-7.5 -18.5l-322 -687q-8 -17 -15.5 -21.5t-25.5 -4.5h-18q-19 0 -26.5 3.5z" />
    <glyph glyph-name="zero" unicode="0" horiz-adv-x="616" 
d="M78.5 602q23.5 71 76.5 107t143 36h20q89 0 142.5 -36.5t77 -107t23.5 -179.5v-114q0 -109 -24 -179.5t-77.5 -106.5t-141.5 -36h-19q-91 0 -144.5 36.5t-76.5 107.5t-23 179v113q0 109 23.5 180zM172 181q12 -50 40.5 -75.5t79.5 -25.5h31q51 0 80 25t41 75.5t12 131.5
v107q0 81 -12 131.5t-41 75.5t-80 25h-31q-51 0 -79.5 -25t-40.5 -75.5t-12 -131.5v-107q0 -81 12 -131z" />
    <glyph glyph-name="one" unicode="1" horiz-adv-x="616" 
d="M116.5 2q-5.5 2 -8 8t-2.5 19v35q0 18 5.5 23.5t23.5 5.5h154v462q0 43 2 63h-3q-12 -10 -20 -18q-26 -23 -33 -29l-81 -64q-13 -10 -21 -10q-5 0 -9.5 3.5t-9.5 12.5l-19 26q-4 6 -6.5 11t-2.5 9t4 9t12 12l169 133q14 11 23 14.5t26 3.5h40q13 0 19 -2t8 -7.5t2 -18.5
v-610h150q18 0 23 -5.5t5 -22.5v-37q0 -17 -5 -22.5t-23 -5.5h-404q-13 0 -18.5 2z" />
    <glyph glyph-name="two" unicode="2" horiz-adv-x="616" 
d="M171 557q-6 -5 -16 -5q-20 0 -38 9q-14 7 -19.5 14.5t-5.5 18.5q0 16 9.5 39t33.5 47q34 34 79.5 49.5t106.5 15.5q75 0 126.5 -26t77 -70.5t25.5 -100.5t-15.5 -97.5t-52 -72.5t-98.5 -55l-71 -28q-128 -50 -128 -190v-11h337q13 0 18.5 -2t7.5 -8t2 -20v-34
q0 -14 -2 -20t-7.5 -8t-17.5 -2h-416q-13 0 -18.5 2t-7.5 7.5t-2 18.5v44q0 112 46 192t156 122l52 20q59 23 86 53.5t27 80.5q0 52 -31 81.5t-103 29.5q-52 0 -84.5 -23t-45.5 -55q-5 -11 -11 -16z" />
    <glyph glyph-name="three" unicode="3" horiz-adv-x="616" 
d="M420.5 289q-14.5 28 -48 41.5t-89.5 13.5h-63q-12 0 -17.5 2t-7.5 8t-2 20v34q0 13 2 19t7.5 8t18.5 2h57q72 0 104 31.5t32 79.5q0 50 -31 76.5t-96 26.5q-71 0 -122 -33l-17 -11q-12 -10 -20 -10q-14 0 -34 24q-10 11 -15.5 19.5t-5.5 15.5q0 19 37 43q36 23 78 34.5
t106 11.5q68 0 118.5 -21t78.5 -63t28 -103q0 -59 -30.5 -104t-104.5 -59v-2q78 -10 117 -54.5t39 -128.5q0 -102 -59.5 -162.5t-183.5 -60.5q-61 0 -110.5 12.5t-90.5 43.5q-22 16 -35 33t-13 28q0 13 25 36q15 13 22.5 18t14.5 5t21 -14q26 -31 68.5 -49.5t88.5 -18.5
q75 0 111 35t36 101q0 44 -14.5 72z" />
    <glyph glyph-name="four" unicode="4" horiz-adv-x="616" 
d="M465.5 725.5q5.5 -5.5 5.5 -23.5v-449h88q12 0 18 -2t8 -8t2 -19v-35q0 -18 -5.5 -23.5t-22.5 -5.5h-88v-132q0 -18 -5.5 -23t-23.5 -5h-42q-13 0 -19 2t-8 8t-2 19v131h-307q-13 0 -18.5 2t-8 8t-2.5 19v23q0 15 2.5 24.5t10.5 19.5l323 452q10 12 17.5 17.5t21.5 5.5
h32q18 0 23.5 -5.5zM272 253h99v237q0 44 3 75h-2q-8 -14 -20.5 -31t-15.5 -22l-15 -22l-101 -142l-15 -21q-15 -21 -31.5 -43t-28.5 -32v-2q63 3 127 3z" />
    <glyph glyph-name="five" unicode="5" horiz-adv-x="616" 
d="M162.5 314q-5.5 -5 -13.5 -5q-9 0 -22 2t-24 5q-14 4 -18 8.5t-4 14.5q0 12 6 64l34 300q2 13 4.5 18.5t8.5 7.5t18 2h324q12 0 17.5 -2t7.5 -7.5t2 -18.5v-36q0 -13 -2 -19t-7 -8t-17 -2h-267l-17 -151q-1 -15 -6 -38h3q9 12 29 23t49 18.5t63 7.5q117 0 164.5 -70.5
t47.5 -171.5q0 -108 -52.5 -189t-193.5 -81q-55 0 -106.5 16t-90.5 49q-18 15 -27.5 27.5t-13.5 27.5l-1 6q0 11 11 23q8 8 22 18t22 12q3 1 8 1q13 0 22 -12q34 -38 70 -56t79 -18q146 0 146 169q0 76 -30.5 115.5t-104.5 39.5q-46 0 -76 -17.5t-51 -54.5q-8 -13 -13.5 -18
z" />
    <glyph glyph-name="six" unicode="6" horiz-adv-x="616" 
d="M238 633q-35 -18 -52.5 -60t-17.5 -113q0 -8 -2 -30h2q1 1 8.5 11t15.5 15q29 25 61.5 35.5t79.5 10.5q72 0 122.5 -31.5t75.5 -88t25 -131.5q0 -128 -62 -196.5t-185 -68.5q-115 0 -180.5 70t-65.5 221v158q0 98 22.5 165.5t79 106t155.5 38.5q51 0 89.5 -6t76.5 -21
q18 -7 27.5 -16t9.5 -18q0 -15 -10 -36q-8 -16 -12.5 -21.5t-14.5 -5.5t-29 8q-27 10 -56.5 16t-72.5 6q-55 0 -90 -18zM395.5 103q30.5 21 43 57.5t12.5 90.5q0 76 -34.5 116.5t-99.5 40.5q-69 0 -107.5 -38.5t-38.5 -118.5q0 -87 35 -129t106 -42q53 2 83.5 23z" />
    <glyph glyph-name="seven" unicode="7" horiz-adv-x="616" 
d="M413 554.5q31 53.5 31 82.5h-272v-83q0 -17 -5.5 -22.5t-23.5 -5.5h-35q-12 0 -18 2.5t-8 8t-2 18.5v146q0 14 2 20t8 8t19 2h423q13 0 17 -4.5t4 -19.5v-21q0 -44 -15.5 -88t-39.5 -85.5t-69 -112.5l-44 -69q-38 -61 -59.5 -133.5t-21.5 -149.5v-19q0 -13 -2 -19t-8 -8
t-20 -2h-43q-14 0 -20 2t-8 8t-2 20q0 103 27.5 196t89.5 183q64 92 95 145.5z" />
    <glyph glyph-name="eight" unicode="8" horiz-adv-x="616" 
d="M434 721.5q51 -23.5 77 -67t26 -100.5q0 -59 -28 -100t-91 -67v-2q69 -32 105.5 -79t36.5 -113q0 -58 -27 -105t-83 -75.5t-140 -28.5q-87 0 -144.5 26t-85 72t-27.5 106q0 138 139 193v2q-60 28 -87 68.5t-27 98.5q0 59 28.5 103.5t81 68t122.5 23.5q73 0 124 -23.5z
M405 475q28 31 28 72q0 52 -32 79.5t-93 27.5q-39 0 -67.5 -13t-43.5 -36t-15 -52q0 -28 13 -48.5t42 -38.5t80 -37q60 15 88 46zM186.5 278q-29.5 -36 -29.5 -86q0 -56 40.5 -86.5t108.5 -30.5q69 0 109.5 31t40.5 89q0 33 -18.5 58t-56 46.5t-99.5 44.5q-66 -30 -95.5 -66
z" />
    <glyph glyph-name="nine" unicode="9" horiz-adv-x="616" 
d="M373 98q35 18 52.5 60t17.5 113q0 8 2 30h-2q-1 -1 -8.5 -11t-15.5 -15q-29 -25 -61.5 -35.5t-79.5 -10.5q-72 0 -122.5 31.5t-75.5 88t-25 131.5q0 128 62 196.5t185 68.5q115 0 180.5 -70t65.5 -221v-158q0 -98 -22.5 -165.5t-79 -106t-155.5 -38.5q-51 0 -89.5 6
t-76.5 21q-18 7 -27.5 16t-9.5 18q0 15 10 36q8 16 12.5 21.5t14.5 5.5t29 -8q27 -10 56.5 -16t72.5 -6q55 0 90 18zM215.5 628q-30.5 -21 -43 -57.5t-12.5 -90.5q0 -76 34.5 -116.5t99.5 -40.5q69 0 107.5 38.5t38.5 118.5q0 87 -35 129t-106 42q-53 -2 -83.5 -23z" />
    <glyph glyph-name="colon" unicode=":" horiz-adv-x="330" 
d="M116 350q-7 2 -9.5 8t-2.5 19v64q0 13 2 19t8.5 8t20.5 2h59q15 0 21.5 -2t8.5 -8t2 -19v-64q0 -13 -2.5 -19t-9.5 -8t-22 -2h-54q-15 0 -22 2zM116 2q-7 2 -9.5 8t-2.5 19v64q0 13 2 18.5t8.5 8t20.5 2.5h59q15 0 21.5 -2t8.5 -8t2 -19v-64q0 -13 -2.5 -19t-9.5 -8
t-22 -2h-54q-15 0 -22 2z" />
    <glyph glyph-name="semicolon" unicode=";" horiz-adv-x="330" 
d="M116 350q-7 2 -9.5 8t-2.5 19v64q0 13 2 19t8.5 8t20.5 2h59q15 0 21.5 -2t8.5 -8t2 -19v-64q0 -13 -2.5 -19t-9.5 -8t-22 -2h-54q-15 0 -22 2zM109.5 5.5q-5.5 5.5 -5.5 22.5v64q0 14 2 20t8.5 8t21.5 2h57q15 0 21.5 -2t9 -8t2.5 -19v-63q0 -15 -5 -30t-17 -37l-38 -71
q-9 -16 -14.5 -21t-11.5 -5q-10 0 -21 7q-6 3 -9.5 6.5t-3.5 10.5q0 6 1.5 11.5t4.5 11.5l33 87h-18q-12 0 -17.5 5.5z" />
    <glyph glyph-name="less" unicode="&#x3c;" horiz-adv-x="635" 
d="M71.5 402.5q4.5 6.5 21.5 14.5l449 193q9 4 16 4q6 0 8 -5t2 -17v-35q0 -18 -4.5 -25.5t-20.5 -14.5l-351 -145v-2l351 -146q16 -7 20.5 -14.5t4.5 -24.5v-38q0 -12 -2 -17t-8 -5q-3 0 -15 5l-451 193q-16 7 -20.5 14.5t-4.5 25.5v15q0 18 4.5 24.5z" />
    <glyph glyph-name="equal" unicode="=" horiz-adv-x="635" 
d="M76.5 442q-5.5 2 -7.5 7.5t-2 18.5v31q0 17 5.5 22.5t22.5 5.5h446q17 0 22 -5.5t5 -22.5v-31q0 -13 -2 -18.5t-7.5 -7.5t-17.5 -2h-446q-13 0 -18.5 2zM72.5 218.5q-5.5 5.5 -5.5 22.5v31q0 18 5.5 23t22.5 5h446q12 0 17.5 -2t7.5 -7.5t2 -18.5v-31q0 -17 -5 -22.5
t-22 -5.5h-446q-17 0 -22.5 5.5z" />
    <glyph glyph-name="greater" unicode="&#x3e;" horiz-adv-x="635" 
d="M71.5 208q4.5 7 20.5 14l350 146v2l-350 146q-16 7 -20.5 14t-4.5 25v38q0 12 2 16.5t7 4.5q7 0 16 -4l451 -193q16 -7 20.5 -14.5t4.5 -25.5v-15q0 -18 -5 -25.5t-21 -14.5l-449 -192q-12 -5 -16 -5q-6 0 -8 5.5t-2 17.5v35q0 18 4.5 25z" />
    <glyph glyph-name="question" unicode="?" horiz-adv-x="457" 
d="M154 626.5q-30 -25.5 -37 -70.5q-2 -9 -8.5 -13t-16.5 -3l-52 8q-8 1 -12.5 7.5t-4.5 15.5q0 41 28 84q27 43 73.5 66.5t112.5 23.5q98 0 148 -50t50 -138q0 -57 -24.5 -104.5t-78.5 -95.5q-29 -26 -44 -45.5t-21.5 -41t-6.5 -52.5v-13q0 -12 -3 -15t-14 -3h-49
q-15 0 -20 4.5t-6 21.5q-1 9 -1 22q0 54 21 98t58 76q48 41 68.5 77t20.5 72q0 94 -106 94q-45 0 -75 -25.5zM164 2q-7 2 -9.5 8t-2.5 19v64q0 13 2 18.5t8.5 8t20.5 2.5h59q15 0 21.5 -2t8.5 -8t2 -19v-64q0 -13 -2.5 -19t-9.5 -8t-22 -2h-54q-15 0 -22 2z" />
    <glyph glyph-name="at" unicode="@" horiz-adv-x="1002" 
d="M515.5 62.5q-40.5 -22.5 -88.5 -22.5q-46 0 -80 22.5t-52.5 63.5t-18.5 95q0 89 31 155t90.5 101.5t141.5 35.5q87 0 156 -19q13 -3 16.5 -6t3.5 -11q0 -12 -6 -38l-34 -179q-11 -60 -11 -79q0 -34 11.5 -45t33.5 -11q38 0 72.5 26t57 80t22.5 133t-31 144.5t-105.5 107
t-196.5 41.5q-115 0 -202 -50.5t-134.5 -141t-47.5 -206.5q0 -113 41 -194t119 -124t189 -43q88 0 150.5 12.5t109.5 35.5q5 2 10.5 3.5t9.5 1.5q6 0 11 -7.5t11 -21.5q9 -18 9 -30q0 -7 -3.5 -11t-11.5 -8q-52 -29 -132 -45t-175 -16q-132 0 -228.5 50t-149.5 149.5
t-53 244.5q0 143 58 254t166.5 173t255.5 62q214 0 317 -102.5t103 -286.5q0 -96 -35 -168t-92 -110t-122 -38q-54 0 -83.5 23.5t-35.5 61.5h-2q-25 -40 -65.5 -62.5zM570 214.5q6 15.5 8 26.5l36 183q-40 7 -81 7q-50 0 -87 -26t-56.5 -72t-19.5 -104q0 -49 19 -76.5
t51 -27.5q35 0 63 14t56 52q5 8 11 23.5z" />
    <glyph glyph-name="A" unicode="A" horiz-adv-x="662" 
d="M26 4.5q-9 4.5 -9 14.5q0 13 9 36l244 646q7 19 14.5 24.5t26.5 5.5h38q14 0 20.5 -1.5t10 -7t8.5 -19.5l248 -648q9 -24 9 -35t-7.5 -15.5t-28.5 -4.5h-35q-18 0 -25 5.5t-13 23.5l-72 194h-269l-73 -195q-6 -17 -13 -22.5t-25 -5.5h-30q-19 0 -28 4.5zM352 535
q-5 13 -8 25t-6 21l-7 23h-2q-4 -17 -12 -41l-11 -33l-77 -214h201z" />
    <glyph glyph-name="B" unicode="B" horiz-adv-x="681" 
d="M100 721.5q2 5.5 7.5 7.5t18.5 2h240q108 0 168 -42.5t60 -146.5q0 -64 -34 -106.5t-100 -52.5v-2q83 -9 124.5 -50.5t41.5 -123.5q0 -102 -59.5 -154.5t-177.5 -52.5h-262q-13 0 -19 2t-8 8t-2 19v674q0 13 2 18.5zM458.5 448.5q33.5 26.5 33.5 81.5q0 39 -13 62
t-44 34.5t-84 11.5h-153v-216h159q68 0 101.5 26.5zM486 120q38 27 38 89q0 43 -13 69t-43 38.5t-82 12.5h-188v-236h173q77 0 115 27z" />
    <glyph glyph-name="C" unicode="C" horiz-adv-x="621" 
d="M176 22.5q-62 36.5 -91.5 110.5t-29.5 188v92q0 161 66.5 246.5t220.5 85.5q64 0 113.5 -8.5t87.5 -26.5q15 -8 22.5 -15.5t7.5 -17.5q0 -13 -6 -28q-7 -17 -14.5 -25.5t-17.5 -8.5q-7 0 -20 4.5t-20 6.5q-65 25 -138 25q-77 0 -119 -22t-60.5 -74.5t-18.5 -148.5v-79
q0 -98 21 -151.5t62 -74.5t109 -21q46 0 87 11.5t80 29.5q10 5 18 8t15 3q9 0 15 -6t11 -19q11 -22 11 -34t-7.5 -19t-26.5 -17q-40 -22 -95 -36.5t-121 -14.5q-100 0 -162 36.5z" />
    <glyph glyph-name="D" unicode="D" horiz-adv-x="723" 
d="M599 639.5q68 -91.5 68 -245.5v-53q0 -110 -31 -185t-101 -115.5t-186 -40.5h-223q-18 0 -23 5.5t-5 22.5v674q0 13 2 19t7.5 8t18.5 2h254q151 0 219 -91.5zM470.5 116q52.5 23 73 73t20.5 138v63q0 95 -22 149.5t-64 76.5t-106 22h-174v-545h122q98 0 150.5 23z" />
    <glyph glyph-name="E" unicode="E" horiz-adv-x="600" 
d="M107.5 2q-5.5 2 -7.5 7.5t-2 18.5v675q0 13 2 18.5t7.5 7.5t17.5 2h392q13 0 18.5 -2t7.5 -7.5t2 -18.5v-38q0 -12 -2 -17.5t-7.5 -7.5t-18.5 -2h-319v-207h224q13 0 18.5 -2t7.5 -7.5t2 -18.5v-38q0 -12 -2 -17.5t-7.5 -7.5t-18.5 -2h-224v-245h334q17 0 22.5 -5
t5.5 -22v-38q0 -13 -2 -18.5t-7.5 -7.5t-18.5 -2h-407q-12 0 -17.5 2z" />
    <glyph glyph-name="F" unicode="F" horiz-adv-x="572" 
d="M107.5 2q-5.5 2 -7.5 7.5t-2 18.5v675q0 13 2 18.5t7.5 7.5t17.5 2h388q17 0 22.5 -5t5.5 -23v-38q0 -17 -5.5 -22t-22.5 -5h-315v-222h224q17 0 22.5 -5t5.5 -23v-38q0 -17 -5.5 -22t-22.5 -5h-224v-295q0 -17 -5.5 -22.5t-22.5 -5.5h-45q-12 0 -17.5 2z" />
    <glyph glyph-name="G" unicode="G" horiz-adv-x="720" 
d="M249 628.5q-47 -22.5 -68.5 -74t-21.5 -143.5v-82q0 -100 23 -154t71.5 -75.5t131.5 -21.5q35 0 56.5 4.5t48.5 12.5q15 5 28 14t13 20v196h-153q-18 0 -23.5 5.5t-5.5 24.5v33q0 13 2.5 19.5t8 8.5t18.5 2h224q13 0 19 -2t8 -7.5t2 -18.5v-305q0 -12 -4 -19.5t-12.5 -14
t-19.5 -12.5q-38 -23 -94 -38t-124 -15q-119 0 -190 39.5t-101.5 113.5t-30.5 183v92q0 163 76.5 247t239.5 84q133 0 214 -34q30 -13 32 -33v-2q0 -12 -7 -26q-13 -35 -31 -35q-6 0 -23 5l-20 6q-38 12 -72.5 18.5t-86.5 6.5q-81 0 -128 -22.5z" />
    <glyph glyph-name="H" unicode="H" horiz-adv-x="752" 
d="M108 2.5q-6 2.5 -8 8t-2 18.5v673q0 13 2 18.5t8 8t18 2.5h43q18 0 23.5 -5.5t5.5 -22.5v-268h356v268q0 17 5.5 22.5t23.5 5.5h43q13 0 18.5 -2t7.5 -7.5t2 -18.5v-674q0 -13 -2 -18.5t-8 -8t-18 -2.5h-43q-18 0 -23.5 5.5t-5.5 23.5v313h-356v-314q0 -17 -5.5 -22.5
t-23.5 -5.5h-43q-12 0 -18 2.5z" />
    <glyph glyph-name="I" unicode="I" horiz-adv-x="454" 
d="M394.5 81q5.5 -2 7.5 -7.5t2 -17.5v-28q0 -13 -2 -18.5t-7.5 -7.5t-17.5 -2h-300q-13 0 -18.5 2t-7.5 7.5t-2 18.5v28q0 17 5.5 22t22.5 5h99v564h-99q-18 0 -23 5.5t-5 22.5v28q0 13 2 18.5t7.5 7.5t18.5 2h300q12 0 17.5 -2t7.5 -7.5t2 -18.5v-28q0 -17 -5 -22.5
t-22 -5.5h-100v-564h100q12 0 17.5 -2z" />
    <glyph glyph-name="J" unicode="J" horiz-adv-x="513" 
d="M416.5 725.5q5.5 -5.5 5.5 -23.5v-508q0 -88 -44 -149.5t-151 -61.5q-69 0 -111.5 24.5t-71.5 72.5q-16 26 -16 46q0 9 7 16t24 16q7 3 13 6t11.5 5t11.5 2q9 0 15 -7.5t13 -22.5q28 -64 104 -64q95 0 95 114v447h-143q-17 0 -22.5 5.5t-5.5 23.5v35q0 18 5.5 23.5
t23.5 5.5h213q18 0 23.5 -5.5z" />
    <glyph glyph-name="K" unicode="K" horiz-adv-x="664" 
d="M649.5 32.5q5.5 -9.5 5.5 -16.5q0 -10 -8 -13t-24 -3h-54q-12 0 -18.5 2.5t-13 8t-13.5 12.5l-278 295q-10 10 -18 15t-21 5h-9v-309q0 -13 -2.5 -19t-8 -8t-18.5 -2h-42q-13 0 -19 2.5t-8 8t-2 18.5v673q0 13 2 19t8 8t18 2h43q18 0 23.5 -5.5t5.5 -23.5v-270h7
q12 0 21 5.5t23 19.5l245 251q12 13 21 18t25 5h45q20 0 29 -3.5t9 -12.5q0 -7 -5 -13.5t-13.5 -15.5t-11.5 -12l-279 -283l316 -335q14 -14 19.5 -23.5z" />
    <glyph glyph-name="L" unicode="L" horiz-adv-x="555" 
d="M103 5.5q-5 5.5 -5 22.5v675q0 13 2 18.5t7.5 7.5t18.5 2h43q13 0 18.5 -2t8 -8t2.5 -18v-610h310q17 0 22.5 -5t5.5 -23v-37q0 -17 -5.5 -22.5t-23.5 -5.5h-381q-18 0 -23 5.5z" />
    <glyph glyph-name="M" unicode="M" horiz-adv-x="857" 
d="M108 2q-6 2 -8 8t-2 19v673q0 13 2 18.5t8 8t18 2.5h42q14 0 21 -2t12 -7t11 -17l202 -405q10 -21 14 -33h2q8 24 14 35l200 403q6 12 11 17t12 7t20 2h44q17 0 22.5 -5.5t5.5 -23.5v-673q0 -13 -2 -18.5t-8 -8t-18 -2.5h-43q-12 0 -18 2.5t-8 8t-2 18.5v457q0 15 1.5 32
t3.5 32h-3q-5 -16 -13 -35t-17 -37l-149 -293q-2 -4 -7 -13.5t-11.5 -14.5t-15.5 -5h-30q-18 0 -26.5 6t-17.5 23l-151 297q-9 16 -17 36.5t-12 34.5h-3q5 -30 5 -58v-463q0 -17 -5.5 -22.5t-23.5 -5.5h-42q-12 0 -18 2z" />
    <glyph glyph-name="N" unicode="N" horiz-adv-x="753" 
d="M103.5 5.5q-5.5 5.5 -5.5 23.5v673q0 13 2 18.5t8 8t18 2.5h40q17 0 25 -4.5t17 -19.5l314 -480q13 -20 24 -40.5t15 -32.5h2q-3 39 -3 81v467q0 18 5.5 23.5t23.5 5.5h38q18 0 23.5 -5.5t5.5 -23.5v-673q0 -18 -5.5 -23.5t-23.5 -5.5h-40q-12 0 -18.5 2t-11.5 7t-13 17
l-315 479q-10 15 -21.5 36.5t-15.5 35.5h-2q3 -34 3 -88v-460q0 -18 -5.5 -23.5t-23.5 -5.5h-37q-18 0 -23.5 5.5z" />
    <glyph glyph-name="O" unicode="O" horiz-adv-x="731" 
d="M137 668q82 77 225 77h11q149 0 226 -81t77 -245v-101q0 -332 -307 -332h-11q-141 0 -222 78.5t-81 247.5v101q0 178 82 255zM552 550q-20 52 -64 76.5t-117 24.5h-11q-74 0 -118 -25t-63.5 -77t-19.5 -137v-93q0 -85 20 -137t64 -77t117 -25h11q72 0 116 24t64.5 76.5
t20.5 138.5v93q0 86 -20 138z" />
    <glyph glyph-name="P" unicode="P" horiz-adv-x="650" 
d="M108 2.5q-6 2.5 -8 8t-2 18.5v673q0 13 2 18.5t8 8t19 2.5h231q81 0 137.5 -19.5t88.5 -67.5t32 -130q0 -88 -33 -137.5t-91 -69t-140 -19.5h-154v-259q0 -18 -5.5 -23.5t-23.5 -5.5h-43q-12 0 -18 2.5zM443 394q35 12 51.5 40.5t16.5 76.5q0 47 -16.5 74.5t-51 39.5
t-91.5 12h-154v-255h153q57 0 92 12z" />
    <glyph glyph-name="Q" unicode="Q" horiz-adv-x="731" 
d="M600 39l-18 13q-37 -32 -90.5 -49t-122.5 -17h-11q-141 0 -222 78.5t-81 247.5v101q0 332 306 332h11q150 0 227 -81t77 -245v-101q0 -119 -38 -191q40 -31 77 -51q15 -8 20 -12.5t5 -10.5q0 -8 -4 -20l-12 -32q-3 -9 -7.5 -13t-13.5 -4q-12 0 -25.5 6.5t-30.5 16.5
q-25 15 -47 32zM552 550q-20 52 -64 76.5t-117 24.5h-12q-74 0 -117.5 -25t-63 -77t-19.5 -137v-93q0 -85 20 -137t64 -77t117 -25h11q48 0 80 9.5t56 27.5l-154 150q-17 17 -17 31q0 8 2.5 13t8.5 11l21 19q6 5 11 7t12 2t13 -3.5t15 -12.5l139 -135q14 42 14 120v93
q0 86 -20 138z" />
    <glyph glyph-name="R" unicode="R" horiz-adv-x="697" 
d="M652 32q4 -8 4 -15q0 -9 -9 -13t-28 -4h-36q-19 0 -27 4.5t-20 19.5l-168 231q-13 18 -25 25t-33 7h-112v-259q0 -12 -2.5 -18t-8.5 -8t-19 -2h-41q-13 0 -19 2t-8 8t-2 19v673q0 13 2 19t8 8t19 2h233q98 0 158 -23t87.5 -71t27.5 -125q0 -94 -41 -145.5t-130 -70.5
l175 -241q11 -15 15 -23zM456.5 391q36.5 11 54.5 39t18 81q0 47 -17 74.5t-56.5 40t-109.5 12.5h-148v-258h161q61 0 97.5 11z" />
    <glyph glyph-name="S" unicode="S" horiz-adv-x="631" 
d="M520 54.5q-59 -67.5 -208 -67.5q-97 0 -188 31q-33 12 -44 20t-11 20t9 35q8 17 13.5 23.5t13.5 6.5q5 0 10.5 -1.5l11 -3t10.5 -3.5q16 -6 24 -8q35 -14 64.5 -20.5t75.5 -6.5q95 0 136.5 33.5t41.5 97.5q0 44 -14.5 69t-55 40.5t-118.5 23.5q-115 11 -168.5 64.5
t-53.5 132.5q0 55 18.5 91.5t51.5 63.5q32 25 76 37t108 12q60 0 100 -6.5t86 -20.5q20 -7 26.5 -13.5t6.5 -18.5q0 -10 -11 -38q-6 -13 -12.5 -19.5t-15.5 -6.5q-11 0 -30 7l-19 6q-34 9 -65.5 13t-74.5 4q-39 0 -65.5 -6.5t-44.5 -20.5q-17 -14 -26.5 -34.5t-9.5 -42.5
q0 -35 13.5 -56.5t50.5 -35t107 -20.5q130 -13 185 -70.5t55 -144.5q0 -99 -59 -166.5z" />
    <glyph glyph-name="T" unicode="T" horiz-adv-x="594" 
d="M571.5 647q-2.5 -6 -8 -8t-18.5 -2h-198v-608q0 -13 -2 -18.5t-8 -8t-19 -2.5h-42q-13 0 -18.5 2t-8 8t-2.5 19v608h-199q-17 0 -22.5 5t-5.5 23v38q0 17 5.5 22.5t22.5 5.5h497q13 0 18.5 -2t8 -8t2.5 -18v-38q0 -12 -2.5 -18z" />
    <glyph glyph-name="U" unicode="U" horiz-adv-x="738" 
d="M583 61q-64 -75 -207 -75h-25q-129 0 -194.5 69.5t-65.5 200.5v446q0 13 2.5 19t8 8t18.5 2h43q12 0 18 -2.5t8 -8t2 -18.5v-437q0 -98 43 -141t133 -43q97 0 138.5 47.5t41.5 136.5v437q0 13 2 19t8 8t19 2h42q13 0 19 -2t8 -7.5t2 -18.5v-446q0 -121 -64 -196z" />
    <glyph glyph-name="V" unicode="V" horiz-adv-x="654" 
d="M312.5 172.5q2.5 -9.5 5.5 -18.5l9 -32h2q9 36 21 72l174 510q4 12 7.5 17.5t10 7.5t19.5 2h27q22 0 31 -4t9 -16q0 -7 -4 -19t-5 -16l-228 -647q-5 -14 -9 -20t-10.5 -7.5t-19.5 -1.5h-52q-14 0 -20.5 2t-10.5 7.5t-8 19.5l-226 647q-9 25 -9 35q0 11 7.5 15.5t28.5 4.5
h36q13 0 19 -1.5t9.5 -7t7.5 -17.5l173 -513q3 -10 5.5 -19.5z" />
    <glyph glyph-name="W" unicode="W" horiz-adv-x="837" 
d="M595.5 201.5q4.5 -30.5 5.5 -39.5h4q1 36 10 87l96 455q3 12 6 17.5t9.5 7.5t18.5 2h47q13 0 18.5 -3t5.5 -11q0 -5 -2.5 -16t-3.5 -16l-144 -658q-4 -17 -10.5 -22t-24.5 -5h-38q-18 0 -25 5t-11 22l-117 398q-17 60 -20 101h-4q-2 -21 -8 -51t-12 -50l-116 -397
q-4 -18 -11 -23t-25 -5h-36q-13 0 -19 2t-9.5 7.5t-6.5 17.5l-144 648q-8 36 -8 41q0 9 5.5 12t19.5 3h47q18 0 24.5 -5t9.5 -22l101 -471q3 -14 5 -32.5t2 -33.5h4q3 44 9 66l116 395q4 13 7.5 19t10 8t19.5 2h35q19 0 27 -6.5t11 -20.5l112 -380q5 -18 9.5 -48.5z" />
    <glyph glyph-name="X" unicode="X" horiz-adv-x="675" 
d="M132.5 5q-7.5 -5 -22.5 -5h-43q-31 0 -31 17q0 8 6.5 18.5t22.5 32.5l215 313l-198 290l-10 15t-9 15t-3 11q0 10 8 14.5t26 4.5h44q13 0 20 -5t18 -20l163 -240l164 240q11 16 17.5 20.5t20.5 4.5h41q18 0 26 -3t8 -11t-5.5 -18t-15.5 -25l-199 -291l219 -320
q3 -5 10 -14.5t11 -17.5t4 -13q0 -10 -9 -14t-29 -4h-39q-16 0 -23 5t-18 21l-186 273l-186 -273q-10 -16 -17.5 -21z" />
    <glyph glyph-name="Y" unicode="Y" horiz-adv-x="598" 
d="M32 687q-4 8 -7 15t-3 12q0 17 30 17h44q15 0 24 -5t17 -21l128 -260l18 -37q5 -9 9 -17.5t8 -19.5h3q6 18 13 32t8 17l13 26l126 260q6 13 14.5 19t25.5 6h40q16 0 24.5 -3.5t8.5 -11.5t-8.5 -24t-9.5 -19l-199 -373q-6 -10 -8 -18t-2 -20v-233q0 -18 -5.5 -23.5
t-23.5 -5.5h-42q-13 0 -19 2t-8 8t-2 19v232q0 12 -2 20t-8 18l-199 373q-4 7 -8 15z" />
    <glyph glyph-name="Z" unicode="Z" horiz-adv-x="597" 
d="M63.5 639q-5.5 2 -7.5 7.5t-2 18.5v38q0 13 2 18.5t7.5 7.5t18.5 2h442q17 0 22.5 -5.5t5.5 -22.5v-31q0 -18 -3 -27.5t-13 -23.5l-383 -525v-2h382q17 0 22.5 -5t5.5 -23v-38q0 -17 -5.5 -22.5t-22.5 -5.5h-475q-18 0 -23.5 5.5t-5.5 22.5v32q0 17 3.5 27t13.5 24
l384 524v2h-350q-13 0 -18.5 2z" />
    <glyph glyph-name="bracketleft" unicode="[" horiz-adv-x="375" 
d="M117 -186.5q-6 5.5 -6 23.5v960q0 18 5.5 23.5t23.5 5.5h183q13 0 18.5 -2t7.5 -8t2 -19v-29q0 -17 -5.5 -22.5t-22.5 -5.5h-116v-846h116q17 0 22.5 -5t5.5 -23v-29q0 -18 -5.5 -23.5t-23.5 -5.5h-182q-17 0 -23 5.5z" />
    <glyph glyph-name="backslash" unicode="\" horiz-adv-x="468" 
d="M25.5 714.5q-3.5 9.5 -3.5 14.5q0 9 7.5 12.5t25.5 3.5h19q18 0 26 -4.5t15 -20.5l321 -683q5 -10 8.5 -19t3.5 -14q0 -10 -7.5 -14t-25.5 -4h-18q-18 0 -25.5 4.5t-15.5 21.5l-321 681q-6 12 -9.5 21.5z" />
    <glyph glyph-name="bracketright" unicode="]" horiz-adv-x="375" 
d="M29.5 745.5q-5.5 5.5 -5.5 23.5v28q0 18 5.5 23.5t23.5 5.5h182q18 0 23.5 -5.5t5.5 -23.5v-960q0 -18 -5.5 -23.5t-23.5 -5.5h-182q-18 0 -23.5 5.5t-5.5 23.5v28q0 18 5.5 23.5t23.5 5.5h115v846h-115q-18 0 -23.5 5.5z" />
    <glyph glyph-name="asciicircum" unicode="^" horiz-adv-x="635" 
d="M471.5 351q-7.5 5 -15.5 21l-137 275h-2l-138 -275q-8 -17 -15 -22t-25 -5h-23q-16 0 -25 4t-9 15q0 12 16 38l163 317q6 12 11 17t12 7t21 2h25q14 0 21 -2t12 -7t11 -17l163 -317q16 -30 16 -41q0 -9 -7.5 -12t-22.5 -3h-26q-18 0 -25.5 5z" />
    <glyph glyph-name="underscore" unicode="_" horiz-adv-x="500" 
d="M498 -115.5q-2 -5.5 -7 -7t-18 -1.5h-447q-12 0 -17.5 1.5t-7 6.5t-1.5 18v26q0 11 2 15.5t7 5.5t18 1h446q14 0 19 -1t6.5 -5t1.5 -15v-27q0 -12 -2 -17.5z" />
    <glyph glyph-name="grave" unicode="`" horiz-adv-x="500" 
d="M150 780.5q-5 7.5 -5 13.5q0 16 30 16h47q18 0 25.5 -4.5t15.5 -19.5l79 -134q6 -9 9 -17t3 -14q0 -14 -21 -14h-15q-12 0 -19 4.5t-18 16.5l-116 134q-10 11 -15 18.5z" />
    <glyph glyph-name="a" unicode="a" horiz-adv-x="574" 
d="M361.5 457.5q-27.5 23.5 -93.5 23.5q-33 0 -57.5 -4.5t-51.5 -14.5q-25 -10 -39 -10q-10 0 -16 6t-12 21q-7 19 -7 30q0 10 9 16.5t30 14.5q73 25 143 25q83 0 131 -22.5t67 -62.5t19 -97v-216q0 -35 5.5 -59.5t17.5 -45.5q5 -9 7.5 -15.5t2.5 -11.5q0 -7 -5 -13.5
t-18 -14.5l-12 -7q-7 -4 -13.5 -7t-13.5 -3t-12.5 3t-12.5 13q-9 14 -16 31.5t-11 31.5h-2q-33 -38 -74 -59t-98 -21q-85 0 -130.5 43t-45.5 125q0 65 29.5 106t96.5 61t178 20h32v40q0 50 -27.5 73.5zM177.5 93q25.5 -21 69.5 -21q60 0 91 22.5t41 55.5t10 75v41h-36
q-81 0 -124.5 -11.5t-60 -34t-16.5 -59.5q0 -47 25.5 -68z" />
    <glyph glyph-name="b" unicode="b" horiz-adv-x="618" 
d="M467 536.5q48 -27.5 75 -85t27 -145.5v-38q0 -135 -67 -207t-198 -72q-54 0 -98 5.5t-89 16.5q-13 3 -18 6t-7 8.5t-2 18.5v664q0 13 2.5 19t8.5 8t19 2h36q14 0 20 -2t8 -7.5t2 -18.5v-219h2q60 74 164 74h5q62 0 110 -27.5zM395.5 93q37.5 19 56 62.5t18.5 117.5v24
q0 84 -31.5 133t-99.5 49h-9q-42 0 -75 -19.5t-51 -50t-18 -62.5v-257q25 -9 56 -12.5t55 -3.5q61 0 98.5 19z" />
    <glyph glyph-name="c" unicode="c" horiz-adv-x="503" 
d="M109.5 54.5q-60.5 65.5 -60.5 200.5v40q0 139 61 204.5t180 65.5q50 0 87.5 -10.5t61.5 -25.5q15 -9 20.5 -15.5t5.5 -16.5q0 -6 -2.5 -13t-5 -11.5t-3.5 -7.5q-7 -14 -12 -18t-13 -4q-6 0 -15.5 4t-16.5 7.5t-10 5.5q-21 11 -43.5 16t-51.5 5q-46 0 -77.5 -16.5t-49 -56
t-17.5 -108.5v-49q0 -95 36 -136.5t108 -41.5q35 0 60.5 8t53.5 25q12 8 21.5 12.5t16.5 4.5q6 0 12 -4t13 -17q11 -22 11 -35q0 -7 -3.5 -12t-15.5 -14q-34 -25 -74 -38.5t-97 -13.5q-120 0 -180.5 65.5z" />
    <glyph glyph-name="d" unicode="d" horiz-adv-x="618" 
d="M357.5 549.5q41.5 -15.5 72.5 -48.5h2v208q0 13 2 18.5t8 7.5t20 2h37q13 0 19 -2t8 -8t2 -19v-606q0 -26 -2 -38t-7 -18.5t-18 -11.5q-48 -22 -94 -33.5t-111 -11.5h-10q-122 0 -179.5 66.5t-57.5 195.5v56q0 85 27.5 143t77 86.5t114.5 28.5h6q42 0 83.5 -15.5zM412 97
q20 10 20 26v245q0 28 -16 54t-47 42t-72 16h-3q-79 0 -112.5 -45t-33.5 -139v-40q0 -90 32 -136t109 -46h9q62 0 114 23z" />
    <glyph glyph-name="e" unicode="e" horiz-adv-x="554" 
d="M183.5 114.5q39.5 -40.5 121.5 -40.5q61 0 119 25l13 6.5t15 7t13 3.5q18 0 29 -22q11 -19 11 -30t-7.5 -18.5t-24.5 -16.5q-35 -19 -78 -29.5t-91 -10.5q-129 0 -192 65t-63 190v64q0 127 61 192t173 65q115 0 168.5 -62t53.5 -192v-28q0 -12 -2 -18t-7 -8t-17 -2h-335
v-11q0 -89 39.5 -129.5zM205.5 464q-30.5 -17 -46 -47.5t-15.5 -69.5v-8h265v15q0 68 -31 97.5t-98 29.5q-44 0 -74.5 -17z" />
    <glyph glyph-name="f" unicode="f" horiz-adv-x="356" 
d="M134.5 712q41.5 38 113.5 38q26 0 52.5 -5t45.5 -12q25 -10 25 -24q0 -16 -5 -30q-8 -29 -24 -29q-12 0 -27 5q-37 11 -62 11q-30 0 -47 -21t-17 -58v-45h130q13 0 19 -2.5t8 -8t2 -18.5v-26q0 -19 -5.5 -24.5t-22.5 -5.5h-131v-426q0 -14 -2 -20t-8 -8.5t-19 -2.5h-38
q-13 0 -18.5 2t-8 8.5t-2.5 20.5v426h-42q-16 0 -22 6t-6 19v6q0 14 6.5 19.5t25.5 11.5t28.5 18t9.5 26v26q0 85 41.5 123z" />
    <glyph glyph-name="g" unicode="g" horiz-adv-x="619" 
d="M285 18h-15q-69 0 -118.5 29.5t-76 87t-26.5 140.5v34q0 74 29 131.5t89.5 91t153.5 33.5q95 0 182 -21q12 -3 17.5 -6t7 -8.5t1.5 -18.5v-404q0 -101 -17.5 -167t-69.5 -105t-152 -39q-50 0 -88.5 6.5t-78.5 22.5q-17 7 -26.5 16t-9.5 18q0 15 8 31q7 15 11.5 20.5
t13.5 5.5q5 0 12 -2t12.5 -4t7.5 -3q30 -11 63 -18.5t80 -7.5q53 0 83 21t42.5 63.5t12.5 112.5h-2q-54 -60 -146 -60zM430 466q-3 4 -15 6q-33 8 -91 8q-87 0 -131.5 -42.5t-44.5 -134.5v-24q0 -86 32 -131.5t103 -45.5h10q76 0 108 48t32 125v175q0 12 -3 16z" />
    <glyph glyph-name="h" unicode="h" horiz-adv-x="620" 
d="M448 2.5q-6 2.5 -8 8t-2 18.5v345q0 54 -24 79t-80 25q-40 0 -77 -15t-59 -37q-8 -7 -10 -12t-2 -18v-367q0 -13 -2 -18.5t-8 -8t-19 -2.5h-37q-13 0 -19 2t-8.5 8t-2.5 19v679q0 13 2.5 19t8 8t18.5 2h37q13 0 19 -2t8 -7t2 -17v-208h3q37 31 82.5 46.5t89.5 15.5
q82 0 128 -42t46 -125v-368q0 -14 -2 -20t-8 -8t-20 -2h-37q-13 0 -19 2.5z" />
    <glyph glyph-name="i" unicode="i" horiz-adv-x="276" 
d="M98 640q-7 2 -10 8t-3 19v42q0 13 2 19t8.5 8t20.5 2h43q15 0 21.5 -2t8.5 -8t2 -19v-42q0 -13 -2.5 -19t-9.5 -8t-22 -2h-38q-14 0 -21 2zM100 2.5q-6 2.5 -8 8t-2 18.5v495q0 13 2 18.5t7.5 8t17.5 2.5h41q18 0 23 -5.5t5 -22.5v-496q0 -18 -5.5 -23.5t-23.5 -5.5h-38
q-13 0 -19 2.5z" />
    <glyph glyph-name="j" unicode="j" horiz-adv-x="276" 
d="M98 640q-7 2 -10 8t-3 19v42q0 13 2 19t8.5 8t20.5 2h43q15 0 21.5 -2t8.5 -8t2 -19v-42q0 -13 -2.5 -19t-9.5 -8t-22 -2h-38q-14 0 -21 2zM145.5 -165.5q-40.5 -38.5 -105.5 -38.5q-25 0 -45.5 4.5t-33.5 10.5q-10 4 -15 10t-5 15t4 20t5 14q6 14 11 18.5t12 4.5
q5 0 26.5 -5.5t39.5 -5.5q29 0 40 19t11 55v568q0 18 5.5 23.5t22.5 5.5h40q18 0 23 -5.5t5 -22.5v-567q0 -85 -40.5 -123.5z" />
    <glyph glyph-name="k" unicode="k" horiz-adv-x="559" 
d="M546.5 28.5q6.5 -8.5 6.5 -13.5q0 -9 -8 -12t-24 -3h-35q-16 0 -25.5 2t-15 6.5t-14.5 14.5l-192 205q-16 16 -23.5 20.5t-22.5 5.5h-7v-225q0 -13 -2 -18.5t-8 -8t-19 -2.5h-37q-19 0 -24.5 5.5t-5.5 23.5v679q0 18 5.5 23.5t23.5 5.5h38q18 0 23.5 -5.5t5.5 -23.5v-370
h3q12 1 19 5t23 18l176 172q13 11 22 15.5t25 4.5h36q18 0 27 -3t9 -13q0 -14 -32 -41l-201 -194l237 -254q10 -11 16.5 -19.5z" />
    <glyph glyph-name="l" unicode="l" horiz-adv-x="305" 
d="M194.5 97q12.5 -17 37.5 -17q14 0 28.5 3.5t19.5 3.5q7 0 11 -4.5t8 -17.5q2 -6 5 -14t5 -15t2 -13q0 -12 -21 -19q-33 -13 -74 -13q-61 0 -95.5 37t-34.5 117v563q0 18 5.5 23.5t24.5 5.5h37q18 0 23.5 -5.5t5.5 -23.5v-553q0 -41 12.5 -58z" />
    <glyph glyph-name="m" unicode="m" horiz-adv-x="933" 
d="M185 502q32 28 77 45.5t89 17.5q47 0 87 -17.5t60 -60.5q32 35 81.5 56.5t100.5 21.5q80 0 123.5 -42.5t43.5 -124.5v-369q0 -13 -2 -19t-8 -8t-19 -2h-37q-13 0 -19 2t-8 8t-2 19v347q0 53 -22.5 77.5t-73.5 24.5q-36 0 -71 -15.5t-56 -36.5q-8 -7 -10 -12.5t-2 -18.5
v-365q0 -19 -5.5 -24.5t-24.5 -5.5h-37q-13 0 -18.5 2t-8 8t-2.5 19v347q0 53 -21.5 77.5t-74.5 24.5q-33 0 -68.5 -14t-58.5 -38q-8 -8 -10 -13t-2 -18v-366q0 -13 -2.5 -19t-8 -8t-18.5 -2h-38q-18 0 -23.5 5.5t-5.5 23.5v495q0 13 2.5 19t8 8t18.5 2h19q18 0 24.5 -5
t12.5 -23l8 -23h2z" />
    <glyph glyph-name="n" unicode="n" horiz-adv-x="620" 
d="M92.5 543q2.5 6 8 8t18.5 2h19q18 0 24.5 -5t12.5 -23l8 -23h2q41 32 85.5 47.5t88.5 15.5q84 0 129.5 -42t45.5 -125v-368q0 -14 -2 -20t-8 -8t-19 -2h-38q-13 0 -19 2t-8 8t-2 19v345q0 54 -24 79t-80 25q-41 0 -77 -15t-59 -37q-8 -7 -10 -12t-2 -18v-367
q0 -13 -2 -18.5t-8 -8t-19 -2.5h-38q-18 0 -23.5 5.5t-5.5 23.5v496q0 12 2.5 18z" />
    <glyph glyph-name="o" unicode="o" horiz-adv-x="580" 
d="M107.5 505q58.5 60 174.5 60h23q117 0 171.5 -60.5t54.5 -190.5v-69q0 -132 -57.5 -194t-174.5 -62h-24q-119 0 -172.5 63t-53.5 189v68q0 136 58.5 196zM420 403q-12 38 -41 57.5t-82 19.5h-12q-53 0 -83 -19.5t-42 -57.5t-12 -100v-52q0 -60 11.5 -98.5t41 -58.5
t82.5 -20h12q54 0 84 20t41.5 58t11.5 99v52q0 62 -12 100z" />
    <glyph glyph-name="p" unicode="p" horiz-adv-x="618" 
d="M188 65h-2v-229q0 -13 -2 -18.5t-8 -7.5t-20 -2h-36q-19 0 -24.5 5.5t-5.5 24.5v614q0 25 2 37.5t7.5 18.5t18.5 11q48 23 94 34.5t111 11.5h10q124 0 180 -67t56 -193v-58q0 -257 -215 -257h-5q-101 0 -161 75zM257 473.5q-32 -6.5 -57 -19.5q-10 -6 -12 -9.5t-2 -15.5
v-221q0 -33 18.5 -64t51.5 -50t74 -19h3q54 0 83.5 20t41.5 59.5t12 104.5v39q0 91 -32 136.5t-109 45.5h-9q-31 0 -63 -6.5z" />
    <glyph glyph-name="q" unicode="q" horiz-adv-x="619" 
d="M77.5 440q28.5 58 89.5 91.5t153 33.5q95 0 182 -21q13 -3 18 -6t7 -9t2 -19v-671q0 -14 -2 -20.5t-8 -8.5t-20 -2h-36q-14 0 -20 2t-8 8t-2 19v227h-2q-61 -74 -162 -74h-4q-68 0 -116.5 30t-74 88t-25.5 141v59q0 74 28.5 132zM430 465.5q-3 4.5 -15 6.5q-35 8 -91 8
q-87 0 -131.5 -43t-44.5 -136v-47q0 -86 31.5 -132.5t102.5 -46.5h6q42 0 75 19t51.5 50t18.5 64v241q0 12 -3 16.5z" />
    <glyph glyph-name="r" unicode="r" horiz-adv-x="426" 
d="M92.5 543q2.5 6 8.5 8t19 2h17q13 0 19.5 -2t10.5 -8t8 -18l8 -24h2q21 31 52 47.5t78 16.5q43 0 82 -13q10 -3 15.5 -9t5.5 -17q0 -13 -7 -35q-6 -21 -11.5 -27.5t-17.5 -6.5q-9 0 -23 6q-33 11 -62 11q-35 0 -60 -16.5t-38 -44.5t-13 -64v-320q0 -13 -2 -19t-8 -8
t-19 -2h-37q-19 0 -24.5 5.5t-5.5 23.5v495q0 13 2.5 19z" />
    <glyph glyph-name="s" unicode="s" horiz-adv-x="507" 
d="M60 29q-11 7 -11 19q0 7 1 12.5t4 12.5q4 12 11 23t15 11q7 0 16 -4q80 -26 162 -26q121 0 121 82q0 29 -9.5 45.5t-39 27.5t-90.5 16q-99 8 -145 48t-46 109q0 42 16 73.5t46 51.5q51 35 147 35q42 0 73.5 -3.5t61.5 -9.5q20 -4 35 -12.5t15 -19.5t-10 -33
q-7 -15 -12.5 -22.5t-14.5 -7.5q-5 0 -16 3.5t-21 6.5q-58 14 -115 14q-58 0 -83 -18q-12 -8 -19 -21.5t-7 -31.5q0 -29 13 -43.5t37 -20t77 -11.5q105 -12 153.5 -52.5t48.5 -115.5q0 -86 -56 -130t-163 -44q-43 0 -86 6t-74 15q-24 8 -35 15z" />
    <glyph glyph-name="t" unicode="t" horiz-adv-x="380" 
d="M96.5 680.5q3.5 6.5 15.5 12.5l32 13q15 7 26 7q12 0 15.5 -7t3.5 -23v-141h144q15 0 21.5 -2t9 -8t2.5 -19v-27q0 -13 -2.5 -18.5t-9.5 -8t-22 -2.5h-143v-302q0 -31 7.5 -48.5t22 -24t37.5 -6.5q14 0 31.5 4.5t32.5 9.5q21 7 26 7q7 0 11.5 -4.5t10.5 -18.5l6 -14
t5 -14t2 -12q0 -7 -5 -11t-17 -9q-55 -23 -120 -23q-69 0 -107.5 37.5t-38.5 118.5v310h-42q-16 0 -22 6t-6 19v6q0 14 6.5 19.5t25.5 11.5q38 12 38 51v89q0 15 3.5 21.5z" />
    <glyph glyph-name="u" unicode="u" horiz-adv-x="619" 
d="M527 10q-2 -6 -8 -8t-19 -2h-18q-18 0 -25 5t-12 23l-8 23h-2q-41 -32 -86 -47.5t-89 -15.5q-83 0 -128.5 42t-45.5 126v368q0 13 2 19t8 8t19 2h38q13 0 18.5 -2t8 -8t2.5 -19v-347q0 -53 23.5 -77.5t78.5 -24.5q41 0 77 15t60 37q8 7 10 12.5t2 18.5v366q0 13 2.5 19
t8 8t18.5 2h38q13 0 18.5 -2t8 -8t2.5 -18v-496q0 -13 -2 -19z" />
    <glyph glyph-name="v" unicode="v" horiz-adv-x="500" 
d="M214.5 5.5q-7.5 5.5 -14.5 23.5l-180 479q-3 8 -5 15.5t-2 13.5q0 8 5.5 12t20.5 4h42q18 0 25 -5t12 -21l123 -340q9 -27 13 -47h2q6 28 12 47l117 340q5 16 12.5 21t25.5 5h36q17 0 22 -3.5t5 -10.5q0 -6 -3 -16.5t-4 -12.5l-178 -483q-6 -17 -13.5 -22t-26.5 -5h-21
q-18 0 -25.5 5.5z" />
    <glyph glyph-name="w" unicode="w" horiz-adv-x="764" 
d="M173.5 2q-6.5 2 -10.5 8t-7 19l-121 480q-1 3 -3.5 12.5t-2.5 15.5q0 9 8.5 12.5t29.5 3.5h33q15 0 22 -5.5t10 -19.5l70 -303q14 -69 15 -91h2q2 14 8 42.5t13 49.5l89 301q5 16 12.5 21t21.5 5h39q13 0 19.5 -1.5t11.5 -6.5t8 -17l86 -302q6 -22 11.5 -48t7.5 -44h2
q1 22 16 91l70 301q4 17 10 22t24 5h41q14 0 19.5 -3.5t5.5 -11.5q0 -5 -2.5 -14.5t-3.5 -13.5l-122 -482q-4 -18 -11 -23t-25 -5h-37q-18 0 -25 5t-13 22l-100 352q-3 10 -13 56h-2q-4 -19 -7.5 -33.5t-5.5 -22.5l-99 -351q-4 -18 -11 -23t-26 -5h-37q-14 0 -20.5 2z" />
    <glyph glyph-name="x" unicode="x" horiz-adv-x="504" 
d="M52 506q-14 22 -14 32q0 7 6 11t22 4h40q19 0 27 -4.5t17 -20.5l83 -139q14 -24 19 -35h2q2 4 7.5 14t12.5 21l82 139q7 12 11.5 17t11 6.5t19.5 1.5h38q16 0 22.5 -3.5t6.5 -10.5q0 -9 -13 -32l-139 -221l144 -229q2 -3 8.5 -13t10 -17t3.5 -11q0 -8 -6.5 -12t-23.5 -4
h-44q-19 0 -26 4t-16 20l-89 154q-6 8 -23 40h-2q-8 -13 -13.5 -23t-9.5 -17l-91 -153q-7 -12 -12 -17t-11.5 -6.5t-19.5 -1.5h-36q-17 0 -24 4t-7 12q0 6 6.5 17.5t14.5 23.5l145 230z" />
    <glyph glyph-name="y" unicode="y" horiz-adv-x="517" 
d="M81.5 -201q-19.5 3 -34.5 9q-2 1 -8.5 3.5t-10.5 7t-4 10.5q0 16 11 41q4 11 8.5 17t12.5 6q6 0 23.5 -4.5t36.5 -4.5q24 0 41 9t29.5 30t24.5 57q3 9 3 15q0 8 -6 23l-187 488q-9 23 -9 31t5.5 12t21.5 4h42q13 0 19 -2t10 -7.5t8 -17.5l135 -377q3 -9 10 -37h2
q4 16 6.5 25t3.5 12l119 378q5 16 12 21t26 5h39q15 0 20.5 -3.5t5.5 -10.5t-4.5 -19.5t-5.5 -14.5l-178 -532q-24 -71 -50 -109t-59 -53t-82 -15q-17 0 -36.5 3z" />
    <glyph glyph-name="z" unicode="z" horiz-adv-x="506" 
d="M61.5 472.5q-5.5 5.5 -5.5 23.5v29q0 17 5.5 22.5t22.5 5.5h354q13 0 18.5 -2t8 -8t2.5 -18v-23q0 -17 -3.5 -26.5t-15.5 -24.5l-291 -362v-2h296q13 0 18.5 -2t8 -8t2.5 -18v-31q0 -12 -2.5 -18t-8 -8t-18.5 -2h-391q-18 0 -23.5 5.5t-5.5 23.5v23q0 18 3.5 27.5
t15.5 24.5l293 361v2h-261q-17 0 -22.5 5.5z" />
    <glyph glyph-name="braceleft" unicode="{" horiz-adv-x="375" 
d="M69 277.5q-6 3.5 -8 9.5t-2 20v21q0 14 2 20t8 9.5t19 7.5q33 10 48.5 38t20 71.5t5.5 127.5v57q0 67 16 105t50.5 54t94.5 16h17q19 0 19 -18v-48q0 -10 -4 -14.5t-14 -4.5h-4q-34 0 -51 -7.5t-24 -27.5t-7 -61v-120q0 -64 -7.5 -103.5t-27.5 -66t-57 -45.5v-2
q37 -17 56.5 -43.5t27.5 -67t8 -104.5v-120q0 -40 7 -60t24 -28t52 -8h1q11 0 15.5 -4t4.5 -16v-48q0 -9 -4 -13t-13 -4h-19q-63 0 -98 18t-49 57.5t-14 109.5v57q0 81 -4 123t-19.5 68.5t-50.5 36.5q-13 4 -19 7.5z" />
    <glyph glyph-name="bar" unicode="|" horiz-adv-x="542" 
d="M232.5 -198q-5.5 2 -7.5 7.5t-2 18.5v881q0 13 2 18.5t7.5 7.5t18.5 2h40q17 0 22.5 -5t5.5 -23v-881q0 -18 -5.5 -23t-22.5 -5h-40q-13 0 -18.5 2z" />
    <glyph glyph-name="braceright" unicode="}" horiz-adv-x="375" 
d="M236.5 232.5q-15.5 -27.5 -19.5 -66t-4 -103.5v-79q0 -69 -14 -108.5t-49 -57.5t-99 -18h-18q-9 0 -13 4t-4 14v46q0 12 4.5 16.5t15.5 4.5h1q34 0 51.5 8t24 28.5t6.5 60.5v119q0 64 8 104t28 67t57 44v2q-38 19 -58 45.5t-27.5 66t-7.5 103.5v121q0 40 -7 60
t-24.5 27.5t-50.5 7.5h-3q-10 0 -14 4t-4 14v50q0 9 5 13t13 4h17q60 0 95 -16t51 -54t16 -105v-97q0 -63 4.5 -100t20 -62t48.5 -35q14 -4 20 -7.5t8 -10t2 -19.5v-21q0 -14 -2 -20t-8 -9.5t-20 -7.5q-34 -10 -49.5 -37.5z" />
    <glyph glyph-name="asciitilde" unicode="~" horiz-adv-x="635" 
d="M266.5 439q28.5 -10 66.5 -29q31 -16 52.5 -24t43.5 -8q27 0 52 10t39 23q17 16 33 16q8 0 11.5 -6.5t3.5 -23.5v-21q0 -37 -48 -62q-21 -11 -45.5 -17t-44.5 -6q-33 0 -61.5 10t-66.5 29q-31 16 -52.5 24t-43.5 8q-26 0 -50.5 -10t-38.5 -21q-13 -10 -20.5 -14t-14.5 -4
q-8 0 -11.5 6.5t-3.5 23.5v21q0 39 47 63q20 11 44.5 16.5t46.5 5.5q33 0 61.5 -10z" />
    <glyph glyph-name="uni00A0" unicode="&#xa0;" horiz-adv-x="319" 
 />
    <glyph glyph-name="exclamdown" unicode="&#xa1;" horiz-adv-x="283" 
d="M190.5 551q6.5 -2 9 -8t3.5 -19v-64q1 -13 -1.5 -19t-9 -8t-21.5 -2h-59q-15 0 -21 2t-8.5 8t-1.5 19v64q1 13 3.5 19t9 8t21.5 2h54q15 0 21.5 -2zM170 348q6 -2 8 -8t3 -20l15 -474q1 -14 -1 -20t-8 -8t-20 -2h-51q-14 0 -20 2t-8 8.5t-1 19.5l14 474q1 14 3 20t8.5 8
t20.5 2h17q14 0 20 -2z" />
    <glyph glyph-name="cent" unicode="&#xa2;" horiz-adv-x="616" 
d="M61 346v40q0 139 61 204.5t180 65.5h16l24 108q2 11 6.5 16t11 6.5t20.5 1.5h18q13 0 17.5 -2t4.5 -9l-2 -16l-26 -116q29 -8 59 -25q15 -9 20.5 -15.5t5.5 -16.5q0 -6 -2.5 -13t-5 -11.5t-3.5 -7.5q-7 -14 -12 -18t-13 -4q-5 0 -13.5 3.5t-16 7t-12.5 6.5l-25 11
l-87 -396q5 -1 17 -1q36 0 62.5 8t52.5 27q12 9 19 11.5t15 2.5q15 0 26 -20l4 -8t5 -11.5t2 -10.5q0 -9 -3.5 -16.5t-14.5 -17.5q-30 -25 -70.5 -38t-99.5 -13q-20 0 -34 2l-24 -111q-4 -16 -11.5 -20t-26.5 -4h-18q-13 0 -17.5 2.5t-4.5 9.5q0 3 2 15l27 124
q-134 49 -134 249zM215 188l85 384h-4q-67 0 -101.5 -42.5t-34.5 -138.5v-49q0 -116 55 -154z" />
    <glyph glyph-name="sterling" unicode="&#xa3;" horiz-adv-x="616" 
d="M469.5 411q5.5 -2 7.5 -8t2 -19v-27q0 -13 -2 -18.5t-8 -8t-19 -2.5h-156q7 -17 12.5 -43t5.5 -48q0 -89 -68 -145l317 1q17 0 22.5 -5t5.5 -23v-37q0 -17 -5.5 -22.5t-23.5 -5.5h-458q-13 0 -18.5 2t-8 8t-2.5 19v35q0 16 4 22.5t17 6.5h5q24 0 50.5 18t44.5 50.5
t18 74.5q0 28 -5.5 47.5t-15.5 44.5h-72q-18 0 -23.5 5.5t-5.5 23.5v27q0 13 2 18.5t8 8t19 2.5h34q-46 70 -46 136q0 56 25.5 100t77 70t126.5 26q60 0 105 -15.5t80 -49.5q25 -25 35.5 -48.5t10.5 -37.5q0 -11 -6.5 -18.5t-20.5 -14.5q-18 -9 -38 -9q-9 0 -14.5 5
t-12.5 16q-13 23 -29 39.5t-43 27.5t-66 11q-66 0 -96 -28t-30 -75q0 -39 13.5 -72.5t34.5 -62.5h192q13 0 18.5 -2z" />
    <glyph glyph-name="currency" unicode="&#xa4;" horiz-adv-x="616" 
d="M126.5 402.5q7.5 27.5 19.5 48.5l-59 61q-9 8 -14 15t-5 12q0 7 12 17l22 21q11 11 18 11q5 0 11.5 -4.5t14.5 -12.5l63 -61q46 26 99 26q52 0 99 -26l63 61q8 8 14.5 12.5t11.5 4.5q7 0 18 -11l22 -21q12 -10 12 -17q0 -5 -5 -12t-14 -15l-61 -61q14 -22 21.5 -48.5
t7.5 -53.5t-7.5 -53.5t-21.5 -48.5l61 -61q9 -8 14 -15t5 -12q0 -6 -12 -17l-22 -21q-11 -11 -18 -11q-5 0 -11.5 4.5t-14.5 12.5l-63 61q-47 -26 -99 -26q-53 0 -99 26l-63 -61q-8 -8 -14.5 -12.5t-11.5 -4.5q-7 0 -18 11l-22 21q-12 11 -12 17q0 5 5 12t14 15l59 61
q-13 21 -20 49t-7 54q0 25 7.5 52.5zM219.5 295q13.5 -24 37 -38t51.5 -14t51 14t36.5 38t13.5 54t-13.5 54t-36.5 38t-51 14t-51.5 -14t-37 -38t-13.5 -54t13.5 -54z" />
    <glyph glyph-name="yen" unicode="&#xa5;" horiz-adv-x="616" 
d="M257 313h-131q-18 0 -23.5 5.5t-5.5 23.5v27q0 13 2 18.5t8 8t19 2.5h82l-148 274q-2 4 -7.5 14t-8 16.5t-2.5 11.5q0 17 30 17h38q15 0 24 -5t17 -21l158 -307h3l155 308q6 13 14.5 19t25.5 6h34q16 0 24.5 -3.5t8.5 -11.5t-8.5 -24t-9.5 -19l-149 -275h82q13 0 18.5 -2
t7.5 -8t2 -19v-27q0 -13 -2 -18.5t-8 -8t-19 -2.5h-131v-75h132q13 0 18.5 -2t7.5 -8t2 -19v-27q0 -13 -2 -18.5t-8 -8t-19 -2.5h-131v-124q0 -18 -5.5 -23.5t-23.5 -5.5h-42q-13 0 -19 2t-8 8t-2 19v124h-131q-18 0 -23.5 5.5t-5.5 23.5v27q0 13 2 18.5t8 8t19 2.5h131v75z
" />
    <glyph glyph-name="brokenbar" unicode="&#xa6;" horiz-adv-x="542" 
d="M225 727.5q2 5.5 7.5 7.5t18.5 2h40q17 0 22.5 -5t5.5 -23v-309q0 -18 -5.5 -23t-22.5 -5h-40q-13 0 -18.5 2t-7.5 7.5t-2 18.5v309q0 13 2 18.5zM225 155.5q2 5.5 7.5 7.5t18.5 2h40q17 0 22.5 -5t5.5 -23v-309q0 -18 -5.5 -23t-22.5 -5h-40q-13 0 -18.5 2t-7.5 7.5
t-2 18.5v309q0 13 2 18.5z" />
    <glyph glyph-name="section" unicode="&#xa7;" horiz-adv-x="544" 
d="M57.5 -94.5q-11.5 7.5 -11.5 19.5q0 7 2 14t5 14q4 12 10 21.5t14 9.5q4 0 10.5 -2t9.5 -3q40 -13 74.5 -19t75.5 -6q68 0 104.5 21t36.5 66q0 24 -12 41.5t-34 31t-60 28.5l-106 43q-64 26 -91 61t-27 80q0 27 12 53t32.5 46t44.5 31q-18 14 -30 27.5t-21.5 38
t-9.5 61.5q0 82 57 122t154 40q38 0 66.5 -2.5t52.5 -8.5q23 -6 38.5 -15t15.5 -20q0 -6 -2.5 -13.5t-6.5 -16.5q-7 -15 -12.5 -22.5t-14.5 -7.5q-6 0 -20 4t-22 6q-43 12 -90 12q-36 0 -61.5 -5t-42 -21.5t-16.5 -48.5q0 -23 10 -38.5t31 -27.5t61 -28l72 -29
q61 -25 101.5 -63t40.5 -102q0 -27 -12 -52t-30.5 -44.5t-36.5 -31.5q33 -20 49 -53.5t16 -74.5q0 -87 -63 -129.5t-177 -42.5q-79 0 -152 21q-23 7 -34.5 14.5zM386.5 241q15.5 20 15.5 46q0 25 -16 50t-59 42l-109 44q-27 -10 -45.5 -31.5t-18.5 -49.5q0 -25 12.5 -41.5
t33.5 -27.5t62 -28l85 -35q24 11 39.5 31z" />
    <glyph glyph-name="dieresis" unicode="&#xa8;" horiz-adv-x="500" 
d="M105 640q-7 2 -10 8t-3 19v42q0 13 2 19t8.5 8t20.5 2h42q15 0 21.5 -2t8.5 -8t2 -19v-42q0 -13 -2.5 -19t-9.5 -8t-22 -2h-37q-14 0 -21 2zM316 640q-7 2 -10 8t-3 19v42q0 13 2 19t8.5 8t20.5 2h42q15 0 21.5 -2t8.5 -8t2 -19v-42q0 -13 -2.5 -19t-9.5 -8t-22 -2h-37
q-14 0 -21 2z" />
    <glyph glyph-name="copyright" unicode="&#xa9;" horiz-adv-x="874" 
d="M100 557q46 87 133 137.5t204 50.5t204 -50.5t133 -137.5t46 -193q0 -105 -46 -192t-133 -137.5t-204 -50.5t-204 50.5t-133 137.5t-46 192q0 106 46 193zM172 210q36 -69 104.5 -109t162.5 -40q92 0 160 40.5t103.5 109.5t35.5 153q0 85 -35.5 154t-103.5 109.5
t-162 40.5t-162 -40.5t-103.5 -109.5t-35.5 -154t36 -154zM342.5 162.5q-45.5 25.5 -72 75.5t-26.5 123v15q0 75 26.5 124.5t72 72.5t102.5 23q39 0 67 -8t50 -20q15 -8 20.5 -13.5t5.5 -13.5q0 -11 -16 -36q-6 -9 -10 -12t-10 -3q-8 0 -32 13q-18 10 -34.5 14.5t-41.5 4.5
q-27 0 -52.5 -12.5t-43 -44.5t-17.5 -88v-16q0 -53 16.5 -86.5t43.5 -48.5t59 -15q50 0 90 25q3 2 8 5t9.5 5t7.5 2q9 0 20 -17q8 -12 10 -18.5t2 -13.5q0 -5 -4 -11.5t-12 -12.5q-24 -18 -60 -28t-76 -10q-57 0 -102.5 25.5z" />
    <glyph glyph-name="ordfeminine" unicode="&#xaa;" horiz-adv-x="430" 
d="M281 650.5q-7 12.5 -25 19t-50 6.5q-24 0 -42 -2.5t-35 -8.5q-5 -2 -16 -6t-18 -4q-8 0 -13 5t-11 17q-6 14 -6 24q0 9 6.5 14.5t24.5 11.5q51 18 110 18q64 0 100 -16t50 -44.5t14 -68.5v-138q0 -25 5 -43.5t15 -36.5q5 -7 5 -15q0 -10 -15 -19l-17 -11q-4 -3 -9.5 -5
t-12.5 -2q-5 0 -10.5 2.5t-8.5 8.5q-9 13 -19 39h-2q-47 -51 -124 -51q-66 0 -102.5 30.5t-36.5 88.5q0 44 22 72.5t73 43.5t136 15h19v22q0 21 -7 33.5zM140 424.5q19 -13.5 51 -13.5q54 0 75.5 28.5t21.5 67.5v26h-19q-49 0 -79.5 -4t-49.5 -18.5t-19 -43.5t19 -42.5z" />
    <glyph glyph-name="guillemotleft" unicode="&#xab;" horiz-adv-x="567" 
d="M285 83q9 -13 9 -21q0 -16 -30 -16h-35q-17 0 -24.5 1.5t-12.5 6.5t-15 18l-112 151q-11 14 -13.5 21.5t-2.5 23.5v18q0 14 2.5 22.5t13.5 22.5l112 151q10 13 15 18t12.5 6.5t24.5 1.5h35q12 0 21 -4t9 -12q0 -7 -9 -21l-140 -194zM509 83q9 -13 9 -21q0 -16 -30 -16
h-35q-17 0 -24.5 1.5t-12.5 6.5t-15 18l-112 151q-11 14 -13.5 21.5t-2.5 23.5v18q0 14 2.5 22.5t13.5 22.5l112 151q10 13 15 18t12.5 6.5t24.5 1.5h35q12 0 21 -4t9 -12q0 -7 -9 -21l-140 -194z" />
    <glyph glyph-name="logicalnot" unicode="&#xac;" horiz-adv-x="635" 
d="M563 230.5q-5 -5.5 -22 -5.5h-33q-12 0 -17.5 2t-7.5 7.5t-2 18.5v179h-387q-17 0 -22 5.5t-5 22.5v32q0 12 2 17.5t7.5 7.5t17.5 2h447q12 0 17.5 -2t7.5 -7.5t2 -17.5v-239q0 -17 -5 -22.5z" />
    <glyph glyph-name="uni00AD" unicode="&#xad;" horiz-adv-x="359" 
d="M59.5 258q-5.5 2 -7.5 7.5t-2 17.5v33q0 12 2 17.5t7.5 7.5t17.5 2h205q12 0 17.5 -2t7.5 -7.5t2 -17.5v-33q0 -12 -2 -17.5t-7.5 -7.5t-17.5 -2h-205q-12 0 -17.5 2z" />
    <glyph glyph-name="registered" unicode="&#xae;" horiz-adv-x="534" 
d="M79.5 639.5q25.5 48.5 74 77t113.5 28.5t113.5 -28.5t74 -77t25.5 -107.5t-25.5 -107.5t-74 -77t-113.5 -28.5t-113.5 28.5t-74 77t-25.5 107.5t25.5 107.5zM131 454q18 -35 52.5 -55.5t83.5 -20.5t83.5 20.5t52.5 55.5t18 78t-18 78t-52.5 55.5t-83.5 20.5t-83.5 -20.5
t-52.5 -55.5t-18 -78t18 -78zM360 452.5q3 -3.5 4.5 -7t1.5 -5.5q0 -3 -3.5 -4.5t-12.5 -1.5h-22q-14 0 -19 8l-44 63q-2 3 -6 4t-8 1h-10v-63q0 -7 -3 -10t-12 -3h-20q-16 0 -16 13v177q0 7 3.5 10t12.5 3h79q37 0 56 -16t19 -47q0 -48 -48 -57l44 -59q1 -2 4 -5.5z
M300.5 557q6.5 6 6.5 17q0 12 -7.5 17t-24.5 5h-34v-45h34q19 0 25.5 6z" />
    <glyph glyph-name="macron" unicode="&#xaf;" horiz-adv-x="500" 
d="M383 649h-266q-27 0 -27 27v27q0 27 27 27h266q27 0 27 -27v-27q0 -27 -27 -27z" />
    <glyph glyph-name="degree" unicode="&#xb0;" horiz-adv-x="396" 
d="M52.5 661.5q22.5 38.5 61 61t84.5 22.5t84.5 -22.5t61 -61t22.5 -84.5t-22.5 -84.5t-61 -61t-84.5 -22.5t-84.5 22.5t-61 61t-22.5 84.5t22.5 84.5zM118.5 531q12.5 -21 33.5 -33.5t46 -12.5t46 12.5t33.5 33.5t12.5 46t-12.5 46t-33.5 33.5t-46 12.5t-46 -12.5
t-33.5 -33.5t-12.5 -46t12.5 -46z" />
    <glyph glyph-name="plusminus" unicode="&#xb1;" horiz-adv-x="635" 
d="M361 177q0 -17 -5 -22.5t-22 -5.5h-33q-12 0 -17.5 2t-7.5 7.5t-2 18.5v164h-180q-17 0 -22 5.5t-5 22.5v32q0 12 2 17.5t7.5 7.5t17.5 2h180v165q0 17 5 22.5t22 5.5h33q17 0 22 -5.5t5 -22.5v-165h180q12 0 17.5 -2t7.5 -7.5t2 -17.5v-32q0 -17 -5.5 -22.5t-21.5 -5.5
h-180v-164zM558.5 94q5.5 -2 7.5 -7.5t2 -17.5v-32q0 -17 -5.5 -22.5t-21.5 -5.5h-447q-17 0 -22 5.5t-5 22.5v32q0 12 2 17.5t7.5 7.5t17.5 2h447q12 0 17.5 -2z" />
    <glyph glyph-name="twosuperior" unicode="&#xb2;" 
d="M113.5 772q-4.5 -4 -11.5 -4q-6 0 -12.5 2t-15.5 7q-10 5 -13 10t-3 15q0 11 7 26.5t24 32.5q19 19 49.5 30t67.5 11q49 0 83 -17t51 -46t17 -64q0 -50 -22.5 -79t-58.5 -44q-29 -12 -49.5 -21t-37.5 -18q-27 -15 -40.5 -38t-13.5 -50h200q13 0 17 -3.5t4 -15.5v-34
q0 -9 -2 -13t-7 -5t-11 -1h-257q-19 0 -25 4.5t-6 18.5v31q0 40 14.5 73.5t36 57t45.5 36.5q20 11 39 19.5t41 17.5q28 11 38.5 25.5t10.5 39.5t-17 39.5t-52 14.5q-30 0 -49.5 -11t-31.5 -33q-5 -10 -9.5 -14z" />
    <glyph glyph-name="threesuperior" unicode="&#xb3;" 
d="M252 631q-19 14 -65 14h-40q-15 0 -20 4.5t-5 17.5v29q0 13 5 17t22 4h36q38 0 57 17t19 46q0 51 -72 51q-23 0 -40.5 -6t-28.5 -14q-4 -3 -8 -6.5t-8 -5.5t-8 -2q-8 0 -14 5t-15 15q-13 15 -13 24q0 7 8.5 16.5t26.5 19.5q23 11 47 18t56 7q71 0 113 -31t42 -91
q0 -47 -27.5 -68t-62.5 -25q100 -11 100 -109q0 -39 -17.5 -69t-53 -47.5t-86.5 -17.5q-41 0 -67.5 7t-53.5 24q-17 11 -26.5 22.5t-9.5 19.5q0 6 4 11t16 15q10 9 17 12.5t13 3.5q5 0 9.5 -3.5t10.5 -9.5q31 -31 83 -31q38 0 56.5 18t18.5 52q0 32 -19 46z" />
    <glyph glyph-name="acute" unicode="&#xb4;" horiz-adv-x="500" 
d="M200 611.5q-7 -4.5 -19 -4.5h-15q-21 0 -21 14q0 6 3 14t9 17l79 134q8 15 15.5 19.5t25.5 4.5h47q30 0 30 -16q0 -6 -5 -13.5t-15 -18.5l-116 -134q-11 -12 -18 -16.5z" />
    <glyph glyph-name="mu" unicode="&#xb5;" horiz-adv-x="638" 
d="M536 140q3 -30 8.5 -47t14.5 -33q5 -8 7 -14t2 -12q0 -5 -4.5 -12t-15.5 -14l-18 -11q-13 -8 -25 -8q-6 0 -11 3t-11 11q-9 14 -15 26.5t-8.5 19.5t-4.5 11h-2q-35 -39 -74.5 -55.5t-77.5 -16.5q-83 0 -115 42v-194q0 -13 -2 -18.5t-8 -7.5t-20 -2h-36q-19 0 -24.5 5.5
t-5.5 24.5v686q0 13 2 19t8 8t19 2h38q13 0 18.5 -2t8 -8t2.5 -19v-328q0 -64 27.5 -94t87.5 -30q40 0 72.5 18t51.5 41q8 10 10 17t2 26v350q0 13 2.5 19t8 8t18.5 2h38q13 0 18.5 -2t8 -8t2.5 -18v-306q0 -49 3 -79z" />
    <glyph glyph-name="paragraph" unicode="&#xb6;" horiz-adv-x="620" 
d="M505.5 -162q-5.5 -5 -22.5 -5h-25q-13 0 -18.5 2t-7.5 7.5t-2 18.5v802h-114v-802q0 -18 -5.5 -23t-22.5 -5h-25q-13 0 -18.5 2t-7.5 7.5t-2 18.5v418q-61 5 -105.5 32.5t-68.5 75t-24 110.5q0 71 31 124t88 81.5t135 28.5h246q18 0 23 -5.5t5 -22.5v-12q0 -13 -2 -18.5
t-7.5 -7.5t-18.5 -2h-26v-802q0 -18 -5.5 -23z" />
    <glyph glyph-name="periodcentered" unicode="&#xb7;" horiz-adv-x="249" 
d="M76 312q-7 2 -9.5 8t-2.5 19v64q0 13 2 19t8 8t21 2h59q15 0 21.5 -2t8.5 -8t2 -19v-64q0 -13 -2.5 -19t-9.5 -8t-22 -2h-54q-15 0 -22 2z" />
    <glyph glyph-name="cedilla" unicode="&#xb8;" horiz-adv-x="500" 
d="M194 -253q-20 4 -39 12q-16 6 -24.5 12.5t-8.5 13.5t5 16l8 15q4 7 8 9.5t9 2.5q4 0 7.5 -1t9.5 -4q32 -14 64 -14q25 0 42 11t17 33q0 32 -32 32q-11 0 -17.5 -2t-14.5 -6.5t-15 -4.5t-17 3t-18 8.5t-8 12.5q0 6 2 12t5 13l43 91h69l-33 -66q11 3 27 3q44 0 68.5 -23.5
t24.5 -68.5q0 -38 -18.5 -64t-48.5 -38t-65 -12q-30 0 -50 4z" />
    <glyph glyph-name="onesuperior" unicode="&#xb9;" 
d="M76.5 457q-4.5 4 -4.5 15v33q0 11 4 15t13 4h89v279l-59 -50q-7 -5 -10 -7t-7 -2q-5 0 -10 4.5t-9 10.5l-10 13q-8 11 -8 18q0 5 4 9.5t10 9.5l98 73q8 6 14 8.5t17 2.5h25q12 0 17.5 -2t7.5 -7.5t2 -17.5v-342h79q10 0 13.5 -3.5t3.5 -15.5v-33q0 -12 -3.5 -15.5
t-13.5 -3.5h-250q-8 0 -12.5 4z" />
    <glyph glyph-name="ordmasculine" unicode="&#xba;" horiz-adv-x="452" 
d="M88 698q47 47 129 47h20q82 0 128.5 -47t46.5 -140v-26q0 -93 -47 -140t-129 -47h-19q-82 0 -129 47t-47 140v26q0 93 47 140zM232 674h-11q-97 0 -97 -117v-24q0 -117 97 -117h11q97 0 97 117v24q0 117 -97 117z" />
    <glyph glyph-name="guillemotright" unicode="&#xbb;" horiz-adv-x="567" 
d="M49 492q0 8 9 12t21 4h35q17 0 24.5 -1.5t12.5 -6.5t15 -18l112 -151q11 -14 13.5 -22.5t2.5 -22.5v-18q0 -16 -2.5 -23.5t-13.5 -21.5l-112 -151q-10 -13 -15 -18t-12.5 -6.5t-24.5 -1.5h-35q-30 0 -30 16q0 8 9 21l140 194l-140 194q-9 14 -9 21zM273 492q0 8 9 12
t21 4h35q17 0 24.5 -1.5t12.5 -6.5t15 -18l112 -151q11 -14 13.5 -22.5t2.5 -22.5v-18q0 -16 -2.5 -23.5t-13.5 -21.5l-112 -151q-10 -13 -15 -18t-12.5 -6.5t-24.5 -1.5h-35q-30 0 -30 16q0 8 9 21l140 194l-140 194q-9 14 -9 21z" />
    <glyph glyph-name="onequarter" unicode="&#xbc;" horiz-adv-x="949" 
d="M76.5 300q-4.5 4 -4.5 15v33q0 11 4 15t13 4h89v279l-59 -50q-7 -5 -10 -7t-7 -2q-5 0 -10 4.5t-9 10.5l-10 13q-8 11 -8 18q0 5 4 9.5t10 9.5l98 73q8 6 14 8.5t17 2.5h25q12 0 17.5 -2t7.5 -7.5t2 -17.5v-342h79q10 0 13.5 -3.5t3.5 -15.5v-33q0 -12 -3.5 -15.5
t-13.5 -3.5h-250q-8 0 -12.5 4zM824 731q0 -5 -4 -12t-7.5 -11t-4.5 -6l-489 -692q-11 -15 -19 -19.5t-26 -4.5h-30q-9 0 -13.5 3t-4.5 10t4 15t10 16l489 691q1 2 7.5 11t13 11t18.5 2h30q26 0 26 -14zM783.5 435.5q-6.5 -4.5 -16.5 -18.5l-186 -246q-6 -9 -7.5 -14
t-1.5 -17v-9q0 -12 2 -17.5t7.5 -7.5t16.5 -2h175v-86q0 -10 4 -14t14 -4h40q9 0 13.5 4t4.5 14v86h58q7 0 11 3.5t4 13.5v35q0 11 -3.5 13.5t-11.5 2.5h-58v246q0 14 -3.5 18t-16.5 4h-30q-9 0 -15.5 -4.5zM773 172h-114l116 156q-2 -46 -2 -156z" />
    <glyph glyph-name="onehalf" unicode="&#xbd;" horiz-adv-x="991" 
d="M76.5 300q-4.5 4 -4.5 15v33q0 11 4 15t13 4h89v279l-59 -50q-7 -5 -10 -7t-7 -2q-5 0 -10 4.5t-9 10.5l-10 13q-8 11 -8 18q0 5 4 9.5t10 9.5l98 73q8 6 14 8.5t17 2.5h25q12 0 17.5 -2t7.5 -7.5t2 -17.5v-342h79q10 0 13.5 -3.5t3.5 -15.5v-33q0 -12 -3.5 -15.5
t-13.5 -3.5h-250q-8 0 -12.5 4zM824 731q0 -5 -4 -12t-7.5 -11t-4.5 -6l-489 -692q-11 -15 -19 -19.5t-26 -4.5h-30q-9 0 -13.5 3t-4.5 10t4 15t10 16l489 691q1 2 7.5 11t13 11t18.5 2h30q26 0 26 -14zM707.5 319q-4.5 -4 -11.5 -4q-6 0 -12.5 2t-15.5 7q-10 5 -13 10
t-3 15q0 11 7 26.5t24 32.5q19 19 49.5 30t67.5 11q49 0 83 -17t51 -46t17 -64q0 -50 -22.5 -79t-58.5 -44q-29 -12 -49.5 -21t-37.5 -18q-27 -15 -40.5 -38t-13.5 -50h200q13 0 17 -3.5t4 -15.5v-34q0 -9 -2 -13t-7 -5t-11 -1h-257q-19 0 -25 4.5t-6 18.5v31
q0 40 14.5 73.5t36 57t45.5 36.5q20 11 39 19.5t41 17.5q28 11 38.5 25.5t10.5 39.5t-17 39.5t-52 14.5q-30 0 -49.5 -11t-31.5 -33q-5 -10 -9.5 -14z" />
    <glyph glyph-name="threequarters" unicode="&#xbe;" horiz-adv-x="953" 
d="M255 474q-19 14 -65 14h-40q-15 0 -20 4.5t-5 17.5v29q0 13 5 17t22 4h36q38 0 57 17t19 46q0 51 -72 51q-23 0 -40.5 -6t-28.5 -14q-4 -3 -8 -6.5t-8 -5.5t-8 -2q-8 0 -14 5t-15 15q-13 15 -13 24q0 7 8.5 16.5t26.5 19.5q23 11 47 18t56 7q71 0 113 -31t42 -91
q0 -47 -27.5 -68t-62.5 -25q100 -11 100 -109q0 -39 -17.5 -69t-53 -47.5t-86.5 -17.5q-41 0 -67.5 7t-53.5 24q-17 11 -26.5 22.5t-9.5 19.5q0 6 4 11t16 15q10 9 17 12.5t13 3.5q5 0 9.5 -3.5t10.5 -9.5q31 -31 83 -31q38 0 56.5 18t18.5 52q0 32 -19 46zM828 731
q0 -5 -4 -12t-7.5 -11t-4.5 -6l-489 -692q-11 -15 -19 -19.5t-26 -4.5h-30q-9 0 -13.5 3t-4.5 10t4 15t10 16l489 691q1 2 7.5 11t13 11t18.5 2h30q26 0 26 -14zM787.5 435.5q-6.5 -4.5 -16.5 -18.5l-186 -246q-6 -9 -7.5 -14t-1.5 -17v-9q0 -12 2 -17.5t7.5 -7.5t16.5 -2
h175v-86q0 -10 4 -14t14 -4h40q9 0 13.5 4t4.5 14v86h58q7 0 11 3.5t4 13.5v35q0 11 -3.5 13.5t-11.5 2.5h-58v246q0 14 -3.5 18t-16.5 4h-30q-9 0 -15.5 -4.5zM777 172h-114l116 156q-2 -46 -2 -156z" />
    <glyph glyph-name="questiondown" unicode="&#xbf;" horiz-adv-x="457" 
d="M293 551q7 -2 9.5 -8t2.5 -19v-64q0 -13 -2 -18.5t-8.5 -8t-20.5 -2.5h-59q-15 0 -21.5 2t-8.5 8t-2 19v64q0 13 2.5 19t9.5 8t22 2h54q15 0 22 -2zM301 -78q29 26 39 73q1 8 8.5 13t16.5 3l52 -8q8 -2 12.5 -8t4.5 -15q0 -41 -28 -86q-27 -43 -73.5 -67t-112.5 -24
q-98 0 -148 50.5t-50 139.5q0 57 24.5 105t78.5 97q29 26 44 45.5t21.5 41.5t6.5 53v13q0 12 3 15t14 3h49q15 0 20 -4.5t6 -21.5q1 -9 1 -22q0 -55 -21 -99.5t-58 -76.5q-48 -42 -68.5 -78.5t-20.5 -72.5q0 -95 106 -95q44 0 73 26z" />
    <glyph glyph-name="Agrave" unicode="&#xc0;" horiz-adv-x="662" 
d="M26 4.5q-9 4.5 -9 14.5q0 13 9 36l244 646q7 19 14.5 24.5t26.5 5.5h38q14 0 20.5 -1.5t10 -7t8.5 -19.5l248 -648q9 -24 9 -35t-7.5 -15.5t-28.5 -4.5h-35q-18 0 -25 5.5t-13 23.5l-72 194h-269l-73 -195q-6 -17 -13 -22.5t-25 -5.5h-30q-19 0 -28 4.5zM352 535
q-5 13 -8 25t-6 21l-7 23h-2q-4 -17 -12 -41l-11 -33l-77 -214h201zM183 935.5q-5 7.5 -5 13.5q0 16 30 16h61q18 0 25.5 -4.5t15.5 -19.5l52 -111q2 -3 5 -9t5 -11.5t2 -10.5q0 -14 -21 -14h-16q-11 0 -19 5t-18 16l-102 111q-10 11 -15 18.5z" />
    <glyph glyph-name="Aacute" unicode="&#xc1;" horiz-adv-x="662" 
d="M26 4.5q-9 4.5 -9 14.5q0 13 9 36l244 646q7 19 14.5 24.5t26.5 5.5h38q14 0 20.5 -1.5t10 -7t8.5 -19.5l248 -648q9 -24 9 -35t-7.5 -15.5t-28.5 -4.5h-35q-18 0 -25 5.5t-13 23.5l-72 194h-269l-73 -195q-6 -17 -13 -22.5t-25 -5.5h-30q-19 0 -28 4.5zM352 535
q-5 13 -8 25t-6 21l-7 23h-2q-4 -17 -12 -41l-11 -33l-77 -214h201zM466 935.5q5 7.5 5 13.5q0 16 -30 16h-61q-18 0 -26 -4.5t-15 -19.5l-54 -111q-5 -9 -8 -17t-3 -14q0 -14 18 -14h22q10 0 16.5 3.5t18.5 17.5l102 111q10 11 15 18.5z" />
    <glyph glyph-name="Acircumflex" unicode="&#xc2;" horiz-adv-x="662" 
d="M26 4.5q-9 4.5 -9 14.5q0 13 9 36l244 646q7 19 14.5 24.5t26.5 5.5h38q14 0 20.5 -1.5t10 -7t8.5 -19.5l248 -648q9 -24 9 -35t-7.5 -15.5t-28.5 -4.5h-35q-18 0 -25 5.5t-13 23.5l-72 194h-269l-73 -195q-6 -17 -13 -22.5t-25 -5.5h-30q-19 0 -28 4.5zM352 535
q-5 13 -8 25t-6 21l-7 23h-2q-4 -17 -12 -41l-11 -33l-77 -214h201zM271.5 944.5q6.5 7.5 13 10.5t14.5 3h60q11 0 17 -4t11.5 -10.5t7.5 -9.5l86 -104q17 -21 17 -31q0 -14 -25 -14h-18q-9 0 -16 4t-21 17l-89 77l-89 -77q-14 -13 -21 -17t-16 -4h-18q-23 0 -23 14
q0 12 16 31l85 104q2 3 8.5 10.5z" />
    <glyph glyph-name="Atilde" unicode="&#xc3;" horiz-adv-x="662" 
d="M26 4.5q-9 4.5 -9 14.5q0 13 9 36l244 646q7 19 14.5 24.5t26.5 5.5h38q14 0 20.5 -1.5t10 -7t8.5 -19.5l248 -648q9 -24 9 -35t-7.5 -15.5t-28.5 -4.5h-35q-18 0 -25 5.5t-13 23.5l-72 194h-269l-73 -195q-6 -17 -13 -22.5t-25 -5.5h-30q-19 0 -28 4.5zM352 535
q-5 13 -8 25t-6 21l-7 23h-2q-4 -17 -12 -41l-11 -33l-77 -214h201zM262 871.5q-10 2.5 -22 2.5q-17 0 -28 -11.5t-19 -32.5q-3 -9 -7 -14.5t-16 -5.5h-22q-10 0 -14 5t-4 15q0 36 14 63.5t39.5 43t58.5 15.5q21 0 39.5 -4.5t39.5 -14.5l51 -25q15 -7 26.5 -10.5t22.5 -3.5
q18 0 29 11.5t18 32.5q3 9 7 14.5t16 5.5h22q11 0 14.5 -5t3.5 -15q0 -34 -17 -62t-43 -44t-52 -16q-21 0 -39.5 4.5t-39.5 14.5l-51 25q-17 9 -27 11.5z" />
    <glyph glyph-name="Adieresis" unicode="&#xc4;" horiz-adv-x="662" 
d="M26 4.5q-9 4.5 -9 14.5q0 13 9 36l244 646q7 19 14.5 24.5t26.5 5.5h38q14 0 20.5 -1.5t10 -7t8.5 -19.5l248 -648q9 -24 9 -35t-7.5 -15.5t-28.5 -4.5h-35q-18 0 -25 5.5t-13 23.5l-72 194h-269l-73 -195q-6 -17 -13 -22.5t-25 -5.5h-30q-19 0 -28 4.5zM352 535
q-5 13 -8 25t-6 21l-7 23h-2q-4 -17 -12 -41l-11 -33l-77 -214h201zM247 816h-56q-27 0 -27 27v46q0 27 27 27h56q27 0 27 -27v-46q0 -27 -27 -27zM473 816h-56q-27 0 -27 27v46q0 27 27 27h56q27 0 27 -27v-46q0 -27 -27 -27z" />
    <glyph glyph-name="Aring" unicode="&#xc5;" horiz-adv-x="662" 
d="M26 4.5q-9 4.5 -9 14.5q0 13 9 36l244 646q7 19 14.5 24.5t26.5 5.5h38q14 0 20.5 -1.5t10 -7t8.5 -19.5l248 -648q9 -24 9 -35t-7.5 -15.5t-28.5 -4.5h-35q-18 0 -25 5.5t-13 23.5l-72 194h-269l-73 -195q-6 -17 -13 -22.5t-25 -5.5h-30q-19 0 -28 4.5zM352 535
q-5 13 -8 25t-6 21l-7 23h-2q-4 -17 -12 -41l-11 -33l-77 -214h201zM220.5 927.5q16.5 27.5 45 43.5t62.5 16q33 0 60.5 -16.5t43.5 -44t16 -59.5q0 -34 -16 -62t-43.5 -44t-61.5 -16t-62 16t-44.5 44t-16.5 62q0 33 16.5 60.5zM270 834q9 -15 24 -24t33 -9q17 0 32 9
t23.5 24t8.5 33q0 17 -9 31.5t-24 23t-32 8.5t-32 -9t-24 -23.5t-9 -30.5q0 -18 9 -33z" />
    <glyph glyph-name="AE" unicode="&#xc6;" horiz-adv-x="933" 
d="M869 729q5 -2 7 -8t2 -18v-38q0 -17 -4.5 -22t-21.5 -5h-297v-207h212q12 0 17 -2t7 -8t2 -18v-38q0 -17 -4.5 -22t-21.5 -5h-212v-245h311q17 0 22 -5t5 -22v-38q0 -13 -2 -18.5t-7.5 -7.5t-17.5 -2h-384q-12 0 -17.5 2t-7.5 7.5t-2 18.5v194h-251l-99 -195
q-6 -12 -10 -17.5t-10.5 -7.5t-18.5 -2h-36q-18 0 -26 4.5t-8 14.5q0 12 16 44l325 638q8 17 16 23.5t25 6.5h474q12 0 17 -2zM455 315v323h-41l-163 -323h204z" />
    <glyph glyph-name="Ccedilla" unicode="&#xc7;" horiz-adv-x="621" 
d="M588 73q0 -12 -7.5 -19t-26.5 -17q-36 -20 -84 -33.5t-105 -16.5l-20 -41q10 3 27 3q44 0 68.5 -23.5t24.5 -68.5q0 -38 -18.5 -64t-48.5 -38t-65 -12q-30 0 -50 4t-39 12q-16 6 -24.5 12.5t-8.5 13.5t5 16l8 15q4 7 8 9.5t9 2.5q4 0 7.5 -1t9.5 -4q32 -14 64 -14
q25 0 42 11t17 33q0 32 -32 32q-11 0 -17.5 -2t-14.5 -6.5t-15 -4.5t-17 3t-18 8.5t-8 12.5q0 6 2 12t5 13l31 67q-126 10 -184 92t-58 241v92q0 161 66.5 246.5t220.5 85.5q64 0 113.5 -8.5t87.5 -26.5q15 -8 22.5 -15.5t7.5 -17.5q0 -13 -6 -28q-7 -17 -14.5 -25.5
t-17.5 -8.5q-7 0 -20 4.5t-20 6.5q-65 25 -138 25q-77 0 -119 -22t-60.5 -74.5t-18.5 -148.5v-79q0 -98 21 -151.5t62 -74.5t109 -21q46 0 87 11.5t80 29.5q10 5 18 8t15 3q9 0 15 -6t11 -19q11 -22 11 -34z" />
    <glyph glyph-name="Egrave" unicode="&#xc8;" horiz-adv-x="600" 
d="M107.5 2q-5.5 2 -7.5 7.5t-2 18.5v675q0 13 2 18.5t7.5 7.5t17.5 2h392q13 0 18.5 -2t7.5 -7.5t2 -18.5v-38q0 -12 -2 -17.5t-7.5 -7.5t-18.5 -2h-319v-207h224q13 0 18.5 -2t7.5 -7.5t2 -18.5v-38q0 -12 -2 -17.5t-7.5 -7.5t-18.5 -2h-224v-245h334q17 0 22.5 -5
t5.5 -22v-38q0 -13 -2 -18.5t-7.5 -7.5t-18.5 -2h-407q-12 0 -17.5 2zM183 935.5q-5 7.5 -5 13.5q0 16 30 16h61q18 0 25.5 -4.5t15.5 -19.5l52 -111q2 -3 5 -9t5 -11.5t2 -10.5q0 -14 -21 -14h-16q-11 0 -19 5t-18 16l-102 111q-10 11 -15 18.5z" />
    <glyph glyph-name="Eacute" unicode="&#xc9;" horiz-adv-x="600" 
d="M107.5 2q-5.5 2 -7.5 7.5t-2 18.5v675q0 13 2 18.5t7.5 7.5t17.5 2h392q13 0 18.5 -2t7.5 -7.5t2 -18.5v-38q0 -12 -2 -17.5t-7.5 -7.5t-18.5 -2h-319v-207h224q13 0 18.5 -2t7.5 -7.5t2 -18.5v-38q0 -12 -2 -17.5t-7.5 -7.5t-18.5 -2h-224v-245h334q17 0 22.5 -5
t5.5 -22v-38q0 -13 -2 -18.5t-7.5 -7.5t-18.5 -2h-407q-12 0 -17.5 2zM465 935.5q5 7.5 5 13.5q0 16 -30 16h-61q-18 0 -26 -4.5t-15 -19.5l-54 -111q-5 -9 -8 -17t-3 -14q0 -14 18 -14h22q10 0 16.5 3.5t18.5 17.5l102 111q10 11 15 18.5z" />
    <glyph glyph-name="Ecircumflex" unicode="&#xca;" horiz-adv-x="600" 
d="M107.5 2q-5.5 2 -7.5 7.5t-2 18.5v675q0 13 2 18.5t7.5 7.5t17.5 2h392q13 0 18.5 -2t7.5 -7.5t2 -18.5v-38q0 -12 -2 -17.5t-7.5 -7.5t-18.5 -2h-319v-207h224q13 0 18.5 -2t7.5 -7.5t2 -18.5v-38q0 -12 -2 -17.5t-7.5 -7.5t-18.5 -2h-224v-245h334q17 0 22.5 -5
t5.5 -22v-38q0 -13 -2 -18.5t-7.5 -7.5t-18.5 -2h-407q-12 0 -17.5 2zM260.5 944.5q6.5 7.5 13 10.5t14.5 3h60q11 0 17 -4t11.5 -10.5t7.5 -9.5l86 -104q17 -21 17 -31q0 -14 -25 -14h-18q-9 0 -16 4t-21 17l-89 77l-89 -77q-14 -13 -21 -17t-16 -4h-18q-23 0 -23 14
q0 12 16 31l85 104q2 3 8.5 10.5z" />
    <glyph glyph-name="Edieresis" unicode="&#xcb;" horiz-adv-x="600" 
d="M107.5 2q-5.5 2 -7.5 7.5t-2 18.5v675q0 13 2 18.5t7.5 7.5t17.5 2h392q13 0 18.5 -2t7.5 -7.5t2 -18.5v-38q0 -12 -2 -17.5t-7.5 -7.5t-18.5 -2h-319v-207h224q13 0 18.5 -2t7.5 -7.5t2 -18.5v-38q0 -12 -2 -17.5t-7.5 -7.5t-18.5 -2h-224v-245h334q17 0 22.5 -5
t5.5 -22v-38q0 -13 -2 -18.5t-7.5 -7.5t-18.5 -2h-407q-12 0 -17.5 2zM236 816h-56q-27 0 -27 27v46q0 27 27 27h56q27 0 27 -27v-46q0 -27 -27 -27zM462 816h-56q-27 0 -27 27v46q0 27 27 27h56q27 0 27 -27v-46q0 -27 -27 -27z" />
    <glyph glyph-name="Igrave" unicode="&#xcc;" horiz-adv-x="454" 
d="M394.5 81q5.5 -2 7.5 -7.5t2 -17.5v-28q0 -13 -2 -18.5t-7.5 -7.5t-17.5 -2h-300q-13 0 -18.5 2t-7.5 7.5t-2 18.5v28q0 17 5.5 22t22.5 5h99v564h-99q-18 0 -23 5.5t-5 22.5v28q0 13 2 18.5t7.5 7.5t18.5 2h300q12 0 17.5 -2t7.5 -7.5t2 -18.5v-28q0 -17 -5 -22.5
t-22 -5.5h-100v-564h100q12 0 17.5 -2zM83 935.5q-5 7.5 -5 13.5q0 16 30 16h61q18 0 25.5 -4.5t15.5 -19.5l52 -111q2 -3 5 -9t5 -11.5t2 -10.5q0 -14 -21 -14h-16q-11 0 -19 5t-18 16l-102 111q-10 11 -15 18.5z" />
    <glyph glyph-name="Iacute" unicode="&#xcd;" horiz-adv-x="454" 
d="M394.5 81q5.5 -2 7.5 -7.5t2 -17.5v-28q0 -13 -2 -18.5t-7.5 -7.5t-17.5 -2h-300q-13 0 -18.5 2t-7.5 7.5t-2 18.5v28q0 17 5.5 22t22.5 5h99v564h-99q-18 0 -23 5.5t-5 22.5v28q0 13 2 18.5t7.5 7.5t18.5 2h300q12 0 17.5 -2t7.5 -7.5t2 -18.5v-28q0 -17 -5 -22.5
t-22 -5.5h-100v-564h100q12 0 17.5 -2zM357 935.5q5 7.5 5 13.5q0 16 -30 16h-61q-18 0 -26 -4.5t-15 -19.5l-54 -111q-5 -9 -8 -17t-3 -14q0 -14 18 -14h22q10 0 16.5 3.5t18.5 17.5l102 111q10 11 15 18.5z" />
    <glyph glyph-name="Icircumflex" unicode="&#xce;" horiz-adv-x="454" 
d="M394.5 81q5.5 -2 7.5 -7.5t2 -17.5v-28q0 -13 -2 -18.5t-7.5 -7.5t-17.5 -2h-300q-13 0 -18.5 2t-7.5 7.5t-2 18.5v28q0 17 5.5 22t22.5 5h99v564h-99q-18 0 -23 5.5t-5 22.5v28q0 13 2 18.5t7.5 7.5t18.5 2h300q12 0 17.5 -2t7.5 -7.5t2 -18.5v-28q0 -17 -5 -22.5
t-22 -5.5h-100v-564h100q12 0 17.5 -2zM168.5 944.5q6.5 7.5 13 10.5t14.5 3h60q11 0 17 -4t11.5 -10.5t7.5 -9.5l86 -104q17 -21 17 -31q0 -14 -25 -14h-18q-9 0 -16 4t-21 17l-89 77l-89 -77q-14 -13 -21 -17t-16 -4h-18q-23 0 -23 14q0 12 16 31l85 104q2 3 8.5 10.5z
" />
    <glyph glyph-name="Idieresis" unicode="&#xcf;" horiz-adv-x="454" 
d="M394.5 81q5.5 -2 7.5 -7.5t2 -17.5v-28q0 -13 -2 -18.5t-7.5 -7.5t-17.5 -2h-300q-13 0 -18.5 2t-7.5 7.5t-2 18.5v28q0 17 5.5 22t22.5 5h99v564h-99q-18 0 -23 5.5t-5 22.5v28q0 13 2 18.5t7.5 7.5t18.5 2h300q12 0 17.5 -2t7.5 -7.5t2 -18.5v-28q0 -17 -5 -22.5
t-22 -5.5h-100v-564h100q12 0 17.5 -2zM142 816h-56q-27 0 -27 27v46q0 27 27 27h56q27 0 27 -27v-46q0 -27 -27 -27zM368 816h-56q-27 0 -27 27v46q0 27 27 27h56q27 0 27 -27v-46q0 -27 -27 -27z" />
    <glyph glyph-name="Eth" unicode="&#xd0;" horiz-adv-x="723" 
d="M599 639.5q68 -91.5 68 -245.5v-53q0 -110 -31 -185t-101 -115.5t-186 -40.5h-223q-18 0 -23 5.5t-5 22.5v304h-70q-17 0 -22.5 5.5t-5.5 24.5v26q0 13 2 18.5t8 8t19 2.5h69v285q0 13 2 19t7.5 8t18.5 2h254q151 0 219 -91.5zM470.5 116q52.5 23 73 73t20.5 138v63
q0 95 -22 149.5t-64 76.5t-106 22h-174v-221h148q13 0 19 -2.5t8 -8t2 -18.5v-26q0 -19 -5.5 -24.5t-22.5 -5.5h-149v-239h122q98 0 150.5 23z" />
    <glyph glyph-name="Ntilde" unicode="&#xd1;" horiz-adv-x="753" 
d="M103.5 5.5q-5.5 5.5 -5.5 23.5v673q0 13 2 18.5t8 8t18 2.5h40q17 0 25 -4.5t17 -19.5l314 -480q13 -20 24 -40.5t15 -32.5h2q-3 39 -3 81v467q0 18 5.5 23.5t23.5 5.5h38q18 0 23.5 -5.5t5.5 -23.5v-673q0 -18 -5.5 -23.5t-23.5 -5.5h-40q-12 0 -18.5 2t-11.5 7t-13 17
l-315 479q-10 15 -21.5 36.5t-15.5 35.5h-2q3 -34 3 -88v-460q0 -18 -5.5 -23.5t-23.5 -5.5h-37q-18 0 -23.5 5.5zM309 871.5q-10 2.5 -22 2.5q-17 0 -28 -11.5t-19 -32.5q-3 -9 -7 -14.5t-16 -5.5h-22q-10 0 -14 5t-4 15q0 36 14 63.5t39.5 43t58.5 15.5q21 0 39.5 -4.5
t39.5 -14.5l51 -25q15 -7 26.5 -10.5t22.5 -3.5q18 0 29 11.5t18 32.5q3 9 7 14.5t16 5.5h22q11 0 14.5 -5t3.5 -15q0 -34 -17 -62t-43 -44t-52 -16q-21 0 -39.5 4.5t-39.5 14.5l-51 25q-17 9 -27 11.5z" />
    <glyph glyph-name="Ograve" unicode="&#xd2;" horiz-adv-x="731" 
d="M137 668q82 77 225 77h11q149 0 226 -81t77 -245v-101q0 -332 -307 -332h-11q-141 0 -222 78.5t-81 247.5v101q0 178 82 255zM552 550q-20 52 -64 76.5t-117 24.5h-11q-74 0 -118 -25t-63.5 -77t-19.5 -137v-93q0 -85 20 -137t64 -77t117 -25h11q72 0 116 24t64.5 76.5
t20.5 138.5v93q0 86 -20 138zM222 935.5q-5 7.5 -5 13.5q0 16 30 16h61q18 0 25.5 -4.5t15.5 -19.5l52 -111q2 -3 5 -9t5 -11.5t2 -10.5q0 -14 -21 -14h-16q-11 0 -19 5t-18 16l-102 111q-10 11 -15 18.5z" />
    <glyph glyph-name="Oacute" unicode="&#xd3;" horiz-adv-x="731" 
d="M137 668q82 77 225 77h11q149 0 226 -81t77 -245v-101q0 -332 -307 -332h-11q-141 0 -222 78.5t-81 247.5v101q0 178 82 255zM552 550q-20 52 -64 76.5t-117 24.5h-11q-74 0 -118 -25t-63.5 -77t-19.5 -137v-93q0 -85 20 -137t64 -77t117 -25h11q72 0 116 24t64.5 76.5
t20.5 138.5v93q0 86 -20 138zM514 935.5q5 7.5 5 13.5q0 16 -30 16h-61q-18 0 -26 -4.5t-15 -19.5l-54 -111q-5 -9 -8 -17t-3 -14q0 -14 18 -14h22q10 0 16.5 3.5t18.5 17.5l102 111q10 11 15 18.5z" />
    <glyph glyph-name="Ocircumflex" unicode="&#xd4;" horiz-adv-x="731" 
d="M137 668q82 77 225 77h11q149 0 226 -81t77 -245v-101q0 -332 -307 -332h-11q-141 0 -222 78.5t-81 247.5v101q0 178 82 255zM552 550q-20 52 -64 76.5t-117 24.5h-11q-74 0 -118 -25t-63.5 -77t-19.5 -137v-93q0 -85 20 -137t64 -77t117 -25h11q72 0 116 24t64.5 76.5
t20.5 138.5v93q0 86 -20 138zM306.5 944.5q6.5 7.5 13 10.5t14.5 3h60q11 0 17 -4t11.5 -10.5t7.5 -9.5l86 -104q17 -21 17 -31q0 -14 -25 -14h-18q-9 0 -16 4t-21 17l-89 77l-89 -77q-14 -13 -21 -17t-16 -4h-18q-23 0 -23 14q0 12 16 31l85 104q2 3 8.5 10.5z" />
    <glyph glyph-name="Otilde" unicode="&#xd5;" horiz-adv-x="731" 
d="M137 668q82 77 225 77h11q149 0 226 -81t77 -245v-101q0 -332 -307 -332h-11q-141 0 -222 78.5t-81 247.5v101q0 178 82 255zM552 550q-20 52 -64 76.5t-117 24.5h-11q-74 0 -118 -25t-63.5 -77t-19.5 -137v-93q0 -85 20 -137t64 -77t117 -25h11q72 0 116 24t64.5 76.5
t20.5 138.5v93q0 86 -20 138zM297 871.5q-10 2.5 -22 2.5q-17 0 -28 -11.5t-19 -32.5q-3 -9 -7 -14.5t-16 -5.5h-22q-10 0 -14 5t-4 15q0 36 14 63.5t39.5 43t58.5 15.5q21 0 39.5 -4.5t39.5 -14.5l51 -25q15 -7 26.5 -10.5t22.5 -3.5q18 0 29 11.5t18 32.5q3 9 7 14.5
t16 5.5h22q11 0 14.5 -5t3.5 -15q0 -34 -17 -62t-43 -44t-52 -16q-21 0 -39.5 4.5t-39.5 14.5l-51 25q-17 9 -27 11.5z" />
    <glyph glyph-name="Odieresis" unicode="&#xd6;" horiz-adv-x="731" 
d="M137 668q82 77 225 77h11q149 0 226 -81t77 -245v-101q0 -332 -307 -332h-11q-141 0 -222 78.5t-81 247.5v101q0 178 82 255zM552 550q-20 52 -64 76.5t-117 24.5h-11q-74 0 -118 -25t-63.5 -77t-19.5 -137v-93q0 -85 20 -137t64 -77t117 -25h11q72 0 116 24t64.5 76.5
t20.5 138.5v93q0 86 -20 138zM272 816h-56q-27 0 -27 27v46q0 27 27 27h56q27 0 27 -27v-46q0 -27 -27 -27zM498 816h-56q-27 0 -27 27v46q0 27 27 27h56q27 0 27 -27v-46q0 -27 -27 -27z" />
    <glyph glyph-name="multiply" unicode="&#xd7;" horiz-adv-x="635" 
d="M543 206q12 -12 12 -20q0 -4 -3 -9t-8 -10l-23 -23q-6 -6 -11 -9.5t-9 -3.5q-7 0 -19 13l-164 164l-165 -164q-5 -5 -10 -8.5t-9 -3.5q-8 0 -20 12l-22 23q-5 5 -8.5 10t-3.5 9q0 7 12 19l164 165l-163 163q-6 5 -9.5 10.5t-3.5 9.5q0 7 12 19l23 23q12 12 19 12
q8 0 20 -12l164 -164l164 165q12 12 19 12q4 0 9 -3.5t11 -8.5l22 -23q12 -12 12 -20t-11 -19l-165 -164z" />
    <glyph glyph-name="Oslash" unicode="&#xd8;" horiz-adv-x="731" 
d="M137 668q82 77 225 77h11q146 0 222 -77l62 65q5 5 10.5 8.5t9.5 3.5t8.5 -2.5t10.5 -7.5l18 -17q12 -11 12 -19q0 -9 -10 -20l-74 -79q34 -74 34 -181v-101q0 -332 -307 -332h-11q-144 0 -221 77l-62 -65q-12 -12 -19 -12q-9 0 -20 10l-18 17q-13 12 -13 19t11 20l74 79
q-35 72 -35 181v101q0 178 82 255zM169 215l358 380q-24 29 -62.5 42.5t-93.5 13.5h-11q-74 0 -118 -25t-63.5 -77t-19.5 -137v-93q0 -63 10 -104zM562 515l-357 -379q24 -28 62 -42t93 -14h11q72 0 116 24t64.5 76.5t20.5 138.5v93q0 55 -10 103z" />
    <glyph glyph-name="Ugrave" unicode="&#xd9;" horiz-adv-x="738" 
d="M583 61q-64 -75 -207 -75h-25q-129 0 -194.5 69.5t-65.5 200.5v446q0 13 2.5 19t8 8t18.5 2h43q12 0 18 -2.5t8 -8t2 -18.5v-437q0 -98 43 -141t133 -43q97 0 138.5 47.5t41.5 136.5v437q0 13 2 19t8 8t19 2h42q13 0 19 -2t8 -7.5t2 -18.5v-446q0 -121 -64 -196z
M221 935.5q-5 7.5 -5 13.5q0 16 30 16h61q18 0 25.5 -4.5t15.5 -19.5l52 -111q2 -3 5 -9t5 -11.5t2 -10.5q0 -14 -21 -14h-16q-11 0 -19 5t-18 16l-102 111q-10 11 -15 18.5z" />
    <glyph glyph-name="Uacute" unicode="&#xda;" horiz-adv-x="738" 
d="M583 61q-64 -75 -207 -75h-25q-129 0 -194.5 69.5t-65.5 200.5v446q0 13 2.5 19t8 8t18.5 2h43q12 0 18 -2.5t8 -8t2 -18.5v-437q0 -98 43 -141t133 -43q97 0 138.5 47.5t41.5 136.5v437q0 13 2 19t8 8t19 2h42q13 0 19 -2t8 -7.5t2 -18.5v-446q0 -121 -64 -196z
M514 935.5q5 7.5 5 13.5q0 16 -30 16h-61q-18 0 -26 -4.5t-15 -19.5l-54 -111q-5 -9 -8 -17t-3 -14q0 -14 18 -14h22q10 0 16.5 3.5t18.5 17.5l102 111q10 11 15 18.5z" />
    <glyph glyph-name="Ucircumflex" unicode="&#xdb;" horiz-adv-x="738" 
d="M583 61q-64 -75 -207 -75h-25q-129 0 -194.5 69.5t-65.5 200.5v446q0 13 2.5 19t8 8t18.5 2h43q12 0 18 -2.5t8 -8t2 -18.5v-437q0 -98 43 -141t133 -43q97 0 138.5 47.5t41.5 136.5v437q0 13 2 19t8 8t19 2h42q13 0 19 -2t8 -7.5t2 -18.5v-446q0 -121 -64 -196z
M311.5 944.5q6.5 7.5 13 10.5t14.5 3h60q11 0 17 -4t11.5 -10.5t7.5 -9.5l86 -104q17 -21 17 -31q0 -14 -25 -14h-18q-9 0 -16 4t-21 17l-89 77l-89 -77q-14 -13 -21 -17t-16 -4h-18q-23 0 -23 14q0 12 16 31l85 104q2 3 8.5 10.5z" />
    <glyph glyph-name="Udieresis" unicode="&#xdc;" horiz-adv-x="738" 
d="M583 61q-64 -75 -207 -75h-25q-129 0 -194.5 69.5t-65.5 200.5v446q0 13 2.5 19t8 8t18.5 2h43q12 0 18 -2.5t8 -8t2 -18.5v-437q0 -98 43 -141t133 -43q97 0 138.5 47.5t41.5 136.5v437q0 13 2 19t8 8t19 2h42q13 0 19 -2t8 -7.5t2 -18.5v-446q0 -121 -64 -196zM284 816
h-56q-27 0 -27 27v46q0 27 27 27h56q27 0 27 -27v-46q0 -27 -27 -27zM510 816h-56q-27 0 -27 27v46q0 27 27 27h56q27 0 27 -27v-46q0 -27 -27 -27z" />
    <glyph glyph-name="Yacute" unicode="&#xdd;" horiz-adv-x="598" 
d="M32 687q-4 8 -7 15t-3 12q0 17 30 17h44q15 0 24 -5t17 -21l128 -260l18 -37q5 -9 9 -17.5t8 -19.5h3q6 18 13 32t8 17l13 26l126 260q6 13 14.5 19t25.5 6h40q16 0 24.5 -3.5t8.5 -11.5t-8.5 -24t-9.5 -19l-199 -373q-6 -10 -8 -18t-2 -20v-233q0 -18 -5.5 -23.5
t-23.5 -5.5h-42q-13 0 -19 2t-8 8t-2 19v232q0 12 -2 20t-8 18l-199 373q-4 7 -8 15zM447 935.5q5 7.5 5 13.5q0 16 -30 16h-61q-18 0 -26 -4.5t-15 -19.5l-54 -111q-5 -9 -8 -17t-3 -14q0 -14 18 -14h22q10 0 16.5 3.5t18.5 17.5l102 111q10 11 15 18.5z" />
    <glyph glyph-name="Thorn" unicode="&#xde;" horiz-adv-x="650" 
d="M103.5 726q5.5 5 22.5 5h43q18 0 23.5 -5.5t5.5 -23.5v-111h160q81 0 137.5 -19.5t88.5 -67.5t32 -130q0 -88 -33 -137.5t-91 -69t-140 -19.5h-154v-119q0 -18 -5.5 -23.5t-23.5 -5.5h-43q-12 0 -18 2.5t-8 8t-2 18.5v676q0 16 5.5 21zM443 254q35 12 51.5 40.5
t16.5 76.5q0 47 -16.5 74.5t-51 39.5t-91.5 12h-154v-255h153q57 0 92 12z" />
    <glyph glyph-name="germandbls" unicode="&#xdf;" horiz-adv-x="623" 
d="M517.5 517.5q-15.5 -28.5 -51.5 -51.5l-12 -8l-33 -22t-32.5 -26.5t-8.5 -21.5q0 -12 15.5 -24.5t47.5 -30.5l40 -25q33 -21 55.5 -42t37 -52t14.5 -72q0 -38 -19 -72.5t-61 -57.5t-106 -23q-35 0 -56.5 2.5t-40.5 8.5q-22 6 -34 14.5t-12 19.5q0 14 8 30q5 13 11 20.5
t15 7.5q6 0 24 -6q16 -5 35 -8t48 -3t49 9.5t30 25t10 33.5q0 26 -12.5 45.5t-31.5 33.5t-50 32q-38 22 -60 37.5t-37.5 38.5t-15.5 55q0 29 17.5 54.5t49.5 50.5l13 10l17 13q18 13 29.5 23t18.5 24t7 33q0 32 -28 52t-77 20q-80 0 -114 -59t-34 -155v-421q0 -14 -2 -20
t-8.5 -8t-20.5 -2h-34q-14 0 -20 2t-8.5 8.5t-2.5 20.5v423q0 134 57.5 215t189.5 81q63 0 107.5 -18.5t68 -54t23.5 -84.5q0 -47 -15.5 -75.5z" />
    <glyph glyph-name="agrave" unicode="&#xe0;" horiz-adv-x="574" 
d="M361.5 457.5q-27.5 23.5 -93.5 23.5q-33 0 -57.5 -4.5t-51.5 -14.5q-25 -10 -39 -10q-10 0 -16 6t-12 21q-7 19 -7 30q0 10 9 16.5t30 14.5q73 25 143 25q83 0 131 -22.5t67 -62.5t19 -97v-216q0 -35 5.5 -59.5t17.5 -45.5q5 -9 7.5 -15.5t2.5 -11.5q0 -7 -5 -13.5
t-18 -14.5l-12 -7q-7 -4 -13.5 -7t-13.5 -3t-12.5 3t-12.5 13q-9 14 -16 31.5t-11 31.5h-2q-33 -38 -74 -59t-98 -21q-85 0 -130.5 43t-45.5 125q0 65 29.5 106t96.5 61t178 20h32v40q0 50 -27.5 73.5zM177.5 93q25.5 -21 69.5 -21q60 0 91 22.5t41 55.5t10 75v41h-36
q-81 0 -124.5 -11.5t-60 -34t-16.5 -59.5q0 -47 25.5 -68zM103 780.5q-5 7.5 -5 13.5q0 16 30 16h47q18 0 25.5 -4.5t15.5 -19.5l79 -134q6 -9 9 -17t3 -14q0 -14 -21 -14h-15q-12 0 -19 4.5t-18 16.5l-116 134q-10 11 -15 18.5z" />
    <glyph glyph-name="aacute" unicode="&#xe1;" horiz-adv-x="574" 
d="M361.5 457.5q-27.5 23.5 -93.5 23.5q-33 0 -57.5 -4.5t-51.5 -14.5q-25 -10 -39 -10q-10 0 -16 6t-12 21q-7 19 -7 30q0 10 9 16.5t30 14.5q73 25 143 25q83 0 131 -22.5t67 -62.5t19 -97v-216q0 -35 5.5 -59.5t17.5 -45.5q5 -9 7.5 -15.5t2.5 -11.5q0 -7 -5 -13.5
t-18 -14.5l-12 -7q-7 -4 -13.5 -7t-13.5 -3t-12.5 3t-12.5 13q-9 14 -16 31.5t-11 31.5h-2q-33 -38 -74 -59t-98 -21q-85 0 -130.5 43t-45.5 125q0 65 29.5 106t96.5 61t178 20h32v40q0 50 -27.5 73.5zM177.5 93q25.5 -21 69.5 -21q60 0 91 22.5t41 55.5t10 75v41h-36
q-81 0 -124.5 -11.5t-60 -34t-16.5 -59.5q0 -47 25.5 -68zM270 611.5q-7 -4.5 -19 -4.5h-15q-21 0 -21 14q0 6 3 14t9 17l79 134q8 15 15.5 19.5t25.5 4.5h47q30 0 30 -16q0 -6 -5 -13.5t-15 -18.5l-116 -134q-11 -12 -18 -16.5z" />
    <glyph glyph-name="acircumflex" unicode="&#xe2;" horiz-adv-x="574" 
d="M361.5 457.5q-27.5 23.5 -93.5 23.5q-33 0 -57.5 -4.5t-51.5 -14.5q-25 -10 -39 -10q-10 0 -16 6t-12 21q-7 19 -7 30q0 10 9 16.5t30 14.5q73 25 143 25q83 0 131 -22.5t67 -62.5t19 -97v-216q0 -35 5.5 -59.5t17.5 -45.5q5 -9 7.5 -15.5t2.5 -11.5q0 -7 -5 -13.5
t-18 -14.5l-12 -7q-7 -4 -13.5 -7t-13.5 -3t-12.5 3t-12.5 13q-9 14 -16 31.5t-11 31.5h-2q-33 -38 -74 -59t-98 -21q-85 0 -130.5 43t-45.5 125q0 65 29.5 106t96.5 61t178 20h32v40q0 50 -27.5 73.5zM177.5 93q25.5 -21 69.5 -21q60 0 91 22.5t41 55.5t10 75v41h-36
q-81 0 -124.5 -11.5t-60 -34t-16.5 -59.5q0 -47 25.5 -68zM230 805q6 5 19 5h53q12 0 17.5 -4.5t16.5 -19.5l92 -135q2 -4 6 -9t7 -11t3 -10q0 -7 -4.5 -10.5t-11.5 -3.5h-27q-10 0 -16.5 4t-17.5 17l-92 104l-92 -104q-11 -13 -17.5 -17t-16.5 -4h-25q-7 0 -11.5 3.5
t-4.5 10.5q0 5 4.5 13t10.5 17l92 135q9 14 15 19z" />
    <glyph glyph-name="atilde" unicode="&#xe3;" horiz-adv-x="574" 
d="M361.5 457.5q-27.5 23.5 -93.5 23.5q-33 0 -57.5 -4.5t-51.5 -14.5q-25 -10 -39 -10q-10 0 -16 6t-12 21q-7 19 -7 30q0 10 9 16.5t30 14.5q73 25 143 25q83 0 131 -22.5t67 -62.5t19 -97v-216q0 -35 5.5 -59.5t17.5 -45.5q5 -9 7.5 -15.5t2.5 -11.5q0 -7 -5 -13.5
t-18 -14.5l-12 -7q-7 -4 -13.5 -7t-13.5 -3t-12.5 3t-12.5 13q-9 14 -16 31.5t-11 31.5h-2q-33 -38 -74 -59t-98 -21q-85 0 -130.5 43t-45.5 125q0 65 29.5 106t96.5 61t178 20h32v40q0 50 -27.5 73.5zM177.5 93q25.5 -21 69.5 -21q60 0 91 22.5t41 55.5t10 75v41h-36
q-81 0 -124.5 -11.5t-60 -34t-16.5 -59.5q0 -47 25.5 -68zM217 693.5q-10 2.5 -21 2.5q-17 0 -27.5 -11.5t-18.5 -32.5q-3 -9 -7 -14.5t-16 -5.5h-22q-10 0 -14 6.5t-4 13.5q0 36 14 63.5t38.5 43t56.5 15.5q20 0 37.5 -4.5t38.5 -14.5l50 -25q27 -14 47 -14q18 0 28.5 11
t17.5 33q3 9 7 14.5t16 5.5h22q10 0 14 -6.5t4 -13.5q0 -34 -16.5 -62t-42 -44t-50.5 -16q-20 0 -37.5 4.5t-38.5 14.5l-50 25q-16 9 -26 11.5z" />
    <glyph glyph-name="adieresis" unicode="&#xe4;" horiz-adv-x="574" 
d="M361.5 457.5q-27.5 23.5 -93.5 23.5q-33 0 -57.5 -4.5t-51.5 -14.5q-25 -10 -39 -10q-10 0 -16 6t-12 21q-7 19 -7 30q0 10 9 16.5t30 14.5q73 25 143 25q83 0 131 -22.5t67 -62.5t19 -97v-216q0 -35 5.5 -59.5t17.5 -45.5q5 -9 7.5 -15.5t2.5 -11.5q0 -7 -5 -13.5
t-18 -14.5l-12 -7q-7 -4 -13.5 -7t-13.5 -3t-12.5 3t-12.5 13q-9 14 -16 31.5t-11 31.5h-2q-33 -38 -74 -59t-98 -21q-85 0 -130.5 43t-45.5 125q0 65 29.5 106t96.5 61t178 20h32v40q0 50 -27.5 73.5zM177.5 93q25.5 -21 69.5 -21q60 0 91 22.5t41 55.5t10 75v41h-36
q-81 0 -124.5 -11.5t-60 -34t-16.5 -59.5q0 -47 25.5 -68zM126 640q-7 2 -10 8t-3 19v42q0 13 2 19t8.5 8t20.5 2h42q15 0 21.5 -2t8.5 -8t2 -19v-42q0 -13 -2.5 -19t-9.5 -8t-22 -2h-37q-14 0 -21 2zM337 640q-7 2 -10 8t-3 19v42q0 13 2 19t8.5 8t20.5 2h42q15 0 21.5 -2
t8.5 -8t2 -19v-42q0 -13 -2.5 -19t-9.5 -8t-22 -2h-37q-14 0 -21 2z" />
    <glyph glyph-name="aring" unicode="&#xe5;" horiz-adv-x="574" 
d="M361.5 457.5q-27.5 23.5 -93.5 23.5q-33 0 -57.5 -4.5t-51.5 -14.5q-25 -10 -39 -10q-10 0 -16 6t-12 21q-7 19 -7 30q0 10 9 16.5t30 14.5q73 25 143 25q83 0 131 -22.5t67 -62.5t19 -97v-216q0 -35 5.5 -59.5t17.5 -45.5q5 -9 7.5 -15.5t2.5 -11.5q0 -7 -5 -13.5
t-18 -14.5l-12 -7q-7 -4 -13.5 -7t-13.5 -3t-12.5 3t-12.5 13q-9 14 -16 31.5t-11 31.5h-2q-33 -38 -74 -59t-98 -21q-85 0 -130.5 43t-45.5 125q0 65 29.5 106t96.5 61t178 20h32v40q0 50 -27.5 73.5zM177.5 93q25.5 -21 69.5 -21q60 0 91 22.5t41 55.5t10 75v41h-36
q-81 0 -124.5 -11.5t-60 -34t-16.5 -59.5q0 -47 25.5 -68zM177.5 789.5q16.5 27.5 45 43.5t62.5 16q33 0 60.5 -16.5t43.5 -44t16 -59.5q0 -34 -16 -62t-43.5 -44t-61.5 -16t-62 16t-44.5 44t-16.5 62q0 33 16.5 60.5zM227 696q9 -15 24 -24t33 -9q17 0 32 9t23.5 24t8.5 33
q0 17 -9 31.5t-24 23t-32 8.5t-32 -9t-24 -23.5t-9 -30.5q0 -18 9 -33z" />
    <glyph glyph-name="ae" unicode="&#xe6;" horiz-adv-x="893" 
d="M361.5 456.5q-27.5 24.5 -93.5 24.5q-33 0 -57.5 -4.5t-51.5 -14.5q-25 -10 -39 -10q-10 0 -16 6t-12 21q-7 19 -7 30q0 10 9.5 17t29.5 14q68 25 143 25q70 0 115 -16.5t69 -47.5q60 64 171 64q115 0 168.5 -62t53.5 -192v-28q0 -12 -2 -18t-7 -8t-17 -2h-334v-37
q0 -144 160 -144q61 0 119 25l13 6.5t15 7t13 3.5q18 0 29 -22q11 -19 11 -30t-7.5 -18.5t-24.5 -16.5q-35 -19 -78 -29.5t-91 -10.5q-160 0 -218 100q-32 -52 -80.5 -76t-102.5 -24q-94 0 -141.5 42t-47.5 124q0 64 29.5 104t96.5 60t178 20h32v41q0 52 -27.5 76.5z
M544.5 464q-30.5 -17 -45.5 -47.5t-15 -69.5v-8h264v15q0 68 -31 97.5t-98 29.5q-44 0 -74.5 -17zM247 72q60 0 91 22t41 54t10 73v40h-36q-81 0 -124.5 -11t-60 -33t-16.5 -58q0 -87 95 -87z" />
    <glyph glyph-name="ccedilla" unicode="&#xe7;" horiz-adv-x="503" 
d="M480 67q0 -7 -3.5 -12t-15.5 -14q-30 -22 -64 -35t-81 -16l-22 -44q11 3 27 3q44 0 68.5 -23.5t24.5 -68.5q0 -38 -18.5 -64t-48.5 -38t-65 -12q-30 0 -50 4t-39 12q-16 6 -24.5 12.5t-8.5 13.5t5 16l8 15q4 7 8 9.5t9 2.5q4 0 7.5 -1t9.5 -4q32 -14 64 -14q25 0 42 11
t17 33q0 32 -32 32q-11 0 -17.5 -2t-14.5 -6.5t-15 -4.5t-17 3t-18 8.5t-8 12.5q0 6 2 12t5 13l33 70q-99 11 -149 76t-50 188v40q0 139 61 204.5t180 65.5q50 0 87.5 -10.5t61.5 -25.5q15 -9 20.5 -15.5t5.5 -16.5q0 -6 -2.5 -13t-5 -11.5t-3.5 -7.5q-7 -14 -12 -18t-13 -4
q-6 0 -15.5 4t-16.5 7.5t-10 5.5q-21 11 -43.5 16t-51.5 5q-46 0 -77.5 -16.5t-49 -56t-17.5 -108.5v-49q0 -95 36 -136.5t108 -41.5q35 0 60.5 8t53.5 25q12 8 21.5 12.5t16.5 4.5q6 0 12 -4t13 -17q11 -22 11 -35z" />
    <glyph glyph-name="egrave" unicode="&#xe8;" horiz-adv-x="554" 
d="M183.5 114.5q39.5 -40.5 121.5 -40.5q61 0 119 25l13 6.5t15 7t13 3.5q18 0 29 -22q11 -19 11 -30t-7.5 -18.5t-24.5 -16.5q-35 -19 -78 -29.5t-91 -10.5q-129 0 -192 65t-63 190v64q0 127 61 192t173 65q115 0 168.5 -62t53.5 -192v-28q0 -12 -2 -18t-7 -8t-17 -2h-335
v-11q0 -89 39.5 -129.5zM205.5 464q-30.5 -17 -46 -47.5t-15.5 -69.5v-8h265v15q0 68 -31 97.5t-98 29.5q-44 0 -74.5 -17zM142 780.5q-5 7.5 -5 13.5q0 16 30 16h47q18 0 25.5 -4.5t15.5 -19.5l79 -134q6 -9 9 -17t3 -14q0 -14 -21 -14h-15q-12 0 -19 4.5t-18 16.5
l-116 134q-10 11 -15 18.5z" />
    <glyph glyph-name="eacute" unicode="&#xe9;" horiz-adv-x="554" 
d="M183.5 114.5q39.5 -40.5 121.5 -40.5q61 0 119 25l13 6.5t15 7t13 3.5q18 0 29 -22q11 -19 11 -30t-7.5 -18.5t-24.5 -16.5q-35 -19 -78 -29.5t-91 -10.5q-129 0 -192 65t-63 190v64q0 127 61 192t173 65q115 0 168.5 -62t53.5 -192v-28q0 -12 -2 -18t-7 -8t-17 -2h-335
v-11q0 -89 39.5 -129.5zM205.5 464q-30.5 -17 -46 -47.5t-15.5 -69.5v-8h265v15q0 68 -31 97.5t-98 29.5q-44 0 -74.5 -17zM278 611.5q-7 -4.5 -19 -4.5h-15q-21 0 -21 14q0 6 3 14t9 17l79 134q8 15 15.5 19.5t25.5 4.5h47q30 0 30 -16q0 -6 -5 -13.5t-15 -18.5l-116 -134
q-11 -12 -18 -16.5z" />
    <glyph glyph-name="ecircumflex" unicode="&#xea;" horiz-adv-x="554" 
d="M183.5 114.5q39.5 -40.5 121.5 -40.5q61 0 119 25l13 6.5t15 7t13 3.5q18 0 29 -22q11 -19 11 -30t-7.5 -18.5t-24.5 -16.5q-35 -19 -78 -29.5t-91 -10.5q-129 0 -192 65t-63 190v64q0 127 61 192t173 65q115 0 168.5 -62t53.5 -192v-28q0 -12 -2 -18t-7 -8t-17 -2h-335
v-11q0 -89 39.5 -129.5zM205.5 464q-30.5 -17 -46 -47.5t-15.5 -69.5v-8h265v15q0 68 -31 97.5t-98 29.5q-44 0 -74.5 -17zM235 805q6 5 19 5h53q12 0 17.5 -4.5t16.5 -19.5l92 -135q2 -4 6 -9t7 -11t3 -10q0 -7 -4.5 -10.5t-11.5 -3.5h-27q-10 0 -16.5 4t-17.5 17l-92 104
l-92 -104q-11 -13 -17.5 -17t-16.5 -4h-25q-7 0 -11.5 3.5t-4.5 10.5q0 5 4.5 13t10.5 17l92 135q9 14 15 19z" />
    <glyph glyph-name="edieresis" unicode="&#xeb;" horiz-adv-x="554" 
d="M183.5 114.5q39.5 -40.5 121.5 -40.5q61 0 119 25l13 6.5t15 7t13 3.5q18 0 29 -22q11 -19 11 -30t-7.5 -18.5t-24.5 -16.5q-35 -19 -78 -29.5t-91 -10.5q-129 0 -192 65t-63 190v64q0 127 61 192t173 65q115 0 168.5 -62t53.5 -192v-28q0 -12 -2 -18t-7 -8t-17 -2h-335
v-11q0 -89 39.5 -129.5zM205.5 464q-30.5 -17 -46 -47.5t-15.5 -69.5v-8h265v15q0 68 -31 97.5t-98 29.5q-44 0 -74.5 -17zM130 640q-7 2 -10 8t-3 19v42q0 13 2 19t8.5 8t20.5 2h42q15 0 21.5 -2t8.5 -8t2 -19v-42q0 -13 -2.5 -19t-9.5 -8t-22 -2h-37q-14 0 -21 2zM341 640
q-7 2 -10 8t-3 19v42q0 13 2 19t8.5 8t20.5 2h42q15 0 21.5 -2t8.5 -8t2 -19v-42q0 -13 -2.5 -19t-9.5 -8t-22 -2h-37q-14 0 -21 2z" />
    <glyph glyph-name="igrave" unicode="&#xec;" horiz-adv-x="276" 
d="M100 2.5q-6 2.5 -8 8t-2 18.5v495q0 13 2 18.5t7.5 8t17.5 2.5h41q18 0 23 -5.5t5 -22.5v-496q0 -18 -5.5 -23.5t-23.5 -5.5h-38q-13 0 -19 2.5zM-8 780.5q-5 7.5 -5 13.5q0 16 30 16h47q18 0 25.5 -4.5t15.5 -19.5l79 -134q6 -9 9 -17t3 -14q0 -14 -21 -14h-15
q-12 0 -19 4.5t-18 16.5l-116 134q-10 11 -15 18.5z" />
    <glyph glyph-name="iacute" unicode="&#xed;" horiz-adv-x="276" 
d="M100 2.5q-6 2.5 -8 8t-2 18.5v495q0 13 2 18.5t7.5 8t17.5 2.5h41q18 0 23 -5.5t5 -22.5v-496q0 -18 -5.5 -23.5t-23.5 -5.5h-38q-13 0 -19 2.5zM132 611.5q-7 -4.5 -19 -4.5h-15q-21 0 -21 14q0 6 3 14t9 17l79 134q8 15 15.5 19.5t25.5 4.5h47q30 0 30 -16
q0 -6 -5 -13.5t-15 -18.5l-116 -134q-11 -12 -18 -16.5z" />
    <glyph glyph-name="icircumflex" unicode="&#xee;" horiz-adv-x="276" 
d="M100 2.5q-6 2.5 -8 8t-2 18.5v495q0 13 2 18.5t7.5 8t17.5 2.5h41q18 0 23 -5.5t5 -22.5v-496q0 -18 -5.5 -23.5t-23.5 -5.5h-38q-13 0 -19 2.5zM92 805q6 5 19 5h53q12 0 17.5 -4.5t16.5 -19.5l92 -135q2 -4 6 -9t7 -11t3 -10q0 -7 -4.5 -10.5t-11.5 -3.5h-27
q-10 0 -16.5 4t-17.5 17l-92 104l-92 -104q-11 -13 -17.5 -17t-16.5 -4h-25q-7 0 -11.5 3.5t-4.5 10.5q0 5 4.5 13t10.5 17l92 135q9 14 15 19z" />
    <glyph glyph-name="idieresis" unicode="&#xef;" horiz-adv-x="276" 
d="M100 2.5q-6 2.5 -8 8t-2 18.5v495q0 13 2 18.5t7.5 8t17.5 2.5h41q18 0 23 -5.5t5 -22.5v-496q0 -18 -5.5 -23.5t-23.5 -5.5h-38q-13 0 -19 2.5zM-7 640q-7 2 -10 8t-3 19v42q0 13 2 19t8.5 8t20.5 2h42q15 0 21.5 -2t8.5 -8t2 -19v-42q0 -13 -2.5 -19t-9.5 -8t-22 -2
h-37q-14 0 -21 2zM204 640q-7 2 -10 8t-3 19v42q0 13 2 19t8.5 8t20.5 2h42q15 0 21.5 -2t8.5 -8t2 -19v-42q0 -13 -2.5 -19t-9.5 -8t-22 -2h-37q-14 0 -21 2z" />
    <glyph glyph-name="eth" unicode="&#xf0;" horiz-adv-x="580" 
d="M188 690q-18 14 -25 21t-7 14q0 8 9.5 10t24.5 2h47q14 0 23.5 -3.5t21.5 -12t26 -19.5l24 -20l93 37q12 5 18 5t9 -4.5t8 -17.5l5 -13q5 -13 5 -17q0 -6 -4.5 -9.5t-16.5 -8.5l-62 -24q66 -71 101 -149q43 -96 43 -209v-13q0 -99 -26 -158.5t-77 -85.5t-129 -26h-24
q-226 0 -226 252v28q0 135 56.5 195.5t166.5 60.5h6q28 0 51.5 -7t37.5 -15t20 -14l2 1q-11 21 -35.5 49.5t-54.5 55.5l-122 -47q-14 -6 -19 -6q-4 0 -7 4t-5 8.5t-4 8.5l-6 13q-5 12 -5 17q0 6 4.5 10t16.5 9l89 35q-12 10 -53 43zM422 355q-10 38 -40 61.5t-88 23.5h-9
q-53 0 -83 -19.5t-42 -57.5t-12 -100v-12q0 -60 11.5 -98.5t41 -58.5t82.5 -20h12q54 0 84 20t41.5 58t11.5 99v12q0 54 -10 92z" />
    <glyph glyph-name="ntilde" unicode="&#xf1;" horiz-adv-x="620" 
d="M92.5 543q2.5 6 8 8t18.5 2h19q18 0 24.5 -5t12.5 -23l8 -23h2q41 32 85.5 47.5t88.5 15.5q84 0 129.5 -42t45.5 -125v-368q0 -14 -2 -20t-8 -8t-19 -2h-38q-13 0 -19 2t-8 8t-2 19v345q0 54 -24 79t-80 25q-41 0 -77 -15t-59 -37q-8 -7 -10 -12t-2 -18v-367
q0 -13 -2 -18.5t-8 -8t-19 -2.5h-38q-18 0 -23.5 5.5t-5.5 23.5v496q0 12 2.5 18zM235 693.5q-10 2.5 -21 2.5q-17 0 -27.5 -11.5t-18.5 -32.5q-3 -9 -7 -14.5t-16 -5.5h-22q-10 0 -14 6.5t-4 13.5q0 36 14 63.5t38.5 43t56.5 15.5q20 0 37.5 -4.5t38.5 -14.5l50 -25
q27 -14 47 -14q18 0 28.5 11t17.5 33q3 9 7 14.5t16 5.5h22q10 0 14 -6.5t4 -13.5q0 -34 -16.5 -62t-42 -44t-50.5 -16q-20 0 -37.5 4.5t-38.5 14.5l-50 25q-16 9 -26 11.5z" />
    <glyph glyph-name="ograve" unicode="&#xf2;" horiz-adv-x="580" 
d="M107.5 505q58.5 60 174.5 60h23q117 0 171.5 -60.5t54.5 -190.5v-69q0 -132 -57.5 -194t-174.5 -62h-24q-119 0 -172.5 63t-53.5 189v68q0 136 58.5 196zM420 403q-12 38 -41 57.5t-82 19.5h-12q-53 0 -83 -19.5t-42 -57.5t-12 -100v-52q0 -60 11.5 -98.5t41 -58.5
t82.5 -20h12q54 0 84 20t41.5 58t11.5 99v52q0 62 -12 100zM135 780.5q-5 7.5 -5 13.5q0 16 30 16h47q18 0 25.5 -4.5t15.5 -19.5l79 -134q6 -9 9 -17t3 -14q0 -14 -21 -14h-15q-12 0 -19 4.5t-18 16.5l-116 134q-10 11 -15 18.5z" />
    <glyph glyph-name="oacute" unicode="&#xf3;" horiz-adv-x="580" 
d="M107.5 505q58.5 60 174.5 60h23q117 0 171.5 -60.5t54.5 -190.5v-69q0 -132 -57.5 -194t-174.5 -62h-24q-119 0 -172.5 63t-53.5 189v68q0 136 58.5 196zM420 403q-12 38 -41 57.5t-82 19.5h-12q-53 0 -83 -19.5t-42 -57.5t-12 -100v-52q0 -60 11.5 -98.5t41 -58.5
t82.5 -20h12q54 0 84 20t41.5 58t11.5 99v52q0 62 -12 100zM297 611.5q-7 -4.5 -19 -4.5h-15q-21 0 -21 14q0 6 3 14t9 17l79 134q8 15 15.5 19.5t25.5 4.5h47q30 0 30 -16q0 -6 -5 -13.5t-15 -18.5l-116 -134q-11 -12 -18 -16.5z" />
    <glyph glyph-name="ocircumflex" unicode="&#xf4;" horiz-adv-x="580" 
d="M107.5 505q58.5 60 174.5 60h23q117 0 171.5 -60.5t54.5 -190.5v-69q0 -132 -57.5 -194t-174.5 -62h-24q-119 0 -172.5 63t-53.5 189v68q0 136 58.5 196zM420 403q-12 38 -41 57.5t-82 19.5h-12q-53 0 -83 -19.5t-42 -57.5t-12 -100v-52q0 -60 11.5 -98.5t41 -58.5
t82.5 -20h12q54 0 84 20t41.5 58t11.5 99v52q0 62 -12 100zM244 805q6 5 19 5h53q12 0 17.5 -4.5t16.5 -19.5l92 -135q2 -4 6 -9t7 -11t3 -10q0 -7 -4.5 -10.5t-11.5 -3.5h-27q-10 0 -16.5 4t-17.5 17l-92 104l-92 -104q-11 -13 -17.5 -17t-16.5 -4h-25q-7 0 -11.5 3.5
t-4.5 10.5q0 5 4.5 13t10.5 17l92 135q9 14 15 19z" />
    <glyph glyph-name="otilde" unicode="&#xf5;" horiz-adv-x="580" 
d="M107.5 505q58.5 60 174.5 60h23q117 0 171.5 -60.5t54.5 -190.5v-69q0 -132 -57.5 -194t-174.5 -62h-24q-119 0 -172.5 63t-53.5 189v68q0 136 58.5 196zM420 403q-12 38 -41 57.5t-82 19.5h-12q-53 0 -83 -19.5t-42 -57.5t-12 -100v-52q0 -60 11.5 -98.5t41 -58.5
t82.5 -20h12q54 0 84 20t41.5 58t11.5 99v52q0 62 -12 100zM223 693.5q-10 2.5 -21 2.5q-17 0 -27.5 -11.5t-18.5 -32.5q-3 -9 -7 -14.5t-16 -5.5h-22q-10 0 -14 6.5t-4 13.5q0 36 14 63.5t38.5 43t56.5 15.5q20 0 37.5 -4.5t38.5 -14.5l50 -25q27 -14 47 -14q18 0 28.5 11
t17.5 33q3 9 7 14.5t16 5.5h22q10 0 14 -6.5t4 -13.5q0 -34 -16.5 -62t-42 -44t-50.5 -16q-20 0 -37.5 4.5t-38.5 14.5l-50 25q-16 9 -26 11.5z" />
    <glyph glyph-name="odieresis" unicode="&#xf6;" horiz-adv-x="580" 
d="M107.5 505q58.5 60 174.5 60h23q117 0 171.5 -60.5t54.5 -190.5v-69q0 -132 -57.5 -194t-174.5 -62h-24q-119 0 -172.5 63t-53.5 189v68q0 136 58.5 196zM420 403q-12 38 -41 57.5t-82 19.5h-12q-53 0 -83 -19.5t-42 -57.5t-12 -100v-52q0 -60 11.5 -98.5t41 -58.5
t82.5 -20h12q54 0 84 20t41.5 58t11.5 99v52q0 62 -12 100zM145 640q-7 2 -10 8t-3 19v42q0 13 2 19t8.5 8t20.5 2h42q15 0 21.5 -2t8.5 -8t2 -19v-42q0 -13 -2.5 -19t-9.5 -8t-22 -2h-37q-14 0 -21 2zM356 640q-7 2 -10 8t-3 19v42q0 13 2 19t8.5 8t20.5 2h42q15 0 21.5 -2
t8.5 -8t2 -19v-42q0 -13 -2.5 -19t-9.5 -8t-22 -2h-37q-14 0 -21 2z" />
    <glyph glyph-name="divide" unicode="&#xf7;" horiz-adv-x="635" 
d="M277 523q-7 2 -10 8t-3 19v42q0 13 2 19t8.5 8t20.5 2h44q15 0 21.5 -2t8.5 -8t2 -19v-42q0 -13 -2.5 -19t-9.5 -8t-22 -2h-39q-14 0 -21 2zM558.5 411q5.5 -2 7.5 -7.5t2 -17.5v-32q0 -17 -5.5 -22.5t-21.5 -5.5h-447q-17 0 -22 5.5t-5 22.5v32q0 12 2 17.5t7.5 7.5
t17.5 2h447q12 0 17.5 -2zM277 121q-7 2 -10 8t-3 19v42q0 13 2 19t8.5 8t20.5 2h44q15 0 21.5 -2t8.5 -8t2 -19v-42q0 -13 -2.5 -19t-9.5 -8t-22 -2h-39q-14 0 -21 2z" />
    <glyph glyph-name="oslash" unicode="&#xf8;" horiz-adv-x="580" 
d="M22 31q0 4 3.5 9t8.5 11l41 45q-26 56 -26 145v68q0 136 58.5 196t174.5 60h23q51 0 89 -12t66 -36l31 35q5 6 9.5 9.5t8.5 3.5t9.5 -3t11.5 -9l12 -11q7 -6 11 -11.5t4 -9.5q0 -6 -11 -19l-42 -46q27 -54 27 -142v-69q0 -132 -57.5 -194t-174.5 -62h-24q-100 0 -155 47
l-31 -34q-13 -13 -21 -13q-7 0 -20 11l-12 11q-14 12 -14 20zM151 180l247 271q-17 17 -41.5 25.5t-59.5 8.5h-12q-53 0 -83 -20t-42 -59t-12 -102v-53q0 -41 3 -71zM428 374l-247 -272q17 -17 41.5 -25t60.5 -8h12q54 0 84 20.5t41.5 59.5t11.5 101v53q0 29 -4 71z" />
    <glyph glyph-name="ugrave" unicode="&#xf9;" horiz-adv-x="619" 
d="M527 10q-2 -6 -8 -8t-19 -2h-18q-18 0 -25 5t-12 23l-8 23h-2q-41 -32 -86 -47.5t-89 -15.5q-83 0 -128.5 42t-45.5 126v368q0 13 2 19t8 8t19 2h38q13 0 18.5 -2t8 -8t2.5 -19v-347q0 -53 23.5 -77.5t78.5 -24.5q41 0 77 15t60 37q8 7 10 12.5t2 18.5v366q0 13 2.5 19
t8 8t18.5 2h38q13 0 18.5 -2t8 -8t2.5 -18v-496q0 -13 -2 -19zM151 780.5q-5 7.5 -5 13.5q0 16 30 16h47q18 0 25.5 -4.5t15.5 -19.5l79 -134q6 -9 9 -17t3 -14q0 -14 -21 -14h-15q-12 0 -19 4.5t-18 16.5l-116 134q-10 11 -15 18.5z" />
    <glyph glyph-name="uacute" unicode="&#xfa;" horiz-adv-x="619" 
d="M527 10q-2 -6 -8 -8t-19 -2h-18q-18 0 -25 5t-12 23l-8 23h-2q-41 -32 -86 -47.5t-89 -15.5q-83 0 -128.5 42t-45.5 126v368q0 13 2 19t8 8t19 2h38q13 0 18.5 -2t8 -8t2.5 -19v-347q0 -53 23.5 -77.5t78.5 -24.5q41 0 77 15t60 37q8 7 10 12.5t2 18.5v366q0 13 2.5 19
t8 8t18.5 2h38q13 0 18.5 -2t8 -8t2.5 -18v-496q0 -13 -2 -19zM320 611.5q-7 -4.5 -19 -4.5h-15q-21 0 -21 14q0 6 3 14t9 17l79 134q8 15 15.5 19.5t25.5 4.5h47q30 0 30 -16q0 -6 -5 -13.5t-15 -18.5l-116 -134q-11 -12 -18 -16.5z" />
    <glyph glyph-name="ucircumflex" unicode="&#xfb;" horiz-adv-x="619" 
d="M527 10q-2 -6 -8 -8t-19 -2h-18q-18 0 -25 5t-12 23l-8 23h-2q-41 -32 -86 -47.5t-89 -15.5q-83 0 -128.5 42t-45.5 126v368q0 13 2 19t8 8t19 2h38q13 0 18.5 -2t8 -8t2.5 -19v-347q0 -53 23.5 -77.5t78.5 -24.5q41 0 77 15t60 37q8 7 10 12.5t2 18.5v366q0 13 2.5 19
t8 8t18.5 2h38q13 0 18.5 -2t8 -8t2.5 -18v-496q0 -13 -2 -19zM259 805q6 5 19 5h53q12 0 17.5 -4.5t16.5 -19.5l92 -135q2 -4 6 -9t7 -11t3 -10q0 -7 -4.5 -10.5t-11.5 -3.5h-27q-10 0 -16.5 4t-17.5 17l-92 104l-92 -104q-11 -13 -17.5 -17t-16.5 -4h-25q-7 0 -11.5 3.5
t-4.5 10.5q0 5 4.5 13t10.5 17l92 135q9 14 15 19z" />
    <glyph glyph-name="udieresis" unicode="&#xfc;" horiz-adv-x="619" 
d="M527 10q-2 -6 -8 -8t-19 -2h-18q-18 0 -25 5t-12 23l-8 23h-2q-41 -32 -86 -47.5t-89 -15.5q-83 0 -128.5 42t-45.5 126v368q0 13 2 19t8 8t19 2h38q13 0 18.5 -2t8 -8t2.5 -19v-347q0 -53 23.5 -77.5t78.5 -24.5q41 0 77 15t60 37q8 7 10 12.5t2 18.5v366q0 13 2.5 19
t8 8t18.5 2h38q13 0 18.5 -2t8 -8t2.5 -18v-496q0 -13 -2 -19zM158 640q-7 2 -10 8t-3 19v42q0 13 2 19t8.5 8t20.5 2h42q15 0 21.5 -2t8.5 -8t2 -19v-42q0 -13 -2.5 -19t-9.5 -8t-22 -2h-37q-14 0 -21 2zM369 640q-7 2 -10 8t-3 19v42q0 13 2 19t8.5 8t20.5 2h42
q15 0 21.5 -2t8.5 -8t2 -19v-42q0 -13 -2.5 -19t-9.5 -8t-22 -2h-37q-14 0 -21 2z" />
    <glyph glyph-name="yacute" unicode="&#xfd;" horiz-adv-x="517" 
d="M81.5 -201q-19.5 3 -34.5 9q-2 1 -8.5 3.5t-10.5 7t-4 10.5q0 16 11 41q4 11 8.5 17t12.5 6q6 0 23.5 -4.5t36.5 -4.5q24 0 41 9t29.5 30t24.5 57q3 9 3 15q0 8 -6 23l-187 488q-9 23 -9 31t5.5 12t21.5 4h42q13 0 19 -2t10 -7.5t8 -17.5l135 -377q3 -9 10 -37h2
q4 16 6.5 25t3.5 12l119 378q5 16 12 21t26 5h39q15 0 20.5 -3.5t5.5 -10.5t-4.5 -19.5t-5.5 -14.5l-178 -532q-24 -71 -50 -109t-59 -53t-82 -15q-17 0 -36.5 3zM265 611.5q-7 -4.5 -19 -4.5h-15q-21 0 -21 14q0 6 3 14t9 17l79 134q8 15 15.5 19.5t25.5 4.5h47
q30 0 30 -16q0 -6 -5 -13.5t-15 -18.5l-116 -134q-11 -12 -18 -16.5z" />
    <glyph glyph-name="thorn" unicode="&#xfe;" horiz-adv-x="618" 
d="M188 65h-2v-229q0 -13 -2 -18.5t-8 -7.5t-20 -2h-36q-19 0 -24.5 5.5t-5.5 24.5v869q0 19 5.5 24.5t24.5 5.5h36q14 0 20 -2t8 -7.5t2 -18.5v-169q31 12 64 18.5t73 6.5h10q124 0 180 -67t56 -193v-58q0 -257 -215 -257h-5q-101 0 -161 75zM205 456q-12 -7 -15.5 -11
t-3.5 -17v-220q0 -33 18.5 -64t51.5 -50t74 -19h3q54 0 83.5 20t41.5 59.5t12 104.5v39q0 91 -32 136.5t-109 45.5h-9q-64 0 -115 -24z" />
    <glyph glyph-name="ydieresis" unicode="&#xff;" horiz-adv-x="517" 
d="M81.5 -201q-19.5 3 -34.5 9q-2 1 -8.5 3.5t-10.5 7t-4 10.5q0 16 11 41q4 11 8.5 17t12.5 6q6 0 23.5 -4.5t36.5 -4.5q24 0 41 9t29.5 30t24.5 57q3 9 3 15q0 8 -6 23l-187 488q-9 23 -9 31t5.5 12t21.5 4h42q13 0 19 -2t10 -7.5t8 -17.5l135 -377q3 -9 10 -37h2
q4 16 6.5 25t3.5 12l119 378q5 16 12 21t26 5h39q15 0 20.5 -3.5t5.5 -10.5t-4.5 -19.5t-5.5 -14.5l-178 -532q-24 -71 -50 -109t-59 -53t-82 -15q-17 0 -36.5 3zM109 640q-7 2 -10 8t-3 19v42q0 13 2 19t8.5 8t20.5 2h42q15 0 21.5 -2t8.5 -8t2 -19v-42q0 -13 -2.5 -19
t-9.5 -8t-22 -2h-37q-14 0 -21 2zM320 640q-7 2 -10 8t-3 19v42q0 13 2 19t8.5 8t20.5 2h42q15 0 21.5 -2t8.5 -8t2 -19v-42q0 -13 -2.5 -19t-9.5 -8t-22 -2h-37q-14 0 -21 2z" />
    <glyph glyph-name="Amacron" unicode="&#x100;" horiz-adv-x="662" 
d="M26 4.5q-9 4.5 -9 14.5q0 13 9 36l244 646q7 19 14.5 24.5t26.5 5.5h38q14 0 20.5 -1.5t10 -7t8.5 -19.5l248 -648q9 -24 9 -35t-7.5 -15.5t-28.5 -4.5h-35q-18 0 -25 5.5t-13 23.5l-72 194h-269l-73 -195q-6 -17 -13 -22.5t-25 -5.5h-30q-19 0 -28 4.5zM352 535
q-5 13 -8 25t-6 21l-7 23h-2q-4 -17 -12 -41l-11 -33l-77 -214h201zM159 854v27q0 27 27 27h276q27 0 27 -27v-27q0 -27 -27 -27h-276q-27 0 -27 27z" />
    <glyph glyph-name="amacron" unicode="&#x101;" horiz-adv-x="574" 
d="M361.5 457.5q-27.5 23.5 -93.5 23.5q-33 0 -57.5 -4.5t-51.5 -14.5q-25 -10 -39 -10q-10 0 -16 6t-12 21q-7 19 -7 30q0 10 9 16.5t30 14.5q73 25 143 25q83 0 131 -22.5t67 -62.5t19 -97v-216q0 -35 5.5 -59.5t17.5 -45.5q5 -9 7.5 -15.5t2.5 -11.5q0 -7 -5 -13.5
t-18 -14.5l-12 -7q-7 -4 -13.5 -7t-13.5 -3t-12.5 3t-12.5 13q-9 14 -16 31.5t-11 31.5h-2q-33 -38 -74 -59t-98 -21q-85 0 -130.5 43t-45.5 125q0 65 29.5 106t96.5 61t178 20h32v40q0 50 -27.5 73.5zM177.5 93q25.5 -21 69.5 -21q60 0 91 22.5t41 55.5t10 75v41h-36
q-81 0 -124.5 -11.5t-60 -34t-16.5 -59.5q0 -47 25.5 -68zM410 649h-266q-27 0 -27 27v27q0 27 27 27h266q27 0 27 -27v-27q0 -27 -27 -27z" />
    <glyph glyph-name="Abreve" unicode="&#x102;" horiz-adv-x="662" 
d="M26 4.5q-9 4.5 -9 14.5q0 13 9 36l244 646q7 19 14.5 24.5t26.5 5.5h38q14 0 20.5 -1.5t10 -7t8.5 -19.5l248 -648q9 -24 9 -35t-7.5 -15.5t-28.5 -4.5h-35q-18 0 -25 5.5t-13 23.5l-72 194h-269l-73 -195q-6 -17 -13 -22.5t-25 -5.5h-30q-19 0 -28 4.5zM352 535
q-5 13 -8 25t-6 21l-7 23h-2q-4 -17 -12 -41l-11 -33l-77 -214h201zM236.5 910q11.5 -18 34.5 -32t59 -14t59 14t34.5 32t14.5 34q3 14 8.5 17.5t20.5 3.5h11q11 0 16 -4t5 -14q0 -54 -23 -90.5t-61 -54t-85 -17.5t-85 17.5t-61 54t-23 90.5q0 10 5 14t16 4h10q15 0 21 -3.5
t9 -17.5q3 -16 14.5 -34z" />
    <glyph glyph-name="abreve" unicode="&#x103;" horiz-adv-x="574" 
d="M361.5 457.5q-27.5 23.5 -93.5 23.5q-33 0 -57.5 -4.5t-51.5 -14.5q-25 -10 -39 -10q-10 0 -16 6t-12 21q-7 19 -7 30q0 10 9 16.5t30 14.5q73 25 143 25q83 0 131 -22.5t67 -62.5t19 -97v-216q0 -35 5.5 -59.5t17.5 -45.5q5 -9 7.5 -15.5t2.5 -11.5q0 -7 -5 -13.5
t-18 -14.5l-12 -7q-7 -4 -13.5 -7t-13.5 -3t-12.5 3t-12.5 13q-9 14 -16 31.5t-11 31.5h-2q-33 -38 -74 -59t-98 -21q-85 0 -130.5 43t-45.5 125q0 65 29.5 106t96.5 61t178 20h32v40q0 50 -27.5 73.5zM177.5 93q25.5 -21 69.5 -21q60 0 91 22.5t41 55.5t10 75v41h-36
q-81 0 -124.5 -11.5t-60 -34t-16.5 -59.5q0 -47 25.5 -68zM206 716q23 -30 74 -30t74 30t30 62q2 10 5 14.5t7.5 5.5t14.5 1h10q11 0 16 -4t5 -14q0 -57 -21.5 -96t-58 -58.5t-82.5 -19.5t-82.5 19.5t-58 58.5t-21.5 96q0 10 5 14t16 4h9q15 0 20 -3.5t8 -17.5q7 -32 30 -62
z" />
    <glyph glyph-name="Aogonek" unicode="&#x104;" horiz-adv-x="662" 
d="M26 4.5q-9 4.5 -9 14.5q0 13 9 36l244 646q5 13 10 19.5t11.5 8.5t19.5 2h38q14 0 20 -1.5t10 -7t9 -19.5l248 -648q9 -24 9 -35q0 -8 -2 -12.5t-6.5 -7t-9.5 -4.5q-19 -9 -28 -17q-29 -22 -40.5 -45.5t-11.5 -51.5t15 -40.5t39 -12.5q13 0 24 2t20 5q15 4 19 4q6 0 9 -3
t5 -10l6 -22l2 -10q0 -12 -18 -19q-42 -14 -81 -14q-124 0 -124 108q0 43 20 77t61 63l-80 213h-269l-73 -195q-6 -17 -13 -22.5t-25 -5.5h-30q-19 0 -28 4.5zM352 535q-5 13 -8 25t-6 21l-7 23h-2q-4 -17 -12 -41l-11 -33l-77 -214h201z" />
    <glyph glyph-name="aogonek" unicode="&#x105;" horiz-adv-x="574" 
d="M361.5 457.5q-27.5 23.5 -93.5 23.5q-33 0 -57.5 -4.5t-51.5 -14.5q-25 -10 -39 -10q-10 0 -16 6t-12 21q-7 19 -7 30q0 10 9 16.5t30 14.5q73 25 143 25q83 0 131 -22.5t67 -62.5t19 -97v-216q0 -35 5.5 -59.5t18.5 -47.5q5 -8 7 -14t2 -11q0 -7 -4.5 -13t-15.5 -13
q-47 -30 -63 -64t-16 -63q0 -28 15 -40.5t39 -12.5q13 0 24 2t20 5q15 4 19 4q6 0 9 -3t5 -10l5 -23q2 -8 2 -11q0 -6 -4 -10t-13 -7q-42 -14 -81 -14q-124 0 -124 108q0 45 22.5 80t67.5 65q-11 23 -21 54h-2q-33 -38 -74 -59t-98 -21q-85 0 -130.5 43t-45.5 125
q0 65 29.5 106t96.5 61t178 20h32v40q0 50 -27.5 73.5zM177.5 93q25.5 -21 69.5 -21q60 0 91 22.5t41 55.5t10 75v41h-36q-81 0 -124.5 -11.5t-60 -34t-16.5 -59.5q0 -47 25.5 -68z" />
    <glyph glyph-name="Cacute" unicode="&#x106;" horiz-adv-x="621" 
d="M176 22.5q-62 36.5 -91.5 110.5t-29.5 188v92q0 161 66.5 246.5t220.5 85.5q64 0 113.5 -8.5t87.5 -26.5q15 -8 22.5 -15.5t7.5 -17.5q0 -13 -6 -28q-7 -17 -14.5 -25.5t-17.5 -8.5q-7 0 -20 4.5t-20 6.5q-65 25 -138 25q-77 0 -119 -22t-60.5 -74.5t-18.5 -148.5v-79
q0 -98 21 -151.5t62 -74.5t109 -21q46 0 87 11.5t80 29.5q10 5 18 8t15 3q9 0 15 -6t11 -19q11 -22 11 -34t-7.5 -19t-26.5 -17q-40 -22 -95 -36.5t-121 -14.5q-100 0 -162 36.5zM517 935.5q5 7.5 5 13.5q0 16 -30 16h-61q-18 0 -26 -4.5t-15 -19.5l-54 -111q-5 -9 -8 -17
t-3 -14q0 -14 18 -14h22q10 0 16.5 3.5t18.5 17.5l102 111q10 11 15 18.5z" />
    <glyph glyph-name="cacute" unicode="&#x107;" horiz-adv-x="503" 
d="M109.5 54.5q-60.5 65.5 -60.5 200.5v40q0 139 61 204.5t180 65.5q50 0 87.5 -10.5t61.5 -25.5q15 -9 20.5 -15.5t5.5 -16.5q0 -6 -2.5 -13t-5 -11.5t-3.5 -7.5q-7 -14 -12 -18t-13 -4q-6 0 -15.5 4t-16.5 7.5t-10 5.5q-21 11 -43.5 16t-51.5 5q-46 0 -77.5 -16.5t-49 -56
t-17.5 -108.5v-49q0 -95 36 -136.5t108 -41.5q35 0 60.5 8t53.5 25q12 8 21.5 12.5t16.5 4.5q6 0 12 -4t13 -17q11 -22 11 -35q0 -7 -3.5 -12t-15.5 -14q-34 -25 -74 -38.5t-97 -13.5q-120 0 -180.5 65.5zM283 611.5q-7 -4.5 -19 -4.5h-15q-21 0 -21 14q0 6 3 14t9 17
l79 134q8 15 15.5 19.5t25.5 4.5h47q30 0 30 -16q0 -6 -5 -13.5t-15 -18.5l-116 -134q-11 -12 -18 -16.5z" />
    <glyph glyph-name="Ccircumflex" unicode="&#x108;" horiz-adv-x="621" 
d="M176 22.5q-62 36.5 -91.5 110.5t-29.5 188v92q0 161 66.5 246.5t220.5 85.5q64 0 113.5 -8.5t87.5 -26.5q15 -8 22.5 -15.5t7.5 -17.5q0 -13 -6 -28q-7 -17 -14.5 -25.5t-17.5 -8.5q-7 0 -20 4.5t-20 6.5q-65 25 -138 25q-77 0 -119 -22t-60.5 -74.5t-18.5 -148.5v-79
q0 -98 21 -151.5t62 -74.5t109 -21q46 0 87 11.5t80 29.5q10 5 18 8t15 3q9 0 15 -6t11 -19q11 -22 11 -34t-7.5 -19t-26.5 -17q-40 -22 -95 -36.5t-121 -14.5q-100 0 -162 36.5zM294.5 944.5q6.5 7.5 13 10.5t14.5 3h60q11 0 17 -4t11.5 -10.5t7.5 -9.5l86 -104
q17 -21 17 -31q0 -14 -25 -14h-18q-9 0 -16 4t-21 17l-89 77l-89 -77q-14 -13 -21 -17t-16 -4h-18q-23 0 -23 14q0 12 16 31l85 104q2 3 8.5 10.5z" />
    <glyph glyph-name="ccircumflex" unicode="&#x109;" horiz-adv-x="503" 
d="M109.5 54.5q-60.5 65.5 -60.5 200.5v40q0 139 61 204.5t180 65.5q50 0 87.5 -10.5t61.5 -25.5q15 -9 20.5 -15.5t5.5 -16.5q0 -6 -2.5 -13t-5 -11.5t-3.5 -7.5q-7 -14 -12 -18t-13 -4q-6 0 -15.5 4t-16.5 7.5t-10 5.5q-21 11 -43.5 16t-51.5 5q-46 0 -77.5 -16.5t-49 -56
t-17.5 -108.5v-49q0 -95 36 -136.5t108 -41.5q35 0 60.5 8t53.5 25q12 8 21.5 12.5t16.5 4.5q6 0 12 -4t13 -17q11 -22 11 -35q0 -7 -3.5 -12t-15.5 -14q-34 -25 -74 -38.5t-97 -13.5q-120 0 -180.5 65.5zM235 805q6 5 19 5h53q12 0 17.5 -4.5t16.5 -19.5l92 -135q2 -4 6 -9
t7 -11t3 -10q0 -7 -4.5 -10.5t-11.5 -3.5h-27q-10 0 -16.5 4t-17.5 17l-92 104l-92 -104q-11 -13 -17.5 -17t-16.5 -4h-25q-7 0 -11.5 3.5t-4.5 10.5q0 5 4.5 13t10.5 17l92 135q9 14 15 19z" />
    <glyph glyph-name="Cdotaccent" unicode="&#x10a;" horiz-adv-x="621" 
d="M176 22.5q-62 36.5 -91.5 110.5t-29.5 188v92q0 161 66.5 246.5t220.5 85.5q64 0 113.5 -8.5t87.5 -26.5q15 -8 22.5 -15.5t7.5 -17.5q0 -13 -6 -28q-7 -17 -14.5 -25.5t-17.5 -8.5q-7 0 -20 4.5t-20 6.5q-65 25 -138 25q-77 0 -119 -22t-60.5 -74.5t-18.5 -148.5v-79
q0 -98 21 -151.5t62 -74.5t109 -21q46 0 87 11.5t80 29.5q10 5 18 8t15 3q9 0 15 -6t11 -19q11 -22 11 -34t-7.5 -19t-26.5 -17q-40 -22 -95 -36.5t-121 -14.5q-100 0 -162 36.5zM283 843v46q0 27 27 27h56q27 0 27 -27v-46q0 -27 -27 -27h-56q-27 0 -27 27z" />
    <glyph glyph-name="cdotaccent" unicode="&#x10b;" horiz-adv-x="503" 
d="M109.5 54.5q-60.5 65.5 -60.5 200.5v40q0 139 61 204.5t180 65.5q50 0 87.5 -10.5t61.5 -25.5q15 -9 20.5 -15.5t5.5 -16.5q0 -6 -2.5 -13t-5 -11.5t-3.5 -7.5q-7 -14 -12 -18t-13 -4q-6 0 -15.5 4t-16.5 7.5t-10 5.5q-21 11 -43.5 16t-51.5 5q-46 0 -77.5 -16.5t-49 -56
t-17.5 -108.5v-49q0 -95 36 -136.5t108 -41.5q35 0 60.5 8t53.5 25q12 8 21.5 12.5t16.5 4.5q6 0 12 -4t13 -17q11 -22 11 -35q0 -7 -3.5 -12t-15.5 -14q-34 -25 -74 -38.5t-97 -13.5q-120 0 -180.5 65.5zM239.5 640q-6.5 2 -8.5 8t-2 19v42q0 13 2 19t8.5 8t20.5 2h43
q15 0 21.5 -2t8.5 -8t2 -19v-42q0 -13 -2 -19t-8.5 -8t-21.5 -2h-43q-14 0 -20.5 2z" />
    <glyph glyph-name="Ccaron" unicode="&#x10c;" horiz-adv-x="621" 
d="M176 22.5q-62 36.5 -91.5 110.5t-29.5 188v92q0 161 66.5 246.5t220.5 85.5q64 0 113.5 -8.5t87.5 -26.5q15 -8 22.5 -15.5t7.5 -17.5q0 -13 -6 -28q-7 -17 -14.5 -25.5t-17.5 -8.5q-7 0 -20 4.5t-20 6.5q-65 25 -138 25q-77 0 -119 -22t-60.5 -74.5t-18.5 -148.5v-79
q0 -98 21 -151.5t62 -74.5t109 -21q46 0 87 11.5t80 29.5q10 5 18 8t15 3q9 0 15 -6t11 -19q11 -22 11 -34t-7.5 -19t-26.5 -17q-40 -22 -95 -36.5t-121 -14.5q-100 0 -162 36.5zM464 954q7 4 16 4h18q25 0 25 -14q0 -10 -17 -31l-86 -104q-10 -14 -17 -19t-19 -5h-60
q-11 0 -17 4t-11.5 10.5t-7.5 9.5l-85 104q-16 19 -16 31q0 14 23 14h18q9 0 16 -4t21 -17l89 -77l89 77q14 13 21 17z" />
    <glyph glyph-name="ccaron" unicode="&#x10d;" horiz-adv-x="503" 
d="M109.5 54.5q-60.5 65.5 -60.5 200.5v40q0 139 61 204.5t180 65.5q50 0 87.5 -10.5t61.5 -25.5q15 -9 20.5 -15.5t5.5 -16.5q0 -6 -2.5 -13t-5 -11.5t-3.5 -7.5q-7 -14 -12 -18t-13 -4q-6 0 -15.5 4t-16.5 7.5t-10 5.5q-21 11 -43.5 16t-51.5 5q-46 0 -77.5 -16.5t-49 -56
t-17.5 -108.5v-49q0 -95 36 -136.5t108 -41.5q35 0 60.5 8t53.5 25q12 8 21.5 12.5t16.5 4.5q6 0 12 -4t13 -17q11 -22 11 -35q0 -7 -3.5 -12t-15.5 -14q-34 -25 -74 -38.5t-97 -13.5q-120 0 -180.5 65.5zM115.5 783q-4.5 8 -4.5 13q0 7 4.5 10.5t11.5 3.5h25q10 0 16.5 -4
t17.5 -17l92 -104l92 104q11 13 17.5 17t16.5 4h27q7 0 11.5 -3.5t4.5 -10.5q0 -4 -3.5 -10.5t-7 -11t-5.5 -8.5l-92 -135q-11 -15 -16.5 -19.5t-17.5 -4.5h-53q-13 0 -18.5 4.5t-15.5 19.5l-92 135q-6 9 -10.5 17z" />
    <glyph glyph-name="Dcaron" unicode="&#x10e;" horiz-adv-x="723" 
d="M599 639.5q68 -91.5 68 -245.5v-53q0 -110 -31 -185t-101 -115.5t-186 -40.5h-223q-18 0 -23 5.5t-5 22.5v674q0 13 2 19t7.5 8t18.5 2h254q151 0 219 -91.5zM470.5 116q52.5 23 73 73t20.5 138v63q0 95 -22 149.5t-64 76.5t-106 22h-174v-545h122q98 0 150.5 23z
M446 954q7 4 16 4h18q25 0 25 -14q0 -10 -17 -31l-86 -104q-10 -14 -17 -19t-19 -5h-60q-11 0 -17 4t-11.5 10.5t-7.5 9.5l-85 104q-16 19 -16 31q0 14 23 14h18q9 0 16 -4t21 -17l89 -77l89 77q14 13 21 17z" />
    <glyph glyph-name="dcaron" unicode="&#x10f;" horiz-adv-x="677" 
d="M357.5 549.5q41.5 -15.5 72.5 -48.5h2v208q0 13 2 18.5t8 7.5t20 2h37q13 0 19 -2t8 -8t2 -19v-606q0 -26 -2 -38t-7 -18.5t-18 -11.5q-48 -22 -94 -33.5t-111 -11.5h-10q-122 0 -179.5 66.5t-57.5 195.5v56q0 85 27.5 143t77 86.5t114.5 28.5h6q42 0 83.5 -15.5zM412 97
q20 10 20 26v245q0 28 -16 54t-47 42t-72 16h-3q-79 0 -112.5 -45t-33.5 -139v-40q0 -90 32 -136t109 -46h9q62 0 114 23zM640.5 538q-5.5 -4 -17.5 -4h-13q-8 0 -13 3.5t-5 10.5q0 8 5 35l21 130q3 15 11 19.5t28 4.5h38q14 0 19 -4t5 -12q0 -7 -4.5 -18t-5.5 -14l-57 -134
q-6 -13 -11.5 -17z" />
    <glyph glyph-name="Dcroat" unicode="&#x110;" horiz-adv-x="723" 
d="M599 639.5q68 -91.5 68 -245.5v-53q0 -110 -31 -185t-101 -115.5t-186 -40.5h-223q-18 0 -23 5.5t-5 22.5v304h-70q-17 0 -22.5 5.5t-5.5 24.5v26q0 13 2 18.5t8 8t19 2.5h69v285q0 13 2 19t7.5 8t18.5 2h254q151 0 219 -91.5zM470.5 116q52.5 23 73 73t20.5 138v63
q0 95 -22 149.5t-64 76.5t-106 22h-174v-221h148q13 0 19 -2.5t8 -8t2 -18.5v-26q0 -19 -5.5 -24.5t-22.5 -5.5h-149v-239h122q98 0 150.5 23z" />
    <glyph glyph-name="dcroat" unicode="&#x111;" horiz-adv-x="618" 
d="M528 102q0 -26 -2 -38t-7 -18.5t-18 -11.5q-49 -22 -95 -33.5t-110 -11.5h-10q-122 0 -179.5 66.5t-57.5 195.5v46q0 85 27.5 143t77 86.5t114.5 28.5h6q42 0 83.5 -15.5t72.5 -48.5h2v107h-117q-17 0 -22.5 5.5t-5.5 24.5v16q0 13 2 18.5t8 8t19 2.5h116v36q0 13 2 18.5
t8 7.5t20 2h37q13 0 19 -2t8 -8t2 -19v-35h55q13 0 19 -2.5t8 -8t2 -18.5v-16q0 -19 -5.5 -24.5t-22.5 -5.5h-56v-496zM412 97q20 10 20 26v235q0 28 -16 54t-47 42t-72 16h-3q-79 0 -112.5 -45t-33.5 -139v-30q0 -90 32 -136t109 -46h9q62 0 114 23z" />
    <glyph glyph-name="Emacron" unicode="&#x112;" horiz-adv-x="600" 
d="M107.5 2q-5.5 2 -7.5 7.5t-2 18.5v675q0 13 2 18.5t7.5 7.5t17.5 2h392q13 0 18.5 -2t7.5 -7.5t2 -18.5v-38q0 -12 -2 -17.5t-7.5 -7.5t-18.5 -2h-319v-207h224q13 0 18.5 -2t7.5 -7.5t2 -18.5v-38q0 -12 -2 -17.5t-7.5 -7.5t-18.5 -2h-224v-245h334q17 0 22.5 -5
t5.5 -22v-38q0 -13 -2 -18.5t-7.5 -7.5t-18.5 -2h-407q-12 0 -17.5 2zM154 854v27q0 27 27 27h276q27 0 27 -27v-27q0 -27 -27 -27h-276q-27 0 -27 27z" />
    <glyph glyph-name="emacron" unicode="&#x113;" horiz-adv-x="554" 
d="M183.5 114.5q39.5 -40.5 121.5 -40.5q61 0 119 25l13 6.5t15 7t13 3.5q18 0 29 -22q11 -19 11 -30t-7.5 -18.5t-24.5 -16.5q-35 -19 -78 -29.5t-91 -10.5q-129 0 -192 65t-63 190v64q0 127 61 192t173 65q115 0 168.5 -62t53.5 -192v-28q0 -12 -2 -18t-7 -8t-17 -2h-335
v-11q0 -89 39.5 -129.5zM205.5 464q-30.5 -17 -46 -47.5t-15.5 -69.5v-8h265v15q0 68 -31 97.5t-98 29.5q-44 0 -74.5 -17zM413 649h-266q-27 0 -27 27v27q0 27 27 27h266q27 0 27 -27v-27q0 -27 -27 -27z" />
    <glyph glyph-name="Ebreve" unicode="&#x114;" horiz-adv-x="600" 
d="M107.5 2q-5.5 2 -7.5 7.5t-2 18.5v675q0 13 2 18.5t7.5 7.5t17.5 2h392q13 0 18.5 -2t7.5 -7.5t2 -18.5v-38q0 -12 -2 -17.5t-7.5 -7.5t-18.5 -2h-319v-207h224q13 0 18.5 -2t7.5 -7.5t2 -18.5v-38q0 -12 -2 -17.5t-7.5 -7.5t-18.5 -2h-224v-245h334q17 0 22.5 -5
t5.5 -22v-38q0 -13 -2 -18.5t-7.5 -7.5t-18.5 -2h-407q-12 0 -17.5 2zM234.5 910q11.5 -18 34.5 -32t59 -14t59 14t34.5 32t14.5 34q3 14 8.5 17.5t20.5 3.5h11q11 0 16 -4t5 -14q0 -54 -23 -90.5t-61 -54t-85 -17.5t-85 17.5t-61 54t-23 90.5q0 10 5 14t16 4h10
q15 0 21 -3.5t9 -17.5q3 -16 14.5 -34z" />
    <glyph glyph-name="ebreve" unicode="&#x115;" horiz-adv-x="554" 
d="M183.5 114.5q39.5 -40.5 121.5 -40.5q61 0 119 25l13 6.5t15 7t13 3.5q18 0 29 -22q11 -19 11 -30t-7.5 -18.5t-24.5 -16.5q-35 -19 -78 -29.5t-91 -10.5q-129 0 -192 65t-63 190v64q0 127 61 192t173 65q115 0 168.5 -62t53.5 -192v-28q0 -12 -2 -18t-7 -8t-17 -2h-335
v-11q0 -89 39.5 -129.5zM205.5 464q-30.5 -17 -46 -47.5t-15.5 -69.5v-8h265v15q0 68 -31 97.5t-98 29.5q-44 0 -74.5 -17zM210 716q23 -30 74 -30t74 30t30 62q2 10 5 14.5t7.5 5.5t14.5 1h10q11 0 16 -4t5 -14q0 -57 -21.5 -96t-58 -58.5t-82.5 -19.5t-82.5 19.5t-58 58.5
t-21.5 96q0 10 5 14t16 4h9q15 0 20 -3.5t8 -17.5q7 -32 30 -62z" />
    <glyph glyph-name="Edotaccent" unicode="&#x116;" horiz-adv-x="600" 
d="M107.5 2q-5.5 2 -7.5 7.5t-2 18.5v675q0 13 2 18.5t7.5 7.5t17.5 2h392q13 0 18.5 -2t7.5 -7.5t2 -18.5v-38q0 -12 -2 -17.5t-7.5 -7.5t-18.5 -2h-319v-207h224q13 0 18.5 -2t7.5 -7.5t2 -18.5v-38q0 -12 -2 -17.5t-7.5 -7.5t-18.5 -2h-224v-245h334q17 0 22.5 -5
t5.5 -22v-38q0 -13 -2 -18.5t-7.5 -7.5t-18.5 -2h-407q-12 0 -17.5 2zM279 843v46q0 27 27 27h56q27 0 27 -27v-46q0 -27 -27 -27h-56q-27 0 -27 27z" />
    <glyph glyph-name="edotaccent" unicode="&#x117;" horiz-adv-x="554" 
d="M183.5 114.5q39.5 -40.5 121.5 -40.5q61 0 119 25l13 6.5t15 7t13 3.5q18 0 29 -22q11 -19 11 -30t-7.5 -18.5t-24.5 -16.5q-35 -19 -78 -29.5t-91 -10.5q-129 0 -192 65t-63 190v64q0 127 61 192t173 65q115 0 168.5 -62t53.5 -192v-28q0 -12 -2 -18t-7 -8t-17 -2h-335
v-11q0 -89 39.5 -129.5zM205.5 464q-30.5 -17 -46 -47.5t-15.5 -69.5v-8h265v15q0 68 -31 97.5t-98 29.5q-44 0 -74.5 -17zM241.5 640q-6.5 2 -8.5 8t-2 19v42q0 13 2 19t8.5 8t20.5 2h43q15 0 21.5 -2t8.5 -8t2 -19v-42q0 -13 -2 -19t-8.5 -8t-21.5 -2h-43q-14 0 -20.5 2z
" />
    <glyph glyph-name="Eogonek" unicode="&#x118;" horiz-adv-x="600" 
d="M497.5 -7.5q-15.5 -7.5 -29.5 -21.5q-17 -17 -27 -40t-10 -49q0 -28 15 -40.5t39 -12.5q13 0 24 2t20 5q15 4 19 4q6 0 9 -3t5 -10l5 -19l3 -15q0 -10 -18 -17q-42 -14 -81 -14q-124 0 -124 108q0 40 19 72.5t56 57.5h-297q-12 0 -17.5 2t-7.5 7.5t-2 18.5v675
q0 13 2 18.5t7.5 7.5t17.5 2h392q13 0 18.5 -2t7.5 -7.5t2 -18.5v-38q0 -12 -2 -17.5t-7.5 -7.5t-18.5 -2h-319v-207h224q13 0 18.5 -2t7.5 -7.5t2 -18.5v-38q0 -12 -2 -17.5t-7.5 -7.5t-18.5 -2h-224v-245h334q17 0 22.5 -5t5.5 -22v-38q0 -16 -3.5 -22t-13.5 -6h-15
q-15 0 -30.5 -7.5z" />
    <glyph glyph-name="eogonek" unicode="&#x119;" horiz-adv-x="554" 
d="M183.5 114.5q39.5 -40.5 121.5 -40.5q61 0 119 25l13 6.5t15 7t13 3.5q18 0 29 -22q4 -6 7.5 -15t3.5 -17t-5 -13.5t-22 -18.5q-26 -20 -45 -41q-23 -25 -35 -54t-12 -53q0 -28 15 -40.5t39 -12.5q13 0 24 2t20 5q15 4 19 4q6 0 9 -3t5 -10l5 -23q2 -8 2 -11
q0 -10 -17 -17q-42 -14 -81 -14q-124 0 -124 108q0 71 60 123q-38 -4 -58 -4q-129 0 -192 65t-63 190v64q0 127 61 192t173 65q115 0 168.5 -62t53.5 -192v-28q0 -12 -2 -18t-7 -8t-17 -2h-335v-11q0 -89 39.5 -129.5zM205.5 464q-30.5 -17 -46 -47.5t-15.5 -69.5v-8h265v15
q0 68 -31 97.5t-98 29.5q-44 0 -74.5 -17z" />
    <glyph glyph-name="Ecaron" unicode="&#x11a;" horiz-adv-x="600" 
d="M107.5 2q-5.5 2 -7.5 7.5t-2 18.5v675q0 13 2 18.5t7.5 7.5t17.5 2h392q13 0 18.5 -2t7.5 -7.5t2 -18.5v-38q0 -12 -2 -17.5t-7.5 -7.5t-18.5 -2h-319v-207h224q13 0 18.5 -2t7.5 -7.5t2 -18.5v-38q0 -12 -2 -17.5t-7.5 -7.5t-18.5 -2h-224v-245h334q17 0 22.5 -5
t5.5 -22v-38q0 -13 -2 -18.5t-7.5 -7.5t-18.5 -2h-407q-12 0 -17.5 2zM438 954q7 4 16 4h18q25 0 25 -14q0 -10 -17 -31l-86 -104q-10 -14 -17 -19t-19 -5h-60q-11 0 -17 4t-11.5 10.5t-7.5 9.5l-85 104q-16 19 -16 31q0 14 23 14h18q9 0 16 -4t21 -17l89 -77l89 77
q14 13 21 17z" />
    <glyph glyph-name="ecaron" unicode="&#x11b;" horiz-adv-x="554" 
d="M183.5 114.5q39.5 -40.5 121.5 -40.5q61 0 119 25l13 6.5t15 7t13 3.5q18 0 29 -22q11 -19 11 -30t-7.5 -18.5t-24.5 -16.5q-35 -19 -78 -29.5t-91 -10.5q-129 0 -192 65t-63 190v64q0 127 61 192t173 65q115 0 168.5 -62t53.5 -192v-28q0 -12 -2 -18t-7 -8t-17 -2h-335
v-11q0 -89 39.5 -129.5zM205.5 464q-30.5 -17 -46 -47.5t-15.5 -69.5v-8h265v15q0 68 -31 97.5t-98 29.5q-44 0 -74.5 -17zM118.5 783q-4.5 8 -4.5 13q0 7 4.5 10.5t11.5 3.5h25q10 0 16.5 -4t17.5 -17l92 -104l92 104q11 13 17.5 17t16.5 4h27q7 0 11.5 -3.5t4.5 -10.5
q0 -4 -3.5 -10.5t-7 -11t-5.5 -8.5l-92 -135q-11 -15 -16.5 -19.5t-17.5 -4.5h-53q-13 0 -18.5 4.5t-15.5 19.5l-92 135q-6 9 -10.5 17z" />
    <glyph glyph-name="Gcircumflex" unicode="&#x11c;" horiz-adv-x="720" 
d="M249 628.5q-47 -22.5 -68.5 -74t-21.5 -143.5v-82q0 -100 23 -154t71.5 -75.5t131.5 -21.5q35 0 56.5 4.5t48.5 12.5q15 5 28 14t13 20v196h-153q-18 0 -23.5 5.5t-5.5 24.5v33q0 13 2.5 19.5t8 8.5t18.5 2h224q13 0 19 -2t8 -7.5t2 -18.5v-305q0 -12 -4 -19.5t-12.5 -14
t-19.5 -12.5q-38 -23 -94 -38t-124 -15q-119 0 -190 39.5t-101.5 113.5t-30.5 183v92q0 163 76.5 247t239.5 84q133 0 214 -34q30 -13 32 -33v-2q0 -12 -7 -26q-13 -35 -31 -35q-6 0 -23 5l-20 6q-38 12 -72.5 18.5t-86.5 6.5q-81 0 -128 -22.5zM309.5 944.5
q6.5 7.5 13 10.5t14.5 3h60q11 0 17 -4t11.5 -10.5t7.5 -9.5l86 -104q17 -21 17 -31q0 -14 -25 -14h-18q-9 0 -16 4t-21 17l-89 77l-89 -77q-14 -13 -21 -17t-16 -4h-18q-23 0 -23 14q0 12 16 31l85 104q2 3 8.5 10.5z" />
    <glyph glyph-name="gcircumflex" unicode="&#x11d;" horiz-adv-x="619" 
d="M285 18h-15q-69 0 -118.5 29.5t-76 87t-26.5 140.5v34q0 74 29 131.5t89.5 91t153.5 33.5q95 0 182 -21q12 -3 17.5 -6t7 -8.5t1.5 -18.5v-404q0 -101 -17.5 -167t-69.5 -105t-152 -39q-50 0 -88.5 6.5t-78.5 22.5q-17 7 -26.5 16t-9.5 18q0 15 8 31q7 15 11.5 20.5
t13.5 5.5q5 0 12 -2t12.5 -4t7.5 -3q30 -11 63 -18.5t80 -7.5q53 0 83 21t42.5 63.5t12.5 112.5h-2q-54 -60 -146 -60zM430 466q-3 4 -15 6q-33 8 -91 8q-87 0 -131.5 -42.5t-44.5 -134.5v-24q0 -86 32 -131.5t103 -45.5h10q76 0 108 48t32 125v175q0 12 -3 16zM264 805
q6 5 19 5h53q12 0 17.5 -4.5t16.5 -19.5l92 -135q2 -4 6 -9t7 -11t3 -10q0 -7 -4.5 -10.5t-11.5 -3.5h-27q-10 0 -16.5 4t-17.5 17l-92 104l-92 -104q-11 -13 -17.5 -17t-16.5 -4h-25q-7 0 -11.5 3.5t-4.5 10.5q0 5 4.5 13t10.5 17l92 135q9 14 15 19z" />
    <glyph glyph-name="Gbreve" unicode="&#x11e;" horiz-adv-x="720" 
d="M249 628.5q-47 -22.5 -68.5 -74t-21.5 -143.5v-82q0 -100 23 -154t71.5 -75.5t131.5 -21.5q35 0 56.5 4.5t48.5 12.5q15 5 28 14t13 20v196h-153q-18 0 -23.5 5.5t-5.5 24.5v33q0 13 2.5 19.5t8 8.5t18.5 2h224q13 0 19 -2t8 -7.5t2 -18.5v-305q0 -12 -4 -19.5t-12.5 -14
t-19.5 -12.5q-38 -23 -94 -38t-124 -15q-119 0 -190 39.5t-101.5 113.5t-30.5 183v92q0 163 76.5 247t239.5 84q133 0 214 -34q30 -13 32 -33v-2q0 -12 -7 -26q-13 -35 -31 -35q-6 0 -23 5l-20 6q-38 12 -72.5 18.5t-86.5 6.5q-81 0 -128 -22.5zM274.5 910
q11.5 -18 34.5 -32t59 -14t59 14t34.5 32t14.5 34q3 14 8.5 17.5t20.5 3.5h11q11 0 16 -4t5 -14q0 -54 -23 -90.5t-61 -54t-85 -17.5t-85 17.5t-61 54t-23 90.5q0 10 5 14t16 4h10q15 0 21 -3.5t9 -17.5q3 -16 14.5 -34z" />
    <glyph glyph-name="gbreve" unicode="&#x11f;" horiz-adv-x="619" 
d="M285 18h-15q-69 0 -118.5 29.5t-76 87t-26.5 140.5v34q0 74 29 131.5t89.5 91t153.5 33.5q95 0 182 -21q12 -3 17.5 -6t7 -8.5t1.5 -18.5v-404q0 -101 -17.5 -167t-69.5 -105t-152 -39q-50 0 -88.5 6.5t-78.5 22.5q-17 7 -26.5 16t-9.5 18q0 15 8 31q7 15 11.5 20.5
t13.5 5.5q5 0 12 -2t12.5 -4t7.5 -3q30 -11 63 -18.5t80 -7.5q53 0 83 21t42.5 63.5t12.5 112.5h-2q-54 -60 -146 -60zM430 466q-3 4 -15 6q-33 8 -91 8q-87 0 -131.5 -42.5t-44.5 -134.5v-24q0 -86 32 -131.5t103 -45.5h10q76 0 108 48t32 125v175q0 12 -3 16zM239 716
q23 -30 74 -30t74 30t30 62q2 10 5 14.5t7.5 5.5t14.5 1h10q11 0 16 -4t5 -14q0 -57 -21.5 -96t-58 -58.5t-82.5 -19.5t-82.5 19.5t-58 58.5t-21.5 96q0 10 5 14t16 4h9q15 0 20 -3.5t8 -17.5q7 -32 30 -62z" />
    <glyph glyph-name="Gdotaccent" unicode="&#x120;" horiz-adv-x="720" 
d="M249 628.5q-47 -22.5 -68.5 -74t-21.5 -143.5v-82q0 -100 23 -154t71.5 -75.5t131.5 -21.5q35 0 56.5 4.5t48.5 12.5q15 5 28 14t13 20v196h-153q-18 0 -23.5 5.5t-5.5 24.5v33q0 13 2.5 19.5t8 8.5t18.5 2h224q13 0 19 -2t8 -7.5t2 -18.5v-305q0 -12 -4 -19.5t-12.5 -14
t-19.5 -12.5q-38 -23 -94 -38t-124 -15q-119 0 -190 39.5t-101.5 113.5t-30.5 183v92q0 163 76.5 247t239.5 84q133 0 214 -34q30 -13 32 -33v-2q0 -12 -7 -26q-13 -35 -31 -35q-6 0 -23 5l-20 6q-38 12 -72.5 18.5t-86.5 6.5q-81 0 -128 -22.5zM310 843v46q0 27 27 27h56
q27 0 27 -27v-46q0 -27 -27 -27h-56q-27 0 -27 27z" />
    <glyph glyph-name="gdotaccent" unicode="&#x121;" horiz-adv-x="619" 
d="M285 18h-15q-69 0 -118.5 29.5t-76 87t-26.5 140.5v34q0 74 29 131.5t89.5 91t153.5 33.5q95 0 182 -21q12 -3 17.5 -6t7 -8.5t1.5 -18.5v-404q0 -101 -17.5 -167t-69.5 -105t-152 -39q-50 0 -88.5 6.5t-78.5 22.5q-17 7 -26.5 16t-9.5 18q0 15 8 31q7 15 11.5 20.5
t13.5 5.5q5 0 12 -2t12.5 -4t7.5 -3q30 -11 63 -18.5t80 -7.5q53 0 83 21t42.5 63.5t12.5 112.5h-2q-54 -60 -146 -60zM430 466q-3 4 -15 6q-33 8 -91 8q-87 0 -131.5 -42.5t-44.5 -134.5v-24q0 -86 32 -131.5t103 -45.5h10q76 0 108 48t32 125v175q0 12 -3 16zM273.5 640
q-6.5 2 -8.5 8t-2 19v42q0 13 2 19t8.5 8t20.5 2h43q15 0 21.5 -2t8.5 -8t2 -19v-42q0 -13 -2 -19t-8.5 -8t-21.5 -2h-43q-14 0 -20.5 2z" />
    <glyph glyph-name="Gcommaaccent" unicode="&#x122;" horiz-adv-x="720" 
d="M249 628.5q-47 -22.5 -68.5 -74t-21.5 -143.5v-82q0 -100 23 -154t71.5 -75.5t131.5 -21.5q35 0 56.5 4.5t48.5 12.5q15 5 28 14t13 20v196h-153q-18 0 -23.5 5.5t-5.5 24.5v33q0 13 2.5 19.5t8 8.5t18.5 2h224q13 0 19 -2t8 -7.5t2 -18.5v-305q0 -12 -4 -19.5t-12.5 -14
t-19.5 -12.5q-38 -23 -94 -38t-124 -15q-119 0 -190 39.5t-101.5 113.5t-30.5 183v92q0 163 76.5 247t239.5 84q133 0 214 -34q30 -13 32 -33v-2q0 -12 -7 -26q-13 -35 -31 -35q-6 0 -23 5l-20 6q-38 12 -72.5 18.5t-86.5 6.5q-81 0 -128 -22.5zM321 -160q-5 5 -5 20v55
q0 12 2 17t7.5 7t18.5 2h50q18 0 23.5 -4.5t5.5 -20.5v-61q0 -12 -4.5 -25.5t-15.5 -32.5l-26 -44q-9 -15 -13.5 -19.5t-9.5 -4.5q-6 0 -16 5q-5 3 -9.5 6.5t-4.5 9.5t5 16.5t6 14.5l23 54h-22q-10 0 -15 5z" />
    <glyph glyph-name="gcommaaccent" unicode="&#x123;" horiz-adv-x="619" 
d="M285 18h-15q-69 0 -118.5 29.5t-76 87t-26.5 140.5v34q0 74 29 131.5t89.5 91t153.5 33.5q95 0 182 -21q12 -3 17.5 -6t7 -8.5t1.5 -18.5v-404q0 -101 -17.5 -167t-69.5 -105t-152 -39q-50 0 -88.5 6.5t-78.5 22.5q-17 7 -26.5 16t-9.5 18q0 15 8 31q7 15 11.5 20.5
t13.5 5.5q5 0 12 -2t12.5 -4t7.5 -3q30 -11 63 -18.5t80 -7.5q53 0 83 21t42.5 63.5t12.5 112.5h-2q-54 -60 -146 -60zM430 466q-3 4 -15 6q-33 8 -91 8q-87 0 -131.5 -42.5t-44.5 -134.5v-24q0 -86 32 -131.5t103 -45.5h10q76 0 108 48t32 125v175q0 12 -3 16zM361 730
q5 -5 5 -20v-55q0 -12 -2 -17t-7.5 -7t-18.5 -2h-50q-18 0 -23.5 4.5t-5.5 20.5v61q0 12 4.5 25.5t15.5 32.5l26 44q9 15 13.5 19.5t9.5 4.5q6 0 16 -5q5 -3 9.5 -6.5t4.5 -9.5t-5 -16.5t-6 -14.5l-23 -54h22q10 0 15 -5z" />
    <glyph glyph-name="Hcircumflex" unicode="&#x124;" horiz-adv-x="752" 
d="M108 2.5q-6 2.5 -8 8t-2 18.5v673q0 13 2 18.5t8 8t18 2.5h43q18 0 23.5 -5.5t5.5 -22.5v-268h356v268q0 17 5.5 22.5t23.5 5.5h43q13 0 18.5 -2t7.5 -7.5t2 -18.5v-674q0 -13 -2 -18.5t-8 -8t-18 -2.5h-43q-18 0 -23.5 5.5t-5.5 23.5v313h-356v-314q0 -17 -5.5 -22.5
t-23.5 -5.5h-43q-12 0 -18 2.5zM316.5 944.5q6.5 7.5 13 10.5t14.5 3h60q11 0 17 -4t11.5 -10.5t7.5 -9.5l86 -104q17 -21 17 -31q0 -14 -25 -14h-18q-9 0 -16 4t-21 17l-89 77l-89 -77q-14 -13 -21 -17t-16 -4h-18q-23 0 -23 14q0 12 16 31l85 104q2 3 8.5 10.5z" />
    <glyph glyph-name="hcircumflex" unicode="&#x125;" horiz-adv-x="620" 
d="M448 2.5q-6 2.5 -8 8t-2 18.5v345q0 54 -24 79t-80 25q-40 0 -77 -15t-59 -37q-8 -7 -10 -12t-2 -18v-367q0 -13 -2 -18.5t-8 -8t-19 -2.5h-37q-13 0 -19 2t-8.5 8t-2.5 19v679q0 13 2.5 19t8 8t18.5 2h37q13 0 19 -2t8 -7t2 -17v-208h3q37 31 82.5 46.5t89.5 15.5
q82 0 128 -42t46 -125v-368q0 -14 -2 -20t-8 -8t-20 -2h-37q-13 0 -19 2.5zM255.5 944.5q6.5 7.5 13 10.5t14.5 3h60q11 0 17 -4t11.5 -10.5t7.5 -9.5l86 -104q17 -21 17 -31q0 -14 -25 -14h-18q-9 0 -16 4t-21 17l-89 77l-89 -77q-14 -13 -21 -17t-16 -4h-18q-23 0 -23 14
q0 12 16 31l85 104q2 3 8.5 10.5z" />
    <glyph glyph-name="Hbar" unicode="&#x126;" horiz-adv-x="752" 
d="M108 2.5q-6 2.5 -8 8t-2 18.5v510h-51q-17 0 -22.5 5.5t-5.5 24.5v29q0 13 2 18.5t8 8t19 2.5h50v75q0 13 2 18.5t8 8t18 2.5h43q18 0 23.5 -5.5t5.5 -22.5v-76h356v76q0 17 5.5 22.5t23.5 5.5h43q13 0 18.5 -2t7.5 -7.5t2 -18.5v-76h50q13 0 19 -2.5t8 -8t2 -18.5v-29
q0 -19 -5.5 -24.5t-22.5 -5.5h-51v-510q0 -13 -2 -18.5t-8 -8t-18 -2.5h-43q-18 0 -23.5 5.5t-5.5 23.5v313h-356v-314q0 -17 -5.5 -22.5t-23.5 -5.5h-43q-12 0 -18 2.5zM554 539h-356v-104h356v104z" />
    <glyph glyph-name="hbar" unicode="&#x127;" horiz-adv-x="620" 
d="M448 2.5q-6 2.5 -8 8t-2 18.5v335q0 54 -24 79t-80 25q-40 0 -77 -15t-59 -37q-8 -7 -10 -12t-2 -18v-357q0 -13 -2 -18.5t-8 -8t-19 -2.5h-37q-13 0 -19 2t-8.5 8t-2.5 19v569h-56q-17 0 -22.5 5.5t-5.5 24.5v16q0 13 2 18.5t8 8t19 2.5h55v35q0 13 2.5 19t8 8t18.5 2
h38q13 0 19 -2t8 -7t2 -17v-38h116q13 0 19 -2.5t8 -8t2 -18.5v-16q0 -19 -5.5 -24.5t-22.5 -5.5h-117v-105h3q37 31 82.5 46.5t89.5 15.5q82 0 127.5 -42t45.5 -125v-358q0 -14 -2 -20t-8 -8t-20 -2h-37q-13 0 -19 2.5z" />
    <glyph glyph-name="Itilde" unicode="&#x128;" horiz-adv-x="454" 
d="M394.5 81q5.5 -2 7.5 -7.5t2 -17.5v-28q0 -13 -2 -18.5t-7.5 -7.5t-17.5 -2h-300q-13 0 -18.5 2t-7.5 7.5t-2 18.5v28q0 17 5.5 22t22.5 5h99v564h-99q-18 0 -23 5.5t-5 22.5v28q0 13 2 18.5t7.5 7.5t18.5 2h300q12 0 17.5 -2t7.5 -7.5t2 -18.5v-28q0 -17 -5 -22.5
t-22 -5.5h-100v-564h100q12 0 17.5 -2zM159 871.5q-10 2.5 -22 2.5q-17 0 -28 -11.5t-19 -32.5q-3 -9 -7 -14.5t-16 -5.5h-22q-10 0 -14 5t-4 15q0 36 14 63.5t39.5 43t58.5 15.5q21 0 39.5 -4.5t39.5 -14.5l51 -25q15 -7 26.5 -10.5t22.5 -3.5q18 0 29 11.5t18 32.5
q3 9 7 14.5t16 5.5h22q11 0 14.5 -5t3.5 -15q0 -34 -17 -62t-43 -44t-52 -16q-21 0 -39.5 4.5t-39.5 14.5l-51 25q-17 9 -27 11.5z" />
    <glyph glyph-name="itilde" unicode="&#x129;" horiz-adv-x="276" 
d="M100 2.5q-6 2.5 -8 8t-2 18.5v495q0 13 2 18.5t7.5 8t17.5 2.5h41q18 0 23 -5.5t5 -22.5v-496q0 -18 -5.5 -23.5t-23.5 -5.5h-38q-13 0 -19 2.5zM72 693.5q-10 2.5 -21 2.5q-17 0 -27.5 -11.5t-18.5 -32.5q-3 -9 -7 -14.5t-16 -5.5h-22q-10 0 -14 6.5t-4 13.5
q0 36 14 63.5t38.5 43t56.5 15.5q20 0 37.5 -4.5t38.5 -14.5l50 -25q27 -14 47 -14q18 0 28.5 11t17.5 33q3 9 7 14.5t16 5.5h22q10 0 14 -6.5t4 -13.5q0 -34 -16.5 -62t-42 -44t-50.5 -16q-20 0 -37.5 4.5t-38.5 14.5l-50 25q-16 9 -26 11.5z" />
    <glyph glyph-name="Imacron" unicode="&#x12a;" horiz-adv-x="454" 
d="M394.5 81q5.5 -2 7.5 -7.5t2 -17.5v-28q0 -13 -2 -18.5t-7.5 -7.5t-17.5 -2h-300q-13 0 -18.5 2t-7.5 7.5t-2 18.5v28q0 17 5.5 22t22.5 5h99v564h-99q-18 0 -23 5.5t-5 22.5v28q0 13 2 18.5t7.5 7.5t18.5 2h300q12 0 17.5 -2t7.5 -7.5t2 -18.5v-28q0 -17 -5 -22.5
t-22 -5.5h-100v-564h100q12 0 17.5 -2zM62 854v27q0 27 27 27h276q27 0 27 -27v-27q0 -27 -27 -27h-276q-27 0 -27 27z" />
    <glyph glyph-name="imacron" unicode="&#x12b;" horiz-adv-x="276" 
d="M100 2.5q-6 2.5 -8 8t-2 18.5v495q0 13 2 18.5t7.5 8t17.5 2.5h41q18 0 23 -5.5t5 -22.5v-496q0 -18 -5.5 -23.5t-23.5 -5.5h-38q-13 0 -19 2.5zM271 649h-266q-27 0 -27 27v27q0 27 27 27h266q27 0 27 -27v-27q0 -27 -27 -27z" />
    <glyph glyph-name="Ibreve" unicode="&#x12c;" horiz-adv-x="454" 
d="M394.5 81q5.5 -2 7.5 -7.5t2 -17.5v-28q0 -13 -2 -18.5t-7.5 -7.5t-17.5 -2h-300q-13 0 -18.5 2t-7.5 7.5t-2 18.5v28q0 17 5.5 22t22.5 5h99v564h-99q-18 0 -23 5.5t-5 22.5v28q0 13 2 18.5t7.5 7.5t18.5 2h300q12 0 17.5 -2t7.5 -7.5t2 -18.5v-28q0 -17 -5 -22.5
t-22 -5.5h-100v-564h100q12 0 17.5 -2zM133.5 910q11.5 -18 34.5 -32t59 -14t59 14t34.5 32t14.5 34q3 14 8.5 17.5t20.5 3.5h11q11 0 16 -4t5 -14q0 -54 -23 -90.5t-61 -54t-85 -17.5t-85 17.5t-61 54t-23 90.5q0 10 5 14t16 4h10q15 0 21 -3.5t9 -17.5q3 -16 14.5 -34z
" />
    <glyph glyph-name="ibreve" unicode="&#x12d;" horiz-adv-x="276" 
d="M100 2.5q-6 2.5 -8 8t-2 18.5v495q0 13 2 18.5t7.5 8t17.5 2.5h41q18 0 23 -5.5t5 -22.5v-496q0 -18 -5.5 -23.5t-23.5 -5.5h-38q-13 0 -19 2.5zM64 716q23 -30 74 -30t74 30t30 62q2 10 5 14.5t7.5 5.5t14.5 1h10q11 0 16 -4t5 -14q0 -57 -21.5 -96t-58 -58.5
t-82.5 -19.5t-82.5 19.5t-58 58.5t-21.5 96q0 10 5 14t16 4h9q15 0 20 -3.5t8 -17.5q7 -32 30 -62z" />
    <glyph glyph-name="Iogonek" unicode="&#x12e;" horiz-adv-x="454" 
d="M394.5 81q5.5 -2 7.5 -7.5t2 -17.5v-28q0 -13 -2 -18.5t-7.5 -7.5t-17.5 -2h-62q-40 0 -69 -26q-20 -17 -31 -42t-11 -50q0 -28 15 -40.5t39 -12.5q13 0 24 2t20 5q15 4 19 4q6 0 9 -3t5 -10l6 -22l2 -10q0 -12 -18 -19q-42 -14 -81 -14q-124 0 -124 108q0 40 17.5 72
t55.5 58h-116q-13 0 -18.5 2t-7.5 7.5t-2 18.5v28q0 17 5.5 22t22.5 5h99v564h-99q-18 0 -23 5.5t-5 22.5v28q0 13 2 18.5t7.5 7.5t18.5 2h300q12 0 17.5 -2t7.5 -7.5t2 -18.5v-28q0 -17 -5 -22.5t-22 -5.5h-100v-564h100q12 0 17.5 -2z" />
    <glyph glyph-name="iogonek" unicode="&#x12f;" horiz-adv-x="276" 
d="M98 640q-7 2 -10 8t-3 19v42q0 13 2 19t8.5 8t20.5 2h43q15 0 21.5 -2t8.5 -8t2 -19v-42q0 -13 -2.5 -19t-9.5 -8t-22 -2h-38q-14 0 -21 2zM183 9q-3 -5 -8 -9t-7 -6q-27 -24 -40 -54.5t-13 -57.5q0 -28 15 -40.5t39 -12.5q13 0 24 2t20 5q15 4 19 4q6 0 9 -3t5 -10
l5 -23q2 -8 2 -11q0 -6 -5 -10.5t-12 -6.5q-42 -14 -81 -14q-124 0 -124 108q0 39 18.5 71.5t54.5 59.5q-9 2 -11.5 8t-2.5 20v495q0 13 2 18.5t7.5 8t17.5 2.5h41q18 0 23 -5.5t5 -22.5v-501q0 -10 -3 -15z" />
    <glyph glyph-name="Idotaccent" unicode="&#x130;" horiz-adv-x="454" 
d="M394.5 81q5.5 -2 7.5 -7.5t2 -17.5v-28q0 -13 -2 -18.5t-7.5 -7.5t-17.5 -2h-300q-13 0 -18.5 2t-7.5 7.5t-2 18.5v28q0 17 5.5 22t22.5 5h99v564h-99q-18 0 -23 5.5t-5 22.5v28q0 13 2 18.5t7.5 7.5t18.5 2h300q12 0 17.5 -2t7.5 -7.5t2 -18.5v-28q0 -17 -5 -22.5
t-22 -5.5h-100v-564h100q12 0 17.5 -2zM172 843v46q0 27 27 27h56q27 0 27 -27v-46q0 -27 -27 -27h-56q-27 0 -27 27z" />
    <glyph glyph-name="dotlessi" unicode="&#x131;" horiz-adv-x="276" 
d="M100 2.5q-6 2.5 -8 8t-2 18.5v495q0 13 2 18.5t7.5 8t17.5 2.5h41q18 0 23 -5.5t5 -22.5v-496q0 -18 -5.5 -23.5t-23.5 -5.5h-38q-13 0 -19 2.5z" />
    <glyph glyph-name="IJ" unicode="&#x132;" horiz-adv-x="967" 
d="M394.5 81q5.5 -2 7.5 -7.5t2 -17.5v-28q0 -13 -2 -18.5t-7.5 -7.5t-17.5 -2h-300q-13 0 -18.5 2t-7.5 7.5t-2 18.5v28q0 17 5.5 22t22.5 5h99v564h-99q-18 0 -23 5.5t-5 22.5v28q0 13 2 18.5t7.5 7.5t18.5 2h300q12 0 17.5 -2t7.5 -7.5t2 -18.5v-28q0 -17 -5 -22.5
t-22 -5.5h-100v-564h100q12 0 17.5 -2zM870.5 725.5q5.5 -5.5 5.5 -23.5v-508q0 -88 -44 -149.5t-151 -61.5q-69 0 -111.5 24.5t-71.5 72.5q-16 26 -16 46q0 9 7 16t24 16q7 3 13 6t11.5 5t11.5 2q9 0 15 -7.5t13 -22.5q28 -64 104 -64q95 0 95 114v447h-143
q-17 0 -22.5 5.5t-5.5 23.5v35q0 18 5.5 23.5t23.5 5.5h213q18 0 23.5 -5.5z" />
    <glyph glyph-name="ij" unicode="&#x133;" horiz-adv-x="552" 
d="M98 640q-7 2 -10 8t-3 19v42q0 13 2 19t8.5 8t20.5 2h43q15 0 21.5 -2t8.5 -8t2 -19v-42q0 -13 -2.5 -19t-9.5 -8t-22 -2h-38q-14 0 -21 2zM100 2.5q-6 2.5 -8 8t-2 18.5v495q0 13 2 18.5t7.5 8t17.5 2.5h41q18 0 23 -5.5t5 -22.5v-496q0 -18 -5.5 -23.5t-23.5 -5.5h-38
q-13 0 -19 2.5zM374 640q-7 2 -10 8t-3 19v42q0 13 2 19t8.5 8t20.5 2h43q15 0 21.5 -2t8.5 -8t2 -19v-42q0 -13 -2.5 -19t-9.5 -8t-22 -2h-38q-14 0 -21 2zM421.5 -165.5q-40.5 -38.5 -105.5 -38.5q-25 0 -45.5 4.5t-33.5 10.5q-10 4 -15 10t-5 15t4 20t5 14q6 14 11 18.5
t12 4.5q5 0 26.5 -5.5t39.5 -5.5q29 0 40 19t11 55v568q0 18 5.5 23.5t22.5 5.5h40q18 0 23 -5.5t5 -22.5v-567q0 -85 -40.5 -123.5z" />
    <glyph glyph-name="Jcircumflex" unicode="&#x134;" horiz-adv-x="513" 
d="M416.5 725.5q5.5 -5.5 5.5 -23.5v-508q0 -88 -44 -149.5t-151 -61.5q-69 0 -111.5 24.5t-71.5 72.5q-16 26 -16 46q0 9 7 16t24 16q7 3 13 6t11.5 5t11.5 2q9 0 15 -7.5t13 -22.5q28 -64 104 -64q95 0 95 114v447h-143q-17 0 -22.5 5.5t-5.5 23.5v35q0 18 5.5 23.5
t23.5 5.5h213q18 0 23.5 -5.5zM231.5 944.5q6.5 7.5 13 10.5t14.5 3h60q11 0 17 -4t11.5 -10.5t7.5 -9.5l86 -104q17 -21 17 -31q0 -14 -25 -14h-18q-9 0 -16 4t-21 17l-89 77l-89 -77q-14 -13 -21 -17t-16 -4h-18q-23 0 -23 14q0 12 16 31l85 104q2 3 8.5 10.5z" />
    <glyph glyph-name="jcircumflex" unicode="&#x135;" horiz-adv-x="276" 
d="M145.5 -165.5q-40.5 -38.5 -105.5 -38.5q-25 0 -45.5 4.5t-33.5 10.5q-10 4 -15 10t-5 15t4 20t5 14q6 14 11 18.5t12 4.5q5 0 26.5 -5.5t39.5 -5.5q29 0 40 19t11 55v568q0 18 5.5 23.5t22.5 5.5h40q18 0 23 -5.5t5 -22.5v-567q0 -85 -40.5 -123.5zM93 805q6 5 19 5h53
q12 0 17.5 -4.5t16.5 -19.5l92 -135q2 -4 6 -9t7 -11t3 -10q0 -7 -4.5 -10.5t-11.5 -3.5h-27q-10 0 -16.5 4t-17.5 17l-92 104l-92 -104q-11 -13 -17.5 -17t-16.5 -4h-25q-7 0 -11.5 3.5t-4.5 10.5q0 5 4.5 13t10.5 17l92 135q9 14 15 19z" />
    <glyph glyph-name="Kcommaaccent" unicode="&#x136;" horiz-adv-x="664" 
d="M649.5 32.5q5.5 -9.5 5.5 -16.5q0 -10 -8 -13t-24 -3h-54q-12 0 -18.5 2.5t-13 8t-13.5 12.5l-278 295q-10 10 -18 15t-21 5h-9v-309q0 -13 -2.5 -19t-8 -8t-18.5 -2h-42q-13 0 -19 2.5t-8 8t-2 18.5v673q0 13 2 19t8 8t18 2h43q18 0 23.5 -5.5t5.5 -23.5v-270h7
q12 0 21 5.5t23 19.5l245 251q12 13 21 18t25 5h45q20 0 29 -3.5t9 -12.5q0 -7 -5 -13.5t-13.5 -15.5t-11.5 -12l-279 -283l316 -335q14 -14 19.5 -23.5zM311 -160q-5 5 -5 20v55q0 12 2 17t7.5 7t18.5 2h50q18 0 23.5 -4.5t5.5 -20.5v-61q0 -12 -4.5 -25.5t-15.5 -32.5
l-26 -44q-9 -15 -13.5 -19.5t-9.5 -4.5q-6 0 -16 5q-5 3 -9.5 6.5t-4.5 9.5t5 16.5t6 14.5l23 54h-22q-10 0 -15 5z" />
    <glyph glyph-name="kcommaaccent" unicode="&#x137;" horiz-adv-x="559" 
d="M546.5 28.5q6.5 -8.5 6.5 -13.5q0 -9 -8 -12t-24 -3h-35q-16 0 -25.5 2t-15 6.5t-14.5 14.5l-192 205q-16 16 -23.5 20.5t-22.5 5.5h-7v-225q0 -13 -2 -18.5t-8 -8t-19 -2.5h-37q-19 0 -24.5 5.5t-5.5 23.5v679q0 18 5.5 23.5t23.5 5.5h38q18 0 23.5 -5.5t5.5 -23.5v-370
h3q12 1 19 5t23 18l176 172q13 11 22 15.5t25 4.5h36q18 0 27 -3t9 -13q0 -14 -32 -41l-201 -194l237 -254q10 -11 16.5 -19.5zM251 -160q-5 5 -5 20v55q0 12 2 17t7.5 7t18.5 2h50q18 0 23.5 -4.5t5.5 -20.5v-61q0 -12 -4.5 -25.5t-15.5 -32.5l-26 -44q-9 -15 -13.5 -19.5
t-9.5 -4.5q-6 0 -16 5q-5 3 -9.5 6.5t-4.5 9.5t5 16.5t6 14.5l23 54h-22q-10 0 -15 5z" />
    <glyph glyph-name="kgreenlandic" unicode="&#x138;" horiz-adv-x="559" 
d="M546.5 28.5q6.5 -8.5 6.5 -13.5q0 -9 -8 -12t-24 -3h-35q-16 0 -25.5 2t-15 6.5t-14.5 14.5l-192 198q-16 16 -23.5 20.5t-22.5 5.5h-7v-218q0 -13 -2 -18.5t-8 -8t-19 -2.5h-37q-19 0 -24.5 5.5t-5.5 23.5v495q0 18 5.5 23.5t23.5 5.5h38q18 0 23.5 -5.5t5.5 -23.5v-193
h3q12 1 19 5t23 18l176 179q13 11 22 15.5t25 4.5h36q18 0 27 -3t9 -13q0 -14 -32 -41l-201 -201l237 -247q10 -11 16.5 -19.5z" />
    <glyph glyph-name="Lacute" unicode="&#x139;" horiz-adv-x="555" 
d="M103 5.5q-5 5.5 -5 22.5v675q0 13 2 18.5t7.5 7.5t18.5 2h43q13 0 18.5 -2t8 -8t2.5 -18v-610h310q17 0 22.5 -5t5.5 -23v-37q0 -17 -5.5 -22.5t-23.5 -5.5h-381q-18 0 -23 5.5zM294 935.5q5 7.5 5 13.5q0 16 -30 16h-61q-18 0 -26 -4.5t-15 -19.5l-54 -111q-5 -9 -8 -17
t-3 -14q0 -14 18 -14h22q10 0 16.5 3.5t18.5 17.5l102 111q10 11 15 18.5z" />
    <glyph glyph-name="lacute" unicode="&#x13a;" horiz-adv-x="305" 
d="M194.5 97q12.5 -17 37.5 -17q14 0 28.5 3.5t19.5 3.5q7 0 11 -4.5t8 -17.5q2 -6 5 -14t5 -15t2 -13q0 -12 -21 -19q-33 -13 -74 -13q-61 0 -95.5 37t-34.5 117v563q0 18 5.5 23.5t24.5 5.5h37q18 0 23.5 -5.5t5.5 -23.5v-553q0 -41 12.5 -58zM281 935.5q5 7.5 5 13.5
q0 16 -30 16h-61q-18 0 -26 -4.5t-15 -19.5l-54 -111q-5 -9 -8 -17t-3 -14q0 -14 18 -14h22q10 0 16.5 3.5t18.5 17.5l102 111q10 11 15 18.5z" />
    <glyph glyph-name="Lcommaaccent" unicode="&#x13b;" horiz-adv-x="555" 
d="M103 5.5q-5 5.5 -5 22.5v675q0 13 2 18.5t7.5 7.5t18.5 2h43q13 0 18.5 -2t8 -8t2.5 -18v-610h310q17 0 22.5 -5t5.5 -23v-37q0 -17 -5.5 -22.5t-23.5 -5.5h-381q-18 0 -23 5.5zM267 -160q-5 5 -5 20v55q0 12 2 17t7.5 7t18.5 2h50q18 0 23.5 -4.5t5.5 -20.5v-61
q0 -12 -4.5 -25.5t-15.5 -32.5l-26 -44q-9 -15 -13.5 -19.5t-9.5 -4.5q-6 0 -16 5q-5 3 -9.5 6.5t-4.5 9.5t5 16.5t6 14.5l23 54h-22q-10 0 -15 5z" />
    <glyph glyph-name="lcommaaccent" unicode="&#x13c;" horiz-adv-x="305" 
d="M194.5 97q12.5 -17 37.5 -17q14 0 28.5 3.5t19.5 3.5q7 0 11 -4.5t8 -17.5q2 -6 5 -14t5 -15t2 -13q0 -12 -21 -19q-33 -13 -74 -13q-61 0 -95.5 37t-34.5 117v563q0 18 5.5 23.5t24.5 5.5h37q18 0 23.5 -5.5t5.5 -23.5v-553q0 -41 12.5 -58zM148 -160q-5 5 -5 20v55
q0 12 2 17t7.5 7t18.5 2h50q18 0 23.5 -4.5t5.5 -20.5v-61q0 -12 -4.5 -25.5t-15.5 -32.5l-26 -44q-9 -15 -13.5 -19.5t-9.5 -4.5q-6 0 -16 5q-5 3 -9.5 6.5t-4.5 9.5t5 16.5t6 14.5l23 54h-22q-10 0 -15 5z" />
    <glyph glyph-name="Lcaron" unicode="&#x13d;" horiz-adv-x="555" 
d="M103 5.5q-5 5.5 -5 22.5v675q0 13 2 18.5t7.5 7.5t18.5 2h43q13 0 18.5 -2t8 -8t2.5 -18v-610h310q17 0 22.5 -5t5.5 -23v-37q0 -17 -5.5 -22.5t-23.5 -5.5h-381q-18 0 -23 5.5zM359.5 532q-5.5 -4 -17.5 -4h-13q-8 0 -13 3.5t-5 10.5q0 8 5 35l21 130q3 15 11 19.5
t28 4.5h38q14 0 19 -4t5 -12q0 -7 -4.5 -18t-5.5 -14l-57 -134q-6 -13 -11.5 -17z" />
    <glyph glyph-name="lcaron" unicode="&#x13e;" horiz-adv-x="331" 
d="M194.5 97q12.5 -17 37.5 -17q14 0 28.5 3.5t19.5 3.5q7 0 11 -4.5t8 -17.5q2 -6 5 -14t5 -15t2 -13q0 -12 -21 -19q-33 -13 -74 -13q-61 0 -95.5 37t-34.5 117v563q0 18 5.5 23.5t24.5 5.5h37q18 0 23.5 -5.5t5.5 -23.5v-553q0 -41 12.5 -58zM294.5 538q-5.5 -4 -17.5 -4
h-13q-8 0 -13 3.5t-5 10.5q0 8 5 35l21 130q3 15 11 19.5t28 4.5h38q14 0 19 -4t5 -12q0 -7 -4.5 -18t-5.5 -14l-57 -134q-6 -13 -11.5 -17z" />
    <glyph glyph-name="Ldot" unicode="&#x13f;" horiz-adv-x="555" 
d="M103 5.5q-5 5.5 -5 22.5v675q0 13 2 18.5t7.5 7.5t18.5 2h43q13 0 18.5 -2t8 -8t2.5 -18v-610h310q17 0 22.5 -5t5.5 -23v-37q0 -17 -5.5 -22.5t-23.5 -5.5h-381q-18 0 -23 5.5zM371 378v46q0 27 27 27h56q27 0 27 -27v-46q0 -27 -27 -27h-56q-27 0 -27 27z" />
    <glyph glyph-name="ldot" unicode="&#x140;" horiz-adv-x="393" 
d="M194.5 97q12.5 -17 37.5 -17q14 0 28.5 3.5t19.5 3.5q7 0 11 -4.5t8 -17.5q2 -6 5 -14t5 -15t2 -13q0 -12 -21 -19q-33 -13 -74 -13q-61 0 -95.5 37t-34.5 117v563q0 18 5.5 23.5t24.5 5.5h37q18 0 23.5 -5.5t5.5 -23.5v-553q0 -41 12.5 -58zM288.5 313q-6.5 2 -8.5 8
t-2 19v42q0 13 2 19t8.5 8t20.5 2h43q15 0 21.5 -2t8.5 -8t2 -19v-42q0 -13 -2 -19t-8.5 -8t-21.5 -2h-43q-14 0 -20.5 2z" />
    <glyph glyph-name="Lslash" unicode="&#x141;" horiz-adv-x="555" 
d="M198 93h310q17 0 22.5 -5t5.5 -23v-37q0 -17 -5.5 -22.5t-23.5 -5.5h-381q-18 0 -23 5.5t-5 22.5v243l-63 -41q-4 -3 -11 -3q-5 0 -8.5 3.5t-3.5 11.5v55q0 13 2.5 17.5t12.5 11.5l71 46v331q0 13 2 18.5t7.5 7.5t18.5 2h43q13 0 18.5 -2t8 -8t2.5 -18v-265l130 86
q4 3 10 3t9.5 -3.5t3.5 -11.5v-48q0 -13 -1.5 -19t-6 -10.5t-16.5 -12.5l-129 -85v-244z" />
    <glyph glyph-name="lslash" unicode="&#x142;" horiz-adv-x="325" 
d="M96 708q0 18 5.5 23.5t24.5 5.5h37q18 0 23.5 -5.5t5.5 -23.5v-234l86 66q8 6 13 6q10 0 10 -13v-47q0 -18 -3 -25t-15 -16l-91 -69v-221q0 -41 12.5 -58t37.5 -17q14 0 28.5 3.5t19.5 3.5q7 0 11 -4.5t8 -17.5q2 -6 5 -14t5 -15t2 -13q0 -12 -21 -19q-33 -13 -74 -13
q-61 0 -95.5 37t-34.5 117v158l-63 -48q-8 -6 -14 -6q-9 0 -9 14v46q0 18 3 25t15 16l68 51v307z" />
    <glyph glyph-name="Nacute" unicode="&#x143;" horiz-adv-x="753" 
d="M103.5 5.5q-5.5 5.5 -5.5 23.5v673q0 13 2 18.5t8 8t18 2.5h40q17 0 25 -4.5t17 -19.5l314 -480q13 -20 24 -40.5t15 -32.5h2q-3 39 -3 81v467q0 18 5.5 23.5t23.5 5.5h38q18 0 23.5 -5.5t5.5 -23.5v-673q0 -18 -5.5 -23.5t-23.5 -5.5h-40q-12 0 -18.5 2t-11.5 7t-13 17
l-315 479q-10 15 -21.5 36.5t-15.5 35.5h-2q3 -34 3 -88v-460q0 -18 -5.5 -23.5t-23.5 -5.5h-37q-18 0 -23.5 5.5zM540 935.5q5 7.5 5 13.5q0 16 -30 16h-61q-18 0 -26 -4.5t-15 -19.5l-54 -111q-5 -9 -8 -17t-3 -14q0 -14 18 -14h22q10 0 16.5 3.5t18.5 17.5l102 111
q10 11 15 18.5z" />
    <glyph glyph-name="nacute" unicode="&#x144;" horiz-adv-x="620" 
d="M92.5 543q2.5 6 8 8t18.5 2h19q18 0 24.5 -5t12.5 -23l8 -23h2q41 32 85.5 47.5t88.5 15.5q84 0 129.5 -42t45.5 -125v-368q0 -14 -2 -20t-8 -8t-19 -2h-38q-13 0 -19 2t-8 8t-2 19v345q0 54 -24 79t-80 25q-41 0 -77 -15t-59 -37q-8 -7 -10 -12t-2 -18v-367
q0 -13 -2 -18.5t-8 -8t-19 -2.5h-38q-18 0 -23.5 5.5t-5.5 23.5v496q0 12 2.5 18zM312 611.5q-7 -4.5 -19 -4.5h-15q-21 0 -21 14q0 6 3 14t9 17l79 134q8 15 15.5 19.5t25.5 4.5h47q30 0 30 -16q0 -6 -5 -13.5t-15 -18.5l-116 -134q-11 -12 -18 -16.5z" />
    <glyph glyph-name="Ncommaaccent" unicode="&#x145;" horiz-adv-x="753" 
d="M103.5 5.5q-5.5 5.5 -5.5 23.5v673q0 13 2 18.5t8 8t18 2.5h40q17 0 25 -4.5t17 -19.5l314 -480q13 -20 24 -40.5t15 -32.5h2q-3 39 -3 81v467q0 18 5.5 23.5t23.5 5.5h38q18 0 23.5 -5.5t5.5 -23.5v-673q0 -18 -5.5 -23.5t-23.5 -5.5h-40q-12 0 -18.5 2t-11.5 7t-13 17
l-315 479q-10 15 -21.5 36.5t-15.5 35.5h-2q3 -34 3 -88v-460q0 -18 -5.5 -23.5t-23.5 -5.5h-37q-18 0 -23.5 5.5zM330 -160q-5 5 -5 20v55q0 12 2 17t7.5 7t18.5 2h50q18 0 23.5 -4.5t5.5 -20.5v-61q0 -12 -4.5 -25.5t-15.5 -32.5l-26 -44q-9 -15 -13.5 -19.5t-9.5 -4.5
q-6 0 -16 5q-5 3 -9.5 6.5t-4.5 9.5t5 16.5t6 14.5l23 54h-22q-10 0 -15 5z" />
    <glyph glyph-name="ncommaaccent" unicode="&#x146;" horiz-adv-x="620" 
d="M92.5 543q2.5 6 8 8t18.5 2h19q18 0 24.5 -5t12.5 -23l8 -23h2q41 32 85.5 47.5t88.5 15.5q84 0 129.5 -42t45.5 -125v-368q0 -14 -2 -20t-8 -8t-19 -2h-38q-13 0 -19 2t-8 8t-2 19v345q0 54 -24 79t-80 25q-41 0 -77 -15t-59 -37q-8 -7 -10 -12t-2 -18v-367
q0 -13 -2 -18.5t-8 -8t-19 -2.5h-38q-18 0 -23.5 5.5t-5.5 23.5v496q0 12 2.5 18zM262 -160q-5 5 -5 20v55q0 12 2 17t7.5 7t18.5 2h50q18 0 23.5 -4.5t5.5 -20.5v-61q0 -12 -4.5 -25.5t-15.5 -32.5l-26 -44q-9 -15 -13.5 -19.5t-9.5 -4.5q-6 0 -16 5q-5 3 -9.5 6.5
t-4.5 9.5t5 16.5t6 14.5l23 54h-22q-10 0 -15 5z" />
    <glyph glyph-name="Ncaron" unicode="&#x147;" horiz-adv-x="753" 
d="M103.5 5.5q-5.5 5.5 -5.5 23.5v673q0 13 2 18.5t8 8t18 2.5h40q17 0 25 -4.5t17 -19.5l314 -480q13 -20 24 -40.5t15 -32.5h2q-3 39 -3 81v467q0 18 5.5 23.5t23.5 5.5h38q18 0 23.5 -5.5t5.5 -23.5v-673q0 -18 -5.5 -23.5t-23.5 -5.5h-40q-12 0 -18.5 2t-11.5 7t-13 17
l-315 479q-10 15 -21.5 36.5t-15.5 35.5h-2q3 -34 3 -88v-460q0 -18 -5.5 -23.5t-23.5 -5.5h-37q-18 0 -23.5 5.5zM496 954q7 4 16 4h18q25 0 25 -14q0 -10 -17 -31l-86 -104q-10 -14 -17 -19t-19 -5h-60q-11 0 -17 4t-11.5 10.5t-7.5 9.5l-85 104q-16 19 -16 31q0 14 23 14
h18q9 0 16 -4t21 -17l89 -77l89 77q14 13 21 17z" />
    <glyph glyph-name="ncaron" unicode="&#x148;" horiz-adv-x="620" 
d="M92.5 543q2.5 6 8 8t18.5 2h19q18 0 24.5 -5t12.5 -23l8 -23h2q41 32 85.5 47.5t88.5 15.5q84 0 129.5 -42t45.5 -125v-368q0 -14 -2 -20t-8 -8t-19 -2h-38q-13 0 -19 2t-8 8t-2 19v345q0 54 -24 79t-80 25q-41 0 -77 -15t-59 -37q-8 -7 -10 -12t-2 -18v-367
q0 -13 -2 -18.5t-8 -8t-19 -2.5h-38q-18 0 -23.5 5.5t-5.5 23.5v496q0 12 2.5 18zM147.5 783q-4.5 8 -4.5 13q0 7 4.5 10.5t11.5 3.5h25q10 0 16.5 -4t17.5 -17l92 -104l92 104q11 13 17.5 17t16.5 4h27q7 0 11.5 -3.5t4.5 -10.5q0 -4 -3.5 -10.5t-7 -11t-5.5 -8.5l-92 -135
q-11 -15 -16.5 -19.5t-17.5 -4.5h-53q-13 0 -18.5 4.5t-15.5 19.5l-92 135q-6 9 -10.5 17z" />
    <glyph glyph-name="napostrophe" unicode="&#x149;" horiz-adv-x="733" 
d="M205.5 543q2.5 6 8 8t18.5 2h19q18 0 24.5 -5t12.5 -23l8 -23h2q41 32 85.5 47.5t88.5 15.5q84 0 129.5 -42t45.5 -125v-368q0 -14 -2 -20t-8 -8t-19 -2h-38q-13 0 -19 2t-8 8t-2 19v345q0 54 -24 79t-80 25q-41 0 -77 -15t-59 -37q-8 -7 -10 -12t-2 -18v-367
q0 -13 -2 -18.5t-8 -8t-19 -2.5h-38q-18 0 -23.5 5.5t-5.5 23.5v496q0 12 2.5 18zM15.5 629q-5.5 6 -5.5 24v62q0 14 2 20t8 8t21 2h58q15 0 21.5 -2t9 -8.5t2.5 -19.5v-62q0 -14 -5 -29t-16 -36l-40 -75q-9 -15 -14.5 -20.5t-10.5 -5.5q-9 0 -21 6q-13 6 -13 17q0 6 1 10.5
t2.5 7.5t1.5 4l34 91h-18q-12 0 -17.5 6z" />
    <glyph glyph-name="Eng" unicode="&#x14a;" horiz-adv-x="753" 
d="M103.5 5.5q-5.5 5.5 -5.5 23.5v673q0 13 2 18.5t8 8t18 2.5h40q17 0 25 -4.5t17 -19.5l314 -480q13 -20 24 -40.5t15 -32.5h2q-3 39 -3 81v467q0 18 5.5 23.5t23.5 5.5h38q18 0 23.5 -5.5t5.5 -23.5v-744q0 -85 -41.5 -123.5t-113.5 -38.5q-26 0 -52 5.5t-46 12.5
q-12 5 -18.5 10t-6.5 14q0 16 8 37q4 12 9 18.5t13 6.5q6 0 16 -3t16 -5q3 -1 20 -6t36 -5q30 0 47 21t17 58v46l-331 499q-10 15 -21.5 36.5t-15.5 35.5h-2q3 -34 3 -88v-460q0 -18 -5.5 -23.5t-23.5 -5.5h-37q-18 0 -23.5 5.5z" />
    <glyph glyph-name="eng" unicode="&#x14b;" horiz-adv-x="620" 
d="M92.5 543q2.5 6 8 8t18.5 2h19q18 0 24.5 -5t12.5 -23l8 -23h2q41 32 85.5 47.5t88.5 15.5q84 0 129.5 -42t45.5 -125v-438q0 -85 -40 -124.5t-106 -39.5q-48 0 -89 18q-22 10 -22 24q0 10 8 31q6 15 10.5 21.5t11.5 6.5q5 0 13.5 -2.5t12.5 -3.5q12 -3 25.5 -6t25.5 -3
q32 0 43 19.5t11 60.5v412q0 54 -24 79t-80 25q-41 0 -77 -15t-59 -37q-8 -7 -10 -12t-2 -18v-367q0 -13 -2 -18.5t-8 -8t-19 -2.5h-38q-18 0 -23.5 5.5t-5.5 23.5v496q0 12 2.5 18z" />
    <glyph glyph-name="Omacron" unicode="&#x14c;" horiz-adv-x="731" 
d="M137 668q82 77 225 77h11q149 0 226 -81t77 -245v-101q0 -332 -307 -332h-11q-141 0 -222 78.5t-81 247.5v101q0 178 82 255zM552 550q-20 52 -64 76.5t-117 24.5h-11q-74 0 -118 -25t-63.5 -77t-19.5 -137v-93q0 -85 20 -137t64 -77t117 -25h11q72 0 116 24t64.5 76.5
t20.5 138.5v93q0 86 -20 138zM200 854v27q0 27 27 27h276q27 0 27 -27v-27q0 -27 -27 -27h-276q-27 0 -27 27z" />
    <glyph glyph-name="omacron" unicode="&#x14d;" horiz-adv-x="580" 
d="M107.5 505q58.5 60 174.5 60h23q117 0 171.5 -60.5t54.5 -190.5v-69q0 -132 -57.5 -194t-174.5 -62h-24q-119 0 -172.5 63t-53.5 189v68q0 136 58.5 196zM420 403q-12 38 -41 57.5t-82 19.5h-12q-53 0 -83 -19.5t-42 -57.5t-12 -100v-52q0 -60 11.5 -98.5t41 -58.5
t82.5 -20h12q54 0 84 20t41.5 58t11.5 99v52q0 62 -12 100zM422 649h-266q-27 0 -27 27v27q0 27 27 27h266q27 0 27 -27v-27q0 -27 -27 -27z" />
    <glyph glyph-name="Obreve" unicode="&#x14e;" horiz-adv-x="731" 
d="M137 668q82 77 225 77h11q149 0 226 -81t77 -245v-101q0 -332 -307 -332h-11q-141 0 -222 78.5t-81 247.5v101q0 178 82 255zM552 550q-20 52 -64 76.5t-117 24.5h-11q-74 0 -118 -25t-63.5 -77t-19.5 -137v-93q0 -85 20 -137t64 -77t117 -25h11q72 0 116 24t64.5 76.5
t20.5 138.5v93q0 86 -20 138zM272.5 910q11.5 -18 34.5 -32t59 -14t59 14t34.5 32t14.5 34q3 14 8.5 17.5t20.5 3.5h11q11 0 16 -4t5 -14q0 -54 -23 -90.5t-61 -54t-85 -17.5t-85 17.5t-61 54t-23 90.5q0 10 5 14t16 4h10q15 0 21 -3.5t9 -17.5q3 -16 14.5 -34z" />
    <glyph glyph-name="obreve" unicode="&#x14f;" horiz-adv-x="580" 
d="M107.5 505q58.5 60 174.5 60h23q117 0 171.5 -60.5t54.5 -190.5v-69q0 -132 -57.5 -194t-174.5 -62h-24q-119 0 -172.5 63t-53.5 189v68q0 136 58.5 196zM420 403q-12 38 -41 57.5t-82 19.5h-12q-53 0 -83 -19.5t-42 -57.5t-12 -100v-52q0 -60 11.5 -98.5t41 -58.5
t82.5 -20h12q54 0 84 20t41.5 58t11.5 99v52q0 62 -12 100zM216 728q23 -30 74 -30t74 30t30 62q2 10 5 14.5t7.5 5.5t14.5 1h10q11 0 16 -4t5 -14q0 -57 -21.5 -96t-58 -58.5t-82.5 -19.5t-82.5 19.5t-58 58.5t-21.5 96q0 10 5 14t16 4h9q15 0 20 -3.5t8 -17.5
q7 -32 30 -62z" />
    <glyph glyph-name="Ohungarumlaut" unicode="&#x150;" horiz-adv-x="731" 
d="M137 668q82 77 225 77h11q149 0 226 -81t77 -245v-101q0 -332 -307 -332h-11q-141 0 -222 78.5t-81 247.5v101q0 178 82 255zM552 550q-20 52 -64 76.5t-117 24.5h-11q-74 0 -118 -25t-63.5 -77t-19.5 -137v-93q0 -85 20 -137t64 -77t117 -25h11q72 0 116 24t64.5 76.5
t20.5 138.5v93q0 86 -20 138zM298 789q-7 -4 -20 -4h-11q-21 0 -21 14q0 9 9 31l42 111q6 16 14 20t27 4h56q17 0 23.5 -3t6.5 -13q0 -6 -7.5 -16.5t-14.5 -19.5l-87 -107q-10 -13 -17 -17zM488 789q-7 -4 -20 -4h-11q-21 0 -21 14q0 9 9 31l42 111q6 16 14 20t27 4h56
q17 0 23.5 -3t6.5 -13q0 -6 -7.5 -16.5t-14.5 -19.5l-87 -107q-10 -13 -17 -17z" />
    <glyph glyph-name="ohungarumlaut" unicode="&#x151;" horiz-adv-x="580" 
d="M107.5 505q58.5 60 174.5 60h23q117 0 171.5 -60.5t54.5 -190.5v-69q0 -132 -57.5 -194t-174.5 -62h-24q-119 0 -172.5 63t-53.5 189v68q0 136 58.5 196zM420 403q-12 38 -41 57.5t-82 19.5h-12q-53 0 -83 -19.5t-42 -57.5t-12 -100v-52q0 -60 11.5 -98.5t41 -58.5
t82.5 -20h12q54 0 84 20t41.5 58t11.5 99v52q0 62 -12 100zM200.5 611.5q-8.5 -4.5 -20.5 -4.5h-11q-21 0 -21 14q0 4 3.5 12.5t8.5 18.5l64 134q7 15 15 19.5t26 4.5h49q12 0 18 -2.5t6 -10.5q0 -5 -4.5 -13t-9 -13.5t-6.5 -8.5l-101 -134q-8 -12 -16.5 -16.5zM396.5 611.5
q-8.5 -4.5 -20.5 -4.5h-11q-21 0 -21 14q0 4 3.5 12.5t8.5 18.5l64 134q7 15 15 19.5t26 4.5h49q12 0 18 -2.5t6 -10.5q0 -5 -4.5 -13t-9 -13.5t-6.5 -8.5l-101 -134q-8 -12 -16.5 -16.5z" />
    <glyph glyph-name="OE" unicode="&#x152;" horiz-adv-x="991" 
d="M522.5 2q-5.5 2 -7.5 7.5t-2 18.5v36q-28 -36 -75.5 -56.5t-100.5 -20.5h-10q-126 0 -199 78.5t-73 247.5v105q0 327 276 327h7q56 0 102 -22t73 -57v36q0 18 5 23.5t22 5.5h369q17 0 22 -5.5t5 -23.5v-37q0 -12 -2 -17.5t-7.5 -7.5t-17.5 -2h-296v-207h212q12 0 17 -2
t7 -7.5t2 -17.5v-39q0 -12 -2 -17.5t-7 -7.5t-17 -2h-212v-245h311q17 0 22 -5t5 -22v-38q0 -13 -2 -18.5t-7.5 -7.5t-17.5 -2h-384q-12 0 -17.5 2zM494.5 550.5q-17.5 51.5 -55.5 76.5t-99 25h-9q-62 0 -100 -24.5t-55 -76t-17 -134.5v-98q0 -84 17 -136.5t55 -77.5
t100 -25h9q61 0 99 25.5t55.5 78t17.5 135.5v98q0 82 -17.5 133.5z" />
    <glyph glyph-name="oe" unicode="&#x153;" horiz-adv-x="940" 
d="M107.5 505q58.5 60 174.5 60h23q66 0 112 -19.5t73 -59.5q57 79 179 79q115 0 168.5 -62t53.5 -192v-28q0 -12 -2 -18t-7 -8t-17 -2h-334v-10q0 -82 37 -126.5t123 -44.5q61 0 119 25l13 6.5t15 7t13 3.5q18 0 29 -22q11 -19 11 -30t-7.5 -18.5t-24.5 -16.5
q-35 -19 -78 -29.5t-91 -10.5q-73 0 -122.5 20.5t-78.5 61.5q-28 -42 -75.5 -62t-114.5 -20h-24q-119 0 -172.5 63t-53.5 189v68q0 136 58.5 196zM764 451.5q-31 29.5 -98 29.5q-43 0 -73 -16.5t-46 -46t-17 -67.5v-12h265v15q0 68 -31 97.5zM420 403q-12 38 -41 57.5
t-82 19.5h-12q-53 0 -83 -19.5t-42 -57.5t-12 -100v-52q0 -60 11.5 -98.5t41 -58.5t82.5 -20h12q54 0 84 20t41.5 58t11.5 99v52q0 62 -12 100z" />
    <glyph glyph-name="Racute" unicode="&#x154;" horiz-adv-x="697" 
d="M652 32q4 -8 4 -15q0 -9 -9 -13t-28 -4h-36q-19 0 -27 4.5t-20 19.5l-168 231q-13 18 -25 25t-33 7h-112v-259q0 -12 -2.5 -18t-8.5 -8t-19 -2h-41q-13 0 -19 2t-8 8t-2 19v673q0 13 2 19t8 8t19 2h233q98 0 158 -23t87.5 -71t27.5 -125q0 -94 -41 -145.5t-130 -70.5
l175 -241q11 -15 15 -23zM456.5 391q36.5 11 54.5 39t18 81q0 47 -17 74.5t-56.5 40t-109.5 12.5h-148v-258h161q61 0 97.5 11zM483 935.5q5 7.5 5 13.5q0 16 -30 16h-61q-18 0 -26 -4.5t-15 -19.5l-54 -111q-5 -9 -8 -17t-3 -14q0 -14 18 -14h22q10 0 16.5 3.5t18.5 17.5
l102 111q10 11 15 18.5z" />
    <glyph glyph-name="racute" unicode="&#x155;" horiz-adv-x="426" 
d="M92.5 543q2.5 6 8.5 8t19 2h17q13 0 19.5 -2t10.5 -8t8 -18l8 -24h2q21 31 52 47.5t78 16.5q43 0 82 -13q10 -3 15.5 -9t5.5 -17q0 -13 -7 -35q-6 -21 -11.5 -27.5t-17.5 -6.5q-9 0 -23 6q-33 11 -62 11q-35 0 -60 -16.5t-38 -44.5t-13 -64v-320q0 -13 -2 -19t-8 -8
t-19 -2h-37q-19 0 -24.5 5.5t-5.5 23.5v495q0 13 2.5 19zM262 611.5q-7 -4.5 -19 -4.5h-15q-21 0 -21 14q0 6 3 14t9 17l79 134q8 15 15.5 19.5t25.5 4.5h47q30 0 30 -16q0 -6 -5 -13.5t-15 -18.5l-116 -134q-11 -12 -18 -16.5z" />
    <glyph glyph-name="Rcommaaccent" unicode="&#x156;" horiz-adv-x="697" 
d="M652 32q4 -8 4 -15q0 -9 -9 -13t-28 -4h-36q-19 0 -27 4.5t-20 19.5l-168 231q-13 18 -25 25t-33 7h-112v-259q0 -12 -2.5 -18t-8.5 -8t-19 -2h-41q-13 0 -19 2t-8 8t-2 19v673q0 13 2 19t8 8t19 2h233q98 0 158 -23t87.5 -71t27.5 -125q0 -94 -41 -145.5t-130 -70.5
l175 -241q11 -15 15 -23zM456.5 391q36.5 11 54.5 39t18 81q0 47 -17 74.5t-56.5 40t-109.5 12.5h-148v-258h161q61 0 97.5 11zM312 -160q-5 5 -5 20v55q0 12 2 17t7.5 7t18.5 2h50q18 0 23.5 -4.5t5.5 -20.5v-61q0 -12 -4.5 -25.5t-15.5 -32.5l-26 -44q-9 -15 -13.5 -19.5
t-9.5 -4.5q-6 0 -16 5q-5 3 -9.5 6.5t-4.5 9.5t5 16.5t6 14.5l23 54h-22q-10 0 -15 5z" />
    <glyph glyph-name="rcommaaccent" unicode="&#x157;" horiz-adv-x="426" 
d="M92.5 543q2.5 6 8.5 8t19 2h17q13 0 19.5 -2t10.5 -8t8 -18l8 -24h2q21 31 52 47.5t78 16.5q43 0 82 -13q10 -3 15.5 -9t5.5 -17q0 -13 -7 -35q-6 -21 -11.5 -27.5t-17.5 -6.5q-9 0 -23 6q-33 11 -62 11q-35 0 -60 -16.5t-38 -44.5t-13 -64v-320q0 -13 -2 -19t-8 -8
t-19 -2h-37q-19 0 -24.5 5.5t-5.5 23.5v495q0 13 2.5 19zM91 -160q-5 5 -5 20v55q0 12 2 17t7.5 7t18.5 2h50q18 0 23.5 -4.5t5.5 -20.5v-61q0 -12 -4.5 -25.5t-15.5 -32.5l-26 -44q-9 -15 -13.5 -19.5t-9.5 -4.5q-6 0 -16 5q-5 3 -9.5 6.5t-4.5 9.5t5 16.5t6 14.5l23 54
h-22q-10 0 -15 5z" />
    <glyph glyph-name="Rcaron" unicode="&#x158;" horiz-adv-x="697" 
d="M652 32q4 -8 4 -15q0 -9 -9 -13t-28 -4h-36q-19 0 -27 4.5t-20 19.5l-168 231q-13 18 -25 25t-33 7h-112v-259q0 -12 -2.5 -18t-8.5 -8t-19 -2h-41q-13 0 -19 2t-8 8t-2 19v673q0 13 2 19t8 8t19 2h233q98 0 158 -23t87.5 -71t27.5 -125q0 -94 -41 -145.5t-130 -70.5
l175 -241q11 -15 15 -23zM456.5 391q36.5 11 54.5 39t18 81q0 47 -17 74.5t-56.5 40t-109.5 12.5h-148v-258h161q61 0 97.5 11zM458 954q7 4 16 4h18q25 0 25 -14q0 -10 -17 -31l-86 -104q-10 -14 -17 -19t-19 -5h-60q-11 0 -17 4t-11.5 10.5t-7.5 9.5l-85 104
q-16 19 -16 31q0 14 23 14h18q9 0 16 -4t21 -17l89 -77l89 77q14 13 21 17z" />
    <glyph glyph-name="rcaron" unicode="&#x159;" horiz-adv-x="426" 
d="M92.5 543q2.5 6 8.5 8t19 2h17q13 0 19.5 -2t10.5 -8t8 -18l8 -24h2q21 31 52 47.5t78 16.5q43 0 82 -13q10 -3 15.5 -9t5.5 -17q0 -13 -7 -35q-6 -21 -11.5 -27.5t-17.5 -6.5q-9 0 -23 6q-33 11 -62 11q-35 0 -60 -16.5t-38 -44.5t-13 -64v-320q0 -13 -2 -19t-8 -8
t-19 -2h-37q-19 0 -24.5 5.5t-5.5 23.5v495q0 13 2.5 19zM93.5 783q-4.5 8 -4.5 13q0 7 4.5 10.5t11.5 3.5h25q10 0 16.5 -4t17.5 -17l92 -104l92 104q11 13 17.5 17t16.5 4h27q7 0 11.5 -3.5t4.5 -10.5q0 -4 -3.5 -10.5t-7 -11t-5.5 -8.5l-92 -135q-11 -15 -16.5 -19.5
t-17.5 -4.5h-53q-13 0 -18.5 4.5t-15.5 19.5l-92 135q-6 9 -10.5 17z" />
    <glyph glyph-name="Sacute" unicode="&#x15a;" horiz-adv-x="631" 
d="M520 54.5q-59 -67.5 -208 -67.5q-97 0 -188 31q-33 12 -44 20t-11 20t9 35q8 17 13.5 23.5t13.5 6.5q5 0 10.5 -1.5l11 -3t10.5 -3.5q16 -6 24 -8q35 -14 64.5 -20.5t75.5 -6.5q95 0 136.5 33.5t41.5 97.5q0 44 -14.5 69t-55 40.5t-118.5 23.5q-115 11 -168.5 64.5
t-53.5 132.5q0 55 18.5 91.5t51.5 63.5q32 25 76 37t108 12q60 0 100 -6.5t86 -20.5q20 -7 26.5 -13.5t6.5 -18.5q0 -10 -11 -38q-6 -13 -12.5 -19.5t-15.5 -6.5q-11 0 -30 7l-19 6q-34 9 -65.5 13t-74.5 4q-39 0 -65.5 -6.5t-44.5 -20.5q-17 -14 -26.5 -34.5t-9.5 -42.5
q0 -35 13.5 -56.5t50.5 -35t107 -20.5q130 -13 185 -70.5t55 -144.5q0 -99 -59 -166.5zM472 935.5q5 7.5 5 13.5q0 16 -30 16h-61q-18 0 -26 -4.5t-15 -19.5l-54 -111q-5 -9 -8 -17t-3 -14q0 -14 18 -14h22q10 0 16.5 3.5t18.5 17.5l102 111q10 11 15 18.5z" />
    <glyph glyph-name="sacute" unicode="&#x15b;" horiz-adv-x="507" 
d="M60 29q-11 7 -11 19q0 7 1 12.5t4 12.5q4 12 11 23t15 11q7 0 16 -4q80 -26 162 -26q121 0 121 82q0 29 -9.5 45.5t-39 27.5t-90.5 16q-99 8 -145 48t-46 109q0 42 16 73.5t46 51.5q51 35 147 35q42 0 73.5 -3.5t61.5 -9.5q20 -4 35 -12.5t15 -19.5t-10 -33
q-7 -15 -12.5 -22.5t-14.5 -7.5q-5 0 -16 3.5t-21 6.5q-58 14 -115 14q-58 0 -83 -18q-12 -8 -19 -21.5t-7 -31.5q0 -29 13 -43.5t37 -20t77 -11.5q105 -12 153.5 -52.5t48.5 -115.5q0 -86 -56 -130t-163 -44q-43 0 -86 6t-74 15q-24 8 -35 15zM252 611.5q-7 -4.5 -19 -4.5
h-15q-21 0 -21 14q0 6 3 14t9 17l79 134q8 15 15.5 19.5t25.5 4.5h47q30 0 30 -16q0 -6 -5 -13.5t-15 -18.5l-116 -134q-11 -12 -18 -16.5z" />
    <glyph glyph-name="Scircumflex" unicode="&#x15c;" horiz-adv-x="631" 
d="M520 54.5q-59 -67.5 -208 -67.5q-97 0 -188 31q-33 12 -44 20t-11 20t9 35q8 17 13.5 23.5t13.5 6.5q5 0 10.5 -1.5l11 -3t10.5 -3.5q16 -6 24 -8q35 -14 64.5 -20.5t75.5 -6.5q95 0 136.5 33.5t41.5 97.5q0 44 -14.5 69t-55 40.5t-118.5 23.5q-115 11 -168.5 64.5
t-53.5 132.5q0 55 18.5 91.5t51.5 63.5q32 25 76 37t108 12q60 0 100 -6.5t86 -20.5q20 -7 26.5 -13.5t6.5 -18.5q0 -10 -11 -38q-6 -13 -12.5 -19.5t-15.5 -6.5q-11 0 -30 7l-19 6q-34 9 -65.5 13t-74.5 4q-39 0 -65.5 -6.5t-44.5 -20.5q-17 -14 -26.5 -34.5t-9.5 -42.5
q0 -35 13.5 -56.5t50.5 -35t107 -20.5q130 -13 185 -70.5t55 -144.5q0 -99 -59 -166.5zM263.5 944.5q6.5 7.5 13 10.5t14.5 3h60q11 0 17 -4t11.5 -10.5t7.5 -9.5l86 -104q17 -21 17 -31q0 -14 -25 -14h-18q-9 0 -16 4t-21 17l-89 77l-89 -77q-14 -13 -21 -17t-16 -4h-18
q-23 0 -23 14q0 12 16 31l85 104q2 3 8.5 10.5z" />
    <glyph glyph-name="scircumflex" unicode="&#x15d;" horiz-adv-x="507" 
d="M60 29q-11 7 -11 19q0 7 1 12.5t4 12.5q4 12 11 23t15 11q7 0 16 -4q80 -26 162 -26q121 0 121 82q0 29 -9.5 45.5t-39 27.5t-90.5 16q-99 8 -145 48t-46 109q0 42 16 73.5t46 51.5q51 35 147 35q42 0 73.5 -3.5t61.5 -9.5q20 -4 35 -12.5t15 -19.5t-10 -33
q-7 -15 -12.5 -22.5t-14.5 -7.5q-5 0 -16 3.5t-21 6.5q-58 14 -115 14q-58 0 -83 -18q-12 -8 -19 -21.5t-7 -31.5q0 -29 13 -43.5t37 -20t77 -11.5q105 -12 153.5 -52.5t48.5 -115.5q0 -86 -56 -130t-163 -44q-43 0 -86 6t-74 15q-24 8 -35 15zM206 805q6 5 19 5h53
q12 0 17.5 -4.5t16.5 -19.5l92 -135q2 -4 6 -9t7 -11t3 -10q0 -7 -4.5 -10.5t-11.5 -3.5h-27q-10 0 -16.5 4t-17.5 17l-92 104l-92 -104q-11 -13 -17.5 -17t-16.5 -4h-25q-7 0 -11.5 3.5t-4.5 10.5q0 5 4.5 13t10.5 17l92 135q9 14 15 19z" />
    <glyph glyph-name="Scedilla" unicode="&#x15e;" horiz-adv-x="631" 
d="M530 66q-49 -65 -170 -77l-22 -43q10 3 27 3q44 0 68.5 -23.5t24.5 -68.5q0 -38 -18.5 -64t-48.5 -38t-65 -12q-30 0 -50 4t-39 12q-16 6 -24.5 12.5t-8.5 13.5t5 16l8 15q4 7 8 9.5t9 2.5q4 0 7.5 -1t9.5 -4q32 -14 64 -14q25 0 42 11t17 33q0 32 -32 32q-11 0 -17.5 -2
t-14.5 -6.5t-15 -4.5t-17 3t-18 8.5t-8 12.5q0 6 2 12t5 13l31 66q-88 4 -166 31q-33 12 -44 20t-11 20t9 35q8 17 13.5 23.5t13.5 6.5q5 0 10.5 -1.5l11 -3t10.5 -3.5q16 -6 24 -8q35 -14 64.5 -20.5t75.5 -6.5q95 0 136.5 33.5t41.5 97.5q0 44 -14.5 69t-55 40.5
t-118.5 23.5q-115 11 -168.5 64.5t-53.5 132.5q0 55 18.5 91.5t51.5 63.5q32 25 76 37t108 12q60 0 100 -6.5t86 -20.5q20 -7 26.5 -13.5t6.5 -18.5q0 -10 -11 -38q-6 -13 -12.5 -19.5t-15.5 -6.5q-11 0 -30 7l-19 6q-34 9 -65.5 13t-74.5 4q-39 0 -65.5 -6.5t-44.5 -20.5
q-17 -14 -26.5 -34.5t-9.5 -42.5q0 -35 13.5 -56.5t50.5 -35t107 -20.5q130 -13 185 -70.5t55 -144.5q0 -90 -49 -155z" />
    <glyph glyph-name="scedilla" unicode="&#x15f;" horiz-adv-x="507" 
d="M428 46q-46 -43 -134 -51l-24 -49q11 3 27 3q44 0 68.5 -23.5t24.5 -68.5q0 -38 -18.5 -64t-48.5 -38t-65 -12q-30 0 -50 4t-39 12q-16 6 -24.5 12.5t-8.5 13.5t5 16l8 15q4 7 8 9.5t9 2.5q4 0 7.5 -1t9.5 -4q32 -14 64 -14q25 0 42 11t17 33q0 32 -32 32q-11 0 -17.5 -2
t-14.5 -6.5t-15 -4.5t-17 3t-18 8.5t-8 12.5q0 6 2 12t5 13l34 73q-35 1 -69.5 7t-60.5 13q-24 8 -35 15t-11 19q0 7 1 12.5t4 12.5q4 12 11 23t15 11q7 0 16 -4q80 -26 162 -26q121 0 121 82q0 29 -9.5 45.5t-39 27.5t-90.5 16q-99 8 -145 48t-46 109q0 42 16 73.5t46 51.5
q51 35 147 35q42 0 73.5 -3.5t61.5 -9.5q20 -4 35 -12.5t15 -19.5t-10 -33q-7 -15 -12.5 -22.5t-14.5 -7.5q-5 0 -16 3.5t-21 6.5q-58 14 -115 14q-58 0 -83 -18q-12 -8 -19 -21.5t-7 -31.5q0 -29 13 -43.5t37 -20t77 -11.5q105 -12 153.5 -52.5t48.5 -115.5q0 -78 -46 -121
z" />
    <glyph glyph-name="Scaron" unicode="&#x160;" horiz-adv-x="631" 
d="M520 54.5q-59 -67.5 -208 -67.5q-97 0 -188 31q-33 12 -44 20t-11 20t9 35q8 17 13.5 23.5t13.5 6.5q5 0 10.5 -1.5l11 -3t10.5 -3.5q16 -6 24 -8q35 -14 64.5 -20.5t75.5 -6.5q95 0 136.5 33.5t41.5 97.5q0 44 -14.5 69t-55 40.5t-118.5 23.5q-115 11 -168.5 64.5
t-53.5 132.5q0 55 18.5 91.5t51.5 63.5q32 25 76 37t108 12q60 0 100 -6.5t86 -20.5q20 -7 26.5 -13.5t6.5 -18.5q0 -10 -11 -38q-6 -13 -12.5 -19.5t-15.5 -6.5q-11 0 -30 7l-19 6q-34 9 -65.5 13t-74.5 4q-39 0 -65.5 -6.5t-44.5 -20.5q-17 -14 -26.5 -34.5t-9.5 -42.5
q0 -35 13.5 -56.5t50.5 -35t107 -20.5q130 -13 185 -70.5t55 -144.5q0 -99 -59 -166.5zM438 954q7 4 16 4h18q25 0 25 -14q0 -10 -17 -31l-86 -104q-10 -14 -17 -19t-19 -5h-60q-11 0 -17 4t-11.5 10.5t-7.5 9.5l-85 104q-16 19 -16 31q0 14 23 14h18q9 0 16 -4t21 -17
l89 -77l89 77q14 13 21 17z" />
    <glyph glyph-name="scaron" unicode="&#x161;" horiz-adv-x="507" 
d="M60 29q-11 7 -11 19q0 7 1 12.5t4 12.5q4 12 11 23t15 11q7 0 16 -4q80 -26 162 -26q121 0 121 82q0 29 -9.5 45.5t-39 27.5t-90.5 16q-99 8 -145 48t-46 109q0 42 16 73.5t46 51.5q51 35 147 35q42 0 73.5 -3.5t61.5 -9.5q20 -4 35 -12.5t15 -19.5t-10 -33
q-7 -15 -12.5 -22.5t-14.5 -7.5q-5 0 -16 3.5t-21 6.5q-58 14 -115 14q-58 0 -83 -18q-12 -8 -19 -21.5t-7 -31.5q0 -29 13 -43.5t37 -20t77 -11.5q105 -12 153.5 -52.5t48.5 -115.5q0 -86 -56 -130t-163 -44q-43 0 -86 6t-74 15q-24 8 -35 15zM92.5 783q-4.5 8 -4.5 13
q0 7 4.5 10.5t11.5 3.5h25q10 0 16.5 -4t17.5 -17l92 -104l92 104q11 13 17.5 17t16.5 4h27q7 0 11.5 -3.5t4.5 -10.5q0 -4 -3.5 -10.5t-7 -11t-5.5 -8.5l-92 -135q-11 -15 -16.5 -19.5t-17.5 -4.5h-53q-13 0 -18.5 4.5t-15.5 19.5l-92 135q-6 9 -10.5 17z" />
    <glyph glyph-name="uni0162" unicode="&#x162;" horiz-adv-x="594" 
d="M571.5 647q-2.5 -6 -8 -8t-18.5 -2h-198v-608q0 -13 -2 -18.5t-8 -8t-19 -2.5h-42q-13 0 -18.5 2t-8 8t-2.5 19v608h-199q-17 0 -22.5 5t-5.5 23v38q0 17 5.5 22.5t22.5 5.5h497q13 0 18.5 -2t8 -8t2.5 -18v-38q0 -12 -2.5 -18zM250 -160q-5 5 -5 20v55q0 12 2 17t7.5 7
t18.5 2h50q18 0 23.5 -4.5t5.5 -20.5v-61q0 -12 -4.5 -25.5t-15.5 -32.5l-26 -44q-9 -15 -13.5 -19.5t-9.5 -4.5q-6 0 -16 5q-5 3 -9.5 6.5t-4.5 9.5t5 16.5t6 14.5l23 54h-22q-10 0 -15 5z" />
    <glyph glyph-name="uni0163" unicode="&#x163;" horiz-adv-x="380" 
d="M96.5 680.5q3.5 6.5 15.5 12.5l32 13q15 7 26 7q12 0 15.5 -7t3.5 -23v-141h144q15 0 21.5 -2t9 -8t2.5 -19v-27q0 -13 -2.5 -18.5t-9.5 -8t-22 -2.5h-143v-302q0 -31 7.5 -48.5t22 -24t37.5 -6.5q14 0 31.5 4.5t32.5 9.5q21 7 26 7q7 0 11.5 -4.5t10.5 -18.5l6 -14
t5 -14t2 -12q0 -7 -5 -11t-17 -9q-55 -23 -120 -23q-69 0 -107.5 37.5t-38.5 118.5v310h-42q-16 0 -22 6t-6 19v6q0 14 6.5 19.5t25.5 11.5q38 12 38 51v89q0 15 3.5 21.5zM191 -160q-5 5 -5 20v55q0 12 2 17t7.5 7t18.5 2h50q18 0 23.5 -4.5t5.5 -20.5v-61
q0 -12 -4.5 -25.5t-15.5 -32.5l-26 -44q-9 -15 -13.5 -19.5t-9.5 -4.5q-6 0 -16 5q-5 3 -9.5 6.5t-4.5 9.5t5 16.5t6 14.5l23 54h-22q-10 0 -15 5z" />
    <glyph glyph-name="Tcaron" unicode="&#x164;" horiz-adv-x="594" 
d="M571.5 647q-2.5 -6 -8 -8t-18.5 -2h-198v-608q0 -13 -2 -18.5t-8 -8t-19 -2.5h-42q-13 0 -18.5 2t-8 8t-2.5 19v608h-199q-17 0 -22.5 5t-5.5 23v38q0 17 5.5 22.5t22.5 5.5h497q13 0 18.5 -2t8 -8t2.5 -18v-38q0 -12 -2.5 -18zM407 954q7 4 16 4h18q25 0 25 -14
q0 -10 -17 -31l-86 -104q-10 -14 -17 -19t-19 -5h-60q-11 0 -17 4t-11.5 10.5t-7.5 9.5l-85 104q-16 19 -16 31q0 14 23 14h18q9 0 16 -4t21 -17l89 -77l89 77q14 13 21 17z" />
    <glyph glyph-name="tcaron" unicode="&#x165;" horiz-adv-x="380" 
d="M96.5 680.5q3.5 6.5 15.5 12.5l32 13q15 7 26 7q12 0 15.5 -7t3.5 -23v-141h144q15 0 21.5 -2t9 -8t2.5 -19v-27q0 -13 -2.5 -18.5t-9.5 -8t-22 -2.5h-143v-302q0 -31 7.5 -48.5t22 -24t37.5 -6.5q14 0 31.5 4.5t32.5 9.5q21 7 26 7q7 0 11.5 -4.5t10.5 -18.5l6 -14
t5 -14t2 -12q0 -7 -5 -11t-17 -9q-55 -23 -120 -23q-69 0 -107.5 37.5t-38.5 118.5v310h-42q-16 0 -22 6t-6 19v6q0 14 6.5 19.5t25.5 11.5q38 12 38 51v89q0 15 3.5 21.5zM289.5 634q-5.5 -4 -17.5 -4h-13q-8 0 -13 3.5t-5 10.5q0 8 5 35l21 130q3 15 11 19.5t28 4.5h38
q14 0 19 -4t5 -12q0 -7 -4.5 -18t-5.5 -14l-57 -134q-6 -13 -11.5 -17z" />
    <glyph glyph-name="Tbar" unicode="&#x166;" horiz-adv-x="594" 
d="M571.5 647q-2.5 -6 -8 -8t-18.5 -2h-198v-207h137q13 0 19 -2.5t8 -8t2 -18.5v-29q0 -19 -5.5 -24.5t-22.5 -5.5h-138v-313q0 -13 -2 -18.5t-8 -8t-19 -2.5h-42q-13 0 -18.5 2t-8 8t-2.5 19v313h-138q-17 0 -22.5 5.5t-5.5 24.5v29q0 13 2 18.5t8 8t19 2.5h137v207h-199
q-17 0 -22.5 5t-5.5 23v38q0 17 5.5 22.5t22.5 5.5h497q13 0 18.5 -2t8 -8t2.5 -18v-38q0 -12 -2.5 -18z" />
    <glyph glyph-name="tbar" unicode="&#x167;" horiz-adv-x="380" 
d="M189 155q0 -31 7.5 -48.5t22 -24t37.5 -6.5q14 0 31.5 4.5t32.5 9.5q21 7 26 7q7 0 12 -5t10 -18q6 -12 9.5 -22t3.5 -18q0 -7 -5 -11t-17 -9q-55 -23 -120 -23q-69 0 -107.5 37.5t-38.5 118.5v125h-42q-17 0 -22.5 5.5t-5.5 24.5v21q0 13 2 18.5t8 8t19 2.5h41v105h-42
q-16 0 -22 6t-6 19v6q0 14 6.5 19.5t25.5 11.5q38 12 38 51v89q0 15 3.5 22t15.5 12l32 13q15 7 26 7q12 0 15.5 -7t3.5 -23v-141h144q15 0 21.5 -2t9 -8t2.5 -19v-27q0 -13 -2.5 -18.5t-9.5 -8t-22 -2.5h-143v-105h116q13 0 19 -2.5t8 -8t2 -18.5v-21q0 -19 -5.5 -24.5
t-22.5 -5.5h-117v-117z" />
    <glyph glyph-name="Utilde" unicode="&#x168;" horiz-adv-x="738" 
d="M583 61q-64 -75 -207 -75h-25q-129 0 -194.5 69.5t-65.5 200.5v446q0 13 2.5 19t8 8t18.5 2h43q12 0 18 -2.5t8 -8t2 -18.5v-437q0 -98 43 -141t133 -43q97 0 138.5 47.5t41.5 136.5v437q0 13 2 19t8 8t19 2h42q13 0 19 -2t8 -7.5t2 -18.5v-446q0 -121 -64 -196z
M312 871.5q-10 2.5 -22 2.5q-17 0 -28 -11.5t-19 -32.5q-3 -9 -7 -14.5t-16 -5.5h-22q-10 0 -14 5t-4 15q0 36 14 63.5t39.5 43t58.5 15.5q21 0 39.5 -4.5t39.5 -14.5l51 -25q15 -7 26.5 -10.5t22.5 -3.5q18 0 29 11.5t18 32.5q3 9 7 14.5t16 5.5h22q11 0 14.5 -5t3.5 -15
q0 -34 -17 -62t-43 -44t-52 -16q-21 0 -39.5 4.5t-39.5 14.5l-51 25q-17 9 -27 11.5z" />
    <glyph glyph-name="utilde" unicode="&#x169;" horiz-adv-x="619" 
d="M527 10q-2 -6 -8 -8t-19 -2h-18q-18 0 -25 5t-12 23l-8 23h-2q-41 -32 -86 -47.5t-89 -15.5q-83 0 -128.5 42t-45.5 126v368q0 13 2 19t8 8t19 2h38q13 0 18.5 -2t8 -8t2.5 -19v-347q0 -53 23.5 -77.5t78.5 -24.5q41 0 77 15t60 37q8 7 10 12.5t2 18.5v366q0 13 2.5 19
t8 8t18.5 2h38q13 0 18.5 -2t8 -8t2.5 -18v-496q0 -13 -2 -19zM246 693.5q-10 2.5 -21 2.5q-17 0 -27.5 -11.5t-18.5 -32.5q-3 -9 -7 -14.5t-16 -5.5h-22q-10 0 -14 6.5t-4 13.5q0 36 14 63.5t38.5 43t56.5 15.5q20 0 37.5 -4.5t38.5 -14.5l50 -25q27 -14 47 -14
q18 0 28.5 11t17.5 33q3 9 7 14.5t16 5.5h22q10 0 14 -6.5t4 -13.5q0 -34 -16.5 -62t-42 -44t-50.5 -16q-20 0 -37.5 4.5t-38.5 14.5l-50 25q-16 9 -26 11.5z" />
    <glyph glyph-name="Umacron" unicode="&#x16a;" horiz-adv-x="738" 
d="M583 61q-64 -75 -207 -75h-25q-129 0 -194.5 69.5t-65.5 200.5v446q0 13 2.5 19t8 8t18.5 2h43q12 0 18 -2.5t8 -8t2 -18.5v-437q0 -98 43 -141t133 -43q97 0 138.5 47.5t41.5 136.5v437q0 13 2 19t8 8t19 2h42q13 0 19 -2t8 -7.5t2 -18.5v-446q0 -121 -64 -196zM202 854
v27q0 27 27 27h276q27 0 27 -27v-27q0 -27 -27 -27h-276q-27 0 -27 27z" />
    <glyph glyph-name="umacron" unicode="&#x16b;" horiz-adv-x="619" 
d="M527 10q-2 -6 -8 -8t-19 -2h-18q-18 0 -25 5t-12 23l-8 23h-2q-41 -32 -86 -47.5t-89 -15.5q-83 0 -128.5 42t-45.5 126v368q0 13 2 19t8 8t19 2h38q13 0 18.5 -2t8 -8t2.5 -19v-347q0 -53 23.5 -77.5t78.5 -24.5q41 0 77 15t60 37q8 7 10 12.5t2 18.5v366q0 13 2.5 19
t8 8t18.5 2h38q13 0 18.5 -2t8 -8t2.5 -18v-496q0 -13 -2 -19zM442 649h-266q-27 0 -27 27v27q0 27 27 27h266q27 0 27 -27v-27q0 -27 -27 -27z" />
    <glyph glyph-name="Ubreve" unicode="&#x16c;" horiz-adv-x="738" 
d="M583 61q-64 -75 -207 -75h-25q-129 0 -194.5 69.5t-65.5 200.5v446q0 13 2.5 19t8 8t18.5 2h43q12 0 18 -2.5t8 -8t2 -18.5v-437q0 -98 43 -141t133 -43q97 0 138.5 47.5t41.5 136.5v437q0 13 2 19t8 8t19 2h42q13 0 19 -2t8 -7.5t2 -18.5v-446q0 -121 -64 -196z
M275.5 910q11.5 -18 34.5 -32t59 -14t59 14t34.5 32t14.5 34q3 14 8.5 17.5t20.5 3.5h11q11 0 16 -4t5 -14q0 -54 -23 -90.5t-61 -54t-85 -17.5t-85 17.5t-61 54t-23 90.5q0 10 5 14t16 4h10q15 0 21 -3.5t9 -17.5q3 -16 14.5 -34z" />
    <glyph glyph-name="ubreve" unicode="&#x16d;" horiz-adv-x="619" 
d="M527 10q-2 -6 -8 -8t-19 -2h-18q-18 0 -25 5t-12 23l-8 23h-2q-41 -32 -86 -47.5t-89 -15.5q-83 0 -128.5 42t-45.5 126v368q0 13 2 19t8 8t19 2h38q13 0 18.5 -2t8 -8t2.5 -19v-347q0 -53 23.5 -77.5t78.5 -24.5q41 0 77 15t60 37q8 7 10 12.5t2 18.5v366q0 13 2.5 19
t8 8t18.5 2h38q13 0 18.5 -2t8 -8t2.5 -18v-496q0 -13 -2 -19zM234 716q23 -30 74 -30t74 30t30 62q2 10 5 14.5t7.5 5.5t14.5 1h10q11 0 16 -4t5 -14q0 -57 -21.5 -96t-58 -58.5t-82.5 -19.5t-82.5 19.5t-58 58.5t-21.5 96q0 10 5 14t16 4h9q15 0 20 -3.5t8 -17.5
q7 -32 30 -62z" />
    <glyph glyph-name="Uring" unicode="&#x16e;" horiz-adv-x="738" 
d="M583 61q-64 -75 -207 -75h-25q-129 0 -194.5 69.5t-65.5 200.5v446q0 13 2.5 19t8 8t18.5 2h43q12 0 18 -2.5t8 -8t2 -18.5v-437q0 -98 43 -141t133 -43q97 0 138.5 47.5t41.5 136.5v437q0 13 2 19t8 8t19 2h42q13 0 19 -2t8 -7.5t2 -18.5v-446q0 -121 -64 -196z
M259.5 927.5q16.5 27.5 45 43.5t62.5 16q33 0 60.5 -16.5t43.5 -44t16 -59.5q0 -34 -16 -62t-43.5 -44t-61.5 -16t-62 16t-44.5 44t-16.5 62q0 33 16.5 60.5zM309 834q9 -15 24 -24t33 -9q17 0 32 9t23.5 24t8.5 33q0 17 -9 31.5t-24 23t-32 8.5t-32 -9t-24 -23.5t-9 -30.5
q0 -18 9 -33z" />
    <glyph glyph-name="uring" unicode="&#x16f;" horiz-adv-x="619" 
d="M527 10q-2 -6 -8 -8t-19 -2h-18q-18 0 -25 5t-12 23l-8 23h-2q-41 -32 -86 -47.5t-89 -15.5q-83 0 -128.5 42t-45.5 126v368q0 13 2 19t8 8t19 2h38q13 0 18.5 -2t8 -8t2.5 -19v-347q0 -53 23.5 -77.5t78.5 -24.5q41 0 77 15t60 37q8 7 10 12.5t2 18.5v366q0 13 2.5 19
t8 8t18.5 2h38q13 0 18.5 -2t8 -8t2.5 -18v-496q0 -13 -2 -19zM198.5 789.5q16.5 27.5 45 43.5t62.5 16q33 0 60.5 -16.5t43.5 -44t16 -59.5q0 -34 -16 -62t-43.5 -44t-61.5 -16t-62 16t-44.5 44t-16.5 62q0 33 16.5 60.5zM248 696q9 -15 24 -24t33 -9q17 0 32 9t23.5 24
t8.5 33q0 17 -9 31.5t-24 23t-32 8.5t-32 -9t-24 -23.5t-9 -30.5q0 -18 9 -33z" />
    <glyph glyph-name="Uhungarumlaut" unicode="&#x170;" horiz-adv-x="738" 
d="M583 61q-64 -75 -207 -75h-25q-129 0 -194.5 69.5t-65.5 200.5v446q0 13 2.5 19t8 8t18.5 2h43q12 0 18 -2.5t8 -8t2 -18.5v-437q0 -98 43 -141t133 -43q97 0 138.5 47.5t41.5 136.5v437q0 13 2 19t8 8t19 2h42q13 0 19 -2t8 -7.5t2 -18.5v-446q0 -121 -64 -196zM287 789
q-7 -4 -20 -4h-11q-21 0 -21 14q0 9 9 31l42 111q6 16 14 20t27 4h56q17 0 23.5 -3t6.5 -13q0 -6 -7.5 -16.5t-14.5 -19.5l-87 -107q-10 -13 -17 -17zM477 789q-7 -4 -20 -4h-11q-21 0 -21 14q0 9 9 31l42 111q6 16 14 20t27 4h56q17 0 23.5 -3t6.5 -13q0 -6 -7.5 -16.5
t-14.5 -19.5l-87 -107q-10 -13 -17 -17z" />
    <glyph glyph-name="uhungarumlaut" unicode="&#x171;" horiz-adv-x="619" 
d="M527 10q-2 -6 -8 -8t-19 -2h-18q-18 0 -25 5t-12 23l-8 23h-2q-41 -32 -86 -47.5t-89 -15.5q-83 0 -128.5 42t-45.5 126v368q0 13 2 19t8 8t19 2h38q13 0 18.5 -2t8 -8t2.5 -19v-347q0 -53 23.5 -77.5t78.5 -24.5q41 0 77 15t60 37q8 7 10 12.5t2 18.5v366q0 13 2.5 19
t8 8t18.5 2h38q13 0 18.5 -2t8 -8t2.5 -18v-496q0 -13 -2 -19zM220.5 611.5q-8.5 -4.5 -20.5 -4.5h-11q-21 0 -21 14q0 4 3.5 12.5t8.5 18.5l64 134q7 15 15 19.5t26 4.5h49q12 0 18 -2.5t6 -10.5q0 -5 -4.5 -13t-9 -13.5t-6.5 -8.5l-101 -134q-8 -12 -16.5 -16.5z
M416.5 611.5q-8.5 -4.5 -20.5 -4.5h-11q-21 0 -21 14q0 4 3.5 12.5t8.5 18.5l64 134q7 15 15 19.5t26 4.5h49q12 0 18 -2.5t6 -10.5q0 -5 -4.5 -13t-9 -13.5t-6.5 -8.5l-101 -134q-8 -12 -16.5 -16.5z" />
    <glyph glyph-name="Uogonek" unicode="&#x172;" horiz-adv-x="738" 
d="M619.5 117q-27.5 -60 -82.5 -93l-28 -16t-19 -10q-14 -8 -26.5 -15t-19.5 -13q-4 -3 -20 -16t-26 -31.5t-10 -40.5q0 -27 15.5 -40t38.5 -13q13 0 24 2t20 5q15 4 19 4q6 0 9 -3t5 -10l6 -22q2 -8 2 -12q0 -11 -18 -17q-42 -14 -81 -14q-124 0 -124 108q0 35 23 65t54 51
h-30q-129 0 -194.5 69.5t-65.5 200.5v446q0 13 2.5 19t8 8t18.5 2h43q12 0 18 -2.5t8 -8t2 -18.5v-437q0 -98 43 -141t133 -43q97 0 138.5 47.5t41.5 136.5v437q0 13 2 19t8 8t19 2h42q13 0 19 -2t8 -7.5t2 -18.5v-446q0 -80 -27.5 -140z" />
    <glyph glyph-name="uogonek" unicode="&#x173;" horiz-adv-x="619" 
d="M437 51h-2q-41 -32 -86 -47.5t-89 -15.5q-83 0 -128.5 42t-45.5 126v368q0 13 2 19t8 8t19 2h38q13 0 18.5 -2t8 -8t2.5 -19v-347q0 -53 23.5 -77.5t78.5 -24.5q41 0 77 15t60 37q8 7 10 12.5t2 18.5v366q0 13 2.5 19t8 8t18.5 2h38q13 0 18.5 -2t8 -8t2.5 -18v-496
q0 -14 -2 -18.5t-7 -8.5t-9 -8q-27 -24 -39.5 -54t-12.5 -58t15 -40.5t39 -12.5q13 0 24 2t20 5q15 4 19 4q6 0 9 -3t5 -10l5 -23q2 -8 2 -13t-4.5 -8.5t-12.5 -6.5q-42 -14 -81 -14q-124 0 -124 108q0 40 21 77t56 64z" />
    <glyph glyph-name="Wcircumflex" unicode="&#x174;" horiz-adv-x="837" 
d="M595.5 201.5q4.5 -30.5 5.5 -39.5h4q1 36 10 87l96 455q3 12 6 17.5t9.5 7.5t18.5 2h47q13 0 18.5 -3t5.5 -11q0 -5 -2.5 -16t-3.5 -16l-144 -658q-4 -17 -10.5 -22t-24.5 -5h-38q-18 0 -25 5t-11 22l-117 398q-17 60 -20 101h-4q-2 -21 -8 -51t-12 -50l-116 -397
q-4 -18 -11 -23t-25 -5h-36q-13 0 -19 2t-9.5 7.5t-6.5 17.5l-144 648q-8 36 -8 41q0 9 5.5 12t19.5 3h47q18 0 24.5 -5t9.5 -22l101 -471q3 -14 5 -32.5t2 -33.5h4q3 44 9 66l116 395q4 13 7.5 19t10 8t19.5 2h35q19 0 27 -6.5t11 -20.5l112 -380q5 -18 9.5 -48.5z
M360.5 944.5q6.5 7.5 13 10.5t14.5 3h60q11 0 17 -4t11.5 -10.5t7.5 -9.5l86 -104q17 -21 17 -31q0 -14 -25 -14h-18q-9 0 -16 4t-21 17l-89 77l-89 -77q-14 -13 -21 -17t-16 -4h-18q-23 0 -23 14q0 12 16 31l85 104q2 3 8.5 10.5z" />
    <glyph glyph-name="wcircumflex" unicode="&#x175;" horiz-adv-x="764" 
d="M173.5 2q-6.5 2 -10.5 8t-7 19l-121 480q-1 3 -3.5 12.5t-2.5 15.5q0 9 8.5 12.5t29.5 3.5h33q15 0 22 -5.5t10 -19.5l70 -303q14 -69 15 -91h2q2 14 8 42.5t13 49.5l89 301q5 16 12.5 21t21.5 5h39q13 0 19.5 -1.5t11.5 -6.5t8 -17l86 -302q6 -22 11.5 -48t7.5 -44h2
q1 22 16 91l70 301q4 17 10 22t24 5h41q14 0 19.5 -3.5t5.5 -11.5q0 -5 -2.5 -14.5t-3.5 -13.5l-122 -482q-4 -18 -11 -23t-25 -5h-37q-18 0 -25 5t-13 22l-100 352q-3 10 -13 56h-2q-4 -19 -7.5 -33.5t-5.5 -22.5l-99 -351q-4 -18 -11 -23t-26 -5h-37q-14 0 -20.5 2z
M336 805q6 5 19 5h53q12 0 17.5 -4.5t16.5 -19.5l92 -135q2 -4 6 -9t7 -11t3 -10q0 -7 -4.5 -10.5t-11.5 -3.5h-27q-10 0 -16.5 4t-17.5 17l-92 104l-92 -104q-11 -13 -17.5 -17t-16.5 -4h-25q-7 0 -11.5 3.5t-4.5 10.5q0 5 4.5 13t10.5 17l92 135q9 14 15 19z" />
    <glyph glyph-name="Ycircumflex" unicode="&#x176;" horiz-adv-x="598" 
d="M32 687q-4 8 -7 15t-3 12q0 17 30 17h44q15 0 24 -5t17 -21l128 -260l18 -37q5 -9 9 -17.5t8 -19.5h3q6 18 13 32t8 17l13 26l126 260q6 13 14.5 19t25.5 6h40q16 0 24.5 -3.5t8.5 -11.5t-8.5 -24t-9.5 -19l-199 -373q-6 -10 -8 -18t-2 -20v-233q0 -18 -5.5 -23.5
t-23.5 -5.5h-42q-13 0 -19 2t-8 8t-2 19v232q0 12 -2 20t-8 18l-199 373q-4 7 -8 15zM242.5 944.5q6.5 7.5 13 10.5t14.5 3h60q11 0 17 -4t11.5 -10.5t7.5 -9.5l86 -104q17 -21 17 -31q0 -14 -25 -14h-18q-9 0 -16 4t-21 17l-89 77l-89 -77q-14 -13 -21 -17t-16 -4h-18
q-23 0 -23 14q0 12 16 31l85 104q2 3 8.5 10.5z" />
    <glyph glyph-name="ycircumflex" unicode="&#x177;" horiz-adv-x="517" 
d="M81.5 -201q-19.5 3 -34.5 9q-2 1 -8.5 3.5t-10.5 7t-4 10.5q0 16 11 41q4 11 8.5 17t12.5 6q6 0 23.5 -4.5t36.5 -4.5q24 0 41 9t29.5 30t24.5 57q3 9 3 15q0 8 -6 23l-187 488q-9 23 -9 31t5.5 12t21.5 4h42q13 0 19 -2t10 -7.5t8 -17.5l135 -377q3 -9 10 -37h2
q4 16 6.5 25t3.5 12l119 378q5 16 12 21t26 5h39q15 0 20.5 -3.5t5.5 -10.5t-4.5 -19.5t-5.5 -14.5l-178 -532q-24 -71 -50 -109t-59 -53t-82 -15q-17 0 -36.5 3zM210 805q6 5 19 5h53q12 0 17.5 -4.5t16.5 -19.5l92 -135q2 -4 6 -9t7 -11t3 -10q0 -7 -4.5 -10.5t-11.5 -3.5
h-27q-10 0 -16.5 4t-17.5 17l-92 104l-92 -104q-11 -13 -17.5 -17t-16.5 -4h-25q-7 0 -11.5 3.5t-4.5 10.5q0 5 4.5 13t10.5 17l92 135q9 14 15 19z" />
    <glyph glyph-name="Ydieresis" unicode="&#x178;" horiz-adv-x="598" 
d="M32 687q-4 8 -7 15t-3 12q0 17 30 17h44q15 0 24 -5t17 -21l128 -260l18 -37q5 -9 9 -17.5t8 -19.5h3q6 18 13 32t8 17l13 26l126 260q6 13 14.5 19t25.5 6h40q16 0 24.5 -3.5t8.5 -11.5t-8.5 -24t-9.5 -19l-199 -373q-6 -10 -8 -18t-2 -20v-233q0 -18 -5.5 -23.5
t-23.5 -5.5h-42q-13 0 -19 2t-8 8t-2 19v232q0 12 -2 20t-8 18l-199 373q-4 7 -8 15zM217 816h-56q-27 0 -27 27v46q0 27 27 27h56q27 0 27 -27v-46q0 -27 -27 -27zM443 816h-56q-27 0 -27 27v46q0 27 27 27h56q27 0 27 -27v-46q0 -27 -27 -27z" />
    <glyph glyph-name="Zacute" unicode="&#x179;" horiz-adv-x="597" 
d="M63.5 639q-5.5 2 -7.5 7.5t-2 18.5v38q0 13 2 18.5t7.5 7.5t18.5 2h442q17 0 22.5 -5.5t5.5 -22.5v-31q0 -18 -3 -27.5t-13 -23.5l-383 -525v-2h382q17 0 22.5 -5t5.5 -23v-38q0 -17 -5.5 -22.5t-22.5 -5.5h-475q-18 0 -23.5 5.5t-5.5 22.5v32q0 17 3.5 27t13.5 24
l384 524v2h-350q-13 0 -18.5 2zM448 935.5q5 7.5 5 13.5q0 16 -30 16h-61q-18 0 -26 -4.5t-15 -19.5l-54 -111q-5 -9 -8 -17t-3 -14q0 -14 18 -14h22q10 0 16.5 3.5t18.5 17.5l102 111q10 11 15 18.5z" />
    <glyph glyph-name="zacute" unicode="&#x17a;" horiz-adv-x="506" 
d="M61.5 472.5q-5.5 5.5 -5.5 23.5v29q0 17 5.5 22.5t22.5 5.5h354q13 0 18.5 -2t8 -8t2.5 -18v-23q0 -17 -3.5 -26.5t-15.5 -24.5l-291 -362v-2h296q13 0 18.5 -2t8 -8t2.5 -18v-31q0 -12 -2.5 -18t-8 -8t-18.5 -2h-391q-18 0 -23.5 5.5t-5.5 23.5v23q0 18 3.5 27.5
t15.5 24.5l293 361v2h-261q-17 0 -22.5 5.5zM278 611.5q-7 -4.5 -19 -4.5h-15q-21 0 -21 14q0 6 3 14t9 17l79 134q8 15 15.5 19.5t25.5 4.5h47q30 0 30 -16q0 -6 -5 -13.5t-15 -18.5l-116 -134q-11 -12 -18 -16.5z" />
    <glyph glyph-name="Zdotaccent" unicode="&#x17b;" horiz-adv-x="597" 
d="M63.5 639q-5.5 2 -7.5 7.5t-2 18.5v38q0 13 2 18.5t7.5 7.5t18.5 2h442q17 0 22.5 -5.5t5.5 -22.5v-31q0 -18 -3 -27.5t-13 -23.5l-383 -525v-2h382q17 0 22.5 -5t5.5 -23v-38q0 -17 -5.5 -22.5t-22.5 -5.5h-475q-18 0 -23.5 5.5t-5.5 22.5v32q0 17 3.5 27t13.5 24
l384 524v2h-350q-13 0 -18.5 2zM248 843v46q0 27 27 27h56q27 0 27 -27v-46q0 -27 -27 -27h-56q-27 0 -27 27z" />
    <glyph glyph-name="zdotaccent" unicode="&#x17c;" horiz-adv-x="506" 
d="M61.5 472.5q-5.5 5.5 -5.5 23.5v29q0 17 5.5 22.5t22.5 5.5h354q13 0 18.5 -2t8 -8t2.5 -18v-23q0 -17 -3.5 -26.5t-15.5 -24.5l-291 -362v-2h296q13 0 18.5 -2t8 -8t2.5 -18v-31q0 -12 -2.5 -18t-8 -8t-18.5 -2h-391q-18 0 -23.5 5.5t-5.5 23.5v23q0 18 3.5 27.5
t15.5 24.5l293 361v2h-261q-17 0 -22.5 5.5zM217.5 640q-6.5 2 -8.5 8t-2 19v42q0 13 2 19t8.5 8t20.5 2h43q15 0 21.5 -2t8.5 -8t2 -19v-42q0 -13 -2 -19t-8.5 -8t-21.5 -2h-43q-14 0 -20.5 2z" />
    <glyph glyph-name="Zcaron" unicode="&#x17d;" horiz-adv-x="597" 
d="M63.5 639q-5.5 2 -7.5 7.5t-2 18.5v38q0 13 2 18.5t7.5 7.5t18.5 2h442q17 0 22.5 -5.5t5.5 -22.5v-31q0 -18 -3 -27.5t-13 -23.5l-383 -525v-2h382q17 0 22.5 -5t5.5 -23v-38q0 -17 -5.5 -22.5t-22.5 -5.5h-475q-18 0 -23.5 5.5t-5.5 22.5v32q0 17 3.5 27t13.5 24
l384 524v2h-350q-13 0 -18.5 2zM412 954q7 4 16 4h18q25 0 25 -14q0 -10 -17 -31l-86 -104q-10 -14 -17 -19t-19 -5h-60q-11 0 -17 4t-11.5 10.5t-7.5 9.5l-85 104q-16 19 -16 31q0 14 23 14h18q9 0 16 -4t21 -17l89 -77l89 77q14 13 21 17z" />
    <glyph glyph-name="zcaron" unicode="&#x17e;" horiz-adv-x="506" 
d="M61.5 472.5q-5.5 5.5 -5.5 23.5v29q0 17 5.5 22.5t22.5 5.5h354q13 0 18.5 -2t8 -8t2.5 -18v-23q0 -17 -3.5 -26.5t-15.5 -24.5l-291 -362v-2h296q13 0 18.5 -2t8 -8t2.5 -18v-31q0 -12 -2.5 -18t-8 -8t-18.5 -2h-391q-18 0 -23.5 5.5t-5.5 23.5v23q0 18 3.5 27.5
t15.5 24.5l293 361v2h-261q-17 0 -22.5 5.5zM103.5 783q-4.5 8 -4.5 13q0 7 4.5 10.5t11.5 3.5h25q10 0 16.5 -4t17.5 -17l92 -104l92 104q11 13 17.5 17t16.5 4h27q7 0 11.5 -3.5t4.5 -10.5q0 -4 -3.5 -10.5t-7 -11t-5.5 -8.5l-92 -135q-11 -15 -16.5 -19.5t-17.5 -4.5h-53
q-13 0 -18.5 4.5t-15.5 19.5l-92 135q-6 9 -10.5 17z" />
    <glyph glyph-name="florin" unicode="&#x192;" horiz-adv-x="500" 
d="M296 707q47 38 111 38q24 0 41 -2.5t38 -9.5q18 -6 24 -11.5t5 -16.5q-1 -8 -6 -18l-6 -12q-8 -15 -13 -21t-12 -6q-9 0 -27 5q-28 8 -50 8q-29 0 -48.5 -20t-29.5 -59l-11 -45h106q10 0 14.5 -2.5t4.5 -8.5q0 -3 -3 -18l-9 -35q-3 -12 -9.5 -16.5t-23.5 -4.5h-101
l-122 -495q-17 -66 -43 -101.5t-57.5 -47.5t-73.5 -12q-40 0 -79 13q-17 6 -24 12t-7 14q0 5 3.5 13t6.5 14l12 23q6 11 16 11q4 0 17.5 -4.5t29 -8t29.5 -3.5q28 0 48.5 23t35.5 86l113 463h-85q-11 0 -15.5 2.5t-4.5 8.5t1.5 11.5t2.5 9.5l6 24q3 13 6.5 18.5t10 8
t19.5 2.5h80l11 47q21 85 68 123z" />
    <glyph glyph-name="Scommaaccent" unicode="&#x218;" horiz-adv-x="631" 
d="M520 54.5q-59 -67.5 -208 -67.5q-97 0 -188 31q-33 12 -44 20t-11 20t9 35q8 17 13.5 23.5t13.5 6.5q5 0 10.5 -1.5l11 -3t10.5 -3.5q16 -6 24 -8q35 -14 64.5 -20.5t75.5 -6.5q95 0 136.5 33.5t41.5 97.5q0 44 -14.5 69t-55 40.5t-118.5 23.5q-115 11 -168.5 64.5
t-53.5 132.5q0 55 18.5 91.5t51.5 63.5q32 25 76 37t108 12q60 0 100 -6.5t86 -20.5q20 -7 26.5 -13.5t6.5 -18.5q0 -10 -11 -38q-6 -13 -12.5 -19.5t-15.5 -6.5q-11 0 -30 7l-19 6q-34 9 -65.5 13t-74.5 4q-39 0 -65.5 -6.5t-44.5 -20.5q-17 -14 -26.5 -34.5t-9.5 -42.5
q0 -35 13.5 -56.5t50.5 -35t107 -20.5q130 -13 185 -70.5t55 -144.5q0 -99 -59 -166.5zM271 -160q-5 5 -5 20v55q0 12 2 17t7.5 7t18.5 2h50q18 0 23.5 -4.5t5.5 -20.5v-61q0 -12 -4.5 -25.5t-15.5 -32.5l-26 -44q-9 -15 -13.5 -19.5t-9.5 -4.5q-6 0 -16 5q-5 3 -9.5 6.5
t-4.5 9.5t5 16.5t6 14.5l23 54h-22q-10 0 -15 5z" />
    <glyph glyph-name="scommaaccent" unicode="&#x219;" horiz-adv-x="507" 
d="M60 29q-11 7 -11 19q0 7 1 12.5t4 12.5q4 12 11 23t15 11q7 0 16 -4q80 -26 162 -26q121 0 121 82q0 29 -9.5 45.5t-39 27.5t-90.5 16q-99 8 -145 48t-46 109q0 42 16 73.5t46 51.5q51 35 147 35q42 0 73.5 -3.5t61.5 -9.5q20 -4 35 -12.5t15 -19.5t-10 -33
q-7 -15 -12.5 -22.5t-14.5 -7.5q-5 0 -16 3.5t-21 6.5q-58 14 -115 14q-58 0 -83 -18q-12 -8 -19 -21.5t-7 -31.5q0 -29 13 -43.5t37 -20t77 -11.5q105 -12 153.5 -52.5t48.5 -115.5q0 -86 -56 -130t-163 -44q-43 0 -86 6t-74 15q-24 8 -35 15zM212 -160q-5 5 -5 20v55
q0 12 2 17t7.5 7t18.5 2h50q18 0 23.5 -4.5t5.5 -20.5v-61q0 -12 -4.5 -25.5t-15.5 -32.5l-26 -44q-9 -15 -13.5 -19.5t-9.5 -4.5q-6 0 -16 5q-5 3 -9.5 6.5t-4.5 9.5t5 16.5t6 14.5l23 54h-22q-10 0 -15 5z" />
    <glyph glyph-name="uni021A" unicode="&#x21a;" horiz-adv-x="594" 
d="M571.5 647q-2.5 -6 -8 -8t-18.5 -2h-198v-608q0 -13 -2 -18.5t-8 -8t-19 -2.5h-42q-13 0 -18.5 2t-8 8t-2.5 19v608h-199q-17 0 -22.5 5t-5.5 23v38q0 17 5.5 22.5t22.5 5.5h497q13 0 18.5 -2t8 -8t2.5 -18v-38q0 -12 -2.5 -18zM250 -160q-5 5 -5 20v55q0 12 2 17t7.5 7
t18.5 2h50q18 0 23.5 -4.5t5.5 -20.5v-61q0 -12 -4.5 -25.5t-15.5 -32.5l-26 -44q-9 -15 -13.5 -19.5t-9.5 -4.5q-6 0 -16 5q-5 3 -9.5 6.5t-4.5 9.5t5 16.5t6 14.5l23 54h-22q-10 0 -15 5z" />
    <glyph glyph-name="uni021B" unicode="&#x21b;" horiz-adv-x="380" 
d="M96.5 680.5q3.5 6.5 15.5 12.5l32 13q15 7 26 7q12 0 15.5 -7t3.5 -23v-141h144q15 0 21.5 -2t9 -8t2.5 -19v-27q0 -13 -2.5 -18.5t-9.5 -8t-22 -2.5h-143v-302q0 -31 7.5 -48.5t22 -24t37.5 -6.5q14 0 31.5 4.5t32.5 9.5q21 7 26 7q7 0 11.5 -4.5t10.5 -18.5l6 -14
t5 -14t2 -12q0 -7 -5 -11t-17 -9q-55 -23 -120 -23q-69 0 -107.5 37.5t-38.5 118.5v310h-42q-16 0 -22 6t-6 19v6q0 14 6.5 19.5t25.5 11.5q38 12 38 51v89q0 15 3.5 21.5zM191 -160q-5 5 -5 20v55q0 12 2 17t7.5 7t18.5 2h50q18 0 23.5 -4.5t5.5 -20.5v-61
q0 -12 -4.5 -25.5t-15.5 -32.5l-26 -44q-9 -15 -13.5 -19.5t-9.5 -4.5q-6 0 -16 5q-5 3 -9.5 6.5t-4.5 9.5t5 16.5t6 14.5l23 54h-22q-10 0 -15 5z" />
    <glyph glyph-name="dotlessj" unicode="&#x237;" horiz-adv-x="276" 
d="M145.5 -165.5q-40.5 -38.5 -105.5 -38.5q-25 0 -45.5 4.5t-33.5 10.5q-10 4 -15 10t-5 15t4 20t5 14q6 14 11 18.5t12 4.5q5 0 26.5 -5.5t39.5 -5.5q29 0 40 19t11 55v568q0 18 5.5 23.5t22.5 5.5h40q18 0 23 -5.5t5 -22.5v-567q0 -85 -40.5 -123.5z" />
    <glyph glyph-name="circumflex" unicode="&#x2c6;" horiz-adv-x="500" 
d="M204 805q6 5 19 5h53q12 0 17.5 -4.5t16.5 -19.5l92 -135q2 -4 6 -9t7 -11t3 -10q0 -7 -4.5 -10.5t-11.5 -3.5h-27q-10 0 -16.5 4t-17.5 17l-92 104l-92 -104q-11 -13 -17.5 -17t-16.5 -4h-25q-7 0 -11.5 3.5t-4.5 10.5q0 5 4.5 13t10.5 17l92 135q9 14 15 19z" />
    <glyph glyph-name="caron" unicode="&#x2c7;" horiz-adv-x="500" 
d="M86.5 783q-4.5 8 -4.5 13q0 7 4.5 10.5t11.5 3.5h25q10 0 16.5 -4t17.5 -17l92 -104l92 104q11 13 17.5 17t16.5 4h27q7 0 11.5 -3.5t4.5 -10.5q0 -4 -3.5 -10.5t-7 -11t-5.5 -8.5l-92 -135q-11 -15 -16.5 -19.5t-17.5 -4.5h-53q-13 0 -18.5 4.5t-15.5 19.5l-92 135
q-6 9 -10.5 17z" />
    <glyph glyph-name="uni02C9" unicode="&#x2c9;" horiz-adv-x="500" 
d="M90 681v24q0 27 27 27h266q27 0 27 -27v-24q0 -27 -27 -27h-266q-27 0 -27 27z" />
    <glyph glyph-name="breve" unicode="&#x2d8;" horiz-adv-x="500" 
d="M176 716q23 -30 74 -30t74 30t30 62q2 10 5 14.5t7.5 5.5t14.5 1h10q11 0 16 -4t5 -14q0 -57 -21.5 -96t-58 -58.5t-82.5 -19.5t-82.5 19.5t-58 58.5t-21.5 96q0 10 5 14t16 4h9q15 0 20 -3.5t8 -17.5q7 -32 30 -62z" />
    <glyph glyph-name="dotaccent" unicode="&#x2d9;" horiz-adv-x="500" 
d="M207.5 640q-6.5 2 -8.5 8t-2 19v42q0 13 2 19t8.5 8t20.5 2h43q15 0 21.5 -2t8.5 -8t2 -19v-42q0 -13 -2 -19t-8.5 -8t-21.5 -2h-43q-14 0 -20.5 2z" />
    <glyph glyph-name="ring" unicode="&#x2da;" horiz-adv-x="500" 
d="M144.5 789.5q16.5 27.5 45 43.5t62.5 16q33 0 60.5 -16.5t43.5 -44t16 -59.5q0 -34 -16 -62t-43.5 -44t-61.5 -16t-62 16t-44.5 44t-16.5 62q0 33 16.5 60.5zM194 696q9 -15 24 -24t33 -9q17 0 32 9t23.5 24t8.5 33q0 17 -9 31.5t-24 23t-32 8.5t-32 -9t-24 -23.5
t-9 -30.5q0 -18 9 -33z" />
    <glyph glyph-name="ogonek" unicode="&#x2db;" horiz-adv-x="500" 
d="M223 -118q0 -28 15 -40.5t39 -12.5q20 0 44 6q5 2 10 3.5t9 1.5q6 0 9 -3t5 -10l5 -23q2 -8 2 -11q0 -5 -2 -8t-11 -7q-14 -6 -37.5 -11t-47.5 -5q-124 0 -124 108q0 50 29 89.5t87 72.5h56v-3q-88 -75 -88 -147z" />
    <glyph glyph-name="tilde" unicode="&#x2dc;" horiz-adv-x="500" 
d="M184 693.5q-10 2.5 -21 2.5q-17 0 -27.5 -11.5t-18.5 -32.5q-3 -9 -7 -14.5t-16 -5.5h-22q-10 0 -14 6.5t-4 13.5q0 36 14 63.5t38.5 43t56.5 15.5q20 0 37.5 -4.5t38.5 -14.5l50 -25q27 -14 47 -14q18 0 28.5 11t17.5 33q3 9 7 14.5t16 5.5h22q10 0 14 -6.5t4 -13.5
q0 -34 -16.5 -62t-42 -44t-50.5 -16q-20 0 -37.5 4.5t-38.5 14.5l-50 25q-16 9 -26 11.5z" />
    <glyph glyph-name="hungarumlaut" unicode="&#x2dd;" horiz-adv-x="500" 
d="M109.5 611.5q-8.5 -4.5 -20.5 -4.5h-11q-21 0 -21 14q0 4 3.5 12.5t8.5 18.5l64 134q7 15 15 19.5t26 4.5h49q12 0 18 -2.5t6 -10.5q0 -5 -4.5 -13t-9 -13.5t-6.5 -8.5l-101 -134q-8 -12 -16.5 -16.5zM305.5 611.5q-8.5 -4.5 -20.5 -4.5h-11q-21 0 -21 14q0 4 3.5 12.5
t8.5 18.5l64 134q7 15 15 19.5t26 4.5h49q12 0 18 -2.5t6 -10.5q0 -5 -4.5 -13t-9 -13.5t-6.5 -8.5l-101 -134q-8 -12 -16.5 -16.5z" />
    <glyph glyph-name="commaaccent" unicode="&#x326;" horiz-adv-x="0" 
d="M-299 -160q-5 5 -5 20v55q0 12 2 17t7.5 7t18.5 2h50q18 0 23.5 -4.5t5.5 -20.5v-61q0 -12 -4.5 -25.5t-15.5 -32.5l-26 -44q-9 -15 -13.5 -19.5t-9.5 -4.5q-6 0 -16 5q-5 3 -9.5 6.5t-4.5 9.5t5 16.5t6 14.5l23 54h-22q-10 0 -15 5z" />
    <glyph glyph-name="uni0394" unicode="&#x394;" horiz-adv-x="685" 
d="M653 6.5q-6 -6.5 -19 -6.5h-583q-13 0 -19 6.5t-6 22.5v22q0 19 2.5 29.5t10.5 31.5l245 589q8 19 15.5 24.5t25.5 5.5h35q14 0 20 -2t9.5 -7t9.5 -19l248 -591q8 -20 10 -30.5t2 -30.5v-22q0 -16 -6 -22.5zM551 93l-183 444q-8 21 -15 43.5t-9 30.5h-3q-10 -39 -24 -74
l-182 -444h416z" />
    <glyph glyph-name="uni03A9" unicode="&#x3a9;" horiz-adv-x="732" 
d="M93 600.5q38 71.5 107.5 108t161.5 36.5h13q92 0 160.5 -37.5t105 -108.5t36.5 -171v-47q0 -97 -34.5 -167.5t-108.5 -126.5h122q11 0 16.5 -2t7 -7.5t1.5 -17.5v-33q0 -12 -1.5 -17.5t-7 -7.5t-16.5 -2h-217q-15 0 -20.5 6.5t-5.5 20.5v39q0 25 15 32q78 41 111.5 114
t33.5 172v28q0 114 -48 176.5t-154 62.5h-8q-104 0 -154 -61.5t-50 -177.5v-28q0 -99 33.5 -172t111.5 -114q15 -7 15 -32v-39q0 -14 -5.5 -20.5t-20.5 -6.5h-217q-11 0 -16.5 2t-7 7.5t-1.5 17.5v33q0 12 1.5 17.5t7 7.5t16.5 2h122q-74 56 -108.5 126.5t-34.5 167.5v47
q0 101 38 172.5z" />
    <glyph glyph-name="uni03BC" unicode="&#x3bc;" horiz-adv-x="638" 
d="M536 140q3 -30 8.5 -47t14.5 -33q5 -8 7 -14t2 -12q0 -5 -4.5 -12t-15.5 -14l-18 -11q-13 -8 -25 -8q-6 0 -11 3t-11 11q-9 14 -15 26.5t-8.5 19.5t-4.5 11h-2q-35 -39 -74.5 -55.5t-77.5 -16.5q-83 0 -115 42v-194q0 -13 -2 -18.5t-8 -7.5t-20 -2h-36q-19 0 -24.5 5.5
t-5.5 24.5v686q0 13 2 19t8 8t19 2h38q13 0 18.5 -2t8 -8t2.5 -19v-328q0 -64 27.5 -94t87.5 -30q40 0 72.5 18t51.5 41q8 10 10 17t2 26v350q0 13 2.5 19t8 8t18.5 2h38q13 0 18.5 -2t8 -8t2.5 -18v-306q0 -49 3 -79z" />
    <glyph glyph-name="pi" unicode="&#x3c0;" horiz-adv-x="632" 
d="M613.5 551q5.5 -2 7.5 -8t2 -19v-37q0 -13 -2 -18.5t-8 -8t-19 -2.5h-112v-306q0 -31 4 -48t13 -24t24 -7q13 0 27.5 4.5t17.5 4.5q5 0 8 -5.5t5.5 -12t5.5 -12.5q4 -10 6.5 -18t2.5 -14q0 -12 -24 -19q-33 -10 -57 -10q-66 0 -97 36t-31 117v314h-160v-429
q0 -18 -5.5 -23.5t-23.5 -5.5h-37q-13 0 -18.5 2t-8 8t-2.5 19v429h-3q-24 0 -45.5 -5.5t-43.5 -14.5q-17 -7 -22 -7q-13 0 -25 29q-10 23 -10 44q0 7 5 11t17 9q35 15 77.5 22t81.5 7h431q13 0 18.5 -2z" />
    <glyph glyph-name="Wgrave" unicode="&#x1e80;" horiz-adv-x="837" 
d="M595.5 201.5q4.5 -30.5 5.5 -39.5h4q1 36 10 87l96 455q3 12 6 17.5t9.5 7.5t18.5 2h47q13 0 18.5 -3t5.5 -11q0 -5 -2.5 -16t-3.5 -16l-144 -658q-4 -17 -10.5 -22t-24.5 -5h-38q-18 0 -25 5t-11 22l-117 398q-17 60 -20 101h-4q-2 -21 -8 -51t-12 -50l-116 -397
q-4 -18 -11 -23t-25 -5h-36q-13 0 -19 2t-9.5 7.5t-6.5 17.5l-144 648q-8 36 -8 41q0 9 5.5 12t19.5 3h47q18 0 24.5 -5t9.5 -22l101 -471q3 -14 5 -32.5t2 -33.5h4q3 44 9 66l116 395q4 13 7.5 19t10 8t19.5 2h35q19 0 27 -6.5t11 -20.5l112 -380q5 -18 9.5 -48.5z
M273 935.5q-5 7.5 -5 13.5q0 16 30 16h61q18 0 25.5 -4.5t15.5 -19.5l52 -111q2 -3 5 -9t5 -11.5t2 -10.5q0 -14 -21 -14h-16q-11 0 -19 5t-18 16l-102 111q-10 11 -15 18.5z" />
    <glyph glyph-name="wgrave" unicode="&#x1e81;" horiz-adv-x="764" 
d="M173.5 2q-6.5 2 -10.5 8t-7 19l-121 480q-1 3 -3.5 12.5t-2.5 15.5q0 9 8.5 12.5t29.5 3.5h33q15 0 22 -5.5t10 -19.5l70 -303q14 -69 15 -91h2q2 14 8 42.5t13 49.5l89 301q5 16 12.5 21t21.5 5h39q13 0 19.5 -1.5t11.5 -6.5t8 -17l86 -302q6 -22 11.5 -48t7.5 -44h2
q1 22 16 91l70 301q4 17 10 22t24 5h41q14 0 19.5 -3.5t5.5 -11.5q0 -5 -2.5 -14.5t-3.5 -13.5l-122 -482q-4 -18 -11 -23t-25 -5h-37q-18 0 -25 5t-13 22l-100 352q-3 10 -13 56h-2q-4 -19 -7.5 -33.5t-5.5 -22.5l-99 -351q-4 -18 -11 -23t-26 -5h-37q-14 0 -20.5 2z
M225 780.5q-5 7.5 -5 13.5q0 16 30 16h47q18 0 25.5 -4.5t15.5 -19.5l79 -134q6 -9 9 -17t3 -14q0 -14 -21 -14h-15q-12 0 -19 4.5t-18 16.5l-116 134q-10 11 -15 18.5z" />
    <glyph glyph-name="Wacute" unicode="&#x1e82;" horiz-adv-x="837" 
d="M595.5 201.5q4.5 -30.5 5.5 -39.5h4q1 36 10 87l96 455q3 12 6 17.5t9.5 7.5t18.5 2h47q13 0 18.5 -3t5.5 -11q0 -5 -2.5 -16t-3.5 -16l-144 -658q-4 -17 -10.5 -22t-24.5 -5h-38q-18 0 -25 5t-11 22l-117 398q-17 60 -20 101h-4q-2 -21 -8 -51t-12 -50l-116 -397
q-4 -18 -11 -23t-25 -5h-36q-13 0 -19 2t-9.5 7.5t-6.5 17.5l-144 648q-8 36 -8 41q0 9 5.5 12t19.5 3h47q18 0 24.5 -5t9.5 -22l101 -471q3 -14 5 -32.5t2 -33.5h4q3 44 9 66l116 395q4 13 7.5 19t10 8t19.5 2h35q19 0 27 -6.5t11 -20.5l112 -380q5 -18 9.5 -48.5z
M560 935.5q5 7.5 5 13.5q0 16 -30 16h-61q-18 0 -26 -4.5t-15 -19.5l-54 -111q-5 -9 -8 -17t-3 -14q0 -14 18 -14h22q10 0 16.5 3.5t18.5 17.5l102 111q10 11 15 18.5z" />
    <glyph glyph-name="wacute" unicode="&#x1e83;" horiz-adv-x="764" 
d="M173.5 2q-6.5 2 -10.5 8t-7 19l-121 480q-1 3 -3.5 12.5t-2.5 15.5q0 9 8.5 12.5t29.5 3.5h33q15 0 22 -5.5t10 -19.5l70 -303q14 -69 15 -91h2q2 14 8 42.5t13 49.5l89 301q5 16 12.5 21t21.5 5h39q13 0 19.5 -1.5t11.5 -6.5t8 -17l86 -302q6 -22 11.5 -48t7.5 -44h2
q1 22 16 91l70 301q4 17 10 22t24 5h41q14 0 19.5 -3.5t5.5 -11.5q0 -5 -2.5 -14.5t-3.5 -13.5l-122 -482q-4 -18 -11 -23t-25 -5h-37q-18 0 -25 5t-13 22l-100 352q-3 10 -13 56h-2q-4 -19 -7.5 -33.5t-5.5 -22.5l-99 -351q-4 -18 -11 -23t-26 -5h-37q-14 0 -20.5 2z
M393 611.5q-7 -4.5 -19 -4.5h-15q-21 0 -21 14q0 6 3 14t9 17l79 134q8 15 15.5 19.5t25.5 4.5h47q30 0 30 -16q0 -6 -5 -13.5t-15 -18.5l-116 -134q-11 -12 -18 -16.5z" />
    <glyph glyph-name="Wdieresis" unicode="&#x1e84;" horiz-adv-x="837" 
d="M595.5 201.5q4.5 -30.5 5.5 -39.5h4q1 36 10 87l96 455q3 12 6 17.5t9.5 7.5t18.5 2h47q13 0 18.5 -3t5.5 -11q0 -5 -2.5 -16t-3.5 -16l-144 -658q-4 -17 -10.5 -22t-24.5 -5h-38q-18 0 -25 5t-11 22l-117 398q-17 60 -20 101h-4q-2 -21 -8 -51t-12 -50l-116 -397
q-4 -18 -11 -23t-25 -5h-36q-13 0 -19 2t-9.5 7.5t-6.5 17.5l-144 648q-8 36 -8 41q0 9 5.5 12t19.5 3h47q18 0 24.5 -5t9.5 -22l101 -471q3 -14 5 -32.5t2 -33.5h4q3 44 9 66l116 395q4 13 7.5 19t10 8t19.5 2h35q19 0 27 -6.5t11 -20.5l112 -380q5 -18 9.5 -48.5zM332 816
h-56q-27 0 -27 27v46q0 27 27 27h56q27 0 27 -27v-46q0 -27 -27 -27zM558 816h-56q-27 0 -27 27v46q0 27 27 27h56q27 0 27 -27v-46q0 -27 -27 -27z" />
    <glyph glyph-name="wdieresis" unicode="&#x1e85;" horiz-adv-x="764" 
d="M173.5 2q-6.5 2 -10.5 8t-7 19l-121 480q-1 3 -3.5 12.5t-2.5 15.5q0 9 8.5 12.5t29.5 3.5h33q15 0 22 -5.5t10 -19.5l70 -303q14 -69 15 -91h2q2 14 8 42.5t13 49.5l89 301q5 16 12.5 21t21.5 5h39q13 0 19.5 -1.5t11.5 -6.5t8 -17l86 -302q6 -22 11.5 -48t7.5 -44h2
q1 22 16 91l70 301q4 17 10 22t24 5h41q14 0 19.5 -3.5t5.5 -11.5q0 -5 -2.5 -14.5t-3.5 -13.5l-122 -482q-4 -18 -11 -23t-25 -5h-37q-18 0 -25 5t-13 22l-100 352q-3 10 -13 56h-2q-4 -19 -7.5 -33.5t-5.5 -22.5l-99 -351q-4 -18 -11 -23t-26 -5h-37q-14 0 -20.5 2z
M237 640q-7 2 -10 8t-3 19v42q0 13 2 19t8.5 8t20.5 2h42q15 0 21.5 -2t8.5 -8t2 -19v-42q0 -13 -2.5 -19t-9.5 -8t-22 -2h-37q-14 0 -21 2zM448 640q-7 2 -10 8t-3 19v42q0 13 2 19t8.5 8t20.5 2h42q15 0 21.5 -2t8.5 -8t2 -19v-42q0 -13 -2.5 -19t-9.5 -8t-22 -2h-37
q-14 0 -21 2z" />
    <glyph glyph-name="Germandbls" unicode="&#x1e9e;" horiz-adv-x="791" 
d="M722.5 100.5q-20.5 -48.5 -73 -81.5t-142.5 -33q-61 0 -126 19q-45 13 -68 26.5t-23 25.5q0 9 12 39q6 13 10.5 20t11.5 7q6 0 14 -3t13 -5q43 -17 77.5 -26.5t78.5 -9.5q69 0 102.5 32.5t33.5 90.5q0 36 -11 58.5t-39.5 40t-83.5 35.5q-90 29 -130 72.5t-40 111.5
q0 53 22.5 84t53.5 52q-15 0 -33.5 -1t-32.5 -3q-42 -6 -76 -22.5t-58 -57.5t-24 -112v-431q0 -18 -5.5 -23.5t-23.5 -5.5h-42q-18 0 -23.5 5.5t-5.5 23.5v434q0 112 45 174.5t119.5 85t178.5 22.5q62 0 115.5 -4t91.5 -12q22 -4 28.5 -8t6.5 -14q0 -7 -1.5 -13t-1.5 -9
l-5 -26q-2 -13 -7 -18t-13 -5q-9 0 -26 3q-34 6 -62 6q-35 0 -63 -13t-43.5 -37t-15.5 -58q0 -33 12 -52.5t38.5 -33.5t80.5 -32q61 -20 99 -47t56.5 -68t18.5 -101q0 -54 -20.5 -102.5z" />
    <glyph glyph-name="Ygrave" unicode="&#x1ef2;" horiz-adv-x="598" 
d="M32 687q-4 8 -7 15t-3 12q0 17 30 17h44q15 0 24 -5t17 -21l128 -260l18 -37q5 -9 9 -17.5t8 -19.5h3q6 18 13 32t8 17l13 26l126 260q6 13 14.5 19t25.5 6h40q16 0 24.5 -3.5t8.5 -11.5t-8.5 -24t-9.5 -19l-199 -373q-6 -10 -8 -18t-2 -20v-233q0 -18 -5.5 -23.5
t-23.5 -5.5h-42q-13 0 -19 2t-8 8t-2 19v232q0 12 -2 20t-8 18l-199 373q-4 7 -8 15zM148 935.5q-5 7.5 -5 13.5q0 16 30 16h61q18 0 25.5 -4.5t15.5 -19.5l52 -111q2 -3 5 -9t5 -11.5t2 -10.5q0 -14 -21 -14h-16q-11 0 -19 5t-18 16l-102 111q-10 11 -15 18.5z" />
    <glyph glyph-name="ygrave" unicode="&#x1ef3;" horiz-adv-x="517" 
d="M81.5 -201q-19.5 3 -34.5 9q-2 1 -8.5 3.5t-10.5 7t-4 10.5q0 16 11 41q4 11 8.5 17t12.5 6q6 0 23.5 -4.5t36.5 -4.5q24 0 41 9t29.5 30t24.5 57q3 9 3 15q0 8 -6 23l-187 488q-9 23 -9 31t5.5 12t21.5 4h42q13 0 19 -2t10 -7.5t8 -17.5l135 -377q3 -9 10 -37h2
q4 16 6.5 25t3.5 12l119 378q5 16 12 21t26 5h39q15 0 20.5 -3.5t5.5 -10.5t-4.5 -19.5t-5.5 -14.5l-178 -532q-24 -71 -50 -109t-59 -53t-82 -15q-17 0 -36.5 3zM93 780.5q-5 7.5 -5 13.5q0 16 30 16h47q18 0 25.5 -4.5t15.5 -19.5l79 -134q6 -9 9 -17t3 -14q0 -14 -21 -14
h-15q-12 0 -19 4.5t-18 16.5l-116 134q-10 11 -15 18.5z" />
    <glyph glyph-name="endash" unicode="&#x2013;" horiz-adv-x="500" 
d="M9.5 261q-5.5 2 -7.5 7.5t-2 17.5v27q0 12 2 17.5t7.5 7.5t17.5 2h446q12 0 17.5 -2t7.5 -7.5t2 -17.5v-27q0 -12 -2 -17.5t-7.5 -7.5t-17.5 -2h-446q-12 0 -17.5 2z" />
    <glyph glyph-name="emdash" unicode="&#x2014;" horiz-adv-x="1000" 
d="M9.5 261q-5.5 2 -7.5 7.5t-2 17.5v27q0 12 2 17.5t7.5 7.5t17.5 2h946q12 0 17.5 -2t7.5 -7.5t2 -17.5v-27q0 -12 -2 -17.5t-7.5 -7.5t-17.5 -2h-946q-12 0 -17.5 2z" />
    <glyph glyph-name="quoteleft" unicode="&#x2018;" horiz-adv-x="249" 
d="M179.5 603q5.5 -6 5.5 -24v-63q0 -13 -2 -19t-8.5 -8t-21.5 -2h-57q-15 0 -21.5 2t-9 8t-2.5 19v63q0 14 5 29t16 36l40 75q8 15 14 20.5t11 5.5q9 0 21 -6q13 -6 13 -17q0 -6 -1 -10.5t-2.5 -7.5t-1.5 -4l-34 -91h18q12 0 17.5 -6z" />
    <glyph glyph-name="quoteright" unicode="&#x2019;" horiz-adv-x="249" 
d="M69.5 629q-5.5 6 -5.5 24v62q0 14 2 20t8 8t21 2h58q15 0 21.5 -2t9 -8.5t2.5 -19.5v-62q0 -14 -5 -29t-16 -36l-40 -75q-9 -15 -14.5 -20.5t-10.5 -5.5q-9 0 -21 6q-13 6 -13 17q0 6 1 10.5t2.5 7.5t1.5 4l34 91h-18q-12 0 -17.5 6z" />
    <glyph glyph-name="quotesinglbase" unicode="&#x201a;" horiz-adv-x="249" 
d="M69.5 6q-5.5 6 -5.5 24v62q0 14 2 20t8 8t21 2h58q15 0 21.5 -2t9 -8.5t2.5 -19.5v-62q0 -14 -5 -29t-16 -36l-40 -75q-9 -15 -14.5 -20.5t-10.5 -5.5q-9 0 -21 6q-13 6 -13 17q0 6 1 10.5t2.5 7.5t1.5 4l34 91h-18q-12 0 -17.5 6z" />
    <glyph glyph-name="quotedblleft" unicode="&#x201c;" horiz-adv-x="433" 
d="M179.5 603q5.5 -6 5.5 -24v-63q0 -13 -2 -19t-8.5 -8t-21.5 -2h-57q-15 0 -21.5 2t-9 8t-2.5 19v63q0 14 5 29t16 36l40 75q8 15 14 20.5t11 5.5q9 0 21 -6q13 -6 13 -17q0 -6 -1 -10.5t-2.5 -7.5t-1.5 -4l-34 -91h18q12 0 17.5 -6zM363.5 603q5.5 -6 5.5 -24v-63
q0 -13 -2 -19t-8.5 -8t-21.5 -2h-57q-15 0 -21.5 2t-9 8t-2.5 19v63q0 14 5 29t16 36l40 75q8 15 14 20.5t11 5.5q9 0 21 -6q13 -6 13 -17q0 -6 -1 -10.5t-2.5 -7.5t-1.5 -4l-34 -91h18q12 0 17.5 -6z" />
    <glyph glyph-name="quotedblright" unicode="&#x201d;" horiz-adv-x="433" 
d="M69.5 629q-5.5 6 -5.5 24v63q0 13 2 19t8.5 8t21.5 2h57q15 0 21.5 -2t9 -8t2.5 -19v-63q0 -14 -5 -29t-16 -36l-40 -75q-8 -15 -14 -20.5t-11 -5.5q-9 0 -21 6q-13 6 -13 17q0 6 1 10.5t2.5 7.5t1.5 4l34 91h-18q-12 0 -17.5 6zM253.5 629q-5.5 6 -5.5 24v63q0 13 2 19
t8.5 8t21.5 2h57q15 0 21.5 -2t9 -8t2.5 -19v-63q0 -14 -5 -29t-16 -36l-40 -75q-8 -15 -14 -20.5t-11 -5.5q-9 0 -21 6q-13 6 -13 17q0 6 1 10.5t2.5 7.5t1.5 4l34 91h-18q-12 0 -17.5 6z" />
    <glyph glyph-name="quotedblbase" unicode="&#x201e;" horiz-adv-x="433" 
d="M69.5 6q-5.5 6 -5.5 24v63q0 13 2 19t8.5 8t21.5 2h57q15 0 21.5 -2t9 -8t2.5 -19v-63q0 -14 -5 -29t-16 -36l-40 -75q-8 -15 -14 -20.5t-11 -5.5q-9 0 -21 6q-13 6 -13 17q0 6 1 10.5t2.5 7.5t1.5 4l34 91h-18q-12 0 -17.5 6zM253.5 6q-5.5 6 -5.5 24v63q0 13 2 19
t8.5 8t21.5 2h57q15 0 21.5 -2t9 -8t2.5 -19v-63q0 -14 -5 -29t-16 -36l-40 -75q-8 -15 -14 -20.5t-11 -5.5q-9 0 -21 6q-13 6 -13 17q0 6 1 10.5t2.5 7.5t1.5 4l34 91h-18q-12 0 -17.5 6z" />
    <glyph glyph-name="dagger" unicode="&#x2020;" horiz-adv-x="534" 
d="M472.5 459.5q-5.5 -7.5 -21.5 -7.5q-8 0 -20 1.5t-22 2.5l-116 15l12 -61q3 -15 6.5 -37.5t3.5 -32.5q0 -18 -1.5 -42t-1.5 -33l-16 -296q-2 -46 -5 -66.5t-8 -26.5t-14 -6q-12 0 -17.5 6t-8 25.5t-5.5 68.5l-15 295q0 14 -2 36q-2 28 -2 39q0 8 3.5 31.5t6.5 38.5l12 61
l-123 -16q-6 -1 -18 -2.5t-19 -1.5q-15 0 -20 8t-5 29v19q0 20 6 28t24 8q6 0 32 -3l123 -16l-18 132q-1 7 -3.5 23.5t-2.5 24.5q0 17 8 22t30 5h24q21 0 29 -5t8 -21q0 -10 -3 -24l-3 -25l-17 -132l116 15q28 4 37 4q17 0 24.5 -8.5t7.5 -27.5v-19q0 -21 -5.5 -28.5z" />
    <glyph glyph-name="daggerdbl" unicode="&#x2021;" horiz-adv-x="534" 
d="M227.5 231q-8.5 62 -8.5 69q2 25 9 77t13 94l-123 -16q-6 -1 -18 -2.5t-19 -1.5q-15 0 -20 8t-5 29v19q0 20 6 28t24 8q6 0 32 -3l123 -16l-18 132q-1 7 -3.5 23.5t-2.5 24.5q0 17 8 22t30 5h24q21 0 29 -5t8 -21q0 -9 -2.5 -25.5t-3.5 -23.5l-17 -132l116 15q28 4 38 4
q16 0 23.5 -9t7.5 -27v-19q0 -21 -5.5 -28.5t-21.5 -7.5q-8 0 -20 1.5t-22 2.5l-116 15q6 -42 13 -94t9 -77q-2 -27 -9 -79.5t-13 -90.5l116 15q10 1 22 2.5t20 1.5q16 0 21.5 -7.5t5.5 -28.5v-19q0 -19 -7.5 -27.5t-24.5 -8.5q-9 0 -37 4l-116 15l17 -132l3 -25
q3 -14 3 -24q0 -16 -8 -21t-29 -5h-24q-22 0 -30 5t-8 22q0 8 2.5 24.5t3.5 23.5l18 132l-123 -16q-5 -1 -14.5 -2t-17.5 -1q-18 0 -24 8t-6 28v19q0 21 5 29t20 8q7 0 19 -1.5t18 -2.5l125 -16q-7 39 -15.5 101z" />
    <glyph glyph-name="bullet" unicode="&#x2022;" horiz-adv-x="491" 
d="M331.5 487q38.5 -23 61 -62.5t22.5 -84.5q0 -46 -22.5 -85t-61.5 -62t-85 -23q-47 0 -86 23t-61.5 62.5t-22.5 86.5q0 46 23 84.5t62.5 61t86.5 22.5q45 0 83.5 -23z" />
    <glyph glyph-name="ellipsis" unicode="&#x2026;" horiz-adv-x="1000" 
d="M106 2q-7 2 -9.5 8t-2.5 19v64q0 13 2 19t8 8t21 2h59q15 0 21.5 -2t8.5 -8t2 -19v-64q0 -13 -2.5 -19t-9.5 -8t-22 -2h-54q-15 0 -22 2zM451 2q-7 2 -9.5 8t-2.5 19v64q0 13 2 19t8 8t21 2h59q15 0 21.5 -2t8.5 -8t2 -19v-64q0 -13 -2.5 -19t-9.5 -8t-22 -2h-54
q-15 0 -22 2zM796 2q-7 2 -9.5 8t-2.5 19v64q0 13 2 19t8 8t21 2h59q15 0 21.5 -2t8.5 -8t2 -19v-64q0 -13 -2.5 -19t-9.5 -8t-22 -2h-54q-15 0 -22 2z" />
    <glyph glyph-name="perthousand" unicode="&#x2030;" horiz-adv-x="1200" 
d="M332.5 426.5q-40.5 -40.5 -112.5 -40.5h-15q-70 0 -110 41t-40 126v23q0 87 40 128t113 41h16q70 0 109.5 -40.5t39.5 -125.5v-23q0 -89 -40.5 -129.5zM719 731q0 -5 -4 -12t-7.5 -11t-4.5 -6l-489 -692q-11 -15 -19 -19.5t-26 -4.5h-20q-20 0 -29 3t-9 10t4 15t10 16
l489 691q11 15 19 19.5t26 4.5h22q38 0 38 -14zM143 503.5q6 -22.5 21.5 -34t45.5 -11.5h7q29 0 45 12t22 34.5t6 58.5v6q0 38 -6.5 60.5t-23 33.5t-46.5 11q-31 0 -48 -11.5t-23 -34t-6 -59.5v-6q0 -37 6 -59.5zM622 -14h-16q-70 0 -109.5 41t-39.5 126v22q0 170 153 170
h16q69 0 108.5 -41t39.5 -126v-22q0 -170 -152 -170zM993 -14h-16q-70 0 -109.5 41t-39.5 126v22q0 170 153 170h16q69 0 108.5 -41t39.5 -126v-22q0 -170 -152 -170zM545 103.5q6 -22.5 21.5 -34t44.5 -11.5h8q29 0 45 11.5t22 34t6 58.5v7q0 37 -6.5 59.5t-23 34
t-46.5 11.5q-32 0 -48.5 -11.5t-22.5 -34t-6 -59.5v-7q0 -36 6 -58.5zM916 103.5q6 -22.5 21.5 -34t44.5 -11.5h8q29 0 45 11.5t22 34t6 58.5v7q0 37 -6.5 59.5t-23 34t-46.5 11.5q-32 0 -48.5 -11.5t-22.5 -34t-6 -59.5v-7q0 -36 6 -58.5z" />
    <glyph glyph-name="guilsinglleft" unicode="&#x2039;" horiz-adv-x="343" 
d="M285 83q9 -13 9 -21q0 -16 -30 -16h-35q-17 0 -24.5 1.5t-12.5 6.5t-15 18l-112 151q-11 14 -13.5 21.5t-2.5 23.5v18q0 14 2.5 22.5t13.5 22.5l112 151q10 13 15 18t12.5 6.5t24.5 1.5h35q12 0 21 -4t9 -12q0 -7 -9 -21l-140 -194z" />
    <glyph glyph-name="guilsinglright" unicode="&#x203a;" horiz-adv-x="340" 
d="M49 492q0 8 9 12t21 4h35q17 0 24.5 -1.5t12.5 -6.5t15 -18l112 -151q11 -14 13.5 -22.5t2.5 -22.5v-18q0 -16 -2.5 -23.5t-13.5 -21.5l-112 -151q-10 -13 -15 -18t-12.5 -6.5t-24.5 -1.5h-35q-30 0 -30 16q0 8 9 21l140 194l-140 194q-9 14 -9 21z" />
    <glyph glyph-name="fraction" unicode="&#x2044;" horiz-adv-x="203" 
d="M402 731q0 -5 -4 -12t-7.5 -11t-4.5 -6l-489 -692q-11 -15 -19 -19.5t-26 -4.5h-30q-9 0 -13.5 3t-4.5 10t4 15t10 16l489 691q1 2 7.5 11t13 11t18.5 2h30q26 0 26 -14z" />
    <glyph glyph-name="zero.superior" unicode="&#x2070;" 
d="M66.5 851.5q39.5 50.5 125.5 50.5h13q86 0 125.5 -50.5t39.5 -146.5v-64q0 -96 -39.5 -146.5t-125.5 -50.5h-12q-166 0 -166 197v64q0 96 39.5 146.5zM132.5 547q17.5 -31 61.5 -31h9q42 0 60.5 32t18.5 94v62q0 62 -18.5 94t-60.5 32h-14q-41 0 -57.5 -31.5t-16.5 -94.5
v-62q0 -64 17.5 -95z" />
    <glyph glyph-name="four.superior" unicode="&#x2074;" 
d="M231.5 888.5q-6.5 -4.5 -16.5 -18.5l-186 -246q-6 -9 -7.5 -14t-1.5 -17v-9q0 -12 2 -17.5t7.5 -7.5t16.5 -2h175v-86q0 -10 4 -14t14 -4h40q9 0 13.5 4t4.5 14v86h58q7 0 11 3.5t4 13.5v35q0 11 -3.5 13.5t-11.5 2.5h-58v246q0 14 -3.5 18t-16.5 4h-30q-9 0 -15.5 -4.5z
M221 625h-114l116 156q-2 -46 -2 -156z" />
    <glyph glyph-name="five.superior" unicode="&#x2075;" 
d="M169 738q28 8 54 8q73 0 106.5 -39t33.5 -100q0 -42 -15.5 -79t-52.5 -60.5t-97 -23.5q-62 0 -114 27q-24 13 -36.5 26t-12.5 23q0 9 4 15t14 14q7 6 14 10t12 4q11 0 23 -11q17 -14 39 -25t56 -11q40 0 60 22t20 63q0 78 -74 78q-55 0 -82 -35q-7 -12 -10 -14t-11 -2
q-13 0 -36 9q-15 7 -15 13l1 16l20 202q1 11 3 16t7.5 7t16.5 2h223q11 0 15 -4t4 -15v-34q0 -11 -5.5 -15t-16.5 -4h-180l-11 -106q15 15 43 23z" />
    <glyph glyph-name="six.superior" unicode="&#x2076;" 
d="M147 806.5q-23 -23.5 -23 -79.5v-13q11 13 36.5 25t58.5 12q73 0 113.5 -39t40.5 -107q0 -78 -43.5 -119.5t-122.5 -41.5q-80 0 -123.5 41.5t-43.5 137.5v97q0 85 39 133.5t132 48.5q31 0 59 -4.5t47 -11.5q20 -8 27 -13.5t7 -14.5q0 -4 -3 -11t-8 -16q-6 -11 -10 -15.5
t-12 -4.5q-7 0 -15.5 3t-13.5 4q-19 5 -36.5 8.5t-42.5 3.5q-40 0 -63 -23.5zM267.5 537.5q19.5 21.5 19.5 65.5q0 38 -21.5 58t-59.5 20q-37 0 -60 -20t-23 -58q0 -87 83 -87q42 0 61.5 21.5z" />
    <glyph glyph-name="seven.superior" unicode="&#x2077;" 
d="M239 752q17 25 26.5 40t12.5 28h-154v-45q0 -11 -4.5 -15.5t-17.5 -4.5h-28q-12 0 -16 4.5t-4 16.5v95q0 13 4 17t18 4h266q12 0 16.5 -4t4.5 -16v-17q0 -23 -8.5 -46.5t-21 -45.5t-36.5 -59q-6 -8 -16 -24q-25 -38 -38 -67.5t-18 -56.5t-5 -61v-12q0 -19 -5.5 -24.5
t-24.5 -5.5h-24q-12 0 -18 2.5t-8 8.5t-2 20q0 58 16 109t49 104q16 26 36 55z" />
    </font>
</defs>
</svg>
