<?xml version="1.0" standalone="no"?>
<!DOCTYPE svg PUBLIC "-//W3C//DTD SVG 1.1//EN" "http://www.w3.org/Graphics/SVG/1.1/DTD/svg11.dtd" >
<svg xmlns="http://www.w3.org/2000/svg" xmlns:xlink="http://www.w3.org/1999/xlink" version="1.1">
<metadata>
Created by FontForge 20201107 at Mon Jun  1 19:16:17 2015
 By Unknown
Copyright (c) 2015 Monotype Imaging Inc.  All rights reserved.
</metadata>
<defs>
<font id="DaytonaPro-Cond" horiz-adv-x="313" >
  <font-face 
    font-family="DaytonaPro-Cond"
    font-weight="400"
    font-stretch="condensed"
    units-per-em="1000"
    panose-1="2 11 6 6 3 5 3 4 2 4"
    ascent="785"
    descent="-215"
    x-height="553"
    cap-height="731"
    bbox="-230 -274 900 1015"
    underline-thickness="50"
    underline-position="-125"
    unicode-range="U+000D-FB04"
  />
<missing-glyph horiz-adv-x="375" 
d="M375 0h-375v718h375v-718zM37 667v-617h302v617h-302zM236.5 592.5q20.5 -16.5 32.5 -46t12 -68.5q0 -33 -9.5 -60t-36.5 -60q-20 -24 -27 -37.5t-8.5 -29t-1.5 -57.5h-33l-2 17q0 38 4 60t12.5 38.5t27.5 41.5q23 31 29.5 47t6.5 36q0 24 -7.5 43t-20 30.5t-27.5 11.5
q-24 0 -40 -23t-20 -72l-37 8q5 69 31.5 103t67.5 34q26 0 46.5 -16.5zM204 117h-41v67h41v-67z" />
    <glyph glyph-name="ff" unicode="ff" horiz-adv-x="518" 
d="M468.5 745.5q17.5 -4.5 35.5 -11.5q13 -6 19 -12t6 -13q0 -8 -6 -26q-4 -12 -8 -17.5t-10 -5.5q-4 0 -8.5 1.5t-11.5 4.5q-26 12 -44 12q-26 0 -39 -23t-13 -66v-49h97q15 0 19.5 -4.5t4.5 -20.5v-20q0 -17 -4.5 -22t-19.5 -5h-97v-441q0 -17 -4 -22t-19 -5h-33
q-15 0 -19.5 5t-4.5 22v441h-156v-441q0 -17 -4 -22t-19 -5h-34q-14 0 -18.5 5t-4.5 22v441h-34q-13 0 -17 5t-4 17v5q0 13 4.5 18.5t20.5 9.5t23 14t7 25v34q0 77 31.5 115.5t86.5 38.5q41 0 77 -18q10 -5 15 -10t5 -13q0 -9 -6 -26q-4 -12 -8 -17.5t-9 -5.5q-4 0 -8.5 1.5
t-10.5 4.5q-26 12 -44 12q-24 0 -36.5 -21.5t-12.5 -65.5v-51h156v55q0 78 31 116.5t87 38.5q24 0 41.5 -4.5z" />
    <glyph glyph-name="ffi" unicode="ffi" horiz-adv-x="706" 
d="M498 732q10 -5 15 -10t5 -13q0 -13 -5 -26q-8 -23 -18 -23q-4 0 -7.5 1t-6.5 2.5l-5 2.5q-26 12 -42 12q-45 0 -45 -87v-51h83q14 0 18.5 -4.5t4.5 -20.5v-20q0 -17 -4.5 -22t-18.5 -5h-83v-441q0 -17 -3.5 -22t-18.5 -5h-34q-15 0 -19.5 5t-4.5 22v441h-156v-441
q0 -17 -4 -22t-19 -5h-34q-14 0 -18.5 5t-4.5 22v441h-34q-13 0 -17 5t-4 17v5q0 13 4.5 18.5t20.5 9.5t23 14t7 25v34q0 77 31.5 115.5t86.5 38.5q41 0 77 -18q10 -5 15 -10t5 -13q0 -9 -6 -26q-4 -12 -8 -17.5t-9 -5.5q-7 0 -19 6q-26 12 -44 12q-24 0 -36.5 -21.5
t-12.5 -65.5v-51h156v57q0 77 29 115t83 38q41 0 77 -18zM627 738q5 -2 6.5 -7.5t1.5 -17.5v-53q0 -16 -4.5 -21t-20.5 -5h-37q-15 0 -20 5t-5 21v53q0 17 4.5 22t19.5 5h39q11 0 16 -2zM624.5 551q4.5 -2 6 -7t1.5 -16v-502q0 -16 -4.5 -21t-19.5 -5h-34q-10 0 -14.5 2
t-6 7t-1.5 17v501q0 16 4 21t17 5h36q11 0 15.5 -2z" />
    <glyph glyph-name="ffl" unicode="ffl" horiz-adv-x="725" 
d="M463.5 745q20.5 -5 34.5 -13q10 -5 15 -10t5 -13q0 -11 -5 -26q-8 -23 -18 -23q-7 0 -19 6q-26 12 -42 12q-45 0 -45 -87v-51h83q14 0 18.5 -4.5t4.5 -20.5v-20q0 -17 -4.5 -22t-18.5 -5h-83v-441q0 -17 -4 -22t-19 -5h-33q-15 0 -19.5 5t-4.5 22v441h-156v-441
q0 -17 -4 -22t-19 -5h-34q-14 0 -18.5 5t-4.5 22v441h-34q-13 0 -17 5t-4 17v5q0 13 4.5 18.5t20.5 9.5t23 14t7 25v34q0 77 31.5 115.5t86.5 38.5q41 0 77 -18q10 -5 15 -10t5 -13q0 -9 -6 -26q-4 -11 -8 -17t-9 -6q-7 0 -19 6q-26 12 -44 12q-24 0 -36.5 -21.5
t-12.5 -65.5v-51h156v57q0 78 29 115.5t83 37.5q22 0 42.5 -5zM628 732q4 -5 4 -21v-558q0 -50 9 -69t29 -19q10 0 21 5.5t14 5.5q6 0 9 -4t7 -16l3 -9t3.5 -12t1.5 -11q0 -7 -4 -11t-12 -8q-23 -14 -62 -14q-99 0 -99 155v565q0 16 4 21t18 5h35q15 0 19 -5z" />
    <glyph glyph-name="f_i" unicode="fi" horiz-adv-x="486" 
d="M262 732q10 -5 15 -10t5 -13t-6 -26q-5 -13 -8.5 -18t-9.5 -5q-4 0 -8.5 1.5t-10.5 4.5q-10 5 -21 8.5t-21 3.5q-21 0 -32.5 -20.5t-11.5 -66.5v-51h82q15 0 19.5 -4.5t4.5 -20.5v-20q0 -17 -4.5 -22t-18.5 -5h-83v-441q0 -17 -4 -22t-19 -5h-34q-14 0 -18.5 5t-4.5 22
v441h-34q-13 0 -17 5t-4 17v5q0 13 4.5 18.5t20.5 9.5t23 14t7 25v35q0 77 29.5 115t81.5 38q40 0 78 -18zM410.5 735q4.5 -5 4.5 -22v-53q0 -16 -5 -21t-20 -5h-37q-16 0 -20.5 5t-4.5 21v53q0 12 1.5 17.5t6.5 7.5t16 2h39q15 0 19.5 -5zM404.5 551q4.5 -2 5.5 -7t1 -16
v-502q0 -16 -4 -21t-18 -5h-35q-15 0 -19 4.5t-4 21.5v501q0 16 4 21t19 5h35q11 0 15.5 -2z" />
    <glyph glyph-name="f_l" unicode="fl" horiz-adv-x="490" 
d="M262 732q10 -5 15 -10t5 -13t-6 -26q-5 -13 -8.5 -18t-9.5 -5q-4 0 -8.5 1.5t-10.5 4.5q-10 5 -21 8.5t-21 3.5q-21 0 -32.5 -20.5t-11.5 -66.5v-51h82q15 0 19.5 -4.5t4.5 -20.5v-20q0 -17 -4.5 -22t-18.5 -5h-83v-441q0 -17 -4 -22t-19 -5h-34q-14 0 -18.5 5t-4.5 22
v441h-34q-13 0 -17 5t-4 17v5q0 13 4.5 18.5t20.5 9.5t23 14t7 25v35q0 77 29.5 115t81.5 38q40 0 78 -18zM393 732q4 -5 4 -21v-558q0 -48 8 -68t28 -20q11 0 22 5t14 5q6 0 9 -4t8 -15q4 -10 6 -17t2 -13q0 -8 -4 -12.5t-12 -8.5q-10 -6 -26.5 -10t-35.5 -4
q-100 0 -100 155v565q0 16 4.5 21t18.5 5h36q14 0 18 -5z" />
    <glyph glyph-name=".notdef" horiz-adv-x="375" 
d="M375 0h-375v718h375v-718zM37 667v-617h302v617h-302zM236.5 592.5q20.5 -16.5 32.5 -46t12 -68.5q0 -33 -9.5 -60t-36.5 -60q-20 -24 -27 -37.5t-8.5 -29t-1.5 -57.5h-33l-2 17q0 38 4 60t12.5 38.5t27.5 41.5q23 31 29.5 47t6.5 36q0 24 -7.5 43t-20 30.5t-27.5 11.5
q-24 0 -40 -23t-20 -72l-37 8q5 69 31.5 103t67.5 34q26 0 46.5 -16.5zM204 117h-41v67h41v-67z" />
    <glyph glyph-name=".null" horiz-adv-x="0" 
 />
    <glyph glyph-name="nonmarkingreturn" horiz-adv-x="333" 
 />
    <glyph glyph-name="NULL" horiz-adv-x="600" 
 />
    <glyph glyph-name="CR" unicode="&#xd;" horiz-adv-x="232" 
 />
    <glyph glyph-name="space" unicode=" " horiz-adv-x="232" 
 />
    <glyph glyph-name="exclam" unicode="!" horiz-adv-x="218" 
d="M147 735q5 -2 6.5 -7t1.5 -18l-13 -475q-1 -18 -6 -23t-21 -5h-13q-16 0 -21 5.5t-5 22.5l-13 475q0 12 1.5 17.5t7 7.5t16.5 2h42q12 0 17 -2zM151 115q5 -2 7 -7.5t2 -18.5v-62q0 -17 -5 -22t-22 -5h-47q-17 0 -22 5t-5 23v61q0 13 1.5 18.5t7 7.5t16.5 2h50
q12 0 17 -2z" />
    <glyph glyph-name="quotedbl" unicode="&#x22;" horiz-adv-x="322" 
d="M118.5 742.5q5.5 -2.5 7 -9t1.5 -21.5v-52v-29q0 -19 -1 -28l-16 -119q-1 -16 -6 -22t-16 -6h-3q-12 0 -17 5.5t-7 22.5l-11 119q-2 32 -2 57v52q0 15 1.5 21.5t6.5 9t16 2.5h30q11 0 16.5 -2.5zM265.5 742.5q5.5 -2.5 7.5 -9t2 -21.5v-52q0 -31 -3 -57l-14 -119
q-2 -16 -7 -22t-16 -6h-3q-13 0 -17 5.5t-6 22.5l-12 119q-4 32 -4 57v52q0 15 2 21.5t7 9t16 2.5h31q11 0 16.5 -2.5z" />
    <glyph glyph-name="numbersign" unicode="#" horiz-adv-x="470" 
d="M456 482q0 -5 -1 -8l-4 -25q-2 -13 -6.5 -17t-15.5 -4h-68l-24 -165h67q9 0 13.5 -3t4.5 -10q0 -5 -1 -9l-5 -26q-3 -13 -7 -16.5t-15 -3.5h-69l-25 -166q-2 -18 -6.5 -23.5t-15.5 -5.5h-29q-9 0 -12.5 3t-3.5 13q0 8 1 14l25 165h-99l-25 -168q-3 -17 -7.5 -22t-15.5 -5
h-28q-9 0 -13 3.5t-4 13.5q0 7 1 11l25 167h-69q-9 0 -12.5 3t-3.5 10q0 6 1 10l5 23q3 13 7.5 17.5t15.5 4.5h68l23 165h-70q-9 0 -12.5 3t-3.5 10q0 6 1 10l5 25q2 12 6 16t14 4h72l25 168q3 17 7 22t15 5h28q9 0 13 -3t4 -12q0 -7 -1 -11l-24 -169h98l26 170
q2 16 6.5 20.5t15.5 4.5h28q9 0 13 -3t4 -12q0 -7 -1 -11l-25 -169h69q15 0 15 -14zM294 428h-99l-24 -165h100z" />
    <glyph glyph-name="dollar" unicode="$" horiz-adv-x="483" 
d="M402.5 79.5q-40.5 -56.5 -133.5 -65.5v-79q0 -13 -3.5 -18t-13.5 -5h-17q-11 0 -14.5 4.5t-3.5 18.5v78q-82 5 -142 37q-19 9 -28 17t-9 18q0 9 9 29q5 13 10.5 18.5t11.5 5.5q8 0 30 -13q28 -15 55.5 -24t62.5 -11v253q-93 20 -133 65.5t-40 122.5q0 92 56 145
q23 21 54 33.5t63 14.5v78q0 14 3.5 18.5t14.5 4.5h16q12 0 15 -4t3 -19v-79q36 -2 61 -8t51 -17q18 -7 25 -13t7 -14q0 -9 -10 -34q-5 -12 -9.5 -17t-11.5 -5q-5 0 -16 4.5t-22 8.5q-30 9 -42.5 12t-32.5 4v-227q95 -16 134.5 -67t39.5 -128q0 -86 -40.5 -142.5zM143.5 462
q20.5 -27 73.5 -38v220q-21 -2 -37.5 -8.5t-30.5 -20.5q-13 -14 -19.5 -35t-6.5 -46q0 -45 20.5 -72zM363 213q0 38 -8 60.5t-28 37t-58 22.5v-242q94 14 94 122z" />
    <glyph glyph-name="percent" unicode="%" horiz-adv-x="643" 
d="M257.5 704q31.5 -41 31.5 -122v-27q0 -82 -33 -123.5t-87 -41.5h-12q-55 0 -87.5 40.5t-32.5 121.5v29q0 83 33 123.5t88 40.5h14q54 0 85.5 -41zM543 742.5q5 -2.5 5 -9.5q0 -4 -3.5 -12t-9.5 -18l-362 -693q-8 -15 -14.5 -19.5t-20.5 -4.5h-22q-11 0 -16.5 2.5
t-5.5 8.5q0 4 2.5 10.5t5.5 12t5 9.5l362 692q8 15 14.5 19.5t19.5 4.5h24q11 0 16 -2.5zM118 658q-14 -27 -14 -82v-16q0 -55 13.5 -82t43.5 -27h4q31 0 44 27.5t13 81.5v16q0 55 -14 82t-45 27t-45 -27zM574.5 300q31.5 -41 31.5 -122v-26q0 -82 -32.5 -124t-86.5 -42h-13
q-55 0 -87 41t-32 121v28q0 84 33 124.5t88 40.5h14q53 0 84.5 -41zM435.5 254q-13.5 -27 -13.5 -83v-16q0 -54 13.5 -81t42.5 -27h5q30 0 43 27.5t13 81.5v15q0 56 -14 83t-45 27t-44.5 -27z" />
    <glyph glyph-name="ampersand" unicode="&#x26;" horiz-adv-x="628" 
d="M593 467q4 -5 4 -19v-29q0 -15 -4 -19t-18 -4h-45q-21 -139 -72 -237q20 -40 46.5 -60.5t61.5 -20.5h5q13 0 17 -5.5t4 -20.5v-26q0 -15 -5 -20.5t-18 -5.5h-15q-49 0 -86 21.5t-63 69.5q-39 -53 -83.5 -77.5t-95.5 -24.5q-57 0 -97.5 28.5t-61.5 78.5t-21 113
q0 62 18 108t50.5 71t73.5 26q-37 30 -59 74t-22 98q0 42 16 78.5t49.5 58.5t82.5 22q35 0 60.5 -9.5t46.5 -22.5q11 -7 14 -12t3 -12q0 -10 -7 -28q-6 -14 -10.5 -19.5t-11.5 -5.5q-5 0 -12.5 4.5l-17.5 10.5q-29 18 -59 18q-33 0 -52 -25t-19 -67q0 -37 14 -66t32 -48
t57 -55q33 -31 50.5 -50.5t34.5 -49t34 -76.5q16 44 25.5 81.5t13.5 82.5h-42q-15 0 -19.5 4.5t-4.5 19.5v29q0 13 4.5 18t19.5 5h167q13 0 17 -5zM302.5 88.5q34.5 24.5 60.5 73.5q-26 88 -64 141t-83 53q-27 0 -47 -17.5t-31 -50.5t-11 -77q0 -40 12.5 -73.5t36 -53.5
t56.5 -20q36 0 70.5 24.5z" />
    <glyph glyph-name="quotesingle" unicode="'" horiz-adv-x="175" 
d="M118.5 742.5q5.5 -2.5 7 -9t1.5 -21.5v-52v-29q0 -19 -1 -28l-16 -119q-1 -16 -6 -22t-16 -6h-3q-12 0 -17 5.5t-7 22.5l-11 119q-2 32 -2 57v52q0 15 1.5 21.5t6.5 9t16 2.5h30q11 0 16.5 -2.5z" />
    <glyph glyph-name="parenleft" unicode="(" horiz-adv-x="294" 
d="M257 785l14 -15q9 -9 9 -16q0 -6 -9 -17q-59 -75 -94 -188t-35 -247q0 -130 35 -243.5t96 -192.5q7 -8 7 -15t-9 -16l-13 -15q-11 -11 -17 -11q-7 0 -16 10q-80 96 -124.5 217.5t-44.5 271.5q0 144 45.5 266t123.5 211q9 10 15 10q7 0 17 -10z" />
    <glyph glyph-name="parenright" unicode=")" horiz-adv-x="294" 
d="M69 785q80 -96 124.5 -217.5t44.5 -271.5q0 -144 -45.5 -266t-123.5 -211q-9 -10 -15 -10q-7 0 -17 10l-14 15q-9 9 -9 16q0 6 9 17q59 75 94 188t35 247q0 130 -35 243.5t-96 192.5q-7 8 -7 15t9 16l13 15q11 11 17 11q7 0 16 -10z" />
    <glyph glyph-name="asterisk" unicode="*" horiz-adv-x="355" 
d="M246 739l27 -16q12 -7 12 -16q0 -4 -3 -10l-4 -8l-70 -118l2 -5l102 18q3 1 9 1q8 0 12 -6t4 -19v-27q0 -13 -3.5 -19t-12.5 -6q-6 0 -9 1l-102 16l-3 -3l71 -119q6 -9 6 -16q0 -9 -12 -17l-24 -17q-8 -5 -14 -5q-11 0 -17 19l-37 135h-4l-37 -136q-4 -18 -16 -18
q-6 0 -16 6l-24 15q-11 7 -11 15t7 19l70 118l-2 4l-104 -16q-3 -1 -9 -1q-9 0 -12.5 5.5t-3.5 19.5v27q0 14 3.5 19.5t11.5 5.5q6 0 10 -1l102 -19l3 6l-68 116q-7 13 -7 20q0 9 11 16l25 16q9 6 15 6q11 0 15 -18l37 -136h4l37 136q2 9 5.5 13.5t8.5 4.5q6 0 15 -6z" />
    <glyph glyph-name="plus" unicode="+" horiz-adv-x="494" 
d="M279.5 618q4.5 -5 4.5 -21v-190h138q14 0 18.5 -4.5t4.5 -19.5v-24q0 -15 -4.5 -20t-18.5 -5h-138v-189q0 -16 -4.5 -20.5t-18.5 -4.5h-28q-10 0 -14.5 2t-6 7t-1.5 16v189h-139q-14 0 -18 4.5t-4 20.5v24q0 15 4 19.5t18 4.5h139v190q0 16 3.5 21t18.5 5h28
q14 0 18.5 -5z" />
    <glyph glyph-name="comma" unicode="," horiz-adv-x="199" 
d="M144.5 112.5q4.5 -4.5 4.5 -20.5v-55q0 -19 -5 -36.5t-17 -46.5l-26 -66q-6 -15 -11 -19.5t-10 -4.5q-8 0 -18 7q-12 5 -12 16q0 6 2.5 13t3.5 11l27 89h-15q-9 0 -14 5t-5 19v66q0 12 2 17.5t7.5 7.5t17.5 2h48q16 0 20.5 -4.5z" />
    <glyph glyph-name="hyphen" unicode="-" horiz-adv-x="265" 
d="M222.5 338q4.5 -2 6 -7t1.5 -16v-28q0 -12 -1.5 -17t-6 -7t-15.5 -2h-148q-11 0 -16 2t-6.5 7t-1.5 17v28q0 16 4 20.5t20 4.5h148q11 0 15.5 -2z" />
    <glyph glyph-name="period" unicode="." horiz-adv-x="199" 
d="M141.5 115.5q4.5 -1.5 6 -6.5t1.5 -17v-67q0 -16 -4.5 -20.5t-19.5 -4.5h-51q-15 0 -20 4.5t-5 20.5v67q0 16 4 20.5t19 4.5h54q11 0 15.5 -1.5z" />
    <glyph glyph-name="slash" unicode="/" horiz-adv-x="363" 
d="M345 731q0 -3 -3.5 -12t-5.5 -15l-247 -698q-4 -13 -10.5 -17.5t-16.5 -4.5h-29q-10 0 -14.5 3t-4.5 10q0 5 3.5 14.5t5.5 13.5l248 698q4 13 10.5 17.5t16.5 4.5h30q17 0 17 -14z" />
    <glyph glyph-name="zero" unicode="0" horiz-adv-x="483" 
d="M397.5 665.5q44.5 -79.5 44.5 -233.5v-133q0 -154 -45 -233.5t-150 -79.5h-12q-73 0 -115.5 36t-60.5 104.5t-18 174.5v129q0 158 45.5 236.5t148.5 78.5h12q106 0 150.5 -79.5zM237 667q-42 0 -66 -25.5t-34 -76t-10 -131.5v-137q0 -81 9.5 -131.5t33.5 -76t66 -25.5h10
q42 0 65.5 25.5t33.5 76t10 131.5v137q0 81 -9.5 131.5t-33.5 76t-67 25.5h-8z" />
    <glyph glyph-name="one" unicode="1" horiz-adv-x="483" 
d="M300.5 726q4.5 -5 4.5 -21v-627h114q14 0 18.5 -5t4.5 -21v-27q0 -15 -4 -20t-19 -5h-315q-14 0 -18.5 5t-4.5 21v26q0 16 4.5 21t18.5 5h116v473q0 33 2 65h-2q-7 -8 -16.5 -18.5t-19.5 -20.5l-58 -54q-5 -5 -9 -7.5t-8 -2.5q-3 0 -7 3t-7 6.5t-5 5.5l-18 20q-3 5 -5 9
t-2 8q0 9 13 21l138 130q9 9 15.5 12t16.5 3h34q14 0 18.5 -5z" />
    <glyph glyph-name="two" unicode="2" horiz-adv-x="483" 
d="M346 722q40 -23 60.5 -64.5t20.5 -98.5q0 -58 -15.5 -98t-45.5 -70t-80 -62l-40 -27q-58 -39 -78.5 -92.5t-20.5 -122.5v-7h258q15 0 19 -4.5t4 -21.5v-29q0 -16 -4 -20.5t-19 -4.5h-324q-14 0 -18.5 5t-4.5 21v32q0 77 15 134.5t49 103.5t92 84l34 22q51 33 71.5 66.5
t20.5 83.5q0 52 -24.5 82.5t-71.5 30.5q-45 0 -71 -27.5t-38 -68.5q-3 -9 -7 -13.5t-11 -4.5q-14 0 -33 11q-11 6 -16 13t-5 16q0 18 9.5 41.5t25.5 44.5q28 37 65 52.5t87 15.5q56 0 96 -23z" />
    <glyph glyph-name="three" unicode="3" horiz-adv-x="483" 
d="M363 696.5q45 -48.5 45 -136.5q0 -57 -25 -102t-76 -62v-1q58 -12 88.5 -58.5t30.5 -125.5q0 -65 -20.5 -116t-64 -80t-109.5 -29q-94 0 -154 52q-18 15 -30 32t-12 28q0 15 19 31q10 8 18 13t14 5t11.5 -4.5t13.5 -14.5q25 -31 53.5 -46.5t63.5 -15.5q36 0 60.5 20.5
t36.5 54.5t12 76q0 69 -27.5 102t-90.5 33h-42q-10 0 -14.5 1.5t-6 7t-1.5 16.5v28q0 16 4 20.5t19 4.5h38q56 0 80 36.5t24 84.5q0 54 -24.5 84.5t-71.5 30.5q-25 0 -45.5 -7.5t-38.5 -22.5q-6 -4 -15 -11.5t-15 -11t-12 -3.5q-7 0 -13.5 4.5t-14.5 16.5q-8 10 -11 16.5
t-3 12.5q0 18 34 43q29 21 62 31.5t79 10.5q86 0 131 -48.5z" />
    <glyph glyph-name="four" unicode="4" horiz-adv-x="483" 
d="M361.5 726q4.5 -5 4.5 -21v-455h61q14 0 18.5 -5t4.5 -22v-25q0 -12 -1.5 -17.5t-6.5 -7.5t-15 -2h-61v-145q0 -12 -2 -17t-6.5 -7t-14.5 -2h-39q-15 0 -19 4.5t-4 21.5v145h-230q-14 0 -18.5 5t-4.5 22v20q0 10 2.5 19t8.5 20l243 454q6 11 12.5 15.5t17.5 4.5h31
q14 0 18.5 -5zM282 573q-7 -16 -25 -50l-10 -19l-93 -177l-21 -37q-6 -12 -12 -22.5t-11 -19.5v-2q44 4 101 4h70v261q0 24 2 62h-1z" />
    <glyph glyph-name="five" unicode="5" horiz-adv-x="483" 
d="M390.5 726.5q3.5 -4.5 3.5 -20.5v-29q0 -12 -1.5 -17t-5.5 -6.5t-14 -1.5h-205l-15 -165q-3 -20 -5 -33.5t-3 -18.5h2q15 24 45 37t70 13q85 0 125.5 -64t40.5 -168q0 -63 -17 -123.5t-59.5 -102t-114.5 -41.5q-51 0 -89 15t-69 45q-17 17 -27 33t-10 27q0 6 4 12t12 14
q12 12 18.5 17t13.5 5q6 1 11.5 -4.5t15.5 -18.5q24 -33 52.5 -49.5t62.5 -16.5q54 0 81.5 47.5t27.5 133.5q0 78 -25 119t-78 41q-33 0 -56.5 -17t-40.5 -53q-4 -8 -9 -12t-12 -4q-8 0 -21.5 2.5t-21.5 4.5q-9 4 -11.5 8t-2.5 11q0 12 3 31l2 20l26 310q2 16 6 20t17 4h256
q14 0 17.5 -4.5z" />
    <glyph glyph-name="six" unicode="6" horiz-adv-x="483" 
d="M386 712q15 -8 22 -14t7 -13q0 -11 -10 -31q-6 -14 -10 -19.5t-11 -5.5q-5 0 -13 4l-10 5q-23 12 -45.5 20t-53.5 8q-58 0 -89 -46.5t-31 -158.5q0 -22 -2 -46h2q14 26 26 37q20 20 45 29.5t57 9.5q86 -1 126.5 -65.5t40.5 -177.5q0 -129 -48 -195.5t-141 -66.5
q-96 0 -145 67.5t-49 217.5v165q0 141 47 225t157 84q64 0 128 -33zM173.5 372.5q-27.5 -39.5 -27.5 -122.5q0 -93 25.5 -139t77.5 -46q52 1 76 46.5t24 133.5q0 167 -99 167q-49 0 -76.5 -39.5z" />
    <glyph glyph-name="seven" unicode="7" horiz-adv-x="483" 
d="M431.5 726.5q3.5 -4.5 3.5 -19.5v-14q0 -49 -13 -99t-32.5 -96.5t-56.5 -123.5q-5 -10 -9 -19t-8 -16q-28 -59 -44 -136.5t-16 -162.5v-15q0 -16 -4 -20.5t-18 -4.5h-42q-10 0 -14.5 2t-6 7.5t-1.5 17.5q0 100 19 189t61 177l14 30q38 79 58.5 132.5t22.5 95.5h-204v-89
q0 -15 -4.5 -19.5t-18.5 -4.5h-33q-12 0 -16.5 5t-4.5 19v143q0 12 1.5 17.5t6.5 7t17 1.5h327q12 0 15.5 -4.5z" />
    <glyph glyph-name="eight" unicode="8" horiz-adv-x="483" 
d="M340 723q41 -22 62.5 -63t21.5 -97q0 -66 -25 -108t-73 -69v-2q54 -30 84.5 -76.5t30.5 -120.5q0 -59 -21.5 -104.5t-65.5 -71.5t-111 -26q-103 0 -152.5 54.5t-49.5 145.5q0 141 114 197v2q-44 27 -69.5 68t-25.5 105q0 57 21.5 99.5t62.5 65.5t98 23t98 -22zM191.5 655
q-21.5 -14 -33.5 -39t-12 -57q0 -45 22.5 -77t77.5 -59q44 20 67.5 52t23.5 81q0 54 -25 83.5t-70 29.5q-29 0 -50.5 -14zM153.5 281.5q-25.5 -36.5 -25.5 -93.5t30.5 -91.5t83.5 -34.5q34 0 59.5 16t39 44.5t13.5 65.5q0 41 -13.5 69.5t-39 48.5t-69.5 42
q-53 -30 -78.5 -66.5z" />
    <glyph glyph-name="nine" unicode="9" horiz-adv-x="483" 
d="M379 677.5q49 -67.5 49 -217.5v-181q0 -138 -46.5 -215.5t-157.5 -77.5q-67 0 -129 34q-15 8 -21.5 14t-6.5 14q0 11 9 29q6 14 10 19.5t11 5.5t24 -10q22 -12 44.5 -19.5t54.5 -7.5q38 0 64.5 18t41 63t14.5 124q0 22 2 46h-2q-10 -20 -27 -37q-20 -20 -43 -29.5
t-53 -9.5q-89 0 -130.5 64t-41.5 179q0 130 47.5 196t141.5 66q96 0 145 -67.5zM156 619q-24 -46 -24 -133q0 -86 24.5 -126.5t75.5 -40.5q48 0 76 39.5t28 122.5q0 93 -25.5 139t-77.5 46q-53 -1 -77 -47z" />
    <glyph glyph-name="colon" unicode=":" horiz-adv-x="256" 
d="M170.5 470.5q4.5 -1.5 6 -6.5t1.5 -17v-67q0 -16 -4.5 -20.5t-20.5 -4.5h-50q-16 0 -20.5 4.5t-4.5 20.5v67q0 16 4.5 20.5t18.5 4.5h54q11 0 15.5 -1.5zM170.5 115.5q4.5 -1.5 6 -6.5t1.5 -17v-67q0 -16 -4.5 -20.5t-20.5 -4.5h-50q-16 0 -20.5 4.5t-4.5 20.5v67
q0 15 4.5 20t18.5 5h54q11 0 15.5 -1.5z" />
    <glyph glyph-name="semicolon" unicode=";" horiz-adv-x="257" 
d="M171 470.5q5 -1.5 6.5 -6.5t1.5 -17v-67q0 -16 -5 -20.5t-20 -4.5h-51q-15 0 -20 4.5t-5 20.5v67q0 15 5 20t18 5h54q11 0 16 -1.5zM173 112.5q5 -4.5 5 -20.5v-55q0 -17 -5 -33t-18 -50l-25 -66q-11 -24 -21 -24q-9 0 -19 7q-11 5 -11 16q0 10 6 24l27 89h-16
q-9 0 -13.5 5t-4.5 19v66q0 12 2 17.5t7.5 7.5t17.5 2h47q16 0 21 -4.5z" />
    <glyph glyph-name="less" unicode="&#x3c;" horiz-adv-x="494" 
d="M440.5 609q1.5 -4 1.5 -13v-33q0 -15 -3 -20.5t-14 -12.5l-287 -159v-2l287 -160q11 -6 14 -12t3 -21v-35q0 -8 -1.5 -12t-6.5 -4q-3 0 -6 1.5t-6 3.5l-353 197q-11 6 -14.5 13.5t-3.5 22.5v17q0 13 5 19.5t17 13.5l348 196q1 1 5.5 2.5t7.5 1.5q5 0 6.5 -4z" />
    <glyph glyph-name="equal" unicode="=" horiz-adv-x="494" 
d="M440 518.5q4 -4.5 4 -20.5v-23q0 -16 -4 -20.5t-19 -4.5h-349q-14 0 -18 4.5t-4 20.5v23q0 16 4 20.5t18 4.5h349q15 0 19 -4.5zM440 283.5q4 -4.5 4 -20.5v-23q0 -16 -4 -20.5t-19 -4.5h-349q-14 0 -18 4.5t-4 20.5v23q0 16 4 20.5t18 4.5h349q15 0 19 -4.5z" />
    <glyph glyph-name="greater" unicode="&#x3e;" horiz-adv-x="494" 
d="M53.5 129q-1.5 4 -1.5 13v33q0 15 3 20.5t14 12.5l287 159v2l-287 160q-11 6 -14 12t-3 21v35q0 8 1.5 12t6.5 4q3 0 6 -1.5t6 -3.5l353 -197q11 -6 14.5 -13.5t3.5 -22.5v-17q0 -13 -5 -19.5t-17 -13.5l-348 -196q-1 -1 -5.5 -2.5t-7.5 -1.5q-5 0 -6.5 4z" />
    <glyph glyph-name="question" unicode="?" horiz-adv-x="351" 
d="M260.5 725q34.5 -20 53 -59t18.5 -94q0 -61 -17 -107t-59 -101q-32 -41 -43 -72t-11 -80v-14q0 -9 -2.5 -12t-10.5 -3h-42q-9 0 -13 4t-5 16q-1 8 -1 25q0 57 14.5 99t46.5 85q31 43 44.5 77.5t13.5 77.5q0 48 -18 74t-55 26q-67 0 -80 -110q-3 -19 -18 -17q-5 0 -17 1.5
t-27 5.5q-15 5 -15 21q0 23 6 46.5t15 43.5q20 41 55 64t86 23q47 0 81.5 -20zM207 115.5q5 -1.5 6.5 -6.5t1.5 -17v-67q0 -16 -4.5 -20.5t-19.5 -4.5h-52q-15 0 -19.5 4.5t-4.5 20.5v67q0 15 4.5 20t18.5 5h53q11 0 16 -1.5z" />
    <glyph glyph-name="at" unicode="@" horiz-adv-x="744" 
d="M572.5 698q69.5 -47 103 -131t33.5 -195q0 -94 -24.5 -169t-66.5 -117.5t-93 -42.5q-39 0 -62 26.5t-25 68.5h-1q-18 -43 -48.5 -69t-68.5 -26q-36 0 -62 22.5t-39.5 64t-13.5 96.5q0 86 23 151t67 100.5t104 35.5q31 0 57 -4t56 -11q10 -2 15 -6t5 -11q0 -6 -5 -39
l-25 -176q-9 -58 -9 -93q0 -32 10 -46.5t29 -14.5q30 0 55 34t39.5 94.5t14.5 135.5q0 84 -23.5 151t-78.5 108t-144 41q-87 0 -153 -55t-102 -151t-36 -216q0 -115 29.5 -199t88 -130t142.5 -46q57 0 100.5 15t73.5 35q8 5 14 7.5t11 2.5t9.5 -5t9.5 -16q1 -2 3.5 -10.5
t2.5 -17.5q0 -5 -3 -9t-9 -9q-42 -29 -98 -45t-119 -16q-99 0 -172 51.5t-112.5 151.5t-39.5 241q0 139 44 250.5t126.5 175.5t192.5 64q105 0 174.5 -47zM333.5 416q-27.5 -28 -41.5 -77t-14 -112q0 -53 14.5 -84t40.5 -31q24 0 44.5 15t31.5 48q7 15 11.5 34t8.5 48
l25 181q-22 6 -55 6q-38 0 -65.5 -28z" />
    <glyph glyph-name="A" unicode="A" horiz-adv-x="525" 
d="M302.5 727.5q5.5 -3.5 9.5 -18.5l190 -660q6 -23 6 -34q0 -8 -4 -11.5t-17 -3.5h-46q-12 0 -16 5t-9 22l-49 190h-211l-51 -194q-3 -14 -7.5 -18.5t-15.5 -4.5h-43q-12 0 -17.5 3.5t-5.5 11.5q0 9 7 32l187 661q4 14 10 18.5t20 4.5h42q15 0 20.5 -3.5zM260 626
q-7 -44 -16 -73l-68 -257h170l-67 261l-17 69h-2z" />
    <glyph glyph-name="B" unicode="B" horiz-adv-x="528" 
d="M417.5 686q44.5 -45 44.5 -142q0 -56 -22.5 -96.5t-68.5 -57.5v-2q115 -27 115 -183q0 -101 -44.5 -153t-137.5 -52h-197q-11 0 -16 2.5t-7 8.5t-2 20v673q0 17 4.5 22t19.5 5h173q94 0 138.5 -45zM166 653v-233h111q49 0 73.5 29.5t24.5 87.5q0 42 -9 67t-31.5 37
t-62.5 12h-106zM166 342v-264h121q57 0 84.5 29.5t27.5 101.5q0 48 -9.5 76.5t-32 42.5t-60.5 14h-131z" />
    <glyph glyph-name="C" unicode="C" horiz-adv-x="483" 
d="M347.5 736.5q35.5 -8.5 69.5 -27.5q14 -9 19 -14.5t5 -14.5t-7 -25q-6 -15 -11.5 -22t-12.5 -7q-5 0 -13 3.5t-15 7t-10 5.5q-46 24 -97 24q-54 0 -85 -31t-43 -86t-12 -137v-95q0 -95 15.5 -150t46 -78.5t78.5 -23.5q33 0 63 12t54 30q9 6 16 9.5t13 3.5t10.5 -4.5
t11.5 -18.5q4 -8 6 -15.5t2 -13.5q0 -10 -6 -17t-23 -19q-29 -21 -68.5 -33.5t-85.5 -12.5q-114 0 -167 80.5t-53 246.5v104q0 160 53.5 244t166.5 84q44 0 79.5 -8.5z" />
    <glyph glyph-name="D" unicode="D" horiz-adv-x="562" 
d="M414 693.5q52 -37.5 76 -111t24 -186.5v-50q0 -111 -22.5 -187t-76 -117.5t-143.5 -41.5h-166q-11 0 -16 2t-6.5 8t-1.5 19v674q0 13 1.5 18.5t6.5 7.5t16 2h171q85 0 137 -37.5zM166 652v-573h100q64 0 99 29.5t49 86.5t14 149v36q0 99 -14.5 158t-48.5 86.5t-93 27.5
h-106z" />
    <glyph glyph-name="E" unicode="E" horiz-adv-x="468" 
d="M417 726.5q4 -4.5 4 -20.5v-29q0 -16 -4 -21t-18 -5h-233v-226h167q15 0 19 -5t4 -21v-28q0 -16 -4.5 -20.5t-18.5 -4.5h-167v-266h244q14 0 18 -4.5t4 -21.5v-29q0 -16 -4 -20.5t-18 -4.5h-304q-11 0 -16 2t-6.5 8t-1.5 19v675q0 12 1.5 17.5t6.5 7.5t16 2h293
q14 0 18 -4.5z" />
    <glyph glyph-name="F" unicode="F" horiz-adv-x="439" 
d="M415.5 726q4.5 -5 4.5 -21v-29q0 -16 -4.5 -21t-18.5 -5h-231v-243h166q10 0 14.5 -2t6 -7.5t1.5 -17.5v-28q0 -11 -1.5 -16t-6 -7t-14.5 -2h-166v-302q0 -16 -4 -20.5t-19 -4.5h-38q-15 0 -19 4.5t-4 20.5v678q0 13 1.5 18.5t6.5 7.5t16 2h291q14 0 18.5 -5z" />
    <glyph glyph-name="G" unicode="G" horiz-adv-x="555" 
d="M450 713q16 -8 21 -14t5 -14q0 -9 -7 -28q-6 -14 -11 -20.5t-12 -6.5q-5 0 -12.5 2.5t-18.5 6.5q-36 14 -59 20.5t-57 6.5q-58 0 -94 -24.5t-53 -79t-17 -147.5v-86q0 -102 17 -159.5t51.5 -81t92.5 -23.5q43 0 73 16q16 9 22.5 17.5t6.5 22.5v209h-113q-14 0 -18 5
t-4 22v25q0 17 4 22t18 5h176q13 0 17 -5t4 -21v-299q0 -17 -6 -26t-22 -21q-71 -51 -167 -51q-127 0 -183 86t-56 249v95q0 163 59.5 246t186.5 83q90 0 156 -32z" />
    <glyph glyph-name="H" unicode="H" horiz-adv-x="588" 
d="M498.5 729.5q4.5 -1.5 6 -6.5t1.5 -17v-680q0 -12 -1.5 -17t-6 -7t-15.5 -2h-38q-15 0 -19.5 5t-4.5 21v322h-255v-323q0 -16 -4 -20.5t-19 -4.5h-38q-15 0 -19 4.5t-4 21.5v679q0 17 4 21.5t19 4.5h38q15 0 19 -4.5t4 -20.5v-279h255v279q0 16 5 20.5t19 4.5h38
q11 0 15.5 -1.5z" />
    <glyph glyph-name="I" unicode="I" horiz-adv-x="346" 
d="M304 726.5q4 -4.5 4 -21.5v-21q0 -17 -4 -21.5t-18 -4.5h-71v-585h71q14 0 18 -4.5t4 -20.5v-21q0 -12 -1.5 -17.5t-6 -7.5t-14.5 -2h-226q-14 0 -18 5t-4 22v21q0 16 4 20.5t18 4.5h71v585h-71q-10 0 -14.5 2t-6 7.5t-1.5 17.5v21q0 11 1.5 16t6 7t14.5 2h226
q14 0 18 -4.5z" />
    <glyph glyph-name="J" unicode="J" horiz-adv-x="398" 
d="M319.5 726q4.5 -5 4.5 -22v-507q0 -98 -37 -155.5t-119 -57.5q-52 0 -85 22.5t-53 65.5q-16 32 -16 50q0 8 5 13.5t19 14.5q10 5 17 8t12 3q8 0 13.5 -7.5t12.5 -26.5q13 -33 31 -48.5t43 -15.5q36 0 54.5 33t18.5 97v459h-101q-14 0 -18.5 5t-4.5 21v26q0 17 4.5 22
t18.5 5h161q15 0 19.5 -5z" />
    <glyph glyph-name="K" unicode="K" horiz-adv-x="509" 
d="M469 728.5q6 -2.5 6 -9.5q0 -6 -4.5 -14.5t-12.5 -18.5l-208 -295l225 -338q4 -6 11 -16t9 -15t2 -9q0 -13 -19 -13h-53q-12 0 -18.5 4t-13.5 15l-197 310q-6 9 -11 12.5t-14 3.5h-5v-319q0 -16 -4.5 -21t-18.5 -5h-38q-15 0 -19 4.5t-4 21.5v679q0 17 4 21.5t19 4.5h38
q14 0 18.5 -5t4.5 -21v-280h5q6 0 10.5 3.5t10.5 12.5l178 270q7 11 14.5 15.5t20.5 4.5h46q12 0 18 -2.5z" />
    <glyph glyph-name="L" unicode="L" horiz-adv-x="424" 
d="M161.5 726q4.5 -5 4.5 -21v-624h221q14 0 18.5 -5t4.5 -21v-29q0 -17 -4 -21.5t-19 -4.5h-281q-11 0 -16 2t-6.5 8.5t-1.5 21.5v673q0 17 4 21.5t19 4.5h38q14 0 18.5 -5z" />
    <glyph glyph-name="M" unicode="M" horiz-adv-x="676" 
d="M592 726.5q4 -4.5 4 -20.5v-680q0 -17 -4 -21.5t-19 -4.5h-37q-14 0 -18 5t-4 21v445q0 20 0.5 48.5t1.5 51.5h-2q-17 -67 -27 -95l-108 -297q-4 -13 -10 -19.5t-18 -6.5h-22q-14 0 -21 5.5t-12 19.5l-109 300q-17 49 -26 94h-2q2 -20 3 -47t1 -50v-450q0 -15 -4.5 -20
t-19.5 -5h-34q-15 0 -19 4.5t-4 21.5v679q0 17 4 21.5t19 4.5h38q18 0 24.5 -4t12.5 -19l145 -398l13 -42h1q12 37 15 47l143 395q5 14 11.5 17.5t21.5 3.5h44q14 0 18 -4.5z" />
    <glyph glyph-name="N" unicode="N" horiz-adv-x="593" 
d="M506.5 726.5q4.5 -4.5 4.5 -20.5v-680q0 -16 -4 -21t-19 -5h-37q-12 0 -18 4t-14 18l-222 466q-10 22 -21.5 50.5t-15.5 46.5h-2q3 -42 3 -116v-443q0 -17 -4 -21.5t-19 -4.5h-33q-14 0 -18.5 5t-4.5 21v679q0 16 4.5 21t18.5 5h35q13 0 19.5 -4.5t13.5 -18.5l227 -481
q10 -21 20 -48t13 -34h1l-1 22q-2 48 -2 70v469q0 16 4.5 20.5t18.5 4.5h33q15 0 19.5 -4.5z" />
    <glyph glyph-name="O" unicode="O" horiz-adv-x="564" 
d="M457.5 663.5q58.5 -81.5 58.5 -246.5v-100q0 -171 -60.5 -251t-171.5 -80h-7q-107 0 -168 78t-61 251v98q0 178 62 255t169 77h7q113 0 171.5 -81.5zM278 666q-52 0 -83.5 -27.5t-45.5 -83.5t-14 -144v-91q0 -88 14.5 -144t46 -83.5t82.5 -27.5h6q78 0 111.5 66t33.5 192
v85q0 126 -33 192t-112 66h-6z" />
    <glyph glyph-name="P" unicode="P" horiz-adv-x="508" 
d="M474 517q0 -115 -49.5 -169.5t-150.5 -54.5h-108v-267q0 -17 -4 -21.5t-19 -4.5h-38q-15 0 -19 4.5t-4 21.5v678q0 12 1.5 17.5t6.5 7.5t16 2h173q195 0 195 -214zM166 652v-281h106q43 0 68 16t35.5 47.5t10.5 81.5q0 48 -10.5 77.5t-34.5 44t-66 14.5h-109z" />
    <glyph glyph-name="Q" unicode="Q" horiz-adv-x="564" 
d="M457.5 663.5q58.5 -81.5 58.5 -246.5v-100q0 -130 -35 -206q11 -13 23.5 -23.5t24.5 -20.5q5 -4 12.5 -9t10 -8t2.5 -8q0 -3 -1.5 -8t-2.5 -8l-8 -22q-2 -8 -6.5 -13t-10.5 -5t-14 4t-13 7.5t-8 5.5q-28 20 -51 43q-60 -60 -155 -60h-7q-107 0 -168 78t-61 251v98
q0 178 62 255t169 77h7q113 0 171.5 -81.5zM278 666q-52 0 -83.5 -27.5t-45.5 -83.5t-14 -144v-91q0 -88 14.5 -144t46 -83.5t82.5 -27.5h7q31 0 53.5 11t40.5 30l-113 153q-5 8 -8.5 14.5t-3.5 11.5q0 6 2.5 10.5t8.5 10.5l15 14q10 10 19 10q11 0 21 -16l94 -134
q9 30 12 66t3 79v84q0 126 -32.5 191.5t-111.5 65.5h-7z" />
    <glyph glyph-name="R" unicode="R" horiz-adv-x="533" 
d="M401.5 706.5q45.5 -24.5 64 -72t18.5 -120.5q0 -88 -34.5 -142.5t-99.5 -69.5l138 -257q13 -23 13 -31t-5.5 -11t-17.5 -3h-33q-18 0 -26 3t-14 16l-132 250q-6 13 -14 18t-21 5h-72v-266q0 -16 -4 -21t-19 -5h-39q-14 0 -18 4.5t-4 21.5v677q0 12 2 18t7 8t15 2h172
q78 0 123.5 -24.5zM166 653v-283h104q67 0 97.5 33.5t30.5 108.5q0 51 -12.5 81.5t-40.5 45t-76 14.5h-103z" />
    <glyph glyph-name="S" unicode="S" horiz-adv-x="477" 
d="M320.5 738q29.5 -7 56.5 -19q20 -8 27 -14.5t7 -14.5q0 -6 -3.5 -16.5t-4.5 -14.5q-6 -14 -10.5 -20t-12.5 -6q-6 0 -17 5.5t-20 8.5q-25 10 -45 14.5t-47 4.5q-25 0 -46 -9t-35 -25q-14 -17 -21.5 -37.5t-7.5 -42.5q0 -33 10.5 -55.5t36.5 -39.5t73 -29
q94 -24 136.5 -76t42.5 -143q0 -56 -18.5 -106t-64 -83t-120.5 -33q-85 0 -155 39q-20 11 -28 19t-8 17q0 12 8 31q6 14 12 20.5t13 6.5q6 0 12.5 -3.5t15.5 -8.5q34 -22 63.5 -32t65.5 -10q41 0 67 20t37.5 50.5t11.5 64.5q0 44 -11.5 71.5t-39.5 46t-79 30.5
q-90 22 -129 72t-39 128q0 45 15 82.5t42 62.5q54 51 141 51q39 0 68.5 -7z" />
    <glyph glyph-name="T" unicode="T" horiz-adv-x="443" 
d="M425 726.5q4 -4.5 4 -20.5v-30q0 -12 -2 -17t-6.5 -7t-14.5 -2h-142v-624q0 -16 -4 -21t-19 -5h-39q-14 0 -18.5 5t-4.5 21v624h-142q-11 0 -15.5 2t-6 7t-1.5 17v29q0 17 4 21.5t19 4.5h369q15 0 19 -4.5z" />
    <glyph glyph-name="U" unicode="U" horiz-adv-x="570" 
d="M491.5 726q4.5 -5 4.5 -21v-451q0 -127 -50.5 -197.5t-154.5 -70.5h-19q-99 0 -148.5 69t-49.5 200v450q0 16 4.5 21t18.5 5h38q10 0 14.5 -2t6 -7t1.5 -17v-440q0 -104 31.5 -150t96.5 -46q46 0 73.5 20.5t40 63.5t12.5 113v439q0 16 4.5 21t18.5 5h38q15 0 19.5 -5z
" />
    <glyph glyph-name="V" unicode="V" horiz-adv-x="509" 
d="M483 728q5 -3 5 -12q0 -11 -5 -28l-174 -665q-3 -15 -9.5 -19t-20.5 -4h-43q-17 0 -22 4t-9 20l-179 663q-1 4 -3.5 13.5t-2.5 14.5q0 9 4.5 12.5t17.5 3.5h47q11 0 15 -4t8 -18l129 -520q5 -23 10 -51q1 -6 2 -13.5t3 -15.5h1q12 67 15 79l126 519q4 15 9.5 19.5
t18.5 4.5h40q12 0 17 -3z" />
    <glyph glyph-name="W" unicode="W" horiz-adv-x="633" 
d="M609.5 728.5q3.5 -2.5 3.5 -8.5q0 -8 -3 -25l-104 -672q-2 -14 -7 -18.5t-17 -4.5h-42q-12 0 -17 4.5t-7 18.5l-82 416q-5 23 -10.5 55.5t-6.5 54.5h-2q-3 -27 -7 -56t-9 -51l-81 -418q-3 -15 -8 -19.5t-16 -4.5h-43q-11 0 -16 4.5t-7 18.5l-105 670q-3 18 -3 25t3.5 10
t12.5 3h45q13 0 17 -4.5t6 -17.5l70 -505q5 -44 6 -63h2q4 39 11 75l77 404q3 14 7.5 18.5t17.5 4.5h44q12 0 17 -5.5t8 -17.5l77 -393q12 -55 14 -86h3q4 57 9 94l66 474q2 14 7 18t17 4h40q9 0 12.5 -2.5z" />
    <glyph glyph-name="X" unicode="X" horiz-adv-x="504" 
d="M460.5 728.5q4.5 -2.5 4.5 -8.5q0 -5 -2.5 -11.5t-5 -11t-3.5 -6.5l-153 -308l164 -336q6 -12 9.5 -20.5t3.5 -14.5q0 -7 -5 -9.5t-15 -2.5h-46q-12 0 -17.5 4t-11.5 18l-131 289l-132 -290q-6 -13 -12 -17t-17 -4h-47q-19 0 -19 13q0 4 2.5 10.5t5.5 13t6 11.5l166 334
l-150 303q-2 4 -5.5 10.5t-5.5 12t-2 9.5q0 14 19 14h48q10 0 16 -4.5t12 -16.5l115 -255l117 255q5 13 11 17t18 4h47q11 0 15.5 -2.5z" />
    <glyph glyph-name="Y" unicode="Y" horiz-adv-x="451" 
d="M430 728q5 -3 5 -9t-4.5 -18t-6.5 -17l-149 -390q-1 -2 -3.5 -9t-3.5 -13.5t-1 -13.5v-232q0 -17 -4 -21.5t-18 -4.5h-38q-16 0 -20 4.5t-4 21.5v231q0 11 -2 18.5t-7 18.5l-147 390q-5 11 -8 20t-3 15q0 12 17 12h48q10 0 15.5 -4t9.5 -15l94 -268q12 -33 26 -88h2
q9 39 24 88l93 268q3 10 8.5 14.5t15.5 4.5h48q8 0 13 -3z" />
    <glyph glyph-name="Z" unicode="Z" horiz-adv-x="454" 
d="M416 726.5q4 -4.5 4 -20.5v-29q0 -14 -2.5 -22t-8.5 -21l-285 -551v-2h282q11 0 15.5 -2t6 -7t1.5 -17v-30q0 -16 -4 -20.5t-19 -4.5h-357q-15 0 -19 4.5t-4 20.5v30q0 14 2.5 21.5t10.5 21.5l283 550v2h-259q-10 0 -14.5 2t-6 7t-1.5 17v30q0 16 4 20.5t18 4.5h334
q15 0 19 -4.5z" />
    <glyph glyph-name="bracketleft" unicode="[" horiz-adv-x="286" 
d="M264.5 824q4.5 -2 6 -7t1.5 -17v-21q0 -12 -1.5 -17.5t-6 -7.5t-14.5 -2h-83v-870h83q14 0 18 -4.5t4 -21.5v-22q0 -16 -4 -21t-19 -5h-139q-11 0 -16.5 2t-7.5 8.5t-2 19.5v957q0 14 2 20t7.5 8.5t16.5 2.5h140q10 0 14.5 -2z" />
    <glyph glyph-name="backslash" unicode="\" horiz-adv-x="362" 
d="M82 741q6 -4 10 -17l246 -696q3 -9 5.5 -16t2.5 -12q0 -8 -4.5 -11.5t-15.5 -3.5h-25q-12 0 -18 4t-11 17l-245 695q-8 22 -8 29q0 8 4.5 11.5t14.5 3.5h26q12 0 18 -4z" />
    <glyph glyph-name="bracketright" unicode="]" horiz-adv-x="286" 
d="M21.5 -190q-4.5 2 -6 7t-1.5 17v21q0 12 1.5 17.5t6 7.5t14.5 2h83v870h-83q-14 0 -18 4.5t-4 21.5v22q0 16 4 21t19 5h139q11 0 16.5 -2t7.5 -8.5t2 -19.5v-957q0 -14 -2 -20t-7.5 -8.5t-16.5 -2.5h-140q-10 0 -14.5 2z" />
    <glyph glyph-name="asciicircum" unicode="^" horiz-adv-x="494" 
d="M281.5 738.5q6.5 -4.5 13.5 -21.5l120 -316q6 -15 10 -26.5t4 -17.5q0 -14 -20 -14h-29q-12 0 -18 4.5t-11 18.5l-103 291h-2l-105 -290q-5 -14 -10 -19t-17 -5h-29q-21 0 -21 16q0 5 4 16.5t10 26.5l119 315q7 17 14 21.5t24 4.5h22q18 0 24.5 -4.5z" />
    <glyph glyph-name="underscore" unicode="_" horiz-adv-x="375" 
d="M371 -62q4 -4 4 -19v-22q0 -11 -1.5 -16.5t-6 -7t-14.5 -1.5h-331q-10 0 -14.5 1.5t-6 6.5t-1.5 17v21q0 16 4 20t18 4h331q14 0 18 -4z" />
    <glyph glyph-name="grave" unicode="`" horiz-adv-x="375" 
d="M187.5 803q5.5 -5 13.5 -21l62 -129q4 -8 6.5 -14.5t2.5 -11.5q0 -6 -5 -9.5t-15 -3.5h-10q-11 0 -18.5 5t-14.5 14l-86 127q-3 4 -7.5 10.5t-7.5 13t-3 10.5q0 7 5 10.5t16 3.5h43q13 0 18.5 -5z" />
    <glyph glyph-name="a" unicode="a" horiz-adv-x="443" 
d="M336.5 517.5q35.5 -47.5 35.5 -132.5v-221q0 -37 5 -63t15 -48q8 -19 8 -25q0 -7 -4 -11.5t-14 -10.5l-13 -8q-7 -4 -12 -6t-10 -2q-6 0 -10.5 3.5t-8.5 12.5q-8 16 -14 36t-8 38h-2q-46 -91 -131 -91q-62 0 -97 42t-35 124q0 65 23 105.5t72.5 60t128.5 19.5h28v41
q0 57 -20 85t-66 28q-23 0 -41.5 -5t-45.5 -18q-8 -4 -15 -6.5t-12 -2.5q-8 0 -11.5 4.5t-9.5 17.5q-8 18 -8 28q0 9 6.5 15t21.5 13q27 12 55.5 18.5t61.5 6.5q92 0 127.5 -47.5zM263 276q-53 0 -84 -13t-44.5 -38.5t-13.5 -66.5q0 -51 19 -74.5t52 -23.5q47 0 74 46.5
t27 128.5v41h-30z" />
    <glyph glyph-name="b" unicode="b" horiz-adv-x="481" 
d="M151 732.5q4 -4.5 4 -20.5v-221h2q19 36 49.5 54.5t67.5 18.5h4q46 0 82 -27t56.5 -84.5t20.5 -147.5v-34q0 -140 -53 -211t-153 -71q-39 0 -71.5 5.5t-66.5 16.5q-12 4 -15.5 9.5t-3.5 23.5v667q0 16 4.5 21t19.5 5h34q15 0 19 -4.5zM256 491q-31 0 -54 -20.5t-35 -52.5
t-12 -66v-276q32 -14 78 -14q62 0 91.5 51t29.5 163v24q0 88 -22 139.5t-71 51.5h-5z" />
    <glyph glyph-name="c" unicode="c" horiz-adv-x="386" 
d="M339 527q17 -13 17 -26q0 -5 -2.5 -12t-5.5 -14q-9 -20 -22 -20q-5 0 -10.5 3.5t-10 6.5t-6.5 5q-32 22 -71 22q-50 0 -76 -44t-26 -139v-59q0 -99 26 -144t77 -45q20 0 37.5 6.5t36.5 19.5q7 5 13 10t11 8t9 3q11 0 21 -18q9 -18 9 -27q0 -6 -3 -11t-11 -13
q-25 -24 -57 -37t-70 -13q-181 0 -181 263v54q0 258 178 258q72 0 117 -37z" />
    <glyph glyph-name="d" unicode="d" horiz-adv-x="480" 
d="M398 735q5 -2 6.5 -7.5t1.5 -17.5v-609q0 -27 -2 -39.5t-6.5 -19.5t-14.5 -14q-27 -19 -63.5 -29t-79.5 -10h-8q-91 0 -139.5 67t-48.5 193v56q0 78 19 136.5t56 91t88 32.5h5q35 0 63.5 -14.5t48.5 -42.5h1v203q0 16 4.5 21t19.5 5h34q10 0 15 -2zM228 493
q-53 0 -77.5 -50t-24.5 -142v-53q0 -90 25 -138t84 -48h8q20 0 38.5 5.5t29.5 14.5q7 6 10.5 12.5t3.5 17.5v267q0 32 -12 58t-33.5 41t-48.5 15h-3z" />
    <glyph glyph-name="e" unicode="e" horiz-adv-x="437" 
d="M352 506q41 -59 41 -182v-31q0 -14 -1.5 -20.5t-6.5 -9t-16 -2.5h-244v-23q0 -90 27.5 -133t87.5 -43q52 0 95 29q3 2 7.5 5.5t10 6.5t9.5 3q6 0 10 -4.5t10 -15.5q1 -2 3.5 -6.5t5 -10t2.5 -10.5q0 -8 -5.5 -14t-19.5 -15q-28 -19 -62 -30t-70 -11q-102 0 -147 65
t-45 194v64q0 81 21.5 138t61.5 86t96 29q88 0 129 -59zM149.5 451q-24.5 -44 -24.5 -113v-7h187v23q0 75 -22 108t-69 33t-71.5 -44z" />
    <glyph glyph-name="f" unicode="f" horiz-adv-x="281" 
d="M232.5 745.5q18.5 -4.5 35.5 -11.5q13 -6 18.5 -12t5.5 -13q0 -11 -5 -26q-5 -13 -9 -18t-10 -5t-19 6q-11 5 -22.5 8.5t-22.5 3.5q-25 0 -38 -23t-13 -66v-49h96q15 0 19.5 -4.5t4.5 -20.5v-20q0 -17 -4.5 -22t-18.5 -5h-97v-441q0 -17 -4 -22t-19 -5h-34q-10 0 -15 2
t-6.5 7.5t-1.5 17.5v441h-32q-14 0 -18.5 5t-4.5 18v4q0 13 4.5 18.5t20.5 9.5t23 14t7 25v33q0 78 31 116.5t87 38.5q23 0 41.5 -4.5z" />
    <glyph glyph-name="g" unicode="g" horiz-adv-x="480" 
d="M388 544q12 -4 15 -9.5t3 -23.5v-455q0 -130 -42 -195t-140 -65q-72 0 -132 33q-14 8 -19.5 13t-5.5 13q0 9 8 27q5 12 10 18t11 6q5 0 11.5 -2.5t14.5 -6.5q23 -12 46.5 -20t51.5 -8q37 0 60.5 17.5t35 57.5t11.5 107v36h-2q-22 -32 -51.5 -48.5t-63.5 -16.5h-7
q-49 0 -84.5 28.5t-55 85t-19.5 139.5v39q0 74 22 130.5t68 88.5t116 32q74 0 138 -21zM157 448q-31 -44 -31 -136v-33q0 -83 23.5 -134t72.5 -51h6q32 0 54.5 21t33.5 53t11 64v230q0 11 -2.5 15t-11.5 7q-29 8 -64 8q-61 0 -92 -44z" />
    <glyph glyph-name="h" unicode="h" horiz-adv-x="489" 
d="M153 732q4 -5 4 -20v-213h2q54 66 132 66q59 0 93 -41t34 -127v-371q0 -16 -4.5 -21t-19.5 -5h-34q-15 0 -19 4.5t-4 21.5v349q0 62 -16.5 89.5t-57.5 27.5q-30 0 -56 -17.5t-42 -42.5q-5 -7 -6 -12t-1 -19v-376q0 -15 -4 -20t-18 -5h-35q-13 0 -18.5 5t-5.5 19v687
q0 17 4 21.5t19 4.5h35q14 0 18 -5z" />
    <glyph glyph-name="i" unicode="i" horiz-adv-x="229" 
d="M150 738q5 -2 6.5 -7.5t1.5 -17.5v-53q0 -16 -4.5 -21t-20.5 -5h-37q-16 0 -20.5 5t-4.5 21v53q0 17 4.5 22t19.5 5h39q11 0 16 -2zM151 548q4 -5 4 -20v-502q0 -16 -4.5 -21t-18.5 -5h-35q-14 0 -18.5 5t-4.5 21v501q0 16 4.5 21t18.5 5h35q15 0 19 -5z" />
    <glyph glyph-name="j" unicode="j" horiz-adv-x="229" 
d="M75.5 639q-4.5 5 -4.5 21v53q0 17 4.5 22t19.5 5h39q16 0 20 -4.5t4 -21.5v-54q0 -16 -4.5 -21t-20.5 -5h-37q-16 0 -20.5 5zM-27 -191q-10 5 -13.5 9t-3.5 12q0 6 2.5 14.5t6.5 16.5q6 12 10 16.5t9 4.5q6 0 15 -3.5t17.5 -6t18.5 -2.5q21 0 30 17.5t9 57.5v582
q0 17 4 21.5t19 4.5h35q15 0 19 -4.5t4 -20.5v-584q0 -70 -27.5 -109.5t-88.5 -39.5q-33 0 -66 14z" />
    <glyph glyph-name="k" unicode="k" horiz-adv-x="427" 
d="M150.5 732q4.5 -5 4.5 -21v-377h2q7 0 12 5.5t15 19.5l126 178q6 9 13 12.5t18 3.5h40q13 0 19 -2.5t6 -10.5q0 -5 -5.5 -14t-12.5 -18l-154 -203l175 -262q7 -10 11.5 -18t4.5 -13q0 -7 -6 -9.5t-18 -2.5h-38q-14 0 -20.5 4t-14.5 16l-141 220q-8 13 -14 20t-13 7h-5
v-239q0 -18 -4.5 -23t-19.5 -5h-34q-10 0 -14.5 2t-6.5 8t-2 19v682q0 16 4.5 21t19.5 5h34q14 0 18.5 -5z" />
    <glyph glyph-name="l" unicode="l" horiz-adv-x="244" 
d="M147 732q4 -5 4 -21v-558q0 -47 8.5 -67.5t27.5 -20.5q11 0 22 5t14 5q6 0 9 -4t8 -15q8 -18 8 -30q0 -8 -4 -12.5t-11 -8.5q-10 -6 -26.5 -10t-35.5 -4q-52 0 -76 39.5t-24 115.5v565q0 16 4.5 21t18.5 5h34q15 0 19 -5z" />
    <glyph glyph-name="m" unicode="m" horiz-adv-x="715" 
d="M612 524q32 -41 32 -127v-371q0 -12 -1.5 -17t-6 -7t-15.5 -2h-34q-14 0 -18.5 5t-4.5 21v353q0 61 -15 87t-50 26q-27 0 -50.5 -17.5t-39.5 -41.5q-5 -7 -6.5 -13.5t-1.5 -19.5v-374q0 -16 -4.5 -21t-18.5 -5h-34q-15 0 -19.5 5t-4.5 21v353q0 41 -6 65.5t-20 36
t-39 11.5t-50 -17.5t-40 -41.5q-5 -8 -6 -13.5t-1 -19.5v-374q0 -16 -4.5 -21t-19.5 -5h-33q-15 0 -19.5 5t-4.5 21v501q0 16 4.5 21t18.5 5h29q11 0 15 -5t6 -18l4 -32h2q25 33 57.5 50t66.5 17q76 0 103 -76q29 37 63 56.5t71 19.5q63 0 95 -41z" />
    <glyph glyph-name="n" unicode="n" horiz-adv-x="489" 
d="M418 397v-370q0 -17 -4.5 -22t-19.5 -5h-34q-14 0 -18.5 5t-4.5 21v349q0 62 -16.5 89.5t-57.5 27.5q-30 0 -55 -17.5t-42 -41.5q-5 -8 -6.5 -13t-1.5 -19v-376q0 -15 -4 -20t-18 -5h-35q-15 0 -19.5 5t-4.5 21v501q0 16 4.5 21t18.5 5h28q11 0 15.5 -4.5t6.5 -18.5
l4 -33h3q27 34 61 51t71 17q129 0 129 -168z" />
    <glyph glyph-name="o" unicode="o" horiz-adv-x="456" 
d="M370 503q42 -62 42 -190v-67q0 -131 -44 -194t-135 -63h-15q-91 0 -132.5 63t-41.5 192v65q0 132 44.5 194t133.5 62h16q90 0 132 -62zM225 492q-38 0 -60 -21.5t-30.5 -62.5t-8.5 -105v-51q0 -92 20.5 -141t75.5 -49h9q39 0 60.5 22t29.5 63t8 104v52q0 65 -8.5 105.5
t-29.5 62t-59 21.5h-7z" />
    <glyph glyph-name="p" unicode="p" horiz-adv-x="481" 
d="M394 499.5q43 -65.5 43 -189.5v-64q0 -124 -41.5 -190t-119.5 -66h-4q-36 0 -66.5 16.5t-49.5 48.5h-1v-221q0 -17 -4 -21.5t-20 -4.5h-33q-15 0 -19.5 5t-4.5 22v628q0 25 4 35t17 19q37 23 73 35.5t81 12.5h5q97 0 140 -65.5zM249 492q-23 0 -45 -7t-39 -22
q-6 -5 -8 -9.5t-2 -14.5v-230q0 -37 12 -71t35 -55t54 -21h4q50 0 72.5 47.5t22.5 143.5v52q0 95 -24 141t-78 46h-4z" />
    <glyph glyph-name="q" unicode="q" horiz-adv-x="479" 
d="M318 560q33 -5 67 -16q9 -3 13 -6.5t5.5 -9.5t1.5 -20v-673q0 -12 -1.5 -17.5t-6 -7.5t-14.5 -2h-34q-15 0 -19 4.5t-4 21.5v222h-2q-19 -32 -50 -49t-69 -17h-5q-47 0 -82.5 29t-54.5 87t-19 142v64q0 74 21.5 130.5t67 89.5t114.5 33q38 0 71 -5zM156 446.5
q-30 -45.5 -30 -139.5v-57q0 -85 21.5 -136.5t71.5 -51.5h5q30 0 53 20t36 50t13 58v271q0 11 -2.5 15.5t-11.5 7.5q-25 8 -65 8q-61 0 -91 -45.5z" />
    <glyph glyph-name="r" unicode="r" horiz-adv-x="336" 
d="M291 560.5q16 -4.5 28 -11.5q9 -5 13 -9.5t4 -12.5q0 -11 -8 -32q-4 -14 -9 -20t-13 -6q-5 0 -16.5 5.5t-24 9.5t-26.5 4q-38 0 -59.5 -38t-21.5 -109v-315q0 -16 -4.5 -21t-19.5 -5h-33q-16 0 -20 4.5t-4 21.5v501q0 16 4.5 21t18.5 5h25q13 0 18 -5t7 -19l4 -30h1
q18 30 42 48t61 18q17 0 33 -4.5z" />
    <glyph glyph-name="s" unicode="s" horiz-adv-x="393" 
d="M310 547q15 -5 23 -11t8 -15q0 -8 -6 -25q-5 -13 -9.5 -19t-10.5 -6q-5 0 -13.5 3t-14.5 5q-39 15 -79 15q-22 0 -37.5 -5t-27.5 -17q-23 -25 -23 -64q0 -25 8.5 -40.5t28.5 -24.5t55 -15q81 -13 117 -51.5t36 -107.5q0 -85 -42.5 -130.5t-123.5 -45.5q-31 0 -65 6
t-58 17q-19 8 -29 15.5t-10 17.5q0 9 6 24q6 13 10.5 19t11.5 6q5 0 21 -8q52 -26 115 -26q43 0 65 26t22 71q0 28 -8.5 46.5t-30.5 30.5t-62 18q-144 22 -144 149q0 72 40 115q20 22 50 33.5t69 11.5q58 0 108 -18z" />
    <glyph glyph-name="t" unicode="t" horiz-adv-x="299" 
d="M150 703q3 -6 3 -20v-143h105q11 0 16.5 -2t7 -7t1.5 -17v-20q0 -16 -4.5 -21t-21.5 -5h-104v-317q0 -49 12.5 -68t36.5 -19q12 0 25 4t25.5 9.5t16.5 5.5q6 0 9.5 -4.5t7.5 -15.5q5 -11 7 -18t2 -13q0 -7 -4 -11.5t-13 -9.5q-16 -9 -39.5 -15t-48.5 -6q-57 0 -87.5 37.5
t-30.5 120.5v320h-31q-14 0 -18.5 4.5t-4.5 17.5v7q0 12 4.5 16t20.5 10q16 4 22.5 15.5t6.5 30.5v91q0 13 3.5 19.5t13.5 11.5l25 11q14 7 23 7q10 0 13 -6z" />
    <glyph glyph-name="u" unicode="u" horiz-adv-x="488" 
d="M406.5 548q4.5 -5 4.5 -21v-501q0 -16 -4.5 -21t-18.5 -5h-25q-12 0 -17.5 4.5t-6.5 18.5l-4 33h-2q-27 -34 -62 -51t-72 -17q-61 0 -94.5 42t-33.5 127v370q0 12 1.5 17t7 7t16.5 2h31q15 0 19 -4.5t4 -21.5v-352q0 -60 16 -87t55 -27q30 0 57 18.5t44 42.5q5 7 6.5 13
t1.5 19v373q0 16 4.5 21t19.5 5h33q15 0 19.5 -5z" />
    <glyph glyph-name="v" unicode="v" horiz-adv-x="387" 
d="M372 550q4 -3 4 -9q0 -8 -8 -37l-133 -481q-4 -14 -9.5 -18.5t-20.5 -4.5h-27q-14 0 -20 4.5t-10 19.5l-127 476l-5 20q-5 17 -5 20q0 7 3.5 10t14.5 3h41q12 0 17 -4t8 -17l85 -339q2 -9 8 -40l6 -31h2q2 8 6 33t9 42l83 333q4 14 9.5 18.5t16.5 4.5h38q10 0 14 -3z" />
    <glyph glyph-name="w" unicode="w" horiz-adv-x="579" 
d="M557 539q0 -5 -2 -12.5t-3 -14.5l-89 -486q-3 -16 -8.5 -21t-17.5 -5h-37q-13 0 -18.5 5t-9.5 20l-71 348q-7 38 -10 66h-2q-3 -31 -11 -66l-71 -347q-3 -15 -8.5 -20.5t-19.5 -5.5h-34q-14 0 -20 5.5t-9 21.5l-87 472q-6 27 -6 40q0 7 4 10.5t15 3.5h37q10 0 15.5 -5.5
t6.5 -19.5l51 -308q12 -71 15 -105h2q3 24 7.5 53t9.5 54l62 309q3 13 8 17.5t16 4.5h34q14 0 19 -3.5t7 -16.5l66 -315q9 -53 15 -100h1q1 9 5 36l9 68l51 308q2 14 7 18.5t16 4.5h38q17 0 17 -14z" />
    <glyph glyph-name="x" unicode="x" horiz-adv-x="385" 
d="M351 550q4 -3 4 -9q0 -9 -10 -29l-104 -226l107 -235q3 -7 6.5 -14.5t6 -13.5t2.5 -10q0 -6 -4 -9.5t-14 -3.5h-43q-13 0 -19 3.5t-10 15.5l-65 164q-12 29 -16 45h-2q-4 -16 -15 -42l-64 -163q-4 -14 -11 -18.5t-22 -4.5h-38q-18 0 -18 13q0 4 3 11.5t6.5 15.5t7.5 17
l105 230l-99 220q-1 3 -4.5 10t-5.5 13t-2 10q0 7 3.5 10t13.5 3h40q14 0 21 -4t11 -18l58 -145l15 -40h1q2 7 7 19t8 22l55 144q5 15 11 18.5t22 3.5h38q10 0 14 -3z" />
    <glyph glyph-name="y" unicode="y" horiz-adv-x="394" 
d="M383 540q0 -6 -3.5 -19.5t-4.5 -16.5l-138 -531q-17 -64 -35.5 -102t-44 -56t-62.5 -18q-16 0 -32 3.5t-30 9.5q-8 4 -12 8.5t-4 11.5q0 12 7 31q4 12 8 17t10 5q4 0 20 -6t29 -6q17 0 28.5 11.5t20.5 36t20 69.5q2 12 2 16q0 8 -3 21l-138 470q-10 36 -10 45q0 13 17 13
h40q9 0 13.5 -2t7.5 -7.5t7 -17.5l95 -355q8 -31 12 -61h2q2 16 6.5 35.5t5.5 25.5l84 359q4 14 9 18.5t16 4.5h40q17 0 17 -13z" />
    <glyph glyph-name="z" unicode="z" horiz-adv-x="382" 
d="M346 549q4 -4 4 -20v-18q0 -14 -2.5 -22t-11.5 -24l-209 -390v-2h213q10 0 14.5 -2t6 -7t1.5 -17v-21q0 -17 -4 -21.5t-18 -4.5h-289q-14 0 -18 4.5t-4 19.5v16q0 15 3 24.5t12 25.5l208 388v2h-188q-14 0 -18.5 5t-4.5 20v23q0 15 4.5 20t18.5 5h263q15 0 19 -4z" />
    <glyph glyph-name="braceleft" unicode="{" horiz-adv-x="286" 
d="M267 829.5q4 -4.5 4 -17.5v-28q0 -12 -3.5 -17t-13.5 -5h-6q-25 0 -37 -9t-16.5 -32t-4.5 -68v-131q0 -62 -6 -100.5t-21.5 -63t-43.5 -40.5v-2q28 -15 43.5 -39.5t21.5 -63t6 -101.5v-133q0 -44 5 -66.5t17 -31.5t37 -9h5q9 0 13 -4.5t4 -16.5v-30q0 -12 -4 -16.5
t-15 -4.5h-13q-47 0 -73.5 18t-37.5 55t-11 100v101q0 73 -3.5 111t-15 60.5t-36.5 32.5q-9 2 -15 5t-8.5 8.5t-2.5 17.5v16q0 12 2 17.5t7 8.5t17 6q24 10 36 33.5t15.5 62.5t3.5 111v99q0 62 11.5 99t38 54.5t72.5 17.5h13q11 0 15 -4.5z" />
    <glyph glyph-name="bar" unicode="|" horiz-adv-x="414" 
d="M240.5 732q4.5 -5 4.5 -22v-883q0 -12 -1.5 -17.5t-6.5 -7.5t-15 -2h-30q-14 0 -18.5 5t-4.5 22v883q0 17 4.5 22t18.5 5h30q14 0 18.5 -5z" />
    <glyph glyph-name="braceright" unicode="}" horiz-adv-x="286" 
d="M19 -195.5q-4 4.5 -4 17.5v28q0 12 3.5 17t13.5 5h6q25 0 37 9t16.5 32t4.5 68v131q0 62 6 100.5t21.5 63t43.5 40.5v2q-28 15 -43.5 39.5t-21.5 63t-6 101.5v133q0 44 -5 66.5t-17 31.5t-37 9h-5q-9 0 -13 4.5t-4 16.5v30q0 12 4 16.5t15 4.5h13q47 0 73.5 -18t37.5 -55
t11 -100v-101q0 -73 3.5 -111t15 -60.5t36.5 -32.5q9 -2 15 -5t8.5 -8.5t2.5 -17.5v-16q0 -12 -2 -17.5t-7 -8.5t-17 -6q-24 -10 -36 -33.5t-15.5 -62.5t-3.5 -111v-99q0 -62 -11.5 -99t-38 -54.5t-72.5 -17.5h-13q-11 0 -15 4.5z" />
    <glyph glyph-name="asciitilde" unicode="~" horiz-adv-x="494" 
d="M205.5 431.5q22.5 -9.5 53.5 -28.5q30 -17 45 -23.5t32 -6.5q21 0 37.5 8.5t32.5 23.5q8 8 13.5 11.5t10.5 3.5q7 0 11 -5t4 -17v-23q0 -17 -6.5 -27.5t-21.5 -22.5q-36 -26 -79 -26q-27 0 -50.5 10t-54.5 29q-28 16 -43 23t-32 7q-20 0 -37 -8.5t-32 -23.5
q-9 -9 -14.5 -12t-11.5 -3q-13 0 -13 20v25q0 16 6 27t21 23q36 25 79 25q27 0 49.5 -9.5z" />
    <glyph glyph-name="uni00A0" unicode="&#xa0;" horiz-adv-x="232" 
 />
    <glyph glyph-name="exclamdown" unicode="&#xa1;" horiz-adv-x="218" 
d="M68 438q-5 2 -7 7.5t-2 18.5v62q0 17 5 22t22 5h47q17 0 22 -5t5 -23v-61q0 -13 -1.5 -18.5t-7 -7.5t-16.5 -2h-50q-12 0 -17 2zM72 -182q-5 2 -6.5 7t-1.5 18l13 475q1 18 6 23t21 5h13q16 0 21 -5.5t5 -22.5l13 -475q0 -12 -1.5 -17.5t-7 -7.5t-16.5 -2h-42
q-12 0 -17 2z" />
    <glyph glyph-name="cent" unicode="&#xa2;" horiz-adv-x="483" 
d="M380 153q0 -6 -3 -11t-11 -13q-25 -24 -57 -37t-70 -13q-16 0 -24 1l-18 -114q-2 -13 -6.5 -16.5t-17.5 -3.5h-12q-9 0 -12 2t-3 8q0 7 1 12l20 124q-109 46 -109 250v54q0 258 178 258q13 0 20 -1l18 115q2 13 6.5 16.5t17.5 3.5h11q9 0 12.5 -2t3.5 -9q0 -6 -1 -11
l-19 -122q27 -9 48 -27q17 -13 17 -26q0 -5 -2.5 -12t-5.5 -14q-9 -20 -22 -20q-5 0 -10.5 3.5t-10 6.5t-6.5 5q-10 7 -20 11l-66 -419q5 -1 16 -1q20 0 37.5 6.5t36.5 19.5q7 5 13 10t11 8t9 3q11 0 21 -18q9 -18 9 -27zM180 177l64 405h-2q-50 0 -76 -44t-26 -139v-59
q0 -120 40 -163z" />
    <glyph glyph-name="sterling" unicode="&#xa3;" horiz-adv-x="483" 
d="M343 727.5q35 -17.5 65 -49.5q21 -23 31.5 -44t10.5 -32q0 -9 -4.5 -15t-14.5 -12q-12 -8 -18 -11t-13 -3q-8 0 -13.5 5t-14.5 19q-14 24 -27 40t-33 28t-47 12q-49 0 -74.5 -32t-25.5 -84q0 -40 12.5 -76.5t27.5 -63.5h145q15 0 18.5 -5t3.5 -21v-22q0 -15 -3.5 -20
t-17.5 -5h-119q14 -54 14 -105q0 -50 -11.5 -88t-30.5 -63h231q14 0 18 -4.5t4 -20.5v-31q0 -15 -4.5 -19.5t-18.5 -4.5h-360q-13 0 -17.5 5t-4.5 20v30q0 13 4 19t16 6h5q27 0 46.5 23t29.5 58.5t10 72.5q0 54 -17 102h-60q-14 0 -18.5 5t-4.5 20v22q0 16 4.5 21t19.5 5h30
q-39 76 -39 144q0 55 20.5 98.5t62 68.5t101.5 25q46 0 81 -17.5z" />
    <glyph glyph-name="currency" unicode="&#xa4;" horiz-adv-x="483" 
d="M394.5 593q2.5 -2 5.5 -5l18 -19q4 -4 6 -8t2 -7t-2 -7t-4.5 -7t-3.5 -5l-50 -69q26 -49 26 -115q0 -62 -25 -111l50 -68q9 -12 9 -18q0 -4 -2 -7t-5 -6l-18 -19q-7 -7 -12 -7q-4 0 -7.5 2.5t-7.5 7.5l-50 67q-36 -36 -84 -36t-84 36l-49 -67q-7 -10 -14 -10q-6 0 -15 9
l-16 16q-3 3 -5 7t-2 7q0 7 9 19l47 67q-12 24 -18 53.5t-6 58.5q0 30 6.5 60t18.5 54l-47 69q-10 15 -10 21t6 12l18 19q8 8 13 8q7 0 15 -11l49 -70q36 33 84 33q25 0 44.5 -8t38.5 -25l51 70q9 11 15 11q3 0 5.5 -2zM193.5 465.5q-20.5 -17.5 -32 -47.5t-11.5 -66
t11.5 -66.5t32 -48t46.5 -17.5t47 17.5t32.5 48t11.5 66.5t-11.5 66t-32 47.5t-47.5 17.5q-26 0 -46.5 -17.5z" />
    <glyph glyph-name="yen" unicode="&#xa5;" horiz-adv-x="482" 
d="M449.5 701q-4.5 -12 -6.5 -17l-112 -293h60q14 0 18.5 -4.5t4.5 -20.5v-19q0 -15 -4 -20t-18 -5h-87l-11 -28q-1 -2 -3.5 -9t-3.5 -13.5t-1 -13.5v-21h105q14 0 18.5 -5t4.5 -20v-19q0 -15 -4 -20t-18 -5h-106v-142q0 -17 -4 -21.5t-18 -4.5h-38q-16 0 -20 4.5t-4 21.5
v142h-111q-14 0 -18 5t-4 20v20q0 14 4.5 19t17.5 5h111v20q0 11 -2 18.5t-7 18.5l-11 28h-91q-14 0 -18 5t-4 20v20q0 14 4.5 19t17.5 5h65l-110 293q-5 11 -8 20t-3 15q0 12 17 12h48q10 0 15.5 -4t9.5 -15l94 -268q12 -33 26 -88h2q9 39 24 88l93 268q3 10 8.5 14.5
t15.5 4.5h48q8 0 13 -3t5 -9t-4.5 -18z" />
    <glyph glyph-name="brokenbar" unicode="&#xa6;" horiz-adv-x="414" 
d="M240.5 732q4.5 -5 4.5 -22v-311q0 -12 -1.5 -17.5t-6.5 -7.5t-15 -2h-30q-14 0 -18.5 5t-4.5 22v311q0 17 4.5 22t18.5 5h30q14 0 18.5 -5zM240.5 160q4.5 -5 4.5 -22v-311q0 -12 -1.5 -17.5t-6.5 -7.5t-15 -2h-30q-14 0 -18.5 5t-4.5 22v311q0 17 4.5 22t18.5 5h30
q14 0 18.5 -5z" />
    <glyph glyph-name="section" unicode="&#xa7;" horiz-adv-x="410" 
d="M322 730q19 -7 28 -13t9 -16q0 -6 -3.5 -15t-4.5 -12q-4 -11 -8.5 -16.5t-10.5 -5.5q-5 0 -15.5 3.5t-17.5 5.5q-35 13 -68 13q-38 0 -62.5 -20t-24.5 -67q0 -37 19 -61t55 -43l54 -30q32 -16 54 -35t36 -49t14 -72q0 -43 -18 -77t-45 -51q31 -29 42.5 -59.5t11.5 -70.5
q0 -80 -44.5 -124.5t-126.5 -44.5q-65 0 -120 23q-20 8 -30.5 16t-10.5 18q0 8 6 25q5 13 10 19t12 6q4 0 12 -4l12 -6q25 -13 53 -20t53 -7q47 0 71.5 25.5t24.5 70.5q0 29 -8 48.5t-25 34t-47 29.5l-70 38q-50 27 -71.5 64t-21.5 85q0 37 18.5 71.5t54.5 55.5
q-25 26 -39.5 54.5t-14.5 69.5q0 50 20.5 86t57 54.5t83.5 18.5q55 0 96 -15zM137 393q-14 -22 -14 -54q0 -26 8 -43t23.5 -30t43.5 -29l61 -35q16 11 28 33.5t12 53.5q0 20 -3.5 35t-16.5 30.5t-38 30.5l-69 41q-21 -11 -35 -33z" />
    <glyph glyph-name="dieresis" unicode="&#xa8;" horiz-adv-x="375" 
d="M144.5 735q4.5 -5 4.5 -21v-54q0 -16 -5 -21t-21 -5h-36q-15 0 -20 5t-5 21v54q0 17 4 21.5t19 4.5h40q15 0 19.5 -5zM308.5 735q4.5 -5 4.5 -21v-54q0 -16 -5 -21t-20 -5h-36q-16 0 -21 5t-5 21v54q0 16 4.5 21t18.5 5h40q15 0 19.5 -5z" />
    <glyph glyph-name="copyright" unicode="&#xa9;" horiz-adv-x="646" 
d="M476 694.5q65 -50.5 100 -137t35 -192.5t-35 -192.5t-100 -137t-153 -50.5q-87 0 -152 50t-100 136.5t-35 192.5t35 193t100 137.5t152 50.5q88 0 153 -50.5zM200.5 640q-51.5 -42 -78.5 -114t-27 -161t27.5 -161.5t79.5 -114.5t123 -42q70 0 121 42t78 114.5t27 160.5
q0 89 -27 161.5t-78.5 114.5t-122.5 42t-122.5 -42zM379.5 585q21.5 -8 39.5 -20q9 -6 12.5 -11t3.5 -11q0 -5 -3 -11.5t-7 -13.5q-5 -9 -8.5 -12t-8.5 -3q-4 0 -11.5 5t-9.5 6q-27 18 -53 18q-24 0 -43 -17t-29.5 -51.5t-10.5 -83.5v-26q0 -52 11 -86.5t30 -51t43 -16.5
q14 0 29 5.5t29 14.5q4 3 8.5 6.5t8 6t6.5 2.5q4 0 8 -3t9 -12q9 -16 9 -26q0 -4 -4 -9.5t-11 -11.5q-19 -17 -44 -26t-53 -9q-43 0 -76 25t-51.5 74t-18.5 118v23q0 70 18 118t50.5 72.5t77.5 24.5q28 0 49.5 -8z" />
    <glyph glyph-name="ordfeminine" unicode="&#xaa;" horiz-adv-x="333" 
d="M258.5 711q26.5 -34 26.5 -96v-147q0 -46 14 -74q6 -12 6 -17q0 -10 -13 -17l-13 -8l-7 -3.5t-11 -2.5q-10 0 -16 11q-9 15 -15 46h-2q-32 -58 -92 -58q-48 0 -76 29.5t-28 87.5q0 66 40.5 98.5t133.5 32.5h14v22q0 37 -13.5 54.5t-47.5 17.5q-35 0 -62 -15
q-16 -8 -23 -8q-6 0 -9.5 4.5t-7.5 13.5q-5 15 -5 22t6 12t21 12q39 17 83 17q70 0 96.5 -34zM201 540q-50 0 -76.5 -17t-26.5 -59q0 -32 14 -47t37 -15q35 0 53 28.5t18 75.5v34h-19z" />
    <glyph glyph-name="guillemotleft" unicode="&#xab;" horiz-adv-x="447" 
d="M228 497q0 -6 -6 -18l-106 -205l106 -205q6 -12 6 -18t-5 -9.5t-13 -3.5h-37q-19 0 -26 3.5t-15 18.5l-83 169q-3 6 -6.5 13.5t-5 12.5t-1.5 13v13q0 9 2 15.5t5.5 12t5.5 10.5l83 169q6 11 10.5 15.5t10.5 5.5t20 1h37q18 0 18 -13zM411 497q0 -6 -6 -18l-107 -205
l107 -205q6 -12 6 -18t-5.5 -9.5t-14.5 -3.5h-36q-19 0 -26 3.5t-14 18.5l-84 169q-3 6 -6.5 13.5t-5 12.5t-1.5 13v13q0 9 2 15.5t5.5 12t5.5 10.5l84 169q7 15 14 18.5t26 3.5h36q20 0 20 -13z" />
    <glyph glyph-name="logicalnot" unicode="&#xac;" horiz-adv-x="494" 
d="M440.5 517q4.5 -5 4.5 -21v-230q0 -15 -4.5 -20t-18.5 -5h-29q-14 0 -18 5t-4 20v182h-298q-14 0 -18.5 4.5t-4.5 20.5v24q0 16 4 20.5t19 4.5h348q15 0 19.5 -5z" />
    <glyph glyph-name="uni00AD" unicode="&#xad;" horiz-adv-x="271" 
d="M222.5 338q4.5 -2 6 -7t1.5 -16v-28q0 -12 -1.5 -17t-6 -7t-15.5 -2h-148q-11 0 -16 2t-6.5 7t-1.5 17v28q0 16 4 20.5t20 4.5h148q11 0 15.5 -2z" />
    <glyph glyph-name="registered" unicode="&#xae;" horiz-adv-x="414" 
d="M297 710.5q38 -27.5 58 -75.5t20 -108t-20 -108t-58 -76t-90 -28t-90 28t-58 76t-20 108t20 108t58 75.5t90 27.5t90 -27.5zM140 671q-28 -22 -42.5 -59.5t-14.5 -84.5t14.5 -85t42.5 -60t67 -22t67 22t42 60t14 85t-14 84.5t-42 59.5t-67 22t-67 -22zM266.5 623
q15.5 -17 15.5 -48q0 -25 -10 -41.5t-30 -21.5l38 -72q6 -11 6 -15t-8 -4h-24q-5 0 -8.5 2t-5.5 6l-35 71q-2 6 -11 6h-10v-73q0 -7 -2 -9.5t-8 -2.5h-18q-6 0 -9 2.5t-3 9.5v194q0 7 3 10t9 3h65q30 0 45.5 -17zM184 603v-59h26q17 0 23 8t6 23q0 14 -6 21t-21 7h-28z" />
    <glyph glyph-name="macron" unicode="&#xaf;" horiz-adv-x="375" 
d="M307 716.5q5 -5.5 5 -17.5v-22q0 -22 -22 -22h-204q-13 0 -18 5t-5 18v21q0 12 5 17.5t18 5.5h203q13 0 18 -5.5z" />
    <glyph glyph-name="degree" unicode="&#xb0;" horiz-adv-x="293" 
d="M211.5 724.5q27.5 -20.5 41.5 -56.5t14 -81q0 -44 -14 -80t-41 -56.5t-65 -20.5q-39 0 -66 20.5t-41 56.5t-14 80t13.5 79.5t41 57t66.5 21.5q37 0 64.5 -20.5zM97 662q-17 -29 -17 -75q0 -44 17.5 -73.5t49.5 -29.5t49 29.5t17 73.5q0 46 -17 75t-49 29q-33 0 -50 -29z
" />
    <glyph glyph-name="plusminus" unicode="&#xb1;" horiz-adv-x="494" 
d="M281.5 621q4.5 -5 4.5 -20v-170h136q14 0 18.5 -4.5t4.5 -20.5v-23q0 -16 -4.5 -21t-18.5 -5h-136v-169q0 -16 -4.5 -20.5t-18.5 -4.5h-30q-14 0 -18 4.5t-4 20.5v169h-139q-14 0 -18 5t-4 21v23q0 16 4 20.5t18 4.5h139v170q0 16 4 20.5t18 4.5h30q14 0 18.5 -5z
M440.5 79q4.5 -5 4.5 -21v-23q0 -16 -4.5 -21t-18.5 -5h-350q-13 0 -17.5 5t-4.5 21v23q0 12 2 17t6 7t14 2h350q14 0 18.5 -5z" />
    <glyph glyph-name="twosuperior" unicode="&#xb2;" 
d="M229 887q26 -15 40 -42t14 -61q0 -42 -16.5 -71.5t-49.5 -50.5l-50 -33q-33 -22 -45.5 -50t-13.5 -66h157q11 0 14 -3.5t3 -15.5v-20q0 -13 -3 -17t-14 -4h-203q-13 0 -16.5 4t-3.5 18v24q0 120 84 177l50 34q20 13 29.5 31t9.5 42q0 27 -13.5 43t-39.5 16
q-24 0 -38.5 -14t-23.5 -38q-3 -9 -6.5 -13.5t-9.5 -4.5t-13.5 2.5t-14.5 6.5q-7 5 -9.5 9.5t-2.5 11.5q0 12 8 29.5t21 31.5q18 20 41.5 29.5t51.5 9.5q37 0 63 -15z" />
    <glyph glyph-name="threesuperior" unicode="&#xb3;" 
d="M240 872q32 -30 32 -86q0 -39 -18.5 -64t-45.5 -33q31 -6 52 -33.5t21 -76.5q0 -39 -14.5 -69.5t-43 -48t-67.5 -17.5q-52 0 -87 26q-14 9 -25 22t-11 22q0 7 2.5 11.5t10.5 12.5q15 15 22 15q5 0 9.5 -4.5t9.5 -10.5q16 -18 31 -26t36 -8q31 0 45.5 22.5t14.5 57.5
q0 36 -15.5 53t-49.5 17h-30q-11 0 -14 3.5t-3 16.5v21q0 13 3.5 16t14.5 3h23q33 0 47.5 20t14.5 48q0 60 -55 60q-30 0 -56 -24q-6 -5 -11 -8.5t-10 -3.5t-10 4.5t-10 12.5q-9 13 -9 21q0 17 32 36q17 10 35 16t44 6q53 0 85 -30z" />
    <glyph glyph-name="acute" unicode="&#xb4;" horiz-adv-x="375" 
d="M264.5 804.5q5.5 -3.5 5.5 -10.5q0 -5 -3.5 -11.5t-7.5 -12.5t-7 -10l-86 -127q-13 -19 -29 -19h-15q-9 0 -13.5 3.5t-4.5 9.5q0 8 8 26l62 129q8 16 13.5 21t17.5 5h42q12 0 17.5 -3.5z" />
    <glyph glyph-name="mu" unicode="&#xb5;" horiz-adv-x="499" 
d="M412 548q4 -5 4 -21v-340q0 -54 5.5 -84t15.5 -51q3 -7 5.5 -13.5t2.5 -10.5q0 -10 -17 -21l-16 -10q-6 -4 -10.5 -5.5t-8.5 -1.5q-13 0 -22 14q-6 10 -10.5 22.5t-8.5 26.5h-1q-24 -36 -51 -50.5t-58 -14.5q-29 0 -50.5 9.5t-34.5 28.5v-192q0 -16 -4.5 -21t-18.5 -5
h-34q-10 0 -15 2t-6.5 7.5t-1.5 17.5v692q0 17 4 21.5t19 4.5h34q14 0 18.5 -5t4.5 -21v-341q0 -65 22 -95.5t62 -30.5q28 0 49.5 19t35.5 46q6 11 8.5 20.5t2.5 26.5v355q0 17 4 21.5t19 4.5h34q14 0 18 -5z" />
    <glyph glyph-name="paragraph" unicode="&#xb6;" horiz-adv-x="489" 
d="M457.5 726.5q4.5 -4.5 4.5 -20.5v-11q0 -11 -2 -16.5t-6.5 -7t-15.5 -1.5h-26v-812q0 -16 -4 -20.5t-18 -4.5h-18q-14 0 -18.5 4.5t-4.5 20.5v812h-91v-812q0 -16 -4 -20.5t-18 -4.5h-18q-14 0 -18.5 4.5t-4.5 20.5v418q-79 5 -122.5 61t-43.5 155q0 111 47.5 175
t149.5 64h212q15 0 19.5 -4.5z" />
    <glyph glyph-name="periodcentered" unicode="&#xb7;" horiz-adv-x="198" 
d="M141.5 427.5q4.5 -1.5 6 -6.5t1.5 -17v-67q0 -16 -4.5 -20.5t-19.5 -4.5h-51q-15 0 -20 4.5t-5 20.5v67q0 16 4 20.5t19 4.5h54q11 0 15.5 -1.5z" />
    <glyph glyph-name="cedilla" unicode="&#xb8;" horiz-adv-x="375" 
d="M215 14v-2l-28 -75q5 4 13.5 6.5t16.5 2.5q36 0 55.5 -27.5t19.5 -67.5q0 -39 -16 -64.5t-41 -37.5t-53 -12q-26 0 -43 5t-32 13q-12 6 -18 11.5t-6 12.5q0 5 4 13l6 12q3 6 5.5 8t6.5 2t14 -5q27 -16 56 -16q23 0 38 13.5t15 41.5q0 22 -8.5 33t-23.5 11q-9 0 -15 -3
t-13 -9.5t-13 -6.5q-9 0 -20.5 6.5t-11.5 14.5q0 10 6 25l40 103z" />
    <glyph glyph-name="onesuperior" unicode="&#xb9;" 
d="M204.5 889q3.5 -4 3.5 -17v-359h62q11 0 14 -3.5t3 -16.5v-20q0 -12 -3.5 -16t-13.5 -4h-194q-9 0 -13 4t-4 16v20q0 12 4 16t13 4h69v297l-47 -44q-4 -4 -8.5 -6.5t-7.5 -2.5q-5 0 -9.5 3.5t-8.5 8.5l-7 9q-6 8 -6 14q0 8 11 18l79 73q6 5 11 7.5t12 2.5h25
q12 0 15.5 -4z" />
    <glyph glyph-name="ordmasculine" unicode="&#xba;" horiz-adv-x="341" 
d="M276.5 698q33.5 -47 33.5 -139v-29q0 -91 -34 -138.5t-99 -47.5h-13q-65 0 -99 47.5t-34 138.5v29q0 92 34 139t99 47h13q66 0 99.5 -47zM167 685q-36 0 -52.5 -32.5t-16.5 -95.5v-25q0 -63 16 -96t53 -33h7q37 0 53 33t16 96v25q0 63 -16 95.5t-53 32.5h-7z" />
    <glyph glyph-name="guillemotright" unicode="&#xbb;" horiz-adv-x="447" 
d="M36 51q0 6 6 18l107 205l-107 205q-6 12 -6 18t5.5 9.5t14.5 3.5h36q19 0 26 -3.5t14 -18.5l84 -169q3 -6 6.5 -13.5t5 -12.5t1.5 -13v-13q0 -9 -2 -15.5t-5.5 -12t-5.5 -10.5l-84 -169q-7 -15 -14 -18.5t-26 -3.5h-36q-20 0 -20 13zM219 51q0 6 6 18l106 205l-106 205
q-6 12 -6 18t5 9.5t13 3.5h37q19 0 26 -3.5t15 -18.5l83 -169q3 -6 6.5 -13.5t5 -12.5t1.5 -13v-13q0 -9 -2 -15.5t-5.5 -12t-5.5 -10.5l-83 -169q-6 -11 -10.5 -15.5t-10.5 -5.5t-20 -1h-37q-18 0 -18 13z" />
    <glyph glyph-name="onequarter" unicode="&#xbc;" horiz-adv-x="734" 
d="M204.5 732q3.5 -4 3.5 -17v-359h62q11 0 14 -3.5t3 -16.5v-20q0 -12 -3.5 -16t-13.5 -4h-194q-9 0 -13 4t-4 16v20q0 12 4 16t13 4h69v297l-47 -44q-4 -4 -8.5 -6.5t-7.5 -2.5q-5 0 -9.5 3.5t-8.5 8.5l-7 9q-6 8 -6 14q0 8 11 18l79 73q6 5 11 7.5t12 2.5h25
q12 0 15.5 -4zM611.5 743q4.5 -2 4.5 -9q0 -3 -3 -10t-6 -12.5t-5 -8.5l-362 -693q-7 -15 -13.5 -19.5t-20.5 -4.5h-22q-10 0 -14.5 2.5t-4.5 8.5q0 4 2.5 10t5.5 12t5 11l362 691q8 15 13.5 19.5t18.5 4.5h24q11 0 15.5 -2zM656.5 436q3.5 -4 3.5 -18v-255h41q8 0 11.5 -3
t3.5 -14v-23q0 -11 -4 -14t-11 -3h-41v-86q0 -11 -4.5 -15.5t-14.5 -4.5h-21q-12 0 -16.5 4t-4.5 16v86h-132q-10 0 -15 1t-7 6t-2 15v7q0 9 1.5 14t6.5 14l145 259q6 11 11.5 14.5t14.5 3.5h18q13 0 16.5 -4zM602 339l-97 -176h94q0 38 1.5 94t4.5 82h-3z" />
    <glyph glyph-name="onehalf" unicode="&#xbd;" horiz-adv-x="768" 
d="M204.5 732q3.5 -4 3.5 -17v-359h62q11 0 14 -3.5t3 -16.5v-20q0 -12 -3.5 -16t-13.5 -4h-194q-9 0 -13 4t-4 16v20q0 12 4 16t13 4h69v297l-47 -44q-4 -4 -8.5 -6.5t-7.5 -2.5q-5 0 -9.5 3.5t-8.5 8.5l-7 9q-6 8 -6 14q0 8 11 18l79 73q6 5 11 7.5t12 2.5h25
q12 0 15.5 -4zM605.5 743q4.5 -2 4.5 -9q0 -3 -3 -10t-6 -12.5t-5 -8.5l-362 -693q-7 -15 -13.5 -19.5t-20.5 -4.5h-22q-10 0 -14.5 2.5t-4.5 8.5q0 4 2.5 10t5.5 12t5 11l362 691q8 15 13.5 19.5t18.5 4.5h24q11 0 15.5 -2zM684 434q26 -15 40 -42t14 -61
q0 -42 -16.5 -71.5t-49.5 -50.5l-50 -33q-33 -22 -45.5 -50t-13.5 -66h157q11 0 14 -3.5t3 -15.5v-20q0 -13 -3 -17t-14 -4h-203q-13 0 -16.5 4t-3.5 18v24q0 120 84 177l50 34q20 13 29.5 31t9.5 42q0 27 -13.5 43t-39.5 16q-24 0 -38.5 -14t-23.5 -38q-3 -9 -6.5 -13.5
t-9.5 -4.5t-13.5 2.5t-14.5 6.5q-7 5 -9.5 9.5t-2.5 11.5q0 12 8 29.5t21 31.5q18 20 41.5 29.5t51.5 9.5q37 0 63 -15z" />
    <glyph glyph-name="threequarters" unicode="&#xbe;" horiz-adv-x="698" 
d="M240 715q32 -30 32 -86q0 -39 -18.5 -64t-45.5 -33q31 -6 52 -33.5t21 -76.5q0 -39 -14.5 -69.5t-43 -48t-67.5 -17.5q-52 0 -87 26q-14 9 -25 22t-11 22q0 7 2.5 11.5t10.5 12.5q15 15 22 15q5 0 9.5 -4.5t9.5 -10.5q16 -18 31 -26t36 -8q31 0 45.5 22.5t14.5 57.5
q0 36 -15.5 53t-49.5 17h-30q-11 0 -14 3.5t-3 16.5v21q0 13 3.5 16t14.5 3h23q33 0 47.5 20t14.5 48q0 60 -55 60q-30 0 -56 -24q-6 -5 -11 -8.5t-10 -3.5t-10 4.5t-10 12.5q-9 13 -9 21q0 17 32 36q17 10 35 16t44 6q53 0 85 -30zM588.5 743q4.5 -2 4.5 -9q0 -3 -3 -10
t-6 -12.5t-5 -8.5l-362 -693q-7 -15 -13.5 -19.5t-20.5 -4.5h-22q-10 0 -14.5 2.5t-4.5 8.5q0 4 2.5 10t5.5 12t5 11l362 691q8 15 13.5 19.5t18.5 4.5h24q11 0 15.5 -2zM620.5 436q3.5 -4 3.5 -18v-255h41q8 0 11.5 -3t3.5 -14v-23q0 -11 -4 -14t-11 -3h-41v-86
q0 -11 -4.5 -15.5t-14.5 -4.5h-21q-12 0 -16.5 4t-4.5 16v86h-132q-10 0 -15 1t-7 6t-2 15v7q0 9 1.5 14t6.5 14l145 259q6 11 11.5 14.5t14.5 3.5h18q13 0 16.5 -4zM566 339l-97 -176h94q0 38 1.5 94t4.5 82h-3z" />
    <glyph glyph-name="questiondown" unicode="&#xbf;" horiz-adv-x="351" 
d="M144 437.5q-5 1.5 -6.5 6.5t-1.5 17v67q0 16 4.5 20.5t19.5 4.5h52q15 0 19.5 -4.5t4.5 -20.5v-67q0 -15 -4.5 -20t-18.5 -5h-53q-11 0 -16 1.5zM90.5 -172q-34.5 20 -53 59t-18.5 94q0 61 17 107t59 101q32 41 43 72t11 80v14q0 9 2.5 12t10.5 3h42q10 0 13.5 -4
t4.5 -16q1 -8 1 -25q0 -57 -14.5 -99t-46.5 -85q-31 -43 -44.5 -77.5t-13.5 -77.5q0 -48 18 -74t55 -26q67 0 80 110q3 19 18 17q5 0 17 -1.5t27 -5.5q15 -5 15 -21q0 -23 -6 -46.5t-15 -43.5q-20 -41 -55 -64t-86 -23q-47 0 -81.5 20z" />
    <glyph glyph-name="Agrave" unicode="&#xc0;" horiz-adv-x="525" 
d="M302.5 727.5q5.5 -3.5 9.5 -18.5l190 -660q6 -23 6 -34q0 -8 -4 -11.5t-17 -3.5h-46q-12 0 -16 5t-9 22l-49 190h-211l-51 -194q-3 -14 -7.5 -18.5t-15.5 -4.5h-43q-12 0 -17.5 3.5t-5.5 11.5q0 9 7 32l187 661q4 14 10 18.5t20 4.5h42q15 0 20.5 -3.5zM260 626
q-7 -44 -16 -73l-68 -257h170l-67 261l-17 69h-2zM227.5 957q5.5 -5 12.5 -20l47 -109q8 -18 8 -26q0 -11 -15 -11h-14q-10 0 -15.5 4t-12.5 13l-77 107q-8 11 -12.5 19.5t-4.5 14.5q0 7 5 10t16 3h45q12 0 17.5 -5z" />
    <glyph glyph-name="Aacute" unicode="&#xc1;" horiz-adv-x="525" 
d="M302.5 727.5q5.5 -3.5 9.5 -18.5l190 -660q6 -23 6 -34q0 -8 -4 -11.5t-17 -3.5h-46q-12 0 -16 5t-9 22l-49 190h-211l-51 -194q-3 -14 -7.5 -18.5t-15.5 -4.5h-43q-12 0 -17.5 3.5t-5.5 11.5q0 9 7 32l187 661q4 14 10 18.5t20 4.5h42q15 0 20.5 -3.5zM260 626
q-7 -44 -16 -73l-68 -257h170l-67 261l-17 69h-2zM367 959q5 -3 5 -10q0 -6 -4 -14t-13 -20l-77 -107q-8 -11 -12.5 -14t-14.5 -3h-16q-15 0 -15 11q0 8 8 26l48 109q7 16 12.5 20.5t17.5 4.5h45q11 0 16 -3z" />
    <glyph glyph-name="Acircumflex" unicode="&#xc2;" horiz-adv-x="525" 
d="M302.5 727.5q5.5 -3.5 9.5 -18.5l190 -660q6 -23 6 -34q0 -8 -4 -11.5t-17 -3.5h-46q-12 0 -16 5t-9 22l-49 190h-211l-51 -194q-3 -14 -7.5 -18.5t-15.5 -4.5h-43q-12 0 -17.5 3.5t-5.5 11.5q0 9 7 32l187 661q4 14 10 18.5t20 4.5h42q15 0 20.5 -3.5zM260 626
q-7 -44 -16 -73l-68 -257h170l-67 261l-17 69h-2zM298 953q5 -5 14 -18l70 -104q6 -8 10.5 -16t4.5 -13q0 -11 -14 -11h-21q-10 0 -16 3.5t-14 14.5l-70 87l-70 -87q-9 -11 -14.5 -14.5t-14.5 -3.5h-20q-15 0 -15 11q0 5 4 12.5t10 16.5l70 104q9 13 14.5 18t14.5 5h42
q10 0 15 -5z" />
    <glyph glyph-name="Atilde" unicode="&#xc3;" horiz-adv-x="525" 
d="M302.5 727.5q5.5 -3.5 9.5 -18.5l190 -660q6 -23 6 -34q0 -8 -4 -11.5t-17 -3.5h-46q-12 0 -16 5t-9 22l-49 190h-211l-51 -194q-3 -14 -7.5 -18.5t-15.5 -4.5h-43q-12 0 -17.5 3.5t-5.5 11.5q0 9 7 32l187 661q4 14 10 18.5t20 4.5h42q15 0 20.5 -3.5zM260 626
q-7 -44 -16 -73l-68 -257h170l-67 261l-17 69h-2zM411 937.5q3 -4.5 3 -14.5q0 -48 -21 -81t-59 -33q-18 0 -32.5 5.5t-33.5 17.5l-33 21q-15 10 -23 13.5t-19 3.5q-15 0 -24.5 -13.5t-12.5 -34.5q-2 -10 -5 -15.5t-10 -5.5h-15q-8 0 -11 4.5t-3 14.5q0 30 9 56t26.5 42
t43.5 16q19 0 33 -5.5t33 -17.5l34 -22q15 -10 23.5 -13.5t19.5 -3.5q15 0 24 14t12 34q2 11 5 16.5t11 5.5h15q7 0 10 -4.5z" />
    <glyph glyph-name="Adieresis" unicode="&#xc4;" horiz-adv-x="525" 
d="M302.5 727.5q5.5 -3.5 9.5 -18.5l190 -660q6 -23 6 -34q0 -8 -4 -11.5t-17 -3.5h-46q-12 0 -16 5t-9 22l-49 190h-211l-51 -194q-3 -14 -7.5 -18.5t-15.5 -4.5h-43q-12 0 -17.5 3.5t-5.5 11.5q0 9 7 32l187 661q4 14 10 18.5t20 4.5h42q15 0 20.5 -3.5zM260 626
q-7 -44 -16 -73l-68 -257h170l-67 261l-17 69h-2zM214.5 911.5q4.5 -5.5 4.5 -19.5v-57q0 -14 -4.5 -19.5t-18.5 -5.5h-42q-13 0 -18 6t-5 19v57q0 14 4 19.5t17 5.5h45q13 0 17.5 -5.5zM390 911.5q4 -5.5 4 -19.5v-57q0 -13 -5 -19t-17 -6h-43q-14 0 -18.5 5.5t-4.5 19.5
v57q0 14 4.5 19.5t16.5 5.5h45q14 0 18 -5.5z" />
    <glyph glyph-name="Aring" unicode="&#xc5;" horiz-adv-x="525" 
d="M302.5 727.5q5.5 -3.5 9.5 -18.5l190 -660q6 -23 6 -34q0 -8 -4 -11.5t-17 -3.5h-46q-12 0 -16 5t-9 22l-49 190h-211l-51 -194q-3 -14 -7.5 -18.5t-15.5 -4.5h-43q-12 0 -17.5 3.5t-5.5 11.5q0 9 7 32l187 661q4 14 10 18.5t20 4.5h42q15 0 20.5 -3.5zM260 626
q-7 -44 -16 -73l-68 -257h170l-67 261l-17 69h-2zM315.5 999q21.5 -16 32 -42.5t10.5 -58.5q0 -33 -11 -59.5t-32.5 -42.5t-51.5 -16q-48 0 -71.5 34t-23.5 84q0 49 24 83t72 34q30 0 51.5 -16zM228 949q-12 -20 -12 -51q0 -32 12 -52.5t35 -20.5t35 20.5t12 52.5
q0 31 -11.5 51t-35.5 20q-23 0 -35 -20z" />
    <glyph glyph-name="AE" unicode="&#xc6;" horiz-adv-x="712" 
d="M662 726.5q4 -4.5 4 -20.5v-29q0 -17 -4 -21.5t-18 -4.5h-219v-226h161q14 0 17.5 -5t3.5 -21v-28q0 -16 -4 -20.5t-17 -4.5h-161v-266h229q14 0 18 -4.5t4 -21.5v-29q0 -16 -4 -20.5t-18 -4.5h-288q-11 0 -16.5 2t-7 8t-1.5 19v188h-185l-70 -195q-5 -13 -9.5 -17.5
t-15.5 -4.5h-44q-11 0 -16 3.5t-5 11.5q0 12 10 37l239 648q6 18 14 24.5t26 6.5h359q14 0 18 -4.5zM311 652l-129 -356h159v356h-30z" />
    <glyph glyph-name="Ccedilla" unicode="&#xc7;" horiz-adv-x="483" 
d="M449 81.5q2 -7.5 2 -13.5q0 -10 -6 -17t-23 -19q-26 -19 -61.5 -31.5t-77.5 -14.5l-18 -49q5 4 13.5 6.5t16.5 2.5q36 0 55.5 -27.5t19.5 -67.5q0 -39 -16 -64.5t-41 -37.5t-53 -12q-26 0 -43 5t-32 13q-12 6 -18 11.5t-6 12.5q0 5 4 13l6 12q3 6 5.5 8t6.5 2t14 -5
q27 -16 56 -16q23 0 38 13.5t15 41.5q0 22 -8.5 33t-23.5 11q-9 0 -15 -3t-13 -9.5t-13 -6.5q-9 0 -20.5 6.5t-11.5 14.5q0 10 6 25l27 69q-96 11 -141 91t-45 234v104q0 160 53.5 244t166.5 84q44 0 79.5 -8.5t69.5 -27.5q14 -9 19 -14.5t5 -14.5t-7 -25q-6 -15 -11.5 -22
t-12.5 -7q-5 0 -13 3.5t-15 7t-10 5.5q-46 24 -97 24q-54 0 -85 -31t-43 -86t-12 -137v-95q0 -95 15.5 -150t46 -78.5t78.5 -23.5q33 0 63 12t54 30q9 6 16 9.5t13 3.5t10.5 -4.5t11.5 -18.5q4 -8 6 -15.5z" />
    <glyph glyph-name="Egrave" unicode="&#xc8;" horiz-adv-x="468" 
d="M417 726.5q4 -4.5 4 -20.5v-29q0 -16 -4 -21t-18 -5h-233v-226h167q15 0 19 -5t4 -21v-28q0 -16 -4.5 -20.5t-18.5 -4.5h-167v-266h244q14 0 18 -4.5t4 -21.5v-29q0 -16 -4 -20.5t-18 -4.5h-304q-11 0 -16 2t-6.5 8t-1.5 19v675q0 12 1.5 17.5t6.5 7.5t16 2h293
q14 0 18 -4.5zM218.5 957q5.5 -5 12.5 -20l47 -109q8 -18 8 -26q0 -11 -15 -11h-14q-10 0 -15.5 4t-12.5 13l-77 107q-8 11 -12.5 19.5t-4.5 14.5q0 7 5 10t16 3h45q12 0 17.5 -5z" />
    <glyph glyph-name="Eacute" unicode="&#xc9;" horiz-adv-x="468" 
d="M417 726.5q4 -4.5 4 -20.5v-29q0 -16 -4 -21t-18 -5h-233v-226h167q15 0 19 -5t4 -21v-28q0 -16 -4.5 -20.5t-18.5 -4.5h-167v-266h244q14 0 18 -4.5t4 -21.5v-29q0 -16 -4 -20.5t-18 -4.5h-304q-11 0 -16 2t-6.5 8t-1.5 19v675q0 12 1.5 17.5t6.5 7.5t16 2h293
q14 0 18 -4.5zM358 959q5 -3 5 -10q0 -6 -4 -14t-13 -20l-77 -107q-8 -11 -12.5 -14t-14.5 -3h-16q-15 0 -15 11q0 8 8 26l48 109q7 16 12.5 20.5t17.5 4.5h45q11 0 16 -3z" />
    <glyph glyph-name="Ecircumflex" unicode="&#xca;" horiz-adv-x="468" 
d="M417 726.5q4 -4.5 4 -20.5v-29q0 -16 -4 -21t-18 -5h-233v-226h167q15 0 19 -5t4 -21v-28q0 -16 -4.5 -20.5t-18.5 -4.5h-167v-266h244q14 0 18 -4.5t4 -21.5v-29q0 -16 -4 -20.5t-18 -4.5h-304q-11 0 -16 2t-6.5 8t-1.5 19v675q0 12 1.5 17.5t6.5 7.5t16 2h293
q14 0 18 -4.5zM289 953q5 -5 14 -18l70 -104q6 -8 10.5 -16t4.5 -13q0 -11 -14 -11h-21q-10 0 -16 3.5t-14 14.5l-70 87l-70 -87q-9 -11 -14.5 -14.5t-14.5 -3.5h-20q-15 0 -15 11q0 5 4 12.5t10 16.5l70 104q9 13 14.5 18t14.5 5h42q10 0 15 -5z" />
    <glyph glyph-name="Edieresis" unicode="&#xcb;" horiz-adv-x="468" 
d="M417 726.5q4 -4.5 4 -20.5v-29q0 -16 -4 -21t-18 -5h-233v-226h167q15 0 19 -5t4 -21v-28q0 -16 -4.5 -20.5t-18.5 -4.5h-167v-266h244q14 0 18 -4.5t4 -21.5v-29q0 -16 -4 -20.5t-18 -4.5h-304q-11 0 -16 2t-6.5 8t-1.5 19v675q0 12 1.5 17.5t6.5 7.5t16 2h293
q14 0 18 -4.5zM205.5 911.5q4.5 -5.5 4.5 -19.5v-57q0 -14 -4.5 -19.5t-18.5 -5.5h-42q-13 0 -18 6t-5 19v57q0 14 4 19.5t17 5.5h45q13 0 17.5 -5.5zM381 911.5q4 -5.5 4 -19.5v-57q0 -13 -5 -19t-17 -6h-43q-14 0 -18.5 5.5t-4.5 19.5v57q0 14 4.5 19.5t16.5 5.5h45
q14 0 18 -5.5z" />
    <glyph glyph-name="Igrave" unicode="&#xcc;" horiz-adv-x="346" 
d="M304 726.5q4 -4.5 4 -21.5v-21q0 -17 -4 -21.5t-18 -4.5h-71v-585h71q14 0 18 -4.5t4 -20.5v-21q0 -12 -1.5 -17.5t-6 -7.5t-14.5 -2h-226q-14 0 -18 5t-4 22v21q0 16 4 20.5t18 4.5h71v585h-71q-10 0 -14.5 2t-6 7.5t-1.5 17.5v21q0 11 1.5 16t6 7t14.5 2h226
q14 0 18 -4.5zM137.5 957q5.5 -5 12.5 -20l47 -109q8 -18 8 -26q0 -11 -15 -11h-14q-10 0 -15.5 4t-12.5 13l-77 107q-8 11 -12.5 19.5t-4.5 14.5q0 7 5 10t16 3h45q12 0 17.5 -5z" />
    <glyph glyph-name="Iacute" unicode="&#xcd;" horiz-adv-x="346" 
d="M304 726.5q4 -4.5 4 -21.5v-21q0 -17 -4 -21.5t-18 -4.5h-71v-585h71q14 0 18 -4.5t4 -20.5v-21q0 -12 -1.5 -17.5t-6 -7.5t-14.5 -2h-226q-14 0 -18 5t-4 22v21q0 16 4 20.5t18 4.5h71v585h-71q-10 0 -14.5 2t-6 7.5t-1.5 17.5v21q0 11 1.5 16t6 7t14.5 2h226
q14 0 18 -4.5zM277 959q5 -3 5 -10q0 -6 -4 -14t-13 -20l-77 -107q-8 -11 -12.5 -14t-14.5 -3h-16q-15 0 -15 11q0 8 8 26l48 109q7 16 12.5 20.5t17.5 4.5h45q11 0 16 -3z" />
    <glyph glyph-name="Icircumflex" unicode="&#xce;" horiz-adv-x="346" 
d="M304 726.5q4 -4.5 4 -21.5v-21q0 -17 -4 -21.5t-18 -4.5h-71v-585h71q14 0 18 -4.5t4 -20.5v-21q0 -12 -1.5 -17.5t-6 -7.5t-14.5 -2h-226q-14 0 -18 5t-4 22v21q0 16 4 20.5t18 4.5h71v585h-71q-10 0 -14.5 2t-6 7.5t-1.5 17.5v21q0 11 1.5 16t6 7t14.5 2h226
q14 0 18 -4.5zM208 953q5 -5 14 -18l70 -104q6 -8 10.5 -16t4.5 -13q0 -11 -14 -11h-21q-10 0 -16 3.5t-14 14.5l-70 87l-70 -87q-9 -11 -14.5 -14.5t-14.5 -3.5h-20q-15 0 -15 11q0 5 4 12.5t10 16.5l70 104q9 13 14.5 18t14.5 5h42q10 0 15 -5z" />
    <glyph glyph-name="Idieresis" unicode="&#xcf;" horiz-adv-x="346" 
d="M304 726.5q4 -4.5 4 -21.5v-21q0 -17 -4 -21.5t-18 -4.5h-71v-585h71q14 0 18 -4.5t4 -20.5v-21q0 -12 -1.5 -17.5t-6 -7.5t-14.5 -2h-226q-14 0 -18 5t-4 22v21q0 16 4 20.5t18 4.5h71v585h-71q-10 0 -14.5 2t-6 7.5t-1.5 17.5v21q0 11 1.5 16t6 7t14.5 2h226
q14 0 18 -4.5zM124.5 911.5q4.5 -5.5 4.5 -19.5v-57q0 -14 -4.5 -19.5t-18.5 -5.5h-42q-13 0 -18 6t-5 19v57q0 14 4 19.5t17 5.5h45q13 0 17.5 -5.5zM300 911.5q4 -5.5 4 -19.5v-57q0 -13 -5 -19t-17 -6h-43q-14 0 -18.5 5.5t-4.5 19.5v57q0 14 4.5 19.5t16.5 5.5h45
q14 0 18 -5.5z" />
    <glyph glyph-name="Eth" unicode="&#xd0;" horiz-adv-x="562" 
d="M414 693.5q52 -37.5 76 -111t24 -186.5v-50q0 -111 -22.5 -187t-76 -117.5t-143.5 -41.5h-166q-11 0 -16 2t-6.5 8t-1.5 19v311h-60q-14 0 -18 5t-4 21v22q0 15 4 20t18 5h60v290q0 13 1.5 18.5t6.5 7.5t16 2h171q85 0 137 -37.5zM428 380q0 99 -14.5 158t-48.5 86.5
t-93 27.5h-106v-239h88q15 0 19.5 -5t4.5 -20v-22q0 -16 -4 -21t-18 -5h-90v-261h100q64 0 99 29.5t49 86.5t14 149v36z" />
    <glyph glyph-name="Ntilde" unicode="&#xd1;" horiz-adv-x="593" 
d="M506.5 726.5q4.5 -4.5 4.5 -20.5v-680q0 -16 -4 -21t-19 -5h-37q-12 0 -18 4t-14 18l-222 466q-10 22 -21.5 50.5t-15.5 46.5h-2q3 -42 3 -116v-443q0 -17 -4 -21.5t-19 -4.5h-33q-14 0 -18.5 5t-4.5 21v679q0 16 4.5 21t18.5 5h35q13 0 19.5 -4.5t13.5 -18.5l227 -481
q10 -21 20 -48t13 -34h1l-1 22q-2 48 -2 70v469q0 16 4.5 20.5t18.5 4.5h33q15 0 19.5 -4.5zM445 937.5q3 -4.5 3 -14.5q0 -48 -21 -81t-59 -33q-18 0 -32.5 5.5t-33.5 17.5l-33 21q-15 10 -23 13.5t-19 3.5q-15 0 -24.5 -13.5t-12.5 -34.5q-2 -10 -5 -15.5t-10 -5.5h-15
q-8 0 -11 4.5t-3 14.5q0 30 9 56t26.5 42t43.5 16q19 0 33 -5.5t33 -17.5l34 -22q15 -10 23.5 -13.5t19.5 -3.5q15 0 24 14t12 34q2 11 5 16.5t11 5.5h15q7 0 10 -4.5z" />
    <glyph glyph-name="Ograve" unicode="&#xd2;" horiz-adv-x="564" 
d="M457.5 663.5q58.5 -81.5 58.5 -246.5v-100q0 -171 -60.5 -251t-171.5 -80h-7q-107 0 -168 78t-61 251v98q0 178 62 255t169 77h7q113 0 171.5 -81.5zM278 666q-52 0 -83.5 -27.5t-45.5 -83.5t-14 -144v-91q0 -88 14.5 -144t46 -83.5t82.5 -27.5h6q78 0 111.5 66t33.5 192
v85q0 126 -33 192t-112 66h-6zM246.5 957q5.5 -5 12.5 -20l47 -109q8 -18 8 -26q0 -11 -15 -11h-14q-10 0 -15.5 4t-12.5 13l-77 107q-8 11 -12.5 19.5t-4.5 14.5q0 7 5 10t16 3h45q12 0 17.5 -5z" />
    <glyph glyph-name="Oacute" unicode="&#xd3;" horiz-adv-x="564" 
d="M457.5 663.5q58.5 -81.5 58.5 -246.5v-100q0 -171 -60.5 -251t-171.5 -80h-7q-107 0 -168 78t-61 251v98q0 178 62 255t169 77h7q113 0 171.5 -81.5zM278 666q-52 0 -83.5 -27.5t-45.5 -83.5t-14 -144v-91q0 -88 14.5 -144t46 -83.5t82.5 -27.5h6q78 0 111.5 66t33.5 192
v85q0 126 -33 192t-112 66h-6zM386 959q5 -3 5 -10q0 -6 -4 -14t-13 -20l-77 -107q-8 -11 -12.5 -14t-14.5 -3h-16q-15 0 -15 11q0 8 8 26l48 109q7 16 12.5 20.5t17.5 4.5h45q11 0 16 -3z" />
    <glyph glyph-name="Ocircumflex" unicode="&#xd4;" horiz-adv-x="564" 
d="M457.5 663.5q58.5 -81.5 58.5 -246.5v-100q0 -171 -60.5 -251t-171.5 -80h-7q-107 0 -168 78t-61 251v98q0 178 62 255t169 77h7q113 0 171.5 -81.5zM278 666q-52 0 -83.5 -27.5t-45.5 -83.5t-14 -144v-91q0 -88 14.5 -144t46 -83.5t82.5 -27.5h6q78 0 111.5 66t33.5 192
v85q0 126 -33 192t-112 66h-6zM317 953q5 -5 14 -18l70 -104q6 -8 10.5 -16t4.5 -13q0 -11 -14 -11h-21q-10 0 -16 3.5t-14 14.5l-70 87l-70 -87q-9 -11 -14.5 -14.5t-14.5 -3.5h-20q-15 0 -15 11q0 5 4 12.5t10 16.5l70 104q9 13 14.5 18t14.5 5h42q10 0 15 -5z" />
    <glyph glyph-name="Otilde" unicode="&#xd5;" horiz-adv-x="564" 
d="M457.5 663.5q58.5 -81.5 58.5 -246.5v-100q0 -171 -60.5 -251t-171.5 -80h-7q-107 0 -168 78t-61 251v98q0 178 62 255t169 77h7q113 0 171.5 -81.5zM278 666q-52 0 -83.5 -27.5t-45.5 -83.5t-14 -144v-91q0 -88 14.5 -144t46 -83.5t82.5 -27.5h6q78 0 111.5 66t33.5 192
v85q0 126 -33 192t-112 66h-6zM430 937.5q3 -4.5 3 -14.5q0 -48 -21 -81t-59 -33q-18 0 -32.5 5.5t-33.5 17.5l-33 21q-15 10 -23 13.5t-19 3.5q-15 0 -24.5 -13.5t-12.5 -34.5q-2 -10 -5 -15.5t-10 -5.5h-15q-8 0 -11 4.5t-3 14.5q0 30 9 56t26.5 42t43.5 16q19 0 33 -5.5
t33 -17.5l34 -22q15 -10 23.5 -13.5t19.5 -3.5q15 0 24 14t12 34q2 11 5 16.5t11 5.5h15q7 0 10 -4.5z" />
    <glyph glyph-name="Odieresis" unicode="&#xd6;" horiz-adv-x="564" 
d="M457.5 663.5q58.5 -81.5 58.5 -246.5v-100q0 -171 -60.5 -251t-171.5 -80h-7q-107 0 -168 78t-61 251v98q0 178 62 255t169 77h7q113 0 171.5 -81.5zM278 666q-52 0 -83.5 -27.5t-45.5 -83.5t-14 -144v-91q0 -88 14.5 -144t46 -83.5t82.5 -27.5h6q78 0 111.5 66t33.5 192
v85q0 126 -33 192t-112 66h-6zM233.5 911.5q4.5 -5.5 4.5 -19.5v-57q0 -14 -4.5 -19.5t-18.5 -5.5h-42q-13 0 -18 6t-5 19v57q0 14 4 19.5t17 5.5h45q13 0 17.5 -5.5zM409 911.5q4 -5.5 4 -19.5v-57q0 -13 -5 -19t-17 -6h-43q-14 0 -18.5 5.5t-4.5 19.5v57q0 14 4.5 19.5
t16.5 5.5h45q14 0 18 -5.5z" />
    <glyph glyph-name="multiply" unicode="&#xd7;" horiz-adv-x="494" 
d="M430 182q0 -4 -2 -8.5t-7 -9.5l-17 -17l-5.5 -5.5t-6 -5t-5.5 -1.5q-6 0 -16 13l-125 164l-125 -164q-9 -12 -16 -12q-3 0 -6.5 3t-8.5 8l-17 17q-10 10 -10 18q0 3 3 8t7 10l129 170l-128 169q-4 5 -7 10t-3 8q0 8 10 18l16 17q5 5 8.5 8t7.5 3q9 0 17 -11l124 -163
l124 164q8 11 16 11q3 0 7 -3t9 -8l16 -17q10 -10 10 -19q0 -3 -3 -8t-7 -10l-128 -168l129 -170q10 -13 10 -19z" />
    <glyph glyph-name="Oslash" unicode="&#xd8;" horiz-adv-x="564" 
d="M542.5 699.5q-1.5 -3.5 -3.5 -6.5t-3 -4l-51 -76q31 -79 31 -196v-100q0 -171 -60.5 -251t-171.5 -80h-7q-105 0 -163 71l-39 -59q-7 -12 -15 -12q-5 0 -14 10l-16 15q-4 4 -7 8t-3 7t4 8.5t5 7.5l50 76q-31 76 -31 197v98q0 178 62 255t169 77h7q106 0 164 -71l39 59
q8 11 15 11q6 0 14 -8l17 -15q9 -9 9 -15q0 -3 -1.5 -6.5zM142 212l256 384q-18 35 -46 52.5t-68 17.5h-6q-52 0 -83.5 -27.5t-45.5 -83.5t-14 -144v-91q0 -65 7 -108zM421 517l-256 -384q17 -34 45 -51t68 -17h6q78 0 111.5 66t33.5 192v85q0 66 -8 109z" />
    <glyph glyph-name="Ugrave" unicode="&#xd9;" horiz-adv-x="570" 
d="M491.5 726q4.5 -5 4.5 -21v-451q0 -127 -50.5 -197.5t-154.5 -70.5h-19q-99 0 -148.5 69t-49.5 200v450q0 16 4.5 21t18.5 5h38q10 0 14.5 -2t6 -7t1.5 -17v-440q0 -104 31.5 -150t96.5 -46q46 0 73.5 20.5t40 63.5t12.5 113v439q0 16 4.5 21t18.5 5h38q15 0 19.5 -5z
M249.5 957q5.5 -5 12.5 -20l47 -109q8 -18 8 -26q0 -11 -15 -11h-14q-10 0 -15.5 4t-12.5 13l-77 107q-8 11 -12.5 19.5t-4.5 14.5q0 7 5 10t16 3h45q12 0 17.5 -5z" />
    <glyph glyph-name="Uacute" unicode="&#xda;" horiz-adv-x="570" 
d="M491.5 726q4.5 -5 4.5 -21v-451q0 -127 -50.5 -197.5t-154.5 -70.5h-19q-99 0 -148.5 69t-49.5 200v450q0 16 4.5 21t18.5 5h38q10 0 14.5 -2t6 -7t1.5 -17v-440q0 -104 31.5 -150t96.5 -46q46 0 73.5 20.5t40 63.5t12.5 113v439q0 16 4.5 21t18.5 5h38q15 0 19.5 -5z
M389 959q5 -3 5 -10q0 -6 -4 -14t-13 -20l-77 -107q-8 -11 -12.5 -14t-14.5 -3h-16q-15 0 -15 11q0 8 8 26l48 109q7 16 12.5 20.5t17.5 4.5h45q11 0 16 -3z" />
    <glyph glyph-name="Ucircumflex" unicode="&#xdb;" horiz-adv-x="570" 
d="M491.5 726q4.5 -5 4.5 -21v-451q0 -127 -50.5 -197.5t-154.5 -70.5h-19q-99 0 -148.5 69t-49.5 200v450q0 16 4.5 21t18.5 5h38q10 0 14.5 -2t6 -7t1.5 -17v-440q0 -104 31.5 -150t96.5 -46q46 0 73.5 20.5t40 63.5t12.5 113v439q0 16 4.5 21t18.5 5h38q15 0 19.5 -5z
M320 953q5 -5 14 -18l70 -104q6 -8 10.5 -16t4.5 -13q0 -11 -14 -11h-21q-10 0 -16 3.5t-14 14.5l-70 87l-70 -87q-9 -11 -14.5 -14.5t-14.5 -3.5h-20q-15 0 -15 11q0 5 4 12.5t10 16.5l70 104q9 13 14.5 18t14.5 5h42q10 0 15 -5z" />
    <glyph glyph-name="Udieresis" unicode="&#xdc;" horiz-adv-x="570" 
d="M491.5 726q4.5 -5 4.5 -21v-451q0 -127 -50.5 -197.5t-154.5 -70.5h-19q-99 0 -148.5 69t-49.5 200v450q0 16 4.5 21t18.5 5h38q10 0 14.5 -2t6 -7t1.5 -17v-440q0 -104 31.5 -150t96.5 -46q46 0 73.5 20.5t40 63.5t12.5 113v439q0 16 4.5 21t18.5 5h38q15 0 19.5 -5z
M236.5 911.5q4.5 -5.5 4.5 -19.5v-57q0 -14 -4.5 -19.5t-18.5 -5.5h-42q-13 0 -18 6t-5 19v57q0 14 4 19.5t17 5.5h45q13 0 17.5 -5.5zM412 911.5q4 -5.5 4 -19.5v-57q0 -13 -5 -19t-17 -6h-43q-14 0 -18.5 5.5t-4.5 19.5v57q0 14 4.5 19.5t16.5 5.5h45q14 0 18 -5.5z" />
    <glyph glyph-name="Yacute" unicode="&#xdd;" horiz-adv-x="451" 
d="M430 728q5 -3 5 -9t-4.5 -18t-6.5 -17l-149 -390q-1 -2 -3.5 -9t-3.5 -13.5t-1 -13.5v-232q0 -17 -4 -21.5t-18 -4.5h-38q-16 0 -20 4.5t-4 21.5v231q0 11 -2 18.5t-7 18.5l-147 390q-5 11 -8 20t-3 15q0 12 17 12h48q10 0 15.5 -4t9.5 -15l94 -268q12 -33 26 -88h2
q9 39 24 88l93 268q3 10 8.5 14.5t15.5 4.5h48q8 0 13 -3zM329 959q5 -3 5 -10q0 -6 -4 -14t-13 -20l-77 -107q-8 -11 -12.5 -14t-14.5 -3h-16q-15 0 -15 11q0 8 8 26l48 109q7 16 12.5 20.5t17.5 4.5h45q11 0 16 -3z" />
    <glyph glyph-name="Thorn" unicode="&#xde;" horiz-adv-x="508" 
d="M161.5 726q4.5 -5 4.5 -21v-111h114q194 0 194 -214q0 -114 -50 -169t-151 -55h-107v-130q0 -16 -4 -21t-19 -5h-38q-14 0 -18.5 5t-4.5 21v680q0 16 4 20.5t19 4.5h38q14 0 18.5 -5zM166 515v-281h105q43 0 68 16t36 47.5t11 81.5q0 48 -10.5 77.5t-34.5 44t-66 14.5
h-109z" />
    <glyph glyph-name="germandbls" unicode="&#xdf;" horiz-adv-x="492" 
d="M379.5 710.5q40.5 -39.5 40.5 -109.5q0 -34 -8 -58t-20 -39.5t-31 -34.5l-6 -6q-21 -21 -29.5 -37t-8.5 -35q0 -13 6.5 -24t18.5 -22.5t26 -22.5l19 -16q26 -22 42.5 -42.5t26.5 -50t10 -71.5t-15 -76.5t-46.5 -55.5t-79.5 -21q-26 0 -44.5 4t-35.5 10q-33 12 -33 28
q0 6 2 12t6 14q6 14 9.5 19t10.5 5q4 0 10 -2.5t10 -4.5q12 -6 25 -9t31 -3q32 0 49 24t17 60q0 28 -8.5 48t-22 34t-35.5 32q-6 5 -31 25.5t-38 46t-13 55.5q0 31 11.5 54.5t33.5 48.5l9 10q5 6 19.5 21t22.5 33t8 43q0 39 -20 60t-57 21q-59 0 -84 -57.5t-25 -156.5v-431
q0 -15 -1.5 -21.5t-6 -9t-14.5 -2.5h-35q-10 0 -14.5 2.5t-6.5 9.5t-2 22v436q0 124 44 202t147 78q76 0 116.5 -39.5z" />
    <glyph glyph-name="agrave" unicode="&#xe0;" horiz-adv-x="443" 
d="M336.5 517.5q35.5 -47.5 35.5 -132.5v-221q0 -37 5 -63t15 -48q8 -19 8 -25q0 -7 -4 -11.5t-14 -10.5l-13 -8q-7 -4 -12 -6t-10 -2q-6 0 -10.5 3.5t-8.5 12.5q-8 16 -14 36t-8 38h-2q-46 -91 -131 -91q-62 0 -97 42t-35 124q0 65 23 105.5t72.5 60t128.5 19.5h28v41
q0 57 -20 85t-66 28q-23 0 -41.5 -5t-45.5 -18q-8 -4 -15 -6.5t-12 -2.5q-8 0 -11.5 4.5t-9.5 17.5q-8 18 -8 28q0 9 6.5 15t21.5 13q27 12 55.5 18.5t61.5 6.5q92 0 127.5 -47.5zM263 276q-53 0 -84 -13t-44.5 -38.5t-13.5 -66.5q0 -51 19 -74.5t52 -23.5q47 0 74 46.5
t27 128.5v41h-30zM179.5 803q5.5 -5 13.5 -21l62 -129q4 -8 6.5 -14.5t2.5 -11.5q0 -6 -5 -9.5t-15 -3.5h-10q-11 0 -18.5 5t-14.5 14l-86 127q-3 4 -7.5 10.5t-7.5 13t-3 10.5q0 7 5 10.5t16 3.5h43q13 0 18.5 -5z" />
    <glyph glyph-name="aacute" unicode="&#xe1;" horiz-adv-x="443" 
d="M336.5 517.5q35.5 -47.5 35.5 -132.5v-221q0 -37 5 -63t15 -48q8 -19 8 -25q0 -7 -4 -11.5t-14 -10.5l-13 -8q-7 -4 -12 -6t-10 -2q-6 0 -10.5 3.5t-8.5 12.5q-8 16 -14 36t-8 38h-2q-46 -91 -131 -91q-62 0 -97 42t-35 124q0 65 23 105.5t72.5 60t128.5 19.5h28v41
q0 57 -20 85t-66 28q-23 0 -41.5 -5t-45.5 -18q-8 -4 -15 -6.5t-12 -2.5q-8 0 -11.5 4.5t-9.5 17.5q-8 18 -8 28q0 9 6.5 15t21.5 13q27 12 55.5 18.5t61.5 6.5q92 0 127.5 -47.5zM263 276q-53 0 -84 -13t-44.5 -38.5t-13.5 -66.5q0 -51 19 -74.5t52 -23.5q47 0 74 46.5
t27 128.5v41h-30zM335.5 804.5q5.5 -3.5 5.5 -10.5q0 -5 -3.5 -11.5t-7.5 -12.5t-7 -10l-86 -127q-13 -19 -29 -19h-15q-9 0 -13.5 3.5t-4.5 9.5q0 8 8 26l62 129q8 16 13.5 21t17.5 5h42q12 0 17.5 -3.5z" />
    <glyph glyph-name="acircumflex" unicode="&#xe2;" horiz-adv-x="443" 
d="M336.5 517.5q35.5 -47.5 35.5 -132.5v-221q0 -37 5 -63t15 -48q8 -19 8 -25q0 -7 -4 -11.5t-14 -10.5l-13 -8q-7 -4 -12 -6t-10 -2q-6 0 -10.5 3.5t-8.5 12.5q-8 16 -14 36t-8 38h-2q-46 -91 -131 -91q-62 0 -97 42t-35 124q0 65 23 105.5t72.5 60t128.5 19.5h28v41
q0 57 -20 85t-66 28q-23 0 -41.5 -5t-45.5 -18q-8 -4 -15 -6.5t-12 -2.5q-8 0 -11.5 4.5t-9.5 17.5q-8 18 -8 28q0 9 6.5 15t21.5 13q27 12 55.5 18.5t61.5 6.5q92 0 127.5 -47.5zM263 276q-53 0 -84 -13t-44.5 -38.5t-13.5 -66.5q0 -51 19 -74.5t52 -23.5q47 0 74 46.5
t27 128.5v41h-30zM248.5 803.5q3.5 -3.5 7.5 -10.5t6 -10l72 -126q2 -4 5.5 -9.5t6 -12t2.5 -10.5q0 -5 -4 -8t-10 -3h-19q-11 0 -16.5 3.5t-13.5 15.5l-71 109l-71 -109q-8 -12 -13.5 -15.5t-15.5 -3.5h-18q-7 0 -11 3.5t-4 8.5q0 6 3.5 14t9.5 17l72 126q9 15 13 19.5
t12 4.5h47q7 0 10.5 -3.5z" />
    <glyph glyph-name="atilde" unicode="&#xe3;" horiz-adv-x="443" 
d="M336.5 517.5q35.5 -47.5 35.5 -132.5v-221q0 -37 5 -63t15 -48q8 -19 8 -25q0 -7 -4 -11.5t-14 -10.5l-13 -8q-7 -4 -12 -6t-10 -2q-6 0 -10.5 3.5t-8.5 12.5q-8 16 -14 36t-8 38h-2q-46 -91 -131 -91q-62 0 -97 42t-35 124q0 65 23 105.5t72.5 60t128.5 19.5h28v41
q0 57 -20 85t-66 28q-23 0 -41.5 -5t-45.5 -18q-8 -4 -15 -6.5t-12 -2.5q-8 0 -11.5 4.5t-9.5 17.5q-8 18 -8 28q0 9 6.5 15t21.5 13q27 12 55.5 18.5t61.5 6.5q92 0 127.5 -47.5zM263 276q-53 0 -84 -13t-44.5 -38.5t-13.5 -66.5q0 -51 19 -74.5t52 -23.5q47 0 74 46.5
t27 128.5v41h-30zM362 748q0 -31 -11 -57.5t-28.5 -42t-37.5 -15.5q-18 0 -31.5 5.5t-31.5 17.5l-32 21q-16 10 -23.5 13.5t-17.5 3.5q-13 0 -22.5 -13t-13.5 -34q-2 -10 -5.5 -15.5t-10.5 -5.5h-16q-13 0 -13 18q0 31 10.5 57t28.5 41.5t40 15.5q16 0 30 -5.5t32 -16.5
l32 -21q14 -10 22.5 -14t18.5 -4q13 0 22 12.5t14 35.5q2 10 5 15.5t11 5.5h15q13 0 13 -18z" />
    <glyph glyph-name="adieresis" unicode="&#xe4;" horiz-adv-x="443" 
d="M336.5 517.5q35.5 -47.5 35.5 -132.5v-221q0 -37 5 -63t15 -48q8 -19 8 -25q0 -7 -4 -11.5t-14 -10.5l-13 -8q-7 -4 -12 -6t-10 -2q-6 0 -10.5 3.5t-8.5 12.5q-8 16 -14 36t-8 38h-2q-46 -91 -131 -91q-62 0 -97 42t-35 124q0 65 23 105.5t72.5 60t128.5 19.5h28v41
q0 57 -20 85t-66 28q-23 0 -41.5 -5t-45.5 -18q-8 -4 -15 -6.5t-12 -2.5q-8 0 -11.5 4.5t-9.5 17.5q-8 18 -8 28q0 9 6.5 15t21.5 13q27 12 55.5 18.5t61.5 6.5q92 0 127.5 -47.5zM263 276q-53 0 -84 -13t-44.5 -38.5t-13.5 -66.5q0 -51 19 -74.5t52 -23.5q47 0 74 46.5
t27 128.5v41h-30zM171.5 735q4.5 -5 4.5 -21v-54q0 -16 -5 -21t-21 -5h-36q-15 0 -20 5t-5 21v54q0 17 4 21.5t19 4.5h40q15 0 19.5 -5zM335.5 735q4.5 -5 4.5 -21v-54q0 -16 -5 -21t-20 -5h-36q-16 0 -21 5t-5 21v54q0 16 4.5 21t18.5 5h40q15 0 19.5 -5z" />
    <glyph glyph-name="aring" unicode="&#xe5;" horiz-adv-x="443" 
d="M336.5 517.5q35.5 -47.5 35.5 -132.5v-221q0 -37 5 -63t15 -48q8 -19 8 -25q0 -7 -4 -11.5t-14 -10.5l-13 -8q-7 -4 -12 -6t-10 -2q-6 0 -10.5 3.5t-8.5 12.5q-8 16 -14 36t-8 38h-2q-46 -91 -131 -91q-62 0 -97 42t-35 124q0 65 23 105.5t72.5 60t128.5 19.5h28v41
q0 57 -20 85t-66 28q-23 0 -41.5 -5t-45.5 -18q-8 -4 -15 -6.5t-12 -2.5q-8 0 -11.5 4.5t-9.5 17.5q-8 18 -8 28q0 9 6.5 15t21.5 13q27 12 55.5 18.5t61.5 6.5q92 0 127.5 -47.5zM263 276q-53 0 -84 -13t-44.5 -38.5t-13.5 -66.5q0 -51 19 -74.5t52 -23.5q47 0 74 46.5
t27 128.5v41h-30zM265.5 826.5q21.5 -15.5 33 -42t11.5 -58.5q0 -34 -11.5 -61t-33 -42.5t-50.5 -15.5q-30 0 -51.5 15.5t-33 42.5t-11.5 61q0 33 11.5 59.5t33 41.5t51.5 15q29 0 50.5 -15.5zM179 776q-12 -21 -12 -50q0 -31 12 -52.5t36 -21.5q23 0 35 21.5t12 52.5
q0 29 -12 50t-35 21q-24 0 -36 -21z" />
    <glyph glyph-name="ae" unicode="&#xe6;" horiz-adv-x="684" 
d="M599.5 506q40.5 -59 40.5 -182v-31q0 -14 -1.5 -20.5t-6.5 -9t-16 -2.5h-244v-35q0 -82 29.5 -123t86.5 -41q51 0 94 29q3 2 7.5 5.5t10.5 6.5t10 3q6 0 9.5 -4t10.5 -16q4 -7 7 -14t3 -13q0 -8 -5.5 -14t-19.5 -15q-28 -18 -62 -29.5t-69 -11.5q-62 0 -100.5 27
t-57.5 78q-24 -54 -63 -79.5t-85 -25.5q-137 0 -137 165q0 64 22 103t69 57t125 18h36v47q0 58 -20 86.5t-66 28.5q-23 0 -41.5 -5t-45.5 -18q-3 -1 -12.5 -5t-15.5 -4t-10 4.5t-10 17.5q-8 18 -8 28q0 9 6.5 15t21.5 13q55 25 117 25q52 0 85.5 -21.5t49.5 -59.5
q20 39 52.5 60t74.5 21q88 0 128.5 -59zM397.5 451.5q-24.5 -43.5 -25.5 -110.5v-10h188v23q0 75 -22.5 108t-69.5 33q-46 0 -70.5 -43.5zM254 268q-50 0 -79 -11.5t-41.5 -35.5t-12.5 -64q0 -51 19 -74t52 -23q50 0 75 42.5t26 120.5v45h-39z" />
    <glyph glyph-name="ccedilla" unicode="&#xe7;" horiz-adv-x="386" 
d="M298.5 3q-30.5 -13 -66.5 -14l-19 -52q5 4 13.5 6.5t16.5 2.5q36 0 55.5 -27.5t19.5 -67.5q0 -39 -16 -64.5t-41 -37.5t-53 -12q-26 0 -43 5t-32 13q-12 6 -18 11.5t-6 12.5q0 5 4 13l6 12q3 6 5.5 8t6.5 2t14 -5q27 -16 56 -16q23 0 38 13.5t15 41.5q0 22 -8.5 33
t-23.5 11q-9 0 -15 -3t-13 -9.5t-13 -6.5q-9 0 -20.5 6.5t-11.5 14.5q0 10 6 25l29 74q-140 28 -140 259v54q0 258 178 258q72 0 117 -37q17 -13 17 -26q0 -5 -2.5 -12t-5.5 -14q-9 -20 -22 -20q-5 0 -10.5 3.5t-10 6.5t-6.5 5q-32 22 -71 22q-50 0 -76 -44t-26 -139v-59
q0 -99 26 -144t77 -45q20 0 37.5 6.5t36.5 19.5q7 5 13 10t11 8t9 3q11 0 21 -18q9 -18 9 -27q0 -6 -3 -11t-11 -13q-23 -23 -53.5 -36z" />
    <glyph glyph-name="egrave" unicode="&#xe8;" horiz-adv-x="437" 
d="M352 506q41 -59 41 -182v-31q0 -14 -1.5 -20.5t-6.5 -9t-16 -2.5h-244v-23q0 -90 27.5 -133t87.5 -43q52 0 95 29q3 2 7.5 5.5t10 6.5t9.5 3q6 0 10 -4.5t10 -15.5q1 -2 3.5 -6.5t5 -10t2.5 -10.5q0 -8 -5.5 -14t-19.5 -15q-28 -19 -62 -30t-70 -11q-102 0 -147 65
t-45 194v64q0 81 21.5 138t61.5 86t96 29q88 0 129 -59zM149.5 451q-24.5 -44 -24.5 -113v-7h187v23q0 75 -22 108t-69 33t-71.5 -44zM183.5 803q5.5 -5 13.5 -21l62 -129q4 -8 6.5 -14.5t2.5 -11.5q0 -6 -5 -9.5t-15 -3.5h-10q-11 0 -18.5 5t-14.5 14l-86 127
q-3 4 -7.5 10.5t-7.5 13t-3 10.5q0 7 5 10.5t16 3.5h43q13 0 18.5 -5z" />
    <glyph glyph-name="eacute" unicode="&#xe9;" horiz-adv-x="437" 
d="M352 506q41 -59 41 -182v-31q0 -14 -1.5 -20.5t-6.5 -9t-16 -2.5h-244v-23q0 -90 27.5 -133t87.5 -43q52 0 95 29q3 2 7.5 5.5t10 6.5t9.5 3q6 0 10 -4.5t10 -15.5q1 -2 3.5 -6.5t5 -10t2.5 -10.5q0 -8 -5.5 -14t-19.5 -15q-28 -19 -62 -30t-70 -11q-102 0 -147 65
t-45 194v64q0 81 21.5 138t61.5 86t96 29q88 0 129 -59zM149.5 451q-24.5 -44 -24.5 -113v-7h187v23q0 75 -22 108t-69 33t-71.5 -44zM339.5 804.5q5.5 -3.5 5.5 -10.5q0 -5 -3.5 -11.5t-7.5 -12.5t-7 -10l-86 -127q-13 -19 -29 -19h-15q-9 0 -13.5 3.5t-4.5 9.5q0 8 8 26
l62 129q8 16 13.5 21t17.5 5h42q12 0 17.5 -3.5z" />
    <glyph glyph-name="ecircumflex" unicode="&#xea;" horiz-adv-x="437" 
d="M352 506q41 -59 41 -182v-31q0 -14 -1.5 -20.5t-6.5 -9t-16 -2.5h-244v-23q0 -90 27.5 -133t87.5 -43q52 0 95 29q3 2 7.5 5.5t10 6.5t9.5 3q6 0 10 -4.5t10 -15.5q1 -2 3.5 -6.5t5 -10t2.5 -10.5q0 -8 -5.5 -14t-19.5 -15q-28 -19 -62 -30t-70 -11q-102 0 -147 65
t-45 194v64q0 81 21.5 138t61.5 86t96 29q88 0 129 -59zM149.5 451q-24.5 -44 -24.5 -113v-7h187v23q0 75 -22 108t-69 33t-71.5 -44zM252.5 803.5q3.5 -3.5 7.5 -10.5t6 -10l72 -126q2 -4 5.5 -9.5t6 -12t2.5 -10.5q0 -5 -4 -8t-10 -3h-19q-11 0 -16.5 3.5t-13.5 15.5
l-71 109l-71 -109q-8 -12 -13.5 -15.5t-15.5 -3.5h-18q-7 0 -11 3.5t-4 8.5q0 6 3.5 14t9.5 17l72 126q9 15 13 19.5t12 4.5h47q7 0 10.5 -3.5z" />
    <glyph glyph-name="edieresis" unicode="&#xeb;" horiz-adv-x="437" 
d="M352 506q41 -59 41 -182v-31q0 -14 -1.5 -20.5t-6.5 -9t-16 -2.5h-244v-23q0 -90 27.5 -133t87.5 -43q52 0 95 29q3 2 7.5 5.5t10 6.5t9.5 3q6 0 10 -4.5t10 -15.5q1 -2 3.5 -6.5t5 -10t2.5 -10.5q0 -8 -5.5 -14t-19.5 -15q-28 -19 -62 -30t-70 -11q-102 0 -147 65
t-45 194v64q0 81 21.5 138t61.5 86t96 29q88 0 129 -59zM149.5 451q-24.5 -44 -24.5 -113v-7h187v23q0 75 -22 108t-69 33t-71.5 -44zM175.5 735q4.5 -5 4.5 -21v-54q0 -16 -5 -21t-21 -5h-36q-15 0 -20 5t-5 21v54q0 17 4 21.5t19 4.5h40q15 0 19.5 -5zM339.5 735
q4.5 -5 4.5 -21v-54q0 -16 -5 -21t-20 -5h-36q-16 0 -21 5t-5 21v54q0 16 4.5 21t18.5 5h40q15 0 19.5 -5z" />
    <glyph glyph-name="igrave" unicode="&#xec;" horiz-adv-x="229" 
d="M151 548q4 -5 4 -20v-502q0 -16 -4.5 -21t-18.5 -5h-35q-14 0 -18.5 5t-4.5 21v501q0 16 4.5 21t18.5 5h35q15 0 19 -5zM79.5 803q5.5 -5 13.5 -21l62 -129q4 -8 6.5 -14.5t2.5 -11.5q0 -6 -5 -9.5t-15 -3.5h-10q-11 0 -18.5 5t-14.5 14l-86 127q-3 4 -7.5 10.5t-7.5 13
t-3 10.5q0 7 5 10.5t16 3.5h43q13 0 18.5 -5z" />
    <glyph glyph-name="iacute" unicode="&#xed;" horiz-adv-x="229" 
d="M151 548q4 -5 4 -20v-502q0 -16 -4.5 -21t-18.5 -5h-35q-14 0 -18.5 5t-4.5 21v501q0 16 4.5 21t18.5 5h35q15 0 19 -5zM235.5 804.5q5.5 -3.5 5.5 -10.5q0 -5 -3.5 -11.5t-7.5 -12.5t-7 -10l-86 -127q-13 -19 -29 -19h-15q-9 0 -13.5 3.5t-4.5 9.5q0 8 8 26l62 129
q8 16 13.5 21t17.5 5h42q12 0 17.5 -3.5z" />
    <glyph glyph-name="icircumflex" unicode="&#xee;" horiz-adv-x="229" 
d="M151 548q4 -5 4 -20v-502q0 -16 -4.5 -21t-18.5 -5h-35q-14 0 -18.5 5t-4.5 21v501q0 16 4.5 21t18.5 5h35q15 0 19 -5zM148.5 803.5q3.5 -3.5 7.5 -10.5t6 -10l72 -126q2 -4 5.5 -9.5t6 -12t2.5 -10.5q0 -5 -4 -8t-10 -3h-19q-11 0 -16.5 3.5t-13.5 15.5l-71 109
l-71 -109q-8 -12 -13.5 -15.5t-15.5 -3.5h-18q-7 0 -11 3.5t-4 8.5q0 6 3.5 14t9.5 17l72 126q9 15 13 19.5t12 4.5h47q7 0 10.5 -3.5z" />
    <glyph glyph-name="idieresis" unicode="&#xef;" horiz-adv-x="229" 
d="M151 548q4 -5 4 -20v-502q0 -16 -4.5 -21t-18.5 -5h-35q-14 0 -18.5 5t-4.5 21v501q0 16 4.5 21t18.5 5h35q15 0 19 -5zM71.5 735q4.5 -5 4.5 -21v-54q0 -16 -5 -21t-21 -5h-36q-15 0 -20 5t-5 21v54q0 17 4 21.5t19 4.5h40q15 0 19.5 -5zM235.5 735q4.5 -5 4.5 -21v-54
q0 -16 -5 -21t-20 -5h-36q-16 0 -21 5t-5 21v54q0 16 4.5 21t18.5 5h40q15 0 19.5 -5z" />
    <glyph glyph-name="eth" unicode="&#xf0;" horiz-adv-x="456" 
d="M206 734q10 -6 26 -23q7 -6 16.5 -17t13.5 -15l68 34q4 2 6.5 3t5.5 1q4 0 7.5 -3t6.5 -11l5 -13q3 -9 3 -14q0 -8 -17 -16l-49 -25q56 -78 83 -154q31 -88 31 -203v-33q0 -134 -43.5 -195t-135.5 -61h-15q-90 0 -132 60t-42 186v46q0 125 41 186t121 61h5q23 0 44 -9.5
t34 -21.5l2 1q-11 25 -27.5 51.5t-34.5 50.5l-84 -42q-8 -4 -14 -4q-4 0 -6 2.5t-3.5 6t-2.5 5.5l-6 14q-3 8 -3 13t3.5 8.5t12.5 7.5l65 33q-11 14 -29.5 32t-25.5 25q-11 10 -17.5 17.5t-6.5 12.5q0 9 21 9h48q15 0 25 -6zM225 456q-38 0 -60 -21t-30.5 -60t-8.5 -101v-31
q0 -88 20.5 -134.5t75.5 -46.5h10q38 0 59.5 20.5t29.5 59.5t8 100v33q0 59 -8 98t-29.5 61t-60.5 22h-6z" />
    <glyph glyph-name="ntilde" unicode="&#xf1;" horiz-adv-x="489" 
d="M418 397v-370q0 -17 -4.5 -22t-19.5 -5h-34q-14 0 -18.5 5t-4.5 21v349q0 62 -16.5 89.5t-57.5 27.5q-30 0 -55 -17.5t-42 -41.5q-5 -8 -6.5 -13t-1.5 -19v-376q0 -15 -4 -20t-18 -5h-35q-15 0 -19.5 5t-4.5 21v501q0 16 4.5 21t18.5 5h28q11 0 15.5 -4.5t6.5 -18.5
l4 -33h3q27 34 61 51t71 17q129 0 129 -168zM389 748q0 -31 -11 -57.5t-28.5 -42t-37.5 -15.5q-18 0 -31.5 5.5t-31.5 17.5l-32 21q-16 10 -23.5 13.5t-17.5 3.5q-13 0 -22.5 -13t-13.5 -34q-2 -10 -5.5 -15.5t-10.5 -5.5h-16q-13 0 -13 18q0 31 10.5 57t28.5 41.5t40 15.5
q16 0 30 -5.5t32 -16.5l32 -21q14 -10 22.5 -14t18.5 -4q13 0 22 12.5t14 35.5q2 10 5 15.5t11 5.5h15q13 0 13 -18z" />
    <glyph glyph-name="ograve" unicode="&#xf2;" horiz-adv-x="456" 
d="M370 503q42 -62 42 -190v-67q0 -131 -44 -194t-135 -63h-15q-91 0 -132.5 63t-41.5 192v65q0 132 44.5 194t133.5 62h16q90 0 132 -62zM225 492q-38 0 -60 -21.5t-30.5 -62.5t-8.5 -105v-51q0 -92 20.5 -141t75.5 -49h9q39 0 60.5 22t29.5 63t8 104v52q0 65 -8.5 105.5
t-29.5 62t-59 21.5h-7zM192.5 803q5.5 -5 13.5 -21l62 -129q4 -8 6.5 -14.5t2.5 -11.5q0 -6 -5 -9.5t-15 -3.5h-10q-11 0 -18.5 5t-14.5 14l-86 127q-3 4 -7.5 10.5t-7.5 13t-3 10.5q0 7 5 10.5t16 3.5h43q13 0 18.5 -5z" />
    <glyph glyph-name="oacute" unicode="&#xf3;" horiz-adv-x="456" 
d="M370 503q42 -62 42 -190v-67q0 -131 -44 -194t-135 -63h-15q-91 0 -132.5 63t-41.5 192v65q0 132 44.5 194t133.5 62h16q90 0 132 -62zM225 492q-38 0 -60 -21.5t-30.5 -62.5t-8.5 -105v-51q0 -92 20.5 -141t75.5 -49h9q39 0 60.5 22t29.5 63t8 104v52q0 65 -8.5 105.5
t-29.5 62t-59 21.5h-7zM348.5 804.5q5.5 -3.5 5.5 -10.5q0 -5 -3.5 -11.5t-7.5 -12.5t-7 -10l-86 -127q-13 -19 -29 -19h-15q-9 0 -13.5 3.5t-4.5 9.5q0 8 8 26l62 129q8 16 13.5 21t17.5 5h42q12 0 17.5 -3.5z" />
    <glyph glyph-name="ocircumflex" unicode="&#xf4;" horiz-adv-x="456" 
d="M370 503q42 -62 42 -190v-67q0 -131 -44 -194t-135 -63h-15q-91 0 -132.5 63t-41.5 192v65q0 132 44.5 194t133.5 62h16q90 0 132 -62zM225 492q-38 0 -60 -21.5t-30.5 -62.5t-8.5 -105v-51q0 -92 20.5 -141t75.5 -49h9q39 0 60.5 22t29.5 63t8 104v52q0 65 -8.5 105.5
t-29.5 62t-59 21.5h-7zM261.5 803.5q3.5 -3.5 7.5 -10.5t6 -10l72 -126q2 -4 5.5 -9.5t6 -12t2.5 -10.5q0 -5 -4 -8t-10 -3h-19q-11 0 -16.5 3.5t-13.5 15.5l-71 109l-71 -109q-8 -12 -13.5 -15.5t-15.5 -3.5h-18q-7 0 -11 3.5t-4 8.5q0 6 3.5 14t9.5 17l72 126
q9 15 13 19.5t12 4.5h47q7 0 10.5 -3.5z" />
    <glyph glyph-name="otilde" unicode="&#xf5;" horiz-adv-x="456" 
d="M370 503q42 -62 42 -190v-67q0 -131 -44 -194t-135 -63h-15q-91 0 -132.5 63t-41.5 192v65q0 132 44.5 194t133.5 62h16q90 0 132 -62zM225 492q-38 0 -60 -21.5t-30.5 -62.5t-8.5 -105v-51q0 -92 20.5 -141t75.5 -49h9q39 0 60.5 22t29.5 63t8 104v52q0 65 -8.5 105.5
t-29.5 62t-59 21.5h-7zM375 748q0 -31 -11 -57.5t-28.5 -42t-37.5 -15.5q-18 0 -31.5 5.5t-31.5 17.5l-32 21q-16 10 -23.5 13.5t-17.5 3.5q-13 0 -22.5 -13t-13.5 -34q-2 -10 -5.5 -15.5t-10.5 -5.5h-16q-13 0 -13 18q0 31 10.5 57t28.5 41.5t40 15.5q16 0 30 -5.5
t32 -16.5l32 -21q14 -10 22.5 -14t18.5 -4q13 0 22 12.5t14 35.5q2 10 5 15.5t11 5.5h15q13 0 13 -18z" />
    <glyph glyph-name="odieresis" unicode="&#xf6;" horiz-adv-x="456" 
d="M370 503q42 -62 42 -190v-67q0 -131 -44 -194t-135 -63h-15q-91 0 -132.5 63t-41.5 192v65q0 132 44.5 194t133.5 62h16q90 0 132 -62zM225 492q-38 0 -60 -21.5t-30.5 -62.5t-8.5 -105v-51q0 -92 20.5 -141t75.5 -49h9q39 0 60.5 22t29.5 63t8 104v52q0 65 -8.5 105.5
t-29.5 62t-59 21.5h-7zM184.5 735q4.5 -5 4.5 -21v-54q0 -16 -5 -21t-21 -5h-36q-15 0 -20 5t-5 21v54q0 17 4 21.5t19 4.5h40q15 0 19.5 -5zM348.5 735q4.5 -5 4.5 -21v-54q0 -16 -5 -21t-20 -5h-36q-16 0 -21 5t-5 21v54q0 16 4.5 21t18.5 5h40q15 0 19.5 -5z" />
    <glyph glyph-name="divide" unicode="&#xf7;" horiz-adv-x="494" 
d="M279 622.5q5 -1.5 6.5 -6.5t1.5 -17v-56q0 -16 -4.5 -20.5t-20.5 -4.5h-31q-15 0 -19.5 4.5t-4.5 20.5v56q0 11 1.5 16.5t6 7t14.5 1.5h34q11 0 16 -1.5zM440.5 402.5q4.5 -4.5 4.5 -19.5v-24q0 -15 -4.5 -20t-18.5 -5h-350q-14 0 -18 4.5t-4 20.5v24q0 15 4 19.5t18 4.5
h350q14 0 18.5 -4.5zM283 219.5q4 -4.5 4 -21.5v-55q0 -16 -4.5 -20.5t-20.5 -4.5h-31q-15 0 -19.5 4.5t-4.5 20.5v55q0 17 4 21.5t18 4.5h34q16 0 20 -4.5z" />
    <glyph glyph-name="oslash" unicode="&#xf8;" horiz-adv-x="456" 
d="M361 515l27 38q4 6 7 8t6 2q5 0 14 -8l11 -9q9 -8 9 -16q0 -3 -2.5 -7.5t-6.5 -9.5l-36 -51q22 -56 22 -149v-67q0 -131 -44 -194t-135 -63h-15q-81 0 -123 50l-27 -38q-4 -6 -7 -8.5t-6 -2.5q-6 0 -14 8l-11 11q-9 9 -9 15q0 3 2 6.5t4 6t3 4.5l35 51q-21 59 -21 152v65
q0 132 44.5 194t133.5 62h16q79 0 123 -50zM225 497q-40 0 -62.5 -22.5t-31.5 -64.5t-9 -107v-51q0 -43 4 -74l187 268q-23 51 -81 51h-7zM143 109q24 -52 79 -52h9q40 0 62.5 23t31 65t8.5 106v52q0 41 -3 72z" />
    <glyph glyph-name="ugrave" unicode="&#xf9;" horiz-adv-x="488" 
d="M406.5 548q4.5 -5 4.5 -21v-501q0 -16 -4.5 -21t-18.5 -5h-25q-12 0 -17.5 4.5t-6.5 18.5l-4 33h-2q-27 -34 -62 -51t-72 -17q-61 0 -94.5 42t-33.5 127v370q0 12 1.5 17t7 7t16.5 2h31q15 0 19 -4.5t4 -21.5v-352q0 -60 16 -87t55 -27q30 0 57 18.5t44 42.5q5 7 6.5 13
t1.5 19v373q0 16 4.5 21t19.5 5h33q15 0 19.5 -5zM202.5 803q5.5 -5 13.5 -21l62 -129q4 -8 6.5 -14.5t2.5 -11.5q0 -6 -5 -9.5t-15 -3.5h-10q-11 0 -18.5 5t-14.5 14l-86 127q-3 4 -7.5 10.5t-7.5 13t-3 10.5q0 7 5 10.5t16 3.5h43q13 0 18.5 -5z" />
    <glyph glyph-name="uacute" unicode="&#xfa;" horiz-adv-x="488" 
d="M406.5 548q4.5 -5 4.5 -21v-501q0 -16 -4.5 -21t-18.5 -5h-25q-12 0 -17.5 4.5t-6.5 18.5l-4 33h-2q-27 -34 -62 -51t-72 -17q-61 0 -94.5 42t-33.5 127v370q0 12 1.5 17t7 7t16.5 2h31q15 0 19 -4.5t4 -21.5v-352q0 -60 16 -87t55 -27q30 0 57 18.5t44 42.5q5 7 6.5 13
t1.5 19v373q0 16 4.5 21t19.5 5h33q15 0 19.5 -5zM358.5 804.5q5.5 -3.5 5.5 -10.5q0 -5 -3.5 -11.5t-7.5 -12.5t-7 -10l-86 -127q-13 -19 -29 -19h-15q-9 0 -13.5 3.5t-4.5 9.5q0 8 8 26l62 129q8 16 13.5 21t17.5 5h42q12 0 17.5 -3.5z" />
    <glyph glyph-name="ucircumflex" unicode="&#xfb;" horiz-adv-x="488" 
d="M406.5 548q4.5 -5 4.5 -21v-501q0 -16 -4.5 -21t-18.5 -5h-25q-12 0 -17.5 4.5t-6.5 18.5l-4 33h-2q-27 -34 -62 -51t-72 -17q-61 0 -94.5 42t-33.5 127v370q0 12 1.5 17t7 7t16.5 2h31q15 0 19 -4.5t4 -21.5v-352q0 -60 16 -87t55 -27q30 0 57 18.5t44 42.5q5 7 6.5 13
t1.5 19v373q0 16 4.5 21t19.5 5h33q15 0 19.5 -5zM271.5 803.5q3.5 -3.5 7.5 -10.5t6 -10l72 -126q2 -4 5.5 -9.5t6 -12t2.5 -10.5q0 -5 -4 -8t-10 -3h-19q-11 0 -16.5 3.5t-13.5 15.5l-71 109l-71 -109q-8 -12 -13.5 -15.5t-15.5 -3.5h-18q-7 0 -11 3.5t-4 8.5q0 6 3.5 14
t9.5 17l72 126q9 15 13 19.5t12 4.5h47q7 0 10.5 -3.5z" />
    <glyph glyph-name="udieresis" unicode="&#xfc;" horiz-adv-x="488" 
d="M406.5 548q4.5 -5 4.5 -21v-501q0 -16 -4.5 -21t-18.5 -5h-25q-12 0 -17.5 4.5t-6.5 18.5l-4 33h-2q-27 -34 -62 -51t-72 -17q-61 0 -94.5 42t-33.5 127v370q0 12 1.5 17t7 7t16.5 2h31q15 0 19 -4.5t4 -21.5v-352q0 -60 16 -87t55 -27q30 0 57 18.5t44 42.5q5 7 6.5 13
t1.5 19v373q0 16 4.5 21t19.5 5h33q15 0 19.5 -5zM194.5 735q4.5 -5 4.5 -21v-54q0 -16 -5 -21t-21 -5h-36q-15 0 -20 5t-5 21v54q0 17 4 21.5t19 4.5h40q15 0 19.5 -5zM358.5 735q4.5 -5 4.5 -21v-54q0 -16 -5 -21t-20 -5h-36q-16 0 -21 5t-5 21v54q0 16 4.5 21t18.5 5h40
q15 0 19.5 -5z" />
    <glyph glyph-name="yacute" unicode="&#xfd;" horiz-adv-x="394" 
d="M383 540q0 -6 -3.5 -19.5t-4.5 -16.5l-138 -531q-17 -64 -35.5 -102t-44 -56t-62.5 -18q-16 0 -32 3.5t-30 9.5q-8 4 -12 8.5t-4 11.5q0 12 7 31q4 12 8 17t10 5q4 0 20 -6t29 -6q17 0 28.5 11.5t20.5 36t20 69.5q2 12 2 16q0 8 -3 21l-138 470q-10 36 -10 45q0 13 17 13
h40q9 0 13.5 -2t7.5 -7.5t7 -17.5l95 -355q8 -31 12 -61h2q2 16 6.5 35.5t5.5 25.5l84 359q4 14 9 18.5t16 4.5h40q17 0 17 -13zM317.5 804.5q5.5 -3.5 5.5 -10.5q0 -5 -3.5 -11.5t-7.5 -12.5t-7 -10l-86 -127q-13 -19 -29 -19h-15q-9 0 -13.5 3.5t-4.5 9.5q0 8 8 26l62 129
q8 16 13.5 21t17.5 5h42q12 0 17.5 -3.5z" />
    <glyph glyph-name="thorn" unicode="&#xfe;" horiz-adv-x="484" 
d="M154 732.5q4 -4.5 4 -21.5v-179q25 16 50 24.5t53 8.5h6q90 0 131.5 -65t41.5 -190v-64q0 -120 -40 -188t-120 -68h-4q-37 0 -67 16.5t-49 48.5h-2v-221q0 -17 -4 -21.5t-20 -4.5h-34q-14 0 -18.5 5t-4.5 22v876q0 16 4.5 21t18.5 5h36q14 0 18 -4.5zM253 492
q-24 0 -45.5 -7t-37.5 -21q-8 -5 -10 -9.5t-2 -16.5v-229q0 -40 12.5 -73.5t35.5 -53.5t53 -20h4q50 0 72.5 47.5t22.5 143.5v52q0 95 -23.5 141t-77.5 46h-4z" />
    <glyph glyph-name="ydieresis" unicode="&#xff;" horiz-adv-x="394" 
d="M383 540q0 -6 -3.5 -19.5t-4.5 -16.5l-138 -531q-17 -64 -35.5 -102t-44 -56t-62.5 -18q-16 0 -32 3.5t-30 9.5q-8 4 -12 8.5t-4 11.5q0 12 7 31q4 12 8 17t10 5q4 0 20 -6t29 -6q17 0 28.5 11.5t20.5 36t20 69.5q2 12 2 16q0 8 -3 21l-138 470q-10 36 -10 45q0 13 17 13
h40q9 0 13.5 -2t7.5 -7.5t7 -17.5l95 -355q8 -31 12 -61h2q2 16 6.5 35.5t5.5 25.5l84 359q4 14 9 18.5t16 4.5h40q17 0 17 -13zM153.5 735q4.5 -5 4.5 -21v-54q0 -16 -5 -21t-21 -5h-36q-15 0 -20 5t-5 21v54q0 17 4 21.5t19 4.5h40q15 0 19.5 -5zM317.5 735
q4.5 -5 4.5 -21v-54q0 -16 -5 -21t-20 -5h-36q-16 0 -21 5t-5 21v54q0 16 4.5 21t18.5 5h40q15 0 19.5 -5z" />
    <glyph glyph-name="Amacron" unicode="&#x100;" horiz-adv-x="525" 
d="M302.5 727.5q5.5 -3.5 9.5 -18.5l190 -660q6 -23 6 -34q0 -8 -4 -11.5t-17 -3.5h-46q-12 0 -16 5t-9 22l-49 190h-211l-51 -194q-3 -14 -7.5 -18.5t-15.5 -4.5h-43q-12 0 -17.5 3.5t-5.5 11.5q0 9 7 32l187 661q4 14 10 18.5t20 4.5h42q15 0 20.5 -3.5zM260 626
q-7 -44 -16 -73l-68 -257h170l-67 261l-17 69h-2zM383 891.5q5 -5.5 5 -17.5v-21q0 -23 -21 -23h-207q-13 0 -18 5.5t-5 17.5v21q0 12 5 17.5t18 5.5h205q13 0 18 -5.5z" />
    <glyph glyph-name="amacron" unicode="&#x101;" horiz-adv-x="443" 
d="M336.5 517.5q35.5 -47.5 35.5 -132.5v-221q0 -37 5 -63t15 -48q8 -19 8 -25q0 -7 -4 -11.5t-14 -10.5l-13 -8q-7 -4 -12 -6t-10 -2q-6 0 -10.5 3.5t-8.5 12.5q-8 16 -14 36t-8 38h-2q-46 -91 -131 -91q-62 0 -97 42t-35 124q0 65 23 105.5t72.5 60t128.5 19.5h28v41
q0 57 -20 85t-66 28q-23 0 -41.5 -5t-45.5 -18q-8 -4 -15 -6.5t-12 -2.5q-8 0 -11.5 4.5t-9.5 17.5q-8 18 -8 28q0 9 6.5 15t21.5 13q27 12 55.5 18.5t61.5 6.5q92 0 127.5 -47.5zM263 276q-53 0 -84 -13t-44.5 -38.5t-13.5 -66.5q0 -51 19 -74.5t52 -23.5q47 0 74 46.5
t27 128.5v41h-30zM334 716.5q5 -5.5 5 -17.5v-22q0 -22 -22 -22h-204q-13 0 -18 5t-5 18v21q0 12 5 17.5t18 5.5h203q13 0 18 -5.5z" />
    <glyph glyph-name="Abreve" unicode="&#x102;" horiz-adv-x="525" 
d="M302.5 727.5q5.5 -3.5 9.5 -18.5l190 -660q6 -23 6 -34q0 -8 -4 -11.5t-17 -3.5h-46q-12 0 -16 5t-9 22l-49 190h-211l-51 -194q-3 -14 -7.5 -18.5t-15.5 -4.5h-43q-12 0 -17.5 3.5t-5.5 11.5q0 9 7 32l187 661q4 14 10 18.5t20 4.5h42q15 0 20.5 -3.5zM260 626
q-7 -44 -16 -73l-68 -257h170l-67 261l-17 69h-2zM391.5 958.5q3.5 -3.5 3.5 -12.5q0 -50 -18 -85t-48 -52.5t-66 -17.5q-37 0 -67 17.5t-48 52.5t-18 85q0 9 3.5 12.5t10.5 3.5h15q8 0 12 -3.5t6 -14.5q18 -91 86 -91q67 0 85 91q2 11 5.5 14.5t12.5 3.5h15q7 0 10.5 -3.5z
" />
    <glyph glyph-name="abreve" unicode="&#x103;" horiz-adv-x="443" 
d="M336.5 517.5q35.5 -47.5 35.5 -132.5v-221q0 -37 5 -63t15 -48q8 -19 8 -25q0 -7 -4 -11.5t-14 -10.5l-13 -8q-7 -4 -12 -6t-10 -2q-6 0 -10.5 3.5t-8.5 12.5q-8 16 -14 36t-8 38h-2q-46 -91 -131 -91q-62 0 -97 42t-35 124q0 65 23 105.5t72.5 60t128.5 19.5h28v41
q0 57 -20 85t-66 28q-23 0 -41.5 -5t-45.5 -18q-8 -4 -15 -6.5t-12 -2.5q-8 0 -11.5 4.5t-9.5 17.5q-8 18 -8 28q0 9 6.5 15t21.5 13q27 12 55.5 18.5t61.5 6.5q92 0 127.5 -47.5zM263 276q-53 0 -84 -13t-44.5 -38.5t-13.5 -66.5q0 -51 19 -74.5t52 -23.5q47 0 74 46.5
t27 128.5v41h-30zM344 787q0 -56 -17.5 -95t-47 -58.5t-64.5 -19.5q-36 0 -65.5 19.5t-47 58.5t-17.5 95q0 15 13 15h15q9 0 12.5 -3t4.5 -15q6 -39 25 -72.5t60 -33.5q40 0 59 33.5t25 72.5q1 12 4.5 15t11.5 3h16q13 0 13 -15z" />
    <glyph glyph-name="Aogonek" unicode="&#x104;" horiz-adv-x="525" 
d="M534 -215q0 -8 -11 -14t-28 -10t-36 -4q-40 0 -69 22t-29 79q0 40 18 76.5t50 67.5q-4 2 -7 8.5t-6 16.5l-49 190h-211l-51 -194q-3 -14 -7.5 -18.5t-15.5 -4.5h-43q-12 0 -17.5 3.5t-5.5 11.5q0 9 7 32l187 661q4 14 10 18.5t20 4.5h42q15 0 20.5 -3.5t9.5 -18.5
l190 -660q6 -23 6 -34q0 -8 -4 -11.5t-17 -3.5h-13q-50 -65 -50 -129q0 -29 12.5 -44t33.5 -15q20 0 36 7q2 1 6.5 3t6.5 2q4 0 6 -3.5t3 -8.5l4 -16q2 -6 2 -11zM346 296l-67 261l-17 69h-2q-7 -44 -16 -73l-68 -257h170z" />
    <glyph glyph-name="aogonek" unicode="&#x105;" horiz-adv-x="443" 
d="M435 -205q0 -8 -11 -14t-28 -10t-36 -4q-40 0 -69 22t-29 79q0 75 64 141q-15 33 -20 71h-2q-46 -91 -131 -91q-62 0 -97 42t-35 124q0 65 23 105.5t72.5 60t128.5 19.5h28v41q0 57 -20 85t-66 28q-23 0 -41.5 -5t-45.5 -18q-8 -4 -15 -6.5t-12 -2.5q-8 0 -11.5 4.5
t-9.5 17.5q-8 18 -8 28q0 9 6.5 15t21.5 13q27 12 55.5 18.5t61.5 6.5q92 0 127.5 -47.5t35.5 -132.5v-221q0 -37 5 -63t15 -48q8 -19 8 -25q0 -7 -4 -11.5t-14 -10.5l-13 -8l-5 -3q-39 -56 -39 -114q0 -29 12.5 -44t33.5 -15q20 0 36 7q2 1 6.5 3t6.5 2q4 0 6 -3.5t3 -8.5
l4 -16q2 -6 2 -11zM293 276h-30q-53 0 -84 -13t-44.5 -38.5t-13.5 -66.5q0 -51 19 -74.5t52 -23.5q47 0 74 46.5t27 128.5v41z" />
    <glyph glyph-name="Cacute" unicode="&#x106;" horiz-adv-x="483" 
d="M347.5 736.5q35.5 -8.5 69.5 -27.5q14 -9 19 -14.5t5 -14.5t-7 -25q-6 -15 -11.5 -22t-12.5 -7q-5 0 -13 3.5t-15 7t-10 5.5q-46 24 -97 24q-54 0 -85 -31t-43 -86t-12 -137v-95q0 -95 15.5 -150t46 -78.5t78.5 -23.5q33 0 63 12t54 30q9 6 16 9.5t13 3.5t10.5 -4.5
t11.5 -18.5q4 -8 6 -15.5t2 -13.5q0 -10 -6 -17t-23 -19q-29 -21 -68.5 -33.5t-85.5 -12.5q-114 0 -167 80.5t-53 246.5v104q0 160 53.5 244t166.5 84q44 0 79.5 -8.5zM371 959q5 -3 5 -10q0 -6 -4 -14t-13 -20l-77 -107q-8 -11 -12.5 -14t-14.5 -3h-16q-15 0 -15 11
q0 8 8 26l48 109q7 16 12.5 20.5t17.5 4.5h45q11 0 16 -3z" />
    <glyph glyph-name="cacute" unicode="&#x107;" horiz-adv-x="386" 
d="M339 527q17 -13 17 -26q0 -5 -2.5 -12t-5.5 -14q-9 -20 -22 -20q-5 0 -10.5 3.5t-10 6.5t-6.5 5q-32 22 -71 22q-50 0 -76 -44t-26 -139v-59q0 -99 26 -144t77 -45q20 0 37.5 6.5t36.5 19.5q7 5 13 10t11 8t9 3q11 0 21 -18q9 -18 9 -27q0 -6 -3 -11t-11 -13
q-25 -24 -57 -37t-70 -13q-181 0 -181 263v54q0 258 178 258q72 0 117 -37zM340.5 804.5q5.5 -3.5 5.5 -10.5q0 -5 -3.5 -11.5t-7.5 -12.5t-7 -10l-86 -127q-13 -19 -29 -19h-15q-9 0 -13.5 3.5t-4.5 9.5q0 8 8 26l62 129q8 16 13.5 21t17.5 5h42q12 0 17.5 -3.5z" />
    <glyph glyph-name="Ccircumflex" unicode="&#x108;" horiz-adv-x="483" 
d="M347.5 736.5q35.5 -8.5 69.5 -27.5q14 -9 19 -14.5t5 -14.5t-7 -25q-6 -15 -11.5 -22t-12.5 -7q-5 0 -13 3.5t-15 7t-10 5.5q-46 24 -97 24q-54 0 -85 -31t-43 -86t-12 -137v-95q0 -95 15.5 -150t46 -78.5t78.5 -23.5q33 0 63 12t54 30q9 6 16 9.5t13 3.5t10.5 -4.5
t11.5 -18.5q4 -8 6 -15.5t2 -13.5q0 -10 -6 -17t-23 -19q-29 -21 -68.5 -33.5t-85.5 -12.5q-114 0 -167 80.5t-53 246.5v104q0 160 53.5 244t166.5 84q44 0 79.5 -8.5zM302 953q5 -5 14 -18l70 -104q6 -8 10.5 -16t4.5 -13q0 -11 -14 -11h-21q-10 0 -16 3.5t-14 14.5l-70 87
l-70 -87q-9 -11 -14.5 -14.5t-14.5 -3.5h-20q-15 0 -15 11q0 5 4 12.5t10 16.5l70 104q9 13 14.5 18t14.5 5h42q10 0 15 -5z" />
    <glyph glyph-name="ccircumflex" unicode="&#x109;" horiz-adv-x="386" 
d="M339 527q17 -13 17 -26q0 -5 -2.5 -12t-5.5 -14q-9 -20 -22 -20q-5 0 -10.5 3.5t-10 6.5t-6.5 5q-32 22 -71 22q-50 0 -76 -44t-26 -139v-59q0 -99 26 -144t77 -45q20 0 37.5 6.5t36.5 19.5q7 5 13 10t11 8t9 3q11 0 21 -18q9 -18 9 -27q0 -6 -3 -11t-11 -13
q-25 -24 -57 -37t-70 -13q-181 0 -181 263v54q0 258 178 258q72 0 117 -37zM253.5 803.5q3.5 -3.5 7.5 -10.5t6 -10l72 -126q2 -4 5.5 -9.5t6 -12t2.5 -10.5q0 -5 -4 -8t-10 -3h-19q-11 0 -16.5 3.5t-13.5 15.5l-71 109l-71 -109q-8 -12 -13.5 -15.5t-15.5 -3.5h-18
q-7 0 -11 3.5t-4 8.5q0 6 3.5 14t9.5 17l72 126q9 15 13 19.5t12 4.5h47q7 0 10.5 -3.5z" />
    <glyph glyph-name="Cdotaccent" unicode="&#x10a;" horiz-adv-x="483" 
d="M347.5 736.5q35.5 -8.5 69.5 -27.5q14 -9 19 -14.5t5 -14.5t-7 -25q-6 -15 -11.5 -22t-12.5 -7q-5 0 -13 3.5t-15 7t-10 5.5q-46 24 -97 24q-54 0 -85 -31t-43 -86t-12 -137v-95q0 -95 15.5 -150t46 -78.5t78.5 -23.5q33 0 63 12t54 30q9 6 16 9.5t13 3.5t10.5 -4.5
t11.5 -18.5q4 -8 6 -15.5t2 -13.5q0 -10 -6 -17t-23 -19q-29 -21 -68.5 -33.5t-85.5 -12.5q-114 0 -167 80.5t-53 246.5v104q0 160 53.5 244t166.5 84q44 0 79.5 -8.5zM306 911.5q4 -5.5 4 -19.5v-57q0 -14 -4.5 -19.5t-17.5 -5.5h-43q-13 0 -17.5 5.5t-4.5 19.5v57
q0 14 4 19.5t16 5.5h46q13 0 17 -5.5z" />
    <glyph glyph-name="cdotaccent" unicode="&#x10b;" horiz-adv-x="386" 
d="M339 527q17 -13 17 -26q0 -5 -2.5 -12t-5.5 -14q-9 -20 -22 -20q-5 0 -10.5 3.5t-10 6.5t-6.5 5q-32 22 -71 22q-50 0 -76 -44t-26 -139v-59q0 -99 26 -144t77 -45q20 0 37.5 6.5t36.5 19.5q7 5 13 10t11 8t9 3q11 0 21 -18q9 -18 9 -27q0 -6 -3 -11t-11 -13
q-25 -24 -57 -37t-70 -13q-181 0 -181 263v54q0 258 178 258q72 0 117 -37zM254.5 738q4.5 -2 6 -7t1.5 -17v-54q0 -12 -1.5 -17t-6.5 -7t-16 -2h-38q-11 0 -15.5 2t-6 7t-1.5 17v54q0 12 1.5 17t6 7t14.5 2h41q10 0 14.5 -2z" />
    <glyph glyph-name="Ccaron" unicode="&#x10c;" horiz-adv-x="483" 
d="M347.5 736.5q35.5 -8.5 69.5 -27.5q14 -9 19 -14.5t5 -14.5t-7 -25q-6 -15 -11.5 -22t-12.5 -7q-5 0 -13 3.5t-15 7t-10 5.5q-46 24 -97 24q-54 0 -85 -31t-43 -86t-12 -137v-95q0 -95 15.5 -150t46 -78.5t78.5 -23.5q33 0 63 12t54 30q9 6 16 9.5t13 3.5t10.5 -4.5
t11.5 -18.5q4 -8 6 -15.5t2 -13.5q0 -10 -6 -17t-23 -19q-29 -21 -68.5 -33.5t-85.5 -12.5q-114 0 -167 80.5t-53 246.5v104q0 160 53.5 244t166.5 84q44 0 79.5 -8.5zM400 947q0 -6 -3.5 -14t-9.5 -16l-70 -104q-9 -13 -14 -17.5t-15 -4.5h-42q-9 0 -15 5t-14 17l-70 104
q-6 9 -10 16.5t-4 13.5q0 5 4.5 8t11.5 3h19q9 0 14 -3.5t15 -15.5l70 -86l70 86q10 11 15.5 15t14.5 4h19q14 0 14 -11z" />
    <glyph glyph-name="ccaron" unicode="&#x10d;" horiz-adv-x="386" 
d="M339 527q17 -13 17 -26q0 -5 -2.5 -12t-5.5 -14q-9 -20 -22 -20q-5 0 -10.5 3.5t-10 6.5t-6.5 5q-32 22 -71 22q-50 0 -76 -44t-26 -139v-59q0 -99 26 -144t77 -45q20 0 37.5 6.5t36.5 19.5q7 5 13 10t11 8t9 3q11 0 21 -18q9 -18 9 -27q0 -6 -3 -11t-11 -13
q-25 -24 -57 -37t-70 -13q-181 0 -181 263v54q0 258 178 258q72 0 117 -37zM353 796q0 -4 -3 -11t-6 -12t-5 -8l-72 -127q-1 -2 -5.5 -10t-8.5 -11t-10 -3h-47q-9 0 -12.5 4.5t-12.5 19.5l-72 127q-13 21 -13 30q0 12 16 12h17q11 0 16 -3t13 -16l71 -107l71 107
q8 12 13.5 15.5t14.5 3.5h18q17 0 17 -11z" />
    <glyph glyph-name="Dcaron" unicode="&#x10e;" horiz-adv-x="562" 
d="M414 693.5q52 -37.5 76 -111t24 -186.5v-50q0 -111 -22.5 -187t-76 -117.5t-143.5 -41.5h-166q-11 0 -16 2t-6.5 8t-1.5 19v674q0 13 1.5 18.5t6.5 7.5t16 2h171q85 0 137 -37.5zM166 652v-573h100q64 0 99 29.5t49 86.5t14 149v36q0 99 -14.5 158t-48.5 86.5t-93 27.5
h-106zM418 947q0 -6 -3.5 -14t-9.5 -16l-70 -104q-9 -13 -14 -17.5t-15 -4.5h-42q-9 0 -15 5t-14 17l-70 104q-6 9 -10 16.5t-4 13.5q0 5 4.5 8t11.5 3h19q9 0 14 -3.5t15 -15.5l70 -86l70 86q10 11 15.5 15t14.5 4h19q14 0 14 -11z" />
    <glyph glyph-name="dcaron" unicode="&#x10f;" horiz-adv-x="510" 
d="M398 735q5 -2 6.5 -7.5t1.5 -17.5v-609q0 -27 -2 -39.5t-6.5 -19.5t-14.5 -14q-27 -19 -63.5 -29t-79.5 -10h-8q-91 0 -139.5 67t-48.5 193v56q0 78 19 136.5t56 91t88 32.5h5q35 0 63.5 -14.5t48.5 -42.5h1v203q0 16 4.5 21t19.5 5h34q10 0 15 -2zM228 493
q-53 0 -77.5 -50t-24.5 -142v-53q0 -90 25 -138t84 -48h8q20 0 38.5 5.5t29.5 14.5q7 6 10.5 12.5t3.5 17.5v267q0 32 -12 58t-33.5 41t-48.5 15h-3zM549.5 733q3.5 -4 3.5 -11t-8 -33l-43 -135q-4 -12 -7.5 -16t-11.5 -4h-18q-5 0 -8 3.5t-3 8.5q0 3 4 37l16 130
q2 11 4.5 16t7 6.5t14.5 1.5h37q9 0 12.5 -4z" />
    <glyph glyph-name="Dcroat" unicode="&#x110;" horiz-adv-x="562" 
d="M414 693.5q52 -37.5 76 -111t24 -186.5v-50q0 -111 -22.5 -187t-76 -117.5t-143.5 -41.5h-166q-11 0 -16 2t-6.5 8t-1.5 19v311h-60q-14 0 -18 5t-4 21v22q0 15 4 20t18 5h60v290q0 13 1.5 18.5t6.5 7.5t16 2h171q85 0 137 -37.5zM428 380q0 99 -14.5 158t-48.5 86.5
t-93 27.5h-106v-239h88q15 0 19.5 -5t4.5 -20v-22q0 -16 -4 -21t-18 -5h-90v-261h100q64 0 99 29.5t49 86.5t14 149v36z" />
    <glyph glyph-name="dcroat" unicode="&#x111;" horiz-adv-x="480" 
d="M458 664q4 -5 4 -20v-11q0 -16 -4 -21.5t-18 -5.5h-34v-505q0 -27 -2 -39.5t-6.5 -19.5t-14.5 -14q-27 -19 -63.5 -29t-79.5 -10h-8q-91 0 -139.5 67t-48.5 193v56q0 78 19 136.5t56 91t88 32.5h5q35 0 63.5 -14.5t48.5 -42.5h1v98h-90q-13 0 -17.5 5t-4.5 20v14
q0 14 4.5 19t17.5 5h90v42q0 16 4.5 21t19.5 5h34q10 0 15 -2t6.5 -7.5t1.5 -17.5v-41h33q15 0 19 -5zM325 379q0 32 -12 58t-33.5 41t-48.5 15h-3q-53 0 -77.5 -50t-24.5 -142v-53q0 -90 25 -138t84 -48h8q20 0 38.5 5.5t29.5 14.5q7 6 10.5 12.5t3.5 17.5v267z" />
    <glyph glyph-name="Emacron" unicode="&#x112;" horiz-adv-x="468" 
d="M417 726.5q4 -4.5 4 -20.5v-29q0 -16 -4 -21t-18 -5h-233v-226h167q15 0 19 -5t4 -21v-28q0 -16 -4.5 -20.5t-18.5 -4.5h-167v-266h244q14 0 18 -4.5t4 -21.5v-29q0 -16 -4 -20.5t-18 -4.5h-304q-11 0 -16 2t-6.5 8t-1.5 19v675q0 12 1.5 17.5t6.5 7.5t16 2h293
q14 0 18 -4.5zM374 891.5q5 -5.5 5 -17.5v-21q0 -23 -21 -23h-207q-13 0 -18 5.5t-5 17.5v21q0 12 5 17.5t18 5.5h205q13 0 18 -5.5z" />
    <glyph glyph-name="emacron" unicode="&#x113;" horiz-adv-x="437" 
d="M352 506q41 -59 41 -182v-31q0 -14 -1.5 -20.5t-6.5 -9t-16 -2.5h-244v-23q0 -90 27.5 -133t87.5 -43q52 0 95 29q3 2 7.5 5.5t10 6.5t9.5 3q6 0 10 -4.5t10 -15.5q1 -2 3.5 -6.5t5 -10t2.5 -10.5q0 -8 -5.5 -14t-19.5 -15q-28 -19 -62 -30t-70 -11q-102 0 -147 65
t-45 194v64q0 81 21.5 138t61.5 86t96 29q88 0 129 -59zM149.5 451q-24.5 -44 -24.5 -113v-7h187v23q0 75 -22 108t-69 33t-71.5 -44zM338 716.5q5 -5.5 5 -17.5v-22q0 -22 -22 -22h-204q-13 0 -18 5t-5 18v21q0 12 5 17.5t18 5.5h203q13 0 18 -5.5z" />
    <glyph glyph-name="Ebreve" unicode="&#x114;" horiz-adv-x="468" 
d="M417 726.5q4 -4.5 4 -20.5v-29q0 -16 -4 -21t-18 -5h-233v-226h167q15 0 19 -5t4 -21v-28q0 -16 -4.5 -20.5t-18.5 -4.5h-167v-266h244q14 0 18 -4.5t4 -21.5v-29q0 -16 -4 -20.5t-18 -4.5h-304q-11 0 -16 2t-6.5 8t-1.5 19v675q0 12 1.5 17.5t6.5 7.5t16 2h293
q14 0 18 -4.5zM382.5 958.5q3.5 -3.5 3.5 -12.5q0 -50 -18 -85t-48 -52.5t-66 -17.5q-37 0 -67 17.5t-48 52.5t-18 85q0 9 3.5 12.5t10.5 3.5h15q8 0 12 -3.5t6 -14.5q18 -91 86 -91q67 0 85 91q2 11 5.5 14.5t12.5 3.5h15q7 0 10.5 -3.5z" />
    <glyph glyph-name="ebreve" unicode="&#x115;" horiz-adv-x="437" 
d="M352 506q41 -59 41 -182v-31q0 -14 -1.5 -20.5t-6.5 -9t-16 -2.5h-244v-23q0 -90 27.5 -133t87.5 -43q52 0 95 29q3 2 7.5 5.5t10 6.5t9.5 3q6 0 10 -4.5t10 -15.5q1 -2 3.5 -6.5t5 -10t2.5 -10.5q0 -8 -5.5 -14t-19.5 -15q-28 -19 -62 -30t-70 -11q-102 0 -147 65
t-45 194v64q0 81 21.5 138t61.5 86t96 29q88 0 129 -59zM149.5 451q-24.5 -44 -24.5 -113v-7h187v23q0 75 -22 108t-69 33t-71.5 -44zM348 787q0 -56 -17.5 -95t-47 -58.5t-64.5 -19.5q-36 0 -65.5 19.5t-47 58.5t-17.5 95q0 15 13 15h15q9 0 12.5 -3t4.5 -15
q6 -39 25 -72.5t60 -33.5q40 0 59 33.5t25 72.5q1 12 4.5 15t11.5 3h16q13 0 13 -15z" />
    <glyph glyph-name="Edotaccent" unicode="&#x116;" horiz-adv-x="468" 
d="M417 726.5q4 -4.5 4 -20.5v-29q0 -16 -4 -21t-18 -5h-233v-226h167q15 0 19 -5t4 -21v-28q0 -16 -4.5 -20.5t-18.5 -4.5h-167v-266h244q14 0 18 -4.5t4 -21.5v-29q0 -16 -4 -20.5t-18 -4.5h-304q-11 0 -16 2t-6.5 8t-1.5 19v675q0 12 1.5 17.5t6.5 7.5t16 2h293
q14 0 18 -4.5zM293 911.5q4 -5.5 4 -19.5v-57q0 -14 -4.5 -19.5t-17.5 -5.5h-43q-13 0 -17.5 5.5t-4.5 19.5v57q0 14 4 19.5t16 5.5h46q13 0 17 -5.5z" />
    <glyph glyph-name="edotaccent" unicode="&#x117;" horiz-adv-x="437" 
d="M352 506q41 -59 41 -182v-31q0 -14 -1.5 -20.5t-6.5 -9t-16 -2.5h-244v-23q0 -90 27.5 -133t87.5 -43q52 0 95 29q3 2 7.5 5.5t10 6.5t9.5 3q6 0 10 -4.5t10 -15.5q1 -2 3.5 -6.5t5 -10t2.5 -10.5q0 -8 -5.5 -14t-19.5 -15q-28 -19 -62 -30t-70 -11q-102 0 -147 65
t-45 194v64q0 81 21.5 138t61.5 86t96 29q88 0 129 -59zM149.5 451q-24.5 -44 -24.5 -113v-7h187v23q0 75 -22 108t-69 33t-71.5 -44zM253.5 738q4.5 -2 6 -7t1.5 -17v-54q0 -12 -1.5 -17t-6.5 -7t-16 -2h-38q-11 0 -15.5 2t-6 7t-1.5 17v54q0 12 1.5 17t6 7t14.5 2h41
q10 0 14.5 -2z" />
    <glyph glyph-name="Eogonek" unicode="&#x118;" horiz-adv-x="468" 
d="M449 -215q0 -8 -11 -14t-28 -10t-36 -4q-40 0 -69 22t-29 79q0 75 65 142h-235q-11 0 -16 2t-6.5 8t-1.5 19v675q0 12 1.5 17.5t6.5 7.5t16 2h293q14 0 18 -4.5t4 -20.5v-29q0 -16 -4 -21t-18 -5h-233v-226h167q15 0 19 -5t4 -21v-28q0 -16 -4.5 -20.5t-18.5 -4.5h-167
v-266h244q14 0 18 -4.5t4 -21.5v-29q0 -16 -4 -20.5t-18 -4.5h-21q-50 -65 -50 -129q0 -29 12.5 -44t33.5 -15q20 0 36 7q2 1 6.5 3t6.5 2q4 0 6 -3.5t3 -8.5l4 -16q2 -6 2 -11z" />
    <glyph glyph-name="eogonek" unicode="&#x119;" horiz-adv-x="437" 
d="M398 -208q0 -8 -11 -14t-28 -10t-36 -4q-40 0 -69 22t-29 79q0 68 52 128q-17 -4 -41 -4q-102 0 -147 65t-45 194v64q0 81 21.5 138t61.5 86t96 29q88 0 129 -59t41 -182v-31q0 -14 -1.5 -20.5t-6.5 -9t-16 -2.5h-244v-23q0 -90 27.5 -133t87.5 -43q52 0 95 29
q3 2 7.5 5.5t10 6.5t9.5 3q6 0 10 -4.5t10 -15.5q1 -2 3.5 -6.5t5 -10t2.5 -10.5q0 -8 -5.5 -14t-19.5 -15q-4 -2 -9.5 -5.5t-12.5 -7.5q-31 -38 -44.5 -72t-13.5 -67q0 -29 12.5 -44t33.5 -15q20 0 36 7q2 1 6.5 3t6.5 2q4 0 6 -3.5t3 -8.5l4 -16q2 -6 2 -11zM125 331h187
v23q0 75 -22 108t-69 33t-71.5 -44t-24.5 -113v-7z" />
    <glyph glyph-name="Ecaron" unicode="&#x11a;" horiz-adv-x="468" 
d="M417 726.5q4 -4.5 4 -20.5v-29q0 -16 -4 -21t-18 -5h-233v-226h167q15 0 19 -5t4 -21v-28q0 -16 -4.5 -20.5t-18.5 -4.5h-167v-266h244q14 0 18 -4.5t4 -21.5v-29q0 -16 -4 -20.5t-18 -4.5h-304q-11 0 -16 2t-6.5 8t-1.5 19v675q0 12 1.5 17.5t6.5 7.5t16 2h293
q14 0 18 -4.5zM387 947q0 -6 -3.5 -14t-9.5 -16l-70 -104q-9 -13 -14 -17.5t-15 -4.5h-42q-9 0 -15 5t-14 17l-70 104q-6 9 -10 16.5t-4 13.5q0 5 4.5 8t11.5 3h19q9 0 14 -3.5t15 -15.5l70 -86l70 86q10 11 15.5 15t14.5 4h19q14 0 14 -11z" />
    <glyph glyph-name="ecaron" unicode="&#x11b;" horiz-adv-x="437" 
d="M352 506q41 -59 41 -182v-31q0 -14 -1.5 -20.5t-6.5 -9t-16 -2.5h-244v-23q0 -90 27.5 -133t87.5 -43q52 0 95 29q3 2 7.5 5.5t10 6.5t9.5 3q6 0 10 -4.5t10 -15.5q1 -2 3.5 -6.5t5 -10t2.5 -10.5q0 -8 -5.5 -14t-19.5 -15q-28 -19 -62 -30t-70 -11q-102 0 -147 65
t-45 194v64q0 81 21.5 138t61.5 86t96 29q88 0 129 -59zM149.5 451q-24.5 -44 -24.5 -113v-7h187v23q0 75 -22 108t-69 33t-71.5 -44zM352 796q0 -4 -3 -11t-6 -12t-5 -8l-72 -127q-1 -2 -5.5 -10t-8.5 -11t-10 -3h-47q-9 0 -12.5 4.5t-12.5 19.5l-72 127q-13 21 -13 30
q0 12 16 12h17q11 0 16 -3t13 -16l71 -107l71 107q8 12 13.5 15.5t14.5 3.5h18q17 0 17 -11z" />
    <glyph glyph-name="Gcircumflex" unicode="&#x11c;" horiz-adv-x="555" 
d="M450 713q16 -8 21 -14t5 -14q0 -9 -7 -28q-6 -14 -11 -20.5t-12 -6.5q-5 0 -12.5 2.5t-18.5 6.5q-36 14 -59 20.5t-57 6.5q-58 0 -94 -24.5t-53 -79t-17 -147.5v-86q0 -102 17 -159.5t51.5 -81t92.5 -23.5q43 0 73 16q16 9 22.5 17.5t6.5 22.5v209h-113q-14 0 -18 5
t-4 22v25q0 17 4 22t18 5h176q13 0 17 -5t4 -21v-299q0 -17 -6 -26t-22 -21q-71 -51 -167 -51q-127 0 -183 86t-56 249v95q0 163 59.5 246t186.5 83q90 0 156 -32zM315 953q5 -5 14 -18l70 -104q6 -8 10.5 -16t4.5 -13q0 -11 -14 -11h-21q-10 0 -16 3.5t-14 14.5l-70 87
l-70 -87q-9 -11 -14.5 -14.5t-14.5 -3.5h-20q-15 0 -15 11q0 5 4 12.5t10 16.5l70 104q9 13 14.5 18t14.5 5h42q10 0 15 -5z" />
    <glyph glyph-name="gcircumflex" unicode="&#x11d;" horiz-adv-x="480" 
d="M388 544q12 -4 15 -9.5t3 -23.5v-455q0 -130 -42 -195t-140 -65q-72 0 -132 33q-14 8 -19.5 13t-5.5 13q0 9 8 27q5 12 10 18t11 6q5 0 11.5 -2.5t14.5 -6.5q23 -12 46.5 -20t51.5 -8q37 0 60.5 17.5t35 57.5t11.5 107v36h-2q-22 -32 -51.5 -48.5t-63.5 -16.5h-7
q-49 0 -84.5 28.5t-55 85t-19.5 139.5v39q0 74 22 130.5t68 88.5t116 32q74 0 138 -21zM157 448q-31 -44 -31 -136v-33q0 -83 23.5 -134t72.5 -51h6q32 0 54.5 21t33.5 53t11 64v230q0 11 -2.5 15t-11.5 7q-29 8 -64 8q-61 0 -92 -44zM272.5 803.5q3.5 -3.5 7.5 -10.5t6 -10
l72 -126q2 -4 5.5 -9.5t6 -12t2.5 -10.5q0 -5 -4 -8t-10 -3h-19q-11 0 -16.5 3.5t-13.5 15.5l-71 109l-71 -109q-8 -12 -13.5 -15.5t-15.5 -3.5h-18q-7 0 -11 3.5t-4 8.5q0 6 3.5 14t9.5 17l72 126q9 15 13 19.5t12 4.5h47q7 0 10.5 -3.5z" />
    <glyph glyph-name="Gbreve" unicode="&#x11e;" horiz-adv-x="555" 
d="M450 713q16 -8 21 -14t5 -14q0 -9 -7 -28q-6 -14 -11 -20.5t-12 -6.5q-5 0 -12.5 2.5t-18.5 6.5q-36 14 -59 20.5t-57 6.5q-58 0 -94 -24.5t-53 -79t-17 -147.5v-86q0 -102 17 -159.5t51.5 -81t92.5 -23.5q43 0 73 16q16 9 22.5 17.5t6.5 22.5v209h-113q-14 0 -18 5
t-4 22v25q0 17 4 22t18 5h176q13 0 17 -5t4 -21v-299q0 -17 -6 -26t-22 -21q-71 -51 -167 -51q-127 0 -183 86t-56 249v95q0 163 59.5 246t186.5 83q90 0 156 -32zM408.5 958.5q3.5 -3.5 3.5 -12.5q0 -50 -18 -85t-48 -52.5t-66 -17.5q-37 0 -67 17.5t-48 52.5t-18 85
q0 9 3.5 12.5t10.5 3.5h15q8 0 12 -3.5t6 -14.5q18 -91 86 -91q67 0 85 91q2 11 5.5 14.5t12.5 3.5h15q7 0 10.5 -3.5z" />
    <glyph glyph-name="gbreve" unicode="&#x11f;" horiz-adv-x="480" 
d="M388 544q12 -4 15 -9.5t3 -23.5v-455q0 -130 -42 -195t-140 -65q-72 0 -132 33q-14 8 -19.5 13t-5.5 13q0 9 8 27q5 12 10 18t11 6q5 0 11.5 -2.5t14.5 -6.5q23 -12 46.5 -20t51.5 -8q37 0 60.5 17.5t35 57.5t11.5 107v36h-2q-22 -32 -51.5 -48.5t-63.5 -16.5h-7
q-49 0 -84.5 28.5t-55 85t-19.5 139.5v39q0 74 22 130.5t68 88.5t116 32q74 0 138 -21zM157 448q-31 -44 -31 -136v-33q0 -83 23.5 -134t72.5 -51h6q32 0 54.5 21t33.5 53t11 64v230q0 11 -2.5 15t-11.5 7q-29 8 -64 8q-61 0 -92 -44zM368 787q0 -56 -17.5 -95t-47 -58.5
t-64.5 -19.5q-36 0 -65.5 19.5t-47 58.5t-17.5 95q0 15 13 15h15q9 0 12.5 -3t4.5 -15q6 -39 25 -72.5t60 -33.5q40 0 59 33.5t25 72.5q1 12 4.5 15t11.5 3h16q13 0 13 -15z" />
    <glyph glyph-name="Gdotaccent" unicode="&#x120;" horiz-adv-x="555" 
d="M450 713q16 -8 21 -14t5 -14q0 -9 -7 -28q-6 -14 -11 -20.5t-12 -6.5q-5 0 -12.5 2.5t-18.5 6.5q-36 14 -59 20.5t-57 6.5q-58 0 -94 -24.5t-53 -79t-17 -147.5v-86q0 -102 17 -159.5t51.5 -81t92.5 -23.5q43 0 73 16q16 9 22.5 17.5t6.5 22.5v209h-113q-14 0 -18 5
t-4 22v25q0 17 4 22t18 5h176q13 0 17 -5t4 -21v-299q0 -17 -6 -26t-22 -21q-71 -51 -167 -51q-127 0 -183 86t-56 249v95q0 163 59.5 246t186.5 83q90 0 156 -32zM319 911.5q4 -5.5 4 -19.5v-57q0 -14 -4.5 -19.5t-17.5 -5.5h-43q-13 0 -17.5 5.5t-4.5 19.5v57q0 14 4 19.5
t16 5.5h46q13 0 17 -5.5z" />
    <glyph glyph-name="gdotaccent" unicode="&#x121;" horiz-adv-x="480" 
d="M388 544q12 -4 15 -9.5t3 -23.5v-455q0 -130 -42 -195t-140 -65q-72 0 -132 33q-14 8 -19.5 13t-5.5 13q0 9 8 27q5 12 10 18t11 6q5 0 11.5 -2.5t14.5 -6.5q23 -12 46.5 -20t51.5 -8q37 0 60.5 17.5t35 57.5t11.5 107v36h-2q-22 -32 -51.5 -48.5t-63.5 -16.5h-7
q-49 0 -84.5 28.5t-55 85t-19.5 139.5v39q0 74 22 130.5t68 88.5t116 32q74 0 138 -21zM157 448q-31 -44 -31 -136v-33q0 -83 23.5 -134t72.5 -51h6q32 0 54.5 21t33.5 53t11 64v230q0 11 -2.5 15t-11.5 7q-29 8 -64 8q-61 0 -92 -44zM273.5 738q4.5 -2 6 -7t1.5 -17v-54
q0 -12 -1.5 -17t-6.5 -7t-16 -2h-38q-11 0 -15.5 2t-6 7t-1.5 17v54q0 12 1.5 17t6 7t14.5 2h41q10 0 14.5 -2z" />
    <glyph glyph-name="Gcommaaccent" unicode="&#x122;" horiz-adv-x="555" 
d="M450 713q16 -8 21 -14t5 -14q0 -9 -7 -28q-6 -14 -11 -20.5t-12 -6.5q-5 0 -12.5 2.5t-18.5 6.5q-36 14 -59 20.5t-57 6.5q-58 0 -94 -24.5t-53 -79t-17 -147.5v-86q0 -102 17 -159.5t51.5 -81t92.5 -23.5q43 0 73 16q16 9 22.5 17.5t6.5 22.5v209h-113q-14 0 -18 5
t-4 22v25q0 17 4 22t18 5h176q13 0 17 -5t4 -21v-299q0 -17 -6 -26t-22 -21q-71 -51 -167 -51q-127 0 -183 86t-56 249v95q0 163 59.5 246t186.5 83q90 0 156 -32zM329.5 -64q4.5 -5 4.5 -21v-65q0 -12 -3.5 -23t-12.5 -34l-18 -43q-6 -15 -9.5 -19.5t-8.5 -4.5q-6 0 -13 5
q-4 2 -7.5 5t-3.5 8q0 7 8 31l17 57h-17q-9 0 -13 4t-4 19v61q0 12 1 16.5t5.5 6.5t15.5 2h40q14 0 18.5 -5z" />
    <glyph glyph-name="gcommaaccent" unicode="&#x123;" horiz-adv-x="480" 
d="M388 544q12 -4 15 -9.5t3 -23.5v-455q0 -130 -42 -195t-140 -65q-72 0 -132 33q-14 8 -19.5 13t-5.5 13q0 9 8 27q5 12 10 18t11 6q5 0 11.5 -2.5t14.5 -6.5q23 -12 46.5 -20t51.5 -8q37 0 60.5 17.5t35 57.5t11.5 107v36h-2q-22 -32 -51.5 -48.5t-63.5 -16.5h-7
q-49 0 -84.5 28.5t-55 85t-19.5 139.5v39q0 74 22 130.5t68 88.5t116 32q74 0 138 -21zM157 448q-31 -44 -31 -136v-33q0 -83 23.5 -134t72.5 -51h6q32 0 54.5 21t33.5 53t11 64v230q0 11 -2.5 15t-11.5 7q-29 8 -64 8q-61 0 -92 -44zM200 635q-4 5 -4 21v63q0 13 3.5 25
t11.5 32l19 46q5 12 9 16.5t8 4.5q6 0 14 -4q1 -1 4.5 -3t5 -4.5t1.5 -5.5q0 -5 -3.5 -16t-5.5 -17l-17 -56h18q8 0 12 -5t4 -19l1 -57q0 -17 -4 -21.5t-19 -4.5h-40q-14 0 -18 5z" />
    <glyph glyph-name="Hcircumflex" unicode="&#x124;" horiz-adv-x="588" 
d="M498.5 729.5q4.5 -1.5 6 -6.5t1.5 -17v-680q0 -12 -1.5 -17t-6 -7t-15.5 -2h-38q-15 0 -19.5 5t-4.5 21v322h-255v-323q0 -16 -4 -20.5t-19 -4.5h-38q-15 0 -19 4.5t-4 21.5v679q0 17 4 21.5t19 4.5h38q15 0 19 -4.5t4 -20.5v-279h255v279q0 16 5 20.5t19 4.5h38
q11 0 15.5 -1.5zM330 953q5 -5 14 -18l70 -104q6 -8 10.5 -16t4.5 -13q0 -11 -14 -11h-21q-10 0 -16 3.5t-14 14.5l-70 87l-70 -87q-9 -11 -14.5 -14.5t-14.5 -3.5h-20q-15 0 -15 11q0 5 4 12.5t10 16.5l70 104q9 13 14.5 18t14.5 5h42q10 0 15 -5z" />
    <glyph glyph-name="hcircumflex" unicode="&#x125;" horiz-adv-x="489" 
d="M153 732q4 -5 4 -20v-213h2q54 66 132 66q59 0 93 -41t34 -127v-371q0 -16 -4.5 -21t-19.5 -5h-34q-15 0 -19 4.5t-4 21.5v349q0 62 -16.5 89.5t-57.5 27.5q-30 0 -56 -17.5t-42 -42.5q-5 -7 -6 -12t-1 -19v-376q0 -15 -4 -20t-18 -5h-35q-13 0 -18.5 5t-5.5 19v687
q0 17 4 21.5t19 4.5h35q14 0 18 -5zM264 959q5 -5 14 -18l70 -104q6 -8 10.5 -16t4.5 -13q0 -11 -14 -11h-21q-10 0 -16 3.5t-14 14.5l-70 87l-70 -87q-9 -11 -14.5 -14.5t-14.5 -3.5h-20q-15 0 -15 11q0 5 4 12.5t10 16.5l70 104q9 13 14.5 18t14.5 5h42q10 0 15 -5z" />
    <glyph glyph-name="Hbar" unicode="&#x126;" horiz-adv-x="588" 
d="M558 615q4 -5 4 -21v-22q0 -16 -4 -21.5t-18 -5.5h-34v-519q0 -12 -1.5 -17t-6 -7t-15.5 -2h-38q-15 0 -19.5 5t-4.5 21v322h-255v-323q0 -16 -4 -20.5t-19 -4.5h-38q-15 0 -19 4.5t-4 21.5v519h-36q-13 0 -16.5 5.5t-3.5 22.5v22q0 15 3.5 20t16.5 5h36v85q0 17 4 21.5
t19 4.5h38q15 0 19 -4.5t4 -20.5v-86h255v86q0 16 5 20.5t19 4.5h38q11 0 15.5 -1.5t6 -6.5t1.5 -17v-86h33q15 0 19 -5zM421 545h-255v-118h255v118z" />
    <glyph glyph-name="hbar" unicode="&#x127;" horiz-adv-x="489" 
d="M384 524q34 -41 34 -127v-371q0 -16 -4.5 -21t-19.5 -5h-34q-15 0 -19 4.5t-4 21.5v349q0 62 -16.5 89.5t-57.5 27.5q-30 0 -56 -17.5t-42 -42.5q-5 -7 -6 -12t-1 -19v-376q0 -15 -4 -20t-18 -5h-35q-13 0 -18.5 5t-5.5 19v582h-36q-13 0 -17.5 5.5t-4.5 21.5v12
q0 14 4.5 19t18.5 5h35v42q0 17 4 21.5t19 4.5h35q14 0 18 -5t4 -20v-43h77q15 0 18.5 -4.5t3.5 -20.5v-11q0 -16 -3.5 -21.5t-17.5 -5.5h-78v-107h2q54 66 132 66q59 0 93 -41z" />
    <glyph glyph-name="Itilde" unicode="&#x128;" horiz-adv-x="346" 
d="M304 726.5q4 -4.5 4 -21.5v-21q0 -17 -4 -21.5t-18 -4.5h-71v-585h71q14 0 18 -4.5t4 -20.5v-21q0 -12 -1.5 -17.5t-6 -7.5t-14.5 -2h-226q-14 0 -18 5t-4 22v21q0 16 4 20.5t18 4.5h71v585h-71q-10 0 -14.5 2t-6 7.5t-1.5 17.5v21q0 11 1.5 16t6 7t14.5 2h226
q14 0 18 -4.5zM321 937.5q3 -4.5 3 -14.5q0 -48 -21 -81t-59 -33q-18 0 -32.5 5.5t-33.5 17.5l-33 21q-15 10 -23 13.5t-19 3.5q-15 0 -24.5 -13.5t-12.5 -34.5q-2 -10 -5 -15.5t-10 -5.5h-15q-8 0 -11 4.5t-3 14.5q0 30 9 56t26.5 42t43.5 16q19 0 33 -5.5t33 -17.5l34 -22
q15 -10 23.5 -13.5t19.5 -3.5q15 0 24 14t12 34q2 11 5 16.5t11 5.5h15q7 0 10 -4.5z" />
    <glyph glyph-name="itilde" unicode="&#x129;" horiz-adv-x="229" 
d="M151 548q4 -5 4 -20v-502q0 -16 -4.5 -21t-18.5 -5h-35q-14 0 -18.5 5t-4.5 21v501q0 16 4.5 21t18.5 5h35q15 0 19 -5zM262 748q0 -31 -11 -57.5t-28.5 -42t-37.5 -15.5q-18 0 -31.5 5.5t-31.5 17.5l-32 21q-16 10 -23.5 13.5t-17.5 3.5q-13 0 -22.5 -13t-13.5 -34
q-2 -10 -5.5 -15.5t-10.5 -5.5h-16q-13 0 -13 18q0 31 10.5 57t28.5 41.5t40 15.5q16 0 30 -5.5t32 -16.5l32 -21q14 -10 22.5 -14t18.5 -4q13 0 22 12.5t14 35.5q2 10 5 15.5t11 5.5h15q13 0 13 -18z" />
    <glyph glyph-name="Imacron" unicode="&#x12a;" horiz-adv-x="346" 
d="M304 726.5q4 -4.5 4 -21.5v-21q0 -17 -4 -21.5t-18 -4.5h-71v-585h71q14 0 18 -4.5t4 -20.5v-21q0 -12 -1.5 -17.5t-6 -7.5t-14.5 -2h-226q-14 0 -18 5t-4 22v21q0 16 4 20.5t18 4.5h71v585h-71q-10 0 -14.5 2t-6 7.5t-1.5 17.5v21q0 11 1.5 16t6 7t14.5 2h226
q14 0 18 -4.5zM293 891.5q5 -5.5 5 -17.5v-21q0 -23 -21 -23h-207q-13 0 -18 5.5t-5 17.5v21q0 12 5 17.5t18 5.5h205q13 0 18 -5.5z" />
    <glyph glyph-name="imacron" unicode="&#x12b;" horiz-adv-x="229" 
d="M151 548q4 -5 4 -20v-502q0 -16 -4.5 -21t-18.5 -5h-35q-14 0 -18.5 5t-4.5 21v501q0 16 4.5 21t18.5 5h35q15 0 19 -5zM234 716.5q5 -5.5 5 -17.5v-22q0 -22 -22 -22h-204q-13 0 -18 5t-5 18v21q0 12 5 17.5t18 5.5h203q13 0 18 -5.5z" />
    <glyph glyph-name="Ibreve" unicode="&#x12c;" horiz-adv-x="346" 
d="M304 726.5q4 -4.5 4 -21.5v-21q0 -17 -4 -21.5t-18 -4.5h-71v-585h71q14 0 18 -4.5t4 -20.5v-21q0 -12 -1.5 -17.5t-6 -7.5t-14.5 -2h-226q-14 0 -18 5t-4 22v21q0 16 4 20.5t18 4.5h71v585h-71q-10 0 -14.5 2t-6 7.5t-1.5 17.5v21q0 11 1.5 16t6 7t14.5 2h226
q14 0 18 -4.5zM301.5 958.5q3.5 -3.5 3.5 -12.5q0 -50 -18 -85t-48 -52.5t-66 -17.5q-37 0 -67 17.5t-48 52.5t-18 85q0 9 3.5 12.5t10.5 3.5h15q8 0 12 -3.5t6 -14.5q18 -91 86 -91q67 0 85 91q2 11 5.5 14.5t12.5 3.5h15q7 0 10.5 -3.5z" />
    <glyph glyph-name="ibreve" unicode="&#x12d;" horiz-adv-x="229" 
d="M151 548q4 -5 4 -20v-502q0 -16 -4.5 -21t-18.5 -5h-35q-14 0 -18.5 5t-4.5 21v501q0 16 4.5 21t18.5 5h35q15 0 19 -5zM244 787q0 -56 -17.5 -95t-47 -58.5t-64.5 -19.5q-36 0 -65.5 19.5t-47 58.5t-17.5 95q0 15 13 15h15q9 0 12.5 -3t4.5 -15q6 -39 25 -72.5t60 -33.5
q40 0 59 33.5t25 72.5q1 12 4.5 15t11.5 3h16q13 0 13 -15z" />
    <glyph glyph-name="Iogonek" unicode="&#x12e;" horiz-adv-x="346" 
d="M215 658v-585h71q14 0 18 -4.5t4 -20.5v-21q0 -12 -1.5 -17.5t-6 -7.5t-14.5 -2h-85q-50 -65 -50 -129q0 -29 12.5 -44t33.5 -15q20 0 36 7q2 1 6.5 3t6.5 2q4 0 6 -3.5t3 -8.5l4 -16q2 -6 2 -11q0 -8 -11 -14t-28 -10t-36 -4q-40 0 -69 22t-29 79q0 75 65 142h-93
q-14 0 -18 5t-4 22v21q0 16 4 20.5t18 4.5h71v585h-71q-10 0 -14.5 2t-6 7.5t-1.5 17.5v21q0 11 1.5 16t6 7t14.5 2h226q14 0 18 -4.5t4 -21.5v-21q0 -17 -4 -21.5t-18 -4.5h-71z" />
    <glyph glyph-name="iogonek" unicode="&#x12f;" horiz-adv-x="229" 
d="M75.5 639q-4.5 5 -4.5 21v53q0 17 4.5 22t19.5 5h39q11 0 16 -2t6.5 -7.5t1.5 -17.5v-53q0 -16 -4.5 -21t-20.5 -5h-37q-16 0 -20.5 5zM200 -215q0 -8 -11 -14t-28 -10t-36 -4q-40 0 -69 22t-29 79q0 75 65 142q-11 1 -14.5 6t-3.5 20v501q0 16 4.5 21t18.5 5h35
q15 0 19 -5t4 -20v-502q0 -13 -3 -18.5t-11 -6.5q-27 -35 -39 -66.5t-12 -63.5q0 -29 12.5 -44t33.5 -15q20 0 36 7q2 1 6.5 3t6.5 2q4 0 6 -3.5t3 -8.5l4 -16q2 -6 2 -11z" />
    <glyph glyph-name="Idotaccent" unicode="&#x130;" horiz-adv-x="346" 
d="M304 726.5q4 -4.5 4 -21.5v-21q0 -17 -4 -21.5t-18 -4.5h-71v-585h71q14 0 18 -4.5t4 -20.5v-21q0 -12 -1.5 -17.5t-6 -7.5t-14.5 -2h-226q-14 0 -18 5t-4 22v21q0 16 4 20.5t18 4.5h71v585h-71q-10 0 -14.5 2t-6 7.5t-1.5 17.5v21q0 11 1.5 16t6 7t14.5 2h226
q14 0 18 -4.5zM212 911.5q4 -5.5 4 -19.5v-57q0 -14 -4.5 -19.5t-17.5 -5.5h-43q-13 0 -17.5 5.5t-4.5 19.5v57q0 14 4 19.5t16 5.5h46q13 0 17 -5.5z" />
    <glyph glyph-name="dotlessi" unicode="&#x131;" horiz-adv-x="229" 
d="M151 548q4 -5 4 -20v-502q0 -16 -4.5 -21t-18.5 -5h-35q-14 0 -18.5 5t-4.5 21v501q0 16 4.5 21t18.5 5h35q15 0 19 -5z" />
    <glyph glyph-name="IJ" unicode="&#x132;" horiz-adv-x="744" 
d="M304 726.5q4 -4.5 4 -21.5v-21q0 -17 -4 -21.5t-18 -4.5h-71v-585h71q14 0 18 -4.5t4 -20.5v-21q0 -12 -1.5 -17.5t-6 -7.5t-14.5 -2h-226q-14 0 -18 5t-4 22v21q0 16 4 20.5t18 4.5h71v585h-71q-10 0 -14.5 2t-6 7.5t-1.5 17.5v21q0 11 1.5 16t6 7t14.5 2h226
q14 0 18 -4.5zM665.5 726q4.5 -5 4.5 -22v-507q0 -98 -37 -155.5t-119 -57.5q-52 0 -85 22.5t-53 65.5q-16 32 -16 50q0 8 5 13.5t19 14.5q10 5 17 8t12 3q8 0 13.5 -7.5t12.5 -26.5q13 -33 31 -48.5t43 -15.5q36 0 54.5 33t18.5 97v459h-101q-14 0 -18.5 5t-4.5 21v26
q0 17 4.5 22t18.5 5h161q15 0 19.5 -5z" />
    <glyph glyph-name="ij" unicode="&#x133;" horiz-adv-x="458" 
d="M150 738q5 -2 6.5 -7.5t1.5 -17.5v-53q0 -16 -4.5 -21t-20.5 -5h-37q-16 0 -20.5 5t-4.5 21v53q0 17 4.5 22t19.5 5h39q11 0 16 -2zM151 548q4 -5 4 -20v-502q0 -16 -4.5 -21t-18.5 -5h-35q-14 0 -18.5 5t-4.5 21v501q0 16 4.5 21t18.5 5h35q15 0 19 -5zM304.5 639
q-4.5 5 -4.5 21v53q0 17 4.5 22t19.5 5h39q16 0 20 -4.5t4 -21.5v-54q0 -16 -4.5 -21t-20.5 -5h-37q-16 0 -20.5 5zM202 -191q-10 5 -13.5 9t-3.5 12q0 6 2.5 14.5t6.5 16.5q6 12 10 16.5t9 4.5q6 0 15 -3.5t17.5 -6t18.5 -2.5q21 0 30 17.5t9 57.5v582q0 17 4 21.5t19 4.5
h35q15 0 19 -4.5t4 -20.5v-584q0 -70 -27.5 -109.5t-88.5 -39.5q-33 0 -66 14z" />
    <glyph glyph-name="Jcircumflex" unicode="&#x134;" horiz-adv-x="398" 
d="M319.5 726q4.5 -5 4.5 -22v-507q0 -98 -37 -155.5t-119 -57.5q-52 0 -85 22.5t-53 65.5q-16 32 -16 50q0 8 5 13.5t19 14.5q10 5 17 8t12 3q8 0 13.5 -7.5t12.5 -26.5q13 -33 31 -48.5t43 -15.5q36 0 54.5 33t18.5 97v459h-101q-14 0 -18.5 5t-4.5 21v26q0 17 4.5 22
t18.5 5h161q15 0 19.5 -5zM229 953q5 -5 14 -18l70 -104q6 -8 10.5 -16t4.5 -13q0 -11 -14 -11h-21q-10 0 -16 3.5t-14 14.5l-70 87l-70 -87q-9 -11 -14.5 -14.5t-14.5 -3.5h-20q-15 0 -15 11q0 5 4 12.5t10 16.5l70 104q9 13 14.5 18t14.5 5h42q10 0 15 -5z" />
    <glyph glyph-name="jcircumflex" unicode="&#x135;" horiz-adv-x="226" 
d="M151 548.5q4 -4.5 4 -20.5v-584q0 -77 -30.5 -113t-85.5 -36q-33 0 -66 14q-9 4 -13 9t-4 12q0 6 3 15t6 16q6 13 10 17t11 4q3 0 11.5 -3.5t18 -6t19.5 -2.5q22 0 30.5 19t8.5 56v582q0 17 4 21.5t19 4.5h35q15 0 19 -4.5zM146.5 803.5q3.5 -3.5 7.5 -10.5t6 -10
l72 -126q2 -4 5.5 -9.5t6 -12t2.5 -10.5q0 -5 -4 -8t-10 -3h-19q-11 0 -16.5 3.5t-13.5 15.5l-71 109l-71 -109q-8 -12 -13.5 -15.5t-15.5 -3.5h-18q-7 0 -11 3.5t-4 8.5q0 6 3.5 14t9.5 17l72 126q9 15 13 19.5t12 4.5h47q7 0 10.5 -3.5z" />
    <glyph glyph-name="Kcommaaccent" unicode="&#x136;" horiz-adv-x="509" 
d="M469 728.5q6 -2.5 6 -9.5q0 -6 -4.5 -14.5t-12.5 -18.5l-208 -295l225 -338q4 -6 11 -16t9 -15t2 -9q0 -13 -19 -13h-53q-12 0 -18.5 4t-13.5 15l-197 310q-6 9 -11 12.5t-14 3.5h-5v-319q0 -16 -4.5 -21t-18.5 -5h-38q-15 0 -19 4.5t-4 21.5v679q0 17 4 21.5t19 4.5h38
q14 0 18.5 -5t4.5 -21v-280h5q6 0 10.5 3.5t10.5 12.5l178 270q7 11 14.5 15.5t20.5 4.5h46q12 0 18 -2.5zM309.5 -64q4.5 -5 4.5 -21v-65q0 -12 -3.5 -23t-12.5 -34l-18 -43q-6 -15 -9.5 -19.5t-8.5 -4.5q-6 0 -13 5q-4 2 -7.5 5t-3.5 8q0 7 8 31l17 57h-17q-9 0 -13 4
t-4 19v61q0 12 1 16.5t5.5 6.5t15.5 2h40q14 0 18.5 -5z" />
    <glyph glyph-name="kcommaaccent" unicode="&#x137;" horiz-adv-x="427" 
d="M150.5 732q4.5 -5 4.5 -21v-377h2q7 0 12 5.5t15 19.5l126 178q6 9 13 12.5t18 3.5h40q13 0 19 -2.5t6 -10.5q0 -5 -5.5 -14t-12.5 -18l-154 -203l175 -262q7 -10 11.5 -18t4.5 -13q0 -7 -6 -9.5t-18 -2.5h-38q-14 0 -20.5 4t-14.5 16l-141 220q-8 13 -14 20t-13 7h-5
v-239q0 -18 -4.5 -23t-19.5 -5h-34q-10 0 -14.5 2t-6.5 8t-2 19v682q0 16 4.5 21t19.5 5h34q14 0 18.5 -5zM257.5 -64q4.5 -5 4.5 -21v-65q0 -12 -3.5 -23t-12.5 -34l-18 -43q-6 -15 -9.5 -19.5t-8.5 -4.5q-6 0 -13 5q-4 2 -7.5 5t-3.5 8q0 7 8 31l17 57h-17q-9 0 -13 4
t-4 19v61q0 12 1 16.5t5.5 6.5t15.5 2h40q14 0 18.5 -5z" />
    <glyph glyph-name="kgreenlandic" unicode="&#x138;" horiz-adv-x="427" 
d="M400 550.5q6 -2.5 6 -10.5q0 -5 -5.5 -14t-12.5 -18l-154 -203l175 -262q7 -10 11.5 -18t4.5 -13q0 -7 -6 -9.5t-18 -2.5h-38q-14 0 -20.5 4t-14.5 16l-141 220q-8 13 -14 20t-13 7h-5v-239q0 -18 -4.5 -23t-19.5 -5h-34q-10 0 -14.5 2t-6.5 8t-2 19v498q0 16 4.5 21
t19.5 5h34q14 0 18.5 -5t4.5 -21v-193h2q7 0 12 5.5t15 19.5l126 178q6 9 13 12.5t18 3.5h40q13 0 19 -2.5z" />
    <glyph glyph-name="Lacute" unicode="&#x139;" horiz-adv-x="424" 
d="M161.5 726q4.5 -5 4.5 -21v-624h221q14 0 18.5 -5t4.5 -21v-29q0 -17 -4 -21.5t-19 -4.5h-281q-11 0 -16 2t-6.5 8.5t-1.5 21.5v673q0 17 4 21.5t19 4.5h38q14 0 18.5 -5zM227 959q5 -3 5 -10q0 -6 -4 -14t-13 -20l-77 -107q-8 -11 -12.5 -14t-14.5 -3h-16q-15 0 -15 11
q0 8 8 26l48 109q7 16 12.5 20.5t17.5 4.5h45q11 0 16 -3z" />
    <glyph glyph-name="lacute" unicode="&#x13a;" horiz-adv-x="244" 
d="M147 732q4 -5 4 -21v-558q0 -47 8.5 -67.5t27.5 -20.5q11 0 22 5t14 5q6 0 9 -4t8 -15q8 -18 8 -30q0 -8 -4 -12.5t-11 -8.5q-10 -6 -26.5 -10t-35.5 -4q-52 0 -76 39.5t-24 115.5v565q0 16 4.5 21t18.5 5h34q15 0 19 -5zM220 959q5 -3 5 -10q0 -6 -4 -14t-13 -20
l-77 -107q-8 -11 -12.5 -14t-14.5 -3h-16q-15 0 -15 11q0 8 8 26l48 109q7 16 12.5 20.5t17.5 4.5h45q11 0 16 -3z" />
    <glyph glyph-name="Lcommaaccent" unicode="&#x13b;" horiz-adv-x="424" 
d="M161.5 726q4.5 -5 4.5 -21v-624h221q14 0 18.5 -5t4.5 -21v-29q0 -17 -4 -21.5t-19 -4.5h-281q-11 0 -16 2t-6.5 8.5t-1.5 21.5v673q0 17 4 21.5t19 4.5h38q14 0 18.5 -5zM296.5 -64q4.5 -5 4.5 -21v-65q0 -12 -3.5 -23t-12.5 -34l-18 -43q-6 -15 -9.5 -19.5t-8.5 -4.5
q-6 0 -13 5q-4 2 -7.5 5t-3.5 8q0 7 8 31l17 57h-17q-9 0 -13 4t-4 19v61q0 12 1 16.5t5.5 6.5t15.5 2h40q14 0 18.5 -5z" />
    <glyph glyph-name="lcommaaccent" unicode="&#x13c;" horiz-adv-x="244" 
d="M147 732q4 -5 4 -21v-558q0 -47 8.5 -67.5t27.5 -20.5q11 0 22 5t14 5q6 0 9 -4t8 -15q8 -18 8 -30q0 -8 -4 -12.5t-11 -8.5q-10 -6 -26.5 -10t-35.5 -4q-52 0 -76 39.5t-24 115.5v565q0 16 4.5 21t18.5 5h34q15 0 19 -5zM195.5 -64q4.5 -5 4.5 -21v-65q0 -12 -3.5 -23
t-12.5 -34l-18 -43q-6 -15 -9.5 -19.5t-8.5 -4.5q-6 0 -13 5q-4 2 -7.5 5t-3.5 8q0 7 8 31l17 57h-17q-9 0 -13 4t-4 19v61q0 12 1 16.5t5.5 6.5t15.5 2h40q14 0 18.5 -5z" />
    <glyph glyph-name="Lcaron" unicode="&#x13d;" horiz-adv-x="424" 
d="M161.5 726q4.5 -5 4.5 -21v-624h221q14 0 18.5 -5t4.5 -21v-29q0 -17 -4 -21.5t-19 -4.5h-281q-11 0 -16 2t-6.5 8.5t-1.5 21.5v673q0 17 4 21.5t19 4.5h38q14 0 18.5 -5zM367.5 725q3.5 -4 3.5 -11t-8 -33l-43 -135q-4 -12 -7.5 -16t-11.5 -4h-18q-5 0 -8 3.5t-3 8.5
q0 3 4 37l16 130q2 11 4.5 16t7 6.5t14.5 1.5h37q9 0 12.5 -4z" />
    <glyph glyph-name="lcaron" unicode="&#x13e;" horiz-adv-x="250" 
d="M147 732q4 -5 4 -21v-558q0 -47 8.5 -67.5t27.5 -20.5q11 0 22 5t14 5q6 0 9 -4t8 -15q8 -18 8 -30q0 -8 -4 -12.5t-11 -8.5q-10 -6 -26.5 -10t-35.5 -4q-52 0 -76 39.5t-24 115.5v565q0 16 4.5 21t18.5 5h34q15 0 19 -5zM289.5 733q3.5 -4 3.5 -11t-8 -33l-43 -135
q-4 -12 -7.5 -16t-11.5 -4h-18q-5 0 -8 3.5t-3 8.5q0 3 4 37l16 130q2 11 4.5 16t7 6.5t14.5 1.5h37q9 0 12.5 -4z" />
    <glyph glyph-name="Ldot" unicode="&#x13f;" horiz-adv-x="424" 
d="M161.5 726q4.5 -5 4.5 -21v-624h221q14 0 18.5 -5t4.5 -21v-29q0 -17 -4 -21.5t-19 -4.5h-281q-11 0 -16 2t-6.5 8.5t-1.5 21.5v673q0 17 4 21.5t19 4.5h38q14 0 18.5 -5zM371 439.5q4 -5.5 4 -19.5v-57q0 -14 -4.5 -19.5t-17.5 -5.5h-43q-13 0 -17.5 5.5t-4.5 19.5v57
q0 14 4 19.5t16 5.5h46q13 0 17 -5.5z" />
    <glyph glyph-name="ldot" unicode="&#x140;" horiz-adv-x="254" 
d="M147 732q4 -5 4 -21v-558q0 -47 8.5 -67.5t27.5 -20.5q11 0 22 5t14 5q6 0 9 -4t8 -15q8 -18 8 -30q0 -8 -4 -12.5t-11 -8.5q-10 -6 -26.5 -10t-35.5 -4q-52 0 -76 39.5t-24 115.5v565q0 16 4.5 21t18.5 5h34q15 0 19 -5zM272.5 411q4.5 -2 6 -7t1.5 -17v-54
q0 -12 -1.5 -17t-6.5 -7t-16 -2h-38q-11 0 -15.5 2t-6 7t-1.5 17v54q0 12 1.5 17t6 7t14.5 2h41q10 0 14.5 -2z" />
    <glyph glyph-name="Lslash" unicode="&#x141;" horiz-adv-x="424" 
d="M405.5 76q4.5 -5 4.5 -21v-29q0 -17 -4 -21.5t-19 -4.5h-281q-11 0 -16 2t-6.5 8.5t-1.5 21.5v244l-50 -42q-1 0 -5 -3t-7 -3q-4 0 -6.5 3.5t-2.5 9.5v38q0 15 2.5 20.5t12.5 14.5l56 47v344q0 17 4 21.5t19 4.5h38q14 0 18.5 -5t4.5 -21v-273l84 71q6 6 12 6q9 0 9 -13
v-35q0 -18 -3 -24t-15 -16l-87 -74v-266h221q14 0 18.5 -5z" />
    <glyph glyph-name="lslash" unicode="&#x142;" horiz-adv-x="249" 
d="M253 26q0 -8 -4 -12.5t-11 -8.5q-10 -6 -26.5 -10t-35.5 -4q-52 0 -76 39.5t-24 115.5v166l-39 -35q-8 -8 -12 -8q-8 0 -8 13v31q0 16 3 22t13 16l43 39v321q0 16 4.5 21t18.5 5h34q15 0 19 -5t4 -21v-249l57 51q8 8 12 8q8 0 8 -13v-32q0 -16 -2.5 -22.5t-12.5 -15.5
l-62 -55v-230q0 -47 8.5 -67.5t27.5 -20.5q11 0 22 5t14 5q6 0 9 -4t8 -15q8 -18 8 -30z" />
    <glyph glyph-name="Nacute" unicode="&#x143;" horiz-adv-x="593" 
d="M506.5 726.5q4.5 -4.5 4.5 -20.5v-680q0 -16 -4 -21t-19 -5h-37q-12 0 -18 4t-14 18l-222 466q-10 22 -21.5 50.5t-15.5 46.5h-2q3 -42 3 -116v-443q0 -17 -4 -21.5t-19 -4.5h-33q-14 0 -18.5 5t-4.5 21v679q0 16 4.5 21t18.5 5h35q13 0 19.5 -4.5t13.5 -18.5l227 -481
q10 -21 20 -48t13 -34h1l-1 22q-2 48 -2 70v469q0 16 4.5 20.5t18.5 4.5h33q15 0 19.5 -4.5zM401 959q5 -3 5 -10q0 -6 -4 -14t-13 -20l-77 -107q-8 -11 -12.5 -14t-14.5 -3h-16q-15 0 -15 11q0 8 8 26l48 109q7 16 12.5 20.5t17.5 4.5h45q11 0 16 -3z" />
    <glyph glyph-name="nacute" unicode="&#x144;" horiz-adv-x="489" 
d="M418 397v-370q0 -17 -4.5 -22t-19.5 -5h-34q-14 0 -18.5 5t-4.5 21v349q0 62 -16.5 89.5t-57.5 27.5q-30 0 -55 -17.5t-42 -41.5q-5 -8 -6.5 -13t-1.5 -19v-376q0 -15 -4 -20t-18 -5h-35q-15 0 -19.5 5t-4.5 21v501q0 16 4.5 21t18.5 5h28q11 0 15.5 -4.5t6.5 -18.5
l4 -33h3q27 34 61 51t71 17q129 0 129 -168zM362.5 804.5q5.5 -3.5 5.5 -10.5q0 -5 -3.5 -11.5t-7.5 -12.5t-7 -10l-86 -127q-13 -19 -29 -19h-15q-9 0 -13.5 3.5t-4.5 9.5q0 8 8 26l62 129q8 16 13.5 21t17.5 5h42q12 0 17.5 -3.5z" />
    <glyph glyph-name="Ncommaaccent" unicode="&#x145;" horiz-adv-x="593" 
d="M506.5 726.5q4.5 -4.5 4.5 -20.5v-680q0 -16 -4 -21t-19 -5h-37q-12 0 -18 4t-14 18l-222 466q-10 22 -21.5 50.5t-15.5 46.5h-2q3 -42 3 -116v-443q0 -17 -4 -21.5t-19 -4.5h-33q-14 0 -18.5 5t-4.5 21v679q0 16 4.5 21t18.5 5h35q13 0 19.5 -4.5t13.5 -18.5l227 -481
q10 -21 20 -48t13 -34h1l-1 22q-2 48 -2 70v469q0 16 4.5 20.5t18.5 4.5h33q15 0 19.5 -4.5zM342.5 -64q4.5 -5 4.5 -21v-65q0 -12 -3.5 -23t-12.5 -34l-18 -43q-6 -15 -9.5 -19.5t-8.5 -4.5q-6 0 -13 5q-4 2 -7.5 5t-3.5 8q0 7 8 31l17 57h-17q-9 0 -13 4t-4 19v61
q0 12 1 16.5t5.5 6.5t15.5 2h40q14 0 18.5 -5z" />
    <glyph glyph-name="ncommaaccent" unicode="&#x146;" horiz-adv-x="489" 
d="M418 397v-370q0 -17 -4.5 -22t-19.5 -5h-34q-14 0 -18.5 5t-4.5 21v349q0 62 -16.5 89.5t-57.5 27.5q-30 0 -55 -17.5t-42 -41.5q-5 -8 -6.5 -13t-1.5 -19v-376q0 -15 -4 -20t-18 -5h-35q-15 0 -19.5 5t-4.5 21v501q0 16 4.5 21t18.5 5h28q11 0 15.5 -4.5t6.5 -18.5
l4 -33h3q27 34 61 51t71 17q129 0 129 -168zM283.5 -64q4.5 -5 4.5 -21v-65q0 -12 -3.5 -23t-12.5 -34l-18 -43q-6 -15 -9.5 -19.5t-8.5 -4.5q-6 0 -13 5q-4 2 -7.5 5t-3.5 8q0 7 8 31l17 57h-17q-9 0 -13 4t-4 19v61q0 12 1 16.5t5.5 6.5t15.5 2h40q14 0 18.5 -5z" />
    <glyph glyph-name="Ncaron" unicode="&#x147;" horiz-adv-x="593" 
d="M506.5 726.5q4.5 -4.5 4.5 -20.5v-680q0 -16 -4 -21t-19 -5h-37q-12 0 -18 4t-14 18l-222 466q-10 22 -21.5 50.5t-15.5 46.5h-2q3 -42 3 -116v-443q0 -17 -4 -21.5t-19 -4.5h-33q-14 0 -18.5 5t-4.5 21v679q0 16 4.5 21t18.5 5h35q13 0 19.5 -4.5t13.5 -18.5l227 -481
q10 -21 20 -48t13 -34h1l-1 22q-2 48 -2 70v469q0 16 4.5 20.5t18.5 4.5h33q15 0 19.5 -4.5zM430 947q0 -6 -3.5 -14t-9.5 -16l-70 -104q-9 -13 -14 -17.5t-15 -4.5h-42q-9 0 -15 5t-14 17l-70 104q-6 9 -10 16.5t-4 13.5q0 5 4.5 8t11.5 3h19q9 0 14 -3.5t15 -15.5l70 -86
l70 86q10 11 15.5 15t14.5 4h19q14 0 14 -11z" />
    <glyph glyph-name="ncaron" unicode="&#x148;" horiz-adv-x="489" 
d="M418 397v-370q0 -17 -4.5 -22t-19.5 -5h-34q-14 0 -18.5 5t-4.5 21v349q0 62 -16.5 89.5t-57.5 27.5q-30 0 -55 -17.5t-42 -41.5q-5 -8 -6.5 -13t-1.5 -19v-376q0 -15 -4 -20t-18 -5h-35q-15 0 -19.5 5t-4.5 21v501q0 16 4.5 21t18.5 5h28q11 0 15.5 -4.5t6.5 -18.5
l4 -33h3q27 34 61 51t71 17q129 0 129 -168zM375 796q0 -4 -3 -11t-6 -12t-5 -8l-72 -127q-1 -2 -5.5 -10t-8.5 -11t-10 -3h-47q-9 0 -12.5 4.5t-12.5 19.5l-72 127q-13 21 -13 30q0 12 16 12h17q11 0 16 -3t13 -16l71 -107l71 107q8 12 13.5 15.5t14.5 3.5h18q17 0 17 -11z
" />
    <glyph glyph-name="napostrophe" unicode="&#x149;" horiz-adv-x="539" 
d="M468 397v-370q0 -17 -4.5 -22t-19.5 -5h-34q-14 0 -18.5 5t-4.5 21v349q0 62 -16.5 89.5t-57.5 27.5q-30 0 -55 -17.5t-42 -41.5q-5 -8 -6.5 -13t-1.5 -19v-376q0 -15 -4 -20t-18 -5h-35q-15 0 -19.5 5t-4.5 21v501q0 16 4.5 21t18.5 5h28q11 0 15.5 -4.5t6.5 -18.5
l4 -33h3q27 34 61 51t71 17q129 0 129 -168zM77 743q5 -2 7 -7.5t2 -18.5v-54q0 -18 -3.5 -35t-13.5 -41l-32 -76q-6 -13 -11 -18t-10 -5q-9 0 -17 5q-11 6 -11 15q0 6 2.5 14.5t3.5 12.5l26 93h-14q-11 0 -15.5 5t-4.5 22v63q0 12 2 17.5t7 7.5t17 2h48q12 0 17 -2z" />
    <glyph glyph-name="Eng" unicode="&#x14a;" horiz-adv-x="593" 
d="M506.5 726.5q4.5 -4.5 4.5 -20.5v-752q0 -80 -31 -119.5t-86 -39.5q-20 0 -38.5 4.5t-37.5 11.5q-11 5 -16 9.5t-5 11.5q0 6 4 16t6 16q4 11 7.5 16t9.5 5q5 0 12 -2.5t10 -3.5q23 -10 42 -10q43 0 43 84v47l-234 488q-11 22 -21.5 49.5t-15.5 47.5h-2q3 -42 3 -116v-443
q0 -17 -4 -21.5t-19 -4.5h-33q-14 0 -18.5 5t-4.5 21v679q0 16 4.5 21t18.5 5h37q11 0 17 -4.5t13 -17.5l228 -479q18 -39 33 -82h2q-4 36 -4 92v466q0 16 4.5 20.5t18.5 4.5h33q15 0 19.5 -4.5z" />
    <glyph glyph-name="eng" unicode="&#x14b;" horiz-adv-x="489" 
d="M385.5 524q32.5 -41 32.5 -127v-442q0 -79 -30 -119.5t-82 -40.5q-21 0 -38 4t-34 12q-10 5 -14 9.5t-4 11.5q0 5 3.5 14t5.5 15q5 13 8 18t9 5q4 0 11 -3t11 -4q2 -1 8 -3t12.5 -3t14.5 -1q22 0 30 20t8 57v428q0 62 -16.5 89.5t-57.5 27.5q-30 0 -55.5 -17.5
t-41.5 -41.5q-5 -7 -6.5 -12.5t-1.5 -19.5v-376q0 -15 -4 -20t-18 -5h-35q-15 0 -19.5 5t-4.5 21v501q0 16 4.5 21t18.5 5h28q11 0 15.5 -4.5t6.5 -18.5l4 -35h3q27 35 61 52.5t70 17.5q65 0 97.5 -41z" />
    <glyph glyph-name="Omacron" unicode="&#x14c;" horiz-adv-x="564" 
d="M457.5 663.5q58.5 -81.5 58.5 -246.5v-100q0 -171 -60.5 -251t-171.5 -80h-7q-107 0 -168 78t-61 251v98q0 178 62 255t169 77h7q113 0 171.5 -81.5zM278 666q-52 0 -83.5 -27.5t-45.5 -83.5t-14 -144v-91q0 -88 14.5 -144t46 -83.5t82.5 -27.5h6q78 0 111.5 66t33.5 192
v85q0 126 -33 192t-112 66h-6zM402 891.5q5 -5.5 5 -17.5v-21q0 -23 -21 -23h-207q-13 0 -18 5.5t-5 17.5v21q0 12 5 17.5t18 5.5h205q13 0 18 -5.5z" />
    <glyph glyph-name="omacron" unicode="&#x14d;" horiz-adv-x="456" 
d="M370 503q42 -62 42 -190v-67q0 -131 -44 -194t-135 -63h-15q-91 0 -132.5 63t-41.5 192v65q0 132 44.5 194t133.5 62h16q90 0 132 -62zM225 492q-38 0 -60 -21.5t-30.5 -62.5t-8.5 -105v-51q0 -92 20.5 -141t75.5 -49h9q39 0 60.5 22t29.5 63t8 104v52q0 65 -8.5 105.5
t-29.5 62t-59 21.5h-7zM347 716.5q5 -5.5 5 -17.5v-22q0 -22 -22 -22h-204q-13 0 -18 5t-5 18v21q0 12 5 17.5t18 5.5h203q13 0 18 -5.5z" />
    <glyph glyph-name="Obreve" unicode="&#x14e;" horiz-adv-x="564" 
d="M457.5 663.5q58.5 -81.5 58.5 -246.5v-100q0 -171 -60.5 -251t-171.5 -80h-7q-107 0 -168 78t-61 251v98q0 178 62 255t169 77h7q113 0 171.5 -81.5zM278 666q-52 0 -83.5 -27.5t-45.5 -83.5t-14 -144v-91q0 -88 14.5 -144t46 -83.5t82.5 -27.5h6q78 0 111.5 66t33.5 192
v85q0 126 -33 192t-112 66h-6zM410.5 958.5q3.5 -3.5 3.5 -12.5q0 -50 -18 -85t-48 -52.5t-66 -17.5q-37 0 -67 17.5t-48 52.5t-18 85q0 9 3.5 12.5t10.5 3.5h15q8 0 12 -3.5t6 -14.5q18 -91 86 -91q67 0 85 91q2 11 5.5 14.5t12.5 3.5h15q7 0 10.5 -3.5z" />
    <glyph glyph-name="obreve" unicode="&#x14f;" horiz-adv-x="456" 
d="M370 503q42 -62 42 -190v-67q0 -131 -44 -194t-135 -63h-15q-91 0 -132.5 63t-41.5 192v65q0 132 44.5 194t133.5 62h16q90 0 132 -62zM225 492q-38 0 -60 -21.5t-30.5 -62.5t-8.5 -105v-51q0 -92 20.5 -141t75.5 -49h9q39 0 60.5 22t29.5 63t8 104v52q0 65 -8.5 105.5
t-29.5 62t-59 21.5h-7zM357 787q0 -56 -17.5 -95t-47 -58.5t-64.5 -19.5q-36 0 -65.5 19.5t-47 58.5t-17.5 95q0 15 13 15h15q9 0 12.5 -3t4.5 -15q6 -39 25 -72.5t60 -33.5q40 0 59 33.5t25 72.5q1 12 4.5 15t11.5 3h16q13 0 13 -15z" />
    <glyph glyph-name="Ohungarumlaut" unicode="&#x150;" horiz-adv-x="564" 
d="M457.5 663.5q58.5 -81.5 58.5 -246.5v-100q0 -171 -60.5 -251t-171.5 -80h-7q-107 0 -168 78t-61 251v98q0 178 62 255t169 77h7q113 0 171.5 -81.5zM278 666q-52 0 -83.5 -27.5t-45.5 -83.5t-14 -144v-91q0 -88 14.5 -144t46 -83.5t82.5 -27.5h6q78 0 111.5 66t33.5 192
v85q0 126 -33 192t-112 66h-6zM308.5 959.5q4.5 -2.5 4.5 -10.5q0 -10 -14 -31l-68 -110q-7 -11 -11.5 -14t-15.5 -3h-9q-16 0 -16 11q0 9 6 25l38 110q4 12 7 17t8.5 6.5t15.5 1.5h38q12 0 16.5 -2.5zM452.5 959.5q4.5 -2.5 4.5 -10.5q0 -5 -4.5 -13.5t-10.5 -17.5
l-68 -110q-6 -10 -11 -13.5t-15 -3.5h-10q-16 0 -16 11q0 6 7 25l37 110q4 12 7.5 17t8.5 6.5t15 1.5h38q13 0 17.5 -2.5z" />
    <glyph glyph-name="ohungarumlaut" unicode="&#x151;" horiz-adv-x="456" 
d="M370 503q42 -62 42 -190v-67q0 -131 -44 -194t-135 -63h-15q-91 0 -132.5 63t-41.5 192v65q0 132 44.5 194t133.5 62h16q90 0 132 -62zM225 492q-38 0 -60 -21.5t-30.5 -62.5t-8.5 -105v-51q0 -92 20.5 -141t75.5 -49h9q39 0 60.5 22t29.5 63t8 104v52q0 65 -8.5 105.5
t-29.5 62t-59 21.5h-7zM262 806q4 -2 4 -9q0 -5 -5.5 -15.5t-7.5 -14.5l-75 -134q-6 -10 -11.5 -14.5t-12.5 -4.5h-17q-7 0 -10.5 3.5t-3.5 8.5q0 4 3 12.5t5 12.5l44 132q4 12 7.5 17t7.5 6.5t12 1.5h49q7 0 11 -2zM405.5 806q3.5 -2 3.5 -9q0 -8 -13 -30l-74 -134
q-6 -10 -11 -14.5t-13 -4.5h-17q-7 0 -10.5 3.5t-3.5 8.5t2 11t5 14l45 132q4 12 7.5 17t7.5 6.5t12 1.5h49q7 0 10.5 -2z" />
    <glyph glyph-name="OE" unicode="&#x152;" horiz-adv-x="766" 
d="M337.5 726q36.5 -19 56.5 -52v29q0 12 2 18t7 8t16 2h278q14 0 18 -4.5t4 -21.5v-28q0 -16 -4 -21t-18 -5h-219v-226h161q14 0 18 -5t4 -21v-28q0 -16 -4 -20.5t-18 -4.5h-161v-266h230q14 0 18 -5t4 -21v-29q0 -16 -4 -20.5t-18 -4.5h-289q-11 0 -16 2t-7 8t-2 19v32
q-21 -36 -57 -55.5t-82 -19.5h-6q-95 0 -148 78t-53 251v100q0 176 53.5 253t149.5 77h4q46 0 82.5 -19zM262 666q-45 0 -73 -27.5t-41 -83t-13 -142.5v-93q0 -88 13 -144t41 -83.5t73 -27.5h4q66 0 97 62.5t31 192.5v99q0 126 -31 186.5t-97 60.5h-4z" />
    <glyph glyph-name="oe" unicode="&#x153;" horiz-adv-x="723" 
d="M638.5 506q40.5 -59 40.5 -182v-31q0 -14 -1.5 -20.5t-7 -9t-16.5 -2.5h-243v-22q0 -89 27 -133t89 -44q52 0 93 29q4 3 9 6l10 6t9 3q6 0 10 -4.5t10 -15.5q1 -2 3.5 -6.5t5 -10t2.5 -10.5q0 -8 -5.5 -13.5t-19.5 -14.5q-28 -19 -62.5 -30.5t-69.5 -11.5q-53 0 -91 23.5
t-58 69.5q-41 -93 -142 -93h-13q-91 0 -132.5 63t-41.5 192v65q0 132 44.5 194t133.5 62h13q51 0 85 -23.5t54 -68.5q21 44 56 68t81 24q87 0 127.5 -59zM456 475q-22 -20 -33.5 -55t-11.5 -80v-9h187v23q0 76 -22 108.5t-68 32.5q-30 0 -52 -20zM225 492q-38 0 -60 -21.5
t-30.5 -62.5t-8.5 -105v-51q0 -92 20.5 -140.5t75.5 -49.5h9q39 0 60.5 21.5t29.5 61.5t8 101v57q0 65 -8.5 105.5t-29.5 62t-59 21.5h-7z" />
    <glyph glyph-name="Racute" unicode="&#x154;" horiz-adv-x="533" 
d="M401.5 706.5q45.5 -24.5 64 -72t18.5 -120.5q0 -88 -34.5 -142.5t-99.5 -69.5l138 -257q13 -23 13 -31t-5.5 -11t-17.5 -3h-33q-18 0 -26 3t-14 16l-132 250q-6 13 -14 18t-21 5h-72v-266q0 -16 -4 -21t-19 -5h-39q-14 0 -18 4.5t-4 21.5v677q0 12 2 18t7 8t15 2h172
q78 0 123.5 -24.5zM166 653v-283h104q67 0 97.5 33.5t30.5 108.5q0 51 -12.5 81.5t-40.5 45t-76 14.5h-103zM375 959q5 -3 5 -10q0 -6 -4 -14t-13 -20l-77 -107q-8 -11 -12.5 -14t-14.5 -3h-16q-15 0 -15 11q0 8 8 26l48 109q7 16 12.5 20.5t17.5 4.5h45q11 0 16 -3z" />
    <glyph glyph-name="racute" unicode="&#x155;" horiz-adv-x="336" 
d="M291 560.5q16 -4.5 28 -11.5q9 -5 13 -9.5t4 -12.5q0 -11 -8 -32q-4 -14 -9 -20t-13 -6q-5 0 -16.5 5.5t-24 9.5t-26.5 4q-38 0 -59.5 -38t-21.5 -109v-315q0 -16 -4.5 -21t-19.5 -5h-33q-16 0 -20 4.5t-4 21.5v501q0 16 4.5 21t18.5 5h25q13 0 18 -5t7 -19l4 -30h1
q18 30 42 48t61 18q17 0 33 -4.5zM329.5 801.5q5.5 -3.5 5.5 -10.5q0 -5 -3.5 -11.5t-7.5 -12.5t-7 -10l-86 -127q-13 -19 -29 -19h-15q-9 0 -13.5 3.5t-4.5 9.5q0 8 8 26l62 129q8 16 13.5 21t17.5 5h42q12 0 17.5 -3.5z" />
    <glyph glyph-name="Rcommaaccent" unicode="&#x156;" horiz-adv-x="533" 
d="M401.5 706.5q45.5 -24.5 64 -72t18.5 -120.5q0 -88 -34.5 -142.5t-99.5 -69.5l138 -257q13 -23 13 -31t-5.5 -11t-17.5 -3h-33q-18 0 -26 3t-14 16l-132 250q-6 13 -14 18t-21 5h-72v-266q0 -16 -4 -21t-19 -5h-39q-14 0 -18 4.5t-4 21.5v677q0 12 2 18t7 8t15 2h172
q78 0 123.5 -24.5zM166 653v-283h104q67 0 97.5 33.5t30.5 108.5q0 51 -12.5 81.5t-40.5 45t-76 14.5h-103zM324.5 -64q4.5 -5 4.5 -21v-65q0 -12 -3.5 -23t-12.5 -34l-18 -43q-6 -15 -9.5 -19.5t-8.5 -4.5q-6 0 -13 5q-4 2 -7.5 5t-3.5 8q0 7 8 31l17 57h-17q-9 0 -13 4
t-4 19v61q0 12 1 16.5t5.5 6.5t15.5 2h40q14 0 18.5 -5z" />
    <glyph glyph-name="rcommaaccent" unicode="&#x157;" horiz-adv-x="336" 
d="M291 560.5q16 -4.5 28 -11.5q9 -5 13 -9.5t4 -12.5q0 -11 -8 -32q-4 -14 -9 -20t-13 -6q-5 0 -16.5 5.5t-24 9.5t-26.5 4q-38 0 -59.5 -38t-21.5 -109v-315q0 -16 -4.5 -21t-19.5 -5h-33q-16 0 -20 4.5t-4 21.5v501q0 16 4.5 21t18.5 5h25q13 0 18 -5t7 -19l4 -30h1
q18 30 42 48t61 18q17 0 33 -4.5zM155.5 -64q4.5 -5 4.5 -21v-65q0 -12 -3.5 -23t-12.5 -34l-18 -43q-6 -15 -9.5 -19.5t-8.5 -4.5q-6 0 -13 5q-4 2 -7.5 5t-3.5 8q0 7 8 31l17 57h-17q-9 0 -13 4t-4 19v61q0 12 1 16.5t5.5 6.5t15.5 2h40q14 0 18.5 -5z" />
    <glyph glyph-name="Rcaron" unicode="&#x158;" horiz-adv-x="533" 
d="M401.5 706.5q45.5 -24.5 64 -72t18.5 -120.5q0 -88 -34.5 -142.5t-99.5 -69.5l138 -257q13 -23 13 -31t-5.5 -11t-17.5 -3h-33q-18 0 -26 3t-14 16l-132 250q-6 13 -14 18t-21 5h-72v-266q0 -16 -4 -21t-19 -5h-39q-14 0 -18 4.5t-4 21.5v677q0 12 2 18t7 8t15 2h172
q78 0 123.5 -24.5zM166 653v-283h104q67 0 97.5 33.5t30.5 108.5q0 51 -12.5 81.5t-40.5 45t-76 14.5h-103zM404 947q0 -6 -3.5 -14t-9.5 -16l-70 -104q-9 -13 -14 -17.5t-15 -4.5h-42q-9 0 -15 5t-14 17l-70 104q-6 9 -10 16.5t-4 13.5q0 5 4.5 8t11.5 3h19q9 0 14 -3.5
t15 -15.5l70 -86l70 86q10 11 15.5 15t14.5 4h19q14 0 14 -11z" />
    <glyph glyph-name="rcaron" unicode="&#x159;" horiz-adv-x="336" 
d="M291 560.5q16 -4.5 28 -11.5q9 -5 13 -9.5t4 -12.5q0 -11 -8 -32q-4 -14 -9 -20t-13 -6q-5 0 -16.5 5.5t-24 9.5t-26.5 4q-38 0 -59.5 -38t-21.5 -109v-315q0 -16 -4.5 -21t-19.5 -5h-33q-16 0 -20 4.5t-4 21.5v501q0 16 4.5 21t18.5 5h25q13 0 18 -5t7 -19l4 -30h1
q18 30 42 48t61 18q17 0 33 -4.5zM342 793q0 -4 -3 -11t-6 -12t-5 -8l-72 -127q-1 -2 -5.5 -10t-8.5 -11t-10 -3h-47q-9 0 -12.5 4.5t-12.5 19.5l-72 127q-13 21 -13 30q0 12 16 12h17q11 0 16 -3t13 -16l71 -107l71 107q8 12 13.5 15.5t14.5 3.5h18q17 0 17 -11z" />
    <glyph glyph-name="Sacute" unicode="&#x15a;" horiz-adv-x="477" 
d="M320.5 738q29.5 -7 56.5 -19q20 -8 27 -14.5t7 -14.5q0 -6 -3.5 -16.5t-4.5 -14.5q-6 -14 -10.5 -20t-12.5 -6q-6 0 -17 5.5t-20 8.5q-25 10 -45 14.5t-47 4.5q-25 0 -46 -9t-35 -25q-14 -17 -21.5 -37.5t-7.5 -42.5q0 -33 10.5 -55.5t36.5 -39.5t73 -29
q94 -24 136.5 -76t42.5 -143q0 -56 -18.5 -106t-64 -83t-120.5 -33q-85 0 -155 39q-20 11 -28 19t-8 17q0 12 8 31q6 14 12 20.5t13 6.5q6 0 12.5 -3.5t15.5 -8.5q34 -22 63.5 -32t65.5 -10q41 0 67 20t37.5 50.5t11.5 64.5q0 44 -11.5 71.5t-39.5 46t-79 30.5
q-90 22 -129 72t-39 128q0 45 15 82.5t42 62.5q54 51 141 51q39 0 68.5 -7zM344 959q5 -3 5 -10q0 -6 -4 -14t-13 -20l-77 -107q-8 -11 -12.5 -14t-14.5 -3h-16q-15 0 -15 11q0 8 8 26l48 109q7 16 12.5 20.5t17.5 4.5h45q11 0 16 -3z" />
    <glyph glyph-name="sacute" unicode="&#x15b;" horiz-adv-x="393" 
d="M310 547q15 -5 23 -11t8 -15q0 -8 -6 -25q-5 -13 -9.5 -19t-10.5 -6q-5 0 -13.5 3t-14.5 5q-39 15 -79 15q-22 0 -37.5 -5t-27.5 -17q-23 -25 -23 -64q0 -25 8.5 -40.5t28.5 -24.5t55 -15q81 -13 117 -51.5t36 -107.5q0 -85 -42.5 -130.5t-123.5 -45.5q-31 0 -65 6
t-58 17q-19 8 -29 15.5t-10 17.5q0 9 6 24q6 13 10.5 19t11.5 6q5 0 21 -8q52 -26 115 -26q43 0 65 26t22 71q0 28 -8.5 46.5t-30.5 30.5t-62 18q-144 22 -144 149q0 72 40 115q20 22 50 33.5t69 11.5q58 0 108 -18zM317.5 804.5q5.5 -3.5 5.5 -10.5q0 -5 -3.5 -11.5
t-7.5 -12.5t-7 -10l-86 -127q-13 -19 -29 -19h-15q-9 0 -13.5 3.5t-4.5 9.5q0 8 8 26l62 129q8 16 13.5 21t17.5 5h42q12 0 17.5 -3.5z" />
    <glyph glyph-name="Scircumflex" unicode="&#x15c;" horiz-adv-x="477" 
d="M320.5 738q29.5 -7 56.5 -19q20 -8 27 -14.5t7 -14.5q0 -6 -3.5 -16.5t-4.5 -14.5q-6 -14 -10.5 -20t-12.5 -6q-6 0 -17 5.5t-20 8.5q-25 10 -45 14.5t-47 4.5q-25 0 -46 -9t-35 -25q-14 -17 -21.5 -37.5t-7.5 -42.5q0 -33 10.5 -55.5t36.5 -39.5t73 -29
q94 -24 136.5 -76t42.5 -143q0 -56 -18.5 -106t-64 -83t-120.5 -33q-85 0 -155 39q-20 11 -28 19t-8 17q0 12 8 31q6 14 12 20.5t13 6.5q6 0 12.5 -3.5t15.5 -8.5q34 -22 63.5 -32t65.5 -10q41 0 67 20t37.5 50.5t11.5 64.5q0 44 -11.5 71.5t-39.5 46t-79 30.5
q-90 22 -129 72t-39 128q0 45 15 82.5t42 62.5q54 51 141 51q39 0 68.5 -7zM275 953q5 -5 14 -18l70 -104q6 -8 10.5 -16t4.5 -13q0 -11 -14 -11h-21q-10 0 -16 3.5t-14 14.5l-70 87l-70 -87q-9 -11 -14.5 -14.5t-14.5 -3.5h-20q-15 0 -15 11q0 5 4 12.5t10 16.5l70 104
q9 13 14.5 18t14.5 5h42q10 0 15 -5z" />
    <glyph glyph-name="scircumflex" unicode="&#x15d;" horiz-adv-x="393" 
d="M310 547q15 -5 23 -11t8 -15q0 -8 -6 -25q-5 -13 -9.5 -19t-10.5 -6q-5 0 -13.5 3t-14.5 5q-39 15 -79 15q-22 0 -37.5 -5t-27.5 -17q-23 -25 -23 -64q0 -25 8.5 -40.5t28.5 -24.5t55 -15q81 -13 117 -51.5t36 -107.5q0 -85 -42.5 -130.5t-123.5 -45.5q-31 0 -65 6
t-58 17q-19 8 -29 15.5t-10 17.5q0 9 6 24q6 13 10.5 19t11.5 6q5 0 21 -8q52 -26 115 -26q43 0 65 26t22 71q0 28 -8.5 46.5t-30.5 30.5t-62 18q-144 22 -144 149q0 72 40 115q20 22 50 33.5t69 11.5q58 0 108 -18zM230.5 803.5q3.5 -3.5 7.5 -10.5t6 -10l72 -126
q2 -4 5.5 -9.5t6 -12t2.5 -10.5q0 -5 -4 -8t-10 -3h-19q-11 0 -16.5 3.5t-13.5 15.5l-71 109l-71 -109q-8 -12 -13.5 -15.5t-15.5 -3.5h-18q-7 0 -11 3.5t-4 8.5q0 6 3.5 14t9.5 17l72 126q9 15 13 19.5t12 4.5h47q7 0 10.5 -3.5z" />
    <glyph glyph-name="Scedilla" unicode="&#x15e;" horiz-adv-x="477" 
d="M423 107.5q-17 -48.5 -58 -82t-108 -37.5l-19 -51q5 4 13.5 6.5t16.5 2.5q36 0 55.5 -27.5t19.5 -67.5q0 -39 -16 -64.5t-41 -37.5t-53 -12q-26 0 -43 5t-32 13q-12 6 -18 11.5t-6 12.5q0 5 4 13l6 12q3 6 5.5 8t6.5 2t14 -5q27 -16 56 -16q23 0 38 13.5t15 41.5
q0 22 -8.5 33t-23.5 11q-9 0 -15 -3t-13 -9.5t-13 -6.5q-9 0 -20.5 6.5t-11.5 14.5q0 10 6 25l27 69q-67 6 -125 38q-20 11 -28 19t-8 17q0 12 8 31q6 14 12 20.5t13 6.5q6 0 12.5 -3.5t15.5 -8.5q34 -22 63.5 -32t65.5 -10q41 0 67 20t37.5 50.5t11.5 64.5q0 44 -11.5 71.5
t-39.5 46t-79 30.5q-90 22 -129 72t-39 128q0 45 15 82.5t42 62.5q54 51 141 51q39 0 68.5 -7t56.5 -19q20 -8 27 -14.5t7 -14.5q0 -6 -3.5 -16.5t-4.5 -14.5q-6 -14 -10.5 -20t-12.5 -6q-6 0 -17 5.5t-20 8.5q-25 10 -45 14.5t-47 4.5q-25 0 -46 -9t-35 -25
q-14 -17 -21.5 -37.5t-7.5 -42.5q0 -33 10.5 -55.5t36.5 -39.5t73 -29q94 -24 136.5 -76t42.5 -143q0 -53 -17 -101.5z" />
    <glyph glyph-name="scedilla" unicode="&#x15f;" horiz-adv-x="393" 
d="M327 43.5q-38 -45.5 -110 -49.5l-21 -57q5 4 13.5 6.5t16.5 2.5q36 0 55.5 -27.5t19.5 -67.5q0 -39 -16 -64.5t-41 -37.5t-53 -12q-26 0 -43 5t-32 13q-12 6 -18 11.5t-6 12.5q0 5 4 13l6 12q3 6 5.5 8t6.5 2t14 -5q27 -16 56 -16q23 0 38 13.5t15 41.5q0 22 -8.5 33
t-23.5 11q-9 0 -15 -3t-13 -9.5t-13 -6.5q-9 0 -20.5 6.5t-11.5 14.5q0 10 6 25l29 76q-24 1 -48 7t-43 14t-29 15.5t-10 17.5q0 9 6 24q6 13 10.5 19t11.5 6q5 0 21 -8q52 -26 115 -26q43 0 65 26t22 71q0 28 -8.5 46.5t-30.5 30.5t-62 18q-144 22 -144 149q0 72 40 115
q20 22 50 33.5t69 11.5q58 0 108 -18q15 -5 23 -11t8 -15q0 -8 -6 -25q-5 -13 -9.5 -19t-10.5 -6q-5 0 -13.5 3t-14.5 5q-39 15 -79 15q-22 0 -37.5 -5t-27.5 -17q-23 -25 -23 -64q0 -25 8.5 -40.5t28.5 -24.5t55 -15q81 -13 117 -51.5t36 -107.5q0 -80 -38 -125.5z" />
    <glyph glyph-name="Scaron" unicode="&#x160;" horiz-adv-x="477" 
d="M320.5 738q29.5 -7 56.5 -19q20 -8 27 -14.5t7 -14.5q0 -6 -3.5 -16.5t-4.5 -14.5q-6 -14 -10.5 -20t-12.5 -6q-6 0 -17 5.5t-20 8.5q-25 10 -45 14.5t-47 4.5q-25 0 -46 -9t-35 -25q-14 -17 -21.5 -37.5t-7.5 -42.5q0 -33 10.5 -55.5t36.5 -39.5t73 -29
q94 -24 136.5 -76t42.5 -143q0 -56 -18.5 -106t-64 -83t-120.5 -33q-85 0 -155 39q-20 11 -28 19t-8 17q0 12 8 31q6 14 12 20.5t13 6.5q6 0 12.5 -3.5t15.5 -8.5q34 -22 63.5 -32t65.5 -10q41 0 67 20t37.5 50.5t11.5 64.5q0 44 -11.5 71.5t-39.5 46t-79 30.5
q-90 22 -129 72t-39 128q0 45 15 82.5t42 62.5q54 51 141 51q39 0 68.5 -7zM373 947q0 -6 -3.5 -14t-9.5 -16l-70 -104q-9 -13 -14 -17.5t-15 -4.5h-42q-9 0 -15 5t-14 17l-70 104q-6 9 -10 16.5t-4 13.5q0 5 4.5 8t11.5 3h19q9 0 14 -3.5t15 -15.5l70 -86l70 86
q10 11 15.5 15t14.5 4h19q14 0 14 -11z" />
    <glyph glyph-name="scaron" unicode="&#x161;" horiz-adv-x="393" 
d="M310 547q15 -5 23 -11t8 -15q0 -8 -6 -25q-5 -13 -9.5 -19t-10.5 -6q-5 0 -13.5 3t-14.5 5q-39 15 -79 15q-22 0 -37.5 -5t-27.5 -17q-23 -25 -23 -64q0 -25 8.5 -40.5t28.5 -24.5t55 -15q81 -13 117 -51.5t36 -107.5q0 -85 -42.5 -130.5t-123.5 -45.5q-31 0 -65 6
t-58 17q-19 8 -29 15.5t-10 17.5q0 9 6 24q6 13 10.5 19t11.5 6q5 0 21 -8q52 -26 115 -26q43 0 65 26t22 71q0 28 -8.5 46.5t-30.5 30.5t-62 18q-144 22 -144 149q0 72 40 115q20 22 50 33.5t69 11.5q58 0 108 -18zM330 796q0 -4 -3 -11t-6 -12t-5 -8l-72 -127
q-1 -2 -5.5 -10t-8.5 -11t-10 -3h-47q-9 0 -12.5 4.5t-12.5 19.5l-72 127q-13 21 -13 30q0 12 16 12h17q11 0 16 -3t13 -16l71 -107l71 107q8 12 13.5 15.5t14.5 3.5h18q17 0 17 -11z" />
    <glyph glyph-name="uni0162" unicode="&#x162;" horiz-adv-x="443" 
d="M425 726.5q4 -4.5 4 -20.5v-30q0 -12 -2 -17t-6.5 -7t-14.5 -2h-142v-624q0 -16 -4 -21t-19 -5h-39q-14 0 -18.5 5t-4.5 21v624h-142q-11 0 -15.5 2t-6 7t-1.5 17v29q0 17 4 21.5t19 4.5h369q15 0 19 -4.5zM259.5 -64q4.5 -5 4.5 -21v-65q0 -12 -3.5 -23t-12.5 -34
l-18 -43q-6 -15 -9.5 -19.5t-8.5 -4.5q-6 0 -13 5q-4 2 -7.5 5t-3.5 8q0 7 8 31l17 57h-17q-9 0 -13 4t-4 19v61q0 12 1 16.5t5.5 6.5t15.5 2h40q14 0 18.5 -5z" />
    <glyph glyph-name="uni0163" unicode="&#x163;" horiz-adv-x="299" 
d="M150 703q3 -6 3 -20v-143h105q11 0 16.5 -2t7 -7t1.5 -17v-20q0 -16 -4.5 -21t-21.5 -5h-104v-317q0 -49 12.5 -68t36.5 -19q12 0 25 4t25.5 9.5t16.5 5.5q6 0 9.5 -4.5t7.5 -15.5q5 -11 7 -18t2 -13q0 -7 -4 -11.5t-13 -9.5q-16 -9 -39.5 -15t-48.5 -6q-57 0 -87.5 37.5
t-30.5 120.5v320h-31q-14 0 -18.5 4.5t-4.5 17.5v7q0 12 4.5 16t20.5 10q16 4 22.5 15.5t6.5 30.5v91q0 13 3.5 19.5t13.5 11.5l25 11q14 7 23 7q10 0 13 -6zM218.5 -64q4.5 -5 4.5 -21v-65q0 -12 -3.5 -23t-12.5 -34l-18 -43q-6 -15 -9.5 -19.5t-8.5 -4.5q-6 0 -13 5
q-4 2 -7.5 5t-3.5 8q0 7 8 31l17 57h-17q-9 0 -13 4t-4 19v61q0 12 1 16.5t5.5 6.5t15.5 2h40q14 0 18.5 -5z" />
    <glyph glyph-name="Tcaron" unicode="&#x164;" horiz-adv-x="443" 
d="M425 726.5q4 -4.5 4 -20.5v-30q0 -12 -2 -17t-6.5 -7t-14.5 -2h-142v-624q0 -16 -4 -21t-19 -5h-39q-14 0 -18.5 5t-4.5 21v624h-142q-11 0 -15.5 2t-6 7t-1.5 17v29q0 17 4 21.5t19 4.5h369q15 0 19 -4.5zM355 947q0 -6 -3.5 -14t-9.5 -16l-70 -104q-9 -13 -14 -17.5
t-15 -4.5h-42q-9 0 -15 5t-14 17l-70 104q-6 9 -10 16.5t-4 13.5q0 5 4.5 8t11.5 3h19q9 0 14 -3.5t15 -15.5l70 -86l70 86q10 11 15.5 15t14.5 4h19q14 0 14 -11z" />
    <glyph glyph-name="tcaron" unicode="&#x165;" horiz-adv-x="299" 
d="M150 703q3 -6 3 -20v-143h105q11 0 16.5 -2t7 -7t1.5 -17v-20q0 -16 -4.5 -21t-21.5 -5h-104v-317q0 -49 12.5 -68t36.5 -19q12 0 25 4t25.5 9.5t16.5 5.5q6 0 9.5 -4.5t7.5 -15.5q5 -11 7 -18t2 -13q0 -7 -4 -11.5t-13 -9.5q-16 -9 -39.5 -15t-48.5 -6q-57 0 -87.5 37.5
t-30.5 120.5v320h-31q-14 0 -18.5 4.5t-4.5 17.5v7q0 12 4.5 16t20.5 10q16 4 22.5 15.5t6.5 30.5v91q0 13 3.5 19.5t13.5 11.5l25 11q14 7 23 7q10 0 13 -6zM301.5 813q3.5 -4 3.5 -11t-8 -33l-43 -135q-4 -12 -7.5 -16t-11.5 -4h-18q-5 0 -8 3.5t-3 8.5q0 3 4 37l16 130
q2 11 4.5 16t7 6.5t14.5 1.5h37q9 0 12.5 -4z" />
    <glyph glyph-name="Tbar" unicode="&#x166;" horiz-adv-x="443" 
d="M425 726.5q4 -4.5 4 -20.5v-30q0 -12 -2 -17t-6.5 -7t-14.5 -2h-142v-230h99q14 0 18 -5t4 -20v-23q0 -16 -4 -21t-18 -5h-99v-320q0 -16 -4 -21t-19 -5h-39q-14 0 -18.5 5t-4.5 21v320h-100q-13 0 -17 5.5t-4 20.5v24q0 15 4 19.5t18 4.5h99v230h-142q-11 0 -15.5 2
t-6 7t-1.5 17v29q0 17 4 21.5t19 4.5h369q15 0 19 -4.5z" />
    <glyph glyph-name="tbar" unicode="&#x167;" horiz-adv-x="302" 
d="M293 45q2 -7 2 -13q0 -7 -4 -11.5t-13 -9.5q-16 -9 -39.5 -15t-48.5 -6q-57 0 -87.5 37.5t-30.5 120.5v126h-29q-14 0 -18 5t-4 20v14q0 15 4.5 20t18.5 5h28v130h-31q-14 0 -18.5 4.5t-4.5 17.5v7q0 12 4.5 16t20.5 10q16 4 22.5 15.5t6.5 30.5v91q0 13 3.5 19.5
t13.5 11.5l25 11q14 7 23 7q10 0 13 -6t3 -20v-143h105q11 0 16.5 -2t7 -7t1.5 -17v-20q0 -16 -4.5 -21t-21.5 -5h-104v-130h87q15 0 19 -5t4 -20v-14q0 -15 -4 -20t-17 -5h-89v-123q0 -49 12.5 -68t36.5 -19q12 0 25 4t25.5 9.5t16.5 5.5q6 0 9.5 -4.5t7.5 -15.5
q5 -11 7 -18z" />
    <glyph glyph-name="Utilde" unicode="&#x168;" horiz-adv-x="570" 
d="M491.5 726q4.5 -5 4.5 -21v-451q0 -127 -50.5 -197.5t-154.5 -70.5h-19q-99 0 -148.5 69t-49.5 200v450q0 16 4.5 21t18.5 5h38q10 0 14.5 -2t6 -7t1.5 -17v-440q0 -104 31.5 -150t96.5 -46q46 0 73.5 20.5t40 63.5t12.5 113v439q0 16 4.5 21t18.5 5h38q15 0 19.5 -5z
M433 937.5q3 -4.5 3 -14.5q0 -48 -21 -81t-59 -33q-18 0 -32.5 5.5t-33.5 17.5l-33 21q-15 10 -23 13.5t-19 3.5q-15 0 -24.5 -13.5t-12.5 -34.5q-2 -10 -5 -15.5t-10 -5.5h-15q-8 0 -11 4.5t-3 14.5q0 30 9 56t26.5 42t43.5 16q19 0 33 -5.5t33 -17.5l34 -22
q15 -10 23.5 -13.5t19.5 -3.5q15 0 24 14t12 34q2 11 5 16.5t11 5.5h15q7 0 10 -4.5z" />
    <glyph glyph-name="utilde" unicode="&#x169;" horiz-adv-x="488" 
d="M406.5 548q4.5 -5 4.5 -21v-501q0 -16 -4.5 -21t-18.5 -5h-25q-12 0 -17.5 4.5t-6.5 18.5l-4 33h-2q-27 -34 -62 -51t-72 -17q-61 0 -94.5 42t-33.5 127v370q0 12 1.5 17t7 7t16.5 2h31q15 0 19 -4.5t4 -21.5v-352q0 -60 16 -87t55 -27q30 0 57 18.5t44 42.5q5 7 6.5 13
t1.5 19v373q0 16 4.5 21t19.5 5h33q15 0 19.5 -5zM385 748q0 -31 -11 -57.5t-28.5 -42t-37.5 -15.5q-18 0 -31.5 5.5t-31.5 17.5l-32 21q-16 10 -23.5 13.5t-17.5 3.5q-13 0 -22.5 -13t-13.5 -34q-2 -10 -5.5 -15.5t-10.5 -5.5h-16q-13 0 -13 18q0 31 10.5 57t28.5 41.5
t40 15.5q16 0 30 -5.5t32 -16.5l32 -21q14 -10 22.5 -14t18.5 -4q13 0 22 12.5t14 35.5q2 10 5 15.5t11 5.5h15q13 0 13 -18z" />
    <glyph glyph-name="Umacron" unicode="&#x16a;" horiz-adv-x="570" 
d="M491.5 726q4.5 -5 4.5 -21v-451q0 -127 -50.5 -197.5t-154.5 -70.5h-19q-99 0 -148.5 69t-49.5 200v450q0 16 4.5 21t18.5 5h38q10 0 14.5 -2t6 -7t1.5 -17v-440q0 -104 31.5 -150t96.5 -46q46 0 73.5 20.5t40 63.5t12.5 113v439q0 16 4.5 21t18.5 5h38q15 0 19.5 -5z
M405 891.5q5 -5.5 5 -17.5v-21q0 -23 -21 -23h-207q-13 0 -18 5.5t-5 17.5v21q0 12 5 17.5t18 5.5h205q13 0 18 -5.5z" />
    <glyph glyph-name="umacron" unicode="&#x16b;" horiz-adv-x="488" 
d="M406.5 548q4.5 -5 4.5 -21v-501q0 -16 -4.5 -21t-18.5 -5h-25q-12 0 -17.5 4.5t-6.5 18.5l-4 33h-2q-27 -34 -62 -51t-72 -17q-61 0 -94.5 42t-33.5 127v370q0 12 1.5 17t7 7t16.5 2h31q15 0 19 -4.5t4 -21.5v-352q0 -60 16 -87t55 -27q30 0 57 18.5t44 42.5q5 7 6.5 13
t1.5 19v373q0 16 4.5 21t19.5 5h33q15 0 19.5 -5zM357 716.5q5 -5.5 5 -17.5v-22q0 -22 -22 -22h-204q-13 0 -18 5t-5 18v21q0 12 5 17.5t18 5.5h203q13 0 18 -5.5z" />
    <glyph glyph-name="Ubreve" unicode="&#x16c;" horiz-adv-x="570" 
d="M491.5 726q4.5 -5 4.5 -21v-451q0 -127 -50.5 -197.5t-154.5 -70.5h-19q-99 0 -148.5 69t-49.5 200v450q0 16 4.5 21t18.5 5h38q10 0 14.5 -2t6 -7t1.5 -17v-440q0 -104 31.5 -150t96.5 -46q46 0 73.5 20.5t40 63.5t12.5 113v439q0 16 4.5 21t18.5 5h38q15 0 19.5 -5z
M413.5 958.5q3.5 -3.5 3.5 -12.5q0 -50 -18 -85t-48 -52.5t-66 -17.5q-37 0 -67 17.5t-48 52.5t-18 85q0 9 3.5 12.5t10.5 3.5h15q8 0 12 -3.5t6 -14.5q18 -91 86 -91q67 0 85 91q2 11 5.5 14.5t12.5 3.5h15q7 0 10.5 -3.5z" />
    <glyph glyph-name="ubreve" unicode="&#x16d;" horiz-adv-x="488" 
d="M406.5 548q4.5 -5 4.5 -21v-501q0 -16 -4.5 -21t-18.5 -5h-25q-12 0 -17.5 4.5t-6.5 18.5l-4 33h-2q-27 -34 -62 -51t-72 -17q-61 0 -94.5 42t-33.5 127v370q0 12 1.5 17t7 7t16.5 2h31q15 0 19 -4.5t4 -21.5v-352q0 -60 16 -87t55 -27q30 0 57 18.5t44 42.5q5 7 6.5 13
t1.5 19v373q0 16 4.5 21t19.5 5h33q15 0 19.5 -5zM367 787q0 -56 -17.5 -95t-47 -58.5t-64.5 -19.5q-36 0 -65.5 19.5t-47 58.5t-17.5 95q0 15 13 15h15q9 0 12.5 -3t4.5 -15q6 -39 25 -72.5t60 -33.5q40 0 59 33.5t25 72.5q1 12 4.5 15t11.5 3h16q13 0 13 -15z" />
    <glyph glyph-name="Uring" unicode="&#x16e;" horiz-adv-x="570" 
d="M491.5 726q4.5 -5 4.5 -21v-451q0 -127 -50.5 -197.5t-154.5 -70.5h-19q-99 0 -148.5 69t-49.5 200v450q0 16 4.5 21t18.5 5h38q10 0 14.5 -2t6 -7t1.5 -17v-440q0 -104 31.5 -150t96.5 -46q46 0 73.5 20.5t40 63.5t12.5 113v439q0 16 4.5 21t18.5 5h38q15 0 19.5 -5z
M337.5 999q21.5 -16 32 -42.5t10.5 -58.5q0 -33 -11 -59.5t-32.5 -42.5t-51.5 -16q-48 0 -71.5 34t-23.5 84q0 49 24 83t72 34q30 0 51.5 -16zM250 949q-12 -20 -12 -51q0 -32 12 -52.5t35 -20.5t35 20.5t12 52.5q0 31 -11.5 51t-35.5 20q-23 0 -35 -20z" />
    <glyph glyph-name="uring" unicode="&#x16f;" horiz-adv-x="488" 
d="M406.5 548q4.5 -5 4.5 -21v-501q0 -16 -4.5 -21t-18.5 -5h-25q-12 0 -17.5 4.5t-6.5 18.5l-4 33h-2q-27 -34 -62 -51t-72 -17q-61 0 -94.5 42t-33.5 127v370q0 12 1.5 17t7 7t16.5 2h31q15 0 19 -4.5t4 -21.5v-352q0 -60 16 -87t55 -27q30 0 57 18.5t44 42.5q5 7 6.5 13
t1.5 19v373q0 16 4.5 21t19.5 5h33q15 0 19.5 -5zM288.5 826.5q21.5 -15.5 33 -42t11.5 -58.5q0 -34 -11.5 -61t-33 -42.5t-50.5 -15.5q-30 0 -51.5 15.5t-33 42.5t-11.5 61q0 33 11.5 59.5t33 41.5t51.5 15q29 0 50.5 -15.5zM202 776q-12 -21 -12 -50q0 -31 12 -52.5
t36 -21.5q23 0 35 21.5t12 52.5q0 29 -12 50t-35 21q-24 0 -36 -21z" />
    <glyph glyph-name="Uhungarumlaut" unicode="&#x170;" horiz-adv-x="570" 
d="M491.5 726q4.5 -5 4.5 -21v-451q0 -127 -50.5 -197.5t-154.5 -70.5h-19q-99 0 -148.5 69t-49.5 200v450q0 16 4.5 21t18.5 5h38q10 0 14.5 -2t6 -7t1.5 -17v-440q0 -104 31.5 -150t96.5 -46q46 0 73.5 20.5t40 63.5t12.5 113v439q0 16 4.5 21t18.5 5h38q15 0 19.5 -5z
M311.5 959.5q4.5 -2.5 4.5 -10.5q0 -10 -14 -31l-68 -110q-7 -11 -11.5 -14t-15.5 -3h-9q-16 0 -16 11q0 9 6 25l38 110q4 12 7 17t8.5 6.5t15.5 1.5h38q12 0 16.5 -2.5zM455.5 959.5q4.5 -2.5 4.5 -10.5q0 -5 -4.5 -13.5t-10.5 -17.5l-68 -110q-6 -10 -11 -13.5t-15 -3.5
h-10q-16 0 -16 11q0 6 7 25l37 110q4 12 7.5 17t8.5 6.5t15 1.5h38q13 0 17.5 -2.5z" />
    <glyph glyph-name="uhungarumlaut" unicode="&#x171;" horiz-adv-x="488" 
d="M406.5 548q4.5 -5 4.5 -21v-501q0 -16 -4.5 -21t-18.5 -5h-25q-12 0 -17.5 4.5t-6.5 18.5l-4 33h-2q-27 -34 -62 -51t-72 -17q-61 0 -94.5 42t-33.5 127v370q0 12 1.5 17t7 7t16.5 2h31q15 0 19 -4.5t4 -21.5v-352q0 -60 16 -87t55 -27q30 0 57 18.5t44 42.5q5 7 6.5 13
t1.5 19v373q0 16 4.5 21t19.5 5h33q15 0 19.5 -5zM272 806q4 -2 4 -9q0 -5 -5.5 -15.5t-7.5 -14.5l-75 -134q-6 -10 -11.5 -14.5t-12.5 -4.5h-17q-7 0 -10.5 3.5t-3.5 8.5q0 4 3 12.5t5 12.5l44 132q4 12 7.5 17t7.5 6.5t12 1.5h49q7 0 11 -2zM415.5 806q3.5 -2 3.5 -9
q0 -8 -13 -30l-74 -134q-6 -10 -11 -14.5t-13 -4.5h-17q-7 0 -10.5 3.5t-3.5 8.5t2 11t5 14l45 132q4 12 7.5 17t7.5 6.5t12 1.5h49q7 0 10.5 -2z" />
    <glyph glyph-name="Uogonek" unicode="&#x172;" horiz-adv-x="570" 
d="M491.5 726q4.5 -5 4.5 -21v-451q0 -175 -94 -238l-24 -15q-26 -15 -37 -26q-20 -20 -33.5 -46.5t-13.5 -56.5q0 -29 12.5 -44t32.5 -15q22 0 36 7q4 1 7 3t6 2q4 0 6 -2.5t4 -9.5l4 -16q2 -8 2 -11q0 -7 -12 -14q-11 -6 -27.5 -10t-35.5 -4q-41 0 -70 23t-29 84
q0 36 16 67t42 54h-17q-99 0 -148 69t-49 200v450q0 16 4.5 21t18.5 5h38q10 0 14.5 -2t6 -7t1.5 -17v-440q0 -104 31.5 -150t95.5 -46q46 0 74 20.5t40.5 63.5t12.5 113v439q0 16 4.5 21t18.5 5h38q15 0 19.5 -5z" />
    <glyph glyph-name="uogonek" unicode="&#x173;" horiz-adv-x="488" 
d="M457 -215q0 -8 -11 -14t-28 -10t-36 -4q-40 0 -69 22t-29 79q0 78 67 143q-5 2 -8 7.5t-4 14.5l-4 33h-2q-27 -34 -62 -51t-72 -17q-61 0 -94.5 42t-33.5 127v370q0 12 1.5 17t7 7t16.5 2h31q15 0 19 -4.5t4 -21.5v-352q0 -60 16 -87t55 -27q30 0 57 18.5t44 42.5
q5 7 6.5 13t1.5 19v373q0 16 4.5 21t19.5 5h33q15 0 19.5 -5t4.5 -21v-501v-5v-4q-1 -8 -4 -11.5t-9 -4.5q-27 -35 -39 -66.5t-12 -63.5q0 -29 12.5 -44t33.5 -15q20 0 36 7q2 1 6.5 3t6.5 2q4 0 6 -3.5t3 -8.5l4 -16q2 -6 2 -11z" />
    <glyph glyph-name="Wcircumflex" unicode="&#x174;" horiz-adv-x="633" 
d="M609.5 728.5q3.5 -2.5 3.5 -8.5q0 -8 -3 -25l-104 -672q-2 -14 -7 -18.5t-17 -4.5h-42q-12 0 -17 4.5t-7 18.5l-82 416q-5 23 -10.5 55.5t-6.5 54.5h-2q-3 -27 -7 -56t-9 -51l-81 -418q-3 -15 -8 -19.5t-16 -4.5h-43q-11 0 -16 4.5t-7 18.5l-105 670q-3 18 -3 25t3.5 10
t12.5 3h45q13 0 17 -4.5t6 -17.5l70 -505q5 -44 6 -63h2q4 39 11 75l77 404q3 14 7.5 18.5t17.5 4.5h44q12 0 17 -5.5t8 -17.5l77 -393q12 -55 14 -86h3q4 57 9 94l66 474q2 14 7 18t17 4h40q9 0 12.5 -2.5zM352 953q5 -5 14 -18l70 -104q6 -8 10.5 -16t4.5 -13
q0 -11 -14 -11h-21q-10 0 -16 3.5t-14 14.5l-70 87l-70 -87q-9 -11 -14.5 -14.5t-14.5 -3.5h-20q-15 0 -15 11q0 5 4 12.5t10 16.5l70 104q9 13 14.5 18t14.5 5h42q10 0 15 -5z" />
    <glyph glyph-name="wcircumflex" unicode="&#x175;" horiz-adv-x="579" 
d="M557 539q0 -5 -2 -12.5t-3 -14.5l-89 -486q-3 -16 -8.5 -21t-17.5 -5h-37q-13 0 -18.5 5t-9.5 20l-71 348q-7 38 -10 66h-2q-3 -31 -11 -66l-71 -347q-3 -15 -8.5 -20.5t-19.5 -5.5h-34q-14 0 -20 5.5t-9 21.5l-87 472q-6 27 -6 40q0 7 4 10.5t15 3.5h37q10 0 15.5 -5.5
t6.5 -19.5l51 -308q12 -71 15 -105h2q3 24 7.5 53t9.5 54l62 309q3 13 8 17.5t16 4.5h34q14 0 19 -3.5t7 -16.5l66 -315q9 -53 15 -100h1q1 9 5 36l9 68l51 308q2 14 7 18.5t16 4.5h38q17 0 17 -14zM323.5 803.5q3.5 -3.5 7.5 -10.5t6 -10l72 -126q2 -4 5.5 -9.5t6 -12
t2.5 -10.5q0 -5 -4 -8t-10 -3h-19q-11 0 -16.5 3.5t-13.5 15.5l-71 109l-71 -109q-8 -12 -13.5 -15.5t-15.5 -3.5h-18q-7 0 -11 3.5t-4 8.5q0 6 3.5 14t9.5 17l72 126q9 15 13 19.5t12 4.5h47q7 0 10.5 -3.5z" />
    <glyph glyph-name="Ycircumflex" unicode="&#x176;" horiz-adv-x="451" 
d="M430 728q5 -3 5 -9t-4.5 -18t-6.5 -17l-149 -390q-1 -2 -3.5 -9t-3.5 -13.5t-1 -13.5v-232q0 -17 -4 -21.5t-18 -4.5h-38q-16 0 -20 4.5t-4 21.5v231q0 11 -2 18.5t-7 18.5l-147 390q-5 11 -8 20t-3 15q0 12 17 12h48q10 0 15.5 -4t9.5 -15l94 -268q12 -33 26 -88h2
q9 39 24 88l93 268q3 10 8.5 14.5t15.5 4.5h48q8 0 13 -3zM260 953q5 -5 14 -18l70 -104q6 -8 10.5 -16t4.5 -13q0 -11 -14 -11h-21q-10 0 -16 3.5t-14 14.5l-70 87l-70 -87q-9 -11 -14.5 -14.5t-14.5 -3.5h-20q-15 0 -15 11q0 5 4 12.5t10 16.5l70 104q9 13 14.5 18t14.5 5
h42q10 0 15 -5z" />
    <glyph glyph-name="ycircumflex" unicode="&#x177;" horiz-adv-x="394" 
d="M383 540q0 -6 -3.5 -19.5t-4.5 -16.5l-138 -531q-17 -64 -35.5 -102t-44 -56t-62.5 -18q-16 0 -32 3.5t-30 9.5q-8 4 -12 8.5t-4 11.5q0 12 7 31q4 12 8 17t10 5q4 0 20 -6t29 -6q17 0 28.5 11.5t20.5 36t20 69.5q2 12 2 16q0 8 -3 21l-138 470q-10 36 -10 45q0 13 17 13
h40q9 0 13.5 -2t7.5 -7.5t7 -17.5l95 -355q8 -31 12 -61h2q2 16 6.5 35.5t5.5 25.5l84 359q4 14 9 18.5t16 4.5h40q17 0 17 -13zM230.5 803.5q3.5 -3.5 7.5 -10.5t6 -10l72 -126q2 -4 5.5 -9.5t6 -12t2.5 -10.5q0 -5 -4 -8t-10 -3h-19q-11 0 -16.5 3.5t-13.5 15.5l-71 109
l-71 -109q-8 -12 -13.5 -15.5t-15.5 -3.5h-18q-7 0 -11 3.5t-4 8.5q0 6 3.5 14t9.5 17l72 126q9 15 13 19.5t12 4.5h47q7 0 10.5 -3.5z" />
    <glyph glyph-name="Ydieresis" unicode="&#x178;" horiz-adv-x="451" 
d="M430 728q5 -3 5 -9t-4.5 -18t-6.5 -17l-149 -390q-1 -2 -3.5 -9t-3.5 -13.5t-1 -13.5v-232q0 -17 -4 -21.5t-18 -4.5h-38q-16 0 -20 4.5t-4 21.5v231q0 11 -2 18.5t-7 18.5l-147 390q-5 11 -8 20t-3 15q0 12 17 12h48q10 0 15.5 -4t9.5 -15l94 -268q12 -33 26 -88h2
q9 39 24 88l93 268q3 10 8.5 14.5t15.5 4.5h48q8 0 13 -3zM176.5 911.5q4.5 -5.5 4.5 -19.5v-57q0 -14 -4.5 -19.5t-18.5 -5.5h-42q-13 0 -18 6t-5 19v57q0 14 4 19.5t17 5.5h45q13 0 17.5 -5.5zM352 911.5q4 -5.5 4 -19.5v-57q0 -13 -5 -19t-17 -6h-43q-14 0 -18.5 5.5
t-4.5 19.5v57q0 14 4.5 19.5t16.5 5.5h45q14 0 18 -5.5z" />
    <glyph glyph-name="Zacute" unicode="&#x179;" horiz-adv-x="454" 
d="M416 726.5q4 -4.5 4 -20.5v-29q0 -14 -2.5 -22t-8.5 -21l-285 -551v-2h282q11 0 15.5 -2t6 -7t1.5 -17v-30q0 -16 -4 -20.5t-19 -4.5h-357q-15 0 -19 4.5t-4 20.5v30q0 14 2.5 21.5t10.5 21.5l283 550v2h-259q-10 0 -14.5 2t-6 7t-1.5 17v30q0 16 4 20.5t18 4.5h334
q15 0 19 -4.5zM331 959q5 -3 5 -10q0 -6 -4 -14t-13 -20l-77 -107q-8 -11 -12.5 -14t-14.5 -3h-16q-15 0 -15 11q0 8 8 26l48 109q7 16 12.5 20.5t17.5 4.5h45q11 0 16 -3z" />
    <glyph glyph-name="zacute" unicode="&#x17a;" horiz-adv-x="382" 
d="M346 549q4 -4 4 -20v-18q0 -14 -2.5 -22t-11.5 -24l-209 -390v-2h213q10 0 14.5 -2t6 -7t1.5 -17v-21q0 -17 -4 -21.5t-18 -4.5h-289q-14 0 -18 4.5t-4 19.5v16q0 15 3 24.5t12 25.5l208 388v2h-188q-14 0 -18.5 5t-4.5 20v23q0 15 4.5 20t18.5 5h263q15 0 19 -4z
M322.5 804.5q5.5 -3.5 5.5 -10.5q0 -5 -3.5 -11.5t-7.5 -12.5t-7 -10l-86 -127q-13 -19 -29 -19h-15q-9 0 -13.5 3.5t-4.5 9.5q0 8 8 26l62 129q8 16 13.5 21t17.5 5h42q12 0 17.5 -3.5z" />
    <glyph glyph-name="Zdotaccent" unicode="&#x17b;" horiz-adv-x="454" 
d="M416 726.5q4 -4.5 4 -20.5v-29q0 -14 -2.5 -22t-8.5 -21l-285 -551v-2h282q11 0 15.5 -2t6 -7t1.5 -17v-30q0 -16 -4 -20.5t-19 -4.5h-357q-15 0 -19 4.5t-4 20.5v30q0 14 2.5 21.5t10.5 21.5l283 550v2h-259q-10 0 -14.5 2t-6 7t-1.5 17v30q0 16 4 20.5t18 4.5h334
q15 0 19 -4.5zM266 911.5q4 -5.5 4 -19.5v-57q0 -14 -4.5 -19.5t-17.5 -5.5h-43q-13 0 -17.5 5.5t-4.5 19.5v57q0 14 4 19.5t16 5.5h46q13 0 17 -5.5z" />
    <glyph glyph-name="zdotaccent" unicode="&#x17c;" horiz-adv-x="382" 
d="M346 549q4 -4 4 -20v-18q0 -14 -2.5 -22t-11.5 -24l-209 -390v-2h213q10 0 14.5 -2t6 -7t1.5 -17v-21q0 -17 -4 -21.5t-18 -4.5h-289q-14 0 -18 4.5t-4 19.5v16q0 15 3 24.5t12 25.5l208 388v2h-188q-14 0 -18.5 5t-4.5 20v23q0 15 4.5 20t18.5 5h263q15 0 19 -4z
M236.5 738q4.5 -2 6 -7t1.5 -17v-54q0 -12 -1.5 -17t-6.5 -7t-16 -2h-38q-11 0 -15.5 2t-6 7t-1.5 17v54q0 12 1.5 17t6 7t14.5 2h41q10 0 14.5 -2z" />
    <glyph glyph-name="Zcaron" unicode="&#x17d;" horiz-adv-x="454" 
d="M416 726.5q4 -4.5 4 -20.5v-29q0 -14 -2.5 -22t-8.5 -21l-285 -551v-2h282q11 0 15.5 -2t6 -7t1.5 -17v-30q0 -16 -4 -20.5t-19 -4.5h-357q-15 0 -19 4.5t-4 20.5v30q0 14 2.5 21.5t10.5 21.5l283 550v2h-259q-10 0 -14.5 2t-6 7t-1.5 17v30q0 16 4 20.5t18 4.5h334
q15 0 19 -4.5zM360 947q0 -6 -3.5 -14t-9.5 -16l-70 -104q-9 -13 -14 -17.5t-15 -4.5h-42q-9 0 -15 5t-14 17l-70 104q-6 9 -10 16.5t-4 13.5q0 5 4.5 8t11.5 3h19q9 0 14 -3.5t15 -15.5l70 -86l70 86q10 11 15.5 15t14.5 4h19q14 0 14 -11z" />
    <glyph glyph-name="zcaron" unicode="&#x17e;" horiz-adv-x="382" 
d="M346 549q4 -4 4 -20v-18q0 -14 -2.5 -22t-11.5 -24l-209 -390v-2h213q10 0 14.5 -2t6 -7t1.5 -17v-21q0 -17 -4 -21.5t-18 -4.5h-289q-14 0 -18 4.5t-4 19.5v16q0 15 3 24.5t12 25.5l208 388v2h-188q-14 0 -18.5 5t-4.5 20v23q0 15 4.5 20t18.5 5h263q15 0 19 -4z
M335 796q0 -4 -3 -11t-6 -12t-5 -8l-72 -127q-1 -2 -5.5 -10t-8.5 -11t-10 -3h-47q-9 0 -12.5 4.5t-12.5 19.5l-72 127q-13 21 -13 30q0 12 16 12h17q11 0 16 -3t13 -16l71 -107l71 107q8 12 13.5 15.5t14.5 3.5h18q17 0 17 -11z" />
    <glyph glyph-name="florin" unicode="&#x192;" horiz-adv-x="375" 
d="M341 741.5q16 -3.5 30 -10.5q11 -6 15.5 -11t4.5 -12q0 -10 -12 -32q-9 -19 -20 -19q-5 0 -15 4.5t-19.5 8t-20.5 3.5q-24 0 -39.5 -22.5t-23.5 -70.5l-8 -54h74q10 0 14.5 -2t4.5 -8q0 -7 -3 -19l-5 -23q-3 -11 -9 -15.5t-16 -4.5h-76l-84 -468q-36 -190 -139 -190
q-21 0 -37 4.5t-32 11.5q-11 6 -15 11t-4 11q0 5 2 11t5 12l9 18q5 11 14 11q3 0 13 -5t21.5 -9t21.5 -4q14 0 25.5 12.5t22 45t19.5 91.5l79 437h-62q-11 0 -15.5 2t-4.5 8q0 5 4 21l3 17q3 14 9 19t18 5h63l10 60q17 84 52 121.5t88 37.5q22 0 38 -3.5z" />
    <glyph glyph-name="Scommaaccent" unicode="&#x218;" horiz-adv-x="477" 
d="M320.5 738q29.5 -7 56.5 -19q20 -8 27 -14.5t7 -14.5q0 -6 -3.5 -16.5t-4.5 -14.5q-6 -14 -10.5 -20t-12.5 -6q-6 0 -17 5.5t-20 8.5q-25 10 -45 14.5t-47 4.5q-25 0 -46 -9t-35 -25q-14 -17 -21.5 -37.5t-7.5 -42.5q0 -33 10.5 -55.5t36.5 -39.5t73 -29
q94 -24 136.5 -76t42.5 -143q0 -56 -18.5 -106t-64 -83t-120.5 -33q-85 0 -155 39q-20 11 -28 19t-8 17q0 12 8 31q6 14 12 20.5t13 6.5q6 0 12.5 -3.5t15.5 -8.5q34 -22 63.5 -32t65.5 -10q41 0 67 20t37.5 50.5t11.5 64.5q0 44 -11.5 71.5t-39.5 46t-79 30.5
q-90 22 -129 72t-39 128q0 45 15 82.5t42 62.5q54 51 141 51q39 0 68.5 -7zM285.5 -64q4.5 -5 4.5 -21v-65q0 -12 -3.5 -23t-12.5 -34l-18 -43q-6 -15 -9.5 -19.5t-8.5 -4.5q-6 0 -13 5q-4 2 -7.5 5t-3.5 8q0 7 8 31l17 57h-17q-9 0 -13 4t-4 19v61q0 12 1 16.5t5.5 6.5
t15.5 2h40q14 0 18.5 -5z" />
    <glyph glyph-name="scommaaccent" unicode="&#x219;" horiz-adv-x="393" 
d="M310 547q15 -5 23 -11t8 -15q0 -8 -6 -25q-5 -13 -9.5 -19t-10.5 -6q-5 0 -13.5 3t-14.5 5q-39 15 -79 15q-22 0 -37.5 -5t-27.5 -17q-23 -25 -23 -64q0 -25 8.5 -40.5t28.5 -24.5t55 -15q81 -13 117 -51.5t36 -107.5q0 -85 -42.5 -130.5t-123.5 -45.5q-31 0 -65 6
t-58 17q-19 8 -29 15.5t-10 17.5q0 9 6 24q6 13 10.5 19t11.5 6q5 0 21 -8q52 -26 115 -26q43 0 65 26t22 71q0 28 -8.5 46.5t-30.5 30.5t-62 18q-144 22 -144 149q0 72 40 115q20 22 50 33.5t69 11.5q58 0 108 -18zM243.5 -64q4.5 -5 4.5 -21v-65q0 -12 -3.5 -23t-12.5 -34
l-18 -43q-6 -15 -9.5 -19.5t-8.5 -4.5q-6 0 -13 5q-4 2 -7.5 5t-3.5 8q0 7 8 31l17 57h-17q-9 0 -13 4t-4 19v61q0 12 1 16.5t5.5 6.5t15.5 2h40q14 0 18.5 -5z" />
    <glyph glyph-name="uni021A" unicode="&#x21a;" horiz-adv-x="443" 
d="M425 726.5q4 -4.5 4 -20.5v-30q0 -12 -2 -17t-6.5 -7t-14.5 -2h-142v-624q0 -16 -4 -21t-19 -5h-39q-14 0 -18.5 5t-4.5 21v624h-142q-11 0 -15.5 2t-6 7t-1.5 17v29q0 17 4 21.5t19 4.5h369q15 0 19 -4.5zM259.5 -64q4.5 -5 4.5 -21v-65q0 -12 -3.5 -23t-12.5 -34
l-18 -43q-6 -15 -9.5 -19.5t-8.5 -4.5q-6 0 -13 5q-4 2 -7.5 5t-3.5 8q0 7 8 31l17 57h-17q-9 0 -13 4t-4 19v61q0 12 1 16.5t5.5 6.5t15.5 2h40q14 0 18.5 -5z" />
    <glyph glyph-name="uni021B" unicode="&#x21b;" horiz-adv-x="299" 
d="M150 703q3 -6 3 -20v-143h105q11 0 16.5 -2t7 -7t1.5 -17v-20q0 -16 -4.5 -21t-21.5 -5h-104v-317q0 -49 12.5 -68t36.5 -19q12 0 25 4t25.5 9.5t16.5 5.5q6 0 9.5 -4.5t7.5 -15.5q5 -11 7 -18t2 -13q0 -7 -4 -11.5t-13 -9.5q-16 -9 -39.5 -15t-48.5 -6q-57 0 -87.5 37.5
t-30.5 120.5v320h-31q-14 0 -18.5 4.5t-4.5 17.5v7q0 12 4.5 16t20.5 10q16 4 22.5 15.5t6.5 30.5v91q0 13 3.5 19.5t13.5 11.5l25 11q14 7 23 7q10 0 13 -6zM218.5 -64q4.5 -5 4.5 -21v-65q0 -12 -3.5 -23t-12.5 -34l-18 -43q-6 -15 -9.5 -19.5t-8.5 -4.5q-6 0 -13 5
q-4 2 -7.5 5t-3.5 8q0 7 8 31l17 57h-17q-9 0 -13 4t-4 19v61q0 12 1 16.5t5.5 6.5t15.5 2h40q14 0 18.5 -5z" />
    <glyph glyph-name="dotlessj" unicode="&#x237;" horiz-adv-x="226" 
d="M151 548.5q4 -4.5 4 -20.5v-584q0 -77 -30.5 -113t-85.5 -36q-33 0 -66 14q-9 4 -13 9t-4 12q0 6 3 15t6 16q6 13 10 17t11 4q3 0 11.5 -3.5t18 -6t19.5 -2.5q22 0 30.5 19t8.5 56v582q0 17 4 21.5t19 4.5h35q15 0 19 -4.5z" />
    <glyph glyph-name="circumflex" unicode="&#x2c6;" horiz-adv-x="375" 
d="M221.5 803.5q3.5 -3.5 7.5 -10.5t6 -10l72 -126q2 -4 5.5 -9.5t6 -12t2.5 -10.5q0 -5 -4 -8t-10 -3h-19q-11 0 -16.5 3.5t-13.5 15.5l-71 109l-71 -109q-8 -12 -13.5 -15.5t-15.5 -3.5h-18q-7 0 -11 3.5t-4 8.5q0 6 3.5 14t9.5 17l72 126q9 15 13 19.5t12 4.5h47
q7 0 10.5 -3.5z" />
    <glyph glyph-name="caron" unicode="&#x2c7;" horiz-adv-x="375" 
d="M321 796q0 -4 -3 -11t-6 -12t-5 -8l-72 -127q-1 -2 -5.5 -10t-8.5 -11t-10 -3h-47q-9 0 -12.5 4.5t-12.5 19.5l-72 127q-13 21 -13 30q0 12 16 12h17q11 0 16 -3t13 -16l71 -107l71 107q8 12 13.5 15.5t14.5 3.5h18q17 0 17 -11z" />
    <glyph glyph-name="uni02C9" unicode="&#x2c9;" horiz-adv-x="375" 
d="M312 701v-21q0 -23 -22 -23h-205q-22 0 -22 23v21q0 21 22 21h205q22 0 22 -21z" />
    <glyph glyph-name="breve" unicode="&#x2d8;" horiz-adv-x="375" 
d="M317 787q0 -56 -17.5 -95t-47 -58.5t-64.5 -19.5q-36 0 -65.5 19.5t-47 58.5t-17.5 95q0 15 13 15h15q9 0 12.5 -3t4.5 -15q6 -39 25 -72.5t60 -33.5q40 0 59 33.5t25 72.5q1 12 4.5 15t11.5 3h16q13 0 13 -15z" />
    <glyph glyph-name="dotaccent" unicode="&#x2d9;" horiz-adv-x="375" 
d="M222.5 738q4.5 -2 6 -7t1.5 -17v-54q0 -12 -1.5 -17t-6.5 -7t-16 -2h-38q-11 0 -15.5 2t-6 7t-1.5 17v54q0 12 1.5 17t6 7t14.5 2h41q10 0 14.5 -2z" />
    <glyph glyph-name="ring" unicode="&#x2da;" horiz-adv-x="375" 
d="M238.5 826.5q21.5 -15.5 33 -42t11.5 -58.5q0 -34 -11.5 -61t-33 -42.5t-50.5 -15.5q-30 0 -51.5 15.5t-33 42.5t-11.5 61q0 33 11.5 59.5t33 41.5t51.5 15q29 0 50.5 -15.5zM152 776q-12 -21 -12 -50q0 -31 12 -52.5t36 -21.5q23 0 35 21.5t12 52.5q0 29 -12 50t-35 21
q-24 0 -36 -21z" />
    <glyph glyph-name="ogonek" unicode="&#x2db;" horiz-adv-x="375" 
d="M228 18q-34 -40 -49 -75.5t-15 -70.5q0 -29 12.5 -44t33.5 -15q20 0 36 7q2 1 6.5 3t6.5 2q4 0 6 -3.5t3 -8.5l4 -16q2 -6 2 -11q0 -8 -11 -14t-28 -10t-36 -4q-40 0 -69 22t-29 79q0 46 23.5 87t64.5 76h39v-4z" />
    <glyph glyph-name="tilde" unicode="&#x2dc;" horiz-adv-x="375" 
d="M334 748q0 -31 -11 -57.5t-28.5 -42t-37.5 -15.5q-18 0 -31.5 5.5t-31.5 17.5l-32 21q-16 10 -23.5 13.5t-17.5 3.5q-13 0 -22.5 -13t-13.5 -34q-2 -10 -5.5 -15.5t-10.5 -5.5h-16q-13 0 -13 18q0 31 10.5 57t28.5 41.5t40 15.5q16 0 30 -5.5t32 -16.5l32 -21
q14 -10 22.5 -14t18.5 -4q13 0 22 12.5t14 35.5q2 10 5 15.5t11 5.5h15q13 0 13 -18z" />
    <glyph glyph-name="hungarumlaut" unicode="&#x2dd;" horiz-adv-x="375" 
d="M183 806q4 -2 4 -9q0 -5 -5.5 -15.5t-7.5 -14.5l-75 -134q-6 -10 -11.5 -14.5t-12.5 -4.5h-17q-7 0 -10.5 3.5t-3.5 8.5q0 4 3 12.5t5 12.5l44 132q4 12 7.5 17t7.5 6.5t12 1.5h49q7 0 11 -2zM326.5 806q3.5 -2 3.5 -9q0 -8 -13 -30l-74 -134q-6 -10 -11 -14.5t-13 -4.5
h-17q-7 0 -10.5 3.5t-3.5 8.5t2 11t5 14l45 132q4 12 7.5 17t7.5 6.5t12 1.5h49q7 0 10.5 -2z" />
    <glyph glyph-name="commaturnedabovecomb" unicode="&#x312;" horiz-adv-x="0" 
d="M-226 635q-4 5 -4 21v63q0 13 3.5 25t11.5 32l19 46q5 12 9 16.5t8 4.5q6 0 14 -4q1 -1 4.5 -3t5 -4.5t1.5 -5.5q0 -5 -3.5 -16t-5.5 -17l-17 -56h18q8 0 12 -5t4 -19l1 -57q0 -17 -4 -21.5t-19 -4.5h-40q-14 0 -18 5z" />
    <glyph glyph-name="commaaccent" unicode="&#x326;" horiz-adv-x="0" 
d="M-149.5 -64q4.5 -5 4.5 -21v-65q0 -12 -3.5 -23t-12.5 -34l-18 -43q-6 -15 -9.5 -19.5t-8.5 -4.5q-6 0 -13 5q-4 2 -7.5 5t-3.5 8q0 7 8 31l17 57h-17q-9 0 -13 4t-4 19v61q0 12 1 16.5t5.5 6.5t15.5 2h40q14 0 18.5 -5z" />
    <glyph glyph-name="uni0394" unicode="&#x394;" horiz-adv-x="528" 
d="M304.5 727.5q5.5 -3.5 9.5 -18.5l192 -624q3 -10 4.5 -19.5t1.5 -21.5v-20q0 -13 -4.5 -18.5t-16.5 -5.5h-454q-12 0 -16.5 5t-4.5 19v21q0 11 2 20t5 20l190 623q5 14 11.5 18.5t20.5 4.5h38q16 0 21.5 -3.5zM263 607q-6 -42 -17 -75l-135 -451h303l-132 446
q-14 52 -17 80h-2z" />
    <glyph glyph-name="uni03A9" unicode="&#x3a9;" horiz-adv-x="563" 
d="M408 710q51 -35 79 -106t28 -175v-40q0 -114 -26.5 -189.5t-84.5 -126.5h93q14 0 18 -5t4 -20v-23q0 -15 -4.5 -20t-17.5 -5h-158q-14 0 -18 5.5t-4 19.5v26q0 19 11 30q100 96 100 300v32q0 122 -33 187.5t-110 65.5h-7q-76 0 -110 -65t-34 -188v-31q0 -205 100 -301
q11 -11 11 -29v-27q0 -14 -4 -19.5t-17 -5.5h-157q-15 0 -19 5t-4 20v23q0 15 4 20t19 5h91q-57 51 -84 126.5t-27 189.5v40q0 105 28.5 176t80 105.5t121.5 34.5h10q70 0 121 -35z" />
    <glyph glyph-name="uni03BC" unicode="&#x3bc;" horiz-adv-x="499" 
d="M412 548q4 -5 4 -21v-340q0 -54 5.5 -84t15.5 -51q3 -7 5.5 -13.5t2.5 -10.5q0 -10 -17 -21l-16 -10q-6 -4 -10.5 -5.5t-8.5 -1.5q-13 0 -22 14q-6 10 -10.5 22.5t-8.5 26.5h-1q-24 -36 -51 -50.5t-58 -14.5q-29 0 -50.5 9.5t-34.5 28.5v-192q0 -16 -4.5 -21t-18.5 -5
h-34q-10 0 -15 2t-6.5 7.5t-1.5 17.5v692q0 17 4 21.5t19 4.5h34q14 0 18.5 -5t4.5 -21v-341q0 -65 22 -95.5t62 -30.5q28 0 49.5 19t35.5 46q6 11 8.5 20.5t2.5 26.5v355q0 17 4 21.5t19 4.5h34q14 0 18 -5z" />
    <glyph glyph-name="pi" unicode="&#x3c0;" horiz-adv-x="485" 
d="M467.5 548q4.5 -5 4.5 -20v-30q0 -16 -4.5 -21.5t-18.5 -5.5h-77v-338q0 -42 8 -57t24 -15q10 0 19.5 4t12.5 4q6 0 9 -4.5t8 -17.5q7 -15 7 -26q0 -7 -4 -10.5t-13 -8.5q-24 -12 -49 -12q-94 0 -94 138v343h-127v-444q0 -17 -4 -22t-18 -5h-27q-14 0 -18 5t-4 22v444h-4
q-16 0 -31.5 -4.5t-32.5 -11.5t-20 -7q-7 0 -10.5 5.5t-7.5 18.5q-4 12 -6.5 20.5t-2.5 15.5t6.5 12t18.5 10q49 23 120 23h317q14 0 18.5 -5z" />
    <glyph glyph-name="Wgrave" unicode="&#x1e80;" horiz-adv-x="633" 
d="M609.5 728.5q3.5 -2.5 3.5 -8.5q0 -8 -3 -25l-104 -672q-2 -14 -7 -18.5t-17 -4.5h-42q-12 0 -17 4.5t-7 18.5l-82 416q-5 23 -10.5 55.5t-6.5 54.5h-2q-3 -27 -7 -56t-9 -51l-81 -418q-3 -15 -8 -19.5t-16 -4.5h-43q-11 0 -16 4.5t-7 18.5l-105 670q-3 18 -3 25t3.5 10
t12.5 3h45q13 0 17 -4.5t6 -17.5l70 -505q5 -44 6 -63h2q4 39 11 75l77 404q3 14 7.5 18.5t17.5 4.5h44q12 0 17 -5.5t8 -17.5l77 -393q12 -55 14 -86h3q4 57 9 94l66 474q2 14 7 18t17 4h40q9 0 12.5 -2.5zM281.5 957q5.5 -5 12.5 -20l47 -109q8 -18 8 -26q0 -11 -15 -11
h-14q-10 0 -15.5 4t-12.5 13l-77 107q-8 11 -12.5 19.5t-4.5 14.5q0 7 5 10t16 3h45q12 0 17.5 -5z" />
    <glyph glyph-name="wgrave" unicode="&#x1e81;" horiz-adv-x="579" 
d="M557 539q0 -5 -2 -12.5t-3 -14.5l-89 -486q-3 -16 -8.5 -21t-17.5 -5h-37q-13 0 -18.5 5t-9.5 20l-71 348q-7 38 -10 66h-2q-3 -31 -11 -66l-71 -347q-3 -15 -8.5 -20.5t-19.5 -5.5h-34q-14 0 -20 5.5t-9 21.5l-87 472q-6 27 -6 40q0 7 4 10.5t15 3.5h37q10 0 15.5 -5.5
t6.5 -19.5l51 -308q12 -71 15 -105h2q3 24 7.5 53t9.5 54l62 309q3 13 8 17.5t16 4.5h34q14 0 19 -3.5t7 -16.5l66 -315q9 -53 15 -100h1q1 9 5 36l9 68l51 308q2 14 7 18.5t16 4.5h38q17 0 17 -14zM254.5 803q5.5 -5 13.5 -21l62 -129q4 -8 6.5 -14.5t2.5 -11.5
q0 -6 -5 -9.5t-15 -3.5h-10q-11 0 -18.5 5t-14.5 14l-86 127q-3 4 -7.5 10.5t-7.5 13t-3 10.5q0 7 5 10.5t16 3.5h43q13 0 18.5 -5z" />
    <glyph glyph-name="Wacute" unicode="&#x1e82;" horiz-adv-x="633" 
d="M609.5 728.5q3.5 -2.5 3.5 -8.5q0 -8 -3 -25l-104 -672q-2 -14 -7 -18.5t-17 -4.5h-42q-12 0 -17 4.5t-7 18.5l-82 416q-5 23 -10.5 55.5t-6.5 54.5h-2q-3 -27 -7 -56t-9 -51l-81 -418q-3 -15 -8 -19.5t-16 -4.5h-43q-11 0 -16 4.5t-7 18.5l-105 670q-3 18 -3 25t3.5 10
t12.5 3h45q13 0 17 -4.5t6 -17.5l70 -505q5 -44 6 -63h2q4 39 11 75l77 404q3 14 7.5 18.5t17.5 4.5h44q12 0 17 -5.5t8 -17.5l77 -393q12 -55 14 -86h3q4 57 9 94l66 474q2 14 7 18t17 4h40q9 0 12.5 -2.5zM421 959q5 -3 5 -10q0 -6 -4 -14t-13 -20l-77 -107
q-8 -11 -12.5 -14t-14.5 -3h-16q-15 0 -15 11q0 8 8 26l48 109q7 16 12.5 20.5t17.5 4.5h45q11 0 16 -3z" />
    <glyph glyph-name="wacute" unicode="&#x1e83;" horiz-adv-x="579" 
d="M557 539q0 -5 -2 -12.5t-3 -14.5l-89 -486q-3 -16 -8.5 -21t-17.5 -5h-37q-13 0 -18.5 5t-9.5 20l-71 348q-7 38 -10 66h-2q-3 -31 -11 -66l-71 -347q-3 -15 -8.5 -20.5t-19.5 -5.5h-34q-14 0 -20 5.5t-9 21.5l-87 472q-6 27 -6 40q0 7 4 10.5t15 3.5h37q10 0 15.5 -5.5
t6.5 -19.5l51 -308q12 -71 15 -105h2q3 24 7.5 53t9.5 54l62 309q3 13 8 17.5t16 4.5h34q14 0 19 -3.5t7 -16.5l66 -315q9 -53 15 -100h1q1 9 5 36l9 68l51 308q2 14 7 18.5t16 4.5h38q17 0 17 -14zM410.5 804.5q5.5 -3.5 5.5 -10.5q0 -5 -3.5 -11.5t-7.5 -12.5t-7 -10
l-86 -127q-13 -19 -29 -19h-15q-9 0 -13.5 3.5t-4.5 9.5q0 8 8 26l62 129q8 16 13.5 21t17.5 5h42q12 0 17.5 -3.5z" />
    <glyph glyph-name="Wdieresis" unicode="&#x1e84;" horiz-adv-x="633" 
d="M609.5 728.5q3.5 -2.5 3.5 -8.5q0 -8 -3 -25l-104 -672q-2 -14 -7 -18.5t-17 -4.5h-42q-12 0 -17 4.5t-7 18.5l-82 416q-5 23 -10.5 55.5t-6.5 54.5h-2q-3 -27 -7 -56t-9 -51l-81 -418q-3 -15 -8 -19.5t-16 -4.5h-43q-11 0 -16 4.5t-7 18.5l-105 670q-3 18 -3 25t3.5 10
t12.5 3h45q13 0 17 -4.5t6 -17.5l70 -505q5 -44 6 -63h2q4 39 11 75l77 404q3 14 7.5 18.5t17.5 4.5h44q12 0 17 -5.5t8 -17.5l77 -393q12 -55 14 -86h3q4 57 9 94l66 474q2 14 7 18t17 4h40q9 0 12.5 -2.5zM268.5 911.5q4.5 -5.5 4.5 -19.5v-57q0 -14 -4.5 -19.5
t-18.5 -5.5h-42q-13 0 -18 6t-5 19v57q0 14 4 19.5t17 5.5h45q13 0 17.5 -5.5zM444 911.5q4 -5.5 4 -19.5v-57q0 -13 -5 -19t-17 -6h-43q-14 0 -18.5 5.5t-4.5 19.5v57q0 14 4.5 19.5t16.5 5.5h45q14 0 18 -5.5z" />
    <glyph glyph-name="wdieresis" unicode="&#x1e85;" horiz-adv-x="579" 
d="M557 539q0 -5 -2 -12.5t-3 -14.5l-89 -486q-3 -16 -8.5 -21t-17.5 -5h-37q-13 0 -18.5 5t-9.5 20l-71 348q-7 38 -10 66h-2q-3 -31 -11 -66l-71 -347q-3 -15 -8.5 -20.5t-19.5 -5.5h-34q-14 0 -20 5.5t-9 21.5l-87 472q-6 27 -6 40q0 7 4 10.5t15 3.5h37q10 0 15.5 -5.5
t6.5 -19.5l51 -308q12 -71 15 -105h2q3 24 7.5 53t9.5 54l62 309q3 13 8 17.5t16 4.5h34q14 0 19 -3.5t7 -16.5l66 -315q9 -53 15 -100h1q1 9 5 36l9 68l51 308q2 14 7 18.5t16 4.5h38q17 0 17 -14zM246.5 735q4.5 -5 4.5 -21v-54q0 -16 -5 -21t-21 -5h-36q-15 0 -20 5
t-5 21v54q0 17 4 21.5t19 4.5h40q15 0 19.5 -5zM410.5 735q4.5 -5 4.5 -21v-54q0 -16 -5 -21t-20 -5h-36q-16 0 -21 5t-5 21v54q0 16 4.5 21t18.5 5h40q15 0 19.5 -5z" />
    <glyph glyph-name="Germandbls" unicode="&#x1e9e;" horiz-adv-x="610" 
d="M417.5 739q44.5 -6 78.5 -15q19 -4 26 -9.5t7 -13.5q0 -4 -1 -10t-3 -11l-3 -15q-3 -12 -7.5 -17t-11.5 -5q-8 0 -20 3q-22 6 -43 6q-23 0 -44.5 -13t-35 -39t-13.5 -62q0 -28 11 -49.5t33 -40t59 -42.5q123 -76 123 -210q0 -55 -16.5 -102.5t-56.5 -77.5t-105 -30
q-26 0 -55.5 6.5t-54.5 18.5q-57 25 -57 44q0 6 2.5 14.5t6.5 17.5q11 26 22 26q4 0 8 -2t8.5 -5.5t11.5 -7.5q23 -15 48 -25t56 -10q49 0 73 35.5t24 92.5q0 42 -25.5 78.5t-79.5 69.5q-59 36 -89 81t-31 105q0 33 11.5 62.5t28.5 50.5t35 31q-14 1 -46 -1q-66 -3 -100 -52
t-34 -160v-430q0 -17 -4 -21.5t-19 -4.5h-38q-15 0 -19 4.5t-4 21.5v436q0 113 30 175t84 85t135 23q50 0 94.5 -6z" />
    <glyph glyph-name="Ygrave" unicode="&#x1ef2;" horiz-adv-x="451" 
d="M430 728q5 -3 5 -9t-4.5 -18t-6.5 -17l-149 -390q-1 -2 -3.5 -9t-3.5 -13.5t-1 -13.5v-232q0 -17 -4 -21.5t-18 -4.5h-38q-16 0 -20 4.5t-4 21.5v231q0 11 -2 18.5t-7 18.5l-147 390q-5 11 -8 20t-3 15q0 12 17 12h48q10 0 15.5 -4t9.5 -15l94 -268q12 -33 26 -88h2
q9 39 24 88l93 268q3 10 8.5 14.5t15.5 4.5h48q8 0 13 -3zM189.5 957q5.5 -5 12.5 -20l47 -109q8 -18 8 -26q0 -11 -15 -11h-14q-10 0 -15.5 4t-12.5 13l-77 107q-8 11 -12.5 19.5t-4.5 14.5q0 7 5 10t16 3h45q12 0 17.5 -5z" />
    <glyph glyph-name="ygrave" unicode="&#x1ef3;" horiz-adv-x="394" 
d="M383 540q0 -6 -3.5 -19.5t-4.5 -16.5l-138 -531q-17 -64 -35.5 -102t-44 -56t-62.5 -18q-16 0 -32 3.5t-30 9.5q-8 4 -12 8.5t-4 11.5q0 12 7 31q4 12 8 17t10 5q4 0 20 -6t29 -6q17 0 28.5 11.5t20.5 36t20 69.5q2 12 2 16q0 8 -3 21l-138 470q-10 36 -10 45q0 13 17 13
h40q9 0 13.5 -2t7.5 -7.5t7 -17.5l95 -355q8 -31 12 -61h2q2 16 6.5 35.5t5.5 25.5l84 359q4 14 9 18.5t16 4.5h40q17 0 17 -13zM161.5 803q5.5 -5 13.5 -21l62 -129q4 -8 6.5 -14.5t2.5 -11.5q0 -6 -5 -9.5t-15 -3.5h-10q-11 0 -18.5 5t-14.5 14l-86 127q-3 4 -7.5 10.5
t-7.5 13t-3 10.5q0 7 5 10.5t16 3.5h43q13 0 18.5 -5z" />
    <glyph glyph-name="endash" unicode="&#x2013;" horiz-adv-x="375" 
d="M355.5 334q4.5 -2 6 -7t1.5 -17v-19q0 -12 -1.5 -17t-6 -7t-15.5 -2h-305q-15 0 -19 4.5t-4 21.5v19q0 12 1.5 17t6 7t15.5 2h305q11 0 15.5 -2z" />
    <glyph glyph-name="emdash" unicode="&#x2014;" horiz-adv-x="750" 
d="M730.5 334q4.5 -2 6 -7t1.5 -17v-19q0 -12 -1.5 -17t-6 -7t-15.5 -2h-680q-15 0 -19 4.5t-4 21.5v19q0 12 1.5 17t6 7t15.5 2h680q11 0 15.5 -2z" />
    <glyph glyph-name="quoteleft" unicode="&#x2018;" horiz-adv-x="198" 
d="M58 490q-5 2 -7 7.5t-2 18.5v54q0 18 3.5 35t13.5 41l32 76q6 13 11 18t10 5q9 0 17 -5q11 -5 11 -15q0 -6 -2.5 -14.5t-3.5 -12.5l-26 -93h14q11 0 15.5 -5t4.5 -22v-63q0 -12 -2 -17.5t-7 -7.5t-17 -2h-48q-12 0 -17 2z" />
    <glyph glyph-name="quoteright" unicode="&#x2019;" horiz-adv-x="199" 
d="M140 743q5 -2 7 -7.5t2 -18.5v-54q0 -18 -3.5 -35t-13.5 -41l-32 -76q-6 -13 -11 -18t-10 -5q-9 0 -17 5q-11 6 -11 15q0 6 2.5 14.5t3.5 12.5l26 93h-14q-11 0 -15.5 5t-4.5 22v63q0 12 2 17.5t7 7.5t17 2h48q12 0 17 -2z" />
    <glyph glyph-name="quotesinglbase" unicode="&#x201a;" horiz-adv-x="199" 
d="M140 115q5 -2 7 -7.5t2 -18.5v-54q0 -18 -3.5 -35t-13.5 -41l-32 -76q-6 -13 -11 -18t-10 -5q-9 0 -17 5q-11 6 -11 15q0 6 2.5 14.5t3.5 12.5l26 93h-14q-11 0 -15.5 5t-4.5 22v63q0 12 2 17.5t7 7.5t17 2h48q12 0 17 -2z" />
    <glyph glyph-name="quotedblleft" unicode="&#x201c;" horiz-adv-x="347" 
d="M57.5 490q-5.5 2 -7 7.5t-1.5 18.5v54q0 17 3.5 33.5t13.5 42.5l32 76q5 14 10.5 18.5t10.5 4.5q8 0 17 -5q4 -2 7.5 -6t3.5 -9q0 -7 -2 -13t-3 -8l-28 -99h15q11 0 15 -5t4 -22v-63q0 -12 -1.5 -17.5t-6.5 -7.5t-17 -2h-48q-12 0 -17.5 2zM207 490q-5 2 -7 7.5t-2 18.5
v54q0 18 3.5 35t13.5 41l32 76q6 13 11 18t10 5q10 0 17 -5q11 -5 11 -15q0 -5 -2 -12.5t-3 -12.5l-27 -95h14q11 0 15.5 -5t4.5 -22v-63q0 -12 -2 -17.5t-7 -7.5t-17 -2h-48q-12 0 -17 2z" />
    <glyph glyph-name="quotedblright" unicode="&#x201d;" horiz-adv-x="347" 
d="M140 743q5 -2 7 -7.5t2 -18.5v-54q0 -18 -3.5 -35t-13.5 -41l-32 -76q-6 -13 -11 -18t-10 -5q-9 0 -17 5q-11 6 -11 15q0 5 2 12.5t3 12.5l27 95h-14q-11 0 -15.5 5t-4.5 22v63q0 12 2 17.5t7 7.5t17 2h48q12 0 17 -2zM289.5 743q5.5 -2 7 -7.5t1.5 -18.5v-54
q0 -17 -3.5 -33.5t-13.5 -42.5l-32 -76q-5 -14 -10.5 -18.5t-10.5 -4.5q-8 0 -17 5q-4 2 -7.5 6t-3.5 9q0 7 2 13t3 8l28 99h-15q-11 0 -15 5t-4 22v63q0 12 1.5 17.5t6.5 7.5t17 2h48q12 0 17.5 -2z" />
    <glyph glyph-name="quotedblbase" unicode="&#x201e;" horiz-adv-x="347" 
d="M140 115q5 -2 7 -7.5t2 -18.5v-54q0 -18 -3.5 -35t-13.5 -41l-32 -76q-6 -13 -11 -18t-10 -5q-9 0 -17 5q-11 6 -11 15q0 5 2 12.5t3 12.5l27 95h-14q-11 0 -15.5 5t-4.5 22v63q0 12 2 17.5t7 7.5t17 2h48q12 0 17 -2zM289.5 115q5.5 -2 7 -7.5t1.5 -18.5v-54
q0 -17 -3.5 -33.5t-13.5 -42.5l-32 -76q-5 -14 -10.5 -18.5t-10.5 -4.5q-8 0 -17 5q-4 2 -7.5 6t-3.5 9q0 7 2 13t3 8l28 99h-15q-11 0 -15 5t-4 22v63q0 12 1.5 17.5t6.5 7.5t17 2h48q12 0 17.5 -2z" />
    <glyph glyph-name="dagger" unicode="&#x2020;" horiz-adv-x="401" 
d="M232 727q5 -4 5 -15q0 -9 -1.5 -19t-2.5 -19l-14 -154l101 15q19 3 26 3q10 0 14 -7t4 -21v-23q0 -15 -3.5 -21t-13.5 -6q-12 0 -27 2l-102 15q5 -22 12 -63q8 -46 8 -66q0 -19 -3 -51l-2 -30q-4 -79 -9 -197.5t-5 -145.5q0 -24 -2.5 -35.5t-6 -15t-9.5 -3.5
q-8 0 -11.5 3.5t-5.5 15t-3 35.5q0 29 -4.5 147.5t-8.5 195.5l-2 29q-3 32 -3 53q0 25 8 64q3 22 12 64l-106 -15q-8 -1 -13.5 -2t-9.5 -1q-11 0 -14 6t-3 22v23q0 16 3.5 22t14.5 6q10 0 22 -3l105 -15l-16 154q-4 32 -4 37q0 12 6 16t20 4h26q13 0 18 -4z" />
    <glyph glyph-name="daggerdbl" unicode="&#x2021;" horiz-adv-x="401" 
d="M232 727q5 -4 5 -15q0 -6 -4 -42l-14 -150l100 15q20 3 26 3q10 0 14.5 -7t4.5 -21v-23q0 -15 -3.5 -21.5t-13.5 -6.5q-6 0 -12.5 1t-12.5 2l-103 15q6 -37 11.5 -92.5t5.5 -84.5t-6 -81.5t-7 -65.5q-2 -9 -4 -30l103 15q6 1 12.5 2.5t12.5 1.5q10 0 13.5 -6.5t3.5 -21.5
v-23q0 -15 -4 -22t-14 -7q-8 0 -15 1.5t-12 2.5l-100 15l15 -151q3 -30 3 -41t-5 -15t-18 -4h-26q-14 0 -20 4t-6 16l2 20q0 4 2 20l16 151l-105 -16q-18 -3 -23 -3q-10 0 -13.5 7t-3.5 22v23q0 15 3 21.5t13 6.5q5 0 26 -3l104 -16q-6 38 -12 93t-6 84t5.5 83.5t11.5 93.5
l-105 -15q-16 -3 -24 -3q-10 0 -13 6.5t-3 21.5v23q0 15 3.5 21.5t13.5 6.5t23 -3l105 -15l-16 151q-4 32 -4 40q0 12 6 16t20 4h26q13 0 18 -4z" />
    <glyph glyph-name="bullet" unicode="&#x2022;" horiz-adv-x="377" 
d="M249.5 441q28.5 -17 45.5 -45.5t17 -61.5t-17 -61.5t-45.5 -45t-61.5 -16.5t-61.5 16.5t-45 45t-16.5 61.5t16.5 61.5t45 45.5t61.5 17t61.5 -17z" />
    <glyph glyph-name="ellipsis" unicode="&#x2026;" horiz-adv-x="771" 
d="M163.5 115.5q4.5 -1.5 6.5 -7t2 -16.5v-67q0 -16 -5 -20.5t-20 -4.5h-51q-16 0 -20.5 4.5t-4.5 20.5v67q0 16 4 20.5t20 4.5h53q11 0 15.5 -1.5zM427.5 115.5q4.5 -1.5 6.5 -7t2 -16.5v-67q0 -16 -5 -20.5t-21 -4.5h-50q-15 0 -19.5 4.5t-4.5 20.5v67q0 11 1.5 16t6 7
t14.5 2h54q11 0 15.5 -1.5zM691.5 115.5q4.5 -1.5 6 -6.5t1.5 -17v-67q0 -16 -4.5 -20.5t-19.5 -4.5h-50q-16 0 -21 4.5t-5 20.5v67q0 16 4 20.5t20 4.5h53q11 0 15.5 -1.5z" />
    <glyph glyph-name="perthousand" unicode="&#x2030;" horiz-adv-x="937" 
d="M257.5 704q31.5 -41 31.5 -122v-27q0 -82 -33 -123.5t-87 -41.5h-12q-55 0 -87.5 40.5t-32.5 121.5v29q0 83 33 123.5t88 40.5h14q54 0 85.5 -41zM543 742.5q5 -2.5 5 -9.5q0 -3 -3 -10t-6 -12.5t-5 -8.5l-361 -692q-8 -15 -14.5 -19.5t-20.5 -4.5h-22q-11 0 -16.5 2.5
t-5.5 8.5q0 4 3 10t6 11.5t5 9.5l361 693q8 15 14.5 19.5t19.5 4.5h24q11 0 16 -2.5zM118 658q-14 -27 -14 -82v-16q0 -55 13.5 -82t43.5 -27h4q31 0 44 27.5t13 81.5v16q0 55 -14 82t-45 27t-45 -27zM574.5 300q31.5 -41 31.5 -122v-26q0 -82 -32.5 -124t-86.5 -42h-13
q-55 0 -87 41t-32 121v28q0 84 33 124.5t88 40.5h14q53 0 84.5 -41zM868.5 300q31.5 -41 31.5 -122v-26q0 -82 -32.5 -124t-87.5 -42h-12q-55 0 -87 41t-32 121v28q0 84 33 124.5t88 40.5h14q53 0 84.5 -41zM435.5 254q-13.5 -27 -13.5 -83v-16q0 -54 13.5 -81t42.5 -27h5
q30 0 43 27.5t13 81.5v15q0 56 -14 83t-45 27t-44.5 -27zM729.5 254q-13.5 -27 -13.5 -83v-16q0 -55 13 -81.5t43 -26.5h5q30 0 43 27.5t13 81.5v15q0 56 -14 83t-45 27t-44.5 -27z" />
    <glyph glyph-name="guilsinglleft" unicode="&#x2039;" horiz-adv-x="264" 
d="M228 497q0 -6 -6 -18l-106 -205l106 -205q6 -12 6 -18t-5 -9.5t-13 -3.5h-37q-19 0 -26 3.5t-15 18.5l-83 169q-3 6 -6.5 13.5t-5 12.5t-1.5 13v13q0 9 2 15.5t5.5 12t5.5 10.5l83 169q6 11 10.5 15.5t10.5 5.5t20 1h37q18 0 18 -13z" />
    <glyph glyph-name="guilsinglright" unicode="&#x203a;" horiz-adv-x="264" 
d="M36 51q0 6 6 18l106 205l-106 205q-6 12 -6 18t5 9.5t13 3.5h37q19 0 26 -3.5t15 -18.5l83 -169q3 -6 6.5 -13.5t5 -12.5t1.5 -13v-13q0 -9 -2 -15.5t-5.5 -12t-5.5 -10.5l-83 -169q-6 -11 -10.5 -15.5t-10.5 -5.5t-20 -1h-37q-18 0 -18 13z" />
    <glyph glyph-name="fraction" unicode="&#x2044;" horiz-adv-x="159" 
d="M298.5 743q4.5 -2 4.5 -9q0 -3 -3 -10t-6 -12.5t-5 -8.5l-362 -693q-7 -15 -13.5 -19.5t-20.5 -4.5h-22q-10 0 -14.5 2.5t-4.5 8.5q0 4 2.5 10t5.5 12t5 11l362 691q8 15 13.5 19.5t18.5 4.5h24q11 0 15.5 -2z" />
    <glyph glyph-name="zero.superior" unicode="&#x2070;" 
d="M260.5 851.5q31.5 -50.5 31.5 -139.5v-79q0 -88 -31.5 -138.5t-97.5 -50.5h-11q-67 0 -99 50.5t-32 138.5v80q0 88 32 138.5t99 50.5h11q66 0 97.5 -50.5zM153 842q-34 0 -48 -32t-14 -96v-82q0 -64 14 -96t50 -32h5q34 0 48.5 32t14.5 96v82q0 64 -14 96t-49 32h-7z" />
    <glyph glyph-name="four.superior" unicode="&#x2074;" 
d="M235.5 889q3.5 -4 3.5 -18v-255h41q8 0 11.5 -3t3.5 -14v-23q0 -11 -4 -14t-11 -3h-41v-86q0 -11 -4.5 -15.5t-14.5 -4.5h-21q-12 0 -16.5 4t-4.5 16v86h-132q-10 0 -15 1t-7 6t-2 15v7q0 9 1.5 14t6.5 14l145 259q6 11 11.5 14.5t14.5 3.5h18q13 0 16.5 -4zM181 792
l-97 -176h94q0 38 1.5 94t4.5 82h-3z" />
    <glyph glyph-name="five.superior" unicode="&#x2075;" 
d="M264.5 889q3.5 -4 3.5 -15v-22q0 -11 -3.5 -15t-12.5 -4h-135l-12 -118h2q25 30 71 30q52 0 80.5 -37.5t28.5 -101.5q0 -43 -13.5 -79.5t-44 -59.5t-77.5 -23q-52 0 -93 34q-28 24 -28 38q0 7 3.5 13t11.5 14q11 11 20 11q5 0 12 -5.5t13 -12.5q29 -32 61 -32
q33 0 50 26.5t17 70.5q0 41 -15.5 64t-43.5 23q-36 0 -58 -36q-4 -7 -8 -10t-9 -3q-7 0 -14 2t-13 5q-7 3 -10 6.5t-3 8.5l1 18l16 191q2 14 6 18.5t17 4.5h166q10 0 13.5 -4z" />
    <glyph glyph-name="six.superior" unicode="&#x2076;" 
d="M250 882q14 -6 19 -10.5t5 -11.5q0 -5 -3.5 -12t-4.5 -10q-4 -9 -7.5 -13.5t-9.5 -4.5q-4 0 -10 2.5t-13 5.5q-14 6 -27 10t-30 4q-34 0 -51.5 -26t-17.5 -73q0 -18 -3 -41q12 20 33 32.5t47 12.5q52 0 81.5 -38.5t29.5 -106.5q0 -79 -33.5 -118.5t-92.5 -39.5
q-61 0 -94.5 40t-33.5 134v99q0 83 31.5 134t101.5 51q45 0 83 -20zM117.5 667.5q-17.5 -21.5 -17.5 -64.5q0 -99 62 -99q59 0 59 97q0 43 -15 65.5t-44 22.5q-27 0 -44.5 -21.5z" />
    <glyph glyph-name="seven.superior" unicode="&#x2077;" 
d="M280 888q4 -4 4 -14v-14q0 -37 -13.5 -73t-41.5 -92l-12 -25q-22 -44 -32.5 -88t-10.5 -94v-10q0 -15 -4 -20t-18 -5h-20q-11 0 -16 2t-6.5 7.5t-1.5 17.5q0 112 50 212q27 52 41 83t18 57h-119v-45q0 -12 -4 -16t-15 -4h-20q-12 0 -15.5 4t-3.5 16v84q0 14 4 17.5
t19 3.5h203q10 0 14 -4z" />
    <glyph glyph-name="eight.superior" unicode="&#x2078;" 
d="M244.5 870.5q31.5 -31.5 31.5 -83.5q0 -35 -15.5 -62t-44.5 -41q33 -17 51.5 -44.5t18.5 -70.5q0 -35 -14 -63t-43 -45t-72 -17q-66 0 -98 34.5t-32 89.5q0 41 19 70t50 46q-27 14 -42.5 40.5t-15.5 62.5q0 34 15 60t42 40.5t63 14.5q55 0 86.5 -31.5zM117.5 828.5
q-14.5 -16.5 -14.5 -42.5q0 -24 13 -42t45 -32q24 10 37.5 28.5t13.5 43.5q0 29 -14.5 45t-39.5 16q-26 0 -40.5 -16.5zM105 620q-16 -21 -15 -50q0 -31 17 -49.5t50 -18.5q31 0 48.5 19t17.5 49q0 31 -18 51t-53 36q-31 -16 -47 -37z" />
    <glyph glyph-name="nine.superior" unicode="&#x2079;" 
d="M245.5 862q33.5 -40 33.5 -134v-99q0 -82 -30 -133.5t-102 -51.5q-46 0 -84 20q-13 6 -18 10.5t-5 11.5q0 6 7 22q5 10 8.5 14t8.5 4q8 0 24 -8q16 -7 28 -10.5t29 -3.5q30 0 49 23t19 78q0 14 1 22t1 15q-11 -18 -32 -30.5t-46 -12.5q-52 0 -82 38.5t-30 106.5
q0 78 34.5 118t92.5 40q60 0 93.5 -40zM108 817.5q-15 -24.5 -15 -72.5q0 -43 15 -65.5t44 -22.5q27 0 44 21.5t17 64.5q0 51 -15.5 75t-45.5 24q-29 0 -44 -24.5z" />
    <glyph glyph-name="uni207A" unicode="&#x207a;" horiz-adv-x="325" 
d="M131.5 522q-3.5 4 -3.5 18v108h-78q-12 0 -15.5 4.5t-3.5 18.5v24q0 13 3.5 17t15.5 4h78v109q0 14 3.5 18t16.5 4h29q12 0 16 -4.5t4 -17.5v-109h78q12 0 15.5 -4t3.5 -17v-24q0 -14 -3.5 -18.5t-15.5 -4.5h-78v-108q0 -14 -4 -18t-16 -4h-29q-13 0 -16.5 4z" />
    <glyph glyph-name="uni207B" unicode="&#x207b;" horiz-adv-x="325" 
d="M34.5 652.5q-3.5 4.5 -3.5 18.5v24q0 13 3.5 17t15.5 4h225q12 0 15.5 -4t3.5 -17v-24q0 -14 -3.5 -18.5t-15.5 -4.5h-225q-12 0 -15.5 4.5z" />
    <glyph glyph-name="uni207C" unicode="&#x207c;" horiz-adv-x="325" 
d="M34 726q-3 4 -3 18v23q0 15 3.5 19t15.5 4h224q12 0 16 -4.5t4 -18.5v-23q0 -14 -4 -18t-16 -4h-224q-13 0 -16 4zM34.5 579q-3.5 4 -3.5 18v24q0 14 3.5 18.5t15.5 4.5h224q12 0 16 -4.5t4 -18.5v-24q0 -13 -4 -17.5t-16 -4.5h-224q-12 0 -15.5 4z" />
    <glyph glyph-name="uni207D" unicode="&#x207d;" horiz-adv-x="194" 
d="M166 925l13 -14q6 -6 6 -12q0 -7 -7 -15q-35 -48 -51 -110.5t-16 -133.5q0 -73 17 -137t54 -114q4 -4 4 -10q0 -7 -7 -14l-12 -12q-8 -10 -17 -10q-7 0 -13 7q-52 61 -80.5 132t-28.5 165q0 86 29 156t80 122q7 8 15 8q6 0 14 -8z" />
    <glyph glyph-name="uni207E" unicode="&#x207e;" horiz-adv-x="194" 
d="M58 927q52 -61 80 -132t28 -165q0 -86 -29 -155.5t-79 -122.5q-10 -8 -15 -8q-4 0 -8 2t-7 6l-12 14q-6 6 -6 13q0 6 6 15q35 48 51 110.5t16 133.5q0 73 -17 137t-53 113q-4 5 -4 11q0 7 7 13l11 13q9 9 17 9q7 0 14 -7z" />
    <glyph glyph-name="zero.inferior" unicode="&#x2080;" 
d="M260.5 254.5q31.5 -50.5 31.5 -139.5v-79q0 -88 -31.5 -138.5t-97.5 -50.5h-11q-67 0 -99 50.5t-32 138.5v80q0 88 32 138.5t99 50.5h11q66 0 97.5 -50.5zM153 245q-34 0 -48 -32t-14 -96v-82q0 -64 14 -96t50 -32h5q34 0 48.5 32t14.5 96v82q0 64 -14 96t-49 32h-7z" />
    <glyph glyph-name="one.inferior" unicode="&#x2081;" 
d="M204.5 292q3.5 -4 3.5 -17v-359h62q11 0 14 -3.5t3 -16.5v-20q0 -12 -3.5 -16t-13.5 -4h-194q-9 0 -13 4t-4 16v20q0 12 4 16t13 4h69v297l-47 -44q-4 -4 -8.5 -6.5t-7.5 -2.5q-5 0 -9.5 3.5t-8.5 8.5l-7 9q-6 8 -6 14q0 8 11 18l79 73q6 5 11 7.5t12 2.5h25
q12 0 15.5 -4z" />
    <glyph glyph-name="two.inferior" unicode="&#x2082;" 
d="M229 290q26 -15 40 -42t14 -61q0 -42 -16.5 -71.5t-49.5 -50.5l-50 -33q-33 -22 -45.5 -50t-13.5 -66h157q11 0 14 -3.5t3 -15.5v-20q0 -13 -3 -17t-14 -4h-203q-13 0 -16.5 4t-3.5 18v24q0 120 84 177l50 34q20 13 29.5 31t9.5 42q0 27 -13.5 43t-39.5 16
q-24 0 -38.5 -14t-23.5 -38q-3 -9 -6.5 -13.5t-9.5 -4.5t-13.5 2.5t-14.5 6.5q-7 5 -9.5 9.5t-2.5 11.5q0 12 8 29.5t21 31.5q18 20 41.5 29.5t51.5 9.5q37 0 63 -15z" />
    <glyph glyph-name="three.inferior" unicode="&#x2083;" 
d="M240 275q32 -30 32 -86q0 -39 -18.5 -64t-45.5 -33q31 -6 52 -33.5t21 -76.5q0 -39 -14.5 -69.5t-43 -48t-67.5 -17.5q-52 0 -87 26q-14 9 -25 22t-11 22q0 7 2.5 11.5t10.5 12.5q15 15 22 15q5 0 9.5 -4.5t9.5 -10.5q16 -18 31 -26t36 -8q31 0 45.5 22.5t14.5 57.5
q0 36 -15.5 53t-49.5 17h-30q-11 0 -14 3.5t-3 16.5v21q0 13 3.5 16t14.5 3h23q33 0 47.5 20t14.5 48q0 60 -55 60q-30 0 -56 -24q-6 -5 -11 -8.5t-10 -3.5t-10 4.5t-10 12.5q-9 13 -9 21q0 17 32 36q17 10 35 16t44 6q53 0 85 -30z" />
    <glyph glyph-name="four.inferior" unicode="&#x2084;" 
d="M235.5 292q3.5 -4 3.5 -18v-255h41q8 0 11.5 -3t3.5 -14v-23q0 -11 -4 -14t-11 -3h-41v-86q0 -11 -4.5 -15.5t-14.5 -4.5h-21q-12 0 -16.5 4t-4.5 16v86h-132q-10 0 -15 1t-7 6t-2 15v7q0 9 1.5 14t6.5 14l145 259q6 11 11.5 14.5t14.5 3.5h18q13 0 16.5 -4zM181 195
l-97 -176h94q0 38 1.5 94t4.5 82h-3z" />
    <glyph glyph-name="five.inferior" unicode="&#x2085;" 
d="M264.5 292q3.5 -4 3.5 -15v-22q0 -11 -3.5 -15t-12.5 -4h-135l-12 -118h2q25 30 71 30q52 0 80.5 -37.5t28.5 -101.5q0 -43 -13.5 -79.5t-44 -59.5t-77.5 -23q-52 0 -93 34q-28 24 -28 38q0 7 3.5 13t11.5 14q11 11 20 11q5 0 12 -5.5t13 -12.5q29 -32 61 -32
q33 0 50 26.5t17 70.5q0 41 -15.5 64t-43.5 23q-36 0 -58 -36q-4 -7 -8 -10t-9 -3q-7 0 -14 2t-13 5q-7 3 -10 6.5t-3 8.5l1 18l16 191q2 14 6 18.5t17 4.5h166q10 0 13.5 -4z" />
    <glyph glyph-name="six.inferior" unicode="&#x2086;" 
d="M250 285q14 -6 19 -10.5t5 -11.5q0 -5 -3.5 -12t-4.5 -10q-4 -9 -7.5 -13.5t-9.5 -4.5q-4 0 -10 2.5t-13 5.5q-14 6 -27 10t-30 4q-34 0 -51.5 -26t-17.5 -73q0 -18 -3 -41q12 20 33 32.5t47 12.5q52 0 81.5 -38.5t29.5 -106.5q0 -79 -33.5 -118.5t-92.5 -39.5
q-61 0 -94.5 40t-33.5 134v99q0 83 31.5 134t101.5 51q45 0 83 -20zM117.5 70.5q-17.5 -21.5 -17.5 -64.5q0 -99 62 -99q59 0 59 97q0 43 -15 65.5t-44 22.5q-27 0 -44.5 -21.5z" />
    <glyph glyph-name="seven.inferior" unicode="&#x2087;" 
d="M280 291q4 -4 4 -14v-14q0 -37 -13.5 -73t-41.5 -92l-12 -25q-22 -44 -32.5 -88t-10.5 -94v-10q0 -15 -4 -20t-18 -5h-20q-11 0 -16 2t-6.5 7.5t-1.5 17.5q0 112 50 212q27 52 41 83t18 57h-119v-45q0 -12 -4 -16t-15 -4h-20q-12 0 -15.5 4t-3.5 16v84q0 14 4 17.5
t19 3.5h203q10 0 14 -4z" />
    <glyph glyph-name="eight.inferior" unicode="&#x2088;" 
d="M244.5 273.5q31.5 -31.5 31.5 -83.5q0 -35 -15.5 -62t-44.5 -41q33 -17 51.5 -44.5t18.5 -70.5q0 -35 -14 -63t-43 -45t-72 -17q-66 0 -98 34.5t-32 89.5q0 41 19 70t50 46q-27 14 -42.5 40.5t-15.5 62.5q0 34 15 60t42 40.5t63 14.5q55 0 86.5 -31.5zM117.5 231.5
q-14.5 -16.5 -14.5 -42.5q0 -24 13 -42t45 -32q24 10 37.5 28.5t13.5 43.5q0 29 -14.5 45t-39.5 16q-26 0 -40.5 -16.5zM105 23q-16 -21 -15 -50q0 -31 17 -49.5t50 -18.5q31 0 48.5 19t17.5 49q0 31 -18 51t-53 36q-31 -16 -47 -37z" />
    <glyph glyph-name="nine.inferior" unicode="&#x2089;" 
d="M245.5 265q33.5 -40 33.5 -134v-99q0 -82 -30 -133.5t-102 -51.5q-46 0 -84 20q-13 6 -18 10.5t-5 11.5q0 6 7 22q5 10 8.5 14t8.5 4q8 0 24 -8q16 -7 28 -10.5t29 -3.5q30 0 49 23t19 78q0 14 1 22t1 15q-11 -18 -32 -30.5t-46 -12.5q-52 0 -82 38.5t-30 106.5
q0 78 34.5 118t92.5 40q60 0 93.5 -40zM108 220.5q-15 -24.5 -15 -72.5q0 -43 15 -65.5t44 -22.5q27 0 44 21.5t17 64.5q0 51 -15.5 75t-45.5 24q-29 0 -44 -24.5z" />
    </font>
</defs>
</svg>
