<?xml version="1.0" standalone="no"?>
<!DOCTYPE svg PUBLIC "-//W3C//DTD SVG 1.1//EN" "http://www.w3.org/Graphics/SVG/1.1/DTD/svg11.dtd" >
<svg xmlns="http://www.w3.org/2000/svg" xmlns:xlink="http://www.w3.org/1999/xlink" version="1.1">
<metadata>
Created by FontForge 20201107 at Mon Jun  1 19:16:03 2015
 By Unknown
Copyright (c) 2015 Monotype Imaging Inc.  All rights reserved.
</metadata>
<defs>
<font id="DaytonaPro-Fat" horiz-adv-x="475" >
  <font-face 
    font-family="DaytonaPro-Fat"
    font-weight="400"
    font-stretch="normal"
    units-per-em="1000"
    panose-1="2 11 10 4 3 5 3 4 2 4"
    ascent="785"
    descent="-215"
    x-height="553"
    cap-height="731"
    bbox="-340 -354 1461 1038"
    underline-thickness="50"
    underline-position="-125"
    unicode-range="U+000D-FB04"
  />
<missing-glyph horiz-adv-x="600" 
d="M550 705h-500v-882h500v882zM494 649v-770h-388v770h388z" />
    <glyph glyph-name="ff" unicode="ff" horiz-adv-x="742" 
d="M131.5 706q49.5 44 136.5 44q42 0 70.5 -6t53.5 -18q10 -5 13.5 -13t3.5 -21q0 -9 -3.5 -28.5t-9.5 -36.5q-7 -26 -25 -26q-9 0 -19 2.5t-15 3.5q-13 4 -31 4q-15 0 -27.5 -10.5t-12.5 -39.5v-30h170v46q0 84 48.5 128.5t138.5 44.5q43 0 68.5 -4t62.5 -14
q24 -6 30.5 -14.5t6.5 -20.5q0 -9 -14 -61q-6 -21 -13 -28.5t-18 -7.5q-10 0 -22.5 3t-18.5 4q-17 4 -37 4q-18 0 -33 -10.5t-15 -39.5v-30h93q20 0 29.5 -3.5t13.5 -13t4 -29.5v-49q0 -20 -4 -29.5t-13.5 -13t-29.5 -3.5h-93v-343q0 -20 -3.5 -29.5t-13 -13.5t-29.5 -4h-91
q-21 0 -30.5 4t-13 13.5t-3.5 29.5v343h-170v-343q0 -20 -3.5 -29.5t-13 -13.5t-29.5 -4h-91q-21 0 -30.5 4t-13 13.5t-3.5 29.5v343h-57q-16 0 -22 9.5t-6 31.5v10q0 20 1.5 30t8.5 16.5t23 10.5q22 6 33 14t15 20.5t4 34.5v13q0 82 49.5 126z" />
    <glyph glyph-name="ffi" unicode="ffi" horiz-adv-x="1040" 
d="M131 705.5q49 44.5 137 44.5q42 0 70.5 -6t53.5 -18q10 -5 13.5 -13t3.5 -21q0 -9 -3.5 -28.5t-9.5 -36.5q-7 -26 -25 -26q-9 0 -19 2.5t-15 3.5q-13 4 -31 4q-15 0 -27.5 -10.5t-12.5 -39.5v-30h170v46q0 81 47 127t139 46q42 0 70.5 -6t53.5 -18q10 -5 13.5 -13
t3.5 -21q0 -9 -3.5 -28.5t-9.5 -36.5q-7 -26 -25 -26q-9 0 -19 2.5t-15 3.5q-13 4 -31 4q-15 0 -27.5 -10.5t-12.5 -39.5v-30h68q20 0 29.5 -3.5t13.5 -13t4 -29.5v-49q0 -20 -4 -29.5t-13.5 -13t-29.5 -3.5h-68v-343q0 -20 -3.5 -29.5t-13 -13.5t-29.5 -4h-91
q-21 0 -30.5 4t-13 13.5t-3.5 29.5v343h-170v-343q0 -20 -3.5 -29.5t-13 -13.5t-29.5 -4h-91q-21 0 -30.5 4t-13 13.5t-3.5 29.5v343h-57q-16 0 -22 9.5t-6 31.5v10q0 20 1.5 30t8.5 16.5t23 10.5q22 6 33 14t15 20.5t4 34.5v13q0 81 49 125.5zM806.5 609q-9.5 3 -13 12
t-3.5 28v54q0 21 3.5 30.5t13 13t29.5 3.5h92q21 0 30 -3.5t12.5 -13t3.5 -30.5v-54q0 -19 -3.5 -28t-13 -12t-30.5 -3h-90q-21 0 -30.5 3zM806.5 4q-9.5 4 -13 13.5t-3.5 29.5v459q0 20 3.5 29.5t13 13.5t29.5 4h92q21 0 31 -4.5t12.5 -13.5t2.5 -29v-459q0 -20 -3.5 -30
t-13 -13.5t-29.5 -3.5h-92q-20 0 -29.5 4z" />
    <glyph glyph-name="ffl" unicode="ffl" horiz-adv-x="1078" 
d="M104.5 672q22.5 38 64.5 58t99 20q42 0 70.5 -6t53.5 -18q10 -5 13.5 -13t3.5 -21q0 -9 -3.5 -28.5t-9.5 -36.5q-7 -26 -25 -26q-9 0 -19 2.5t-15 3.5q-13 4 -31 4q-15 0 -27.5 -10.5t-12.5 -39.5v-30h170v46q0 83 49 128t137 45q42 0 70.5 -6t53.5 -18q10 -5 13.5 -13
t3.5 -21q0 -9 -3.5 -28.5t-9.5 -36.5q-7 -26 -25 -26q-9 0 -19 2.5t-15 3.5q-13 4 -31 4q-15 0 -27.5 -10.5t-12.5 -39.5v-30h68q20 0 29.5 -3.5t13.5 -13t4 -29.5v-49q0 -20 -4 -29.5t-13.5 -13t-29.5 -3.5h-68v-343q0 -20 -3.5 -29.5t-13 -13.5t-29.5 -4h-91
q-21 0 -30.5 4t-13 13.5t-3.5 29.5v343h-170v-343q0 -20 -3.5 -29.5t-13 -13.5t-29.5 -4h-91q-21 0 -30.5 4t-13 13.5t-3.5 29.5v343h-57q-16 0 -22 9.5t-6 31.5v10q0 20 1.5 30t8.5 16.5t23 10.5q22 6 33 14t15 20.5t4 34.5v13q0 54 22.5 92zM980.5 148.5
q6.5 -13.5 23.5 -13.5q6 0 12.5 1.5t13.5 1.5q14 0 20.5 -8t15.5 -32q8 -23 11.5 -35.5t3.5 -22.5q0 -17 -20 -27q-16 -8 -43 -14t-66 -6q-81 0 -121.5 39.5t-40.5 129.5v528q0 20 4 30t13 13.5t28 3.5h93q21 0 30.5 -3.5t12.5 -13.5t3 -31v-499q0 -28 6.5 -41.5z" />
    <glyph glyph-name="f_i" unicode="fi" horiz-adv-x="686" 
d="M131.5 706q49.5 44 136.5 44q42 0 70.5 -6t53.5 -18q10 -5 13.5 -13t3.5 -21q0 -9 -3.5 -28.5t-9.5 -36.5q-7 -26 -25 -26q-9 0 -19 2.5t-15 3.5q-13 4 -31 4q-15 0 -27.5 -10.5t-12.5 -39.5v-30h68q20 0 29.5 -3.5t13.5 -13t4 -29.5v-49q0 -20 -4 -29.5t-13.5 -13
t-29.5 -3.5h-68v-343q0 -20 -3.5 -29.5t-13 -13.5t-29.5 -4h-91q-21 0 -30.5 4t-13 13.5t-3.5 29.5v343h-57q-16 0 -22 9.5t-6 31.5v10q0 20 1.5 30t8.5 16.5t23 10.5q22 6 33 14t15 20.5t4 34.5v13q0 82 49.5 126zM452.5 609q-9.5 3 -13 12t-3.5 28v54q0 21 3.5 30.5t13 13
t29.5 3.5h92q21 0 30 -3.5t12.5 -13t3.5 -30.5v-54q0 -19 -3.5 -28t-13 -12t-30.5 -3h-90q-21 0 -30.5 3zM452.5 4q-9.5 4 -13 13.5t-3.5 29.5v459q0 20 3.5 29.5t13 13.5t29.5 4h92q21 0 31 -4.5t12.5 -13.5t2.5 -29v-459q0 -20 -3.5 -30t-13 -13.5t-29.5 -3.5h-92
q-20 0 -29.5 4z" />
    <glyph glyph-name="f_l" unicode="fl" horiz-adv-x="724" 
d="M131.5 706q49.5 44 136.5 44q42 0 70.5 -6t53.5 -18q10 -5 13.5 -14t3.5 -23q0 -9 -3.5 -27t-9.5 -35q-7 -26 -25 -26q-9 0 -19 2.5t-15 3.5q-13 4 -31 4q-15 0 -27.5 -10.5t-12.5 -39.5v-30h68q20 0 29.5 -3.5t13.5 -13t4 -29.5v-49q0 -20 -4 -29.5t-13.5 -13
t-29.5 -3.5h-68v-343q0 -20 -3.5 -29.5t-13 -13.5t-29.5 -4h-91q-21 0 -30.5 4t-13 13.5t-3.5 29.5v343h-57q-16 0 -22 9.5t-6 31.5v10q0 20 1.5 30t8.5 16.5t23 10.5q22 6 33 14t15 20.5t4 34.5v13q0 82 49.5 126zM626.5 148.5q6.5 -13.5 23.5 -13.5q6 0 12.5 1.5t13.5 1.5
q14 0 20.5 -8t15.5 -32q8 -23 11.5 -35.5t3.5 -22.5q0 -17 -20 -27q-16 -8 -43 -14t-66 -6q-81 0 -121.5 39.5t-40.5 129.5v528q0 20 4 30t13 13.5t28 3.5h93q21 0 30.5 -3.5t12.5 -13.5t3 -31v-499q0 -28 6.5 -41.5z" />
    <glyph glyph-name=".notdef" horiz-adv-x="600" 
d="M550 705h-500v-882h500v882zM494 649v-770h-388v770h388z" />
    <glyph glyph-name=".null" horiz-adv-x="0" 
 />
    <glyph glyph-name="nonmarkingreturn" horiz-adv-x="333" 
 />
    <glyph glyph-name="NULL" horiz-adv-x="0" 
 />
    <glyph glyph-name="CR" unicode="&#xd;" horiz-adv-x="253" 
 />
    <glyph glyph-name="space" unicode=" " horiz-adv-x="253" 
 />
    <glyph glyph-name="exclam" unicode="!" horiz-adv-x="389" 
d="M138.5 239.5q-11.5 4.5 -15.5 15.5t-6 35l-24 393q-2 23 2 34t15.5 15.5t35.5 4.5h93q25 0 36.5 -4t15.5 -15t2 -35l-23 -393q-2 -24 -7.5 -35.5t-17.5 -15.5t-36 -4h-32q-27 0 -38.5 4.5zM110 3q-10 3 -14 11.5t-3 25.5v89q0 17 3 25t12.5 11.5t28.5 3.5h114
q21 0 29.5 -2.5t11.5 -10.5t4 -27v-89q1 -17 -3 -25.5t-14 -11.5t-30 -3h-109q-20 0 -30 3z" />
    <glyph glyph-name="quotedbl" unicode="&#x22;" horiz-adv-x="597" 
d="M76 595v103q0 20 3.5 29.5t13 13.5t29.5 4h82q21 0 30 -3.5t12.5 -13t3.5 -30.5v-103q0 -27 -6 -57l-34 -168q-3 -18 -14 -25t-33 -7h-4q-23 0 -34 8t-14 24l-29 168q-6 30 -6 57zM347 595v103q0 20 3.5 29.5t13 13.5t29.5 4h82q21 0 30 -3.5t12.5 -13t3.5 -30.5v-103
q0 -27 -6 -57l-34 -168q-3 -18 -14 -25t-33 -7h-4q-23 0 -34 8t-14 24l-29 168q-6 30 -6 57z" />
    <glyph glyph-name="numbersign" unicode="#" horiz-adv-x="670" 
d="M215 35q-4 -21 -11.5 -28t-23.5 -7h-81q-13 0 -19.5 5.5t-6.5 19.5q0 3 2 17l30 135h-79q-15 0 -21 8.5t-4 22.5l10 67q4 24 34 24h84l20 92h-86q-13 0 -18 7t-3 21l11 73q2 9 8.5 15t18.5 6h93l34 155q2 10 10 16.5t24 6.5h79q15 0 22.5 -7t4.5 -20l-33 -151h110l35 155
q3 11 10.5 17t22.5 6h79q16 0 23 -7t4 -20l-32 -151h77q12 0 19 -7t5 -20l-12 -72q-2 -10 -9 -16.5t-19 -6.5h-86l-19 -92h77q15 0 22.5 -6t5.5 -21l-12 -71q-5 -24 -33 -24h-85l-31 -145q-4 -19 -12.5 -25.5t-22.5 -6.5h-80q-14 0 -20.5 5.5t-6.5 16.5q0 8 1 13l31 142
h-112zM402 391h-113l-20 -92h114z" />
    <glyph glyph-name="dollar" unicode="$" horiz-adv-x="718" 
d="M608 79.5q-59 -60.5 -197 -68.5v-69q0 -17 -6 -23.5t-21 -6.5h-33q-14 0 -21 7t-7 22v70q-48 0 -101 8.5t-96 24.5q-32 12 -52.5 27.5t-20.5 32.5q0 10 5 23t10 22.5t7 14.5q13 26 25.5 38.5t25.5 12.5q9 0 25 -6.5t31 -13.5q34 -15 70.5 -24.5t70.5 -9.5v142
q-96 14 -152 38t-82.5 66.5t-26.5 114.5q0 57 21.5 96.5t63.5 69.5q36 26 79 37t97 15v58q0 27 29 27h30q17 0 23 -6.5t6 -22.5v-60q37 -3 66.5 -6.5t58.5 -11.5q44 -12 62 -27t18 -29q0 -19 -19 -62q-11 -25 -21.5 -37t-24.5 -12q-10 0 -22 3.5t-30 10.5q-18 6 -41.5 11.5
t-46.5 6.5v-125q134 -13 195 -72.5t61 -149.5q0 -96 -59 -156.5zM240 528q0 -25 19 -41t64 -22v120q-21 0 -35.5 -3t-27.5 -11q-20 -13 -20 -43zM472 267.5q-17 19.5 -61 26.5v-132q41 3 59.5 19.5t18.5 39.5q0 27 -17 46.5z" />
    <glyph glyph-name="percent" unicode="%" horiz-adv-x="1021" 
d="M425 450q-25 -44 -70 -70t-101 -26h-30q-56 0 -100 21t-69 61.5t-25 97.5v24q0 60 26.5 102.5t71.5 63.5t100 21h33q58 0 100.5 -23t65.5 -65t23 -96v-16q0 -51 -25 -95zM820 742q7 -3 7 -11q0 -9 -7 -23.5t-24 -38.5l-449 -648q-15 -22 -27 -28.5t-37 -6.5h-66
q-15 0 -22 3t-7 11q0 10 7 24t24 38l449 648q11 15 19 22.5t18 10t27 2.5h66q15 0 22 -3zM192.5 477.5q15.5 -20.5 45.5 -20.5h6q32 0 45.5 23.5t13.5 62.5v12q0 45 -16 66.5t-49 21.5q-28 0 -44.5 -21.5t-16.5 -66.5v-12q0 -45 15.5 -65.5zM966 82q-25 -44 -70 -70
t-101 -26h-30q-56 0 -100 21t-69 61.5t-25 97.5v24q0 60 26.5 102.5t71.5 63.5t100 21h33q58 0 100.5 -23t65.5 -65t23 -96v-16q0 -51 -25 -95zM733.5 109.5q15.5 -20.5 45.5 -20.5h6q32 0 45.5 23.5t13.5 62.5v12q0 45 -16 66.5t-49 21.5q-28 0 -44.5 -21.5t-16.5 -66.5
v-12q0 -45 15.5 -65.5z" />
    <glyph glyph-name="ampersand" unicode="&#x26;" horiz-adv-x="885" 
d="M754 261q-22 -49 -51 -83q25 -11 48 -15t47 -4h4q18 0 27 -3.5t12.5 -13.5t3.5 -30v-65q0 -21 -3.5 -30.5t-13 -13t-29.5 -3.5h-23q-69 0 -120 16t-94 49q-62 -42 -126 -58.5t-130 -16.5q-88 0 -151 31t-95 83.5t-32 116.5q0 47 16.5 87t49 67t79.5 37q5 1 12 2.5t11 1.5
q-40 30 -63 65t-23 84q0 83 57.5 131.5t173.5 48.5q109 0 177 -31q23 -10 30.5 -19t7.5 -19q0 -9 -4.5 -24t-12.5 -34q-14 -36 -25 -50t-25 -14q-11 0 -23 3t-27 9q-19 7 -39.5 12t-37.5 5q-31 0 -45.5 -15.5t-14.5 -37.5q0 -46 71 -76q120 -50 203 -165q10 11 20 31.5
t14 43.5h-33q-20 0 -29.5 4t-13 13.5t-3.5 28.5v62q0 19 3.5 28.5t13 13.5t29.5 4h245q19 0 28 -4.5t12 -14t3 -27.5v-61q0 -19 -3.5 -29t-12.5 -14t-27 -4h-33q-13 -54 -35 -103zM395.5 155q33.5 11 57.5 31q-16 30 -43.5 58.5t-60.5 46.5t-65 18q-38 0 -55 -21t-17 -53
q0 -43 31 -67t85 -24q34 0 67.5 11z" />
    <glyph glyph-name="quotesingle" unicode="'" horiz-adv-x="326" 
d="M76 595v103q0 20 3.5 29.5t13 13.5t29.5 4h82q21 0 30 -3.5t12.5 -13t3.5 -30.5v-103q0 -27 -6 -57l-34 -168q-3 -18 -14 -25t-33 -7h-4q-23 0 -34 8t-14 24l-29 168q-6 30 -6 57z" />
    <glyph glyph-name="parenleft" unicode="(" horiz-adv-x="429" 
d="M347 798q15 0 26 -12l32 -34q12 -12 12 -25t-13 -31q-73 -84 -105.5 -186t-32.5 -202q0 -110 34.5 -216.5t111.5 -191.5q7 -7 7 -17q0 -14 -14 -28l-32 -33q-15 -15 -28 -15t-28 12q-120 95 -185.5 218.5t-65.5 293.5q0 272 251 455q15 12 30 12z" />
    <glyph glyph-name="parenright" unicode=")" horiz-adv-x="429" 
d="M81 -191q-15 0 -26 12l-32 34q-12 12 -12 24q0 13 13 29q73 89 106 195t33 210q0 106 -34.5 208.5t-112.5 184.5q-7 7 -7 17q0 14 14 28l32 33q15 15 28 15t28 -12q120 -92 186 -209t66 -272q0 -158 -65.5 -276.5t-186.5 -208.5q-15 -12 -30 -12z" />
    <glyph glyph-name="asterisk" unicode="*" horiz-adv-x="470" 
d="M397 414q0 -9 -5 -19t-14 -15l-49 -30q-11 -7 -25 -7t-25.5 7.5t-13.5 19.5l-24 118h-12l-21 -117q-2 -12 -12.5 -20t-24.5 -8t-31 9l-47 27q-9 5 -13.5 13.5t-4.5 18.5q0 8 3.5 14.5t9.5 10.5l111 66l-6 11l-118 -41q-14 -4 -19 -4q-16 0 -25 11t-9 31v59q0 20 9.5 30.5
t24.5 10.5q10 0 19 -4l110 -44l6 11l-99 74q-16 13 -16 28q0 9 5 17.5t14 13.5l50 30q16 10 31 10q13 0 22 -8.5t11 -23.5l20 -119h12l24 118q3 15 10.5 23.5t19.5 8.5q13 0 29 -9l58 -31q9 -4 14 -12t5 -16q0 -14 -13 -24l-110 -81l7 -9l108 44q9 4 19 4q16 0 26 -12
t10 -30v-59q0 -18 -9.5 -30t-26.5 -12q-10 0 -19 4l-112 42l-7 -8l113 -71q10 -6 10 -21z" />
    <glyph glyph-name="plus" unicode="+" horiz-adv-x="745" 
d="M451 130q0 -20 -4 -29.5t-13.5 -13t-29.5 -3.5h-65q-21 0 -30.5 3.5t-13 13t-3.5 29.5v178h-177q-20 0 -29.5 4t-13 13.5t-3.5 29.5v51q0 21 3.5 30.5t13 13t29.5 3.5h177v178q0 20 3.5 29.5t13.5 13t30 3.5h65q20 0 29.5 -3.5t13.5 -13t4 -29.5v-178h178q20 0 29.5 -3.5
t13 -13.5t3.5 -30v-51q0 -20 -3.5 -29.5t-13 -13.5t-29.5 -4h-178v-178z" />
    <glyph glyph-name="comma" unicode="," horiz-adv-x="357" 
d="M77 29v92q0 22 4.5 31.5t16 13t36.5 3.5h97q28 0 38.5 -7.5t10.5 -26.5v-78q0 -35 -11 -66.5t-40 -76.5l-45 -71q-14 -22 -23.5 -29.5t-18.5 -7.5q-19 0 -40 14q-2 1 -9 5.5t-10.5 11t-3.5 14.5q0 20 12 44l52 105h-33q-33 0 -33 29z" />
    <glyph glyph-name="hyphen" unicode="-" horiz-adv-x="372" 
d="M73.5 217.5q-9.5 3.5 -13 13t-3.5 30.5v77q0 20 3.5 29.5t13 13.5t29.5 4h164q21 0 30.5 -4t12.5 -13.5t3 -29.5v-77q0 -21 -3.5 -30.5t-13 -13t-29.5 -3.5h-163q-21 0 -30.5 3.5z" />
    <glyph glyph-name="period" unicode="." horiz-adv-x="357" 
d="M94 3q-10 3 -13.5 11t-3.5 26v89q0 17 3 25.5t12.5 11.5t29.5 3h113q21 0 30 -2.5t12 -10.5t3 -27v-89q0 -18 -3.5 -26t-13.5 -11t-30 -3h-108q-21 0 -31 3z" />
    <glyph glyph-name="slash" unicode="/" horiz-adv-x="576" 
d="M20 0q0 7 5 19.5t12 25.5l345 667q9 17 22 25t28 8h94q11 0 16.5 -3.5t5.5 -10.5q0 -13 -21 -53l-341 -659q-8 -17 -21 -25t-29 -8h-91q-25 0 -25 14z" />
    <glyph glyph-name="zero" unicode="0" horiz-adv-x="718" 
d="M116.5 654.5q78.5 90.5 230.5 90.5h24q158 0 233.5 -88.5t75.5 -273.5v-35q0 -182 -78.5 -272t-230.5 -90h-24q-158 0 -233.5 88.5t-75.5 273.5v35q0 181 78.5 271.5zM249.5 230q10.5 -44 36.5 -66t71 -22h4q43 0 68.5 21t37.5 65t12 115v34q0 75 -10 120.5t-36 68.5
t-74 23h-2q-43 0 -68.5 -21t-37.5 -65t-12 -115v-44q0 -70 10.5 -114z" />
    <glyph glyph-name="one" unicode="1" horiz-adv-x="718" 
d="M125.5 4q-9.5 4 -13 13.5t-3.5 29.5v59q0 20 3.5 29.5t13 13.5t29.5 4h117v303l2 45h-1q-5 -9 -14.5 -19.5t-15.5 -15.5l-43 -37q-11 -10 -18.5 -14t-14.5 -4q-15 0 -33 24l-44 55q-8 10 -12.5 18t-4.5 14q0 8 5 14.5t20 18.5l196 162q10 9 19 11.5t26 2.5h85
q20 0 29.5 -3.5t13 -13.5t3.5 -30v-531h127q20 0 29.5 -3.5t13 -13.5t3.5 -30v-59q0 -20 -3.5 -29.5t-13 -13.5t-29.5 -4h-442q-20 0 -29.5 4z" />
    <glyph glyph-name="two" unicode="2" horiz-adv-x="718" 
d="M183 493q-7 -5 -16 -5q-11 0 -25.5 9.5t-43.5 31.5q-24 18 -34.5 29.5t-10.5 24.5q0 16 16.5 39.5t42.5 44.5q42 35 99.5 56.5t143.5 21.5q130 0 203.5 -51.5t73.5 -156.5q0 -78 -26.5 -125.5t-76 -76t-136.5 -56.5l-37 -12q-30 -10 -50.5 -27.5t-30 -36.5t-9.5 -35v-2
h323q21 0 30.5 -4t12.5 -13.5t3 -29.5v-72q0 -21 -3.5 -30.5t-13 -13t-29.5 -3.5h-484q-20 0 -29.5 3.5t-13 13t-3.5 30.5v26q0 114 49 201.5t159 130.5l38 15q60 24 82.5 34.5t32 23.5t9.5 37q0 33 -23.5 48.5t-64.5 15.5q-50 0 -82.5 -17.5t-57.5 -49.5q-11 -14 -18 -19z
" />
    <glyph glyph-name="three" unicode="3" horiz-adv-x="718" 
d="M425 287.5q-28 19.5 -99 19.5h-40q-20 0 -29 3.5t-13 13t-4 30.5v57q0 20 3.5 30t13 13.5t29.5 3.5h38q58 0 83 18t25 50q0 28 -22 43.5t-63 15.5q-39 0 -64 -6.5t-48 -17.5q-11 -6 -19.5 -10.5t-14.5 -8.5q-17 -11 -29 -16.5t-23 -5.5q-10 0 -17.5 7.5t-19.5 26.5
l-14 20q-17 26 -22.5 36.5t-5.5 19.5q0 12 10.5 23t39.5 29q52 32 108.5 47.5t131.5 15.5q145 0 209.5 -49t64.5 -141q0 -70 -42 -109t-114 -49v-2q87 -13 132.5 -57t45.5 -126q0 -66 -32 -116.5t-101 -80t-175 -29.5q-163 0 -265 92q-25 23 -35.5 37t-10.5 27q0 9 9 19.5
t21 21t16 14.5q27 26 40 35t23 9q7 0 15.5 -6t20.5 -18l26 -22q37 -26 68 -37.5t71 -11.5q52 0 79 22t27 62q0 38 -28 57.5z" />
    <glyph glyph-name="four" unicode="4" horiz-adv-x="718" 
d="M548.5 727q9.5 -4 13 -13.5t3.5 -29.5v-373h34q20 0 29.5 -3.5t13 -13.5t3.5 -30v-62q0 -20 -3 -29.5t-12.5 -13.5t-30.5 -4h-34v-108q0 -20 -3.5 -30t-13 -13.5t-29.5 -3.5h-103q-21 0 -30 3.5t-12.5 13t-3.5 30.5v108h-278q-20 0 -29 3.5t-13 13t-4 30.5v51q0 16 5 28
t19 33l307 385q15 20 27 26t32 6h83q20 0 29.5 -4zM254.5 310q22.5 1 40.5 1h75v98q0 71 6 114h-4q-8 -17 -20 -36t-24 -35l-62 -85q-13 -18 -26.5 -33t-26.5 -27l1 -2q18 4 40.5 5z" />
    <glyph glyph-name="five" unicode="5" horiz-adv-x="718" 
d="M246.5 295.5q-7.5 -4.5 -14.5 -7t-16 -2.5q-15 0 -40 5t-42.5 9.5t-25.5 7.5q-11 4 -15.5 10.5t-4.5 16.5q0 11 6 65l33 289q2 19 5.5 27.5t11.5 11.5t24 3h384q20 0 29.5 -4t13 -13.5t3.5 -29.5v-69q0 -20 -3.5 -30t-13 -13.5t-29.5 -3.5h-258l-8 -53q-3 -20 -5.5 -34
t-3.5 -20l2 -1q50 19 132 19q126 0 183.5 -58t57.5 -169q0 -75 -30.5 -135t-97.5 -95.5t-171 -35.5q-66 0 -113.5 7.5t-82.5 22.5t-67 40q-21 16 -30.5 26t-12.5 16.5t-3 14.5q0 10 8.5 20t20.5 21.5t17 16.5q11 11 16 15q15 15 23 21t18 6q8 0 16.5 -4.5t16 -10t11.5 -8.5
q36 -25 68 -35t82 -10q56 0 82.5 25t26.5 67q0 41 -25 63t-84 22q-23 0 -42.5 -4t-40.5 -15q-4 -3 -11.5 -7.5z" />
    <glyph glyph-name="six" unicode="6" horiz-adv-x="718" 
d="M309.5 557q-32.5 -29 -32.5 -85l-2 -33h2q8 10 18.5 20.5t24.5 19.5q21 14 50.5 22t77.5 8q119 0 172 -67t53 -179q0 -132 -72.5 -204.5t-219.5 -72.5q-162 0 -235 82t-73 241v86q0 175 79.5 262.5t240.5 87.5q47 0 94.5 -8t89.5 -25q36 -15 50.5 -23.5t14.5 -22.5
q0 -9 -6 -24.5t-16 -36.5q-7 -17 -14.5 -31t-14.5 -21t-16 -7q-6 0 -15 2.5t-16 5t-13 4.5q-33 13 -62.5 20.5t-66.5 7.5q-60 0 -92.5 -29zM446 171q23 27 23 77q0 48 -21.5 76t-69.5 28q-45 0 -66.5 -28t-21.5 -77q0 -51 23 -77t67 -26q43 0 66 27z" />
    <glyph glyph-name="seven" unicode="7" horiz-adv-x="718" 
d="M348 429q32 50 50.5 83.5t20.5 55.5h-157v-84q0 -16 -3.5 -24t-13 -11.5t-29.5 -3.5h-92q-20 0 -29 9.5t-9 27.5v202q0 20 3 29.5t13.5 13.5t32.5 4h466q20 0 29.5 -3.5t13 -13t3.5 -30.5v-14q0 -61 -10 -103t-30 -80.5t-68 -116.5q-9 -16 -20 -33t-22 -36
q-29 -49 -49 -111.5t-20 -134.5v-13q0 -18 -4 -26.5t-13.5 -12t-29.5 -3.5h-108q-21 0 -30.5 4t-12.5 14.5t-3 34.5q0 76 11.5 133t32.5 103.5t56 105.5z" />
    <glyph glyph-name="eight" unicode="8" horiz-adv-x="718" 
d="M584.5 694q75.5 -51 75.5 -153q0 -59 -26.5 -97t-85.5 -61v-2q64 -28 97 -71t33 -108q0 -111 -77.5 -163.5t-241.5 -52.5q-118 0 -187 26.5t-98 73.5t-29 115q0 123 121 169v2q-52 27 -76 66t-24 101q0 58 32.5 104.5t99 74t163.5 27.5q148 0 223.5 -51zM439.5 484
q19.5 18 19.5 41q0 34 -25 51.5t-72 17.5q-29 0 -50.5 -8t-33.5 -22.5t-12 -32.5q0 -24 25 -41.5t86 -32.5q43 9 62.5 27zM268 265.5q-21 -22.5 -21 -53.5q0 -36 30 -54.5t83 -18.5q51 0 83 16t32 46q0 34 -33 58.5t-106 46.5q-47 -18 -68 -40.5z" />
    <glyph glyph-name="nine" unicode="9" horiz-adv-x="718" 
d="M408.5 174q32.5 29 32.5 85l2 33h-2q-8 -10 -18.5 -20.5t-24.5 -19.5q-21 -14 -50.5 -22t-77.5 -8q-119 0 -172 67t-53 179q0 132 72.5 204.5t219.5 72.5q162 0 235 -82t73 -241v-86q0 -175 -79.5 -262.5t-240.5 -87.5q-47 0 -94.5 8t-89.5 25q-36 14 -50.5 23t-14.5 23
q0 9 6 24.5t16 36.5q7 17 14.5 31t14.5 21t16 7q6 0 15 -2.5t16 -5t13 -4.5q33 -13 62.5 -20.5t66.5 -7.5q60 0 92.5 29zM272 560q-23 -27 -23 -77q0 -48 21.5 -76t69.5 -28q45 0 66.5 28t21.5 77q0 51 -23 77t-67 26q-43 0 -66 -27z" />
    <glyph glyph-name="colon" unicode=":" horiz-adv-x="409" 
d="M121 342q-10 3 -13.5 11.5t-3.5 26.5v88q0 22 10 31t34 9h114q21 0 30 -2.5t12 -10.5t3 -27v-88q0 -18 -3.5 -26.5t-13.5 -11.5t-30 -3h-109q-20 0 -30 3zM121 3q-10 3 -13.5 11t-3.5 26v89q0 22 10 31t34 9h114q21 0 30 -2.5t12 -10.5t3 -27v-89q0 -18 -3.5 -26
t-13.5 -11t-30 -3h-109q-20 0 -30 3z" />
    <glyph glyph-name="semicolon" unicode=";" horiz-adv-x="409" 
d="M122 343q-10 3 -13.5 11t-3.5 26v89q0 22 10.5 31t34.5 9h113q21 0 30 -2.5t12 -10.5t3 -27v-89q0 -18 -3.5 -26t-13.5 -11t-30 -3h-108q-21 0 -31 3zM104 29v92q0 22 4.5 31.5t16 13t36.5 3.5h97q28 0 38.5 -7.5t10.5 -26.5v-78q0 -32 -11.5 -65.5t-39.5 -77.5l-45 -71
q-14 -22 -23.5 -29.5t-18.5 -7.5q-19 0 -40 14q-2 1 -9 5.5t-10.5 11t-3.5 14.5q0 20 12 44l52 105h-33q-33 0 -33 29z" />
    <glyph glyph-name="less" unicode="&#x3c;" horiz-adv-x="745" 
d="M86.5 440.5q12.5 12.5 31.5 18.5l513 207q2 1 8 3t13 2q9 0 12.5 -6t3.5 -14v-93q0 -19 -6.5 -30.5t-22.5 -18.5l-343 -130v-2l343 -129q16 -6 22.5 -17.5t6.5 -31.5v-93q0 -8 -3.5 -14t-12.5 -6q-7 0 -13 2t-8 3l-530 217q-14 6 -20.5 20t-6.5 31v53q0 16 12.5 28.5z
" />
    <glyph glyph-name="equal" unicode="=" horiz-adv-x="745" 
d="M85.5 442q-9.5 4 -13 13.5t-3.5 29.5v51q0 21 3.5 30.5t13 13t29.5 3.5h514q20 0 29.5 -3.5t13 -13.5t3.5 -30v-51q0 -20 -3.5 -29.5t-13 -13.5t-29.5 -4h-514q-20 0 -29.5 4zM85.5 184q-9.5 4 -13 13.5t-3.5 29.5v51q0 21 3.5 30.5t13 13t29.5 3.5h514q20 0 29.5 -3.5
t13 -13.5t3.5 -30v-51q0 -20 -3.5 -29.5t-13 -13.5t-29.5 -4h-514q-20 0 -29.5 4z" />
    <glyph glyph-name="greater" unicode="&#x3e;" horiz-adv-x="745" 
d="M80.5 230.5q6.5 11.5 22.5 17.5l343 129v2l-343 130q-16 6 -22.5 18t-6.5 31v93q0 8 3.5 14t12.5 6q7 0 13.5 -2.5t7.5 -2.5l513 -207q22 -9 33 -20.5t11 -28.5v-52q0 -16 -6.5 -30t-20.5 -20l-530 -217q-2 -1 -8 -3t-13 -2q-9 0 -12.5 6t-3.5 14v93q0 20 6.5 31.5z" />
    <glyph glyph-name="question" unicode="?" horiz-adv-x="529" 
d="M204.5 578q-16.5 -11 -28.5 -33q-12 -21 -17 -27t-15 -6q-6 0 -27 6.5t-60 20.5q-18 6 -27 13t-9 19q0 19 10.5 43.5t30.5 48.5q35 41 84.5 61.5t122.5 20.5q60 0 112 -18t85.5 -61.5t33.5 -114.5q0 -61 -21 -106.5t-75 -89.5q-36 -30 -51.5 -53.5t-15.5 -53.5v4
q0 -10 -6.5 -15.5t-18.5 -5.5h-102q-15 0 -24.5 9t-11.5 32q-1 11 -1 23q0 34 18 69t62 75q48 43 48 93q0 27 -15 42t-42 15q-23 0 -39.5 -11zM173 3q-10 3 -13.5 11t-3.5 26v89q0 22 10 31t34 9h114q21 0 30 -2.5t12 -10.5t3 -27v-89q0 -18 -3.5 -26t-13.5 -11t-30 -3h-109
q-20 0 -30 3z" />
    <glyph glyph-name="at" unicode="@" horiz-adv-x="1029" 
d="M542 53q-43 -23 -87 -23q-53 0 -90.5 22.5t-57.5 64t-20 96.5q0 94 28.5 164t82.5 108t129 38q88 0 172 -27q24 -8 33.5 -13t9.5 -14q0 -8 -4 -29t-5 -27l-26 -129q-1 -5 -5 -28t-4 -35q0 -25 13.5 -38.5t39.5 -13.5q27 0 48.5 20.5t34.5 62t13 103.5q0 65 -29.5 122
t-100 94.5t-186.5 37.5q-103 0 -181 -47t-121 -130t-43 -188q0 -150 75.5 -228t245.5 -78q68 0 175 28l23 6q29 9 37 9q10 0 17 -12t15 -35q1 -2 4 -11.5t5 -18t2 -17.5t-4.5 -16.5t-12.5 -11.5q-52 -23 -126.5 -37.5t-151.5 -14.5q-140 0 -240 52t-152.5 150.5t-52.5 237.5
q0 142 61.5 255.5t175.5 178t265 64.5q149 0 247 -53t144 -143t46 -203q0 -93 -32.5 -164.5t-90.5 -111.5t-131 -40q-51 0 -80.5 23.5t-36.5 61.5h-3q-25 -39 -68 -62zM547 229.5q3 10.5 4 19.5l25 134q-15 5 -25.5 6t-15.5 1q-47 0 -71.5 -45t-24.5 -119q0 -26 10 -41.5
t28 -15.5q19 0 34 10t30 35q3 5 6 15.5z" />
    <glyph glyph-name="A" unicode="A" horiz-adv-x="757" 
d="M4.5 4.5q-8.5 4.5 -8.5 14.5q0 15 8 36l236 638q5 15 11.5 23t19 11.5t34.5 3.5h116q23 0 34.5 -3t17.5 -11t13 -24l266 -638q9 -21 9 -35q0 -11 -7 -15.5t-28 -4.5h-141q-17 0 -23.5 5.5t-12.5 22.5l-46 129h-260l-41 -130q-5 -14 -12.5 -20.5t-23.5 -6.5h-135
q-18 0 -26.5 4.5zM400 449q-8 23 -18 57t-14 57h-4q-4 -32 -27 -114l-41 -133h149z" />
    <glyph glyph-name="B" unicode="B" horiz-adv-x="729" 
d="M77.5 713.5q3.5 9.5 13 13.5t29.5 4h241q106 0 171.5 -20.5t96.5 -61.5t31 -106q0 -64 -29 -101.5t-100 -53.5v-2q164 -24 164 -178q0 -70 -24.5 -115t-86 -69t-169.5 -24h-295q-20 0 -29.5 3.5t-13 13t-3.5 30.5v637q0 20 3.5 29.5zM459 514q0 28 -19.5 45t-76.5 17h-94
v-128h103q87 0 87 66zM489 224q0 33 -22.5 51.5t-79.5 18.5h-118v-139h117q103 0 103 69z" />
    <glyph glyph-name="C" unicode="C" horiz-adv-x="685" 
d="M184.5 28q-72.5 42 -106 115.5t-33.5 171.5v85q0 345 321 345q67 0 117 -9.5t106 -35.5q14 -6 24 -12t14.5 -12t4.5 -16q0 -7 -6 -23t-10 -26t-6 -14q-14 -35 -24.5 -49.5t-22.5 -14.5q-9 0 -20.5 4.5t-25.5 10.5l-26 11q-4 2 -23 10t-41 12t-47 4q-72 0 -103.5 -48.5
t-31.5 -139.5v-64q0 -96 33 -141.5t108 -45.5q30 0 67 11.5t67 26.5q25 12 34.5 16t20.5 4q12 0 18.5 -8t15 -26t12.5 -26q8 -17 14.5 -36t6.5 -26q0 -13 -10 -22.5t-41 -26.5q-38 -21 -93 -34t-128 -13q-113 0 -185.5 42z" />
    <glyph glyph-name="D" unicode="D" horiz-adv-x="770" 
d="M570 690.5q83 -40.5 119 -116t36 -186.5v-38q0 -160 -86 -255t-292 -95h-227q-20 0 -29.5 3.5t-13 13t-3.5 30.5v637q0 20 3.5 29.5t13 13.5t29.5 4h228q139 0 222 -40.5zM457.5 180q37.5 21 52.5 62.5t15 110.5v20q0 77 -16.5 119.5t-56.5 61t-114 18.5h-69v-413h85
q66 0 103.5 21z" />
    <glyph glyph-name="E" unicode="E" horiz-adv-x="644" 
d="M90.5 3.5q-9.5 3.5 -13 13.5t-3.5 30v637q0 21 3.5 30.5t13 13t29.5 3.5h418q20 0 29.5 -4t13 -13.5t3.5 -29.5v-70q0 -20 -3.5 -29.5t-13 -13.5t-29.5 -4h-269v-113h199q21 0 30.5 -4t12.5 -13.5t3 -29.5v-66q0 -20 -3.5 -29.5t-13 -13.5t-29.5 -4h-199v-130h284
q20 0 29.5 -4t13 -13.5t3.5 -29.5v-70q0 -20 -3.5 -29.5t-13 -13.5t-29.5 -4h-433q-20 0 -29.5 3.5z" />
    <glyph glyph-name="F" unicode="F" horiz-adv-x="598" 
d="M90.5 3.5q-9.5 3.5 -13 13t-3.5 30.5v637q0 20 3.5 30t13 13.5t29.5 3.5h423q20 0 29 -3.5t13 -13t4 -30.5v-75q0 -20 -3.5 -29.5t-13 -13.5t-29.5 -4h-274v-133h195q20 0 29.5 -3.5t13 -13.5t3.5 -30v-71q0 -20 -3.5 -29.5t-13 -13.5t-29.5 -4h-195v-217q0 -20 -3 -29.5
t-12.5 -13.5t-30.5 -4h-103q-20 0 -29.5 3.5z" />
    <glyph glyph-name="G" unicode="G" horiz-adv-x="759" 
d="M310.5 567.5q-34.5 -17.5 -50 -56.5t-15.5 -104v-74q0 -69 15.5 -110t48 -59t84.5 -18q31 0 48.5 2.5t35.5 9.5q9 3 14.5 11t5.5 18v92h-119q-22 0 -31.5 4t-12 14.5t-2.5 33.5v56q0 21 4 31t13 13t29 3h279q15 0 22 -2t9.5 -8t2.5 -18v-312q0 -16 -7.5 -26.5t-20 -18
t-37.5 -18.5q-45 -19 -109 -32t-141 -13q-112 0 -186 41t-109.5 115.5t-35.5 174.5v94q0 170 87 252t270 82q67 0 115 -6.5t94 -19.5q33 -10 46 -19t13 -24q0 -16 -21 -70q-7 -20 -13.5 -34t-11.5 -19t-14 -5q-10 0 -21.5 2.5t-21 6t-17.5 5.5q-75 23 -146 23
q-59 0 -93.5 -17.5z" />
    <glyph glyph-name="H" unicode="H" horiz-adv-x="793" 
d="M89.5 4q-9.5 4 -12.5 13.5t-3 29.5v637q0 20 3.5 30t13 13.5t29.5 3.5h103q20 0 29.5 -3.5t13 -13.5t3.5 -30v-224h255v224q0 20 3.5 29.5t13 13.5t29.5 4h104q20 0 29.5 -3.5t13 -13.5t3.5 -30v-637q0 -20 -3.5 -29.5t-13 -13.5t-29.5 -4h-104q-20 0 -29.5 3.5t-13 13
t-3.5 30.5v253h-255v-253q0 -20 -3.5 -29.5t-13 -13.5t-29.5 -4h-103q-21 0 -30.5 4z" />
    <glyph glyph-name="I" unicode="I" horiz-adv-x="469" 
d="M421.5 145.5q9.5 -3.5 13 -13t3.5 -30.5v-55q0 -20 -3 -29.5t-12.5 -13.5t-30.5 -4h-316q-19 0 -28.5 3t-13.5 13t-4 31v55q0 20 3.5 29.5t13 13.5t29.5 4h61v432h-61q-20 0 -29.5 4t-13 13.5t-3.5 29.5v56q0 20 3.5 30t13 13.5t29.5 3.5h316q20 0 29.5 -3.5t13 -13.5
t3.5 -30v-56q0 -20 -3 -29.5t-12.5 -13.5t-30.5 -4h-60v-432h60q20 0 29.5 -3.5z" />
    <glyph glyph-name="J" unicode="J" horiz-adv-x="572" 
d="M491.5 727.5q9.5 -3.5 13 -13.5t3.5 -30v-349q0 -105 -23.5 -181t-83 -120.5t-163.5 -44.5q-84 0 -136.5 30t-87.5 79q-15 20 -19 31.5t-4 21.5q0 13 11.5 23t42.5 29q29 18 40.5 23.5t20.5 5.5q10 0 16 -5t21 -23l19 -23q14 -17 31 -25.5t39 -8.5q29 0 47 16.5t26 51
t8 91.5v265h-111q-20 0 -29 3.5t-13 13t-4 30.5v66q0 20 3.5 29.5t13 13.5t29.5 4h260q20 0 29.5 -3.5z" />
    <glyph glyph-name="K" unicode="K" horiz-adv-x="737" 
d="M676.5 105q5.5 -6 10.5 -13q31 -36 40.5 -49t9.5 -24q0 -19 -25 -19h-170q-19 0 -31.5 7.5t-24.5 22.5l-185 239q-2 2 -7 9t-10.5 9.5t-13.5 2.5h-1v-243q0 -20 -3.5 -30t-13 -13.5t-29.5 -3.5h-103q-20 0 -29.5 3.5t-13 13t-3.5 30.5v637q0 20 3.5 29.5t13 13.5t29.5 4
h103q20 0 29.5 -4t13 -13.5t3.5 -29.5v-230h2q4 0 7 3.5t5 6.5t3 4l169 233q10 14 27.5 22t37.5 8h139q23 0 32 -2.5t9 -13.5q0 -9 -8 -21t-17 -23.5t-12 -14.5l-231 -266l233 -272q6 -7 11.5 -13z" />
    <glyph glyph-name="L" unicode="L" horiz-adv-x="562" 
d="M90.5 4q-9.5 4 -13 13.5t-3.5 29.5v637q0 20 3 29.5t12.5 13.5t30.5 4h103q20 0 29.5 -3.5t13 -13t3.5 -30.5v-513h235q20 0 29.5 -3.5t13 -13.5t3.5 -30v-77q0 -20 -3 -29.5t-12.5 -13.5t-30.5 -4h-384q-20 0 -29.5 4z" />
    <glyph glyph-name="M" unicode="M" horiz-adv-x="962" 
d="M90.5 4q-9.5 4 -13 13.5t-3.5 29.5v637q0 20 3.5 29.5t13 13.5t29.5 4h94q31 0 45 -2.5t22.5 -10t16.5 -24.5l162 -306q2 -4 10.5 -20t10.5 -27h2q5 20 24 53l147 301q8 16 16 23.5t19.5 10t31.5 2.5h122q21 0 30.5 -4t12.5 -13.5t3 -29.5v-637q0 -20 -3 -29.5
t-12.5 -13.5t-30.5 -4h-98q-20 0 -29.5 3.5t-13 13t-3.5 30.5v326q0 51 1 78h-3q-22 -49 -35 -77l-99 -206q-9 -19 -15.5 -28t-17.5 -13t-30 -4h-45q-19 0 -30 4t-19 14t-18 29l-103 198q-11 21 -19 42.5t-12 35.5h-3q2 -14 3.5 -37t1.5 -49v-313q0 -19 -2.5 -28.5
t-12.5 -14t-31 -4.5h-90q-20 0 -29.5 4z" />
    <glyph glyph-name="N" unicode="N" horiz-adv-x="812" 
d="M90.5 3.5q-9.5 3.5 -13 13.5t-3.5 30v637q0 21 4 30.5t13 13t29 3.5h100q15 0 25 -5.5t21 -19.5l228 -303q43 -53 62 -93h2q-2 46 -2 120v254q0 20 3.5 30t13 13.5t29.5 3.5h90q20 0 29.5 -3.5t13 -13t3.5 -30.5v-637q0 -20 -3 -29.5t-12.5 -13.5t-30.5 -4h-91
q-16 0 -26 3.5t-19.5 12.5t-23.5 28l-238 309q-13 17 -43 70h-2l3 -21q4 -34 4 -67v-288q0 -20 -3 -29.5t-12.5 -13.5t-30.5 -4h-90q-20 0 -29.5 3.5z" />
    <glyph glyph-name="O" unicode="O" horiz-adv-x="786" 
d="M137.5 667q92.5 78 251.5 78h11q169 0 255 -82t86 -248v-93q0 -336 -345 -336h-10q-158 0 -249.5 79.5t-91.5 250.5v93q0 180 92.5 258zM507.5 538q-33.5 47 -109.5 47h-10q-78 0 -110.5 -47t-32.5 -143v-60q0 -96 33.5 -142.5t109.5 -46.5h10q75 0 109 46t34 143v60
q0 96 -33.5 143z" />
    <glyph glyph-name="P" unicode="P" horiz-adv-x="702" 
d="M90.5 4q-9.5 4 -13 13.5t-3.5 29.5v637q0 20 3 29.5t12.5 13.5t30.5 4h251q135 0 214.5 -57.5t79.5 -185.5q0 -83 -37 -139.5t-106.5 -85.5t-167.5 -29h-85v-187q0 -20 -3 -29.5t-12.5 -13.5t-30.5 -4h-103q-20 0 -29.5 4zM460 487q0 41 -22 62.5t-74 21.5h-95v-180h80
q111 0 111 96z" />
    <glyph glyph-name="Q" unicode="Q" horiz-adv-x="786" 
d="M631 16.5q-16 10.5 -26 18.5q-40 -24 -89 -36.5t-120 -12.5h-10q-158 0 -249.5 79.5t-91.5 250.5v93q0 180 92.5 258t251.5 78h11q169 0 255 -82t86 -248v-92q0 -52 -8 -94.5t-25 -79.5q4 -3 37 -23q7 -4 16.5 -9.5t14 -10.5t4.5 -13q0 -13 -7 -32l-17 -49
q-7 -19 -13 -26.5t-16 -7.5q-23 0 -61 18q-19 10 -35 20.5zM507.5 538q-33.5 47 -109.5 47h-10q-78 0 -110.5 -47t-32.5 -143v-59q0 -96 33.5 -143t109.5 -47h10q20 0 33.5 2.5t29.5 8.5l-114 107q-12 11 -18 20t-6 20q0 9 6 17t23 25l28 28q10 10 18.5 16t17.5 6t16 -5.5
t34 -30.5l73 -70q2 30 2 46v59q0 96 -33.5 143z" />
    <glyph glyph-name="R" unicode="R" horiz-adv-x="727" 
d="M700 22q0 -12 -9.5 -17t-35.5 -5h-105q-27 0 -41.5 2.5t-26 10t-22.5 23.5l-129 185q-9 13 -19.5 17.5t-27.5 4.5h-15v-196q0 -19 -3 -28.5t-12.5 -14t-30.5 -4.5h-103q-20 0 -29.5 3.5t-13 13t-3.5 30.5v637q0 21 4 30.5t13 13t29 3.5h252q124 0 190 -33t88 -83.5
t22 -118.5q0 -67 -23.5 -113t-58 -71.5t-72.5 -36.5l162 -215q20 -28 20 -38zM446 421q28 23 28 66q0 48 -29 68.5t-95 20.5h-81v-178h82q67 0 95 23z" />
    <glyph glyph-name="S" unicode="S" horiz-adv-x="649" 
d="M556 53q-64 -67 -225 -67q-70 0 -122.5 9t-94.5 26q-41 17 -58.5 32t-17.5 31q0 14 20 54q18 37 30 50t26 13q9 0 20.5 -4.5t21.5 -9t17 -7.5q38 -17 77 -26.5t69 -9.5q44 0 67.5 15.5t23.5 48.5t-28 52.5t-99 28.5q-123 15 -179.5 73.5t-56.5 147.5q0 64 20.5 108.5
t60.5 73.5q39 28 92 40.5t120 12.5q44 0 84.5 -6t71.5 -14q44 -12 62.5 -27t18.5 -29q0 -11 -5 -25.5t-11 -29.5q-10 -25 -16.5 -38t-15.5 -21t-21 -8q-11 0 -22.5 3.5t-19 6.5t-11.5 4q-31 11 -58.5 17t-58.5 6q-47 0 -66 -15q-17 -14 -17 -37q0 -22 10.5 -35t36.5 -22
t74 -16q131 -19 187.5 -84t56.5 -154q0 -101 -64 -168z" />
    <glyph glyph-name="T" unicode="T" horiz-adv-x="623" 
d="M608.5 576.5q-3.5 -9.5 -13 -13t-29.5 -3.5h-156v-513q0 -20 -3 -29.5t-12.5 -13.5t-30.5 -4h-104q-20 0 -29.5 3.5t-13 13.5t-3.5 30v513h-157q-20 0 -29.5 3.5t-13 13t-3.5 30.5v77q0 20 3.5 30t13 13.5t29.5 3.5h509q20 0 29.5 -4t13 -13.5t3.5 -29.5v-77
q0 -21 -3.5 -30.5z" />
    <glyph glyph-name="U" unicode="U" horiz-adv-x="761" 
d="M627 63q-70 -77 -239 -77h-41q-146 0 -214.5 70.5t-68.5 206.5v421q0 21 4 30.5t13 13t29 3.5h102q21 0 30.5 -4t12.5 -13.5t3 -29.5v-412q0 -55 29.5 -80.5t90.5 -25.5q66 0 94.5 27t28.5 79v412q0 20 3.5 30t13 13.5t29.5 3.5h104q20 0 29.5 -3.5t13 -13t3.5 -30.5
v-409q0 -135 -70 -212z" />
    <glyph glyph-name="V" unicode="V" horiz-adv-x="698" 
d="M347.5 258q4.5 -28 6.5 -36h2q3 20 9.5 49t12.5 48l112 372q6 22 19 31t33 9h127q18 0 25 -4t7 -14q0 -6 -2.5 -17t-5.5 -20l-215 -630q-7 -21 -14.5 -30.5t-19 -12.5t-32.5 -3h-104q-25 0 -36.5 3.5t-18 12t-14.5 28.5l-236 632q-9 25 -9 35t7 15t27 5h143q12 0 18.5 -3
t10.5 -9t9 -20l124 -384q10 -29 14.5 -57z" />
    <glyph glyph-name="W" unicode="W" horiz-adv-x="889" 
d="M631 304h3q0 26 2 40l36 356q2 16 11 23.5t29 7.5h130q27 0 27 -18q0 -4 -0.5 -9.5t-1.5 -9.5l-116 -663q-4 -31 -38 -31h-121q-18 0 -27 7.5t-12 23.5l-92 324q-6 23 -15.5 64.5t-11.5 64.5h-2q-2 -24 -9.5 -64.5t-13.5 -58.5l-73 -330q-3 -16 -11.5 -23.5t-26.5 -7.5
h-125q-16 0 -25.5 7.5t-12.5 23.5l-111 659q-3 17 -3 23q0 18 27 18h137q19 0 26.5 -8t9.5 -23l32 -323q0 -4 3 -29.5t3 -43.5h2l15 72l57 249q4 17 13.5 24.5t31.5 7.5h131q22 0 31.5 -7.5t13.5 -24.5l69 -277q6 -23 8 -44z" />
    <glyph glyph-name="X" unicode="X" horiz-adv-x="711" 
d="M225 5q-10 -5 -34 -5h-138q-27 0 -27 17q0 8 4 16t16 26l205 316l-185 279q-18 27 -24.5 38.5t-6.5 21.5t8 13.5t22 3.5h141q19 0 28.5 -5.5t19.5 -22.5l102 -177l100 177q8 18 20 23t35 5h134q18 0 24 -4.5t6 -12.5q0 -6 -3.5 -14t-9.5 -17l-195 -310l193 -303
q17 -26 21.5 -35t4.5 -17q0 -10 -7.5 -14t-21.5 -4h-140q-20 0 -30 5t-20 23l-110 195l-112 -195q-10 -18 -20 -23z" />
    <glyph glyph-name="Y" unicode="Y" horiz-adv-x="627" 
d="M5 694.5q-4 9.5 -4 20.5q0 16 24 16h143q16 0 23 -6.5t13 -18.5l87 -186q10 -23 13.5 -34.5t7.5 -32.5h2q2 17 5.5 31.5t12.5 32.5l93 193q6 11 13.5 16t19.5 5h145q12 0 17.5 -4t5.5 -12q0 -9 -4 -18.5t-8 -17t-7 -12.5l-178 -345q-10 -17 -13.5 -31.5t-3.5 -44.5v-199
q0 -21 -3.5 -30.5t-12.5 -13t-30 -3.5h-102q-21 0 -31 3.5t-13.5 13t-3.5 29.5v191q0 27 -3 43.5t-14 36.5l-174 338q-16 30 -20 39.5z" />
    <glyph glyph-name="Z" unicode="Z" horiz-adv-x="651" 
d="M58.5 563.5q-9.5 3.5 -13 13t-3.5 30.5v77q0 20 3.5 30t13 13.5t29.5 3.5h484q20 0 29.5 -4t13 -13.5t3.5 -29.5v-88q0 -20 -4.5 -32.5t-16.5 -26.5l-339 -363v-2h332q20 0 29.5 -4t13 -13.5t3.5 -29.5v-78q0 -20 -3.5 -29.5t-13 -13.5t-29.5 -4h-515q-20 0 -29.5 3.5
t-13 13t-3.5 30.5v91q0 19 7 34t22 31l330 355v2h-300q-20 0 -29.5 3.5z" />
    <glyph glyph-name="bracketleft" unicode="[" horiz-adv-x="429" 
d="M123 -188.5q-9 3.5 -13 13t-4 30.5v924q0 20 3.5 30t13 13.5t29.5 3.5h215q20 0 29.5 -3.5t13 -13.5t3.5 -30v-53q0 -20 -3 -29.5t-12.5 -13.5t-30.5 -4h-69v-724h69q20 0 29.5 -4t13 -13.5t3.5 -29.5v-53q0 -20 -3 -29.5t-12.5 -13.5t-30.5 -4h-215q-20 0 -29 3.5z" />
    <glyph glyph-name="backslash" unicode="\" horiz-adv-x="576" 
d="M36.5 703q-5.5 12 -5.5 19q0 23 29 23h82q22 0 32.5 -5.5t19.5 -23.5l340 -663q7 -13 12.5 -25t5.5 -19q0 -23 -29 -23h-82q-22 0 -32.5 5.5t-19.5 23.5l-340 663q-7 13 -12.5 25z" />
    <glyph glyph-name="bracketright" unicode="]" horiz-adv-x="429" 
d="M31.5 683q-9.5 4 -13 13.5t-3.5 29.5v53q0 20 3 29.5t12.5 13.5t30.5 4h215q20 0 29 -3.5t13 -13t4 -30.5v-924q0 -20 -3.5 -30t-13 -13.5t-29.5 -3.5h-215q-20 0 -29.5 3.5t-13 13.5t-3.5 30v53q0 20 3 29.5t12.5 13.5t30.5 4h69v724h-69q-20 0 -29.5 4z" />
    <glyph glyph-name="asciicircum" unicode="^" horiz-adv-x="745" 
d="M502.5 321.5q-10.5 8.5 -18.5 25.5l-111 236h-2l-107 -236q-8 -17 -18.5 -25.5t-27.5 -8.5h-99q-15 0 -23 6.5t-8 18.5q0 9 12.5 35t31.5 63l125 245q12 24 21 34t22 13t41 3h63q28 0 40.5 -3t21 -13t20.5 -34l120 -245l18 -36q11 -23 18.5 -39t7.5 -23q0 -12 -8.5 -18.5
t-23.5 -6.5h-88q-17 0 -27.5 8.5z" />
    <glyph glyph-name="underscore" unicode="_" horiz-adv-x="500" 
d="M496.5 -214.5q-3.5 -9.5 -13 -13.5t-29.5 -4h-408q-20 0 -29.5 4t-13 13.5t-3.5 29.5v60q0 21 3.5 30.5t13 13t29.5 3.5h408q20 0 29.5 -3.5t13 -13.5t3.5 -30v-60q0 -20 -3.5 -29.5z" />
    <glyph glyph-name="grave" unicode="`" horiz-adv-x="500" 
d="M121 762q-6 9 -6 17q0 11 9.5 15t32.5 4h96q21 0 32 -7t20 -23l68 -121q5 -8 8.5 -16.5t3.5 -15.5q0 -20 -38 -20h-41q-34 0 -54 21l-110 120q-15 17 -21 26z" />
    <glyph glyph-name="a" unicode="a" horiz-adv-x="600" 
d="M340 416.5q-20 12.5 -61 12.5q-32 0 -55.5 -4.5t-49.5 -15.5q-3 -1 -14.5 -6t-20 -7.5t-14.5 -2.5q-13 0 -20.5 8t-18.5 34q-3 6 -9 21t-9.5 25.5t-3.5 17.5q0 11 8.5 18t28.5 16q44 18 88 26t99 8q96 0 152 -19t78 -52.5t22 -80.5v-179q0 -52 6 -79.5t20 -56.5
q7 -14 10.5 -23.5t3.5 -15.5q0 -11 -9 -18.5t-31 -19.5l-34 -18q-17 -9 -27 -12.5t-23 -3.5q-12 0 -19.5 5.5t-15.5 18.5q-13 24 -25 64h-2q-68 -88 -175 -88q-92 0 -141.5 47.5t-49.5 132.5q0 66 29.5 107t95 61t175.5 20h32v21q0 26 -20 38.5zM225.5 136.5
q17.5 -13.5 41.5 -13.5q33 0 54 14t30 36t9 46v27h-37q-60 0 -87.5 -18.5t-27.5 -50.5q0 -27 17.5 -40.5z" />
    <glyph glyph-name="b" unicode="b" horiz-adv-x="657" 
d="M553.5 504.5q61.5 -59.5 61.5 -200.5v-27q0 -141 -86.5 -214.5t-247.5 -73.5q-93 0 -195 28q-9 3 -13 6t-5.5 9t-1.5 18v640q0 20 3.5 30t13 13.5t30.5 3.5h91q20 0 29.5 -3.5t13 -13t3.5 -27.5v-174h3q21 20 52 32.5t71 12.5h7q109 0 170.5 -59.5zM365 143
q31 15 46.5 49t15.5 92v12q0 70 -21 99.5t-67 29.5h-5q-27 0 -46 -14.5t-28.5 -38t-9.5 -50.5v-190q20 -4 35 -4q49 0 80 15z" />
    <glyph glyph-name="c" unicode="c" horiz-adv-x="534" 
d="M113 56.5q-71 67.5 -71 208.5v14q0 285 271 285q61 0 99 -10t75 -29q17 -8 21.5 -15t4.5 -18q0 -8 -5.5 -21.5t-9.5 -22t-6 -12.5q-12 -28 -20 -38.5t-20 -10.5t-40 14q-46 22 -79 22q-44 0 -73.5 -30t-29.5 -101v-34q0 -68 28.5 -98t73.5 -30q23 0 43 6t39 14l18 8t17 7
t14 3q11 0 18 -9t20 -37q20 -43 20 -57q0 -10 -7.5 -18t-24.5 -18q-27 -17 -73.5 -28.5t-99.5 -11.5q-132 0 -203 67.5z" />
    <glyph glyph-name="d" unicode="d" horiz-adv-x="658" 
d="M350 549.5q36 -15.5 55 -43.5h3v184q0 20 3.5 30t13 13.5t29.5 3.5h92q20 0 29.5 -4t13 -13.5t3.5 -29.5v-605q0 -27 -7.5 -40t-25.5 -23q-27 -15 -86.5 -24.5t-118.5 -9.5h-13q-299 0 -299 291v11q0 78 25.5 140.5t74.5 98.5t118 36h7q47 0 83 -15.5zM393 136q7 2 11 7
t4 14v158q0 40 -12.5 65.5t-32 36.5t-41.5 11h-4q-88 0 -88 -137v-25q0 -74 25.5 -105.5t78.5 -31.5h6q32 0 53 7z" />
    <glyph glyph-name="e" unicode="e" horiz-adv-x="614" 
d="M254.5 154.5q26.5 -24.5 91.5 -24.5q62 0 116 22q6 2 14 6t17 7t15 3q9 0 14 -3t11 -13.5t14 -25.5q4 -8 11 -21t10 -21t3 -14q0 -10 -5 -16.5t-16 -12.5t-34 -16q-38 -16 -87.5 -26t-100.5 -10q-117 0 -180 37.5t-84.5 100t-21.5 151.5v23q0 131 70 197.5t199 66.5
q91 0 148.5 -30t85 -93t27.5 -164v-7q0 -20 -3 -29.5t-12.5 -13.5t-30.5 -4h-298v-6q0 -39 26.5 -63.5zM268.5 425.5q-18.5 -10.5 -29.5 -29t-11 -42.5v-4h160v4q0 37 -22 59.5t-57 22.5q-22 0 -40.5 -10.5z" />
    <glyph glyph-name="f" unicode="f" horiz-adv-x="388" 
d="M130.5 705.5q48.5 44.5 138.5 44.5q43 0 68.5 -4t62.5 -14q24 -6 30.5 -14.5t6.5 -20.5q0 -9 -14 -61q-6 -21 -13 -28.5t-18 -7.5q-10 0 -22.5 3t-18.5 4q-17 4 -37 4q-18 0 -33 -10.5t-15 -39.5v-30h93q20 0 29.5 -3.5t13.5 -13t4 -29.5v-49q0 -20 -4 -29.5t-13.5 -13
t-29.5 -3.5h-93v-343q0 -20 -3.5 -29.5t-13 -13.5t-29.5 -4h-91q-21 0 -30.5 4t-13 13.5t-3.5 29.5v343h-39q-21 0 -30.5 4t-12.5 13.5t-3 29.5v4q0 20 1.5 30t8.5 16.5t23 10.5q22 6 33 14t15 20.5t4 34.5v10q0 84 48.5 128.5z" />
    <glyph glyph-name="g" unicode="g" horiz-adv-x="655" 
d="M264 18h-12q-66 0 -114 29t-73.5 85.5t-25.5 136.5v18q0 132 76.5 205t235.5 73q111 0 217 -29q13 -3 17 -10t4 -23v-380q0 -104 -22 -174t-82.5 -111t-170.5 -41q-123 0 -202 35q-30 13 -40.5 21.5t-10.5 21.5q0 9 5 23t12 29q14 30 23 42t21 12q9 0 21.5 -5l27.5 -11
q24 -11 58.5 -17.5t62.5 -6.5q64 0 88.5 37.5t24.5 101.5h-2q-55 -62 -139 -62zM402 417.5q-3 3.5 -14 4.5q-18 4 -53 4q-56 0 -82 -32t-26 -106v-3q0 -65 22.5 -95t67.5 -30h4q28 0 47 12.5t28 31.5t9 38v162q0 10 -3 13.5z" />
    <glyph glyph-name="h" unicode="h" horiz-adv-x="647" 
d="M419.5 3.5q-9.5 3.5 -13 13.5t-3.5 31v272q0 46 -13.5 76.5t-57.5 30.5q-27 0 -46 -9t-31 -21q-4 -4 -4.5 -9.5t-0.5 -14.5v-331q0 -24 -8.5 -33t-33.5 -9h-97q-24 0 -34.5 7t-10.5 28v655q0 20 3 29.5t12.5 13.5t30.5 4h92q21 0 30.5 -4.5t12.5 -14t3 -28.5v-200h2
q29 39 67.5 57t95.5 18q47 0 86 -18.5t62.5 -57t23.5 -95.5v-347q0 -20 -3.5 -29.5t-13 -13.5t-29.5 -4h-92q-20 0 -29.5 3.5z" />
    <glyph glyph-name="i" unicode="i" horiz-adv-x="316" 
d="M82.5 609q-9.5 3 -13 12t-3.5 28v57q0 21 3.5 30.5t13 13t29.5 3.5h92q21 0 30 -3.5t12.5 -13t3.5 -30.5v-57q0 -19 -3.5 -28t-13 -12t-30.5 -3h-90q-21 0 -30.5 3zM82.5 4q-9.5 4 -13 13.5t-3.5 29.5v459q0 20 3.5 29.5t13 13.5t29.5 4h92q21 0 31 -4.5t12.5 -13.5
t2.5 -29v-459q0 -20 -3.5 -30t-13 -13.5t-29.5 -3.5h-92q-20 0 -29.5 4z" />
    <glyph glyph-name="j" unicode="j" horiz-adv-x="316" 
d="M82.5 609.5q-9.5 3.5 -13 13t-3.5 30.5v53q0 21 4 30.5t13 13t29 3.5h91q21 0 30.5 -4t13 -13t3.5 -29v-54q0 -21 -3.5 -30.5t-13 -13t-30.5 -3.5h-90q-21 0 -30.5 3.5zM54 -206q-38 0 -68.5 6t-61.5 19q-24 11 -33 18t-9 20q0 8 7 25t12 27.5t7 15.5q6 14 11.5 23.5
t10.5 12.5t13 3q13 0 32 -7q12 -4 26 -7.5t28 -3.5q22 0 29.5 18.5t7.5 54.5v487q0 20 3 29.5t12.5 13.5t30.5 4h92q21 0 30.5 -4t12.5 -13.5t3 -29.5v-500q0 -212 -196 -212z" />
    <glyph glyph-name="k" unicode="k" horiz-adv-x="596" 
d="M600 39q7 -11 7 -20q0 -13 -11 -16t-36 -3h-100q-15 0 -27 1t-19.5 5.5t-14.5 16.5l-115 182q-3 5 -9.5 16t-12 18t-10.5 7h-2v-199q0 -20 -3 -29.5t-12.5 -13.5t-30.5 -4h-93q-19 0 -28 3.5t-13 13t-4 30.5v643q0 20 3.5 29.5t13 13.5t29.5 4h92q21 0 30.5 -4
t12.5 -13.5t3 -29.5v-333h2q6 0 13 9.5t19 28.5l83 138q7 12 17 16t28 4h118q25 0 36 -3t11 -16q0 -14 -24 -45l-145 -181l167 -233q18 -25 25 -36z" />
    <glyph glyph-name="l" unicode="l" horiz-adv-x="347" 
d="M249.5 148.5q6.5 -13.5 23.5 -13.5q6 0 12.5 1.5t13.5 1.5q14 0 20.5 -8t15.5 -32q8 -23 11.5 -35.5t3.5 -22.5q0 -17 -20 -27q-16 -8 -43 -14t-66 -6q-81 0 -121.5 39.5t-40.5 129.5v528q0 20 4 30t13 13.5t28 3.5h93q21 0 30.5 -3.5t12.5 -13.5t3 -31v-499
q0 -28 6.5 -41.5z" />
    <glyph glyph-name="m" unicode="m" horiz-adv-x="940" 
d="M248 484q32 43 67.5 61.5t78.5 18.5q48 0 79.5 -16t56.5 -43q36 30 73 44.5t83 14.5q95 0 144.5 -44t49.5 -127v-346q0 -20 -3 -29.5t-12.5 -13.5t-29.5 -4h-93q-20 0 -29.5 3.5t-13 13t-3.5 30.5v291q0 29 -4.5 48t-16.5 29.5t-36 10.5q-22 0 -40 -9.5t-30 -21.5
q-3 -3 -3.5 -8t-0.5 -11.5v-11.5v-317q0 -20 -3.5 -30t-13 -13.5t-29.5 -3.5h-92q-20 0 -29.5 3.5t-13 13t-3.5 30.5v291q0 29 -4.5 48t-16.5 29.5t-36 10.5q-22 0 -40 -9.5t-30 -21.5q-3 -3 -3.5 -8t-0.5 -11.5v-11.5v-317q0 -20 -3 -29.5t-12.5 -13.5t-30.5 -4h-92
q-20 0 -29.5 3.5t-13 13t-3.5 30.5v459q0 20 3.5 29.5t13 13.5t29.5 4h92q14 0 21 -4.5t9 -10.5t4 -19l6 -35h4z" />
    <glyph glyph-name="n" unicode="n" horiz-adv-x="647" 
d="M69.5 536q3.5 10 13 13.5t29.5 3.5h92q14 0 21 -5t9.5 -11.5t4.5 -18.5l6 -32h4q24 38 64.5 58t92.5 20q89 0 135 -46t46 -125v-344q0 -21 -3.5 -31t-13.5 -14t-30 -4h-92q-26 0 -35.5 9.5t-9.5 35.5v274q0 46 -13.5 76.5t-57.5 30.5q-27 0 -46 -9t-31 -21
q-3 -3 -4 -10.5t-1 -17.5v-326q0 -23 -8.5 -32.5t-33.5 -9.5h-96q-21 0 -30.5 4.5t-12.5 14t-3 28.5v459q0 20 3.5 30z" />
    <glyph glyph-name="o" unicode="o" horiz-adv-x="638" 
d="M109.5 505q67.5 60 201.5 60h25q134 0 197 -58t63 -184v-80q0 -130 -66.5 -192t-201.5 -62h-25q-137 0 -199 63t-62 187v70q0 136 67.5 196zM401 371q-7 27 -25 41t-51 14h-9q-34 0 -52.5 -14t-26 -42t-7.5 -73v-44q0 -63 18.5 -94t65.5 -31h9q34 0 52.5 14t25.5 40t7 67
v50q0 45 -7 72z" />
    <glyph glyph-name="p" unicode="p" horiz-adv-x="658" 
d="M308 5.5q-36 15.5 -55 43.5h-3v-194q0 -20 -3.5 -30t-13 -13.5t-29.5 -3.5h-92q-20 0 -29.5 4t-13 13.5t-3.5 29.5v604q0 27 7.5 40.5t25.5 22.5q43 22 101 32.5t121 10.5h10q153 0 219 -69.5t66 -196.5v-47q0 -77 -22.5 -136t-70.5 -92.5t-121 -33.5h-11q-47 0 -83 15.5
zM294 421q-17 -3 -28 -8q-10 -4 -13 -9t-3 -16v-148q0 -40 12.5 -65.5t32 -36.5t41.5 -11h8q46 0 65 32.5t19 94.5v33q0 54 -10 83.5t-30.5 41.5t-55.5 12h-8q-13 0 -30 -3z" />
    <glyph glyph-name="q" unicode="q" horiz-adv-x="657" 
d="M73.5 423.5q31.5 65.5 98.5 103.5t170 38q62 0 112.5 -7t105.5 -22q14 -4 20.5 -8.5t8.5 -14t2 -29.5v-629q0 -20 -3.5 -29.5t-13 -13.5t-29.5 -4h-92q-20 0 -29.5 3.5t-13 13t-3.5 30.5v190h-2q-21 -23 -58.5 -39t-85.5 -16h-11q-62 0 -109 31.5t-73 90.5t-26 139v22
q0 85 31.5 150.5zM403 413q-4 6 -17 8q-20 3 -50 3q-55 0 -80.5 -37.5t-25.5 -120.5v-5q0 -64 18.5 -98.5t61.5 -34.5h4q42 0 67.5 23t25.5 69v172q0 15 -4 21z" />
    <glyph glyph-name="r" unicode="r" horiz-adv-x="485" 
d="M69.5 535.5q3.5 9.5 13 13.5t29.5 4h81q17 0 26 -5.5t12 -13.5t6 -25l7 -38h5q27 48 61.5 71t85.5 23q34 0 64 -10q10 -3 18.5 -7t13 -9.5t4.5 -15.5q0 -9 -5 -28.5t-8 -31.5t-5 -17q-7 -24 -12.5 -36t-11.5 -17t-16 -5q-6 0 -14 2t-14 4.5t-10 3.5q-14 5 -29.5 9
t-29.5 4q-42 0 -66.5 -33t-24.5 -119v-213q0 -20 -3.5 -29.5t-13 -13t-29.5 -3.5h-89q-22 0 -32.5 4t-13.5 13.5t-3 29.5v459q0 20 3.5 29.5z" />
    <glyph glyph-name="s" unicode="s" horiz-adv-x="546" 
d="M50 40q-15 10 -15 25q0 10 3 19.5t6.5 17t6.5 13.5q12 27 19.5 37.5t19.5 10.5t31 -8q39 -15 82.5 -24t74.5 -9q36 0 54.5 10.5t18.5 29.5q0 14 -7 23t-28.5 15t-64.5 10q-108 10 -157 50.5t-49 115.5q0 52 16.5 87t52.5 61q28 22 70.5 31.5t102.5 9.5q84 0 146 -19
q28 -9 42 -17.5t14 -22.5q0 -7 -3 -18t-6.5 -19.5t-5.5 -14.5q-6 -18 -12 -30t-11 -16t-12 -4q-8 0 -17 2t-16.5 5t-14.5 5q-14 5 -44 10t-47 5q-44 0 -58 -6q-26 -9 -26 -33q0 -14 6.5 -21.5t26 -12t61.5 -8.5q77 -7 124 -29t68 -58t21 -88q0 -88 -67 -135t-198 -47
q-40 0 -83 7.5t-79 19.5q-31 10 -46 20z" />
    <glyph glyph-name="t" unicode="t" horiz-adv-x="467" 
d="M93.5 646q7.5 13 31.5 24l58 26q32 13 55 13q20 0 26 -9.5t6 -28.5v-140h122q21 0 30.5 -4t12.5 -13.5t3 -29.5v-47q0 -20 -3 -29.5t-12.5 -13.5t-30.5 -4h-122v-193q0 -33 12 -47.5t42 -14.5q21 0 55 12q9 3 17.5 5.5t14.5 2.5q9 0 14.5 -4t9.5 -13t8 -21
q8 -24 12.5 -38.5t4.5 -24.5q0 -12 -8.5 -19.5t-28.5 -16.5q-31 -13 -70.5 -22t-70.5 -9q-99 0 -147.5 45.5t-48.5 147.5v210h-39q-20 0 -29.5 4t-13 13.5t-3.5 29.5v22q0 17 7 25.5t26 13.5q22 6 33 14t15 20.5t4 34.5v39q0 27 7.5 40z" />
    <glyph glyph-name="u" unicode="u" horiz-adv-x="647" 
d="M577.5 16.5q-3.5 -9.5 -13 -13t-29.5 -3.5h-81q-22 0 -31 7.5t-14 27.5l-5 26h-4q-24 -35 -65.5 -54t-93.5 -19q-56 0 -97 21.5t-62.5 61.5t-21.5 94v341q0 20 3.5 30t13 13.5t29.5 3.5h92q20 0 29.5 -3.5t13 -13t3.5 -30.5v-296q0 -30 2.5 -46t15 -27t40.5 -11t52 11.5
t35 25.5q5 6 6.5 12.5t1.5 17.5v313q0 21 3.5 30.5t13 13t29.5 3.5h92q20 0 29.5 -3.5t13 -13t3.5 -30.5v-459q0 -21 -3.5 -30.5z" />
    <glyph glyph-name="v" unicode="v" horiz-adv-x="557" 
d="M199 3q-11 3 -17.5 12t-12.5 28l-150 428q-9 25 -13.5 40.5t-4.5 22.5q0 19 26 19h113q14 0 21.5 -1.5t13 -7.5t9.5 -18l78 -237q6 -16 10.5 -35.5t5.5 -36.5h4q2 8 7.5 31.5t12.5 43.5l79 234q6 18 14.5 22.5t26.5 4.5h107q17 0 23.5 -5.5t6.5 -14.5q0 -7 -2 -14.5
t-7 -19.5l-176 -457q-7 -18 -12.5 -26.5t-16 -12t-32.5 -3.5h-83q-20 0 -31 3z" />
    <glyph glyph-name="w" unicode="w" horiz-adv-x="785" 
d="M130 11q-12 11 -17 38l-82 421q-2 10 -6 31t-4 27q0 10 5.5 17.5t19.5 7.5h106q14 0 21 -5.5t9 -20.5l38 -249q4 -27 7 -77h4q2 31 14 78l63 242q5 18 13.5 25t29.5 7h79q17 0 25.5 -3t12.5 -9.5t7 -19.5l65 -242q3 -13 8 -37.5t6 -40.5h4q4 56 7 77l32 242q2 17 11 25
t27 8h105q23 0 23 -23q0 -11 -6 -40l-85 -446q-4 -23 -15.5 -33.5t-30.5 -10.5h-94q-18 0 -28 3.5t-16.5 12.5t-12.5 27l-67 255q-4 16 -8 38t-6 31h-4q-2 -17 -7.5 -40t-7.5 -29l-64 -254q-5 -16 -10 -25t-15.5 -14t-29.5 -5h-86q-28 0 -40 11z" />
    <glyph glyph-name="x" unicode="x" horiz-adv-x="529" 
d="M59 453q-21 37 -28.5 53t-7.5 26q0 21 26 21h115q19 0 28.5 -3.5t17 -13.5t18.5 -32l26 -53q10 -21 16 -43h2q2 19 15 46l25 50q10 22 18 32t18 13.5t28 3.5h108q26 0 26 -21q0 -10 -5.5 -22.5t-19.5 -36.5l-111 -193l111 -183q18 -30 26 -48t8 -28q0 -21 -26 -21h-123
q-23 0 -34.5 8t-20.5 28l-38 77q-12 25 -14 38h-2q-3 -19 -14 -42l-30 -63q-8 -19 -15 -28t-18 -13.5t-30 -4.5h-113q-26 0 -26 21q0 10 7 25t28 51l108 186z" />
    <glyph glyph-name="y" unicode="y" horiz-adv-x="581" 
d="M42 -184q-2 1 -13 5t-17.5 11t-6.5 16q0 7 4 20t12 32q2 5 9 23.5t14.5 25.5t17.5 7q7 0 18 -3.5t13 -4.5q12 -4 25 -7.5t24 -3.5q23 0 38 14t30 48q4 7 4 16q0 6 -3 13l-179 424q-16 38 -21.5 55t-5.5 26q0 20 27 20h113q17 0 25 -2.5t14 -11t12 -27.5l78 -211
q15 -44 26 -85h3q14 42 17 50l12 37l68 218q5 14 10 20.5t12 9t19 2.5h112q26 0 26 -19q0 -7 -3.5 -18.5t-7.5 -22.5l-190 -519q-23 -56 -50 -94.5t-68 -61t-98 -22.5q-70 0 -120 20z" />
    <glyph glyph-name="z" unicode="z" horiz-adv-x="505" 
d="M43.5 414.5q-9.5 3.5 -13 13t-3.5 30.5v48q0 20 3.5 30t13 13.5t29.5 3.5h349q20 0 29.5 -4t13 -13.5t3.5 -29.5v-42q0 -23 -5.5 -38t-22.5 -39l-188 -247v-2h196q20 0 29.5 -4t13 -13.5t3.5 -29.5v-44q0 -21 -3.5 -30.5t-13 -13t-29.5 -3.5h-373q-20 0 -29.5 3.5
t-13 13.5t-3.5 30v25q0 23 1.5 35.5t7.5 23.5t19 27l191 251v2h-175q-20 0 -29.5 3.5z" />
    <glyph glyph-name="braceleft" unicode="{" horiz-adv-x="429" 
d="M66 250.5q-20 4.5 -26 15t-6 34.5v35q0 31 7.5 39.5t24.5 12t27 6.5q23 3 35.5 14.5t17.5 35.5t4 65v113q0 76 19 122.5t61 68.5t113 22h21q20 0 29.5 -4t13 -14t3.5 -30v-42q0 -26 -7 -37t-30 -11h-6q-27 0 -38.5 -8.5t-15 -30.5t-3.5 -71v-49v-3q0 -62 -8 -101.5
t-28.5 -67t-59.5 -45.5v-2q39 -18 59.5 -45.5t28.5 -67.5t8 -102v-20q0 -71 3 -98.5t15 -37t43 -9.5h4q19 0 27 -9.5t8 -29.5v-52q0 -20 -3 -29.5t-12.5 -13.5t-30.5 -4h-21q-70 0 -112.5 22t-61.5 67t-19 116v124q0 42 -4.5 64.5t-16.5 34t-35 16.5q-8 2 -28 6.5z" />
    <glyph glyph-name="bar" unicode="|" horiz-adv-x="634" 
d="M252.5 -196q-9.5 4 -13 13.5t-3.5 29.5v843q0 20 3.5 30t13 13.5t29.5 3.5h71q20 0 29.5 -3.5t13 -13.5t3.5 -30v-843q0 -20 -3 -29.5t-12.5 -13.5t-30.5 -4h-71q-20 0 -29.5 4z" />
    <glyph glyph-name="braceright" unicode="}" horiz-adv-x="429" 
d="M294.5 225q-12.5 -11 -17.5 -34.5t-4 -64.5v-113q0 -76 -19 -122.5t-61 -68.5t-113 -22h-21q-20 0 -29.5 4t-13 14t-3.5 30v42q0 26 7 37t30 11h6q27 0 38.5 8.5t15 30.5t3.5 71v49v3q0 62 8 101.5t28.5 67t59.5 45.5v2q-39 18 -59.5 45.5t-28.5 67.5t-8 102v20
q0 71 -3 98.5t-15 37t-43 9.5h-4q-19 0 -27 9.5t-8 29.5v52q0 20 3 29.5t12.5 13.5t30.5 4h21q70 0 112.5 -22t61.5 -67t19 -116v-124q0 -42 4.5 -64.5t16 -33.5t35.5 -17q7 -2 27.5 -6t26.5 -15t6 -35v-35q0 -26 -5 -36t-13.5 -13t-40.5 -9q-23 -5 -35.5 -16z" />
    <glyph glyph-name="asciitilde" unicode="~" horiz-adv-x="745" 
d="M318 477.5q36 -11.5 83 -32.5q37 -16 58 -23.5t43 -7.5q27 0 47 7t43 24q25 18 36.5 24.5t23.5 6.5q23 0 23 -25v-69q0 -19 -3 -30.5t-11.5 -21.5t-27.5 -23q-51 -38 -125 -38q-32 0 -61 6.5t-50.5 14.5t-54.5 23q-32 16 -54.5 23.5t-44.5 7.5q-27 0 -48 -7t-43 -24
q-23 -18 -35.5 -24.5t-24.5 -6.5q-11 0 -17 6.5t-6 18.5v69q0 18 3 29t12 22t27 24q49 38 126 38q45 0 81 -11.5z" />
    <glyph glyph-name="uni00A0" unicode="&#xa0;" horiz-adv-x="253" 
 />
    <glyph glyph-name="exclamdown" unicode="&#xa1;" horiz-adv-x="389" 
d="M279 550q10 -3 14 -11.5t3 -25.5v-89q-1 -19 -4 -27t-11.5 -10.5t-29.5 -2.5h-114q-19 0 -28.5 3.5t-12.5 11.5t-3 25v89q-1 17 3 25.5t14 11.5t30 3h109q20 0 30 -3zM245 314q12 -4 17.5 -15.5t7.5 -35.5l23 -393q2 -24 -2 -35t-15.5 -15t-36.5 -4h-93q-24 0 -35.5 4.5
t-15.5 15.5t-2 34l24 393q2 24 6 35t15.5 15.5t38.5 4.5h32q24 0 36 -4z" />
    <glyph glyph-name="cent" unicode="&#xa2;" horiz-adv-x="718" 
d="M140.5 175q-47.5 66 -47.5 181v14q0 285 271 285q19 0 28 -1l23 110q2 11 6.5 16t11 6.5t20.5 1.5h27q13 0 17.5 -2t4.5 -9l-2 -16l-24 -119q31 -9 62 -26q16 -10 21 -16.5t5 -16.5q0 -8 -5.5 -21.5t-9.5 -22t-6 -12.5q-12 -28 -20 -38.5t-20 -10.5q-6 0 -15 3.5
t-15.5 6.5t-9.5 4l-17 7l-57 -278h6q17 1 29.5 5.5t20.5 8t10 4.5l18 8t17 7t14 3q10 0 18.5 -11t21.5 -40q2 -4 8 -16.5t10 -23.5t4 -16q0 -11 -7.5 -18.5t-24.5 -15.5q-38 -17 -74.5 -26.5t-92.5 -9.5h-7l-22 -110q-4 -16 -11.5 -20t-26.5 -4h-27q-13 0 -17.5 2.5
t-4.5 9.5q0 3 2 15l24 116q-89 20 -136.5 86zM284.5 288q9.5 -25 25.5 -38l53 262h-2q-25 0 -44.5 -15t-30.5 -44.5t-11 -69.5v-34q0 -36 9.5 -61z" />
    <glyph glyph-name="sterling" unicode="&#xa3;" horiz-adv-x="718" 
d="M547 431.5q9 -3.5 12.5 -13t3.5 -30.5v-50q0 -20 -3 -29.5t-12.5 -13.5t-30.5 -4h-116q10 -28 10 -53q0 -21 -9 -36.5t-29 -35.5h262q20 0 29.5 -3.5t13 -13t3.5 -30.5v-72q0 -20 -3.5 -30t-13 -13.5t-29.5 -3.5h-506q-20 0 -29.5 3.5t-13 13t-3.5 30.5v72q0 20 3.5 29.5
t13 13.5t29.5 4h44q12 0 22.5 9t17.5 25t7 38q0 20 -2.5 31t-7.5 22h-75q-20 0 -29 3.5t-13 13t-4 30.5v50q0 20 3.5 30t13 13.5t29.5 3.5h16q-23 28 -32 52t-9 55q0 96 71.5 149.5t214.5 53.5q67 0 119.5 -16t101.5 -51q40 -28 59 -49.5t19 -35.5q0 -11 -8 -21t-28 -28
l-21 -19q-24 -21 -33 -27.5t-18 -6.5t-19 7t-27 22q-6 6 -11 10t-9 7q-26 21 -52 31.5t-61 10.5q-47 0 -71 -16t-24 -45q0 -22 9 -44.5t21 -38.5h174q21 0 30 -3.5z" />
    <glyph glyph-name="currency" unicode="&#xa4;" horiz-adv-x="669" 
d="M130 488l-55 54q-9 9 -9 18q0 8 7 15l50 51q8 8 17 8q10 0 17 -8l56 -55q56 32 120 32q29 0 60 -8t59 -24l57 55q8 8 17 8q10 0 17 -8l49 -50q8 -7 8 -16t-8 -17l-57 -55q32 -55 32 -116q0 -60 -32 -117l59 -55q4 -4 6.5 -7.5t2.5 -7.5q0 -6 -8 -14l-52 -52q-8 -8 -17 -8
q-8 0 -18 8l-56 54q-27 -16 -58 -23.5t-61 -7.5q-67 0 -120 31l-56 -54q-8 -8 -17 -8q-7 0 -17 8l-48 49q-9 9 -9 18q0 8 7 15l57 54q-32 57 -32 117q0 61 32 116zM233 316q16 -26 42.5 -41.5t57.5 -15.5t57.5 15.5t42 41.5t15.5 57t-15.5 57t-42 41t-57.5 15t-57.5 -15
t-42.5 -41t-16 -57t16 -57z" />
    <glyph glyph-name="yen" unicode="&#xa5;" horiz-adv-x="718" 
d="M252 298q-5 13 -20 42h-117q-20 0 -29.5 4t-13 13.5t-3.5 29.5v30q0 20 3.5 30t13 13.5t29.5 3.5h53l-98 191q-16 30 -20 39.5t-4 20.5q0 16 24 16h143q16 0 23 -6.5t13 -18.5l29 -62q33 -69 51.5 -111t25.5 -69h5q7 31 28.5 78.5t64.5 133.5l17 34q6 11 13.5 16t19.5 5
h145q12 0 17.5 -4t5.5 -12q0 -9 -4 -18.5t-8 -17t-7 -12.5l-105 -203h58q20 0 29.5 -3.5t13 -13t3.5 -30.5v-30q0 -20 -3 -29.5t-12.5 -13.5t-30.5 -4h-122q-14 -25 -18.5 -37.5t-6.5 -28.5h147q20 0 29.5 -3.5t13 -13t3.5 -30.5v-30q0 -20 -3 -29.5t-12.5 -13.5t-30.5 -4
h-148v-103q0 -21 -3.5 -30.5t-12.5 -13t-30 -3.5h-102q-21 0 -31 3.5t-13.5 13t-3.5 29.5v104h-146q-20 0 -29.5 4t-13 13.5t-3.5 29.5v30q0 20 3.5 30t13 13.5t29.5 3.5h144q-2 11 -7 24z" />
    <glyph glyph-name="brokenbar" unicode="&#xa6;" horiz-adv-x="634" 
d="M239.5 720.5q3.5 9.5 13 13t29.5 3.5h71q20 0 29.5 -3.5t13 -13t3.5 -29.5v-272q0 -20 -3 -29.5t-13 -13.5t-31 -4h-70q-20 0 -29.5 4t-13 13.5t-3.5 29.5v272q0 20 3.5 29.5zM239.5 148.5q3.5 9.5 13 13t29.5 3.5h71q20 0 29.5 -3.5t13 -13t3.5 -29.5v-272
q0 -20 -3 -29.5t-12.5 -13.5t-30.5 -4h-70q-21 0 -30.5 3.5t-13 13.5t-3.5 30v272q0 20 3.5 29.5z" />
    <glyph glyph-name="section" unicode="&#xa7;" horiz-adv-x="591" 
d="M58 -84q-15 10 -15 25q0 10 3 19.5t6.5 17t6.5 13.5q12 27 19.5 37.5t19.5 10.5t31 -8q85 -33 149 -33q82 0 82 51q0 23 -16 37t-51 28l-96 38q-57 22 -86.5 48t-38.5 51t-9 55q0 41 21 74t71 58q-36 21 -51.5 51.5t-15.5 73.5q0 57 29.5 98t82.5 62t122 21q46 0 81.5 -5
t67.5 -14q27 -7 41.5 -16.5t14.5 -23.5q0 -9 -4.5 -23.5t-10.5 -28.5q-6 -18 -12 -30t-11 -16t-12 -4q-11 0 -26.5 5t-21.5 7q-25 7 -49 11t-52 4q-35 0 -49 -12.5t-14 -29.5q0 -13 6 -22t18.5 -16.5t37.5 -18.5l65 -28q56 -24 89.5 -46.5t50.5 -51t17 -66.5q0 -46 -22 -76
t-63 -49q41 -29 57 -65t16 -79q0 -57 -31.5 -98t-90.5 -62t-140 -21q-44 0 -89.5 7.5t-81.5 19.5q-31 10 -46 20zM371.5 269.5q7.5 11.5 7.5 22.5q0 17 -9 29.5t-34 23.5l-79 33q-10 -7 -17 -19t-7 -25q0 -18 11 -30.5t37 -22.5l74 -29q9 6 16.5 17.5z" />
    <glyph glyph-name="dieresis" unicode="&#xa8;" horiz-adv-x="500" 
d="M44.5 609q-9.5 3 -13 12t-3.5 28v62q0 19 3 27.5t11.5 11.5t27.5 3h97q19 0 28 -3t12 -11.5t3 -27.5v-62q0 -19 -3.5 -28t-13 -12t-30.5 -3h-88q-21 0 -30.5 3zM306.5 609q-9.5 3 -13 12t-3.5 28v62q0 19 3 27.5t11.5 11.5t27.5 3h97q19 0 28 -3t12 -11.5t3 -27.5v-62
q0 -19 -3.5 -28t-13 -12t-30.5 -3h-88q-21 0 -30.5 3z" />
    <glyph glyph-name="copyright" unicode="&#xa9;" horiz-adv-x="871" 
d="M97 557q47 88 134.5 138t203.5 50q117 0 204.5 -49.5t134.5 -135.5t47 -195t-47 -195.5t-134.5 -136t-204.5 -49.5t-204 48t-134 133.5t-47 194.5t47 197zM196 224q32 -63 94 -99.5t147 -36.5q83 0 144.5 37t93.5 100t32 140t-32 140t-93.5 99.5t-146.5 36.5
q-84 0 -145.5 -36.5t-93.5 -99.5t-32 -140q0 -78 32 -141zM246 356v10q0 206 201 206q45 0 73 -7.5t56 -20.5q12 -6 15.5 -11t3.5 -13q0 -6 -3.5 -15.5t-7 -16t-4.5 -9.5q-10 -20 -16 -27t-14 -7q-10 0 -30 10q-12 6 -28 10.5t-30 4.5q-33 0 -55 -22t-22 -73v-24
q0 -49 21 -70.5t55 -21.5q25 0 60 13q6 3 13 6t13 5t11 2q8 0 13.5 -6t14.5 -27q6 -12 10.5 -22.5t4.5 -18.5t-5.5 -13t-19.5 -13q-18 -12 -52.5 -20t-74.5 -8q-203 0 -203 199z" />
    <glyph glyph-name="ordfeminine" unicode="&#xaa;" horiz-adv-x="441" 
d="M246.5 640q-12.5 9 -43.5 9q-33 0 -76 -16q-2 -1 -10.5 -4t-15.5 -5t-13 -2q-9 0 -15 8t-10.5 17t-5.5 12q-11 25 -11 37q0 9 12 17t35 15q54 17 120 17q72 0 112 -15.5t55.5 -43.5t15.5 -70v-120q0 -46 17 -77q7 -13 7 -21q0 -14 -26 -27l-34 -17q-2 -1 -6.5 -3
t-10.5 -4t-12 -2q-9 0 -15.5 4t-12.5 13q-5 8 -9.5 17.5t-9.5 21.5h-2q-44 -56 -118 -56q-69 0 -109 32t-40 92q0 45 23.5 74.5t76.5 45t141 15.5h3v9q0 18 -12.5 27zM198 445q32 0 46.5 18.5t14.5 44.5v12l-21 -1q-27 -1 -43 -4t-27.5 -11.5t-11.5 -26.5q0 -32 42 -32z" />
    <glyph glyph-name="guillemotleft" unicode="&#xab;" horiz-adv-x="740" 
d="M358 94q11 -15 11 -26t-10 -16.5t-26 -5.5h-96q-29 0 -41.5 2.5t-20.5 10t-23 27.5l-82 114q-18 25 -23 36.5t-5 32.5v16q0 16 2.5 25.5t9 20t16.5 23.5l82 114q15 20 23 27.5t20.5 10t41.5 2.5h96q16 0 26 -5.5t10 -16.5t-11 -26l-131 -183zM687 94q11 -15 11 -26
t-10 -16.5t-26 -5.5h-96q-29 0 -41.5 2.5t-20.5 10t-23 27.5l-82 114q-18 25 -23 36.5t-5 32.5v16q0 16 2.5 25.5t9 20t16.5 23.5l82 114q15 20 23 27.5t20.5 10t41.5 2.5h96q16 0 26 -5.5t10 -16.5t-11 -26l-131 -183z" />
    <glyph glyph-name="logicalnot" unicode="&#xac;" horiz-adv-x="745" 
d="M671 250.5q-4 -9.5 -13.5 -13t-29.5 -3.5h-65q-21 0 -30.5 3.5t-13 13t-3.5 29.5v178h-401q-20 0 -29.5 4t-13 13.5t-3.5 29.5v51q0 21 3.5 30.5t13 13t29.5 3.5h514q20 0 29.5 -3.5t13 -13.5t3.5 -30v-276q0 -20 -4 -29.5z" />
    <glyph glyph-name="uni00AD" unicode="&#xad;" horiz-adv-x="372" 
d="M73.5 217.5q-9.5 3.5 -13 13t-3.5 30.5v77q0 20 3.5 29.5t13 13.5t29.5 4h164q21 0 30.5 -4t12.5 -13.5t3 -29.5v-77q0 -21 -3.5 -30.5t-13 -13t-29.5 -3.5h-163q-21 0 -30.5 3.5z" />
    <glyph glyph-name="registered" unicode="&#xae;" horiz-adv-x="590" 
d="M79.5 623.5q29.5 55.5 85 88.5t130.5 33t130.5 -33t85 -88.5t29.5 -123.5t-29.5 -123.5t-85 -88.5t-130.5 -33t-130.5 33t-85 88.5t-29.5 123.5t29.5 123.5zM148 415q19 -38 56.5 -59.5t90.5 -21.5t90.5 21.5t56.5 59.5t19 85t-19 85t-56.5 59.5t-90.5 21.5t-90.5 -21.5
t-56.5 -59.5t-19 -85t19 -85zM403 416.5q3 -3.5 4.5 -7t1.5 -5.5q0 -3 -3.5 -4.5t-12.5 -1.5h-48q-14 0 -19 8l-38 65q-2 3 -5 4t-6 1h-4v-65q0 -7 -3 -10t-12 -3h-43q-16 0 -16 13v187q0 7 3.5 10t12.5 3h101q46 0 66.5 -17t20.5 -49q0 -26 -11.5 -40t-36.5 -19l44 -64
q1 -2 4 -5.5zM316.5 527q6.5 6 6.5 17t-6.5 16.5t-24.5 5.5h-19v-45h19q18 0 24.5 6z" />
    <glyph glyph-name="macron" unicode="&#xaf;" horiz-adv-x="500" 
d="M395 623h-283q-20 0 -29 3.5t-13 13t-4 30.5v19q0 21 3.5 30.5t13 13t29.5 3.5h276q20 0 29.5 -3.5t13 -13t3.5 -30.5v-22q0 -44 -39 -44z" />
    <glyph glyph-name="degree" unicode="&#xb0;" horiz-adv-x="380" 
d="M44.5 661.5q22.5 38.5 61 61t84.5 22.5t84.5 -22.5t61 -61t22.5 -84.5t-22.5 -84.5t-61 -61t-84.5 -22.5t-84.5 22.5t-61 61t-22.5 84.5t22.5 84.5zM131.5 543.5q9.5 -15.5 25 -25t33.5 -9.5t33.5 9.5t25 25t9.5 33.5t-9.5 33.5t-25 25t-33.5 9.5t-33.5 -9.5t-25 -25
t-9.5 -33.5t9.5 -33.5z" />
    <glyph glyph-name="plusminus" unicode="&#xb1;" horiz-adv-x="745" 
d="M451 230q0 -20 -4 -29.5t-13.5 -13t-29.5 -3.5h-65q-21 0 -30.5 3.5t-13 13t-3.5 29.5v138h-177q-20 0 -29.5 4t-13 13.5t-3.5 29.5v51q0 21 3.5 30.5t13 13t29.5 3.5h177v138q0 20 3.5 29.5t13.5 13t30 3.5h65q20 0 29.5 -3.5t13.5 -13t4 -29.5v-138h178q20 0 29.5 -3.5
t13 -13.5t3.5 -30v-51q0 -20 -3.5 -29.5t-13 -13.5t-29.5 -4h-178v-138zM658.5 121.5q9.5 -3.5 13 -13.5t3.5 -30v-51q0 -20 -3.5 -29.5t-13 -13.5t-29.5 -4h-514q-20 0 -29.5 4t-13 13.5t-3.5 29.5v51q0 21 3.5 30.5t13 13t29.5 3.5h514q20 0 29.5 -3.5z" />
    <glyph glyph-name="twosuperior" unicode="&#xb2;" 
d="M149 757.5q-6 -6.5 -10.5 -8.5t-11.5 -2q-6 0 -16.5 6t-18 11t-11.5 8q-17 12 -22 18t-5 14q0 12 15.5 30.5t37.5 32.5q30 20 61 27.5t80 7.5q55 0 96 -16t63.5 -46.5t22.5 -72.5q0 -53 -30.5 -82.5t-69.5 -44.5q-34 -13 -56 -22.5t-38 -17.5q-18 -9 -27 -20t-11 -27h196
q15 0 22 -3t10 -10.5t3 -22.5v-28q0 -16 -3 -23.5t-10.5 -10t-21.5 -2.5h-300q-15 0 -22 3t-10 10.5t-3 22.5v33q0 59 28 98t72 62q22 12 45.5 21.5t31.5 13.5q23 10 34.5 21.5t11.5 29.5q0 15 -12.5 23.5t-37.5 8.5q-23 0 -40 -8.5t-32 -22.5q-5 -5 -11 -11.5z" />
    <glyph glyph-name="threesuperior" unicode="&#xb3;" 
d="M268 621q-14 10 -47 10h-45q-10 0 -15 2t-7.5 8.5t-2.5 21.5v34q0 15 2.5 21.5t8 7.5t19.5 1h35q30 0 43 12.5t13 26.5q0 18 -12.5 27.5t-38.5 9.5t-57 -16q-19 -10 -22 -13q-7 -4 -14 -7t-12 -3q-8 0 -15.5 6.5t-20.5 25.5q-18 27 -18 40q0 8 12 17.5t38 22.5
q25 12 55 19t74 7q76 0 124 -27t48 -86q0 -44 -24.5 -70t-65.5 -32q45 -6 72 -33.5t27 -76.5q0 -37 -21 -67t-62.5 -48t-102.5 -18q-46 0 -77 7.5t-58 22.5q-24 14 -40 31.5t-16 27.5q0 8 5.5 15t22.5 23q19 17 25.5 22t14.5 5q5 0 13 -5.5t15 -12.5l16 -13q20 -13 34 -18.5
t38 -5.5q53 0 53 45q0 23 -14 33z" />
    <glyph glyph-name="acute" unicode="&#xb4;" horiz-adv-x="500" 
d="M194 595h-41q-38 0 -38 20q0 7 3.5 15.5t8.5 16.5l68 121q9 16 20 23t32 7h96q23 0 32.5 -4t9.5 -15q0 -8 -6 -17t-21 -26l-110 -120q-19 -21 -54 -21z" />
    <glyph glyph-name="mu" unicode="&#xb5;" horiz-adv-x="671" 
d="M597 154.5q6 -26.5 20 -54.5q7 -13 10.5 -22.5t3.5 -16.5q0 -11 -9.5 -19.5t-30.5 -18.5l-37 -19q-17 -9 -28 -12t-21 -3q-14 0 -22 7.5t-17 23.5q-9 17 -18 39h-1q-46 -71 -114 -71q-26 0 -44.5 7t-34.5 26v-166q0 -20 -3.5 -29.5t-13 -13.5t-29.5 -4h-92q-20 0 -29 3.5
t-13 13t-4 30.5v651q0 20 4 30t13.5 13.5t28.5 3.5h92q20 0 29.5 -3.5t13 -13.5t3.5 -31l-1 -289q0 -37 10 -56t25.5 -25.5t38.5 -6.5q21 0 39 7.5t26 15.5q7 7 9.5 11t4 15t1.5 35v294q0 20 3.5 30t13 13.5t29.5 3.5h92q20 0 29.5 -3.5t13 -13.5t3.5 -30v-279
q0 -46 6 -72.5z" />
    <glyph glyph-name="paragraph" unicode="&#xb6;" horiz-adv-x="720" 
d="M625.5 -150.5q-3.5 -9.5 -13 -13t-29.5 -3.5h-39q-20 0 -29.5 3.5t-13 13t-3.5 30.5v733h-114v-733q0 -21 -3.5 -30.5t-13 -13t-29.5 -3.5h-39q-20 0 -29.5 3.5t-13 13t-3.5 30.5v380q-71 5 -122 34t-78.5 78t-27.5 115q0 75 32 130t92 84.5t142 29.5h366q20 0 29.5 -3.5
t13 -13.5t3.5 -30v-24q0 -20 -3.5 -30t-13 -13.5t-29.5 -3.5h-28v-733q0 -21 -3.5 -30.5z" />
    <glyph glyph-name="periodcentered" unicode="&#xb7;" horiz-adv-x="357" 
d="M94 289q-10 3 -13.5 11t-3.5 26v89q0 17 3 25.5t12.5 11.5t29.5 3h113q21 0 30 -2.5t12 -10.5t3 -27v-89q0 -18 -3.5 -26t-13.5 -11t-30 -3h-108q-21 0 -31 3z" />
    <glyph glyph-name="cedilla" unicode="&#xb8;" horiz-adv-x="500" 
d="M175 -306.5q-25 5.5 -54 15.5q-23 9 -34.5 17.5t-11.5 18.5q0 6 7 19l12 21q6 11 11 13.5t12 2.5q5 0 11.5 -2t12.5 -4q22 -9 40.5 -14t47.5 -5q27 0 46.5 12.5t19.5 38.5q0 41 -39 41q-8 0 -15 -2.5t-10.5 -4t-4.5 -2.5q-5 -3 -11 -5.5t-13 -2.5q-10 0 -24.5 4t-25 11
t-10.5 16t2.5 16.5t7.5 17.5l58 122h96l-45 -88q18 4 36 4q37 0 66 -14.5t45.5 -41.5t16.5 -64q0 -49 -27 -82t-69 -48.5t-89 -15.5q-40 0 -65 5.5z" />
    <glyph glyph-name="onesuperior" unicode="&#xb9;" 
d="M112 455.5q-7 2.5 -10 10t-3 23.5v28q0 15 2.5 22.5t10 10.5t22.5 3h71v210l-51 -43q-15 -13 -25 -13t-24 19l-18 23q-5 7 -8.5 13t-3.5 11q0 7 4 11.5t16 13.5l109 84q8 6 14 8.5t17 2.5h64q15 0 22 -2.5t10 -10t3 -23.5v-304h63q15 0 22.5 -3t10 -10.5t2.5 -22.5v-28
q0 -15 -2 -22.5t-9.5 -10.5t-23.5 -3h-263q-15 0 -22 2.5z" />
    <glyph glyph-name="ordmasculine" unicode="&#xba;" horiz-adv-x="446" 
d="M67 698.5q47 46.5 146 46.5h21q99 0 145.5 -46.5t46.5 -146.5v-14q0 -100 -46.5 -146.5t-145.5 -46.5h-21q-99 0 -146 46.5t-47 146.5v14q0 100 47 146.5zM268.5 622q-12.5 24 -41.5 24h-7q-30 0 -42.5 -24t-12.5 -71v-12q0 -46 12.5 -70.5t42.5 -24.5h7q30 0 42 24
t12 71v12q0 47 -12.5 71z" />
    <glyph glyph-name="guillemotright" unicode="&#xbb;" horiz-adv-x="740" 
d="M56 486q0 11 10 16.5t26 5.5h96q29 0 41.5 -2.5t20.5 -10t23 -27.5l82 -114q18 -25 23 -36.5t5 -32.5v-16q0 -16 -2.5 -25.5t-9 -20t-16.5 -23.5l-82 -114q-15 -20 -23 -27.5t-20.5 -10t-41.5 -2.5h-96q-16 0 -26 5.5t-10 16.5t11 26l131 183l-131 183q-11 15 -11 26z
M385 486q0 11 10 16.5t26 5.5h96q29 0 41.5 -2.5t20.5 -10t23 -27.5l82 -114q18 -25 23 -36.5t5 -32.5v-16q0 -16 -2.5 -25.5t-9 -20t-16.5 -23.5l-82 -114q-15 -20 -23 -27.5t-20.5 -10t-41.5 -2.5h-96q-16 0 -26 5.5t-10 16.5t11 26l131 183l-131 183q-11 15 -11 26z" />
    <glyph glyph-name="onequarter" unicode="&#xbc;" horiz-adv-x="1154" 
d="M112 298.5q-7 2.5 -10 10t-3 23.5v28q0 15 2.5 22.5t10 10.5t22.5 3h71v210l-51 -43q-15 -13 -25 -13t-24 19l-18 23q-5 7 -8.5 13t-3.5 11q0 7 4 11.5t16 13.5l109 84q8 6 14 8.5t17 2.5h64q15 0 22 -2.5t10 -10t3 -23.5v-304h63q15 0 22.5 -3t10 -10.5t2.5 -22.5v-28
q0 -15 -2 -22.5t-9.5 -10.5t-23.5 -3h-263q-15 0 -22 2.5zM940.5 741q8.5 -4 8.5 -12t-9 -22.5t-25 -37.5l-448 -648q-15 -21 -27.5 -28t-36.5 -7h-60q-21 0 -29.5 4t-8.5 12t9 22.5t25 37.5l448 648q15 21 27.5 28t36.5 7h60q21 0 29.5 -4zM923.5 434.5
q-10.5 -5.5 -23.5 -22.5l-182 -234q-10 -12 -11.5 -18.5t-1.5 -20.5v-15q0 -15 4.5 -21.5t15 -8.5t33.5 -2h149v-59q0 -19 9.5 -26t35.5 -7h37q24 0 35 7t11 26v59h38q12 0 20 5.5t8 24.5v33q0 15 -3.5 21.5t-9 8t-15.5 1.5h-38v217q0 16 -3.5 24t-13 10.5t-30.5 2.5h-36
q-18 0 -28.5 -5.5zM910 247.5q-3 -38.5 -4 -61.5h-94l104 137q-3 -37 -6 -75.5z" />
    <glyph glyph-name="onehalf" unicode="&#xbd;" horiz-adv-x="1219" 
d="M112 298.5q-7 2.5 -10 10t-3 23.5v28q0 15 2.5 22.5t10 10.5t22.5 3h71v210l-51 -43q-15 -13 -25 -13t-24 19l-18 23q-5 7 -8.5 13t-3.5 11q0 7 4 11.5t16 13.5l109 84q8 6 14 8.5t17 2.5h64q15 0 22 -2.5t10 -10t3 -23.5v-304h63q15 0 22.5 -3t10 -10.5t2.5 -22.5v-28
q0 -15 -2 -22.5t-9.5 -10.5t-23.5 -3h-263q-15 0 -22 2.5zM940.5 741q8.5 -4 8.5 -12t-9 -22.5t-25 -37.5l-448 -648q-15 -21 -27.5 -28t-36.5 -7h-60q-21 0 -29.5 4t-8.5 12t9 22.5t25 37.5l448 648q15 21 27.5 28t36.5 7h60q21 0 29.5 -4zM884 304.5q-6 -6.5 -10.5 -8.5
t-11.5 -2q-6 0 -16.5 6t-18 11t-11.5 8q-17 12 -22 18t-5 14q0 12 15.5 30.5t37.5 32.5q30 20 61 27.5t80 7.5q55 0 96 -16t63.5 -46.5t22.5 -72.5q0 -53 -30.5 -82.5t-69.5 -44.5q-34 -13 -56 -22.5t-38 -17.5q-18 -9 -27 -20t-11 -27h196q15 0 22 -3t10 -10.5t3 -22.5v-28
q0 -16 -3 -23.5t-10.5 -10t-21.5 -2.5h-300q-15 0 -22 3t-10 10.5t-3 22.5v33q0 59 28 98t72 62q22 12 45.5 21.5t31.5 13.5q23 10 34.5 21.5t11.5 29.5q0 15 -12.5 23.5t-37.5 8.5q-23 0 -40 -8.5t-32 -22.5q-5 -5 -11 -11.5z" />
    <glyph glyph-name="threequarters" unicode="&#xbe;" horiz-adv-x="1094" 
d="M268 464q-14 10 -47 10h-45q-10 0 -15 2t-7.5 8.5t-2.5 21.5v34q0 15 2.5 21.5t8 7.5t19.5 1h35q30 0 43 12.5t13 26.5q0 18 -12.5 27.5t-38.5 9.5t-57 -16q-19 -10 -22 -13q-7 -4 -14 -7t-12 -3q-8 0 -15.5 6.5t-20.5 25.5q-18 27 -18 40q0 8 12 17.5t38 22.5
q25 12 55 19t74 7q76 0 124 -27t48 -86q0 -44 -24.5 -70t-65.5 -32q45 -6 72 -33.5t27 -76.5q0 -37 -21 -67t-62.5 -48t-102.5 -18q-46 0 -77 7.5t-58 22.5q-24 14 -40 31.5t-16 27.5q0 8 5.5 15t22.5 23q19 17 25.5 22t14.5 5q5 0 13 -5.5t15 -12.5l16 -13q20 -13 34 -18.5
t38 -5.5q53 0 53 45q0 23 -14 33zM889.5 741q8.5 -4 8.5 -12t-9 -22.5t-25 -37.5l-448 -648q-15 -21 -27.5 -28t-36.5 -7h-60q-21 0 -29.5 4t-8.5 12t9 22.5t25 37.5l448 648q15 21 27.5 28t36.5 7h60q21 0 29.5 -4zM864.5 434.5q-10.5 -5.5 -23.5 -22.5l-182 -234
q-10 -12 -11.5 -18.5t-1.5 -20.5v-15q0 -15 4.5 -21.5t15 -8.5t33.5 -2h149v-59q0 -19 9.5 -26t35.5 -7h37q24 0 35 7t11 26v59h38q12 0 20 5.5t8 24.5v33q0 15 -3.5 21.5t-9 8t-15.5 1.5h-38v217q0 16 -3.5 24t-13 10.5t-30.5 2.5h-36q-18 0 -28.5 -5.5zM851 247.5
q-3 -38.5 -4 -61.5h-94l104 137q-3 -37 -6 -75.5z" />
    <glyph glyph-name="questiondown" unicode="&#xbf;" horiz-adv-x="529" 
d="M356 550q10 -3 13.5 -11t3.5 -26v-89q0 -22 -10 -31t-34 -9h-114q-21 0 -30 2.5t-12 10.5t-3 27v89q0 18 3.5 26t13.5 11t30 3h109q20 0 30 -3zM324.5 -25q16.5 11 28.5 33q12 21 17 27t15 6q6 0 27 -6.5t60 -20.5q18 -6 27 -13t9 -19q0 -19 -10.5 -43.5t-30.5 -48.5
q-35 -41 -84.5 -61.5t-122.5 -20.5q-60 0 -112 18t-85.5 61.5t-33.5 114.5q0 61 21 106.5t75 89.5q36 30 51.5 53.5t15.5 53.5v-4q0 10 6.5 15.5t18.5 5.5h102q15 0 24.5 -9t11.5 -32q1 -11 1 -23q0 -34 -18 -69t-62 -75q-48 -43 -48 -93q0 -27 15 -42t42 -15q23 0 39.5 11z
" />
    <glyph glyph-name="Agrave" unicode="&#xc0;" horiz-adv-x="757" 
d="M4.5 4.5q-8.5 4.5 -8.5 14.5q0 15 8 36l236 638q5 15 11.5 23t19 11.5t34.5 3.5h116q23 0 34.5 -3t17.5 -11t13 -24l266 -638q9 -21 9 -35q0 -11 -7 -15.5t-28 -4.5h-141q-17 0 -23.5 5.5t-12.5 22.5l-46 129h-260l-41 -130q-5 -14 -12.5 -20.5t-23.5 -6.5h-135
q-18 0 -26.5 4.5zM400 449q-8 23 -18 57t-14 57h-4q-4 -32 -27 -114l-41 -133h149zM223.5 926q-5.5 9 -5.5 17q0 10 8.5 13.5t29.5 3.5h90q19 0 29 -6.5t18 -20.5l59 -106q11 -20 11 -29t-8 -13.5t-23 -4.5h-38q-13 0 -21.5 1t-13.5 4.5t-14 13.5l-103 105q-13 13 -18.5 22z
" />
    <glyph glyph-name="Aacute" unicode="&#xc1;" horiz-adv-x="757" 
d="M4.5 4.5q-8.5 4.5 -8.5 14.5q0 15 8 36l236 638q5 15 11.5 23t19 11.5t34.5 3.5h116q23 0 34.5 -3t17.5 -11t13 -24l266 -638q9 -21 9 -35q0 -11 -7 -15.5t-28 -4.5h-141q-17 0 -23.5 5.5t-12.5 22.5l-46 129h-260l-41 -130q-5 -14 -12.5 -20.5t-23.5 -6.5h-135
q-18 0 -26.5 4.5zM400 449q-8 23 -18 57t-14 57h-4q-4 -32 -27 -114l-41 -133h149zM497.5 927q5.5 8 5.5 16q0 10 -8.5 13.5t-29.5 3.5h-90q-19 0 -29 -6.5t-18 -20.5l-59 -106q-11 -20 -11 -29t8 -13.5t23 -4.5h38q13 0 21.5 1t13.5 4.5t14 13.5l103 105q13 15 18.5 23z
" />
    <glyph glyph-name="Acircumflex" unicode="&#xc2;" horiz-adv-x="757" 
d="M4.5 4.5q-8.5 4.5 -8.5 14.5q0 15 8 36l236 638q5 15 11.5 23t19 11.5t34.5 3.5h116q23 0 34.5 -3t17.5 -11t13 -24l266 -638q9 -21 9 -35q0 -11 -7 -15.5t-28 -4.5h-141q-17 0 -23.5 5.5t-12.5 22.5l-46 129h-260l-41 -130q-5 -14 -12.5 -20.5t-23.5 -6.5h-135
q-18 0 -26.5 4.5zM400 449q-8 23 -18 57t-14 57h-4q-4 -32 -27 -114l-41 -133h149zM296 947q11 6 25 6h93q14 0 22.5 -5.5t20.5 -18.5l101 -105q16 -16 16 -30q0 -7 -4.5 -10.5t-11.5 -3.5h-68q-16 0 -24.5 4t-15 9.5t-8.5 7.5l-77 63l-77 -63q-2 -2 -9.5 -8.5t-16 -9.5
t-20.5 -3h-68q-7 0 -11.5 3.5t-4.5 10.5q0 15 15 30l100 105q12 12 23 18z" />
    <glyph glyph-name="Atilde" unicode="&#xc3;" horiz-adv-x="757" 
d="M4.5 4.5q-8.5 4.5 -8.5 14.5q0 15 8 36l236 638q5 15 11.5 23t19 11.5t34.5 3.5h116q23 0 34.5 -3t17.5 -11t13 -24l266 -638q9 -21 9 -35q0 -11 -7 -15.5t-28 -4.5h-141q-17 0 -23.5 5.5t-12.5 22.5l-46 129h-260l-41 -130q-5 -14 -12.5 -20.5t-23.5 -6.5h-135
q-18 0 -26.5 4.5zM400 449q-8 23 -18 57t-14 57h-4q-4 -32 -27 -114l-41 -133h149zM298 837.5q-10 1.5 -22 1.5q-37 0 -53 -38q0 -1 -2 -6t-7.5 -8t-14.5 -3h-34q-14 0 -18.5 6t-4.5 21q0 40 17.5 71t49 48.5t72.5 17.5q40 0 75 -15l54 -23q28 -11 49 -11q35 0 51 38
q0 1 2 6t7.5 8t14.5 3h33q13 0 18.5 -6t5.5 -21q0 -39 -20.5 -70.5t-52.5 -49t-66 -17.5q-37 0 -74 16l-54 23q-16 7 -26 8.5z" />
    <glyph glyph-name="Adieresis" unicode="&#xc4;" horiz-adv-x="757" 
d="M4.5 4.5q-8.5 4.5 -8.5 14.5q0 15 8 36l236 638q5 15 11.5 23t19 11.5t34.5 3.5h116q23 0 34.5 -3t17.5 -11t13 -24l266 -638q9 -21 9 -35q0 -11 -7 -15.5t-28 -4.5h-141q-17 0 -23.5 5.5t-12.5 22.5l-46 129h-260l-41 -130q-5 -14 -12.5 -20.5t-23.5 -6.5h-135
q-18 0 -26.5 4.5zM400 449q-8 23 -18 57t-14 57h-4q-4 -32 -27 -114l-41 -133h149zM314.5 802q-3.5 -9 -13 -12t-30.5 -3h-88q-21 0 -30.5 3t-13 12t-3.5 28v62q0 19 3 27.5t11.5 11.5t27.5 3h97q19 0 28 -3t12 -11.5t3 -27.5v-62q0 -19 -3.5 -28zM596.5 802
q-3.5 -9 -13 -12t-30.5 -3h-88q-21 0 -30.5 3t-13 12t-3.5 28v62q0 19 3 27.5t11.5 11.5t27.5 3h97q19 0 28 -3t12 -11.5t3 -27.5v-62q0 -19 -3.5 -28z" />
    <glyph glyph-name="Aring" unicode="&#xc5;" horiz-adv-x="757" 
d="M4.5 4.5q-8.5 4.5 -8.5 14.5q0 15 8 36l236 638q5 15 11.5 23t19 11.5t34.5 3.5h116q23 0 34.5 -3t17.5 -11t13 -24l266 -638q9 -21 9 -35q0 -11 -7 -15.5t-28 -4.5h-141q-17 0 -23.5 5.5t-12.5 22.5l-46 129h-260l-41 -130q-5 -14 -12.5 -20.5t-23.5 -6.5h-135
q-18 0 -26.5 4.5zM400 449q-8 23 -18 57t-14 57h-4q-4 -32 -27 -114l-41 -133h149zM246.5 969q18.5 32 50 50.5t70.5 18.5q38 0 70 -18.5t50.5 -50.5t18.5 -70t-18.5 -70t-50.5 -50.5t-70 -18.5q-39 0 -70.5 18.5t-50 50.5t-18.5 70t18.5 70zM331 863q15 -15 36 -15t36 15
t15 36t-15 36t-36 15t-36 -15t-15 -36t15 -36z" />
    <glyph glyph-name="AE" unicode="&#xc6;" horiz-adv-x="1011" 
d="M935.5 727q9.5 -4 13 -13.5t3.5 -29.5v-70q0 -20 -3.5 -29.5t-13 -13.5t-29.5 -4h-247v-113h193q21 0 30.5 -4t12.5 -13.5t3 -29.5v-66q0 -20 -3.5 -29.5t-13 -13.5t-29.5 -4h-193v-130h260q20 0 29.5 -4t13 -13.5t3.5 -29.5v-70q0 -20 -3.5 -29.5t-13 -13.5t-29.5 -4
h-409q-20 0 -29.5 3.5t-13 13.5t-3.5 30v110h-212l-50 -130q-5 -14 -12.5 -20.5t-23.5 -6.5h-135q-18 0 -26.5 4.5t-8.5 14.5q0 14 10 40l255 609q12 27 21.5 40t23.5 18t40 5h560q20 0 29.5 -4zM464 316v256h-53l-98 -256h151z" />
    <glyph glyph-name="Ccedilla" unicode="&#xc7;" horiz-adv-x="685" 
d="M635.5 108q6.5 -19 6.5 -26q0 -13 -10 -22.5t-41 -26.5q-74 -41 -188 -46l-19 -37q18 4 36 4q37 0 66 -14.5t45.5 -41.5t16.5 -64q0 -49 -27 -82t-69 -48.5t-89 -15.5q-40 0 -65 5.5t-54 15.5q-23 9 -34.5 17.5t-11.5 18.5q0 6 7 19l12 21q6 11 11 13.5t12 2.5
q5 0 11.5 -2t12.5 -4q22 -9 40.5 -14t47.5 -5q27 0 46.5 12.5t19.5 38.5q0 41 -39 41q-8 0 -15 -2.5t-10.5 -4t-4.5 -2.5q-5 -3 -11 -5.5t-13 -2.5q-10 0 -24.5 4t-25 11t-10.5 16t2.5 16.5t7.5 17.5l35 73q-137 16 -201 103t-64 223v85q0 345 321 345q67 0 117 -9.5
t106 -35.5q14 -6 24 -12t14.5 -12t4.5 -16q0 -7 -6 -23t-10 -26t-6 -14q-14 -35 -24.5 -49.5t-22.5 -14.5q-9 0 -20.5 4.5t-25.5 10.5l-26 11q-4 2 -23 10t-41 12t-47 4q-72 0 -103.5 -48.5t-31.5 -139.5v-64q0 -96 33 -141.5t108 -45.5q30 0 67 11.5t67 26.5q25 12 34.5 16
t20.5 4q12 0 18.5 -8t15 -26t12.5 -26q8 -17 14.5 -36z" />
    <glyph glyph-name="Egrave" unicode="&#xc8;" horiz-adv-x="644" 
d="M90.5 3.5q-9.5 3.5 -13 13.5t-3.5 30v637q0 21 3.5 30.5t13 13t29.5 3.5h418q20 0 29.5 -4t13 -13.5t3.5 -29.5v-70q0 -20 -3.5 -29.5t-13 -13.5t-29.5 -4h-269v-113h199q21 0 30.5 -4t12.5 -13.5t3 -29.5v-66q0 -20 -3.5 -29.5t-13 -13.5t-29.5 -4h-199v-130h284
q20 0 29.5 -4t13 -13.5t3.5 -29.5v-70q0 -20 -3.5 -29.5t-13 -13.5t-29.5 -4h-433q-20 0 -29.5 3.5zM175.5 926q-5.5 9 -5.5 17q0 10 8.5 13.5t29.5 3.5h90q19 0 29 -6.5t18 -20.5l59 -106q11 -20 11 -29t-8 -13.5t-23 -4.5h-38q-13 0 -21.5 1t-13.5 4.5t-14 13.5l-103 105
q-13 13 -18.5 22z" />
    <glyph glyph-name="Eacute" unicode="&#xc9;" horiz-adv-x="644" 
d="M90.5 3.5q-9.5 3.5 -13 13.5t-3.5 30v637q0 21 3.5 30.5t13 13t29.5 3.5h418q20 0 29.5 -4t13 -13.5t3.5 -29.5v-70q0 -20 -3.5 -29.5t-13 -13.5t-29.5 -4h-269v-113h199q21 0 30.5 -4t12.5 -13.5t3 -29.5v-66q0 -20 -3.5 -29.5t-13 -13.5t-29.5 -4h-199v-130h284
q20 0 29.5 -4t13 -13.5t3.5 -29.5v-70q0 -20 -3.5 -29.5t-13 -13.5t-29.5 -4h-433q-20 0 -29.5 3.5zM481.5 927q5.5 8 5.5 16q0 10 -8.5 13.5t-29.5 3.5h-90q-19 0 -29 -6.5t-18 -20.5l-59 -106q-11 -20 -11 -29t8 -13.5t23 -4.5h38q13 0 21.5 1t13.5 4.5t14 13.5l103 105
q13 15 18.5 23z" />
    <glyph glyph-name="Ecircumflex" unicode="&#xca;" horiz-adv-x="644" 
d="M90.5 3.5q-9.5 3.5 -13 13.5t-3.5 30v637q0 21 3.5 30.5t13 13t29.5 3.5h418q20 0 29.5 -4t13 -13.5t3.5 -29.5v-70q0 -20 -3.5 -29.5t-13 -13.5t-29.5 -4h-269v-113h199q21 0 30.5 -4t12.5 -13.5t3 -29.5v-66q0 -20 -3.5 -29.5t-13 -13.5t-29.5 -4h-199v-130h284
q20 0 29.5 -4t13 -13.5t3.5 -29.5v-70q0 -20 -3.5 -29.5t-13 -13.5t-29.5 -4h-433q-20 0 -29.5 3.5zM253 947q11 6 25 6h93q14 0 22.5 -5.5t20.5 -18.5l101 -105q16 -16 16 -30q0 -7 -4.5 -10.5t-11.5 -3.5h-68q-16 0 -24.5 4t-15 9.5t-8.5 7.5l-77 63l-77 -63
q-2 -2 -9.5 -8.5t-16 -9.5t-20.5 -3h-68q-7 0 -11.5 3.5t-4.5 10.5q0 15 15 30l100 105q12 12 23 18z" />
    <glyph glyph-name="Edieresis" unicode="&#xcb;" horiz-adv-x="644" 
d="M90.5 3.5q-9.5 3.5 -13 13.5t-3.5 30v637q0 21 3.5 30.5t13 13t29.5 3.5h418q20 0 29.5 -4t13 -13.5t3.5 -29.5v-70q0 -20 -3.5 -29.5t-13 -13.5t-29.5 -4h-269v-113h199q21 0 30.5 -4t12.5 -13.5t3 -29.5v-66q0 -20 -3.5 -29.5t-13 -13.5t-29.5 -4h-199v-130h284
q20 0 29.5 -4t13 -13.5t3.5 -29.5v-70q0 -20 -3.5 -29.5t-13 -13.5t-29.5 -4h-433q-20 0 -29.5 3.5zM275.5 802q-3.5 -9 -13 -12t-30.5 -3h-88q-21 0 -30.5 3t-13 12t-3.5 28v62q0 19 3 27.5t11.5 11.5t27.5 3h97q19 0 28 -3t12 -11.5t3 -27.5v-62q0 -19 -3.5 -28z
M557.5 802q-3.5 -9 -13 -12t-30.5 -3h-88q-21 0 -30.5 3t-13 12t-3.5 28v62q0 19 3 27.5t11.5 11.5t27.5 3h97q19 0 28 -3t12 -11.5t3 -27.5v-62q0 -19 -3.5 -28z" />
    <glyph glyph-name="Igrave" unicode="&#xcc;" horiz-adv-x="469" 
d="M421.5 145.5q9.5 -3.5 13 -13t3.5 -30.5v-55q0 -20 -3 -29.5t-12.5 -13.5t-30.5 -4h-316q-19 0 -28.5 3t-13.5 13t-4 31v55q0 20 3.5 29.5t13 13.5t29.5 4h61v432h-61q-20 0 -29.5 4t-13 13.5t-3.5 29.5v56q0 20 3.5 30t13 13.5t29.5 3.5h316q20 0 29.5 -3.5t13 -13.5
t3.5 -30v-56q0 -20 -3 -29.5t-12.5 -13.5t-30.5 -4h-60v-432h60q20 0 29.5 -3.5zM83.5 926q-5.5 9 -5.5 17q0 10 8.5 13.5t29.5 3.5h90q19 0 29 -6.5t18 -20.5l59 -106q11 -20 11 -29t-8 -13.5t-23 -4.5h-38q-13 0 -21.5 1t-13.5 4.5t-14 13.5l-103 105q-13 13 -18.5 22z
" />
    <glyph glyph-name="Iacute" unicode="&#xcd;" horiz-adv-x="469" 
d="M421.5 145.5q9.5 -3.5 13 -13t3.5 -30.5v-55q0 -20 -3 -29.5t-12.5 -13.5t-30.5 -4h-316q-19 0 -28.5 3t-13.5 13t-4 31v55q0 20 3.5 29.5t13 13.5t29.5 4h61v432h-61q-20 0 -29.5 4t-13 13.5t-3.5 29.5v56q0 20 3.5 30t13 13.5t29.5 3.5h316q20 0 29.5 -3.5t13 -13.5
t3.5 -30v-56q0 -20 -3 -29.5t-12.5 -13.5t-30.5 -4h-60v-432h60q20 0 29.5 -3.5zM375.5 927q5.5 8 5.5 16q0 10 -8.5 13.5t-29.5 3.5h-90q-19 0 -29 -6.5t-18 -20.5l-59 -106q-11 -20 -11 -29t8 -13.5t23 -4.5h38q13 0 21.5 1t13.5 4.5t14 13.5l103 105q13 15 18.5 23z" />
    <glyph glyph-name="Icircumflex" unicode="&#xce;" horiz-adv-x="469" 
d="M421.5 145.5q9.5 -3.5 13 -13t3.5 -30.5v-55q0 -20 -3 -29.5t-12.5 -13.5t-30.5 -4h-316q-19 0 -28.5 3t-13.5 13t-4 31v55q0 20 3.5 29.5t13 13.5t29.5 4h61v432h-61q-20 0 -29.5 4t-13 13.5t-3.5 29.5v56q0 20 3.5 30t13 13.5t29.5 3.5h316q20 0 29.5 -3.5t13 -13.5
t3.5 -30v-56q0 -20 -3 -29.5t-12.5 -13.5t-30.5 -4h-60v-432h60q20 0 29.5 -3.5zM164 947q11 6 25 6h93q14 0 22.5 -5.5t20.5 -18.5l101 -105q16 -16 16 -30q0 -7 -4.5 -10.5t-11.5 -3.5h-68q-16 0 -24.5 4t-15 9.5t-8.5 7.5l-77 63l-77 -63q-2 -2 -9.5 -8.5t-16 -9.5
t-20.5 -3h-68q-7 0 -11.5 3.5t-4.5 10.5q0 15 15 30l100 105q12 12 23 18z" />
    <glyph glyph-name="Idieresis" unicode="&#xcf;" horiz-adv-x="469" 
d="M421.5 145.5q9.5 -3.5 13 -13t3.5 -30.5v-55q0 -20 -3 -29.5t-12.5 -13.5t-30.5 -4h-316q-19 0 -28.5 3t-13.5 13t-4 31v55q0 20 3.5 29.5t13 13.5t29.5 4h61v432h-61q-20 0 -29.5 4t-13 13.5t-3.5 29.5v56q0 20 3.5 30t13 13.5t29.5 3.5h316q20 0 29.5 -3.5t13 -13.5
t3.5 -30v-56q0 -20 -3 -29.5t-12.5 -13.5t-30.5 -4h-60v-432h60q20 0 29.5 -3.5zM180.5 802q-3.5 -9 -13 -12t-30.5 -3h-88q-21 0 -30.5 3t-13 12t-3.5 28v62q0 19 3 27.5t11.5 11.5t27.5 3h97q19 0 28 -3t12 -11.5t3 -27.5v-62q0 -19 -3.5 -28zM462.5 802q-3.5 -9 -13 -12
t-30.5 -3h-88q-21 0 -30.5 3t-13 12t-3.5 28v62q0 19 3 27.5t11.5 11.5t27.5 3h97q19 0 28 -3t12 -11.5t3 -27.5v-62q0 -19 -3.5 -28z" />
    <glyph glyph-name="Eth" unicode="&#xd0;" horiz-adv-x="770" 
d="M570 690.5q83 -40.5 119 -116t36 -186.5v-38q0 -160 -86 -255t-292 -95h-227q-20 0 -29.5 3.5t-13 13t-3.5 30.5v247h-28q-21 0 -30.5 3.5t-12.5 13t-3 30.5v50q0 20 3.5 29.5t13 13.5t29.5 4h28v246q0 20 3.5 29.5t13 13.5t29.5 4h228q139 0 222 -40.5zM457.5 180
q37.5 21 52.5 62.5t15 110.5v20q0 77 -16.5 119.5t-56.5 61t-114 18.5h-69v-134h86q21 0 30.5 -4t12.5 -13.5t3 -29.5v-50q0 -19 -2.5 -28.5t-12.5 -14t-31 -4.5h-86v-135h85q66 0 103.5 21z" />
    <glyph glyph-name="Ntilde" unicode="&#xd1;" horiz-adv-x="812" 
d="M90.5 3.5q-9.5 3.5 -13 13.5t-3.5 30v637q0 21 4 30.5t13 13t29 3.5h100q15 0 25 -5.5t21 -19.5l228 -303q43 -53 62 -93h2q-2 46 -2 120v254q0 20 3.5 30t13 13.5t29.5 3.5h90q20 0 29.5 -3.5t13 -13t3.5 -30.5v-637q0 -20 -3 -29.5t-12.5 -13.5t-30.5 -4h-91
q-16 0 -26 3.5t-19.5 12.5t-23.5 28l-238 309q-13 17 -43 70h-2l3 -21q4 -34 4 -67v-288q0 -20 -3 -29.5t-12.5 -13.5t-30.5 -4h-90q-20 0 -29.5 3.5zM350 837.5q-10 1.5 -22 1.5q-37 0 -53 -38q0 -1 -2 -6t-7.5 -8t-14.5 -3h-34q-14 0 -18.5 6t-4.5 21q0 40 17.5 71
t49 48.5t72.5 17.5q40 0 75 -15l54 -23q28 -11 49 -11q35 0 51 38q0 1 2 6t7.5 8t14.5 3h33q13 0 18.5 -6t5.5 -21q0 -39 -20.5 -70.5t-52.5 -49t-66 -17.5q-37 0 -74 16l-54 23q-16 7 -26 8.5z" />
    <glyph glyph-name="Ograve" unicode="&#xd2;" horiz-adv-x="786" 
d="M137.5 667q92.5 78 251.5 78h11q169 0 255 -82t86 -248v-93q0 -336 -345 -336h-10q-158 0 -249.5 79.5t-91.5 250.5v93q0 180 92.5 258zM507.5 538q-33.5 47 -109.5 47h-10q-78 0 -110.5 -47t-32.5 -143v-60q0 -96 33.5 -142.5t109.5 -46.5h10q75 0 109 46t34 143v60
q0 96 -33.5 143zM244.5 926q-5.5 9 -5.5 17q0 10 8.5 13.5t29.5 3.5h90q19 0 29 -6.5t18 -20.5l59 -106q11 -20 11 -29t-8 -13.5t-23 -4.5h-38q-13 0 -21.5 1t-13.5 4.5t-14 13.5l-103 105q-13 13 -18.5 22z" />
    <glyph glyph-name="Oacute" unicode="&#xd3;" horiz-adv-x="786" 
d="M137.5 667q92.5 78 251.5 78h11q169 0 255 -82t86 -248v-93q0 -336 -345 -336h-10q-158 0 -249.5 79.5t-91.5 250.5v93q0 180 92.5 258zM507.5 538q-33.5 47 -109.5 47h-10q-78 0 -110.5 -47t-32.5 -143v-60q0 -96 33.5 -142.5t109.5 -46.5h10q75 0 109 46t34 143v60
q0 96 -33.5 143zM543.5 927q5.5 8 5.5 16q0 10 -8.5 13.5t-29.5 3.5h-90q-19 0 -29 -6.5t-18 -20.5l-59 -106q-11 -20 -11 -29t8 -13.5t23 -4.5h38q13 0 21.5 1t13.5 4.5t14 13.5l103 105q13 15 18.5 23z" />
    <glyph glyph-name="Ocircumflex" unicode="&#xd4;" horiz-adv-x="786" 
d="M137.5 667q92.5 78 251.5 78h11q169 0 255 -82t86 -248v-93q0 -336 -345 -336h-10q-158 0 -249.5 79.5t-91.5 250.5v93q0 180 92.5 258zM507.5 538q-33.5 47 -109.5 47h-10q-78 0 -110.5 -47t-32.5 -143v-60q0 -96 33.5 -142.5t109.5 -46.5h10q75 0 109 46t34 143v60
q0 96 -33.5 143zM326 947q11 6 25 6h93q14 0 22.5 -5.5t20.5 -18.5l101 -105q16 -16 16 -30q0 -7 -4.5 -10.5t-11.5 -3.5h-68q-16 0 -24.5 4t-15 9.5t-8.5 7.5l-77 63l-77 -63q-2 -2 -9.5 -8.5t-16 -9.5t-20.5 -3h-68q-7 0 -11.5 3.5t-4.5 10.5q0 15 15 30l100 105
q12 12 23 18z" />
    <glyph glyph-name="Otilde" unicode="&#xd5;" horiz-adv-x="786" 
d="M137.5 667q92.5 78 251.5 78h11q169 0 255 -82t86 -248v-93q0 -336 -345 -336h-10q-158 0 -249.5 79.5t-91.5 250.5v93q0 180 92.5 258zM507.5 538q-33.5 47 -109.5 47h-10q-78 0 -110.5 -47t-32.5 -143v-60q0 -96 33.5 -142.5t109.5 -46.5h10q75 0 109 46t34 143v60
q0 96 -33.5 143zM323 837.5q-10 1.5 -22 1.5q-37 0 -53 -38q0 -1 -2 -6t-7.5 -8t-14.5 -3h-34q-14 0 -18.5 6t-4.5 21q0 40 17.5 71t49 48.5t72.5 17.5q40 0 75 -15l54 -23q28 -11 49 -11q35 0 51 38q0 1 2 6t7.5 8t14.5 3h33q13 0 18.5 -6t5.5 -21q0 -39 -20.5 -70.5
t-52.5 -49t-66 -17.5q-37 0 -74 16l-54 23q-16 7 -26 8.5z" />
    <glyph glyph-name="Odieresis" unicode="&#xd6;" horiz-adv-x="786" 
d="M137.5 667q92.5 78 251.5 78h11q169 0 255 -82t86 -248v-93q0 -336 -345 -336h-10q-158 0 -249.5 79.5t-91.5 250.5v93q0 180 92.5 258zM507.5 538q-33.5 47 -109.5 47h-10q-78 0 -110.5 -47t-32.5 -143v-60q0 -96 33.5 -142.5t109.5 -46.5h10q75 0 109 46t34 143v60
q0 96 -33.5 143zM337.5 802q-3.5 -9 -13 -12t-30.5 -3h-88q-21 0 -30.5 3t-13 12t-3.5 28v62q0 19 3 27.5t11.5 11.5t27.5 3h97q19 0 28 -3t12 -11.5t3 -27.5v-62q0 -19 -3.5 -28zM619.5 802q-3.5 -9 -13 -12t-30.5 -3h-88q-21 0 -30.5 3t-13 12t-3.5 28v62q0 19 3 27.5
t11.5 11.5t27.5 3h97q19 0 28 -3t12 -11.5t3 -27.5v-62q0 -19 -3.5 -28z" />
    <glyph glyph-name="multiply" unicode="&#xd7;" horiz-adv-x="745" 
d="M631 217q11 -11 16 -18.5t5 -14.5t-5 -14.5t-16 -18.5l-36 -36q-12 -12 -19.5 -17t-14.5 -5q-12 0 -32 21l-160 160l-158 -159q-11 -11 -18.5 -16t-14.5 -5t-15 5t-18 16l-36 36q-12 11 -17 19t-5 15q0 6 5 13.5t16 18.5l158 159l-154 155q-20 19 -20 33q0 7 4.5 14.5
t15.5 18.5l36 36q11 11 18.5 16t14.5 5t14 -4.5t19 -15.5l155 -155l156 156q10 10 18 15t15 5t14 -4.5t19 -15.5l36 -36q11 -11 16 -19t5 -15q0 -12 -20 -32l-157 -157z" />
    <glyph glyph-name="Oslash" unicode="&#xd8;" horiz-adv-x="786" 
d="M137.5 667q92.5 78 251.5 78h11q138 0 223 -56l39 39q10 9 16.5 13t12.5 4q10 -1 25 -16l39 -38q17 -15 17 -28q0 -5 -3.5 -11t-13.5 -16l-48 -48q34 -73 34 -173v-93q0 -336 -345 -336h-10q-140 0 -222 58l-41 -41q-17 -17 -27 -17q-6 1 -11.5 4.5t-14.5 12.5l-39 38
q-17 15 -17 26q1 6 5.5 12.5t11.5 14.5l49 49q-35 70 -35 173v93q0 180 92.5 258zM245 309l244 245q-36 31 -95 31h-6q-78 0 -110.5 -47t-32.5 -143v-42v-44zM537 417l-242 -242q34 -29 93 -29h6q75 0 109 46t34 143v34v48z" />
    <glyph glyph-name="Ugrave" unicode="&#xd9;" horiz-adv-x="761" 
d="M627 63q-70 -77 -239 -77h-41q-146 0 -214.5 70.5t-68.5 206.5v421q0 21 4 30.5t13 13t29 3.5h102q21 0 30.5 -4t12.5 -13.5t3 -29.5v-412q0 -55 29.5 -80.5t90.5 -25.5q66 0 94.5 27t28.5 79v412q0 20 3.5 30t13 13.5t29.5 3.5h104q20 0 29.5 -3.5t13 -13t3.5 -30.5
v-409q0 -135 -70 -212zM203.5 926q-5.5 9 -5.5 17q0 10 8.5 13.5t29.5 3.5h90q19 0 29 -6.5t18 -20.5l59 -106q11 -20 11 -29t-8 -13.5t-23 -4.5h-38q-13 0 -21.5 1t-13.5 4.5t-14 13.5l-103 105q-13 13 -18.5 22z" />
    <glyph glyph-name="Uacute" unicode="&#xda;" horiz-adv-x="761" 
d="M627 63q-70 -77 -239 -77h-41q-146 0 -214.5 70.5t-68.5 206.5v421q0 21 4 30.5t13 13t29 3.5h102q21 0 30.5 -4t12.5 -13.5t3 -29.5v-412q0 -55 29.5 -80.5t90.5 -25.5q66 0 94.5 27t28.5 79v412q0 20 3.5 30t13 13.5t29.5 3.5h104q20 0 29.5 -3.5t13 -13t3.5 -30.5
v-409q0 -135 -70 -212zM564.5 927q5.5 8 5.5 16q0 10 -8.5 13.5t-29.5 3.5h-90q-19 0 -29 -6.5t-18 -20.5l-59 -106q-11 -20 -11 -29t8 -13.5t23 -4.5h38q13 0 21.5 1t13.5 4.5t14 13.5l103 105q13 15 18.5 23z" />
    <glyph glyph-name="Ucircumflex" unicode="&#xdb;" horiz-adv-x="761" 
d="M627 63q-70 -77 -239 -77h-41q-146 0 -214.5 70.5t-68.5 206.5v421q0 21 4 30.5t13 13t29 3.5h102q21 0 30.5 -4t12.5 -13.5t3 -29.5v-412q0 -55 29.5 -80.5t90.5 -25.5q66 0 94.5 27t28.5 79v412q0 20 3.5 30t13 13.5t29.5 3.5h104q20 0 29.5 -3.5t13 -13t3.5 -30.5
v-409q0 -135 -70 -212zM311 947q11 6 25 6h93q14 0 22.5 -5.5t20.5 -18.5l101 -105q16 -16 16 -30q0 -7 -4.5 -10.5t-11.5 -3.5h-68q-16 0 -24.5 4t-15 9.5t-8.5 7.5l-77 63l-77 -63q-2 -2 -9.5 -8.5t-16 -9.5t-20.5 -3h-68q-7 0 -11.5 3.5t-4.5 10.5q0 15 15 30l100 105
q12 12 23 18z" />
    <glyph glyph-name="Udieresis" unicode="&#xdc;" horiz-adv-x="761" 
d="M627 63q-70 -77 -239 -77h-41q-146 0 -214.5 70.5t-68.5 206.5v421q0 21 4 30.5t13 13t29 3.5h102q21 0 30.5 -4t12.5 -13.5t3 -29.5v-412q0 -55 29.5 -80.5t90.5 -25.5q66 0 94.5 27t28.5 79v412q0 20 3.5 30t13 13.5t29.5 3.5h104q20 0 29.5 -3.5t13 -13t3.5 -30.5
v-409q0 -135 -70 -212zM326.5 802q-3.5 -9 -13 -12t-30.5 -3h-88q-21 0 -30.5 3t-13 12t-3.5 28v62q0 19 3 27.5t11.5 11.5t27.5 3h97q19 0 28 -3t12 -11.5t3 -27.5v-62q0 -19 -3.5 -28zM608.5 802q-3.5 -9 -13 -12t-30.5 -3h-88q-21 0 -30.5 3t-13 12t-3.5 28v62
q0 19 3 27.5t11.5 11.5t27.5 3h97q19 0 28 -3t12 -11.5t3 -27.5v-62q0 -19 -3.5 -28z" />
    <glyph glyph-name="Yacute" unicode="&#xdd;" horiz-adv-x="627" 
d="M5 694.5q-4 9.5 -4 20.5q0 16 24 16h143q16 0 23 -6.5t13 -18.5l87 -186q10 -23 13.5 -34.5t7.5 -32.5h2q2 17 5.5 31.5t12.5 32.5l93 193q6 11 13.5 16t19.5 5h145q12 0 17.5 -4t5.5 -12q0 -9 -4 -18.5t-8 -17t-7 -12.5l-178 -345q-10 -17 -13.5 -31.5t-3.5 -44.5v-199
q0 -21 -3.5 -30.5t-12.5 -13t-30 -3.5h-102q-21 0 -31 3.5t-13.5 13t-3.5 29.5v191q0 27 -3 43.5t-14 36.5l-174 338q-16 30 -20 39.5zM490.5 927q5.5 8 5.5 16q0 10 -8.5 13.5t-29.5 3.5h-90q-19 0 -29 -6.5t-18 -20.5l-59 -106q-11 -20 -11 -29t8 -13.5t23 -4.5h38
q13 0 21.5 1t13.5 4.5t14 13.5l103 105q13 15 18.5 23z" />
    <glyph glyph-name="Thorn" unicode="&#xde;" horiz-adv-x="702" 
d="M77.5 713.5q3.5 9.5 13 13.5t29.5 4h103q20 0 29.5 -3.5t13 -13t3.5 -30.5v-62h102q135 0 214.5 -57.5t79.5 -185.5q0 -83 -37 -139.5t-106.5 -85.5t-167.5 -29h-85v-78q0 -20 -2.5 -29t-12.5 -13.5t-31 -4.5h-103q-20 0 -29.5 3.5t-13 13t-3.5 30.5v637q0 20 3.5 29.5z
M460 378q0 41 -22 62.5t-74 21.5h-95v-180h80q111 0 111 96z" />
    <glyph glyph-name="germandbls" unicode="&#xdf;" horiz-adv-x="707" 
d="M615.5 518.5q-8.5 -22.5 -19.5 -34t-33 -30.5l-14 -12q-16 -14 -23.5 -24t-7.5 -24q0 -11 10.5 -20.5t34.5 -26.5q22 -14 32 -22q35 -27 54.5 -51.5t27 -51t7.5 -60.5q0 -48 -22 -87t-68.5 -62.5t-116.5 -23.5q-43 0 -70.5 4t-50.5 12q-58 20 -58 47q0 10 3 19.5t6.5 17
t6.5 13.5q12 28 20 38t19 10q8 0 16 -2.5t18 -6.5q28 -11 52 -11q25 0 38 16t13 36q0 26 -18 45t-54 43q-29 19 -48.5 34t-34 35.5t-14.5 44.5q0 29 11 47.5t35 38.5l12 10q3 3 18 15t25 27t10 30q0 29 -18 46t-53 17q-62 0 -88.5 -57t-26.5 -147v-364q0 -20 -3 -29.5
t-12.5 -13.5t-30.5 -4h-92q-20 0 -29.5 3.5t-13 13t-3.5 30.5l-2 407q0 133 72 214.5t235 81.5q80 0 138.5 -23t88.5 -62.5t30 -89.5q0 -34 -8.5 -56.5z" />
    <glyph glyph-name="agrave" unicode="&#xe0;" horiz-adv-x="600" 
d="M340 416.5q-20 12.5 -61 12.5q-32 0 -55.5 -4.5t-49.5 -15.5q-3 -1 -14.5 -6t-20 -7.5t-14.5 -2.5q-13 0 -20.5 8t-18.5 34q-3 6 -9 21t-9.5 25.5t-3.5 17.5q0 11 8.5 18t28.5 16q44 18 88 26t99 8q96 0 152 -19t78 -52.5t22 -80.5v-179q0 -52 6 -79.5t20 -56.5
q7 -14 10.5 -23.5t3.5 -15.5q0 -11 -9 -18.5t-31 -19.5l-34 -18q-17 -9 -27 -12.5t-23 -3.5q-12 0 -19.5 5.5t-15.5 18.5q-13 24 -25 64h-2q-68 -88 -175 -88q-92 0 -141.5 47.5t-49.5 132.5q0 66 29.5 107t95 61t175.5 20h32v21q0 26 -20 38.5zM225.5 136.5
q17.5 -13.5 41.5 -13.5q33 0 54 14t30 36t9 46v27h-37q-60 0 -87.5 -18.5t-27.5 -50.5q0 -27 17.5 -40.5zM119 762q-6 9 -6 17q0 11 9.5 15t32.5 4h96q21 0 32 -7t20 -23l68 -121q5 -8 8.5 -16.5t3.5 -15.5q0 -20 -38 -20h-41q-34 0 -54 21l-110 120q-15 17 -21 26z" />
    <glyph glyph-name="aacute" unicode="&#xe1;" horiz-adv-x="600" 
d="M340 416.5q-20 12.5 -61 12.5q-32 0 -55.5 -4.5t-49.5 -15.5q-3 -1 -14.5 -6t-20 -7.5t-14.5 -2.5q-13 0 -20.5 8t-18.5 34q-3 6 -9 21t-9.5 25.5t-3.5 17.5q0 11 8.5 18t28.5 16q44 18 88 26t99 8q96 0 152 -19t78 -52.5t22 -80.5v-179q0 -52 6 -79.5t20 -56.5
q7 -14 10.5 -23.5t3.5 -15.5q0 -11 -9 -18.5t-31 -19.5l-34 -18q-17 -9 -27 -12.5t-23 -3.5q-12 0 -19.5 5.5t-15.5 18.5q-13 24 -25 64h-2q-68 -88 -175 -88q-92 0 -141.5 47.5t-49.5 132.5q0 66 29.5 107t95 61t175.5 20h32v21q0 26 -20 38.5zM225.5 136.5
q17.5 -13.5 41.5 -13.5q33 0 54 14t30 36t9 46v27h-37q-60 0 -87.5 -18.5t-27.5 -50.5q0 -27 17.5 -40.5zM292 595h-41q-38 0 -38 20q0 7 3.5 15.5t8.5 16.5l68 121q9 16 20 23t32 7h96q23 0 32.5 -4t9.5 -15q0 -8 -6 -17t-21 -26l-110 -120q-19 -21 -54 -21z" />
    <glyph glyph-name="acircumflex" unicode="&#xe2;" horiz-adv-x="600" 
d="M340 416.5q-20 12.5 -61 12.5q-32 0 -55.5 -4.5t-49.5 -15.5q-3 -1 -14.5 -6t-20 -7.5t-14.5 -2.5q-13 0 -20.5 8t-18.5 34q-3 6 -9 21t-9.5 25.5t-3.5 17.5q0 11 8.5 18t28.5 16q44 18 88 26t99 8q96 0 152 -19t78 -52.5t22 -80.5v-179q0 -52 6 -79.5t20 -56.5
q7 -14 10.5 -23.5t3.5 -15.5q0 -11 -9 -18.5t-31 -19.5l-34 -18q-17 -9 -27 -12.5t-23 -3.5q-12 0 -19.5 5.5t-15.5 18.5q-13 24 -25 64h-2q-68 -88 -175 -88q-92 0 -141.5 47.5t-49.5 132.5q0 66 29.5 107t95 61t175.5 20h32v21q0 26 -20 38.5zM225.5 136.5
q17.5 -13.5 41.5 -13.5q33 0 54 14t30 36t9 46v27h-37q-60 0 -87.5 -18.5t-27.5 -50.5q0 -27 17.5 -40.5zM211 784q6 8 11.5 11t14.5 3h116q12 0 17.5 -4.5t16.5 -19.5l101 -135q16 -20 16 -30q0 -7 -4.5 -10.5t-11.5 -3.5h-82q-10 0 -16.5 4t-17.5 17l-77 84l-77 -84
q-11 -13 -17.5 -17t-16.5 -4h-80q-7 0 -11.5 3.5t-4.5 10.5q0 10 15 30l100 135q2 2 8 10z" />
    <glyph glyph-name="atilde" unicode="&#xe3;" horiz-adv-x="600" 
d="M340 416.5q-20 12.5 -61 12.5q-32 0 -55.5 -4.5t-49.5 -15.5q-3 -1 -14.5 -6t-20 -7.5t-14.5 -2.5q-13 0 -20.5 8t-18.5 34q-3 6 -9 21t-9.5 25.5t-3.5 17.5q0 11 8.5 18t28.5 16q44 18 88 26t99 8q96 0 152 -19t78 -52.5t22 -80.5v-179q0 -52 6 -79.5t20 -56.5
q7 -14 10.5 -23.5t3.5 -15.5q0 -11 -9 -18.5t-31 -19.5l-34 -18q-17 -9 -27 -12.5t-23 -3.5q-12 0 -19.5 5.5t-15.5 18.5q-13 24 -25 64h-2q-68 -88 -175 -88q-92 0 -141.5 47.5t-49.5 132.5q0 66 29.5 107t95 61t175.5 20h32v21q0 26 -20 38.5zM225.5 136.5
q17.5 -13.5 41.5 -13.5q33 0 54 14t30 36t9 46v27h-37q-60 0 -87.5 -18.5t-27.5 -50.5q0 -27 17.5 -40.5zM237.5 651.5q-9.5 2.5 -20.5 2.5q-32 0 -48 -37q0 -1 -2 -6t-7.5 -8t-14.5 -3h-34q-14 0 -18.5 6t-4.5 21q0 40 16.5 70.5t46 47.5t68.5 17q38 0 71 -14l51 -22
q29 -12 47 -12t29 10t18 27q0 1 2 6t7.5 8t14.5 3h34q13 0 18.5 -6t5.5 -21q0 -38 -19 -69t-49.5 -48.5t-62.5 -17.5q-38 0 -71 14l-51 22q-17 7 -26.5 9.5z" />
    <glyph glyph-name="adieresis" unicode="&#xe4;" horiz-adv-x="600" 
d="M340 416.5q-20 12.5 -61 12.5q-32 0 -55.5 -4.5t-49.5 -15.5q-3 -1 -14.5 -6t-20 -7.5t-14.5 -2.5q-13 0 -20.5 8t-18.5 34q-3 6 -9 21t-9.5 25.5t-3.5 17.5q0 11 8.5 18t28.5 16q44 18 88 26t99 8q96 0 152 -19t78 -52.5t22 -80.5v-179q0 -52 6 -79.5t20 -56.5
q7 -14 10.5 -23.5t3.5 -15.5q0 -11 -9 -18.5t-31 -19.5l-34 -18q-17 -9 -27 -12.5t-23 -3.5q-12 0 -19.5 5.5t-15.5 18.5q-13 24 -25 64h-2q-68 -88 -175 -88q-92 0 -141.5 47.5t-49.5 132.5q0 66 29.5 107t95 61t175.5 20h32v21q0 26 -20 38.5zM225.5 136.5
q17.5 -13.5 41.5 -13.5q33 0 54 14t30 36t9 46v27h-37q-60 0 -87.5 -18.5t-27.5 -50.5q0 -27 17.5 -40.5zM90.5 609q-9.5 3 -13 12t-3.5 28v62q0 19 3 27.5t11.5 11.5t27.5 3h97q19 0 28 -3t12 -11.5t3 -27.5v-62q0 -19 -3.5 -28t-13 -12t-30.5 -3h-88q-21 0 -30.5 3z
M352.5 609q-9.5 3 -13 12t-3.5 28v62q0 19 3 27.5t11.5 11.5t27.5 3h97q19 0 28 -3t12 -11.5t3 -27.5v-62q0 -19 -3.5 -28t-13 -12t-30.5 -3h-88q-21 0 -30.5 3z" />
    <glyph glyph-name="aring" unicode="&#xe5;" horiz-adv-x="600" 
d="M340 416.5q-20 12.5 -61 12.5q-32 0 -55.5 -4.5t-49.5 -15.5q-3 -1 -14.5 -6t-20 -7.5t-14.5 -2.5q-13 0 -20.5 8t-18.5 34q-3 6 -9 21t-9.5 25.5t-3.5 17.5q0 11 8.5 18t28.5 16q44 18 88 26t99 8q96 0 152 -19t78 -52.5t22 -80.5v-179q0 -52 6 -79.5t20 -56.5
q7 -14 10.5 -23.5t3.5 -15.5q0 -11 -9 -18.5t-31 -19.5l-34 -18q-17 -9 -27 -12.5t-23 -3.5q-12 0 -19.5 5.5t-15.5 18.5q-13 24 -25 64h-2q-68 -88 -175 -88q-92 0 -141.5 47.5t-49.5 132.5q0 66 29.5 107t95 61t175.5 20h32v21q0 26 -20 38.5zM225.5 136.5
q17.5 -13.5 41.5 -13.5q33 0 54 14t30 36t9 46v27h-37q-60 0 -87.5 -18.5t-27.5 -50.5q0 -27 17.5 -40.5zM183.5 804q18.5 32 50 50.5t70.5 18.5q38 0 70 -18.5t50.5 -50.5t18.5 -70t-18.5 -70t-50.5 -50.5t-70 -18.5q-39 0 -70.5 18.5t-50 50.5t-18.5 70t18.5 70zM268 698
q15 -15 36 -15t36 15t15 36t-15 36t-36 15t-36 -15t-15 -36t15 -36z" />
    <glyph glyph-name="ae" unicode="&#xe6;" horiz-adv-x="926" 
d="M340 416.5q-20 12.5 -61 12.5q-32 0 -55.5 -4.5t-49.5 -15.5q-3 -1 -14.5 -6t-20 -7.5t-14.5 -2.5q-13 0 -20.5 8t-18.5 34q-3 6 -9 21t-9.5 25.5t-3.5 17.5q0 11 8.5 18t28.5 16q44 18 88 26t99 8q66 0 113 -10.5t72 -31.5q25 19 66 29.5t90 10.5q88 0 144 -30t83.5 -93
t27.5 -164v-7q0 -20 -3 -29.5t-12.5 -13.5t-30.5 -4h-298v-13q0 -21 12 -39.5t38.5 -30t67.5 -11.5q62 0 116 22q6 2 14 6t17 7t15 3q9 0 14 -3t11 -13.5t14 -25.5q4 -8 11 -21t10 -21t3 -14q0 -10 -5 -16.5t-16 -12.5t-34 -16q-38 -16 -87.5 -26t-100.5 -10q-89 0 -142 24
t-83 69q-30 -48 -81.5 -70.5t-114.5 -22.5q-92 0 -141.5 47.5t-49.5 132.5q0 66 29.5 107t95 61t175.5 20h32v21q0 26 -20 38.5zM581.5 426q-18.5 -10 -29.5 -28t-12 -41v-7h160v4q0 37 -22 59.5t-57 22.5q-21 0 -39.5 -10zM225.5 136.5q17.5 -13.5 41.5 -13.5q33 0 54 14
t30 36t9 46v27h-37q-60 0 -87.5 -18.5t-27.5 -50.5q0 -27 17.5 -40.5z" />
    <glyph glyph-name="ccedilla" unicode="&#xe7;" horiz-adv-x="534" 
d="M521 65q0 -10 -7.5 -18t-24.5 -18q-25 -15 -66 -26.5t-89 -13.5l-20 -39q18 4 36 4q37 0 66 -14.5t45.5 -41.5t16.5 -64q0 -49 -27 -82t-69 -48.5t-89 -15.5q-40 0 -65 5.5t-54 15.5q-23 9 -34.5 17.5t-11.5 18.5q0 6 7 19l12 21q6 11 11 13.5t12 2.5q5 0 11.5 -2
t12.5 -4q22 -9 40.5 -14t47.5 -5q27 0 46.5 12.5t19.5 38.5q0 41 -39 41q-8 0 -15 -2.5t-10.5 -4t-4.5 -2.5q-5 -3 -11 -5.5t-13 -2.5q-10 0 -24.5 4t-25 11t-10.5 16t2.5 16.5t7.5 17.5l38 79q-97 17 -149 83.5t-52 186.5v14q0 285 271 285q61 0 99 -10t75 -29
q17 -8 21.5 -15t4.5 -18q0 -8 -5.5 -21.5t-9.5 -22t-6 -12.5q-12 -28 -20 -38.5t-20 -10.5t-40 14q-46 22 -79 22q-44 0 -73.5 -30t-29.5 -101v-34q0 -68 28.5 -98t73.5 -30q23 0 43 6t39 14l18 8t17 7t14 3q11 0 18 -9t20 -37q20 -43 20 -57z" />
    <glyph glyph-name="egrave" unicode="&#xe8;" horiz-adv-x="614" 
d="M254.5 154.5q26.5 -24.5 91.5 -24.5q62 0 116 22q6 2 14 6t17 7t15 3q9 0 14 -3t11 -13.5t14 -25.5q4 -8 11 -21t10 -21t3 -14q0 -10 -5 -16.5t-16 -12.5t-34 -16q-38 -16 -87.5 -26t-100.5 -10q-117 0 -180 37.5t-84.5 100t-21.5 151.5v23q0 131 70 197.5t199 66.5
q91 0 148.5 -30t85 -93t27.5 -164v-7q0 -20 -3 -29.5t-12.5 -13.5t-30.5 -4h-298v-6q0 -39 26.5 -63.5zM268.5 425.5q-18.5 -10.5 -29.5 -29t-11 -42.5v-4h160v4q0 37 -22 59.5t-57 22.5q-22 0 -40.5 -10.5zM126 762q-6 9 -6 17q0 11 9.5 15t32.5 4h96q21 0 32 -7t20 -23
l68 -121q5 -8 8.5 -16.5t3.5 -15.5q0 -20 -38 -20h-41q-34 0 -54 21l-110 120q-15 17 -21 26z" />
    <glyph glyph-name="eacute" unicode="&#xe9;" horiz-adv-x="614" 
d="M254.5 154.5q26.5 -24.5 91.5 -24.5q62 0 116 22q6 2 14 6t17 7t15 3q9 0 14 -3t11 -13.5t14 -25.5q4 -8 11 -21t10 -21t3 -14q0 -10 -5 -16.5t-16 -12.5t-34 -16q-38 -16 -87.5 -26t-100.5 -10q-117 0 -180 37.5t-84.5 100t-21.5 151.5v23q0 131 70 197.5t199 66.5
q91 0 148.5 -30t85 -93t27.5 -164v-7q0 -20 -3 -29.5t-12.5 -13.5t-30.5 -4h-298v-6q0 -39 26.5 -63.5zM268.5 425.5q-18.5 -10.5 -29.5 -29t-11 -42.5v-4h160v4q0 37 -22 59.5t-57 22.5q-22 0 -40.5 -10.5zM314 595h-41q-38 0 -38 20q0 7 3.5 15.5t8.5 16.5l68 121
q9 16 20 23t32 7h96q23 0 32.5 -4t9.5 -15q0 -8 -6 -17t-21 -26l-110 -120q-19 -21 -54 -21z" />
    <glyph glyph-name="ecircumflex" unicode="&#xea;" horiz-adv-x="614" 
d="M254.5 154.5q26.5 -24.5 91.5 -24.5q62 0 116 22q6 2 14 6t17 7t15 3q9 0 14 -3t11 -13.5t14 -25.5q4 -8 11 -21t10 -21t3 -14q0 -10 -5 -16.5t-16 -12.5t-34 -16q-38 -16 -87.5 -26t-100.5 -10q-117 0 -180 37.5t-84.5 100t-21.5 151.5v23q0 131 70 197.5t199 66.5
q91 0 148.5 -30t85 -93t27.5 -164v-7q0 -20 -3 -29.5t-12.5 -13.5t-30.5 -4h-298v-6q0 -39 26.5 -63.5zM268.5 425.5q-18.5 -10.5 -29.5 -29t-11 -42.5v-4h160v4q0 37 -22 59.5t-57 22.5q-22 0 -40.5 -10.5zM228 784q6 8 11.5 11t14.5 3h116q12 0 17.5 -4.5t16.5 -19.5
l101 -135q16 -20 16 -30q0 -7 -4.5 -10.5t-11.5 -3.5h-82q-10 0 -16.5 4t-17.5 17l-77 84l-77 -84q-11 -13 -17.5 -17t-16.5 -4h-80q-7 0 -11.5 3.5t-4.5 10.5q0 10 15 30l100 135q2 2 8 10z" />
    <glyph glyph-name="edieresis" unicode="&#xeb;" horiz-adv-x="614" 
d="M254.5 154.5q26.5 -24.5 91.5 -24.5q62 0 116 22q6 2 14 6t17 7t15 3q9 0 14 -3t11 -13.5t14 -25.5q4 -8 11 -21t10 -21t3 -14q0 -10 -5 -16.5t-16 -12.5t-34 -16q-38 -16 -87.5 -26t-100.5 -10q-117 0 -180 37.5t-84.5 100t-21.5 151.5v23q0 131 70 197.5t199 66.5
q91 0 148.5 -30t85 -93t27.5 -164v-7q0 -20 -3 -29.5t-12.5 -13.5t-30.5 -4h-298v-6q0 -39 26.5 -63.5zM268.5 425.5q-18.5 -10.5 -29.5 -29t-11 -42.5v-4h160v4q0 37 -22 59.5t-57 22.5q-22 0 -40.5 -10.5zM106.5 609q-9.5 3 -13 12t-3.5 28v62q0 19 3 27.5t11.5 11.5
t27.5 3h97q19 0 28 -3t12 -11.5t3 -27.5v-62q0 -19 -3.5 -28t-13 -12t-30.5 -3h-88q-21 0 -30.5 3zM368.5 609q-9.5 3 -13 12t-3.5 28v62q0 19 3 27.5t11.5 11.5t27.5 3h97q19 0 28 -3t12 -11.5t3 -27.5v-62q0 -19 -3.5 -28t-13 -12t-30.5 -3h-88q-21 0 -30.5 3z" />
    <glyph glyph-name="igrave" unicode="&#xec;" horiz-adv-x="316" 
d="M82.5 4q-9.5 4 -13 13.5t-3.5 29.5v459q0 20 3.5 29.5t13 13.5t29.5 4h92q21 0 31 -4.5t12.5 -13.5t2.5 -29v-459q0 -20 -3.5 -30t-13 -13.5t-29.5 -3.5h-92q-20 0 -29.5 4zM-3 762q-6 9 -6 17q0 11 9.5 15t32.5 4h96q21 0 32 -7t20 -23l68 -121q5 -8 8.5 -16.5
t3.5 -15.5q0 -20 -38 -20h-41q-34 0 -54 21l-110 120q-15 17 -21 26z" />
    <glyph glyph-name="iacute" unicode="&#xed;" horiz-adv-x="316" 
d="M82.5 4q-9.5 4 -13 13.5t-3.5 29.5v459q0 20 3.5 29.5t13 13.5t29.5 4h92q21 0 31 -4.5t12.5 -13.5t2.5 -29v-459q0 -20 -3.5 -30t-13 -13.5t-29.5 -3.5h-92q-20 0 -29.5 4zM132 595h-41q-38 0 -38 20q0 7 3.5 15.5t8.5 16.5l68 121q9 16 20 23t32 7h96q23 0 32.5 -4
t9.5 -15q0 -8 -6 -17t-21 -26l-110 -120q-19 -21 -54 -21z" />
    <glyph glyph-name="icircumflex" unicode="&#xee;" horiz-adv-x="316" 
d="M82.5 4q-9.5 4 -13 13.5t-3.5 29.5v459q0 20 3.5 29.5t13 13.5t29.5 4h92q21 0 31 -4.5t12.5 -13.5t2.5 -29v-459q0 -20 -3.5 -30t-13 -13.5t-29.5 -3.5h-92q-20 0 -29.5 4zM72 784q6 8 11.5 11t14.5 3h116q12 0 17.5 -4.5t16.5 -19.5l101 -135q16 -20 16 -30
q0 -7 -4.5 -10.5t-11.5 -3.5h-82q-10 0 -16.5 4t-17.5 17l-77 84l-77 -84q-11 -13 -17.5 -17t-16.5 -4h-80q-7 0 -11.5 3.5t-4.5 10.5q0 10 15 30l100 135q2 2 8 10z" />
    <glyph glyph-name="idieresis" unicode="&#xef;" horiz-adv-x="316" 
d="M82.5 4q-9.5 4 -13 13.5t-3.5 29.5v459q0 20 3.5 29.5t13 13.5t29.5 4h92q21 0 31 -4.5t12.5 -13.5t2.5 -29v-459q0 -20 -3.5 -30t-13 -13.5t-29.5 -3.5h-92q-20 0 -29.5 4zM-48.5 609q-9.5 3 -13 12t-3.5 28v62q0 19 3 27.5t11.5 11.5t27.5 3h97q19 0 28 -3t12 -11.5
t3 -27.5v-62q0 -19 -3.5 -28t-13 -12t-30.5 -3h-88q-21 0 -30.5 3zM213.5 609q-9.5 3 -13 12t-3.5 28v62q0 19 3 27.5t11.5 11.5t27.5 3h97q19 0 28 -3t12 -11.5t3 -27.5v-62q0 -19 -3.5 -28t-13 -12t-30.5 -3h-88q-21 0 -30.5 3z" />
    <glyph glyph-name="eth" unicode="&#xf0;" horiz-adv-x="638" 
d="M173 678l-48 40q-10 8 -14 13.5t-4 9.5q0 8 9.5 10t24.5 2h156q17 0 29 -6t28 -22l21 -19l72 25q16 6 24 6t12 -5.5t10 -19.5l11 -28q5 -13 5 -20q0 -8 -6 -12t-26 -12l-21 -8q29 -30 47 -54t28 -42t25 -48q21 -42 30.5 -94t9.5 -117v-41q0 -128 -65.5 -187.5
t-201.5 -59.5h-28q-137 0 -198 58.5t-61 174.5v65q0 75 25.5 128t73.5 80.5t114 27.5h6q27 0 45 -3.5t37 -10.5l2 1q-20 30 -56 66l-101 -35q-16 -6 -24 -6t-12 5.5t-10 19.5l-11 27q-6 12 -6 20t6.5 12.5t21.5 9.5l56 19zM400.5 338q-7.5 24 -26 36t-51.5 12h-6
q-34 0 -53 -12.5t-26.5 -36.5t-7.5 -63v-38q0 -54 19 -81t66 -27h9q48 0 66 25.5t18 79.5v43q0 38 -7.5 62z" />
    <glyph glyph-name="ntilde" unicode="&#xf1;" horiz-adv-x="647" 
d="M69.5 536q3.5 10 13 13.5t29.5 3.5h92q14 0 21 -5t9.5 -11.5t4.5 -18.5l6 -32h4q24 38 64.5 58t92.5 20q89 0 135 -46t46 -125v-344q0 -21 -3.5 -31t-13.5 -14t-30 -4h-92q-26 0 -35.5 9.5t-9.5 35.5v274q0 46 -13.5 76.5t-57.5 30.5q-27 0 -46 -9t-31 -21
q-3 -3 -4 -10.5t-1 -17.5v-326q0 -23 -8.5 -32.5t-33.5 -9.5h-96q-21 0 -30.5 4.5t-12.5 14t-3 28.5v459q0 20 3.5 30zM271.5 651.5q-9.5 2.5 -20.5 2.5q-32 0 -48 -37q0 -1 -2 -6t-7.5 -8t-14.5 -3h-34q-14 0 -18.5 6t-4.5 21q0 40 16.5 70.5t46 47.5t68.5 17q38 0 71 -14
l51 -22q29 -12 47 -12t29 10t18 27q0 1 2 6t7.5 8t14.5 3h34q13 0 18.5 -6t5.5 -21q0 -38 -19 -69t-49.5 -48.5t-62.5 -17.5q-38 0 -71 14l-51 22q-17 7 -26.5 9.5z" />
    <glyph glyph-name="ograve" unicode="&#xf2;" horiz-adv-x="638" 
d="M109.5 505q67.5 60 201.5 60h25q134 0 197 -58t63 -184v-80q0 -130 -66.5 -192t-201.5 -62h-25q-137 0 -199 63t-62 187v70q0 136 67.5 196zM401 371q-7 27 -25 41t-51 14h-9q-34 0 -52.5 -14t-26 -42t-7.5 -73v-44q0 -63 18.5 -94t65.5 -31h9q34 0 52.5 14t25.5 40t7 67
v50q0 45 -7 72zM140 762q-6 9 -6 17q0 11 9.5 15t32.5 4h96q21 0 32 -7t20 -23l68 -121q5 -8 8.5 -16.5t3.5 -15.5q0 -20 -38 -20h-41q-34 0 -54 21l-110 120q-15 17 -21 26z" />
    <glyph glyph-name="oacute" unicode="&#xf3;" horiz-adv-x="638" 
d="M109.5 505q67.5 60 201.5 60h25q134 0 197 -58t63 -184v-80q0 -130 -66.5 -192t-201.5 -62h-25q-137 0 -199 63t-62 187v70q0 136 67.5 196zM401 371q-7 27 -25 41t-51 14h-9q-34 0 -52.5 -14t-26 -42t-7.5 -73v-44q0 -63 18.5 -94t65.5 -31h9q34 0 52.5 14t25.5 40t7 67
v50q0 45 -7 72zM311 595h-41q-38 0 -38 20q0 7 3.5 15.5t8.5 16.5l68 121q9 16 20 23t32 7h96q23 0 32.5 -4t9.5 -15q0 -8 -6 -17t-21 -26l-110 -120q-19 -21 -54 -21z" />
    <glyph glyph-name="ocircumflex" unicode="&#xf4;" horiz-adv-x="638" 
d="M109.5 505q67.5 60 201.5 60h25q134 0 197 -58t63 -184v-80q0 -130 -66.5 -192t-201.5 -62h-25q-137 0 -199 63t-62 187v70q0 136 67.5 196zM401 371q-7 27 -25 41t-51 14h-9q-34 0 -52.5 -14t-26 -42t-7.5 -73v-44q0 -63 18.5 -94t65.5 -31h9q34 0 52.5 14t25.5 40t7 67
v50q0 45 -7 72zM234 784q6 8 11.5 11t14.5 3h116q12 0 17.5 -4.5t16.5 -19.5l101 -135q16 -20 16 -30q0 -7 -4.5 -10.5t-11.5 -3.5h-82q-10 0 -16.5 4t-17.5 17l-77 84l-77 -84q-11 -13 -17.5 -17t-16.5 -4h-80q-7 0 -11.5 3.5t-4.5 10.5q0 10 15 30l100 135q2 2 8 10z" />
    <glyph glyph-name="otilde" unicode="&#xf5;" horiz-adv-x="638" 
d="M109.5 505q67.5 60 201.5 60h25q134 0 197 -58t63 -184v-80q0 -130 -66.5 -192t-201.5 -62h-25q-137 0 -199 63t-62 187v70q0 136 67.5 196zM401 371q-7 27 -25 41t-51 14h-9q-34 0 -52.5 -14t-26 -42t-7.5 -73v-44q0 -63 18.5 -94t65.5 -31h9q34 0 52.5 14t25.5 40t7 67
v50q0 45 -7 72zM263.5 651.5q-9.5 2.5 -20.5 2.5q-32 0 -48 -37q0 -1 -2 -6t-7.5 -8t-14.5 -3h-34q-14 0 -18.5 6t-4.5 21q0 40 16.5 70.5t46 47.5t68.5 17q38 0 71 -14l51 -22q29 -12 47 -12t29 10t18 27q0 1 2 6t7.5 8t14.5 3h34q13 0 18.5 -6t5.5 -21q0 -38 -19 -69
t-49.5 -48.5t-62.5 -17.5q-38 0 -71 14l-51 22q-17 7 -26.5 9.5z" />
    <glyph glyph-name="odieresis" unicode="&#xf6;" horiz-adv-x="638" 
d="M109.5 505q67.5 60 201.5 60h25q134 0 197 -58t63 -184v-80q0 -130 -66.5 -192t-201.5 -62h-25q-137 0 -199 63t-62 187v70q0 136 67.5 196zM401 371q-7 27 -25 41t-51 14h-9q-34 0 -52.5 -14t-26 -42t-7.5 -73v-44q0 -63 18.5 -94t65.5 -31h9q34 0 52.5 14t25.5 40t7 67
v50q0 45 -7 72zM114.5 609q-9.5 3 -13 12t-3.5 28v62q0 19 3 27.5t11.5 11.5t27.5 3h97q19 0 28 -3t12 -11.5t3 -27.5v-62q0 -19 -3.5 -28t-13 -12t-30.5 -3h-88q-21 0 -30.5 3zM376.5 609q-9.5 3 -13 12t-3.5 28v62q0 19 3 27.5t11.5 11.5t27.5 3h97q19 0 28 -3t12 -11.5
t3 -27.5v-62q0 -19 -3.5 -28t-13 -12t-30.5 -3h-88q-21 0 -30.5 3z" />
    <glyph glyph-name="divide" unicode="&#xf7;" horiz-adv-x="745" 
d="M309.5 543q-9.5 3 -13 12t-3.5 28v62q0 19 3 27.5t11.5 11.5t27.5 3h72q19 0 28 -3t12 -11.5t3 -27.5v-62q0 -19 -3.5 -28t-13 -12t-30.5 -3h-63q-21 0 -30.5 3zM658.5 449.5q9.5 -3.5 13 -13.5t3.5 -30v-51q0 -20 -3.5 -29.5t-13 -13.5t-29.5 -4h-514q-20 0 -29.5 4
t-13 13.5t-3.5 29.5v51q0 21 3.5 30.5t13 13t29.5 3.5h514q20 0 29.5 -3.5zM309.5 77q-9.5 3 -13 12t-3.5 28v62q0 19 3 27.5t11.5 11.5t27.5 3h72q19 0 28 -3t12 -11.5t3 -27.5v-62q0 -19 -3.5 -28t-13 -12t-30.5 -3h-63q-21 0 -30.5 3z" />
    <glyph glyph-name="oslash" unicode="&#xf8;" horiz-adv-x="638" 
d="M14.5 38q-3.5 4 -6 7.5t-2.5 6.5q0 5 6 12t16 15l36 32q-22 53 -22 128v70q0 136 67.5 196t201.5 60h25q117 0 180 -45l29 26q9 8 16 13t11 5t9 -4t11 -10l27 -30q1 -1 4.5 -5t6 -7.5t2.5 -6.5q0 -5 -6 -12t-16 -15l-34 -31q20 -51 20 -120v-80q0 -130 -66.5 -192
t-201.5 -62h-25q-116 0 -179 46l-31 -28q-9 -8 -16 -13t-12 -5q-8 0 -19 14l-27 30q-1 1 -4.5 5zM216 248l180 163q-21 28 -70 28h-10q-39 0 -60.5 -16.5t-30.5 -48.5t-9 -83v-23v-20zM422 304l-180 -161q22 -28 72 -28h9q40 0 61.5 16t29.5 46t8 77v25v25z" />
    <glyph glyph-name="ugrave" unicode="&#xf9;" horiz-adv-x="647" 
d="M577.5 16.5q-3.5 -9.5 -13 -13t-29.5 -3.5h-81q-22 0 -31 7.5t-14 27.5l-5 26h-4q-24 -35 -65.5 -54t-93.5 -19q-56 0 -97 21.5t-62.5 61.5t-21.5 94v341q0 20 3.5 30t13 13.5t29.5 3.5h92q20 0 29.5 -3.5t13 -13t3.5 -30.5v-296q0 -30 2.5 -46t15 -27t40.5 -11t52 11.5
t35 25.5q5 6 6.5 12.5t1.5 17.5v313q0 21 3.5 30.5t13 13t29.5 3.5h92q20 0 29.5 -3.5t13 -13t3.5 -30.5v-459q0 -21 -3.5 -30.5zM130 762q-6 9 -6 17q0 11 9.5 15t32.5 4h96q21 0 32 -7t20 -23l68 -121q5 -8 8.5 -16.5t3.5 -15.5q0 -20 -38 -20h-41q-34 0 -54 21l-110 120
q-15 17 -21 26z" />
    <glyph glyph-name="uacute" unicode="&#xfa;" horiz-adv-x="647" 
d="M577.5 16.5q-3.5 -9.5 -13 -13t-29.5 -3.5h-81q-22 0 -31 7.5t-14 27.5l-5 26h-4q-24 -35 -65.5 -54t-93.5 -19q-56 0 -97 21.5t-62.5 61.5t-21.5 94v341q0 20 3.5 30t13 13.5t29.5 3.5h92q20 0 29.5 -3.5t13 -13t3.5 -30.5v-296q0 -30 2.5 -46t15 -27t40.5 -11t52 11.5
t35 25.5q5 6 6.5 12.5t1.5 17.5v313q0 21 3.5 30.5t13 13t29.5 3.5h92q20 0 29.5 -3.5t13 -13t3.5 -30.5v-459q0 -21 -3.5 -30.5zM338 595h-41q-38 0 -38 20q0 7 3.5 15.5t8.5 16.5l68 121q9 16 20 23t32 7h96q23 0 32.5 -4t9.5 -15q0 -8 -6 -17t-21 -26l-110 -120
q-19 -21 -54 -21z" />
    <glyph glyph-name="ucircumflex" unicode="&#xfb;" horiz-adv-x="647" 
d="M577.5 16.5q-3.5 -9.5 -13 -13t-29.5 -3.5h-81q-22 0 -31 7.5t-14 27.5l-5 26h-4q-24 -35 -65.5 -54t-93.5 -19q-56 0 -97 21.5t-62.5 61.5t-21.5 94v341q0 20 3.5 30t13 13.5t29.5 3.5h92q20 0 29.5 -3.5t13 -13t3.5 -30.5v-296q0 -30 2.5 -46t15 -27t40.5 -11t52 11.5
t35 25.5q5 6 6.5 12.5t1.5 17.5v313q0 21 3.5 30.5t13 13t29.5 3.5h92q20 0 29.5 -3.5t13 -13t3.5 -30.5v-459q0 -21 -3.5 -30.5zM234 784q6 8 11.5 11t14.5 3h116q12 0 17.5 -4.5t16.5 -19.5l101 -135q16 -20 16 -30q0 -7 -4.5 -10.5t-11.5 -3.5h-82q-10 0 -16.5 4
t-17.5 17l-77 84l-77 -84q-11 -13 -17.5 -17t-16.5 -4h-80q-7 0 -11.5 3.5t-4.5 10.5q0 10 15 30l100 135q2 2 8 10z" />
    <glyph glyph-name="udieresis" unicode="&#xfc;" horiz-adv-x="647" 
d="M577.5 16.5q-3.5 -9.5 -13 -13t-29.5 -3.5h-81q-22 0 -31 7.5t-14 27.5l-5 26h-4q-24 -35 -65.5 -54t-93.5 -19q-56 0 -97 21.5t-62.5 61.5t-21.5 94v341q0 20 3.5 30t13 13.5t29.5 3.5h92q20 0 29.5 -3.5t13 -13t3.5 -30.5v-296q0 -30 2.5 -46t15 -27t40.5 -11t52 11.5
t35 25.5q5 6 6.5 12.5t1.5 17.5v313q0 21 3.5 30.5t13 13t29.5 3.5h92q20 0 29.5 -3.5t13 -13t3.5 -30.5v-459q0 -21 -3.5 -30.5zM114.5 609q-9.5 3 -13 12t-3.5 28v62q0 19 3 27.5t11.5 11.5t27.5 3h97q19 0 28 -3t12 -11.5t3 -27.5v-62q0 -19 -3.5 -28t-13 -12t-30.5 -3
h-88q-21 0 -30.5 3zM376.5 609q-9.5 3 -13 12t-3.5 28v62q0 19 3 27.5t11.5 11.5t27.5 3h97q19 0 28 -3t12 -11.5t3 -27.5v-62q0 -19 -3.5 -28t-13 -12t-30.5 -3h-88q-21 0 -30.5 3z" />
    <glyph glyph-name="yacute" unicode="&#xfd;" horiz-adv-x="581" 
d="M42 -184q-2 1 -13 5t-17.5 11t-6.5 16q0 7 4 20t12 32q2 5 9 23.5t14.5 25.5t17.5 7q7 0 18 -3.5t13 -4.5q12 -4 25 -7.5t24 -3.5q23 0 38 14t30 48q4 7 4 16q0 6 -3 13l-179 424q-16 38 -21.5 55t-5.5 26q0 20 27 20h113q17 0 25 -2.5t14 -11t12 -27.5l78 -211
q15 -44 26 -85h3q14 42 17 50l12 37l68 218q5 14 10 20.5t12 9t19 2.5h112q26 0 26 -19q0 -7 -3.5 -18.5t-7.5 -22.5l-190 -519q-23 -56 -50 -94.5t-68 -61t-98 -22.5q-70 0 -120 20zM304 595h-41q-38 0 -38 20q0 7 3.5 15.5t8.5 16.5l68 121q9 16 20 23t32 7h96
q23 0 32.5 -4t9.5 -15q0 -8 -6 -17t-21 -26l-110 -120q-19 -21 -54 -21z" />
    <glyph glyph-name="thorn" unicode="&#xfe;" horiz-adv-x="658" 
d="M308 5.5q-36 15.5 -55 43.5h-3v-194q0 -20 -3.5 -30t-13 -13.5t-29.5 -3.5h-92q-20 0 -29.5 4t-13 13.5t-3.5 29.5v835q0 20 3.5 30t13 13.5t29.5 3.5h92q20 0 29.5 -3.5t13 -13t3.5 -30.5v-144q23 9 54 14t55 5h10q130 0 188.5 -65.5t58.5 -200.5v-47q0 -77 -22.5 -136
t-70.5 -92.5t-121 -33.5h-11q-47 0 -83 15.5zM268 412q-11 -4 -14.5 -9t-3.5 -15v-148q0 -40 12.5 -65.5t32 -36.5t41.5 -11h8q46 0 65 32.5t19 94.5v33q0 53 -10.5 83t-30.5 42t-52 12h-5q-31 0 -62 -12z" />
    <glyph glyph-name="ydieresis" unicode="&#xff;" horiz-adv-x="581" 
d="M42 -184q-2 1 -13 5t-17.5 11t-6.5 16q0 7 4 20t12 32q2 5 9 23.5t14.5 25.5t17.5 7q7 0 18 -3.5t13 -4.5q12 -4 25 -7.5t24 -3.5q23 0 38 14t30 48q4 7 4 16q0 6 -3 13l-179 424q-16 38 -21.5 55t-5.5 26q0 20 27 20h113q17 0 25 -2.5t14 -11t12 -27.5l78 -211
q15 -44 26 -85h3q14 42 17 50l12 37l68 218q5 14 10 20.5t12 9t19 2.5h112q26 0 26 -19q0 -7 -3.5 -18.5t-7.5 -22.5l-190 -519q-23 -56 -50 -94.5t-68 -61t-98 -22.5q-70 0 -120 20zM85.5 609q-9.5 3 -13 12t-3.5 28v62q0 19 3 27.5t11.5 11.5t27.5 3h97q19 0 28 -3
t12 -11.5t3 -27.5v-62q0 -19 -3.5 -28t-13 -12t-30.5 -3h-88q-21 0 -30.5 3zM347.5 609q-9.5 3 -13 12t-3.5 28v62q0 19 3 27.5t11.5 11.5t27.5 3h97q19 0 28 -3t12 -11.5t3 -27.5v-62q0 -19 -3.5 -28t-13 -12t-30.5 -3h-88q-21 0 -30.5 3z" />
    <glyph glyph-name="Amacron" unicode="&#x100;" horiz-adv-x="757" 
d="M4.5 4.5q-8.5 4.5 -8.5 14.5q0 15 8 36l236 638q5 15 11.5 23t19 11.5t34.5 3.5h116q23 0 34.5 -3t17.5 -11t13 -24l266 -638q9 -21 9 -35q0 -11 -7 -15.5t-28 -4.5h-141q-17 0 -23.5 5.5t-12.5 22.5l-46 129h-260l-41 -130q-5 -14 -12.5 -20.5t-23.5 -6.5h-135
q-18 0 -26.5 4.5zM400 449q-8 23 -18 57t-14 57h-4q-4 -32 -27 -114l-41 -133h149zM202 807.5q-9 3.5 -13 13t-4 30.5v19q0 21 3.5 30.5t13 13t29.5 3.5h276q20 0 29.5 -3.5t13 -13t3.5 -30.5v-22q0 -44 -39 -44h-283q-20 0 -29 3.5z" />
    <glyph glyph-name="amacron" unicode="&#x101;" horiz-adv-x="600" 
d="M340 416.5q-20 12.5 -61 12.5q-32 0 -55.5 -4.5t-49.5 -15.5q-3 -1 -14.5 -6t-20 -7.5t-14.5 -2.5q-13 0 -20.5 8t-18.5 34q-3 6 -9 21t-9.5 25.5t-3.5 17.5q0 11 8.5 18t28.5 16q44 18 88 26t99 8q96 0 152 -19t78 -52.5t22 -80.5v-179q0 -52 6 -79.5t20 -56.5
q7 -14 10.5 -23.5t3.5 -15.5q0 -11 -9 -18.5t-31 -19.5l-34 -18q-17 -9 -27 -12.5t-23 -3.5q-12 0 -19.5 5.5t-15.5 18.5q-13 24 -25 64h-2q-68 -88 -175 -88q-92 0 -141.5 47.5t-49.5 132.5q0 66 29.5 107t95 61t175.5 20h32v21q0 26 -20 38.5zM225.5 136.5
q17.5 -13.5 41.5 -13.5q33 0 54 14t30 36t9 46v27h-37q-60 0 -87.5 -18.5t-27.5 -50.5q0 -27 17.5 -40.5zM446 623h-283q-20 0 -29 3.5t-13 13t-4 30.5v19q0 21 3.5 30.5t13 13t29.5 3.5h276q20 0 29.5 -3.5t13 -13t3.5 -30.5v-22q0 -44 -39 -44z" />
    <glyph glyph-name="Abreve" unicode="&#x102;" horiz-adv-x="757" 
d="M4.5 4.5q-8.5 4.5 -8.5 14.5q0 15 8 36l236 638q5 15 11.5 23t19 11.5t34.5 3.5h116q23 0 34.5 -3t17.5 -11t13 -24l266 -638q9 -21 9 -35q0 -11 -7 -15.5t-28 -4.5h-141q-17 0 -23.5 5.5t-12.5 22.5l-46 129h-260l-41 -130q-5 -14 -12.5 -20.5t-23.5 -6.5h-135
q-18 0 -26.5 4.5zM400 449q-8 23 -18 57t-14 57h-4q-4 -32 -27 -114l-41 -133h149zM292.5 896.5q25.5 -20.5 74.5 -20.5t74.5 20.5t31.5 44.5q4 13 8.5 16t18.5 3h48q11 0 16 -4t5 -13q0 -52 -27.5 -89t-73.5 -55.5t-101 -18.5t-101 18.5t-73.5 55.5t-27.5 89q0 9 5 13t16 4
h47q14 0 19 -3.5t9 -15.5q6 -24 31.5 -44.5z" />
    <glyph glyph-name="abreve" unicode="&#x103;" horiz-adv-x="600" 
d="M340 416.5q-20 12.5 -61 12.5q-32 0 -55.5 -4.5t-49.5 -15.5q-3 -1 -14.5 -6t-20 -7.5t-14.5 -2.5q-13 0 -20.5 8t-18.5 34q-3 6 -9 21t-9.5 25.5t-3.5 17.5q0 11 8.5 18t28.5 16q44 18 88 26t99 8q96 0 152 -19t78 -52.5t22 -80.5v-179q0 -52 6 -79.5t20 -56.5
q7 -14 10.5 -23.5t3.5 -15.5q0 -11 -9 -18.5t-31 -19.5l-34 -18q-17 -9 -27 -12.5t-23 -3.5q-12 0 -19.5 5.5t-15.5 18.5q-13 24 -25 64h-2q-68 -88 -175 -88q-92 0 -141.5 47.5t-49.5 132.5q0 66 29.5 107t95 61t175.5 20h32v21q0 26 -20 38.5zM225.5 136.5
q17.5 -13.5 41.5 -13.5q33 0 54 14t30 36t9 46v27h-37q-60 0 -87.5 -18.5t-27.5 -50.5q0 -27 17.5 -40.5zM216 737.5q11 -15.5 33.5 -27t56.5 -11.5t56.5 11.5t33.5 27t14 30.5q2 10 5 14.5t7.5 5.5t14.5 1h50q11 0 16 -4t5 -14q0 -57 -27.5 -96.5t-73.5 -59.5t-101 -20
t-101 20t-73.5 59.5t-27.5 96.5q0 10 5 14t16 4h49q15 0 20 -3.5t8 -17.5q3 -15 14 -30.5z" />
    <glyph glyph-name="Aogonek" unicode="&#x104;" horiz-adv-x="757" 
d="M4.5 4.5q-8.5 4.5 -8.5 14.5q0 15 8 36l236 638q5 15 11.5 23t19 11.5t34.5 3.5h116q23 0 34.5 -3t17.5 -11t13 -24l266 -638q9 -21 9 -35q0 -9 -4.5 -13t-14.5 -6l-42 -7q-42 -9 -67 -37t-25 -72q0 -24 14.5 -39t40.5 -15q14 0 26 2.5t17 4t7 2.5q3 1 9.5 3t10.5 2
q6 0 8 -3t5 -11l10 -33q2 -10 2 -13q0 -13 -18 -21q-15 -7 -42.5 -13t-60.5 -6q-68 0 -114 29t-46 96q0 37 23 70.5t60 58.5l-57 158h-260l-41 -130q-5 -14 -12.5 -20.5t-23.5 -6.5h-135q-18 0 -26.5 4.5zM400 449q-8 23 -18 57t-14 57h-4q-4 -32 -27 -114l-41 -133h149z
" />
    <glyph glyph-name="aogonek" unicode="&#x105;" horiz-adv-x="600" 
d="M340 416.5q-20 12.5 -61 12.5q-32 0 -55.5 -4.5t-49.5 -15.5q-3 -1 -14.5 -6t-20 -7.5t-14.5 -2.5q-13 0 -20.5 8t-18.5 34q-3 6 -9 21t-9.5 25.5t-3.5 17.5q0 11 8.5 18t28.5 16q44 18 88 26t99 8q96 0 152 -19t78 -52.5t22 -80.5v-179q0 -52 6 -79.5t20 -56.5
q7 -14 10.5 -23.5t3.5 -15.5q0 -7 -3.5 -11.5t-11.5 -10t-15 -11.5q-47 -40 -63.5 -75t-16.5 -68q0 -24 14.5 -39t40.5 -15q14 0 26 2.5t17 4t7 2.5q3 1 9.5 3t10.5 2q6 0 8 -3t5 -11l10 -33q2 -10 2 -13q0 -13 -18 -21q-15 -7 -42.5 -13t-60.5 -6q-68 0 -114 29t-46 96
q0 38 24.5 72t66.5 63q-10 12 -17.5 29t-16.5 43h-2q-68 -88 -175 -88q-92 0 -141.5 47.5t-49.5 132.5q0 66 29.5 107t95 61t175.5 20h32v21q0 26 -20 38.5zM225.5 136.5q17.5 -13.5 41.5 -13.5q33 0 54 14t30 36t9 46v27h-37q-60 0 -87.5 -18.5t-27.5 -50.5
q0 -27 17.5 -40.5z" />
    <glyph glyph-name="Cacute" unicode="&#x106;" horiz-adv-x="685" 
d="M184.5 28q-72.5 42 -106 115.5t-33.5 171.5v85q0 345 321 345q67 0 117 -9.5t106 -35.5q14 -6 24 -12t14.5 -12t4.5 -16q0 -7 -6 -23t-10 -26t-6 -14q-14 -35 -24.5 -49.5t-22.5 -14.5q-9 0 -20.5 4.5t-25.5 10.5l-26 11q-4 2 -23 10t-41 12t-47 4q-72 0 -103.5 -48.5
t-31.5 -139.5v-64q0 -96 33 -141.5t108 -45.5q30 0 67 11.5t67 26.5q25 12 34.5 16t20.5 4q12 0 18.5 -8t15 -26t12.5 -26q8 -17 14.5 -36t6.5 -26q0 -13 -10 -22.5t-41 -26.5q-38 -21 -93 -34t-128 -13q-113 0 -185.5 42zM547.5 927q5.5 8 5.5 16q0 10 -8.5 13.5t-29.5 3.5
h-90q-19 0 -29 -6.5t-18 -20.5l-59 -106q-11 -20 -11 -29t8 -13.5t23 -4.5h38q13 0 21.5 1t13.5 4.5t14 13.5l103 105q13 15 18.5 23z" />
    <glyph glyph-name="cacute" unicode="&#x107;" horiz-adv-x="534" 
d="M113 56.5q-71 67.5 -71 208.5v14q0 285 271 285q61 0 99 -10t75 -29q17 -8 21.5 -15t4.5 -18q0 -8 -5.5 -21.5t-9.5 -22t-6 -12.5q-12 -28 -20 -38.5t-20 -10.5t-40 14q-46 22 -79 22q-44 0 -73.5 -30t-29.5 -101v-34q0 -68 28.5 -98t73.5 -30q23 0 43 6t39 14l18 8t17 7
t14 3q11 0 18 -9t20 -37q20 -43 20 -57q0 -10 -7.5 -18t-24.5 -18q-27 -17 -73.5 -28.5t-99.5 -11.5q-132 0 -203 67.5zM302 595h-41q-38 0 -38 20q0 7 3.5 15.5t8.5 16.5l68 121q9 16 20 23t32 7h96q23 0 32.5 -4t9.5 -15q0 -8 -6 -17t-21 -26l-110 -120q-19 -21 -54 -21z
" />
    <glyph glyph-name="Ccircumflex" unicode="&#x108;" horiz-adv-x="685" 
d="M184.5 28q-72.5 42 -106 115.5t-33.5 171.5v85q0 345 321 345q67 0 117 -9.5t106 -35.5q14 -6 24 -12t14.5 -12t4.5 -16q0 -7 -6 -23t-10 -26t-6 -14q-14 -35 -24.5 -49.5t-22.5 -14.5q-9 0 -20.5 4.5t-25.5 10.5l-26 11q-4 2 -23 10t-41 12t-47 4q-72 0 -103.5 -48.5
t-31.5 -139.5v-64q0 -96 33 -141.5t108 -45.5q30 0 67 11.5t67 26.5q25 12 34.5 16t20.5 4q12 0 18.5 -8t15 -26t12.5 -26q8 -17 14.5 -36t6.5 -26q0 -13 -10 -22.5t-41 -26.5q-38 -21 -93 -34t-128 -13q-113 0 -185.5 42zM307 947q11 6 25 6h93q14 0 22.5 -5.5t20.5 -18.5
l101 -105q16 -16 16 -30q0 -7 -4.5 -10.5t-11.5 -3.5h-68q-16 0 -24.5 4t-15 9.5t-8.5 7.5l-77 63l-77 -63q-2 -2 -9.5 -8.5t-16 -9.5t-20.5 -3h-68q-7 0 -11.5 3.5t-4.5 10.5q0 15 15 30l100 105q12 12 23 18z" />
    <glyph glyph-name="ccircumflex" unicode="&#x109;" horiz-adv-x="534" 
d="M113 56.5q-71 67.5 -71 208.5v14q0 285 271 285q61 0 99 -10t75 -29q17 -8 21.5 -15t4.5 -18q0 -8 -5.5 -21.5t-9.5 -22t-6 -12.5q-12 -28 -20 -38.5t-20 -10.5t-40 14q-46 22 -79 22q-44 0 -73.5 -30t-29.5 -101v-34q0 -68 28.5 -98t73.5 -30q23 0 43 6t39 14l18 8t17 7
t14 3q11 0 18 -9t20 -37q20 -43 20 -57q0 -10 -7.5 -18t-24.5 -18q-27 -17 -73.5 -28.5t-99.5 -11.5q-132 0 -203 67.5zM216 784q6 8 11.5 11t14.5 3h116q12 0 17.5 -4.5t16.5 -19.5l101 -135q16 -20 16 -30q0 -7 -4.5 -10.5t-11.5 -3.5h-82q-10 0 -16.5 4t-17.5 17l-77 84
l-77 -84q-11 -13 -17.5 -17t-16.5 -4h-80q-7 0 -11.5 3.5t-4.5 10.5q0 10 15 30l100 135q2 2 8 10z" />
    <glyph glyph-name="Cdotaccent" unicode="&#x10a;" horiz-adv-x="685" 
d="M184.5 28q-72.5 42 -106 115.5t-33.5 171.5v85q0 345 321 345q67 0 117 -9.5t106 -35.5q14 -6 24 -12t14.5 -12t4.5 -16q0 -7 -6 -23t-10 -26t-6 -14q-14 -35 -24.5 -49.5t-22.5 -14.5q-9 0 -20.5 4.5t-25.5 10.5l-26 11q-4 2 -23 10t-41 12t-47 4q-72 0 -103.5 -48.5
t-31.5 -139.5v-64q0 -96 33 -141.5t108 -45.5q30 0 67 11.5t67 26.5q25 12 34.5 16t20.5 4q12 0 18.5 -8t15 -26t12.5 -26q8 -17 14.5 -36t6.5 -26q0 -13 -10 -22.5t-41 -26.5q-38 -21 -93 -34t-128 -13q-113 0 -185.5 42zM295.5 790q-9.5 3 -13 12t-3.5 28v62q0 19 3 27.5
t11.5 11.5t27.5 3h97q19 0 28 -3t12 -11.5t3 -27.5v-62q0 -19 -3.5 -28t-13 -12t-30.5 -3h-88q-21 0 -30.5 3z" />
    <glyph glyph-name="cdotaccent" unicode="&#x10b;" horiz-adv-x="534" 
d="M113 56.5q-71 67.5 -71 208.5v14q0 285 271 285q61 0 99 -10t75 -29q17 -8 21.5 -15t4.5 -18q0 -8 -5.5 -21.5t-9.5 -22t-6 -12.5q-12 -28 -20 -38.5t-20 -10.5t-40 14q-46 22 -79 22q-44 0 -73.5 -30t-29.5 -101v-34q0 -68 28.5 -98t73.5 -30q23 0 43 6t39 14l18 8t17 7
t14 3q11 0 18 -9t20 -37q20 -43 20 -57q0 -10 -7.5 -18t-24.5 -18q-27 -17 -73.5 -28.5t-99.5 -11.5q-132 0 -203 67.5zM231.5 609q-9.5 3 -13 12t-3.5 28v62q0 19 3 27.5t11.5 11.5t27.5 3h97q19 0 28 -3t12 -11.5t3 -27.5v-62q0 -19 -3.5 -28t-13 -12t-30.5 -3h-88
q-21 0 -30.5 3z" />
    <glyph glyph-name="Ccaron" unicode="&#x10c;" horiz-adv-x="685" 
d="M184.5 28q-72.5 42 -106 115.5t-33.5 171.5v85q0 345 321 345q67 0 117 -9.5t106 -35.5q14 -6 24 -12t14.5 -12t4.5 -16q0 -7 -6 -23t-10 -26t-6 -14q-14 -35 -24.5 -49.5t-22.5 -14.5q-9 0 -20.5 4.5t-25.5 10.5l-26 11q-4 2 -23 10t-41 12t-47 4q-72 0 -103.5 -48.5
t-31.5 -139.5v-64q0 -96 33 -141.5t108 -45.5q30 0 67 11.5t67 26.5q25 12 34.5 16t20.5 4q12 0 18.5 -8t15 -26t12.5 -26q8 -17 14.5 -36t6.5 -26q0 -13 -10 -22.5t-41 -26.5q-38 -21 -93 -34t-128 -13q-113 0 -185.5 42zM466.5 940.5q7.5 6.5 16.5 9.5t22 3h68
q7 0 11.5 -3.5t4.5 -10.5q0 -14 -16 -30l-101 -105q-12 -13 -20.5 -18.5t-22.5 -5.5h-93q-14 0 -25 6t-23 18l-100 105q-15 15 -15 30q0 7 4.5 10.5t11.5 3.5h68q15 0 23 -4t14.5 -9.5t8.5 -7.5l77 -63l77 63q2 2 9.5 8.5z" />
    <glyph glyph-name="ccaron" unicode="&#x10d;" horiz-adv-x="534" 
d="M113 56.5q-71 67.5 -71 208.5v14q0 285 271 285q61 0 99 -10t75 -29q17 -8 21.5 -15t4.5 -18q0 -8 -5.5 -21.5t-9.5 -22t-6 -12.5q-12 -28 -20 -38.5t-20 -10.5t-40 14q-46 22 -79 22q-44 0 -73.5 -30t-29.5 -101v-34q0 -68 28.5 -98t73.5 -30q23 0 43 6t39 14l18 8t17 7
t14 3q11 0 18 -9t20 -37q20 -43 20 -57q0 -10 -7.5 -18t-24.5 -18q-27 -17 -73.5 -28.5t-99.5 -11.5q-132 0 -203 67.5zM100 784q0 7 4.5 10.5t11.5 3.5h80q10 0 16.5 -4t17.5 -17l77 -84l77 84q11 13 17.5 17t16.5 4h82q7 0 11.5 -3.5t4.5 -10.5q0 -10 -16 -30l-101 -135
q-11 -15 -16.5 -19.5t-17.5 -4.5h-116q-9 0 -14 2.5t-10 8.5t-10 13l-100 135q-15 20 -15 30z" />
    <glyph glyph-name="Dcaron" unicode="&#x10e;" horiz-adv-x="770" 
d="M570 690.5q83 -40.5 119 -116t36 -186.5v-38q0 -160 -86 -255t-292 -95h-227q-20 0 -29.5 3.5t-13 13t-3.5 30.5v637q0 20 3.5 29.5t13 13.5t29.5 4h228q139 0 222 -40.5zM457.5 180q37.5 21 52.5 62.5t15 110.5v20q0 77 -16.5 119.5t-56.5 61t-114 18.5h-69v-413h85
q66 0 103.5 21zM436.5 940.5q7.5 6.5 16.5 9.5t22 3h68q7 0 11.5 -3.5t4.5 -10.5q0 -14 -16 -30l-101 -105q-12 -13 -20.5 -18.5t-22.5 -5.5h-93q-14 0 -25 6t-23 18l-100 105q-15 15 -15 30q0 7 4.5 10.5t11.5 3.5h68q15 0 23 -4t14.5 -9.5t8.5 -7.5l77 -63l77 63
q2 2 9.5 8.5z" />
    <glyph glyph-name="dcaron" unicode="&#x10f;" horiz-adv-x="785" 
d="M350 549.5q36 -15.5 55 -43.5h3v184q0 20 3.5 30t13 13.5t29.5 3.5h92q20 0 29.5 -4t13 -13.5t3.5 -29.5v-605q0 -27 -7.5 -40t-25.5 -23q-27 -15 -86.5 -24.5t-118.5 -9.5h-13q-299 0 -299 291v11q0 78 25.5 140.5t74.5 98.5t118 36h7q47 0 83 -15.5zM393 136q7 2 11 7
t4 14v158q0 40 -12.5 65.5t-32 36.5t-41.5 11h-4q-88 0 -88 -137v-25q0 -74 25.5 -105.5t78.5 -31.5h6q32 0 53 7zM735.5 538q-5.5 -4 -17.5 -4h-56q-8 0 -13 3.5t-5 10.5q0 8 5 35l21 130q3 15 11 19.5t28 4.5h94q14 0 19 -4t5 -12q0 -5 -3.5 -14t-7.5 -18l-68 -134
q-7 -13 -12.5 -17z" />
    <glyph glyph-name="Dcroat" unicode="&#x110;" horiz-adv-x="770" 
d="M570 690.5q83 -40.5 119 -116t36 -186.5v-38q0 -160 -86 -255t-292 -95h-227q-20 0 -29.5 3.5t-13 13t-3.5 30.5v247h-28q-21 0 -30.5 3.5t-12.5 13t-3 30.5v50q0 20 3.5 29.5t13 13.5t29.5 4h28v246q0 20 3.5 29.5t13 13.5t29.5 4h228q139 0 222 -40.5zM457.5 180
q37.5 21 52.5 62.5t15 110.5v20q0 77 -16.5 119.5t-56.5 61t-114 18.5h-69v-134h86q21 0 30.5 -4t12.5 -13.5t3 -29.5v-50q0 -19 -2.5 -28.5t-12.5 -14t-31 -4.5h-86v-135h85q66 0 103.5 21z" />
    <glyph glyph-name="dcroat" unicode="&#x111;" horiz-adv-x="658" 
d="M592 85q0 -27 -7.5 -40t-25.5 -23q-27 -15 -86.5 -24.5t-118.5 -9.5h-13q-299 0 -299 291v11q0 78 25.5 140.5t74.5 98.5t118 36h7q47 0 83 -15.5t55 -43.5h3v73h-45q-20 0 -29 3.5t-13 13t-4 30.5v14q0 20 3.5 29.5t13 13.5t29.5 4h45v3q0 20 3.5 30t13 13.5t29.5 3.5
h92q20 0 29.5 -4t13 -13.5t3.5 -29.5v-3h10q20 0 29.5 -4t13 -13.5t3.5 -29.5v-14q0 -20 -3.5 -29.5t-13 -13.5t-29.5 -4h-10v-494zM393 136q7 2 11 7t4 14v158q0 40 -12.5 65.5t-32 36.5t-41.5 11h-4q-88 0 -88 -137v-25q0 -74 25.5 -105.5t78.5 -31.5h6q32 0 53 7z" />
    <glyph glyph-name="Emacron" unicode="&#x112;" horiz-adv-x="644" 
d="M90.5 3.5q-9.5 3.5 -13 13.5t-3.5 30v637q0 21 3.5 30.5t13 13t29.5 3.5h418q20 0 29.5 -4t13 -13.5t3.5 -29.5v-70q0 -20 -3.5 -29.5t-13 -13.5t-29.5 -4h-269v-113h199q21 0 30.5 -4t12.5 -13.5t3 -29.5v-66q0 -20 -3.5 -29.5t-13 -13.5t-29.5 -4h-199v-130h284
q20 0 29.5 -4t13 -13.5t3.5 -29.5v-70q0 -20 -3.5 -29.5t-13 -13.5t-29.5 -4h-433q-20 0 -29.5 3.5zM155 807.5q-9 3.5 -13 13t-4 30.5v19q0 21 3.5 30.5t13 13t29.5 3.5h276q20 0 29.5 -3.5t13 -13t3.5 -30.5v-22q0 -44 -39 -44h-283q-20 0 -29 3.5z" />
    <glyph glyph-name="emacron" unicode="&#x113;" horiz-adv-x="614" 
d="M254.5 154.5q26.5 -24.5 91.5 -24.5q62 0 116 22q6 2 14 6t17 7t15 3q9 0 14 -3t11 -13.5t14 -25.5q4 -8 11 -21t10 -21t3 -14q0 -10 -5 -16.5t-16 -12.5t-34 -16q-38 -16 -87.5 -26t-100.5 -10q-117 0 -180 37.5t-84.5 100t-21.5 151.5v23q0 131 70 197.5t199 66.5
q91 0 148.5 -30t85 -93t27.5 -164v-7q0 -20 -3 -29.5t-12.5 -13.5t-30.5 -4h-298v-6q0 -39 26.5 -63.5zM268.5 425.5q-18.5 -10.5 -29.5 -29t-11 -42.5v-4h160v4q0 37 -22 59.5t-57 22.5q-22 0 -40.5 -10.5zM449 623h-283q-20 0 -29 3.5t-13 13t-4 30.5v19q0 21 3.5 30.5
t13 13t29.5 3.5h276q20 0 29.5 -3.5t13 -13t3.5 -30.5v-22q0 -44 -39 -44z" />
    <glyph glyph-name="Ebreve" unicode="&#x114;" horiz-adv-x="644" 
d="M90.5 3.5q-9.5 3.5 -13 13.5t-3.5 30v637q0 21 3.5 30.5t13 13t29.5 3.5h418q20 0 29.5 -4t13 -13.5t3.5 -29.5v-70q0 -20 -3.5 -29.5t-13 -13.5t-29.5 -4h-269v-113h199q21 0 30.5 -4t12.5 -13.5t3 -29.5v-66q0 -20 -3.5 -29.5t-13 -13.5t-29.5 -4h-199v-130h284
q20 0 29.5 -4t13 -13.5t3.5 -29.5v-70q0 -20 -3.5 -29.5t-13 -13.5t-29.5 -4h-433q-20 0 -29.5 3.5zM266.5 896.5q25.5 -20.5 74.5 -20.5t74.5 20.5t31.5 44.5q4 13 8.5 16t18.5 3h48q11 0 16 -4t5 -13q0 -52 -27.5 -89t-73.5 -55.5t-101 -18.5t-101 18.5t-73.5 55.5
t-27.5 89q0 9 5 13t16 4h47q14 0 19 -3.5t9 -15.5q6 -24 31.5 -44.5z" />
    <glyph glyph-name="ebreve" unicode="&#x115;" horiz-adv-x="614" 
d="M254.5 154.5q26.5 -24.5 91.5 -24.5q62 0 116 22q6 2 14 6t17 7t15 3q9 0 14 -3t11 -13.5t14 -25.5q4 -8 11 -21t10 -21t3 -14q0 -10 -5 -16.5t-16 -12.5t-34 -16q-38 -16 -87.5 -26t-100.5 -10q-117 0 -180 37.5t-84.5 100t-21.5 151.5v23q0 131 70 197.5t199 66.5
q91 0 148.5 -30t85 -93t27.5 -164v-7q0 -20 -3 -29.5t-12.5 -13.5t-30.5 -4h-298v-6q0 -39 26.5 -63.5zM268.5 425.5q-18.5 -10.5 -29.5 -29t-11 -42.5v-4h160v4q0 37 -22 59.5t-57 22.5q-22 0 -40.5 -10.5zM218 737.5q11 -15.5 33.5 -27t56.5 -11.5t56.5 11.5t33.5 27
t14 30.5q2 10 5 14.5t7.5 5.5t14.5 1h50q11 0 16 -4t5 -14q0 -57 -27.5 -96.5t-73.5 -59.5t-101 -20t-101 20t-73.5 59.5t-27.5 96.5q0 10 5 14t16 4h49q15 0 20 -3.5t8 -17.5q3 -15 14 -30.5z" />
    <glyph glyph-name="Edotaccent" unicode="&#x116;" horiz-adv-x="644" 
d="M90.5 3.5q-9.5 3.5 -13 13.5t-3.5 30v637q0 21 3.5 30.5t13 13t29.5 3.5h418q20 0 29.5 -4t13 -13.5t3.5 -29.5v-70q0 -20 -3.5 -29.5t-13 -13.5t-29.5 -4h-269v-113h199q21 0 30.5 -4t12.5 -13.5t3 -29.5v-66q0 -20 -3.5 -29.5t-13 -13.5t-29.5 -4h-199v-130h284
q20 0 29.5 -4t13 -13.5t3.5 -29.5v-70q0 -20 -3.5 -29.5t-13 -13.5t-29.5 -4h-433q-20 0 -29.5 3.5zM267.5 790q-9.5 3 -13 12t-3.5 28v62q0 19 3 27.5t11.5 11.5t27.5 3h97q19 0 28 -3t12 -11.5t3 -27.5v-62q0 -19 -3.5 -28t-13 -12t-30.5 -3h-88q-21 0 -30.5 3z" />
    <glyph glyph-name="edotaccent" unicode="&#x117;" horiz-adv-x="614" 
d="M254.5 154.5q26.5 -24.5 91.5 -24.5q62 0 116 22q6 2 14 6t17 7t15 3q9 0 14 -3t11 -13.5t14 -25.5q4 -8 11 -21t10 -21t3 -14q0 -10 -5 -16.5t-16 -12.5t-34 -16q-38 -16 -87.5 -26t-100.5 -10q-117 0 -180 37.5t-84.5 100t-21.5 151.5v23q0 131 70 197.5t199 66.5
q91 0 148.5 -30t85 -93t27.5 -164v-7q0 -20 -3 -29.5t-12.5 -13.5t-30.5 -4h-298v-6q0 -39 26.5 -63.5zM268.5 425.5q-18.5 -10.5 -29.5 -29t-11 -42.5v-4h160v4q0 37 -22 59.5t-57 22.5q-22 0 -40.5 -10.5zM239.5 609q-9.5 3 -13 12t-3.5 28v62q0 19 3 27.5t11.5 11.5
t27.5 3h97q19 0 28 -3t12 -11.5t3 -27.5v-62q0 -19 -3.5 -28t-13 -12t-30.5 -3h-88q-21 0 -30.5 3z" />
    <glyph glyph-name="Eogonek" unicode="&#x118;" horiz-adv-x="644" 
d="M502 -34q-24 -37 -24 -81q0 -24 14.5 -39t40.5 -15q14 0 26 2.5t17 4t7 2.5q3 1 9.5 3t10.5 2q6 0 8 -3t5 -11l10 -33q2 -10 2 -13q0 -13 -18 -21q-15 -7 -42.5 -13t-60.5 -6q-68 0 -114 29t-46 96q0 36 23 69.5t61 60.5h-311q-20 0 -29.5 3.5t-13 13.5t-3.5 30v637
q0 21 3.5 30.5t13 13t29.5 3.5h418q20 0 29.5 -4t13 -13.5t3.5 -29.5v-70q0 -20 -3.5 -29.5t-13 -13.5t-29.5 -4h-269v-113h199q21 0 30.5 -4t12.5 -13.5t3 -29.5v-66q0 -20 -3.5 -29.5t-13 -13.5t-29.5 -4h-199v-130h284q20 0 29.5 -4t13 -13.5t3.5 -29.5v-70
q0 -20 -3.5 -29.5t-13 -13.5t-29.5 -4h-24q-18 -19 -27 -34z" />
    <glyph glyph-name="eogonek" unicode="&#x119;" horiz-adv-x="614" 
d="M254.5 154.5q26.5 -24.5 91.5 -24.5q62 0 116 22q6 2 14 6t17 7t15 3q9 0 14 -3t11 -13.5t14 -25.5q4 -8 11 -21t10 -21t3 -14q0 -14 -8.5 -21t-30.5 -17q-14 -6 -24.5 -13t-18.5 -14q-27 -22 -44 -52t-17 -68q0 -24 14.5 -39t40.5 -15q14 0 26 2.5t17 4t7 2.5q3 1 9.5 3
t10.5 2q6 0 8 -3t5 -11l10 -33q2 -10 2 -13q0 -13 -18 -21q-15 -7 -42.5 -13t-60.5 -6q-68 0 -114 29t-46 96q0 34 20.5 66.5t52.5 55.5q-6 0 -16.5 -1.5t-25.5 -1.5q-117 0 -180 37.5t-84.5 100t-21.5 151.5v23q0 131 70 197.5t199 66.5q91 0 148.5 -30t85 -93t27.5 -164
v-7q0 -20 -3 -29.5t-12.5 -13.5t-30.5 -4h-298v-6q0 -39 26.5 -63.5zM268.5 425.5q-18.5 -10.5 -29.5 -29t-11 -42.5v-4h160v4q0 37 -22 59.5t-57 22.5q-22 0 -40.5 -10.5z" />
    <glyph glyph-name="Ecaron" unicode="&#x11a;" horiz-adv-x="644" 
d="M90.5 3.5q-9.5 3.5 -13 13.5t-3.5 30v637q0 21 3.5 30.5t13 13t29.5 3.5h418q20 0 29.5 -4t13 -13.5t3.5 -29.5v-70q0 -20 -3.5 -29.5t-13 -13.5t-29.5 -4h-269v-113h199q21 0 30.5 -4t12.5 -13.5t3 -29.5v-66q0 -20 -3.5 -29.5t-13 -13.5t-29.5 -4h-199v-130h284
q20 0 29.5 -4t13 -13.5t3.5 -29.5v-70q0 -20 -3.5 -29.5t-13 -13.5t-29.5 -4h-433q-20 0 -29.5 3.5zM425.5 940.5q7.5 6.5 16.5 9.5t22 3h68q7 0 11.5 -3.5t4.5 -10.5q0 -14 -16 -30l-101 -105q-12 -13 -20.5 -18.5t-22.5 -5.5h-93q-14 0 -25 6t-23 18l-100 105
q-15 15 -15 30q0 7 4.5 10.5t11.5 3.5h68q15 0 23 -4t14.5 -9.5t8.5 -7.5l77 -63l77 63q2 2 9.5 8.5z" />
    <glyph glyph-name="ecaron" unicode="&#x11b;" horiz-adv-x="614" 
d="M254.5 154.5q26.5 -24.5 91.5 -24.5q62 0 116 22q6 2 14 6t17 7t15 3q9 0 14 -3t11 -13.5t14 -25.5q4 -8 11 -21t10 -21t3 -14q0 -10 -5 -16.5t-16 -12.5t-34 -16q-38 -16 -87.5 -26t-100.5 -10q-117 0 -180 37.5t-84.5 100t-21.5 151.5v23q0 131 70 197.5t199 66.5
q91 0 148.5 -30t85 -93t27.5 -164v-7q0 -20 -3 -29.5t-12.5 -13.5t-30.5 -4h-298v-6q0 -39 26.5 -63.5zM268.5 425.5q-18.5 -10.5 -29.5 -29t-11 -42.5v-4h160v4q0 37 -22 59.5t-57 22.5q-22 0 -40.5 -10.5zM102 784q0 7 4.5 10.5t11.5 3.5h80q10 0 16.5 -4t17.5 -17l77 -84
l77 84q11 13 17.5 17t16.5 4h82q7 0 11.5 -3.5t4.5 -10.5q0 -10 -16 -30l-101 -135q-11 -15 -16.5 -19.5t-17.5 -4.5h-116q-9 0 -14 2.5t-10 8.5t-10 13l-100 135q-15 20 -15 30z" />
    <glyph glyph-name="Gcircumflex" unicode="&#x11c;" horiz-adv-x="759" 
d="M310.5 567.5q-34.5 -17.5 -50 -56.5t-15.5 -104v-74q0 -69 15.5 -110t48 -59t84.5 -18q31 0 48.5 2.5t35.5 9.5q9 3 14.5 11t5.5 18v92h-119q-22 0 -31.5 4t-12 14.5t-2.5 33.5v56q0 21 4 31t13 13t29 3h279q15 0 22 -2t9.5 -8t2.5 -18v-312q0 -16 -7.5 -26.5t-20 -18
t-37.5 -18.5q-45 -19 -109 -32t-141 -13q-112 0 -186 41t-109.5 115.5t-35.5 174.5v94q0 170 87 252t270 82q67 0 115 -6.5t94 -19.5q33 -10 46 -19t13 -24q0 -16 -21 -70q-7 -20 -13.5 -34t-11.5 -19t-14 -5q-10 0 -21.5 2.5t-21 6t-17.5 5.5q-75 23 -146 23
q-59 0 -93.5 -17.5zM330 947q11 6 25 6h93q14 0 22.5 -5.5t20.5 -18.5l101 -105q16 -16 16 -30q0 -7 -4.5 -10.5t-11.5 -3.5h-68q-16 0 -24.5 4t-15 9.5t-8.5 7.5l-77 63l-77 -63q-2 -2 -9.5 -8.5t-16 -9.5t-20.5 -3h-68q-7 0 -11.5 3.5t-4.5 10.5q0 15 15 30l100 105
q12 12 23 18z" />
    <glyph glyph-name="gcircumflex" unicode="&#x11d;" horiz-adv-x="655" 
d="M264 18h-12q-66 0 -114 29t-73.5 85.5t-25.5 136.5v18q0 132 76.5 205t235.5 73q111 0 217 -29q13 -3 17 -10t4 -23v-380q0 -104 -22 -174t-82.5 -111t-170.5 -41q-123 0 -202 35q-30 13 -40.5 21.5t-10.5 21.5q0 9 5 23t12 29q14 30 23 42t21 12q9 0 21.5 -5l27.5 -11
q24 -11 58.5 -17.5t62.5 -6.5q64 0 88.5 37.5t24.5 101.5h-2q-55 -62 -139 -62zM402 417.5q-3 3.5 -14 4.5q-18 4 -53 4q-56 0 -82 -32t-26 -106v-3q0 -65 22.5 -95t67.5 -30h4q28 0 47 12.5t28 31.5t9 38v162q0 10 -3 13.5zM249 784q6 8 11.5 11t14.5 3h116q12 0 17.5 -4.5
t16.5 -19.5l101 -135q16 -20 16 -30q0 -7 -4.5 -10.5t-11.5 -3.5h-82q-10 0 -16.5 4t-17.5 17l-77 84l-77 -84q-11 -13 -17.5 -17t-16.5 -4h-80q-7 0 -11.5 3.5t-4.5 10.5q0 10 15 30l100 135q2 2 8 10z" />
    <glyph glyph-name="Gbreve" unicode="&#x11e;" horiz-adv-x="759" 
d="M310.5 567.5q-34.5 -17.5 -50 -56.5t-15.5 -104v-74q0 -69 15.5 -110t48 -59t84.5 -18q31 0 48.5 2.5t35.5 9.5q9 3 14.5 11t5.5 18v92h-119q-22 0 -31.5 4t-12 14.5t-2.5 33.5v56q0 21 4 31t13 13t29 3h279q15 0 22 -2t9.5 -8t2.5 -18v-312q0 -16 -7.5 -26.5t-20 -18
t-37.5 -18.5q-45 -19 -109 -32t-141 -13q-112 0 -186 41t-109.5 115.5t-35.5 174.5v94q0 170 87 252t270 82q67 0 115 -6.5t94 -19.5q33 -10 46 -19t13 -24q0 -16 -21 -70q-7 -20 -13.5 -34t-11.5 -19t-14 -5q-10 0 -21.5 2.5t-21 6t-17.5 5.5q-75 23 -146 23
q-59 0 -93.5 -17.5zM318.5 896.5q25.5 -20.5 74.5 -20.5t74.5 20.5t31.5 44.5q4 13 8.5 16t18.5 3h48q11 0 16 -4t5 -13q0 -52 -27.5 -89t-73.5 -55.5t-101 -18.5t-101 18.5t-73.5 55.5t-27.5 89q0 9 5 13t16 4h47q14 0 19 -3.5t9 -15.5q6 -24 31.5 -44.5z" />
    <glyph glyph-name="gbreve" unicode="&#x11f;" horiz-adv-x="655" 
d="M264 18h-12q-66 0 -114 29t-73.5 85.5t-25.5 136.5v18q0 132 76.5 205t235.5 73q111 0 217 -29q13 -3 17 -10t4 -23v-380q0 -104 -22 -174t-82.5 -111t-170.5 -41q-123 0 -202 35q-30 13 -40.5 21.5t-10.5 21.5q0 9 5 23t12 29q14 30 23 42t21 12q9 0 21.5 -5l27.5 -11
q24 -11 58.5 -17.5t62.5 -6.5q64 0 88.5 37.5t24.5 101.5h-2q-55 -62 -139 -62zM402 417.5q-3 3.5 -14 4.5q-18 4 -53 4q-56 0 -82 -32t-26 -106v-3q0 -65 22.5 -95t67.5 -30h4q28 0 47 12.5t28 31.5t9 38v162q0 10 -3 13.5zM253 737.5q11 -15.5 33.5 -27t56.5 -11.5
t56.5 11.5t33.5 27t14 30.5q2 10 5 14.5t7.5 5.5t14.5 1h50q11 0 16 -4t5 -14q0 -57 -27.5 -96.5t-73.5 -59.5t-101 -20t-101 20t-73.5 59.5t-27.5 96.5q0 10 5 14t16 4h49q15 0 20 -3.5t8 -17.5q3 -15 14 -30.5z" />
    <glyph glyph-name="Gdotaccent" unicode="&#x120;" horiz-adv-x="759" 
d="M310.5 567.5q-34.5 -17.5 -50 -56.5t-15.5 -104v-74q0 -69 15.5 -110t48 -59t84.5 -18q31 0 48.5 2.5t35.5 9.5q9 3 14.5 11t5.5 18v92h-119q-22 0 -31.5 4t-12 14.5t-2.5 33.5v56q0 21 4 31t13 13t29 3h279q15 0 22 -2t9.5 -8t2.5 -18v-312q0 -16 -7.5 -26.5t-20 -18
t-37.5 -18.5q-45 -19 -109 -32t-141 -13q-112 0 -186 41t-109.5 115.5t-35.5 174.5v94q0 170 87 252t270 82q67 0 115 -6.5t94 -19.5q33 -10 46 -19t13 -24q0 -16 -21 -70q-7 -20 -13.5 -34t-11.5 -19t-14 -5q-10 0 -21.5 2.5t-21 6t-17.5 5.5q-75 23 -146 23
q-59 0 -93.5 -17.5zM324.5 790q-9.5 3 -13 12t-3.5 28v62q0 19 3 27.5t11.5 11.5t27.5 3h97q19 0 28 -3t12 -11.5t3 -27.5v-62q0 -19 -3.5 -28t-13 -12t-30.5 -3h-88q-21 0 -30.5 3z" />
    <glyph glyph-name="gdotaccent" unicode="&#x121;" horiz-adv-x="655" 
d="M264 18h-12q-66 0 -114 29t-73.5 85.5t-25.5 136.5v18q0 132 76.5 205t235.5 73q111 0 217 -29q13 -3 17 -10t4 -23v-380q0 -104 -22 -174t-82.5 -111t-170.5 -41q-123 0 -202 35q-30 13 -40.5 21.5t-10.5 21.5q0 9 5 23t12 29q14 30 23 42t21 12q9 0 21.5 -5l27.5 -11
q24 -11 58.5 -17.5t62.5 -6.5q64 0 88.5 37.5t24.5 101.5h-2q-55 -62 -139 -62zM402 417.5q-3 3.5 -14 4.5q-18 4 -53 4q-56 0 -82 -32t-26 -106v-3q0 -65 22.5 -95t67.5 -30h4q28 0 47 12.5t28 31.5t9 38v162q0 10 -3 13.5zM261.5 609q-9.5 3 -13 12t-3.5 28v62
q0 19 3 27.5t11.5 11.5t27.5 3h97q19 0 28 -3t12 -11.5t3 -27.5v-62q0 -19 -3.5 -28t-13 -12t-30.5 -3h-88q-21 0 -30.5 3z" />
    <glyph glyph-name="Gcommaaccent" unicode="&#x122;" horiz-adv-x="759" 
d="M310.5 567.5q-34.5 -17.5 -50 -56.5t-15.5 -104v-74q0 -69 15.5 -110t48 -59t84.5 -18q31 0 48.5 2.5t35.5 9.5q9 3 14.5 11t5.5 18v92h-119q-22 0 -31.5 4t-12 14.5t-2.5 33.5v56q0 21 4 31t13 13t29 3h279q15 0 22 -2t9.5 -8t2.5 -18v-312q0 -16 -7.5 -26.5t-20 -18
t-37.5 -18.5q-45 -19 -109 -32t-141 -13q-112 0 -186 41t-109.5 115.5t-35.5 174.5v94q0 170 87 252t270 82q67 0 115 -6.5t94 -19.5q33 -10 46 -19t13 -24q0 -16 -21 -70q-7 -20 -13.5 -34t-11.5 -19t-14 -5q-10 0 -21.5 2.5t-21 6t-17.5 5.5q-75 23 -146 23
q-59 0 -93.5 -17.5zM333.5 -209q-11.5 0 -16 8t-4.5 24l-1 74q0 20 3 28.5t13 12t32 3.5h83q21 0 31 -3.5t14 -12t4 -27.5v-83q0 -21 -7 -38t-27 -49l-26 -42q-16 -25 -23 -32.5t-16 -7.5q-10 0 -28 9q-2 1 -9 5.5t-10.5 9.5t-3.5 12q0 8 4.5 20.5t8 20t5.5 11.5l26 57h-39
h-13.5z" />
    <glyph glyph-name="gcommaaccent" unicode="&#x123;" horiz-adv-x="655" 
d="M264 18h-12q-66 0 -114 29t-73.5 85.5t-25.5 136.5v18q0 132 76.5 205t235.5 73q111 0 217 -29q13 -3 17 -10t4 -23v-380q0 -104 -22 -174t-82.5 -111t-170.5 -41q-123 0 -202 35q-30 13 -40.5 21.5t-10.5 21.5q0 9 5 23t12 29q14 30 23 42t21 12q9 0 21.5 -5l27.5 -11
q24 -11 58.5 -17.5t62.5 -6.5q64 0 88.5 37.5t24.5 101.5h-2q-55 -62 -139 -62zM402 417.5q-3 3.5 -14 4.5q-18 4 -53 4q-56 0 -82 -32t-26 -106v-3q0 -65 22.5 -95t67.5 -30h4q28 0 47 12.5t28 31.5t9 38v162q0 10 -3 13.5zM404.5 751q11.5 0 16 -8t4.5 -24l1 -69
q0 -20 -3 -28.5t-13 -12t-32 -3.5h-80q-21 0 -31 3.5t-14 12t-4 27.5v83q0 21 7 38t27 49l26 42q16 25 23 32.5t16 7.5q6 0 12 -2t16 -7q12 -6 17.5 -11.5t5.5 -15.5q0 -7 -5 -19t-9 -20.5t-7 -14.5l-28 -60h41h13.5z" />
    <glyph glyph-name="Hcircumflex" unicode="&#x124;" horiz-adv-x="793" 
d="M89.5 4q-9.5 4 -12.5 13.5t-3 29.5v637q0 20 3.5 30t13 13.5t29.5 3.5h103q20 0 29.5 -3.5t13 -13.5t3.5 -30v-224h255v224q0 20 3.5 29.5t13 13.5t29.5 4h104q20 0 29.5 -3.5t13 -13.5t3.5 -30v-637q0 -20 -3.5 -29.5t-13 -13.5t-29.5 -4h-104q-20 0 -29.5 3.5t-13 13
t-3.5 30.5v253h-255v-253q0 -20 -3.5 -29.5t-13 -13.5t-29.5 -4h-103q-21 0 -30.5 4zM326 947q11 6 25 6h93q14 0 22.5 -5.5t20.5 -18.5l101 -105q16 -16 16 -30q0 -7 -4.5 -10.5t-11.5 -3.5h-68q-16 0 -24.5 4t-15 9.5t-8.5 7.5l-77 63l-77 -63q-2 -2 -9.5 -8.5t-16 -9.5
t-20.5 -3h-68q-7 0 -11.5 3.5t-4.5 10.5q0 15 15 30l100 105q12 12 23 18z" />
    <glyph glyph-name="hcircumflex" unicode="&#x125;" horiz-adv-x="647" 
d="M419.5 3.5q-9.5 3.5 -13 13.5t-3.5 31v272q0 46 -13.5 76.5t-57.5 30.5q-27 0 -46 -9t-31 -21q-4 -4 -4.5 -9.5t-0.5 -14.5v-331q0 -24 -8.5 -33t-33.5 -9h-97q-24 0 -34.5 7t-10.5 28v655q0 20 3 29.5t12.5 13.5t30.5 4h92q21 0 30.5 -4.5t12.5 -14t3 -28.5v-200h2
q29 39 67.5 57t95.5 18q47 0 86 -18.5t62.5 -57t23.5 -95.5v-347q0 -20 -3.5 -29.5t-13 -13.5t-29.5 -4h-92q-20 0 -29.5 3.5zM255 947q11 6 25 6h93q14 0 22.5 -5.5t20.5 -18.5l101 -105q16 -16 16 -30q0 -7 -4.5 -10.5t-11.5 -3.5h-68q-16 0 -24.5 4t-15 9.5t-8.5 7.5
l-77 63l-77 -63q-2 -2 -9.5 -8.5t-16 -9.5t-20.5 -3h-68q-7 0 -11.5 3.5t-4.5 10.5q0 15 15 30l100 105q12 12 23 18z" />
    <glyph glyph-name="Hbar" unicode="&#x126;" horiz-adv-x="793" 
d="M89.5 4q-9.5 4 -12.5 13.5t-3 29.5v470h-31q-18 0 -25.5 4.5t-10 15.5t-2.5 36v41q0 17 2.5 26.5t10.5 15t25 5.5h31v23q0 20 3.5 30t13 13.5t29.5 3.5h103q20 0 29.5 -3.5t13 -13.5t3.5 -30v-23h255v23q0 20 3.5 29.5t13 13.5t29.5 4h104q20 0 29.5 -3.5t13 -13.5
t3.5 -30v-23h22q20 0 29.5 -4t13 -13.5t3.5 -29.5v-50q0 -20 -3 -29.5t-12.5 -13.5t-30.5 -4h-22v-470q0 -20 -3.5 -29.5t-13 -13.5t-29.5 -4h-104q-20 0 -29.5 3.5t-13 13t-3.5 30.5v253h-255v-253q0 -20 -3.5 -29.5t-13 -13.5t-29.5 -4h-103q-21 0 -30.5 4zM524 517h-255
v-57h255v57z" />
    <glyph glyph-name="hbar" unicode="&#x127;" horiz-adv-x="647" 
d="M419.5 3.5q-9.5 3.5 -13 13.5t-3.5 31v272q0 46 -13.5 76.5t-57.5 30.5q-27 0 -46 -9t-31 -21q-4 -4 -4.5 -9.5t-0.5 -14.5v-331q0 -24 -8.5 -33t-33.5 -9h-97q-24 0 -34.5 7t-10.5 28v544h-10q-20 0 -29 3.5t-13 13t-4 30.5v14q0 20 3.5 29.5t13 13.5t29.5 4h10v3
q0 20 3 29.5t12.5 13.5t30.5 4h86q21 0 30.5 -4.5t12.5 -14t3 -28.5v-3h45q20 0 29.5 -4t13 -13.5t3.5 -29.5v-14q0 -20 -3.5 -29.5t-13 -13.5t-29.5 -4h-45v-94h4q30 42 69 61t98 19q48 0 87 -18.5t62 -57t23 -95.5v-347q0 -20 -3.5 -29.5t-13 -13.5t-29.5 -4h-92
q-20 0 -29.5 3.5z" />
    <glyph glyph-name="Itilde" unicode="&#x128;" horiz-adv-x="469" 
d="M421.5 145.5q9.5 -3.5 13 -13t3.5 -30.5v-55q0 -20 -3 -29.5t-12.5 -13.5t-30.5 -4h-316q-19 0 -28.5 3t-13.5 13t-4 31v55q0 20 3.5 29.5t13 13.5t29.5 4h61v432h-61q-20 0 -29.5 4t-13 13.5t-3.5 29.5v56q0 20 3.5 30t13 13.5t29.5 3.5h316q20 0 29.5 -3.5t13 -13.5
t3.5 -30v-56q0 -20 -3 -29.5t-12.5 -13.5t-30.5 -4h-60v-432h60q20 0 29.5 -3.5zM166 837.5q-10 1.5 -22 1.5q-37 0 -53 -38q0 -1 -2 -6t-7.5 -8t-14.5 -3h-34q-14 0 -18.5 6t-4.5 21q0 40 17.5 71t49 48.5t72.5 17.5q40 0 75 -15l54 -23q28 -11 49 -11q35 0 51 38q0 1 2 6
t7.5 8t14.5 3h33q13 0 18.5 -6t5.5 -21q0 -39 -20.5 -70.5t-52.5 -49t-66 -17.5q-37 0 -74 16l-54 23q-16 7 -26 8.5z" />
    <glyph glyph-name="itilde" unicode="&#x129;" horiz-adv-x="316" 
d="M82.5 4q-9.5 4 -13 13.5t-3.5 29.5v459q0 20 3.5 29.5t13 13.5t29.5 4h92q21 0 31 -4.5t12.5 -13.5t2.5 -29v-459q0 -20 -3.5 -30t-13 -13.5t-29.5 -3.5h-92q-20 0 -29.5 4zM80.5 651.5q-9.5 2.5 -20.5 2.5q-32 0 -48 -37q0 -1 -2 -6t-7.5 -8t-14.5 -3h-34q-14 0 -18.5 6
t-4.5 21q0 40 16.5 70.5t46 47.5t68.5 17q38 0 71 -14l51 -22q29 -12 47 -12t29 10t18 27q0 1 2 6t7.5 8t14.5 3h34q13 0 18.5 -6t5.5 -21q0 -38 -19 -69t-49.5 -48.5t-62.5 -17.5q-38 0 -71 14l-51 22q-17 7 -26.5 9.5z" />
    <glyph glyph-name="Imacron" unicode="&#x12a;" horiz-adv-x="469" 
d="M421.5 145.5q9.5 -3.5 13 -13t3.5 -30.5v-55q0 -20 -3 -29.5t-12.5 -13.5t-30.5 -4h-316q-19 0 -28.5 3t-13.5 13t-4 31v55q0 20 3.5 29.5t13 13.5t29.5 4h61v432h-61q-20 0 -29.5 4t-13 13.5t-3.5 29.5v56q0 20 3.5 30t13 13.5t29.5 3.5h316q20 0 29.5 -3.5t13 -13.5
t3.5 -30v-56q0 -20 -3 -29.5t-12.5 -13.5t-30.5 -4h-60v-432h60q20 0 29.5 -3.5zM68 807.5q-9 3.5 -13 13t-4 30.5v19q0 21 3.5 30.5t13 13t29.5 3.5h276q20 0 29.5 -3.5t13 -13t3.5 -30.5v-22q0 -44 -39 -44h-283q-20 0 -29 3.5z" />
    <glyph glyph-name="imacron" unicode="&#x12b;" horiz-adv-x="316" 
d="M82.5 4q-9.5 4 -13 13.5t-3.5 29.5v459q0 20 3.5 29.5t13 13.5t29.5 4h92q21 0 31 -4.5t12.5 -13.5t2.5 -29v-459q0 -20 -3.5 -30t-13 -13.5t-29.5 -3.5h-92q-20 0 -29.5 4zM302 623h-283q-20 0 -29 3.5t-13 13t-4 30.5v19q0 21 3.5 30.5t13 13t29.5 3.5h276
q20 0 29.5 -3.5t13 -13t3.5 -30.5v-22q0 -44 -39 -44z" />
    <glyph glyph-name="Ibreve" unicode="&#x12c;" horiz-adv-x="469" 
d="M421.5 145.5q9.5 -3.5 13 -13t3.5 -30.5v-55q0 -20 -3 -29.5t-12.5 -13.5t-30.5 -4h-316q-19 0 -28.5 3t-13.5 13t-4 31v55q0 20 3.5 29.5t13 13.5t29.5 4h61v432h-61q-20 0 -29.5 4t-13 13.5t-3.5 29.5v56q0 20 3.5 30t13 13.5t29.5 3.5h316q20 0 29.5 -3.5t13 -13.5
t3.5 -30v-56q0 -20 -3 -29.5t-12.5 -13.5t-30.5 -4h-60v-432h60q20 0 29.5 -3.5zM162.5 896.5q25.5 -20.5 74.5 -20.5t74.5 20.5t31.5 44.5q4 13 8.5 16t18.5 3h48q11 0 16 -4t5 -13q0 -52 -27.5 -89t-73.5 -55.5t-101 -18.5t-101 18.5t-73.5 55.5t-27.5 89q0 9 5 13t16 4
h47q14 0 19 -3.5t9 -15.5q6 -24 31.5 -44.5z" />
    <glyph glyph-name="ibreve" unicode="&#x12d;" horiz-adv-x="316" 
d="M82.5 4q-9.5 4 -13 13.5t-3.5 29.5v459q0 20 3.5 29.5t13 13.5t29.5 4h92q21 0 31 -4.5t12.5 -13.5t2.5 -29v-459q0 -20 -3.5 -30t-13 -13.5t-29.5 -3.5h-92q-20 0 -29.5 4zM67 737.5q11 -15.5 33.5 -27t56.5 -11.5t56.5 11.5t33.5 27t14 30.5q2 10 5 14.5t7.5 5.5
t14.5 1h50q11 0 16 -4t5 -14q0 -57 -27.5 -96.5t-73.5 -59.5t-101 -20t-101 20t-73.5 59.5t-27.5 96.5q0 10 5 14t16 4h49q15 0 20 -3.5t8 -17.5q3 -15 14 -30.5z" />
    <glyph glyph-name="Iogonek" unicode="&#x12e;" horiz-adv-x="469" 
d="M421.5 145.5q9.5 -3.5 13 -13t3.5 -30.5v-55q0 -20 -3 -29.5t-12.5 -13.5t-30.5 -4h-29q-27 0 -51 -7.5t-41 -22.5q-37 -31 -37 -85q0 -24 14.5 -39t40.5 -15q14 0 26 2.5t17 4t7 2.5q3 1 9.5 3t10.5 2q6 0 8 -3t5 -11l10 -33q2 -10 2 -13q0 -13 -18 -21
q-15 -7 -42.5 -13t-60.5 -6q-68 0 -114 29t-46 96q0 37 24.5 72.5t63.5 57.5h-115q-19 0 -28.5 3t-13.5 13t-4 31v55q0 20 3.5 29.5t13 13.5t29.5 4h61v432h-61q-20 0 -29.5 4t-13 13.5t-3.5 29.5v56q0 20 3.5 30t13 13.5t29.5 3.5h316q20 0 29.5 -3.5t13 -13.5t3.5 -30v-56
q0 -20 -3 -29.5t-12.5 -13.5t-30.5 -4h-60v-432h60q20 0 29.5 -3.5z" />
    <glyph glyph-name="iogonek" unicode="&#x12f;" horiz-adv-x="316" 
d="M82.5 609q-9.5 3 -13 12t-3.5 28v57q0 21 3.5 30.5t13 13t29.5 3.5h92q21 0 30 -3.5t12.5 -13t3.5 -30.5v-57q0 -19 -3.5 -28t-13 -12t-30.5 -3h-90q-21 0 -30.5 3zM248 22.5q-2 -8.5 -7 -14t-16 -10.5q-32 -16 -50 -45t-18 -68q0 -24 14.5 -39t40.5 -15q14 0 26 2.5
t17 4t7 2.5q3 1 9.5 3t10.5 2q6 0 8 -3t5 -11l10 -33q2 -10 2 -13q0 -13 -18 -21q-15 -7 -42.5 -13t-60.5 -6q-68 0 -114 29t-46 96q0 36 22.5 69.5t61.5 60.5q-19 0 -28.5 4t-12.5 13.5t-3 29.5v459q0 20 3.5 29.5t13 13.5t29.5 4h92q21 0 30.5 -4.5t12 -13t3.5 -29.5v-459
q0 -16 -2 -24.5z" />
    <glyph glyph-name="Idotaccent" unicode="&#x130;" horiz-adv-x="469" 
d="M421.5 145.5q9.5 -3.5 13 -13t3.5 -30.5v-55q0 -20 -3 -29.5t-12.5 -13.5t-30.5 -4h-316q-19 0 -28.5 3t-13.5 13t-4 31v55q0 20 3.5 29.5t13 13.5t29.5 4h61v432h-61q-20 0 -29.5 4t-13 13.5t-3.5 29.5v56q0 20 3.5 30t13 13.5t29.5 3.5h316q20 0 29.5 -3.5t13 -13.5
t3.5 -30v-56q0 -20 -3 -29.5t-12.5 -13.5t-30.5 -4h-60v-432h60q20 0 29.5 -3.5zM160.5 790q-9.5 3 -13 12t-3.5 28v62q0 19 3 27.5t11.5 11.5t27.5 3h97q19 0 28 -3t12 -11.5t3 -27.5v-62q0 -19 -3.5 -28t-13 -12t-30.5 -3h-88q-21 0 -30.5 3z" />
    <glyph glyph-name="dotlessi" unicode="&#x131;" horiz-adv-x="316" 
d="M82.5 4q-9.5 4 -13 13.5t-3.5 29.5v459q0 20 3.5 29.5t13 13.5t29.5 4h92q21 0 31 -4.5t12.5 -13.5t2.5 -29v-459q0 -20 -3.5 -30t-13 -13.5t-29.5 -3.5h-92q-20 0 -29.5 4z" />
    <glyph glyph-name="IJ" unicode="&#x132;" horiz-adv-x="1051" 
d="M421.5 145.5q9.5 -3.5 13 -13t3.5 -30.5v-55q0 -20 -3 -29.5t-12.5 -13.5t-30.5 -4h-316q-19 0 -28.5 3t-13.5 13t-4 31v55q0 20 3.5 29.5t13 13.5t29.5 4h61v432h-61q-20 0 -29.5 4t-13 13.5t-3.5 29.5v56q0 20 3.5 30t13 13.5t29.5 3.5h316q20 0 29.5 -3.5t13 -13.5
t3.5 -30v-56q0 -20 -3 -29.5t-12.5 -13.5t-30.5 -4h-60v-432h60q20 0 29.5 -3.5zM970.5 727.5q9.5 -3.5 13 -13.5t3.5 -30v-349q0 -105 -23.5 -181t-83 -120.5t-163.5 -44.5q-84 0 -136.5 30t-87.5 79q-15 20 -19 31.5t-4 21.5q0 13 11.5 23t42.5 29q29 18 40.5 23.5
t20.5 5.5q10 0 16 -5t21 -23l19 -23q14 -17 31 -25.5t39 -8.5q29 0 47 16.5t26 51t8 91.5v265h-111q-20 0 -29 3.5t-13 13t-4 30.5v66q0 20 3.5 29.5t13 13.5t29.5 4h260q20 0 29.5 -3.5z" />
    <glyph glyph-name="ij" unicode="&#x133;" horiz-adv-x="632" 
d="M82.5 609q-9.5 3 -13 12t-3.5 28v57q0 21 3.5 30.5t13 13t29.5 3.5h92q21 0 30 -3.5t12.5 -13t3.5 -30.5v-57q0 -19 -3.5 -28t-13 -12t-30.5 -3h-90q-21 0 -30.5 3zM82.5 4q-9.5 4 -13 13.5t-3.5 29.5v459q0 20 3.5 29.5t13 13.5t29.5 4h92q21 0 31 -4.5t12.5 -13.5
t2.5 -29v-459q0 -20 -3.5 -30t-13 -13.5t-29.5 -3.5h-92q-20 0 -29.5 4zM398.5 609.5q-9.5 3.5 -13 13t-3.5 30.5v53q0 21 4 30.5t13 13t29 3.5h91q21 0 30.5 -4t13 -13t3.5 -29v-54q0 -21 -3.5 -30.5t-13 -13t-30.5 -3.5h-90q-21 0 -30.5 3.5zM370 -206q-38 0 -68.5 6
t-61.5 19q-24 11 -33 18t-9 20q0 8 7 25t12 27.5t7 15.5q6 14 11.5 23.5t10.5 12.5t13 3q13 0 32 -7q12 -4 26 -7.5t28 -3.5q22 0 29.5 18.5t7.5 54.5v487q0 20 3 29.5t12.5 13.5t30.5 4h92q21 0 30.5 -4t12.5 -13.5t3 -29.5v-500q0 -212 -196 -212z" />
    <glyph glyph-name="Jcircumflex" unicode="&#x134;" horiz-adv-x="572" 
d="M491.5 727.5q9.5 -3.5 13 -13.5t3.5 -30v-349q0 -105 -23.5 -181t-83 -120.5t-163.5 -44.5q-84 0 -136.5 30t-87.5 79q-15 20 -19 31.5t-4 21.5q0 13 11.5 23t42.5 29q29 18 40.5 23.5t20.5 5.5q10 0 16 -5t21 -23l19 -23q14 -17 31 -25.5t39 -8.5q29 0 47 16.5t26 51
t8 91.5v265h-111q-20 0 -29 3.5t-13 13t-4 30.5v66q0 20 3.5 29.5t13 13.5t29.5 4h260q20 0 29.5 -3.5zM259 947q11 6 25 6h93q14 0 22.5 -5.5t20.5 -18.5l101 -105q16 -16 16 -30q0 -7 -4.5 -10.5t-11.5 -3.5h-68q-16 0 -24.5 4t-15 9.5t-8.5 7.5l-77 63l-77 -63
q-2 -2 -9.5 -8.5t-16 -9.5t-20.5 -3h-68q-7 0 -11.5 3.5t-4.5 10.5q0 15 15 30l100 105q12 12 23 18z" />
    <glyph glyph-name="jcircumflex" unicode="&#x135;" horiz-adv-x="316" 
d="M54 -206q-38 0 -68.5 6t-61.5 19q-24 11 -33 18t-9 20q0 8 7 25t12 27.5t7 15.5q6 14 11.5 23.5t10.5 12.5t13 3q13 0 32 -7q12 -4 26 -7.5t28 -3.5q22 0 29.5 18.5t7.5 54.5v487q0 20 3 29.5t12.5 13.5t30.5 4h92q21 0 30.5 -4t12.5 -13.5t3 -29.5v-500
q0 -212 -196 -212zM64 784q6 8 11.5 11t14.5 3h116q12 0 17.5 -4.5t16.5 -19.5l101 -135q16 -20 16 -30q0 -7 -4.5 -10.5t-11.5 -3.5h-82q-10 0 -16.5 4t-17.5 17l-77 84l-77 -84q-11 -13 -17.5 -17t-16.5 -4h-80q-7 0 -11.5 3.5t-4.5 10.5q0 10 15 30l100 135q2 2 8 10z
" />
    <glyph glyph-name="Kcommaaccent" unicode="&#x136;" horiz-adv-x="737" 
d="M676.5 105q5.5 -6 10.5 -13q31 -36 40.5 -49t9.5 -24q0 -19 -25 -19h-170q-19 0 -31.5 7.5t-24.5 22.5l-185 239q-2 2 -7 9t-10.5 9.5t-13.5 2.5h-1v-243q0 -20 -3.5 -30t-13 -13.5t-29.5 -3.5h-103q-20 0 -29.5 3.5t-13 13t-3.5 30.5v637q0 20 3.5 29.5t13 13.5t29.5 4
h103q20 0 29.5 -4t13 -13.5t3.5 -29.5v-230h2q4 0 7 3.5t5 6.5t3 4l169 233q10 14 27.5 22t37.5 8h139q23 0 32 -2.5t9 -13.5q0 -9 -8 -21t-17 -23.5t-12 -14.5l-231 -266l233 -272q6 -7 11.5 -13zM318.5 -209q-11.5 0 -16 8t-4.5 24l-1 74q0 20 3 28.5t13 12t32 3.5h83
q21 0 31 -3.5t14 -12t4 -27.5v-83q0 -21 -7 -38t-27 -49l-26 -42q-16 -25 -23 -32.5t-16 -7.5q-10 0 -28 9q-2 1 -9 5.5t-10.5 9.5t-3.5 12q0 8 4.5 20.5t8 20t5.5 11.5l26 57h-39h-13.5z" />
    <glyph glyph-name="kcommaaccent" unicode="&#x137;" horiz-adv-x="596" 
d="M600 39q7 -11 7 -20q0 -13 -11 -16t-36 -3h-100q-15 0 -27 1t-19.5 5.5t-14.5 16.5l-115 182q-3 5 -9.5 16t-12 18t-10.5 7h-2v-199q0 -20 -3 -29.5t-12.5 -13.5t-30.5 -4h-93q-19 0 -28 3.5t-13 13t-4 30.5v643q0 20 3.5 29.5t13 13.5t29.5 4h92q21 0 30.5 -4
t12.5 -13.5t3 -29.5v-333h2q6 0 13 9.5t19 28.5l83 138q7 12 17 16t28 4h118q25 0 36 -3t11 -16q0 -14 -24 -45l-145 -181l167 -233q18 -25 25 -36zM258.5 -209q-11.5 0 -16 8t-4.5 24l-1 74q0 20 3 28.5t13 12t32 3.5h83q21 0 31 -3.5t14 -12t4 -27.5v-83q0 -21 -7 -38
t-27 -49l-26 -42q-16 -25 -23 -32.5t-16 -7.5q-10 0 -28 9q-2 1 -9 5.5t-10.5 9.5t-3.5 12q0 8 4.5 20.5t8 20t5.5 11.5l26 57h-39h-13.5z" />
    <glyph glyph-name="kgreenlandic" unicode="&#x138;" horiz-adv-x="596" 
d="M600 39q7 -11 7 -20q0 -13 -11 -16t-36 -3h-100q-15 0 -27 1t-19.5 5.5t-14.5 16.5l-115 175q-3 5 -9.5 16t-12 18t-10.5 7h-2v-192q0 -20 -3 -29.5t-12.5 -13.5t-30.5 -4h-92q-20 0 -29.5 4t-13 13.5t-3.5 29.5v459q0 20 3 29.5t12.5 13.5t30.5 4h92q20 0 29.5 -3.5
t13 -13t3.5 -30.5v-156h2q6 0 13 9.5t19 28.5l83 145q7 12 17 16t28 4h118q25 0 36 -3t11 -16q0 -14 -24 -45l-145 -188l167 -226q18 -25 25 -36z" />
    <glyph glyph-name="Lacute" unicode="&#x139;" horiz-adv-x="562" 
d="M90.5 4q-9.5 4 -13 13.5t-3.5 29.5v637q0 20 3 29.5t12.5 13.5t30.5 4h103q20 0 29.5 -3.5t13 -13t3.5 -30.5v-513h235q20 0 29.5 -3.5t13 -13.5t3.5 -30v-77q0 -20 -3 -29.5t-12.5 -13.5t-30.5 -4h-384q-20 0 -29.5 4zM327.5 927q5.5 8 5.5 16q0 10 -8.5 13.5t-29.5 3.5
h-90q-19 0 -29 -6.5t-18 -20.5l-59 -106q-11 -20 -11 -29t8 -13.5t23 -4.5h38q13 0 21.5 1t13.5 4.5t14 13.5l103 105q13 15 18.5 23z" />
    <glyph glyph-name="lacute" unicode="&#x13a;" horiz-adv-x="347" 
d="M249.5 148.5q6.5 -13.5 23.5 -13.5q6 0 12.5 1.5t13.5 1.5q14 0 20.5 -8t15.5 -32q8 -23 11.5 -35.5t3.5 -22.5q0 -17 -20 -27q-16 -8 -43 -14t-66 -6q-81 0 -121.5 39.5t-40.5 129.5v528q0 20 4 30t13 13.5t28 3.5h93q21 0 30.5 -3.5t12.5 -13.5t3 -31v-499
q0 -28 6.5 -41.5zM307.5 927q5.5 8 5.5 16q0 10 -8.5 13.5t-29.5 3.5h-90q-19 0 -29 -6.5t-18 -20.5l-59 -106q-11 -20 -11 -29t8 -13.5t23 -4.5h38q13 0 21.5 1t13.5 4.5t14 13.5l103 105q13 15 18.5 23z" />
    <glyph glyph-name="Lcommaaccent" unicode="&#x13b;" horiz-adv-x="562" 
d="M90.5 4q-9.5 4 -13 13.5t-3.5 29.5v637q0 20 3 29.5t12.5 13.5t30.5 4h103q20 0 29.5 -3.5t13 -13t3.5 -30.5v-513h235q20 0 29.5 -3.5t13 -13.5t3.5 -30v-77q0 -20 -3 -29.5t-12.5 -13.5t-30.5 -4h-384q-20 0 -29.5 4zM245.5 -209q-11.5 0 -16 8t-4.5 24l-1 74
q0 20 3 28.5t13 12t32 3.5h83q21 0 31 -3.5t14 -12t4 -27.5v-83q0 -21 -7 -38t-27 -49l-26 -42q-16 -25 -23 -32.5t-16 -7.5q-10 0 -28 9q-2 1 -9 5.5t-10.5 9.5t-3.5 12q0 8 4.5 20.5t8 20t5.5 11.5l26 57h-39h-13.5z" />
    <glyph glyph-name="lcommaaccent" unicode="&#x13c;" horiz-adv-x="347" 
d="M249.5 148.5q6.5 -13.5 23.5 -13.5q6 0 12.5 1.5t13.5 1.5q14 0 20.5 -8t15.5 -32q8 -23 11.5 -35.5t3.5 -22.5q0 -17 -20 -27q-16 -8 -43 -14t-66 -6q-81 0 -121.5 39.5t-40.5 129.5v528q0 20 4 30t13 13.5t28 3.5h93q21 0 30.5 -3.5t12.5 -13.5t3 -31v-499
q0 -28 6.5 -41.5zM131.5 -209q-11.5 0 -16 8t-4.5 24l-1 74q0 20 3 28.5t13 12t32 3.5h83q21 0 31 -3.5t14 -12t4 -27.5v-83q0 -21 -7 -38t-27 -49l-26 -42q-16 -25 -23 -32.5t-16 -7.5q-10 0 -28 9q-2 1 -9 5.5t-10.5 9.5t-3.5 12q0 8 4.5 20.5t8 20t5.5 11.5l26 57h-39
h-13.5z" />
    <glyph glyph-name="Lcaron" unicode="&#x13d;" horiz-adv-x="562" 
d="M90.5 4q-9.5 4 -13 13.5t-3.5 29.5v637q0 20 3 29.5t12.5 13.5t30.5 4h103q20 0 29.5 -3.5t13 -13t3.5 -30.5v-513h235q20 0 29.5 -3.5t13 -13.5t3.5 -30v-77q0 -20 -3 -29.5t-12.5 -13.5t-30.5 -4h-384q-20 0 -29.5 4zM451.5 532q-5.5 -4 -17.5 -4h-56q-8 0 -13 3.5
t-5 10.5q0 8 5 35l21 130q3 15 11 19.5t28 4.5h94q14 0 19 -4t5 -12q0 -5 -3.5 -14t-7.5 -18l-68 -134q-7 -13 -12.5 -17z" />
    <glyph glyph-name="lcaron" unicode="&#x13e;" horiz-adv-x="436" 
d="M249.5 148.5q6.5 -13.5 23.5 -13.5q6 0 12.5 1.5t13.5 1.5q14 0 20.5 -8t15.5 -32q8 -23 11.5 -35.5t3.5 -22.5q0 -17 -20 -27q-16 -8 -43 -14t-66 -6q-81 0 -121.5 39.5t-40.5 129.5v528q0 20 4 30t13 13.5t28 3.5h93q21 0 30.5 -3.5t12.5 -13.5t3 -31v-499
q0 -28 6.5 -41.5zM386.5 538q-5.5 -4 -17.5 -4h-56q-8 0 -13 3.5t-5 10.5q0 8 5 35l21 130q3 15 11 19.5t28 4.5h94q14 0 19 -4t5 -12q0 -5 -3.5 -14t-7.5 -18l-68 -134q-7 -13 -12.5 -17z" />
    <glyph glyph-name="Ldot" unicode="&#x13f;" horiz-adv-x="562" 
d="M90.5 4q-9.5 4 -13 13.5t-3.5 29.5v637q0 20 3 29.5t12.5 13.5t30.5 4h103q20 0 29.5 -3.5t13 -13t3.5 -30.5v-513h235q20 0 29.5 -3.5t13 -13.5t3.5 -30v-77q0 -20 -3 -29.5t-12.5 -13.5t-30.5 -4h-384q-20 0 -29.5 4zM376.5 313q-9.5 3 -13 12t-3.5 28v62q0 19 3 27.5
t11.5 11.5t27.5 3h97q19 0 28 -3t12 -11.5t3 -27.5v-62q0 -19 -3.5 -28t-13 -12t-30.5 -3h-88q-21 0 -30.5 3z" />
    <glyph glyph-name="ldot" unicode="&#x140;" horiz-adv-x="512" 
d="M249.5 148.5q6.5 -13.5 23.5 -13.5q6 0 12.5 1.5t13.5 1.5q14 0 20.5 -8t15.5 -32q8 -23 11.5 -35.5t3.5 -22.5q0 -17 -20 -27q-16 -8 -43 -14t-66 -6q-81 0 -121.5 39.5t-40.5 129.5v528q0 20 4 30t13 13.5t28 3.5h93q21 0 30.5 -3.5t12.5 -13.5t3 -31v-499
q0 -28 6.5 -41.5zM331.5 301q-9.5 3 -13 12t-3.5 28v62q0 19 3 27.5t11.5 11.5t27.5 3h97q19 0 28 -3t12 -11.5t3 -27.5v-62q0 -19 -3.5 -28t-13 -12t-30.5 -3h-88q-21 0 -30.5 3z" />
    <glyph glyph-name="Lslash" unicode="&#x141;" horiz-adv-x="562" 
d="M269 171h235q20 0 29.5 -3.5t13 -13.5t3.5 -30v-77q0 -20 -3 -29.5t-12.5 -13.5t-30.5 -4h-384q-20 0 -29.5 4t-13 13.5t-3.5 29.5v148l-26 -17q-4 -3 -9 -5t-10 -2q-7 0 -12 4.5t-5 14.5v79q0 26 6 38.5t25 24.5l31 20v332q0 20 3 29.5t12.5 13.5t30.5 4h103
q20 0 29.5 -3.5t13 -13t3.5 -30.5v-204l111 75q4 3 9 5t10 2q7 0 12 -4.5t5 -14.5v-79q0 -26 -6 -38t-25 -25l-116 -77v-153z" />
    <glyph glyph-name="lslash" unicode="&#x142;" horiz-adv-x="367" 
d="M69 690q0 20 4 30t13 13.5t28 3.5h93q21 0 30.5 -3.5t12.5 -13.5t3 -31v-177l56 37q1 1 7 4t12 3q7 0 12 -4.5t5 -14.5v-55q0 -26 -6 -38.5t-25 -24.5l-61 -41v-188q0 -28 6.5 -41.5t23.5 -13.5q6 0 12.5 1.5t13.5 1.5q14 0 20.5 -8t15.5 -32q8 -23 11.5 -35.5t3.5 -22.5
q0 -17 -20 -27q-16 -8 -43 -14t-66 -6q-81 0 -121.5 39.5t-40.5 129.5v95l-23 -15q-4 -3 -10 -5t-9 -2q-7 0 -12 4.5t-5 14.5v55q0 26 6 38t25 25l28 19v299z" />
    <glyph glyph-name="Nacute" unicode="&#x143;" horiz-adv-x="812" 
d="M90.5 3.5q-9.5 3.5 -13 13.5t-3.5 30v637q0 21 4 30.5t13 13t29 3.5h100q15 0 25 -5.5t21 -19.5l228 -303q43 -53 62 -93h2q-2 46 -2 120v254q0 20 3.5 30t13 13.5t29.5 3.5h90q20 0 29.5 -3.5t13 -13t3.5 -30.5v-637q0 -20 -3 -29.5t-12.5 -13.5t-30.5 -4h-91
q-16 0 -26 3.5t-19.5 12.5t-23.5 28l-238 309q-13 17 -43 70h-2l3 -21q4 -34 4 -67v-288q0 -20 -3 -29.5t-12.5 -13.5t-30.5 -4h-90q-20 0 -29.5 3.5zM585.5 927q5.5 8 5.5 16q0 10 -8.5 13.5t-29.5 3.5h-90q-19 0 -29 -6.5t-18 -20.5l-59 -106q-11 -20 -11 -29t8 -13.5
t23 -4.5h38q13 0 21.5 1t13.5 4.5t14 13.5l103 105q13 15 18.5 23z" />
    <glyph glyph-name="nacute" unicode="&#x144;" horiz-adv-x="647" 
d="M69.5 536q3.5 10 13 13.5t29.5 3.5h92q14 0 21 -5t9.5 -11.5t4.5 -18.5l6 -32h4q24 38 64.5 58t92.5 20q89 0 135 -46t46 -125v-344q0 -21 -3.5 -31t-13.5 -14t-30 -4h-92q-26 0 -35.5 9.5t-9.5 35.5v274q0 46 -13.5 76.5t-57.5 30.5q-27 0 -46 -9t-31 -21
q-3 -3 -4 -10.5t-1 -17.5v-326q0 -23 -8.5 -32.5t-33.5 -9.5h-96q-21 0 -30.5 4.5t-12.5 14t-3 28.5v459q0 20 3.5 30zM315 595h-41q-38 0 -38 20q0 7 3.5 15.5t8.5 16.5l68 121q9 16 20 23t32 7h96q23 0 32.5 -4t9.5 -15q0 -8 -6 -17t-21 -26l-110 -120q-19 -21 -54 -21z
" />
    <glyph glyph-name="Ncommaaccent" unicode="&#x145;" horiz-adv-x="812" 
d="M90.5 3.5q-9.5 3.5 -13 13.5t-3.5 30v637q0 21 4 30.5t13 13t29 3.5h100q15 0 25 -5.5t21 -19.5l228 -303q43 -53 62 -93h2q-2 46 -2 120v254q0 20 3.5 30t13 13.5t29.5 3.5h90q20 0 29.5 -3.5t13 -13t3.5 -30.5v-637q0 -20 -3 -29.5t-12.5 -13.5t-30.5 -4h-91
q-16 0 -26 3.5t-19.5 12.5t-23.5 28l-238 309q-13 17 -43 70h-2l3 -21q4 -34 4 -67v-288q0 -20 -3 -29.5t-12.5 -13.5t-30.5 -4h-90q-20 0 -29.5 3.5zM349.5 -209q-11.5 0 -16 8t-4.5 24l-1 74q0 20 3 28.5t13 12t32 3.5h83q21 0 31 -3.5t14 -12t4 -27.5v-83q0 -21 -7 -38
t-27 -49l-26 -42q-16 -25 -23 -32.5t-16 -7.5q-10 0 -28 9q-2 1 -9 5.5t-10.5 9.5t-3.5 12q0 8 4.5 20.5t8 20t5.5 11.5l26 57h-39h-13.5z" />
    <glyph glyph-name="ncommaaccent" unicode="&#x146;" horiz-adv-x="647" 
d="M69.5 536q3.5 10 13 13.5t29.5 3.5h92q14 0 21 -5t9.5 -11.5t4.5 -18.5l6 -32h4q24 38 64.5 58t92.5 20q89 0 135 -46t46 -125v-344q0 -21 -3.5 -31t-13.5 -14t-30 -4h-92q-26 0 -35.5 9.5t-9.5 35.5v274q0 46 -13.5 76.5t-57.5 30.5q-27 0 -46 -9t-31 -21
q-3 -3 -4 -10.5t-1 -17.5v-326q0 -23 -8.5 -32.5t-33.5 -9.5h-96q-21 0 -30.5 4.5t-12.5 14t-3 28.5v459q0 20 3.5 30zM261.5 -209q-11.5 0 -16 8t-4.5 24l-1 74q0 20 3 28.5t13 12t32 3.5h83q21 0 31 -3.5t14 -12t4 -27.5v-83q0 -21 -7 -38t-27 -49l-26 -42
q-16 -25 -23 -32.5t-16 -7.5q-10 0 -28 9q-2 1 -9 5.5t-10.5 9.5t-3.5 12q0 8 4.5 20.5t8 20t5.5 11.5l26 57h-39h-13.5z" />
    <glyph glyph-name="Ncaron" unicode="&#x147;" horiz-adv-x="812" 
d="M90.5 3.5q-9.5 3.5 -13 13.5t-3.5 30v637q0 21 4 30.5t13 13t29 3.5h100q15 0 25 -5.5t21 -19.5l228 -303q43 -53 62 -93h2q-2 46 -2 120v254q0 20 3.5 30t13 13.5t29.5 3.5h90q20 0 29.5 -3.5t13 -13t3.5 -30.5v-637q0 -20 -3 -29.5t-12.5 -13.5t-30.5 -4h-91
q-16 0 -26 3.5t-19.5 12.5t-23.5 28l-238 309q-13 17 -43 70h-2l3 -21q4 -34 4 -67v-288q0 -20 -3 -29.5t-12.5 -13.5t-30.5 -4h-90q-20 0 -29.5 3.5zM495.5 940.5q7.5 6.5 16.5 9.5t22 3h68q7 0 11.5 -3.5t4.5 -10.5q0 -14 -16 -30l-101 -105q-12 -13 -20.5 -18.5
t-22.5 -5.5h-93q-14 0 -25 6t-23 18l-100 105q-15 15 -15 30q0 7 4.5 10.5t11.5 3.5h68q15 0 23 -4t14.5 -9.5t8.5 -7.5l77 -63l77 63q2 2 9.5 8.5z" />
    <glyph glyph-name="ncaron" unicode="&#x148;" horiz-adv-x="647" 
d="M69.5 536q3.5 10 13 13.5t29.5 3.5h92q14 0 21 -5t9.5 -11.5t4.5 -18.5l6 -32h4q24 38 64.5 58t92.5 20q89 0 135 -46t46 -125v-344q0 -21 -3.5 -31t-13.5 -14t-30 -4h-92q-26 0 -35.5 9.5t-9.5 35.5v274q0 46 -13.5 76.5t-57.5 30.5q-27 0 -46 -9t-31 -21
q-3 -3 -4 -10.5t-1 -17.5v-326q0 -23 -8.5 -32.5t-33.5 -9.5h-96q-21 0 -30.5 4.5t-12.5 14t-3 28.5v459q0 20 3.5 30zM121 784q0 7 4.5 10.5t11.5 3.5h80q10 0 16.5 -4t17.5 -17l77 -84l77 84q11 13 17.5 17t16.5 4h82q7 0 11.5 -3.5t4.5 -10.5q0 -10 -16 -30l-101 -135
q-11 -15 -16.5 -19.5t-17.5 -4.5h-116q-9 0 -14 2.5t-10 8.5t-10 13l-100 135q-15 20 -15 30z" />
    <glyph glyph-name="napostrophe" unicode="&#x149;" horiz-adv-x="840" 
d="M262.5 536q3.5 10 13 13.5t29.5 3.5h92q14 0 21 -5t9.5 -11.5t4.5 -18.5l6 -32h4q24 38 64.5 58t92.5 20q89 0 135 -46t46 -125v-344q0 -21 -3.5 -31t-13.5 -14t-30 -4h-92q-26 0 -35.5 9.5t-9.5 35.5v274q0 46 -13.5 76.5t-57.5 30.5q-27 0 -46 -9t-31 -21
q-3 -3 -4 -10.5t-1 -17.5v-326q0 -23 -8.5 -32.5t-33.5 -9.5h-96q-21 0 -30.5 4.5t-12.5 14t-3 28.5v459q0 20 3.5 30zM22 579q-8 3 -11.5 13t-3.5 31v74q0 22 3.5 31.5t14 13t35.5 3.5h94q25 0 36.5 -3.5t15.5 -13t4 -31.5v-74q0 -23 -7.5 -47t-26.5 -58l-63 -114
q-14 -25 -23.5 -34t-19.5 -9q-9 0 -35 11q-11 5 -17.5 10.5t-6.5 15.5q0 6 2 13t4.5 13t4.5 11l54 141h-30q-16 0 -24 3z" />
    <glyph glyph-name="Eng" unicode="&#x14a;" horiz-adv-x="812" 
d="M90.5 3.5q-9.5 3.5 -13 13.5t-3.5 30v637q0 21 4 30.5t13 13t29 3.5h100q15 0 25 -5.5t21 -19.5l228 -303q43 -53 62 -93h2q-2 46 -2 120v254q0 20 3.5 30t13 13.5t29.5 3.5h90q20 0 29.5 -3.5t13 -13t3.5 -30.5v-678q0 -212 -196 -212q-38 0 -68.5 6t-61.5 19
q-24 11 -33 18t-9 20q0 8 7 25t12 27.5t7 15.5q6 14 11.5 23.5t10.5 12.5t13 3q9 0 21 -4t16 -5q25 -9 49 -9q39 0 39 66v3l-262 338q-13 17 -43 70h-2l3 -21q4 -34 4 -67v-288q0 -20 -3 -29.5t-12.5 -13.5t-30.5 -4h-90q-20 0 -29.5 3.5z" />
    <glyph glyph-name="eng" unicode="&#x14b;" horiz-adv-x="647" 
d="M69.5 536q3.5 10 13 13.5t29.5 3.5h92q14 0 21 -5t9.5 -11.5t4.5 -18.5l6 -32h4q24 38 64.5 58t92.5 20q89 0 135 -46t46 -125v-387q0 -118 -53 -165t-139 -47q-38 0 -68.5 6t-61.5 19q-24 11 -33 18t-9 20q0 8 7 25t12 27.5t7 15.5q6 14 11.5 23.5t10.5 12.5t13 3
q9 0 19 -3.5t13 -4.5q24 -10 48 -10q22 0 30.5 18t8.5 51v304q0 46 -13.5 76.5t-57.5 30.5q-27 0 -46 -9t-31 -21q-3 -3 -4 -10.5t-1 -17.5v-326q0 -23 -8.5 -32.5t-33.5 -9.5h-96q-21 0 -30.5 4.5t-12.5 14t-3 28.5v459q0 20 3.5 30z" />
    <glyph glyph-name="Omacron" unicode="&#x14c;" horiz-adv-x="786" 
d="M137.5 667q92.5 78 251.5 78h11q169 0 255 -82t86 -248v-93q0 -336 -345 -336h-10q-158 0 -249.5 79.5t-91.5 250.5v93q0 180 92.5 258zM507.5 538q-33.5 47 -109.5 47h-10q-78 0 -110.5 -47t-32.5 -143v-60q0 -96 33.5 -142.5t109.5 -46.5h10q75 0 109 46t34 143v60
q0 96 -33.5 143zM222 807.5q-9 3.5 -13 13t-4 30.5v19q0 21 3.5 30.5t13 13t29.5 3.5h276q20 0 29.5 -3.5t13 -13t3.5 -30.5v-22q0 -44 -39 -44h-283q-20 0 -29 3.5z" />
    <glyph glyph-name="omacron" unicode="&#x14d;" horiz-adv-x="638" 
d="M109.5 505q67.5 60 201.5 60h25q134 0 197 -58t63 -184v-80q0 -130 -66.5 -192t-201.5 -62h-25q-137 0 -199 63t-62 187v70q0 136 67.5 196zM401 371q-7 27 -25 41t-51 14h-9q-34 0 -52.5 -14t-26 -42t-7.5 -73v-44q0 -63 18.5 -94t65.5 -31h9q34 0 52.5 14t25.5 40t7 67
v50q0 45 -7 72zM464 623h-283q-20 0 -29 3.5t-13 13t-4 30.5v19q0 21 3.5 30.5t13 13t29.5 3.5h276q20 0 29.5 -3.5t13 -13t3.5 -30.5v-22q0 -44 -39 -44z" />
    <glyph glyph-name="Obreve" unicode="&#x14e;" horiz-adv-x="786" 
d="M137.5 667q92.5 78 251.5 78h11q169 0 255 -82t86 -248v-93q0 -336 -345 -336h-10q-158 0 -249.5 79.5t-91.5 250.5v93q0 180 92.5 258zM507.5 538q-33.5 47 -109.5 47h-10q-78 0 -110.5 -47t-32.5 -143v-60q0 -96 33.5 -142.5t109.5 -46.5h10q75 0 109 46t34 143v60
q0 96 -33.5 143zM321.5 896.5q25.5 -20.5 74.5 -20.5t74.5 20.5t31.5 44.5q4 13 8.5 16t18.5 3h48q11 0 16 -4t5 -13q0 -52 -27.5 -89t-73.5 -55.5t-101 -18.5t-101 18.5t-73.5 55.5t-27.5 89q0 9 5 13t16 4h47q14 0 19 -3.5t9 -15.5q6 -24 31.5 -44.5z" />
    <glyph glyph-name="obreve" unicode="&#x14f;" horiz-adv-x="638" 
d="M109.5 505q67.5 60 201.5 60h25q134 0 197 -58t63 -184v-80q0 -130 -66.5 -192t-201.5 -62h-25q-137 0 -199 63t-62 187v70q0 136 67.5 196zM401 371q-7 27 -25 41t-51 14h-9q-34 0 -52.5 -14t-26 -42t-7.5 -73v-44q0 -63 18.5 -94t65.5 -31h9q34 0 52.5 14t25.5 40t7 67
v50q0 45 -7 72zM229 737.5q11 -15.5 33.5 -27t56.5 -11.5t56.5 11.5t33.5 27t14 30.5q2 10 5 14.5t7.5 5.5t14.5 1h50q11 0 16 -4t5 -14q0 -57 -27.5 -96.5t-73.5 -59.5t-101 -20t-101 20t-73.5 59.5t-27.5 96.5q0 10 5 14t16 4h49q15 0 20 -3.5t8 -17.5q3 -15 14 -30.5z
" />
    <glyph glyph-name="Ohungarumlaut" unicode="&#x150;" horiz-adv-x="786" 
d="M137.5 667q92.5 78 251.5 78h11q169 0 255 -82t86 -248v-93q0 -336 -345 -336h-10q-158 0 -249.5 79.5t-91.5 250.5v93q0 180 92.5 258zM507.5 538q-33.5 47 -109.5 47h-10q-78 0 -110.5 -47t-32.5 -143v-60q0 -96 33.5 -142.5t109.5 -46.5h10q75 0 109 46t34 143v60
q0 96 -33.5 143zM320 785.5q-5 -3.5 -13.5 -4.5t-21.5 -1h-26q-15 0 -23 4.5t-8 13.5q0 6 5 16t6 13l52 106q6 14 17 20.5t30 6.5h80q22 0 30 -3t8 -14q0 -8 -5.5 -16t-18.5 -23l-98 -105q-9 -10 -14 -13.5zM549 785.5q-5 -3.5 -13.5 -4.5t-21.5 -1h-26q-15 0 -23 4.5
t-8 13.5q0 6 5 16t6 13l52 106q6 14 17 20.5t30 6.5h80q22 0 30 -3t8 -14q0 -8 -5.5 -16t-18.5 -23l-98 -105q-9 -10 -14 -13.5z" />
    <glyph glyph-name="ohungarumlaut" unicode="&#x151;" horiz-adv-x="638" 
d="M109.5 505q67.5 60 201.5 60h25q134 0 197 -58t63 -184v-80q0 -130 -66.5 -192t-201.5 -62h-25q-137 0 -199 63t-62 187v70q0 136 67.5 196zM401 371q-7 27 -25 41t-51 14h-9q-34 0 -52.5 -14t-26 -42t-7.5 -73v-44q0 -63 18.5 -94t65.5 -31h9q34 0 52.5 14t25.5 40t7 67
v50q0 45 -7 72zM250.5 599.5q-8.5 -4.5 -20.5 -4.5h-56q-21 0 -21 14q0 4 3 12.5t7 18.5l51 134q7 15 14.5 19.5t26.5 4.5h109q12 0 18 -2.5t6 -10.5q0 -5 -4.5 -13t-9 -13.5t-6.5 -8.5l-101 -134q-8 -12 -16.5 -16.5zM473.5 599.5q-8.5 -4.5 -20.5 -4.5h-56q-21 0 -21 14
q0 4 3 12.5t7 18.5l51 134q7 15 14.5 19.5t26.5 4.5h109q12 0 18 -2.5t6 -10.5q0 -5 -4.5 -13t-9 -13.5t-6.5 -8.5l-101 -134q-8 -12 -16.5 -16.5z" />
    <glyph glyph-name="OE" unicode="&#x152;" horiz-adv-x="1064" 
d="M533.5 3.5q-9.5 3.5 -13 13.5t-3.5 30v3q-27 -26 -70.5 -45t-107.5 -19h-9q-136 0 -210.5 81t-74.5 248v95q0 171 74.5 253t210.5 82h9q64 0 107.5 -19t70.5 -45v3q0 21 3.5 30.5t13 13t29.5 3.5h396q20 0 29.5 -4t13 -13.5t3.5 -29.5v-70q0 -20 -3.5 -29.5t-13 -13.5
t-29.5 -4h-247v-113h192q21 0 30.5 -4t12.5 -13.5t3 -29.5v-66q0 -20 -3.5 -29.5t-13 -13.5t-29.5 -4h-192v-130h261q20 0 29.5 -4t13 -13.5t3.5 -29.5v-70q0 -20 -3.5 -29.5t-13 -13.5t-29.5 -4h-410q-20 0 -29.5 3.5zM485 537.5q-32 47.5 -101 47.5h-6q-72 0 -102.5 -47
t-30.5 -143v-60q0 -96 31 -142.5t102 -46.5h6q70 0 101.5 47t31.5 142v60q0 95 -32 142.5z" />
    <glyph glyph-name="oe" unicode="&#x153;" horiz-adv-x="980" 
d="M109.5 505q67.5 60 201.5 60h25q54 0 97.5 -13t77.5 -35q73 48 172 48q129 0 192 -68.5t63 -218.5v-7q0 -20 -3 -29.5t-12.5 -13.5t-30.5 -4h-298v-6q0 -39 26.5 -63.5t91.5 -24.5q62 0 116 22q6 2 14 6t17 7t15 3q9 0 14 -3t11 -13.5t14 -25.5q4 -8 11 -21t10 -21t3 -14
q0 -10 -5 -16.5t-16 -12.5t-34 -16q-38 -16 -87.5 -26t-100.5 -10q-60 0 -108 13t-81 37q-27 -23 -74.5 -36.5t-102.5 -13.5h-25q-137 0 -199 63t-62 187v70q0 136 67.5 196zM732 413.5q-22 22.5 -57 22.5q-22 0 -40.5 -10.5t-29.5 -29t-11 -42.5v-4h160v4q0 37 -22 59.5z
M401 371q-7 27 -25 41t-51 14h-9q-34 0 -52.5 -14t-26 -42t-7.5 -73v-44q0 -63 18.5 -94t65.5 -31h9q34 0 52.5 14t25.5 40t7 67v50q0 45 -7 72z" />
    <glyph glyph-name="Racute" unicode="&#x154;" horiz-adv-x="727" 
d="M700 22q0 -12 -9.5 -17t-35.5 -5h-105q-27 0 -41.5 2.5t-26 10t-22.5 23.5l-129 185q-9 13 -19.5 17.5t-27.5 4.5h-15v-196q0 -19 -3 -28.5t-12.5 -14t-30.5 -4.5h-103q-20 0 -29.5 3.5t-13 13t-3.5 30.5v637q0 21 4 30.5t13 13t29 3.5h252q124 0 190 -33t88 -83.5
t22 -118.5q0 -67 -23.5 -113t-58 -71.5t-72.5 -36.5l162 -215q20 -28 20 -38zM446 421q28 23 28 66q0 48 -29 68.5t-95 20.5h-81v-178h82q67 0 95 23zM497.5 927q5.5 8 5.5 16q0 10 -8.5 13.5t-29.5 3.5h-90q-19 0 -29 -6.5t-18 -20.5l-59 -106q-11 -20 -11 -29t8 -13.5
t23 -4.5h38q13 0 21.5 1t13.5 4.5t14 13.5l103 105q13 15 18.5 23z" />
    <glyph glyph-name="racute" unicode="&#x155;" horiz-adv-x="485" 
d="M69.5 535.5q3.5 9.5 13 13.5t29.5 4h81q17 0 26 -5.5t12 -13.5t6 -25l7 -38h5q27 48 61.5 71t85.5 23q34 0 64 -10q10 -3 18.5 -7t13 -9.5t4.5 -15.5q0 -9 -5 -28.5t-8 -31.5t-5 -17q-7 -24 -12.5 -36t-11.5 -17t-16 -5q-6 0 -14 2t-14 4.5t-10 3.5q-14 5 -29.5 9
t-29.5 4q-42 0 -66.5 -33t-24.5 -119v-213q0 -20 -3.5 -29.5t-13 -13t-29.5 -3.5h-89q-22 0 -32.5 4t-13.5 13.5t-3 29.5v459q0 20 3.5 29.5zM270 595h-41q-38 0 -38 20q0 7 3.5 15.5t8.5 16.5l68 121q9 16 20 23t32 7h96q23 0 32.5 -4t9.5 -15q0 -8 -6 -17t-21 -26
l-110 -120q-19 -21 -54 -21z" />
    <glyph glyph-name="Rcommaaccent" unicode="&#x156;" horiz-adv-x="727" 
d="M700 22q0 -12 -9.5 -17t-35.5 -5h-105q-27 0 -41.5 2.5t-26 10t-22.5 23.5l-129 185q-9 13 -19.5 17.5t-27.5 4.5h-15v-196q0 -19 -3 -28.5t-12.5 -14t-30.5 -4.5h-103q-20 0 -29.5 3.5t-13 13t-3.5 30.5v637q0 21 4 30.5t13 13t29 3.5h252q124 0 190 -33t88 -83.5
t22 -118.5q0 -67 -23.5 -113t-58 -71.5t-72.5 -36.5l162 -215q20 -28 20 -38zM446 421q28 23 28 66q0 48 -29 68.5t-95 20.5h-81v-178h82q67 0 95 23zM308.5 -209q-11.5 0 -16 8t-4.5 24l-1 74q0 20 3 28.5t13 12t32 3.5h83q21 0 31 -3.5t14 -12t4 -27.5v-83q0 -21 -7 -38
t-27 -49l-26 -42q-16 -25 -23 -32.5t-16 -7.5q-10 0 -28 9q-2 1 -9 5.5t-10.5 9.5t-3.5 12q0 8 4.5 20.5t8 20t5.5 11.5l26 57h-39h-13.5z" />
    <glyph glyph-name="rcommaaccent" unicode="&#x157;" horiz-adv-x="485" 
d="M69.5 535.5q3.5 9.5 13 13.5t29.5 4h81q17 0 26 -5.5t12 -13.5t6 -25l7 -38h5q27 48 61.5 71t85.5 23q34 0 64 -10q10 -3 18.5 -7t13 -9.5t4.5 -15.5q0 -9 -5 -28.5t-8 -31.5t-5 -17q-7 -24 -12.5 -36t-11.5 -17t-16 -5q-6 0 -14 2t-14 4.5t-10 3.5q-14 5 -29.5 9
t-29.5 4q-42 0 -66.5 -33t-24.5 -119v-213q0 -20 -3.5 -29.5t-13 -13t-29.5 -3.5h-89q-22 0 -32.5 4t-13.5 13.5t-3 29.5v459q0 20 3.5 29.5zM92.5 -209q-11.5 0 -16 8t-4.5 24l-1 74q0 20 3 28.5t13 12t32 3.5h83q21 0 31 -3.5t14 -12t4 -27.5v-83q0 -21 -7 -38t-27 -49
l-26 -42q-16 -25 -23 -32.5t-16 -7.5q-10 0 -28 9q-2 1 -9 5.5t-10.5 9.5t-3.5 12q0 8 4.5 20.5t8 20t5.5 11.5l26 57h-39h-13.5z" />
    <glyph glyph-name="Rcaron" unicode="&#x158;" horiz-adv-x="727" 
d="M700 22q0 -12 -9.5 -17t-35.5 -5h-105q-27 0 -41.5 2.5t-26 10t-22.5 23.5l-129 185q-9 13 -19.5 17.5t-27.5 4.5h-15v-196q0 -19 -3 -28.5t-12.5 -14t-30.5 -4.5h-103q-20 0 -29.5 3.5t-13 13t-3.5 30.5v637q0 21 4 30.5t13 13t29 3.5h252q124 0 190 -33t88 -83.5
t22 -118.5q0 -67 -23.5 -113t-58 -71.5t-72.5 -36.5l162 -215q20 -28 20 -38zM446 421q28 23 28 66q0 48 -29 68.5t-95 20.5h-81v-178h82q67 0 95 23zM433.5 940.5q7.5 6.5 16.5 9.5t22 3h68q7 0 11.5 -3.5t4.5 -10.5q0 -14 -16 -30l-101 -105q-12 -13 -20.5 -18.5
t-22.5 -5.5h-93q-14 0 -25 6t-23 18l-100 105q-15 15 -15 30q0 7 4.5 10.5t11.5 3.5h68q15 0 23 -4t14.5 -9.5t8.5 -7.5l77 -63l77 63q2 2 9.5 8.5z" />
    <glyph glyph-name="rcaron" unicode="&#x159;" horiz-adv-x="485" 
d="M69.5 535.5q3.5 9.5 13 13.5t29.5 4h81q17 0 26 -5.5t12 -13.5t6 -25l7 -38h5q27 48 61.5 71t85.5 23q34 0 64 -10q10 -3 18.5 -7t13 -9.5t4.5 -15.5q0 -9 -5 -28.5t-8 -31.5t-5 -17q-7 -24 -12.5 -36t-11.5 -17t-16 -5q-6 0 -14 2t-14 4.5t-10 3.5q-14 5 -29.5 9
t-29.5 4q-42 0 -66.5 -33t-24.5 -119v-213q0 -20 -3.5 -29.5t-13 -13t-29.5 -3.5h-89q-22 0 -32.5 4t-13.5 13.5t-3 29.5v459q0 20 3.5 29.5zM74 784q0 7 4.5 10.5t11.5 3.5h80q10 0 16.5 -4t17.5 -17l77 -84l77 84q11 13 17.5 17t16.5 4h82q7 0 11.5 -3.5t4.5 -10.5
q0 -10 -16 -30l-101 -135q-11 -15 -16.5 -19.5t-17.5 -4.5h-116q-9 0 -14 2.5t-10 8.5t-10 13l-100 135q-15 20 -15 30z" />
    <glyph glyph-name="Sacute" unicode="&#x15a;" horiz-adv-x="649" 
d="M556 53q-64 -67 -225 -67q-70 0 -122.5 9t-94.5 26q-41 17 -58.5 32t-17.5 31q0 14 20 54q18 37 30 50t26 13q9 0 20.5 -4.5t21.5 -9t17 -7.5q38 -17 77 -26.5t69 -9.5q44 0 67.5 15.5t23.5 48.5t-28 52.5t-99 28.5q-123 15 -179.5 73.5t-56.5 147.5q0 64 20.5 108.5
t60.5 73.5q39 28 92 40.5t120 12.5q44 0 84.5 -6t71.5 -14q44 -12 62.5 -27t18.5 -29q0 -11 -5 -25.5t-11 -29.5q-10 -25 -16.5 -38t-15.5 -21t-21 -8q-11 0 -22.5 3.5t-19 6.5t-11.5 4q-31 11 -58.5 17t-58.5 6q-47 0 -66 -15q-17 -14 -17 -37q0 -22 10.5 -35t36.5 -22
t74 -16q131 -19 187.5 -84t56.5 -154q0 -101 -64 -168zM494.5 927q5.5 8 5.5 16q0 10 -8.5 13.5t-29.5 3.5h-90q-19 0 -29 -6.5t-18 -20.5l-59 -106q-11 -20 -11 -29t8 -13.5t23 -4.5h38q13 0 21.5 1t13.5 4.5t14 13.5l103 105q13 15 18.5 23z" />
    <glyph glyph-name="sacute" unicode="&#x15b;" horiz-adv-x="546" 
d="M50 40q-15 10 -15 25q0 10 3 19.5t6.5 17t6.5 13.5q12 27 19.5 37.5t19.5 10.5t31 -8q39 -15 82.5 -24t74.5 -9q36 0 54.5 10.5t18.5 29.5q0 14 -7 23t-28.5 15t-64.5 10q-108 10 -157 50.5t-49 115.5q0 52 16.5 87t52.5 61q28 22 70.5 31.5t102.5 9.5q84 0 146 -19
q28 -9 42 -17.5t14 -22.5q0 -7 -3 -18t-6.5 -19.5t-5.5 -14.5q-6 -18 -12 -30t-11 -16t-12 -4q-8 0 -17 2t-16.5 5t-14.5 5q-14 5 -44 10t-47 5q-44 0 -58 -6q-26 -9 -26 -33q0 -14 6.5 -21.5t26 -12t61.5 -8.5q77 -7 124 -29t68 -58t21 -88q0 -88 -67 -135t-198 -47
q-40 0 -83 7.5t-79 19.5q-31 10 -46 20zM264 595h-41q-38 0 -38 20q0 7 3.5 15.5t8.5 16.5l68 121q9 16 20 23t32 7h96q23 0 32.5 -4t9.5 -15q0 -8 -6 -17t-21 -26l-110 -120q-19 -21 -54 -21z" />
    <glyph glyph-name="Scircumflex" unicode="&#x15c;" horiz-adv-x="649" 
d="M556 53q-64 -67 -225 -67q-70 0 -122.5 9t-94.5 26q-41 17 -58.5 32t-17.5 31q0 14 20 54q18 37 30 50t26 13q9 0 20.5 -4.5t21.5 -9t17 -7.5q38 -17 77 -26.5t69 -9.5q44 0 67.5 15.5t23.5 48.5t-28 52.5t-99 28.5q-123 15 -179.5 73.5t-56.5 147.5q0 64 20.5 108.5
t60.5 73.5q39 28 92 40.5t120 12.5q44 0 84.5 -6t71.5 -14q44 -12 62.5 -27t18.5 -29q0 -11 -5 -25.5t-11 -29.5q-10 -25 -16.5 -38t-15.5 -21t-21 -8q-11 0 -22.5 3.5t-19 6.5t-11.5 4q-31 11 -58.5 17t-58.5 6q-47 0 -66 -15q-17 -14 -17 -37q0 -22 10.5 -35t36.5 -22
t74 -16q131 -19 187.5 -84t56.5 -154q0 -101 -64 -168zM254 947q11 6 25 6h93q14 0 22.5 -5.5t20.5 -18.5l101 -105q16 -16 16 -30q0 -7 -4.5 -10.5t-11.5 -3.5h-68q-16 0 -24.5 4t-15 9.5t-8.5 7.5l-77 63l-77 -63q-2 -2 -9.5 -8.5t-16 -9.5t-20.5 -3h-68q-7 0 -11.5 3.5
t-4.5 10.5q0 15 15 30l100 105q12 12 23 18z" />
    <glyph glyph-name="scircumflex" unicode="&#x15d;" horiz-adv-x="546" 
d="M50 40q-15 10 -15 25q0 10 3 19.5t6.5 17t6.5 13.5q12 27 19.5 37.5t19.5 10.5t31 -8q39 -15 82.5 -24t74.5 -9q36 0 54.5 10.5t18.5 29.5q0 14 -7 23t-28.5 15t-64.5 10q-108 10 -157 50.5t-49 115.5q0 52 16.5 87t52.5 61q28 22 70.5 31.5t102.5 9.5q84 0 146 -19
q28 -9 42 -17.5t14 -22.5q0 -7 -3 -18t-6.5 -19.5t-5.5 -14.5q-6 -18 -12 -30t-11 -16t-12 -4q-8 0 -17 2t-16.5 5t-14.5 5q-14 5 -44 10t-47 5q-44 0 -58 -6q-26 -9 -26 -33q0 -14 6.5 -21.5t26 -12t61.5 -8.5q77 -7 124 -29t68 -58t21 -88q0 -88 -67 -135t-198 -47
q-40 0 -83 7.5t-79 19.5q-31 10 -46 20zM188 784q6 8 11.5 11t14.5 3h116q12 0 17.5 -4.5t16.5 -19.5l101 -135q16 -20 16 -30q0 -7 -4.5 -10.5t-11.5 -3.5h-82q-10 0 -16.5 4t-17.5 17l-77 84l-77 -84q-11 -13 -17.5 -17t-16.5 -4h-80q-7 0 -11.5 3.5t-4.5 10.5q0 10 15 30
l100 135q2 2 8 10z" />
    <glyph glyph-name="Scedilla" unicode="&#x15e;" horiz-adv-x="649" 
d="M562 59q-58 -66 -204 -72l-19 -37q18 4 36 4q37 0 66 -14.5t45.5 -41.5t16.5 -64q0 -49 -27 -82t-69 -48.5t-89 -15.5q-40 0 -65 5.5t-54 15.5q-23 9 -34.5 17.5t-11.5 18.5q0 6 7 19l12 21q6 11 11 13.5t12 2.5q5 0 11.5 -2t12.5 -4q22 -9 40.5 -14t47.5 -5
q27 0 46.5 12.5t19.5 38.5q0 41 -39 41q-8 0 -15 -2.5t-10.5 -4t-4.5 -2.5q-5 -3 -11 -5.5t-13 -2.5q-10 0 -24.5 4t-25 11t-10.5 16t2.5 16.5t7.5 17.5l34 72q-87 7 -150 33q-41 17 -58.5 32t-17.5 31q0 14 20 54q18 37 30 50t26 13q9 0 20.5 -4.5t21.5 -9t17 -7.5
q38 -17 77 -26.5t69 -9.5q44 0 67.5 15.5t23.5 48.5t-28 52.5t-99 28.5q-123 15 -179.5 73.5t-56.5 147.5q0 64 20.5 108.5t60.5 73.5q39 28 92 40.5t120 12.5q44 0 84.5 -6t71.5 -14q44 -12 62.5 -27t18.5 -29q0 -11 -5 -25.5t-11 -29.5q-10 -25 -16.5 -38t-15.5 -21
t-21 -8q-11 0 -22.5 3.5t-19 6.5t-11.5 4q-31 11 -58.5 17t-58.5 6q-47 0 -66 -15q-17 -14 -17 -37q0 -22 10.5 -35t36.5 -22t74 -16q131 -19 187.5 -84t56.5 -154q0 -96 -58 -162z" />
    <glyph glyph-name="scedilla" unicode="&#x15f;" horiz-adv-x="546" 
d="M470 51q-53 -46 -157 -56l-23 -45q18 4 36 4q37 0 66 -14.5t45.5 -41.5t16.5 -64q0 -49 -27 -82t-69 -48.5t-89 -15.5q-40 0 -65 5.5t-54 15.5q-23 9 -34.5 17.5t-11.5 18.5q0 6 7 19l12 21q6 11 11.5 13.5t11.5 2.5q5 0 11.5 -2t12.5 -4q22 -9 40.5 -14t47.5 -5
q27 0 46.5 12.5t19.5 38.5q0 41 -39 41q-8 0 -15 -2.5t-10.5 -4t-4.5 -2.5q-5 -3 -11 -5.5t-13 -2.5q-10 0 -24.5 4t-25 11t-10.5 16t2.5 16.5t7.5 17.5l38 79q-32 3 -64.5 9.5t-58.5 15.5q-31 10 -46 20t-15 25q0 10 3 19.5t6.5 17t6.5 13.5q12 27 19.5 37.5t19.5 10.5
t31 -8q39 -15 82.5 -24t74.5 -9q36 0 54.5 10.5t18.5 29.5q0 14 -7 23t-28.5 15t-64.5 10q-108 10 -157 50.5t-49 115.5q0 52 16.5 87t52.5 61q28 22 70.5 31.5t102.5 9.5q84 0 146 -19q28 -9 42 -17.5t14 -22.5q0 -7 -3 -18t-6.5 -19.5t-5.5 -14.5q-6 -18 -12 -30t-11 -16
t-12 -4q-8 0 -17 2t-16.5 5t-14.5 5q-14 5 -44 10t-47 5q-44 0 -58 -6q-26 -9 -26 -33q0 -14 6.5 -21.5t26 -12t61.5 -8.5q77 -7 124 -29t68 -58t21 -88q0 -78 -53 -124z" />
    <glyph glyph-name="Scaron" unicode="&#x160;" horiz-adv-x="649" 
d="M556 53q-64 -67 -225 -67q-70 0 -122.5 9t-94.5 26q-41 17 -58.5 32t-17.5 31q0 14 20 54q18 37 30 50t26 13q9 0 20.5 -4.5t21.5 -9t17 -7.5q38 -17 77 -26.5t69 -9.5q44 0 67.5 15.5t23.5 48.5t-28 52.5t-99 28.5q-123 15 -179.5 73.5t-56.5 147.5q0 64 20.5 108.5
t60.5 73.5q39 28 92 40.5t120 12.5q44 0 84.5 -6t71.5 -14q44 -12 62.5 -27t18.5 -29q0 -11 -5 -25.5t-11 -29.5q-10 -25 -16.5 -38t-15.5 -21t-21 -8q-11 0 -22.5 3.5t-19 6.5t-11.5 4q-31 11 -58.5 17t-58.5 6q-47 0 -66 -15q-17 -14 -17 -37q0 -22 10.5 -35t36.5 -22
t74 -16q131 -19 187.5 -84t56.5 -154q0 -101 -64 -168zM425.5 940.5q7.5 6.5 16.5 9.5t22 3h68q7 0 11.5 -3.5t4.5 -10.5q0 -14 -16 -30l-101 -105q-12 -13 -20.5 -18.5t-22.5 -5.5h-93q-14 0 -25 6t-23 18l-100 105q-15 15 -15 30q0 7 4.5 10.5t11.5 3.5h68q15 0 23 -4
t14.5 -9.5t8.5 -7.5l77 -63l77 63q2 2 9.5 8.5z" />
    <glyph glyph-name="scaron" unicode="&#x161;" horiz-adv-x="546" 
d="M50 40q-15 10 -15 25q0 10 3 19.5t6.5 17t6.5 13.5q12 27 19.5 37.5t19.5 10.5t31 -8q39 -15 82.5 -24t74.5 -9q36 0 54.5 10.5t18.5 29.5q0 14 -7 23t-28.5 15t-64.5 10q-108 10 -157 50.5t-49 115.5q0 52 16.5 87t52.5 61q28 22 70.5 31.5t102.5 9.5q84 0 146 -19
q28 -9 42 -17.5t14 -22.5q0 -7 -3 -18t-6.5 -19.5t-5.5 -14.5q-6 -18 -12 -30t-11 -16t-12 -4q-8 0 -17 2t-16.5 5t-14.5 5q-14 5 -44 10t-47 5q-44 0 -58 -6q-26 -9 -26 -33q0 -14 6.5 -21.5t26 -12t61.5 -8.5q77 -7 124 -29t68 -58t21 -88q0 -88 -67 -135t-198 -47
q-40 0 -83 7.5t-79 19.5q-31 10 -46 20zM76 784q0 7 4.5 10.5t11.5 3.5h80q10 0 16.5 -4t17.5 -17l77 -84l77 84q11 13 17.5 17t16.5 4h82q7 0 11.5 -3.5t4.5 -10.5q0 -10 -16 -30l-101 -135q-11 -15 -16.5 -19.5t-17.5 -4.5h-116q-9 0 -14 2.5t-10 8.5t-10 13l-100 135
q-15 20 -15 30z" />
    <glyph glyph-name="uni0162" unicode="&#x162;" horiz-adv-x="623" 
d="M608.5 576.5q-3.5 -9.5 -13 -13t-29.5 -3.5h-156v-513q0 -20 -3 -29.5t-12.5 -13.5t-30.5 -4h-104q-20 0 -29.5 3.5t-13 13.5t-3.5 30v513h-157q-20 0 -29.5 3.5t-13 13t-3.5 30.5v77q0 20 3.5 30t13 13.5t29.5 3.5h509q20 0 29.5 -4t13 -13.5t3.5 -29.5v-77
q0 -21 -3.5 -30.5zM243.5 -209q-11.5 0 -16 8t-4.5 24l-1 74q0 20 3 28.5t13 12t32 3.5h83q21 0 31 -3.5t14 -12t4 -27.5v-83q0 -21 -7 -38t-27 -49l-26 -42q-16 -25 -23 -32.5t-16 -7.5q-10 0 -28 9q-2 1 -9 5.5t-10.5 9.5t-3.5 12q0 8 4.5 20.5t8 20t5.5 11.5l26 57h-39
h-13.5z" />
    <glyph glyph-name="uni0163" unicode="&#x163;" horiz-adv-x="467" 
d="M93.5 646q7.5 13 31.5 24l58 26q32 13 55 13q20 0 26 -9.5t6 -28.5v-140h122q21 0 30.5 -4t12.5 -13.5t3 -29.5v-47q0 -20 -3 -29.5t-12.5 -13.5t-30.5 -4h-122v-193q0 -33 12 -47.5t42 -14.5q21 0 55 12q9 3 17.5 5.5t14.5 2.5q9 0 14.5 -4t9.5 -13t8 -21
q8 -24 12.5 -38.5t4.5 -24.5q0 -12 -8.5 -19.5t-28.5 -16.5q-31 -13 -70.5 -22t-70.5 -9q-99 0 -147.5 45.5t-48.5 147.5v210h-39q-20 0 -29.5 4t-13 13.5t-3.5 29.5v22q0 17 7 25.5t26 13.5q22 6 33 14t15 20.5t4 34.5v39q0 27 7.5 40zM184.5 -209q-11.5 0 -16 8t-4.5 24
l-1 74q0 20 3 28.5t13 12t32 3.5h83q21 0 31 -3.5t14 -12t4 -27.5v-83q0 -21 -7 -38t-27 -49l-26 -42q-16 -25 -23 -32.5t-16 -7.5q-10 0 -28 9q-2 1 -9 5.5t-10.5 9.5t-3.5 12q0 8 4.5 20.5t8 20t5.5 11.5l26 57h-39h-13.5z" />
    <glyph glyph-name="Tcaron" unicode="&#x164;" horiz-adv-x="623" 
d="M608.5 576.5q-3.5 -9.5 -13 -13t-29.5 -3.5h-156v-513q0 -20 -3 -29.5t-12.5 -13.5t-30.5 -4h-104q-20 0 -29.5 3.5t-13 13.5t-3.5 30v513h-157q-20 0 -29.5 3.5t-13 13t-3.5 30.5v77q0 20 3.5 30t13 13.5t29.5 3.5h509q20 0 29.5 -4t13 -13.5t3.5 -29.5v-77
q0 -21 -3.5 -30.5zM401.5 940.5q7.5 6.5 16.5 9.5t22 3h68q7 0 11.5 -3.5t4.5 -10.5q0 -14 -16 -30l-101 -105q-12 -13 -20.5 -18.5t-22.5 -5.5h-93q-14 0 -25 6t-23 18l-100 105q-15 15 -15 30q0 7 4.5 10.5t11.5 3.5h68q15 0 23 -4t14.5 -9.5t8.5 -7.5l77 -63l77 63
q2 2 9.5 8.5z" />
    <glyph glyph-name="tcaron" unicode="&#x165;" horiz-adv-x="485" 
d="M93.5 646q7.5 13 31.5 24l58 26q32 13 55 13q20 0 26 -9.5t6 -28.5v-140h122q21 0 30.5 -4t12.5 -13.5t3 -29.5v-47q0 -20 -3 -29.5t-12.5 -13.5t-30.5 -4h-122v-193q0 -33 12 -47.5t42 -14.5q21 0 55 12q9 3 17.5 5.5t14.5 2.5q9 0 14.5 -4t9.5 -13t8 -21
q8 -24 12.5 -38.5t4.5 -24.5q0 -12 -8.5 -19.5t-28.5 -16.5q-31 -13 -70.5 -22t-70.5 -9q-99 0 -147.5 45.5t-48.5 147.5v210h-39q-20 0 -29.5 4t-13 13.5t-3.5 29.5v22q0 17 7 25.5t26 13.5q22 6 33 14t15 20.5t4 34.5v39q0 27 7.5 40zM415.5 610q-5.5 -4 -17.5 -4h-56
q-8 0 -13 3.5t-5 10.5q0 8 5 35l21 130q3 15 11 19.5t28 4.5h94q14 0 19 -4t5 -12q0 -5 -3.5 -14t-7.5 -18l-68 -134q-7 -13 -12.5 -17z" />
    <glyph glyph-name="Tbar" unicode="&#x166;" horiz-adv-x="623" 
d="M608.5 576.5q-3.5 -9.5 -13 -13t-29.5 -3.5h-156v-128h100q20 0 29.5 -3.5t13 -13.5t3.5 -30v-50q0 -20 -3.5 -29.5t-13 -13.5t-29.5 -4h-100v-241q0 -20 -3 -29.5t-12.5 -13.5t-30.5 -4h-104q-20 0 -29.5 3.5t-13 13.5t-3.5 30v241h-100q-20 0 -29.5 4t-13 13.5
t-3.5 29.5v50q0 20 3.5 30t13 13.5t29.5 3.5h100v128h-157q-20 0 -29.5 3.5t-13 13t-3.5 30.5v77q0 20 3.5 30t13 13.5t29.5 3.5h509q20 0 29.5 -4t13 -13.5t3.5 -29.5v-77q0 -21 -3.5 -30.5z" />
    <glyph glyph-name="tbar" unicode="&#x167;" horiz-adv-x="467" 
d="M270 197q0 -33 12 -47.5t42 -14.5q21 0 55 12q9 3 17.5 5.5t14.5 2.5q9 0 14.5 -4t9.5 -13t8 -21q8 -24 12.5 -38.5t4.5 -24.5q0 -12 -8.5 -19.5t-28.5 -16.5q-31 -13 -70.5 -22t-70.5 -9q-99 0 -147.5 45.5t-48.5 147.5v46h-31q-20 0 -29.5 4t-13 13.5t-3.5 29.5v14
q0 20 3.5 30t13 13.5t29.5 3.5h31v56h-39q-20 0 -29.5 4t-13 13.5t-3.5 29.5v22q0 17 7 25.5t26 13.5q22 6 33 14t15 20.5t4 34.5v39q0 27 7.5 40t31.5 24l58 26q32 13 55 13q20 0 26 -9.5t6 -28.5v-140h122q21 0 30.5 -4t12.5 -13.5t3 -29.5v-47q0 -20 -3 -29.5
t-12.5 -13.5t-30.5 -4h-122v-56h97q20 0 29.5 -3.5t13 -13.5t3.5 -30v-14q0 -20 -3.5 -29.5t-13 -13.5t-29.5 -4h-97v-29z" />
    <glyph glyph-name="Utilde" unicode="&#x168;" horiz-adv-x="761" 
d="M627 63q-70 -77 -239 -77h-41q-146 0 -214.5 70.5t-68.5 206.5v421q0 21 4 30.5t13 13t29 3.5h102q21 0 30.5 -4t12.5 -13.5t3 -29.5v-412q0 -55 29.5 -80.5t90.5 -25.5q66 0 94.5 27t28.5 79v412q0 20 3.5 30t13 13.5t29.5 3.5h104q20 0 29.5 -3.5t13 -13t3.5 -30.5
v-409q0 -135 -70 -212zM318 837.5q-10 1.5 -22 1.5q-37 0 -53 -38q0 -1 -2 -6t-7.5 -8t-14.5 -3h-34q-14 0 -18.5 6t-4.5 21q0 40 17.5 71t49 48.5t72.5 17.5q40 0 75 -15l54 -23q28 -11 49 -11q35 0 51 38q0 1 2 6t7.5 8t14.5 3h33q13 0 18.5 -6t5.5 -21q0 -39 -20.5 -70.5
t-52.5 -49t-66 -17.5q-37 0 -74 16l-54 23q-16 7 -26 8.5z" />
    <glyph glyph-name="utilde" unicode="&#x169;" horiz-adv-x="647" 
d="M577.5 16.5q-3.5 -9.5 -13 -13t-29.5 -3.5h-81q-22 0 -31 7.5t-14 27.5l-5 26h-4q-24 -35 -65.5 -54t-93.5 -19q-56 0 -97 21.5t-62.5 61.5t-21.5 94v341q0 20 3.5 30t13 13.5t29.5 3.5h92q20 0 29.5 -3.5t13 -13t3.5 -30.5v-296q0 -30 2.5 -46t15 -27t40.5 -11t52 11.5
t35 25.5q5 6 6.5 12.5t1.5 17.5v313q0 21 3.5 30.5t13 13t29.5 3.5h92q20 0 29.5 -3.5t13 -13t3.5 -30.5v-459q0 -21 -3.5 -30.5zM272.5 651.5q-9.5 2.5 -20.5 2.5q-32 0 -48 -37q0 -1 -2 -6t-7.5 -8t-14.5 -3h-34q-14 0 -18.5 6t-4.5 21q0 40 16.5 70.5t46 47.5t68.5 17
q38 0 71 -14l51 -22q29 -12 47 -12t29 10t18 27q0 1 2 6t7.5 8t14.5 3h34q13 0 18.5 -6t5.5 -21q0 -38 -19 -69t-49.5 -48.5t-62.5 -17.5q-38 0 -71 14l-51 22q-17 7 -26.5 9.5z" />
    <glyph glyph-name="Umacron" unicode="&#x16a;" horiz-adv-x="761" 
d="M627 63q-70 -77 -239 -77h-41q-146 0 -214.5 70.5t-68.5 206.5v421q0 21 4 30.5t13 13t29 3.5h102q21 0 30.5 -4t12.5 -13.5t3 -29.5v-412q0 -55 29.5 -80.5t90.5 -25.5q66 0 94.5 27t28.5 79v412q0 20 3.5 30t13 13.5t29.5 3.5h104q20 0 29.5 -3.5t13 -13t3.5 -30.5
v-409q0 -135 -70 -212zM213 807.5q-9 3.5 -13 13t-4 30.5v19q0 21 3.5 30.5t13 13t29.5 3.5h276q20 0 29.5 -3.5t13 -13t3.5 -30.5v-22q0 -44 -39 -44h-283q-20 0 -29 3.5z" />
    <glyph glyph-name="umacron" unicode="&#x16b;" horiz-adv-x="647" 
d="M577.5 16.5q-3.5 -9.5 -13 -13t-29.5 -3.5h-81q-22 0 -31 7.5t-14 27.5l-5 26h-4q-24 -35 -65.5 -54t-93.5 -19q-56 0 -97 21.5t-62.5 61.5t-21.5 94v341q0 20 3.5 30t13 13.5t29.5 3.5h92q20 0 29.5 -3.5t13 -13t3.5 -30.5v-296q0 -30 2.5 -46t15 -27t40.5 -11t52 11.5
t35 25.5q5 6 6.5 12.5t1.5 17.5v313q0 21 3.5 30.5t13 13t29.5 3.5h92q20 0 29.5 -3.5t13 -13t3.5 -30.5v-459q0 -21 -3.5 -30.5zM472 623h-283q-20 0 -29 3.5t-13 13t-4 30.5v19q0 21 3.5 30.5t13 13t29.5 3.5h276q20 0 29.5 -3.5t13 -13t3.5 -30.5v-22q0 -44 -39 -44z" />
    <glyph glyph-name="Ubreve" unicode="&#x16c;" horiz-adv-x="761" 
d="M627 63q-70 -77 -239 -77h-41q-146 0 -214.5 70.5t-68.5 206.5v421q0 21 4 30.5t13 13t29 3.5h102q21 0 30.5 -4t12.5 -13.5t3 -29.5v-412q0 -55 29.5 -80.5t90.5 -25.5q66 0 94.5 27t28.5 79v412q0 20 3.5 30t13 13.5t29.5 3.5h104q20 0 29.5 -3.5t13 -13t3.5 -30.5
v-409q0 -135 -70 -212zM306.5 896.5q25.5 -20.5 74.5 -20.5t74.5 20.5t31.5 44.5q4 13 8.5 16t18.5 3h48q11 0 16 -4t5 -13q0 -52 -27.5 -89t-73.5 -55.5t-101 -18.5t-101 18.5t-73.5 55.5t-27.5 89q0 9 5 13t16 4h47q14 0 19 -3.5t9 -15.5q6 -24 31.5 -44.5z" />
    <glyph glyph-name="ubreve" unicode="&#x16d;" horiz-adv-x="647" 
d="M577.5 16.5q-3.5 -9.5 -13 -13t-29.5 -3.5h-81q-22 0 -31 7.5t-14 27.5l-5 26h-4q-24 -35 -65.5 -54t-93.5 -19q-56 0 -97 21.5t-62.5 61.5t-21.5 94v341q0 20 3.5 30t13 13.5t29.5 3.5h92q20 0 29.5 -3.5t13 -13t3.5 -30.5v-296q0 -30 2.5 -46t15 -27t40.5 -11t52 11.5
t35 25.5q5 6 6.5 12.5t1.5 17.5v313q0 21 3.5 30.5t13 13t29.5 3.5h92q20 0 29.5 -3.5t13 -13t3.5 -30.5v-459q0 -21 -3.5 -30.5zM246 737.5q11 -15.5 33.5 -27t56.5 -11.5t56.5 11.5t33.5 27t14 30.5q2 10 5 14.5t7.5 5.5t14.5 1h50q11 0 16 -4t5 -14q0 -57 -27.5 -96.5
t-73.5 -59.5t-101 -20t-101 20t-73.5 59.5t-27.5 96.5q0 10 5 14t16 4h49q15 0 20 -3.5t8 -17.5q3 -15 14 -30.5z" />
    <glyph glyph-name="Uring" unicode="&#x16e;" horiz-adv-x="761" 
d="M627 63q-70 -77 -239 -77h-41q-146 0 -214.5 70.5t-68.5 206.5v421q0 21 4 30.5t13 13t29 3.5h102q21 0 30.5 -4t12.5 -13.5t3 -29.5v-412q0 -55 29.5 -80.5t90.5 -25.5q66 0 94.5 27t28.5 79v412q0 20 3.5 30t13 13.5t29.5 3.5h104q20 0 29.5 -3.5t13 -13t3.5 -30.5
v-409q0 -135 -70 -212zM263.5 969q18.5 32 50 50.5t70.5 18.5q38 0 70 -18.5t50.5 -50.5t18.5 -70t-18.5 -70t-50.5 -50.5t-70 -18.5q-39 0 -70.5 18.5t-50 50.5t-18.5 70t18.5 70zM348 863q15 -15 36 -15t36 15t15 36t-15 36t-36 15t-36 -15t-15 -36t15 -36z" />
    <glyph glyph-name="uring" unicode="&#x16f;" horiz-adv-x="647" 
d="M577.5 16.5q-3.5 -9.5 -13 -13t-29.5 -3.5h-81q-22 0 -31 7.5t-14 27.5l-5 26h-4q-24 -35 -65.5 -54t-93.5 -19q-56 0 -97 21.5t-62.5 61.5t-21.5 94v341q0 20 3.5 30t13 13.5t29.5 3.5h92q20 0 29.5 -3.5t13 -13t3.5 -30.5v-296q0 -30 2.5 -46t15 -27t40.5 -11t52 11.5
t35 25.5q5 6 6.5 12.5t1.5 17.5v313q0 21 3.5 30.5t13 13t29.5 3.5h92q20 0 29.5 -3.5t13 -13t3.5 -30.5v-459q0 -21 -3.5 -30.5zM197.5 804q18.5 32 50 50.5t70.5 18.5q38 0 70 -18.5t50.5 -50.5t18.5 -70t-18.5 -70t-50.5 -50.5t-70 -18.5q-39 0 -70.5 18.5t-50 50.5
t-18.5 70t18.5 70zM282 698q15 -15 36 -15t36 15t15 36t-15 36t-36 15t-36 -15t-15 -36t15 -36z" />
    <glyph glyph-name="Uhungarumlaut" unicode="&#x170;" horiz-adv-x="761" 
d="M627 63q-70 -77 -239 -77h-41q-146 0 -214.5 70.5t-68.5 206.5v421q0 21 4 30.5t13 13t29 3.5h102q21 0 30.5 -4t12.5 -13.5t3 -29.5v-412q0 -55 29.5 -80.5t90.5 -25.5q66 0 94.5 27t28.5 79v412q0 20 3.5 30t13 13.5t29.5 3.5h104q20 0 29.5 -3.5t13 -13t3.5 -30.5
v-409q0 -135 -70 -212zM309 785.5q-5 -3.5 -13.5 -4.5t-21.5 -1h-26q-15 0 -23 4.5t-8 13.5q0 6 5 16t6 13l52 106q6 14 17 20.5t30 6.5h80q22 0 30 -3t8 -14q0 -8 -5.5 -16t-18.5 -23l-98 -105q-9 -10 -14 -13.5zM538 785.5q-5 -3.5 -13.5 -4.5t-21.5 -1h-26q-15 0 -23 4.5
t-8 13.5q0 6 5 16t6 13l52 106q6 14 17 20.5t30 6.5h80q22 0 30 -3t8 -14q0 -8 -5.5 -16t-18.5 -23l-98 -105q-9 -10 -14 -13.5z" />
    <glyph glyph-name="uhungarumlaut" unicode="&#x171;" horiz-adv-x="647" 
d="M577.5 16.5q-3.5 -9.5 -13 -13t-29.5 -3.5h-81q-22 0 -31 7.5t-14 27.5l-5 26h-4q-24 -35 -65.5 -54t-93.5 -19q-56 0 -97 21.5t-62.5 61.5t-21.5 94v341q0 20 3.5 30t13 13.5t29.5 3.5h92q20 0 29.5 -3.5t13 -13t3.5 -30.5v-296q0 -30 2.5 -46t15 -27t40.5 -11t52 11.5
t35 25.5q5 6 6.5 12.5t1.5 17.5v313q0 21 3.5 30.5t13 13t29.5 3.5h92q20 0 29.5 -3.5t13 -13t3.5 -30.5v-459q0 -21 -3.5 -30.5zM263.5 599.5q-8.5 -4.5 -20.5 -4.5h-56q-21 0 -21 14q0 4 3 12.5t7 18.5l51 134q7 15 14.5 19.5t26.5 4.5h109q12 0 18 -2.5t6 -10.5
q0 -5 -4.5 -13t-9 -13.5t-6.5 -8.5l-101 -134q-8 -12 -16.5 -16.5zM486.5 599.5q-8.5 -4.5 -20.5 -4.5h-56q-21 0 -21 14q0 4 3 12.5t7 18.5l51 134q7 15 14.5 19.5t26.5 4.5h109q12 0 18 -2.5t6 -10.5q0 -5 -4.5 -13t-9 -13.5t-6.5 -8.5l-101 -134q-8 -12 -16.5 -16.5z" />
    <glyph glyph-name="Uogonek" unicode="&#x172;" horiz-adv-x="761" 
d="M656.5 101q-40.5 -70 -134.5 -98q-8 -2 -17 -4.5t-19.5 -6.5t-18.5 -9q-29 -20 -42 -44t-13 -54q0 -24 14.5 -39t40.5 -15q14 0 26 2.5t17 4t7 2.5q3 1 9.5 3t10.5 2q6 0 8 -3t5 -11l10 -33q2 -10 2 -13q0 -13 -18 -21q-15 -7 -42.5 -13t-60.5 -6q-68 0 -114 29t-46 96
q0 34 18 64.5t53 51.5h-5q-146 0 -214.5 70.5t-68.5 206.5v421q0 21 4 30.5t13 13t29 3.5h102q21 0 30.5 -4t12.5 -13.5t3 -29.5v-412q0 -55 29.5 -80.5t90.5 -25.5q66 0 94.5 27t28.5 79v412q0 20 3.5 30t13 13.5t29.5 3.5h104q20 0 29.5 -3.5t13 -13t3.5 -30.5v-409
q0 -104 -40.5 -174z" />
    <glyph glyph-name="uogonek" unicode="&#x173;" horiz-adv-x="647" 
d="M423.5 7q-7.5 6 -11 17t-8.5 37h-4q-24 -35 -65.5 -54t-93.5 -19q-56 0 -97 21.5t-62.5 61.5t-21.5 94v341q0 20 3.5 30t13 13.5t29.5 3.5h92q20 0 29.5 -3.5t13 -13t3.5 -30.5v-296q0 -30 2.5 -46t15 -27t40.5 -11t52 11.5t35 25.5q5 6 6.5 12.5t1.5 17.5v313
q0 21 3.5 30.5t13 13t29.5 3.5h92q20 0 29.5 -3.5t13 -13t3.5 -30.5v-459q0 -18 -2.5 -26.5t-7.5 -13t-21 -14.5q-27 -18 -42 -46t-15 -62q0 -24 14.5 -39t40.5 -15q14 0 26 2.5t17 4t7 2.5q3 1 9.5 3t10.5 2q6 0 8 -3t5 -11l10 -33q2 -10 2 -13q0 -13 -18 -21
q-15 -7 -42.5 -13t-60.5 -6q-68 0 -114 29t-46 96q0 37 22.5 70t61.5 60q-15 1 -22.5 7z" />
    <glyph glyph-name="Wcircumflex" unicode="&#x174;" horiz-adv-x="889" 
d="M631 304h3q0 26 2 40l36 356q2 16 11 23.5t29 7.5h130q27 0 27 -18q0 -4 -0.5 -9.5t-1.5 -9.5l-116 -663q-4 -31 -38 -31h-121q-18 0 -27 7.5t-12 23.5l-92 324q-6 23 -15.5 64.5t-11.5 64.5h-2q-2 -24 -9.5 -64.5t-13.5 -58.5l-73 -330q-3 -16 -11.5 -23.5t-26.5 -7.5
h-125q-16 0 -25.5 7.5t-12.5 23.5l-111 659q-3 17 -3 23q0 18 27 18h137q19 0 26.5 -8t9.5 -23l32 -323q0 -4 3 -29.5t3 -43.5h2l15 72l57 249q4 17 13.5 24.5t31.5 7.5h131q22 0 31.5 -7.5t13.5 -24.5l69 -277q6 -23 8 -44zM378 947q11 6 25 6h93q14 0 22.5 -5.5
t20.5 -18.5l101 -105q16 -16 16 -30q0 -7 -4.5 -10.5t-11.5 -3.5h-68q-16 0 -24.5 4t-15 9.5t-8.5 7.5l-77 63l-77 -63q-2 -2 -9.5 -8.5t-16 -9.5t-20.5 -3h-68q-7 0 -11.5 3.5t-4.5 10.5q0 15 15 30l100 105q12 12 23 18z" />
    <glyph glyph-name="wcircumflex" unicode="&#x175;" horiz-adv-x="785" 
d="M130 11q-12 11 -17 38l-82 421q-2 10 -6 31t-4 27q0 10 5.5 17.5t19.5 7.5h106q14 0 21 -5.5t9 -20.5l38 -249q4 -27 7 -77h4q2 31 14 78l63 242q5 18 13.5 25t29.5 7h79q17 0 25.5 -3t12.5 -9.5t7 -19.5l65 -242q3 -13 8 -37.5t6 -40.5h4q4 56 7 77l32 242q2 17 11 25
t27 8h105q23 0 23 -23q0 -11 -6 -40l-85 -446q-4 -23 -15.5 -33.5t-30.5 -10.5h-94q-18 0 -28 3.5t-16.5 12.5t-12.5 27l-67 255q-4 16 -8 38t-6 31h-4q-2 -17 -7.5 -40t-7.5 -29l-64 -254q-5 -16 -10 -25t-15.5 -14t-29.5 -5h-86q-28 0 -40 11zM304 784q6 8 11.5 11t14.5 3
h116q12 0 17.5 -4.5t16.5 -19.5l101 -135q16 -20 16 -30q0 -7 -4.5 -10.5t-11.5 -3.5h-82q-10 0 -16.5 4t-17.5 17l-77 84l-77 -84q-11 -13 -17.5 -17t-16.5 -4h-80q-7 0 -11.5 3.5t-4.5 10.5q0 10 15 30l100 135q2 2 8 10z" />
    <glyph glyph-name="Ycircumflex" unicode="&#x176;" horiz-adv-x="627" 
d="M5 694.5q-4 9.5 -4 20.5q0 16 24 16h143q16 0 23 -6.5t13 -18.5l87 -186q10 -23 13.5 -34.5t7.5 -32.5h2q2 17 5.5 31.5t12.5 32.5l93 193q6 11 13.5 16t19.5 5h145q12 0 17.5 -4t5.5 -12q0 -9 -4 -18.5t-8 -17t-7 -12.5l-178 -345q-10 -17 -13.5 -31.5t-3.5 -44.5v-199
q0 -21 -3.5 -30.5t-12.5 -13t-30 -3.5h-102q-21 0 -31 3.5t-13.5 13t-3.5 29.5v191q0 27 -3 43.5t-14 36.5l-174 338q-16 30 -20 39.5zM245 947q11 6 25 6h93q14 0 22.5 -5.5t20.5 -18.5l101 -105q16 -16 16 -30q0 -7 -4.5 -10.5t-11.5 -3.5h-68q-16 0 -24.5 4t-15 9.5
t-8.5 7.5l-77 63l-77 -63q-2 -2 -9.5 -8.5t-16 -9.5t-20.5 -3h-68q-7 0 -11.5 3.5t-4.5 10.5q0 15 15 30l100 105q12 12 23 18z" />
    <glyph glyph-name="ycircumflex" unicode="&#x177;" horiz-adv-x="581" 
d="M42 -184q-2 1 -13 5t-17.5 11t-6.5 16q0 7 4 20t12 32q2 5 9 23.5t14.5 25.5t17.5 7q7 0 18 -3.5t13 -4.5q12 -4 25 -7.5t24 -3.5q23 0 38 14t30 48q4 7 4 16q0 6 -3 13l-179 424q-16 38 -21.5 55t-5.5 26q0 20 27 20h113q17 0 25 -2.5t14 -11t12 -27.5l78 -211
q15 -44 26 -85h3q14 42 17 50l12 37l68 218q5 14 10 20.5t12 9t19 2.5h112q26 0 26 -19q0 -7 -3.5 -18.5t-7.5 -22.5l-190 -519q-23 -56 -50 -94.5t-68 -61t-98 -22.5q-70 0 -120 20zM208 784q6 8 11.5 11t14.5 3h116q12 0 17.5 -4.5t16.5 -19.5l101 -135q16 -20 16 -30
q0 -7 -4.5 -10.5t-11.5 -3.5h-82q-10 0 -16.5 4t-17.5 17l-77 84l-77 -84q-11 -13 -17.5 -17t-16.5 -4h-80q-7 0 -11.5 3.5t-4.5 10.5q0 10 15 30l100 135q2 2 8 10z" />
    <glyph glyph-name="Ydieresis" unicode="&#x178;" horiz-adv-x="627" 
d="M5 694.5q-4 9.5 -4 20.5q0 16 24 16h143q16 0 23 -6.5t13 -18.5l87 -186q10 -23 13.5 -34.5t7.5 -32.5h2q2 17 5.5 31.5t12.5 32.5l93 193q6 11 13.5 16t19.5 5h145q12 0 17.5 -4t5.5 -12q0 -9 -4 -18.5t-8 -17t-7 -12.5l-178 -345q-10 -17 -13.5 -31.5t-3.5 -44.5v-199
q0 -21 -3.5 -30.5t-12.5 -13t-30 -3.5h-102q-21 0 -31 3.5t-13.5 13t-3.5 29.5v191q0 27 -3 43.5t-14 36.5l-174 338q-16 30 -20 39.5zM264.5 802q-3.5 -9 -13 -12t-30.5 -3h-88q-21 0 -30.5 3t-13 12t-3.5 28v62q0 19 3 27.5t11.5 11.5t27.5 3h97q19 0 28 -3t12 -11.5
t3 -27.5v-62q0 -19 -3.5 -28zM546.5 802q-3.5 -9 -13 -12t-30.5 -3h-88q-21 0 -30.5 3t-13 12t-3.5 28v62q0 19 3 27.5t11.5 11.5t27.5 3h97q19 0 28 -3t12 -11.5t3 -27.5v-62q0 -19 -3.5 -28z" />
    <glyph glyph-name="Zacute" unicode="&#x179;" horiz-adv-x="651" 
d="M58.5 563.5q-9.5 3.5 -13 13t-3.5 30.5v77q0 20 3.5 30t13 13.5t29.5 3.5h484q20 0 29.5 -4t13 -13.5t3.5 -29.5v-88q0 -20 -4.5 -32.5t-16.5 -26.5l-339 -363v-2h332q20 0 29.5 -4t13 -13.5t3.5 -29.5v-78q0 -20 -3.5 -29.5t-13 -13.5t-29.5 -4h-515q-20 0 -29.5 3.5
t-13 13t-3.5 30.5v91q0 19 7 34t22 31l330 355v2h-300q-20 0 -29.5 3.5zM487.5 927q5.5 8 5.5 16q0 10 -8.5 13.5t-29.5 3.5h-90q-19 0 -29 -6.5t-18 -20.5l-59 -106q-11 -20 -11 -29t8 -13.5t23 -4.5h38q13 0 21.5 1t13.5 4.5t14 13.5l103 105q13 15 18.5 23z" />
    <glyph glyph-name="zacute" unicode="&#x17a;" horiz-adv-x="505" 
d="M43.5 414.5q-9.5 3.5 -13 13t-3.5 30.5v48q0 20 3.5 30t13 13.5t29.5 3.5h349q20 0 29.5 -4t13 -13.5t3.5 -29.5v-42q0 -23 -5.5 -38t-22.5 -39l-188 -247v-2h196q20 0 29.5 -4t13 -13.5t3.5 -29.5v-44q0 -21 -3.5 -30.5t-13 -13t-29.5 -3.5h-373q-20 0 -29.5 3.5
t-13 13.5t-3.5 30v25q0 23 1.5 35.5t7.5 23.5t19 27l191 251v2h-175q-20 0 -29.5 3.5zM258 595h-41q-38 0 -38 20q0 7 3.5 15.5t8.5 16.5l68 121q9 16 20 23t32 7h96q23 0 32.5 -4t9.5 -15q0 -8 -6 -17t-21 -26l-110 -120q-19 -21 -54 -21z" />
    <glyph glyph-name="Zdotaccent" unicode="&#x17b;" horiz-adv-x="651" 
d="M58.5 563.5q-9.5 3.5 -13 13t-3.5 30.5v77q0 20 3.5 30t13 13.5t29.5 3.5h484q20 0 29.5 -4t13 -13.5t3.5 -29.5v-88q0 -20 -4.5 -32.5t-16.5 -26.5l-339 -363v-2h332q20 0 29.5 -4t13 -13.5t3.5 -29.5v-78q0 -20 -3.5 -29.5t-13 -13.5t-29.5 -4h-515q-20 0 -29.5 3.5
t-13 13t-3.5 30.5v91q0 19 7 34t22 31l330 355v2h-300q-20 0 -29.5 3.5zM250.5 790q-9.5 3 -13 12t-3.5 28v62q0 19 3 27.5t11.5 11.5t27.5 3h97q19 0 28 -3t12 -11.5t3 -27.5v-62q0 -19 -3.5 -28t-13 -12t-30.5 -3h-88q-21 0 -30.5 3z" />
    <glyph glyph-name="zdotaccent" unicode="&#x17c;" horiz-adv-x="505" 
d="M43.5 414.5q-9.5 3.5 -13 13t-3.5 30.5v48q0 20 3.5 30t13 13.5t29.5 3.5h349q20 0 29.5 -4t13 -13.5t3.5 -29.5v-42q0 -23 -5.5 -38t-22.5 -39l-188 -247v-2h196q20 0 29.5 -4t13 -13.5t3.5 -29.5v-44q0 -21 -3.5 -30.5t-13 -13t-29.5 -3.5h-373q-20 0 -29.5 3.5
t-13 13.5t-3.5 30v25q0 23 1.5 35.5t7.5 23.5t19 27l191 251v2h-175q-20 0 -29.5 3.5zM178.5 609q-9.5 3 -13 12t-3.5 28v62q0 19 3 27.5t11.5 11.5t27.5 3h97q19 0 28 -3t12 -11.5t3 -27.5v-62q0 -19 -3.5 -28t-13 -12t-30.5 -3h-88q-21 0 -30.5 3z" />
    <glyph glyph-name="Zcaron" unicode="&#x17d;" horiz-adv-x="651" 
d="M58.5 563.5q-9.5 3.5 -13 13t-3.5 30.5v77q0 20 3.5 30t13 13.5t29.5 3.5h484q20 0 29.5 -4t13 -13.5t3.5 -29.5v-88q0 -20 -4.5 -32.5t-16.5 -26.5l-339 -363v-2h332q20 0 29.5 -4t13 -13.5t3.5 -29.5v-78q0 -20 -3.5 -29.5t-13 -13.5t-29.5 -4h-515q-20 0 -29.5 3.5
t-13 13t-3.5 30.5v91q0 19 7 34t22 31l330 355v2h-300q-20 0 -29.5 3.5zM432.5 940.5q7.5 6.5 16.5 9.5t22 3h68q7 0 11.5 -3.5t4.5 -10.5q0 -14 -16 -30l-101 -105q-12 -13 -20.5 -18.5t-22.5 -5.5h-93q-14 0 -25 6t-23 18l-100 105q-15 15 -15 30q0 7 4.5 10.5t11.5 3.5
h68q15 0 23 -4t14.5 -9.5t8.5 -7.5l77 -63l77 63q2 2 9.5 8.5z" />
    <glyph glyph-name="zcaron" unicode="&#x17e;" horiz-adv-x="505" 
d="M43.5 414.5q-9.5 3.5 -13 13t-3.5 30.5v48q0 20 3.5 30t13 13.5t29.5 3.5h349q20 0 29.5 -4t13 -13.5t3.5 -29.5v-42q0 -23 -5.5 -38t-22.5 -39l-188 -247v-2h196q20 0 29.5 -4t13 -13.5t3.5 -29.5v-44q0 -21 -3.5 -30.5t-13 -13t-29.5 -3.5h-373q-20 0 -29.5 3.5
t-13 13.5t-3.5 30v25q0 23 1.5 35.5t7.5 23.5t19 27l191 251v2h-175q-20 0 -29.5 3.5zM44 784q0 7 4.5 10.5t11.5 3.5h80q10 0 16.5 -4t17.5 -17l77 -84l77 84q11 13 17.5 17t16.5 4h82q7 0 11.5 -3.5t4.5 -10.5q0 -10 -16 -30l-101 -135q-11 -15 -16.5 -19.5t-17.5 -4.5
h-116q-9 0 -14 2.5t-10 8.5t-10 13l-100 135q-15 20 -15 30z" />
    <glyph glyph-name="florin" unicode="&#x192;" horiz-adv-x="586" 
d="M304.5 699q56.5 46 148.5 46q82 0 126 -19q13 -6 19.5 -11.5t6.5 -14.5q0 -14 -9.5 -36t-22.5 -42q-14 -26 -36 -26q-15 0 -33 5q-4 1 -16 3t-24 2q-26 0 -41 -15.5t-22 -47.5l-7 -33h84q28 0 38.5 -4.5t10.5 -18.5q0 -9 -3 -23.5t-4 -17.5l-8 -33q-6 -25 -19 -34.5
t-30 -9.5h-101l-94 -395q-22 -94 -78.5 -136t-149.5 -42q-45 0 -73.5 5t-50.5 13q-13 5 -19 10t-7.5 10t-1.5 9q-1 14 15 44l17 32q8 14 15 20t17 6q11 0 31 -5q6 -1 18.5 -3t21.5 -2q23 0 40.5 11t25.5 44l91 379h-76q-28 0 -38.5 4.5t-10.5 18.5q0 9 3 23.5t4 17.5l8 33
q6 25 19 34.5t30 9.5h94l9 36q26 107 82.5 153z" />
    <glyph glyph-name="Scommaaccent" unicode="&#x218;" horiz-adv-x="649" 
d="M556 53q-64 -67 -225 -67q-70 0 -122.5 9t-94.5 26q-41 17 -58.5 32t-17.5 31q0 14 20 54q18 37 30 50t26 13q9 0 20.5 -4.5t21.5 -9t17 -7.5q38 -17 77 -26.5t69 -9.5q44 0 67.5 15.5t23.5 48.5t-28 52.5t-99 28.5q-123 15 -179.5 73.5t-56.5 147.5q0 64 20.5 108.5
t60.5 73.5q39 28 92 40.5t120 12.5q44 0 84.5 -6t71.5 -14q44 -12 62.5 -27t18.5 -29q0 -11 -5 -25.5t-11 -29.5q-10 -25 -16.5 -38t-15.5 -21t-21 -8q-11 0 -22.5 3.5t-19 6.5t-11.5 4q-31 11 -58.5 17t-58.5 6q-47 0 -66 -15q-17 -14 -17 -37q0 -22 10.5 -35t36.5 -22
t74 -16q131 -19 187.5 -84t56.5 -154q0 -101 -64 -168zM267.5 -209q-11.5 0 -16 8t-4.5 24l-1 74q0 20 3 28.5t13 12t32 3.5h83q21 0 31 -3.5t14 -12t4 -27.5v-83q0 -21 -7 -38t-27 -49l-26 -42q-16 -25 -23 -32.5t-16 -7.5q-10 0 -28 9q-2 1 -9 5.5t-10.5 9.5t-3.5 12
q0 8 4.5 20.5t8 20t5.5 11.5l26 57h-39h-13.5z" />
    <glyph glyph-name="scommaaccent" unicode="&#x219;" horiz-adv-x="546" 
d="M50 40q-15 10 -15 25q0 10 3 19.5t6.5 17t6.5 13.5q12 27 19.5 37.5t19.5 10.5t31 -8q39 -15 82.5 -24t74.5 -9q36 0 54.5 10.5t18.5 29.5q0 14 -7 23t-28.5 15t-64.5 10q-108 10 -157 50.5t-49 115.5q0 52 16.5 87t52.5 61q28 22 70.5 31.5t102.5 9.5q84 0 146 -19
q28 -9 42 -17.5t14 -22.5q0 -7 -3 -18t-6.5 -19.5t-5.5 -14.5q-6 -18 -12 -30t-11 -16t-12 -4q-8 0 -17 2t-16.5 5t-14.5 5q-14 5 -44 10t-47 5q-44 0 -58 -6q-26 -9 -26 -33q0 -14 6.5 -21.5t26 -12t61.5 -8.5q77 -7 124 -29t68 -58t21 -88q0 -88 -67 -135t-198 -47
q-40 0 -83 7.5t-79 19.5q-31 10 -46 20zM218.5 -209q-11.5 0 -16 8t-4.5 24l-1 74q0 20 3 28.5t13 12t32 3.5h83q21 0 31 -3.5t14 -12t4 -27.5v-83q0 -21 -7 -38t-27 -49l-26 -42q-16 -25 -23 -32.5t-16 -7.5q-10 0 -28 9q-2 1 -9 5.5t-10.5 9.5t-3.5 12q0 8 4.5 20.5t8 20
t5.5 11.5l26 57h-39h-13.5z" />
    <glyph glyph-name="uni021A" unicode="&#x21a;" horiz-adv-x="623" 
d="M608.5 576.5q-3.5 -9.5 -13 -13t-29.5 -3.5h-156v-513q0 -20 -3 -29.5t-12.5 -13.5t-30.5 -4h-104q-20 0 -29.5 3.5t-13 13.5t-3.5 30v513h-157q-20 0 -29.5 3.5t-13 13t-3.5 30.5v77q0 20 3.5 30t13 13.5t29.5 3.5h509q20 0 29.5 -4t13 -13.5t3.5 -29.5v-77
q0 -21 -3.5 -30.5zM243.5 -209q-11.5 0 -16 8t-4.5 24l-1 74q0 20 3 28.5t13 12t32 3.5h83q21 0 31 -3.5t14 -12t4 -27.5v-83q0 -21 -7 -38t-27 -49l-26 -42q-16 -25 -23 -32.5t-16 -7.5q-10 0 -28 9q-2 1 -9 5.5t-10.5 9.5t-3.5 12q0 8 4.5 20.5t8 20t5.5 11.5l26 57h-39
h-13.5z" />
    <glyph glyph-name="uni021B" unicode="&#x21b;" horiz-adv-x="467" 
d="M93.5 646q7.5 13 31.5 24l58 26q32 13 55 13q20 0 26 -9.5t6 -28.5v-140h122q21 0 30.5 -4t12.5 -13.5t3 -29.5v-47q0 -20 -3 -29.5t-12.5 -13.5t-30.5 -4h-122v-193q0 -33 12 -47.5t42 -14.5q21 0 55 12q9 3 17.5 5.5t14.5 2.5q9 0 14.5 -4t9.5 -13t8 -21
q8 -24 12.5 -38.5t4.5 -24.5q0 -12 -8.5 -19.5t-28.5 -16.5q-31 -13 -70.5 -22t-70.5 -9q-99 0 -147.5 45.5t-48.5 147.5v210h-39q-20 0 -29.5 4t-13 13.5t-3.5 29.5v22q0 17 7 25.5t26 13.5q22 6 33 14t15 20.5t4 34.5v39q0 27 7.5 40zM184.5 -209q-11.5 0 -16 8t-4.5 24
l-1 74q0 20 3 28.5t13 12t32 3.5h83q21 0 31 -3.5t14 -12t4 -27.5v-83q0 -21 -7 -38t-27 -49l-26 -42q-16 -25 -23 -32.5t-16 -7.5q-10 0 -28 9q-2 1 -9 5.5t-10.5 9.5t-3.5 12q0 8 4.5 20.5t8 20t5.5 11.5l26 57h-39h-13.5z" />
    <glyph glyph-name="dotlessj" unicode="&#x237;" horiz-adv-x="316" 
d="M54 -206q-38 0 -68.5 6t-61.5 19q-24 11 -33 18t-9 20q0 8 7 25t12 27.5t7 15.5q6 14 11.5 23.5t10.5 12.5t13 3q13 0 32 -7q12 -4 26 -7.5t28 -3.5q22 0 29.5 18.5t7.5 54.5v487q0 20 3 29.5t12.5 13.5t30.5 4h92q21 0 30.5 -4t12.5 -13.5t3 -29.5v-500
q0 -212 -196 -212z" />
    <glyph glyph-name="circumflex" unicode="&#x2c6;" horiz-adv-x="500" 
d="M165 784q6 8 11.5 11t14.5 3h116q12 0 17.5 -4.5t16.5 -19.5l101 -135q16 -20 16 -30q0 -7 -4.5 -10.5t-11.5 -3.5h-82q-10 0 -16.5 4t-17.5 17l-77 84l-77 -84q-11 -13 -17.5 -17t-16.5 -4h-80q-7 0 -11.5 3.5t-4.5 10.5q0 10 15 30l100 135q2 2 8 10z" />
    <glyph glyph-name="caron" unicode="&#x2c7;" horiz-adv-x="500" 
d="M42 784q0 7 4.5 10.5t11.5 3.5h80q10 0 16.5 -4t17.5 -17l77 -84l77 84q11 13 17.5 17t16.5 4h82q7 0 11.5 -3.5t4.5 -10.5q0 -10 -16 -30l-101 -135q-11 -15 -16.5 -19.5t-17.5 -4.5h-116q-9 0 -14 2.5t-10 8.5t-10 13l-100 135q-15 20 -15 30z" />
    <glyph glyph-name="uni02C9" unicode="&#x2c9;" horiz-adv-x="500" 
d="M66 667v33q0 18 9.5 27t31.5 9h286q22 0 31.5 -9t9.5 -27v-33q0 -44 -39 -44h-290q-39 0 -39 44z" />
    <glyph glyph-name="breve" unicode="&#x2d8;" horiz-adv-x="500" 
d="M160 737.5q11 -15.5 33.5 -27t56.5 -11.5t56.5 11.5t33.5 27t14 30.5q2 10 5 14.5t7.5 5.5t14.5 1h50q11 0 16 -4t5 -14q0 -57 -27.5 -96.5t-73.5 -59.5t-101 -20t-101 20t-73.5 59.5t-27.5 96.5q0 10 5 14t16 4h49q15 0 20 -3.5t8 -17.5q3 -15 14 -30.5z" />
    <glyph glyph-name="dotaccent" unicode="&#x2d9;" horiz-adv-x="500" 
d="M175.5 609q-9.5 3 -13 12t-3.5 28v62q0 19 3 27.5t11.5 11.5t27.5 3h97q19 0 28 -3t12 -11.5t3 -27.5v-62q0 -19 -3.5 -28t-13 -12t-30.5 -3h-88q-21 0 -30.5 3z" />
    <glyph glyph-name="ring" unicode="&#x2da;" horiz-adv-x="500" 
d="M129.5 804q18.5 32 50 50.5t70.5 18.5q38 0 70 -18.5t50.5 -50.5t18.5 -70t-18.5 -70t-50.5 -50.5t-70 -18.5q-39 0 -70.5 18.5t-50 50.5t-18.5 70t18.5 70zM214 698q15 -15 36 -15t36 15t15 36t-15 36t-36 15t-36 -15t-15 -36t15 -36z" />
    <glyph glyph-name="ogonek" unicode="&#x2db;" horiz-adv-x="500" 
d="M254 -49q-16 -34 -16 -66q0 -24 14.5 -39t40.5 -15q14 0 26 2.5t17 4t7 2.5q3 1 9.5 3t10.5 2q6 0 8 -3t5 -11l10 -33q2 -10 2 -13q0 -13 -18 -21q-15 -7 -42.5 -13t-60.5 -6q-68 0 -114 29t-46 96q0 48 39 90t98 72h70v-8q-44 -39 -60 -73z" />
    <glyph glyph-name="tilde" unicode="&#x2dc;" horiz-adv-x="500" 
d="M184.5 651.5q-9.5 2.5 -20.5 2.5q-32 0 -48 -37q0 -1 -2 -6t-7.5 -8t-14.5 -3h-34q-14 0 -18.5 6t-4.5 21q0 40 16.5 70.5t46 47.5t68.5 17q38 0 71 -14l51 -22q29 -12 47 -12t29 10t18 27q0 1 2 6t7.5 8t14.5 3h34q13 0 18.5 -6t5.5 -21q0 -38 -19 -69t-49.5 -48.5
t-62.5 -17.5q-38 0 -71 14l-51 22q-17 7 -26.5 9.5z" />
    <glyph glyph-name="hungarumlaut" unicode="&#x2dd;" horiz-adv-x="500" 
d="M118.5 599.5q-8.5 -4.5 -20.5 -4.5h-56q-21 0 -21 14q0 4 3 12.5t7 18.5l51 134q7 15 14.5 19.5t26.5 4.5h109q12 0 18 -2.5t6 -10.5q0 -5 -4.5 -13t-9 -13.5t-6.5 -8.5l-101 -134q-8 -12 -16.5 -16.5zM341.5 599.5q-8.5 -4.5 -20.5 -4.5h-56q-21 0 -21 14q0 4 3 12.5
t7 18.5l51 134q7 15 14.5 19.5t26.5 4.5h109q12 0 18 -2.5t6 -10.5q0 -5 -4.5 -13t-9 -13.5t-6.5 -8.5l-101 -134q-8 -12 -16.5 -16.5z" />
    <glyph glyph-name="commaaccent" unicode="&#x326;" horiz-adv-x="0" 
d="M-318.5 -209q-11.5 0 -16 8t-4.5 24l-1 74q0 20 3 28.5t13 12t32 3.5h83q21 0 31 -3.5t14 -12t4 -27.5v-83q0 -21 -7 -38t-27 -49l-26 -42q-16 -25 -23 -32.5t-16 -7.5q-10 0 -28 9q-2 1 -9 5.5t-10.5 9.5t-3.5 12q0 8 4.5 20.5t8 20t5.5 11.5l26 57h-39h-13.5z" />
    <glyph glyph-name="uni0394" unicode="&#x394;" horiz-adv-x="784" 
d="M770 16.5q-4 -9.5 -13 -13t-29 -3.5h-672q-20 0 -29.5 3.5t-13 13.5t-3.5 30v44q0 21 2 31.5t11 29.5l248 541q8 17 15.5 25t18.5 10.5t32 2.5h108q23 0 34 -3t17 -10.5t14 -24.5l252 -541q8 -18 10 -29t2 -34v-42q0 -21 -4 -30.5zM541 172l-124 296q-8 18 -15 42t-9 32
h-3q-2 -8 -9 -32t-15 -42l-123 -296h298z" />
    <glyph glyph-name="uni03A9" unicode="&#x3a9;" horiz-adv-x="788" 
d="M87 607.5q40 67.5 115.5 102.5t180.5 35h19q105 0 180.5 -35t116 -102.5t40.5 -164.5v-25q0 -55 -9.5 -101t-40 -92.5t-89.5 -85.5h101q20 0 29.5 -4t13 -13.5t3.5 -29.5v-45q0 -21 -3.5 -30.5t-13 -13t-29.5 -3.5h-219q-20 0 -29.5 3.5t-13 13.5t-3.5 30v43q0 37 14 52
q46 49 67.5 103t21.5 128v19q0 64 -12.5 105.5t-43.5 64.5t-86 23h-9q-55 0 -86 -22.5t-43 -64t-12 -105.5v-19q0 -74 21 -128.5t67 -103.5q14 -16 14 -50v-45q0 -20 -3 -29.5t-12.5 -13.5t-30.5 -4h-216q-20 0 -29.5 3.5t-13 13t-3.5 30.5v45q0 21 3.5 30.5t13 13t29.5 3.5
h99q-59 39 -89.5 85.5t-40 92.5t-9.5 101v25q0 97 40 164.5z" />
    <glyph glyph-name="uni03BC" unicode="&#x3bc;" horiz-adv-x="671" 
d="M597 154.5q6 -26.5 20 -54.5q7 -13 10.5 -22.5t3.5 -16.5q0 -11 -9.5 -19.5t-30.5 -18.5l-37 -19q-17 -9 -28 -12t-21 -3q-14 0 -22 7.5t-17 23.5q-9 17 -18 39h-1q-46 -71 -114 -71q-26 0 -44.5 7t-34.5 26v-166q0 -20 -3.5 -29.5t-13 -13.5t-29.5 -4h-92q-20 0 -29 3.5
t-13 13t-4 30.5v651q0 20 4 30t13.5 13.5t28.5 3.5h92q20 0 29.5 -3.5t13 -13.5t3.5 -31l-1 -289q0 -37 10 -56t25.5 -25.5t38.5 -6.5q21 0 39 7.5t26 15.5q7 7 9.5 11t4 15t1.5 35v294q0 20 3.5 30t13 13.5t29.5 3.5h92q20 0 29.5 -3.5t13 -13.5t3.5 -30v-279
q0 -46 6 -72.5z" />
    <glyph glyph-name="pi" unicode="&#x3c0;" horiz-adv-x="750" 
d="M710.5 549q9.5 -4 13 -13.5t3.5 -29.5v-76q0 -20 -3 -29.5t-12.5 -13.5t-30.5 -4h-90v-199q0 -24 4 -37t12.5 -17.5t22.5 -4.5q13 0 26 3.5t20 3.5q10 0 15 -6.5t9.5 -18.5t6.5 -18q5 -14 8.5 -25t3.5 -21q0 -12 -6 -19.5t-20 -14.5q-39 -22 -101 -22q-73 0 -111.5 43.5
t-38.5 144.5v208h-131v-336q0 -20 -2.5 -29t-12.5 -13.5t-31 -4.5h-57q-20 0 -29.5 3.5t-13 13t-3.5 30.5v336h-10q-20 0 -37 -4t-43 -11q-19 -7 -26 -7q-11 0 -17.5 5t-11.5 15.5t-12 32.5q-11 33 -14.5 48t-3.5 28t7.5 20.5t21.5 13t41 13.5q53 16 185 16h439
q20 0 29.5 -4z" />
    <glyph glyph-name="Wgrave" unicode="&#x1e80;" horiz-adv-x="889" 
d="M631 304h3q0 26 2 40l36 356q2 16 11 23.5t29 7.5h130q27 0 27 -18q0 -4 -0.5 -9.5t-1.5 -9.5l-116 -663q-4 -31 -38 -31h-121q-18 0 -27 7.5t-12 23.5l-92 324q-6 23 -15.5 64.5t-11.5 64.5h-2q-2 -24 -9.5 -64.5t-13.5 -58.5l-73 -330q-3 -16 -11.5 -23.5t-26.5 -7.5
h-125q-16 0 -25.5 7.5t-12.5 23.5l-111 659q-3 17 -3 23q0 18 27 18h137q19 0 26.5 -8t9.5 -23l32 -323q0 -4 3 -29.5t3 -43.5h2l15 72l57 249q4 17 13.5 24.5t31.5 7.5h131q22 0 31.5 -7.5t13.5 -24.5l69 -277q6 -23 8 -44zM283.5 926q-5.5 9 -5.5 17q0 10 8.5 13.5
t29.5 3.5h90q19 0 29 -6.5t18 -20.5l59 -106q11 -20 11 -29t-8 -13.5t-23 -4.5h-38q-13 0 -21.5 1t-13.5 4.5t-14 13.5l-103 105q-13 13 -18.5 22z" />
    <glyph glyph-name="wgrave" unicode="&#x1e81;" horiz-adv-x="785" 
d="M130 11q-12 11 -17 38l-82 421q-2 10 -6 31t-4 27q0 10 5.5 17.5t19.5 7.5h106q14 0 21 -5.5t9 -20.5l38 -249q4 -27 7 -77h4q2 31 14 78l63 242q5 18 13.5 25t29.5 7h79q17 0 25.5 -3t12.5 -9.5t7 -19.5l65 -242q3 -13 8 -37.5t6 -40.5h4q4 56 7 77l32 242q2 17 11 25
t27 8h105q23 0 23 -23q0 -11 -6 -40l-85 -446q-4 -23 -15.5 -33.5t-30.5 -10.5h-94q-18 0 -28 3.5t-16.5 12.5t-12.5 27l-67 255q-4 16 -8 38t-6 31h-4q-2 -17 -7.5 -40t-7.5 -29l-64 -254q-5 -16 -10 -25t-15.5 -14t-29.5 -5h-86q-28 0 -40 11zM200 762q-6 9 -6 17
q0 11 9.5 15t32.5 4h96q21 0 32 -7t20 -23l68 -121q5 -8 8.5 -16.5t3.5 -15.5q0 -20 -38 -20h-41q-34 0 -54 21l-110 120q-15 17 -21 26z" />
    <glyph glyph-name="Wacute" unicode="&#x1e82;" horiz-adv-x="889" 
d="M631 304h3q0 26 2 40l36 356q2 16 11 23.5t29 7.5h130q27 0 27 -18q0 -4 -0.5 -9.5t-1.5 -9.5l-116 -663q-4 -31 -38 -31h-121q-18 0 -27 7.5t-12 23.5l-92 324q-6 23 -15.5 64.5t-11.5 64.5h-2q-2 -24 -9.5 -64.5t-13.5 -58.5l-73 -330q-3 -16 -11.5 -23.5t-26.5 -7.5
h-125q-16 0 -25.5 7.5t-12.5 23.5l-111 659q-3 17 -3 23q0 18 27 18h137q19 0 26.5 -8t9.5 -23l32 -323q0 -4 3 -29.5t3 -43.5h2l15 72l57 249q4 17 13.5 24.5t31.5 7.5h131q22 0 31.5 -7.5t13.5 -24.5l69 -277q6 -23 8 -44zM607.5 927q5.5 8 5.5 16q0 10 -8.5 13.5
t-29.5 3.5h-90q-19 0 -29 -6.5t-18 -20.5l-59 -106q-11 -20 -11 -29t8 -13.5t23 -4.5h38q13 0 21.5 1t13.5 4.5t14 13.5l103 105q13 15 18.5 23z" />
    </font>
</defs>
</svg>
