<?xml version="1.0" standalone="no"?>
<!DOCTYPE svg PUBLIC "-//W3C//DTD SVG 1.1//EN" "http://www.w3.org/Graphics/SVG/1.1/DTD/svg11.dtd" >
<svg xmlns="http://www.w3.org/2000/svg" xmlns:xlink="http://www.w3.org/1999/xlink" version="1.1">
<metadata>
Created by FontForge 20201107 at Mon Jun  1 19:16:04 2015
 By Unknown
Copyright (c) 2015 Monotype Imaging Inc.  All rights reserved.
</metadata>
<defs>
<font id="DaytonaPro-LightItalic" horiz-adv-x="388" >
  <font-face 
    font-family="DaytonaPro-LightItalic"
    font-weight="400"
    font-style="italic"
    font-stretch="normal"
    units-per-em="1000"
    panose-1="2 11 5 4 3 5 3 11 2 4"
    ascent="785"
    descent="-215"
    x-height="553"
    cap-height="731"
    bbox="-416 -268 1006 1007"
    underline-thickness="50"
    underline-position="-125"
    slope="-12"
    unicode-range="U+000D-FB04"
  />
<missing-glyph horiz-adv-x="600" 
d="M550 705h-500v-882h500v882zM494 649v-770h-388v770h388z" />
    <glyph glyph-name="ff" unicode="ff" horiz-adv-x="641" 
d="M392 21q-3 -14 -7 -17.5t-15 -3.5h-19q-11 0 -15 2t-4 8t1 10.5t2 7.5l97 460h-257l-99 -467q-3 -13 -7.5 -17t-15.5 -4h-19q-11 0 -14.5 2t-3.5 8t2 18l98 460h-47q-10 0 -13.5 2.5t-3.5 7.5q0 4 1 7l1 5q1 8 10 12t29 7q33 6 39 32l8 41q13 56 34.5 88t53 46t75.5 14
q48 0 94 -19q19 -9 19 -19q0 -9 -7 -21q-9 -15 -17 -15q-5 0 -12 2.5t-10 3.5q-31 14 -69 14q-44 0 -68 -23.5t-35 -76.5l-11 -54h257l13 60q12 56 33.5 88t53 46t75.5 14q50 0 94 -19q20 -9 20 -19q0 -6 -3 -12.5t-4 -8.5q-6 -8 -10 -11.5t-8 -3.5t-11 2.5t-11 3.5
q-30 14 -69 14q-43 0 -67 -23.5t-36 -76.5l-11 -54h151q11 0 15.5 -2.5t4.5 -8.5q0 -2 -3 -16l-2 -10q-3 -11 -7.5 -14t-16.5 -3h-154z" />
    <glyph glyph-name="ffi" unicode="ffi" horiz-adv-x="872" 
d="M393 21q-2 -13 -6.5 -17t-15.5 -4h-20q-11 0 -14.5 2t-3.5 8t2 18l97 460h-257l-99 -467q-3 -13 -7.5 -17t-15.5 -4h-19q-11 0 -14.5 2t-3.5 8t2 18l98 460h-47q-10 0 -13.5 2.5t-3.5 7.5q0 4 1 7l1 5q1 8 10 12t29 7q33 6 39 32l8 41q13 56 34.5 88t53 46t75.5 14
q48 0 94 -19q19 -9 19 -19q0 -9 -7 -21q-9 -15 -17 -15q-5 0 -12 2.5t-10 3.5q-31 14 -69 14q-44 0 -68 -23.5t-35 -76.5l-11 -54h257l13 60q19 81 58 114.5t99 33.5q49 0 91 -19q20 -9 20 -19q0 -6 -3 -12.5t-4 -8.5q-6 -8 -10 -11.5t-8 -3.5t-11 2.5t-11 3.5
q-28 14 -65 14q-39 0 -63 -24t-35 -76l-12 -54h143q11 0 15 -2.5t4 -8.5q0 -2 -3 -16l-2 -10q-2 -11 -6.5 -14t-17.5 -3h-145zM780.5 642.5q-4.5 2.5 -4.5 8.5l2 15l11 50q3 14 7.5 17.5t18.5 3.5h26q11 0 15.5 -2t4.5 -8l-2 -13l-12 -53q-3 -13 -8 -17t-19 -4h-24
q-11 0 -15.5 2.5zM650.5 2q-4.5 2 -4.5 8q0 4 1.5 9.5t2.5 10.5l106 503q3 13 7.5 16.5t17.5 3.5h19q10 0 14 -2t4 -8q0 -4 -3 -15l-107 -507q-3 -13 -7.5 -17t-16.5 -4h-20q-9 0 -13.5 2z" />
    <glyph glyph-name="ffl" unicode="ffl" horiz-adv-x="908" 
d="M393 21q-2 -13 -6.5 -17t-15.5 -4h-20q-11 0 -14.5 2t-3.5 8t2 18l97 460h-257l-99 -467q-3 -13 -7.5 -17t-15.5 -4h-19q-11 0 -14.5 2t-3.5 8t2 18l98 460h-47q-10 0 -13.5 2.5t-3.5 7.5q0 4 1 7l1 5q1 8 10 12t29 7q33 6 39 32l8 41q13 56 34.5 88t53 46t75.5 14
q48 0 94 -19q19 -9 19 -19q0 -9 -7 -21q-9 -15 -17 -15q-5 0 -12 2.5t-10 3.5q-31 14 -69 14q-44 0 -68 -23.5t-35 -76.5l-11 -54h257l13 60q18 81 57 114.5t100 33.5q49 0 91 -19q20 -9 20 -19q0 -6 -3 -12.5t-4 -8.5q-6 -8 -10 -11.5t-8 -3.5t-11 2.5t-11 3.5
q-28 14 -65 14q-39 0 -63 -24t-35 -76l-12 -54h143q11 0 15 -2.5t4 -8.5q0 -2 -3 -16l-2 -10q-2 -11 -6.5 -14t-17.5 -3h-145zM729.5 127q-2.5 -14 -2.5 -30q0 -26 12.5 -37.5t37.5 -11.5q13 0 26 3t23.5 6.5t13.5 3.5q5 0 7.5 -3.5t3.5 -11.5q3 -15 3 -23q0 -7 -5 -11
t-17 -8q-32 -12 -65 -12q-48 0 -73.5 25t-25.5 72q0 30 9 73l118 554q3 14 7 17.5t17 3.5h20q9 0 13 -2t4 -8q0 -7 -2 -14l-121 -569q-1 -3 -3.5 -17z" />
    <glyph glyph-name="f_i" unicode="fi" horiz-adv-x="556" 
d="M69.5 4q-4.5 -4 -15.5 -4h-20q-11 0 -14.5 2t-3.5 8t2 18l97 460h-46q-10 0 -14 2.5t-4 7.5l1 7l1 5q2 8 10.5 12t28.5 7q33 6 39 32l9 41q18 81 57 114.5t100 33.5q49 0 91 -19q20 -9 20 -19q0 -5 -2.5 -10.5t-5.5 -10.5q-9 -15 -17 -15q-4 0 -11 2.5t-11 3.5
q-28 14 -65 14q-39 0 -63.5 -24t-34.5 -76l-11 -54h142q11 0 15 -2.5t4 -8.5q0 -2 -3 -16l-2 -10q-2 -11 -6.5 -14t-17.5 -3h-145l-98 -467q-2 -13 -6.5 -17zM464 642q-4 2 -4 9l2 15l11 50q3 14 7.5 17.5t18.5 3.5h26q11 0 15 -2t4 -8l-2 -13l-11 -53q-3 -13 -8 -17t-19 -4
h-24q-12 0 -16 2zM334 2q-4 2 -4 8q0 4 1.5 9.5t2.5 10.5l106 503q2 13 6.5 16.5t18.5 3.5h19q10 0 13.5 -2t3.5 -8l-2 -15l-108 -507q-2 -13 -7 -17t-17 -4h-19q-10 0 -14 2z" />
    <glyph glyph-name="f_l" unicode="fl" horiz-adv-x="592" 
d="M69.5 4q-4.5 -4 -15.5 -4h-20q-11 0 -14.5 2t-3.5 8t2 18l97 460h-46q-10 0 -14 2.5t-4 7.5l1 7l1 5q2 8 10.5 12t28.5 7q33 6 39 32l11 45q18 78 56.5 111t98.5 33q49 0 91 -19q20 -9 20 -19q0 -5 -2.5 -10.5t-5.5 -10.5q-9 -15 -17 -15q-4 0 -11 2.5t-11 3.5
q-28 14 -65 14q-40 0 -63.5 -24.5t-35.5 -81.5l-11 -48h143q11 0 15 -2.5t4 -8.5q0 -2 -3 -16l-2 -10q-2 -11 -6.5 -14t-17.5 -3h-145l-98 -467q-2 -13 -6.5 -17zM413.5 127q-2.5 -14 -2.5 -30q0 -26 12.5 -37.5t37.5 -11.5q13 0 26 3t23.5 6.5t13.5 3.5q5 0 7.5 -3.5
t3.5 -11.5q3 -15 3 -23q0 -7 -5 -11t-17 -8q-32 -12 -65 -12q-48 0 -73.5 25t-25.5 72q0 30 9 73l118 554q2 13 6.5 17t17.5 4h20q9 0 13 -2t4 -8l-2 -14l-121 -569q-1 -3 -3.5 -17z" />
    <glyph glyph-name=".notdef" horiz-adv-x="600" 
d="M550 705h-500v-882h500v882zM494 649v-770h-388v770h388z" />
    <glyph glyph-name=".null" horiz-adv-x="0" 
 />
    <glyph glyph-name="nonmarkingreturn" horiz-adv-x="333" 
 />
    <glyph glyph-name="NULL" horiz-adv-x="0" 
 />
    <glyph glyph-name="CR" unicode="&#xd;" horiz-adv-x="344" 
 />
    <glyph glyph-name="space" unicode=" " horiz-adv-x="344" 
 />
    <glyph glyph-name="exclam" unicode="!" horiz-adv-x="228" 
d="M60.5 203q-3.5 2 -3.5 8t1 11l92 495q2 9 4 13t7 5.5t15 1.5h30q10 0 14 -1.5t4 -7.5q0 -8 -3 -17l-116 -489q-3 -13 -7.5 -17t-15.5 -4h-9q-9 0 -12.5 2zM4.5 2.5q-5.5 2.5 -5.5 11.5l3 15l11 50q2 11 4.5 16.5t8 7t16.5 1.5h29q14 0 19 -2t5 -9q0 -2 -2 -14l-12 -55
q-2 -14 -8 -19t-22 -5h-26q-15 0 -20.5 2.5z" />
    <glyph glyph-name="quotedbl" unicode="&#x22;" horiz-adv-x="332" 
d="M115 641l6 33l8 41q4 19 9 24.5t20 5.5h16q12 0 16 -2.5t4 -11.5q0 -6 -2 -16l-9 -41q-2 -10 -6 -27.5t-8 -29.5l-33 -109q-5 -16 -9.5 -22t-14.5 -6h-4q-9 0 -12 3.5t-3 11.5l2 20l15 102zM274 674l9 41q4 19 9 24.5t20 5.5h15q12 0 16.5 -2.5t4.5 -11.5q0 -6 -1.5 -10
t-1.5 -6l-8 -41q-2 -8 -5.5 -23t-8.5 -34l-33 -109q-5 -16 -9.5 -22t-15.5 -6h-3q-9 0 -12.5 3.5t-3.5 11.5q0 3 2 19l16 103q6 37 10 57z" />
    <glyph glyph-name="numbersign" unicode="#" horiz-adv-x="592" 
d="M81 25q-5 -12 -8 -17t-8 -6.5t-14 -1.5h-12q-10 0 -13.5 1.5t-3.5 7.5q0 7 4 16l73 175h-96q-12 0 -17 2t-5 7t5 15l5 12q5 10 10.5 13.5t19.5 3.5h100l75 185h-96q-12 0 -16.5 1.5t-4.5 7.5q0 2 1.5 6.5t4.5 9.5l6 13q4 8 9 11.5t18 3.5h100l71 172q5 13 9 19t8.5 7.5
t13.5 1.5h13q9 0 12.5 -1.5t3.5 -6.5q0 -4 -5 -17l-71 -175h143l72 175q7 16 12.5 20.5t18.5 4.5h13q8 0 11.5 -2t3.5 -6q0 -8 -4 -17l-72 -175h97q11 0 15.5 -2.5t4.5 -7.5q0 -6 -4 -14l-6 -14q-4 -9 -10 -12t-19 -3h-100l-75 -185h93q13 0 18.5 -2t5.5 -8q0 -4 -1.5 -7
t-2.5 -6l-7 -15q-4 -10 -10 -12.5t-21 -2.5h-97l-71 -172q-7 -18 -12 -23t-19 -5h-12q-9 0 -13.5 1.5t-4.5 7.5t7 20l71 171h-145zM395 438h-144l-76 -185h144z" />
    <glyph glyph-name="dollar" unicode="$" horiz-adv-x="614" 
d="M108.5 30.5q-48.5 12.5 -86.5 33.5q-14 7 -20.5 13t-6.5 12q0 7 9 21q5 7 10 11.5t10 4.5q4 0 8 -1.5t9.5 -4.5t13.5 -7q39 -19 79.5 -28.5t86.5 -11.5l61 289q-92 20 -137.5 55.5t-45.5 97.5q0 53 23.5 94t69.5 67q35 20 74.5 30.5t90.5 12.5l18 85q3 13 8 17t19 4h12
q10 0 13.5 -2t3.5 -8q0 -3 -2 -11l-18 -86q44 -2 85 -10.5t74 -19.5q15 -7 15 -17q0 -6 -2.5 -12t-6.5 -13q-8 -14 -18 -14q-4 0 -28 6q-6 2 -24 7q-28 7 -51 10.5t-56 5.5l-52 -248q87 -19 133.5 -58t46.5 -110q0 -66 -31.5 -117t-91.5 -80.5t-142 -33.5l-17 -82
q-2 -13 -7 -16.5t-18 -3.5h-13q-10 0 -14 2t-3 8q0 7 3 18l16 75q-52 3 -100.5 15.5zM175 477.5q14 -19.5 43 -32t77 -22.5l50 237q-65 -4 -106 -25.5t-59.5 -50.5t-18.5 -59q0 -28 14 -47.5zM453.5 287.5q-11.5 21.5 -40.5 37.5t-79 27l-59 -279q65 5 107.5 29t62.5 59
t20 76q0 29 -11.5 50.5z" />
    <glyph glyph-name="percent" unicode="%" horiz-adv-x="758" 
d="M742 736q0 -4 -4.5 -10.5t-10.5 -12.5l-647 -706q-12 -13 -18.5 -17t-19.5 -4h-16q-8 0 -11.5 2t-3.5 7t4.5 11.5t11.5 12.5l646 705q2 2 8.5 9.5t12.5 9.5t15 2h17q16 0 16 -9zM327 436q-40 -37 -104 -37h-7q-58 0 -89.5 29.5t-31.5 80.5q0 13 2 28.5t5 29.5l6 30
q30 148 160 148h7q57 0 88.5 -29.5t31.5 -80.5q0 -12 -2 -27.5t-5 -30.5l-6 -30q-15 -74 -55 -111zM147 514q0 -33 17.5 -50t56.5 -17q46 0 71.5 24.5t37.5 84.5l7 28q5 28 5 46q0 34 -17 50.5t-56 16.5q-45 0 -72 -25t-39 -87l-4 -22q-7 -28 -7 -49zM591.5 23
q-40.5 -37 -104.5 -37h-7q-58 0 -89.5 29.5t-31.5 80.5q0 13 2 28.5t5 29.5l6 30q15 74 55 111t104 37h8q57 0 88.5 -29.5t31.5 -80.5q0 -13 -2 -28.5t-5 -29.5l-6 -30q-14 -74 -54.5 -111zM411 101q0 -33 17.5 -50t56.5 -17q46 0 71.5 24.5t37.5 84.5l7 28q5 28 5 46
q0 34 -17 50.5t-56 16.5q-45 0 -72 -25t-39 -87l-4 -22q-7 -28 -7 -49z" />
    <glyph glyph-name="ampersand" unicode="&#x26;" horiz-adv-x="801" 
d="M596.5 273.5q-31.5 -59.5 -73.5 -114.5l12 -20q24 -44 52.5 -63t65.5 -19q12 0 18 -2.5t6 -9.5l-2 -15l-3 -14q-2 -10 -9 -13t-26 -3q-51 0 -89.5 31.5t-65.5 80.5q-61 -57 -121.5 -89.5t-135.5 -32.5q-63 0 -106.5 24.5t-64.5 65.5t-21 92q0 70 26.5 125t74.5 87t112 35
q-57 50 -57 129q0 50 25 95.5t72 73.5t112 28q41 0 75 -9.5t57 -22.5q9 -5 13 -9t4 -10q0 -5 -3.5 -11t-6.5 -11q-9 -13 -17 -13q-5 0 -23 9l-19 8q-17 7 -37 11t-39 4q-44 0 -78.5 -19t-54 -52.5t-19.5 -74.5q0 -45 24.5 -78.5t77.5 -67.5q45 -29 77.5 -72.5t64.5 -113.5
q36 47 56 87.5t43 103.5h-82q-14 0 -18.5 1.5t-4.5 7.5q0 8 1 12l4 19q3 10 8 13t20 3h219q14 0 18.5 -1.5t4.5 -7.5l-2 -14l-4 -18q-2 -10 -7 -12.5t-20 -2.5h-76q-26 -71 -57.5 -130.5zM346 77.5q59 32.5 106 84.5q-39 101 -87.5 153.5t-112.5 52.5q-41 0 -78 -23.5
t-59.5 -69t-22.5 -107.5q0 -38 17.5 -66t48.5 -42.5t71 -14.5q58 0 117 32.5z" />
    <glyph glyph-name="quotesingle" unicode="'" horiz-adv-x="178" 
d="M121 674l9 41q4 19 9 24.5t20 5.5h15q12 0 16.5 -3t3.5 -12q0 -5 -2 -15l-9 -41q-7 -36 -13 -57l-33 -109q-5 -16 -10 -22t-16 -6h-2q-9 0 -12.5 3t-3.5 12l2 19l16 103q6 37 10 57z" />
    <glyph glyph-name="parenleft" unicode="(" horiz-adv-x="339" 
d="M387 792.5q5 3.5 8 3.5q6 0 13 -8l11 -16q6 -9 6 -12q0 -6 -12 -15q-136 -100 -217 -233t-81 -301q0 -69 9 -126t31 -114t61 -120q6 -8 6 -12q0 -7 -11 -15l-11 -9q-5 -3 -8.5 -5t-6.5 -2q-7 0 -13 9q-60 87 -90.5 180.5t-30.5 210.5q0 185 88.5 330.5t239.5 248.5
q3 2 8 5.5z" />
    <glyph glyph-name="parenright" unicode=")" horiz-adv-x="339" 
d="M-87.5 -190q-3.5 -2 -6.5 -2q-4 0 -6.5 2t-6.5 6l-11 16q-6 6 -6 12t13 15q135 100 216 232t81 298q0 71 -8.5 128t-30.5 114t-62 122q-1 1 -4 5t-3 7q0 6 12 15l10 9q5 3 8.5 5t6.5 2q6 0 13 -9q60 -86 91 -180.5t31 -210.5q0 -185 -88.5 -330.5t-239.5 -249.5
q-6 -4 -9.5 -6z" />
    <glyph glyph-name="asterisk" unicode="*" horiz-adv-x="476" 
d="M364 388.5q2 -4.5 2 -8.5t-4 -7.5t-11 -6.5l-20 -8q-10 -5 -17 -5q-5 0 -7 4t-4 12l-33 141h-5l-96 -142q-5 -8 -9 -12t-8 -4q-3 0 -6 1.5t-7 4.5l-19 12q-4 3 -7 6t-3 6q0 4 2.5 8t7.5 9l113 127l-1 4l-148 -10l-18 -1q-5 0 -7 2t-2 7l2 12l4 19q2 11 5 15.5t11 4.5
q7 0 13 -1l149 -11l2 4l-56 127q-6 14 -6 18t4 8t13 7l20 9q9 4 16 4q4 0 6 -3.5t4 -12.5l34 -141h5l95 143q5 7 9 11t7 4q7 0 14 -5l22 -14q6 -4 8 -6.5t2 -6.5q0 -6 -10 -16l-116 -126l1 -4l128 10l36 2q7 0 9.5 -2t2.5 -7q0 -3 -2 -13l-4 -18q-3 -12 -6.5 -16t-11.5 -4
l-13 1l-148 10l-3 -4l58 -132q1 -1 3 -5.5z" />
    <glyph glyph-name="plus" unicode="+" horiz-adv-x="611" 
d="M338 148q0 -12 -3.5 -16t-16.5 -4h-16q-13 0 -16.5 4t-3.5 16v193h-193q-12 0 -16 3.5t-4 16.5v16q0 12 4 15.5t16 3.5h193v194q0 12 3.5 16t16.5 4h16q13 0 16.5 -4t3.5 -16v-194h193q12 0 16 -3.5t4 -15.5v-16q0 -12 -4 -16t-16 -4h-193v-193z" />
    <glyph glyph-name="comma" unicode="," horiz-adv-x="208" 
d="M-8.5 2.5q-3.5 2.5 -3.5 10.5l2 17l12 52q4 14 8.5 18t19.5 4h34q12 0 16 -2t4 -8q0 -5 -2 -15l-10 -46q-4 -22 -9.5 -35t-18.5 -34l-39 -66q-7 -12 -12.5 -16.5t-10.5 -4.5q-6 0 -13.5 4.5t-7.5 10.5q0 5 3 12t4 10l44 86h-10q-7 0 -10.5 2.5z" />
    <glyph glyph-name="hyphen" unicode="-" horiz-adv-x="356" 
d="M33 275q-4 2 -4 8q0 5 3 17l3 11q2 11 7 14.5t17 3.5h219q10 0 14 -2t4 -8l-2 -15l-3 -11q-2 -13 -6.5 -16.5t-17.5 -3.5h-220q-10 0 -14 2z" />
    <glyph glyph-name="period" unicode="." horiz-adv-x="208" 
d="M-7.5 2.5q-4.5 2.5 -4.5 8.5q0 2 3 17l12 54q3 14 7.5 18t19.5 4h33q13 0 17 -2t4 -9l-2 -16l-12 -56q-2 -12 -7.5 -16.5t-19.5 -4.5h-34q-12 0 -16.5 2.5z" />
    <glyph glyph-name="slash" unicode="/" horiz-adv-x="427" 
d="M-59.5 -14.5q-4.5 2.5 -4.5 7.5q0 4 4.5 12.5t10.5 15.5l465 705q8 12 14.5 15.5t19.5 3.5h13q19 0 19 -9q0 -5 -6.5 -15t-8.5 -14l-465 -704q-8 -13 -14 -16.5t-19 -3.5h-13q-11 0 -15.5 2.5z" />
    <glyph glyph-name="zero" unicode="0" horiz-adv-x="614" 
d="M138.5 615.5q34.5 63.5 91 96.5t140.5 33h7q97 0 147.5 -47t50.5 -142q0 -26 -5 -60.5t-8.5 -51t-4.5 -22.5l-31 -144q-20 -99 -54.5 -162.5t-91 -96.5t-140.5 -33h-7q-97 0 -147.5 47.5t-50.5 141.5q0 26 5 60.5t8.5 51t4.5 22.5l30 144q21 99 55.5 162.5zM109 269.5
q-5 -25.5 -8.5 -50t-3.5 -44.5q0 -66 33.5 -98.5t109.5 -32.5h3q65 0 108 28t70 82t45 140l28 135q18 77 18 127q0 65 -33.5 98t-109.5 33h-3q-65 0 -108 -28t-69.5 -82t-44.5 -140l-28 -135q-2 -7 -7 -32.5z" />
    <glyph glyph-name="one" unicode="1" horiz-adv-x="614" 
d="M33.5 1.5q-3.5 1.5 -3.5 7.5q0 7 1 11l5 20q2 11 7 14.5t16 3.5h181l113 533q11 48 17 69h-3q-11 -8 -24 -17t-23 -15l-143 -81q-13 -8 -18 -8t-8 2.5t-6 9.5l-7 14q-3 6 -3 12q0 4 3 7.5t11 8.5l211 124q22 14 41 14h21q11 0 15.5 -2t4.5 -8q0 -4 -4 -20l-137 -643h172
q8 0 11.5 -2t3.5 -7q0 -8 -1 -11l-5 -20q-2 -12 -5.5 -15t-15.5 -3h-414q-10 0 -13.5 1.5z" />
    <glyph glyph-name="two" unicode="2" horiz-adv-x="614" 
d="M198.5 567.5q-4.5 -3.5 -9.5 -3.5q-13 0 -27 8q-5 2 -8.5 6.5t-3.5 9.5q0 14 12.5 37.5t43.5 53.5q30 28 78.5 47t103.5 19q92 0 142.5 -43.5t50.5 -122.5q0 -57 -24 -99.5t-69.5 -75.5t-117.5 -65l-85 -39q-67 -31 -107.5 -69t-60 -78t-28.5 -87l-2 -8h362
q11 0 14.5 -1.5t3.5 -8.5q0 -6 -1 -10l-4 -19q-3 -12 -7 -15.5t-16 -3.5h-406q-11 0 -14.5 2t-3.5 8l1 14l6 28q16 79 45 134t84.5 99.5t148.5 85.5l56 24q86 37 125.5 81t39.5 102q0 49 -31 79t-100 30q-52 0 -89.5 -17t-60 -41.5t-33.5 -48.5q-4 -9 -8.5 -12.5z" />
    <glyph glyph-name="three" unicode="3" horiz-adv-x="614" 
d="M353.5 76.5q45.5 31.5 68.5 79.5t23 97q0 40 -16 64.5t-50 35.5t-90 11h-59q-11 0 -14.5 1.5t-3.5 7.5l2 13l4 17q2 12 7 15.5t18 3.5h61q62 0 104.5 22.5t64 60t21.5 80.5q0 50 -32.5 76t-96.5 26q-36 0 -68.5 -8.5t-66.5 -26.5q-3 -2 -7.5 -4.5t-9.5 -6.5
q-7 -4 -13.5 -7.5t-9.5 -3.5q-5 0 -9 4t-10 12q-3 5 -6 11t-2 9q0 9 16.5 22t46.5 27q28 14 66 22t77 8q96 0 143 -41t47 -112q0 -41 -16.5 -81.5t-52 -72t-89.5 -43.5v-2q49 -8 78.5 -43t29.5 -96q0 -60 -27.5 -121.5t-87.5 -104t-153 -42.5q-49 0 -92 12t-76 36
q-24 15 -38.5 32.5t-14.5 26.5q0 6 4 11t13 12q13 10 22 10q4 0 10.5 -5.5t13.5 -13.5q27 -30 69 -46t91 -16q65 0 110.5 31.5z" />
    <glyph glyph-name="four" unicode="4" horiz-adv-x="614" 
d="M531 728.5q4 -2.5 3 -8.5q0 -6 -3 -17l-100 -468h106q10 0 14 -2t4 -9l-2 -10l-3 -18q-3 -12 -7.5 -15.5t-16.5 -3.5h-106l-34 -156q-2 -14 -6 -17.5t-17 -3.5h-21q-11 0 -14.5 2t-3.5 8l2 13l32 154h-326q-12 0 -16 2.5t-3 8.5l1 10l3 12q3 17 17 31l435 473
q9 9 15.5 13t16.5 4h17q9 0 13 -2.5zM233 235h137l71 336q2 9 5.5 22.5t7.5 27.5h-2q-21 -25 -56 -65l-225 -245l-17 -18q-37 -41 -59 -59l-1 -2q82 3 139 3z" />
    <glyph glyph-name="five" unicode="5" horiz-adv-x="614" 
d="M147.5 333.5q-4.5 -4.5 -10.5 -5.5q-10 0 -23 4q-11 4 -14 6.5t-3 6.5q1 8 8 29l9 27l103 310q5 13 10 16.5t18 3.5h319q10 0 13 -1.5t3 -7.5q0 -1 -2 -11l-4 -20q-2 -11 -6 -14.5t-15 -3.5h-287l-64 -193q-3 -7 -8.5 -24.5t-11.5 -28.5h3q64 57 160 57q56 0 97.5 -21.5
t63.5 -60.5t22 -91q0 -93 -38.5 -167.5t-104 -116t-144.5 -41.5q-49 0 -91.5 15.5t-75.5 45.5q-17 16 -29.5 33t-12.5 27q0 12 17 23q2 1 6 4.5t8.5 5.5t7.5 2q4 0 7.5 -3.5t7.5 -9t9 -12.5q28 -36 62 -54t84 -18q64 0 115.5 35.5t80 95t28.5 127.5q0 58 -33.5 90t-97.5 32
q-103 0 -176 -80q-6 -7 -10.5 -11.5z" />
    <glyph glyph-name="six" unicode="6" horiz-adv-x="614" 
d="M175 461q-9 -36 -15 -59h2q32 40 79 61.5t99 21.5q58 0 101 -23t66 -65.5t23 -99.5q0 -66 -27 -138t-87 -122.5t-154 -50.5q-93 0 -146.5 47.5t-53.5 140.5q0 36 5 70t18 95l25 116q29 139 106 214.5t200 75.5q36 0 79 -10t75 -28q10 -5 14 -9.5t4 -9.5q0 -4 -2.5 -10
t-7.5 -13q-5 -8 -9.5 -11t-8.5 -3q-5 0 -11.5 2.5t-14.5 6.5l-19 8q-21 9 -47 14t-53 5q-187 0 -240 -226zM382 87q46 43 65.5 101.5t19.5 105.5q0 64 -36 98.5t-98 34.5q-58 0 -105.5 -30.5t-75 -87t-27.5 -130.5q0 -66 35.5 -100.5t102.5 -34.5q73 0 119 43z" />
    <glyph glyph-name="seven" unicode="7" horiz-adv-x="614" 
d="M439 512.5q34 40.5 59.5 79.5t40.5 81h-338l-20 -92q-2 -12 -6.5 -15.5t-18.5 -3.5h-15q-11 0 -15 2t-4 8l3 19l26 119q3 14 7.5 17.5t18.5 3.5h424q6 0 9 -2t3 -7l-2 -13l-2 -12q-9 -47 -34.5 -94t-70 -103t-120.5 -139q-67 -75 -105 -151t-56 -167l-4 -23
q-2 -13 -6.5 -16.5t-16.5 -3.5h-26q-9 0 -13 2t-4 8q0 5 5 24q17 75 36.5 131.5t53.5 112.5t88 116q69 78 103 118.5z" />
    <glyph glyph-name="eight" unicode="8" horiz-adv-x="614" 
d="M473.5 725q44.5 -20 67.5 -56.5t23 -84.5q0 -76 -47.5 -128t-131.5 -73v-2q59 -24 92 -67.5t33 -107.5q0 -59 -29 -109.5t-88 -81t-144 -30.5q-70 0 -121 21t-78 61t-27 96q0 57 24.5 103.5t71 78.5t112.5 47v2q-48 24 -73.5 63.5t-25.5 90.5q0 56 29 101t82.5 70.5
t122.5 25.5q63 0 107.5 -20zM453.5 474q46.5 43 46.5 105q0 54 -36 81.5t-102 27.5q-46 0 -83.5 -17.5t-60 -49t-22.5 -72.5q0 -49 32 -82t94 -52q85 16 131.5 59zM87 168q0 -59 42 -92.5t123 -33.5q54 0 98 19t70 56t26 90q0 35 -13 61t-47 48t-96 42q-203 -43 -203 -190z
" />
    <glyph glyph-name="nine" unicode="9" horiz-adv-x="614" 
d="M363.5 104q58.5 60 83.5 167l14 58h-2q-32 -39 -79 -60.5t-99 -21.5q-58 0 -100.5 23t-66 65t-23.5 99q0 66 27 138t87.5 122.5t154.5 50.5q93 0 146.5 -47.5t53.5 -140.5q0 -35 -5 -67t-19 -97l-24 -116q-29 -139 -106 -215t-200 -76q-36 0 -79 10t-75 28q-11 5 -15 9.5
t-3 9.5q0 9 10 23q8 14 18 14q5 0 11 -2.5t13 -5.5q12 -6 20 -9q48 -19 101 -19q98 0 156.5 60zM240 644q-46 -43 -66 -101.5t-20 -105.5q0 -63 36 -97.5t98 -34.5q59 0 106.5 30.5t75 86.5t27.5 130q0 66 -36 100.5t-102 34.5q-73 0 -119 -43z" />
    <glyph glyph-name="colon" unicode=":" horiz-adv-x="301" 
d="M114 362.5q-4 2.5 -4 9.5q0 2 3 17l11 53q3 14 7.5 18t19.5 4h33q13 0 17.5 -2t4.5 -9l-2 -13l-13 -59q-2 -12 -7 -16.5t-20 -4.5h-34q-12 0 -16 2.5zM38 2.5q-4 2.5 -4 8.5l2 16l12 55q3 14 7.5 18t19.5 4h33q13 0 17.5 -2t4.5 -9q0 -3 -2 -13l-13 -59
q-2 -12 -7.5 -16.5t-19.5 -4.5h-34q-12 0 -16 2.5z" />
    <glyph glyph-name="semicolon" unicode=";" horiz-adv-x="301" 
d="M114 362.5q-4 2.5 -4 9.5q0 1 3 16l11 54q3 14 7.5 18t19.5 4h33q13 0 17.5 -2t4.5 -9l-2 -13l-13 -59q-2 -12 -7 -16.5t-20 -4.5h-34q-12 0 -16 2.5zM36.5 2.5q-3.5 2.5 -3.5 10.5l3 18l12 51q3 14 7.5 18t19.5 4h35q11 0 15 -2.5t4 -8.5q0 -4 -2 -14l-9 -46
q-5 -22 -10.5 -35t-18.5 -34l-39 -66q-7 -12 -12 -16.5t-10 -4.5q-7 0 -15 4.5t-7 10.5q0 8 7 22l44 86h-9q-8 0 -11.5 2.5z" />
    <glyph glyph-name="less" unicode="&#x3c;" horiz-adv-x="611" 
d="M68 391q3 5 16 11l440 193q9 4 14 4t7 -3.5t2 -11.5v-19q0 -13 -3.5 -18t-16.5 -10l-388 -168v-2l389 -169q13 -6 16 -10.5t3 -17.5v-21q0 -8 -2 -11t-6 -3q-6 0 -14 4l-440 193q-13 6 -16.5 11.5t-3.5 20.5v8q0 14 3 19z" />
    <glyph glyph-name="equal" unicode="=" horiz-adv-x="611" 
d="M72 457.5q-4 3.5 -4 16.5v15q0 13 4 16.5t17 3.5h441q12 0 16 -3.5t4 -16.5v-15q0 -13 -4 -16.5t-16 -3.5h-441q-13 0 -17 3.5zM72 226.5q-4 3.5 -4 16.5v15q0 13 4 16.5t17 3.5h441q12 0 16 -3.5t4 -16.5v-15q0 -13 -4 -16.5t-16 -3.5h-441q-13 0 -17 3.5z" />
    <glyph glyph-name="greater" unicode="&#x3e;" horiz-adv-x="611" 
d="M72 186.5q3 4.5 16 10.5l388 169v2l-387 168q-13 5 -16.5 10t-3.5 18v20q0 8 2 11.5t6 3.5q5 0 14 -4l441 -193q13 -6 16 -11.5t3 -19.5v-7q0 -15 -3.5 -20.5t-16.5 -11.5l-439 -193q-12 -5 -15 -5q-4 0 -6 3.5t-2 11.5v20q0 13 3 17.5z" />
    <glyph glyph-name="question" unicode="?" horiz-adv-x="431" 
d="M181 656q-42 -34 -57 -95q-3 -14 -14 -14l-13 2l-18 3q-8 1 -10.5 5t-2.5 11q2 19 12.5 46t26.5 47q30 40 75 63t113 23q80 0 122 -39t42 -108q0 -65 -35.5 -121t-114.5 -110q-55 -37 -81.5 -75.5t-35.5 -90.5l-3 -18q-2 -9 -5 -11.5t-11 -2.5h-28q-8 0 -11 2t-3 8
q4 71 40 130.5t93 96.5q135 85 135 190q0 45 -28 68.5t-83 23.5q-63 0 -105 -34zM88.5 2.5q-4.5 2.5 -4.5 8.5q0 5 3 17l11 54q3 14 8 18t19 4h33q13 0 17.5 -2t4.5 -8q0 -4 -2 -14l-12 -59q-3 -13 -8 -17t-19 -4h-34q-12 0 -16.5 2.5z" />
    <glyph glyph-name="at" unicode="@" horiz-adv-x="963" 
d="M356 46q-35 0 -63.5 14t-46 44.5t-17.5 77.5q0 18 1.5 35.5t8.5 43.5q16 68 59 124.5t110 90.5t153 34q63 0 116 -8q31 -5 31 -14q0 -10 -13 -39l-77 -187q-38 -86 -38 -119q0 -43 47 -43q64 0 119.5 51.5t88 133t32.5 165.5q0 65 -26 118.5t-88.5 87t-167.5 33.5
q-151 0 -268.5 -73.5t-182 -191t-64.5 -245.5q0 -147 77.5 -229t235.5 -82q144 0 260 57q10 4 15 4t11 -14t6 -25q-1 -7 -3.5 -10.5t-11.5 -7.5q-58 -29 -130 -44.5t-164 -15.5q-101 0 -181 37.5t-127 118t-47 204.5q0 159 75.5 290t207.5 207t294 76q108 0 184 -36
t115 -101t39 -151q0 -102 -41 -197t-111 -154.5t-153 -59.5q-48 0 -72.5 24t-23.5 63h-2q-71 -87 -167 -87zM540 223q11 21 18 38l78 190q-36 5 -86 5q-74 0 -134 -35.5t-94 -95.5t-34 -129q0 -96 82 -96q38 0 77.5 22t73.5 70q8 10 19 31z" />
    <glyph glyph-name="A" unicode="A" horiz-adv-x="607" 
d="M-61 10q0 5 3.5 12t6.5 12.5t5 9.5l397 669q7 11 12.5 14.5t16.5 3.5h19q12 0 15.5 -2.5t4.5 -14.5l109 -668q5 -22 5 -32q0 -7 -5.5 -10.5t-19.5 -3.5h-16q-14 0 -18 5t-6 22l-32 203h-302l-125 -209q-7 -13 -12 -17t-17 -4h-19q-22 0 -22 10zM382 584q-5 33 -8 62h-2
q-16 -34 -35 -66l-170 -292h261z" />
    <glyph glyph-name="B" unicode="B" horiz-adv-x="635" 
d="M176.5 727q5.5 4 21.5 4h214q96 0 140 -35t44 -101q0 -76 -38 -130t-111 -75v-2q54 -13 81 -47t27 -86q0 -74 -30 -131.5t-90.5 -90.5t-147.5 -33h-242q-13 0 -18 2.5t-5 11.5q0 6 1.5 11t1.5 8l143 676q3 14 8.5 18zM452 440q42 27 61.5 66t19.5 78q0 32 -12.5 51
t-42 28.5t-80.5 9.5h-176l-55 -260h178q65 0 107 27zM404.5 84q46.5 26 67.5 70.5t21 100.5q0 49 -33 74.5t-98 25.5h-207l-63 -297h194q72 0 118.5 26z" />
    <glyph glyph-name="C" unicode="C" horiz-adv-x="595" 
d="M142 11q-52 25 -79 72.5t-27 114.5q0 57 18 142l18 84q34 163 119.5 242t222.5 79q51 0 95.5 -10.5t79.5 -28.5q11 -6 16.5 -11.5t5.5 -10.5q0 -9 -8 -21q-10 -17 -20 -17q-5 0 -19.5 7t-24.5 10q-62 24 -131 24q-76 0 -130 -28.5t-89.5 -88t-55.5 -155.5l-16 -73
q-7 -31 -12.5 -69.5t-5.5 -67.5q0 -84 45 -122.5t131 -38.5q74 0 168 44l13 6.5t12 5.5t9 2q6 0 10 -4t6 -12q4 -8 4 -23q0 -7 -9.5 -14.5t-31.5 -17.5q-41 -19 -90 -32t-98 -13q-74 0 -126 25z" />
    <glyph glyph-name="D" unicode="D" horiz-adv-x="682" 
d="M581.5 681.5q62.5 -49.5 62.5 -157.5q0 -32 -3.5 -60.5t-9.5 -64.5l-11 -53q-22 -111 -63.5 -187t-112.5 -117.5t-177 -41.5h-225q-12 0 -16.5 2.5t-4.5 9.5l2 18l144 678q3 15 8 19t22 4h201q121 0 183.5 -49.5zM402 85.5q56 27.5 94 90.5t61 170l8 34q9 45 13.5 75.5
t4.5 62.5q0 58 -20.5 91.5t-63 48.5t-109.5 15h-168l-131 -615h175q80 0 136 27.5z" />
    <glyph glyph-name="E" unicode="E" horiz-adv-x="562" 
d="M26 2.5q-5 2.5 -5 9.5q0 9 4 25l143 673q2 10 4.5 14t8 5.5t16.5 1.5h370q10 0 14 -1.5t4 -7.5l-2 -14l-3 -15q-2 -13 -6.5 -16.5t-18.5 -3.5h-333l-55 -256h238q10 0 13.5 -2t3.5 -8q0 -3 -2 -11l-4 -21q-3 -10 -7.5 -13t-16.5 -3h-237l-64 -301h348q10 0 14 -2.5
t4 -7.5l-2 -13l-4 -17q-3 -12 -7 -15t-17 -3h-384q-12 0 -17 2.5z" />
    <glyph glyph-name="F" unicode="F" horiz-adv-x="536" 
d="M24.5 2q-3.5 2 -3.5 9q0 6 4 24l142 672q4 16 9 20t22 4h363q10 0 14.5 -2t4.5 -8q0 -3 -3 -12l-4 -20q-2 -10 -7 -13t-17 -3h-327l-58 -273h239q10 0 13.5 -2t3.5 -8q0 -3 -2 -11l-4 -21q-2 -10 -7 -13t-17 -3h-238l-69 -322q-2 -13 -6 -16.5t-17 -3.5h-21
q-11 0 -14.5 2z" />
    <glyph glyph-name="G" unicode="G" horiz-adv-x="678" 
d="M243 626q-78 -61 -110 -210l-18 -87q-7 -31 -11.5 -62.5t-4.5 -51.5q0 -60 18.5 -97t63.5 -55.5t124 -18.5q33 0 65.5 6.5t53.5 13.5q28 10 39.5 20t14.5 24l51 235h-171q-10 0 -14 2t-4 9l2 12l4 16q2 12 6.5 15.5t17.5 3.5h208q12 0 16.5 -3t4.5 -9q0 -4 -1.5 -11.5
t-3.5 -15.5l-61 -283q-3 -15 -13 -26.5t-30 -21.5q-38 -21 -90 -33t-108 -12q-125 0 -190 53.5t-65 170.5q0 23 4 57t10 62l21 97q29 139 112.5 229t255.5 90q56 0 105 -9.5t87 -27.5q24 -11 22 -22q0 -8 -9 -20q-11 -15 -21 -15q-5 0 -14.5 3.5t-17.5 6.5q-74 26 -154 26
q-117 0 -195 -61z" />
    <glyph glyph-name="H" unicode="H" horiz-adv-x="708" 
d="M25 2q-4 2 -4 8q0 9 3 19l145 681q2 13 6.5 17t17.5 4h20q11 0 15.5 -1.5t4.5 -7.5q0 -4 -1 -8l-2 -8l-62 -288h392l62 294q2 12 6.5 15.5t18.5 3.5h19q11 0 15 -1.5t4 -7.5l-2 -16l-146 -686q-2 -12 -6 -16t-16 -4h-22q-10 0 -14.5 2.5t-4.5 9.5q0 4 1 8l2 8l70 332
h-391l-73 -341q-2 -12 -6.5 -15.5t-18.5 -3.5h-19q-10 0 -14 2z" />
    <glyph glyph-name="I" unicode="I" horiz-adv-x="418" 
d="M299.5 52q3.5 -2 3.5 -8t-1 -11l-3 -13q-3 -13 -7 -16.5t-16 -3.5h-291q-11 0 -14.5 1.5t-3.5 7.5t1 11l3 15q3 12 7.5 15.5t16.5 3.5h116l132 623h-117q-9 0 -12.5 2t-3.5 7q0 3 0.5 5t1.5 5l3 17q3 12 8 15t17 3h290q10 0 14 -1.5t4 -7.5q0 -3 -2 -13l-3 -13
q-3 -12 -7 -15.5t-16 -3.5h-115l-133 -623h114q10 0 13.5 -2z" />
    <glyph glyph-name="J" unicode="J" horiz-adv-x="467" 
d="M446 729q4 -2 4 -8q0 -7 -1.5 -13t-1.5 -9l-112 -528q-17 -80 -64.5 -134t-138.5 -54q-47 0 -85 22t-56 64q-13 30 -13 48q0 13 17 19q2 1 11 5t15 4q5 0 8 -6t5 -14.5t3 -12.5q12 -35 35 -53t65 -18q51 0 87.5 34t49.5 98l106 500h-146q-11 0 -15 1.5t-4 7.5q0 4 1 7
t1 6l5 18q3 12 7.5 15t16.5 3h185q11 0 15 -2z" />
    <glyph glyph-name="K" unicode="K" horiz-adv-x="584" 
d="M513 10q0 -6 -5 -8t-17 -2h-19q-12 0 -18 3t-12 12l-246 330q-5 8 -12 11t-19 3h-11l-71 -338q-3 -13 -8 -17t-17 -4h-19q-10 0 -14 2.5t-4 7.5q0 4 2 14l145 686q2 13 7 17t17 4h20q10 0 14.5 -2.5t3.5 -8.5l-1 -10l-62 -293h9q10 0 17 3.5t17 11.5l333 282
q10 10 17.5 13.5t19.5 3.5h31q12 0 17 -1.5t5 -7.5q0 -5 -6.5 -11.5t-19.5 -16.5l-367 -308l260 -347q13 -18 13 -29z" />
    <glyph glyph-name="L" unicode="L" horiz-adv-x="525" 
d="M25.5 2.5q-4.5 2.5 -4.5 10.5q0 7 1.5 13t1.5 9l143 675q3 13 7.5 17t17.5 4h20q11 0 14.5 -2t3.5 -9l-2 -15l-137 -647h329q11 0 15 -2t4 -7l-2 -12l-4 -18q-3 -12 -7.5 -15.5t-17.5 -3.5h-364q-14 0 -18.5 2.5z" />
    <glyph glyph-name="M" unicode="M" horiz-adv-x="801" 
d="M25 2q-4 2 -4 8q0 4 2 14l145 687q3 13 7.5 16.5t17.5 3.5h22q11 0 15.5 -3.5t8.5 -15.5l121 -445q5 -18 7 -34h2l31 49l308 432q8 11 13.5 14t16.5 3h24q9 0 12.5 -2t3.5 -7q0 -1 -2 -15l-146 -687q-2 -12 -7 -16t-18 -4h-19q-10 0 -14.5 2.5t-4.5 8.5l3 15l105 496
q4 19 12 47.5t13 44.5h-3q-27 -48 -52 -83l-251 -351q-9 -11 -14 -15t-15 -4h-16q-11 0 -15.5 3.5t-6.5 14.5l-100 365q-9 33 -18 81h-2q-3 -32 -15 -89l-110 -516q-2 -13 -6.5 -16.5t-17.5 -3.5h-20q-9 0 -13 2z" />
    <glyph glyph-name="N" unicode="N" horiz-adv-x="707" 
d="M24.5 2q-3.5 2 -3.5 8l2 16l145 685q3 13 7 16.5t16 3.5h24q11 0 15.5 -3t9.5 -12l234 -572q12 -30 18 -55h2q2 18 10 59l119 564q3 12 8 15.5t18 3.5h17q11 0 15 -2t4 -8q0 -5 -4 -17l-144 -684q-3 -13 -7 -16.5t-16 -3.5h-24q-11 0 -16 3t-10 13l-226 553
q-2 6 -12 30.5t-14 42.5h-2q-2 -18 -6.5 -42.5t-10.5 -51.5l-112 -528q-2 -13 -6.5 -16.5t-18.5 -3.5h-17q-11 0 -14.5 2z" />
    <glyph glyph-name="O" unicode="O" horiz-adv-x="697" 
d="M183 659q80 86 225 86h20q72 0 124 -26t80 -75t28 -116q0 -57 -17 -132l-16 -79q-33 -158 -113.5 -244.5t-224.5 -86.5h-21q-71 0 -123.5 26.5t-80 75t-27.5 115.5q0 33 4 63t12 70l17 79q33 158 113 244zM592 458.5q5 35.5 5 62.5q0 83 -45.5 124.5t-134.5 41.5h-10
q-75 0 -128.5 -28.5t-89 -88.5t-56.5 -157l-16 -71q-7 -31 -12.5 -68.5t-5.5 -63.5q0 -83 46 -124.5t134 -41.5h11q74 0 127.5 28.5t90 89t56.5 156.5l15 71q8 34 13 69.5z" />
    <glyph glyph-name="P" unicode="P" horiz-adv-x="626" 
d="M27 2.5q-4 2.5 -4 9.5q0 4 1 8.5t2 8.5l144 680q2 14 7 18t20 4h214q107 0 156 -42.5t49 -116.5q0 -68 -26.5 -127.5t-91.5 -98.5t-173 -39h-179l-60 -286q-3 -13 -7.5 -17t-17.5 -4h-20q-10 0 -14 2.5zM462.5 394q48.5 29 69.5 75t21 98q0 37 -14 60t-47.5 34.5
t-92.5 11.5h-175l-65 -308h176q79 0 127.5 29z" />
    <glyph glyph-name="Q" unicode="Q" horiz-adv-x="697" 
d="M183 659q80 86 225 86h20q72 0 124 -26t80 -75t28 -116q0 -31 -5 -63.5t-12 -68.5l-16 -79q-29 -140 -94 -220q4 -4 20.5 -21t30.5 -26q12 -8 19 -14t7 -11t-5 -13l-8 -14q-4 -6 -7.5 -8.5t-8.5 -2.5q-13 0 -39 21q-21 17 -48 46q-80 -68 -205 -68h-21q-71 0 -123.5 26.5
t-80 75t-27.5 115.5q0 33 4 63t12 70l17 79q33 158 113 244zM597 521q0 83 -45.5 124.5t-134.5 41.5h-10q-75 0 -128.5 -28.5t-89 -88.5t-56.5 -157l-16 -71q-7 -31 -12.5 -68.5t-5.5 -63.5q0 -83 46 -124.5t134 -41.5h11q101 0 164 53l-132 167q-4 5 -7 9.5t-3 9.5
q0 9 13 17l11 8q3 3 6.5 4t7.5 1q5 0 9 -3.5t8 -9.5l126 -156q28 36 43.5 78.5t27.5 95.5l15 71q18 79 18 132z" />
    <glyph glyph-name="R" unicode="R" horiz-adv-x="644" 
d="M527.5 25.5q5.5 -10.5 5.5 -15.5q0 -6 -4.5 -8t-12.5 -2h-25q-12 0 -17 2.5t-10 12.5l-138 267q-7 12 -15.5 17t-24.5 5h-142l-60 -283q-2 -14 -6 -17.5t-16 -3.5h-26q-9 0 -12 1.5t-3 7.5q0 8 3 18l144 680q3 16 8 20t19 4h209q85 0 133.5 -21t68 -58.5t19.5 -91.5
q0 -71 -28 -125t-83 -87t-133 -39l139 -269q2 -4 7.5 -14.5zM468.5 390.5q49.5 28.5 71.5 72.5t22 94q0 42 -14.5 66.5t-50.5 37t-102 12.5h-173l-65 -311h184q78 0 127.5 28.5z" />
    <glyph glyph-name="S" unicode="S" horiz-adv-x="594" 
d="M477 101.5q-34 -55.5 -96 -85t-144 -29.5q-61 0 -118 14t-95 40q-16 9 -22 14t-6 11q0 5 3 11t7 11q11 16 20 16q4 0 8 -2t8.5 -5t10.5 -6q39 -22 84 -34t102 -12q73 0 120 25t69 65.5t22 88.5q0 36 -14 61t-49.5 43t-100.5 31q-62 13 -102.5 32.5t-62 52t-21.5 82.5
q0 53 23.5 97t70.5 76q34 22 78.5 34t97.5 12q52 0 101 -9.5t86 -23.5q8 -4 11.5 -8t3.5 -10q0 -10 -9 -24q-7 -14 -18 -14q-5 0 -22 5.5t-25 7.5q-63 18 -132 18q-66 0 -112 -22t-69 -57.5t-23 -73.5q0 -35 14 -56.5t44.5 -35t85.5 -24.5q66 -13 110.5 -34t69.5 -58t25 -94
q0 -75 -34 -130.5z" />
    <glyph glyph-name="T" unicode="T" horiz-adv-x="552" 
d="M595 676.5q-5 -3.5 -18 -3.5h-210l-138 -652q-3 -13 -7.5 -17t-17.5 -4h-19q-11 0 -15 2t-4 8q0 3 3 19l137 644h-209q-10 0 -14 1.5t-4 7.5l2 12l4 19q2 11 7 14.5t18 3.5h480q10 0 14 -2t4 -8l-2 -12l-4 -18q-2 -11 -7 -14.5z" />
    <glyph glyph-name="U" unicode="U" horiz-adv-x="690" 
d="M480.5 60q-72.5 -74 -206.5 -74h-4q-109 0 -162 51t-53 143q0 31 12 95l93 435q2 13 6.5 17t18.5 4h19q11 0 15 -2t4 -7q0 -3 -3 -17l-92 -427l-4.5 -22.5t-5.5 -36t-2 -37.5q0 -71 41 -104.5t123 -33.5q94 0 155.5 53.5t85.5 167.5l94 445q2 13 6.5 17t18.5 4h19
q11 0 15 -1.5t4 -7.5l-2 -17l-97 -453q-26 -118 -98.5 -192z" />
    <glyph glyph-name="V" unicode="V" horiz-adv-x="593" 
d="M230 108q0 -11 2 -29h2q19 40 28 55l328 577q8 13 13 16.5t17 3.5h17q12 0 17 -2t5 -8q0 -4 -3.5 -12.5t-8.5 -16.5l-387 -675q-7 -12 -11 -14.5t-16 -2.5h-27q-13 0 -16 3t-5 16l-102 677q-3 15 -3 20q0 8 5 11.5t20 3.5h16q12 0 16 -3t5 -16l85 -574z" />
    <glyph glyph-name="W" unicode="W" horiz-adv-x="818" 
d="M523.5 148q0.5 -24 0.5 -50h3q7 23 20.5 56t23.5 54l219 504q6 13 11 16t18 3h25q9 0 12 -1.5t3 -5.5q0 -6 -3 -12l-307 -692q-6 -13 -10.5 -16.5t-16.5 -3.5h-20q-13 0 -17 3.5t-5 16.5l-37 430q-2 24 -2 44q0 8 -0.5 27.5t0.5 29.5h-3q-14 -46 -39 -98l-210 -432
q-6 -14 -11 -17.5t-18 -3.5h-18q-13 0 -17 3.5t-5 16.5l-13 692q0 12 3.5 15.5t16.5 3.5h21q13 0 16.5 -3.5t3.5 -15.5l10 -544q0 -22 -4 -68h3q16 45 33 82l208 435q7 13 11.5 16.5t16.5 3.5h18q12 0 16 -4.5t5 -15.5l36 -420q2 -25 2.5 -49z" />
    <glyph glyph-name="X" unicode="X" horiz-adv-x="613" 
d="M3 3.5q-5 -3.5 -14 -3.5h-33q-9 0 -13 2t-4 7q-1 5 6 13t16 18l310 349l-149 309q-8 14 -8 22q0 6 5 8.5t16 2.5h22q9 0 13.5 -4t10.5 -15l133 -276l246 277q9 11 15 14.5t15 3.5h30q10 0 14.5 -2t4.5 -6q0 -7 -19 -28l-279 -314l165 -344q10 -20 10 -26t-5 -8.5
t-16 -2.5h-22q-10 0 -14 3.5t-11 15.5l-151 314l-279 -315q-10 -11 -15 -14.5z" />
    <glyph glyph-name="Y" unicode="Y" horiz-adv-x="536" 
d="M80 718q0 7 5 10t15 3h20q10 0 15.5 -3.5t8.5 -13.5l87 -298q16 -53 23 -88h2q24 38 63 94l208 292q7 9 13.5 13t16.5 4h27q9 0 13.5 -2t4.5 -6q0 -5 -6 -14t-13 -19l-296 -405q-6 -7 -8 -12.5t-4 -14.5l-51 -239q-3 -11 -7.5 -15t-16.5 -4h-21q-10 0 -14 2t-4 8
q0 7 4 21l48 225q1 5 1 13q0 11 -3 16l-124 407q-7 18 -7 26z" />
    <glyph glyph-name="Z" unicode="Z" horiz-adv-x="556" 
d="M122 675q-4 2 -4 8l2 10l4 20q3 11 7.5 14.5t17.5 3.5h420q11 0 15 -1.5t4 -7.5l-2 -13l-3 -15q-1 -8 -5.5 -15.5t-13.5 -17.5l-521 -601l-1 -2h394q10 0 13.5 -1.5t3.5 -7.5l-2 -12l-4 -19q-2 -11 -6 -14.5t-17 -3.5h-452q-11 0 -15 2t-4 8t1 10l4 16q2 11 6 18t13 17
l520 600v2h-360q-11 0 -15 2z" />
    <glyph glyph-name="bracketleft" unicode="[" horiz-adv-x="354" 
d="M15 -189.5q-5 2.5 -5 9.5q0 4 4 22l204 957q2 12 5 17.5t9 7.5t18 2h168q12 0 16 -2t4 -8l-2 -12l-3 -15q-2 -11 -7 -14.5t-20 -3.5h-135l-192 -908h135q10 0 14.5 -2t4.5 -8q0 -1 -2 -11l-3 -15q-2 -13 -6.5 -16t-19.5 -3h-169q-13 0 -18 2.5z" />
    <glyph glyph-name="backslash" unicode="\" horiz-adv-x="427" 
d="M95 738q1 6 5.5 9t16.5 3h10q10 0 14 -1.5t6.5 -6t5.5 -14.5l174 -702q5 -22 5 -28q0 -8 -5 -10.5t-16 -2.5h-9q-15 0 -19.5 3.5t-7.5 16.5l-175 707q-5 19 -5 26z" />
    <glyph glyph-name="bracketright" unicode="]" horiz-adv-x="354" 
d="M99.5 773.5q-4.5 2.5 -4.5 8.5t1 10l3 15q2 12 7 15.5t19 3.5h169q13 0 18 -2.5t5 -9.5q0 -10 -4 -22l-203 -957q-3 -12 -6 -17.5t-8.5 -7.5t-17.5 -2h-169q-11 0 -15.5 2t-4.5 8l2 12l4 14q2 13 7 16t20 3h134l193 908h-135q-10 0 -14.5 2.5z" />
    <glyph glyph-name="asciicircum" unicode="^" horiz-adv-x="611" 
d="M484.5 353.5q-5.5 3.5 -12.5 16.5l-162 310h-2l-162 -309q-6 -13 -11.5 -17t-17.5 -4h-11q-11 0 -17 3t-6 10q0 9 12 30l176 332q6 13 12 16.5t19 3.5h13q12 0 18.5 -3.5t12.5 -16.5l177 -333q12 -21 12 -31q0 -5 -4.5 -8t-15.5 -3h-12q-13 0 -18.5 3.5z" />
    <glyph glyph-name="underscore" unicode="_" horiz-adv-x="500" 
d="M398 -98.5q-2 -3.5 -6.5 -5t-14.5 -1.5h-457q-11 0 -14.5 1.5t-3.5 6.5q0 6 1 10l4 16q2 7 4 10.5t7 4.5t13 1h457q11 0 15 -1.5t4 -6.5t-1 -9l-3 -13q-3 -10 -5 -13.5z" />
    <glyph glyph-name="grave" unicode="`" horiz-adv-x="412" 
d="M137 783q-5 8 -5 13q0 7 6 10.5t18 3.5h23q11 0 16 -4.5t15 -20.5l76 -131q8 -16 8 -23q0 -5 -4.5 -8t-12.5 -3h-5q-7 0 -12.5 4.5t-13.5 14.5l-96 126q-8 10 -13 18z" />
    <glyph glyph-name="a" unicode="a" horiz-adv-x="531" 
d="M398 426q0 43 -26 64t-87 21q-33 0 -64 -5.5t-68 -18.5q-22 -8 -29 -8q-11 0 -14 17q-3 12 -3 20t9.5 13.5t34.5 14.5q66 21 141 21q89 0 126.5 -35t37.5 -97q0 -17 -2.5 -36t-6.5 -39l-39 -184q-11 -49 -11 -79q0 -35 9 -56q2 -3 5.5 -10t3.5 -11q0 -5 -3 -7.5t-9 -5.5
l-17 -9q-2 -1 -7.5 -3.5t-9.5 -2.5q-10 0 -19 22.5t-11 49.5q0 14 1 22h-2q-40 -46 -86 -70.5t-110 -24.5q-44 0 -76.5 17t-49.5 47.5t-17 70.5q0 106 87 159t245 53h53l7 38q7 32 7 52zM134.5 247.5q-74.5 -36.5 -74.5 -117.5q0 -43 25.5 -65t74.5 -22q44 0 84 19t71 60.5
t45 106.5l13 55h-36q-128 0 -202.5 -36.5z" />
    <glyph glyph-name="b" unicode="b" horiz-adv-x="569" 
d="M468 518q40 -46 40 -130q0 -26 -4.5 -61t-11.5 -68q-57 -270 -288 -270q-43 0 -85.5 4.5t-71.5 12.5q-30 8 -30 18q0 4 2.5 16t3.5 17l6 29l133 629q2 14 6.5 18t17.5 4h19q9 0 13 -2t4 -8q0 -4 -0.5 -8t-1.5 -8l-47 -229h1q36 38 81.5 60t95.5 22q77 0 117 -46z
M349.5 97.5q56.5 54.5 82.5 170.5q16 77 16 116q0 64 -28.5 95t-79.5 31q-48 0 -94 -28t-77 -70q-8 -10 -12.5 -21t-8.5 -29l-54 -253q-2 -14 -4.5 -26t-3.5 -19q0 -3 4.5 -5.5t11.5 -4.5q17 -5 46.5 -8t58.5 -3q86 0 142.5 54.5z" />
    <glyph glyph-name="c" unicode="c" horiz-adv-x="484" 
d="M66.5 32q-47.5 43 -47.5 124q0 37 11 92l18 85q25 116 87.5 173.5t164.5 57.5q85 0 144 -39q19 -12 19 -23q-1 -6 -4.5 -11t-7.5 -10t-8.5 -9t-7.5 -4q-4 0 -9 2.5t-11 6.5t-13 8q-23 13 -47.5 19t-56.5 6q-73 0 -121 -44t-71 -151l-13 -63q-7 -30 -10 -49t-3 -41
q0 -62 31.5 -90t94.5 -28q26 0 51 6t54 19q13 6 23 11.5t20 11.5t15 6q8 0 16 -14q6 -12 6 -20q0 -6 -5.5 -12t-16.5 -14q-33 -22 -77.5 -35.5t-91.5 -13.5q-86 0 -133.5 43z" />
    <glyph glyph-name="d" unicode="d" horiz-adv-x="571" 
d="M407 41.5q-4 -7.5 -11 -12t-17 -8.5q-30 -13 -75 -22.5t-91 -9.5q-87 0 -140.5 42.5t-53.5 130.5q0 42 10 84l16 80q25 116 90.5 177.5t164.5 61.5q49 0 86.5 -15.5t59.5 -41.5h2l45 208q2 14 6.5 17.5t18.5 3.5h18q10 0 14 -2t4 -8q0 -3 -4 -22l-136 -640
q-3 -16 -7 -23.5zM428 429q0 16 -7.5 30t-22.5 25q-16 12 -41 19t-56 7q-75 0 -126.5 -50.5t-72.5 -155.5l-12 -60q-10 -46 -10 -77q0 -64 34.5 -93.5t101.5 -29.5q32 0 61.5 6t52.5 15q17 7 22.5 13t8.5 20l60 281q7 35 7 50z" />
    <glyph glyph-name="e" unicode="e" horiz-adv-x="536" 
d="M439.5 526q44.5 -39 44.5 -111q0 -33 -10 -78l-7 -37q-3 -13 -6 -19t-9 -8t-17 -2h-338l-7 -32q-10 -43 -10 -76q0 -58 37 -88.5t105 -30.5q73 0 143 34q5 2 15 7t16 5q5 0 8.5 -3.5t6.5 -11.5q5 -12 5 -20q-1 -7 -6 -12t-16 -11q-33 -19 -79.5 -31t-101.5 -12
q-64 0 -107.5 21.5t-65 60t-21.5 90.5q0 34 10 84l18 80q16 74 51.5 128t88.5 83t120 29q88 0 132.5 -39zM182 463q-49 -47 -71 -130l-2 -8h301l7 33q3 12 5 28t2 29q0 95 -119 95q-74 0 -123 -47z" />
    <glyph glyph-name="f" unicode="f" horiz-adv-x="324" 
d="M69.5 4q-4.5 -4 -15.5 -4h-20q-11 0 -14.5 2t-3.5 8t2 18l97 460h-46q-10 0 -14 2.5t-4 7.5l1 7l1 5q2 8 10.5 12t28.5 7q33 6 39 32l9 41q13 56 34.5 88t53 46t75.5 14q48 0 94 -19q19 -9 19 -19q0 -9 -7 -21q-9 -15 -17 -15q-5 0 -12 2.5t-10 3.5q-31 14 -69 14
q-44 0 -68 -23.5t-35 -76.5l-12 -54h151q11 0 15.5 -2.5t4.5 -8.5q0 -2 -3 -16l-2 -10q-3 -11 -7.5 -14t-16.5 -3h-154l-98 -467q-2 -13 -6.5 -17z" />
    <glyph glyph-name="g" unicode="g" horiz-adv-x="572" 
d="M285.5 42.5q-42.5 -19.5 -92.5 -19.5q-80 0 -122.5 48t-42.5 132q0 55 22 136q27 108 99.5 167t185.5 59q41 0 81.5 -4.5t66.5 -12.5q30 -8 30 -17q0 -5 -1.5 -13t-2.5 -11l-83 -394q-22 -108 -50.5 -174.5t-83.5 -104.5t-148 -38q-36 0 -72.5 9.5t-65.5 22.5
q-13 7 -19 12.5t-6 10.5q0 9 9 23q7 14 16 14t28 -9q23 -11 55 -19.5t63 -8.5q66 0 106 28t61.5 75.5t38.5 121.5l3 16h-2q-31 -30 -73.5 -49.5zM445 490q0 6 -21 12q-42 8 -87 8q-90 0 -151 -48t-82 -155q-7 -30 -11 -54t-4 -51q0 -60 28.5 -92.5t85.5 -32.5q51 0 85 19
t61 47q18 18 26 35t12 35l54 250q4 18 4 27z" />
    <glyph glyph-name="h" unicode="h" horiz-adv-x="586" 
d="M272 545.5q50 19.5 99 19.5q72 0 105 -33.5t33 -84.5q0 -23 -3 -44.5t-8 -45.5l-71 -336q-3 -14 -7 -17.5t-16 -3.5h-20q-11 0 -14.5 2t-3.5 8q0 5 2 17l72 338q4 18 7 37t3 32q0 38 -21.5 57t-68.5 19q-42 0 -90.5 -20.5t-91.5 -53.5q-9 -7 -13.5 -14t-7.5 -19l-81 -382
q-3 -13 -7 -17t-16 -4h-22q-9 0 -13 2t-4 8q0 5 1 9.5t2 9.5l146 687q3 13 7.5 17t16.5 4h20q10 0 13.5 -2t3.5 -8l-2 -15l-46 -218h1q45 32 95 51.5z" />
    <glyph glyph-name="i" unicode="i" horiz-adv-x="240" 
d="M148.5 642.5q-4.5 2.5 -4.5 8.5l2 15l11 50q3 14 7.5 17.5t18.5 3.5h26q11 0 15 -2t4 -8l-2 -13l-11 -53q-3 -13 -8 -17t-19 -4h-24q-11 0 -15.5 2.5zM18.5 2q-4.5 2 -4.5 8q0 4 1.5 9.5t2.5 10.5l106 503q3 13 7.5 16.5t17.5 3.5h19q10 0 13.5 -2t3.5 -8l-2 -15
l-107 -507q-3 -13 -7.5 -17t-17.5 -4h-19q-9 0 -13.5 2z" />
    <glyph glyph-name="j" unicode="j" horiz-adv-x="240" 
d="M147.5 642q-4.5 2 -4.5 9q0 5 3 15l11 50q2 10 4 14t7 5.5t15 1.5h26q11 0 15 -2t4 -8l-2 -13l-11 -53q-4 -14 -8.5 -17.5t-19.5 -3.5h-23q-12 0 -16.5 2zM10 -170.5q-31 -34.5 -94 -34.5q-20 0 -39.5 5t-34.5 13q-6 3 -8 6.5t-2 7.5q0 6 3.5 12.5t4.5 8.5q4 6 8.5 10.5
t8.5 4.5t14.5 -3.5t22.5 -6.5t27 -3q32 0 48.5 20t24.5 56l129 607q3 13 7.5 16.5t17.5 3.5h19q10 0 13.5 -2t3.5 -8l-2 -15l-128 -600q-13 -64 -44 -98.5z" />
    <glyph glyph-name="k" unicode="k" horiz-adv-x="499" 
d="M420.5 19.5q3.5 -5.5 3.5 -9.5q0 -10 -19 -10h-18q-15 0 -21.5 3.5t-15.5 16.5l-176 229q-16 24 -34 25h-11l-53 -251q-4 -15 -8.5 -19t-16.5 -4h-20q-9 0 -13 2.5t-4 8.5l2 14l147 691q3 13 7.5 17t17.5 4h18q11 0 14.5 -2t3.5 -9l-2 -16l-81 -383h3q12 0 33 19l251 193
q9 7 17 10.5t20 3.5h29q10 0 15 -1.5t5 -6.5q0 -4 -7.5 -11t-19.5 -17l-284 -214l208 -269q6 -9 9.5 -14.5z" />
    <glyph glyph-name="l" unicode="l" horiz-adv-x="271" 
d="M91 97q0 -26 12 -37.5t37 -11.5q13 0 26 3t23.5 6.5t13.5 3.5q5 0 7.5 -3.5t3.5 -11.5q1 -3 2.5 -11t1.5 -12q0 -6 -5.5 -10.5t-17.5 -8.5q-32 -12 -65 -12q-47 0 -73 25.5t-26 71.5q0 18 2.5 36.5t6.5 36.5l118 554q3 13 7.5 17t17.5 4h19q10 0 13.5 -2t3.5 -8
q0 -7 -2 -14l-121 -569q-5 -27 -5 -47z" />
    <glyph glyph-name="m" unicode="m" horiz-adv-x="890" 
d="M131 549.5q4 3.5 16 3.5h9q11 0 14.5 -3.5t3.5 -16.5l-3 -42h2q93 74 182 74q52 0 84 -22t42 -64q57 43 103.5 64.5t101.5 21.5q44 0 73 -16.5t42 -44t13 -59.5q0 -20 -3 -39t-5.5 -31t-3.5 -18l-71 -336q-3 -14 -7 -17.5t-16 -3.5h-20q-11 0 -14.5 2t-3.5 8q0 7 3 17
l71 338q10 41 11 69q0 38 -20 57t-63 19q-40 0 -84 -20.5t-83 -53.5q-9 -6 -13 -13t-7 -20l-81 -382q-3 -13 -7.5 -17t-16.5 -4h-19q-11 0 -15 2t-4 8q0 5 1 9.5t2 7.5l72 338q1 7 3.5 19.5t4.5 26.5t2 26q0 34 -19.5 53.5t-64.5 19.5q-39 0 -82 -20t-85 -54q-8 -6 -12 -13
t-7 -20l-81 -382q-3 -13 -7.5 -17t-15.5 -4h-23q-9 0 -12.5 2t-3.5 8q0 7 1.5 11.5t1.5 7.5l107 503q3 14 7 17.5z" />
    <glyph glyph-name="n" unicode="n" horiz-adv-x="586" 
d="M131 549.5q4 3.5 16 3.5h9q11 0 14.5 -3.5t3.5 -16.5l-3 -42h2q47 34 97.5 54t100.5 20q71 0 104.5 -34t33.5 -86q0 -22 -3 -43t-8 -45l-71 -336q-4 -14 -7.5 -17.5t-15.5 -3.5h-20q-11 0 -14.5 2t-3.5 8q0 7 2 17l72 338q4 18 7 37t3 32q0 38 -21.5 57t-68.5 19
q-42 0 -90.5 -20.5t-91.5 -53.5q-9 -6 -14 -13.5t-7 -19.5l-81 -382q-3 -13 -7 -17t-16 -4h-23q-9 0 -12.5 2t-3.5 8q0 5 1 9.5t2 9.5l107 503q3 14 7 17.5z" />
    <glyph glyph-name="o" unicode="o" horiz-adv-x="555" 
d="M133.5 502.5q62.5 62.5 173.5 62.5h8q92 0 137.5 -44.5t45.5 -119.5q0 -23 -3 -47.5t-10 -58.5l-14 -63q-25 -120 -87.5 -181.5t-172.5 -61.5h-9q-92 0 -137.5 45t-45.5 123q0 44 12 93l15 72q25 118 87.5 180.5zM434 352q3 24 3 43q0 58 -30.5 86.5t-95.5 28.5h-9
q-87 0 -132.5 -54t-66.5 -152l-10 -51q-13 -56 -13 -96q0 -56 31 -84.5t96 -28.5h7q88 0 134 54t66 152l12 57q5 21 8 45z" />
    <glyph glyph-name="p" unicode="p" horiz-adv-x="568" 
d="M122.5 508q5.5 6 19.5 13q40 22 91 33t95 11q92 0 137 -44t45 -120q0 -45 -11 -96l-13 -63q-15 -76 -50 -133t-86.5 -88t-114.5 -31q-52 0 -89 20.5t-58 58.5h-2l-51 -240q-2 -13 -7 -17t-19 -4h-17q-9 0 -13 2t-4 8q0 10 5 30l134 638q3 16 8.5 22zM111.5 188.5
q-2.5 -14.5 -2.5 -27.5q0 -33 15.5 -59.5t43.5 -42t64 -15.5q81 0 129 59t68 155l10 51q5 20 7.5 42.5t2.5 40.5q0 57 -27.5 87.5t-96.5 30.5q-40 0 -70 -7.5t-59 -20.5q-13 -5 -19 -10t-8 -14l-52 -241q-3 -14 -5.5 -28.5z" />
    <glyph glyph-name="q" unicode="q" horiz-adv-x="573" 
d="M359.5 -188q-4.5 -4 -18.5 -4h-16q-11 0 -15.5 2t-4.5 8q0 3 2 11l50 232h-2q-36 -32 -75.5 -52t-96.5 -20q-78 0 -119 47t-41 139q0 29 7 68.5t20 95.5q25 109 96.5 167.5t192.5 58.5q42 0 82 -5.5t71 -15.5q10 -5 15 -9t5 -10q0 -5 -4 -29l-141 -667q-3 -13 -7.5 -17z
M444 486q0 6 -3.5 9.5t-11.5 5.5q-16 4 -42.5 6.5t-54.5 2.5q-86 0 -144 -45t-80 -143q-10 -44 -17.5 -82t-7.5 -66q0 -130 114 -130q44 0 77.5 16t62.5 45q33 33 44 78l59 275q4 17 4 28z" />
    <glyph glyph-name="r" unicode="r" horiz-adv-x="383" 
d="M248.5 497q-24.5 -11 -46.5 -34q-23 -24 -38 -59t-26 -87l-63 -296q-2 -13 -7 -17t-16 -4h-20q-10 0 -14 2t-4 8t3 16l107 506q3 14 7 17.5t16 3.5h9q11 0 14 -3t4 -15l-2 -42h1q57 72 143 72q24 0 47.5 -5.5t40.5 -15.5q13 -6 13 -16q0 -8 -9 -24q-10 -18 -19 -18
q-4 0 -13 3.5t-11 4.5q-33 14 -63 14q-29 0 -53.5 -11z" />
    <glyph glyph-name="s" unicode="s" horiz-adv-x="466" 
d="M-6.5 34q-9.5 6 -9.5 13q0 4 3 10t4 9q11 17 19 17q4 0 8.5 -2t8 -4t6.5 -3q60 -26 132 -26q55 0 93.5 20.5t57.5 51.5t19 62q0 28 -12.5 45t-39.5 26.5t-76 16.5q-82 13 -118 43.5t-36 82.5q0 48 25 86t75.5 60.5t122.5 22.5q70 0 131 -22q27 -9 27 -21q0 -4 -2.5 -9.5
t-6.5 -11.5q-10 -15 -19 -15q-3 0 -11 3l-16 6q-22 7 -49 11.5t-56 4.5q-47 0 -83 -12.5t-56.5 -37t-20.5 -59.5q0 -25 12 -39.5t39 -23.5t77 -17q62 -10 95.5 -30t45.5 -45.5t12 -59.5q0 -49 -27 -94t-79 -72.5t-123 -27.5q-82 0 -140 25q-23 10 -32.5 16z" />
    <glyph glyph-name="t" unicode="t" horiz-adv-x="342" 
d="M153.5 687q3.5 4 11.5 8l19 8q10 5 19 5q5 0 7.5 -2t2.5 -6t-1 -8l-2 -8l-31 -142h150q13 0 17.5 -2t4.5 -8l-2 -13l-3 -13q-2 -12 -7.5 -15.5t-21.5 -3.5h-150l-70 -333q-7 -31 -7 -51q0 -29 16 -43.5t46 -14.5q21 0 39 4t37 10q3 1 11 3.5t12 2.5q10 0 12 -15
q3 -16 3 -21t-3 -9t-10 -8q-20 -9 -49 -15t-58 -6q-57 0 -86 28t-29 76q0 16 2.5 32.5t4.5 26.5l3 15l67 318h-45q-17 0 -17 10q0 4 1 7l1 6q2 9 10 12.5t29 6.5q18 3 26.5 12t11.5 23l24 109q1 10 4.5 14z" />
    <glyph glyph-name="u" unicode="u" horiz-adv-x="584" 
d="M412.5 3.5q-3.5 -3.5 -15.5 -3.5h-9q-12 0 -15.5 3.5t-3.5 16.5l2 40h-2q-99 -72 -198 -72q-68 0 -103.5 32.5t-35.5 91.5q0 30 10 76l74 344q3 14 7.5 17.5t18.5 3.5h18q10 0 13.5 -2t3.5 -8l-2 -14l-73 -339q-5 -19 -8 -39t-3 -30q0 -38 21.5 -58t70.5 -20
q42 0 91 19.5t91 51.5q10 7 14.5 14.5t6.5 18.5l82 385q3 13 7.5 17t18.5 4h19q9 0 12.5 -2t3.5 -8q0 -7 -2 -14l-108 -508q-3 -14 -6.5 -17.5z" />
    <glyph glyph-name="v" unicode="v" horiz-adv-x="468" 
d="M130.5 4q-4.5 4 -6.5 15l-73 478q-6 32 -6 42q0 8 4.5 11t16.5 3h17q11 0 15.5 -3t5.5 -13l57 -379q7 -40 8 -69h2q8 17 21.5 42.5t17.5 33.5l208 367q7 13 13 17t20 4h22q9 0 12 -2t3 -6q0 -7 -20 -39l-281 -488q-6 -11 -11.5 -14.5t-17.5 -3.5h-11q-12 0 -16.5 4z" />
    <glyph glyph-name="w" unicode="w" horiz-adv-x="744" 
d="M98 4q-4 4 -5 17l-34 479q-1 14 -2 24t-1 16q0 7 4.5 10t16.5 3h19q11 0 15 -4t5 -18l22 -332q4 -58 4 -116h1l18 39q9 21 36 77l167 335q7 12 12.5 15.5t15.5 3.5h24q14 0 18.5 -3t5.5 -14l24 -349q0 -10 1.5 -29.5t1.5 -38.5q0 -23 -1 -36h2q28 65 50 110l168 340
q6 13 11 16.5t18 3.5h21q9 0 12.5 -1.5t3.5 -6.5q0 -7 -11 -27l-248 -497q-6 -13 -11 -17t-16 -4h-23q-12 0 -16.5 4t-5.5 16l-27 402q-2 43 -1 63h-2q-15 -39 -29 -65l-196 -399q-7 -13 -12 -17t-17 -4h-22q-13 0 -17 4z" />
    <glyph glyph-name="x" unicode="x" horiz-adv-x="475" 
d="M82 520q-7 16 -7 23q0 5 4.5 7.5t14.5 2.5h19q12 0 16.5 -2.5t8.5 -12.5l74 -165q9 -19 14 -37h2q9 12 17 21.5t14 16.5l142 164q8 10 13.5 12.5t17.5 2.5h27q10 0 13.5 -2t3.5 -6q0 -5 -14 -22l-208 -239l111 -244q5 -9 8.5 -18t3.5 -13q0 -5 -4.5 -7t-15.5 -2h-20
q-13 0 -17.5 2.5t-8.5 12.5l-80 181q-10 21 -17 43h-2l-31 -38l-159 -184q-9 -11 -14.5 -14t-18.5 -3h-24q-11 0 -14.5 2t-3.5 7q0 4 6 12.5t11 14t7 7.5l216 248z" />
    <glyph glyph-name="y" unicode="y" horiz-adv-x="477" 
d="M-43.5 -199q-15.5 3 -30.5 9q-8 4 -11.5 7.5t-3.5 8.5q0 9 11 26q5 7 8 9.5t8 2.5q3 0 18.5 -5.5t33.5 -5.5q27 0 48 14t41 41.5t50 80.5q5 9 5 20q0 5 -0.5 9.5t-1.5 9.5l-77 475q-1 8 -2.5 18.5t-2.5 19.5q0 6 3.5 9t12.5 3h21q10 0 14 -1.5t6 -7.5t3 -15l64 -414
q1 -9 2 -22t1 -23h2l11 22l10 19l230 422q7 13 12.5 16.5t18.5 3.5h21q10 0 13.5 -2t3.5 -6q0 -5 -8 -19.5t-10 -18.5l-295 -531q-36 -65 -64 -102.5t-58.5 -56.5t-70.5 -19q-21 0 -36.5 3z" />
    <glyph glyph-name="z" unicode="z" horiz-adv-x="481" 
d="M92.5 500q-3.5 2 -3.5 8l2 13l2 13q3 12 8 15.5t17 3.5h350q11 0 14.5 -1.5t3.5 -7.5q0 -4 -1 -7.5t-2 -6.5l-2 -10q-2 -10 -6.5 -16.5t-15.5 -17.5l-410 -429v-2h325q11 0 14 -1.5t3 -7.5q0 -8 -2 -16l-3 -13q-2 -11 -6 -14t-17 -3h-390q-10 0 -13.5 2t-3.5 7q0 7 2 12
l3 13q1 9 6 16t17 20l408 426v2h-285q-11 0 -14.5 2z" />
    <glyph glyph-name="braceleft" unicode="{" horiz-adv-x="354" 
d="M46.5 294q-2.5 2 -2.5 8l1 12l2 13q2 10 6.5 14t16.5 8q39 12 63 37t38.5 64.5t28.5 106.5l30 140q11 52 31 82t50.5 42.5t75.5 12.5h28q13 0 13 -9l-3 -13l-4 -19q-1 -7 -5 -10.5t-12 -3.5h-12q-36 0 -56 -9t-31.5 -30t-19.5 -60l-35 -160q-14 -62 -30 -101t-41.5 -63
t-66.5 -37l-1 -2q37 -19 50 -45t13 -63q0 -25 -4 -54.5t-9 -54.5l-31 -146q-6 -29 -6 -44q0 -29 15.5 -42.5t55.5 -13.5h10q8 0 11 -2t3 -7l-2 -14l-4 -16q-1 -9 -5 -12t-12 -3h-10q-119 0 -119 102q0 23 10 70l21 103q11 52 15 78t4 52q0 35 -13.5 54t-46.5 30
q-8 3 -10.5 5z" />
    <glyph glyph-name="bar" unicode="|" horiz-adv-x="501" 
d="M226.5 -196q-3.5 4 -3.5 18v892q0 15 3.5 19t16.5 4h14q14 0 17.5 -4t3.5 -19v-892q0 -14 -3.5 -18t-17.5 -4h-14q-13 0 -16.5 4z" />
    <glyph glyph-name="braceright" unicode="}" horiz-adv-x="354" 
d="M188.5 249q-23.5 -24 -37.5 -62.5t-30 -109.5l-30 -140q-12 -52 -32 -82t-50 -42.5t-74 -12.5h-27q-6 0 -9 2t-4 7q0 7 2 15l4 17q1 7 5 10.5t12 3.5h12q35 0 55 9t31.5 30t20.5 60l34 160q14 62 30 101t42 63t67 37l1 2q-27 14 -41 32.5t-18.5 40t-4.5 50.5q1 40 14 94
l30 146q6 30 6 44q0 30 -15.5 43t-54.5 13h-12q-7 0 -10 2t-3 6t1 8t2 7l3 16q1 9 5 12t12 3h11q59 0 89.5 -27.5t29.5 -76.5q-1 -22 -10 -68l-21 -103q-11 -52 -15 -78t-4 -52q0 -35 13 -54t46 -30q9 -4 11.5 -6t2.5 -7l-2 -14l-2 -11q-2 -11 -6.5 -15t-16.5 -7
q-39 -12 -62.5 -36z" />
    <glyph glyph-name="asciitilde" unicode="~" horiz-adv-x="611" 
d="M253 420q27 -9 66 -26q36 -16 58.5 -23.5t47.5 -7.5q30 0 54 9t41 23q7 6 11.5 8.5t9.5 2.5q10 0 10 -18v-15q0 -14 -7.5 -23.5t-21.5 -17.5q-45 -25 -97 -25q-32 0 -59.5 9t-66.5 27q-32 15 -56 23t-48 8q-30 0 -54 -9t-40 -23q-7 -5 -12.5 -8t-9.5 -3q-5 0 -7.5 4
t-2.5 14v15q0 14 7.5 23.5t21.5 17.5q39 24 97 24q31 0 58 -9z" />
    <glyph glyph-name="uni00A0" unicode="&#xa0;" horiz-adv-x="344" 
 />
    <glyph glyph-name="exclamdown" unicode="&#xa1;" horiz-adv-x="228" 
d="M182 550.5q5 -2.5 5 -11.5q0 -6 -3 -15l-10 -50q-2 -11 -5 -16.5t-8 -7t-17 -1.5h-28q-14 0 -19 2t-5 9q0 2 2 14l11 55q3 15 9 19.5t21 4.5h26q16 0 21 -2.5zM125 350q4 -2 4 -8l-2 -11l-92 -495q-2 -13 -6.5 -16.5t-18.5 -3.5h-31q-10 0 -14 1.5t-4 7.5q0 5 1 9.5
t2 7.5l117 489q3 14 7 17.5t16 3.5h8q9 0 13 -2z" />
    <glyph glyph-name="cent" unicode="&#xa2;" horiz-adv-x="614" 
d="M76.5 154.5q-21.5 37.5 -21.5 91.5q0 44 11 92l18 85q25 116 87 174t164 58q20 0 39 -3l50 118q5 12 11 15t19 3h5q10 0 14 -2t4 -6q0 -5 -8 -22l-49 -116q33 -9 64 -30q19 -13 19 -22q-1 -5 -3.5 -9.5t-5 -7.5t-3.5 -5l-4 -4t-6 -5.5t-6 -2.5q-4 0 -10 3t-12 7t-11 7
q-25 14 -43 18l-194 -454q13 -3 36 -3q26 0 51.5 6t54.5 20q14 5 24 10.5t19 11t14 5.5q10 0 16 -13q6 -10 6 -20q-1 -10 -21 -26q-33 -22 -77.5 -35.5t-91.5 -13.5q-33 0 -53 5l-51 -120q-5 -12 -11 -15t-19 -3h-5q-9 0 -13 2.5t-4 7.5t3 11.5t6 12.5l49 118
q-40 19 -61.5 56.5zM161 152l190 448h-18q-73 0 -120.5 -43.5t-70.5 -150.5l-14 -64q-2 -9 -5.5 -27t-5.5 -33t-2 -30q0 -72 46 -100z" />
    <glyph glyph-name="sterling" unicode="&#xa3;" horiz-adv-x="614" 
d="M458.5 400q3.5 -2 3.5 -8l-1 -11l-3 -14q-3 -12 -8 -16t-17 -4h-186q3 -13 4.5 -29t1.5 -32q0 -55 -18.5 -100.5t-46.5 -78t-59 -49.5h353q9 0 12.5 -2.5t3.5 -8.5l-1 -10l-4 -19q-2 -11 -6.5 -14.5t-16.5 -3.5h-472q-9 0 -12 2t-3 8l2 13l3 16q3 11 6 15t12 4h4
q41 0 84 29t71 80.5t28 115.5q0 19 -2.5 33.5t-7.5 30.5h-87q-11 0 -15 2t-4 8t1 10l4 16q2 11 7.5 15t17.5 4h60q-17 36 -25.5 64t-8.5 64q0 63 28.5 112t81.5 76t123 27q62 0 110.5 -17.5t81.5 -49.5q19 -19 30.5 -40t11.5 -32t-13 -18q-14 -8 -25 -8q-5 0 -9 4t-11 16
q-23 40 -66.5 63.5t-109.5 23.5q-58 0 -96 -21t-56 -56.5t-18 -78.5q0 -33 8 -58.5t17 -45.5t11 -25h212q11 0 14.5 -2z" />
    <glyph glyph-name="currency" unicode="&#xa4;" horiz-adv-x="605" 
d="M127.5 409q10.5 31 28.5 54l-73 74q-12 12 -12 18q0 5 9 14l10 10q8 9 13 9q3 0 7.5 -3.5t9.5 -8.5l76 -75q23 17 51.5 26t59.5 9q60 0 111 -35l75 75q12 12 17 12t14 -9l10 -10q9 -9 9 -14q0 -6 -12 -18l-74 -74q19 -25 29.5 -54.5t10.5 -61.5q0 -31 -9.5 -59.5
t-27.5 -52.5l72 -71q11 -11 11 -18q0 -3 -2 -6t-6 -7l-10 -9q-10 -10 -15 -10q-3 0 -7 3.5t-9 8.5l-73 71q-51 -38 -114 -38q-33 0 -62 10t-53 28l-72 -71q-5 -5 -9.5 -8.5t-7.5 -3.5q-5 0 -14 10l-10 9q-9 9 -9 14t12 17l71 71q-17 23 -26.5 52.5t-9.5 59.5q0 31 10.5 62z
M191 278.5q18 -31.5 49 -49.5t67 -18t67 18t49 49.5t18 68.5t-18 68.5t-49 49.5t-67 18t-67 -18t-49 -49.5t-18 -68.5t18 -68.5z" />
    <glyph glyph-name="yen" unicode="&#xa5;" horiz-adv-x="614" 
d="M78.5 176.5q-4.5 2.5 -4.5 8.5l1 10l4 14q2 11 7 15t18 4h143l20 91h-145q-9 0 -13 2.5t-4 8.5t1 10l3 14q2 11 7.5 15t18.5 4h116l-115 314q-4 10 -6.5 18.5t-2.5 13.5q0 12 21 12h19q10 0 15 -3.5t9 -13.5l89 -252q21 -64 28 -90h2q27 45 63 93l189 251q6 8 12.5 11.5
t16.5 3.5h30q8 0 11.5 -2t3.5 -7q0 -4 -4.5 -12t-12.5 -18l-249 -319h116q10 0 13.5 -2t3.5 -8l-2 -12l-3 -14q-2 -11 -7 -14.5t-18 -3.5h-145l-19 -91h147q9 0 12.5 -2t3.5 -8l-2 -12l-3 -14q-2 -11 -7 -14.5t-17 -3.5h-145l-32 -153q-3 -13 -7.5 -17t-18.5 -4h-20
q-10 0 -13.5 2t-3.5 9t3 17l30 146h-143q-10 0 -14.5 2.5z" />
    <glyph glyph-name="brokenbar" unicode="&#xa6;" horiz-adv-x="501" 
d="M228.5 733q3.5 4 16.5 4h19q13 0 16.5 -4t3.5 -19v-320q0 -14 -3.5 -18t-17.5 -4h-18q-13 0 -16.5 4t-3.5 18v320q0 15 3.5 19zM228.5 161q3.5 4 16.5 4h19q13 0 16.5 -4t3.5 -19v-320q0 -14 -3.5 -18t-17.5 -4h-18q-13 0 -16.5 4t-3.5 18v320q0 15 3.5 19z" />
    <glyph glyph-name="section" unicode="&#xa7;" horiz-adv-x="519" 
d="M-20 -83.5q-8 5.5 -8 12.5q0 6 8 19q5 8 9.5 12.5t9.5 4.5q7 0 21 -7q70 -34 145 -34q52 0 90.5 18t58.5 48t20 64q0 27 -10.5 45t-35 33.5t-70.5 35.5l-55 24q-51 22 -78.5 55t-27.5 74q0 55 32.5 92t85.5 56q-48 40 -48 105q0 78 58 125q31 25 74.5 35.5t90.5 10.5
q73 0 137 -20q27 -9 27 -20q0 -9 -9 -22q-4 -7 -9 -11t-10 -4q-4 0 -11.5 3t-16.5 5q-49 15 -108 15q-76 0 -119.5 -29t-43.5 -83q0 -35 22 -60t78 -48l53 -24q57 -25 86.5 -56.5t29.5 -78.5q0 -98 -111 -146q23 -18 36 -45.5t13 -60.5q0 -49 -25.5 -92.5t-77.5 -70.5
t-127 -27q-38 0 -78.5 7.5t-75.5 23.5q-22 10 -30 15.5zM368 238q27 26 27 66q0 23 -10.5 39.5t-31.5 30.5t-60 31l-69 31q-50 -15 -78 -38.5t-28 -65.5q0 -24 11 -41t33 -31t61 -31l74 -32q44 15 71 41z" />
    <glyph glyph-name="dieresis" unicode="&#xa8;" horiz-adv-x="500" 
d="M180 642q-4 2 -4 9q0 5 1 8.5t2 6.5l10 50q3 13 8 17t19 4h25q11 0 15 -2t4 -7q0 -6 -3 -21l-10 -46q-3 -13 -8 -17t-20 -4h-23q-12 0 -16 2zM375 642q-4 2 -4 9q0 5 2 15l11 50q3 13 8 17t19 4h25q11 0 15 -2t4 -7q0 -7 -3 -21l-10 -46q-3 -13 -8 -17t-20 -4h-23
q-12 0 -16 2z" />
    <glyph glyph-name="copyright" unicode="&#xa9;" horiz-adv-x="851" 
d="M95 557q46 87 132 137.5t203 50.5t203 -50.5t132 -137.5t46 -192t-46 -192t-132 -137.5t-203 -50.5t-203 50.5t-132 137.5t-46 192t46 192zM141.5 198.5q39.5 -74.5 114 -118t176.5 -43.5q100 0 173.5 43.5t112.5 118t39 164.5q0 92 -39 167t-113 119t-175 44
q-102 0 -176 -43.5t-113 -118t-39 -166.5t39.5 -166.5zM340.5 160q-42.5 26 -66.5 76t-24 118v27q0 69 23 118t65 74t99 25q61 0 112 -29q11 -6 15 -10t4 -9t-3 -11.5t-7 -11.5q-7 -12 -14 -12q-4 0 -14 5.5t-15 8.5q-40 19 -78 19q-62 0 -97 -43t-35 -123v-28
q0 -56 17.5 -94.5t48 -57.5t68.5 -19q19 0 41.5 5t40.5 16q10 5 21 12.5t14 7.5q7 0 15 -11q8 -13 8 -20q0 -8 -12 -19q-25 -19 -60 -29.5t-70 -10.5q-54 0 -96.5 26z" />
    <glyph glyph-name="ordfeminine" unicode="&#xaa;" horiz-adv-x="423" 
d="M359 643q0 27 -19 41t-64 14q-27 0 -48 -3.5t-46 -12.5q-7 -2 -15 -4.5t-13 -2.5t-7 3t-6 12q-4 12 -4 18t5.5 9.5t14.5 6.5t13 4q23 7 52.5 12t57.5 5q72 0 101.5 -29t29.5 -74q0 -17 -5 -42l-30 -140q-3 -19 -3 -32q0 -30 8 -45q3 -7 3 -12q0 -8 -10 -13l-13 -7
q-9 -5 -15 -5q-10 0 -15 16q-8 17 -10 41h-2q-24 -26 -60.5 -42t-84.5 -16t-79 26t-31 75q0 48 32 80.5t88.5 48t129.5 15.5h36l5 21q4 15 4 32zM172 523.5q-54 -21.5 -54 -73.5q0 -30 18.5 -44.5t49.5 -14.5q55 0 94.5 31t51.5 83l9 41h-33q-82 -1 -136 -22.5z" />
    <glyph glyph-name="guillemotleft" unicode="&#xab;" horiz-adv-x="510" 
d="M197 65q8 -14 8 -21q0 -5 -4.5 -7t-11.5 -2h-22q-11 0 -16 1.5t-8.5 7t-7.5 13.5l-90 174q-4 7 -7 15t-3 13l2 15l1 7q2 9 5.5 14.5t12.5 14.5l168 183q6 7 11.5 11t10.5 5.5t16 1.5h17q12 0 18 -2t6 -8q0 -4 -5 -10.5t-12 -14.5l-192 -211zM383 65q8 -14 8 -21
q0 -5 -4.5 -7t-11.5 -2h-23q-14 0 -19.5 4t-12.5 18l-90 174q-4 7 -7 15t-3 13l2 15l1 7q2 9 5.5 14.5t12.5 14.5l169 183q11 12 17 15t20 3h17q12 0 18 -2t6 -8q0 -4 -5 -10.5t-12 -14.5l-191 -211z" />
    <glyph glyph-name="logicalnot" unicode="&#xac;" horiz-adv-x="611" 
d="M547.5 249q-3.5 -4 -16.5 -4h-16q-12 0 -15.5 4t-3.5 16v183h-407q-12 0 -16.5 4t-4.5 16v16q0 13 4 16.5t17 3.5h441q13 0 17 -4t4 -17v-218q0 -12 -3.5 -16z" />
    <glyph glyph-name="uni00AD" unicode="&#xad;" horiz-adv-x="356" 
d="M33 275q-4 2 -4 8q0 5 3 17l3 11q2 11 7 14.5t17 3.5h219q10 0 14 -2t4 -8l-2 -15l-3 -11q-2 -13 -6.5 -16.5t-17.5 -3.5h-220q-10 0 -14 2z" />
    <glyph glyph-name="registered" unicode="&#xae;" horiz-adv-x="534" 
d="M108.5 639.5q25.5 48.5 74 77t113.5 28.5t113.5 -28.5t74 -77t25.5 -107.5t-25.5 -107.5t-74 -77t-113.5 -28.5t-113.5 28.5t-74 77t-25.5 107.5t25.5 107.5zM146.5 445.5q19.5 -38.5 57.5 -60.5t92 -22t92.5 22t58 60.5t19.5 86.5t-19.5 86.5t-58 60.5t-92.5 22t-92 -22
t-57.5 -60.5t-19.5 -86.5t19.5 -86.5zM399 428q0 -2 -2.5 -3t-7.5 -1h-21q-13 0 -18 9l-54 73q-2 4 -6.5 5t-10.5 1h-21v-76q0 -7 -3 -9.5t-10 -2.5h-13q-7 0 -10.5 2.5t-3.5 9.5v199q0 13 14 13h82q38 0 58.5 -17.5t20.5 -48.5q0 -26 -14.5 -43t-44.5 -21l57 -77
q8 -9 8 -13zM340.5 557q10.5 9 10.5 25q0 31 -41 31h-52v-65h47q25 0 35.5 9z" />
    <glyph glyph-name="macron" unicode="&#xaf;" horiz-adv-x="500" 
d="M188 717h268q19 0 19 -12q0 -3 -2 -9l-3 -16q-2 -9 -8 -13t-17 -4h-269q-9 0 -13 3t-4 10q0 6 1 9l4 15q3 17 24 17z" />
    <glyph glyph-name="degree" unicode="&#xb0;" horiz-adv-x="396" 
d="M97.5 668.5q20.5 35.5 56 56t77.5 20.5t77 -20.5t55.5 -56t20.5 -77.5t-20.5 -77t-55.5 -55.5t-77 -20.5t-77.5 20.5t-56 55.5t-20.5 77t20.5 77.5zM142 539.5q14 -23.5 37.5 -37.5t51.5 -14q27 0 50.5 14t37.5 37.5t14 51.5t-14 51.5t-37 37.5t-51 14t-51.5 -14
t-37.5 -37.5t-14 -51.5t14 -51.5z" />
    <glyph glyph-name="plusminus" unicode="&#xb1;" horiz-adv-x="611" 
d="M326 180q0 -12 -3.5 -16t-15.5 -4h-17q-12 0 -15.5 4t-3.5 16v177h-193q-12 0 -16.5 4t-4.5 16v16q0 13 4 16.5t17 3.5h193v177q0 12 3.5 16t16.5 4h16q12 0 15.5 -4t3.5 -16v-177h193q13 0 17 -3.5t4 -16.5v-16q0 -12 -4.5 -16t-16.5 -4h-193v-177zM536 68.5
q4 -3.5 4 -16.5v-16q0 -12 -4.5 -16t-16.5 -4h-441q-12 0 -16.5 4t-4.5 16v16q0 13 4 16.5t17 3.5h441q13 0 17 -3.5z" />
    <glyph glyph-name="twosuperior" unicode="&#xb2;" 
d="M181.5 782.5q-3.5 -3.5 -9.5 -3.5q-4 0 -9.5 2t-11.5 6q-10 6 -10 15q0 10 9 26.5t29 34.5q23 19 50.5 29t65.5 10q65 0 99 -29t34 -75q0 -33 -14.5 -58t-40.5 -44t-67 -38l-52 -25q-44 -21 -69 -39.5t-38 -40t-21 -51.5h221q8 0 11.5 -2t3.5 -6l-1 -8l-5 -20
q-1 -9 -5 -11t-14 -2h-255q-11 0 -15 2t-4 8q0 5 1 9l5 25q9 46 30.5 78.5t55 56.5t83.5 48l42 20q49 23 71.5 44t22.5 51q0 25 -18.5 41.5t-59.5 16.5q-74 0 -106 -58q-5 -9 -8.5 -12.5z" />
    <glyph glyph-name="threesuperior" unicode="&#xb3;" 
d="M280 508q29 15 43.5 39.5t14.5 51.5q0 28 -23 45.5t-73 17.5h-42q-10 0 -13.5 1.5t-3.5 6.5l2 9l4 17q2 10 6.5 12.5t15.5 2.5h34q43 0 70 13.5t38.5 33.5t11.5 40q0 25 -19 40t-60 15q-48 0 -98 -29q-2 -1 -5.5 -3.5t-7.5 -4t-8 -1.5q-9 0 -19 17q-5 10 -5 14
q0 7 8.5 13.5t31.5 18.5q46 24 106 24q43 0 72.5 -13t44 -35t14.5 -49q0 -47 -27.5 -77t-74.5 -39q73 -20 73 -95q0 -39 -21 -73.5t-62.5 -55.5t-100.5 -21q-28 0 -55.5 7t-46.5 19q-17 10 -29 24.5t-12 23.5q0 4 3.5 7.5t11.5 7.5q2 1 6 3.5t7.5 4t6.5 1.5t6.5 -3t6.5 -7
q17 -18 42.5 -28.5t56.5 -10.5q40 0 69 15z" />
    <glyph glyph-name="acute" unicode="&#xb4;" horiz-adv-x="500" 
d="M247.5 625q-8.5 -5 -18.5 -5h-6q-7 0 -11 2.5t-4 7.5t4.5 11.5t11.5 14.5l124 128q17 17 25 21.5t23 4.5h27q11 0 16 -2.5t5 -8.5q1 -6 -6 -13.5t-24 -21.5l-148 -125q-10 -9 -18.5 -14z" />
    <glyph glyph-name="mu" unicode="&#xb5;" horiz-adv-x="595" 
d="M452.5 133.5q-2.5 -21.5 -2.5 -36.5q0 -30 8 -57q2 -8 5 -16.5t3 -11.5q0 -5 -2.5 -8t-9.5 -5l-18 -6q-13 -3 -16 -3q-11 0 -18 27.5t-10 53.5h-2q-37 -35 -92 -59t-108 -24q-42 0 -69 13.5t-43 40.5l-45 -213q-3 -14 -7.5 -17.5t-18.5 -3.5h-14q-12 0 -16.5 2.5
t-4.5 9.5q0 6 1 11t2 9l148 692q2 13 6.5 17t18.5 4h17q10 0 14 -2t4 -8q0 -7 -3 -18l-67 -319q-5 -22 -8 -41.5t-3 -36.5q0 -42 25.5 -63.5t69.5 -21.5q41 0 87.5 20.5t91.5 55.5q9 7 12.5 17t7.5 29l79 367q3 13 7.5 17t18.5 4h17q11 0 14.5 -2t3.5 -9l-2 -12l-75 -356
q-4 -19 -6.5 -40.5z" />
    <glyph glyph-name="paragraph" unicode="&#xb6;" horiz-adv-x="620" 
d="M513 -163.5q-3 -3.5 -16 -3.5h-13q-13 0 -16.5 3.5t-3.5 16.5v831h-131v-831q0 -13 -3.5 -16.5t-15.5 -3.5h-13q-13 0 -16.5 3.5t-3.5 16.5v426q-75 2 -125.5 29.5t-76 75.5t-25.5 113q0 71 31 124t88 81.5t135 28.5h251q14 0 18.5 -3.5t4.5 -16.5v-7q0 -13 -4 -16.5
t-19 -3.5h-43v-831q0 -13 -3 -16.5z" />
    <glyph glyph-name="periodcentered" unicode="&#xb7;" horiz-adv-x="208" 
d="M58.5 321.5q-4.5 2.5 -4.5 8.5q0 2 3 17l12 54q3 14 7.5 18t19.5 4h33q13 0 17 -2t4 -9l-2 -16l-12 -56q-2 -12 -7.5 -16.5t-19.5 -4.5h-34q-12 0 -16.5 2.5z" />
    <glyph glyph-name="cedilla" unicode="&#xb8;" horiz-adv-x="500" 
d="M62.5 -246q-25.5 6 -41.5 15t-16 17q0 5 6 13l6 7q4 5 6.5 6.5t5.5 1.5t16 -6t30 -10t42 -4q41 0 64.5 17.5t23.5 48.5q0 17 -10.5 28t-32.5 11q-14 0 -23.5 -3.5t-19.5 -9.5q-12 -7 -19 -7t-16.5 5.5t-9.5 12.5q0 4 3.5 9.5t6.5 9.5t5 7l62 87h51l-55 -75q7 4 17.5 6
t19.5 2q35 0 55.5 -20.5t20.5 -55.5q0 -37 -18.5 -64t-51.5 -41t-76 -14q-26 0 -51.5 6z" />
    <glyph glyph-name="onesuperior" unicode="&#xb9;" 
d="M85 455q-3 2 -3 7l1 8l3 16q2 9 6.5 12.5t12.5 3.5h107l70 332l-98 -53q-13 -6 -18 -6q-3 0 -5.5 3t-5.5 8l-6 10q-3 5 -3 11q0 5 3.5 9t11.5 8l123 60q10 5 16.5 7t15.5 2h13q9 0 12.5 -2.5t3.5 -7.5l-2 -15l-78 -366h99q7 0 10 -1.5t3 -6.5q0 -4 -2 -10l-3 -17
q-2 -9 -6.5 -11.5t-13.5 -2.5h-258q-6 0 -9 2z" />
    <glyph glyph-name="ordmasculine" unicode="&#xba;" horiz-adv-x="435" 
d="M280 745h11q72 0 107.5 -33.5t35.5 -94.5q0 -33 -7 -64l-6 -32q-17 -89 -66.5 -133t-131.5 -44h-12q-71 0 -106.5 33.5t-35.5 94.5q0 33 7 64l6 32q35 177 198 177zM380 617q0 38 -22 58.5t-71 20.5h-6q-65 0 -98.5 -34t-47.5 -102l-6 -30q-6 -28 -6 -58q0 -39 22 -59.5
t70 -20.5h7q65 0 98.5 34t47.5 103l6 30q6 28 6 58z" />
    <glyph glyph-name="guillemotright" unicode="&#xbb;" horiz-adv-x="510" 
d="M95 481q-8 14 -8 21q0 5 4.5 7t11.5 2h22q11 0 16 -1.5t8.5 -7t7.5 -13.5l90 -174q4 -7 7 -15t3 -13l-2 -15l-1 -7q-2 -9 -5.5 -14.5t-12.5 -14.5l-168 -184q-6 -6 -11.5 -10t-10.5 -5.5t-16 -1.5h-17q-12 0 -18 2t-6 8q0 4 5 10.5t12 14.5l192 211zM280 481q-8 14 -8 21
q0 5 4.5 7t11.5 2h23q10 0 15 -1.5t8.5 -7t7.5 -13.5l90 -174q10 -17 10 -28q0 -10 -1 -15l-2 -7q-1 -8 -5 -14t-13 -15l-168 -184q-6 -6 -11.5 -10t-10.5 -5.5t-16 -1.5h-17q-12 0 -17.5 2t-5.5 8q0 7 16 25l192 211z" />
    <glyph glyph-name="onequarter" unicode="&#xbc;" horiz-adv-x="949" 
d="M55 298q-3 2 -3 7l1 8l3 16q2 9 6.5 12.5t12.5 3.5h107l70 332l-98 -53q-13 -6 -18 -6q-3 0 -5.5 3t-5.5 8l-6 10q-3 5 -3 11q0 5 3.5 9t11.5 8l123 60q10 5 16.5 7t15.5 2h13q9 0 12.5 -2.5t3.5 -7.5l-2 -15l-78 -366h99q7 0 10 -1.5t3 -6.5q0 -4 -2 -10l-3 -17
q-2 -9 -6.5 -11.5t-13.5 -2.5h-258q-6 0 -9 2zM851 737q0 -5 -5 -11t-11 -13l-649 -706q-13 -14 -19 -17.5t-19 -3.5h-13q-8 0 -12 1.5t-3 7.5q0 4 4.5 10.5t11.5 13.5l648 705q13 14 18 17.5t18 3.5h14q17 0 17 -8zM825 156q7 0 10 -1.5t3 -6.5l-2 -9l-5 -17
q-3 -8 -6.5 -10.5t-9.5 -2.5h-65l-20 -92q-2 -9 -6 -13t-12 -4h-20q-7 0 -10 2t-3 7q0 7 1 11l19 89h-195q-10 0 -14 1.5t-4 7.5q0 4 1 6.5t1 4.5l1 7q2 7 4.5 11t8.5 10l261 268q8 9 14 12t13 3h16q7 0 9.5 -1.5t2.5 -6.5q0 -2 -3 -14l-55 -262h65zM724 226l28 130
l-192 -200h149z" />
    <glyph glyph-name="onehalf" unicode="&#xbd;" horiz-adv-x="991" 
d="M54 298q-3 2 -3 7l1 8l3 16q2 9 6.5 12.5t12.5 3.5h107l70 332l-98 -53q-13 -6 -18 -6q-3 0 -5.5 3t-5.5 8l-6 10q-3 5 -3 11q0 5 3.5 9t11.5 8l123 60q10 5 16.5 7t15.5 2h13q9 0 12.5 -2.5t3.5 -7.5l-2 -15l-78 -366h99q7 0 10 -1.5t3 -6.5q0 -4 -2 -10l-3 -17
q-2 -9 -6.5 -11.5t-13.5 -2.5h-258q-6 0 -9 2zM846 737q0 -5 -5 -11t-11 -13l-649 -706q-13 -14 -19 -17.5t-19 -3.5h-13q-8 0 -12 1.5t-3 7.5q0 4 4.5 10.5t11.5 13.5l648 705q13 14 18 17.5t18 3.5h14q17 0 17 -8zM658.5 329.5q-3.5 -3.5 -9.5 -3.5q-4 0 -9.5 2t-11.5 6
q-10 6 -10 15q0 10 9 26.5t29 34.5q23 19 50.5 29t65.5 10q65 0 99 -29t34 -75q0 -33 -14.5 -58t-40.5 -44t-67 -38l-52 -25q-44 -21 -69 -39.5t-38 -40t-21 -51.5h221q8 0 11.5 -2t3.5 -6l-1 -8l-5 -20q-1 -9 -5 -11t-14 -2h-255q-11 0 -15 2t-4 8q0 5 1 9l5 25
q9 46 30.5 78.5t55 56.5t83.5 48l42 20q49 23 71.5 44t22.5 51q0 25 -18.5 41.5t-59.5 16.5q-74 0 -106 -58q-5 -9 -8.5 -12.5z" />
    <glyph glyph-name="threequarters" unicode="&#xbe;" horiz-adv-x="953" 
d="M252 351q29 15 43.5 39.5t14.5 51.5q0 28 -23 45.5t-73 17.5h-42q-10 0 -13.5 1.5t-3.5 6.5l2 9l4 17q2 10 6.5 12.5t15.5 2.5h34q43 0 70 13.5t38.5 33.5t11.5 40q0 25 -19 40t-60 15q-48 0 -98 -29q-2 -1 -5.5 -3.5t-7.5 -4t-8 -1.5q-9 0 -19 17q-5 10 -5 14
q0 7 8.5 13.5t31.5 18.5q46 24 106 24q43 0 72.5 -13t44 -35t14.5 -49q0 -47 -27.5 -77t-74.5 -39q73 -20 73 -95q0 -39 -21 -73.5t-62.5 -55.5t-100.5 -21q-28 0 -55.5 7t-46.5 19q-17 10 -29 24.5t-12 23.5q0 4 3.5 7.5t11.5 7.5q2 1 6 3.5t7.5 4t6.5 1.5t6.5 -3t6.5 -7
q17 -18 42.5 -28.5t56.5 -10.5q40 0 69 15zM845 737q0 -5 -5 -11t-11 -13l-649 -706q-13 -14 -19 -17.5t-19 -3.5h-13q-8 0 -12 1.5t-3 7.5q0 4 4.5 10.5t11.5 13.5l648 705q13 14 18 17.5t18 3.5h14q17 0 17 -8zM825 156q7 0 10 -1.5t3 -6.5l-2 -9l-5 -17q-3 -8 -6.5 -10.5
t-9.5 -2.5h-65l-20 -92q-2 -9 -6 -13t-12 -4h-20q-7 0 -10 2t-3 7q0 7 1 11l19 89h-195q-10 0 -14 1.5t-4 7.5q0 4 1 6.5t1 4.5l1 7q2 7 4.5 11t8.5 10l261 268q8 9 14 12t13 3h16q7 0 9.5 -1.5t2.5 -6.5q0 -2 -3 -14l-55 -262h65zM724 226l28 130l-192 -200h149z" />
    <glyph glyph-name="questiondown" unicode="&#xbf;" horiz-adv-x="431" 
d="M309.5 550.5q4.5 -2.5 4.5 -8.5q0 -5 -3 -17l-12 -54q-3 -14 -7.5 -18t-19.5 -4h-33q-13 0 -17 2t-4 8q0 4 2 14l12 59q2 12 7.5 16.5t19.5 4.5h34q12 0 16.5 -2.5zM218 -105q42 34 57 94q3 14 14 14q7 0 12 -1l19 -4q8 -1 10.5 -5t2.5 -11q-2 -19 -12.5 -46t-26.5 -47
q-31 -40 -76 -63t-113 -23q-80 0 -122 39t-42 109q0 66 36 122t115 110q54 37 80.5 76t36.5 91l3 18q1 9 4.5 11.5t11.5 2.5h27q9 0 12 -2t2 -8q-4 -71 -39.5 -131t-93.5 -97q-134 -86 -134 -191q0 -92 110 -92q64 0 106 34z" />
    <glyph glyph-name="Agrave" unicode="&#xc0;" horiz-adv-x="607" 
d="M-61 10q0 5 3.5 12t6.5 12.5t5 9.5l397 669q7 11 12.5 14.5t16.5 3.5h19q12 0 15.5 -2.5t4.5 -14.5l109 -668q5 -22 5 -32q0 -7 -5.5 -10.5t-19.5 -3.5h-16q-14 0 -18 5t-6 22l-32 203h-302l-125 -209q-7 -13 -12 -17t-17 -4h-19q-22 0 -22 10zM382 584q-5 33 -8 62h-2
q-16 -34 -35 -66l-170 -292h261zM297 949q0 6 5.5 9.5t15.5 3.5h22q13 0 19 -4.5t14 -20.5l57 -109q1 -4 4 -11t3 -12q0 -11 -13 -11h-5q-8 0 -14 4.5t-12 12.5l-78 106q-18 24 -18 32z" />
    <glyph glyph-name="Aacute" unicode="&#xc1;" horiz-adv-x="607" 
d="M-61 10q0 5 3.5 12t6.5 12.5t5 9.5l397 669q7 11 12.5 14.5t16.5 3.5h19q12 0 15.5 -2.5t4.5 -14.5l109 -668q5 -22 5 -32q0 -7 -5.5 -10.5t-19.5 -3.5h-16q-14 0 -18 5t-6 22l-32 203h-302l-125 -209q-7 -13 -12 -17t-17 -4h-19q-22 0 -22 10zM382 584q-5 33 -8 62h-2
q-16 -34 -35 -66l-170 -292h261zM397.5 798q-7.5 -4 -14.5 -4h-12q-11 0 -11 9q0 5 3 10.5t10 14.5l100 109q14 15 22 20t22 5h32q19 0 19 -10t-30 -34l-122 -106q-11 -10 -18.5 -14z" />
    <glyph glyph-name="Acircumflex" unicode="&#xc2;" horiz-adv-x="607" 
d="M-61 10q0 5 3.5 12t6.5 12.5t5 9.5l397 669q7 11 12.5 14.5t16.5 3.5h19q12 0 15.5 -2.5t4.5 -14.5l109 -668q5 -22 5 -32q0 -7 -5.5 -10.5t-19.5 -3.5h-16q-14 0 -18 5t-6 22l-32 203h-302l-125 -209q-7 -13 -12 -17t-17 -4h-19q-22 0 -22 10zM382 584q-5 33 -8 62h-2
q-16 -34 -35 -66l-170 -292h261zM392.5 954.5q7.5 4.5 17.5 4.5h29q11 0 16 -4.5t13 -17.5l71 -104q5 -7 10 -15.5t5 -13.5q0 -10 -13 -10h-8q-7 0 -13.5 4t-14.5 14l-84 96l-129 -96q-14 -10 -22 -14t-16 -4h-9q-14 0 -14 8q0 9 25 31l115 104q14 13 21.5 17.5z" />
    <glyph glyph-name="Atilde" unicode="&#xc3;" horiz-adv-x="607" 
d="M-61 10q0 5 3.5 12t6.5 12.5t5 9.5l397 669q7 11 12.5 14.5t16.5 3.5h19q12 0 15.5 -2.5t4.5 -14.5l109 -668q5 -22 5 -32q0 -7 -5.5 -10.5t-19.5 -3.5h-16q-14 0 -18 5t-6 22l-32 203h-302l-125 -209q-7 -13 -12 -17t-17 -4h-19q-22 0 -22 10zM382 584q-5 33 -8 62h-2
q-16 -34 -35 -66l-170 -292h261zM336.5 872.5q-11.5 4.5 -25.5 4.5q-21 0 -37.5 -13.5t-27.5 -37.5q-4 -11 -9 -16.5t-13 -5.5h-12q-13 0 -13 11q0 20 13.5 46.5t40.5 46.5t65 20q23 0 40 -6t37 -19l33 -20q17 -11 28 -15t26 -4q21 0 37.5 13.5t27.5 36.5q4 11 9.5 16.5
t13.5 5.5h12q5 0 8 -2.5t3 -7.5q0 -20 -14 -47.5t-39.5 -47t-59.5 -19.5q-22 0 -41.5 6.5t-38.5 18.5l-34 21q-18 10 -29.5 14.5z" />
    <glyph glyph-name="Adieresis" unicode="&#xc4;" horiz-adv-x="607" 
d="M-61 10q0 5 3.5 12t6.5 12.5t5 9.5l397 669q7 11 12.5 14.5t16.5 3.5h19q12 0 15.5 -2.5t4.5 -14.5l109 -668q5 -22 5 -32q0 -7 -5.5 -10.5t-19.5 -3.5h-16q-14 0 -18 5t-6 22l-32 203h-302l-125 -209q-7 -13 -12 -17t-17 -4h-19q-22 0 -22 10zM382 584q-5 33 -8 62h-2
q-16 -34 -35 -66l-170 -292h261zM263 818q-4 3 -4 9q0 5 3 18l10 47q2 11 7.5 16t17.5 5h31q9 0 13 -3.5t4 -9.5q0 -5 -3 -19l-10 -46q-2 -11 -7.5 -15.5t-17.5 -4.5h-31q-9 0 -13 3zM469 818q-4 3 -4 9t3 19l10 46q2 11 7.5 16t17.5 5h31q9 0 13 -3.5t4 -9.5q0 -4 -4 -22
l-9 -43q-2 -11 -7.5 -15.5t-17.5 -4.5h-31q-9 0 -13 3z" />
    <glyph glyph-name="Aring" unicode="&#xc5;" horiz-adv-x="607" 
d="M-61 10q0 5 3.5 12t6.5 12.5t5 9.5l397 669q7 11 12.5 14.5t16.5 3.5h19q12 0 15.5 -2.5t4.5 -14.5l109 -668q5 -22 5 -32q0 -7 -5.5 -10.5t-19.5 -3.5h-16q-14 0 -18 5t-6 22l-32 203h-302l-125 -209q-7 -13 -12 -17t-17 -4h-19q-22 0 -22 10zM382 584q-5 33 -8 62h-2
q-16 -34 -35 -66l-170 -292h261zM306.5 917.5q15.5 25.5 41.5 40.5t57 15q30 0 55.5 -15t40.5 -40.5t15 -55.5q0 -31 -15 -56.5t-40.5 -40.5t-56.5 -15t-57 15t-41 40.5t-15 56.5q0 30 15.5 55.5zM343.5 827q9.5 -16 25.5 -25.5t35 -9.5t34.5 9.5t25 25.5t9.5 35t-9.5 34.5
t-25 25t-34.5 9.5t-35 -9.5t-25.5 -25.5t-9.5 -34q0 -19 9.5 -35z" />
    <glyph glyph-name="AE" unicode="&#xc6;" horiz-adv-x="917" 
d="M395 2.5q-5 2.5 -5 9.5q0 3 3 21l43 197h-272l-162 -211q-9 -12 -14.5 -15.5t-17.5 -3.5h-19q-22 0 -22 10q0 6 6.5 16t14.5 21l510 660q10 14 17.5 19t21.5 5h424q10 0 13.5 -1.5t3.5 -7.5t-1 -11l-4 -18q-3 -13 -7.5 -16.5t-16.5 -3.5h-320l-54 -256h227q9 0 13 -2
t4 -7q0 -4 -2 -12l-4 -21q-3 -10 -7 -13t-16 -3h-228l-64 -301h334q10 0 13.5 -2t3.5 -8t-1 -11l-4 -19q-3 -12 -7 -15t-17 -3h-369q-13 0 -18 2.5zM530 673h-28l-295 -385h240z" />
    <glyph glyph-name="Ccedilla" unicode="&#xc7;" horiz-adv-x="595" 
d="M605.5 694.5q5.5 -5.5 5.5 -10.5q0 -9 -8 -21q-10 -17 -20 -17q-5 0 -19.5 7t-24.5 10q-62 24 -131 24q-76 0 -130 -28.5t-89.5 -88t-55.5 -155.5l-16 -73q-7 -31 -12.5 -69.5t-5.5 -67.5q0 -84 45 -122.5t131 -38.5q74 0 168 44l13 6.5t12 5.5t9 2q6 0 10 -4t6 -12
q4 -8 4 -23q0 -7 -9.5 -14.5t-31.5 -17.5q-41 -19 -90 -32t-98 -13h-2l-37 -51q7 4 17.5 6t19.5 2q35 0 55.5 -20.5t20.5 -55.5q0 -37 -18.5 -64t-51.5 -41t-76 -14q-26 0 -51.5 6t-41.5 15t-16 17q0 5 6 13l6 7q4 5 6.5 6.5t5.5 1.5t16 -6t30 -10t42 -4q41 0 64.5 17.5
t23.5 48.5q0 17 -10.5 28t-32.5 11q-14 0 -23.5 -3.5t-19.5 -9.5q-12 -7 -19 -7t-16.5 5.5t-9.5 12.5q0 4 3.5 9.5t6.5 9.5t5 7l47 66q-88 12 -135 66t-47 143q0 57 18 142l18 84q34 163 119.5 242t222.5 79q51 0 95.5 -10.5t79.5 -28.5q11 -6 16.5 -11.5z" />
    <glyph glyph-name="Egrave" unicode="&#xc8;" horiz-adv-x="562" 
d="M26 2.5q-5 2.5 -5 9.5q0 9 4 25l143 673q2 10 4.5 14t8 5.5t16.5 1.5h370q10 0 14 -1.5t4 -7.5l-2 -14l-3 -15q-2 -13 -6.5 -16.5t-18.5 -3.5h-333l-55 -256h238q10 0 13.5 -2t3.5 -8q0 -3 -2 -11l-4 -21q-3 -10 -7.5 -13t-16.5 -3h-237l-64 -301h348q10 0 14 -2.5
t4 -7.5l-2 -13l-4 -17q-3 -12 -7 -15t-17 -3h-384q-12 0 -17 2.5zM295 949q0 6 5.5 9.5t15.5 3.5h22q13 0 19 -4.5t14 -20.5l57 -109q1 -4 4 -11t3 -12q0 -11 -13 -11h-5q-8 0 -14 4.5t-12 12.5l-78 106q-18 24 -18 32z" />
    <glyph glyph-name="Eacute" unicode="&#xc9;" horiz-adv-x="562" 
d="M26 2.5q-5 2.5 -5 9.5q0 9 4 25l143 673q2 10 4.5 14t8 5.5t16.5 1.5h370q10 0 14 -1.5t4 -7.5l-2 -14l-3 -15q-2 -13 -6.5 -16.5t-18.5 -3.5h-333l-55 -256h238q10 0 13.5 -2t3.5 -8q0 -3 -2 -11l-4 -21q-3 -10 -7.5 -13t-16.5 -3h-237l-64 -301h348q10 0 14 -2.5
t4 -7.5l-2 -13l-4 -17q-3 -12 -7 -15t-17 -3h-384q-12 0 -17 2.5zM396.5 798q-7.5 -4 -14.5 -4h-12q-11 0 -11 9q0 5 3 10.5t10 14.5l100 109q14 15 22 20t22 5h32q19 0 19 -10t-30 -34l-122 -106q-11 -10 -18.5 -14z" />
    <glyph glyph-name="Ecircumflex" unicode="&#xca;" horiz-adv-x="562" 
d="M26 2.5q-5 2.5 -5 9.5q0 9 4 25l143 673q2 10 4.5 14t8 5.5t16.5 1.5h370q10 0 14 -1.5t4 -7.5l-2 -14l-3 -15q-2 -13 -6.5 -16.5t-18.5 -3.5h-333l-55 -256h238q10 0 13.5 -2t3.5 -8q0 -3 -2 -11l-4 -21q-3 -10 -7.5 -13t-16.5 -3h-237l-64 -301h348q10 0 14 -2.5
t4 -7.5l-2 -13l-4 -17q-3 -12 -7 -15t-17 -3h-384q-12 0 -17 2.5zM390.5 954.5q7.5 4.5 17.5 4.5h29q11 0 16 -4.5t13 -17.5l71 -104q5 -7 10 -15.5t5 -13.5q0 -10 -13 -10h-8q-7 0 -13.5 4t-14.5 14l-84 96l-129 -96q-14 -10 -22 -14t-16 -4h-9q-14 0 -14 8q0 9 25 31
l115 104q14 13 21.5 17.5z" />
    <glyph glyph-name="Edieresis" unicode="&#xcb;" horiz-adv-x="562" 
d="M26 2.5q-5 2.5 -5 9.5q0 9 4 25l143 673q2 10 4.5 14t8 5.5t16.5 1.5h370q10 0 14 -1.5t4 -7.5l-2 -14l-3 -15q-2 -13 -6.5 -16.5t-18.5 -3.5h-333l-55 -256h238q10 0 13.5 -2t3.5 -8q0 -3 -2 -11l-4 -21q-3 -10 -7.5 -13t-16.5 -3h-237l-64 -301h348q10 0 14 -2.5
t4 -7.5l-2 -13l-4 -17q-3 -12 -7 -15t-17 -3h-384q-12 0 -17 2.5zM266 816q-4 3 -4 9q0 5 3 18l10 47q2 11 7.5 16t17.5 5h31q9 0 13 -3.5t4 -9.5q0 -5 -3 -19l-10 -46q-2 -11 -7.5 -15.5t-17.5 -4.5h-31q-9 0 -13 3zM472 816q-4 3 -4 9t3 19l10 46q2 11 7.5 16t17.5 5h31
q9 0 13 -3.5t4 -9.5q0 -4 -4 -22l-9 -43q-2 -11 -7.5 -15.5t-17.5 -4.5h-31q-9 0 -13 3z" />
    <glyph glyph-name="Igrave" unicode="&#xcc;" horiz-adv-x="418" 
d="M299.5 52q3.5 -2 3.5 -8t-1 -11l-3 -13q-3 -13 -7 -16.5t-16 -3.5h-291q-11 0 -14.5 1.5t-3.5 7.5t1 11l3 15q3 12 7.5 15.5t16.5 3.5h116l132 623h-117q-9 0 -12.5 2t-3.5 7q0 3 0.5 5t1.5 5l3 17q3 12 8 15t17 3h290q10 0 14 -1.5t4 -7.5q0 -3 -2 -13l-3 -13
q-3 -12 -7 -15.5t-16 -3.5h-115l-133 -623h114q10 0 13.5 -2zM199 949q0 6 5.5 9.5t15.5 3.5h22q13 0 19 -4.5t14 -20.5l57 -109q1 -4 4 -11t3 -12q0 -11 -13 -11h-5q-8 0 -14 4.5t-12 12.5l-78 106q-18 24 -18 32z" />
    <glyph glyph-name="Iacute" unicode="&#xcd;" horiz-adv-x="418" 
d="M299.5 52q3.5 -2 3.5 -8t-1 -11l-3 -13q-3 -13 -7 -16.5t-16 -3.5h-291q-11 0 -14.5 1.5t-3.5 7.5t1 11l3 15q3 12 7.5 15.5t16.5 3.5h116l132 623h-117q-9 0 -12.5 2t-3.5 7q0 3 0.5 5t1.5 5l3 17q3 12 8 15t17 3h290q10 0 14 -1.5t4 -7.5q0 -3 -2 -13l-3 -13
q-3 -12 -7 -15.5t-16 -3.5h-115l-133 -623h114q10 0 13.5 -2zM295.5 798q-7.5 -4 -14.5 -4h-12q-11 0 -11 9q0 5 3 10.5t10 14.5l100 109q14 15 22 20t22 5h32q19 0 19 -10t-30 -34l-122 -106q-11 -10 -18.5 -14z" />
    <glyph glyph-name="Icircumflex" unicode="&#xce;" horiz-adv-x="418" 
d="M299.5 52q3.5 -2 3.5 -8t-1 -11l-3 -13q-3 -13 -7 -16.5t-16 -3.5h-291q-11 0 -14.5 1.5t-3.5 7.5t1 11l3 15q3 12 7.5 15.5t16.5 3.5h116l132 623h-117q-9 0 -12.5 2t-3.5 7q0 3 0.5 5t1.5 5l3 17q3 12 8 15t17 3h290q10 0 14 -1.5t4 -7.5q0 -3 -2 -13l-3 -13
q-3 -12 -7 -15.5t-16 -3.5h-115l-133 -623h114q10 0 13.5 -2zM297.5 954.5q7.5 4.5 17.5 4.5h29q11 0 16 -4.5t13 -17.5l71 -104q5 -7 10 -15.5t5 -13.5q0 -10 -13 -10h-8q-7 0 -13.5 4t-14.5 14l-84 96l-129 -96q-14 -10 -22 -14t-16 -4h-9q-14 0 -14 8q0 9 25 31l115 104
q14 13 21.5 17.5z" />
    <glyph glyph-name="Idieresis" unicode="&#xcf;" horiz-adv-x="418" 
d="M299.5 52q3.5 -2 3.5 -8t-1 -11l-3 -13q-3 -13 -7 -16.5t-16 -3.5h-291q-11 0 -14.5 1.5t-3.5 7.5t1 11l3 15q3 12 7.5 15.5t16.5 3.5h116l132 623h-117q-9 0 -12.5 2t-3.5 7q0 3 0.5 5t1.5 5l3 17q3 12 8 15t17 3h290q10 0 14 -1.5t4 -7.5q0 -3 -2 -13l-3 -13
q-3 -12 -7 -15.5t-16 -3.5h-115l-133 -623h114q10 0 13.5 -2zM168 818q-4 3 -4 9q0 5 3 18l10 47q2 11 7.5 16t17.5 5h31q9 0 13 -3.5t4 -9.5q0 -5 -3 -19l-10 -46q-2 -11 -7.5 -15.5t-17.5 -4.5h-31q-9 0 -13 3zM374 818q-4 3 -4 9t3 19l10 46q2 11 7.5 16t17.5 5h31
q9 0 13 -3.5t4 -9.5q0 -4 -4 -22l-9 -43q-2 -11 -7.5 -15.5t-17.5 -4.5h-31q-9 0 -13 3z" />
    <glyph glyph-name="Eth" unicode="&#xd0;" horiz-adv-x="682" 
d="M581.5 681.5q62.5 -49.5 62.5 -157.5q0 -32 -3.5 -60.5t-9.5 -64.5l-11 -53q-22 -111 -63.5 -187t-112.5 -117.5t-177 -41.5h-225q-12 0 -16.5 2.5t-4.5 9.5l2 18l68 322h-78q-11 0 -15 1.5t-4 7.5l2 13l4 13q2 12 6.5 15.5t18.5 3.5h78l64 302q3 15 8 19t22 4h201
q121 0 183.5 -49.5zM402 85.5q56 27.5 94 90.5t61 170l8 34q9 45 13.5 75.5t4.5 62.5q0 58 -20.5 91.5t-63 48.5t-109.5 15h-168l-57 -267h171q11 0 15 -2t4 -7q0 -6 -1 -11l-3 -14q-3 -12 -8 -16t-17 -4h-173l-62 -294h175q80 0 136 27.5z" />
    <glyph glyph-name="Ntilde" unicode="&#xd1;" horiz-adv-x="707" 
d="M24.5 2q-3.5 2 -3.5 8l2 16l145 685q3 13 7 16.5t16 3.5h24q11 0 15.5 -3t9.5 -12l234 -572q12 -30 18 -55h2q2 18 10 59l119 564q3 12 8 15.5t18 3.5h17q11 0 15 -2t4 -8q0 -5 -4 -17l-144 -684q-3 -13 -7 -16.5t-16 -3.5h-24q-11 0 -16 3t-10 13l-226 553
q-2 6 -12 30.5t-14 42.5h-2q-2 -18 -6.5 -42.5t-10.5 -51.5l-112 -528q-2 -13 -6.5 -16.5t-18.5 -3.5h-17q-11 0 -14.5 2zM394.5 872.5q-11.5 4.5 -25.5 4.5q-21 0 -37.5 -13.5t-27.5 -37.5q-4 -11 -9 -16.5t-13 -5.5h-12q-13 0 -13 11q0 20 13.5 46.5t40.5 46.5t65 20
q23 0 40 -6t37 -19l33 -20q17 -11 28 -15t26 -4q21 0 37.5 13.5t27.5 36.5q4 11 9.5 16.5t13.5 5.5h12q5 0 8 -2.5t3 -7.5q0 -20 -14 -47.5t-39.5 -47t-59.5 -19.5q-22 0 -41.5 6.5t-38.5 18.5l-34 21q-18 10 -29.5 14.5z" />
    <glyph glyph-name="Ograve" unicode="&#xd2;" horiz-adv-x="697" 
d="M183 659q80 86 225 86h20q72 0 124 -26t80 -75t28 -116q0 -57 -17 -132l-16 -79q-33 -158 -113.5 -244.5t-224.5 -86.5h-21q-71 0 -123.5 26.5t-80 75t-27.5 115.5q0 33 4 63t12 70l17 79q33 158 113 244zM592 458.5q5 35.5 5 62.5q0 83 -45.5 124.5t-134.5 41.5h-10
q-75 0 -128.5 -28.5t-89 -88.5t-56.5 -157l-16 -71q-7 -31 -12.5 -68.5t-5.5 -63.5q0 -83 46 -124.5t134 -41.5h11q74 0 127.5 28.5t90 89t56.5 156.5l15 71q8 34 13 69.5zM334 949q0 6 5.5 9.5t15.5 3.5h22q13 0 19 -4.5t14 -20.5l57 -109q1 -4 4 -11t3 -12q0 -11 -13 -11
h-5q-8 0 -14 4.5t-12 12.5l-78 106q-18 24 -18 32z" />
    <glyph glyph-name="Oacute" unicode="&#xd3;" horiz-adv-x="697" 
d="M183 659q80 86 225 86h20q72 0 124 -26t80 -75t28 -116q0 -57 -17 -132l-16 -79q-33 -158 -113.5 -244.5t-224.5 -86.5h-21q-71 0 -123.5 26.5t-80 75t-27.5 115.5q0 33 4 63t12 70l17 79q33 158 113 244zM592 458.5q5 35.5 5 62.5q0 83 -45.5 124.5t-134.5 41.5h-10
q-75 0 -128.5 -28.5t-89 -88.5t-56.5 -157l-16 -71q-7 -31 -12.5 -68.5t-5.5 -63.5q0 -83 46 -124.5t134 -41.5h11q74 0 127.5 28.5t90 89t56.5 156.5l15 71q8 34 13 69.5zM430.5 798q-7.5 -4 -14.5 -4h-12q-11 0 -11 9q0 5 3 10.5t10 14.5l100 109q14 15 22 20t22 5h32
q19 0 19 -10t-30 -34l-122 -106q-11 -10 -18.5 -14z" />
    <glyph glyph-name="Ocircumflex" unicode="&#xd4;" horiz-adv-x="697" 
d="M183 659q80 86 225 86h20q72 0 124 -26t80 -75t28 -116q0 -57 -17 -132l-16 -79q-33 -158 -113.5 -244.5t-224.5 -86.5h-21q-71 0 -123.5 26.5t-80 75t-27.5 115.5q0 33 4 63t12 70l17 79q33 158 113 244zM592 458.5q5 35.5 5 62.5q0 83 -45.5 124.5t-134.5 41.5h-10
q-75 0 -128.5 -28.5t-89 -88.5t-56.5 -157l-16 -71q-7 -31 -12.5 -68.5t-5.5 -63.5q0 -83 46 -124.5t134 -41.5h11q74 0 127.5 28.5t90 89t56.5 156.5l15 71q8 34 13 69.5zM428.5 954.5q7.5 4.5 17.5 4.5h29q11 0 16 -4.5t13 -17.5l71 -104q5 -7 10 -15.5t5 -13.5
q0 -10 -13 -10h-8q-7 0 -13.5 4t-14.5 14l-84 96l-129 -96q-14 -10 -22 -14t-16 -4h-9q-14 0 -14 8q0 9 25 31l115 104q14 13 21.5 17.5z" />
    <glyph glyph-name="Otilde" unicode="&#xd5;" horiz-adv-x="697" 
d="M183 659q80 86 225 86h20q72 0 124 -26t80 -75t28 -116q0 -57 -17 -132l-16 -79q-33 -158 -113.5 -244.5t-224.5 -86.5h-21q-71 0 -123.5 26.5t-80 75t-27.5 115.5q0 33 4 63t12 70l17 79q33 158 113 244zM592 458.5q5 35.5 5 62.5q0 83 -45.5 124.5t-134.5 41.5h-10
q-75 0 -128.5 -28.5t-89 -88.5t-56.5 -157l-16 -71q-7 -31 -12.5 -68.5t-5.5 -63.5q0 -83 46 -124.5t134 -41.5h11q74 0 127.5 28.5t90 89t56.5 156.5l15 71q8 34 13 69.5zM382.5 872.5q-11.5 4.5 -25.5 4.5q-21 0 -37.5 -13.5t-27.5 -37.5q-4 -11 -9 -16.5t-13 -5.5h-12
q-13 0 -13 11q0 20 13.5 46.5t40.5 46.5t65 20q23 0 40 -6t37 -19l33 -20q17 -11 28 -15t26 -4q21 0 37.5 13.5t27.5 36.5q4 11 9.5 16.5t13.5 5.5h12q5 0 8 -2.5t3 -7.5q0 -20 -14 -47.5t-39.5 -47t-59.5 -19.5q-22 0 -41.5 6.5t-38.5 18.5l-34 21q-18 10 -29.5 14.5z" />
    <glyph glyph-name="Odieresis" unicode="&#xd6;" horiz-adv-x="697" 
d="M183 659q80 86 225 86h20q72 0 124 -26t80 -75t28 -116q0 -57 -17 -132l-16 -79q-33 -158 -113.5 -244.5t-224.5 -86.5h-21q-71 0 -123.5 26.5t-80 75t-27.5 115.5q0 33 4 63t12 70l17 79q33 158 113 244zM592 458.5q5 35.5 5 62.5q0 83 -45.5 124.5t-134.5 41.5h-10
q-75 0 -128.5 -28.5t-89 -88.5t-56.5 -157l-16 -71q-7 -31 -12.5 -68.5t-5.5 -63.5q0 -83 46 -124.5t134 -41.5h11q74 0 127.5 28.5t90 89t56.5 156.5l15 71q8 34 13 69.5zM298 818q-4 3 -4 9q0 5 3 18l10 47q2 11 7.5 16t17.5 5h31q9 0 13 -3.5t4 -9.5q0 -5 -3 -19l-10 -46
q-2 -11 -7.5 -15.5t-17.5 -4.5h-31q-9 0 -13 3zM504 818q-4 3 -4 9t3 19l10 46q2 11 7.5 16t17.5 5h31q9 0 13 -3.5t4 -9.5q0 -4 -4 -22l-9 -43q-2 -11 -7.5 -15.5t-17.5 -4.5h-31q-9 0 -13 3z" />
    <glyph glyph-name="multiply" unicode="&#xd7;" horiz-adv-x="611" 
d="M518 206q9 -9 9 -14q0 -6 -8 -14l-12 -12q-9 -9 -14 -9q-3 0 -7 3t-8 7l-162 162l-163 -162q-9 -9 -14 -9q-7 0 -15 8l-11 12q-8 8 -8 14q0 5 9 14l162 163l-162 162q-4 4 -7 8t-3 7t3.5 8t5.5 7l11 11q10 8 14 8t7.5 -2.5t7.5 -6.5l163 -163l162 163q4 4 7.5 6.5
t7.5 2.5q6 0 14 -8l11 -12q9 -9 9 -14q0 -3 -2 -6t-4 -5.5t-3 -3.5l-163 -162z" />
    <glyph glyph-name="Oslash" unicode="&#xd8;" horiz-adv-x="697" 
d="M183 659q80 86 225 86h20q63 0 111 -20.5t78 -59.5l78 74q9 9 15 9t14 -8l12 -13q5 -5 5 -11t-9 -14l-88 -85q16 -42 16 -89q0 -57 -17 -132l-16 -79q-33 -158 -113.5 -244.5t-224.5 -86.5h-21q-67 0 -117.5 23t-78.5 66l-86 -80q-9 -9 -15 -9t-13 8l-12 13
q-3 3 -4.5 5.5t-1.5 5.5q0 5 10 15l99 92q-12 35 -12 78q0 33 4 63t12 70l17 79q33 158 113 244zM510.5 670.5q-38.5 16.5 -93.5 16.5h-10q-75 0 -128.5 -28.5t-89 -88.5t-56.5 -157l-16 -71q-16 -78 -18 -123q0 -22 5 -44l466 447q-21 32 -59.5 48.5zM592 458.5
q5 35.5 5 62.5q0 31 -6 49l-472 -452q42 -74 160 -74h11q74 0 127.5 28.5t90 89t56.5 156.5l15 71q8 34 13 69.5z" />
    <glyph glyph-name="Ugrave" unicode="&#xd9;" horiz-adv-x="690" 
d="M480.5 60q-72.5 -74 -206.5 -74h-4q-109 0 -162 51t-53 143q0 31 12 95l93 435q2 13 6.5 17t18.5 4h19q11 0 15 -2t4 -7q0 -3 -3 -17l-92 -427l-4.5 -22.5t-5.5 -36t-2 -37.5q0 -71 41 -104.5t123 -33.5q94 0 155.5 53.5t85.5 167.5l94 445q2 13 6.5 17t18.5 4h19
q11 0 15 -1.5t4 -7.5l-2 -17l-97 -453q-26 -118 -98.5 -192zM327 949q0 6 5.5 9.5t15.5 3.5h22q13 0 19 -4.5t14 -20.5l57 -109q1 -4 4 -11t3 -12q0 -11 -13 -11h-5q-8 0 -14 4.5t-12 12.5l-78 106q-18 24 -18 32z" />
    <glyph glyph-name="Uacute" unicode="&#xda;" horiz-adv-x="690" 
d="M480.5 60q-72.5 -74 -206.5 -74h-4q-109 0 -162 51t-53 143q0 31 12 95l93 435q2 13 6.5 17t18.5 4h19q11 0 15 -2t4 -7q0 -3 -3 -17l-92 -427l-4.5 -22.5t-5.5 -36t-2 -37.5q0 -71 41 -104.5t123 -33.5q94 0 155.5 53.5t85.5 167.5l94 445q2 13 6.5 17t18.5 4h19
q11 0 15 -1.5t4 -7.5l-2 -17l-97 -453q-26 -118 -98.5 -192zM435.5 798q-7.5 -4 -14.5 -4h-12q-11 0 -11 9q0 5 3 10.5t10 14.5l100 109q14 15 22 20t22 5h32q19 0 19 -10t-30 -34l-122 -106q-11 -10 -18.5 -14z" />
    <glyph glyph-name="Ucircumflex" unicode="&#xdb;" horiz-adv-x="690" 
d="M480.5 60q-72.5 -74 -206.5 -74h-4q-109 0 -162 51t-53 143q0 31 12 95l93 435q2 13 6.5 17t18.5 4h19q11 0 15 -2t4 -7q0 -3 -3 -17l-92 -427l-4.5 -22.5t-5.5 -36t-2 -37.5q0 -71 41 -104.5t123 -33.5q94 0 155.5 53.5t85.5 167.5l94 445q2 13 6.5 17t18.5 4h19
q11 0 15 -1.5t4 -7.5l-2 -17l-97 -453q-26 -118 -98.5 -192zM429.5 954.5q7.5 4.5 17.5 4.5h29q11 0 16 -4.5t13 -17.5l71 -104q5 -7 10 -15.5t5 -13.5q0 -10 -13 -10h-8q-7 0 -13.5 4t-14.5 14l-84 96l-129 -96q-14 -10 -22 -14t-16 -4h-9q-14 0 -14 8q0 9 25 31l115 104
q14 13 21.5 17.5z" />
    <glyph glyph-name="Udieresis" unicode="&#xdc;" horiz-adv-x="690" 
d="M480.5 60q-72.5 -74 -206.5 -74h-4q-109 0 -162 51t-53 143q0 31 12 95l93 435q2 13 6.5 17t18.5 4h19q11 0 15 -2t4 -7q0 -3 -3 -17l-92 -427l-4.5 -22.5t-5.5 -36t-2 -37.5q0 -71 41 -104.5t123 -33.5q94 0 155.5 53.5t85.5 167.5l94 445q2 13 6.5 17t18.5 4h19
q11 0 15 -1.5t4 -7.5l-2 -17l-97 -453q-26 -118 -98.5 -192zM301 818q-4 3 -4 9q0 5 3 18l10 47q2 11 7.5 16t17.5 5h31q9 0 13 -3.5t4 -9.5q0 -5 -3 -19l-10 -46q-2 -11 -7.5 -15.5t-17.5 -4.5h-31q-9 0 -13 3zM507 818q-4 3 -4 9t3 19l10 46q2 11 7.5 16t17.5 5h31
q9 0 13 -3.5t4 -9.5q0 -4 -4 -22l-9 -43q-2 -11 -7.5 -15.5t-17.5 -4.5h-31q-9 0 -13 3z" />
    <glyph glyph-name="Yacute" unicode="&#xdd;" horiz-adv-x="536" 
d="M80 718q0 7 5 10t15 3h20q10 0 15.5 -3.5t8.5 -13.5l87 -298q16 -53 23 -88h2q24 38 63 94l208 292q7 9 13.5 13t16.5 4h27q9 0 13.5 -2t4.5 -6q0 -5 -6 -14t-13 -19l-296 -405q-6 -7 -8 -12.5t-4 -14.5l-51 -239q-3 -11 -7.5 -15t-16.5 -4h-21q-10 0 -14 2t-4 8
q0 7 4 21l48 225q1 5 1 13q0 11 -3 16l-124 407q-7 18 -7 26zM357.5 798q-7.5 -4 -14.5 -4h-12q-11 0 -11 9q0 5 3 10.5t10 14.5l100 109q14 15 22 20t22 5h32q19 0 19 -10t-30 -34l-122 -106q-11 -10 -18.5 -14z" />
    <glyph glyph-name="Thorn" unicode="&#xde;" horiz-adv-x="626" 
d="M535 545.5q49 -42.5 49 -116.5q0 -68 -26.5 -127.5t-91.5 -98.5t-173 -39h-180l-30 -143q-2 -13 -7 -17t-18 -4h-19q-10 0 -14 2.5t-4 9.5q0 10 3 20l143 677q3 14 7.5 18t17.5 4h20q11 0 14.5 -2t3.5 -9l-2 -15l-25 -117h175q108 0 157 -42.5zM430.5 251
q48.5 29 69.5 75t21 98q0 37 -14 60t-47.5 34.5t-92.5 11.5h-176l-65 -308h177q79 0 127.5 29z" />
    <glyph glyph-name="germandbls" unicode="&#xdf;" horiz-adv-x="583" 
d="M443 478l-14 -8q-47 -27 -66.5 -48.5t-19.5 -44.5q0 -18 12 -29.5t42 -29.5q10 -5 25 -15q42 -27 64.5 -63.5t22.5 -73.5q0 -51 -21.5 -90.5t-63.5 -62t-102 -22.5q-33 0 -65.5 6t-54.5 15q-15 6 -21 11t-6 10q0 4 2.5 9.5t6.5 11.5q9 16 19 16q5 0 22 -7
q16 -6 43.5 -11.5t50.5 -5.5q47 0 76 16.5t42 42t13 55.5q0 31 -20 56t-55 47q-36 22 -52.5 33.5t-29.5 31t-13 47.5q0 42 24 71.5t73 58.5l14 9q34 19 52.5 33.5t28.5 33t10 44.5q0 31 -24.5 50.5t-71.5 19.5q-92 0 -143.5 -58.5t-77.5 -174.5l-92 -432q-4 -19 -8 -24.5
t-17 -5.5h-20q-9 0 -13 2.5t-4 9.5q0 6 4 19l95 451q57 268 275 268q51 0 86.5 -16.5t53 -44.5t17.5 -63q0 -97 -99 -148z" />
    <glyph glyph-name="agrave" unicode="&#xe0;" horiz-adv-x="531" 
d="M398 426q0 43 -26 64t-87 21q-33 0 -64 -5.5t-68 -18.5q-22 -8 -29 -8q-11 0 -14 17q-3 12 -3 20t9.5 13.5t34.5 14.5q66 21 141 21q89 0 126.5 -35t37.5 -97q0 -17 -2.5 -36t-6.5 -39l-39 -184q-11 -49 -11 -79q0 -35 9 -56q2 -3 5.5 -10t3.5 -11q0 -5 -3 -7.5t-9 -5.5
l-17 -9q-2 -1 -7.5 -3.5t-9.5 -2.5q-10 0 -19 22.5t-11 49.5q0 14 1 22h-2q-40 -46 -86 -70.5t-110 -24.5q-44 0 -76.5 17t-49.5 47.5t-17 70.5q0 106 87 159t245 53h53l7 38q7 32 7 52zM134.5 247.5q-74.5 -36.5 -74.5 -117.5q0 -43 25.5 -65t74.5 -22q44 0 84 19t71 60.5
t45 106.5l13 55h-36q-128 0 -202.5 -36.5zM205 783q-5 8 -5 13q0 7 6 10.5t18 3.5h23q11 0 16 -4.5t15 -20.5l76 -131q8 -16 8 -23q0 -5 -4.5 -8t-12.5 -3h-5q-7 0 -12.5 4.5t-13.5 14.5l-96 126q-8 10 -13 18z" />
    <glyph glyph-name="aacute" unicode="&#xe1;" horiz-adv-x="531" 
d="M398 426q0 43 -26 64t-87 21q-33 0 -64 -5.5t-68 -18.5q-22 -8 -29 -8q-11 0 -14 17q-3 12 -3 20t9.5 13.5t34.5 14.5q66 21 141 21q89 0 126.5 -35t37.5 -97q0 -17 -2.5 -36t-6.5 -39l-39 -184q-11 -49 -11 -79q0 -35 9 -56q2 -3 5.5 -10t3.5 -11q0 -5 -3 -7.5t-9 -5.5
l-17 -9q-2 -1 -7.5 -3.5t-9.5 -2.5q-10 0 -19 22.5t-11 49.5q0 14 1 22h-2q-40 -46 -86 -70.5t-110 -24.5q-44 0 -76.5 17t-49.5 47.5t-17 70.5q0 106 87 159t245 53h53l7 38q7 32 7 52zM134.5 247.5q-74.5 -36.5 -74.5 -117.5q0 -43 25.5 -65t74.5 -22q44 0 84 19t71 60.5
t45 106.5l13 55h-36q-128 0 -202.5 -36.5zM294.5 625q-8.5 -5 -18.5 -5h-6q-7 0 -11 2.5t-4 7.5t4.5 11.5t11.5 14.5l124 128q17 17 25 21.5t23 4.5h27q11 0 16 -2.5t5 -8.5q1 -6 -6 -13.5t-24 -21.5l-148 -125q-10 -9 -18.5 -14z" />
    <glyph glyph-name="acircumflex" unicode="&#xe2;" horiz-adv-x="531" 
d="M398 426q0 43 -26 64t-87 21q-33 0 -64 -5.5t-68 -18.5q-22 -8 -29 -8q-11 0 -14 17q-3 12 -3 20t9.5 13.5t34.5 14.5q66 21 141 21q89 0 126.5 -35t37.5 -97q0 -17 -2.5 -36t-6.5 -39l-39 -184q-11 -49 -11 -79q0 -35 9 -56q2 -3 5.5 -10t3.5 -11q0 -5 -3 -7.5t-9 -5.5
l-17 -9q-2 -1 -7.5 -3.5t-9.5 -2.5q-10 0 -19 22.5t-11 49.5q0 14 1 22h-2q-40 -46 -86 -70.5t-110 -24.5q-44 0 -76.5 17t-49.5 47.5t-17 70.5q0 106 87 159t245 53h53l7 38q7 32 7 52zM134.5 247.5q-74.5 -36.5 -74.5 -117.5q0 -43 25.5 -65t74.5 -22q44 0 84 19t71 60.5
t45 106.5l13 55h-36q-128 0 -202.5 -36.5zM311 804q7 5 16 5h35q9 0 13.5 -5t11.5 -19l71 -123q2 -4 5.5 -9.5t6.5 -11.5t3 -10q0 -5 -4 -8t-10 -3h-9q-7 0 -13.5 4.5t-14.5 16.5l-81 116l-135 -118q-13 -11 -20 -15t-13 -4h-14q-5 0 -8 3t-3 7q0 5 5.5 12t10 12t7.5 8
l120 123q13 14 20 19z" />
    <glyph glyph-name="atilde" unicode="&#xe3;" horiz-adv-x="531" 
d="M398 426q0 43 -26 64t-87 21q-33 0 -64 -5.5t-68 -18.5q-22 -8 -29 -8q-11 0 -14 17q-3 12 -3 20t9.5 13.5t34.5 14.5q66 21 141 21q89 0 126.5 -35t37.5 -97q0 -17 -2.5 -36t-6.5 -39l-39 -184q-11 -49 -11 -79q0 -35 9 -56q2 -3 5.5 -10t3.5 -11q0 -5 -3 -7.5t-9 -5.5
l-17 -9q-2 -1 -7.5 -3.5t-9.5 -2.5q-10 0 -19 22.5t-11 49.5q0 14 1 22h-2q-40 -46 -86 -70.5t-110 -24.5q-44 0 -76.5 17t-49.5 47.5t-17 70.5q0 106 87 159t245 53h53l7 38q7 32 7 52zM134.5 247.5q-74.5 -36.5 -74.5 -117.5q0 -43 25.5 -65t74.5 -22q44 0 84 19t71 60.5
t45 106.5l13 55h-36q-128 0 -202.5 -36.5zM261 698.5q-12 4.5 -26 4.5q-41 0 -64 -50q-4 -11 -9 -16.5t-13 -5.5h-12q-13 0 -13 10q0 20 13.5 47t40 47t63.5 20q23 0 39 -6t38 -19l33 -20q18 -11 29 -15.5t25 -4.5q39 0 62 51q5 12 10 17t13 5h13q5 0 8 -2.5t3 -7.5
q0 -20 -13.5 -47.5t-39 -47t-59.5 -19.5q-22 0 -41 6t-39 19l-34 20q-15 10 -27 14.5z" />
    <glyph glyph-name="adieresis" unicode="&#xe4;" horiz-adv-x="531" 
d="M398 426q0 43 -26 64t-87 21q-33 0 -64 -5.5t-68 -18.5q-22 -8 -29 -8q-11 0 -14 17q-3 12 -3 20t9.5 13.5t34.5 14.5q66 21 141 21q89 0 126.5 -35t37.5 -97q0 -17 -2.5 -36t-6.5 -39l-39 -184q-11 -49 -11 -79q0 -35 9 -56q2 -3 5.5 -10t3.5 -11q0 -5 -3 -7.5t-9 -5.5
l-17 -9q-2 -1 -7.5 -3.5t-9.5 -2.5q-10 0 -19 22.5t-11 49.5q0 14 1 22h-2q-40 -46 -86 -70.5t-110 -24.5q-44 0 -76.5 17t-49.5 47.5t-17 70.5q0 106 87 159t245 53h53l7 38q7 32 7 52zM134.5 247.5q-74.5 -36.5 -74.5 -117.5q0 -43 25.5 -65t74.5 -22q44 0 84 19t71 60.5
t45 106.5l13 55h-36q-128 0 -202.5 -36.5zM181 642q-4 2 -4 9q0 5 1 8.5t2 6.5l10 50q3 13 8 17t19 4h25q11 0 15 -2t4 -7q0 -6 -3 -21l-10 -46q-3 -13 -8 -17t-20 -4h-23q-12 0 -16 2zM376 642q-4 2 -4 9q0 5 2 15l11 50q3 13 8 17t19 4h25q11 0 15 -2t4 -7q0 -7 -3 -21
l-10 -46q-3 -13 -8 -17t-20 -4h-23q-12 0 -16 2z" />
    <glyph glyph-name="aring" unicode="&#xe5;" horiz-adv-x="531" 
d="M398 426q0 43 -26 64t-87 21q-33 0 -64 -5.5t-68 -18.5q-22 -8 -29 -8q-11 0 -14 17q-3 12 -3 20t9.5 13.5t34.5 14.5q66 21 141 21q89 0 126.5 -35t37.5 -97q0 -17 -2.5 -36t-6.5 -39l-39 -184q-11 -49 -11 -79q0 -35 9 -56q2 -3 5.5 -10t3.5 -11q0 -5 -3 -7.5t-9 -5.5
l-17 -9q-2 -1 -7.5 -3.5t-9.5 -2.5q-10 0 -19 22.5t-11 49.5q0 14 1 22h-2q-40 -46 -86 -70.5t-110 -24.5q-44 0 -76.5 17t-49.5 47.5t-17 70.5q0 106 87 159t245 53h53l7 38q7 32 7 52zM134.5 247.5q-74.5 -36.5 -74.5 -117.5q0 -43 25.5 -65t74.5 -22q44 0 84 19t71 60.5
t45 106.5l13 55h-36q-128 0 -202.5 -36.5zM235 779q15 25 41 40t57 15q30 0 55.5 -15t40.5 -40.5t15 -55.5q0 -31 -15 -57t-40.5 -41t-56.5 -15t-56.5 15t-40.5 41t-15 57t15 56zM271.5 688q9.5 -16 25.5 -25.5t35 -9.5t35 9.5t25.5 25.5t9.5 35q0 18 -9.5 33.5t-25.5 25
t-35 9.5t-35 -9.5t-25.5 -25t-9.5 -33.5q0 -19 9.5 -35z" />
    <glyph glyph-name="ae" unicode="&#xe6;" horiz-adv-x="868" 
d="M271.5 20q-54.5 -31 -126.5 -31q-45 0 -78 17t-50.5 47.5t-17.5 70.5q0 72 41 117t108 64.5t150 19.5h83l10 47q7 33 7 55q0 43 -26 63.5t-87 20.5q-34 0 -64.5 -5.5t-67.5 -18.5q-2 -1 -12 -4.5t-17 -3.5q-6 0 -9 4t-5 14q-3 12 -3 19q0 8 8.5 13.5t35.5 14.5
q66 21 140 21q72 0 109.5 -28t45.5 -73q33 49 84.5 75t112.5 26q85 0 129.5 -39.5t44.5 -110.5q0 -33 -10 -78l-7 -37q-3 -13 -6 -19t-9 -8t-17 -2h-338l-7 -32q-10 -43 -10 -76q0 -58 37.5 -88.5t104.5 -30.5q74 0 144 34q5 2 15 7t15 5q9 0 16 -15q5 -12 5 -20
q0 -11 -22 -23q-33 -19 -79.5 -31t-101.5 -12q-77 0 -124 32t-60 87q-37 -57 -91.5 -88zM515 463q-49 -47 -71 -130l-2 -8h301l8 33q6 39 6 57q0 95 -119 95q-74 0 -123 -47zM176.5 259.5q-52.5 -14.5 -84.5 -47t-32 -82.5q0 -43 25.5 -65t72.5 -22q49 0 90.5 22t70.5 64
t42 102l9 43h-78q-63 0 -115.5 -14.5z" />
    <glyph glyph-name="ccedilla" unicode="&#xe7;" horiz-adv-x="484" 
d="M463 502q-1 -6 -4.5 -11t-7.5 -10t-8.5 -9t-7.5 -4q-4 0 -9 2.5t-11 6.5t-13 8q-23 13 -47.5 19t-56.5 6q-73 0 -121 -44t-71 -151l-13 -63q-7 -30 -10 -49t-3 -41q0 -62 31.5 -90t94.5 -28q26 0 51 6t54 19q13 6 23 11.5t20 11.5t15 6q8 0 16 -14q6 -12 6 -20
q0 -6 -5.5 -12t-16.5 -14q-32 -21 -73 -34.5t-85 -14.5l-40 -54q7 4 17.5 6t19.5 2q35 0 55.5 -20.5t20.5 -55.5q0 -37 -18.5 -64t-51.5 -41t-76 -14q-26 0 -51.5 6t-41.5 15t-16 17q0 5 6 13l6 7q4 5 6.5 6.5t5.5 1.5t16 -6t30 -10t42 -4q41 0 64.5 17.5t23.5 48.5
q0 17 -10.5 28t-32.5 11q-14 0 -23.5 -3.5t-19.5 -9.5q-12 -7 -19 -7t-16.5 5.5t-9.5 12.5q0 4 3.5 9.5t6.5 9.5t5 7l49 68q-69 9 -106 51.5t-37 113.5q0 37 11 92l18 85q25 116 87.5 173.5t164.5 57.5q85 0 144 -39q19 -12 19 -23z" />
    <glyph glyph-name="egrave" unicode="&#xe8;" horiz-adv-x="536" 
d="M439.5 526q44.5 -39 44.5 -111q0 -33 -10 -78l-7 -37q-3 -13 -6 -19t-9 -8t-17 -2h-338l-7 -32q-10 -43 -10 -76q0 -58 37 -88.5t105 -30.5q73 0 143 34q5 2 15 7t16 5q5 0 8.5 -3.5t6.5 -11.5q5 -12 5 -20q-1 -7 -6 -12t-16 -11q-33 -19 -79.5 -31t-101.5 -12
q-64 0 -107.5 21.5t-65 60t-21.5 90.5q0 34 10 84l18 80q16 74 51.5 128t88.5 83t120 29q88 0 132.5 -39zM182 463q-49 -47 -71 -130l-2 -8h301l7 33q3 12 5 28t2 29q0 95 -119 95q-74 0 -123 -47zM198 783q-5 8 -5 13q0 7 6 10.5t18 3.5h23q11 0 16 -4.5t15 -20.5l76 -131
q8 -16 8 -23q0 -5 -4.5 -8t-12.5 -3h-5q-7 0 -12.5 4.5t-13.5 14.5l-96 126q-8 10 -13 18z" />
    <glyph glyph-name="eacute" unicode="&#xe9;" horiz-adv-x="536" 
d="M439.5 526q44.5 -39 44.5 -111q0 -33 -10 -78l-7 -37q-3 -13 -6 -19t-9 -8t-17 -2h-338l-7 -32q-10 -43 -10 -76q0 -58 37 -88.5t105 -30.5q73 0 143 34q5 2 15 7t16 5q5 0 8.5 -3.5t6.5 -11.5q5 -12 5 -20q-1 -7 -6 -12t-16 -11q-33 -19 -79.5 -31t-101.5 -12
q-64 0 -107.5 21.5t-65 60t-21.5 90.5q0 34 10 84l18 80q16 74 51.5 128t88.5 83t120 29q88 0 132.5 -39zM182 463q-49 -47 -71 -130l-2 -8h301l7 33q3 12 5 28t2 29q0 95 -119 95q-74 0 -123 -47zM318.5 625q-8.5 -5 -18.5 -5h-6q-7 0 -11 2.5t-4 7.5t4.5 11.5t11.5 14.5
l124 128q17 17 25 21.5t23 4.5h27q11 0 16 -2.5t5 -8.5q1 -6 -6 -13.5t-24 -21.5l-148 -125q-10 -9 -18.5 -14z" />
    <glyph glyph-name="ecircumflex" unicode="&#xea;" horiz-adv-x="536" 
d="M439.5 526q44.5 -39 44.5 -111q0 -33 -10 -78l-7 -37q-3 -13 -6 -19t-9 -8t-17 -2h-338l-7 -32q-10 -43 -10 -76q0 -58 37 -88.5t105 -30.5q73 0 143 34q5 2 15 7t16 5q5 0 8.5 -3.5t6.5 -11.5q5 -12 5 -20q-1 -7 -6 -12t-16 -11q-33 -19 -79.5 -31t-101.5 -12
q-64 0 -107.5 21.5t-65 60t-21.5 90.5q0 34 10 84l18 80q16 74 51.5 128t88.5 83t120 29q88 0 132.5 -39zM182 463q-49 -47 -71 -130l-2 -8h301l7 33q3 12 5 28t2 29q0 95 -119 95q-74 0 -123 -47zM322 804q7 5 16 5h35q9 0 13.5 -5t11.5 -19l71 -123q2 -4 5.5 -9.5
t6.5 -11.5t3 -10q0 -5 -4 -8t-10 -3h-9q-7 0 -13.5 4.5t-14.5 16.5l-81 116l-135 -118q-13 -11 -20 -15t-13 -4h-14q-5 0 -8 3t-3 7q0 5 5.5 12t10 12t7.5 8l120 123q13 14 20 19z" />
    <glyph glyph-name="edieresis" unicode="&#xeb;" horiz-adv-x="536" 
d="M439.5 526q44.5 -39 44.5 -111q0 -33 -10 -78l-7 -37q-3 -13 -6 -19t-9 -8t-17 -2h-338l-7 -32q-10 -43 -10 -76q0 -58 37 -88.5t105 -30.5q73 0 143 34q5 2 15 7t16 5q5 0 8.5 -3.5t6.5 -11.5q5 -12 5 -20q-1 -7 -6 -12t-16 -11q-33 -19 -79.5 -31t-101.5 -12
q-64 0 -107.5 21.5t-65 60t-21.5 90.5q0 34 10 84l18 80q16 74 51.5 128t88.5 83t120 29q88 0 132.5 -39zM182 463q-49 -47 -71 -130l-2 -8h301l7 33q3 12 5 28t2 29q0 95 -119 95q-74 0 -123 -47zM200 642q-4 2 -4 9q0 5 1 8.5t2 6.5l10 50q3 13 8 17t19 4h25q11 0 15 -2
t4 -7q0 -6 -3 -21l-10 -46q-3 -13 -8 -17t-20 -4h-23q-12 0 -16 2zM395 642q-4 2 -4 9q0 5 2 15l11 50q3 13 8 17t19 4h25q11 0 15 -2t4 -7q0 -7 -3 -21l-10 -46q-3 -13 -8 -17t-20 -4h-23q-12 0 -16 2z" />
    <glyph glyph-name="igrave" unicode="&#xec;" horiz-adv-x="240" 
d="M18.5 2q-4.5 2 -4.5 8q0 4 1.5 9.5t2.5 10.5l106 503q3 13 7.5 16.5t17.5 3.5h18q11 0 14.5 -2t3.5 -8q0 -4 -3 -15l-107 -507q-3 -13 -7.5 -17t-16.5 -4h-19q-9 0 -13.5 2zM64 783q-5 8 -5 13q0 7 6 10.5t18 3.5h23q11 0 16 -4.5t15 -20.5l76 -131q8 -16 8 -23
q0 -5 -4.5 -8t-12.5 -3h-5q-7 0 -12.5 4.5t-13.5 14.5l-96 126q-8 10 -13 18z" />
    <glyph glyph-name="iacute" unicode="&#xed;" horiz-adv-x="240" 
d="M18.5 2q-4.5 2 -4.5 8q0 4 1.5 9.5t2.5 10.5l106 503q3 13 7.5 16.5t17.5 3.5h18q11 0 14.5 -2t3.5 -8q0 -4 -3 -15l-107 -507q-3 -13 -7.5 -17t-16.5 -4h-19q-9 0 -13.5 2zM160.5 625q-8.5 -5 -18.5 -5h-6q-7 0 -11 2.5t-4 7.5t4.5 11.5t11.5 14.5l124 128
q17 17 25 21.5t23 4.5h27q11 0 16 -2.5t5 -8.5q1 -6 -6 -13.5t-24 -21.5l-148 -125q-10 -9 -18.5 -14z" />
    <glyph glyph-name="icircumflex" unicode="&#xee;" horiz-adv-x="240" 
d="M18.5 2q-4.5 2 -4.5 8q0 4 1.5 9.5t2.5 10.5l106 503q3 13 7.5 16.5t17.5 3.5h18q11 0 14.5 -2t3.5 -8q0 -4 -3 -15l-107 -507q-3 -13 -7.5 -17t-16.5 -4h-19q-9 0 -13.5 2zM171 804q7 5 16 5h35q9 0 13.5 -5t11.5 -19l71 -123q2 -4 5.5 -9.5t6.5 -11.5t3 -10q0 -5 -4 -8
t-10 -3h-9q-7 0 -13.5 4.5t-14.5 16.5l-81 116l-135 -118q-13 -11 -20 -15t-13 -4h-14q-5 0 -8 3t-3 7q0 5 5.5 12t10 12t7.5 8l120 123q13 14 20 19z" />
    <glyph glyph-name="idieresis" unicode="&#xef;" horiz-adv-x="240" 
d="M18.5 2q-4.5 2 -4.5 8q0 4 1.5 9.5t2.5 10.5l106 503q3 13 7.5 16.5t17.5 3.5h18q11 0 14.5 -2t3.5 -8q0 -4 -3 -15l-107 -507q-3 -13 -7.5 -17t-16.5 -4h-19q-9 0 -13.5 2zM49 642q-4 2 -4 9q0 5 1 8.5t2 6.5l10 50q3 13 8 17t19 4h25q11 0 15 -2t4 -7q0 -6 -3 -21
l-10 -46q-3 -13 -8 -17t-20 -4h-23q-12 0 -16 2zM244 642q-4 2 -4 9q0 5 2 15l11 50q3 13 8 17t19 4h25q11 0 15 -2t4 -7q0 -7 -3 -21l-10 -46q-3 -13 -8 -17t-20 -4h-23q-12 0 -16 2z" />
    <glyph glyph-name="eth" unicode="&#xf0;" horiz-adv-x="555" 
d="M465.5 547.5q16.5 -38.5 22.5 -74t6 -78.5q0 -26 -3.5 -58.5t-8.5 -57.5l-11 -48q-26 -120 -88.5 -181t-171.5 -61h-9q-92 0 -137.5 45t-45.5 123q0 42 12 93l10 44q51 236 253 236h6q37 0 70.5 -12t55.5 -35h2q-12 57 -63 127l-117 -44q-11 -4 -15 -4q-3 0 -6 4t-6 10
l-3 8q-1 2 -2.5 6t-1.5 6q0 5 3.5 8t12.5 6l104 39l-41 42q-5 4 -15 13t-14.5 14t-4.5 9q0 10 20 10h21q15 0 25.5 -6t27.5 -24q19 -17 35 -37l112 42q8 3 14 3q4 0 6.5 -3t4.5 -11l4 -9q3 -7 3 -13q0 -4 -3 -6.5t-11 -5.5l-100 -36q31 -45 47.5 -83.5zM431 360
q0 58 -31.5 86.5t-96.5 28.5h-8q-87 0 -132.5 -53.5t-66.5 -151.5l-3 -17q-13 -58 -13 -97q0 -56 31 -84t96 -28h8q87 0 132.5 52.5t65.5 149.5l6 26q12 55 12 88z" />
    <glyph glyph-name="ntilde" unicode="&#xf1;" horiz-adv-x="586" 
d="M131 549.5q4 3.5 16 3.5h9q11 0 14.5 -3.5t3.5 -16.5l-3 -42h2q47 34 97.5 54t100.5 20q71 0 104.5 -34t33.5 -86q0 -22 -3 -43t-8 -45l-71 -336q-4 -14 -7.5 -17.5t-15.5 -3.5h-20q-11 0 -14.5 2t-3.5 8q0 7 2 17l72 338q4 18 7 37t3 32q0 38 -21.5 57t-68.5 19
q-42 0 -90.5 -20.5t-91.5 -53.5q-9 -6 -14 -13.5t-7 -19.5l-81 -382q-3 -13 -7 -17t-16 -4h-23q-9 0 -12.5 2t-3.5 8q0 5 1 9.5t2 9.5l107 503q3 14 7 17.5zM293 698.5q-12 4.5 -26 4.5q-41 0 -64 -50q-4 -11 -9 -16.5t-13 -5.5h-12q-13 0 -13 10q0 20 13.5 47t40 47
t63.5 20q23 0 39 -6t38 -19l33 -20q18 -11 29 -15.5t25 -4.5q39 0 62 51q5 12 10 17t13 5h13q5 0 8 -2.5t3 -7.5q0 -20 -13.5 -47.5t-39 -47t-59.5 -19.5q-22 0 -41 6t-39 19l-34 20q-15 10 -27 14.5z" />
    <glyph glyph-name="ograve" unicode="&#xf2;" horiz-adv-x="555" 
d="M133.5 502.5q62.5 62.5 173.5 62.5h8q92 0 137.5 -44.5t45.5 -119.5q0 -23 -3 -47.5t-10 -58.5l-14 -63q-25 -120 -87.5 -181.5t-172.5 -61.5h-9q-92 0 -137.5 45t-45.5 123q0 44 12 93l15 72q25 118 87.5 180.5zM434 352q3 24 3 43q0 58 -30.5 86.5t-95.5 28.5h-9
q-87 0 -132.5 -54t-66.5 -152l-10 -51q-13 -56 -13 -96q0 -56 31 -84.5t96 -28.5h7q88 0 134 54t66 152l12 57q5 21 8 45zM226 783q-5 8 -5 13q0 7 6 10.5t18 3.5h23q11 0 16 -4.5t15 -20.5l76 -131q8 -16 8 -23q0 -5 -4.5 -8t-12.5 -3h-5q-7 0 -12.5 4.5t-13.5 14.5
l-96 126q-8 10 -13 18z" />
    <glyph glyph-name="oacute" unicode="&#xf3;" horiz-adv-x="555" 
d="M133.5 502.5q62.5 62.5 173.5 62.5h8q92 0 137.5 -44.5t45.5 -119.5q0 -23 -3 -47.5t-10 -58.5l-14 -63q-25 -120 -87.5 -181.5t-172.5 -61.5h-9q-92 0 -137.5 45t-45.5 123q0 44 12 93l15 72q25 118 87.5 180.5zM434 352q3 24 3 43q0 58 -30.5 86.5t-95.5 28.5h-9
q-87 0 -132.5 -54t-66.5 -152l-10 -51q-13 -56 -13 -96q0 -56 31 -84.5t96 -28.5h7q88 0 134 54t66 152l12 57q5 21 8 45zM320.5 625q-8.5 -5 -18.5 -5h-6q-7 0 -11 2.5t-4 7.5t4.5 11.5t11.5 14.5l124 128q17 17 25 21.5t23 4.5h27q11 0 16 -2.5t5 -8.5q1 -6 -6 -13.5
t-24 -21.5l-148 -125q-10 -9 -18.5 -14z" />
    <glyph glyph-name="ocircumflex" unicode="&#xf4;" horiz-adv-x="555" 
d="M133.5 502.5q62.5 62.5 173.5 62.5h8q92 0 137.5 -44.5t45.5 -119.5q0 -23 -3 -47.5t-10 -58.5l-14 -63q-25 -120 -87.5 -181.5t-172.5 -61.5h-9q-92 0 -137.5 45t-45.5 123q0 44 12 93l15 72q25 118 87.5 180.5zM434 352q3 24 3 43q0 58 -30.5 86.5t-95.5 28.5h-9
q-87 0 -132.5 -54t-66.5 -152l-10 -51q-13 -56 -13 -96q0 -56 31 -84.5t96 -28.5h7q88 0 134 54t66 152l12 57q5 21 8 45zM329 804q7 5 16 5h35q9 0 13.5 -5t11.5 -19l71 -123q2 -4 5.5 -9.5t6.5 -11.5t3 -10q0 -5 -4 -8t-10 -3h-9q-7 0 -13.5 4.5t-14.5 16.5l-81 116
l-135 -118q-13 -11 -20 -15t-13 -4h-14q-5 0 -8 3t-3 7q0 5 5.5 12t10 12t7.5 8l120 123q13 14 20 19z" />
    <glyph glyph-name="otilde" unicode="&#xf5;" horiz-adv-x="555" 
d="M133.5 502.5q62.5 62.5 173.5 62.5h8q92 0 137.5 -44.5t45.5 -119.5q0 -23 -3 -47.5t-10 -58.5l-14 -63q-25 -120 -87.5 -181.5t-172.5 -61.5h-9q-92 0 -137.5 45t-45.5 123q0 44 12 93l15 72q25 118 87.5 180.5zM434 352q3 24 3 43q0 58 -30.5 86.5t-95.5 28.5h-9
q-87 0 -132.5 -54t-66.5 -152l-10 -51q-13 -56 -13 -96q0 -56 31 -84.5t96 -28.5h7q88 0 134 54t66 152l12 57q5 21 8 45zM278 698.5q-12 4.5 -26 4.5q-41 0 -64 -50q-4 -11 -9 -16.5t-13 -5.5h-12q-13 0 -13 10q0 20 13.5 47t40 47t63.5 20q23 0 39 -6t38 -19l33 -20
q18 -11 29 -15.5t25 -4.5q39 0 62 51q5 12 10 17t13 5h13q5 0 8 -2.5t3 -7.5q0 -20 -13.5 -47.5t-39 -47t-59.5 -19.5q-22 0 -41 6t-39 19l-34 20q-15 10 -27 14.5z" />
    <glyph glyph-name="odieresis" unicode="&#xf6;" horiz-adv-x="555" 
d="M133.5 502.5q62.5 62.5 173.5 62.5h8q92 0 137.5 -44.5t45.5 -119.5q0 -23 -3 -47.5t-10 -58.5l-14 -63q-25 -120 -87.5 -181.5t-172.5 -61.5h-9q-92 0 -137.5 45t-45.5 123q0 44 12 93l15 72q25 118 87.5 180.5zM434 352q3 24 3 43q0 58 -30.5 86.5t-95.5 28.5h-9
q-87 0 -132.5 -54t-66.5 -152l-10 -51q-13 -56 -13 -96q0 -56 31 -84.5t96 -28.5h7q88 0 134 54t66 152l12 57q5 21 8 45zM206 642q-4 2 -4 9q0 5 1 8.5t2 6.5l10 50q3 13 8 17t19 4h25q11 0 15 -2t4 -7q0 -6 -3 -21l-10 -46q-3 -13 -8 -17t-20 -4h-23q-12 0 -16 2zM401 642
q-4 2 -4 9q0 5 2 15l11 50q3 13 8 17t19 4h25q11 0 15 -2t4 -7q0 -7 -3 -21l-10 -46q-3 -13 -8 -17t-20 -4h-23q-12 0 -16 2z" />
    <glyph glyph-name="divide" unicode="&#xf7;" horiz-adv-x="611" 
d="M279.5 516q-4.5 4 -4.5 17v56q0 14 3.5 17.5t17.5 3.5h27q14 0 18 -3.5t4 -17.5v-56q0 -13 -4.5 -17t-18.5 -4h-24q-14 0 -18.5 4zM547 392.5q4 -3.5 4 -15.5v-16q0 -12 -4 -16t-16 -4h-442q-12 0 -16 3.5t-4 16.5v16q0 12 4 15.5t16 3.5h442q12 0 16 -3.5zM279.5 132
q-4.5 4 -4.5 17v55q0 14 3.5 17.5t17.5 3.5h27q14 0 18 -3.5t4 -17.5v-55q0 -13 -4.5 -17t-18.5 -4h-24q-14 0 -18.5 4z" />
    <glyph glyph-name="oslash" unicode="&#xf8;" horiz-adv-x="555" 
d="M497 400q0 -25 -3 -49t-9 -56l-14 -63q-25 -120 -87.5 -181.5t-172.5 -61.5h-9q-107 0 -150 63l-59 -54q-11 -10 -15 -9q-3 0 -6 2t-7 7l-6 6q-8 10 -8 14q0 3 4 6.5t6 6.5l69 64q-10 29 -10 64q0 46 11 91l15 72q25 118 87.5 180.5t173.5 62.5h8q107 0 151 -65l61 57
q11 9 14 9t6 -2.5t7 -7.5l6 -6q7 -9 7 -13t-2 -7t-7 -7l-70 -65q9 -27 9 -58zM383 500.5q-28 12.5 -72 12.5h-9q-88 0 -133.5 -54.5t-65.5 -152.5l-11 -51q-5 -21 -8.5 -43.5t-4.5 -44.5q0 -9 2 -23l344 318q-14 26 -42 38.5zM135 53q28 -12 71 -12h9q88 0 133.5 54.5
t66.5 153.5l11 57q11 42 12 80q0 6 -1.5 13t-1.5 9l-342 -318q14 -25 42 -37z" />
    <glyph glyph-name="ugrave" unicode="&#xf9;" horiz-adv-x="584" 
d="M412.5 3.5q-3.5 -3.5 -15.5 -3.5h-9q-12 0 -15.5 3.5t-3.5 16.5l2 40h-2q-99 -72 -198 -72q-68 0 -103.5 32.5t-35.5 91.5q0 30 10 76l74 344q3 14 7.5 17.5t18.5 3.5h18q10 0 13.5 -2t3.5 -8l-2 -14l-73 -339q-5 -19 -8 -39t-3 -30q0 -38 21.5 -58t70.5 -20
q42 0 91 19.5t91 51.5q10 7 14.5 14.5t6.5 18.5l82 385q3 13 7.5 17t18.5 4h19q9 0 12.5 -2t3.5 -8q0 -7 -2 -14l-108 -508q-3 -14 -6.5 -17.5zM227 783q-5 8 -5 13q0 7 6 10.5t18 3.5h23q11 0 16 -4.5t15 -20.5l76 -131q8 -16 8 -23q0 -5 -4.5 -8t-12.5 -3h-5
q-7 0 -12.5 4.5t-13.5 14.5l-96 126q-8 10 -13 18z" />
    <glyph glyph-name="uacute" unicode="&#xfa;" horiz-adv-x="584" 
d="M412.5 3.5q-3.5 -3.5 -15.5 -3.5h-9q-12 0 -15.5 3.5t-3.5 16.5l2 40h-2q-99 -72 -198 -72q-68 0 -103.5 32.5t-35.5 91.5q0 30 10 76l74 344q3 14 7.5 17.5t18.5 3.5h18q10 0 13.5 -2t3.5 -8l-2 -14l-73 -339q-5 -19 -8 -39t-3 -30q0 -38 21.5 -58t70.5 -20
q42 0 91 19.5t91 51.5q10 7 14.5 14.5t6.5 18.5l82 385q3 13 7.5 17t18.5 4h19q9 0 12.5 -2t3.5 -8q0 -7 -2 -14l-108 -508q-3 -14 -6.5 -17.5zM341.5 625q-8.5 -5 -18.5 -5h-6q-7 0 -11 2.5t-4 7.5t4.5 11.5t11.5 14.5l124 128q17 17 25 21.5t23 4.5h27q11 0 16 -2.5
t5 -8.5q1 -6 -6 -13.5t-24 -21.5l-148 -125q-10 -9 -18.5 -14z" />
    <glyph glyph-name="ucircumflex" unicode="&#xfb;" horiz-adv-x="584" 
d="M412.5 3.5q-3.5 -3.5 -15.5 -3.5h-9q-12 0 -15.5 3.5t-3.5 16.5l2 40h-2q-99 -72 -198 -72q-68 0 -103.5 32.5t-35.5 91.5q0 30 10 76l74 344q3 14 7.5 17.5t18.5 3.5h18q10 0 13.5 -2t3.5 -8l-2 -14l-73 -339q-5 -19 -8 -39t-3 -30q0 -38 21.5 -58t70.5 -20
q42 0 91 19.5t91 51.5q10 7 14.5 14.5t6.5 18.5l82 385q3 13 7.5 17t18.5 4h19q9 0 12.5 -2t3.5 -8q0 -7 -2 -14l-108 -508q-3 -14 -6.5 -17.5zM334 804q7 5 16 5h35q9 0 13.5 -5t11.5 -19l71 -123q2 -4 5.5 -9.5t6.5 -11.5t3 -10q0 -5 -4 -8t-10 -3h-9q-7 0 -13.5 4.5
t-14.5 16.5l-81 116l-135 -118q-13 -11 -20 -15t-13 -4h-14q-5 0 -8 3t-3 7q0 5 5.5 12t10 12t7.5 8l120 123q13 14 20 19z" />
    <glyph glyph-name="udieresis" unicode="&#xfc;" horiz-adv-x="584" 
d="M412.5 3.5q-3.5 -3.5 -15.5 -3.5h-9q-12 0 -15.5 3.5t-3.5 16.5l2 40h-2q-99 -72 -198 -72q-68 0 -103.5 32.5t-35.5 91.5q0 30 10 76l74 344q3 14 7.5 17.5t18.5 3.5h18q10 0 13.5 -2t3.5 -8l-2 -14l-73 -339q-5 -19 -8 -39t-3 -30q0 -38 21.5 -58t70.5 -20
q42 0 91 19.5t91 51.5q10 7 14.5 14.5t6.5 18.5l82 385q3 13 7.5 17t18.5 4h19q9 0 12.5 -2t3.5 -8q0 -7 -2 -14l-108 -508q-3 -14 -6.5 -17.5zM216 642q-4 2 -4 9q0 5 1 8.5t2 6.5l10 50q3 13 8 17t19 4h25q11 0 15 -2t4 -7q0 -6 -3 -21l-10 -46q-3 -13 -8 -17t-20 -4h-23
q-12 0 -16 2zM411 642q-4 2 -4 9q0 5 2 15l11 50q3 13 8 17t19 4h25q11 0 15 -2t4 -7q0 -7 -3 -21l-10 -46q-3 -13 -8 -17t-20 -4h-23q-12 0 -16 2z" />
    <glyph glyph-name="yacute" unicode="&#xfd;" horiz-adv-x="477" 
d="M-43.5 -199q-15.5 3 -30.5 9q-8 4 -11.5 7.5t-3.5 8.5q0 9 11 26q5 7 8 9.5t8 2.5q3 0 18.5 -5.5t33.5 -5.5q27 0 48 14t41 41.5t50 80.5q5 9 5 20q0 5 -0.5 9.5t-1.5 9.5l-77 475q-1 8 -2.5 18.5t-2.5 19.5q0 6 3.5 9t12.5 3h21q10 0 14 -1.5t6 -7.5t3 -15l64 -414
q1 -9 2 -22t1 -23h2l11 22l10 19l230 422q7 13 12.5 16.5t18.5 3.5h21q10 0 13.5 -2t3.5 -6q0 -5 -8 -19.5t-10 -18.5l-295 -531q-36 -65 -64 -102.5t-58.5 -56.5t-70.5 -19q-21 0 -36.5 3zM287.5 625q-8.5 -5 -18.5 -5h-6q-7 0 -11 2.5t-4 7.5t4.5 11.5t11.5 14.5l124 128
q17 17 25 21.5t23 4.5h27q11 0 16 -2.5t5 -8.5q1 -6 -6 -13.5t-24 -21.5l-148 -125q-10 -9 -18.5 -14z" />
    <glyph glyph-name="thorn" unicode="&#xfe;" horiz-adv-x="568" 
d="M253 555.5q40 9.5 83 9.5q83 0 128.5 -41t45.5 -125q0 -19 -2.5 -44.5t-8.5 -49.5l-13 -63q-15 -76 -50 -133t-86.5 -88t-114.5 -31q-52 0 -89 20.5t-58 58.5h-2l-51 -240q-3 -14 -7.5 -17.5t-18.5 -3.5h-17q-9 0 -13 2t-4 8q0 10 5 30l181 859q3 13 5.5 19t7 8.5
t13.5 2.5h19q9 0 13 -2t4 -9q0 -6 -3 -18l-38 -180q31 18 71 27.5zM110 187q-2 -14 -2 -27q0 -33 16 -59.5t44 -41.5t64 -15q81 0 129.5 59.5t67.5 154.5l11 52q10 52 10 83q0 55 -27.5 86.5t-97.5 31.5q-68 0 -130 -30q-16 -8 -21.5 -13.5t-7.5 -18.5l-50 -233
q-4 -15 -6 -29z" />
    <glyph glyph-name="ydieresis" unicode="&#xff;" horiz-adv-x="477" 
d="M-43.5 -199q-15.5 3 -30.5 9q-8 4 -11.5 7.5t-3.5 8.5q0 9 11 26q5 7 8 9.5t8 2.5q3 0 18.5 -5.5t33.5 -5.5q27 0 48 14t41 41.5t50 80.5q5 9 5 20q0 5 -0.5 9.5t-1.5 9.5l-77 475q-1 8 -2.5 18.5t-2.5 19.5q0 6 3.5 9t12.5 3h21q10 0 14 -1.5t6 -7.5t3 -15l64 -414
q1 -9 2 -22t1 -23h2l11 22l10 19l230 422q7 13 12.5 16.5t18.5 3.5h21q10 0 13.5 -2t3.5 -6q0 -5 -8 -19.5t-10 -18.5l-295 -531q-36 -65 -64 -102.5t-58.5 -56.5t-70.5 -19q-21 0 -36.5 3zM158 642q-4 2 -4 9q0 5 1 8.5t2 6.5l10 50q3 13 8 17t19 4h25q11 0 15 -2t4 -7
q0 -6 -3 -21l-10 -46q-3 -13 -8 -17t-20 -4h-23q-12 0 -16 2zM353 642q-4 2 -4 9q0 5 2 15l11 50q3 13 8 17t19 4h25q11 0 15 -2t4 -7q0 -7 -3 -21l-10 -46q-3 -13 -8 -17t-20 -4h-23q-12 0 -16 2z" />
    <glyph glyph-name="Amacron" unicode="&#x100;" horiz-adv-x="607" 
d="M-61 10q0 5 3.5 12t6.5 12.5t5 9.5l397 669q7 11 12.5 14.5t16.5 3.5h19q12 0 15.5 -2.5t4.5 -14.5l109 -668q5 -22 5 -32q0 -7 -5.5 -10.5t-19.5 -3.5h-16q-14 0 -18 5t-6 22l-32 203h-302l-125 -209q-7 -13 -12 -17t-17 -4h-19q-22 0 -22 10zM382 584q-5 33 -8 62h-2
q-16 -34 -35 -66l-170 -292h261zM258 887q6 4 17 4h271q17 0 17 -12q0 -4 -3 -15l-3 -11q-2 -9 -7.5 -12.5t-17.5 -3.5h-270q-9 0 -13 2.5t-4 8.5q0 5 3 14l2 13q2 8 8 12z" />
    <glyph glyph-name="amacron" unicode="&#x101;" horiz-adv-x="531" 
d="M398 426q0 43 -26 64t-87 21q-33 0 -64 -5.5t-68 -18.5q-22 -8 -29 -8q-11 0 -14 17q-3 12 -3 20t9.5 13.5t34.5 14.5q66 21 141 21q89 0 126.5 -35t37.5 -97q0 -17 -2.5 -36t-6.5 -39l-39 -184q-11 -49 -11 -79q0 -35 9 -56q2 -3 5.5 -10t3.5 -11q0 -5 -3 -7.5t-9 -5.5
l-17 -9q-2 -1 -7.5 -3.5t-9.5 -2.5q-10 0 -19 22.5t-11 49.5q0 14 1 22h-2q-40 -46 -86 -70.5t-110 -24.5q-44 0 -76.5 17t-49.5 47.5t-17 70.5q0 106 87 159t245 53h53l7 38q7 32 7 52zM134.5 247.5q-74.5 -36.5 -74.5 -117.5q0 -43 25.5 -65t74.5 -22q44 0 84 19t71 60.5
t45 106.5l13 55h-36q-128 0 -202.5 -36.5zM199 717h268q19 0 19 -12q0 -3 -2 -9l-3 -16q-2 -9 -8 -13t-17 -4h-269q-9 0 -13 3t-4 10q0 6 1 9l4 15q3 17 24 17z" />
    <glyph glyph-name="Abreve" unicode="&#x102;" horiz-adv-x="607" 
d="M-61 10q0 5 3.5 12t6.5 12.5t5 9.5l397 669q7 11 12.5 14.5t16.5 3.5h19q12 0 15.5 -2.5t4.5 -14.5l109 -668q5 -22 5 -32q0 -7 -5.5 -10.5t-19.5 -3.5h-16q-14 0 -18 5t-6 22l-32 203h-302l-125 -209q-7 -13 -12 -17t-17 -4h-19q-22 0 -22 10zM382 584q-5 33 -8 62h-2
q-16 -34 -35 -66l-170 -292h261zM489 876.5q33 30.5 48 68.5q6 11 10 14t14 3h6q7 0 10 -2.5t3 -8.5q0 -24 -19 -61t-61.5 -66.5t-109.5 -29.5q-42 0 -73.5 14.5t-49 41t-17.5 62.5q0 23 3.5 36.5t17.5 13.5h5q10 0 13 -3.5t3 -13.5q0 -99 102 -99q62 0 95 30.5z" />
    <glyph glyph-name="abreve" unicode="&#x103;" horiz-adv-x="531" 
d="M398 426q0 43 -26 64t-87 21q-33 0 -64 -5.5t-68 -18.5q-22 -8 -29 -8q-11 0 -14 17q-3 12 -3 20t9.5 13.5t34.5 14.5q66 21 141 21q89 0 126.5 -35t37.5 -97q0 -17 -2.5 -36t-6.5 -39l-39 -184q-11 -49 -11 -79q0 -35 9 -56q2 -3 5.5 -10t3.5 -11q0 -5 -3 -7.5t-9 -5.5
l-17 -9q-2 -1 -7.5 -3.5t-9.5 -2.5q-10 0 -19 22.5t-11 49.5q0 14 1 22h-2q-40 -46 -86 -70.5t-110 -24.5q-44 0 -76.5 17t-49.5 47.5t-17 70.5q0 106 87 159t245 53h53l7 38q7 32 7 52zM134.5 247.5q-74.5 -36.5 -74.5 -117.5q0 -43 25.5 -65t74.5 -22q44 0 84 19t71 60.5
t45 106.5l13 55h-36q-128 0 -202.5 -36.5zM418 709q35 37 51 80q4 10 9 13t14 3h7q11 0 11 -9q0 -25 -19.5 -67t-62.5 -75.5t-108 -33.5q-39 0 -70 15.5t-48.5 45.5t-17.5 72q0 52 22 52h7q6 0 9 -1.5t4 -7.5t1 -15q0 -42 19.5 -75.5t76.5 -33.5q60 0 95 37z" />
    <glyph glyph-name="Aogonek" unicode="&#x104;" horiz-adv-x="607" 
d="M134 230l-125 -209q-7 -13 -12 -17t-17 -4h-19q-22 0 -22 10q0 5 3.5 12t6.5 12.5t5 9.5l397 669q7 11 12.5 14.5t16.5 3.5h19q12 0 15.5 -2.5t4.5 -14.5l109 -668q5 -22 5 -30q0 -6 -4.5 -10.5t-10.5 -9.5q-50 -38 -76.5 -72t-26.5 -71q0 -24 15 -35.5t40 -11.5
q15 0 29 3.5t25.5 7.5t14.5 4q7 0 8 -10l1 -16v-3q0 -14 -18 -20q-15 -6 -30.5 -9.5t-37.5 -3.5q-29 0 -52.5 11t-37 31t-13.5 46q0 47 28.5 86.5t83.5 73.5l-35 223h-302zM382 584q-5 33 -8 62h-2q-16 -34 -35 -66l-170 -292h261z" />
    <glyph glyph-name="aogonek" unicode="&#x105;" horiz-adv-x="531" 
d="M328.5 -71q-30.5 -36 -30.5 -76q0 -24 15 -35.5t40 -11.5q15 0 29 3.5t25.5 7.5t14.5 4q7 0 8 -10l1 -16v-3q0 -14 -18 -20q-15 -6 -30.5 -9.5t-37.5 -3.5q-29 0 -52.5 11t-37 31t-13.5 46q0 48 27.5 85.5t83.5 73.5q-12 27 -13 55l-1 11l1 12h-2q-40 -46 -86 -70.5
t-109 -24.5q-45 0 -77.5 16.5t-49.5 47t-17 71.5q0 106 87 159t245 53h53l7 38q7 25 7 52q0 43 -26 64t-87 21q-33 0 -64 -5.5t-68 -18.5q-22 -8 -29 -8q-11 0 -14 17q-3 12 -3 20t9.5 13.5t34.5 14.5q66 21 141 21q89 0 126.5 -35t37.5 -97q0 -17 -2.5 -36t-6.5 -39
l-39 -184q-11 -49 -11 -79q0 -14 1.5 -28.5t5.5 -22.5q3 -9 7 -17.5t4 -11.5q0 -5 -2 -8t-5 -5q-49 -37 -79.5 -73zM134.5 247.5q-74.5 -36.5 -74.5 -117.5q0 -43 25.5 -65t74.5 -22q47 0 87.5 21t70 63t42.5 102l13 55h-36q-128 0 -202.5 -36.5z" />
    <glyph glyph-name="Cacute" unicode="&#x106;" horiz-adv-x="595" 
d="M142 11q-52 25 -79 72.5t-27 114.5q0 57 18 142l18 84q34 163 119.5 242t222.5 79q51 0 95.5 -10.5t79.5 -28.5q11 -6 16.5 -11.5t5.5 -10.5q0 -9 -8 -21q-10 -17 -20 -17q-5 0 -19.5 7t-24.5 10q-62 24 -131 24q-76 0 -130 -28.5t-89.5 -88t-55.5 -155.5l-16 -73
q-7 -31 -12.5 -69.5t-5.5 -67.5q0 -84 45 -122.5t131 -38.5q74 0 168 44l13 6.5t12 5.5t9 2q6 0 10 -4t6 -12q4 -8 4 -23q0 -7 -9.5 -14.5t-31.5 -17.5q-41 -19 -90 -32t-98 -13q-74 0 -126 25zM418.5 798q-7.5 -4 -14.5 -4h-12q-11 0 -11 9q0 5 3 10.5t10 14.5l100 109
q14 15 22 20t22 5h32q19 0 19 -10t-30 -34l-122 -106q-11 -10 -18.5 -14z" />
    <glyph glyph-name="cacute" unicode="&#x107;" horiz-adv-x="484" 
d="M66.5 32q-47.5 43 -47.5 124q0 37 11 92l18 85q25 116 87.5 173.5t164.5 57.5q85 0 144 -39q19 -12 19 -23q-1 -6 -4.5 -11t-7.5 -10t-8.5 -9t-7.5 -4q-4 0 -9 2.5t-11 6.5t-13 8q-23 13 -47.5 19t-56.5 6q-73 0 -121 -44t-71 -151l-13 -63q-7 -30 -10 -49t-3 -41
q0 -62 31.5 -90t94.5 -28q26 0 51 6t54 19q13 6 23 11.5t20 11.5t15 6q8 0 16 -14q6 -12 6 -20q0 -6 -5.5 -12t-16.5 -14q-33 -22 -77.5 -35.5t-91.5 -13.5q-86 0 -133.5 43zM313.5 625q-8.5 -5 -18.5 -5h-6q-7 0 -11 2.5t-4 7.5t4.5 11.5t11.5 14.5l124 128q17 17 25 21.5
t23 4.5h27q11 0 16 -2.5t5 -8.5q1 -6 -6 -13.5t-24 -21.5l-148 -125q-10 -9 -18.5 -14z" />
    <glyph glyph-name="Ccircumflex" unicode="&#x108;" horiz-adv-x="595" 
d="M142 11q-52 25 -79 72.5t-27 114.5q0 57 18 142l18 84q34 163 119.5 242t222.5 79q51 0 95.5 -10.5t79.5 -28.5q11 -6 16.5 -11.5t5.5 -10.5q0 -9 -8 -21q-10 -17 -20 -17q-5 0 -19.5 7t-24.5 10q-62 24 -131 24q-76 0 -130 -28.5t-89.5 -88t-55.5 -155.5l-16 -73
q-7 -31 -12.5 -69.5t-5.5 -67.5q0 -84 45 -122.5t131 -38.5q74 0 168 44l13 6.5t12 5.5t9 2q6 0 10 -4t6 -12q4 -8 4 -23q0 -7 -9.5 -14.5t-31.5 -17.5q-41 -19 -90 -32t-98 -13q-74 0 -126 25zM412.5 954.5q7.5 4.5 17.5 4.5h29q11 0 16 -4.5t13 -17.5l71 -104
q5 -7 10 -15.5t5 -13.5q0 -10 -13 -10h-8q-7 0 -13.5 4t-14.5 14l-84 96l-129 -96q-14 -10 -22 -14t-16 -4h-9q-14 0 -14 8q0 9 25 31l115 104q14 13 21.5 17.5z" />
    <glyph glyph-name="ccircumflex" unicode="&#x109;" horiz-adv-x="484" 
d="M66.5 32q-47.5 43 -47.5 124q0 37 11 92l18 85q25 116 87.5 173.5t164.5 57.5q85 0 144 -39q19 -12 19 -23q-1 -6 -4.5 -11t-7.5 -10t-8.5 -9t-7.5 -4q-4 0 -9 2.5t-11 6.5t-13 8q-23 13 -47.5 19t-56.5 6q-73 0 -121 -44t-71 -151l-13 -63q-7 -30 -10 -49t-3 -41
q0 -62 31.5 -90t94.5 -28q26 0 51 6t54 19q13 6 23 11.5t20 11.5t15 6q8 0 16 -14q6 -12 6 -20q0 -6 -5.5 -12t-16.5 -14q-33 -22 -77.5 -35.5t-91.5 -13.5q-86 0 -133.5 43zM306 804q7 5 16 5h35q9 0 13.5 -5t11.5 -19l71 -123q2 -4 5.5 -9.5t6.5 -11.5t3 -10q0 -5 -4 -8
t-10 -3h-9q-7 0 -13.5 4.5t-14.5 16.5l-81 116l-135 -118q-13 -11 -20 -15t-13 -4h-14q-5 0 -8 3t-3 7q0 5 5.5 12t10 12t7.5 8l120 123q13 14 20 19z" />
    <glyph glyph-name="Cdotaccent" unicode="&#x10a;" horiz-adv-x="595" 
d="M142 11q-52 25 -79 72.5t-27 114.5q0 57 18 142l18 84q34 163 119.5 242t222.5 79q51 0 95.5 -10.5t79.5 -28.5q11 -6 16.5 -11.5t5.5 -10.5q0 -9 -8 -21q-10 -17 -20 -17q-5 0 -19.5 7t-24.5 10q-62 24 -131 24q-76 0 -130 -28.5t-89.5 -88t-55.5 -155.5l-16 -73
q-7 -31 -12.5 -69.5t-5.5 -67.5q0 -84 45 -122.5t131 -38.5q74 0 168 44l13 6.5t12 5.5t9 2q6 0 10 -4t6 -12q4 -8 4 -23q0 -7 -9.5 -14.5t-31.5 -17.5q-41 -19 -90 -32t-98 -13q-74 0 -126 25zM385 818q-4 3 -4 9t3 19l10 46q2 11 7.5 16t16.5 5h32q9 0 13 -3.5t4 -9.5
q0 -3 -4 -21l-10 -44q-2 -10 -7.5 -15t-16.5 -5h-31q-9 0 -13 3z" />
    <glyph glyph-name="cdotaccent" unicode="&#x10b;" horiz-adv-x="484" 
d="M66.5 32q-47.5 43 -47.5 124q0 37 11 92l18 85q25 116 87.5 173.5t164.5 57.5q85 0 144 -39q19 -12 19 -23q-1 -6 -4.5 -11t-7.5 -10t-8.5 -9t-7.5 -4q-4 0 -9 2.5t-11 6.5t-13 8q-23 13 -47.5 19t-56.5 6q-73 0 -121 -44t-71 -151l-13 -63q-7 -30 -10 -49t-3 -41
q0 -62 31.5 -90t94.5 -28q26 0 51 6t54 19q13 6 23 11.5t20 11.5t15 6q8 0 16 -14q6 -12 6 -20q0 -6 -5.5 -12t-16.5 -14q-33 -22 -77.5 -35.5t-91.5 -13.5q-86 0 -133.5 43zM285 642q-4 2 -4 8t3 16l11 50q3 14 7.5 17.5t18.5 3.5h26q11 0 15 -2t4 -8l-2 -16l-11 -50
q-3 -10 -5 -14t-7 -5.5t-15 -1.5h-26q-11 0 -15 2z" />
    <glyph glyph-name="Ccaron" unicode="&#x10c;" horiz-adv-x="595" 
d="M142 11q-52 25 -79 72.5t-27 114.5q0 57 18 142l18 84q34 163 119.5 242t222.5 79q51 0 95.5 -10.5t79.5 -28.5q11 -6 16.5 -11.5t5.5 -10.5q0 -9 -8 -21q-10 -17 -20 -17q-5 0 -19.5 7t-24.5 10q-62 24 -131 24q-76 0 -130 -28.5t-89.5 -88t-55.5 -155.5l-16 -73
q-7 -31 -12.5 -69.5t-5.5 -67.5q0 -84 45 -122.5t131 -38.5q74 0 168 44l13 6.5t12 5.5t9 2q6 0 10 -4t6 -12q4 -8 4 -23q0 -7 -9.5 -14.5t-31.5 -17.5q-41 -19 -90 -32t-98 -13q-74 0 -126 25zM294.5 928.5q-3.5 5.5 -6.5 11t-3 9.5t4 7t10 3h8q6 0 12.5 -4t15.5 -15
l84 -95l129 95q15 11 23 15t15 4h8q14 0 14 -9q0 -5 -8 -14t-17 -17l-114 -103q-14 -13 -21.5 -17.5t-18.5 -4.5h-29q-10 0 -15 4.5t-13 17.5l-71 103q-3 4 -6.5 9.5z" />
    <glyph glyph-name="ccaron" unicode="&#x10d;" horiz-adv-x="484" 
d="M66.5 32q-47.5 43 -47.5 124q0 37 11 92l18 85q25 116 87.5 173.5t164.5 57.5q85 0 144 -39q19 -12 19 -23q-1 -6 -4.5 -11t-7.5 -10t-8.5 -9t-7.5 -4q-4 0 -9 2.5t-11 6.5t-13 8q-23 13 -47.5 19t-56.5 6q-73 0 -121 -44t-71 -151l-13 -63q-7 -30 -10 -49t-3 -41
q0 -62 31.5 -90t94.5 -28q26 0 51 6t54 19q13 6 23 11.5t20 11.5t15 6q8 0 16 -14q6 -12 6 -20q0 -6 -5.5 -12t-16.5 -14q-33 -22 -77.5 -35.5t-91.5 -13.5q-86 0 -133.5 43zM193 775.5q-3 5.5 -6 12t-3 10.5q0 11 14 11h9q7 0 12.5 -3.5t13.5 -14.5l82 -119l134 118
q14 12 21 15.5t14 3.5h15q5 0 8 -2.5t3 -6.5q0 -5 -8 -14.5t-17 -17.5l-120 -124q-15 -15 -21 -19.5t-16 -4.5h-34q-9 0 -13.5 4.5t-11.5 19.5l-71 123q-2 3 -5 8.5z" />
    <glyph glyph-name="Dcaron" unicode="&#x10e;" horiz-adv-x="682" 
d="M581.5 681.5q62.5 -49.5 62.5 -157.5q0 -32 -3.5 -60.5t-9.5 -64.5l-11 -53q-22 -111 -63.5 -187t-112.5 -117.5t-177 -41.5h-225q-12 0 -16.5 2.5t-4.5 9.5l2 18l144 678q3 15 8 19t22 4h201q121 0 183.5 -49.5zM402 85.5q56 27.5 94 90.5t61 170l8 34q9 45 13.5 75.5
t4.5 62.5q0 58 -20.5 91.5t-63 48.5t-109.5 15h-168l-131 -615h175q80 0 136 27.5zM278.5 928.5q-3.5 5.5 -6.5 11t-3 9.5t4 7t10 3h8q6 0 12.5 -4t15.5 -15l84 -95l129 95q15 11 23 15t15 4h8q14 0 14 -9q0 -5 -8 -14t-17 -17l-114 -103q-14 -13 -21.5 -17.5t-18.5 -4.5
h-29q-10 0 -15 4.5t-13 17.5l-71 103q-3 4 -6.5 9.5z" />
    <glyph glyph-name="dcaron" unicode="&#x10f;" horiz-adv-x="623" 
d="M407 41.5q-4 -7.5 -11 -12t-17 -8.5q-30 -13 -75 -22.5t-91 -9.5q-87 0 -140.5 42.5t-53.5 130.5q0 42 10 84l16 80q25 116 90.5 177.5t164.5 61.5q49 0 86.5 -15.5t59.5 -41.5h2l45 208q2 14 6.5 17.5t18.5 3.5h18q10 0 14 -2t4 -8q0 -3 -4 -22l-136 -640
q-3 -16 -7 -23.5zM428 429q0 16 -7.5 30t-22.5 25q-16 12 -41 19t-56 7q-75 0 -126.5 -50.5t-72.5 -155.5l-12 -60q-10 -46 -10 -77q0 -64 34.5 -93.5t101.5 -29.5q32 0 61.5 6t52.5 15q17 7 22.5 13t8.5 20l60 281q7 35 7 50zM621 537.5q-5 -3.5 -13 -3.5h-7q-5 0 -8 2.5
t-3 7.5q0 8 14 38l56 131q7 15 13.5 19.5t23.5 4.5h20q9 0 12 -2.5t3 -7.5t-5.5 -15.5t-11.5 -20.5l-82 -138q-7 -12 -12 -15.5z" />
    <glyph glyph-name="Dcroat" unicode="&#x110;" horiz-adv-x="682" 
d="M581.5 681.5q62.5 -49.5 62.5 -157.5q0 -32 -3.5 -60.5t-9.5 -64.5l-11 -53q-22 -111 -63.5 -187t-112.5 -117.5t-177 -41.5h-225q-12 0 -16.5 2.5t-4.5 9.5l2 18l68 322h-78q-11 0 -15 1.5t-4 7.5l2 13l4 13q2 12 6.5 15.5t18.5 3.5h78l64 302q3 15 8 19t22 4h201
q121 0 183.5 -49.5zM402 85.5q56 27.5 94 90.5t61 170l8 34q9 45 13.5 75.5t4.5 62.5q0 58 -20.5 91.5t-63 48.5t-109.5 15h-168l-57 -267h171q11 0 15 -2t4 -7q0 -6 -1 -11l-3 -14q-3 -12 -8 -16t-17 -4h-173l-62 -294h175q80 0 136 27.5z" />
    <glyph glyph-name="dcroat" unicode="&#x111;" horiz-adv-x="571" 
d="M414 65q-3 -16 -7 -23.5t-11 -12t-17 -8.5q-30 -13 -75 -22.5t-91 -9.5q-87 0 -140.5 42.5t-53.5 130.5q0 42 10 84l16 75q24 116 89.5 178t164.5 62q49 0 86.5 -15t60.5 -42h1l23 110h-140q-10 0 -14 2t-4 8l2 13l2 9q2 11 7 14.5t19 3.5h139l12 52q2 14 6.5 17.5
t18.5 3.5h18q10 0 14 -2t4 -8q0 -3 -4 -22l-9 -41h63q11 0 15 -1.5t4 -7.5l-2 -11l-2 -10q-2 -12 -7 -16t-17 -4h-64zM427 424q0 35 -30 56q-16 12 -41 19t-56 7q-75 0 -126.5 -50.5t-72.5 -155.5l-11 -56q-10 -46 -10 -77q0 -64 34.5 -93.5t101.5 -29.5q32 0 61.5 6
t52.5 15q17 7 22.5 13t8.5 20l59 276q7 28 7 50z" />
    <glyph glyph-name="Emacron" unicode="&#x112;" horiz-adv-x="562" 
d="M26 2.5q-5 2.5 -5 9.5q0 9 4 25l143 673q2 10 4.5 14t8 5.5t16.5 1.5h370q10 0 14 -1.5t4 -7.5l-2 -14l-3 -15q-2 -13 -6.5 -16.5t-18.5 -3.5h-333l-55 -256h238q10 0 13.5 -2t3.5 -8q0 -3 -2 -11l-4 -21q-3 -10 -7.5 -13t-16.5 -3h-237l-64 -301h348q10 0 14 -2.5
t4 -7.5l-2 -13l-4 -17q-3 -12 -7 -15t-17 -3h-384q-12 0 -17 2.5zM258 887q6 4 17 4h271q17 0 17 -12q0 -4 -3 -15l-3 -11q-2 -9 -7.5 -12.5t-17.5 -3.5h-270q-9 0 -13 2.5t-4 8.5q0 5 3 14l2 13q2 8 8 12z" />
    <glyph glyph-name="emacron" unicode="&#x113;" horiz-adv-x="536" 
d="M439.5 526q44.5 -39 44.5 -111q0 -33 -10 -78l-7 -37q-3 -13 -6 -19t-9 -8t-17 -2h-338l-7 -32q-10 -43 -10 -76q0 -58 37 -88.5t105 -30.5q73 0 143 34q5 2 15 7t16 5q5 0 8.5 -3.5t6.5 -11.5q5 -12 5 -20q-1 -7 -6 -12t-16 -11q-33 -19 -79.5 -31t-101.5 -12
q-64 0 -107.5 21.5t-65 60t-21.5 90.5q0 34 10 84l18 80q16 74 51.5 128t88.5 83t120 29q88 0 132.5 -39zM182 463q-49 -47 -71 -130l-2 -8h301l7 33q3 12 5 28t2 29q0 95 -119 95q-74 0 -123 -47zM208 717h268q19 0 19 -12q0 -3 -2 -9l-3 -16q-2 -9 -8 -13t-17 -4h-269
q-9 0 -13 3t-4 10q0 6 1 9l4 15q3 17 24 17z" />
    <glyph glyph-name="Ebreve" unicode="&#x114;" horiz-adv-x="562" 
d="M26 2.5q-5 2.5 -5 9.5q0 9 4 25l143 673q2 10 4.5 14t8 5.5t16.5 1.5h370q10 0 14 -1.5t4 -7.5l-2 -14l-3 -15q-2 -13 -6.5 -16.5t-18.5 -3.5h-333l-55 -256h238q10 0 13.5 -2t3.5 -8q0 -3 -2 -11l-4 -21q-3 -10 -7.5 -13t-16.5 -3h-237l-64 -301h348q10 0 14 -2.5
t4 -7.5l-2 -13l-4 -17q-3 -12 -7 -15t-17 -3h-384q-12 0 -17 2.5zM494 876.5q33 30.5 48 68.5q6 11 10 14t14 3h6q7 0 10 -2.5t3 -8.5q0 -24 -19 -61t-61.5 -66.5t-109.5 -29.5q-42 0 -73.5 14.5t-49 41t-17.5 62.5q0 23 3.5 36.5t17.5 13.5h5q10 0 13 -3.5t3 -13.5
q0 -99 102 -99q62 0 95 30.5z" />
    <glyph glyph-name="ebreve" unicode="&#x115;" horiz-adv-x="536" 
d="M439.5 526q44.5 -39 44.5 -111q0 -33 -10 -78l-7 -37q-3 -13 -6 -19t-9 -8t-17 -2h-338l-7 -32q-10 -43 -10 -76q0 -58 37 -88.5t105 -30.5q73 0 143 34q5 2 15 7t16 5q5 0 8.5 -3.5t6.5 -11.5q5 -12 5 -20q-1 -7 -6 -12t-16 -11q-33 -19 -79.5 -31t-101.5 -12
q-64 0 -107.5 21.5t-65 60t-21.5 90.5q0 34 10 84l18 80q16 74 51.5 128t88.5 83t120 29q88 0 132.5 -39zM182 463q-49 -47 -71 -130l-2 -8h301l7 33q3 12 5 28t2 29q0 95 -119 95q-74 0 -123 -47zM421 709q35 37 51 80q4 10 9 13t14 3h7q11 0 11 -9q0 -25 -19.5 -67
t-62.5 -75.5t-108 -33.5q-39 0 -70 15.5t-48.5 45.5t-17.5 72q0 52 22 52h7q6 0 9 -1.5t4 -7.5t1 -15q0 -42 19.5 -75.5t76.5 -33.5q60 0 95 37z" />
    <glyph glyph-name="Edotaccent" unicode="&#x116;" horiz-adv-x="562" 
d="M26 2.5q-5 2.5 -5 9.5q0 9 4 25l143 673q2 10 4.5 14t8 5.5t16.5 1.5h370q10 0 14 -1.5t4 -7.5l-2 -14l-3 -15q-2 -13 -6.5 -16.5t-18.5 -3.5h-333l-55 -256h238q10 0 13.5 -2t3.5 -8q0 -3 -2 -11l-4 -21q-3 -10 -7.5 -13t-16.5 -3h-237l-64 -301h348q10 0 14 -2.5
t4 -7.5l-2 -13l-4 -17q-3 -12 -7 -15t-17 -3h-384q-12 0 -17 2.5zM374 818q-4 3 -4 9t3 19l10 46q2 11 7.5 16t16.5 5h32q9 0 13 -3.5t4 -9.5q0 -3 -4 -21l-10 -44q-2 -10 -7.5 -15t-16.5 -5h-31q-9 0 -13 3z" />
    <glyph glyph-name="edotaccent" unicode="&#x117;" horiz-adv-x="536" 
d="M439.5 526q44.5 -39 44.5 -111q0 -33 -10 -78l-7 -37q-3 -13 -6 -19t-9 -8t-17 -2h-338l-7 -32q-10 -43 -10 -76q0 -58 37 -88.5t105 -30.5q73 0 143 34q5 2 15 7t16 5q5 0 8.5 -3.5t6.5 -11.5q5 -12 5 -20q-1 -7 -6 -12t-16 -11q-33 -19 -79.5 -31t-101.5 -12
q-64 0 -107.5 21.5t-65 60t-21.5 90.5q0 34 10 84l18 80q16 74 51.5 128t88.5 83t120 29q88 0 132.5 -39zM182 463q-49 -47 -71 -130l-2 -8h301l7 33q3 12 5 28t2 29q0 95 -119 95q-74 0 -123 -47zM296 642q-4 2 -4 8t3 16l11 50q3 14 7.5 17.5t18.5 3.5h26q11 0 15 -2t4 -8
l-2 -16l-11 -50q-3 -10 -5 -14t-7 -5.5t-15 -1.5h-26q-11 0 -15 2z" />
    <glyph glyph-name="Eogonek" unicode="&#x118;" horiz-adv-x="562" 
d="M369 -20.5q-34 -20.5 -58 -54.5t-24 -72q0 -24 15 -35.5t40 -11.5q15 0 27.5 3t25 7.5t15.5 4.5q8 0 9 -10l1 -16q0 -8 -3.5 -13.5t-14.5 -9.5q-15 -6 -30.5 -9.5t-37.5 -3.5q-29 0 -52.5 11t-37 31t-13.5 46q0 49 30.5 90.5t77.5 62.5h-296q-12 0 -17 2.5t-5 9.5
q0 9 4 25l143 673q2 10 4.5 14t8 5.5t16.5 1.5h370q10 0 14 -1.5t4 -7.5q0 -7 -1 -11l-4 -18q-3 -13 -7.5 -16.5t-17.5 -3.5h-333l-55 -256h238q10 0 13.5 -2t3.5 -8q0 -3 -2 -11l-4 -21q-3 -10 -7.5 -13t-16.5 -3h-237l-64 -301h348q10 0 14 -2.5t4 -7.5l-2 -13l-4 -17
q-3 -12 -7 -15t-14 -3q-27 0 -61 -20.5z" />
    <glyph glyph-name="eogonek" unicode="&#x119;" horiz-adv-x="536" 
d="M90 239q-10 -43 -10 -76q0 -58 37 -88.5t104 -30.5q40 0 75.5 9t69.5 25q5 2 14.5 7t15.5 5q10 0 15 -14q4 -12 4 -19q0 -14 -21 -25q-62 -34 -112 -81t-50 -98q0 -24 15 -35.5t40 -11.5q15 0 29 3.5t25.5 7.5t14.5 4q7 0 8 -10l1 -16v-3q0 -14 -18 -20
q-15 -6 -30.5 -9.5t-37.5 -3.5q-29 0 -52.5 10.5t-37 30.5t-13.5 47q0 44 25 80t74 70q-5 -1 -25.5 -4.5t-36.5 -3.5q-64 0 -107.5 21.5t-65 60t-21.5 90.5q0 34 10 84l18 80q16 74 51.5 128t88.5 83t120 29q88 0 132.5 -39t44.5 -111q0 -33 -10 -78l-7 -37q-3 -13 -6 -19
t-9 -8t-17 -2h-338zM182 463q-49 -47 -71 -130l-2 -8h301l7 33q3 12 5 28t2 29q0 95 -118 95q-75 0 -124 -47z" />
    <glyph glyph-name="Ecaron" unicode="&#x11a;" horiz-adv-x="562" 
d="M26 2.5q-5 2.5 -5 9.5q0 9 4 25l143 673q2 10 4.5 14t8 5.5t16.5 1.5h370q10 0 14 -1.5t4 -7.5l-2 -14l-3 -15q-2 -13 -6.5 -16.5t-18.5 -3.5h-333l-55 -256h238q10 0 13.5 -2t3.5 -8q0 -3 -2 -11l-4 -21q-3 -10 -7.5 -13t-16.5 -3h-237l-64 -301h348q10 0 14 -2.5
t4 -7.5l-2 -13l-4 -17q-3 -12 -7 -15t-17 -3h-384q-12 0 -17 2.5zM275.5 928.5q-3.5 5.5 -6.5 11t-3 9.5t4 7t10 3h8q6 0 12.5 -4t15.5 -15l84 -95l129 95q15 11 23 15t15 4h8q14 0 14 -9q0 -5 -8 -14t-17 -17l-114 -103q-14 -13 -21.5 -17.5t-18.5 -4.5h-29q-10 0 -15 4.5
t-13 17.5l-71 103q-3 4 -6.5 9.5z" />
    <glyph glyph-name="ecaron" unicode="&#x11b;" horiz-adv-x="536" 
d="M439.5 526q44.5 -39 44.5 -111q0 -33 -10 -78l-7 -37q-3 -13 -6 -19t-9 -8t-17 -2h-338l-7 -32q-10 -43 -10 -76q0 -58 37 -88.5t105 -30.5q73 0 143 34q5 2 15 7t16 5q5 0 8.5 -3.5t6.5 -11.5q5 -12 5 -20q-1 -7 -6 -12t-16 -11q-33 -19 -79.5 -31t-101.5 -12
q-64 0 -107.5 21.5t-65 60t-21.5 90.5q0 34 10 84l18 80q16 74 51.5 128t88.5 83t120 29q88 0 132.5 -39zM182 463q-49 -47 -71 -130l-2 -8h301l7 33q3 12 5 28t2 29q0 95 -119 95q-74 0 -123 -47zM204 775.5q-3 5.5 -6 12t-3 10.5q0 11 14 11h9q7 0 12.5 -3.5t13.5 -14.5
l82 -119l134 118q14 12 21 15.5t14 3.5h15q5 0 8 -2.5t3 -6.5q0 -5 -8 -14.5t-17 -17.5l-120 -124q-15 -15 -21 -19.5t-16 -4.5h-34q-9 0 -13.5 4.5t-11.5 19.5l-71 123q-2 3 -5 8.5z" />
    <glyph glyph-name="Gcircumflex" unicode="&#x11c;" horiz-adv-x="678" 
d="M243 626q-78 -61 -110 -210l-18 -87q-7 -31 -11.5 -62.5t-4.5 -51.5q0 -60 18.5 -97t63.5 -55.5t124 -18.5q33 0 65.5 6.5t53.5 13.5q28 10 39.5 20t14.5 24l51 235h-171q-10 0 -14 2t-4 9l2 12l4 16q2 12 6.5 15.5t17.5 3.5h208q12 0 16.5 -3t4.5 -9q0 -4 -1.5 -11.5
t-3.5 -15.5l-61 -283q-3 -15 -13 -26.5t-30 -21.5q-38 -21 -90 -33t-108 -12q-125 0 -190 53.5t-65 170.5q0 23 4 57t10 62l21 97q29 139 112.5 229t255.5 90q56 0 105 -9.5t87 -27.5q24 -11 22 -22q0 -8 -9 -20q-11 -15 -21 -15q-5 0 -14.5 3.5t-17.5 6.5q-74 26 -154 26
q-117 0 -195 -61zM433.5 954.5q7.5 4.5 17.5 4.5h29q11 0 16 -4.5t13 -17.5l71 -104q5 -7 10 -15.5t5 -13.5q0 -10 -13 -10h-8q-7 0 -13.5 4t-14.5 14l-84 96l-129 -96q-14 -10 -22 -14t-16 -4h-9q-14 0 -14 8q0 9 25 31l115 104q14 13 21.5 17.5z" />
    <glyph glyph-name="gcircumflex" unicode="&#x11d;" horiz-adv-x="572" 
d="M285.5 42.5q-42.5 -19.5 -92.5 -19.5q-80 0 -122.5 48t-42.5 132q0 55 22 136q27 108 99.5 167t185.5 59q41 0 81.5 -4.5t66.5 -12.5q30 -8 30 -17q0 -5 -1.5 -13t-2.5 -11l-83 -394q-22 -108 -50.5 -174.5t-83.5 -104.5t-148 -38q-36 0 -72.5 9.5t-65.5 22.5
q-13 7 -19 12.5t-6 10.5q0 9 9 23q7 14 16 14t28 -9q23 -11 55 -19.5t63 -8.5q66 0 106 28t61.5 75.5t38.5 121.5l3 16h-2q-31 -30 -73.5 -49.5zM445 490q0 6 -21 12q-42 8 -87 8q-90 0 -151 -48t-82 -155q-7 -30 -11 -54t-4 -51q0 -60 28.5 -92.5t85.5 -32.5q51 0 85 19
t61 47q18 18 26 35t12 35l54 250q4 18 4 27zM334 804q7 5 16 5h35q9 0 13.5 -5t11.5 -19l71 -123q2 -4 5.5 -9.5t6.5 -11.5t3 -10q0 -5 -4 -8t-10 -3h-9q-7 0 -13.5 4.5t-14.5 16.5l-81 116l-135 -118q-13 -11 -20 -15t-13 -4h-14q-5 0 -8 3t-3 7q0 5 5.5 12t10 12t7.5 8
l120 123q13 14 20 19z" />
    <glyph glyph-name="Gbreve" unicode="&#x11e;" horiz-adv-x="678" 
d="M243 626q-78 -61 -110 -210l-18 -87q-7 -31 -11.5 -62.5t-4.5 -51.5q0 -60 18.5 -97t63.5 -55.5t124 -18.5q33 0 65.5 6.5t53.5 13.5q28 10 39.5 20t14.5 24l51 235h-171q-10 0 -14 2t-4 9l2 12l4 16q2 12 6.5 15.5t17.5 3.5h208q12 0 16.5 -3t4.5 -9q0 -4 -1.5 -11.5
t-3.5 -15.5l-61 -283q-3 -15 -13 -26.5t-30 -21.5q-38 -21 -90 -33t-108 -12q-125 0 -190 53.5t-65 170.5q0 23 4 57t10 62l21 97q29 139 112.5 229t255.5 90q56 0 105 -9.5t87 -27.5q24 -11 22 -22q0 -8 -9 -20q-11 -15 -21 -15q-5 0 -14.5 3.5t-17.5 6.5q-74 26 -154 26
q-117 0 -195 -61zM530 876.5q33 30.5 48 68.5q6 11 10 14t14 3h6q7 0 10 -2.5t3 -8.5q0 -24 -19 -61t-61.5 -66.5t-109.5 -29.5q-42 0 -73.5 14.5t-49 41t-17.5 62.5q0 23 3.5 36.5t17.5 13.5h5q10 0 13 -3.5t3 -13.5q0 -99 102 -99q62 0 95 30.5z" />
    <glyph glyph-name="gbreve" unicode="&#x11f;" horiz-adv-x="572" 
d="M285.5 42.5q-42.5 -19.5 -92.5 -19.5q-80 0 -122.5 48t-42.5 132q0 55 22 136q27 108 99.5 167t185.5 59q41 0 81.5 -4.5t66.5 -12.5q30 -8 30 -17q0 -5 -1.5 -13t-2.5 -11l-83 -394q-22 -108 -50.5 -174.5t-83.5 -104.5t-148 -38q-36 0 -72.5 9.5t-65.5 22.5
q-13 7 -19 12.5t-6 10.5q0 9 9 23q7 14 16 14t28 -9q23 -11 55 -19.5t63 -8.5q66 0 106 28t61.5 75.5t38.5 121.5l3 16h-2q-31 -30 -73.5 -49.5zM445 490q0 6 -21 12q-42 8 -87 8q-90 0 -151 -48t-82 -155q-7 -30 -11 -54t-4 -51q0 -60 28.5 -92.5t85.5 -32.5q51 0 85 19
t61 47q18 18 26 35t12 35l54 250q4 18 4 27zM435 709q35 37 51 80q4 10 9 13t14 3h7q11 0 11 -9q0 -25 -19.5 -67t-62.5 -75.5t-108 -33.5q-39 0 -70 15.5t-48.5 45.5t-17.5 72q0 52 22 52h7q6 0 9 -1.5t4 -7.5t1 -15q0 -42 19.5 -75.5t76.5 -33.5q60 0 95 37z" />
    <glyph glyph-name="Gdotaccent" unicode="&#x120;" horiz-adv-x="678" 
d="M243 626q-78 -61 -110 -210l-18 -87q-7 -31 -11.5 -62.5t-4.5 -51.5q0 -60 18.5 -97t63.5 -55.5t124 -18.5q33 0 65.5 6.5t53.5 13.5q28 10 39.5 20t14.5 24l51 235h-171q-10 0 -14 2t-4 9l2 12l4 16q2 12 6.5 15.5t17.5 3.5h208q12 0 16.5 -3t4.5 -9q0 -4 -1.5 -11.5
t-3.5 -15.5l-61 -283q-3 -15 -13 -26.5t-30 -21.5q-38 -21 -90 -33t-108 -12q-125 0 -190 53.5t-65 170.5q0 23 4 57t10 62l21 97q29 139 112.5 229t255.5 90q56 0 105 -9.5t87 -27.5q24 -11 22 -22q0 -8 -9 -20q-11 -15 -21 -15q-5 0 -14.5 3.5t-17.5 6.5q-74 26 -154 26
q-117 0 -195 -61zM407 818q-4 3 -4 9t3 19l10 46q2 11 7.5 16t16.5 5h32q9 0 13 -3.5t4 -9.5q0 -3 -4 -21l-10 -44q-2 -10 -7.5 -15t-16.5 -5h-31q-9 0 -13 3z" />
    <glyph glyph-name="gdotaccent" unicode="&#x121;" horiz-adv-x="572" 
d="M285.5 42.5q-42.5 -19.5 -92.5 -19.5q-80 0 -122.5 48t-42.5 132q0 55 22 136q27 108 99.5 167t185.5 59q41 0 81.5 -4.5t66.5 -12.5q30 -8 30 -17q0 -5 -1.5 -13t-2.5 -11l-83 -394q-22 -108 -50.5 -174.5t-83.5 -104.5t-148 -38q-36 0 -72.5 9.5t-65.5 22.5
q-13 7 -19 12.5t-6 10.5q0 9 9 23q7 14 16 14t28 -9q23 -11 55 -19.5t63 -8.5q66 0 106 28t61.5 75.5t38.5 121.5l3 16h-2q-31 -30 -73.5 -49.5zM445 490q0 6 -21 12q-42 8 -87 8q-90 0 -151 -48t-82 -155q-7 -30 -11 -54t-4 -51q0 -60 28.5 -92.5t85.5 -32.5q51 0 85 19
t61 47q18 18 26 35t12 35l54 250q4 18 4 27zM308 642q-4 2 -4 8t3 16l11 50q3 14 7.5 17.5t18.5 3.5h26q11 0 15 -2t4 -8l-2 -16l-11 -50q-3 -10 -5 -14t-7 -5.5t-15 -1.5h-26q-11 0 -15 2z" />
    <glyph glyph-name="Gcommaaccent" unicode="&#x122;" horiz-adv-x="678" 
d="M243 626q-78 -61 -110 -210l-18 -87q-7 -31 -11.5 -62.5t-4.5 -51.5q0 -60 18.5 -97t63.5 -55.5t124 -18.5q33 0 65.5 6.5t53.5 13.5q28 10 39.5 20t14.5 24l51 235h-171q-10 0 -14 2t-4 9l2 12l4 16q2 12 6.5 15.5t17.5 3.5h208q12 0 16.5 -3t4.5 -9q0 -4 -1.5 -11.5
t-3.5 -15.5l-61 -283q-3 -15 -13 -26.5t-30 -21.5q-38 -21 -90 -33t-108 -12q-125 0 -190 53.5t-65 170.5q0 23 4 57t10 62l21 97q29 139 112.5 229t255.5 90q56 0 105 -9.5t87 -27.5q24 -11 22 -22q0 -8 -9 -20q-11 -15 -21 -15q-5 0 -14.5 3.5t-17.5 6.5q-74 26 -154 26
q-117 0 -195 -61zM220 -148q0 2 4 24l9 44q3 14 7 17.5t17 3.5h32q9 0 12.5 -2t3.5 -8q0 -7 -3 -19l-11 -52q-2 -11 -7.5 -21.5t-16.5 -28.5l-26 -42q-7 -11 -12.5 -17.5t-9.5 -6.5t-11 4t-7 9t6.5 16.5t7.5 13.5l29 54h-11q-13 0 -13 11z" />
    <glyph glyph-name="gcommaaccent" unicode="&#x123;" horiz-adv-x="572" 
d="M285.5 42.5q-42.5 -19.5 -92.5 -19.5q-80 0 -122.5 48t-42.5 132q0 55 22 136q27 108 99.5 167t185.5 59q41 0 81.5 -4.5t66.5 -12.5q30 -8 30 -17q0 -5 -1.5 -13t-2.5 -11l-83 -394q-22 -108 -50.5 -174.5t-83.5 -104.5t-148 -38q-36 0 -72.5 9.5t-65.5 22.5
q-13 7 -19 12.5t-6 10.5q0 9 9 23q7 14 16 14t28 -9q23 -11 55 -19.5t63 -8.5q66 0 106 28t61.5 75.5t38.5 121.5l3 16h-2q-31 -30 -73.5 -49.5zM445 490q0 6 -21 12q-42 8 -87 8q-90 0 -151 -48t-82 -155q-7 -30 -11 -54t-4 -51q0 -60 28.5 -92.5t85.5 -32.5q51 0 85 19
t61 47q18 18 26 35t12 35l54 250q4 18 4 27zM386 725q0 -8 -3 -19l-10 -49q-3 -14 -7 -17.5t-17 -3.5h-32q-9 0 -12.5 2t-3.5 7q0 3 2 13l12 59q2 11 7.5 21.5t16.5 28.5l26 42q7 11 12.5 17t9.5 7q4 0 11 -3.5t7 -8.5q0 -4 -5 -13.5t-9 -16.5l-29 -54h11q13 0 13 -12z" />
    <glyph glyph-name="Hcircumflex" unicode="&#x124;" horiz-adv-x="708" 
d="M25 2q-4 2 -4 8q0 9 3 19l145 681q2 13 6.5 17t17.5 4h20q11 0 15.5 -1.5t4.5 -7.5q0 -4 -1 -8l-2 -8l-62 -288h392l62 294q2 12 6.5 15.5t18.5 3.5h19q11 0 15 -1.5t4 -7.5l-2 -16l-146 -686q-2 -12 -6 -16t-16 -4h-22q-10 0 -14.5 2.5t-4.5 9.5q0 4 1 8l2 8l70 332
h-391l-73 -341q-2 -12 -6.5 -15.5t-18.5 -3.5h-19q-10 0 -14 2zM438.5 954.5q7.5 4.5 17.5 4.5h29q11 0 16 -4.5t13 -17.5l71 -104q5 -7 10 -15.5t5 -13.5q0 -10 -13 -10h-8q-7 0 -13.5 4t-14.5 14l-84 96l-129 -96q-14 -10 -22 -14t-16 -4h-9q-14 0 -14 8q0 9 25 31
l115 104q14 13 21.5 17.5z" />
    <glyph glyph-name="hcircumflex" unicode="&#x125;" horiz-adv-x="586" 
d="M272 545.5q50 19.5 99 19.5q72 0 105 -33.5t33 -84.5q0 -23 -3 -44.5t-8 -45.5l-71 -336q-3 -14 -7 -17.5t-16 -3.5h-20q-11 0 -14.5 2t-3.5 8q0 5 2 17l72 338q4 18 7 37t3 32q0 38 -21.5 57t-68.5 19q-42 0 -90.5 -20.5t-91.5 -53.5q-9 -7 -13.5 -14t-7.5 -19l-81 -382
q-3 -13 -7 -17t-16 -4h-22q-9 0 -13 2t-4 8q0 5 1 9.5t2 9.5l146 687q3 13 7.5 17t16.5 4h20q10 0 13.5 -2t3.5 -8l-2 -15l-46 -218h1q45 32 95 51.5zM375.5 954.5q7.5 4.5 17.5 4.5h29q11 0 16 -4.5t13 -17.5l71 -104q5 -7 10 -15.5t5 -13.5q0 -10 -13 -10h-8q-7 0 -13.5 4
t-14.5 14l-84 96l-129 -96q-14 -10 -22 -14t-16 -4h-9q-14 0 -14 8q0 9 25 31l115 104q14 13 21.5 17.5z" />
    <glyph glyph-name="Hbar" unicode="&#x126;" horiz-adv-x="708" 
d="M537 20q-2 -12 -6 -16t-16 -4h-22q-10 0 -14.5 2.5t-4.5 9.5q0 4 1 8l2 8l70 332h-391l-73 -341q-2 -12 -6.5 -15.5t-18.5 -3.5h-19q-10 0 -14 2t-4 8q0 9 3 19l111 524h-55q-11 0 -15 2t-4 8l2 12l4 15q3 12 7.5 15.5t18.5 3.5h54l22 101q2 13 6.5 17t17.5 4h20
q11 0 15.5 -1.5t4.5 -7.5q0 -4 -1 -8l-2 -8l-22 -97h392l22 103q2 12 6.5 15.5t18.5 3.5h19q11 0 15 -1.5t4 -7.5l-2 -16l-21 -97h54q11 0 15 -2t4 -8q0 -2 -0.5 -5t-1.5 -6l-3 -15q-3 -13 -7.5 -16.5t-17.5 -3.5h-55zM588 553h-391l-29 -135h392z" />
    <glyph glyph-name="hbar" unicode="&#x127;" horiz-adv-x="586" 
d="M270.5 541.5q49.5 19.5 99.5 19.5q48 0 79 -16.5t45 -43t14 -58.5q0 -21 -2.5 -40t-5.5 -31.5t-4 -18.5l-69 -332q-4 -14 -7.5 -17.5t-15.5 -3.5h-20q-11 0 -14.5 2t-3.5 8q0 5 2 17l71 334q4 18 7 36.5t3 32.5q0 38 -22 56.5t-69 18.5q-42 0 -89.5 -20.5t-91.5 -52.5
q-10 -7 -14.5 -14t-6.5 -19l-80 -378q-3 -13 -7 -17t-16 -4h-22q-9 0 -13 2t-4 8q0 5 1 9.5t2 9.5l124 585h-62q-10 0 -14 2t-4 8l2 13l2 9q2 11 7 14.5t19 3.5h61l11 52q3 13 7.5 17t16.5 4h20q10 0 13.5 -2t3.5 -8l-2 -15l-10 -48h142q10 0 14 -1.5t4 -7.5l-2 -11l-1 -10
q-3 -12 -8 -16t-17 -4h-143l-27 -125h2q45 33 94.5 52.5z" />
    <glyph glyph-name="Itilde" unicode="&#x128;" horiz-adv-x="418" 
d="M299.5 52q3.5 -2 3.5 -8t-1 -11l-3 -13q-3 -13 -7 -16.5t-16 -3.5h-291q-11 0 -14.5 1.5t-3.5 7.5t1 11l3 15q3 12 7.5 15.5t16.5 3.5h116l132 623h-117q-9 0 -12.5 2t-3.5 7q0 3 0.5 5t1.5 5l3 17q3 12 8 15t17 3h290q10 0 14 -1.5t4 -7.5q0 -3 -2 -13l-3 -13
q-3 -12 -7 -15.5t-16 -3.5h-115l-133 -623h114q10 0 13.5 -2zM242.5 872.5q-11.5 4.5 -25.5 4.5q-21 0 -37.5 -13.5t-27.5 -37.5q-4 -11 -9 -16.5t-13 -5.5h-12q-13 0 -13 11q0 20 13.5 46.5t40.5 46.5t65 20q23 0 40 -6t37 -19l33 -20q17 -11 28 -15t26 -4q21 0 37.5 13.5
t27.5 36.5q4 11 9.5 16.5t13.5 5.5h12q5 0 8 -2.5t3 -7.5q0 -20 -14 -47.5t-39.5 -47t-59.5 -19.5q-22 0 -41.5 6.5t-38.5 18.5l-34 21q-18 10 -29.5 14.5z" />
    <glyph glyph-name="itilde" unicode="&#x129;" horiz-adv-x="240" 
d="M18.5 2q-4.5 2 -4.5 8q0 4 1.5 9.5t2.5 10.5l106 503q3 13 7.5 16.5t17.5 3.5h18q11 0 14.5 -2t3.5 -8q0 -4 -3 -15l-107 -507q-3 -13 -7.5 -17t-16.5 -4h-19q-9 0 -13.5 2zM129 698.5q-12 4.5 -26 4.5q-41 0 -64 -50q-4 -11 -9 -16.5t-13 -5.5h-12q-13 0 -13 10
q0 20 13.5 47t40 47t63.5 20q23 0 39 -6t38 -19l33 -20q18 -11 29 -15.5t25 -4.5q39 0 62 51q5 12 10 17t13 5h13q5 0 8 -2.5t3 -7.5q0 -20 -13.5 -47.5t-39 -47t-59.5 -19.5q-22 0 -41 6t-39 19l-34 20q-15 10 -27 14.5z" />
    <glyph glyph-name="Imacron" unicode="&#x12a;" horiz-adv-x="418" 
d="M299.5 52q3.5 -2 3.5 -8t-1 -11l-3 -13q-3 -13 -7 -16.5t-16 -3.5h-291q-11 0 -14.5 1.5t-3.5 7.5t1 11l3 15q3 12 7.5 15.5t16.5 3.5h116l132 623h-117q-9 0 -12.5 2t-3.5 7q0 3 0.5 5t1.5 5l3 17q3 12 8 15t17 3h290q10 0 14 -1.5t4 -7.5q0 -3 -2 -13l-3 -13
q-3 -12 -7 -15.5t-16 -3.5h-115l-133 -623h114q10 0 13.5 -2zM161 887q6 4 17 4h271q17 0 17 -12q0 -4 -3 -15l-3 -11q-2 -9 -7.5 -12.5t-17.5 -3.5h-270q-9 0 -13 2.5t-4 8.5q0 5 3 14l2 13q2 8 8 12z" />
    <glyph glyph-name="imacron" unicode="&#x12b;" horiz-adv-x="240" 
d="M18.5 2q-4.5 2 -4.5 8q0 4 1.5 9.5t2.5 10.5l106 503q3 13 7.5 16.5t17.5 3.5h18q11 0 14.5 -2t3.5 -8q0 -4 -3 -15l-107 -507q-3 -13 -7.5 -17t-16.5 -4h-19q-9 0 -13.5 2zM53 717h268q19 0 19 -12q0 -3 -2 -9l-3 -16q-2 -9 -8 -13t-17 -4h-269q-9 0 -13 3t-4 10
q0 6 1 9l4 15q3 17 24 17z" />
    <glyph glyph-name="Ibreve" unicode="&#x12c;" horiz-adv-x="418" 
d="M299.5 52q3.5 -2 3.5 -8t-1 -11l-3 -13q-3 -13 -7 -16.5t-16 -3.5h-291q-11 0 -14.5 1.5t-3.5 7.5t1 11l3 15q3 12 7.5 15.5t16.5 3.5h116l132 623h-117q-9 0 -12.5 2t-3.5 7q0 3 0.5 5t1.5 5l3 17q3 12 8 15t17 3h290q10 0 14 -1.5t4 -7.5q0 -3 -2 -13l-3 -13
q-3 -12 -7 -15.5t-16 -3.5h-115l-133 -623h114q10 0 13.5 -2zM391 876.5q33 30.5 48 68.5q6 11 10 14t14 3h6q7 0 10 -2.5t3 -8.5q0 -24 -19 -61t-61.5 -66.5t-109.5 -29.5q-42 0 -73.5 14.5t-49 41t-17.5 62.5q0 23 3.5 36.5t17.5 13.5h5q10 0 13 -3.5t3 -13.5
q0 -99 102 -99q62 0 95 30.5z" />
    <glyph glyph-name="ibreve" unicode="&#x12d;" horiz-adv-x="240" 
d="M18.5 2q-4.5 2 -4.5 8q0 4 1.5 9.5t2.5 10.5l106 503q3 13 7.5 16.5t17.5 3.5h18q11 0 14.5 -2t3.5 -8q0 -4 -3 -15l-107 -507q-3 -13 -7.5 -17t-16.5 -4h-19q-9 0 -13.5 2zM273 709q35 37 51 80q4 10 9 13t14 3h7q11 0 11 -9q0 -25 -19.5 -67t-62.5 -75.5t-108 -33.5
q-39 0 -70 15.5t-48.5 45.5t-17.5 72q0 52 22 52h7q6 0 9 -1.5t4 -7.5t1 -15q0 -42 19.5 -75.5t76.5 -33.5q60 0 95 37z" />
    <glyph glyph-name="Iogonek" unicode="&#x12e;" horiz-adv-x="418" 
d="M156 -22q-39 -22 -63.5 -56t-24.5 -69q0 -24 15 -35.5t40 -11.5q15 0 27.5 3t25 7.5t15.5 4.5q8 0 9 -10l1 -16q0 -8 -4 -13.5t-15 -9.5q-31 -13 -67 -13q-29 0 -52.5 11t-37 31t-13.5 46q0 51 33 91t84 62h-144q-11 0 -14.5 1.5t-3.5 7.5t1 11l3 15q3 12 7.5 15.5
t16.5 3.5h116l132 623h-117q-9 0 -12.5 2t-3.5 7q0 3 0.5 5t1.5 5l3 17q3 12 8 15t17 3h290q10 0 14 -1.5t4 -7.5q0 -3 -0.5 -5l-1.5 -6l-3 -15q-2 -12 -6.5 -15.5t-16.5 -3.5h-115l-133 -623h114q10 0 13.5 -2t3.5 -8t-1 -11l-3 -13q-3 -13 -7 -16.5t-16 -3.5h-41
q-40 0 -79 -22z" />
    <glyph glyph-name="iogonek" unicode="&#x12f;" horiz-adv-x="240" 
d="M148.5 642.5q-4.5 2.5 -4.5 8.5l2 15l11 50q3 14 7.5 17.5t18.5 3.5h26q11 0 15 -2t4 -8l-2 -13l-11 -53q-3 -13 -8 -17t-19 -4h-24q-11 0 -15.5 2.5zM69 3q-4 -6 -14 -14q-50 -39 -71.5 -72t-21.5 -64q0 -23 15.5 -35t39.5 -12q15 0 29 3.5t25.5 7.5t14.5 4q7 0 8 -10
l1 -16v-3q0 -14 -18 -20q-15 -6 -30.5 -9.5t-37.5 -3.5q-29 0 -52.5 11t-37 31t-13.5 46q0 48 27.5 85t82.5 73q-2 2 -2 7l4 18l106 503q3 13 7.5 16.5t17.5 3.5h18q11 0 14.5 -2t3.5 -8l-2 -15l-107 -507q-3 -12 -7 -18z" />
    <glyph glyph-name="Idotaccent" unicode="&#x130;" horiz-adv-x="418" 
d="M299.5 52q3.5 -2 3.5 -8t-1 -11l-3 -13q-3 -13 -7 -16.5t-16 -3.5h-291q-11 0 -14.5 1.5t-3.5 7.5t1 11l3 15q3 12 7.5 15.5t16.5 3.5h116l132 623h-117q-9 0 -12.5 2t-3.5 7q0 3 0.5 5t1.5 5l3 17q3 12 8 15t17 3h290q10 0 14 -1.5t4 -7.5q0 -3 -2 -13l-3 -13
q-3 -12 -7 -15.5t-16 -3.5h-115l-133 -623h114q10 0 13.5 -2zM272 818q-4 3 -4 9t3 19l10 46q2 11 7.5 16t16.5 5h32q9 0 13 -3.5t4 -9.5q0 -3 -4 -21l-10 -44q-2 -10 -7.5 -15t-16.5 -5h-31q-9 0 -13 3z" />
    <glyph glyph-name="dotlessi" unicode="&#x131;" horiz-adv-x="240" 
d="M18.5 2q-4.5 2 -4.5 8q0 4 1.5 9.5t2.5 10.5l106 503q3 13 7.5 16.5t17.5 3.5h18q11 0 14.5 -2t3.5 -8q0 -4 -3 -15l-107 -507q-3 -13 -7.5 -17t-16.5 -4h-19q-9 0 -13.5 2z" />
    <glyph glyph-name="IJ" unicode="&#x132;" horiz-adv-x="885" 
d="M299.5 52q3.5 -2 3.5 -8t-1 -11l-3 -13q-3 -13 -7 -16.5t-16 -3.5h-291q-11 0 -14.5 1.5t-3.5 7.5t1 11l3 15q3 12 7.5 15.5t16.5 3.5h116l132 623h-117q-9 0 -12.5 2t-3.5 7q0 3 0.5 5t1.5 5l3 17q3 12 8 15t17 3h290q10 0 14 -1.5t4 -7.5q0 -3 -2 -13l-3 -13
q-3 -12 -7 -15.5t-16 -3.5h-115l-133 -623h114q10 0 13.5 -2zM864 729q4 -2 4 -8q0 -7 -1.5 -13t-1.5 -9l-112 -528q-17 -80 -64.5 -134t-138.5 -54q-47 0 -85 22t-56 64q-13 30 -13 48q0 13 17 19q2 1 11 5t15 4q5 0 8 -6t5 -14.5t3 -12.5q12 -35 35 -53t65 -18
q51 0 87.5 34t49.5 98l106 500h-146q-11 0 -15 1.5t-4 7.5q0 4 1 7t1 6l5 18q3 12 7.5 15t16.5 3h185q11 0 15 -2z" />
    <glyph glyph-name="ij" unicode="&#x133;" horiz-adv-x="480" 
d="M148.5 642.5q-4.5 2.5 -4.5 8.5l2 15l11 50q3 14 7.5 17.5t18.5 3.5h26q11 0 15 -2t4 -8l-2 -13l-11 -53q-3 -13 -8 -17t-19 -4h-24q-11 0 -15.5 2.5zM18.5 2q-4.5 2 -4.5 8q0 4 1.5 9.5t2.5 10.5l106 503q3 13 7.5 16.5t17.5 3.5h19q10 0 13.5 -2t3.5 -8l-2 -15
l-107 -507q-3 -13 -7.5 -17t-17.5 -4h-19q-9 0 -13.5 2zM387.5 642q-4.5 2 -4.5 9q0 5 3 15l11 50q2 10 4 14t7 5.5t15 1.5h26q11 0 15 -2t4 -8l-2 -13l-11 -53q-4 -14 -8.5 -17.5t-19.5 -3.5h-23q-12 0 -16.5 2zM250 -170.5q-31 -34.5 -94 -34.5q-20 0 -39.5 5t-34.5 13
q-6 3 -8 6.5t-2 7.5q0 6 3.5 12.5t4.5 8.5q4 6 8.5 10.5t8.5 4.5t14.5 -3.5t22.5 -6.5t27 -3q32 0 48.5 20t24.5 56l129 607q3 13 7.5 16.5t17.5 3.5h19q10 0 13.5 -2t3.5 -8l-2 -15l-128 -600q-13 -64 -44 -98.5z" />
    <glyph glyph-name="Jcircumflex" unicode="&#x134;" horiz-adv-x="467" 
d="M446 729q4 -2 4 -8q0 -7 -1.5 -13t-1.5 -9l-112 -528q-17 -80 -64.5 -134t-138.5 -54q-47 0 -85 22t-56 64q-13 30 -13 48q0 13 17 19q2 1 11 5t15 4q5 0 8 -6t5 -14.5t3 -12.5q12 -35 35 -53t65 -18q51 0 87.5 34t49.5 98l106 500h-146q-11 0 -15 1.5t-4 7.5q0 4 1 7
t1 6l5 18q3 12 7.5 15t16.5 3h185q11 0 15 -2zM364.5 954.5q7.5 4.5 17.5 4.5h29q11 0 16 -4.5t13 -17.5l71 -104q5 -7 10 -15.5t5 -13.5q0 -10 -13 -10h-8q-7 0 -13.5 4t-14.5 14l-84 96l-129 -96q-14 -10 -22 -14t-16 -4h-9q-14 0 -14 8q0 9 25 31l115 104
q14 13 21.5 17.5z" />
    <glyph glyph-name="jcircumflex" unicode="&#x135;" horiz-adv-x="240" 
d="M10 -170.5q-31 -34.5 -94 -34.5q-20 0 -39.5 5t-34.5 13q-6 3 -8 6.5t-2 7.5q0 6 3.5 12.5t4.5 8.5q9 14 17 14q4 0 14.5 -3.5t23 -6t27.5 -2.5q32 0 49 20t24 56l129 607q3 13 7.5 16.5t17.5 3.5h18q10 0 13.5 -2t3.5 -8l-2 -15l-128 -600q-13 -64 -44 -98.5zM172 804
q7 5 16 5h35q9 0 13.5 -5t11.5 -19l71 -123q2 -4 5.5 -9.5t6.5 -11.5t3 -10q0 -5 -4 -8t-10 -3h-9q-7 0 -13.5 4.5t-14.5 16.5l-81 116l-135 -118q-13 -11 -20 -15t-13 -4h-14q-5 0 -8 3t-3 7q0 5 5.5 12t10 12t7.5 8l120 123q13 14 20 19z" />
    <glyph glyph-name="Kcommaaccent" unicode="&#x136;" horiz-adv-x="584" 
d="M513 10q0 -6 -5 -8t-17 -2h-19q-12 0 -18 3t-12 12l-246 330q-5 8 -12 11t-19 3h-11l-71 -338q-3 -13 -8 -17t-17 -4h-19q-10 0 -14 2.5t-4 7.5q0 4 2 14l145 686q2 13 7 17t17 4h20q10 0 14.5 -2.5t3.5 -8.5l-1 -10l-62 -293h9q10 0 17 3.5t17 11.5l333 282
q10 10 17.5 13.5t19.5 3.5h31q12 0 17 -1.5t5 -7.5q0 -5 -6.5 -11.5t-19.5 -16.5l-367 -308l260 -347q13 -18 13 -29zM187 -148q0 2 4 24l9 44q3 14 7 17.5t17 3.5h32q9 0 12.5 -2t3.5 -8q0 -7 -3 -19l-11 -52q-2 -11 -7.5 -21.5t-16.5 -28.5l-26 -42q-7 -11 -12.5 -17.5
t-9.5 -6.5t-11 4t-7 9t6.5 16.5t7.5 13.5l29 54h-11q-13 0 -13 11z" />
    <glyph glyph-name="kcommaaccent" unicode="&#x137;" horiz-adv-x="499" 
d="M420.5 19.5q3.5 -5.5 3.5 -9.5q0 -10 -19 -10h-18q-15 0 -21.5 3.5t-15.5 16.5l-176 229q-16 24 -34 25h-11l-53 -251q-4 -15 -8.5 -19t-16.5 -4h-20q-9 0 -13 2.5t-4 8.5l2 14l147 691q3 13 7.5 17t17.5 4h18q11 0 14.5 -2t3.5 -9l-2 -16l-81 -383h3q12 0 33 19l251 193
q9 7 17 10.5t20 3.5h29q10 0 15 -1.5t5 -6.5q0 -4 -7.5 -11t-19.5 -17l-284 -214l208 -269q6 -9 9.5 -14.5zM150 -148q0 2 4 24l9 44q3 14 7 17.5t17 3.5h32q9 0 12.5 -2t3.5 -8q0 -7 -3 -19l-11 -52q-2 -11 -7.5 -21.5t-16.5 -28.5l-26 -42q-7 -11 -12.5 -17.5t-9.5 -6.5
t-11 4t-7 9t6.5 16.5t7.5 13.5l29 54h-11q-13 0 -13 11z" />
    <glyph glyph-name="kgreenlandic" unicode="&#x138;" horiz-adv-x="499" 
d="M420.5 19.5q3.5 -5.5 3.5 -9.5q0 -10 -19 -10h-18q-15 0 -21.5 3.5t-15.5 16.5l-179 218q-11 14 -17 19t-17 5h-11l-51 -239q-3 -15 -7.5 -19t-16.5 -4h-20q-9 0 -13 2.5t-4 8.5l2 14l108 507q3 13 7.5 17t17.5 4h18q10 0 14 -2t4 -9q0 -5 -3 -16l-45 -210h4q7 0 16.5 6
t17.5 13l253 204q9 7 17 10.5t20 3.5h29q10 0 15 -1.5t5 -6.5q0 -4 -7.5 -11t-19.5 -17l-287 -225l211 -258q6 -9 9.5 -14.5z" />
    <glyph glyph-name="Lacute" unicode="&#x139;" horiz-adv-x="525" 
d="M25.5 2.5q-4.5 2.5 -4.5 10.5q0 7 1.5 13t1.5 9l143 675q3 13 7.5 17t17.5 4h20q11 0 14.5 -2t3.5 -9l-2 -15l-137 -647h329q11 0 15 -2t4 -7l-2 -12l-4 -18q-3 -12 -7.5 -15.5t-17.5 -3.5h-364q-14 0 -18.5 2.5zM214.5 798q-7.5 -4 -14.5 -4h-12q-11 0 -11 9q0 5 3 10.5
t10 14.5l100 109q14 15 22 20t22 5h32q19 0 19 -10t-30 -34l-122 -106q-11 -10 -18.5 -14z" />
    <glyph glyph-name="lacute" unicode="&#x13a;" horiz-adv-x="271" 
d="M91 97q0 -26 12 -37.5t37 -11.5q13 0 26 3t23.5 6.5t13.5 3.5q5 0 7.5 -3.5t3.5 -11.5q1 -3 2.5 -11t1.5 -12q0 -6 -5.5 -10.5t-17.5 -8.5q-32 -12 -65 -12q-47 0 -73 25.5t-26 71.5q0 18 2.5 36.5t6.5 36.5l118 554q3 13 7.5 17t17.5 4h19q10 0 13.5 -2t3.5 -8
q0 -7 -2 -14l-121 -569q-5 -27 -5 -47zM204.5 798q-7.5 -4 -14.5 -4h-12q-11 0 -11 9q0 5 3 10.5t10 14.5l100 109q14 15 22 20t22 5h32q19 0 19 -10t-30 -34l-122 -106q-11 -10 -18.5 -14z" />
    <glyph glyph-name="Lcommaaccent" unicode="&#x13b;" horiz-adv-x="525" 
d="M25.5 2.5q-4.5 2.5 -4.5 10.5q0 7 1.5 13t1.5 9l143 675q3 13 7.5 17t17.5 4h20q11 0 14.5 -2t3.5 -9l-2 -15l-137 -647h329q11 0 15 -2t4 -7l-2 -12l-4 -18q-3 -12 -7.5 -15.5t-17.5 -3.5h-364q-14 0 -18.5 2.5zM173 -148q0 2 4 24l9 44q3 14 7 17.5t17 3.5h32
q9 0 12.5 -2t3.5 -8q0 -7 -3 -19l-11 -52q-2 -11 -7.5 -21.5t-16.5 -28.5l-26 -42q-7 -11 -12.5 -17.5t-9.5 -6.5t-11 4t-7 9t6.5 16.5t7.5 13.5l29 54h-11q-13 0 -13 11z" />
    <glyph glyph-name="lcommaaccent" unicode="&#x13c;" horiz-adv-x="271" 
d="M91 97q0 -26 12 -37.5t37 -11.5q13 0 26 3t23.5 6.5t13.5 3.5q5 0 7.5 -3.5t3.5 -11.5q1 -3 2.5 -11t1.5 -12q0 -6 -5.5 -10.5t-17.5 -8.5q-32 -12 -65 -12q-47 0 -73 25.5t-26 71.5q0 18 2.5 36.5t6.5 36.5l118 554q3 13 7.5 17t17.5 4h19q10 0 13.5 -2t3.5 -8
q0 -7 -2 -14l-121 -569q-5 -27 -5 -47zM40 -148q0 2 4 24l9 44q3 14 7 17.5t17 3.5h32q9 0 12.5 -2t3.5 -8q0 -7 -3 -19l-11 -52q-2 -11 -7.5 -21.5t-16.5 -28.5l-26 -42q-7 -11 -12.5 -17.5t-9.5 -6.5t-11 4t-7 9t6.5 16.5t7.5 13.5l29 54h-11q-13 0 -13 11z" />
    <glyph glyph-name="Lcaron" unicode="&#x13d;" horiz-adv-x="525" 
d="M25.5 2.5q-4.5 2.5 -4.5 10.5q0 7 1.5 13t1.5 9l143 675q3 13 7.5 17t17.5 4h20q11 0 14.5 -2t3.5 -9l-2 -15l-137 -647h329q11 0 15 -2t4 -7l-2 -12l-4 -18q-3 -12 -7.5 -15.5t-17.5 -3.5h-364q-14 0 -18.5 2.5zM337 531.5q-5 -3.5 -13 -3.5h-7q-5 0 -8 2.5t-3 7.5
q0 8 14 38l56 131q7 15 13.5 19.5t23.5 4.5h20q9 0 12 -2.5t3 -7.5t-5.5 -15.5t-11.5 -20.5l-82 -138q-7 -12 -12 -15.5z" />
    <glyph glyph-name="lcaron" unicode="&#x13e;" horiz-adv-x="290" 
d="M90 97q0 -26 12 -37.5t37 -11.5q13 0 26 3t23.5 6.5t13.5 3.5q5 0 7.5 -3.5t3.5 -11.5q1 -3 2.5 -11t1.5 -12q0 -6 -5.5 -10.5t-17.5 -8.5q-32 -12 -65 -12q-47 0 -73 25.5t-26 71.5q0 18 2.5 36.5t6.5 36.5l118 554q3 13 7.5 17t17.5 4h19q10 0 13.5 -2t3.5 -8
q0 -7 -2 -14l-121 -569q-5 -27 -5 -47zM287 537.5q-5 -3.5 -13 -3.5h-7q-5 0 -8 2.5t-3 7.5q0 8 14 38l56 131q7 15 13.5 19.5t23.5 4.5h20q9 0 12 -2.5t3 -7.5t-5.5 -15.5t-11.5 -20.5l-82 -138q-7 -12 -12 -15.5z" />
    <glyph glyph-name="Ldot" unicode="&#x13f;" horiz-adv-x="525" 
d="M25.5 2.5q-4.5 2.5 -4.5 10.5q0 7 1.5 13t1.5 9l143 675q3 13 7.5 17t17.5 4h20q11 0 14.5 -2t3.5 -9l-2 -15l-137 -647h329q11 0 15 -2t4 -7l-2 -12l-4 -18q-3 -12 -7.5 -15.5t-17.5 -3.5h-364q-14 0 -18.5 2.5zM354 344q-4 3 -4 9t3 19l10 46q2 11 7.5 16t16.5 5h32
q9 0 13 -3.5t4 -9.5q0 -3 -4 -21l-10 -44q-2 -10 -7.5 -15t-16.5 -5h-31q-9 0 -13 3z" />
    <glyph glyph-name="ldot" unicode="&#x140;" horiz-adv-x="357" 
d="M90 97q0 -26 12 -37.5t37 -11.5q13 0 26 3t23.5 6.5t13.5 3.5q5 0 7.5 -3.5t3.5 -11.5q1 -3 2.5 -11t1.5 -12q0 -6 -5.5 -10.5t-17.5 -8.5q-32 -12 -65 -12q-47 0 -73 25.5t-26 71.5q0 18 2.5 36.5t6.5 36.5l118 554q3 13 7.5 17t17.5 4h19q10 0 13.5 -2t3.5 -8
q0 -7 -2 -14l-121 -569q-5 -27 -5 -47zM250 311q-4 2 -4 8t3 16l11 50q3 14 7.5 17.5t18.5 3.5h26q11 0 15 -2t4 -8l-2 -16l-11 -50q-3 -10 -5 -14t-7 -5.5t-15 -1.5h-26q-11 0 -15 2z" />
    <glyph glyph-name="Lslash" unicode="&#x141;" horiz-adv-x="525" 
d="M25.5 2.5q-4.5 2.5 -4.5 10.5q0 7 1.5 13t1.5 9l54 252l-67 -37q-12 -10 -20 -10q-3 0 -5 1.5t-2 6.5l4 21l3 17q2 9 5 12t15 10l81 47l75 355q3 13 7.5 17t17.5 4h20q11 0 14.5 -2t3.5 -9l-2 -15l-66 -310l154 89q16 10 21 10q7 0 7 -6q0 -7 -1.5 -12.5t-1.5 -7.5
l-4 -16q-2 -11 -6.5 -16t-19.5 -14l-163 -94l-57 -270h329q11 0 15 -2t4 -7l-2 -12l-4 -18q-3 -12 -7.5 -15.5t-17.5 -3.5h-364q-14 0 -18.5 2.5z" />
    <glyph glyph-name="lslash" unicode="&#x142;" horiz-adv-x="291" 
d="M271 494q13 8 17 8q5 0 5 -6l-2 -18l-4 -17q-2 -11 -6.5 -16.5t-17.5 -13.5l-110 -68l-47 -219l-4 -24t-2 -23q0 -26 12 -38t37 -12q13 0 26 3t24 7t14 4q5 0 7.5 -3.5t3.5 -11.5q1 -3 2.5 -11t1.5 -12q0 -6 -5.5 -10.5t-17.5 -8.5q-32 -12 -65 -12q-47 0 -73 25.5
t-26 71.5q0 18 2.5 36.5t6.5 36.5l34 158l-64 -40q-11 -7 -17 -7q-3 0 -4.5 1t-1.5 5l4 22l3 13q2 11 5.5 15.5t16.5 11.5l72 45l70 330q3 13 7.5 17t17.5 4h19q9 0 13 -2t4 -8l-2 -14l-60 -283z" />
    <glyph glyph-name="Nacute" unicode="&#x143;" horiz-adv-x="707" 
d="M24.5 2q-3.5 2 -3.5 8l2 16l145 685q3 13 7 16.5t16 3.5h24q11 0 15.5 -3t9.5 -12l234 -572q12 -30 18 -55h2q2 18 10 59l119 564q3 12 8 15.5t18 3.5h17q11 0 15 -2t4 -8q0 -5 -4 -17l-144 -684q-3 -13 -7 -16.5t-16 -3.5h-24q-11 0 -16 3t-10 13l-226 553
q-2 6 -12 30.5t-14 42.5h-2q-2 -18 -6.5 -42.5t-10.5 -51.5l-112 -528q-2 -13 -6.5 -16.5t-18.5 -3.5h-17q-11 0 -14.5 2zM456.5 798q-7.5 -4 -14.5 -4h-12q-11 0 -11 9q0 5 3 10.5t10 14.5l100 109q14 15 22 20t22 5h32q19 0 19 -10t-30 -34l-122 -106q-11 -10 -18.5 -14z
" />
    <glyph glyph-name="nacute" unicode="&#x144;" horiz-adv-x="586" 
d="M131 549.5q4 3.5 16 3.5h9q11 0 14.5 -3.5t3.5 -16.5l-3 -42h2q47 34 97.5 54t100.5 20q71 0 104.5 -34t33.5 -86q0 -22 -3 -43t-8 -45l-71 -336q-4 -14 -7.5 -17.5t-15.5 -3.5h-20q-11 0 -14.5 2t-3.5 8q0 7 2 17l72 338q4 18 7 37t3 32q0 38 -21.5 57t-68.5 19
q-42 0 -90.5 -20.5t-91.5 -53.5q-9 -6 -14 -13.5t-7 -19.5l-81 -382q-3 -13 -7 -17t-16 -4h-23q-9 0 -12.5 2t-3.5 8q0 5 1 9.5t2 9.5l107 503q3 14 7 17.5zM341.5 625q-8.5 -5 -18.5 -5h-6q-7 0 -11 2.5t-4 7.5t4.5 11.5t11.5 14.5l124 128q17 17 25 21.5t23 4.5h27
q11 0 16 -2.5t5 -8.5q1 -6 -6 -13.5t-24 -21.5l-148 -125q-10 -9 -18.5 -14z" />
    <glyph glyph-name="Ncommaaccent" unicode="&#x145;" horiz-adv-x="707" 
d="M24.5 2q-3.5 2 -3.5 8l2 16l145 685q3 13 7 16.5t16 3.5h24q11 0 15.5 -3t9.5 -12l234 -572q12 -30 18 -55h2q2 18 10 59l119 564q3 12 8 15.5t18 3.5h17q11 0 15 -2t4 -8q0 -5 -4 -17l-144 -684q-3 -13 -7 -16.5t-16 -3.5h-24q-11 0 -16 3t-10 13l-226 553
q-2 6 -12 30.5t-14 42.5h-2q-2 -18 -6.5 -42.5t-10.5 -51.5l-112 -528q-2 -13 -6.5 -16.5t-18.5 -3.5h-17q-11 0 -14.5 2zM230 -148q0 2 4 24l9 44q3 14 7 17.5t17 3.5h32q9 0 12.5 -2t3.5 -8q0 -7 -3 -19l-11 -52q-2 -11 -7.5 -21.5t-16.5 -28.5l-26 -42
q-7 -11 -12.5 -17.5t-9.5 -6.5t-11 4t-7 9t6.5 16.5t7.5 13.5l29 54h-11q-13 0 -13 11z" />
    <glyph glyph-name="ncommaaccent" unicode="&#x146;" horiz-adv-x="586" 
d="M131 549.5q4 3.5 16 3.5h9q11 0 14.5 -3.5t3.5 -16.5l-3 -42h2q47 34 97.5 54t100.5 20q71 0 104.5 -34t33.5 -86q0 -22 -3 -43t-8 -45l-71 -336q-4 -14 -7.5 -17.5t-15.5 -3.5h-20q-11 0 -14.5 2t-3.5 8q0 7 2 17l72 338q4 18 7 37t3 32q0 38 -21.5 57t-68.5 19
q-42 0 -90.5 -20.5t-91.5 -53.5q-9 -6 -14 -13.5t-7 -19.5l-81 -382q-3 -13 -7 -17t-16 -4h-23q-9 0 -12.5 2t-3.5 8q0 5 1 9.5t2 9.5l107 503q3 14 7 17.5zM167 -148q0 2 4 24l9 44q3 14 7 17.5t17 3.5h32q9 0 12.5 -2t3.5 -8q0 -7 -3 -19l-11 -52q-2 -11 -7.5 -21.5
t-16.5 -28.5l-26 -42q-7 -11 -12.5 -17.5t-9.5 -6.5t-11 4t-7 9t6.5 16.5t7.5 13.5l29 54h-11q-13 0 -13 11z" />
    <glyph glyph-name="Ncaron" unicode="&#x147;" horiz-adv-x="707" 
d="M24.5 2q-3.5 2 -3.5 8l2 16l145 685q3 13 7 16.5t16 3.5h24q11 0 15.5 -3t9.5 -12l234 -572q12 -30 18 -55h2q2 18 10 59l119 564q3 12 8 15.5t18 3.5h17q11 0 15 -2t4 -8q0 -5 -4 -17l-144 -684q-3 -13 -7 -16.5t-16 -3.5h-24q-11 0 -16 3t-10 13l-226 553
q-2 6 -12 30.5t-14 42.5h-2q-2 -18 -6.5 -42.5t-10.5 -51.5l-112 -528q-2 -13 -6.5 -16.5t-18.5 -3.5h-17q-11 0 -14.5 2zM322.5 928.5q-3.5 5.5 -6.5 11t-3 9.5t4 7t10 3h8q6 0 12.5 -4t15.5 -15l84 -95l129 95q15 11 23 15t15 4h8q14 0 14 -9q0 -5 -8 -14t-17 -17
l-114 -103q-14 -13 -21.5 -17.5t-18.5 -4.5h-29q-10 0 -15 4.5t-13 17.5l-71 103q-3 4 -6.5 9.5z" />
    <glyph glyph-name="ncaron" unicode="&#x148;" horiz-adv-x="586" 
d="M131 549.5q4 3.5 16 3.5h9q11 0 14.5 -3.5t3.5 -16.5l-3 -42h2q47 34 97.5 54t100.5 20q71 0 104.5 -34t33.5 -86q0 -22 -3 -43t-8 -45l-71 -336q-4 -14 -7.5 -17.5t-15.5 -3.5h-20q-11 0 -14.5 2t-3.5 8q0 7 2 17l72 338q4 18 7 37t3 32q0 38 -21.5 57t-68.5 19
q-42 0 -90.5 -20.5t-91.5 -53.5q-9 -6 -14 -13.5t-7 -19.5l-81 -382q-3 -13 -7 -17t-16 -4h-23q-9 0 -12.5 2t-3.5 8q0 5 1 9.5t2 9.5l107 503q3 14 7 17.5zM219 775.5q-3 5.5 -6 12t-3 10.5q0 11 14 11h9q7 0 12.5 -3.5t13.5 -14.5l82 -119l134 118q14 12 21 15.5t14 3.5
h15q5 0 8 -2.5t3 -6.5q0 -5 -8 -14.5t-17 -17.5l-120 -124q-15 -15 -21 -19.5t-16 -4.5h-34q-9 0 -13.5 4.5t-11.5 19.5l-71 123q-2 3 -5 8.5z" />
    <glyph glyph-name="napostrophe" unicode="&#x149;" horiz-adv-x="694" 
d="M239 549.5q4 3.5 16 3.5h9q11 0 14.5 -3.5t3.5 -16.5l-3 -42h2q47 34 97.5 54t100.5 20q71 0 104.5 -34t33.5 -86q0 -22 -3 -43t-8 -45l-71 -336q-4 -14 -7.5 -17.5t-15.5 -3.5h-20q-11 0 -14.5 2t-3.5 8q0 7 2 17l72 338q4 18 7 37t3 32q0 38 -21.5 57t-68.5 19
q-42 0 -90.5 -20.5t-91.5 -53.5q-9 -6 -14 -13.5t-7 -19.5l-81 -382q-3 -13 -7 -17t-16 -4h-23q-9 0 -12.5 2t-3.5 8q0 5 1 9.5t2 9.5l107 503q3 14 7 17.5zM84.5 643.5q-3.5 2.5 -3.5 10.5l4 24l10 45q3 14 8 18t19 4h35q12 0 16 -2t4 -9q0 -6 -2 -14l-10 -46
q-4 -22 -9.5 -35.5t-17.5 -32.5l-41 -68q-7 -12 -12 -16.5t-10 -4.5q-7 0 -14.5 4t-7.5 11q0 6 3.5 12.5t4.5 8.5l44 88h-10q-7 0 -10.5 2.5z" />
    <glyph glyph-name="Eng" unicode="&#x14a;" horiz-adv-x="707" 
d="M472 -169q-33 -36 -99 -36q-44 0 -82 20q-6 4 -8 7t-2 7t3 11.5t7 13.5q4 7 7.5 10.5t8.5 3.5t12 -2.5t12 -4.5q24 -8 44 -8q66 0 84 77l14 68l-235 571q-2 6 -12 30.5t-14 42.5h-2q-2 -18 -6.5 -42.5t-10.5 -51.5l-112 -528q-2 -13 -6.5 -16.5t-18.5 -3.5h-17
q-11 0 -14.5 2t-3.5 8l2 16l145 685q3 13 7 16.5t16 3.5h24q11 0 15.5 -3t9.5 -12l234 -571q13 -28 19 -55h2q3 29 9 60l119 562q3 12 8 15.5t18 3.5h17q11 0 15 -2t4 -8q0 -5 -4 -17l-162 -771q-14 -66 -47 -102z" />
    <glyph glyph-name="eng" unicode="&#x14b;" horiz-adv-x="586" 
d="M447 402q3 19 3 32q0 38 -21.5 57t-68.5 19q-42 0 -90.5 -20.5t-91.5 -53.5q-9 -6 -14 -13.5t-7 -19.5l-81 -382q-3 -13 -7 -17t-16 -4h-23q-9 0 -12.5 2t-3.5 8q0 5 1 9.5t2 9.5l107 503q3 14 7 17.5t16 3.5h9q11 0 14.5 -3.5t3.5 -16.5l-3 -42h2q47 34 97.5 54
t100.5 20q71 0 104.5 -34t33.5 -86q0 -22 -3 -43t-8 -45l-91 -429q-13 -64 -44 -98.5t-94 -34.5q-20 0 -39.5 5t-34.5 13q-6 3 -8 6.5t-2 7.5q0 6 3.5 12.5t4.5 8.5q4 6 8.5 10.5t8.5 4.5t14.5 -3.5t23 -6.5t27.5 -3q32 0 49 20t24 56l92 439q4 18 7 37z" />
    <glyph glyph-name="Omacron" unicode="&#x14c;" horiz-adv-x="697" 
d="M183 659q80 86 225 86h20q72 0 124 -26t80 -75t28 -116q0 -57 -17 -132l-16 -79q-33 -158 -113.5 -244.5t-224.5 -86.5h-21q-71 0 -123.5 26.5t-80 75t-27.5 115.5q0 33 4 63t12 70l17 79q33 158 113 244zM592 458.5q5 35.5 5 62.5q0 83 -45.5 124.5t-134.5 41.5h-10
q-75 0 -128.5 -28.5t-89 -88.5t-56.5 -157l-16 -71q-7 -31 -12.5 -68.5t-5.5 -63.5q0 -83 46 -124.5t134 -41.5h11q74 0 127.5 28.5t90 89t56.5 156.5l15 71q8 34 13 69.5zM303 887q6 4 17 4h271q17 0 17 -12q0 -4 -3 -15l-3 -11q-2 -9 -7.5 -12.5t-17.5 -3.5h-270
q-9 0 -13 2.5t-4 8.5q0 5 3 14l2 13q2 8 8 12z" />
    <glyph glyph-name="omacron" unicode="&#x14d;" horiz-adv-x="555" 
d="M133.5 502.5q62.5 62.5 173.5 62.5h8q92 0 137.5 -44.5t45.5 -119.5q0 -23 -3 -47.5t-10 -58.5l-14 -63q-25 -120 -87.5 -181.5t-172.5 -61.5h-9q-92 0 -137.5 45t-45.5 123q0 44 12 93l15 72q25 118 87.5 180.5zM434 352q3 24 3 43q0 58 -30.5 86.5t-95.5 28.5h-9
q-87 0 -132.5 -54t-66.5 -152l-10 -51q-13 -56 -13 -96q0 -56 31 -84.5t96 -28.5h7q88 0 134 54t66 152l12 57q5 21 8 45zM206 717h268q19 0 19 -12q0 -3 -2 -9l-3 -16q-2 -9 -8 -13t-17 -4h-269q-9 0 -13 3t-4 10q0 6 1 9l4 15q3 17 24 17z" />
    <glyph glyph-name="Obreve" unicode="&#x14e;" horiz-adv-x="697" 
d="M183 659q80 86 225 86h20q72 0 124 -26t80 -75t28 -116q0 -57 -17 -132l-16 -79q-33 -158 -113.5 -244.5t-224.5 -86.5h-21q-71 0 -123.5 26.5t-80 75t-27.5 115.5q0 33 4 63t12 70l17 79q33 158 113 244zM592 458.5q5 35.5 5 62.5q0 83 -45.5 124.5t-134.5 41.5h-10
q-75 0 -128.5 -28.5t-89 -88.5t-56.5 -157l-16 -71q-7 -31 -12.5 -68.5t-5.5 -63.5q0 -83 46 -124.5t134 -41.5h11q74 0 127.5 28.5t90 89t56.5 156.5l15 71q8 34 13 69.5zM527 876.5q33 30.5 48 68.5q6 11 10 14t14 3h6q7 0 10 -2.5t3 -8.5q0 -24 -19 -61t-61.5 -66.5
t-109.5 -29.5q-42 0 -73.5 14.5t-49 41t-17.5 62.5q0 23 3.5 36.5t17.5 13.5h5q10 0 13 -3.5t3 -13.5q0 -99 102 -99q62 0 95 30.5z" />
    <glyph glyph-name="obreve" unicode="&#x14f;" horiz-adv-x="555" 
d="M133.5 502.5q62.5 62.5 173.5 62.5h8q92 0 137.5 -44.5t45.5 -119.5q0 -23 -3 -47.5t-10 -58.5l-14 -63q-25 -120 -87.5 -181.5t-172.5 -61.5h-9q-92 0 -137.5 45t-45.5 123q0 44 12 93l15 72q25 118 87.5 180.5zM434 352q3 24 3 43q0 58 -30.5 86.5t-95.5 28.5h-9
q-87 0 -132.5 -54t-66.5 -152l-10 -51q-13 -56 -13 -96q0 -56 31 -84.5t96 -28.5h7q88 0 134 54t66 152l12 57q5 21 8 45zM419 714q35 37 51 80q4 10 9 13t14 3h7q11 0 11 -9q0 -25 -19.5 -67t-62.5 -75.5t-108 -33.5q-39 0 -70 15.5t-48.5 45.5t-17.5 72q0 52 22 52h7
q6 0 9 -1.5t4 -7.5t1 -15q0 -42 19.5 -75.5t76.5 -33.5q60 0 95 37z" />
    <glyph glyph-name="Ohungarumlaut" unicode="&#x150;" horiz-adv-x="697" 
d="M183 659q80 86 225 86h20q72 0 124 -26t80 -75t28 -116q0 -57 -17 -132l-16 -79q-33 -158 -113.5 -244.5t-224.5 -86.5h-21q-71 0 -123.5 26.5t-80 75t-27.5 115.5q0 33 4 63t12 70l17 79q33 158 113 244zM592 458.5q5 35.5 5 62.5q0 83 -45.5 124.5t-134.5 41.5h-10
q-75 0 -128.5 -28.5t-89 -88.5t-56.5 -157l-16 -71q-7 -31 -12.5 -68.5t-5.5 -63.5q0 -83 46 -124.5t134 -41.5h11q74 0 127.5 28.5t90 89t56.5 156.5l15 71q8 34 13 69.5zM359.5 799.5q-8.5 -5.5 -16.5 -5.5h-9q-12 0 -12 8q0 4 3.5 10.5t8.5 14.5l79 110q12 16 20 20.5
t24 4.5h32q10 0 14.5 -2t4.5 -7q0 -6 -5.5 -12.5t-10 -11l-7.5 -7.5l-105 -105q-12 -12 -20.5 -17.5zM530.5 799.5q-8.5 -5.5 -16.5 -5.5h-9q-12 0 -12 8q0 4 3.5 10.5t8.5 14.5l79 110q9 12 14 17t11 6.5t19 1.5h32q10 0 14.5 -2t4.5 -7q0 -6 -5.5 -12.5t-10 -11l-7.5 -7.5
l-105 -105q-12 -12 -20.5 -17.5z" />
    <glyph glyph-name="ohungarumlaut" unicode="&#x151;" horiz-adv-x="555" 
d="M133.5 502.5q62.5 62.5 173.5 62.5h8q92 0 137.5 -44.5t45.5 -119.5q0 -23 -3 -47.5t-10 -58.5l-14 -63q-25 -120 -87.5 -181.5t-172.5 -61.5h-9q-92 0 -137.5 45t-45.5 123q0 44 12 93l15 72q25 118 87.5 180.5zM434 352q3 24 3 43q0 58 -30.5 86.5t-95.5 28.5h-9
q-87 0 -132.5 -54t-66.5 -152l-10 -51q-13 -56 -13 -96q0 -56 31 -84.5t96 -28.5h7q88 0 134 54t66 152l12 57q5 21 8 45zM248.5 625q-7.5 -5 -15.5 -5h-6q-6 0 -9 2.5t-3 6.5q0 3 2.5 8t5.5 9.5l5 7.5l97 131q12 17 19 21t20 4h32q7 0 10.5 -1.5t3.5 -6.5t-6.5 -13.5
t-14.5 -16.5l-123 -131q-10 -11 -17.5 -16zM411 624.5q-7 -4.5 -16 -4.5h-6q-6 0 -9 2.5t-3 6.5q0 3 2.5 8t5.5 9.5l5 7.5l97 131q9 12 14 17t10.5 6.5t15.5 1.5h31q7 0 10.5 -1.5t3.5 -6.5t-6.5 -13.5t-14.5 -16.5l-122 -131q-11 -12 -18 -16.5z" />
    <glyph glyph-name="OE" unicode="&#x152;" horiz-adv-x="970" 
d="M454 2.5q-5 2.5 -5 11.5q0 7 1.5 14.5l2.5 12.5l12 51q-29 -44 -81.5 -74.5t-121.5 -30.5h-11q-67 0 -115 26t-73.5 74t-25.5 114q0 56 17 143l16 73q37 168 113 249.5t195 81.5h6q72 0 123.5 -30.5t67.5 -85.5l16 78q2 10 4.5 14t8 5.5t16.5 1.5h355q10 0 14 -1.5
t4 -7.5q0 -7 -1 -11l-4 -18q-3 -13 -7.5 -16.5t-17.5 -3.5h-318l-54 -256h226q10 0 13.5 -2t3.5 -8q0 -3 -2 -11l-4 -21q-3 -10 -7.5 -13t-16.5 -3h-226l-64 -301h333q10 0 13.5 -2.5t3.5 -7.5q0 -8 -1 -13l-4 -17q-3 -12 -7 -15t-17 -3h-362q-14 0 -19 2.5zM538 476
q5 36 5 59q0 72 -39 113.5t-115 41.5h-7q-100 0 -159.5 -67.5t-89.5 -206.5l-16 -74q-18 -90 -18 -133q0 -82 42.5 -123t122.5 -41h3q91 0 149.5 61.5t83.5 175.5l27 130q6 28 11 64z" />
    <glyph glyph-name="oe" unicode="&#x153;" horiz-adv-x="919" 
d="M821.5 526.5q44.5 -38.5 44.5 -108.5q0 -39 -9 -81l-8 -37q-3 -13 -6 -19t-8.5 -8t-16.5 -2h-339l-7 -32q-10 -43 -10 -75q0 -58 37.5 -89t104.5 -31q40 0 75.5 9t69.5 25q4 2 13.5 7t15.5 5q8 0 16 -14q4 -10 4 -20q-2 -14 -21 -24q-33 -19 -79.5 -31t-101.5 -12
q-73 0 -119 29.5t-60 80.5q-31 -53 -81 -81.5t-125 -28.5h-9q-92 0 -137.5 45t-45.5 123q0 44 12 93l15 72q25 119 86 181t172 62h9q75 0 117 -32t54 -85q34 55 87 86t119 31q87 0 131.5 -38.5zM438 395q0 58 -31 86.5t-96 28.5h-9q-88 0 -133.5 -54t-65.5 -152l-11 -51
q-5 -23 -9 -48.5t-4 -47.5q0 -56 31 -84.5t96 -28.5h9q88 0 133.5 54t66.5 152l11 58q12 52 12 87zM564.5 463q-49.5 -47 -71.5 -130l-2 -8h303l7 33q0 2 3.5 21.5t3.5 36.5q0 94 -120 94q-74 0 -123.5 -47z" />
    <glyph glyph-name="Racute" unicode="&#x154;" horiz-adv-x="644" 
d="M527.5 25.5q5.5 -10.5 5.5 -15.5q0 -6 -4.5 -8t-12.5 -2h-25q-12 0 -17 2.5t-10 12.5l-138 267q-7 12 -15.5 17t-24.5 5h-142l-60 -283q-2 -14 -6 -17.5t-16 -3.5h-26q-9 0 -12 1.5t-3 7.5q0 8 3 18l144 680q3 16 8 20t19 4h209q85 0 133.5 -21t68 -58.5t19.5 -91.5
q0 -71 -28 -125t-83 -87t-133 -39l139 -269q2 -4 7.5 -14.5zM468.5 390.5q49.5 28.5 71.5 72.5t22 94q0 42 -14.5 66.5t-50.5 37t-102 12.5h-173l-65 -311h184q78 0 127.5 28.5zM404.5 798q-7.5 -4 -14.5 -4h-12q-11 0 -11 9q0 5 3 10.5t10 14.5l100 109q14 15 22 20t22 5
h32q19 0 19 -10t-30 -34l-122 -106q-11 -10 -18.5 -14z" />
    <glyph glyph-name="racute" unicode="&#x155;" horiz-adv-x="383" 
d="M248.5 497q-24.5 -11 -46.5 -34q-23 -24 -38 -59t-26 -87l-63 -296q-2 -13 -7 -17t-16 -4h-20q-10 0 -14 2t-4 8t3 16l107 506q3 14 7 17.5t16 3.5h9q11 0 14 -3t4 -15l-2 -42h1q57 72 143 72q24 0 47.5 -5.5t40.5 -15.5q13 -6 13 -16q0 -8 -9 -24q-10 -18 -19 -18
q-4 0 -13 3.5t-11 4.5q-33 14 -63 14q-29 0 -53.5 -11zM280.5 625q-8.5 -5 -18.5 -5h-6q-7 0 -11 2.5t-4 7.5t4.5 11.5t11.5 14.5l124 128q17 17 25 21.5t23 4.5h27q11 0 16 -2.5t5 -8.5q1 -6 -6 -13.5t-24 -21.5l-148 -125q-10 -9 -18.5 -14z" />
    <glyph glyph-name="Rcommaaccent" unicode="&#x156;" horiz-adv-x="644" 
d="M527.5 25.5q5.5 -10.5 5.5 -15.5q0 -6 -4.5 -8t-12.5 -2h-25q-12 0 -17 2.5t-10 12.5l-138 267q-7 12 -15.5 17t-24.5 5h-142l-60 -283q-2 -14 -6 -17.5t-16 -3.5h-26q-9 0 -12 1.5t-3 7.5q0 8 3 18l144 680q3 16 8 20t19 4h209q85 0 133.5 -21t68 -58.5t19.5 -91.5
q0 -71 -28 -125t-83 -87t-133 -39l139 -269q2 -4 7.5 -14.5zM468.5 390.5q49.5 28.5 71.5 72.5t22 94q0 42 -14.5 66.5t-50.5 37t-102 12.5h-173l-65 -311h184q78 0 127.5 28.5zM199 -148q0 2 4 24l9 44q3 14 7 17.5t17 3.5h32q9 0 12.5 -2t3.5 -8q0 -7 -3 -19l-11 -52
q-2 -11 -7.5 -21.5t-16.5 -28.5l-26 -42q-7 -11 -12.5 -17.5t-9.5 -6.5t-11 4t-7 9t6.5 16.5t7.5 13.5l29 54h-11q-13 0 -13 11z" />
    <glyph glyph-name="rcommaaccent" unicode="&#x157;" horiz-adv-x="383" 
d="M248.5 497q-24.5 -11 -46.5 -34q-23 -24 -38 -59t-26 -87l-63 -296q-2 -13 -7 -17t-16 -4h-20q-10 0 -14 2t-4 8t3 16l107 506q3 14 7 17.5t16 3.5h9q11 0 14 -3t4 -15l-2 -42h1q57 72 143 72q24 0 47.5 -5.5t40.5 -15.5q13 -6 13 -16q0 -8 -9 -24q-10 -18 -19 -18
q-4 0 -13 3.5t-11 4.5q-33 14 -63 14q-29 0 -53.5 -11zM-19 -148q0 2 4 24l9 44q3 14 7 17.5t17 3.5h32q9 0 12.5 -2t3.5 -8q0 -7 -3 -19l-11 -52q-2 -11 -7.5 -21.5t-16.5 -28.5l-26 -42q-7 -11 -12.5 -17.5t-9.5 -6.5t-11 4t-7 9t6.5 16.5t7.5 13.5l29 54h-11
q-13 0 -13 11z" />
    <glyph glyph-name="Rcaron" unicode="&#x158;" horiz-adv-x="644" 
d="M527.5 25.5q5.5 -10.5 5.5 -15.5q0 -6 -4.5 -8t-12.5 -2h-25q-12 0 -17 2.5t-10 12.5l-138 267q-7 12 -15.5 17t-24.5 5h-142l-60 -283q-2 -14 -6 -17.5t-16 -3.5h-26q-9 0 -12 1.5t-3 7.5q0 8 3 18l144 680q3 16 8 20t19 4h209q85 0 133.5 -21t68 -58.5t19.5 -91.5
q0 -71 -28 -125t-83 -87t-133 -39l139 -269q2 -4 7.5 -14.5zM468.5 390.5q49.5 28.5 71.5 72.5t22 94q0 42 -14.5 66.5t-50.5 37t-102 12.5h-173l-65 -311h184q78 0 127.5 28.5zM285.5 928.5q-3.5 5.5 -6.5 11t-3 9.5t4 7t10 3h8q6 0 12.5 -4t15.5 -15l84 -95l129 95
q15 11 23 15t15 4h8q14 0 14 -9q0 -5 -8 -14t-17 -17l-114 -103q-14 -13 -21.5 -17.5t-18.5 -4.5h-29q-10 0 -15 4.5t-13 17.5l-71 103q-3 4 -6.5 9.5z" />
    <glyph glyph-name="rcaron" unicode="&#x159;" horiz-adv-x="383" 
d="M248.5 497q-24.5 -11 -46.5 -34q-23 -24 -38 -59t-26 -87l-63 -296q-2 -13 -7 -17t-16 -4h-20q-10 0 -14 2t-4 8t3 16l107 506q3 14 7 17.5t16 3.5h9q11 0 14 -3t4 -15l-2 -42h1q57 72 143 72q24 0 47.5 -5.5t40.5 -15.5q13 -6 13 -16q0 -8 -9 -24q-10 -18 -19 -18
q-4 0 -13 3.5t-11 4.5q-33 14 -63 14q-29 0 -53.5 -11zM168 775.5q-3 5.5 -6 12t-3 10.5q0 11 14 11h9q7 0 12.5 -3.5t13.5 -14.5l82 -119l134 118q14 12 21 15.5t14 3.5h15q5 0 8 -2.5t3 -6.5q0 -5 -8 -14.5t-17 -17.5l-120 -124q-15 -15 -21 -19.5t-16 -4.5h-34
q-9 0 -13.5 4.5t-11.5 19.5l-71 123q-2 3 -5 8.5z" />
    <glyph glyph-name="Sacute" unicode="&#x15a;" horiz-adv-x="594" 
d="M477 101.5q-34 -55.5 -96 -85t-144 -29.5q-61 0 -118 14t-95 40q-16 9 -22 14t-6 11q0 5 3 11t7 11q11 16 20 16q4 0 8 -2t8.5 -5t10.5 -6q39 -22 84 -34t102 -12q73 0 120 25t69 65.5t22 88.5q0 36 -14 61t-49.5 43t-100.5 31q-62 13 -102.5 32.5t-62 52t-21.5 82.5
q0 53 23.5 97t70.5 76q34 22 78.5 34t97.5 12q52 0 101 -9.5t86 -23.5q8 -4 11.5 -8t3.5 -10q0 -10 -9 -24q-7 -14 -18 -14q-5 0 -22 5.5t-25 7.5q-63 18 -132 18q-66 0 -112 -22t-69 -57.5t-23 -73.5q0 -35 14 -56.5t44.5 -35t85.5 -24.5q66 -13 110.5 -34t69.5 -58t25 -94
q0 -75 -34 -130.5zM356.5 798q-7.5 -4 -14.5 -4h-12q-11 0 -11 9q0 5 3 10.5t10 14.5l100 109q14 15 22 20t22 5h32q19 0 19 -10t-30 -34l-122 -106q-11 -10 -18.5 -14z" />
    <glyph glyph-name="sacute" unicode="&#x15b;" horiz-adv-x="466" 
d="M-6.5 34q-9.5 6 -9.5 13q0 4 3 10t4 9q11 17 19 17q4 0 8.5 -2t8 -4t6.5 -3q60 -26 132 -26q55 0 93.5 20.5t57.5 51.5t19 62q0 28 -12.5 45t-39.5 26.5t-76 16.5q-82 13 -118 43.5t-36 82.5q0 48 25 86t75.5 60.5t122.5 22.5q70 0 131 -22q27 -9 27 -21q0 -4 -2.5 -9.5
t-6.5 -11.5q-10 -15 -19 -15q-3 0 -11 3l-16 6q-22 7 -49 11.5t-56 4.5q-47 0 -83 -12.5t-56.5 -37t-20.5 -59.5q0 -25 12 -39.5t39 -23.5t77 -17q62 -10 95.5 -30t45.5 -45.5t12 -59.5q0 -49 -27 -94t-79 -72.5t-123 -27.5q-82 0 -140 25q-23 10 -32.5 16zM267.5 625
q-8.5 -5 -18.5 -5h-6q-7 0 -11 2.5t-4 7.5t4.5 11.5t11.5 14.5l124 128q17 17 25 21.5t23 4.5h27q11 0 16 -2.5t5 -8.5q1 -6 -6 -13.5t-24 -21.5l-148 -125q-10 -9 -18.5 -14z" />
    <glyph glyph-name="Scircumflex" unicode="&#x15c;" horiz-adv-x="594" 
d="M477 101.5q-34 -55.5 -96 -85t-144 -29.5q-61 0 -118 14t-95 40q-16 9 -22 14t-6 11q0 5 3 11t7 11q11 16 20 16q4 0 8 -2t8.5 -5t10.5 -6q39 -22 84 -34t102 -12q73 0 120 25t69 65.5t22 88.5q0 36 -14 61t-49.5 43t-100.5 31q-62 13 -102.5 32.5t-62 52t-21.5 82.5
q0 53 23.5 97t70.5 76q34 22 78.5 34t97.5 12q52 0 101 -9.5t86 -23.5q8 -4 11.5 -8t3.5 -10q0 -10 -9 -24q-7 -14 -18 -14q-5 0 -22 5.5t-25 7.5q-63 18 -132 18q-66 0 -112 -22t-69 -57.5t-23 -73.5q0 -35 14 -56.5t44.5 -35t85.5 -24.5q66 -13 110.5 -34t69.5 -58t25 -94
q0 -75 -34 -130.5zM373.5 954.5q7.5 4.5 17.5 4.5h29q11 0 16 -4.5t13 -17.5l71 -104q5 -7 10 -15.5t5 -13.5q0 -10 -13 -10h-8q-7 0 -13.5 4t-14.5 14l-84 96l-129 -96q-14 -10 -22 -14t-16 -4h-9q-14 0 -14 8q0 9 25 31l115 104q14 13 21.5 17.5z" />
    <glyph glyph-name="scircumflex" unicode="&#x15d;" horiz-adv-x="466" 
d="M-6.5 34q-9.5 6 -9.5 13q0 4 3 10t4 9q11 17 19 17q4 0 8.5 -2t8 -4t6.5 -3q60 -26 132 -26q55 0 93.5 20.5t57.5 51.5t19 62q0 28 -12.5 45t-39.5 26.5t-76 16.5q-82 13 -118 43.5t-36 82.5q0 48 25 86t75.5 60.5t122.5 22.5q70 0 131 -22q27 -9 27 -21q0 -4 -2.5 -9.5
t-6.5 -11.5q-10 -15 -19 -15q-3 0 -11 3l-16 6q-22 7 -49 11.5t-56 4.5q-47 0 -83 -12.5t-56.5 -37t-20.5 -59.5q0 -25 12 -39.5t39 -23.5t77 -17q62 -10 95.5 -30t45.5 -45.5t12 -59.5q0 -49 -27 -94t-79 -72.5t-123 -27.5q-82 0 -140 25q-23 10 -32.5 16zM278 804
q7 5 16 5h35q9 0 13.5 -5t11.5 -19l71 -123q2 -4 5.5 -9.5t6.5 -11.5t3 -10q0 -5 -4 -8t-10 -3h-9q-7 0 -13.5 4.5t-14.5 16.5l-81 116l-135 -118q-13 -11 -20 -15t-13 -4h-14q-5 0 -8 3t-3 7q0 5 5.5 12t10 12t7.5 8l120 123q13 14 20 19z" />
    <glyph glyph-name="Scedilla" unicode="&#x15e;" horiz-adv-x="594" 
d="M568.5 704q3.5 -4 3.5 -10q0 -10 -9 -24q-7 -14 -18 -14q-5 0 -22 5.5t-25 7.5q-63 18 -132 18q-66 0 -112 -22t-69 -57.5t-23 -73.5q0 -35 14 -56.5t44.5 -35t85.5 -24.5q66 -13 110.5 -34t69.5 -58t25 -94q0 -74 -33.5 -129t-94 -85t-141.5 -31l-38 -52q7 4 17.5 6
t19.5 2q35 0 55.5 -20.5t20.5 -55.5q0 -37 -18.5 -64t-51.5 -41t-76 -14q-26 0 -51.5 6t-41.5 15t-16 17q0 5 6 13l6 7q4 5 6.5 6.5t5.5 1.5t16 -6t30 -10t42 -4q41 0 64.5 17.5t23.5 48.5q0 17 -10.5 28t-32.5 11q-14 0 -23.5 -3.5t-19.5 -9.5q-12 -7 -19 -7t-16.5 5.5
t-9.5 12.5q0 4 3.5 9.5t6.5 9.5t5 7l47 66q-51 5 -94.5 18t-74.5 34q-16 9 -22 14t-6 11q0 5 3 11t7 11q11 16 20 16q4 0 8 -2t8.5 -5t10.5 -6q39 -22 84 -34t102 -12q73 0 120 25t69 65.5t22 88.5q0 36 -14 61t-49.5 43t-100.5 31q-62 13 -102.5 32.5t-62 52t-21.5 82.5
q0 53 23.5 97t70.5 76q34 22 78.5 34t97.5 12q52 0 101 -9.5t86 -23.5q8 -4 11.5 -8z" />
    <glyph glyph-name="scedilla" unicode="&#x15f;" horiz-adv-x="466" 
d="M434 522q0 -4 -2.5 -9.5t-6.5 -11.5q-10 -15 -19 -15q-3 0 -11 3l-16 6q-22 7 -49 11.5t-56 4.5q-47 0 -83 -12.5t-56.5 -37t-20.5 -59.5q0 -25 12 -39.5t39 -23.5t77 -17q62 -10 95.5 -30t45.5 -45.5t12 -59.5q0 -48 -25.5 -91.5t-74 -71.5t-115.5 -31l-43 -58
q7 4 17.5 6t19.5 2q35 0 55.5 -20.5t20.5 -55.5q0 -37 -18.5 -64t-51.5 -41t-76 -14q-26 0 -51.5 6t-41.5 15t-16 17q0 5 6 13l6 7q4 5 6.5 6.5t5.5 1.5t16 -6t30 -10t42 -4q41 0 64.5 17.5t23.5 48.5q0 17 -10.5 28t-32.5 11q-14 0 -23.5 -3.5t-19.5 -9.5q-12 -7 -19 -7
t-16.5 5.5t-9.5 12.5q0 4 3.5 9.5t6.5 9.5t5 7l51 71q-64 6 -104 24q-23 10 -32.5 16t-9.5 13q0 4 3 10t4 9q11 17 19 17q4 0 8.5 -2t8 -4t6.5 -3q60 -26 132 -26q55 0 93.5 20.5t57.5 51.5t19 62q0 28 -12.5 45t-39.5 26.5t-76 16.5q-82 13 -118 43.5t-36 82.5q0 48 25 86
t75.5 60.5t122.5 22.5q70 0 131 -22q27 -9 27 -21z" />
    <glyph glyph-name="Scaron" unicode="&#x160;" horiz-adv-x="594" 
d="M477 101.5q-34 -55.5 -96 -85t-144 -29.5q-61 0 -118 14t-95 40q-16 9 -22 14t-6 11q0 5 3 11t7 11q11 16 20 16q4 0 8 -2t8.5 -5t10.5 -6q39 -22 84 -34t102 -12q73 0 120 25t69 65.5t22 88.5q0 36 -14 61t-49.5 43t-100.5 31q-62 13 -102.5 32.5t-62 52t-21.5 82.5
q0 53 23.5 97t70.5 76q34 22 78.5 34t97.5 12q52 0 101 -9.5t86 -23.5q8 -4 11.5 -8t3.5 -10q0 -10 -9 -24q-7 -14 -18 -14q-5 0 -22 5.5t-25 7.5q-63 18 -132 18q-66 0 -112 -22t-69 -57.5t-23 -73.5q0 -35 14 -56.5t44.5 -35t85.5 -24.5q66 -13 110.5 -34t69.5 -58t25 -94
q0 -75 -34 -130.5zM244.5 928.5q-3.5 5.5 -6.5 11t-3 9.5t4 7t10 3h8q6 0 12.5 -4t15.5 -15l84 -95l129 95q15 11 23 15t15 4h8q14 0 14 -9q0 -5 -8 -14t-17 -17l-114 -103q-14 -13 -21.5 -17.5t-18.5 -4.5h-29q-10 0 -15 4.5t-13 17.5l-71 103q-3 4 -6.5 9.5z" />
    <glyph glyph-name="scaron" unicode="&#x161;" horiz-adv-x="466" 
d="M-6.5 34q-9.5 6 -9.5 13q0 4 3 10t4 9q11 17 19 17q4 0 8.5 -2t8 -4t6.5 -3q60 -26 132 -26q55 0 93.5 20.5t57.5 51.5t19 62q0 28 -12.5 45t-39.5 26.5t-76 16.5q-82 13 -118 43.5t-36 82.5q0 48 25 86t75.5 60.5t122.5 22.5q70 0 131 -22q27 -9 27 -21q0 -4 -2.5 -9.5
t-6.5 -11.5q-10 -15 -19 -15q-3 0 -11 3l-16 6q-22 7 -49 11.5t-56 4.5q-47 0 -83 -12.5t-56.5 -37t-20.5 -59.5q0 -25 12 -39.5t39 -23.5t77 -17q62 -10 95.5 -30t45.5 -45.5t12 -59.5q0 -49 -27 -94t-79 -72.5t-123 -27.5q-82 0 -140 25q-23 10 -32.5 16zM151 775.5
q-3 5.5 -6 12t-3 10.5q0 11 14 11h9q7 0 12.5 -3.5t13.5 -14.5l82 -119l134 118q14 12 21 15.5t14 3.5h15q5 0 8 -2.5t3 -6.5q0 -5 -8 -14.5t-17 -17.5l-120 -124q-15 -15 -21 -19.5t-16 -4.5h-34q-9 0 -13.5 4.5t-11.5 19.5l-71 123q-2 3 -5 8.5z" />
    <glyph glyph-name="uni0162" unicode="&#x162;" horiz-adv-x="552" 
d="M595 676.5q-5 -3.5 -18 -3.5h-210l-138 -652q-3 -13 -7.5 -17t-17.5 -4h-19q-11 0 -15 2t-4 8q0 3 3 19l137 644h-209q-10 0 -14 1.5t-4 7.5l2 12l4 19q2 11 7 14.5t18 3.5h480q10 0 14 -2t4 -8l-2 -12l-4 -18q-2 -11 -7 -14.5zM126 -148q0 2 4 24l9 44q3 14 7 17.5
t17 3.5h32q9 0 12.5 -2t3.5 -8q0 -7 -3 -19l-11 -52q-2 -11 -7.5 -21.5t-16.5 -28.5l-26 -42q-7 -11 -12.5 -17.5t-9.5 -6.5t-11 4t-7 9t6.5 16.5t7.5 13.5l29 54h-11q-13 0 -13 11z" />
    <glyph glyph-name="uni0163" unicode="&#x163;" horiz-adv-x="342" 
d="M153.5 687q3.5 4 11.5 8l19 8q10 5 19 5q5 0 7.5 -2t2.5 -6t-1 -8l-2 -8l-31 -142h150q13 0 17.5 -2t4.5 -8l-2 -13l-3 -13q-2 -12 -7.5 -15.5t-21.5 -3.5h-150l-70 -333q-7 -31 -7 -51q0 -29 16 -43.5t46 -14.5q21 0 39 4t37 10q3 1 11 3.5t12 2.5q10 0 12 -15
q3 -16 3 -21t-3 -9t-10 -8q-20 -9 -49 -15t-58 -6q-57 0 -86 28t-29 76q0 16 2.5 32.5t4.5 26.5l3 15l67 318h-45q-17 0 -17 10q0 4 1 7l1 6q2 9 10 12.5t29 6.5q18 3 26.5 12t11.5 23l24 109q1 10 4.5 14zM63 -148q0 2 4 24l9 44q3 14 7 17.5t17 3.5h32q9 0 12.5 -2t3.5 -8
q0 -7 -3 -19l-11 -52q-2 -11 -7.5 -21.5t-16.5 -28.5l-26 -42q-7 -11 -12.5 -17.5t-9.5 -6.5t-11 4t-7 9t6.5 16.5t7.5 13.5l29 54h-11q-13 0 -13 11z" />
    <glyph glyph-name="Tcaron" unicode="&#x164;" horiz-adv-x="552" 
d="M595 676.5q-5 -3.5 -18 -3.5h-210l-138 -652q-3 -13 -7.5 -17t-17.5 -4h-19q-11 0 -15 2t-4 8q0 3 3 19l137 644h-209q-10 0 -14 1.5t-4 7.5l2 12l4 19q2 11 7 14.5t18 3.5h480q10 0 14 -2t4 -8l-2 -12l-4 -18q-2 -11 -7 -14.5zM234.5 928.5q-3.5 5.5 -6.5 11t-3 9.5t4 7
t10 3h8q6 0 12.5 -4t15.5 -15l84 -95l129 95q15 11 23 15t15 4h8q14 0 14 -9q0 -5 -8 -14t-17 -17l-114 -103q-14 -13 -21.5 -17.5t-18.5 -4.5h-29q-10 0 -15 4.5t-13 17.5l-71 103q-3 4 -6.5 9.5z" />
    <glyph glyph-name="tcaron" unicode="&#x165;" horiz-adv-x="342" 
d="M153.5 687q3.5 4 11.5 8l19 8q10 5 19 5q5 0 7.5 -2t2.5 -6t-1 -8l-2 -8l-31 -142h150q13 0 17.5 -2t4.5 -8l-2 -13l-3 -13q-2 -12 -7.5 -15.5t-21.5 -3.5h-150l-70 -333q-7 -31 -7 -51q0 -29 16 -43.5t46 -14.5q21 0 39 4t37 10q3 1 11 3.5t12 2.5q10 0 12 -15
q3 -16 3 -21t-3 -9t-10 -8q-20 -9 -49 -15t-58 -6q-57 0 -86 28t-29 76q0 16 2.5 32.5t4.5 26.5l3 15l67 318h-45q-17 0 -17 10q0 4 1 7l1 6q2 9 10 12.5t29 6.5q18 3 26.5 12t11.5 23l24 109q1 10 4.5 14zM314 623.5q-5 -3.5 -13 -3.5h-7q-5 0 -8 2.5t-3 7.5q0 8 14 38
l56 131q7 15 13.5 19.5t23.5 4.5h20q9 0 12 -2.5t3 -7.5t-5.5 -15.5t-11.5 -20.5l-82 -138q-7 -12 -12 -15.5z" />
    <glyph glyph-name="Tbar" unicode="&#x166;" horiz-adv-x="552" 
d="M229 21q-3 -13 -7.5 -17t-17.5 -4h-19q-11 0 -15 2t-4 8q0 3 3 19l70 331h-144q-10 0 -14 2t-4 8q0 7 3 17l2 11q2 11 7 14.5t19 3.5h143l55 257h-209q-10 0 -14 1.5t-4 7.5l2 12l4 19q2 11 7 14.5t18 3.5h480q10 0 14 -2t4 -8l-2 -12l-4 -18q-2 -11 -7 -14.5t-18 -3.5
h-210l-54 -257h144q10 0 14 -2t4 -7q0 -6 -1 -11l-3 -15q-2 -13 -7.5 -17t-17.5 -4h-145z" />
    <glyph glyph-name="tbar" unicode="&#x167;" horiz-adv-x="342" 
d="M153.5 687q3.5 4 11.5 8l19 8q10 5 18 5q11 0 11 -8q0 -4 -1 -7.5t-2 -6.5l-31 -144h150q12 0 17 -2t5 -8l-2 -13l-3 -13q-2 -12 -7.5 -15.5t-21.5 -3.5h-150l-32 -150h125q11 0 14.5 -2t3.5 -7q0 -6 -1 -11l-2 -12q-3 -13 -8 -16.5t-18 -3.5h-125l-27 -131
q-7 -31 -7 -51q0 -29 16 -43.5t46 -14.5q27 0 45.5 4t37.5 11q15 5 20 5q11 0 13 -15q3 -16 3 -21t-3.5 -9t-10.5 -8q-45 -21 -111 -21q-57 0 -86 28t-29 76q0 16 2.5 32.5t4.5 26.5l3 15l24 116h-42q-11 0 -15 1.5t-4 7.5l3 14l2 10q2 12 7 15.5t19 3.5h42l31 150h-44
q-18 0 -18 10q0 4 1 7l1 6q2 9 10 12.5t29 6.5q18 3 26.5 12t11.5 23l24 109q1 10 4.5 14z" />
    <glyph glyph-name="Utilde" unicode="&#x168;" horiz-adv-x="690" 
d="M480.5 60q-72.5 -74 -206.5 -74h-4q-109 0 -162 51t-53 143q0 31 12 95l93 435q2 13 6.5 17t18.5 4h19q11 0 15 -2t4 -7q0 -3 -3 -17l-92 -427l-4.5 -22.5t-5.5 -36t-2 -37.5q0 -71 41 -104.5t123 -33.5q94 0 155.5 53.5t85.5 167.5l94 445q2 13 6.5 17t18.5 4h19
q11 0 15 -1.5t4 -7.5l-2 -17l-97 -453q-26 -118 -98.5 -192zM391.5 872.5q-11.5 4.5 -25.5 4.5q-21 0 -37.5 -13.5t-27.5 -37.5q-4 -11 -9 -16.5t-13 -5.5h-12q-13 0 -13 11q0 20 13.5 46.5t40.5 46.5t65 20q23 0 40 -6t37 -19l33 -20q17 -11 28 -15t26 -4q21 0 37.5 13.5
t27.5 36.5q4 11 9.5 16.5t13.5 5.5h12q5 0 8 -2.5t3 -7.5q0 -20 -14 -47.5t-39.5 -47t-59.5 -19.5q-22 0 -41.5 6.5t-38.5 18.5l-34 21q-18 10 -29.5 14.5z" />
    <glyph glyph-name="utilde" unicode="&#x169;" horiz-adv-x="584" 
d="M412.5 3.5q-3.5 -3.5 -15.5 -3.5h-9q-12 0 -15.5 3.5t-3.5 16.5l2 40h-2q-99 -72 -198 -72q-68 0 -103.5 32.5t-35.5 91.5q0 30 10 76l74 344q3 14 7.5 17.5t18.5 3.5h18q10 0 13.5 -2t3.5 -8l-2 -14l-73 -339q-5 -19 -8 -39t-3 -30q0 -38 21.5 -58t70.5 -20
q42 0 91 19.5t91 51.5q10 7 14.5 14.5t6.5 18.5l82 385q3 13 7.5 17t18.5 4h19q9 0 12.5 -2t3.5 -8q0 -7 -2 -14l-108 -508q-3 -14 -6.5 -17.5zM295 698.5q-12 4.5 -26 4.5q-41 0 -64 -50q-4 -11 -9 -16.5t-13 -5.5h-12q-13 0 -13 10q0 20 13.5 47t40 47t63.5 20q23 0 39 -6
t38 -19l33 -20q18 -11 29 -15.5t25 -4.5q39 0 62 51q5 12 10 17t13 5h13q5 0 8 -2.5t3 -7.5q0 -20 -13.5 -47.5t-39 -47t-59.5 -19.5q-22 0 -41 6t-39 19l-34 20q-15 10 -27 14.5z" />
    <glyph glyph-name="Umacron" unicode="&#x16a;" horiz-adv-x="690" 
d="M480.5 60q-72.5 -74 -206.5 -74h-4q-109 0 -162 51t-53 143q0 31 12 95l93 435q2 13 6.5 17t18.5 4h19q11 0 15 -2t4 -7q0 -3 -3 -17l-92 -427l-4.5 -22.5t-5.5 -36t-2 -37.5q0 -71 41 -104.5t123 -33.5q94 0 155.5 53.5t85.5 167.5l94 445q2 13 6.5 17t18.5 4h19
q11 0 15 -1.5t4 -7.5l-2 -17l-97 -453q-26 -118 -98.5 -192zM294 887q6 4 17 4h271q17 0 17 -12q0 -4 -3 -15l-3 -11q-2 -9 -7.5 -12.5t-17.5 -3.5h-270q-9 0 -13 2.5t-4 8.5q0 5 3 14l2 13q2 8 8 12z" />
    <glyph glyph-name="umacron" unicode="&#x16b;" horiz-adv-x="584" 
d="M412.5 3.5q-3.5 -3.5 -15.5 -3.5h-9q-12 0 -15.5 3.5t-3.5 16.5l2 40h-2q-99 -72 -198 -72q-68 0 -103.5 32.5t-35.5 91.5q0 30 10 76l74 344q3 14 7.5 17.5t18.5 3.5h18q10 0 13.5 -2t3.5 -8l-2 -14l-73 -339q-5 -19 -8 -39t-3 -30q0 -38 21.5 -58t70.5 -20
q42 0 91 19.5t91 51.5q10 7 14.5 14.5t6.5 18.5l82 385q3 13 7.5 17t18.5 4h19q9 0 12.5 -2t3.5 -8q0 -7 -2 -14l-108 -508q-3 -14 -6.5 -17.5zM218 717h268q19 0 19 -12q0 -3 -2 -9l-3 -16q-2 -9 -8 -13t-17 -4h-269q-9 0 -13 3t-4 10q0 6 1 9l4 15q3 17 24 17z" />
    <glyph glyph-name="Ubreve" unicode="&#x16c;" horiz-adv-x="690" 
d="M480.5 60q-72.5 -74 -206.5 -74h-4q-109 0 -162 51t-53 143q0 31 12 95l93 435q2 13 6.5 17t18.5 4h19q11 0 15 -2t4 -7q0 -3 -3 -17l-92 -427l-4.5 -22.5t-5.5 -36t-2 -37.5q0 -71 41 -104.5t123 -33.5q94 0 155.5 53.5t85.5 167.5l94 445q2 13 6.5 17t18.5 4h19
q11 0 15 -1.5t4 -7.5l-2 -17l-97 -453q-26 -118 -98.5 -192zM530 876.5q33 30.5 48 68.5q6 11 10 14t14 3h6q7 0 10 -2.5t3 -8.5q0 -24 -19 -61t-61.5 -66.5t-109.5 -29.5q-42 0 -73.5 14.5t-49 41t-17.5 62.5q0 23 3.5 36.5t17.5 13.5h5q10 0 13 -3.5t3 -13.5
q0 -99 102 -99q62 0 95 30.5z" />
    <glyph glyph-name="ubreve" unicode="&#x16d;" horiz-adv-x="584" 
d="M412.5 3.5q-3.5 -3.5 -15.5 -3.5h-9q-12 0 -15.5 3.5t-3.5 16.5l2 40h-2q-99 -72 -198 -72q-68 0 -103.5 32.5t-35.5 91.5q0 30 10 76l74 344q3 14 7.5 17.5t18.5 3.5h18q10 0 13.5 -2t3.5 -8l-2 -14l-73 -339q-5 -19 -8 -39t-3 -30q0 -38 21.5 -58t70.5 -20
q42 0 91 19.5t91 51.5q10 7 14.5 14.5t6.5 18.5l82 385q3 13 7.5 17t18.5 4h19q9 0 12.5 -2t3.5 -8q0 -7 -2 -14l-108 -508q-3 -14 -6.5 -17.5zM430 709q35 37 51 80q4 10 9 13t14 3h7q11 0 11 -9q0 -25 -19.5 -67t-62.5 -75.5t-108 -33.5q-39 0 -70 15.5t-48.5 45.5
t-17.5 72q0 52 22 52h7q6 0 9 -1.5t4 -7.5t1 -15q0 -42 19.5 -75.5t76.5 -33.5q60 0 95 37z" />
    <glyph glyph-name="Uring" unicode="&#x16e;" horiz-adv-x="690" 
d="M480.5 60q-72.5 -74 -206.5 -74h-4q-109 0 -162 51t-53 143q0 31 12 95l93 435q2 13 6.5 17t18.5 4h19q11 0 15 -2t4 -7q0 -3 -3 -17l-92 -427l-4.5 -22.5t-5.5 -36t-2 -37.5q0 -71 41 -104.5t123 -33.5q94 0 155.5 53.5t85.5 167.5l94 445q2 13 6.5 17t18.5 4h19
q11 0 15 -1.5t4 -7.5l-2 -17l-97 -453q-26 -118 -98.5 -192zM344.5 917.5q15.5 25.5 41.5 40.5t57 15q30 0 55.5 -15t40.5 -40.5t15 -55.5q0 -31 -15 -56.5t-40.5 -40.5t-56.5 -15t-57 15t-41 40.5t-15 56.5q0 30 15.5 55.5zM381.5 827q9.5 -16 25.5 -25.5t35 -9.5t34.5 9.5
t25 25.5t9.5 35t-9.5 34.5t-25 25t-34.5 9.5t-35 -9.5t-25.5 -25.5t-9.5 -34q0 -19 9.5 -35z" />
    <glyph glyph-name="uring" unicode="&#x16f;" horiz-adv-x="584" 
d="M412.5 3.5q-3.5 -3.5 -15.5 -3.5h-9q-12 0 -15.5 3.5t-3.5 16.5l2 40h-2q-99 -72 -198 -72q-68 0 -103.5 32.5t-35.5 91.5q0 30 10 76l74 344q3 14 7.5 17.5t18.5 3.5h18q10 0 13.5 -2t3.5 -8l-2 -14l-73 -339q-5 -19 -8 -39t-3 -30q0 -38 21.5 -58t70.5 -20
q42 0 91 19.5t91 51.5q10 7 14.5 14.5t6.5 18.5l82 385q3 13 7.5 17t18.5 4h19q9 0 12.5 -2t3.5 -8q0 -7 -2 -14l-108 -508q-3 -14 -6.5 -17.5zM257 779q15 25 41 40t57 15q30 0 55.5 -15t40.5 -40.5t15 -55.5q0 -31 -15 -57t-40.5 -41t-56.5 -15t-56.5 15t-40.5 41t-15 57
t15 56zM293.5 688q9.5 -16 25.5 -25.5t35 -9.5t35 9.5t25.5 25.5t9.5 35q0 18 -9.5 33.5t-25.5 25t-35 9.5t-35 -9.5t-25.5 -25t-9.5 -33.5q0 -19 9.5 -35z" />
    <glyph glyph-name="Uhungarumlaut" unicode="&#x170;" horiz-adv-x="690" 
d="M480.5 60q-72.5 -74 -206.5 -74h-4q-109 0 -162 51t-53 143q0 31 12 95l93 435q2 13 6.5 17t18.5 4h19q11 0 15 -2t4 -7q0 -3 -3 -17l-92 -427l-4.5 -22.5t-5.5 -36t-2 -37.5q0 -71 41 -104.5t123 -33.5q94 0 155.5 53.5t85.5 167.5l94 445q2 13 6.5 17t18.5 4h19
q11 0 15 -1.5t4 -7.5l-2 -17l-97 -453q-26 -118 -98.5 -192zM355.5 799.5q-8.5 -5.5 -16.5 -5.5h-9q-12 0 -12 8q0 4 3.5 10.5t8.5 14.5l79 110q12 16 20 20.5t24 4.5h32q10 0 14.5 -2t4.5 -7q0 -6 -5.5 -12.5t-10 -11l-7.5 -7.5l-105 -105q-12 -12 -20.5 -17.5z
M526.5 799.5q-8.5 -5.5 -16.5 -5.5h-9q-12 0 -12 8q0 4 3.5 10.5t8.5 14.5l79 110q9 12 14 17t11 6.5t19 1.5h32q10 0 14.5 -2t4.5 -7q0 -6 -5.5 -12.5t-10 -11l-7.5 -7.5l-105 -105q-12 -12 -20.5 -17.5z" />
    <glyph glyph-name="uhungarumlaut" unicode="&#x171;" horiz-adv-x="584" 
d="M412.5 3.5q-3.5 -3.5 -15.5 -3.5h-9q-12 0 -15.5 3.5t-3.5 16.5l2 40h-2q-99 -72 -198 -72q-68 0 -103.5 32.5t-35.5 91.5q0 30 10 76l74 344q3 14 7.5 17.5t18.5 3.5h18q10 0 13.5 -2t3.5 -8l-2 -14l-73 -339q-5 -19 -8 -39t-3 -30q0 -38 21.5 -58t70.5 -20
q42 0 91 19.5t91 51.5q10 7 14.5 14.5t6.5 18.5l82 385q3 13 7.5 17t18.5 4h19q9 0 12.5 -2t3.5 -8q0 -7 -2 -14l-108 -508q-3 -14 -6.5 -17.5zM259.5 625q-7.5 -5 -15.5 -5h-6q-6 0 -9 2.5t-3 6.5q0 3 2.5 8t5.5 9.5l5 7.5l97 131q12 17 19 21t20 4h32q7 0 10.5 -1.5
t3.5 -6.5t-6.5 -13.5t-14.5 -16.5l-123 -131q-10 -11 -17.5 -16zM422 624.5q-7 -4.5 -16 -4.5h-6q-6 0 -9 2.5t-3 6.5q0 3 2.5 8t5.5 9.5l5 7.5l97 131q9 12 14 17t10.5 6.5t15.5 1.5h31q7 0 10.5 -1.5t3.5 -6.5t-6.5 -13.5t-14.5 -16.5l-122 -131q-11 -12 -18 -16.5z" />
    <glyph glyph-name="Uogonek" unicode="&#x172;" horiz-adv-x="690" 
d="M372 -1q-43 -12 -75 -36t-48.5 -52.5t-16.5 -55.5q0 -25 15 -37t40 -12q15 0 29 3.5t25.5 7.5t14.5 4q7 0 8 -10l1 -16v-3q0 -14 -18 -20q-31 -13 -68 -13q-29 0 -52.5 10.5t-37 30t-13.5 45.5q0 44 23.5 78.5t70.5 64.5q-8 -2 -13 -2q-102 4 -152 54.5t-50 138.5
q0 32 12 96l93 435q2 13 6.5 17t18.5 4h19q11 0 15 -2t4 -7q0 -3 -3 -17l-92 -427l-4.5 -22.5t-5.5 -36t-2 -37.5q0 -71 41 -104.5t123 -33.5q94 0 155.5 53.5t85.5 167.5l94 445q2 13 6.5 17t18.5 4h19q11 0 15 -1.5t4 -7.5l-2 -17l-97 -453q-44 -205 -207 -253z" />
    <glyph glyph-name="uogonek" unicode="&#x173;" horiz-adv-x="584" 
d="M413.5 3q-3.5 -6 -10.5 -11q-97 -68 -97 -137q0 -25 15 -37t40 -12q14 0 28 3.5t25 7.5t15 4q8 0 8 -10l2 -16q0 -8 -4 -13.5t-15 -9.5q-31 -13 -67 -13q-29 0 -52.5 11t-37 31.5t-13.5 47.5q0 93 120 158v23l1 30h-2q-99 -72 -198 -72q-68 0 -103.5 32.5t-35.5 91.5
q0 30 10 76l74 344q3 14 7.5 17.5t18.5 3.5h18q10 0 13.5 -2t3.5 -8l-2 -14l-73 -339q-5 -19 -8 -39t-3 -30q0 -38 21.5 -58t70.5 -20q42 0 91 19.5t91 51.5q10 7 14.5 14.5t6.5 18.5l82 385q3 13 7.5 17t18.5 4h19q9 0 12.5 -2t3.5 -8q0 -7 -2 -14l-108 -508
q-2 -12 -5.5 -18z" />
    <glyph glyph-name="Wcircumflex" unicode="&#x174;" horiz-adv-x="818" 
d="M523.5 148q0.5 -24 0.5 -50h3q7 23 20.5 56t23.5 54l219 504q6 13 11 16t18 3h25q9 0 12 -1.5t3 -5.5q0 -6 -3 -12l-307 -692q-6 -13 -10.5 -16.5t-16.5 -3.5h-20q-13 0 -17 3.5t-5 16.5l-37 430q-2 24 -2 44q0 8 -0.5 27.5t0.5 29.5h-3q-14 -46 -39 -98l-210 -432
q-6 -14 -11 -17.5t-18 -3.5h-18q-13 0 -17 3.5t-5 16.5l-13 692q0 12 3.5 15.5t16.5 3.5h21q13 0 16.5 -3.5t3.5 -15.5l10 -544q0 -22 -4 -68h3q16 45 33 82l208 435q7 13 11.5 16.5t16.5 3.5h18q12 0 16 -4.5t5 -15.5l36 -420q2 -25 2.5 -49zM474.5 954.5q7.5 4.5 17.5 4.5
h29q11 0 16 -4.5t13 -17.5l71 -104q5 -7 10 -15.5t5 -13.5q0 -10 -13 -10h-8q-7 0 -13.5 4t-14.5 14l-84 96l-129 -96q-14 -10 -22 -14t-16 -4h-9q-14 0 -14 8q0 9 25 31l115 104q14 13 21.5 17.5z" />
    <glyph glyph-name="wcircumflex" unicode="&#x175;" horiz-adv-x="744" 
d="M98 4q-4 4 -5 17l-34 479q-1 14 -2 24t-1 16q0 7 4.5 10t16.5 3h19q11 0 15 -4t5 -18l22 -332q4 -58 4 -116h1l18 39q9 21 36 77l167 335q7 12 12.5 15.5t15.5 3.5h24q14 0 18.5 -3t5.5 -14l24 -349q0 -10 1.5 -29.5t1.5 -38.5q0 -23 -1 -36h2q28 65 50 110l168 340
q6 13 11 16.5t18 3.5h21q9 0 12.5 -1.5t3.5 -6.5q0 -7 -11 -27l-248 -497q-6 -13 -11 -17t-16 -4h-23q-12 0 -16.5 4t-5.5 16l-27 402q-2 43 -1 63h-2q-15 -39 -29 -65l-196 -399q-7 -13 -12 -17t-17 -4h-22q-13 0 -17 4zM412 804q7 5 16 5h35q9 0 13.5 -5t11.5 -19l71 -123
q2 -4 5.5 -9.5t6.5 -11.5t3 -10q0 -5 -4 -8t-10 -3h-9q-7 0 -13.5 4.5t-14.5 16.5l-81 116l-135 -118q-13 -11 -20 -15t-13 -4h-14q-5 0 -8 3t-3 7q0 5 5.5 12t10 12t7.5 8l120 123q13 14 20 19z" />
    <glyph glyph-name="Ycircumflex" unicode="&#x176;" horiz-adv-x="536" 
d="M80 718q0 7 5 10t15 3h20q10 0 15.5 -3.5t8.5 -13.5l87 -298q16 -53 23 -88h2q24 38 63 94l208 292q7 9 13.5 13t16.5 4h27q9 0 13.5 -2t4.5 -6q0 -5 -6 -14t-13 -19l-296 -405q-6 -7 -8 -12.5t-4 -14.5l-51 -239q-3 -11 -7.5 -15t-16.5 -4h-21q-10 0 -14 2t-4 8
q0 7 4 21l48 225q1 5 1 13q0 11 -3 16l-124 407q-7 18 -7 26zM340.5 954.5q7.5 4.5 17.5 4.5h29q11 0 16 -4.5t13 -17.5l71 -104q5 -7 10 -15.5t5 -13.5q0 -10 -13 -10h-8q-7 0 -13.5 4t-14.5 14l-84 96l-129 -96q-14 -10 -22 -14t-16 -4h-9q-14 0 -14 8q0 9 25 31l115 104
q14 13 21.5 17.5z" />
    <glyph glyph-name="ycircumflex" unicode="&#x177;" horiz-adv-x="477" 
d="M-43.5 -199q-15.5 3 -30.5 9q-8 4 -11.5 7.5t-3.5 8.5q0 9 11 26q5 7 8 9.5t8 2.5q3 0 18.5 -5.5t33.5 -5.5q27 0 48 14t41 41.5t50 80.5q5 9 5 20q0 5 -0.5 9.5t-1.5 9.5l-77 475q-1 8 -2.5 18.5t-2.5 19.5q0 6 3.5 9t12.5 3h21q10 0 14 -1.5t6 -7.5t3 -15l64 -414
q1 -9 2 -22t1 -23h2l11 22l10 19l230 422q7 13 12.5 16.5t18.5 3.5h21q10 0 13.5 -2t3.5 -6q0 -5 -8 -19.5t-10 -18.5l-295 -531q-36 -65 -64 -102.5t-58.5 -56.5t-70.5 -19q-21 0 -36.5 3zM284 804q7 5 16 5h35q9 0 13.5 -5t11.5 -19l71 -123q2 -4 5.5 -9.5t6.5 -11.5
t3 -10q0 -5 -4 -8t-10 -3h-9q-7 0 -13.5 4.5t-14.5 16.5l-81 116l-135 -118q-13 -11 -20 -15t-13 -4h-14q-5 0 -8 3t-3 7q0 5 5.5 12t10 12t7.5 8l120 123q13 14 20 19z" />
    <glyph glyph-name="Ydieresis" unicode="&#x178;" horiz-adv-x="536" 
d="M80 718q0 7 5 10t15 3h20q10 0 15.5 -3.5t8.5 -13.5l87 -298q16 -53 23 -88h2q24 38 63 94l208 292q7 9 13.5 13t16.5 4h27q9 0 13.5 -2t4.5 -6q0 -5 -6 -14t-13 -19l-296 -405q-6 -7 -8 -12.5t-4 -14.5l-51 -239q-3 -11 -7.5 -15t-16.5 -4h-21q-10 0 -14 2t-4 8
q0 7 4 21l48 225q1 5 1 13q0 11 -3 16l-124 407q-7 18 -7 26zM220 818q-4 3 -4 9q0 5 3 18l10 47q2 11 7.5 16t17.5 5h31q9 0 13 -3.5t4 -9.5q0 -5 -3 -19l-10 -46q-2 -11 -7.5 -15.5t-17.5 -4.5h-31q-9 0 -13 3zM426 818q-4 3 -4 9t3 19l10 46q2 11 7.5 16t17.5 5h31
q9 0 13 -3.5t4 -9.5q0 -4 -4 -22l-9 -43q-2 -11 -7.5 -15.5t-17.5 -4.5h-31q-9 0 -13 3z" />
    <glyph glyph-name="Zacute" unicode="&#x179;" horiz-adv-x="556" 
d="M122 675q-4 2 -4 8l2 10l4 20q3 11 7.5 14.5t17.5 3.5h420q11 0 15 -1.5t4 -7.5l-2 -13l-3 -15q-1 -8 -5.5 -15.5t-13.5 -17.5l-521 -601l-1 -2h394q10 0 13.5 -1.5t3.5 -7.5l-2 -12l-4 -19q-2 -11 -6 -14.5t-17 -3.5h-452q-11 0 -15 2t-4 8t1 10l4 16q2 11 6 18t13 17
l520 600v2h-360q-11 0 -15 2zM349.5 798q-7.5 -4 -14.5 -4h-12q-11 0 -11 9q0 5 3 10.5t10 14.5l100 109q14 15 22 20t22 5h32q19 0 19 -10t-30 -34l-122 -106q-11 -10 -18.5 -14z" />
    <glyph glyph-name="zacute" unicode="&#x17a;" horiz-adv-x="481" 
d="M92.5 500q-3.5 2 -3.5 8l2 13l2 13q3 12 8 15.5t17 3.5h350q11 0 14.5 -1.5t3.5 -7.5q0 -4 -1 -7.5t-2 -6.5l-2 -10q-2 -10 -6.5 -16.5t-15.5 -17.5l-410 -429v-2h325q11 0 14 -1.5t3 -7.5q0 -8 -2 -16l-3 -13q-2 -11 -6 -14t-17 -3h-390q-10 0 -13.5 2t-3.5 7q0 7 2 12
l3 13q1 9 6 16t17 20l408 426v2h-285q-11 0 -14.5 2zM292.5 625q-8.5 -5 -18.5 -5h-6q-7 0 -11 2.5t-4 7.5t4.5 11.5t11.5 14.5l124 128q17 17 25 21.5t23 4.5h27q11 0 16 -2.5t5 -8.5q1 -6 -6 -13.5t-24 -21.5l-148 -125q-10 -9 -18.5 -14z" />
    <glyph glyph-name="Zdotaccent" unicode="&#x17b;" horiz-adv-x="556" 
d="M122 675q-4 2 -4 8l2 10l4 20q3 11 7.5 14.5t17.5 3.5h420q11 0 15 -1.5t4 -7.5l-2 -13l-3 -15q-1 -8 -5.5 -15.5t-13.5 -17.5l-521 -601l-1 -2h394q10 0 13.5 -1.5t3.5 -7.5l-2 -12l-4 -19q-2 -11 -6 -14.5t-17 -3.5h-452q-11 0 -15 2t-4 8t1 10l4 16q2 11 6 18t13 17
l520 600v2h-360q-11 0 -15 2zM339 818q-4 3 -4 9t3 19l10 46q2 11 7.5 16t16.5 5h32q9 0 13 -3.5t4 -9.5q0 -3 -4 -21l-10 -44q-2 -10 -7.5 -15t-16.5 -5h-31q-9 0 -13 3z" />
    <glyph glyph-name="zdotaccent" unicode="&#x17c;" horiz-adv-x="481" 
d="M92.5 500q-3.5 2 -3.5 8l2 13l2 13q3 12 8 15.5t17 3.5h350q11 0 14.5 -1.5t3.5 -7.5q0 -4 -1 -7.5t-2 -6.5l-2 -10q-2 -10 -6.5 -16.5t-15.5 -17.5l-410 -429v-2h325q11 0 14 -1.5t3 -7.5q0 -8 -2 -16l-3 -13q-2 -11 -6 -14t-17 -3h-390q-10 0 -13.5 2t-3.5 7q0 7 2 12
l3 13q1 9 6 16t17 20l408 426v2h-285q-11 0 -14.5 2zM273 642q-4 2 -4 8t3 16l11 50q3 14 7.5 17.5t18.5 3.5h26q11 0 15 -2t4 -8l-2 -16l-11 -50q-3 -10 -5 -14t-7 -5.5t-15 -1.5h-26q-11 0 -15 2z" />
    <glyph glyph-name="Zcaron" unicode="&#x17d;" horiz-adv-x="556" 
d="M122 675q-4 2 -4 8l2 10l4 20q3 11 7.5 14.5t17.5 3.5h420q11 0 15 -1.5t4 -7.5l-2 -13l-3 -15q-1 -8 -5.5 -15.5t-13.5 -17.5l-521 -601l-1 -2h394q10 0 13.5 -1.5t3.5 -7.5l-2 -12l-4 -19q-2 -11 -6 -14.5t-17 -3.5h-452q-11 0 -15 2t-4 8t1 10l4 16q2 11 6 18t13 17
l520 600v2h-360q-11 0 -15 2zM251.5 928.5q-3.5 5.5 -6.5 11t-3 9.5t4 7t10 3h8q6 0 12.5 -4t15.5 -15l84 -95l129 95q15 11 23 15t15 4h8q14 0 14 -9q0 -5 -8 -14t-17 -17l-114 -103q-14 -13 -21.5 -17.5t-18.5 -4.5h-29q-10 0 -15 4.5t-13 17.5l-71 103q-3 4 -6.5 9.5z
" />
    <glyph glyph-name="zcaron" unicode="&#x17e;" horiz-adv-x="481" 
d="M92.5 500q-3.5 2 -3.5 8l2 13l2 13q3 12 8 15.5t17 3.5h350q11 0 14.5 -1.5t3.5 -7.5q0 -4 -1 -7.5t-2 -6.5l-2 -10q-2 -10 -6.5 -16.5t-15.5 -17.5l-410 -429v-2h325q11 0 14 -1.5t3 -7.5q0 -8 -2 -16l-3 -13q-2 -11 -6 -14t-17 -3h-390q-10 0 -13.5 2t-3.5 7q0 7 2 12
l3 13q1 9 6 16t17 20l408 426v2h-285q-11 0 -14.5 2zM186 775.5q-3 5.5 -6 12t-3 10.5q0 11 14 11h9q7 0 12.5 -3.5t13.5 -14.5l82 -119l134 118q14 12 21 15.5t14 3.5h15q5 0 8 -2.5t3 -6.5q0 -5 -8 -14.5t-17 -17.5l-120 -124q-15 -15 -21 -19.5t-16 -4.5h-34
q-9 0 -13.5 4.5t-11.5 19.5l-71 123q-2 3 -5 8.5z" />
    <glyph glyph-name="florin" unicode="&#x192;" horiz-adv-x="443" 
d="M285 709.5q40 35.5 99 35.5q39 0 71 -13q16 -6 22 -11t5 -11q0 -7 -8 -20q-2 -3 -5.5 -8t-6 -7t-5.5 -2q-4 0 -16 5t-27 9t-31 4q-40 0 -63 -24.5t-36 -77.5l-15 -61h105q13 0 13 -7l-3 -14l-5 -19q-2 -8 -7 -11t-15 -3h-102l-119 -481q-24 -96 -61.5 -146.5t-99.5 -50.5
q-36 0 -76 16q-13 5 -18 9.5t-5 10.5q0 4 2.5 9.5t3.5 7.5l8 14q3 4 5.5 5.5t5.5 1.5q2 0 16 -6t29 -10t31 -4q24 0 41.5 14.5t33.5 52.5t34 110l111 447h-87q-7 0 -10 1.5t-3 5.5q0 5 3 15l3 14q3 11 7.5 14.5t16.5 3.5h83l16 67q19 79 59 114.5z" />
    <glyph glyph-name="Scommaaccent" unicode="&#x218;" horiz-adv-x="594" 
d="M477 101.5q-34 -55.5 -96 -85t-144 -29.5q-61 0 -118 14t-95 40q-16 9 -22 14t-6 11q0 5 3 11t7 11q11 16 20 16q4 0 8 -2t8.5 -5t10.5 -6q39 -22 84 -34t102 -12q73 0 120 25t69 65.5t22 88.5q0 36 -14 61t-49.5 43t-100.5 31q-62 13 -102.5 32.5t-62 52t-21.5 82.5
q0 53 23.5 97t70.5 76q34 22 78.5 34t97.5 12q52 0 101 -9.5t86 -23.5q8 -4 11.5 -8t3.5 -10q0 -10 -9 -24q-7 -14 -18 -14q-5 0 -22 5.5t-25 7.5q-63 18 -132 18q-66 0 -112 -22t-69 -57.5t-23 -73.5q0 -35 14 -56.5t44.5 -35t85.5 -24.5q66 -13 110.5 -34t69.5 -58t25 -94
q0 -75 -34 -130.5zM171 -148q0 2 4 24l9 44q3 14 7 17.5t17 3.5h32q9 0 12.5 -2t3.5 -8q0 -7 -3 -19l-11 -52q-2 -11 -7.5 -21.5t-16.5 -28.5l-26 -42q-7 -11 -12.5 -17.5t-9.5 -6.5t-11 4t-7 9t6.5 16.5t7.5 13.5l29 54h-11q-13 0 -13 11z" />
    <glyph glyph-name="scommaaccent" unicode="&#x219;" horiz-adv-x="466" 
d="M-6.5 34q-9.5 6 -9.5 13q0 4 3 10t4 9q11 17 19 17q4 0 8.5 -2t8 -4t6.5 -3q60 -26 132 -26q55 0 93.5 20.5t57.5 51.5t19 62q0 28 -12.5 45t-39.5 26.5t-76 16.5q-82 13 -118 43.5t-36 82.5q0 48 25 86t75.5 60.5t122.5 22.5q70 0 131 -22q27 -9 27 -21q0 -4 -2.5 -9.5
t-6.5 -11.5q-10 -15 -19 -15q-3 0 -11 3l-16 6q-22 7 -49 11.5t-56 4.5q-47 0 -83 -12.5t-56.5 -37t-20.5 -59.5q0 -25 12 -39.5t39 -23.5t77 -17q62 -10 95.5 -30t45.5 -45.5t12 -59.5q0 -49 -27 -94t-79 -72.5t-123 -27.5q-82 0 -140 25q-23 10 -32.5 16zM119 -148
q0 2 4 24l9 44q3 14 7 17.5t17 3.5h32q9 0 12.5 -2t3.5 -8q0 -7 -3 -19l-11 -52q-2 -11 -7.5 -21.5t-16.5 -28.5l-26 -42q-7 -11 -12.5 -17.5t-9.5 -6.5t-11 4t-7 9t6.5 16.5t7.5 13.5l29 54h-11q-13 0 -13 11z" />
    <glyph glyph-name="uni021A" unicode="&#x21a;" horiz-adv-x="552" 
d="M595 676.5q-5 -3.5 -18 -3.5h-210l-138 -652q-3 -13 -7.5 -17t-17.5 -4h-19q-11 0 -15 2t-4 8q0 3 3 19l137 644h-209q-10 0 -14 1.5t-4 7.5l2 12l4 19q2 11 7 14.5t18 3.5h480q10 0 14 -2t4 -8l-2 -12l-4 -18q-2 -11 -7 -14.5zM126 -148q0 2 4 24l9 44q3 14 7 17.5
t17 3.5h32q9 0 12.5 -2t3.5 -8q0 -7 -3 -19l-11 -52q-2 -11 -7.5 -21.5t-16.5 -28.5l-26 -42q-7 -11 -12.5 -17.5t-9.5 -6.5t-11 4t-7 9t6.5 16.5t7.5 13.5l29 54h-11q-13 0 -13 11z" />
    <glyph glyph-name="uni021B" unicode="&#x21b;" horiz-adv-x="342" 
d="M153.5 687q3.5 4 11.5 8l19 8q10 5 19 5q5 0 7.5 -2t2.5 -6t-1 -8l-2 -8l-31 -142h150q13 0 17.5 -2t4.5 -8l-2 -13l-3 -13q-2 -12 -7.5 -15.5t-21.5 -3.5h-150l-70 -333q-7 -31 -7 -51q0 -29 16 -43.5t46 -14.5q21 0 39 4t37 10q3 1 11 3.5t12 2.5q10 0 12 -15
q3 -16 3 -21t-3 -9t-10 -8q-20 -9 -49 -15t-58 -6q-57 0 -86 28t-29 76q0 16 2.5 32.5t4.5 26.5l3 15l67 318h-45q-17 0 -17 10q0 4 1 7l1 6q2 9 10 12.5t29 6.5q18 3 26.5 12t11.5 23l24 109q1 10 4.5 14zM63 -148q0 2 4 24l9 44q3 14 7 17.5t17 3.5h32q9 0 12.5 -2t3.5 -8
q0 -7 -3 -19l-11 -52q-2 -11 -7.5 -21.5t-16.5 -28.5l-26 -42q-7 -11 -12.5 -17.5t-9.5 -6.5t-11 4t-7 9t6.5 16.5t7.5 13.5l29 54h-11q-13 0 -13 11z" />
    <glyph glyph-name="dotlessj" unicode="&#x237;" horiz-adv-x="240" 
d="M10 -170.5q-31 -34.5 -94 -34.5q-20 0 -39.5 5t-34.5 13q-6 3 -8 6.5t-2 7.5q0 6 3.5 12.5t4.5 8.5q9 14 17 14q4 0 14.5 -3.5t23 -6t27.5 -2.5q32 0 49 20t24 56l129 607q3 13 7.5 16.5t17.5 3.5h18q10 0 13.5 -2t3.5 -8l-2 -15l-128 -600q-13 -64 -44 -98.5z" />
    <glyph glyph-name="circumflex" unicode="&#x2c6;" horiz-adv-x="500" 
d="M307 804q7 5 16 5h35q9 0 13.5 -5t11.5 -19l71 -123q2 -4 5.5 -9.5t6.5 -11.5t3 -10q0 -5 -4 -8t-10 -3h-9q-7 0 -13.5 4.5t-14.5 16.5l-81 116l-135 -118q-13 -11 -20 -15t-13 -4h-14q-5 0 -8 3t-3 7q0 5 5.5 12t10 12t7.5 8l120 123q13 14 20 19z" />
    <glyph glyph-name="caron" unicode="&#x2c7;" horiz-adv-x="500" 
d="M185 775.5q-3 5.5 -6 12t-3 10.5q0 11 14 11h9q7 0 12.5 -3.5t13.5 -14.5l82 -119l134 118q14 12 21 15.5t14 3.5h15q5 0 8 -2.5t3 -6.5q0 -5 -8 -14.5t-17 -17.5l-120 -124q-15 -15 -21 -19.5t-16 -4.5h-34q-9 0 -13.5 4.5t-11.5 19.5l-71 123q-2 3 -5 8.5z" />
    <glyph glyph-name="uni02C9" unicode="&#x2c9;" horiz-adv-x="500" 
d="M171 713q6 4 17 4h270q9 0 12.5 -3t3.5 -9t-1 -10l-3 -13q-3 -17 -24 -17h-270q-9 0 -13 3.5t-4 9.5l1 8l3 15q2 8 8 12z" />
    <glyph glyph-name="breve" unicode="&#x2d8;" horiz-adv-x="500" 
d="M409 709q35 37 51 80q4 10 9 13t14 3h7q11 0 11 -9q0 -25 -19.5 -67t-62.5 -75.5t-108 -33.5q-39 0 -70 15.5t-48.5 45.5t-17.5 72q0 52 22 52h7q6 0 9 -1.5t4 -7.5t1 -15q0 -42 19.5 -75.5t76.5 -33.5q60 0 95 37z" />
    <glyph glyph-name="dotaccent" unicode="&#x2d9;" horiz-adv-x="500" 
d="M277 642q-4 2 -4 8t3 16l11 50q3 14 7.5 17.5t18.5 3.5h26q11 0 15 -2t4 -8l-2 -16l-11 -50q-3 -10 -5 -14t-7 -5.5t-15 -1.5h-26q-11 0 -15 2z" />
    <glyph glyph-name="ring" unicode="&#x2da;" horiz-adv-x="500" 
d="M228 779q15 25 41 40t57 15q30 0 55.5 -15t40.5 -40.5t15 -55.5q0 -31 -15 -57t-40.5 -41t-56.5 -15t-56.5 15t-40.5 41t-15 57t15 56zM264.5 688q9.5 -16 25.5 -25.5t35 -9.5t35 9.5t25.5 25.5t9.5 35q0 18 -9.5 33.5t-25.5 25t-35 9.5t-35 -9.5t-25.5 -25t-9.5 -33.5
q0 -19 9.5 -35z" />
    <glyph glyph-name="ogonek" unicode="&#x2db;" horiz-adv-x="500" 
d="M124.5 -68q-32.5 -39 -32.5 -79q0 -24 15.5 -35.5t40.5 -11.5q14 0 28 3.5t25 7.5t15 4q8 0 8 -10l1 -16v-3q0 -7 -4 -11.5t-14 -8.5q-31 -13 -67 -13q-29 0 -52.5 11t-37 31t-13.5 46q0 53 34 93t101 78h53q-68 -47 -100.5 -86z" />
    <glyph glyph-name="tilde" unicode="&#x2dc;" horiz-adv-x="500" 
d="M258 698.5q-12 4.5 -26 4.5q-41 0 -64 -50q-4 -11 -9 -16.5t-13 -5.5h-12q-13 0 -13 10q0 20 13.5 47t40 47t63.5 20q23 0 39 -6t38 -19l33 -20q18 -11 29 -15.5t25 -4.5q39 0 62 51q5 12 10 17t13 5h13q5 0 8 -2.5t3 -7.5q0 -20 -13.5 -47.5t-39 -47t-59.5 -19.5
q-22 0 -41 6t-39 19l-34 20q-15 10 -27 14.5z" />
    <glyph glyph-name="hungarumlaut" unicode="&#x2dd;" horiz-adv-x="500" 
d="M178.5 625q-7.5 -5 -15.5 -5h-6q-6 0 -9 2.5t-3 6.5q0 3 2.5 8t5.5 9.5l5 7.5l97 131q12 17 19 21t20 4h32q7 0 10.5 -1.5t3.5 -6.5t-6.5 -13.5t-14.5 -16.5l-123 -131q-10 -11 -17.5 -16zM341 624.5q-7 -4.5 -16 -4.5h-6q-6 0 -9 2.5t-3 6.5q0 3 2.5 8t5.5 9.5l5 7.5
l97 131q9 12 14 17t10.5 6.5t15.5 1.5h31q7 0 10.5 -1.5t3.5 -6.5t-6.5 -13.5t-14.5 -16.5l-122 -131q-11 -12 -18 -16.5z" />
    <glyph glyph-name="commaaccent" unicode="&#x326;" horiz-adv-x="0" 
d="M-397 -148q0 2 4 24l9 44q3 14 7 17.5t17 3.5h32q9 0 12.5 -2t3.5 -8q0 -7 -3 -19l-11 -52q-2 -11 -7.5 -21.5t-16.5 -28.5l-26 -42q-7 -11 -12.5 -17.5t-9.5 -6.5t-11 4t-7 9t6.5 16.5t7.5 13.5l29 54h-11q-13 0 -13 11z" />
    <glyph glyph-name="uni0394" unicode="&#x394;" horiz-adv-x="641" 
d="M543 4.5q-5 -4.5 -16 -4.5h-568q-9 0 -13 2.5t-4 7.5l2 14l2 9q2 11 6.5 20.5t12.5 20.5l395 639q7 11 12.5 14.5t16.5 3.5h21q11 0 14.5 -2.5t4.5 -14.5l123 -637q3 -18 3 -23t-2 -21l-3 -15q-2 -9 -7 -13.5zM493 58l-100 525l-10 66h-2l-14 -27l-21 -39l-323 -525h470z
" />
    <glyph glyph-name="uni03A9" unicode="&#x3a9;" horiz-adv-x="694" 
d="M184 661.5q80 86.5 224 86.5h15q75 0 128.5 -28.5t80.5 -79t27 -114.5q0 -49 -15 -127l-4 -23q-23 -111 -75 -190.5t-136 -130.5h127q11 0 14.5 -1.5t3.5 -6.5q0 -1 -2 -11l-4 -16q-3 -13 -7 -16.5t-16 -3.5h-202q-18 0 -18 11q0 3 2 11l5 19q2 7 6 12t14 11
q91 48 147 128.5t78 185.5l8 36q12 64 12 105q0 82 -47 126.5t-135 44.5h-8q-111 0 -177.5 -66t-96.5 -208l-5 -25q-6 -28 -9 -55.5t-3 -65.5q0 -131 104 -206q11 -8 11 -18q0 -2 -2 -10l-5 -20q-3 -8 -7.5 -12t-14.5 -4h-202q-10 0 -13 2t-3 8l2 12l4 18q3 10 7 12.5
t15 2.5h139q-49 41 -73 98t-24 123q0 37 2.5 62t11.5 67l2 12q34 158 114 244.5z" />
    <glyph glyph-name="uni03BC" unicode="&#x3bc;" horiz-adv-x="595" 
d="M452.5 133.5q-2.5 -21.5 -2.5 -36.5q0 -30 8 -57q2 -8 5 -16.5t3 -11.5q0 -5 -2.5 -8t-9.5 -5l-18 -6q-13 -3 -16 -3q-11 0 -18 27.5t-10 53.5h-2q-37 -35 -92 -59t-108 -24q-42 0 -69 13.5t-43 40.5l-45 -213q-3 -14 -7.5 -17.5t-18.5 -3.5h-14q-12 0 -16.5 2.5
t-4.5 9.5q0 6 1 11t2 9l148 692q2 13 6.5 17t18.5 4h17q10 0 14 -2t4 -8q0 -7 -3 -18l-67 -319q-5 -22 -8 -41.5t-3 -36.5q0 -42 25.5 -63.5t69.5 -21.5q41 0 87.5 20.5t91.5 55.5q9 7 12.5 17t7.5 29l79 367q3 13 7.5 17t18.5 4h17q11 0 14.5 -2t3.5 -9l-2 -12l-75 -356
q-4 -19 -6.5 -40.5z" />
    <glyph glyph-name="pi" unicode="&#x3c0;" horiz-adv-x="567" 
d="M75.5 490.5q-19.5 -3.5 -34 -8.5t-18.5 -5q-9 0 -13 13q-5 20 -5 28t4 12.5t16 8.5q25 8 54.5 11t77.5 3h418q9 0 12.5 -2t3.5 -7l-1 -11l-4 -18q-2 -12 -7 -16.5t-18 -4.5h-100l-75 -354q-7 -33 -7 -56q0 -19 9.5 -28t25.5 -9q12 0 27 5t18 5q8 0 10 -14q3 -15 3 -25
q0 -5 -5 -9.5t-16 -8.5q-22 -9 -45 -9q-44 0 -65 24t-21 66q0 29 8 65l74 348h-198l-100 -472q-3 -14 -7.5 -18t-17.5 -4h-19q-9 0 -12.5 2.5t-3.5 8.5q0 7 3 19l98 464h-20q-30 0 -49.5 -3.5z" />
    <glyph glyph-name="Wgrave" unicode="&#x1e80;" horiz-adv-x="818" 
d="M523.5 148q0.5 -24 0.5 -50h3q7 23 20.5 56t23.5 54l219 504q6 13 11 16t18 3h25q9 0 12 -1.5t3 -5.5q0 -6 -3 -12l-307 -692q-6 -13 -10.5 -16.5t-16.5 -3.5h-20q-13 0 -17 3.5t-5 16.5l-37 430q-2 24 -2 44q0 8 -0.5 27.5t0.5 29.5h-3q-14 -46 -39 -98l-210 -432
q-6 -14 -11 -17.5t-18 -3.5h-18q-13 0 -17 3.5t-5 16.5l-13 692q0 12 3.5 15.5t16.5 3.5h21q13 0 16.5 -3.5t3.5 -15.5l10 -544q0 -22 -4 -68h3q16 45 33 82l208 435q7 13 11.5 16.5t16.5 3.5h18q12 0 16 -4.5t5 -15.5l36 -420q2 -25 2.5 -49zM390 949q0 6 5.5 9.5t15.5 3.5
h22q13 0 19 -4.5t14 -20.5l57 -109q1 -4 4 -11t3 -12q0 -11 -13 -11h-5q-8 0 -14 4.5t-12 12.5l-78 106q-18 24 -18 32z" />
    <glyph glyph-name="wgrave" unicode="&#x1e81;" horiz-adv-x="744" 
d="M98 4q-4 4 -5 17l-34 479q-1 14 -2 24t-1 16q0 7 4.5 10t16.5 3h19q11 0 15 -4t5 -18l22 -332q4 -58 4 -116h1l18 39q9 21 36 77l167 335q7 12 12.5 15.5t15.5 3.5h24q14 0 18.5 -3t5.5 -14l24 -349q0 -10 1.5 -29.5t1.5 -38.5q0 -23 -1 -36h2q28 65 50 110l168 340
q6 13 11 16.5t18 3.5h21q9 0 12.5 -1.5t3.5 -6.5q0 -7 -11 -27l-248 -497q-6 -13 -11 -17t-16 -4h-23q-12 0 -16.5 4t-5.5 16l-27 402q-2 43 -1 63h-2q-15 -39 -29 -65l-196 -399q-7 -13 -12 -17t-17 -4h-22q-13 0 -17 4zM303 783q-5 8 -5 13q0 7 6 10.5t18 3.5h23
q11 0 16 -4.5t15 -20.5l76 -131q8 -16 8 -23q0 -5 -4.5 -8t-12.5 -3h-5q-7 0 -12.5 4.5t-13.5 14.5l-96 126q-8 10 -13 18z" />
    <glyph glyph-name="Wacute" unicode="&#x1e82;" horiz-adv-x="818" 
d="M523.5 148q0.5 -24 0.5 -50h3q7 23 20.5 56t23.5 54l219 504q6 13 11 16t18 3h25q9 0 12 -1.5t3 -5.5q0 -6 -3 -12l-307 -692q-6 -13 -10.5 -16.5t-16.5 -3.5h-20q-13 0 -17 3.5t-5 16.5l-37 430q-2 24 -2 44q0 8 -0.5 27.5t0.5 29.5h-3q-14 -46 -39 -98l-210 -432
q-6 -14 -11 -17.5t-18 -3.5h-18q-13 0 -17 3.5t-5 16.5l-13 692q0 12 3.5 15.5t16.5 3.5h21q13 0 16.5 -3.5t3.5 -15.5l10 -544q0 -22 -4 -68h3q16 45 33 82l208 435q7 13 11.5 16.5t16.5 3.5h18q12 0 16 -4.5t5 -15.5l36 -420q2 -25 2.5 -49zM481.5 798q-7.5 -4 -14.5 -4
h-12q-11 0 -11 9q0 5 3 10.5t10 14.5l100 109q14 15 22 20t22 5h32q19 0 19 -10t-30 -34l-122 -106q-11 -10 -18.5 -14z" />
    <glyph glyph-name="wacute" unicode="&#x1e83;" horiz-adv-x="744" 
d="M98 4q-4 4 -5 17l-34 479q-1 14 -2 24t-1 16q0 7 4.5 10t16.5 3h19q11 0 15 -4t5 -18l22 -332q4 -58 4 -116h1l18 39q9 21 36 77l167 335q7 12 12.5 15.5t15.5 3.5h24q14 0 18.5 -3t5.5 -14l24 -349q0 -10 1.5 -29.5t1.5 -38.5q0 -23 -1 -36h2q28 65 50 110l168 340
q6 13 11 16.5t18 3.5h21q9 0 12.5 -1.5t3.5 -6.5q0 -7 -11 -27l-248 -497q-6 -13 -11 -17t-16 -4h-23q-12 0 -16.5 4t-5.5 16l-27 402q-2 43 -1 63h-2q-15 -39 -29 -65l-196 -399q-7 -13 -12 -17t-17 -4h-22q-13 0 -17 4zM410.5 625q-8.5 -5 -18.5 -5h-6q-7 0 -11 2.5
t-4 7.5t4.5 11.5t11.5 14.5l124 128q17 17 25 21.5t23 4.5h27q11 0 16 -2.5t5 -8.5q1 -6 -6 -13.5t-24 -21.5l-148 -125q-10 -9 -18.5 -14z" />
    <glyph glyph-name="Wdieresis" unicode="&#x1e84;" horiz-adv-x="818" 
d="M523.5 148q0.5 -24 0.5 -50h3q7 23 20.5 56t23.5 54l219 504q6 13 11 16t18 3h25q9 0 12 -1.5t3 -5.5q0 -6 -3 -12l-307 -692q-6 -13 -10.5 -16.5t-16.5 -3.5h-20q-13 0 -17 3.5t-5 16.5l-37 430q-2 24 -2 44q0 8 -0.5 27.5t0.5 29.5h-3q-14 -46 -39 -98l-210 -432
q-6 -14 -11 -17.5t-18 -3.5h-18q-13 0 -17 3.5t-5 16.5l-13 692q0 12 3.5 15.5t16.5 3.5h21q13 0 16.5 -3.5t3.5 -15.5l10 -544q0 -22 -4 -68h3q16 45 33 82l208 435q7 13 11.5 16.5t16.5 3.5h18q12 0 16 -4.5t5 -15.5l36 -420q2 -25 2.5 -49zM351 818q-4 3 -4 9q0 5 3 18
l10 47q2 11 7.5 16t17.5 5h31q9 0 13 -3.5t4 -9.5q0 -5 -3 -19l-10 -46q-2 -11 -7.5 -15.5t-17.5 -4.5h-31q-9 0 -13 3zM557 818q-4 3 -4 9t3 19l10 46q2 11 7.5 16t17.5 5h31q9 0 13 -3.5t4 -9.5q0 -4 -4 -22l-9 -43q-2 -11 -7.5 -15.5t-17.5 -4.5h-31q-9 0 -13 3z" />
    <glyph glyph-name="wdieresis" unicode="&#x1e85;" horiz-adv-x="744" 
d="M98 4q-4 4 -5 17l-34 479q-1 14 -2 24t-1 16q0 7 4.5 10t16.5 3h19q11 0 15 -4t5 -18l22 -332q4 -58 4 -116h1l18 39q9 21 36 77l167 335q7 12 12.5 15.5t15.5 3.5h24q14 0 18.5 -3t5.5 -14l24 -349q0 -10 1.5 -29.5t1.5 -38.5q0 -23 -1 -36h2q28 65 50 110l168 340
q6 13 11 16.5t18 3.5h21q9 0 12.5 -1.5t3.5 -6.5q0 -7 -11 -27l-248 -497q-6 -13 -11 -17t-16 -4h-23q-12 0 -16.5 4t-5.5 16l-27 402q-2 43 -1 63h-2q-15 -39 -29 -65l-196 -399q-7 -13 -12 -17t-17 -4h-22q-13 0 -17 4zM291 642q-4 2 -4 9q0 5 1 8.5t2 6.5l10 50
q3 13 8 17t19 4h25q11 0 15 -2t4 -7q0 -6 -3 -21l-10 -46q-3 -13 -8 -17t-20 -4h-23q-12 0 -16 2zM486 642q-4 2 -4 9q0 5 2 15l11 50q3 13 8 17t19 4h25q11 0 15 -2t4 -7q0 -7 -3 -21l-10 -46q-3 -13 -8 -17t-20 -4h-23q-12 0 -16 2z" />
    <glyph glyph-name="Germandbls" unicode="&#x1e9e;" horiz-adv-x="733" 
d="M619 105.5q-32 -56.5 -88.5 -88t-127.5 -31.5q-46 0 -87 11t-69 27q-24 13 -34.5 21.5t-10.5 15.5q0 11 10 22q13 16 20 16q4 0 15 -7.5t20 -11.5q24 -12 40.5 -19t41.5 -12t57 -5q61 0 102.5 27.5t61 69.5t19.5 86q0 42 -27.5 72.5t-88.5 51.5q-62 21 -97 58t-35 97
q0 42 16.5 79.5t46 65t67.5 41.5h-35q-75 -2 -127.5 -25.5t-88 -75t-53.5 -138.5l-92 -434q-3 -12 -7.5 -15.5t-17.5 -3.5h-19q-11 0 -15 2t-4 8l3 19l94 438q23 110 72.5 171.5t117.5 85.5t157 24q126 0 215 -25q19 -5 24.5 -8.5t5.5 -9.5q0 -9 -10 -24q-9 -17 -19 -17
q-3 0 -13 3l-20 6q-26 7 -55 7q-46 0 -87.5 -20.5t-67.5 -58.5t-26 -89q0 -36 23.5 -61.5t76.5 -44.5q75 -26 111.5 -70t36.5 -102q0 -72 -32 -128.5z" />
    <glyph glyph-name="Ygrave" unicode="&#x1ef2;" horiz-adv-x="536" 
d="M80 718q0 7 5 10t15 3h20q10 0 15.5 -3.5t8.5 -13.5l87 -298q16 -53 23 -88h2q24 38 63 94l208 292q7 9 13.5 13t16.5 4h27q9 0 13.5 -2t4.5 -6q0 -5 -6 -14t-13 -19l-296 -405q-6 -7 -8 -12.5t-4 -14.5l-51 -239q-3 -11 -7.5 -15t-16.5 -4h-21q-10 0 -14 2t-4 8
q0 7 4 21l48 225q1 5 1 13q0 11 -3 16l-124 407q-7 18 -7 26zM242 949q0 6 5.5 9.5t15.5 3.5h22q13 0 19 -4.5t14 -20.5l57 -109q1 -4 4 -11t3 -12q0 -11 -13 -11h-5q-8 0 -14 4.5t-12 12.5l-78 106q-18 24 -18 32z" />
    <glyph glyph-name="ygrave" unicode="&#x1ef3;" horiz-adv-x="477" 
d="M-43.5 -199q-15.5 3 -30.5 9q-8 4 -11.5 7.5t-3.5 8.5q0 9 11 26q5 7 8 9.5t8 2.5q3 0 18.5 -5.5t33.5 -5.5q27 0 48 14t41 41.5t50 80.5q5 9 5 20q0 5 -0.5 9.5t-1.5 9.5l-77 475q-1 8 -2.5 18.5t-2.5 19.5q0 6 3.5 9t12.5 3h21q10 0 14 -1.5t6 -7.5t3 -15l64 -414
q1 -9 2 -22t1 -23h2l11 22l10 19l230 422q7 13 12.5 16.5t18.5 3.5h21q10 0 13.5 -2t3.5 -6q0 -5 -8 -19.5t-10 -18.5l-295 -531q-36 -65 -64 -102.5t-58.5 -56.5t-70.5 -19q-21 0 -36.5 3zM157 783q-5 8 -5 13q0 7 6 10.5t18 3.5h23q11 0 16 -4.5t15 -20.5l76 -131
q8 -16 8 -23q0 -5 -4.5 -8t-12.5 -3h-5q-7 0 -12.5 4.5t-13.5 14.5l-96 126q-8 10 -13 18z" />
    <glyph glyph-name="endash" unicode="&#x2013;" horiz-adv-x="500" 
d="M-16.5 276q-3.5 2 -3.5 7l2 13l3 14q2 11 7 14t18 3h458q10 0 14 -1.5t4 -7.5l-2 -10l-3 -15q-2 -12 -6.5 -15.5t-17.5 -3.5h-459q-11 0 -14.5 2z" />
    </font>
</defs>
</svg>
