<svg width="24" height="24" viewBox="0 0 24 24" fill="none" xmlns="http://www.w3.org/2000/svg">
<path d="M13.5313 9.05859C12.7401 9.05859 11.9668 9.29319 11.309 9.73271C10.6512 10.1722 10.1385 10.797 9.83573 11.5279C9.53298 12.2588 9.45377 13.063 9.60811 13.839C9.76245 14.6149 10.1434 15.3276 10.7028 15.887C11.2622 16.4464 11.975 16.8274 12.7509 16.9817C13.5268 17.1361 14.3311 17.0569 15.062 16.7541C15.7929 16.4514 16.4176 15.9387 16.8571 15.2809C17.2967 14.6231 17.5313 13.8497 17.5313 13.0586C17.5313 11.9977 17.1098 10.9803 16.3597 10.2302C15.6095 9.48002 14.5921 9.05859 13.5313 9.05859ZM13.5313 14.4986C13.2334 14.5046 12.9405 14.4217 12.6899 14.2605C12.4393 14.0994 12.2424 13.8672 12.1242 13.5937C12.0061 13.3202 11.9721 13.0177 12.0265 12.7248C12.081 12.4319 12.2214 12.1618 12.4299 11.949C12.6385 11.7362 12.9056 11.5903 13.1974 11.53C13.4892 11.4696 13.7923 11.4975 14.0681 11.6101C14.344 11.7227 14.58 11.9149 14.7462 12.1622C14.9124 12.4095 15.0012 12.7007 15.0013 12.9986C15.0013 13.3964 14.8432 13.7779 14.5619 14.0593C14.2806 14.3406 13.8991 14.4986 13.5013 14.4986H13.5313Z" fill="#303C42"/>
<path d="M20.5 7H18.5C18.2239 7 18 7.22386 18 7.5V16.5C18 16.7761 18.2239 17 18.5 17H20.5C20.7761 17 21 16.7761 21 16.5V7.5C21 7.22386 20.7761 7 20.5 7Z" fill="#303C42"/>
<path d="M23 17C23.5523 17 24 16.5523 24 16C24 15.4477 23.5523 15 23 15C22.4477 15 22 15.4477 22 16C22 16.5523 22.4477 17 23 17Z" fill="#303C42"/>
<path d="M6.47353 7.32001C6.43696 7.22525 6.3724 7.14387 6.28844 7.0867C6.20448 7.02954 6.1051 6.9993 6.00353 7.00001H4.00353C3.90196 6.9993 3.80258 7.02954 3.71861 7.0867C3.63465 7.14387 3.57009 7.22525 3.53353 7.32001L0.0335288 16.32C0.00418969 16.396 -0.00612199 16.4781 0.00349137 16.559C0.0131047 16.6399 0.0423517 16.7173 0.0886864 16.7843C0.135021 16.8514 0.197039 16.906 0.269341 16.9436C0.341644 16.9812 0.422039 17.0006 0.503529 17H2.50353C2.61133 17.0064 2.7183 16.9777 2.80842 16.9182C2.89855 16.8587 2.967 16.7716 3.00353 16.67L3.42353 15.5H6.61353L7.00353 16.67C7.04006 16.7716 7.1085 16.8587 7.19863 16.9182C7.28876 16.9777 7.39573 17.0064 7.50353 17H9.50353C9.58502 17.0006 9.66541 16.9812 9.73772 16.9436C9.81002 16.906 9.87204 16.8514 9.91837 16.7843C9.96471 16.7173 9.99395 16.6399 10.0036 16.559C10.0132 16.4781 10.0029 16.396 9.97353 16.32L6.47353 7.32001ZM5.54353 12.5H4.46353L5.00353 11L5.54353 12.5Z" fill="#303C42"/>
</svg>
