<svg width="20" height="20" viewBox="0 0 20 20" fill="none" xmlns="http://www.w3.org/2000/svg">
<path d="M16.6667 19.1648H3.33333C2.18458 19.1648 1.25 18.2302 1.25 17.0815V8.24813C1.25 7.61188 1.535 7.01896 2.03167 6.62146L8.69833 1.28813C9.46458 0.674792 10.535 0.674792 11.3013 1.28813L17.9679 6.62146C18.4646 7.01896 18.7496 7.61146 18.7496 8.24813V17.0815C18.7496 18.2302 17.8154 19.1648 16.6667 19.1648Z" fill="url(#paint0_linear_4688_4478)"/>
<path d="M16.2526 15.8333H3.7526C3.5226 15.8333 3.33594 15.6467 3.33594 15.4167V3.75C3.33594 3.06083 3.89677 2.5 4.58594 2.5H15.4193C16.1084 2.5 16.6693 3.06083 16.6693 3.75V15.4167C16.6693 15.6467 16.4826 15.8333 16.2526 15.8333Z" fill="url(#paint1_linear_4688_4478)"/>
<path d="M11.7141 9.94042C11.9111 9.82167 11.9749 9.56583 11.8561 9.36833C11.737 9.17083 11.4807 9.10792 11.2841 9.22625C10.897 9.45958 10.452 9.5825 9.99698 9.5825C8.61823 9.5825 7.49698 8.46125 7.49698 7.0825C7.49698 5.70375 8.61823 4.5825 9.99698 4.5825C11.3757 4.5825 12.497 5.70375 12.497 7.09417C12.4949 7.53958 12.0932 7.91625 11.6195 7.91625C11.5103 7.91625 11.4086 7.8725 11.3332 7.79333C11.2582 7.71417 11.2199 7.61083 11.2257 7.50125L11.2891 6.29292C11.3007 6.06583 11.2178 5.84083 11.0611 5.67583C10.9045 5.51083 10.6845 5.41625 10.457 5.41625H10.2711C9.24906 5.41625 8.37365 6.24667 8.32031 7.27083C8.2999 7.66292 8.43531 8.03333 8.70198 8.31417C8.96823 8.595 9.33115 8.74958 9.72365 8.74958C10.1028 8.74958 10.4536 8.59958 10.7232 8.35917C10.7253 8.36167 10.727 8.36458 10.7291 8.36708C10.9595 8.61 11.2841 8.74958 11.6195 8.75C12.5586 8.75 13.3266 8.00917 13.3307 7.08333C13.3307 5.24542 11.8353 3.75 9.9974 3.75C8.15948 3.75 6.66406 5.24542 6.66406 7.08333C6.66406 8.92125 8.15948 10.4167 9.9974 10.4167C10.6036 10.4167 11.1974 10.2521 11.7141 9.94125V9.94042ZM10.4036 7.26917V7.27083C10.3849 7.62042 10.0736 7.91542 9.72365 7.91542C9.56198 7.91542 9.41365 7.85292 9.30656 7.74C9.19906 7.62667 9.14448 7.47542 9.15281 7.31042C9.18281 6.735 9.69531 6.24917 10.2716 6.24917H10.4574L10.4036 7.26917Z" fill="url(#paint2_linear_4688_4478)"/>
<path d="M11.3021 13.2986C10.5471 13.9032 9.45208 13.9032 8.69792 13.2986L1.40667 7.46484C1.30625 7.71151 1.25 7.97693 1.25 8.25193V17.0853C1.25 18.234 2.18458 19.1686 3.33333 19.1686H16.6667C17.8154 19.1686 18.75 18.234 18.75 17.0853V8.25193C18.75 7.97693 18.6938 7.71151 18.5933 7.46484L11.3021 13.2986Z" fill="url(#paint3_linear_4688_4478)"/>
<path d="M11.2998 12.1761C10.5448 11.5715 9.44979 11.5715 8.69562 12.1761L1.45312 17.9707C1.78729 18.6757 2.50062 19.1678 3.33104 19.1678H16.6644C17.4948 19.1678 18.2081 18.6757 18.5423 17.9707L11.2998 12.1761Z" fill="url(#paint4_linear_4688_4478)"/>
<defs>
<linearGradient id="paint0_linear_4688_4478" x1="10" y1="1.77896" x2="10" y2="12.7252" gradientUnits="userSpaceOnUse">
<stop stop-color="#FD9B02"/>
<stop offset="1" stop-color="#FF7302"/>
</linearGradient>
<linearGradient id="paint1_linear_4688_4478" x1="10.0026" y1="2.545" x2="10.0026" y2="12.8675" gradientUnits="userSpaceOnUse">
<stop stop-color="#EDF1F2"/>
<stop offset="0.336" stop-color="#E9EDEE"/>
<stop offset="0.636" stop-color="#DEE2E3"/>
<stop offset="0.921" stop-color="#CCD1D2"/>
<stop offset="1" stop-color="#C6CBCC"/>
</linearGradient>
<linearGradient id="paint2_linear_4688_4478" x1="6.97865" y1="4.06375" x2="12.3957" y2="9.48083" gradientUnits="userSpaceOnUse">
<stop stop-color="#4793EB"/>
<stop offset="1" stop-color="#2367EC"/>
</linearGradient>
<linearGradient id="paint3_linear_4688_4478" x1="-2.655" y1="-1.60474" x2="14.3513" y2="17.6948" gradientUnits="userSpaceOnUse">
<stop stop-color="#FED200"/>
<stop offset="1" stop-color="#F59815"/>
</linearGradient>
<linearGradient id="paint4_linear_4688_4478" x1="6.44063" y1="11.9898" x2="14.7527" y2="25.9865" gradientUnits="userSpaceOnUse">
<stop stop-color="#FED200"/>
<stop offset="1" stop-color="#F59815"/>
</linearGradient>
</defs>
</svg>
