<svg width="19" height="14" viewBox="0 0 19 14" fill="none" xmlns="http://www.w3.org/2000/svg">
<g clip-path="url(#clip0_4688_4387)">
<path d="M1.29545 13.9994H4.31818V6.78729L0 3.60547V12.7267C0 13.4309 0.580795 13.9994 1.29545 13.9994Z" fill="#4285F4"/>
<path d="M14.6836 13.9994H17.7063C18.4231 13.9994 19.0018 13.4288 19.0018 12.7267V3.60547L14.6836 6.78729" fill="#34A853"/>
<path d="M14.6836 1.27243V6.78758L19.0018 3.60576V1.9088C19.0018 0.334856 17.173 -0.562417 15.8927 0.381522" fill="#FBBC04"/>
<path d="M4.31641 6.78859V1.27344L9.49822 5.09162L14.68 1.27344V6.78859L9.49822 10.6068" fill="#EA4335"/>
<path d="M0 1.9088V3.60576L4.31818 6.78758V1.27243L3.10909 0.381522C1.82659 -0.562417 0 0.334856 0 1.9088Z" fill="#C5221F"/>
</g>
<defs>
<clipPath id="clip0_4688_4387">
<rect width="19" height="14" fill="white"/>
</clipPath>
</defs>
</svg>
