<svg width="18" height="18" viewBox="0 0 18 18" fill="none" xmlns="http://www.w3.org/2000/svg">
<path d="M14.0231 7.3125C14.049 7.128 14.0625 6.94012 14.0625 6.75C14.0625 4.57875 12.2963 2.8125 10.125 2.8125C8.73112 2.8125 7.44413 3.56288 6.74775 4.734C6.39675 4.57988 6.01762 4.5 5.625 4.5C4.07475 4.5 2.8125 5.76225 2.8125 7.3125C2.8125 7.36987 2.81363 7.42613 2.81813 7.48125C1.17675 7.95713 0 9.48488 0 11.25C0 13.4213 1.76625 15.1875 3.9375 15.1875H14.0625C16.2337 15.1875 18 13.4213 18 11.25C18 9.06637 16.2292 7.2945 14.0231 7.3125Z" fill="#2196F3"/>
</svg>
