<svg width="10" height="11" viewBox="0 0 10 11" fill="none" xmlns="http://www.w3.org/2000/svg">
<path d="M9.53033 2.03033C9.82322 1.73744 9.82322 1.26256 9.53033 0.96967C9.23744 0.676777 8.76256 0.676777 8.46967 0.96967L9.53033 2.03033ZM0.249999 9.5C0.249999 9.91421 0.585785 10.25 0.999999 10.25L7.75 10.25C8.16421 10.25 8.5 9.91421 8.5 9.5C8.5 9.08579 8.16421 8.75 7.75 8.75L1.75 8.75L1.75 2.75C1.75 2.33579 1.41421 2 1 2C0.585786 2 0.249999 2.33579 0.249999 2.75L0.249999 9.5ZM8.46967 0.96967L0.469669 8.96967L1.53033 10.0303L9.53033 2.03033L8.46967 0.96967Z" fill="#08295B"/>
</svg>
