<svg width="20" height="18" viewBox="0 0 20 18" fill="none" xmlns="http://www.w3.org/2000/svg">
<g clip-path="url(#clip0_4688_4442)">
<path d="M0.0625 0.0351562H19.9725V17.9275H0.0625V0.0351562Z" fill="#E6E6E1"/>
<path d="M19.9725 0.0351562H0.0625L10.0181 14.803L19.9725 0.0351562Z" fill="#D8D8D3"/>
<path d="M7.91406 17.9291H12.127L10.0207 14.8047L7.91406 17.9291Z" fill="#B4B6B4"/>
<path d="M10.0205 9.42063L5.77344 3.09375V8.52477L8.19858 12.1402L10.0163 9.42601L10.0205 9.42063Z" fill="#1A1918"/>
<path d="M10.0234 9.42063L11.8525 12.1461L14.2622 8.57009V3.09375L10.0234 9.42063Z" fill="#ED9D4A"/>
<path d="M10.0131 9.42725L8.19531 12.1415L10.0191 14.8592L11.8463 12.1473L10.0172 9.42188L10.0131 9.42725Z" fill="#BB7731"/>
<path d="M2.75781 14.8653H5.77399V8.52482L2.75781 4.03125V14.8653Z" fill="#4CB2D4"/>
<path d="M2.75781 3.09375V4.0312L5.77399 8.52477V3.09375H2.75781Z" fill="#1B82AD"/>
<path d="M14.2578 8.57137V14.8665H17.2728V4.09766L14.2578 8.57137Z" fill="#C02439"/>
<path d="M17.2728 3.09375H14.2578V8.57009L17.2728 4.09637V3.09375Z" fill="#8F202F"/>
</g>
<defs>
<clipPath id="clip0_4688_4442">
<rect width="20" height="18" fill="white"/>
</clipPath>
</defs>
</svg>
