<svg width="20" height="17" viewBox="0 0 20 17" fill="none" xmlns="http://www.w3.org/2000/svg">
<g clip-path="url(#clip0_4688_4417)">
<path d="M18.7322 7.65572e-09H14.2933C14.1267 -1.80628e-05 13.9616 0.0319539 13.8077 0.0940887C13.6537 0.156223 13.5138 0.247303 13.396 0.362121L2.91868 10.5666C2.80079 10.6813 2.70728 10.8176 2.64348 10.9675C2.57969 11.1175 2.54686 11.2782 2.54688 11.4405V15.7639C2.54686 15.9262 2.57969 16.0869 2.64346 16.2369C2.70724 16.3869 2.80073 16.5232 2.91858 16.638C3.03644 16.7527 3.17636 16.8438 3.33034 16.9059C3.48433 16.968 3.64938 17 3.81605 17H8.25496C8.42163 17 8.58667 16.968 8.74064 16.9059C8.89462 16.8438 9.03451 16.7527 9.15233 16.6379L19.6298 6.43344C19.8678 6.20163 20.0014 5.88725 20.0014 5.55945V1.23614C20.0014 1.0738 19.9686 0.913059 19.9048 0.76308C19.8411 0.613102 19.7476 0.476828 19.6297 0.362041C19.5119 0.247253 19.3719 0.1562 19.218 0.0940806C19.064 0.0319613 18.8989 -7.43467e-06 18.7322 7.65572e-09Z" fill="#28A8EA"/>
<path d="M18.7316 17H14.2926C13.956 17 13.6332 16.8698 13.3952 16.638L11.2734 14.5714V10.71C11.2734 10.1239 11.5125 9.56175 11.938 9.14729C12.3636 8.73284 12.9407 8.5 13.5425 8.5H17.5072L19.629 10.5666C19.867 10.7984 20.0007 11.1127 20.0007 11.4406V15.764C20.0007 16.0918 19.867 16.4062 19.629 16.638C19.391 16.8698 19.0682 17 18.7316 17Z" fill="#0078D4"/>
<path d="M3.81597 0H8.25497C8.59155 5.00903e-07 8.91435 0.130226 9.15235 0.362029L11.2741 2.42857V6.29C11.2741 6.87613 11.0351 7.43825 10.6095 7.85271C10.184 8.26716 9.60686 8.5 9.00506 8.5H5.04038L2.91858 6.43345C2.68058 6.20165 2.54688 5.88726 2.54688 5.55944V1.23604C2.54688 0.908223 2.68058 0.593831 2.91858 0.362028C3.15658 0.130226 3.47938 0 3.81597 0Z" fill="#50D9FF"/>
<path opacity="0.2" d="M10.5469 4.36821V13.6969C10.5477 13.7445 10.5428 13.792 10.5323 13.8385C10.4993 14.0301 10.3974 14.2041 10.2448 14.3293C10.0923 14.4545 9.89906 14.5228 9.69957 14.5221H2.54688V3.54297H9.69957C9.8109 3.54278 9.92116 3.56399 10.0241 3.6054C10.1269 3.6468 10.2204 3.70758 10.2991 3.78425C10.3779 3.86092 10.4403 3.95197 10.4828 4.05218C10.5253 4.15239 10.5471 4.25978 10.5469 4.36821Z" fill="black"/>
<path opacity="0.1" d="M10.9105 4.3669V12.9873C10.9075 13.2992 10.779 13.5974 10.5525 13.818C10.3261 14.0386 10.0198 14.1637 9.69957 14.1667H2.54688V3.1875H9.69957C10.0204 3.18859 10.3277 3.3132 10.5546 3.53414C10.7815 3.75509 10.9094 4.05444 10.9105 4.3669Z" fill="black"/>
<path opacity="0.2" d="M10.5469 4.36821V12.9886C10.5471 13.097 10.5253 13.2044 10.4828 13.3046C10.4403 13.4048 10.3779 13.4959 10.2991 13.5725C10.2204 13.6492 10.1269 13.71 10.0241 13.7514C9.92117 13.7928 9.8109 13.814 9.69957 13.8138H2.54688V3.54297H9.69957C9.8109 3.54278 9.92117 3.56399 10.0241 3.6054C10.1269 3.6468 10.2204 3.70758 10.2991 3.78425C10.3779 3.86092 10.4403 3.95197 10.4828 4.05218C10.5253 4.15239 10.5471 4.25978 10.5469 4.36821Z" fill="black"/>
<path opacity="0.1" d="M10.1832 4.36821V12.9886C10.1834 13.097 10.1617 13.2044 10.1191 13.3046C10.0766 13.4048 10.0142 13.4959 9.93551 13.5725C9.85679 13.6492 9.7633 13.71 9.66042 13.7514C9.55753 13.7928 9.44726 13.814 9.33594 13.8138H2.54688V3.54297H9.33594C9.44726 3.54278 9.55753 3.56399 9.66042 3.6054C9.7633 3.6468 9.85679 3.70758 9.93551 3.78425C10.0142 3.86092 10.0766 3.95197 10.1191 4.05218C10.1617 4.15239 10.1834 4.25978 10.1832 4.36821Z" fill="black"/>
<path d="M9.33333 3.54297H0.848484C0.379879 3.54297 0 3.91296 0 4.36936V12.6332C0 13.0897 0.379879 13.4596 0.848484 13.4596H9.33333C9.80194 13.4596 10.1818 13.0897 10.1818 12.6332V4.36936C10.1818 3.91296 9.80194 3.54297 9.33333 3.54297Z" fill="#0078D4"/>
<path d="M6.75837 6.68542H4.37757V8.04138H6.61224V8.91041H4.37757V10.3188H6.88524V11.1841H3.29688V5.8125H6.75837L6.75837 6.68542Z" fill="white"/>
</g>
<defs>
<clipPath id="clip0_4688_4417">
<rect width="20" height="17" fill="white"/>
</clipPath>
</defs>
</svg>
