<svg width="21" height="21" viewBox="0 0 21 21" fill="none" xmlns="http://www.w3.org/2000/svg">
<path d="M18.9344 1.76698L12.8093 0.0169655C12.7139 -0.0103926 12.6121 -0.00452722 12.5205 0.0335773L2.02027 4.4087C1.85764 4.47675 1.75173 4.63577 1.75165 4.8121V16.1874C1.75165 16.4273 1.94488 16.6225 2.18479 16.6249C1.94316 16.6264 1.74849 16.8235 1.75001 17.0651C1.75116 17.2531 1.87232 17.4194 2.05091 17.478L12.5512 20.9781C12.5958 20.9926 12.6425 20.9999 12.6894 21C12.73 20.9997 12.7704 20.9938 12.8093 20.9825L18.9345 19.2324C19.1222 19.1789 19.2518 19.0076 19.2521 18.8124V2.18699C19.2517 1.99184 19.1222 1.82047 18.9344 1.76698ZM2.38515 16.5785L5.01022 15.266C5.15825 15.1918 5.25173 15.0404 5.25173 14.8748V5.5917L13.1269 3.6229V18.3023L2.25562 16.6301C2.23507 16.6267 2.21432 16.6249 2.19348 16.6249C2.26005 16.624 2.32555 16.6082 2.38515 16.5785Z" fill="#FF5722"/>
</svg>
