<svg width="21" height="21" viewBox="0 0 21 21" fill="none" xmlns="http://www.w3.org/2000/svg">
<g clip-path="url(#clip0_4688_4404)">
<path d="M20.3438 4.59375H11.1562C10.794 4.59375 10.5 4.88775 10.5 5.25C10.5 5.61225 10.794 5.90625 11.1562 5.90625H18.4314L14.3994 9.04181L11.508 7.203L10.8045 8.31075L14.0858 10.3976C14.1921 10.4659 14.3154 10.5 14.4375 10.5C14.5792 10.5 14.7223 10.4541 14.8404 10.3622L19.6875 6.59137V15.0937H11.1562C10.794 15.0937 10.5 15.3877 10.5 15.75C10.5 16.1123 10.794 16.4062 11.1562 16.4062H20.3438C20.706 16.4062 21 16.1123 21 15.75V5.25C21 4.88775 20.706 4.59375 20.3438 4.59375Z" fill="#1976D2"/>
<path d="M11.5749 0.808072C11.4253 0.683384 11.2245 0.629572 11.0355 0.668947L0.5355 2.6377C0.224437 2.69545 0 2.96582 0 3.28213V17.7196C0 18.0346 0.224437 18.3063 0.5355 18.3641L11.0355 20.3328C11.0749 20.3407 11.1156 20.3446 11.1562 20.3446C11.3085 20.3446 11.4568 20.2921 11.5749 20.1937C11.7259 20.069 11.8125 19.8826 11.8125 19.6884V1.31338C11.8125 1.11782 11.7259 0.932759 11.5749 0.808072Z" fill="#2196F3"/>
<path d="M5.90625 15.0937C4.09763 15.0937 2.625 13.3271 2.625 11.1562C2.625 8.98537 4.09763 7.21875 5.90625 7.21875C7.71488 7.21875 9.1875 8.98537 9.1875 11.1562C9.1875 13.3271 7.71488 15.0937 5.90625 15.0937ZM5.90625 8.53125C4.82081 8.53125 3.9375 9.70856 3.9375 11.1562C3.9375 12.6039 4.82081 13.7812 5.90625 13.7812C6.99169 13.7812 7.875 12.6039 7.875 11.1562C7.875 9.70856 6.99169 8.53125 5.90625 8.53125Z" fill="#FAFAFA"/>
</g>
<defs>
<clipPath id="clip0_4688_4404">
<rect width="21" height="21" fill="white"/>
</clipPath>
</defs>
</svg>
