<svg width="50" height="18" viewBox="0 0 50 18" fill="none" xmlns="http://www.w3.org/2000/svg">
<rect width="50" height="18" rx="4" fill="#00CA6A"/>
<path d="M9.7015 13.165C9.12217 13.165 8.59967 13.0642 8.134 12.8625C7.672 12.6608 7.29067 12.373 6.99 11.999C6.693 11.6213 6.50417 11.174 6.4235 10.657L7.7985 10.448C7.91583 10.9173 8.156 11.2803 8.519 11.537C8.88567 11.7937 9.30733 11.922 9.784 11.922C10.0663 11.922 10.3322 11.878 10.5815 11.79C10.8308 11.702 11.0325 11.5737 11.1865 11.405C11.3442 11.2363 11.423 11.0292 11.423 10.7835C11.423 10.6735 11.4047 10.5727 11.368 10.481C11.3313 10.3857 11.2763 10.3013 11.203 10.228C11.1333 10.1547 11.0417 10.0887 10.928 10.03C10.818 9.96767 10.6897 9.9145 10.543 9.8705L8.497 9.2655C8.321 9.21417 8.13033 9.14633 7.925 9.062C7.72333 8.974 7.53083 8.85483 7.3475 8.7045C7.16783 8.5505 7.01933 8.35617 6.902 8.1215C6.78833 7.88317 6.7315 7.58983 6.7315 7.2415C6.7315 6.73183 6.85983 6.30467 7.1165 5.96C7.37683 5.61167 7.72517 5.35133 8.1615 5.179C8.6015 5.00667 9.08917 4.92233 9.6245 4.926C10.1672 4.92967 10.6512 5.02317 11.0765 5.2065C11.5018 5.38617 11.8575 5.64833 12.1435 5.993C12.4295 6.33767 12.6312 6.75383 12.7485 7.2415L11.324 7.489C11.2653 7.21033 11.1517 6.97383 10.983 6.7795C10.818 6.5815 10.6145 6.43117 10.3725 6.3285C10.1342 6.22583 9.87933 6.17083 9.608 6.1635C9.344 6.15983 9.09833 6.20017 8.871 6.2845C8.64733 6.36517 8.46583 6.4825 8.3265 6.6365C8.19083 6.7905 8.123 6.97017 8.123 7.1755C8.123 7.36983 8.18167 7.52933 8.299 7.654C8.41633 7.775 8.56117 7.87217 8.7335 7.9455C8.9095 8.01517 9.08733 8.07383 9.267 8.1215L10.686 8.5175C10.8803 8.56883 11.0985 8.6385 11.3405 8.7265C11.5825 8.8145 11.8153 8.93733 12.039 9.095C12.2627 9.25267 12.446 9.45983 12.589 9.7165C12.7357 9.97317 12.809 10.2995 12.809 10.6955C12.809 11.1062 12.7228 11.4673 12.5505 11.779C12.3818 12.087 12.1527 12.3437 11.863 12.549C11.5733 12.7543 11.2415 12.9083 10.8675 13.011C10.4972 13.1137 10.1085 13.165 9.7015 13.165ZM15.6825 13V6.323H13.1195V5.08H19.571V6.323H17.008V13H15.6825ZM20.2304 13V5.08H25.3454V6.323H21.5559V8.2755H24.6854V9.5185H21.5559V11.757H25.3454V13H20.2304ZM26.445 13V5.08H29.7175C29.7945 5.08 29.8935 5.08367 30.0145 5.091C30.1355 5.09467 30.2473 5.10567 30.35 5.124C30.8083 5.19367 31.186 5.34583 31.483 5.5805C31.7836 5.81517 32.0055 6.11217 32.1485 6.4715C32.2951 6.82717 32.3685 7.22317 32.3685 7.6595C32.3685 8.09217 32.2951 8.48817 32.1485 8.8475C32.0018 9.20317 31.7781 9.49833 31.4775 9.733C31.1805 9.96767 30.8046 10.1198 30.35 10.1895C30.2473 10.2042 30.1336 10.2152 30.009 10.2225C29.888 10.2298 29.7908 10.2335 29.7175 10.2335H27.7705V13H26.445ZM27.7705 8.996H29.6625C29.7358 8.996 29.8183 8.99233 29.91 8.985C30.0016 8.97767 30.086 8.963 30.163 8.941C30.383 8.886 30.5553 8.78883 30.68 8.6495C30.8083 8.51017 30.8981 8.3525 30.9495 8.1765C31.0045 8.0005 31.032 7.82817 31.032 7.6595C31.032 7.49083 31.0045 7.3185 30.9495 7.1425C30.8981 6.96283 30.8083 6.80333 30.68 6.664C30.5553 6.52467 30.383 6.4275 30.163 6.3725C30.086 6.3505 30.0016 6.33767 29.91 6.334C29.8183 6.32667 29.7358 6.323 29.6625 6.323H27.7705V8.996ZM36.6075 13V6.5265L35.1225 7.434V5.971L36.6075 5.08H37.9605V13H36.6075ZM40.2757 12.285V10.9265H41.6342V12.285H40.2757ZM40.2867 9.1335V7.775H41.6452V9.1335H40.2867Z" fill="white"/>
</svg>
