<svg width="20" height="20" viewBox="0 0 20 20" fill="none" xmlns="http://www.w3.org/2000/svg">
<path d="M18.3333 2.5H1.66668C0.747461 2.5 0 3.24746 0 4.16668V15.8334C0 16.7525 0.747461 17.5 1.66668 17.5H18.3334C19.2525 17.5 20 16.7525 20 15.8333V4.16668C20 3.24746 19.2525 2.5 18.3333 2.5Z" fill="#A0A8AE"/>
<path d="M12.5127 9.96972C14.6775 8.00124 18.0154 4.94745 19.1202 3.93628C19.1422 4.01089 19.1668 4.08499 19.1668 4.16663V15.8333C19.1668 15.9103 19.1424 15.9796 19.1228 16.0505C18.0092 14.9885 14.6703 11.8229 12.5127 9.96972Z" fill="#F2F2F2"/>
<path d="M18.3332 3.33325C18.3946 3.33325 18.4487 3.35563 18.5063 3.36829C17.0634 4.68888 12.2789 9.06591 10.6045 10.5745C10.4735 10.6925 10.2623 10.8333 9.99988 10.8333C9.73742 10.8333 9.52625 10.6925 9.3948 10.5741C7.72066 9.06575 2.93586 4.68849 1.49316 3.36837C1.5509 3.35571 1.60512 3.33329 1.66656 3.33329H18.3332V3.33325Z" fill="#FAFAFA"/>
<path d="M0.876992 16.0504C0.857344 15.9796 0.833008 15.9102 0.833008 15.8332V4.16659C0.833008 4.08495 0.857617 4.01089 0.879648 3.93628C1.98402 4.94706 5.32246 8.00112 7.48715 9.9696C5.32945 11.823 1.99016 14.9889 0.876992 16.0504Z" fill="#F2F2F2"/>
<path d="M1.66641 16.6666C1.59984 16.6666 1.54066 16.6434 1.47852 16.6285C2.62879 15.532 5.98934 12.3478 8.10906 10.5344C8.38539 10.7851 8.63781 11.0136 8.8368 11.1929C9.18023 11.503 9.58223 11.6666 9.99973 11.6666C10.4172 11.6666 10.8192 11.503 11.1622 11.1933C11.3613 11.014 11.6139 10.7852 11.8904 10.5344C14.0102 12.3476 17.3703 15.5315 18.5209 16.6285C18.4588 16.6434 18.3997 16.6666 18.333 16.6666H1.66641Z" fill="#FAFAFA"/>
<path d="M7.17988 10.2362C7.28391 10.1457 7.38805 10.0549 7.48738 9.9696C5.32266 8.00112 1.98426 4.94706 0.879883 3.93628L7.17988 10.2362ZM19.12 3.93628C18.0152 4.94741 14.6773 8.0012 12.5125 9.96968C14.6701 11.8228 18.009 14.9884 19.1226 16.0505C19.1423 15.9796 19.1666 15.9103 19.1666 15.8333V4.16663C19.1666 4.08499 19.142 4.01089 19.12 3.93628ZM11.1624 11.1934C10.8194 11.503 10.4174 11.6666 9.99992 11.6666C9.58246 11.6666 9.18043 11.503 8.83699 11.193C8.63801 11.0137 8.38559 10.7851 8.10926 10.5345C8.00016 10.6278 7.88582 10.7269 7.77062 10.8271L13.6103 16.6666H18.3333C18.3999 16.6666 18.459 16.6434 18.5212 16.6286C17.3705 15.5316 14.0105 12.3477 11.8906 10.5345C11.6141 10.7853 11.3615 11.014 11.1624 11.1934Z" fill="url(#paint0_linear_202_2403)"/>
<path d="M18.3333 2.5H1.66668C0.747461 2.5 0 3.24746 0 4.16668V15.8334C0 16.7525 0.747461 17.5 1.66668 17.5H18.3334C19.2525 17.5 20 16.7525 20 15.8333V4.16668C20 3.24746 19.2525 2.5 18.3333 2.5Z" fill="url(#paint1_linear_202_2403)"/>
<defs>
<linearGradient id="paint0_linear_202_2403" x1="5.44" y1="-0.622881" x2="20.6184" y2="14.5555" gradientUnits="userSpaceOnUse">
<stop stop-opacity="0.2"/>
<stop offset="1" stop-opacity="0"/>
</linearGradient>
<linearGradient id="paint1_linear_202_2403" x1="-0.589665" y1="5.06266" x2="20.5897" y2="14.9391" gradientUnits="userSpaceOnUse">
<stop stop-color="white" stop-opacity="0.2"/>
<stop offset="1" stop-color="white" stop-opacity="0"/>
</linearGradient>
</defs>
</svg>
