<svg width="24" height="24" viewBox="0 0 24 24" fill="none" xmlns="http://www.w3.org/2000/svg">
<path d="M10.6734 7.44999L8.41623 13.0281L6.23871 7.45455C6.17487 7.29111 6.01743 7.18359 5.84199 7.18359H2.82471C2.52231 7.18359 2.31615 7.49007 2.43039 7.77015L6.50319 17.7671L5.46303 20.3438C5.34999 20.6236 5.55615 20.9291 5.85783 20.9291H8.78127C8.95479 20.9291 9.11103 20.8238 9.17607 20.663L14.3906 7.76919C14.5038 7.48935 14.2977 7.18359 13.9958 7.18359H11.0682C10.8947 7.18383 10.7385 7.28919 10.6734 7.44999Z" fill="#6001D1"/>
<path d="M17.8468 3.33257C17.9118 3.17177 18.0681 3.06641 18.2416 3.06641H21.1693C21.4713 3.06641 21.6774 3.37193 21.5641 3.65201L18.471 11.271C18.406 11.4318 18.2497 11.5372 18.0762 11.5372H15.1528C14.8509 11.5372 14.6449 11.2319 14.758 10.9518L17.8468 3.33257Z" fill="#6001D1"/>
<path d="M15.3884 17.5698C16.6945 17.5698 17.7534 16.5109 17.7534 15.2048C17.7534 13.8987 16.6945 12.8398 15.3884 12.8398C14.0823 12.8398 13.0234 13.8987 13.0234 15.2048C13.0234 16.5109 14.0823 17.5698 15.3884 17.5698Z" fill="#6001D1"/>
</svg>
